<?xml version="1.0" encoding="UTF-8"?>
<!-- Generator: visioncortex VTracer 0.6.0 -->
<svg version="1.1" xmlns="http://www.w3.org/2000/svg" width="128" height="128">
<path d="M0 0 C42.24 0 84.48 0 128 0 C128 42.24 128 84.48 128 128 C85.75999999999999 128 43.519999999999996 128 0 128 C0 85.75999999999999 0 43.519999999999996 0 0 Z " fill="#496F6B" transform="translate(0,0)"/>
<path d="M0 0 C42.24 0 84.48 0 128 0 C128 42.24 128 84.48 128 128 C110.18 128 92.36 128 74 128 C75.59860335195529 113.61256983240224 75.59860335195529 113.61256983240224 79 110 C82.53498737325117 108.78389460279028 85.95981824876375 108.17389044662694 89.6484375 107.58203125 C95.57251445180195 106.55325797981529 98.50936602279849 103.93322198372594 101.875 99.1875 C108.68671788737645 88.28159997034217 114.1754466580441 77.2943796271458 118 65 C118.2023828125 64.3516015625 118.404765625 63.703203125 118.61328125 63.03515625 C119.17919978701096 60.05693849461906 119.2109160069198 57.15400946371534 119.25 54.125 C119.27578125 52.931328125 119.3015625 51.73765625 119.328125 50.5078125 C118.82470929112628 45.12605885037378 117.01883967028135 41.996198788719546 113.1875 38.25 C107.83761908028488 34.47361346843638 102.6434013885621 33.75328773350107 96.25 33.1875 C88.11289227188173 32.307109892004554 82.30328017150372 29.76685941435564 75.41796875 25.33984375 C74.5581640625 24.7945703125 73.698359375 24.249296875 72.8125 23.6875 C71.67748046875 22.91986328125 71.67748046875 22.91986328125 70.51953125 22.13671875 C65.85849790252607 20.033833937418734 61.986017910564364 20.715978497671962 57.17578125 22.1015625 C55.883072378625144 22.5966424932925 54.595246705976834 23.104652698483665 53.3125 23.625 C52.66216796875 23.8608984375 52.0118359375 24.096796875 51.341796875 24.33984375 C46.49426998477883 26.266995113084867 44.549457011583016 28.54267118504691 42 33 C40.81162711719552 34.6396537243758 39.60469469811188 36.26610429365979 38.375 37.875 C37.784609375 38.656171875 37.19421875 39.43734375 36.5859375 40.2421875 C36.062578125 40.822265625 35.53921875 41.40234375 35 42 C34.34 42 33.68 42 33 42 C32.67 42.99 32.34 43.98 32 45 C31.34 45 30.68 45 30 45 C29.67 45.99 29.34 46.98 29 48 C26.96874999999999 49.31640625000001 26.96874999999999 49.31640625000001 24.5 50.5625 C21.09741461079852 52.11619317945705 21.09741461079852 52.11619317945705 19 55 C18.34 55 17.68 55 17 55 C16.312255946175302 56.32258471889365 15.652886268346519 57.65986502813083 15 59 C14.484375 60.010625 13.96875 61.02125 13.4375 62.0625 C11.441436975735197 67.02114077606835 10.319284475690996 71.64276882368813 11 77 C12.678153244390435 80.64609068304416 14.68126236274497 83.95217699455885 16.7890625 87.359375 C25.149526670229612 100.9008701210115 25.80589543488463 112.37458250821257 26 128 C17.42 128 8.84 128 0 128 C0 85.75999999999999 0 43.519999999999996 0 0 Z " fill="#81A482" transform="translate(0,0)"/>
<path d="M0 0 C0.9899999999999949 0.6393750000000011 1.980000000000004 1.2787500000000023 3 1.9375 C3.989999999999995 2.618124999999999 4.980000000000004 3.2987499999999983 6 4 C6.866249999999994 4.556874999999998 7.732500000000002 5.113749999999996 8.625 5.6875 C13.537524686596342 10.470747721159597 15.469973985380761 16.85843603978813 15.98046875 23.58984375 C16.071770334928217 34.856459330143565 16.071770334928217 34.856459330143565 14 39 C8.600047564501992 38.723079362282164 5.450444340667474 36.492664609122414 1.24609375 33.375 C-1.2706042321766091 31.834343148302324 -3.0620396199797284 31.237082245856072 -6 31 C-12.41099494994043 33.038177585241186 -15.64602293031389 37.927089809599295 -18.765625 43.5625 C-19.745508084114107 45.497459001541785 -20.66499230207249 47.46298306455948 -21.5625 49.4375 C-23.35482648993134 52.63251678639935 -24.599741315054857 53.63989652602194 -28 55 C-34.72001289792045 56.0250867132421 -38.40869911440224 54.05240747987571 -44.09375 50.5078125 C-44.7228125 50.01023437500001 -45.351875 49.51265624999999 -46 49 C-46 48.34 -46 47.68000000000001 -46 47 C-46.556875000000005 46.731875 -47.113749999999996 46.463750000000005 -47.6875 46.1875 C-48.8321875 45.5996875 -48.8321875 45.5996875 -50 45 C-50.78375 44.62875 -51.5675 44.25749999999999 -52.375 43.875 C-56.13393238838107 41.19004829401352 -58.43813692796705 37.80419119189551 -61 34 C-61.4189453125 33.38382812500001 -61.837890625 32.76765625 -62.26953125 32.1328125 C-64.68541486065547 28.291301458321698 -65.60140100437549 25.51050753281619 -65 21 C-63.58187438626324 16.884976542798512 -61.16201719846869 15.622162767480134 -57.4375 13.5625 C-56.3662890625 12.964375000000004 -55.295078125 12.36625 -54.19140625 11.75 C-53.1382421875 11.1725 -52.085078124999995 10.594999999999999 -51 10 C-50.1015234375 9.484375 -49.203046875 8.96875 -48.27734375 8.4375 C-42.271484375 5 -42.271484375 5 -40 5 C-39.67 4.009999999999998 -39.34 3.019999999999996 -39 2 C-27.951537003978927 -9.590560479470696 -13.299730417299884 -8.680528745519553 0 0 Z " fill="#184C61" transform="translate(94,43)"/>
<path d="M0 0 C0 0.6600000000000001 0 1.3200000000000003 0 2 C0.556874999999998 2.2474999999999987 1.1137500000000031 2.495000000000001 1.6875 2.75 C4.000000000000007 4.000000000000007 4.000000000000007 4.000000000000007 6.5 6.0625 C8.827676472090111 7.866449265869832 10.144179100419493 8.576915422284369 13 9 C12.508993515293945 13.711939423407216 10.564867327024388 16.22407057074045 7.5625 19.8125 C6.759414062499999 20.788320312500005 5.956328124999999 21.764140624999996 5.12890625 22.76953125 C4.426367187499999 23.5055859375 3.723828124999997 24.241640625000002 3 25 C2.3400000000000034 25 1.6799999999999997 25 1 25 C0.5050000000000026 26.485 0.5050000000000026 26.485 0 28 C-0.6600000000000001 28 -1.3200000000000003 28 -2 28 C-2.3299999999999983 28.989999999999995 -2.66 29.980000000000004 -3 31 C-5.031250000000011 32.31640625000001 -5.031250000000011 32.31640625000001 -7.5 33.5625 C-10.902585389201477 35.11619317945705 -10.902585389201477 35.11619317945705 -13 38 C-13.66 38 -14.32 38 -15 38 C-15.687744053824698 39.32258471889365 -16.34711373165348 40.65986502813083 -17 42 C-17.515625 43.010625 -18.03125 44.02125 -18.5625 45.0625 C-20.558563024264803 50.02114077606835 -21.680715524309008 54.64276882368813 -21 60 C-19.321846755609574 63.64609068304415 -17.31873763725503 66.95217699455885 -15.2109375 70.359375 C-6.850473329770384 83.9008701210115 -6.194104565115371 95.37458250821255 -6 111 C-14.579999999999998 111 -23.16 111 -32 111 C-32 84.27 -32 57.53999999999999 -32 30 C-30.35 29.67 -28.7 29.340000000000003 -27 29 C-27 28.340000000000003 -27 27.68 -27 27 C-26.4225 26.484375 -25.845 25.96875 -25.25 25.4375 C-20.16236610224984 19.925896610770664 -18.198494240313828 12.045174724642031 -16 5 C-15.34 5 -14.68 5 -14 5 C-13.752500000000001 4.381250000000001 -13.504999999999999 3.7624999999999993 -13.25 3.125 C-10.238522436420308 -1.994511858085474 -5.131513786124884 -1.7105045953749602 0 0 Z " fill="#709C95" transform="translate(32,17)"/>
<path d="M0 0 C-0.011601562500000995 0.9036328124999997 -0.023203124999998437 1.8072656249999994 -0.03515625 2.73828125 C-0.04417968750000156 3.917773437500003 -0.053203124999999574 5.097265624999999 -0.0625 6.3125 C-0.074101562500001 7.484257812499997 -0.08570312499999844 8.656015625000002 -0.09765625 9.86328125 C-0.14899897769973336 13.030591950178085 -0.14899897769973336 13.030591950178085 1 16 C0.8968750000000014 16.845625 0.7937499999999993 17.691249999999997 0.6875 18.5625 C1.2477192653999047 24.72491191939895 5.190637478557932 29.80683330734294 9.0625 34.5 C13.520794743316465 40.25263837847285 16.315984929115217 46.957755158118175 18 54 C18.5775 54.103125000000006 19.155 54.20625 19.75 54.3125 C22 55 22 55 23.86328125 56.44140625 C30.951784645090825 61.61199647786333 40.57103286856622 61.61686513038937 49 62 C47.66666666666667 68 46.33333333333333 74 45 80 C29.159999999999997 80 13.32 80 -3 80 C-3.66 73.4 -4.32 66.8 -5 60 C-7.044658834085201 50.7452284351933 -11.30553662259689 41.786631864606534 -16.4140625 33.78515625 C-19.685617449521327 28.52173621216467 -19.072476923115488 24.12317471231262 -17.91015625 18.14453125 C-16.69571809906807 13.94872562124376 -15.023265416063193 10.207374527938839 -12 7 C-11.34 7 -10.68 7 -10 7 C-9.670000000000002 6.009999999999998 -9.34 5.019999999999996 -9 4 C-3.7428571428571438 0 -3.7428571428571438 0 0 0 Z " fill="#60887D" transform="translate(29,48)"/>
<path d="M0 0 C3.6299999999999955 1.980000000000004 7.259999999999991 3.9599999999999937 11 6 C11.763125000000002 5.340000000000003 12.526250000000005 4.680000000000007 13.3125 4 C16 2 16 2 19 2 C19 14.870000000000005 19 27.74000000000001 19 41 C1.1800000000000068 41 -16.64 41 -35 41 C-33.401396648044695 26.61256983240223 -33.401396648044695 26.61256983240223 -30 23 C-26.46501262674883 21.783894602790298 -23.040181751236247 21.173890446626928 -19.3515625 20.58203125 C-14.327761136022787 19.709599544600692 -11.546215660579293 18.021068693396785 -8.4609375 13.98828125 C-5.362585731115587 9.493381762628275 -2.641265779227595 4.7745958316806565 0 0 Z " fill="#699998" transform="translate(109,87)"/>
<path d="M0 0 C4.041647362249222 1.6520041499687856 7.778783823057651 1.8594461627074637 12.125 2.0625 C21.094311261744437 2.5336332971976745 26.701747764469275 4.396524992497731 33.66796875 10.16015625 C35.981993374588114 11.936251926960797 35.981993374588114 11.936251926960797 40.625 13.5625 C40.625 33.0325 40.625 52.5025 40.625 72.5625 C38.64500000000001 73.5525 36.66499999999999 74.5425 34.625 75.5625 C33.63499999999999 76.2225 32.64500000000001 76.8825 31.625 77.5625 C30.142147582619714 76.6098796591375 28.66381799237135 75.65021594510331 27.1875 74.6875 C26.36378906249999 74.153828125 25.540078125000008 73.62015625 24.69140625 73.0703125 C22.625 71.5625 22.625 71.5625 21.625 69.5625 C22.64493436314504 67.35764189143644 23.718650648991172 65.25649873049029 24.875 63.125 C30.30836550108137 52.60516538469173 33.09161724324767 42.56863135403732 31.625 30.5625 C29.510767457110063 25.469957266256408 27.149326034183446 22.75614190648244 22.625 19.5625 C18.083988653423333 17.739561632093682 13.704760970211609 17.17741247523996 8.875 16.75 C1.904281958602951 15.995806813142615 -3.364963051839098 14.283479251462037 -9.375 10.5625 C-10.308281249999993 10.0146484375 -11.2415625 9.466796875 -12.203125 8.90234375 C-14.610050509362253 7.4803751879046985 -16.998205407755137 6.034089843283525 -19.375 4.5625 C-14.302597614123968 -1.0612504712973418 -6.939338591489744 -2.9556442148937805 0 0 Z " fill="#759D87" transform="translate(87.375,16.4375)"/>
<path d="M0 0 C3.1100983819873136 1.6846366235764663 6.0694776481056465 3.518371005207328 9.03125 5.44921875 C11.568193927553764 6.964338040066835 14.159342215412735 7.8438191092384955 17 8.625 C18.540575677898048 14.832881873660199 16.87855431524784 17.622004788693175 13.7421875 22.93359375 C8.942630120308934 30.348156607863558 4.906431990887285 34.16087037972372 -3.7734375 36.3125 C-15.594665716497019 38.6475574254809 -28.41230582987049 37.75931352949772 -39 31.625 C-39.8366015625 31.220234375000004 -40.673203125 30.815468750000008 -41.53515625 30.3984375 C-44.7564604835856 28.080732076786262 -45.68759349439842 25.809816135355234 -47.25 22.1875 C-47.75015625 21.0544140625 -48.2503125 19.921328125000002 -48.765625 18.75390625 C-49.711726229197325 16.355719273458675 -50.48101214424867 14.139619729652281 -51 11.625 C-48.05043471813538 12.994441023722857 -45.47531189413039 14.503304090745374 -43 16.625 C-43 17.284999999999997 -43 17.944999999999993 -43 18.625 C-42.278125 18.893124999999998 -41.55625 19.161249999999995 -40.8125 19.4375 C-38.00000000000001 20.625 -38.00000000000001 20.625 -35.6875 22.25 C-31.178366647026046 24.556998459661088 -26.973976829910754 24.054125397806686 -22.125 23 C-19.146394729066486 21.07266717763126 -19.086779604750888 18.961253566055106 -18 15.625 C-14.367954708360344 8.547419850615697 -9.194847088067391 -1.149355886008422 0 0 Z " fill="#2C6574" transform="translate(91,73.375)"/>
<path d="M0 0 C10.367289668233564 4.14691586729343 14.160874060984362 11.468166455978277 19 21 C19.5968359375 22.147265625000003 20.193671875 23.294531250000006 20.80859375 24.4765625 C25.962227815026793 35.6242313888589 25.848388267973863 45.79525557189601 26 58 C17.42 58 8.84 58 0 58 C0 38.86 0 19.72 0 0 Z " fill="#94C1BA" transform="translate(0,70)"/>
<path d="M0 0 C0.9900000000000091 0.6393750000000011 1.9799999999999898 1.2787500000000023 3 1.9375 C3.990000000000009 2.618124999999999 4.97999999999999 3.2987499999999983 6 4 C6.866250000000008 4.556874999999998 7.732500000000002 5.113749999999996 8.625 5.6875 C13.537524686596342 10.470747721159597 15.469973985380761 16.85843603978813 15.98046875 23.58984375 C16.07177033492823 34.856459330143565 16.07177033492823 34.856459330143565 14 39 C8.624455274889982 38.72433103973795 5.392906695965053 36.50335618466278 1.1484375 33.47265625 C-0.9364934652116403 31.947921669426677 -0.9364934652116403 31.947921669426677 -3.21484375 31.015625 C-5 30 -5 30 -5.9375 26.6875 C-7.157039717734321 22.454979803157357 -8.731252611166028 20.860153965229728 -12 18 C-13.41681984465994 16.58318015534006 -14.81056738370512 15.143114480083163 -16.1875 13.6875 C-21.438732137586996 8.669655957416865 -25.455330797437583 5.260161006984909 -33 5 C-36.02016712083247 5.2174520326999385 -39.00475817161753 5.55852444706381 -42 6 C-41.34 5.670000000000002 -40.68 5.340000000000003 -40 5 C-39.67 4.009999999999998 -39.34 3.019999999999996 -39 2 C-27.95153700397894 -9.590560479470696 -13.299730417299884 -8.680528745519553 0 0 Z " fill="#2B575F" transform="translate(94,43)"/>
<path d="M0 0 C-0.011601562500000995 0.9036328124999997 -0.023203124999998437 1.8072656249999994 -0.03515625 2.73828125 C-0.04417968750000156 3.917773437500003 -0.053203124999999574 5.097265624999999 -0.0625 6.3125 C-0.074101562500001 7.484257812499997 -0.08570312499999844 8.656015625000002 -0.09765625 9.86328125 C-0.14899897769973336 13.030591950178085 -0.14899897769973336 13.030591950178085 1 16 C0.8968750000000014 16.845625 0.7937499999999993 17.691249999999997 0.6875 18.5625 C1.2477192653999047 24.72491191939895 5.190637478557932 29.80683330734294 9.0625 34.5 C13.258470960501384 39.9141560780663 16.10152769067946 46.44164111325634 18 53 C13.625271106284686 54.29253353677953 9.229369557342046 55.4842907263168 4.8125 56.625 C3.3062304687500017 57.01558593749999 3.3062304687500017 57.01558593749999 1.76953125 57.4140625 C-0.9999999999999964 58 -0.9999999999999964 58 -5 58 C-5.219140625000001 57.41734375 -5.438281249999999 56.8346875 -5.6640625 56.234375 C-7.5622483726929595 51.326870060842595 -9.641456955275093 46.580113789730405 -12 41.875 C-12.505312500000002 40.8605078125 -13.010625000000001 39.84601562500001 -13.53125 38.80078125 C-14.905982421879816 36.077102309854936 -14.905982421879816 36.077102309854936 -16.34375 33.91796875 C-19.660731045357597 28.59511065356466 -19.086287811426942 24.19421395219007 -17.91015625 18.14453125 C-16.69571809906807 13.94872562124376 -15.023265416063193 10.207374527938839 -12 7 C-11.34 7 -10.68 7 -10 7 C-9.670000000000002 6.009999999999998 -9.34 5.019999999999996 -9 4 C-3.7428571428571438 0 -3.7428571428571438 0 0 0 Z " fill="#55878F" transform="translate(29,48)"/>
<path d="M0 0 C17.819999999999993 0 35.64 0 54 0 C54 9.9 54 19.8 54 30 C49.204484044515226 28.401494681505078 46.4103027571263 27.159908479807747 42.375 24.4375 C36.50611761110922 20.483813124570776 32.80184807568456 19.924774918197116 25.75 19.625 C16.28432757683626 19.07374506181143 9.67441893990086 16.974591220266767 3 10 C0.06066493572136267 6.112492334341158 0 5.145223845085439 0 0 Z " fill="#9CC7A5" transform="translate(74,0)"/>
<path d="M0 0 C10.56 0 21.12 0 32 0 C33.16344172981185 3.490325189435543 32.7653971790894 4.567076282710549 31.6875 8 C31.4232421875 8.86625 31.158984375 9.7325 30.88671875 10.625 C30 13.000000000000002 30 13.000000000000002 28 16 C25.993852985261768 16.902766156632204 23.9754740067403 17.50757420380079 21.875 18.15625 C19.642089704720632 18.961468987350294 19.642089704720632 18.961468987350294 18 22 C17.34 22 16.68 22 16 22 C15.79375 23.2375 15.5875 24.475 15.375 25.75 C14.01127668980483 31.911282293543643 11.390542073898182 37.68556255083644 8 43 C6.515 43.495 6.515 43.495 5 44 C5 44.66 5 45.32 5 46 C2.5249999999999995 46.495 2.5249999999999995 46.495 0 47 C0 31.49 0 15.979999999999997 0 0 Z " fill="#90BCA6" transform="translate(0,0)"/>
<path d="M0 0 C6 2 6 2 8.625 3.0625 C11.833905030329163 3.9538625084247663 14.503427539595023 4.194657647912024 17.8125 4.375 C25.468407826295305 4.944212477791474 31.29650780875174 6.730149747724106 36.5 12.5625 C41.3090197585085 18.560416309917535 40.53173418822763 25.660570359675056 40 33 C38.18936998215757 41.98072488849846 34.33248765845538 49.98489783185755 30 58 C29.340000000000003 57.34 28.680000000000007 56.68000000000001 28 56 C28.071012708127952 53.274887325589674 28.243140149518155 50.64531481795754 28.5 47.9375 C28.994712255998394 41.545630716695456 28.97610159701651 36.160787331875 27 30 C26.854335937499997 29.333554687499998 26.708671874999993 28.667109374999995 26.55859375 27.98046875 C25.78381451921328 24.313641793245715 25.78381451921328 24.313641793245715 23.1875 21.8125 C22.465625000000003 21.544375000000002 21.743750000000006 21.276250000000005 21 21 C20.216250000000002 20.360625 19.432500000000005 19.721249999999998 18.625 19.0625 C16.07330747276221 16.8920110898518 16.07330747276221 16.8920110898518 13 15.625 C7.04804928276468 12.401026694830861 2.991461259224849 5.982922518449712 0 0 Z " fill="#517164" transform="translate(80,28)"/>
<path d="M0 0 C0 12.870000000000005 0 25.74000000000001 0 39 C-8.25 39 -16.5 39 -25 39 C-25 33.60065409596359 -24.425624159945727 32.55863908670196 -21.5625 28.25 C-17.67985308730502 22.285952231596553 -14.36514078571956 16.127397794089404 -11.234619140625 9.7373046875 C-8.710876617154057 4.767795545133879 -6.166761932538407 0 0 0 Z " fill="#B0D5C8" transform="translate(128,89)"/>
<path d="M0 0 C3.299999999999997 0.3299999999999983 6.599999999999994 0.6599999999999966 10 1 C10 15.850000000000001 10 30.700000000000003 10 46 C8.019999999999996 46.99000000000001 6.039999999999992 47.97999999999999 4 49 C3.010000000000005 49.66 2.019999999999996 50.31999999999999 1 51 C-0.4828524173803004 50.047379659137505 -1.9611820076286506 49.08771594510333 -3.4375 48.125 C-4.261210937499996 47.59132812499999 -5.084921875000006 47.05765625000001 -5.93359375 46.5078125 C-8 45 -8 45 -9 43 C-7.980065636854945 40.79514189143643 -6.906349351008842 38.69399873049029 -5.75 36.5625 C0.2632200873675572 24.91997736610648 3.2732779286202884 13.093111714481132 0 0 Z " fill="#788E7E" transform="translate(118,43)"/>
</svg>
