<?xml version="1.0" encoding="UTF-8"?>
<!-- Generator: visioncortex VTracer 0.6.0 -->
<svg version="1.1" xmlns="http://www.w3.org/2000/svg" width="128" height="128">
<path d="M0 0 C42.24 0 84.48 0 128 0 C128 42.24 128 84.48 128 128 C85.75999999999999 128 43.519999999999996 128 0 128 C0 85.75999999999999 0 43.519999999999996 0 0 Z " fill="#91A4DA" transform="translate(0,0)"/>
<path d="M0 0 C42.24 0 84.48 0 128 0 C128 15.510000000000002 128 31.020000000000003 128 47 C118.2273000886728 47 114.47559358521623 45.98372905681082 107 41 C107 40.34 107 39.68 107 39 C106.34 39 105.68 39 105 39 C104.34 38.34 103.68 37.68 103 37 C102.01 37.495 102.01 37.495 101 38 C100.34 37.67 99.68 37.34 99 37 C99 37.66 99 38.32 99 39 C97.3744671696861 40.7068094718296 95.70884005283672 42.376601949805114 94 44 C83.63464616357722 40.78153396859932 71.48527909774037 35.858608597010914 65.32421875 26.4375 C62.234928112230556 23.197638894171206 59.198629203885496 22.734133753124606 54.9375 22.125 C53.803930664062506 21.942517089843747 53.803930664062506 21.942517089843747 52.6474609375 21.75634765625 C47.40263860012665 20.99096561511222 42.55275615507342 20.919775274175972 37.296875 21.7734375 C34.641316209978555 22.03538037384565 32.596378722038516 21.586279066266762 30 21 C20.502206472971164 19.62699557060835 14.793656950637605 22.16246533309685 7.03125 27.15234375 C4.000000000000002 29 4.000000000000002 29 0 30 C0 20.1 0 10.2 0 0 Z " fill="#8F658F" transform="translate(0,0)"/>
<path d="M0 0 C8.580320909596166 1.7160641819192364 14.331184759231505 6.792649335683421 19.33203125 13.890625 C22.393733003101854 19.71588526432862 22.767660448074047 26.065763406749426 23.22998046875 32.52880859375 C23.609199349290396 37.294223089863294 24.28500237526323 40.91843341492802 27 45 C32.67383373088749 49.354568195558755 40.23849667885005 50.918448192232376 47 53 C47.8907421875 53.27585937500001 48.781484375 53.55171874999999 49.69921875 53.8359375 C54.798682936514616 55.20647412255366 59.21176263767116 55.50718794126048 64 53 C70.64459573267914 47.61830799189056 74.24306290063409 39.49103567533143 78 32 C83.00824025404602 32.438144955396496 85.8169168256969 33.133803703388736 89.5625 36.5 C93.02701106623076 39.353817590149404 95.32226754023877 41.20789922043383 100 41 C104.17043988605883 39.638223710674666 106.06897302215565 38.103155868026136 108.25 34.4375 C109.79758502684265 32.06620036209593 110.6093470517833 31.147328159651693 113.2890625 30.13671875 C115.86259713250128 29.627454343870596 118.39172617824464 29.279727917115792 121 29 C123.31 28.67 125.62 28.340000000000003 128 28 C128 40.53999999999999 128 53.08 128 66 C85.75999999999999 66 43.519999999999996 66 0 66 C0 44.22 0 22.439999999999998 0 0 Z " fill="#586489" transform="translate(0,62)"/>
<path d="M0 0 C3.1262094967370064 1.5631047483685023 3.5092887075731483 4.511439598610284 4.70703125 7.67578125 C7.717445792146737 13.08725149947827 12.812026772903462 14.926719861998052 18.375 16.9375 C30.889909293635483 21.732762777242044 30.889909293635483 21.732762777242044 34.9375 28 C36.027494586387895 31.077631773330538 36.41293703929372 32.78394917632416 36 36 C34.17187500000001 38.21093749999999 34.17187500000001 38.21093749999999 31.75 40.375 C25.870556311239298 45.93088939771255 22.25064471193207 51.057053122827995 21.83203125 59.3125 C21.8255859375 60.529375 21.819140625 61.74625 21.8125 63 C21.7983203125 64.216875 21.784140625 65.43375 21.76953125 66.6875 C21.986992392065538 69.81304319443349 22.195111503729883 71.4814137650087 24 74 C31.534335582727323 77.83824642893656 39.83542693776004 79.53561945457233 48.1796875 77.45703125 C54.47737316922104 74.8472899123656 57.55010278112272 69.64920669591154 61 64 C63.88437779398484 65.29299694213114 65.87219421209737 66.6594136333071 68 69 C59.584882966325424 87.64306513045457 59.584882966325424 87.64306513045457 52 92 C44.47487196945101 94.72185481956028 35.076658397212405 90.58459623504396 27.75 88.25 C26.973984375 88.023125 26.19796875 87.79625 25.3984375 87.5625 C19.88410704496939 85.7933973966796 17.25411238285327 83.81810438081375 14 79 C12.970722562438379 75.91216768731513 12.717462821080225 73.0718853556744 12.45654296875 69.84326171875 C11.445880946174121 58.07131896406594 8.762965170248307 50.27816698624507 0.35546875 41.69140625 C-2.7041450280977024 39.33911627570524 -2.7041450280977024 39.33911627570524 -10 37 C-10 26.439999999999998 -10 15.879999999999995 -10 5 C-6.699999999999999 3.3500000000000014 -3.3999999999999995 1.6999999999999993 0 0 Z " fill="#8B96B2" transform="translate(10,25)"/>
<path d="M0 0 C1.9065234374999989 0.253300781250001 1.9065234374999989 0.253300781250001 3.8515625 0.51171875 C8.736460036209827 1.6219227355022348 11.440091096510073 3.102617889601266 14.5 7.0625 C20.05346529393718 14.056395354552137 30.825575512393712 19.998474247276746 39.375 22.3125 C41.6629023751329 21.542866280545404 41.6629023751329 21.542866280545404 43.375 20.3125 C43.375 19.652500000000003 43.375 18.9925 43.375 18.3125 C44.36500000000001 18.3125 45.35499999999999 18.3125 46.375 18.3125 C46.375 17.652500000000003 46.375 16.9925 46.375 16.3125 C48.025000000000006 15.982500000000002 49.675 15.652500000000003 51.375 15.3125 C51.870000000000005 16.7975 51.870000000000005 16.7975 52.375 18.3125 C53.035 18.3125 53.69499999999999 18.3125 54.375 18.3125 C54.375 18.972499999999997 54.375 19.6325 54.375 20.3125 C55.69758471889365 21.0002440538247 57.034865028130824 21.65961373165348 58.375 22.3125 C59.40625 22.828125 60.4375 23.34375 61.5 23.875 C66.2599823292645 25.826527053385092 66.2599823292645 25.826527053385092 75.375 26.3125 C75.375 40.5025 75.375 54.692499999999995 75.375 69.3125 C70.80576360092324 70.61799611402193 67.47343485841095 71.56468343629498 62.9375 71.9375 C61.64005859375 72.0496484375 61.64005859375 72.0496484375 60.31640625 72.1640625 C59.675742187500006 72.213046875 59.035078125 72.26203125 58.375 72.3125 C58.444609375 71.5944921875 58.51421875 70.876484375 58.5859375 70.13671875 C59.13812589696582 59.579402493724956 56.29761950064392 50.06354678513614 52.375 40.3125 C51.31731964265755 39.05769842144838 51.31731964265755 39.05769842144838 48.9375 38.9375 C45.347989378903236 39.315343223273345 43.728731534950526 40.05394512971995 40.625 41.75 C34.26709863602943 45.115385383635555 28.835991401260685 45.55118906215591 21.75 45.0625 C15.213139304100096 41.67301667620005 11.096129316909696 34.663310198399444 8.375 27.9375 C7.516730254491279 24.826272172530906 7.075898447683926 22.502916558038066 7.375 19.3125 C6.715000000000003 18.9825 6.055 18.652500000000003 5.375 18.3125 C4.8387500000000045 17.590625000000003 4.302499999999995 16.86875 3.75 16.125 C1.12105664061815 13.011777600732017 -1.6829044061617964 10.949460273840657 -5.015625 8.64453125 C-5.546718749999997 8.204960937499997 -6.0778125 7.765390625000002 -6.625 7.3125 C-6.625 6.6525 -6.625 5.9925 -6.625 5.3125 C-7.388125000000002 5.209375000000001 -8.151249999999997 5.106249999999999 -8.9375 5 C-11.795594241065743 4.268859612750624 -12.782428846137087 3.542980870465634 -14.625 1.3125 C-9.34423180658495 -0.5091603457904625 -5.634719366929673 -0.8090584834389851 0 0 Z " fill="#9C83BF" transform="translate(52.625,20.6875)"/>
<path d="M0 0 C25.41 0 50.82 0 77 0 C75.86893617021276 7.9174468085106415 75.86893617021276 7.9174468085106415 73.0625 11.4375 C72.5378515625 12.1168359375 72.013203125 12.796171875 71.47265625 13.49609375 C70.9866796875 13.9923828125 70.500703125 14.488671875 70 15 C69.34 15 68.68 15 68 15 C68 15.66 68 16.32 68 17 C63.69767441860466 21.76744186046511 63.69767441860466 21.76744186046511 60 23 C57.638287241074295 22.72518251532501 55.28426503777014 22.38197599800938 52.9375 22 C47.508745625258 21.174112650530095 42.58458577481677 20.90256903753054 37.1484375 21.80859375 C34.57436927138268 22.037919828549544 32.51804537767345 21.55956563948299 30 21 C20.502206472971164 19.62699557060835 14.793656950637605 22.16246533309685 7.03125 27.15234375 C4.000000000000002 29 4.000000000000002 29 0 30 C0 20.1 0 10.2 0 0 Z " fill="#6E5892" transform="translate(0,0)"/>
<path d="M0 0 C5.409892122767701 3.282514615415984 9.949459808079865 6.848379424239596 12 13 C12.633987355913163 21.17947621481406 12.812354265634553 28.132369433417367 8 35 C7.133749999999992 36.36125 7.133749999999992 36.36125 6.25 37.75 C1.8893743658185613 42.110625634181446 -2.6840199487278227 44.22334660200002 -8.875 44.4375 C-15.732871895964465 44.141172202026226 -22.772412214228275 42.6633767692457 -28 38 C-30.283332281741973 31.150003154774083 -30.26292453746254 21.611890406583896 -27.2421875 14.9375 C-21.0025481330701 5.205232308184804 -12.18843056440317 -4.792959350058894 0 0 Z " fill="#D1CCE2" transform="translate(60,60)"/>
<path d="M0 0 C6.28312642402301 1.0471877373371683 7.152119909122801 1.4241425946325137 11 6 C14.47028012620946 10.88872367394032 15.287814098764535 16.0054607049548 16.4609375 21.76171875 C17.37022918806636 25.97278271522535 18.18539165869017 29.611110584566404 21 33 C23.705865273219317 34.32643815561558 23.705865273219317 34.32643815561558 26.875 35.0625 C28.027421875 35.3821875 29.17984375 35.701875 30.3671875 36.03125 C32.165429687499994 36.51078125000001 32.165429687499994 36.51078125000001 34 37 C36.33697632419652 37.67501285512898 38.67051740671583 38.362063320470355 41 39.0625 C42.03125 39.3628515625 43.0625 39.663203124999995 44.125 39.97265625 C48.59664005687674 41.57053849858502 51.343532711694856 43.01529906754229 54 47 C54 48.31999999999999 54 49.64 54 51 C36.18 51 18.36 51 0 51 C0 34.17 0 17.340000000000003 0 0 Z " fill="#38264B" transform="translate(0,77)"/>
<path d="M0 0 C1.4052618787034277 0.5385127637367155 2.801818460414623 1.1004364469695531 4.1875 1.6875 C5.231640624999997 2.1167578125000013 5.231640624999997 2.1167578125000013 6.296875 2.5546875 C7.936606978521802 3.243374930979158 9.563727076034716 3.961984438228278 11.1875 4.6875 C11.1875 5.3475 11.1875 6.0075 11.1875 6.6875 C11.991875 6.955624999999998 12.79625 7.223750000000003 13.625 7.5 C14.470624999999998 7.891874999999999 15.316249999999997 8.283749999999998 16.1875 8.6875 C16.682499999999997 10.1725 16.682499999999997 10.1725 17.1875 11.6875 C17.847499999999997 12.017499999999998 18.5075 12.347499999999997 19.1875 12.6875 C19.847499999999997 13.017499999999998 20.5075 13.347499999999997 21.1875 13.6875 C21.682499999999997 15.1725 21.682499999999997 15.1725 22.1875 16.6875 C22.847499999999997 17.0175 23.5075 17.347499999999997 24.1875 17.6875 C24.927972528722286 19.572339164020363 25.66048068120039 21.46086610054909 26.34375 23.3671875 C29.18877397735268 31.192621945084014 29.18877397735268 31.192621945084014 33.9375 37.9375 C36.1875 40.6875 36.1875 40.6875 36.5 43.5625 C36.396874999999994 44.26375 36.29375 44.965 36.1875 45.6875 C32.619710652597064 45.6875 32.13628212884075 45.04772500984876 29.5 42.8125 C25.37831282971721 39.62102846631314 22.372489830139287 38.356530945824424 17.1875 37.6875 C13.792557389814831 38.42657048247645 13.792557389814831 38.42657048247645 11.1875 39.6875 C10.847187500000004 37.8621875 10.847187500000004 37.8621875 10.5 36 C9.232967639567555 31.045466562998634 6.9337496058200045 28.344170295854298 2.50390625 25.671875 C-0.5234720410228135 24.08580570823753 -3.5836375024478535 22.773210659398636 -6.78515625 21.57421875 C-13.300206494093604 19.095754778579014 -18.278673423100706 16.924440189825994 -21.8125 10.6875 C-22.75114605941856 8.327081232932734 -23.301404319548546 6.191868834212123 -23.8125 3.6875 C-16.507342093362233 -2.271970923836072 -9.122205847648964 -3.0040367532775036 0 0 Z " fill="#A4A5D5" transform="translate(34.8125,21.3125)"/>
<path d="M0 0 C7.920000000000002 0 15.840000000000003 0 24 0 C24 15.510000000000002 24 31.020000000000003 24 47 C14.22730008867289 47 10.475593585216217 45.983729056810816 3 41 C3 40.34 3 39.68 3 39 C2.3400000000000034 39 1.6800000000000068 39 1 39 C-0.6405844438300932 35.71883111233981 -0.1903974100153647 32.103653706609 -0.1875 28.5 C-0.1881445312500034 27.6893408203125 -0.18878906250000682 26.878681640625 -0.189453125 26.04345703125 C-0.1378791399556576 20.181604776550447 0.4057463273305473 14.66529430109323 2 9 C1.3400000000000034 8.67 0.6800000000000068 8.34 0 8 C0 5.359999999999999 0 2.7199999999999998 0 0 Z " fill="#77607F" transform="translate(104,0)"/>
<path d="M0 0 C6.373125 -0.0309375 6.373125 -0.0309375 12.875 -0.0625 C14.2141748046875 -0.07160400390625 15.553349609375001 -0.0807080078125 16.93310546875 -0.090087890625 C18.509226074218752 -0.093834228515625 18.509226074218752 -0.093834228515625 20.1171875 -0.09765625 C21.735363769531247 -0.10551147460937499 21.735363769531247 -0.10551147460937499 23.38623046875 -0.113525390625 C26 -0.000000000000000013877787807814457 26 -0.000000000000000013877787807814457 28 1 C28.58035902363318 3.385920430491955 28.965402565632363 5.7578179594265535 29.3125 8.1875 C30.278240922242354 10.733544249548029 31.544066853920135 10.871598284233576 34 12 C35.503219922882124 13.215369299351504 37.00521720456823 14.433067933688282 38.47265625 15.69140625 C40.603649272809555 17.517193110974937 42.80268937277529 19.25507685485097 45 21 C43.43867691382861 21.197060195342022 41.87584735975676 21.382201545371117 40.3125 21.5625 C39.4423828125 21.6669140625 38.572265625 21.771328125 37.67578125 21.87890625 C34.89921201516204 22.004561208072957 32.70286803696866 21.606250774647176 30 21 C20.502206472971164 19.62699557060835 14.793656950637605 22.16246533309685 7.03125 27.15234375 C4.000000000000002 29 4.000000000000002 29 0 30 C0 20.1 0 10.2 0 0 Z " fill="#7770A2" transform="translate(0,0)"/>
<path d="M0 0 C2.8843777939848394 1.2929969421311398 4.872194212097355 2.6594136333070963 7 5 C-1.4151170336745622 23.643065130454573 -1.4151170336745622 23.643065130454573 -9 28 C-16.525128030548984 30.721854819560264 -25.923341602787595 26.58459623504396 -33.25 24.25 C-34.4140234375 23.909687500000004 -34.4140234375 23.909687500000004 -35.6015625 23.5625 C-41.11589295503062 21.793397396679595 -43.74588761714673 19.818104380813764 -47 15 C-48.049769644364645 11.850691066906066 -48.10131594631332 9.611855436632425 -48.0625 6.3125 C-48.053476562499995 5.318632812499999 -48.044453125000004 4.324765624999998 -48.03515625 3.30078125 C-48.023554687499995 2.541523437500004 -48.011953125000005 1.7822656249999937 -48 1 C-47.5875 1.3751171874999955 -47.175 1.7502343750000051 -46.75 2.13671875 C-37.800511556099146 10.067403821938925 -29.654531298592403 14.670697742682762 -17.44921875 14.296875 C-11.969109004691006 13.632619273295887 -8.468867829483472 11.785024143258013 -4.94921875 7.5078125 C-3.2117517794418404 5.04959269796781 -1.5686072513502722 2.568594374086061 0 0 Z " fill="#8E839E" transform="translate(71,89)"/>
<path d="M0 0 C0 12.210000000000008 0 24.42 0 37 C-4.569236399076729 38.30549611402192 -7.90156514158906 39.252183436294985 -12.4375 39.625 C-13.302460937500001 39.699765625 -14.167421875000002 39.774531249999995 -15.05859375 39.8515625 C-15.699257812499994 39.900546875 -16.339921875 39.94953125000001 -17 40 C-16.930390625 39.29359375 -16.860781250000002 38.5871875 -16.7890625 37.859375 C-16.20856998887895 26.857659789229572 -19.51273573789777 17.318035881884924 -23 7 C-19.232951393367344 4.318747756455579 -15.980921526794006 2.4088590155501777 -11.5 1.25 C-10.602812499999999 1.0076562499999966 -9.705624999999998 0.7653125000000003 -8.78125 0.515625 C-6 0 -6 0 0 0 Z " fill="#A1A5B5" transform="translate(128,53)"/>
<path d="M0 0 C0 12.540000000000006 0 25.08 0 38 C-10.230000000000004 38 -20.460000000000008 38 -31 38 C-29.01994885920614 34.03989771841228 -27.616844530098433 32.64785938003965 -24.375 29.8125 C-18.67226509147045 24.282824965862233 -15.871627508741867 18.18954253137366 -12.7890625 10.953125 C-11.20224814264084 7.2963231947713325 -9.421866921123438 4.173817537762574 -7 1 C-4.483239528462178 0.16107984282072607 -2.6229354978873545 0 0 0 Z " fill="#564A5E" transform="translate(128,90)"/>
<path d="M0 0 C8.580320909596166 1.7160641819192364 14.331184759231505 6.792649335683421 19.33203125 13.890625 C22.393733003101854 19.71588526432862 22.767660448074047 26.065763406749426 23.22998046875 32.52880859375 C23.609199349290396 37.294223089863294 24.28500237526323 40.91843341492802 27 45 C30.747363739991705 47.90139802796536 35.0858132969268 49.167111912611404 39.5625 50.5625 C47.50524712788789 53.07032729453351 47.50524712788789 53.07032729453351 51 55 C50.67 56.31999999999999 50.34 57.64 50 59 C48.8798046875 58.3902734375 47.759609375 57.780546875 46.60546875 57.15234375 C41.22874333126927 54.461020940756455 35.6487339627905 53.28167261299063 29.802734375 52.021484375 C24.538844488061663 50.76978277658472 21.423773945941623 49.45686627779247 18 45 C16.960937499999996 42.710937499999986 16.960937499999996 42.710937499999986 16.375 40.375 C16.1468359375 39.5126171875 15.918671875 38.650234375 15.68359375 37.76171875 C15.4580078125 36.85035156250001 15.232421875 35.93898437499999 15 35 C14.48354027841334 33.06132958781289 13.962734314595131 31.123811577686524 13.4375 29.1875 C13.2093359375 28.3148046875 12.981171875 27.442109375 12.74609375 26.54296875 C11.49249593079766 21.51621193178859 11.49249593079766 21.51621193178859 8.25 17.8125 C5.517305459088975 16.825693638004353 2.756313774772386 15.918771258257465 0 15 C0 10.049999999999997 0 5.099999999999994 0 0 Z " fill="#5B5A7B" transform="translate(0,62)"/>
<path d="M0 0 C0 0.6599999999999966 0 1.3200000000000003 0 2 C0.6599999999999966 2 1.3199999999999932 2 2 2 C2 2.6599999999999966 2 3.3200000000000003 2 4 C3.3225847188936513 4.6877440538247015 4.659865028130838 5.347113731653479 6 6 C7.03125 6.515625 8.0625 7.03125 9.125 7.5625 C13.585234207802912 9.486522599444392 18.197404685220263 9.71976808022412 23 10 C23 11.980000000000004 23 13.96 23 16 C21.819218750000005 16.2539453125 20.638437499999995 16.507890625 19.421875 16.76953125 C17.864466654449586 17.116664435454005 16.307181293053247 17.464349710902724 14.75 17.8125 C13.972695312500008 17.978144531249995 13.195390625000002 18.143789062500005 12.39453125 18.314453125 C8.179033379893127 19.269245377631044 5.384498517883159 20.20857949342814 2 23 C-1.5 23.25 -1.5 23.25 -5 22 C-6.936202508107783 19.199953295967205 -7.953836561081644 16.22176700841026 -9 13 C-9.248789062499995 12.336132812499997 -9.497578125000004 11.672265625000001 -9.75390625 10.98828125 C-10.742911846433387 8.120787036441584 -11.164510744021712 6.458279929774761 -10.125 3.5625 C-9.753749999999997 3.046875 -9.382499999999993 2.53125 -9 2 C-8.010000000000005 2 -7.019999999999996 2 -6 2 C-6 1.3400000000000034 -6 0.6799999999999997 -6 0 C-2.25 -1.125 -2.25 -1.125 0 0 Z " fill="#9C83A3" transform="translate(105,37)"/>
</svg>
