<?xml version="1.0" encoding="UTF-8"?>
<!-- Generator: visioncortex VTracer 0.6.0 -->
<svg version="1.1" xmlns="http://www.w3.org/2000/svg" width="128" height="128">
<path d="M0 0 C42.24 0 84.48 0 128 0 C128 42.24 128 84.48 128 128 C85.75999999999999 128 43.519999999999996 128 0 128 C0 85.75999999999999 0 43.519999999999996 0 0 Z " fill="#689F64" transform="translate(0,0)"/>
<path d="M0 0 C31.35 0 62.7 0 95 0 C93.73454678438104 10.12362572495171 89.3758519117225 18.460987522221025 81.29296875 25.01171875 C76.4318601853361 27.10688138519585 71.67166700501977 24.828830881810063 67 23 C65.24778758269808 22.255183482558984 63.49762714151832 21.505512656564076 61.75 20.75 C57.03072688676178 18.733999835121534 53.97192636730238 18.895127473932806 49 20 C49 20.66 49 21.32 49 22 C48.34 22 47.68 22 47 22 C46.316533182807085 23.659847984611364 45.65411684923951 25.32836805194349 45 27 C44.4740625 28.299375 44.4740625 28.299375 43.9375 29.625 C43.0944711163647 32.65990398108708 42.78013625007718 35.191596173893245 42.5625 38.3125 C42.294981543487246 41.9884017543049 41.772615763263126 45.00612771123962 40.4375 48.4375 C39.05713921303646 52.12286516328065 38.886725977513265 55.13238391546027 39 59.0625 C39.230274644849096 70.4610949200302 33.31441100168013 77.27727008287464 26.4375 85.9765625 C21.90858465568258 91.88032714527093 21.161217413791682 97.43577410928627 20.357666015625 104.613525390625 C20.28088623046875 105.29793701171874 20.2041064453125 105.9823486328125 20.125 106.6875 C20.04886474609375 107.37384521484375 19.9727294921875 108.0601904296875 19.894287109375 108.767333984375 C19.07468575866737 115.5142544392377 17.198609569762766 121.55074526202921 15 128 C10.05 128 5.1 128 0 128 C0 85.75999999999999 0 43.519999999999996 0 0 Z " fill="#435912" transform="translate(0,0)"/>
<path d="M0 0 C3.727184723856084 0.7241066707491512 7.459714763779573 0.9422351572678878 11.24609375 1.16015625 C13.59375 1.50390625 13.59375 1.50390625 16.59375 3.50390625 C16.284374999999997 4.411406249999999 15.974999999999994 5.318906249999998 15.65625 6.25390625 C15.130312500000002 7.862656250000001 15.130312500000002 7.862656250000001 14.59375 9.50390625 C14.377187499999991 10.145859375 14.16062500000001 10.787812500000001 13.9375 11.44921875 C13.510816759610407 13.999620845965048 14.046283228149179 15.256230737363808 15.03125 17.62890625 C18.49418482030373 27.33465476011733 16.0456152352329 36.828978565026944 13.59375 46.50390625 C14.325937500000009 46.768164062500006 15.05812499999999 47.032421875 15.8125 47.3046875 C23.072355320633676 50.43499028572268 28.552529419382367 55.81063466335205 32.59375 62.50390625 C35.21125771838361 70.70654190251422 33.087464605819406 79.28847591799331 31.59375 87.50390625 C8.493750000000006 87.50390625 -14.606250000000003 87.50390625 -38.40625 87.50390625 C-40.04691873079656 76.01922513442408 -41.258173444910454 63.565765899002486 -35.53125 53.06640625 C-33.40625 50.50390625 -33.40625 50.50390625 -31.369873046875 50.119873046875 C-30.72187744140625 49.91660400390626 -30.0738818359375 49.7133349609375 -29.40625 49.50390625 C-28.374150473238828 47.54154459858995 -28.374150473238828 47.54154459858995 -27.86328125 45.0859375 C-27.6256103515625 44.18053222656249 -27.387939453125 43.27512695312501 -27.14306640625 42.34228515625 C-26.8999169921875 41.40562011718751 -26.656767578125 40.46895507812499 -26.40625 39.50390625 C-25.859781321406757 37.77476702305138 -25.301366293436836 36.049353188751766 -24.73046875 34.328125 C-24.46041015625 33.480566406250006 -24.1903515625 32.6330078125 -23.912109375 31.759765625 C-23.359073220203108 30.024103229873717 -22.793620833222967 28.292355627917345 -22.216796875 26.564453125 C-20.612590095436147 21.634042619810764 -20.612590095436147 21.634042619810764 -21.13671875 16.5859375 C-21.5556640625 15.898867187500002 -21.974609375 15.211796875000005 -22.40625 14.50390625 C-26.23423833819242 7.436850856413997 -26.23423833819242 7.436850856413997 -25.40625 3.50390625 C-18.12895116685928 -3.576708830893672 -9.186171210461026 -2.0785165871770985 0 0 Z " fill="#D0E98C" transform="translate(72.40625,40.49609375)"/>
<path d="M0 0 C0 33 0 66 0 100 C-7.920000000000002 100 -15.840000000000003 100 -24 100 C-23.67 96.37 -23.340000000000003 92.74 -23 89 C-22.62603103295139 81.14665169197923 -22.816073285984643 75.62613875762861 -28.25 69.4375 C-29.1575 68.633125 -30.064999999999998 67.82875 -31 67 C-31.573632812499994 66.481796875 -32.147265625 65.96359375 -32.73828125 65.4296875 C-35.7078052928736 62.79717582173518 -38.37542755186605 60.67348968611874 -42 59 C-41.855625 58.175 -41.71125000000001 57.349999999999994 -41.5625 56.5 C-40.05913611790187 47.145735844722765 -38.71360597028561 38.52213701451457 -41.75 29.375 C-42.89823775125083 25.514734036271 -43.25288269733524 23.234554423298476 -41.625 19.5 C-39.63708258894272 16.311587009538002 -37.64576681090422 14.961519808675028 -34.0234375 13.76171875 C-31.611607232409384 12.853790367412799 -29.664070651713587 11.585877879595657 -27.5 10.1875 C-23.227795766636774 7.566515807752623 -18.887201206044693 5.551595725246379 -14.25 3.6875 C-13.311240234374992 3.305977783203126 -13.311240234374992 3.305977783203126 -12.353515625 2.916748046875 C-8.379971573929666 1.3654401342692992 -4.317092222511889 0 0 0 Z " fill="#8C8C3A" transform="translate(128,28)"/>
<path d="M0 0 C3.7271847238560696 0.7241066707491441 7.459714763779573 0.9422351572678878 11.24609375 1.16015625 C13.59375 1.50390625 13.59375 1.50390625 16.59375 3.50390625 C16.284374999999997 4.411406249999999 15.974999999999994 5.318906249999998 15.65625 6.25390625 C15.130312500000002 7.862656250000001 15.130312500000002 7.862656250000001 14.59375 9.50390625 C14.377187499999991 10.145859375 14.16062500000001 10.787812500000001 13.9375 11.44921875 C13.510816759610407 13.99962084596504 14.046283228149179 15.256230737363808 15.03125 17.62890625 C18.30721952048009 26.81063733721716 16.61733137516049 36.4331621245185 13.59375 45.50390625 C10.863281250000028 46.78515625 10.863281250000028 46.78515625 7.40625 48.00390625 C3.9563628349075515 49.234037444867255 0.7038998733391111 50.44684724728893 -2.55078125 52.1328125 C-11.185686711216455 56.27898461612446 -20.859524029083047 52.26250368153515 -29.40625 49.50390625 C-27.904290626112 44.426047217972496 -26.37213377057072 39.36275674146907 -24.73046875 34.328125 C-24.46041015625 33.480566406250006 -24.1903515625 32.6330078125 -23.912109375 31.759765625 C-23.359073220203108 30.024103229873717 -22.793620833222967 28.292355627917345 -22.216796875 26.564453125 C-20.612590095436147 21.634042619810764 -20.612590095436147 21.634042619810764 -21.13671875 16.5859375 C-21.5556640625 15.898867187500002 -21.974609375 15.211796875000005 -22.40625 14.50390625 C-26.23423833819242 7.436850856413997 -26.23423833819242 7.436850856413997 -25.40625 3.50390625 C-18.12895116685928 -3.576708830893672 -9.186171210461026 -2.0785165871770985 0 0 Z " fill="#C8B863" transform="translate(72.40625,40.49609375)"/>
<path d="M0 0 C22.439999999999998 0 44.879999999999995 0 68 0 C66.73454678438104 10.123625724951712 62.375851911722506 18.46098752222102 54.29296875 25.01171875 C49.43186018533612 27.106881385195845 44.671667005019785 24.82883088181007 40 23 C38.24778758269808 22.255183482558984 36.49762714151832 21.505512656564076 34.75 20.75 C30.03072688676177 18.733999835121534 26.97192636730238 18.895127473932806 22 20 C22 20.66 22 21.32 22 22 C21.340000000000003 22 20.68 22 20 22 C19.316533182807085 23.659847984611364 18.6541168492395 25.32836805194349 18 27 C17.474062500000002 28.299375 17.474062500000002 28.299375 16.9375 29.625 C16.08410651550212 32.69721654419236 15.778744528652808 35.27600499109597 15.5625 38.4375 C15.206739294247342 43.26003401131378 14.192577784502916 46.710173899885596 12 51 C11.340000000000003 51 10.68 51 10 51 C9.408320312500003 49.9262109375 8.816640624999998 48.852421875 8.20703125 47.74609375 C7.409075265702334 46.3097729782642 6.6108856630837 44.87358197717908 5.8125 43.4375 C5.425136718749997 42.73302734375 5.0377734375 42.0285546875 4.638671875 41.302734375 C2.6740271263849245 37.77936321426056 0.6441020092642269 34.41868045599616 -1.73828125 31.16015625 C-5.4362058254345484 25.993280634237394 -5.444914332684572 22.30295304636479 -5 16 C-3.3500000000000014 10.719999999999999 -1.6999999999999993 5.4399999999999995 0 0 Z " fill="#498D4B" transform="translate(27,0)"/>
<path d="M0 0 C2.6424227745696456 2.6424227745696456 2.2985219766875247 3.9441205277152775 2.3125 7.625 C2.050203715121796 19.235061872766835 -3.5083338419643653 26.05304231008492 -10.5625 34.9765625 C-15.091415344317415 40.88032714527091 -15.838782586208318 46.435774109286285 -16.642333984375 53.613525390625 C-16.71911376953125 54.297937011718744 -16.7958935546875 54.9823486328125 -16.875 55.6875 C-16.95113525390625 56.373845214843755 -17.0272705078125 57.06019042968751 -17.105712890625 57.767333984375 C-17.925314241332632 64.51425443923772 -19.801390430237237 70.55074526202922 -22 77 C-26.95 77 -31.9 77 -37 77 C-37 62.150000000000006 -37 47.3 -37 32 C-34.03 31.010000000000005 -31.06 30.019999999999996 -28 29 C-24.14239423303794 26.946422805997287 -20.597811287161353 24.47750516619341 -17 22 C-16.0087109375 21.332265625000005 -15.017421875 20.664531249999996 -13.99609375 19.9765625 C-5.845989143331984 14.311642919865903 -2.0133572572304317 9.731226743280402 0 0 Z " fill="#62742C" transform="translate(37,51)"/>
<path d="M0 0 C11.96763106041297 9.653762614501105 11.96763106041297 9.653762614501105 13.40234375 17.30078125 C13.962762086901819 24.612285598881925 12.731585800543328 30.989949972011672 11.40234375 38.30078125 C1.172343749999996 38.30078125 -9.057656250000008 38.30078125 -19.59765625 38.30078125 C-18.59765625 31.30078125 -18.59765625 31.30078125 -18.10546875 29 C-16.82242022161566 22.257449060021088 -19.13582973872259 18.009598056196268 -22.59765625 12.30078125 C-23.0758984375 11.505429687499998 -23.554140625000002 10.710078124999995 -24.046875 9.890625 C-25.20501248679878 8.0090663896421 -26.38529179549171 6.147702418995607 -27.59765625 4.30078125 C-25.1830094407548 3.1505203943520996 -22.766123072041466 2.0054592038476784 -20.34765625 0.86328125 C-19.6657421875 0.5377929687499972 -18.983828125000002 0.21230468749999432 -18.28125 -0.123046875 C-17.617382812499997 -0.4356445312500057 -16.953515624999994 -0.7482421874999972 -16.26953125 -1.0703125 C-15.662060546874997 -1.35833740234375 -15.054589843749994 -1.6463623046875 -14.4287109375 -1.943115234375 C-8.764650195067176 -4.2819947169502655 -5.172569146251774 -3.383560268600789 0 0 Z " fill="#BBD481" transform="translate(92.59765625,89.69921875)"/>
<path d="M0 0 C3.9970079217057304 1.6654199673773888 5.493933228724039 3.534118379106218 7.1875 7.375 C7.8074577053464225 8.910384614943055 8.411282760664008 10.452367781308872 9 12 C9.63228515625 13.08087890625 9.63228515625 13.08087890625 10.27734375 14.18359375 C11.431300250950663 18.68090530235368 9.798379412475008 22.368678754915337 8.375 26.6875 C7.948763427734377 28.027359619140626 7.948763427734377 28.027359619140626 7.513916015625 29.394287109375 C6.69543736549366 31.936464633911584 5.851969893126039 34.46888449088624 5 37 C4.630039062500003 38.13179687499999 4.260078125 39.26359375 3.87890625 40.4296875 C2.081981726451204 45.45511127125265 0.8688940215540981 47.5031312709979 -4 50 C-8.654033135141034 57.47969611004808 -8.130612140039425 65.36622189045944 -8.0625 73.875 C-8.057988281250005 74.944921875 -8.053476562499995 76.01484375 -8.048828125 77.1171875 C-8.037097641110947 79.74481589114744 -8.019163907798415 82.37241530852872 -8 85 C-14.27 85 -20.54 85 -27 85 C-26.38125 82.36 -25.7625 79.72 -25.125 77 C-23.700476639865048 70.80360715300661 -22.643050184770114 64.69883116999222 -22 58.375 C-20.976187479163602 49.46959626272479 -18.497324885446606 44.46459624725006 -12.58984375 37.92578125 C-6.591674800862123 30.66018593814502 -3.810186062710244 24.591069366416548 -4.1875 15.25 C-4.260005019357656 8.935471950487639 -3.3829911622931874 5.285923691083106 0 0 Z " fill="#8B9D4F" transform="translate(42,43)"/>
<path d="M0 0 C7.5924469368598295 1.2219308813391052 14.798511344033372 3.886638179156108 21.863525390625 6.842041015625 C28.059103276983308 9.323639767828823 32.96699669769403 9.827832782949002 40 11 C40 23.210000000000008 40 35.42 40 48 C32.08 48 24.159999999999997 48 16 48 C16.33 44.370000000000005 16.659999999999997 40.74000000000001 17 37 C17.37396896704861 29.14665169197923 17.18392671401537 23.62613875762861 11.75 17.4375 C10.842500000000001 16.633125000000007 9.935000000000002 15.82875 9 15 C8.426367187500006 14.481796875 7.852734374999997 13.963593750000001 7.26171875 13.4296875 C4.292194707126399 10.79717582173518 1.6245724481339607 8.673489686118742 -2 7 C-1.125 1.125 -1.125 1.125 0 0 Z " fill="#9DA145" transform="translate(88,80)"/>
<path d="M0 0 C8.91 0 17.82 0 27 0 C25 9.999999999999996 25 9.999999999999996 23.875 13.0625 C22.354268603119884 18.167812546668966 22.09014840761373 22.903008710881167 24.23046875 27.8359375 C26.571291768157714 32.021515082136304 29.18888114362353 35.984455755211016 31.859375 39.96484375 C35.49327849037792 45.48789574365385 35.49327849037792 45.48789574365385 36 49 C35.048671875 48.383828125 34.09734375 47.76765625 33.1171875 47.1328125 C28.649853645951342 44.583579757744985 24.14915759974427 43.746460217150215 19.125 42.875 C17.41909971635126 42.560823539845515 15.713369027189453 42.24572477379774 14.0078125 41.9296875 C12.88850341796875 41.732219238281246 12.88850341796875 41.732219238281246 11.74658203125 41.53076171875 C7.813967037509421 40.77080571907071 3.9099909713236856 39.86888688251638 0 39 C0 26.13 0 13.259999999999998 0 0 Z " fill="#326523" transform="translate(0,0)"/>
<path d="M0 0 C1.2224466705322286 0.0033309173583984386 1.2224466705322286 0.0033309173583984386 2.4695892333984375 0.0067291259765625 C3.390468292236328 0.006804656982421872 4.311347351074218 0.0068801879882812444 5.2601318359375 0.0069580078125 C6.261164398193358 0.012119293212890625 7.2621969604492165 0.01728057861328125 8.293563842773438 0.0225982666015625 C9.313166961669921 0.02401321411132812 10.332770080566405 0.02542816162109375 11.383270263671875 0.026885986328125 C14.654178666408328 0.03250354966301655 17.925019724473884 0.045059016270557264 21.195907592773438 0.0577545166015625 C23.407495149032258 0.06276725435428776 25.619083773360614 0.06733055219787923 27.830673217773438 0.0714263916015625 C33.264941161171535 0.08247868156095414 38.69916956774611 0.09923388656097681 44.13340759277344 0.1202545166015625 C43.03764476432791 10.177722967236951 38.468502367885165 18.644686855721595 30.418563842773438 25.128067016601563 C25.50677883902236 27.26070529173451 20.86094387549211 24.92149830372865 16.133407592773438 23.120254516601563 C15.05704040527344 22.794121704101563 13.980673217773443 22.467988891601564 12.871688842773438 22.131973266601563 C7.256218749299521 20.232521512966475 3.7943269538649744 18.62918665431219 1.0084075927734375 13.245254516601563 C0.3289028206751894 11.557859766558325 -0.30021650180288617 9.848908938842541 -0.8665924072265625 8.120254516601563 C-1.107647094726559 7.393223266601563 -1.3487017822265628 6.6661920166015625 -1.5970611572265625 5.9171295166015625 C-2.0764681651966654 4.334121141290879 -2.4819141615010665 2.728908998726352 -2.8665924072265625 1.1202545166015625 C-1.8665924072265625 0.12025451660156261 -1.8665924072265625 0.12025451660156261 0 0 Z " fill="#378456" transform="translate(50.86659240722656,-0.1202545166015625)"/>
<path d="M0 0 C0 12.54 0 25.08 0 38 C-12.175542580053133 36.78244574199468 -18.48462794622742 34.68228116856437 -26.23828125 25.29296875 C-28.579421199615595 22.245853117130032 -30.837115931893024 19.176735975032116 -33 16 C-31.96491211903688 12.547132217981257 -30.755196173845093 11.854070030404223 -27.5859375 9.96484375 C-26.188335227396422 9.276650600587047 -24.78437040043015 8.601259743941242 -23.375 7.9375 C-22.687929687500002 7.59912109375 -22.000859375000005 7.2607421875 -21.29296875 6.912109375 C-7.040921179883952 0 -7.040921179883952 0 0 0 Z " fill="#4E6D2F" transform="translate(128,28)"/>
<path d="M0 0 C2.427309239228123 0.9305195570307063 4.632118829064609 1.6008280941473032 7.16015625 2.125 C11.109206587479775 3.5533799093011957 12.164399140606008 5.5440539092190235 14.09765625 9.1875 C15.255406851719627 12.660751805158888 15.166322769332226 15.548174475391647 15.09765625 19.1875 C9.947879457894857 19.38472549416573 5.141713820298065 19.32441456346401 0.09765625 18.1875 C-6.29206648058495 16.791003994416187 -12.196619965840696 16.172853580940263 -18.40234375 18.5 C-21.121569056785958 20.10542520600667 -21.121569056785958 20.10542520600667 -22.90234375 23.1875 C-26.777343750000007 21.3125 -26.777343750000007 21.3125 -27.90234375 20.1875 C-28.712795745807156 12.192079349056314 -27.3937562435179 5.924618740276852 -22.90234375 -0.8125 C-22.242343750000003 -0.8125 -21.58234375 -0.8125 -20.90234375 -0.8125 C-20.90234375 -1.4725000000000001 -20.90234375 -2.1325000000000003 -20.90234375 -2.8125 C-14.318448841805782 -7.289548537572067 -6.502451734302873 -2.6278564988227444 0 0 Z " fill="#7BB37D" transform="translate(69.90234375,22.8125)"/>
<path d="M0 0 C3.727184723856084 0.7241066707491512 7.459714763779573 0.9422351572678878 11.24609375 1.16015625 C13.59375 1.50390625 13.59375 1.50390625 16.59375 3.50390625 C15.442781992024749 7.399490276993177 14.43644835274658 10.553810995617852 11.59375 13.50390625 C9.021728515625 14.10986328125 9.021728515625 14.10986328125 5.97265625 14.26171875 C4.8724414062500045 14.3300390625 3.772226562499995 14.398359374999998 2.638671875 14.46875 C0.9148730468750017 14.54802734375 0.9148730468750017 14.54802734375 -0.84375 14.62890625 C-3.113692012531345 14.748981967038802 -5.383265907340842 14.876291049618942 -7.65234375 15.01171875 C-8.659665527343748 15.059575195312505 -9.666987304687495 15.107431640624995 -10.704833984375 15.15673828125 C-13.398458918420538 15.502904992159422 -15.04749096795404 16.225581682970272 -17.40625 17.50390625 C-19.515625 17.36328125 -19.515625 17.36328125 -21.40625 16.50390625 C-23.81739399972429 13.318814793574084 -25.17319061835171 9.643307671391632 -25.96875 5.75390625 C-25.129795084539545 2.398086588158179 -23.236376611237368 1.3467793922010785 -20.40625 -0.49609375 C-13.69497860888967 -2.7331842137034457 -6.759426681526563 -1.529427239649209 0 0 Z " fill="#B0C180" transform="translate(72.40625,40.49609375)"/>
</svg>
