<?xml version="1.0" encoding="UTF-8"?>
<!-- Generator: visioncortex VTracer 0.6.0 -->
<svg version="1.1" xmlns="http://www.w3.org/2000/svg" width="128" height="128">
<path d="M0 0 C42.24 0 84.48 0 128 0 C128 42.24 128 84.48 128 128 C85.75999999999999 128 43.519999999999996 128 0 128 C0 85.75999999999999 0 43.519999999999996 0 0 Z " fill="#526B5D" transform="translate(0,0)"/>
<path d="M0 0 C9.239999999999995 0 18.480000000000004 0 28 0 C28 33.99 28 67.98 28 103 C19.84210526315789 103 19.84210526315789 103 15 99 C10.895511834055938 94.79540236659388 8.558625002330672 90.40299715491601 6.11328125 85.07421875 C5.174684360409316 82.84709393436607 5.174684360409316 82.84709393436607 3 82 C2.278125000000003 82.474375 1.5562500000000057 82.94875 0.8125 83.4375 C-2.742992143211964 85.41277341289553 -4.9632629136053765 85.20525781795227 -9 85 C-15.22194128983682 84.81297683806208 -20.646804154254227 85.61932684283465 -26.65625 87.2109375 C-31.620421038462624 88.38238907683348 -36.61832519054978 88.85949069734404 -41.6875 89.375 C-45.18586513848729 90.0350688940542 -47.07444420504652 91.02339822081466 -50 93 C-52.1567272333509 94.24652427967187 -54.32399726967178 95.47493773088019 -56.5 96.6875 C-58.15515625 97.62142578125 -58.15515625 97.62142578125 -59.84375 98.57421875 C-62.976485953950224 99.9893779371186 -64.64084284515712 100.6752649817231 -68 100 C-74.03021263237437 93.99701180388917 -76.06355771535812 86.32810795245706 -76.25 78.0625 C-76.11997089617246 71.12761446253138 -75.34483046252552 64.68170137407184 -71 59 C-68.8914857085141 57.50363501894549 -67.79028704324196 56.90682205167016 -65.2109375 57.2109375 C-61.19413712445049 58.64449523120318 -58.08932749170147 61.58967538893905 -54.75390625 64.1875 C-51.16501153344259 66.61043787154581 -51.16501153344259 66.61043787154581 -47 67 C-43.93959597793097 65.55134850066182 -41.18598401647394 63.69107862626588 -38.375 61.8125 C-21.435198300283275 50.979978562131535 -21.435198300283275 50.979978562131535 -12 52 C-11.956171874999995 50.940390625 -11.912343750000005 49.88078125 -11.8671875 48.7890625 C-10.761629071549521 43.958469366680326 -9.195966542621093 43.059690165997125 -5.125 40.375 C-0.37587965818057967 37.20510521762897 3.2552102658411997 34.69039958366976 4.43359375 28.8515625 C4.445523900500561 22.051376714676604 2.8217978423187873 15.977912282141524 0.875 9.515625 C0 6 0 6 0 0 Z " fill="#D2A482" transform="translate(100,0)"/>
<path d="M0 0 C33 0 66 0 100 0 C106.53417015341701 27.443514644351485 106.53417015341701 27.443514644351485 103.625 34.1875 C96.80613180160688 41.49343021256406 90.58358518267029 44.52263241515684 80.740234375 45.861328125 C75.25133157023681 46.64408504291461 70.46090523486636 48.15994499185418 65.3125 50.1875 C57.94670896951135 53.002360153159685 50.922422504489965 54.61382680647018 43 53 C39.91980068608793 50.9578789079036 38.32213622884951 49.84560760072997 37 46.375 C36.243722435449605 43.80906562630149 36.243722435449605 43.80906562630149 33.84765625 43.08203125 C32.43806640625 42.54642578125 32.43806640625 42.54642578125 31 42 C28.794992475628572 40.802524003618515 26.608901475420424 39.56988720249033 24.4375 38.3125 C23.82978759765625 37.9623583984375 23.2220751953125 37.612216796875 22.595947265625 37.25146484375 C19.58517576317107 35.51368308696881 16.587024816381746 33.75609837206032 13.59375 31.98828125 C12.5521875 31.3733984375 11.510625000000001 30.758515625 10.4375 30.125 C9.5080859375 29.570703125 8.578671875 29.01640625 7.62109375 28.4453125 C4.677223771121686 26.751883126357214 4.677223771121686 26.751883126357214 0 25 C0 16.75 0 8.5 0 0 Z " fill="#465240" transform="translate(0,0)"/>
<path d="M0 0 C3.1619263105478126 2.8837310772163534 4.994996572514424 5.6084534711381195 6.875 9.4375 C9.449324576403853 14.25232152693988 11.31809021880116 17.154133270251677 16 20 C20.455 20.99000000000001 20.455 20.99000000000001 25 22 C25 30.25 25 38.5 25 47 C11.799999999999997 47 -1.4000000000000057 47 -15 47 C-16.319999999999993 41.72 -17.64 36.44 -19 31 C-29.843084506615128 23.771276995589915 -42.233360798474365 23.22354942867915 -55 24 C-56.042851562500005 24.2204296875 -57.085703125 24.440859375000002 -58.16015625 24.66796875 C-61.549880863296345 25.06429143518595 -62.632465583829905 24.501188121775414 -65.375 22.5625 C-66.063359375 22.089414062499998 -66.75171875000001 21.616328124999995 -67.4609375 21.12890625 C-67.968828125 20.756367187500004 -68.47671875 20.383828125000008 -69 20 C-65.3695401577055 17.579693438470343 -61.59445685419712 15.55694871002342 -57.75 13.5 C-56.64205078125 12.894785156249995 -56.64205078125 12.894785156249995 -55.51171875 12.27734375 C-47.99860193994002 8.262397729809223 -40.61350908495154 6.659063537137428 -32.25 5.4375 C-30.56735854379143 5.188550770894793 -28.885049171770504 4.937343763276587 -27.203125 4.68359375 C-26.099526367187508 4.522017822265624 -26.099526367187508 4.522017822265624 -24.9736328125 4.357177734375 C-22.798506044683535 4.011851820902308 -22.798506044683535 4.011851820902308 -20 3 C-16.217036470230994 3.0086964678845334 -12.444804726193553 3.1310420506010104 -8.6640625 3.2578125 C-4.841104550178045 2.988819723146861 -3.0443194876179973 2.2450386955020747 0 0 Z " fill="#8D9582" transform="translate(103,81)"/>
<path d="M0 0 C7.82443306510607 2.2355523043160197 7.82443306510607 2.2355523043160197 11.4375 4.5625 C14.589119519859523 6.540747329388747 17.757616522809563 8.437115763027357 21.0234375 10.21875 C21.73056884765625 10.60603271484375 22.4377001953125 10.993315429687499 23.166259765625 11.392333984375 C24.56694800732345 12.156012603697107 25.97096140621652 12.913632733812499 27.378662109375 13.664306640625 C32.63918485739433 16.552449465623184 36.49352658149697 19.813183747334314 39.9375 24.8125 C44.62640482422127 28.16171773158662 49.113819652172516 28.03782390231362 54.7646484375 27.40771484375 C60.129108985919046 26.429269112441588 65.23794057282484 24.42514066847248 70.352294921875 22.576904296875 C77.00337843230251 20.20321325731831 82.8843153711046 18.896874135813107 90 19 C89.34 21.64 88.68 24.28 88 27 C87.27296875 27.146953124999996 86.5459375 27.29390625 85.796875 27.4453125 C74.32589202708203 30.00422408626632 65.0110580515464 35.0011940538788 55.47265625 41.77734375 C53.00000000000001 43 53.00000000000001 43 50.55078125 42.98046875 C46.06917869427622 41.25783132046452 42.75874641506182 37.91277437309424 39.1328125 34.8359375 C35.23799304884094 32.553437322886836 33.29527137757232 32.93425597398581 29 34 C24.47788156818821 44.33627070128409 23.034181393586405 55.304538500375884 27.1328125 66.01953125 C28.322369904923526 68.73622316124427 29.593982918653566 71.38882542035662 31 74 C25.080680332890225 73.3636077530206 21.52461138644604 70.98055156611015 16.68359375 67.69140625 C11.675524663768824 65.18796896386405 11.675524663768824 65.18796896386405 0 64 C0 42.879999999999995 0 21.759999999999998 0 0 Z " fill="#808D63" transform="translate(0,25)"/>
<path d="M0 0 C3.4160201530293506 -0.1744693373076802 6.830896368841827 -0.28089623033509614 10.25 -0.375 C11.2180859375 -0.4252734375 12.186171875 -0.47554687500000004 13.18359375 -0.52734375 C15.910424138424396 -0.58376093045016 18.330479148660828 -0.5667282499000552 21 0 C23.48828125 2.871093750000003 23.48828125 2.871093750000003 25 6 C26.454062499999992 7.2065625 26.454062499999992 7.2065625 27.9375 8.4375 C32.155453869318194 11.966808339633591 35.25207341381582 15.756220241447451 37 21 C37.436969454707835 26.24363345649406 37.29723602281871 29.991305545393654 34.3828125 34.46484375 C28.954309838268614 40.49140178971875 19.948058717385123 41.526707427032726 12.3046875 42.2578125 C5.428767059914996 42.55165525384979 -0.9202202320676349 41.35397444762321 -7 38 C-7.4950000000000045 36.515 -7.4950000000000045 36.515 -8 35 C-8.659999999999997 35 -9.32 35 -10 35 C-10 34.34 -10 33.68 -10 33 C-10.990000000000002 32.67 -11.980000000000004 32.34 -13 32 C-14.23828125 30.3984375 -14.23828125 30.3984375 -15.3125 28.375 C-15.6798828125 27.722734375 -16.047265625 27.07046875 -16.42578125 26.3984375 C-17.311632507773776 22.69835129406055 -16.426438027308667 20.49646682683312 -15 17 C-13.210410597689311 14.614341526635837 -11.169697766246834 12.601708867569254 -9 10.5625 C-8.180156249999996 9.751357421875 -8.180156249999996 9.751357421875 -7.34375 8.923828125 C-3.295907079646014 5 -3.295907079646014 5 -1 5 C-0.6700000000000017 3.3499999999999996 -0.3400000000000034 1.6999999999999997 0 0 Z " fill="#1D2326" transform="translate(45,0)"/>
<path d="M0 0 C9.240000000000009 0 18.480000000000004 0 28 0 C28 13.860000000000001 28 27.720000000000002 28 42 C25.03 42.99 22.060000000000002 43.98 19 45 C16.228544230740425 46.28832433135216 13.520438585633514 47.594513826773635 10.8125 49 C10.140253906249995 49.342890625 9.468007812500005 49.68578125 8.775390625 50.0390625 C8.113457031249993 50.376796875 7.451523437500001 50.71453125 6.76953125 51.0625 C6.132009277343755 51.38774658203125 5.494487304687496 51.7129931640625 4.837646484375 52.048095703125 C3.1164363820049203 52.939685737553184 1.412905169987667 53.865174022536415 -0.2890625 54.79296875 C-3 56 -3 56 -6.1875 55.3125 C-9 54.00000000000001 -9 54.00000000000001 -12 52 C-11.817942743394042 47.598498090291116 -11.646960511677264 45.61219845433342 -8.3828125 42.5234375 C-6.770195312499993 41.4599609375 -6.770195312499993 41.4599609375 -5.125 40.375 C-0.3758796581805939 37.205105217628976 3.2552102658411997 34.69039958366976 4.43359375 28.8515625 C4.445523900500575 22.0513767146766 2.8217978423187873 15.977912282141526 0.875 9.515625 C0 6 0 6 0 0 Z " fill="#9EB19F" transform="translate(100,0)"/>
<path d="M0 0 C0 20.130000000000003 0 40.260000000000005 0 61 C-8.15789473684211 61 -8.15789473684211 61 -13 57 C-17.099236986857107 52.800781623219564 -19.483819191671586 48.36811696446742 -21.984375 43.07421875 C-22.831472091236634 41.06049114864521 -22.831472091236634 41.06049114864521 -24 40 C-24.46575059338555 37.48138691857115 -24.89648438481558 34.96429491118448 -25.3125 32.4375 C-26.377265656886934 26.28499147908721 -27.89166752262824 21.46637780503309 -31 16 C-31 15.009999999999998 -31 14.019999999999996 -31 13 C-7.334951456310677 0 -7.334951456310677 0 0 0 Z " fill="#D0DFCD" transform="translate(128,42)"/>
<path d="M0 0 C11.219999999999999 0 22.439999999999998 0 34 0 C34.825 3.25875 35.650000000000006 6.5175 36.5 9.875 C36.76103515625 10.8803076171875 37.022070312500006 11.885615234374999 37.291015625 12.92138671875 C39.01912691292742 19.96686900929216 40.58260755622908 27.33122793783258 37.625 34.1875 C30.068595841670515 42.28364731249587 23.004941012888807 45.18666348471862 12 46 C11.670000000000002 46 11.340000000000003 46 11 46 C10.308903130266046 36.45902377061737 10.308903130266046 36.45902377061737 13 32.375 C15.606843422640893 27.975951724293502 15.560745083272053 26.046705749448464 15 21 C13.221420906201715 16.22591927454145 10.646763327645715 13.481001358207278 7 10 C5.71418790727617 8.617952490772936 4.443973524212254 7.221273345328899 3.1875 5.8125 C2.5829296874999983 5.1383203125 1.9783593749999966 4.464140625 1.35546875 3.76953125 C0 1.9999999999999998 0 1.9999999999999998 0 0 Z " fill="#516357" transform="translate(66,0)"/>
<path d="M0 0 C0.8546484375000034 -0.014179687500003979 1.7092968750000068 -0.028359374999993747 2.58984375 -0.04296875 C5.201593027153734 0.20046443697009408 6.817506516327427 0.8696731986794504 9.0625 2.1875 C8.714814688011472 9.488891551758954 6.9556148101199256 14.062045118703281 3.0625 20.1875 C2.3490039062500045 21.34765625 2.3490039062500045 21.34765625 1.62109375 22.53125 C0.44978572587072563 24.42670002195277 -0.7359927600937795 26.31110358704008 -1.9375 28.1875 C-4.698383827718828 27.09987909817137 -7.385298710597283 25.972556618913302 -10.0625 24.6875 C-20.018841092112055 20.47848885161787 -32.60523370631962 19.654307786069296 -43.11328125 21.8515625 C-46.493968435440955 22.2536912661797 -47.57635838491497 21.684169072732516 -50.3125 19.75 C-51.000859375 19.276914062499998 -51.68921875 18.803828124999995 -52.3984375 18.31640625 C-52.906328125 17.943867187500004 -53.41421875 17.571328125000008 -53.9375 17.1875 C-50.30704015770551 14.767193438470343 -46.53195685419712 12.74444871002342 -42.6875 10.6875 C-41.57955078125 10.082285156249995 -41.57955078125 10.082285156249995 -40.44921875 9.46484375 C-32.936101939940016 5.449897729809223 -25.551009084951538 3.8465635371374276 -17.1875 2.625 C-15.504858543791428 2.3760507708947927 -13.822549171770504 2.124843763276587 -12.140625 1.87109375 C-11.037026367187508 1.7095178222656244 -11.037026367187508 1.7095178222656244 -9.9111328125 1.544677734375 C-1.435449006675782 0.010792849674260196 -1.435449006675782 0.010792849674260196 0 0 Z " fill="#968886" transform="translate(87.9375,83.8125)"/>
<path d="M0 0 C1.8956476315638113 1.251842775561009 3.7472220986377636 2.5717194837369846 5.5625 3.9375 C8.348141502371703 6.020116645599472 11.105571062400628 8.070380708267095 14 10 C14.37109375 12.828124999999986 14.37109375 12.828124999999986 14.4375 16.25 C14.730122145526195 21.884532802153373 15.335476484218006 24.762894684877068 19 29 C19.494999999999997 29.99000000000001 19.494999999999997 29.99000000000001 20 31 C17.675875386030427 32.35123524067998 15.341342869071 33.678949633223354 13 35 C11.949414062499997 35.6019921875 10.898828125000001 36.203984375000005 9.81640625 36.82421875 C8.680742187500002 37.45972656250001 7.545078125000003 38.09523437499999 6.375 38.75 C5.289609374999998 39.36359375000001 4.2042187499999955 39.9771875 3.0859375 40.609375 C-0.013979415211892388 42.006299584576496 -1.6735154280262563 42.66077876896591 -5 42 C-11.030212632374361 35.99701180388918 -13.063557715358112 28.32810795245706 -13.25 20.0625 C-13.119970896172465 13.127614462531383 -12.344830462525529 6.681701374071849 -8 1 C-4.976933408049831 -1.1454020975130277 -3.4333891216525103 -1.2149845307256228 0 0 Z " fill="#ACA17D" transform="translate(37,58)"/>
<path d="M0 0 C4.549416359579936 3.7892311066938333 4.982959098119494 10.587695203567392 5.75 16.125 C5.75 17.114999999999995 5.75 18.105000000000004 5.75 19.125 C-8.11 19.125 -21.97 19.125 -36.25 19.125 C-39.975 2.98333333333332 -39.975 2.98333333333332 -40.25 -1.875 C-32.48233468243655 -9.642665317563456 -8.416689542990696 -4.615033551933976 0 0 Z " fill="#596F78" transform="translate(82.25,108.875)"/>
<path d="M0 0 C9.239999999999995 0 18.480000000000004 0 28 0 C28 8.25 28 16.5 28 25 C19.87499999999993 25.875000000000007 19.87499999999993 25.875000000000007 17.35107421875 26.13623046875 C13.000947431592095 26.627189659951547 9.121708382125277 27.432960710949178 5 29 C4.890429687500003 28.34515625 4.780859375000006 27.6903125 4.66796875 27.015625 C3.5975877428324736 20.85440749532835 2.247505718197658 14.85357272989544 0.5859375 8.82421875 C0 6 0 6 0 0 Z " fill="#9C9C73" transform="translate(100,0)"/>
<path d="M0 0 C7.82443306510607 2.2355523043160197 7.82443306510607 2.2355523043160197 11.4375 4.5625 C14.589119519859523 6.540747329388747 17.757616522809563 8.437115763027357 21.0234375 10.21875 C21.73056884765625 10.60603271484375 22.4377001953125 10.993315429687499 23.166259765625 11.392333984375 C24.56694800732345 12.156012603697107 25.97096140621652 12.913632733812499 27.378662109375 13.664306640625 C33.43099580816901 16.987171113219127 37.664505543103466 20.85566810571691 41 27 C38.86186097030338 29.19922871625937 37.873011638120204 30.12082703970092 35 31 C26.221158207241253 29.922541035198364 18.734915470537533 25.413615620573836 11.38671875 20.8046875 C7.4075840422644275 18.508797652778092 7.4075840422644275 18.508797652778092 0 17 C0 11.39 0 5.780000000000001 0 0 Z " fill="#63755D" transform="translate(0,25)"/>
<path d="M0 0 C-0.6599999999999966 2.3100000000000023 -1.3199999999999932 4.619999999999997 -2 7 C-2.7270312500000102 7.146953124999996 -3.454062499999992 7.293906249999999 -4.203125 7.4453125 C-15.674107972917994 10.00422408626632 -24.9889419484536 15.001194053878798 -34.52734375 21.77734375 C-37 23 -37 23 -39.390625 23 C-43.02879491261653 21.605731290973296 -45.77934034435684 19.473473059613795 -48.8125 17.0625 C-49.40998046875 16.606816406250005 -50.0074609375 16.151132812499995 -50.623046875 15.681640625 C-52.12589884280754 14.508557317557091 -53.56873369548792 13.259430525639473 -55 12 C-55 11.340000000000003 -55 10.68 -55 10 C-50.89028008839063 6.680610840623203 -47.501770893889386 6.870571489231281 -42.5 7.25 C-34.1311566906674 7.604212287266478 -27.25525242495334 5.547154241203756 -19.484375 2.5771484375 C-5.445681144771825 -2.7228405723859126 -5.445681144771825 -2.7228405723859126 0 0 Z " fill="#997B62" transform="translate(90,45)"/>
<path d="M0 0 C0 2.969999999999999 0 5.939999999999998 0 9 C-23.62967015788651 18.318743160856656 -23.62967015788651 18.318743160856656 -34 16 C-37.14839295418913 13.878742335830019 -38.88702128107122 12.169468078393166 -41 9 C-40.69814573051597 6.041828159056514 -40.33281170935872 3.665623418717452 -39 1 C-38.3335546875 1.216562500000002 -37.667109375 1.4331249999999969 -36.98046875 1.65625 C-22.670674839248164 5.97920871989146 -13.537303568837267 0 0 0 Z " fill="#59493D" transform="translate(77,37)"/>
<path d="M0 0 C0.6599999999999966 0.6599999999999966 1.3199999999999932 1.3199999999999932 2 2 C-1.4508399522010507 4.3005599681340385 -2.8717572831904477 4.2701025597864515 -6.9375 4.25 C-8.49791015625 4.257734374999998 -8.49791015625 4.257734374999998 -10.08984375 4.265625 C-12.930984946830833 4.006299360557719 -14.587076343869327 3.465197015288993 -17 2 C-11.383294842152907 0.046363423357533406 -5.95018369328929 -0.7396937680871503 0 0 Z " fill="#997B62" transform="translate(93,84)"/>
<path d="M0 0 C0.6599999999999966 0.3299999999999983 1.3199999999999932 0.6599999999999966 2 1 C1.3400000000000034 3.3100000000000023 0.6800000000000068 5.619999999999997 0 8 C-0.9899999999999949 7.670000000000002 -1.980000000000004 7.340000000000003 -3 7 C-2.625 4.0625 -2.625 4.0625 -2 1 C-1.3400000000000034 0.6700000000000017 -0.6800000000000068 0.3400000000000034 0 0 Z " fill="#9C9C73" transform="translate(88,44)"/>
</svg>
