<?xml version="1.0" encoding="UTF-8"?>
<!-- Generator: visioncortex VTracer 0.6.0 -->
<svg version="1.1" xmlns="http://www.w3.org/2000/svg" width="128" height="128">
<path d="M0 0 C42.24 0 84.48 0 128 0 C128 42.24 128 84.48 128 128 C85.75999999999999 128 43.519999999999996 128 0 128 C0 85.75999999999999 0 43.519999999999996 0 0 Z " fill="#3E5389" transform="translate(0,0)"/>
<path d="M0 0 C5.273669236501789 3.9789360706540435 8.73395828692857 8.46989011152634 10 15 C11.03416433125112 22.72457439261045 10.309224587897361 27.906978219717274 5.703125 34.2578125 C3.3444305550455766 36.67060544139834 1.3335878593273094 37.84897949385737 -2.03515625 38.23046875 C-5.258447243720354 38.16215237055698 -7.9245279216791715 38.02515735944027 -11 37 C-14.063499003383342 36.59841773363889 -16.943052548732055 36.5156245235667 -20 37 C-22.830685148866564 39.215318812156454 -24.58452402840676 41.43064403892778 -26.6875 44.3125 C-27.12062499999999 44.86937499999999 -27.553750000000008 45.42625000000001 -28 46 C-28.659999999999997 46 -29.319999999999993 46 -30 46 C-30.425390625000006 47.065410156249996 -30.425390625000006 47.065410156249996 -30.859375 48.15234375 C-31.60901755821351 50.02388287649879 -32.36914676921497 51.89126189142655 -33.140625 53.75390625 C-33.50671875 54.6807421875 -33.8728125 55.607578125 -34.25 56.5625 C-34.62640625 57.4919140625 -35.0028125 58.421328125 -35.390625 59.37890625 C-36.2144406416099 61.93385829416728 -36.2144406416099 61.93385829416728 -35.3515625 64.140625 C-33.80809618948474 66.2640063982811 -32.24035231844761 67.63491122287525 -30.125 69.1875 C-29.446953124999993 69.6966796875 -28.76890625 70.205859375 -28.0703125 70.73046875 C-23.439569077146388 73.57007556590081 -18.281637201353163 73.49515348762687 -13 73 C-10.991537968260559 72.46850539319661 -8.991507806118094 71.90436392707336 -7 71.3125 C-1.903768159192552 69.92616873296042 1.2663089615603411 70.03151747100125 6.16015625 71.9453125 C8.24029635231605 73.13774950132768 9.563455662015684 74.06703514155016 11 76 C12.39102797406315 84.59164336921354 9.932804946632672 92.6245118979251 8 101 C-15.760000000000005 101 -39.52 101 -64 101 C-64.99000000000001 94.07 -65.98 87.14 -67 80 C-68.23663439153435 74.86976530907495 -68.23663439153435 74.86976530907495 -69.5 69.74609375 C-70.3517374848254 65.06819178256043 -70.16076746875159 60.32153493750317 -68 56 C-68.1748341986287 53.921572344195255 -68.1748341986287 53.921572344195255 -68.62890625 51.5625 C-68.77650390625 50.666601562500006 -68.9241015625 49.770703125 -69.076171875 48.84765625 C-69.39531932742595 46.97891333579503 -69.72316258602982 45.111630406658705 -70.060546875 43.24609375 C-71.80332502891284 32.45161760726231 -69.31963296430854 24.382788203918444 -64 15 C-63.13375 13.4221875 -63.13375 13.4221875 -62.25 11.8125 C-57.00094419344413 5.251180241805159 -50.885229428958525 1.1539919893776478 -42.6875 -0.79296875 C-39.031409596820104 -1.0746152490821714 -36.6394483735296 0.07679988394511383 -33.328125 1.48828125 C-29.34545164705912 2.363667507106129 -26.205311363166786 0.6689962119152568 -22.578125 -0.921875 C-15.040766959703717 -4.073861089578447 -7.166952040986871 -3.970688557088991 0 0 Z " fill="#202B67" transform="translate(96,27)"/>
<path d="M0 0 C42.24 0 84.48 0 128 0 C128 9.24 128 18.48 128 28 C121.32925175392917 27.047035964847026 119.80771187605345 26.592147008876942 114.8125 22.8125 C105.04803091181063 15.662264410929613 95.42939397492303 9.970239161961318 83 11 C77.84297864335012 11.93471012089279 72.75302633300156 13.124758682947387 67.756103515625 14.71337890625 C62.4239067224589 16.4051179383025 57.23832856980029 17.528895278149044 51.703857421875 18.328857421875 C36.66957786933367 20.518685356362358 25.325678560705295 24.19095538247253 14.21484375 35.04296875 C9.940840260746372 38.81946918759448 5.70425386726043 40 0 40 C0 26.799999999999997 0 13.599999999999998 0 0 Z " fill="#B3BAF3" transform="translate(0,0)"/>
<path d="M0 0 C6.7133782665247494 0.3356689133262307 12.49476707448514 2.007574243202072 18.859375 4.109375 C21.651010805019695 4.90103291485633 23.87657564178177 5.189718370107315 26.75 5.25 C31.83625297549365 5.595305247877548 34.41989028889758 8.713676461992648 37.94921875 12.12109375 C42.22129746725189 16.035131584282198 46.89500183781087 16.356001658750017 52.4453125 16.28125 C55.43217781713753 15.952420790773857 58.119501949655756 15.162723343104147 61 14.3125 C66.09623184080745 12.926168732960434 69.26630896156034 13.031517471001251 74.16015625 14.9453125 C76.24029635231605 16.137749501327676 77.56345566201568 17.06703514155015 79 19 C80.39102797406315 27.591643369213557 77.93280494663267 35.6245118979251 76 44 C52.239999999999995 44 28.479999999999997 44 4 44 C3.009999999999998 37.06999999999999 2.0199999999999996 30.14 1 23 C-0.2361171730745184 17.871589192802105 -0.2361171730745184 17.871589192802105 -1.5 12.75 C-2.2609857640113162 8.564578297937757 -1.8312752530391023 5.156376265195519 -1 1 C-0.6700000000000017 0.6700000000000017 -0.33999999999999986 0.3400000000000034 0 0 Z " fill="#234E98" transform="translate(28,84)"/>
<path d="M0 0 C-0.8179101562500009 0.4756640625000017 -0.8179101562500009 0.4756640625000017 -1.65234375 0.9609375 C-17.20240010991644 10.58336553810214 -26.10145160462925 26.091005833460947 -30.64453125 43.46484375 C-31.106871777568095 46.762195424634 -30.99809247607167 49.864344154867666 -30.8125 53.1875 C-30.757070312499998 54.418554687500006 -30.701640625 55.649609375 -30.64453125 56.91796875 C-30.4318359375 57.93503906250001 -30.219140625 58.95210937499999 -30 60 C-28.072491638321214 61.28957039506014 -28.072491638321214 61.28957039506014 -26 62 C-25.67 62.99000000000001 -25.34 63.980000000000004 -25 65 C-24.34 65 -23.68 65 -23 65 C-23 65.66 -23 66.32 -23 67 C-22.34 67 -21.68 67 -21 67 C-18.664075034698286 72.07896828169886 -17.07093661537457 76.98178516080124 -15.875 82.4375 C-15.6173486328125 83.59644775390626 -15.6173486328125 83.59644775390626 -15.3544921875 84.77880859375 C-13.728284312409876 92.52934690328148 -13.287589790298448 100.09128076679272 -13 108 C-23.560000000000002 108 -34.120000000000005 108 -45 108 C-45 78.96 -45 49.91999999999999 -45 20 C-41.7 19.010000000000005 -38.4 18.019999999999996 -35 17 C-32.223567381290486 15.436071327621605 -32.223567381290486 15.436071327621605 -30.125 13.5625 C-29.426328124999998 12.9862890625 -28.72765625 12.410078124999998 -28.0078125 11.81640625 C-25.965407829639492 10.031153710082052 -25.965407829639492 10.031153710082052 -24.1796875 7.9765625 C-21.364651079086617 5.423859222254173 -18.506191047579012 4.257318132953639 -15 2.8125 C-13.783124999999998 2.3033203124999986 -12.566249999999997 1.7941406250000007 -11.3125 1.26953125 C-4.35094429835047 -1.398517810184078 -4.35094429835047 -1.398517810184078 0 0 Z " fill="#6E95CF" transform="translate(45,20)"/>
<path d="M0 0 C3.6287692647747747 2.6856319168272584 3.6287692647747747 2.6856319168272584 10.25 4.1875 C10.25 30.917500000000004 10.25 57.64750000000001 10.25 85.1875 C4.719379522887621 84.08137590457753 3.7322264853936105 83.3840293541923 0.25 79.1875 C-4.225669337313619 71.82579560724622 -6.143217696249351 64.32094667226228 -6.125 55.75 C-6.123670654296873 54.626219482421874 -6.123670654296873 54.626219482421874 -6.122314453125 53.479736328125 C-5.975670325169617 46.65743463923627 -4.371047080279894 42.4880778047969 -0.0625 37.0625 C1.8931189326487896 34.26875866764459 2.1872778827123227 32.637216450821825 2.25 29.1875 C-0.9285192652228886 16.010327417023 -8.683425726482 5.402064502042432 -19.76171875 -2.19140625 C-29.1936718942502 -7.347540635523448 -42.51608751942332 -5.190142064693013 -52.75 -3.8125 C-53.41 -5.1325 -54.07 -6.452500000000001 -54.75 -7.8125 C-33.2865257299936 -17.219895105577276 -18.5629070722444 -14.005050425041537 0 0 Z " fill="#7788D2" transform="translate(117.75,23.8125)"/>
<path d="M0 0 C0.6599999999999966 0.3299999999999983 1.3200000000000003 0.6600000000000001 2 1 C1.4805078125000009 1.3892968749999994 0.9610156250000017 1.7785937499999989 0.42578125 2.1796875 C-5.857122251966302 7.219946501577404 -10.043805439534239 12.60768969179962 -11.4765625 20.6875 C-11.728492018572588 25.142674644231064 -11.460701681245084 27.33604757702915 -8.875 31.0625 C-3.065424083847333 34.97764898697245 3.339224153827274 34.26400861767304 10 33 C10.672890625 32.662265625 11.345781250000002 32.32453125 12.0390625 31.9765625 C16.153969272943044 29.92730613897259 21.03797227371706 30.43895736091413 25.36328125 31.67578125 C27.26638338354988 32.38902201408353 29.13725685436863 33.18716662736086 31 34 C30.44312500000001 34.391875 29.88624999999999 34.78375 29.3125 35.1875 C25.632399817015624 38.071902846122896 22.595114851585876 41.10732772262119 20 45 C19.340000000000003 45 18.680000000000007 45 18 45 C17.72414062499999 45.69480468750001 17.448281250000008 46.38960937499999 17.1640625 47.10546875 C15.92556396883878 50.18509093654518 14.65405113859341 53.24950911547367 13.375 56.3125 C12.705976562499998 57.91544921875 12.705976562499998 57.91544921875 12.0234375 59.55078125 C11.685703125000003 60.3590234375 11.34796875 61.167265625 11 62 C3.7694736037396055 62.3481913326068 -2.104057078048001 61.169861578246866 -9 59.0625 C-9.952617187499996 58.78470703125001 -10.905234375 58.5069140625 -11.88671875 58.220703125 C-18.836459916413382 56.16354008358661 -18.836459916413382 56.16354008358661 -20 55 C-20.733223095786848 51.718581954955084 -21.18370427340084 48.38574445662496 -21.6875 45.0625 C-21.920498046875 43.692548828125 -21.920498046875 43.692548828125 -22.158203125 42.294921875 C-23.78514521751105 31.502108838764713 -21.312293950260965 23.36984362392655 -16 14 C-15.4225 12.948124999999997 -14.844999999999999 11.896250000000002 -14.25 10.8125 C-10.514817645648982 6.143522057061226 -5.723946950857858 1.9079823169526193 0 0 Z " fill="#35376A" transform="translate(48,28)"/>
<path d="M0 0 C5.2666972677436945 3.973675782848531 8.747571642483493 8.4718557294051 10 15 C10.883190139430667 22.3533021721137 10.52964917934304 27.60947945489785 6.09375 33.671875 C5.732812499999994 34.11015625 5.371875000000003 34.5484375 5 35 C3.3743339389186815 34.52309796363112 1.7494868938360923 34.04340334392598 0.125 33.5625 C-0.7799218749999994 33.2956640625 -1.6848437499999989 33.028828125 -2.6171875 32.75390625 C-5 32 -5 32 -7 31 C-7 30.340000000000003 -7 29.68 -7 29 C-7.674179687500001 28.762812499999995 -8.348359375000001 28.525625000000005 -9.04296875 28.28125 C-12.716099985151217 26.689721538798416 -15.954547519220696 24.66485916886493 -19.3125 22.5 C-19.957675781250003 22.096523437499997 -20.602851562500007 21.693046875 -21.267578125 21.27734375 C-22.88281262129871 20.24154258094495 -24.44672882800947 19.126594517167696 -26 18 C-26 17.340000000000003 -26 16.68 -26 16 C-27.650000000000006 15.670000000000002 -29.299999999999997 15.340000000000003 -31 15 C-31 14.010000000000005 -31 13.019999999999996 -31 12 C-31.659999999999997 12 -32.32 12 -33 12 C-33.66 10.68 -34.32 9.36 -35 8 C-32.688873613563345 3.1576399522279637 -30.635693640774647 1.540378000875915 -25.5625 -0.3125 C-16.792498602110626 -3.20330713671736 -8.400180625693025 -4.6539311128593965 0 0 Z " fill="#102D85" transform="translate(96,27)"/>
<path d="M0 0 C13.200000000000001 0 26.400000000000002 0 40 0 C39.03500087698968 4.824995615051612 38.34168781882347 6.324327333571499 35.5 10.0625 C34.775546875 11.0202734375 34.05109375 11.978046875 33.3046875 12.96484375 C32.544140625 13.9664453125 31.78359375 14.968046875 31 16 C30.280703125 17.0119140625 29.56140625 18.023828125 28.8203125 19.06640625 C22.247405861991407 28.22403240224329 15.300230996727894 37.07752646636347 4 40 C2.6799999999999997 40 1.3599999999999999 40 0 40 C0 26.799999999999997 0 13.599999999999998 0 0 Z " fill="#D1D6E6" transform="translate(0,0)"/>
<path d="M0 0 C-0.8179101562500009 0.4756640625000017 -0.8179101562500009 0.4756640625000017 -1.65234375 0.9609375 C-17.24353343226617 10.608818978598897 -26.047675841625672 26.102778172281376 -30.66015625 43.48828125 C-31.091895181287967 46.6791793283697 -30.853757953544644 49.6086625110089 -30.5625 52.8125 C-30.4606640625 53.97394531250001 -30.358828125000002 55.135390625 -30.25390625 56.33203125 C-30.1701171875 57.2124609375 -30.086328125 58.092890624999995 -30 59 C-35.1359756551404 62.93758133560763 -37.594515963041495 62.259451596304146 -45 63 C-45 48.81 -45 34.62 -45 20 C-41.7 19.010000000000005 -38.4 18.019999999999996 -35 17 C-32.223567381290486 15.436071327621605 -32.223567381290486 15.436071327621605 -30.125 13.5625 C-29.426328124999998 12.9862890625 -28.72765625 12.410078124999998 -28.0078125 11.81640625 C-25.965407829639492 10.031153710082052 -25.965407829639492 10.031153710082052 -24.1796875 7.9765625 C-21.364651079086617 5.423859222254173 -18.506191047579012 4.257318132953639 -15 2.8125 C-13.783124999999998 2.3033203124999986 -12.566249999999997 1.7941406250000007 -11.3125 1.26953125 C-4.35094429835047 -1.398517810184078 -4.35094429835047 -1.398517810184078 0 0 Z " fill="#8391B1" transform="translate(45,20)"/>
<path d="M0 0 C0.49500000000000455 1.9800000000000004 0.49500000000000455 1.9800000000000004 1 4 C-3.9053722397091306 7.225021323553452 -8.45851668251035 10.047953537041792 -14.1875 11.5 C-18.68261949948581 12.668023177031746 -21.34239557895571 14.54981870901634 -24.625 17.79296875 C-26 19 -26 19 -28 19 C-28.226875 19.659999999999997 -28.45375 20.32 -28.6875 21 C-29.80519079989439 23.554721828330024 -31.001832772437908 25.666571397779393 -32.5 28 C-39.09740315959166 38.4394202937068 -38.20878261837685 48.13582668776877 -35.8515625 59.8515625 C-34.89201070627607 65.22836134414273 -34.834834677462936 68.22886409509192 -38 73 C-38.66 72.67 -39.32 72.34 -40 72 C-40 71.34 -40 70.68 -40 70 C-40.66 70 -41.32 70 -42 70 C-42 69.34 -42 68.68 -42 68 C-42.66 68 -43.32 68 -44 68 C-49.15440913535805 64.0053329200975 -50.21539937169318 60.18007344214273 -51 54 C-52.556692696787856 40.24921451170726 -43.30303856527683 26.12086647015829 -35.2578125 15.765625 C-27.144742628561062 5.827816230140538 -19.803064100147843 0.9805992399252652 -6.91796875 -0.8359375 C-4.285443159129457 -0.9839509870368985 -2.476940106471936 -0.8276458467145922 0 0 Z " fill="#5B6491" transform="translate(64,17)"/>
<path d="M0 0 C8.68432253567859 7.081511329429187 15.29126382368716 17.23489491423601 17.640625 28.2734375 C16.9510479429466 34.085586980878595 13.878488123334336 38.515508864565966 10.640625 43.2734375 C8.848425317992437 42.62908477151902 7.056881355918392 41.982907983307285 5.265625 41.3359375 C4.267890625000007 40.9762890625 3.2701562499999994 40.616640625 2.2421875 40.24609375 C-0.3593749999999858 39.2734375 -0.3593749999999858 39.2734375 -2.359375 38.2734375 C-0.5281328419071372 33.56452909347552 -0.5281328419071372 33.56452909347552 0.69140625 31.4609375 C3.054460705211511 26.015215298689526 2.34024160449934 18.564189660639762 0.640625 12.9609375 C-1.8759283443174581 7.248003604606325 -6.891526935106214 3.4318151631134057 -12.421875 0.8359375 C-19.76776300908142 -0.5707219059943149 -25.287568632454878 0.9859862214428858 -32.2734375 3.30078125 C-38.808183836352214 5.360467120571776 -41.285691009907524 5.250733573574742 -47.359375 2.2734375 C-35.26073216350869 -10.721401102157333 -13.569752339534489 -9.930183003434173 0 0 Z " fill="#425CAB" transform="translate(103.359375,24.7265625)"/>
<path d="M0 0 C12.870000000000005 0 25.74000000000001 0 39 0 C37.7738961953969 8.582726632221704 37.7738961953969 8.582726632221704 34.8515625 11.66015625 C26.82910525581245 17.465436492101958 14.831423119377135 17.908252785119803 5.339599609375 19.42138671875 C-1.0937496555242134 20.503274474418046 -6.444232898170377 21.92575093342996 -12.20703125 25.046875 C-13.999999999999996 26 -13.999999999999996 26 -16 26 C-13.968175452350948 21.38844316151564 -10.802680717684837 17.500183039743458 -7.80859375 13.484375 C-7.379335937500002 12.8965625 -6.950078124999997 12.30875 -6.5078125 11.703125 C-6.122543945312501 11.183955078125 -5.737275390625001 10.66478515625 -5.34033203125 10.1298828125 C-3.3072857977502963 6.899227923419601 -1.707068129858115 3.414136259716229 0 0 Z " fill="#B7A9C5" transform="translate(40,0)"/>
<path d="M0 0 C1.3199999999999932 0 2.6400000000000006 0 4 0 C4 17.49000000000001 4 34.980000000000004 4 53 C-1.5306204771124072 51.89387590457753 -2.5177735146063895 51.19652935419231 -6 47 C-10.475417469912472 39.63870988569569 -12.394173834966338 32.13320422995497 -12.375 23.5625 C-12.373388671875006 22.812587890624997 -12.371777343749997 22.062675781249993 -12.3701171875 21.2900390625 C-12.241904547819132 15.525498223514788 -11.336992450598657 11.820100206420278 -8 7 C-7.340000000000003 6.009999999999998 -6.680000000000007 5.019999999999996 -6 4 C-5.340000000000003 3.3400000000000034 -4.680000000000007 2.6799999999999997 -4 2 C-2.680000000000007 2 -1.3599999999999994 2 0 2 C0 1.3400000000000034 0 0.6799999999999997 0 0 Z " fill="#7288C0" transform="translate(124,56)"/>
<path d="M0 0 C0.3299999999999983 0 0.6599999999999966 0 1 0 C1.0386718750000057 1.1988281250000057 1.0386718750000057 1.1988281250000057 1.078125 2.421875 C1.590615994254378 12.345564252380285 3.1081240800172907 23.32048111773355 10 31 C12.310000000000002 31.989999999999995 14.620000000000005 32.97999999999999 17 34 C17 40.27000000000001 17 46.53999999999999 17 53 C9.079999999999998 53 1.1599999999999966 53 -7 53 C-6.534003906250007 50.234960937500006 -6.534003906250007 50.234960937500006 -6.05859375 47.4140625 C-4.739907177765488 38.85245803541322 -4.306445464632247 30.284723456598613 -3.876953125 21.640625 C-3.431033922792679 14.072050432805483 -2.349723415073811 7.216941423970283 0 0 Z " fill="#4C6CA1" transform="translate(111,75)"/>
</svg>
