<?xml version="1.0" encoding="UTF-8"?>
<!-- Generator: visioncortex VTracer 0.6.0 -->
<svg version="1.1" xmlns="http://www.w3.org/2000/svg" width="128" height="128">
<path d="M0 0 C42.24 0 84.48 0 128 0 C128 42.24 128 84.48 128 128 C85.75999999999999 128 43.519999999999996 128 0 128 C0 85.75999999999999 0 43.519999999999996 0 0 Z " fill="#AA7D45" transform="translate(0,0)"/>
<path d="M0 0 C1.4115234374999943 0.7521679687500011 1.4115234374999943 0.7521679687500011 2.8515625 1.51953125 C7.477695380819014 3.6948468353975272 12.318768214010973 4.7547165744613125 17.279296875 5.9296875 C22.807276824052423 7.350233488598427 26.607627141677895 9.31531970606801 31 13 C31 13.66 31 14.32 31 15 C31.659999999999997 15 32.31999999999999 15 33 15 C33.984841081727794 16.746812927835236 34.962661868860835 18.497585100728656 35.9375 20.25 C36.4827734375 21.22453125 37.028046875 22.199062499999997 37.58984375 23.203125 C38.76610834889213 25.536104093647538 39.52101690935763 27.453507619369674 40 30 C40.66 30 41.31999999999999 30 42 30 C43.33333333333333 31.333333333333336 44.66666666666667 32.666666666666664 46 34 C47.31999999999999 34.66 48.64 35.32 50 36 C50 44.58 50 53.16 50 62 C44.00000000000003 61.000000000000014 44.00000000000003 61.000000000000014 41.6875 59.9375 C37.328336948289575 58.416861726147516 32.4404638342554 58.34889736475719 27.96484375 59.54296875 C26.000000000000014 60 26.000000000000014 60 22.125 59.5 C19.35711128884769 59.4845080855719 18.33471818941547 59.71005770873002 16.21875 61.54296875 C12.107302845423831 67.07528367123116 11.325671499018384 72.3009017177478 10.5546875 79.02734375 C9.747079066912619 83.3554424653486 8.273454829189689 85.12574697924808 5 88 C1.3806930168918257 89.20643566103605 -1.1923100481895403 89.32268558913648 -5 89 C-9.480563000684896 86.67355382656746 -11.75299519438714 84.4692492276928 -14 80 C-14.852790189773941 76.24689921312047 -15.448994822481744 72.49085616931188 -16.05859375 68.69140625 C-17.55560975518121 62.821364237982394 -20.939067935404182 58.23275347466098 -25.54296875 54.37109375 C-29.454589949127133 52.18829718260156 -33.76410354840398 51.35986414792859 -38.1376953125 50.55615234375 C-43.39707488872785 49.506054103880274 -46.064674267253096 47.64318364778316 -50 44 C-50.948750000000004 43.443125 -51.8975 42.88625 -52.875 42.3125 C-55.229766939490474 39.749959507025075 -55.47575959751565 38.9871873344582 -55.75 35.625 C-55.22831219220571 25.519161894727844 -48.39802677643712 15.998363128641152 -42.5390625 8.11328125 C-40.83866388154959 5.873526756830806 -40.83866388154959 5.873526756830806 -39.1875 2.6875 C-28.995807445667886 -9.833722281036597 -12.794559002026915 -5.559447301982319 0 0 Z " fill="#8E8033" transform="translate(78,17)"/>
<path d="M0 0 C42.24 0 84.48 0 128 0 C128 17.490000000000002 128 34.980000000000004 128 53 C122 51 122 51 120.625 48.875 C120.31562500000001 47.946875000000006 120.31562500000001 47.946875000000006 120 47 C119.34 47 118.68 47 118 47 C116.2734375 44.48046875 116.2734375 44.48046875 114.375 41.1875 C113.743359375 40.1085546875 113.11171875 39.029609375 112.4609375 37.91796875 C111 35.00000000000001 111 35.00000000000001 111 32 C110.34 32 109.68 32 109 32 C108.2819921875 31.229140625 107.563984375 30.45828125 106.82421875 29.6640625 C103.56630994989325 26.59090371483706 101.07285715337207 25.67297409646776 96.8125 24.375 C96.148310546875 24.16681640625 95.48412109375 23.9586328125 94.7998046875 23.744140625 C91.9392926919061 22.85395705681227 89.06405746415598 22.018302132615993 86.18359375 21.1953125 C80.66765166017842 19.619329045765262 75.61974533236453 17.57509615113746 70.4453125 15.0859375 C64.21990343640034 12.32129897015862 57.711717161194535 12.190094465464794 51 13 C47.868434868598456 14.276870427771469 45.030413741048065 15.83028375659558 42.07421875 17.46875 C29.850286826330162 23.557417489299333 13.315633647952385 23.90223337827891 0 22 C0 14.739999999999998 0 7.479999999999999 0 0 Z " fill="#AF9957" transform="translate(0,0)"/>
<path d="M0 0 C0.9461718750000045 0.3396679687499997 1.892343750000009 0.6793359374999994 2.8671875 1.029296875 C9.496876828738664 3.485587588902483 15.937360341778103 6.249860341778103 21 11.3125 C23.490818358758276 19.030961827757146 24.673695076879895 28.7098385385803 21.875 36.40625 C19.583336912948454 39.95832778492989 17.322093921169255 41.432887875485605 13.6875 43.5625 C12.57761718750001 44.227656249999995 11.467734374999992 44.89281249999999 10.32421875 45.578125 C4.7713131505588535 48.47529313883885 0.30843375886631463 49.891002659110015 -6 49.3125 C-8.525300278575031 48.31360344536364 -10.83981314669174 47.27914975026991 -13.25 46.0625 C-20.216977066265557 42.75083527723194 -27.027674889891593 40.95255427110435 -34.6162109375 39.6435546875 C-39.61765618492083 38.7544560202665 -44.09174697499022 37.85683736667971 -47.3125 33.5625 C-49.05644968206574 27.8550283132394 -48.060226787817626 23.520427342046233 -45.404296875 18.41259765625 C-42.81853339071314 14.54564051232866 -39.223171364822434 11.929118030952793 -35.5625 9.125 C-34.061905360501164 7.946421377561002 -32.563161704489566 6.7654816929077555 -31.06640625 5.58203125 C-30.3614501953125 5.028540039062499 -29.656494140625 4.475048828124997 -28.93017578125 3.90478515625 C-27.221443031837566 2.4951778969952727 -25.683080108538803 1.046434111755019 -24.15234375 -0.55078125 C-17.44163192165837 -7.212776477046951 -7.547058230870718 -2.8635636475442716 0 0 Z " fill="#5E4718" transform="translate(77,28.6875)"/>
<path d="M0 0 C10.96632503660322 1.0966325036603166 10.96632503660322 1.0966325036603166 16.1875 3.0625 C26.513359320988148 6.3949917007664965 36.21158737190993 5.818166901235685 46.4765625 2.6875 C53.84348248111195 0.680413441678482 59.768674492794105 2.0998337679426555 66.875 4.5 C79.90945587419222 8.88184112497649 91.00350322224251 6.994407891549528 103.75 2.25 C111.77233717480945 -0.4767335656776339 120.11906720652004 2.9402107471586447 128 5 C128 10.280000000000001 128 15.560000000000002 128 21 C85.75999999999999 21 43.519999999999996 21 0 21 C0 14.069999999999993 0 7.140000000000001 0 0 Z " fill="#E7D7A0" transform="translate(0,107)"/>
<path d="M0 0 C10.299035369774918 0 10.299035369774918 0 14.875 2.0625 C15.779921875 2.4453515624999937 16.68484375 2.8282031250000017 17.6171875 3.22265625 C20.880842609613786 5.657021946515201 22.169172381119267 8.105442604053962 23 12 C23.27763561774049 17.34471623587129 22.97161369578494 22.67475144322499 22.70703125 28.015625 C22.401715322388736 34.57047928732784 22.401715322388736 34.57047928732784 25.3828125 40.2109375 C31.2855399571767 44.24593626923422 37.04553876480016 43.11337754175668 43.875 42.3125 C49.730319946311866 41.777496147037496 54.63164161588772 42.57247539204485 60 45 C60.66 45.66 61.32 46.31999999999999 62 47 C60.78376953125 46.94779296875001 60.78376953125 46.94779296875001 59.54296875 46.89453125 C53.94048401989286 46.757567129706345 48.98957468920805 46.77653935324085 43.625 48.5 C33.33851169251624 51.62481984922108 23.29392466134832 50.71438550413501 13.29296875 47.0703125 C8.968039248539235 45.664582151957006 4.459334742987365 44.89186694859748 0 44 C0 29.47999999999999 0 14.959999999999994 0 0 Z " fill="#C4956B" transform="translate(0,63)"/>
<path d="M0 0 C6.2399699041190075 3.289048176062728 10.96900577154068 6.610071266971865 13.5 13.5 C13.544052957107553 15.499514775381783 13.55005385811522 17.50062644528648 13.5 19.5 C12.279902343749995 18.846445312500002 12.279902343749995 18.846445312500002 11.03515625 18.1796875 C4.369756182770246 14.715778803644383 -2.3103156213349223 11.628199018940592 -9.375 9.0625 C-10.407418212890633 8.674572753906247 -10.407418212890633 8.674572753906247 -11.460693359375 8.27880859375 C-17.09288514955564 6.303717181209787 -22.49935464213096 5.15124725495491 -28.16796875 7.69921875 C-30.85843475543551 9.77678127681034 -33.337967613049756 11.981211166563519 -35.8125 14.3125 C-39.0684156411139 17.344626291118203 -42.259631616528296 20.12487598651643 -45.9375 22.625 C-49.923427488432466 25.538737548012236 -52.12208493257729 28.74795957517039 -53.5 33.5 C-53.783313051861676 36.26702413984904 -53.69944054080317 38.7078324287556 -53.5 41.5 C-56.41517291802043 40.42598892493984 -58.278101755298025 39.721898244701975 -60.5 37.5 C-62.59045265505763 28.546202787186758 -57.88759058064211 20.943538883890902 -53.5 13.5 C-51.75345649730707 10.804090526963606 -49.95464808267415 8.191305018753091 -48.0390625 5.61328125 C-46.33866388154959 3.373526756830806 -46.33866388154959 3.373526756830806 -44.6875 0.1875 C-32.93965339605231 -14.245568684850022 -13.878800473646777 -6.554455995800204 0 0 Z " fill="#8A6525" transform="translate(83.5,19.5)"/>
<path d="M0 0 C7.05911565932405 3.9562076772035937 11.171540824937225 8.998742875077063 13.41015625 16.80078125 C14.1165047983921 21.241846261154926 12.353509305573638 24.010682137869054 10 27.625 C6.328387735779955 31.39860149378171 3.2075697919626975 32.74315736107164 -2 33.4375 C-11.519780728130513 33.03781454958231 -20.121190106344443 25.76420185265637 -26.8125 19.5625 C-28.4579455869466 16.557773276010565 -28.678834075453977 14.438653524120639 -28.05859375 11.0625 C-26.1175653060495 5.961439741502062 -21.977897709945204 2.431898019412067 -17.9375 -1.0625 C-11.717639882127273 -3.376866555487524 -5.977871378471704 -2.731968367536844 0 0 Z " fill="#35280A" transform="translate(78.25,38.0625)"/>
<path d="M0 0 C6.930000000000007 0 13.86 0 21 0 C21 17.490000000000002 21 34.980000000000004 21 53 C15 51 15 51 13.625 48.875 C13.418750000000003 48.25625 13.212500000000006 47.6375 13 47 C12.340000000000003 47 11.680000000000007 47 11 47 C9.2734375 44.48046875 9.2734375 44.48046875 7.375 41.1875 C6.743359374999997 40.1085546875 6.111718749999994 39.029609375 5.4609375 37.91796875 C4 35 4 35 4 32 C3.3400000000000034 32 2.680000000000007 32 2 32 C1.2845703124999943 31.2330078125 0.5691406250000028 30.466015625 -0.16796875 29.67578125 C-3.427196863317576 26.596372618796494 -6.0748226851345635 25.57365613103075 -10.3125 24.1875 C-10.957675781250003 23.97158203125 -11.602851562500007 23.7556640625 -12.267578125 23.533203125 C-13.840681065862043 23.008835478045985 -15.419777965100991 22.502506330448263 -17 22 C-16.1028125 21.56107421875 -16.1028125 21.56107421875 -15.1875 21.11328125 C-9.202119421262708 18.067150062606913 -4.790616266198498 14.67547549377586 -1.8125 8.5625 C-0.76724401785944 5.4755624706200345 -0.76724401785944 5.4755624706200345 0 0 Z " fill="#9F9D49" transform="translate(107,0)"/>
<path d="M0 0 C0 10.89 0 21.78 0 33 C-8.725179856115119 31.90935251798561 -8.725179856115119 31.90935251798561 -11.9375 30.875 C-19.507393361593756 28.927191181812134 -25.833563116751563 31.033386962734227 -32.73828125 34.2578125 C-35.29396964240179 35.09646672203168 -36.506555527656175 34.90151996940577 -39 34 C-38.071875000000006 33.4225 -37.14375 32.845 -36.1875 32.25 C-32.283023107970905 29.493898664450057 -30.501757904787155 27.50527371436148 -29 23 C-28.846845484912734 20.793440504853876 -28.72609083917301 18.584556913353083 -28.625 16.375 C-28.152549987494567 9.123267268368949 -27.056692381374063 3.0850385720611087 -23 -3 C-14.527683056864817 -5.824105647711733 -8.528847055126448 -3.1013989291368915 0 0 Z " fill="#BDA14A" transform="translate(128,79)"/>
<path d="M0 0 C1.1921177953224458 4.08104559128634 0.7221666272497771 6.031529076337492 -1 10 C-1.9896245366433618 11.361767468250193 -2.9907619513703594 12.715204218699796 -4 14.0625 C-7.385626039624029 18.875799670790784 -7.786776391769507 23.281952193499208 -8.4453125 29.02734375 C-9.252920933087381 33.355442465348574 -10.726545170810311 35.12574697924808 -14 38 C-17.619306983108146 39.20643566103605 -20.192310048189583 39.32268558913648 -24 39 C-28.480563000684924 36.67355382656744 -30.75299519438714 34.4692492276928 -33 30 C-33.85279018977394 26.246899213120486 -34.44899482248175 22.490856169311883 -35.05859375 18.69140625 C-36.39906963912603 13.435183365252698 -39.266303229974724 9.689312898362829 -42.75 5.625 C-43.4925 4.758750000000006 -44.235 3.8924999999999983 -45 3 C-39.402916046109226 3.8342823252025937 -34.6571178456087 6.346950456721217 -29.5703125 8.72265625 C-22.843063575585347 11.129450996480955 -17.91228029887418 9.989821967924883 -11.578125 7.2890625 C-7.461677010263344 5.230838505131672 -3.721449045819753 2.696702207115777 0 0 Z " fill="#855C29" transform="translate(97,67)"/>
<path d="M0 0 C0 5.280000000000001 0 10.560000000000002 0 16 C-15.180000000000007 16 -30.36 16 -46 16 C-50 5 -50 5 -50 3 C-48.5498046875 2.853046875000004 -48.5498046875 2.853046875000004 -47.0703125 2.703125 C-39.947992833323895 1.8851160085797716 -33.717665242221074 0.9564584020852323 -27.1484375 -2.09765625 C-18.18575308242262 -5.8619837053824995 -8.92427807095278 -2.3324817685444827 0 0 Z " fill="#EBC86E" transform="translate(128,112)"/>
<path d="M0 0 C14.519999999999996 0 29.040000000000006 0 44 0 C44 6.802119885871743 42.93471429767371 10.702078487267674 38.421875 15.7734375 C34.63054170405461 19.274443471481103 31.228964790279704 21.379614346915968 26 22 C22.498241415746932 21.385757100794955 19.306526326112802 20.289337309553417 16 19 C15.283281250000002 18.7421875 14.566562500000003 18.484375 13.828125 18.21875 C7.972889781240639 15.767721303775147 4.077332111196782 11.512438390491626 1 6 C0.6700000000000017 4.02 0.3400000000000034 2.04 0 0 Z " fill="#D5BC62" transform="translate(63,0)"/>
<path d="M0 0 C10.91304347826087 1.0913043478260818 10.91304347826087 1.0913043478260818 16 3.0625 C24.259693156972336 5.802541921534541 32.41346783543044 5.34693059250786 41 5 C40.083333333333336 5.979166666666671 39.166666666666664 6.958333333333329 38.25 7.9375 C34.42218556749255 12.026301780178414 33.53017222283844 15.307112498613506 31 21 C20.77 21 10.54 21 0 21 C0 14.069999999999993 0 7.140000000000001 0 0 Z " fill="#EBB482" transform="translate(0,107)"/>
<path d="M0 0 C2.05078125 0.032552083333328596 4.1015625 0.0651041666666714 6.15234375 0.09765625 C5.703935313916588 2.414433169764308 5.246001237975975 4.72149092944079 4.67578125 7.01171875 C3.5913784320706412 11.462625838516033 2.993150884730724 15.707287870551724 2.71484375 20.28515625 C2.2393062030298694 26.530549366874382 1.0047053174894245 30.650479573437295 -3.78515625 34.84765625 C-10.122421244071589 39.503606041562804 -15.057131636080896 39.78330191117399 -22.84765625 39.09765625 C-25.728933388515202 38.33780724853182 -28.128998195720698 37.35242150582121 -30.84765625 36.09765625 C-25.943693359216198 32.121470122337456 -22.04565518877709 29.74576928972833 -16.00390625 28.07421875 C-13.253529069357214 26.828576910940768 -12.312504589544318 25.734383261179772 -10.84765625 23.09765625 C-10.276310048534782 20.13305824512112 -10.276310048534782 20.13305824512112 -10.03515625 16.91015625 C-9.367114861959763 11.80194322248542 -6.578700271287616 0.34771143082915046 0 0 Z " fill="#B18841" transform="translate(97.84765625,75.90234375)"/>
</svg>
