<?xml version="1.0" encoding="UTF-8"?>
<!-- Generator: visioncortex VTracer 0.6.0 -->
<svg version="1.1" xmlns="http://www.w3.org/2000/svg" width="128" height="128">
<path d="M0 0 C42.24 0 84.48 0 128 0 C128 42.24 128 84.48 128 128 C85.75999999999999 128 43.519999999999996 128 0 128 C0 85.75999999999999 0 43.519999999999996 0 0 Z " fill="#586357" transform="translate(0,0)"/>
<path d="M0 0 C0.580078125 0.3544921875 1.16015625 0.708984375 1.7578125 1.07421875 C7.048199694660454 4.209263013502493 12.095767446093525 4.193686670850536 18.1484375 4.25 C19.496109209429193 4.273207533429428 20.843765495361325 4.297325247284391 22.19140625 4.322265625 C24.282168038907514 4.357201233297943 26.372362076430164 4.386651304177853 28.46337890625 4.400146484375 C47.56348092412412 4.54700082920133 47.56348092412412 4.54700082920133 54.093017578125 11.016357421875 C57.17866579742061 14.738599834211335 59.231542004102124 18.137743544893866 59.1328125 23.07421875 C58.468477860426844 25.56962573989668 57.70451854249352 27.986329888414744 56.82421875 30.4140625 C55.216908295316 36.598121368021495 56.337165568403236 41.34116192660451 58.5703125 47.19921875 C62.284352069866856 57.71972999657662 62.623501182140274 66.70025158059406 60.328857421875 77.614501953125 C58.020694944653 89.5516788172926 58.41401227060804 101.98262861385449 58.1328125 114.07421875 C46.252812500000005 114.07421875 34.372812499999995 114.07421875 22.1328125 114.07421875 C21.472812500000003 110.77421875 20.8128125 107.47421875 20.1328125 104.07421875 C16.26324480254594 96.7176677319588 8.99671056539701 92.90897083466714 1.85693359375 89.255615234375 C-5.267469400739003 85.57958885268695 -10.366109813925483 80.83157200092631 -12.8671875 73.07421875 C-14.154822313008733 65.32239704744238 -12.110753467363018 57.81428734608653 -10.115234375 50.35595703125 C-9.278347433409468 47.05370469213891 -8.727128495640049 44.734496913411206 -9.44140625 41.3671875 C-11.251412630241692 38.45630052684418 -13.399269373418186 36.202458728660844 -15.8046875 33.76171875 C-21.658667265198233 27.477547388223797 -24.55362368660807 21.854005524974085 -24.8671875 13.07421875 C-24.24539074086004 8.877090625805248 -23.01620595171272 6.060922327493081 -19.765625 3.26953125 C-13.412574774707515 -1.0555094571209427 -7.412601040850667 -3.6752854533088026 0 0 Z " fill="#939FB7" transform="translate(39.8671875,13.92578125)"/>
<path d="M0 0 C0.580078125 0.3544921875 1.16015625 0.708984375 1.7578125 1.07421875 C7.048199694660454 4.209263013502493 12.095767446093525 4.193686670850536 18.1484375 4.25 C19.496109209429193 4.273207533429428 20.843765495361325 4.297325247284391 22.19140625 4.322265625 C24.282168038907514 4.357201233297943 26.372362076430164 4.386651304177853 28.46337890625 4.400146484375 C47.565795310192215 4.547018623747633 47.565795310192215 4.547018623747633 54.093017578125 11.017333984375 C57.152854113878846 14.706574652883333 59.239645708426835 18.15989116236544 59.1328125 23.07421875 C57.79213811676688 27.347618346555578 56.77873206779783 28.72079106195968 52.8203125 30.88671875 C47.281022625554186 32.67055786210967 42.67094560340948 33.21410641179331 36.8828125 32.63671875 C21.86418549879364 31.35817502117993 12.26551258851783 33.35938162575664 -0.8671875 41.07421875 C-1.5271874999999966 40.41421875 -2.1871875000000003 39.75421875 -2.8671875 39.07421875 C-4.847187500000004 39.73421875 -6.827187500000001 40.39421875 -8.8671875 41.07421875 C-17.260189544943223 33.128181311000496 -23.683209034561173 26.05608082024093 -24.8671875 14.07421875 C-24.54516561383545 9.387011295827136 -23.31357578721017 6.343826246551149 -19.7578125 3.22265625 C-13.455648294212871 -1.1229537088924317 -7.351229217286715 -3.644856327399477 0 0 Z " fill="#98A094" transform="translate(39.8671875,13.92578125)"/>
<path d="M0 0 C2.368774701055159 2.368774701055159 2.5640560224978373 4.198335870174468 3.1904296875 7.40869140625 C5.621862019655879 19.808996300245013 9.899782091890629 32.82978624213659 20.140625 40.93359375 C22.249522982829916 42.25523754176214 22.249522982829916 42.25523754176214 26 43 C26 60.16 26 77.32 26 95 C16.099999999999994 95 6.200000000000003 95 -4 95 C-4.408708070850281 65.70925492239614 -4.408708070850281 65.70925492239614 -2.4375 56.5 C-0.10193659854240877 45.40843231737105 -1.5027013646779608 36.18168895229002 -5.271484375 25.642333984375 C-7.58567059578948 19.024469817270386 -7.634538660339146 13.740431243979373 -5.1875 7.1875 C-4.851054687499996 6.2529296875 -4.514609375000006 5.318359375 -4.16796875 4.35546875 C-3 2 -3 2 0 0 Z " fill="#7E6379" transform="translate(102,33)"/>
<path d="M0 0 C6.910702690656802 1.1517837817761318 9.435258695690553 2.967080100376762 14 8 C20.384661867604486 17.088753952707563 20.31608735324134 28.646454641573712 20.478515625 39.3203125 C20.707442160171656 46.91397317886462 22.111852722511458 52.948008132633234 27 59 C27 59.66 27 60.31999999999999 27 61 C27.5762109375 61.26167968749999 28.152421875 61.523359375 28.74609375 61.79296875 C34.081375626887166 64.65016476379226 39.675324728501764 69.33360402572305 42 75 C42 76.98 42 78.96 42 81 C28.14 81 14.279999999999998 81 0 81 C0 54.269999999999996 0 27.539999999999992 0 0 Z " fill="#29123D" transform="translate(0,47)"/>
<path d="M0 0 C-0.39187499999999886 1.0725000000000016 -0.7837500000000013 2.1449999999999996 -1.1875 3.25 C-2.6188296300949823 9.217381619587169 -1.373612784573968 14.426561131206853 1 20 C4.1093333659916205 24.59189120469263 7.604540623345613 28.827753883442952 11.71875 32.55859375 C13.324718910702863 34.36530877454072 13.591256651168099 35.62654749711812 14 38 C13.746337890625 39.93188476562501 13.746337890625 39.93188476562501 13.22265625 41.94140625 C13.038320312500002 42.6847119140625 12.853984375 43.428017578125 12.6640625 44.19384765625 C12.465546875000001 44.97550292968751 12.267031249999999 45.757158203125 12.0625 46.5625 C8.82598953965223 60.28268386605254 8.82598953965223 60.28268386605254 13.02734375 73.34375 C14 74.99999999999999 14 74.99999999999999 15 78 C16.637734002773072 78.73488064226997 18.31308628882897 79.38636790070481 20 80 C38.59472862284366 89.56111932734868 38.59472862284366 89.56111932734868 42.9375 98.5625 C44 102 44 102 44 108 C37.4 108 30.799999999999997 108 24 108 C23.340000000000003 105.36 22.68 102.72 22 100 C19.381659913373568 96.14949987260819 16.766484909243964 93.75589203887446 13 91.0625 C6.827630049798529 86.59044328136346 3.459002121616731 81.53876855671342 2 74 C1.683876517307656 70.56542797831014 1.5841386196674954 67.13470874108296 1.5 63.6875 C1.1308768748962414 48.54851322522124 1.1308768748962414 48.54851322522124 -5 35 C-9.050104783287303 31.151281642401017 -12.539228897354402 28.3651927756614 -18 27 C-18 20.730000000000004 -18 14.46 -18 8 C-16.47375 7.422499999999999 -14.9475 6.844999999999999 -13.375 6.25 C-9.441322846384098 4.689901412163664 -3.974986252594766 0 0 0 Z " fill="#8A595E" transform="translate(18,20)"/>
<path d="M0 0 C3.2366764188592327 2.8384276424895347 5.7767584995931145 6.041853125002447 6.2734375 10.3984375 C6.598127987637014 19.91436640690027 4.340831477432886 27.516252490813756 -1.375 35.1875 C-4.8012007299951875 37.55321002785382 -6.825280272916885 38.07075796147598 -11 38 C-18.279822151683632 36.02655423598938 -22.378066123476216 30.59643800711615 -27 25 C-28.22875700973617 23.687116472999733 -29.457905778860045 22.374599461086575 -30.6875 21.0625 C-35.51409089038575 15.540084793608983 -38.789633990423475 9.249319823314721 -40 2 C-38.586718711359765 1.1816255785865337 -37.16921654371867 0.37053780634305156 -35.75 -0.4375 C-34.566640625 -1.116191406249996 -34.566640625 -1.116191406249996 -33.359375 -1.80859375 C-23.849469991288977 -6.610780881882221 -9.033616212931179 -5.225795622295294 0 0 Z " fill="#BFCCE2" transform="translate(86,70)"/>
<path d="M0 0 C0.5082168538657044 1.836043547202685 0.9316969463514724 3.6958641726063064 1.3125 5.5625 C2.4524224389114124 10.444592061600389 3.902790708717788 13.872009883956252 6.75390625 17.94140625 C8.230412781747361 20.3806505830121 9.007712226624918 22.78646872622133 9.875 25.5 C12.236099368965569 32.34812884703959 16.506530089447168 36.47951106564861 21.5234375 41.55078125 C27.882580178819367 48.46757182526967 27.882580178819367 48.46757182526967 28.23046875 53.0078125 C27.43703856709135 57.84580142017475 26.13428631015239 61.20540056270876 23 65 C19.60779940323021 63.8692664677434 19.321689181123517 63.2743324583185 17.3125 60.5 C13.262999765615625 55.649308321393335 8.311863510885665 53.07667403976184 2.774658203125 50.234375 C-4.356598056057493 46.52012549371588 -9.489645101949723 41.78612749127893 -12 34 C-13.604850119154204 24.338478070546415 -10.32054328045825 14.3257790646349 -8 5 C-7.865212402343751 4.285778808593747 -7.730424804687502 3.5715576171875014 -7.591552734375 2.835693359375 C-7 1 -7 1 -4.5625 -0.3125 C-2 -1 -2 -1 0 0 Z " fill="#BC98A1" transform="translate(39,53)"/>
<path d="M0 0 C2 2 2 2 2.046875 4.43359375 C1.9489062499999932 5.424882812500002 1.8509375000000006 6.416171875000003 1.75 7.4375 C1.662343749999991 8.405585937500007 1.5746875000000102 9.373671875 1.484375 10.37109375 C1.0953103298649012 13.285941157705707 0.5778548272028274 16.08412036906799 -0.0078125 18.9609375 C-1.318377924883194 26.005226658747148 -1.4531269264375055 33.04010528922268 -1.625 40.1875 C-1.7487500000000011 44.745625000000004 -1.8725000000000023 49.30375000000001 -2 54 C-13.879999999999995 54 -25.760000000000005 54 -38 54 C-39 44 -39 44 -36 40 C-35.22167356366241 37.427413340628746 -35.22167356366241 37.427413340628746 -34.8125 34.75 C-34.6539453125 33.85796875 -34.495390625 32.965937499999995 -34.33203125 32.046875 C-34.2224609375 31.371406250000007 -34.112890625000006 30.6959375 -34 30 C-33.431523437500005 30.2281640625 -32.863046874999995 30.456328125 -32.27734375 30.69140625 C-27.18630017807746 32.58673632769404 -23.359726550322762 33.75221829529782 -18 32 C-13.735273773919658 27.634848509569252 -11.6613624742495 23.35613097205686 -9.5625 17.6875 C-7.053584212288342 11.231334602250428 -4.282467204153932 5.506029262483636 0 0 Z " fill="#9D95A8" transform="translate(100,74)"/>
<path d="M0 0 C9.569999999999993 0 19.14 0 29 0 C29 13.530000000000001 29 27.060000000000002 29 41 C22 40 22 40 19 39 C19 38.34 19 37.68 19 37 C18.1028125 36.566874999999996 18.1028125 36.566874999999996 17.1875 36.125 C15.000000000000014 35.00000000000001 15.000000000000014 35.00000000000001 12 33 C12 32.34 12 31.68 12 31 C10.680000000000007 30.67 9.36 30.34 8 30 C8 29.34 8 28.68 8 28 C7.010000000000005 27.67 6.019999999999996 27.34 5 27 C4.5412626325257435 24.56257545415342 4.083006220918733 22.12506195460115 3.625 19.6875 C3.4986718749999994 19.01654296875 3.372343749999999 18.3455859375 3.2421875 17.654296875 C2.1378127427595928 11.773501292694862 1.0704379766461756 5.887408871554002 0 0 Z " fill="#443333" transform="translate(99,0)"/>
<path d="M0 0 C6.530572371775217 0.9484534154130273 9.598286934614666 3.146829184318733 14 8 C20.384661867604486 17.088753952707563 20.31608735324134 28.646454641573712 20.478515625 39.3203125 C20.707442160171656 46.91397317886462 22.111852722511458 52.948008132633234 27 59 C27 59.66 27 60.31999999999999 27 61 C18.415861142756533 58.54738889793043 11.977301589594795 53.37279433325004 7 46 C6.050781250000004 43.492187500000014 6.050781250000004 43.492187500000014 5.3125 40.875 C5.0611328125 40.00617187500001 4.809765625 39.13734375 4.55078125 38.2421875 C4 36 4 36 4 34 C3.34 34 2.6799999999999997 34 2 34 C-0.29822325227733915 30.35783304656394 -0.2312860163926861 27.291749934336963 -0.1953125 23.046875 C-0.19248260498046876 22.38665344238281 -0.1896527099609375 21.726431884765617 -0.186737060546875 21.04620361328125 C-0.17558414609706444 18.947281033732224 -0.15048946073350408 16.848792578132297 -0.125 14.75 C-0.11496384037137174 13.322922850226021 -0.10583909965604604 11.895838980014432 -0.09765625 10.46875 C-0.07566110847243694 6.979026721873936 -0.041165358410835455 3.489555766826207 0 0 Z " fill="#562344" transform="translate(0,47)"/>
<path d="M0 0 C1.672868466337377 0.9588392429006944 3.3021314696425677 1.9929781366441581 4.921875 3.0390625 C4.3509680177995875 7.058953931369878 3.4355688204292605 10.567506160692005 1.984375 14.3515625 C-0.69405396436008 22.07517765904562 -1.349316674243724 29.945454250811885 -2.078125 38.0390625 C-4.388125000000002 39.0290625 -6.6981250000000045 40.0190625 -9.078125 41.0390625 C-17.471127044943223 33.093025061000496 -23.894146534561173 26.02092457024093 -25.078125 14.0390625 C-24.75610311383545 9.351855045827136 -23.52451328721017 6.308669996551149 -19.96875 3.1875 C-13.476594593132745 -1.2891169635587936 -7.5580984185675675 -3.494910170991769 0 0 Z " fill="#A58673" transform="translate(40.078125,13.9609375)"/>
<path d="M0 0 C0 13.200000000000003 0 26.400000000000006 0 40 C-6.930000000000007 40 -13.86 40 -21 40 C-21.226875000000007 36.74125000000001 -21.45375 33.4825 -21.6875 30.125 C-21.767019042968755 29.119692382812502 -21.846538085937496 28.114384765625005 -21.928466796875 27.07861328125 C-22.372905158853186 19.430104519166335 -21.46101816630126 11.866029320532832 -16.75 5.5625 C-11.297541203449882 0.48179975776011474 -7.460645248098601 0 0 0 Z " fill="#6F3042" transform="translate(128,88)"/>
<path d="M0 0 C2.3099999999999987 0.3299999999999983 4.620000000000001 0.6599999999999966 7 1 C7.181757812499999 1.6754687499999932 7.363515624999998 2.3509375000000006 7.55078125 3.046875 C7.927832031249999 4.384921875000003 7.927832031249999 4.384921875000003 8.3125 5.75 C8.677949218750001 7.072578125000007 8.677949218750001 7.072578125000007 9.05078125 8.421875 C10.022829833330587 11.06200695472505 11.288546052714896 12.794765221985585 13 15 C13 15.659999999999997 13 16.319999999999993 13 17 C14.024804687500001 17.380917968749998 14.024804687500001 17.380917968749998 15.0703125 17.76953125 C24.9078715047063 21.901306031976645 36.11189250664836 27.56033174105295 40.9375 37.5625 C42 41 42 41 42 47 C35.4 47 28.799999999999997 47 22 47 C21.340000000000003 44.36 20.68 41.72 20 39 C17.381659913373554 35.149499872608175 14.766484909243985 32.755892038874464 11 30.0625 C4.870457735764809 25.621473151950354 1.337818898939613 20.540433794023272 0 13 C-0.14752465235534373 8.66074039796176 -0.11746352163380891 4.3396245492490095 0 0 Z " fill="#7A5D6C" transform="translate(20,81)"/>
<path d="M0 0 C0.9899999999999949 0 1.980000000000004 0 3 0 C3 0.6600000000000001 3 1.3200000000000003 3 2 C4.319999999999993 2.3299999999999983 5.640000000000001 2.66 7 3 C7 3.66 7 4.32 7 5 C7.598124999999996 5.28875 8.196249999999992 5.577500000000001 8.8125 5.875 C11 7 11 7 14 9 C14 9.659999999999997 14 10.32 14 11 C17.299999999999997 11.659999999999997 20.599999999999994 12.32 24 13 C24 24.549999999999997 24 36.099999999999994 24 48 C17.744327616020996 46.7488655232042 15.067185703454868 44.83118743780551 11 40 C5.9053611412802525 32.324569911534596 2.6044741966454126 23.855129747538037 0.4375 14.9375 C0.2689550781250034 14.248012695312497 0.10041015625000682 13.558525390625 -0.0732421875 12.84814453125 C-1.0720208102755464 8.190574831164028 -0.9024898302886015 4.596123705244608 0 0 Z " fill="#5B3F4E" transform="translate(104,28)"/>
<path d="M0 0 C11.88 0 23.76 0 36 0 C35 8.999999999999998 35 8.999999999999998 33 12 C30.997829810222473 12.863004392145486 28.993486724735266 13.721204543544058 26.98046875 14.55859375 C22.289631997625975 16.827163555538682 17.969154336145664 19.66405222355737 13.58544921875 22.470947265625 C12.9217431640625 22.89561279296875 12.258037109375 23.3202783203125 11.57421875 23.7578125 C10.98213623046875 24.1408251953125 10.3900537109375 24.523837890625 9.780029296875 24.91845703125 C6.146011460780722 27.126480486729037 4.409137477790467 28 0 28 C0 18.759999999999998 0 9.52 0 0 Z " fill="#564B4A" transform="translate(0,0)"/>
</svg>
