<?xml version="1.0" encoding="UTF-8"?>
<!-- Generator: visioncortex VTracer 0.6.0 -->
<svg version="1.1" xmlns="http://www.w3.org/2000/svg" width="128" height="128">
<path d="M0 0 C42.24 0 84.48 0 128 0 C128 42.24 128 84.48 128 128 C85.75999999999999 128 43.519999999999996 128 0 128 C0 85.75999999999999 0 43.519999999999996 0 0 Z " fill="#6879A1" transform="translate(0,0)"/>
<path d="M0 0 C8.991318502441672 0 8.991318502441672 0 11.9375 0.76953125 C12.59645263671875 0.9342895507812514 13.2554052734375 1.0990478515624993 13.934326171875 1.268798828125 C14.956834716796875 1.5379309082031263 14.956834716796875 1.5379309082031263 16 1.8125 C21.049585811276888 3.091446544026173 26.043255947284642 4.2074126735818425 31.1923828125 4.99853515625 C41.72311456985496 6.65572079501144 51.476783227018416 10.197571058124254 59 18 C61.24978626354885 19.559643856879617 63.55325030698852 20.994259886967583 65.87890625 22.4375 C68.09928142955532 24.07313549138513 69.46517538941517 25.724732845650607 71 28 C70.2471875 28.268124999999998 69.494375 28.536249999999995 68.71875 28.8125 C62.12091316627331 31.246653394967126 55.966589941170845 33.98201348433312 49.75 37.25 C43.99719252138965 40.261229831274505 39.55163516217937 41.66686600870274 33 42 C31.27253176814881 43.43485512918316 31.27253176814881 43.43485512918316 30 45 C30.461806640625 45.347966308593755 30.92361328125 45.69593261718751 31.3994140625 46.054443359375 C37.7595117911966 51.50013143293849 39.016804038800714 57.600897862963876 40.75 65.5625 C41.30123984688764 67.96103431052738 41.85834218419612 70.35823035934077 42.421875 72.75390625 C42.654873046875 73.80908447265625 42.88787109375 74.8642626953125 43.1279296875 75.951416015625 C44.134624348962106 79.47061988955483 45.35320774251344 83.35320774251343 48 86 C55.23462037262921 86.50769265772837 60.54340825491998 85.17041807249211 66.6875 81.3125 C68.81734526552734 79.18265473447266 69.74926585340964 77.66709276151627 71.125 75.0625 C74.26701708935678 69.6819212143922 79.3151531482348 67.97402282632085 85 66 C85.6896484375 65.7512109375 86.379296875 65.502421875 87.08984375 65.24609375 C89 65 89 65 90.616455078125 65.931396484375 C93.99405034257671 67.44565792783553 97.40149250447627 67.5811347168015 101.046875 67.8515625 C101.7308837890625 67.90852294921875 102.414892578125 67.9654833984375 103.11962890625 68.024169921875 C105.662358347077 68.23348168506296 108.20625657203382 68.42839431306254 110.75 68.625 C119.28875 69.30562499999999 119.28875 69.30562499999999 128 70 C128 82.54 128 95.08 128 108 C85.75999999999999 108 43.519999999999996 108 0 108 C0 72.36 0 36.72 0 0 Z " fill="#73645C" transform="translate(0,20)"/>
<path d="M0 0 C0 14.850000000000001 0 29.700000000000003 0 45 C-8.305873875543412 45 -16.278452185320376 44.89865688705552 -24.5 44.125 C-25.448750000000004 44.04636718750001 -26.397499999999994 43.96773437499999 -27.375 43.88671875 C-34.453452571297134 43.24051170346304 -34.453452571297134 43.24051170346304 -37.76953125 41.78125 C-41.15224562228809 40.59641134070469 -43.02286615787152 41.888998021957065 -46.1875 43.375 C-51.87967914438502 46 -51.87967914438502 46 -54 46 C-54.22687500000001 46.70125 -54.45375 47.4025 -54.6875 48.125 C-57.92992808689581 55.227461523676524 -62.75719433367989 58.970526838843824 -69.9375 61.75 C-78.77304764589793 62.82097547223006 -78.77304764589793 62.82097547223006 -81.59375 60.93359375 C-83.62431346478652 58.141568985918525 -84.4781187592884 55.08446620865958 -85.4375 51.8125 C-85.6535791015625 51.11068603515625 -85.869658203125 50.4088720703125 -86.09228515625 49.685791015625 C-87.19608436294894 46.0261467823446 -88.16801002485781 42.371606930984655 -88.96484375 38.6328125 C-90.64258017335051 30.829408151050828 -92.0837773030427 24.81804277765565 -99 20 C-97.5625 18.0625 -97.5625 18.0625 -95 16 C-92.96105768235009 15.864070512156673 -90.92206210910479 15.728895086229514 -88.8828125 15.59765625 C-84.93163514282695 14.778509724732416 -81.68344882966093 13.04924641861038 -78.125 11.1875 C-60.59680260263329 2.05185087896389 -60.59680260263329 2.05185087896389 -53 4 C-50.28906249999997 5.375000000000014 -50.28906249999997 5.375000000000014 -47.625 7 C-42.80593592666415 9.709907304111624 -39.54672011647261 11.092445335274547 -34 11 C-30.01364559373461 9.741151240126719 -27.03946910298974 8.072221748759937 -23.8125 5.5 C-16.847527748455192 0.3076445602222222 -8.37398881069575 0 0 0 Z " fill="#61686F" transform="translate(128,45)"/>
<path d="M0 0 C3.6107097043224456 1.427787777862207 7.1333631973674585 1.6809691562336866 10.966064453125 1.96728515625 C11.649066162109378 2.0242456054687494 12.332067871093756 2.081206054687499 13.0357666015625 2.139892578125 C15.567828631429038 2.3487543142549896 18.10100344161944 2.543944671612124 20.634033203125 2.74072265625 C29.141845703125 3.4213476562500063 29.141845703125 3.4213476562500063 37.821533203125 4.11572265625 C37.821533203125 16.655722656249992 37.821533203125 29.19572265625 37.821533203125 42.11572265625 C10.761533203124998 42.11572265625 -16.298466796875005 42.11572265625 -44.178466796875 42.11572265625 C-45.136900399475955 39.24042184844713 -45.24503067073128 37.825223346665126 -45.057373046875 34.88525390625 C-45.009033203125 34.0828125 -44.960693359375 33.280371093750006 -44.910888671875 32.45361328125 C-44.854814453125 31.620234374999995 -44.798740234375 30.786855468750005 -44.740966796875 29.92822265625 C-44.66265625 28.660751953125 -44.66265625 28.660751953125 -44.582763671875 27.36767578125 C-44.45322990225173 25.28335967003919 -44.31653502467577 23.199490832750868 -44.178466796875 21.11572265625 C-43.272255859375 21.040957031250002 -42.366044921875 20.966191406250005 -41.432373046875 20.88916015625 C-33.435399093305776 20.025994713642532 -27.047837488940644 18.908702406553402 -21.178466796875 13.11572265625 C-19.885303553645542 11.13769928703259 -19.885303553645542 11.13769928703259 -18.803466796875 9.05322265625 C-15.989113284489406 3.8803616229215407 -5.831955136902408 -2.367291438514016 0 0 Z " fill="#5E7A87" transform="translate(90.178466796875,85.88427734375)"/>
<path d="M0 0 C8.991318502441672 0 8.991318502441672 0 11.9375 0.76953125 C12.59645263671875 0.9342895507812514 13.2554052734375 1.0990478515624993 13.934326171875 1.268798828125 C14.956834716796875 1.5379309082031263 14.956834716796875 1.5379309082031263 16 1.8125 C21.049585811276888 3.091446544026173 26.043255947284642 4.2074126735818425 31.1923828125 4.99853515625 C41.72311456985496 6.65572079501144 51.476783227018416 10.197571058124254 59 18 C61.24978626354885 19.559643856879617 63.55325030698852 20.994259886967583 65.87890625 22.4375 C68.09928142955532 24.07313549138513 69.46517538941517 25.724732845650607 71 28 C70.2471875 28.268124999999998 69.494375 28.536249999999995 68.71875 28.8125 C62.120861894469094 31.246672310778393 55.966756525856546 33.98227420977302 49.75 37.25 C44.02251859545869 40.245055018150495 39.544319846213554 41.77433379840643 33 42 C32.34 42.66 31.68 43.32 31 44 C28.019945777473975 43.77076505980569 25.337146294764523 43.11485203448022 22.51171875 42.15234375 C15.265370882375137 39.784725139785934 11.016786767401793 40.248318914744395 4 43 C2.0199999999999996 43.495 2.0199999999999996 43.495 0 44 C0 29.479999999999997 0 14.959999999999994 0 0 Z " fill="#788698" transform="translate(0,20)"/>
<path d="M0 0 C6.930000000000007 0 13.86 0 21 0 C21 10.89 21 21.78 21 33 C18.442499999999995 33.4125 15.884999999999991 33.825 13.25 34.25 C7.807874675150686 35.16274834428443 2.703753261043289 36.2933877378845 -2.5 38.1875 C-8.780910993963715 40.380698540011785 -13.470417426792693 41.39312673391586 -19.80078125 38.89453125 C-22.9423388872859 37.374685596682696 -25.96658035142221 35.72532790420967 -29 34 C-30.1330859375 33.3773828125 -31.266171874999998 32.754765625 -32.43359375 32.11328125 C-38.61824324324323 28.63851351351352 -38.61824324324323 28.63851351351352 -41 27 C-41 26.34 -41 25.68 -41 25 C-35.82028431209493 20.560243696081372 -30.131036151921876 18.26870906243142 -23.859375 15.69140625 C-19.002112564594256 13.631696870207707 -14.405763600050733 11.102085736014205 -9.798828125 8.539794921875 C-5.193862070017076 6 -5.193862070017076 6 -3 6 C-3 5.34 -3 4.68 -3 4 C-2.3400000000000034 4 -1.6800000000000068 4 -1 4 C-0.6700000000000017 2.6799999999999997 -0.3400000000000034 1.3599999999999999 0 0 Z " fill="#5992D5" transform="translate(107,0)"/>
<path d="M0 0 C32.01 0 64.02 0 97 0 C96.67 1.32 96.34 2.64 96 4 C95.34 4 94.68 4 94 4 C94 4.66 94 5.32 94 6 C72.29785644932406 17.62266288246571 72.29785644932406 17.62266288246571 63.375 20.90234375 C60.83158122290172 21.930247815397415 60.83158122290172 21.930247815397415 58.625 24.19140625 C56 26 56 26 52.7109375 25.98828125 C48.3846736437683 24.83612887565619 44.63610823799522 23.14214949296877 40.625 21.1875 C33.77892755242154 17.98042708437417 27.1624398957903 15.742693770512174 19.74658203125 14.280029296875 C12.459394827531973 12.830330780551249 6.9292662469497905 10.825496473667936 2 5 C2 4.34 2 3.6799999999999997 2 3 C1.3399999999999999 3 0.6799999999999997 3 0 3 C0 2.01 0 1.02 0 0 Z " fill="#2D5CA2" transform="translate(10,0)"/>
<path d="M0 0 C0.49500000000000455 1.4849999999999994 0.49500000000000455 1.4849999999999994 1 3 C1.6599999999999966 3 2.319999999999993 3 3 3 C5.461529516913529 7.371676422038433 5.657534356091304 11.072551183365192 5 16 C2.755525042849598 22.68489568318853 -1.466488121463584 28.678339072410978 -7.5625 32.3125 C-12.986831144090019 34.9753534707351 -16.983383772346414 35.38200737953356 -23 35 C-26.620785721812645 32.60690083742604 -27.347051290377536 28.51731246053771 -28.5 24.5625 C-28.713581542968754 23.852548828124995 -28.9271630859375 23.142597656250004 -29.147216796875 22.4111328125 C-34 6.082297081758043 -34 6.082297081758043 -34 0 C-22.18207566285897 -3.7135374893387763 -11.362486118486068 -6.622579628513321 0 0 Z " fill="#353D4A" transform="translate(71,72)"/>
<path d="M0 0 C4.359656392196165 1.0899140980490358 5.526243199586892 2.148417375448261 8.6875 5.1875 C16.348171402854387 12.283225134207314 23.692111403286468 18.300504152321096 34.5 18.25 C35.6034375 18.25515625 36.706875 18.260312499999998 37.84375 18.265625 C41.40422180480708 18.12078919582288 41.40422180480708 18.12078919582288 46 16 C46 22.599999999999994 46 29.200000000000003 46 36 C30.82 36 15.639999999999997 36 0 36 C0 24.120000000000005 0 12.239999999999995 0 0 Z " fill="#727F8E" transform="translate(0,92)"/>
<path d="M0 0 C5.723437500000003 0.09281249999999375 5.723437500000003 0.09281249999999375 11.5625 0.1875 C11.5625 9.757499999999993 11.5625 19.3275 11.5625 29.1875 C-1.3075000000000045 29.1875 -14.177500000000009 29.1875 -27.4375 29.1875 C-27.4375 11.779049295774655 -27.4375 11.779049295774655 -21.36328125 4.6953125 C-14.698461406758867 -0.52298457807521 -8.13083122949908 -0.1867320497798346 0 0 Z " fill="#95E4E3" transform="translate(116.4375,98.8125)"/>
<path d="M0 0 C1.571044921875 0.14308593750000398 1.571044921875 0.14308593750000398 3.173828125 0.2890625 C5.720492685956117 0.5216346060233832 8.266653147683115 0.7586692508581478 10.8125 1 C10.8125 3.969999999999999 10.8125 6.939999999999998 10.8125 10 C9.784794921875005 10.014018554687496 9.784794921875005 10.014018554687496 8.736328125 10.0283203125 C5.594355647301484 10.082419095876986 2.453809325299531 10.165988238974549 -0.6875 10.25 C-1.7651562499999898 10.264179687500004 -2.842812500000008 10.278359375000008 -3.953125 10.29296875 C-11.883829039838744 10.534758507312162 -17.54843753943797 11.64823194421919 -23.5625 17.1875 C-27.365802935122474 23.770139695404282 -27.559251786810407 31.56572947725644 -28.1875 39 C-34.1275 39 -40.067499999999995 39 -46.1875 39 C-43.772220363392904 24.206412225781577 -37.670064320953045 10.890757507863299 -26.5 0.5 C-18.660003238077707 -3.050187212945943 -8.368174577112995 -0.7944129810216367 0 0 Z " fill="#79ACB1" transform="translate(117.1875,89)"/>
<path d="M0 0 C8.098961998841508 1.3498269998069183 14.770257350046524 4.462821687558154 20 11 C22.749642694678055 15.68427153674196 24.897075501324892 20.41818502787011 26.4375 25.625 C27.938782630779492 30.521625324809854 30.731960463021878 34.11854203860527 34 38 C32.65625 39.5078125 32.65625 39.5078125 31 41 C27.98543528060731 40.84927176403036 25.36285739125805 40.12437564668908 22.515625 39.1484375 C15.26426719940994 36.79277041788741 11.020430633037044 37.24688994782861 4 40 C2.0199999999999996 40.495 2.0199999999999996 40.495 0 41 C0 27.47 0 13.939999999999998 0 0 Z " fill="#747B7A" transform="translate(0,23)"/>
<path d="M0 0 C3.3000000000000003 0 6.6000000000000005 0 10 0 C10 0.99 10 1.98 10 3 C10.66 3 11.32 3 12 3 C12.7425 4.0725 13.485 5.145 14.25 6.25 C18.772554671683334 11.73456507861842 25.355577007432384 12.474457833044868 32 14 C40.02074770757569 15.997176859276504 47.431980543068384 18.67007143895009 55 22 C60.36059914172258 24.40375309747818 60.36059914172258 24.40375309747818 66 26 C66 26.66 66 27.32 66 28 C64.58671871135977 28.81837442141347 63.16921654371867 29.629462193656952 61.75 30.4375 C60.96109375 30.8899609375 60.1721875 31.342421875 59.359375 31.80859375 C55.4462871575675 33.78457353798329 55.4462871575675 33.78457353798329 53 34 C50.86328125000003 32.960937500000014 50.86328125000003 32.960937500000014 48.3125 31.375 C39.20144779532139 26.556762576421498 29.07275620212362 25.318911986228624 19.01806640625 23.5361328125 C15.576399515298164 22.924751119203588 12.142867475302964 22.275870196750066 8.709716796875 21.61865234375 C5.808533798822186 21.06815388296121 2.903955424097126 20.535681097648986 0 20 C0 13.399999999999999 0 6.799999999999999 0 0 Z " fill="#59719F" transform="translate(0,0)"/>
<path d="M0 0 C0 9.57 0 19.14 0 29 C-16.502415458937122 30.17874396135265 -16.502415458937122 30.17874396135265 -21.1875 30.25 C-22.75564453125 30.288671875000006 -22.75564453125 30.288671875000006 -24.35546875 30.328125 C-27 30 -27 30 -28.80078125 28.609375 C-31.963683491147833 24.36469837670063 -31.760954797125095 19.710115899621343 -31.71875 14.56640625 C-30.845139867906397 10.231590757600728 -29.72224268336079 8.981537120112108 -26.25 6.3125 C-17.660666658969717 1.1500564089303182 -9.927951316409803 0 0 0 Z " fill="#4F4B55" transform="translate(128,45)"/>
<path d="M0 0 C15.510000000000005 0 31.02000000000001 0 47 0 C46.67 1.32 46.34 2.64 46 4 C45.34 4 44.68000000000001 4 44 4 C44 4.66 44 5.32 44 6 C40.71275599241352 7.758398809468004 37.419429837314 9.505106568646355 34.125 11.25 C33.2071875 11.7411328125 32.28937500000001 12.232265625 31.34375 12.73828125 C15.142280385301987 21.295395483115147 15.142280385301987 21.295395483115147 10.8310546875 20.700927734375 C6.007748043984606 18.854565951237305 2.6323367139650173 13.374645030358728 0.5625 8.875 C0 6 0 6 0 0 Z " fill="#1869C6" transform="translate(60,0)"/>
<path d="M0 0 C0 5.280000000000001 0 10.560000000000002 0 16 C-8.251445268010372 16.20125476263439 -16.340120743252385 15.860890324818158 -24.5625 15.1875 C-25.526235351562505 15.117407226562506 -26.489970703124996 15.047314453124997 -27.48291015625 14.97509765625 C-28.85455322265625 14.854006347656252 -28.85455322265625 14.854006347656252 -30.25390625 14.73046875 C-31.071896972656248 14.662390136718756 -31.889887695312495 14.594311523437497 -32.732666015625 14.524169921875 C-35.41284636337802 13.904556784518945 -36.92575667531075 12.771000069539042 -39 11 C-35.30282436217456 5.823954107044386 -31.601669945212166 1.684367243403699 -25.18359375 0.46484375 C-16.82607507581912 -0.26323456394705147 -8.381772686565427 -0.07833432417351105 0 0 Z " fill="#486E6F" transform="translate(128,74)"/>
</svg>
