<?xml version="1.0" encoding="UTF-8"?>
<!-- Generator: visioncortex VTracer 0.6.0 -->
<svg version="1.1" xmlns="http://www.w3.org/2000/svg" width="128" height="128">
<path d="M0 0 C42.24 0 84.48 0 128 0 C128 42.24 128 84.48 128 128 C85.75999999999999 128 43.519999999999996 128 0 128 C0 85.75999999999999 0 43.519999999999996 0 0 Z " fill="#569F9B" transform="translate(0,0)"/>
<path d="M0 0 C0 16.83 0 33.66 0 51 C-5.609999999999999 51.66 -11.219999999999999 52.31999999999999 -17 53 C-27.00243582154964 56.398885958779005 -35.91886021229398 60.901286323821736 -42.5625 69.3125 C-45.56739772732196 72.92678258111452 -47.9088922614405 74.23371498764732 -52.55859375 74.88671875 C-70.76060555369806 75.7312920976916 -85.29475444176555 66.61387427211459 -100 57 C-98.68388510505815 53.57923585495716 -97.45576292241005 50.7627332877113 -95 48 C-94.34 48 -93.68 48 -93 48 C-92.67 47.00999999999999 -92.34 46.02000000000001 -92 45 C-91.34 45 -90.68 45 -90 45 C-89.773125 44.484375 -89.54625 43.96875 -89.3125 43.4375 C-87.81178221900868 40.6504526924447 -86.0185514361882 38.21166051883827 -84.12109375 35.68359375 C-82.8144882138493 33.881132345945105 -82.8144882138493 33.881132345945105 -82 31 C-74.52857156529116 25.81188332924377 -66.56250671091561 24.025560683089154 -57.76171875 22.73828125 C-53.95710198760088 22.135233954988756 -53.95710198760088 22.135233954988756 -50.4921875 20.44921875 C-45.53672307428346 18.392756443578477 -40.92687883662465 18.536586583499485 -35.62109375 18.40625 C-31.693626058903277 17.965627950513422 -29.31399926538556 17.132819152037456 -26 15 C-24.397765664855484 12.950991941946754 -24.397765664855484 12.950991941946754 -23.25 10.625 C-18.143636627417152 2.308535515209897 -9.258473783852153 0 0 0 Z " fill="#44879D" transform="translate(128,39)"/>
<path d="M0 0 C0 12.540000000000006 0 25.08 0 38 C-42.24000000000001 38 -84.48 38 -128 38 C-128 26.450000000000003 -128 14.900000000000006 -128 3 C-122.84539691731854 3 -118.06705023565297 3.2531570084031927 -113 3.9375 C-111.9906640625 4.068017578124994 -111.9906640625 4.068017578124994 -110.9609375 4.201171875 C-108.9730027571288 4.460217425470674 -106.98647824674696 4.730012381146494 -105 5 C-103.81921875 5.099257812499999 -102.6384375 5.198515624999999 -101.421875 5.30078125 C-97.36458066575227 6.129840252089437 -94.56618718073221 7.902448835937861 -91.25 10.25 C-79.68743242959889 18.00231531960351 -66.31795671849223 24.651181690865187 -51.96484375 22.51953125 C-47.1248295634167 21.23976606746406 -44.59857496133347 19.89972754689471 -41.5625 15.875 C-30.759307899534676 3.237303580587735 -16.018232821549773 0 0 0 Z " fill="#6A9D9C" transform="translate(128,90)"/>
<path d="M0 0 C15.840000000000003 0 31.680000000000007 0 48 0 C48 12.870000000000001 48 25.740000000000002 48 39 C43.05 39.989999999999995 43.05 39.989999999999995 38 41 C30.768437420813868 43.381824182827174 27.282888759892273 46.5461438332548 23.390625 52.97265625 C21.75425189537185 55.358267601971946 20.095887445760724 56.72803308117119 17.3125 57.62890625 C10.10899327143673 58.78487439056336 1.8965068765469653 59.66328202153741 -4.6875 56 C-9.318247061257921 52.388219067689896 -11.481200764253146 48.21161431652814 -12.41015625 42.4609375 C-12.778878651275292 35.89956964140884 -11.098306092874125 31.043146897891866 -8.37109375 25.140625 C-6.453954084256267 20.749228158809228 -5.192342794663475 16.223037832975884 -3.89453125 11.6171875 C-3 9 -3 9 -1 7 C-0.6700000000000017 4.6899999999999995 -0.3400000000000034 2.38 0 0 Z " fill="#85AEA5" transform="translate(80,0)"/>
<path d="M0 0 C0 16.83 0 33.66 0 51 C-5.609999999999999 51.66 -11.219999999999999 52.31999999999999 -17 53 C-23.064368776186626 55.13696804494195 -28.053195559472996 57.27177424780689 -33.3125 60.875 C-36.09118075955138 62.744929819320745 -37.661964564767345 63.28555492195912 -41 62.8125 C-41.989999999999995 62.544375 -42.980000000000004 62.276250000000005 -44 62 C-44.495000000000005 60.515 -44.495000000000005 60.515 -45 59 C-43.8203125 56.65234375 -43.8203125 56.65234375 -42.125 53.9375 C-39.19264910663355 48.75266411126074 -37.147057595488164 44.04714294480823 -38 38 C-40.04243509975112 34.95726583125554 -40.04243509975112 34.95726583125554 -43 33 C-43.763125 32.40187499999999 -44.526250000000005 31.803750000000008 -45.3125 31.1875 C-45.869375000000005 30.795625 -46.426249999999996 30.403750000000002 -47 30 C-45.714804348097076 27.13302508421657 -44.428707461183066 25.023922884319234 -42 23 C-41.34 23 -40.68000000000001 23 -40 23 C-40 22.340000000000003 -40 21.68 -40 21 C-39.34 21 -38.68000000000001 21 -38 21 C-38 20.340000000000003 -38 19.68 -38 19 C-36.046875 18.54427083333333 -34.09375 18.08854166666667 -32.140625 17.6328125 C-27.533503387307718 16.270853191138414 -25.696679860913164 14.924921832034755 -23.375 10.6875 C-18.14186965778582 2.3760576917774756 -9.354362052408533 0 0 0 Z " fill="#577DA1" transform="translate(128,39)"/>
<path d="M0 0 C5.450374288519782 3.7217766177271017 8.541376333939212 8.748214779211594 11.76953125 14.3671875 C13.688294480468656 16.913355850272694 15.961854082885118 17.43476355030421 19 18 C17.101292037458286 24.075865480133487 12.775382352663435 29.81015499303099 8 34 C7.340000000000003 34 6.68 34 6 34 C5.731875000000002 34.5775 5.463749999999997 35.155 5.1875 35.75 C4.795625000000001 36.49250000000001 4.403749999999999 37.235 4 38 C3.649374999999999 38.721875 3.2987499999999983 39.443749999999994 2.9375 40.1875 C-0.17851734379925688 43.10248396677994 -3.8498914251927445 42.88760040446451 -8 43 C-11.397487674179535 42.72212262449469 -14.710666360006647 42.17292246989521 -18.0625 41.5625 C-22.486562499999998 40.7890625 -22.486562499999998 40.7890625 -27 40 C-27 27.460000000000008 -27 14.920000000000002 -27 2 C-8.679464805119256 -3.234438627108787 -8.679464805119256 -3.234438627108787 0 0 Z " fill="#5098B7" transform="translate(27,53)"/>
<path d="M0 0 C0 12.540000000000006 0 25.08 0 38 C-14.849999999999994 38 -29.700000000000003 38 -45 38 C-45 20 -45 20 -41.875 14.875 C-29.531543296636855 3.776812379985003 -16.480218734358445 0 0 0 Z " fill="#9A9FA3" transform="translate(128,90)"/>
<path d="M0 0 C15.510000000000005 0 31.02000000000001 0 47 0 C47 2.31 47 4.62 47 7 C44.74424444988469 8.392065362008095 43.58139318317913 9.107098744269841 40.921875 8.6171875 C40.20515625 8.372265625 39.4884375 8.12734375 38.75 7.875 C35.11369311707983 6.946453761363053 33.09835352586171 6.9495169307607245 29.6875 8.5625 C24.357246423025146 11.745845886248869 21.659859679228767 15.765395449446196 19.58203125 21.62109375 C18.8856945224532 24.46719487131544 18.684730147615035 27.201917075973913 18.5 30.125 C18.196804159354564 34.748736569842904 17.773704399599488 38.136626014843564 15 42 C11.726191242079167 44.80612179250357 8.698413059250456 45.585803152153716 4.37890625 45.421875 C-2.991789560037411 44.11475653122489 -10.048126883055208 40.4639048377086 -16 36 C-15.154375000000002 35.05125 -14.30875 34.1025 -13.4375 33.125 C-6.387536562402278 23.769598281860844 -3.2911216286632374 10.970405428877461 0 0 Z " fill="#427968" transform="translate(33,0)"/>
<path d="M0 0 C5.277741489750909 0.3044850859471637 8.195664828673983 1.3075570395953378 12 5 C13.943349874233277 8.886699748466555 13.009350053683221 12.905368596656203 12 17 C6.07871236415464 30.831067388205952 6.07871236415464 30.831067388205952 0.1875 33.375 C-1.80859375 33.8125 -1.80859375 33.8125 -4 34 C-4.857226562500003 34.08250000000001 -5.714453125000006 34.16499999999999 -6.59765625 34.25 C-14.516730276210488 34.60641402087023 -22.898711287532848 33.430817425382855 -29 28 C-30.48073745665853 23.55778763002442 -30.77029382509881 19.70275477127106 -28.8125 15.375 C-23.178310171147686 7.992268500124553 -17.57897135384554 4.859930610127151 -8.75 2.875 C-3.9952672733347185 2.1492086052820127 -3.9952672733347185 2.1492086052820127 0 0 Z " fill="#1D6891" transform="translate(78,70)"/>
<path d="M0 0 C10.89 0 21.78 0 33 0 C31.632448189585034 6.83775905207483 30.243889484526413 12.797600942980097 27.75 19.1875 C27.4754296875 19.94224609375 27.200859375 20.6969921875 26.91796875 21.474609375 C24.874171202217475 26.76740347295699 22.37276125385986 31.28110340898674 18 35 C14.746093750000007 36.33984375 14.746093750000007 36.33984375 11.4375 36.9375 C10.3430859375 37.1527734375 9.248671875 37.368046875 8.12109375 37.58984375 C4.999999999999983 38 4.999999999999983 38 0 38 C0 25.46 0 12.919999999999998 0 0 Z " fill="#A0A575" transform="translate(0,0)"/>
<path d="M0 0 C10.89 0 21.78 0 33 0 C33 10.23 33 20.46 33 31 C28.792500000000004 31.3403125 28.792500000000004 31.3403125 24.5 31.6875 C23.633105468750003 31.76701904296875 22.766210937500006 31.8465380859375 21.873046875 31.928466796875 C14.914392354836934 32.3992642525116 9.690828837266608 31.164362325627486 4.125 26.6875 C-0.3062892237550443 21.083222452309794 -0.2653539407492076 15.447692004737693 -0.125 8.625 C-0.08374999999999488 5.7787500000000005 -0.04250000000000398 2.9325 0 0 Z " fill="#DAB66C" transform="translate(95,0)"/>
<path d="M0 0 C13.062794432414568 1.4514216036016165 21.581698538840882 3.289957563333644 30.75 12.875 C35.52683569982186 19.509494027530366 36.95093214074435 23.607457125954767 38 32 C25.46 32 12.919999999999998 32 0 32 C0 21.439999999999998 0 10.879999999999995 0 0 Z " fill="#B8B99E" transform="translate(0,96)"/>
<path d="M0 0 C4.950000000000003 0 9.900000000000006 0 15 0 C15.037382812499999 1.2181640625 15.074765624999998 2.436328125 15.11328125 3.69140625 C15.178981172265807 5.3151329002835395 15.24542709487568 6.9388294853866075 15.3125 8.5625 C15.335058593750006 9.36236328125 15.357617187499997 10.1622265625 15.380859375 10.986328125 C15.665420479231088 17.324279991965227 16.842014048143554 22.148375706475417 20.75 27.3125 C26.313762260394086 31.485321695295564 32.78357428134274 31.264405373638265 39.4375 31.125 C40.26443359375 31.1159765625 41.0913671875 31.106953125 41.943359375 31.09765625 C43.96236708310802 31.074315120426498 45.98122356131259 31.038452884546427 48 31 C48 33.64 48 36.28 48 39 C47.394140625000006 39.0863671875 46.78828125 39.172734375 46.1640625 39.26171875 C41.21751100564697 40.09121738520689 37.400361988974964 41.19463025689596 33.0625 43.75 C28.20273746412566 46.32864950883128 24.901416304243668 46.254814829386525 19.6171875 44.9375 C13.852485589565788 42.872532151486254 9.388577568869664 40.165541836356375 6 35 C5.21630859375 32.39038085937499 5.21630859375 32.39038085937499 4.6484375 29.46484375 C4.437031250000004 28.40845703125 4.225624999999994 27.3520703125 4.0078125 26.263671875 C3.7989843750000034 25.16603515625 3.590156250000007 24.0683984375 3.375 22.9375 C2.9466636045831365 20.758848512596945 2.5170350011663203 18.58045056916439 2.0859375 16.40234375 C1.8082250976562477 14.955894775390625 1.8082250976562477 14.955894775390625 1.52490234375 13.480224609375 C1.0244902659072181 10.885218515914161 1.0244902659072181 10.885218515914161 0 8 C-0.1278178605742113 5.326050356787631 -0.04391871191407404 2.6790414267581593 0 0 Z " fill="#A7A880" transform="translate(80,0)"/>
<path d="M0 0 C0.689697265625 2.140380859375014 0.689697265625 2.140380859375014 1 4 C1.6599999999999966 4 2.3200000000000003 4 3 4 C3 4.659999999999997 3 5.32 3 6 C3.6599999999999966 6.226875 4.32 6.453749999999999 5 6.6875 C8.941498770228833 8.411905711975116 12.397921735852904 10.662481126457735 16 13 C16.83015625 13.513046875 17.660312500000003 14.026093750000001 18.515625 14.5546875 C19.335468749999997 15.072890625 20.1553125 15.591093749999999 21 16.125 C21.763125000000002 16.601953125 22.526249999999997 17.078906250000003 23.3125 17.5703125 C23.869374999999998 18.042109374999995 24.426250000000003 18.513906250000005 25 19 C25 19.989999999999995 25 20.980000000000004 25 22 C23.30397484271306 23.04115423356582 21.592510630358902 24.057183777696594 19.875 25.0625 C18.923671874999997 25.630976562499995 17.97234375 26.19945312499999 16.9921875 26.78515625 C13.358887246558474 28.260295125744534 11.692527854558826 28.294133578255384 8 27 C5.839843750000007 24.671875 5.839843750000007 24.671875 3.9375 21.75 C3.2491406250000026 20.7561328125 2.560781249999998 19.762265624999998 1.8515625 18.73828125 C1.2405468749999997 17.8346484375 0.6295312499999994 16.931015625 0 16 C-3.2048052096476596 11.513272706493275 -5.86086952383085 10.547865783831078 -11.125 9.5 C-16.86906510693818 8.781991861632726 -21.307848036511714 9.413657341836341 -26.7578125 11.2734375 C-29.000000000000004 12 -29.000000000000004 12 -32 12 C-32 6.390000000000001 -32 0.7800000000000011 -32 -5 C-18.947243398168695 -8.72935902909466 -11.118252409448889 -8.227792967095382 0 0 Z " fill="#62A2A7" transform="translate(32,43)"/>
<path d="M0 0 C0 8.25 0 16.5 0 25 C-10.230000000000004 25 -20.460000000000008 25 -31 25 C-29.846394397048655 13.463943970486511 -29.846394397048655 13.463943970486511 -25.30078125 8.82421875 C-17.574084438487745 2.697958289938498 -9.738567204313057 0 0 0 Z " fill="#DBC09C" transform="translate(128,103)"/>
<path d="M0 0 C0 6.270000000000003 0 12.54 0 19 C-14.849999999999994 18.505000000000003 -14.849999999999994 18.505000000000003 -30 18 C-28.349999999999994 16.35 -26.700000000000003 14.700000000000003 -25 13 C-24.119923401904813 11.683624805115414 -23.26298024078858 10.351281186241366 -22.4375 9 C-17.016876765452125 1.5852614822764792 -8.695416577848576 0 0 0 Z " fill="#687979" transform="translate(128,39)"/>
</svg>
