<?xml version="1.0" encoding="UTF-8"?>
<!-- Generator: visioncortex VTracer 0.6.0 -->
<svg version="1.1" xmlns="http://www.w3.org/2000/svg" width="128" height="128">
<path d="M0 0 C42.24 0 84.48 0 128 0 C128 42.24 128 84.48 128 128 C85.75999999999999 128 43.519999999999996 128 0 128 C0 85.75999999999999 0 43.519999999999996 0 0 Z " fill="#5B401B" transform="translate(0,0)"/>
<path d="M0 0 C3.092470065802843 0.7102705441456862 5.978765763580213 0.8168143407943482 9.14306640625 0.85107421875 C19.325999509321193 1.002501958786521 19.325999509321193 1.002501958786521 23.46484375 5.1328125 C26.559036000324355 9.00257252064064 27.09119040566469 11.474770391023853 27.16552734375 16.459228515625 C27.38466515197473 26.950722294542786 29.90646102745488 35.133576807844534 34.02734375 44.6953125 C37.20474686028129 52.39350606498297 38.91595629268491 60.36672711171043 36.04296875 68.47265625 C34.823303619012776 70.97598128736577 33.49348684522036 73.32920260569624 32.02734375 75.6953125 C31.38796875 76.8090625 30.748593749999998 77.9228125 30.08984375 79.0703125 C27.631186024065755 82.19951324209813 25.551461185549925 83.82960326941475 22.02734375 85.6953125 C18.54687500000003 85.42968750000001 18.54687500000003 85.42968750000001 14.83984375 84.4453125 C4.0491574501608625 81.68010451158861 4.0491574501608625 81.68010451158861 -6.45703125 83.9921875 C-9.904909073006053 86.32646503234571 -13.289739966021443 88.73831809482395 -16.66796875 91.171875 C-20.77602248756675 93.88736814856107 -24.130841754884067 94.24196897525502 -28.97265625 93.6953125 C-43.80339371489576 86.70552145132739 -51.75366397848589 67.98894413178166 -57.09765625 53.3671875 C-59.80549372493523 45.09861235332275 -60.52447576604841 37.32764199452264 -56.772705078125 29.20654296875 C-51.18051338173005 18.181556963980853 -45.717627347203916 12.236327578155212 -33.97265625 7.6953125 C-30.751258948325727 6.864489838254322 -27.530673208531823 6.19443945847155 -24.265625 5.55859375 C-20.627324570513174 4.604780707394319 -17.674051794498553 3.126709809127643 -14.34765625 1.3828125 C-8.857660021050947 -1.2801964234806675 -5.819370504352179 -1.6236129160453956 0 0 Z " fill="#C4935F" transform="translate(81.97265625,27.3046875)"/>
<path d="M0 0 C-0.5658984375000031 0.975820312499998 -1.1317968749999991 1.9516406250000031 -1.71484375 2.95703125 C-2.4558718225051095 4.242105249154434 -3.1967493936715172 5.527266042011263 -3.9375 6.8125 C-4.310683593749999 7.455097656250004 -4.683867187499999 8.0976953125 -5.068359375 8.759765625 C-9.462360782448059 16.399786090202483 -10.246723422710136 23.299620013030165 -8.3515625 31.96484375 C-5.8128410577686545 40.04752526479638 -2.050793352432308 47.58002733574173 2 55 C2.320170898437503 55.590551757812506 2.640341796874999 56.181103515625 2.97021484375 56.78955078125 C7.4051955070623094 64.83887478812954 11.688064194335915 70.84403209716795 20 75 C26.888662785262355 75.68886627852623 31.65824104384781 73.67474120043319 36.95703125 69.43359375 C38.141402487576954 68.39882730032751 39.310091736568154 67.3456383944313 40.45703125 66.26953125 C44.71873294587205 62.76306782934577 50.829807778136754 63.62517593788563 56 64 C59.55997239005778 64.60888630486674 63.09384932138738 65.34750487130425 66.604248046875 66.1962890625 C68.81348562546813 66.72410551580091 68.81348562546813 66.72410551580091 72 67 C73.87388708146517 65.6959117894376 73.87388708146517 65.6959117894376 75 64 C75.66 64 76.32 64 77 64 C77.226875 63.34 77.45375 62.68000000000001 77.6875 62 C79.12629304504884 58.71133018274553 80.91498270952677 55.862607974193594 82.87890625 52.8671875 C86.01122179512107 47.65029958861368 85.67686069624372 41.860028190001955 85 36 C83.73962712969504 31.135894330156418 82.03030449528512 26.428650053579304 80.3125 21.7109375 C79 17.999999999999993 79 17.999999999999993 79 16 C81.49370126633292 17.150939045999806 83.60875485266858 18.42348163663901 85.875 20 C89.30119700985728 22.372667486772627 89.30119700985728 22.372667486772627 95 24 C95 43.47 95 62.94 95 83 C52.75999999999999 83 10.519999999999996 83 -33 83 C-33.0309375 65.7059375 -33.0309375 65.7059375 -33.0625 48.0625 C-33.07160400390625 44.41711181640625 -33.0807080078125 40.771723632812495 -33.090087890625 37.015869140625 C-33.0946044921875 32.57702636718753 -33.0946044921875 32.57702636718753 -33.09544372558594 30.501449584960938 C-33.09698302789682 29.046490424836065 -33.1005076784494 27.5915325690969 -33.10557556152344 26.136581420898438 C-33.112855020388366 23.93746715056301 -33.113907352221325 21.73843108434248 -33.113525390625 19.539306640625 C-33.1168563079834 17.67732383728027 -33.1168563079834 17.67732383728027 -33.12025451660156 15.777725219726563 C-33 13 -33 13 -32 12 C-31.071875 11.958750000000002 -30.14375 11.917500000000004 -29.1875 11.875 C-21.94069534418827 10.961663049577446 -15.38660109342387 5.6842083875772715 -9.5 1.625 C-5.822838448687751 -0.7651550083529628 -4.187077340590779 -1.3956924468635918 0 0 Z " fill="#7D5B2C" transform="translate(33,45)"/>
<path d="M0 0 C5.04521391529579 0.8698644681544465 8.948597058345214 0.777138914100739 14 0 C14.990000000000009 0.3299999999999983 15.97999999999999 0.6599999999999966 17 1 C18.630821941994128 1.0474638271357577 20.263659678601357 1.0379142862373385 21.89453125 0.9921875 C22.85037109375 0.9754296874999966 23.806210937499998 0.9586718750000003 24.791015625 0.94140625 C26.79381331295386 0.8973887183966198 28.796452764931317 0.8453977585435979 30.798828125 0.78515625 C36.326018212489544 0.7034919236569692 40.22223154220049 0.8569390971831297 45 4 C47.73492187045251 6.73492187045251 46.23535107550771 14.944457721313228 46.25 18.625 C46.270624999999995 19.897304687499997 46.291250000000005 21.169609374999993 46.3125 22.48046875 C46.34699812151733 30.751393383780936 46.23792902080197 36.43827807711784 40.5 42.75 C39.675 43.49250000000001 38.849999999999994 44.235 38 45 C37.56687500000001 45.55687499999999 37.13374999999999 46.11375000000001 36.6875 46.6875 C33.771813372260624 48.95525626601952 30.611920713222446 49.74873595038453 27 50 C21.06647418389204 48.94153227294129 16.112846781610187 46.04804327365224 11 43 C7.334715135252793 41.32073363376932 4.042211085393291 40.599634071172574 0.04296875 40.1484375 C-1.06884765625 40.01953125 -2.1806640625 39.890625 -3.326171875 39.7578125 C-4.476660156249999 39.631484375 -5.627148437499997 39.50515625 -6.8125 39.375 C-7.982324218750001 39.2409375 -9.152148437500003 39.106875 -10.357421875 38.96875 C-13.237632572467028 38.63958306314663 -16.118417580358198 38.3168946837248 -19 38 C-19.652351413425365 36.27540151127502 -20.298213769526342 34.54834772735293 -20.94140625 32.8203125 C-21.30177978515625 31.858833007812507 -21.6621533203125 30.897353515625 -22.033447265625 29.90673828125 C-24.61512242898378 22.142801808668622 -24.654852391982935 15.394701351221286 -21 8 C-15.938920506086859 -0.4597606139132111 -8.975933795344964 -1.6290840696177682 0 0 Z " fill="#C99F82" transform="translate(59,51)"/>
<path d="M0 0 C2.4937012663329625 1.1509390459998272 4.608754852668554 2.4234816366389964 6.875 4 C10.301197009857304 6.372667486772642 10.301197009857304 6.372667486772642 16 8 C16 27.47 16 46.94 16 67 C-14.030000000000001 67 -44.06 67 -75 67 C-79 44 -79 44 -79 39 C-76 40 -76 40 -74.640625 42.29296875 C-74.18171875 43.248164062499995 -73.7228125 44.20335937499999 -73.25 45.1875 C-69.84229105500471 51.71470370061289 -65.78683960355758 56.03242111452286 -59 59 C-52.97301778306945 59.69542102503044 -48.96460619535726 58.20894978049614 -44 55 C-42.108898585866456 53.48636393798891 -40.309219256353 51.92670215263523 -38.54296875 50.26953125 C-34.28126705412794 46.76306782934577 -28.17019222186326 47.62517593788564 -23 48 C-19.440027609942263 48.60888630486674 -15.906150678612605 49.34750487130425 -12.395751953125 50.1962890625 C-10.18651437453184 50.7241055158009 -10.18651437453184 50.7241055158009 -7 51 C-5.126112918534801 49.6959117894376 -5.126112918534801 49.6959117894376 -4 48 C-3.3400000000000034 48 -2.680000000000007 48 -2 48 C-1.7731249999999932 47.34 -1.5462500000000006 46.68000000000001 -1.3125 46 C0.12629304504882555 42.71133018274554 1.9149827095267824 39.86260797419358 3.87890625 36.8671875 C7.011221795121074 31.650299588613677 6.676860696243722 25.86002819000197 6 20 C4.739627129695052 15.135894330156447 3.0303044952851224 10.428650053579304 1.3125 5.7109375 C0 1.999999999999993 0 1.999999999999993 0 0 Z " fill="#9C6B35" transform="translate(112,61)"/>
<path d="M0 0 C12.870000000000001 0 25.740000000000002 0 39 0 C37.832856237774706 18.67430019560473 36.56906903114583 32.85694591776694 24 47 C21.124999999999993 49.16796875 21.124999999999993 49.16796875 18 51.1875 C16.96875 51.8616796875 15.9375 52.535859375 14.875 53.23046875 C13.451875 54.10638671875 13.451875 54.10638671875 12 55 C11.071874999999999 55.582011718749996 11.071874999999999 55.582011718749996 10.125 56.17578125 C7.9999999999999964 57 7.9999999999999964 57 0 58 C0 38.86 0 19.72 0 0 Z " fill="#4C3615" transform="translate(0,0)"/>
<path d="M0 0 C9.57 0 19.14 0 29 0 C30.175624999999997 3.8981250000000003 31.351249999999993 7.796250000000001 32.5625 11.8125 C32.93705322265626 13.03815673828125 33.31160644531249 14.2638134765625 33.697509765625 15.526611328125 C34.12761352539063 16.977169189453125 34.12761352539063 16.977169189453125 34.56640625 18.45703125 C35.01415405273437 19.941668701171878 35.01415405273437 19.941668701171878 35.470947265625 21.456298828125 C36 23.999999999999996 36 23.999999999999996 35 27 C32.5869522122033 28.32057341620715 30.273646479389242 29.435147108090163 27.75 30.5 C27.0292529296875 30.81187255859375 26.308505859375003 31.1237451171875 25.56591796875 31.445068359375 C20.121259457581203 33.72198012705562 14.74837644185179 35.041063447977606 8.9609375 36.19140625 C4.923445332858606 37.293993161079506 1.8374532584096386 39.28335047560545 -1.6328125 41.5703125 C-5.206542270719041 43.728703747661996 -8.993728615622025 44.89682382169302 -13 46 C-13 42.21960894170403 -11.82724710165472 41.016432164906895 -9.6875 37.9375 C-2.7828807228757313 27.218635396399826 -2.2185403749507486 16.3519820522129 -1.24951171875 3.904296875 C-1 1.9999999999999996 -1 1.9999999999999996 0 0 Z " fill="#6A4E1A" transform="translate(39,0)"/>
<path d="M0 0 C4.415341749339433 3.183153354174941 6.123894952923877 7.417640015330576 7.29296875 12.64453125 C7.872632007269743 17.482710714142584 7.730473216346425 22.264188270656888 7.6484375 27.12890625 C7.59711069661121 32.167487449332896 7.96028127719174 36.94923407323705 8.6875 41.9375 C7.822377929687491 41.6250634765625 6.95725585937501 41.312626953125005 6.06591796875 40.99072265625 C2.8601744413828953 39.9913313007751 -0.038434223727186634 39.46342498493816 -3.3671875 39.0859375 C-4.475781249999997 38.95703125 -5.584375000000001 38.828125 -6.7265625 38.6953125 C-8.439726562499999 38.50582031249999 -8.439726562499999 38.50582031249999 -10.1875 38.3125 C-11.352812499999999 38.1784375 -12.518124999999998 38.044375 -13.71875 37.90625 C-16.582730895052336 37.57759645466612 -19.447250692400708 37.25487167691277 -22.3125 36.9375 C-22.964851413425365 35.21290151127502 -23.610713769526342 33.48584772735293 -24.25390625 31.7578125 C-24.61427978515625 30.796333007812507 -24.9746533203125 29.834853515625 -25.345947265625 28.84423828125 C-27.92762242898378 21.080301808668622 -27.967352391982935 14.332201351221286 -24.3125 6.9375 C-18.49453428688757 -2.7874207905310016 -9.767576192794294 -3.1329961373113804 0 0 Z " fill="#E7BF8F" transform="translate(62.3125,52.0625)"/>
<path d="M0 0 C3.468077411262385 0.7551458879361626 6.740072295476665 1.2562468615890694 10.28125 1.3046875 C22.532026490035918 1.4780944766544124 22.532026490035918 1.4780944766544124 26.6875 5.625 C30.405694875494333 10.275170614521627 30.373913800342137 13.992361382960006 30.3125 19.8125 C30.307988281250005 20.614296875 30.30347656250001 21.41609375 30.298828125 22.2421875 C30.28703168118676 24.22399006062414 30.26909605031851 26.205754333612596 30.25 28.1875 C28.125 28.875 28.125 28.875 25.25 29.1875 C24.383749999999992 28.713125000000005 23.5175 28.238749999999996 22.625 27.75 C17.80338546878413 25.517771050363024 13.483850640114014 25.97925660583101 8.25 26.1875 C-3.8501953670108833 26.668940133965947 -3.8501953670108833 26.668940133965947 -8.75 23.1875 C-9.079999999999998 22.197500000000005 -9.409999999999997 21.207499999999996 -9.75 20.1875 C-10.409999999999997 20.1875 -11.069999999999993 20.1875 -11.75 20.1875 C-13.30078125 18.61328125 -13.30078125 18.61328125 -15.0625 16.5 C-17.808295132912377 13.223556818929282 -20.700466857111977 10.184545481220411 -23.75 7.1875 C-22.71359375 6.777578124999998 -21.677187500000002 6.367656249999996 -20.609375 5.9453125 C-19.23954661019853 5.401134098572015 -17.869756976015857 4.856858132797427 -16.5 4.3125 C-15.818085937500001 4.043085937499999 -15.136171875000002 3.773671874999998 -14.43359375 3.49609375 C-10.412296244381693 1.9017406201205276 -10.412296244381693 1.9017406201205276 -6.5625 -0.05859375 C-4.066970307681544 -1.0966050228824606 -2.6095664740691404 -0.6280788873924159 0 0 Z " fill="#8B6E4C" transform="translate(78.75,26.8125)"/>
<path d="M0 0 C2.457031250000014 2.093750000000014 2.457031250000014 2.093750000000014 4.8125 4.5 C5.602695312500003 5.294062500000003 6.392890625000007 6.088124999999998 7.20703125 6.90625 C9 9 9 9 9 11 C9.659999999999997 11 10.319999999999993 11 11 11 C11.659999999999997 12.32 12.319999999999993 13.64 13 15 C7.977176249323392 17.587515265500073 4.21123728440034 16.648033470005117 -1.16796875 15.5625 C-7.171070846010437 14.570593285340792 -11.019891596515635 15.45407247461658 -16 19 C-19.87524663790044 22.67128628853726 -21.413315614825606 26.75650830750385 -22 32 C-22 38.06792233982125 -20.780569181931213 43.380419740336166 -18.5234375 48.9921875 C-17.496684754941384 52.9306271340308 -19.438684879076177 56.1880829605542 -21.0625 59.75 C-21.4247265625 60.549218749999994 -21.786953124999997 61.3484375 -22.16015625 62.171875 C-22.437304687500003 62.775156249999995 -22.714453125 63.378437500000004 -23 64 C-26.32993247697022 60.938450140576634 -27.822248812904235 57.35175333560636 -29.5625 53.25 C-29.86607421875 52.55906250000001 -30.1696484375 51.86812499999999 -30.482421875 51.15625 C-34.56919533828503 41.6827707735615 -37.38391623703409 32.4029104694979 -33.64453125 22.359375 C-28.189061647053165 10.493571304778548 -22.30468288377552 3.9351218026448223 -10 -1 C-5.934074694478653 -2.253918949183678 -3.755604744489389 -2.028144477400865 0 0 Z " fill="#AA8B58" transform="translate(58,36)"/>
<path d="M0 0 C1.5736900575180357 0.08578574988176513 3.14666157610403 0.185530581791582 4.71875 0.296875 C5.532309570312499 0.349162597656246 6.345869140624998 0.40145019531250625 7.18408203125 0.455322265625 C22.97758842873327 1.5748818916081149 22.97758842873327 1.5748818916081149 28.21875 5.046875 C29.777390360596343 8.22812976584403 30.464106092958417 11.596330790561609 31.21875 15.046875 C31.486874999999998 16.243124999999992 31.754999999999995 17.439375 32.03125 18.671875 C30.672209233385217 24.31712126132298 25.962996308243618 27.03410544658982 21.21875 30.046875 C16.95458450885951 31.9920441021993 13.937991378063153 32.67610718374175 9.21875 32.046875 C2.5155941675504963 28.864923191228158 -1.8457803836884281 24.218690842723547 -5.78125 18.046875 C-6.802187500000002 16.62375 -6.802187500000002 16.62375 -7.84375 15.171875 C-9.268948354068634 10.421213819771225 -7.743486960640475 6.49995153108614 -5.78125 2.046875 C-3.78125 0.046875 -3.78125 0.046875 0 0 Z " fill="#DC9C5B" transform="translate(43.78125,88.953125)"/>
<path d="M0 0 C12.540000000000006 0 25.08 0 38 0 C39.34207661117779 2.684153222355595 38.74140331384653 3.927236868514213 38.07421875 6.83203125 C37.85443359375 7.79560546875 37.634648437500005 8.7591796875 37.408203125 9.751953125 C37.051455078125 11.266923828125 37.051455078125 11.266923828125 36.6875 12.8125 C36.46126953125 13.81087890625 36.23503906249999 14.8092578125 36.001953125 15.837890625 C34.94740164194455 20.3995095761995 33.82478758144009 24.67675425541703 32 29 C29.33269766812836 29.081837685182425 26.667967216072 29.140888259952153 24 29.1875 C23.2562109375 29.21263671875 22.512421875 29.2377734375 21.74609375 29.263671875 C16.55257832750526 29.3314133805108 11.319281157214817 29.175868318236425 7 26 C5.211105490858046 23.075056810292075 4.398031764752076 20.05699959742713 3.5625 16.75 C3.32080078125 15.9159765625 3.0791015625 15.081953125 2.830078125 14.22265625 C1.481739350527036 9.437743718861977 0.7114710074397124 4.980297052078002 0 0 Z " fill="#514721" transform="translate(68,0)"/>
<path d="M0 0 C2.493701266332991 1.1509390459998414 4.608754852668554 2.4234816366389893 6.875 4 C10.301197009857333 6.372667486772642 10.301197009857333 6.372667486772642 16 8 C16 27.47 16 46.94 16 67 C10.060000000000002 67 4.1200000000000045 67 -2 67 C-6.610070257611241 53.318501170960204 -6.610070257611241 53.318501170960204 -7 51 C-5.6875 49.25 -5.6875 49.25 -4 48 C-3.3400000000000034 48 -2.680000000000007 48 -2 48 C-1.7731249999999932 47.34 -1.5462500000000006 46.68000000000001 -1.3125 46 C0.12629304504882555 42.71133018274554 1.9149827095267682 39.862607974193594 3.87890625 36.8671875 C7.011221795121088 31.650299588613663 6.676860696243722 25.86002819000197 6 20 C4.739627129695037 15.135894330156432 3.0303044952851224 10.428650053579304 1.3125 5.7109375 C0 2 0 2 0 0 Z " fill="#A8702C" transform="translate(112,61)"/>
<path d="M0 0 C10.23 0 20.46 0 31 0 C29.497907430056568 21.029295979208072 29.497907430056568 21.029295979208072 22.3125 28 C15.316324643799177 33.506249122935834 8.752771961316947 33 0 33 C0 22.11 0 11.219999999999999 0 0 Z " fill="#323027" transform="translate(0,0)"/>
<path d="M0 0 C7.535603918789315 0.07159718687685768 11.838400593397132 2.0382880192224917 17.4375 6.9375 C19.4375 9.3125 19.4375 9.3125 19.4375 11.3125 C20.0975 11.3125 20.7575 11.3125 21.4375 11.3125 C23.09375 13.39453125 23.09375 13.39453125 24.9375 16.125 C25.5459375 17.018320312499995 26.154375 17.911640625000004 26.78125 18.83203125 C30.4375 24.307783018867923 30.4375 24.307783018867923 30.4375 30.3125 C18.2275 30.3125 6.017499999999998 30.3125 -6.5625 30.3125 C-6.583125 25.548125 -6.60375 20.783749999999998 -6.625 15.875 C-6.63410400390625 14.370100097656248 -6.6432080078125 12.865200195312497 -6.652587890625 11.314697265625 C-6.65508544921875 10.139636230468753 -6.6575830078125 8.964575195312506 -6.66015625 7.75390625 C-6.66539306640625 6.544201660156247 -6.6706298828125 5.334497070312494 -6.676025390625 4.088134765625 C-6.4787254258117715 -0.7357432988085435 -4.339168460077693 0.10318423121586306 0 0 Z " fill="#634522" transform="translate(6.5625,97.6875)"/>
<path d="M0 0 C0 12.54 0 25.08 0 38 C-5.672075162911824 37.054654139514696 -7.3856361171601606 36.436660404489885 -11.75 33.1875 C-12.693593750000005 32.5004296875 -13.637187499999996 31.813359375000005 -14.609375 31.10546875 C-18.230645945338196 27.916146789971755 -19.034693056727903 25.581096864245907 -19.546875 20.8828125 C-20.276954985413596 8.538645950166284 -20.276954985413596 8.538645950166284 -16.94140625 4.51953125 C-11.536349754983632 1.266859807976779 -6.2770237494404455 0 0 0 Z " fill="#884F17" transform="translate(128,31)"/>
</svg>
