<?xml version="1.0" encoding="UTF-8"?>
<!-- Generator: visioncortex VTracer 0.6.0 -->
<svg version="1.1" xmlns="http://www.w3.org/2000/svg" width="128" height="128">
<path d="M0 0 C42.24 0 84.48 0 128 0 C128 42.24 128 84.48 128 128 C85.75999999999999 128 43.519999999999996 128 0 128 C0 85.75999999999999 0 43.519999999999996 0 0 Z " fill="#6D5127" transform="translate(0,0)"/>
<path d="M0 0 C9.191194371003789 4.797601457392087 15.926728219288876 9.83972600583212 19.96875 19.609375 C21.09676692124667 24.322113201518285 21.708138782383088 29.05119517427893 22.28125 33.859375 C22.449472656249995 35.0930078125 22.617695312500004 36.326640625 22.791015625 37.59765625 C25.188094754047256 56.20681748856276 23.781354514960782 71.72987733789391 12.96875 87.609375 C10.728454889011203 90.25948019226723 8.403746020124373 92.79574285744386 6.0234375 95.3203125 C2.367271329818351 99.39353184548754 0.30600022346852995 103.26037410612588 -1.03125 108.609375 C-17.53125 108.609375 -34.03125 108.609375 -51.03125 108.609375 C-51.69125 105.969375 -52.35125 103.329375 -53.03125 100.609375 C-53.67793898710319 98.86453490272159 -54.36006138842849 97.13195529997465 -55.09375 95.421875 C-58.42578401821768 87.63874648197454 -58.21747123226002 80.06322145644123 -58.216552734375 71.72509765625 C-58.21874986735209 69.4845102713972 -58.236963582396264 67.24440737301441 -58.255859375 65.00390625 C-58.25879175987927 63.57812667774216 -58.260777591799396 62.15234477712721 -58.26171875 60.7265625 C-58.267882080078124 58.78692626953125 -58.267882080078124 58.78692626953125 -58.274169921875 56.80810546875 C-58.03125 53.609375 -58.03125 53.609375 -56.03125 50.609375 C-55.97015743763744 48.68504781473938 -55.97015743763744 48.68504781473938 -56.34375 46.609375 C-56.500371093750005 45.41828125000001 -56.500371093750005 45.41828125000001 -56.66015625 44.203125 C-56.91360356810158 42.43166163979528 -57.17162114095919 40.66084767856703 -57.43359375 38.890625 C-58.60195841249022 29.543707700078237 -56.637169606291785 23.18494203552944 -51.03125 15.609375 C-50.12826171875 14.30419921875 -50.12826171875 14.30419921875 -49.20703125 12.97265625 C-36.13677987340112 -5.674235713947738 -20.345267377163708 -9.333653590554484 0 0 Z " fill="#BFA895" transform="translate(83.03125,19.390625)"/>
<path d="M0 0 C9.191194371003789 4.797601457392087 15.926728219288876 9.83972600583212 19.96875 19.609375 C21.09676692124667 24.322113201518285 21.708138782383088 29.05119517427893 22.28125 33.859375 C22.449472656249995 35.0930078125 22.617695312500004 36.326640625 22.791015625 37.59765625 C25.188094754047256 56.20681748856276 23.781354514960782 71.72987733789391 12.96875 87.609375 C10.728454889011203 90.25948019226723 8.403746020124373 92.79574285744386 6.0234375 95.3203125 C2.367271329818351 99.39353184548754 0.30600022346852995 103.26037410612588 -1.03125 108.609375 C-17.53125 108.609375 -34.03125 108.609375 -51.03125 108.609375 C-51.69125 105.969375 -52.35125 103.329375 -53.03125 100.609375 C-53.67793898710319 98.86453490272159 -54.36006138842849 97.13195529997465 -55.09375 95.421875 C-58.42578401821768 87.63874648197454 -58.21747123226002 80.06322145644123 -58.216552734375 71.72509765625 C-58.21874986735209 69.4845102713972 -58.236963582396264 67.24440737301441 -58.255859375 65.00390625 C-58.25879175987927 63.57812667774216 -58.260777591799396 62.15234477712721 -58.26171875 60.7265625 C-58.267882080078124 58.78692626953125 -58.267882080078124 58.78692626953125 -58.274169921875 56.80810546875 C-58.03125 53.609375 -58.03125 53.609375 -56.03125 50.609375 C-55.37125 50.609375 -54.71125 50.609375 -54.03125 50.609375 C-50.308864415937244 57.66796207294897 -46.982378913848834 64.43107527810527 -44.59375 72.046875 C-42.46554913264467 78.28446372636051 -39.81234108296873 82.30589438116073 -34.03125 85.609375 C-29.46471752379098 87.5347922992615 -25.948923865638506 87.76918115546988 -21.03125 87.359375 C-19.855625000000003 87.27171875 -18.680000000000007 87.1840625 -17.46875 87.09375 C-6.825667683540331 85.59404294631705 2.8409663543174304 79.07215673228089 9.5078125 70.73046875 C17.055559507570678 59.77210878981049 18.192448231806296 48.4558220127912 18.59375 35.421875 C18.632421875000006 34.37451171875 18.671093749999997 33.3271484375 18.7109375 32.248046875 C18.80394436761732 29.701983873975827 18.889782841066392 27.15590537325336 18.96875 24.609375 C18.347341308593755 24.6456298828125 17.725932617187496 24.681884765625 17.085693359375 24.71923828125 C16.272375488281256 24.7474365234375 15.459057617187497 24.775634765625 14.62109375 24.8046875 C13.41054321289063 24.85906982421875 13.41054321289063 24.85906982421875 12.175537109375 24.91455078125 C9.96875 24.609375 9.96875 24.609375 7.53125 21.484375 C6.980175781250011 20.533046874999997 6.980175781250011 20.533046874999997 6.41796875 19.5625 C3.0838329933941537 15.069055584089156 -2.813954154230416 12.348473615256527 -8.03125 10.609375 C-10.196240196269486 10.514517182122212 -12.364188225697731 10.47949423023806 -14.53125 10.484375 C-15.675937500000003 10.481796875 -16.820625000000007 10.479218750000001 -18 10.4765625 C-21.07804858944131 10.472530924538258 -21.07804858944131 10.472530924538258 -24.03125 11.609375 C-25.609249601460384 11.810665614647586 -27.192418612663815 11.972945667398097 -28.77734375 12.109375 C-29.69708984375 12.191875 -30.6168359375 12.274375 -31.564453125 12.359375 C-32.52287109375 12.441875 -33.4812890625 12.524375 -34.46875 12.609375 C-36.36353448512553 12.773137602360613 -38.25807957294715 12.93969983228638 -40.15234375 13.109375 C-41.41195922851563 13.217656249999997 -41.41195922851563 13.217656249999997 -42.697021484375 13.328125 C-44.88135777640669 13.59131456264204 -46.91316283470965 14.023644428581669 -49.03125 14.609375 C-46.64665326828296 7.870813091466282 -42.38834542674864 2.5486235843888636 -36.1640625 -1.046875 C-23.046130059530313 -7.031714203609512 -13.057316996268582 -5.990212436432495 0 0 Z " fill="#877F77" transform="translate(83.03125,19.390625)"/>
<path d="M0 0 C15.840000000000003 0 31.680000000000007 0 48 0 C48 42.24 48 84.48 48 128 C37.44 128 26.879999999999995 128 16 128 C16.90566076448134 122.56603541311193 17.757385980990776 120.14080342482663 20.4375 115.5625 C20.784418945312495 114.96558349609376 21.131337890625005 114.3686669921875 21.48876953125 113.753662109375 C24.637228527521557 108.41958197368376 28.081723538653833 103.28360705822847 31.673583984375 98.238525390625 C36.68079798968276 91.01963384181275 38.037607969444835 83.5185715923338 36.661590576171875 74.87400817871094 C36.19172918695193 72.7539720831431 35.662484914113676 70.66024609148268 35.1015625 68.5625 C34.90654144287109 67.79752197265626 34.71152038574219 67.0325439453125 34.510589599609375 66.244384765625 C33.892119242237555 63.82686525912869 33.25910228841893 61.41346107637922 32.625 59 C32.00135087695152 56.585780646335635 31.380739339147198 54.17079825050203 30.760833740234375 51.755615234375 C30.37637006681136 50.26219357069759 29.98922716365125 48.76945779488101 29.598785400390625 47.277587890625 C28.44959783081022 42.866744109547135 27.423554825189314 38.44637642524492 26.495697021484375 33.9833984375 C25.76134087591788 31.045069642778763 24.510485130591263 28.614301187561818 23 26 C22.443124999999995 25.030625 21.886250000000004 24.06125 21.3125 23.0625 C16.57273136285147 16.78550910215465 10.102978596473577 12.216030743308284 3.8828125 7.48046875 C2 6 2 6 0 4 C0 2.6799999999999997 0 1.3599999999999999 0 0 Z " fill="#28302A" transform="translate(80,0)"/>
<path d="M0 0 C13.530000000000001 0 27.060000000000002 0 41 0 C39.87542857142857 6.7474285714285775 39.87542857142857 6.7474285714285775 37.4375 9.75 C36.898671875 10.4267578125 36.35984375 11.103515625 35.8046875 11.80078125 C35.209140625 12.5265234375 34.61359375 13.252265625 34 14 C32.686903643119 15.64535758078813 31.37442719576707 17.29121003644016 30.0625 18.9375 C28.099650871500288 21.39480730590804 26.132645692619164 23.84214066332926 24.109375 26.25 C16.034760528550414 36.07996544350384 11.972471145223961 46.273063658388004 13 59 C13.9008200710504 62.39205350892082 15.262082832522587 65.16333479307914 17.60546875 67.8203125 C20.486172595832166 72.3229252338217 18.883031413414997 77.98152954487749 18 83 C15.54367788253066 92.0557111541037 11.328457668094629 100.0289174914366 5 107 C4.34 107 3.6799999999999997 107 3 107 C3 107.66 3 108.32 3 109 C2.01 109 1.02 109 0 109 C0 73.03 0 37.06 0 0 Z " fill="#4B3610" transform="translate(0,0)"/>
<path d="M0 0 C2.7425051346120313 1.8761810827439334 4.944291074249776 3.89403433774973 7.08984375 6.4296875 C8.017968749999994 7.357812500000001 8.017968749999994 7.357812500000001 8.96484375 8.3046875 C11.171223956530753 12.472294556780312 9.15859048149818 17.423518939737967 7.92578125 21.76953125 C4.6278893969779915 32.46095408895354 1.4970886259625473 40.18372468358041 -8.22265625 46.4296875 C-13.109738927507578 48.86078295757167 -17.549113544606485 49.631300520174406 -22.91015625 48.4296875 C-26.251463765152522 46.80093101534101 -29.04813702441873 44.78836592108232 -31.91015625 42.4296875 C-33.116718750000004 41.470625 -33.116718750000004 41.470625 -34.34765625 40.4921875 C-38.60110573967509 34.87763417362888 -38.77471415179999 27.19740957000421 -37.91015625 20.4296875 C-35.965117448572265 15.192106526876415 -33.36655331345456 10.423866636438902 -30.53515625 5.6171875 C-30.161328124999997 4.950097656250001 -29.7875 4.283007812500003 -29.40234375 3.595703125 C-27.72737401087332 0.7534171464477026 -26.374817420212928 -1.2952935309634057 -23.5078125 -2.9921875 C-15.097543296867727 -4.863946660997858 -7.501178874577576 -4.303755788655533 0 0 Z " fill="#E9BE92" transform="translate(82.91015625,32.5703125)"/>
<path d="M0 0 C0.6600000000000001 0 1.3200000000000003 0 2 0 C5.722385584062749 7.058587072948967 9.048871086151173 13.821700278105283 11.4375 21.4375 C13.565700867355325 27.675088726360514 16.218908917031285 31.696519381160726 22 35 C27.261023121036345 37.35706160327544 31.773709758149153 37.0716738629865 37.375 36.625 C38.206445312499994 36.56828125 39.037890625 36.5115625 39.89453125 36.453125 C41.93044876091692 36.31271689579884 43.96535842542876 36.15782335064807 46 36 C44.45742385448038 43.58433271547145 42.30590113563508 50.50582130918599 40 58 C28.450000000000003 58 16.9 58 5 58 C4.34 55.36 3.6799999999999997 52.72 3 50 C2.3533110128968104 48.25515990272157 1.6711886115715053 46.52258029997465 0.9375 44.8125 C-2.394534018217687 37.029371481974536 -2.186221232260017 29.453846456441227 -2.185302734375 21.11572265625 C-2.1874998673520842 18.875135271397184 -2.205713582396264 16.635032373014425 -2.224609375 14.39453125 C-2.2275417598792764 12.968751677742162 -2.2295275917993997 11.542969777127212 -2.23046875 10.1171875 C-2.236632080078124 8.17755126953125 -2.236632080078124 8.17755126953125 -2.242919921875 6.19873046875 C-2 3 -2 3 0 0 Z " fill="#8E8E84" transform="translate(27,70)"/>
<path d="M0 0 C15.840000000000003 0 31.680000000000007 0 48 0 C48 11.22 48 22.44 48 34 C32 36 32 36 27 35 C25.77734375 33.14453125 25.77734375 33.14453125 24.9375 30.8125 C20.640679893513806 20.061957994443627 12.865399817630674 14.319128432586414 3.8828125 7.48046875 C2 6 2 6 0 4 C0 2.6799999999999997 0 1.3599999999999999 0 0 Z " fill="#40250A" transform="translate(80,0)"/>
<path d="M0 0 C2.969999999999999 0 5.939999999999998 0 9 0 C9.059061187553553 3.6040953912488334 9.093946389725673 7.208063093158437 9.125 10.8125 C9.141757812500003 11.817324218750002 9.158515625000007 12.822148437500005 9.17578125 13.857421875 C9.262828625723714 27.393288800037965 6.962407856910573 40.043405385663945 -2.625 50.25 C-10.156895858695762 57.11943465506286 -17.513835936109032 63 -28 63 C-29.448341135661657 53.62492697321713 -28.719010100344008 46.365517905155286 -24 38 C-23.340000000000003 38 -22.680000000000007 38 -22 38 C-22 37.34 -22 36.68000000000001 -22 36 C-19.892474589173816 34.47560253508868 -17.68324824552174 33.17197738203966 -15.45703125 31.828125 C-8.213891994420251 26.43895302605513 -6.290753971650162 20.012713935221967 -3.6875 11.625 C-3.3284960937500045 10.507382812499998 -2.969492187499995 9.389765624999995 -2.599609375 8.23828125 C-1.7206338882415508 5.495877731313648 -0.8545831792973928 2.7500824338627297 0 0 Z " fill="#B8A092" transform="translate(93,44)"/>
<path d="M0 0 C2.375 0.625 2.375 0.625 5 2 C6.745913048717981 6.093053056678357 7.221270782077454 9.502775338322081 7.08984375 13.921875 C7.069863281250001 15.030468749999997 7.049882812500002 16.139062499999994 7.029296875 17.28125 C6.968509327245002 19.578243293891006 6.903463588174606 21.87512817958661 6.833984375 24.171875 C6.6878186455883295 32.88133639390911 8.071750897607643 39.855650096964766 11.6875 47.75 C13 51 13 51 13 57 C2.4399999999999977 57 -8.120000000000001 57 -19 57 C-19 50.72999999999999 -19 44.46000000000001 -19 38 C-18.01 38 -17.02 38 -16 38 C-16 37.34 -16 36.68000000000001 -16 36 C-15.29875 35.34 -14.5975 34.68000000000001 -13.875 34 C-4.407707540788495 24.855456147352527 -1.7978866467782026 12.50060009701079 0 0 Z " fill="#505B54" transform="translate(19,71)"/>
<path d="M0 0 C1.4370778688773385 5.405858876968367 2.860276181903501 10.81512483594851 4.2724609375 16.2275390625 C4.987829576455738 18.95362170141992 5.716344517306851 21.6759652381052 6.4453125 24.3984375 C6.901671122977945 26.140460222509844 7.357419094894496 27.882643053701315 7.8125 29.625 C8.031237792968753 30.428408203125002 8.249975585937506 31.231816406250005 8.475341796875 32.0595703125 C10.984134359285761 41.795906518491705 10.837797553264778 50.32901780063965 5.72412109375 59.2177734375 C4.262637737645477 61.47656552318867 2.741240185666328 63.6787536694832 1.1875 65.875 C-6.875977573305917 77.21417148170164 -6.875977573305917 77.21417148170164 -12 90 C-16.620000000000005 90 -21.239999999999995 90 -26 90 C-25.616520936550458 84.31753751433851 -24.517019221545326 81.867540654649 -20.4375 77.9375 C-10.143285542564044 67.15798686099922 -1.969994867238242 52.05191758790154 -1.5 36.875 C-1.7747156215716302 29.98135487118708 -2.8547751870783458 23.141868189388177 -3.931640625 16.33349609375 C-5.325277050179295 7.504380020961229 -5.325277050179295 7.504380020961229 -5 3 C-3.365089160466894 0.7705761279093934 -2.7980892479458817 0 0 0 Z " fill="#605A53" transform="translate(108,38)"/>
<path d="M0 0 C8.96513945205865 4.679605757942706 16.277753871446535 9.829085719270783 19.96875 19.609375 C20.09765625 22.386718750000014 20.09765625 22.386718750000014 19.96875 24.609375 C16.547217424457813 25.027931412153706 13.3759237799961 25.206290716495438 9.96875 24.609375 C8.341634990120156 23.071416976962894 7.481615675664656 21.507144469161915 6.3828125 19.5625 C3.1143248089019835 15.0480142388149 -2.8407772083083955 12.339532597230534 -8.03125 10.609375 C-10.196240196269486 10.514517182122212 -12.364188225697731 10.47949423023806 -14.53125 10.484375 C-15.675937500000003 10.481796875 -16.820625000000007 10.479218750000001 -18 10.4765625 C-21.078048589441302 10.472530924538258 -21.078048589441302 10.472530924538258 -24.03125 11.609375 C-25.60924960146039 11.810665614647586 -27.192418612663815 11.972945667398097 -28.77734375 12.109375 C-29.69708984375 12.191875 -30.6168359375 12.274375 -31.564453125 12.359375 C-32.52287109375 12.441875 -33.4812890625 12.524375 -34.46875 12.609375 C-36.36353448512553 12.773137602360613 -38.25807957294715 12.93969983228638 -40.15234375 13.109375 C-41.41195922851563 13.217656249999997 -41.41195922851563 13.217656249999997 -42.697021484375 13.328125 C-44.881357776406695 13.59131456264204 -46.91316283470965 14.023644428581669 -49.03125 14.609375 C-46.64665326828296 7.870813091466282 -42.38834542674864 2.5486235843888636 -36.1640625 -1.046875 C-23.046130059530313 -7.031714203609514 -13.057316996268582 -5.990212436432497 0 0 Z " fill="#A88654" transform="translate(83.03125,19.390625)"/>
<path d="M0 0 C0 18.480000000000004 0 36.96000000000001 0 56 C-3.960000000000008 56.99000000000001 -7.920000000000002 57.97999999999999 -12 59 C-11.835000000000008 58.030625 -11.670000000000002 57.06125 -11.5 56.0625 C-10.448206337986193 48.50965410934725 -10.979723024175513 41.73370537160088 -12.93359375 34.38671875 C-13.130986480712892 33.60988235473633 -13.328379211425784 32.833045959472656 -13.531753540039063 32.03266906738281 C-14.156983095325614 29.58157736852479 -14.79690522187498 27.134615548122248 -15.4375 24.6875 C-15.863618286919362 23.0282482300519 -16.2887569316635 21.368744550657837 -16.712890625 19.708984375 C-17.489325540622488 16.676377849308707 -18.27115264621068 13.645289147390201 -19.060302734375 10.615966796875 C-19.71934666314216 8.079957540192652 -20.37239556482149 5.543884468330553 -21 3 C-13.862337153026559 0.8150011692938435 -7.546043468216936 0 0 0 Z " fill="#3C3530" transform="translate(128,34)"/>
<path d="M0 0 C-1.7345282457257696 4.858495347975335 -4.378249248548514 8.954147066336198 -7.166015625 13.271484375 C-12.179422924809046 21.19470663255403 -11.957934706826705 29.944551980926505 -10 39 C-14.471617526507892 38.34561694734032 -18.689549843058195 37.36119478640268 -23 36 C-24.887187499999996 35.4740625 -24.887187499999996 35.4740625 -26.8125 34.9375 C-30.23669361883149 32.85612740816125 -30.547243545428195 32.56948433689118 -31.5 28.9375 C-32.691820473501906 20.67510413313847 -31.612508421648712 14.146662903244291 -27.44921875 6.91015625 C-24.2328021559682 2.670728448162933 -20.76991070052651 1.3603205598055297 -15.7265625 0.33984375 C-10.500583867347352 -0.3115318102303455 -5.25525111999913 -0.14620482250384015 0 0 Z " fill="#C0AA80" transform="translate(57,31)"/>
<path d="M0 0 C0 3.674043055047271 -0.8275006723668099 4.350098214676798 -3.125 7.125 C-13.383719445816663 19.834035399116615 -13.383719445816663 19.834035399116615 -15.75 35.5 C-15.420262394820774 38.20233232750332 -15.02139291917505 40.875996795932224 -14.55859375 43.55859375 C-14.215443142368091 45.758369750503505 -13.907674265920079 47.77494980867387 -14 50 C-15.9375 52.5625 -15.9375 52.5625 -18 54 C-23.230111347079294 50.58031181152508 -27.62684021230342 47.40517032563065 -29.58203125 41.1328125 C-31.927242125430755 29.165661677708478 -27.726107113977644 19.39334834027474 -21.66015625 9.2890625 C-18.55828283674871 5.012126452552337 -16.505315234715287 2.369699181997433 -11.23046875 1.07421875 C-9.885102539118385 0.9232752239010864 -8.537057170295384 0.7946897082626947 -7.1875 0.6875 C-6.148193359375 0.578251953125001 -6.148193359375 0.578251953125001 -5.087890625 0.466796875 C-3.393844534027636 0.2915507276580307 -1.6970703104942473 0.1430235356014009 0 0 Z " fill="#7F6A45" transform="translate(42,20)"/>
<path d="M0 0 C2.7620598011767434 2.101567240025787 3.7189211202233032 2.909678140889554 5 6 C6.232600803214531 19.15982622255514 0.41888090366011 30.798020050734735 -7.23046875 41.05078125 C-7.8144140625 41.69402343749999 -8.398359375 42.337265625 -9 43 C-9.66 43 -10.32 43 -11 43 C-11 43.66 -11 44.31999999999999 -11 45 C-11.99 45 -12.98 45 -14 45 C-14 30.810000000000002 -14 16.620000000000005 -14 2 C-2.4999999999999982 -0.5555555555555571 -2.4999999999999982 -0.5555555555555571 0 0 Z " fill="#363829" transform="translate(14,64)"/>
</svg>
