<?xml version="1.0" encoding="UTF-8"?>
<!-- Generator: visioncortex VTracer 0.6.0 -->
<svg version="1.1" xmlns="http://www.w3.org/2000/svg" width="128" height="128">
<path d="M0 0 C42.24 0 84.48 0 128 0 C128 42.24 128 84.48 128 128 C85.75999999999999 128 43.519999999999996 128 0 128 C0 85.75999999999999 0 43.519999999999996 0 0 Z " fill="#706069" transform="translate(0,0)"/>
<path d="M0 0 C16.83 0 33.66 0 51 0 C51.495000000000005 1.98 51.495000000000005 1.98 52 4 C54.286145618893485 5.065168190507035 54.286145618893485 5.065168190507035 57 6 C64.47321724834279 10.982144832228524 70.38485624215579 16.230145816717794 73 25 C73.57070283142018 28.61179064640041 73.99686656189637 32.22219073683022 74.40625 35.85546875 C75.24045122062493 40.273442319757024 76.83078846130982 41.91001874977707 80 45 C83.72659162434476 51.74335627262384 81.96844410024632 59.60596529932046 80.3125 66.75 C80.16361328125 67.4912109375 80.0147265625 68.232421875 79.861328125 68.99609375 C79.03932856876249 72.58710357607293 78.37275919600687 74.59985168744065 75.8203125 77.33984375 C72.52772852116514 79.27799913920335 69.15221303398177 80.56249075965924 65.5625 81.8125 C59.57542030597358 84.09449318702391 54.90459865548702 86.0418489118215 52 92 C50.412356274873176 96.27648141448302 49.18795184257377 100.59917840137447 48 105 C47.10546875 108.28515625 47.10546875 108.28515625 46 111 C39.8854964192148 114.33518377133738 33.878763165333325 114.75485654519113 27 114 C22.04799647655983 112.28195796125546 17.966878801161577 108.93885012186347 13.73046875 105.89453125 C10.926786103082463 103.94920065807581 8.047836581420313 102.19744565850542 5.125 100.4375 C0.9236512405038866 97.74554669299613 -2.074761204265485 95.76725797039023 -4 91 C-5.03451294159407 83.9697615151887 -3.8950636030678325 78.57270599553779 -0.6796875 72.2890625 C0.2503969733251594 69.15670904385894 -0.5167725419746816 67.86431649828242 -2 65 C-2.9701989687603714 63.33642513780491 -3.9712407111960886 61.69051157453219 -5 60.0625 C-9.601210694431824 52.42000126119982 -11.111209983126205 45.94580158132914 -10 37 C-8.961739239269143 34.33195939971553 -7.686147958266261 31.876105271295046 -6.375 29.33203125 C-2.602250320422609 20.18954410034229 -1.618269765709904 9.709618594259425 0 0 Z " fill="#546046" transform="translate(33,0)"/>
<path d="M0 0 C14.52000000000001 0 29.040000000000006 0 44 0 C44 42.24 44 84.48 44 128 C29.150000000000006 128 14.299999999999997 128 -1 128 C-2.598230062063834 123.20530981380848 -0.6505607528992812 119.01829285888368 1.140625 114.45703125 C4.135861669764282 108.88815634928278 8.577173189760884 106.87090831130305 14 104 C19.849990851016287 99.02128438211379 23.19865468403802 93.53101492226497 23.96484375 85.94140625 C24.017695312499995 85.2594921875 24.070546875000005 84.577578125 24.125 83.875 C24.530710641926532 79.2568043950915 25.1347779545205 75.28026700735033 27 71 C30.887096569547424 57.155689393852256 30.887096569547424 57.155689393852256 27.16796875 43.76171875 C26.09476264347589 41.94302503937879 26.09476264347589 41.94302503937879 24.4453125 40.77734375 C22.11448753890639 37.91105900054704 22.140574113218747 34.432357624193 21.6875 30.875 C20.46245048369653 23.117979955199242 19.01991579059343 16.83819398725756 12.46923828125 11.82958984375 C10.156218495031851 10.178937807299983 7.827316254554248 8.581179099319915 5.40673828125 7.091796875 C1.7768307661053768 4.8205934545133555 1.0937244138522715 4.374897655409108 0 0 Z " fill="#747684" transform="translate(84,0)"/>
<path d="M0 0 C4.217793033394656 1.5063546547838058 5.7747673973348554 4.240124223083022 8 8 C10.188629466957607 14.565888400872822 8.836206666347337 21.176460895375087 7.3125 27.75 C7.163613281249994 28.4912109375 7.014726562500002 29.232421875 6.861328125 29.99609375 C6.039328568762485 33.587103576072906 5.372759196006882 35.59985168744065 2.8203125 38.33984375 C-0.4722714788348412 40.27799913920333 -3.8477869660182478 41.562490759659255 -7.4375 42.8125 C-13.42457969402642 45.094493187023915 -18.095401344512965 47.04184891182149 -21 53 C-22.58764372512681 57.27648141448299 -23.812048157426233 61.59917840137447 -25 66 C-25.89453125 69.28515624999999 -25.89453125 69.28515624999999 -27 72 C-33.114503580785225 75.3351837713374 -39.12123683466666 75.75485654519115 -46 75 C-50.95200352344015 73.28195796125546 -55.033121198838444 69.93885012186344 -59.26953125 66.89453125 C-62.07321389691756 64.9492006580758 -64.95216341857967 63.19744565850543 -67.875 61.4375 C-72.07634875949611 58.74554669299613 -75.07476120426549 56.76725797039023 -77 52 C-78.38615876928932 43.65586780055247 -76.26851702133285 36.21232186363139 -72 29 C-69.13094302309398 26.531276554755294 -67.58889486063019 25.995144843680734 -63.8427734375 26.006591796875 C-56.2655945403184 26.60949560384114 -50.25191546525383 29.129624556673008 -43.412109375 32.29296875 C-37.67873727088556 34.78263539131973 -33.12544753634964 35.729058192893774 -27 34 C-23.70889366548549 31.899293829033297 -22.16661469914864 30.24992204872295 -20 27 C-20.08682860751344 25.058960483650992 -20.240555531878414 23.120473483415495 -20.4375 21.1875 C-20.551913508056202 15.601428724315063 -20.551913508056202 15.601428724315063 -18.21484375 13.0546875 C-15.867467334181299 11.557696196422803 -13.47265023630078 10.276860367925813 -11 9 C-9.887730493723822 8.162090305271946 -8.799712105681323 7.290063170659373 -7.75 6.375 C-5.21364547483968 4.1845120009979055 -2.624054638193215 2.083808095035785 0 0 Z " fill="#45504D" transform="translate(106,39)"/>
<path d="M0 0 C2.6400000000000006 0 5.280000000000001 0 8 0 C8.061875 0.61875 8.123750000000001 1.2375 8.1875 1.875 C8.455624999999998 2.57625 8.723749999999995 3.2775 9 4 C9.728320312500003 4.291328125 10.456640625000006 4.58265625 11.20703125 4.8828125 C18.095939944434036 7.638375977773613 24.475145997326777 13.230886925095614 28.125 19.6875 C30.738348235124192 25.83995820667615 31.66964515813818 32.354407544552714 31 39 C28.75 41.81250000000001 28.75 41.81250000000001 27.078125 42.78515625 C24.245375751094002 44.44114312295069 21.96627531779893 46.590324482637826 19.5 48.75 C15.697072234067065 52.05024191181537 13.117938382946463 53.87485092757274 8 54 C1.0163889962124983 51.69010549810375 -5.04604014950371 48.27179838354583 -9 42 C-12.021665457181463 35.02692586804278 -9.42735656540762 26.94660488649471 -7.25 20.125 C-6.978491210937506 19.247470703125 -6.706982421874997 18.36994140625 -6.42724609375 17.4658203125 C-4.5635460010522735 11.529753665977271 -2.5429914272653633 5.684333778593155 0 0 Z " fill="#7C6C53" transform="translate(76,0)"/>
<path d="M0 0 C0.6419531250000006 0.5555859374999983 1.2839062500000011 1.1111718749999966 1.9453125 1.68359375 C2.526679687500007 2.115429687499997 3.1080468749999994 2.5472656249999943 3.70703125 2.9921875 C6.221277042609131 6.426472762459795 4.906808192140204 10.932160628009171 4.5234375 14.94921875 C3.7269867869593867 20.093859842343434 2.588302024327618 25.152754565438357 -0.0546875 29.68359375 C-2.851498229208829 31.580216410495865 -3.901288552445635 31.692276709295527 -7.3671875 31.49609375 C-14.054178989284878 30.0226888455813 -19.502077475366086 27.002159831959645 -25.1796875 23.30859375 C-25.773945312500004 22.934765624999997 -26.368203125 22.560937499999994 -26.98046875 22.17578125 C-31.868023056636822 19.025304743293702 -35.79891587887175 15.56725118169237 -39.0546875 10.68359375 C-39.894550135047375 4.638535946577619 -39.63702131200651 -1.3720580653152155 -36.50390625 -6.71484375 C-26.556637944026804 -17.707781770078192 -8.85291436769404 -7.123581632786056 0 0 Z " fill="#1F252E" transform="translate(68.0546875,80.31640625)"/>
<path d="M0 0 C10.89 0 21.78 0 33 0 C30.62899262899262 28.45208845208846 30.62899262899262 28.45208845208846 24 37 C16.798922857822255 40.30285624828231 7.426531337264153 39 0 39 C0 26.13 0 13.259999999999998 0 0 Z " fill="#939A94" transform="translate(0,0)"/>
<path d="M0 0 C5.283577612884426 2.1134310451537743 6.182149354647467 3.059136927251245 9.3125 7.5 C10.104645710262139 8.591743487175691 10.897627967629795 9.682880437524744 11.69140625 10.7734375 C13.095886305254604 12.73638255184484 14.499709298017137 14.699798236648235 15.90234375 16.6640625 C20.128261327222514 22.292663078541608 24.720429375987102 26.3103306646115 30.3359375 30.4482421875 C35.839960469187766 34.52757996596051 40.288564416785384 38.154257667141536 42 45 C28.14 45 14.279999999999998 45 0 45 C0 30.150000000000006 0 15.299999999999997 0 0 Z " fill="#B6B1E0" transform="translate(0,83)"/>
<path d="M0 0 C10.0711236211027 3.4086879948347573 14.960325521401629 12.320123830931976 20 21 C20.409921875 21.693515625000003 20.81984375 22.387031250000007 21.2421875 23.1015625 C22.255817725575948 25.640862962009848 22.38330343093038 28.029187193902004 22.625 30.75 C24.358031400073997 42.799983953639526 30.956726431230734 53.29906737392946 38.3359375 62.765625 C41.21463379454433 66.63091673821445 42.26930945476396 69.15242981424863 42 74 C41.34 74 40.68 74 40 74 C38.95703124999996 72.46093749999993 38.95703124999996 72.46093749999993 37.8125 70.375 C34.687325577595274 65.19067275117118 30.733167841360135 61.97228595145768 25.8671875 58.4609375 C16.611337759993955 51.65611417198161 10.262463080039513 42.62250894504726 3.82421875 33.21484375 C1.9538772379760099 30.638536971523138 1.9538772379760099 30.638536971523138 -2 29 C-2 19.75999999999999 -2 10.519999999999996 -2 1 C-1.3399999999999999 0.6700000000000017 -0.6799999999999999 0.3400000000000034 0 0 Z " fill="#8D7EA1" transform="translate(2,54)"/>
<path d="M0 0 C14.189999999999998 0 28.380000000000003 0 43 0 C41.300497956132574 10.197012263204604 37.44099305216798 15.872947128156053 29 22 C28.340000000000003 22 27.68 22 27 22 C27 22.66 27 23.32 27 24 C25.019999999999996 24.66 23.04 25.32 21 26 C21 26.66 21 27.32 21 28 C16.63430765857072 28.805227698530288 13.103150492661399 29.34608642907024 8.8125 28 C4.2362938934602 24.745808990905033 1.0955889790789328 20.643383468618403 -2 16 C-1.3399999999999999 10.719999999999999 -0.6799999999999997 5.4399999999999995 0 0 Z " fill="#3C5445" transform="translate(33,0)"/>
<path d="M0 0 C2.4912976709012185 1.5045336837822063 4.881768190446422 3.108188359677918 7.28125 4.75390625 C9.25515870598582 5.82950919757311 11.249218764813463 6.79136513859585 13.28125 7.75390625 C14.141401263194865 18.496239803678037 14.141401263194865 18.496239803678037 11.15625 22.25390625 C7.5252548611376255 25.411293327271622 4.54502596485861 27.47950916335047 -0.296875 28.06640625 C-5.130318447153712 27.624995889529345 -9.102912156468165 25.79046657379493 -13.53125 23.87890625 C-19.89969684982993 21.15026058989119 -25.901983970175237 19.063497297185748 -32.71875 17.75390625 C-30.743595486856137 15.067552435497802 -28.74526644534165 12.40182590741437 -26.71875 9.75390625 C-26.2276171875 9.1106640625 -25.736484375000003 8.467421875 -25.23046875 7.8046875 C-18.74857214854992 -0.24963684843258704 -10.240412853171811 -4.693522557703744 0 0 Z " fill="#4A6867" transform="translate(73.71875,47.24609375)"/>
<path d="M0 0 C0 14.519999999999996 0 29.040000000000006 0 44 C-14.189999999999998 44 -28.379999999999995 44 -43 44 C-41.7050930630071 38.82037225202838 -39.433260580557416 36.56647676859919 -34.9521484375 33.681640625 C-32.61661617748621 32.322676000995415 -30.25642976220142 31.026721573957104 -27.875 29.75 C-27.0641796875 29.303984375 -26.253359375000002 28.857968749999998 -25.41796875 28.3984375 C-22.28960786157515 26.692058833586458 -19.388273732440666 25.129424577480222 -16 24 C-14.924087623625951 22.1880871779765 -14.924087623625951 22.1880871779765 -14 20 C-13.07529245476421 18.429895399731606 -12.1367598840324 16.867883609456783 -11.1875 15.3125 C-8.679903957854933 11.180177915878303 -6.332275445097309 6.990215760867898 -4.078125 2.71484375 C-2.9859160730320298 0.977598391525575 -2.18826234833881 0 0 0 Z " fill="#D8BEC0" transform="translate(128,84)"/>
<path d="M0 0 C0.10806144117646 2.91765891176415 0.18732876913250607 5.831311248170891 0.25 8.75 C0.3002734374999818 9.987499999999997 0.3002734374999818 9.987499999999997 0.3515625 11.25 C0.45171319796955345 17.459343274111674 0.45171319796955345 17.459343274111674 -1.765625 20.11328125 C-2.502968750000008 20.735898437499998 -3.2403125000000017 21.358515624999995 -4 22 C-5.498927714837123 24.392657954819427 -6.736963865443528 26.91389459833738 -8 29.4375 C-11.185765189263321 35.76547499507967 -14.073674875004173 41.24772699452177 -20.4375 44.875 C-21.3050390625 45.379023437499995 -22.172578125 45.88304687499999 -23.06640625 46.40234375 C-25.156181715555533 47.54045049488977 -27.271532999115166 48.632116864083656 -29.40234375 49.69140625 C-38.11449857186068 53.9987148798718 -38.11449857186068 53.9987148798718 -43 62 C-43.66 62 -44.31999999999999 62 -45 62 C-46.598230062063834 57.20530981380848 -44.65056075289927 53.018292858883655 -42.859375 48.45703125 C-39.864138330235704 42.88815634928278 -35.422826810239116 40.870908311303054 -30 38 C-24.814557609405426 33.58685753991951 -21.344645653574617 28.847564088550996 -20.5234375 22.0625 C-20.4718688095014 20.708411295665826 -20.422426633833027 19.35424010553831 -20.375 18 C-20.048517507822282 13.888860952246375 -19.651400110560644 10.785874754596833 -16.9375 7.51171875 C-14.360392038135828 5.677100734465597 -11.88772067017382 4.286233660950785 -9 3 C-8.207226562499997 2.646796875000007 -7.414453124999994 2.2935937499999994 -6.59765625 1.9296875 C-1.7908220720720749 0 -1.7908220720720749 0 0 0 Z " fill="#B49086" transform="translate(128,66)"/>
<path d="M0 0 C0.02578125000000142 0.750234374999998 0.05156249999999929 1.5004687500000031 0.078125 2.2734375 C0.6659674624423388 12.881321935891314 3.41936737191061 20.497633920649776 9.92578125 28.89453125 C11 31 11 31 10.9140625 33.5546875 C9.80475163248365 36.522331102842884 8.63839270873666 37.509840907267474 6.0625 39.3125 C5.3522265625 39.82425781250001 4.641953125000001 40.336015625 3.91015625 40.86328125 C2.0000000000000036 42 2.0000000000000036 42 0 42 C-1.4018299890585268 39.94041114134076 -2.6844073215907365 37.89750194795275 -3.9375 35.75 C-6.668581943854747 31.11070172093187 -6.668581943854747 31.11070172093187 -9.75390625 26.703125 C-11 25 -11 25 -11 23 C-11.53625 22.731875000000002 -12.0725 22.463750000000005 -12.625 22.1875 C-14.46674207990394 21.26662896004803 -16.29810505173173 20.324985373099494 -18.125 19.375 C-20.769563541212634 17.856181500898664 -20.769563541212634 17.856181500898664 -23 18 C-23 12.719999999999999 -23 7.439999999999998 -23 2 C-21.8076171875 1.9394140624999991 -20.615234375 1.8788281249999983 -19.38671875 1.81640625 C-17.82030075355543 1.7319885136646604 -16.25389512163853 1.6473411262326465 -14.6875 1.5625 C-13.90181640625 1.523183593749998 -13.1161328125 1.4838671875000031 -12.306640625 1.443359375 C-11.54931640625 1.4014648437499986 -10.7919921875 1.3595703124999972 -10.01171875 1.31640625 C-9.31522216796875 1.2797485351562514 -8.6187255859375 1.2430908203125028 -7.901123046875 1.205322265625 C-5.082728352388866 0.9009341908769812 -2.897502078415229 0 0 0 Z " fill="#7D6E71" transform="translate(23,37)"/>
<path d="M0 0 C-2.692928832855216 3.429197764684531 -6.354376081252198 4.356591035497047 -10.3125 5.75 C-16.336645443542906 8.055643126058513 -21.07498271738649 9.999964548485096 -24 16 C-25.58764372512681 20.276481414482973 -26.812048157426233 24.599178401374473 -28 29 C-28.89453125 32.28515625 -28.89453125 32.28515625 -30 35 C-36.091657170287675 38.32272209288419 -42.14305737194712 38.7944018898354 -49 38 C-54.5531914893617 35.89361702127661 -54.5531914893617 35.89361702127661 -56 33 C-54.7934375 33.5259375 -54.7934375 33.5259375 -53.5625 34.0625 C-49.09653892192456 35.23775291528301 -45.501624447436086 34.74026713135615 -41 34 C-38.79545940651363 26.873540788463856 -38.79545940651363 26.873540788463856 -37.84765625 19.50390625 C-37.45094936577527 10.66992124275177 -37.45094936577527 10.66992124275177 -34.64111328125 7.43603515625 C-24.167647204930432 -1.8481699198904664 -13.194359500748021 -5.6547255003205805 0 0 Z " fill="#4B3C2E" transform="translate(109,76)"/>
<path d="M0 0 C0.33515479699865125 9.216756917462988 -0.6919075536972059 17.832375326602815 -7 25 C-18.36179605221669 34.35460679825944 -18.36179605221669 34.35460679825944 -25.25 34.125 C-26.487499999999997 34.08375000000001 -27.724999999999994 34.04249999999999 -29 34 C-30.573520903741397 30.85295819251722 -29.212583920679663 28.556266510160555 -28.25 25.25 C-27.904531250000005 24.038281249999997 -27.559062499999996 22.826562499999994 -27.203125 21.578125 C-24.855933690551097 14.597517079690903 -22.26309628003257 9.901928992352566 -16 6 C-3.425605536332185 0 -3.425605536332185 0 0 0 Z " fill="#7C4E39" transform="translate(109,77)"/>
<path d="M0 0 C0 0.990000000000002 0 1.9799999999999969 0 3 C-1.8125 4.75 -1.8125 4.75 -4 6 C-4.989999999999995 5.670000000000002 -5.980000000000004 5.340000000000003 -7 5 C-2.25 0 -2.25 0 0 0 Z " fill="#4B3C2E" transform="translate(101,44)"/>
</svg>
