<?xml version="1.0" encoding="UTF-8"?>
<!-- Generator: visioncortex VTracer 0.6.0 -->
<svg version="1.1" xmlns="http://www.w3.org/2000/svg" width="128" height="128">
<path d="M0 0 C42.24 0 84.48 0 128 0 C128 42.24 128 84.48 128 128 C85.75999999999999 128 43.519999999999996 128 0 128 C0 85.75999999999999 0 43.519999999999996 0 0 Z " fill="#709AB9" transform="translate(0,0)"/>
<path d="M0 0 C20.790000000000006 0 41.58000000000001 0 63 0 C63 42.24 63 84.48 63 128 C20.75999999999999 128 -21.480000000000004 128 -65 128 C-65 102.59 -65 77.18 -65 51 C-57.70807453416149 51 -57.70807453416149 51 -55 53 C-54.234375 54.8203125 -54.234375 54.8203125 -53.75 57.125 C-51.858067612046014 64.2223031202166 -48.496013580847034 70.48070897094003 -45.076171875 76.94091796875 C-44.022364125745725 78.95720983744569 -43.01719885183465 80.99252534558472 -42.015625 83.03515625 C-38.94886543563681 89.52297884120102 -38.94886543563681 89.52297884120102 -33.84765625 94.2890625 C-31.63179503276625 94.9685121801609 -31.63179503276625 94.9685121801609 -29.3515625 95.40234375 C-20.907852421819143 97.54833651073368 -15.11449444482767 104.80497641183271 -10.10546875 111.44921875 C-7.92470930169975 114.09121489051961 -5.828409359370106 116.06949837376327 -3 118 C6.100433671841486 118.47897019325481 14.079949434966096 112.47948581865019 21 107.0625 C25.44577361083884 103.01793034916369 27.726307569868496 97.79443893671016 29 92 C29.118910991657046 89.2311755760825 29.187897303562437 86.48817001466902 29.203125 83.71875 C29.20882507324218 82.90942016601562 29.214525146484377 82.10009033203124 29.22039794921875 81.2662353515625 C29.229834821063605 79.55152689101855 29.236376714507614 77.83680040136726 29.240234375 76.1220703125 C29.2498630452412 73.53677235273659 29.280865779781337 70.95229643349428 29.3125 68.3671875 C29.399194422487483 55.04407229052792 28.51384934116328 43.8201325804151 20 33 C19.563007812500004 32.435390625 19.126015624999994 31.87078125 18.67578125 31.2890625 C16.723796161564337 28.86293592320615 14.638921673661272 26.638921673661272 12.4375 24.4375 C5.2548929722820645 17.254892972282057 1.4377460740412573 10.064222518288776 0 0 Z " fill="#4D7587" transform="translate(65,0)"/>
<path d="M0 0 C11.549999999999997 0 23.099999999999994 0 35 0 C35 42.24 35 84.48 35 128 C21.14 128 7.280000000000001 128 -7 128 C-4.385944830951644 122.77188966190327 -3.1106239012798653 120.7951932695895 1.0625 117.1875 C1.9403515624999983 116.4179296875 2.8182031249999966 115.648359375 3.72265625 114.85546875 C6 113 6 113 8 112 C14.512072890337606 98.32153110594157 12.853672639653084 79.56045684542241 9.390625 65.23828125 C8.937889278557762 62.644105566135984 9.055124605174214 60.31662242501214 9.1875 57.6875 C9.296972765422154 51.66649790178154 8.164624217411884 46.14554246825444 6.8125 40.3125 C6.517989501953124 38.99415161132812 6.517989501953124 38.99415161132812 6.217529296875 37.649169921875 C4.892371732243433 32.230940202177045 3.002642933265477 27.707630280704915 0.141357421875 22.91748046875 C-4.896162342502663 14.454447264595514 -2.299716266656958 10.73200924439917 0 0 Z " fill="#3D504A" transform="translate(93,0)"/>
<path d="M0 0 C21.45 0 42.9 0 65 0 C66.32 3.96 67.64 7.92 69 12 C70.61741464349001 15.0877915921173 72.1824547519393 18.05021344986871 74 21 C67.33666637609217 27.15076949899185 60.14820610507096 30.70005881622718 51 31 C48.995685511834836 30.346419188641793 46.99597220013312 29.67863054804526 45 29 C40.47849057701167 28.687682237658578 36.320444866995146 28.559851711001617 32 30 C26.471310078646844 37.34345073523244 22.729562005899233 45.66145578362293 24 55 C26.26074231551031 64.5588433474597 32.01467710135245 75.01467710135245 39 82 C38.7578125 85.03906250000001 38.7578125 85.03906250000001 38.125 88.625 C37.921328125 89.813515625 37.71765625 91.00203125 37.5078125 92.2265625 C37.340234375 93.141796875 37.17265625 94.05703125 37 95 C33.11157387579461 95.45214257258202 31.511885583244943 95.39661653338831 28.36328125 92.95703125 C25.778639657097077 89.72302515772311 23.930920566592743 86.41369672875588 22.1875 82.6875 C21.504584518385563 81.26790267739014 20.820969037724463 79.84864192391176 20.13671875 78.4296875 C19.61537353515625 77.3386572265625 19.61537353515625 77.3386572265625 19.08349609375 76.2255859375 C17.993676128691416 73.98701027245401 16.859401473110715 71.77727015257605 15.70703125 69.5703125 C15.33747314453125 68.85657470703126 14.9679150390625 68.1428369140625 14.587158203125 67.407470703125 C13.877747372570282 66.04042504020336 13.161724400979496 64.67678455488743 12.438232421875 63.317138671875 C10.433818666493819 59.40673994033685 10 57.572024438740904 10 53 C6.699999999999999 52.34 3.3999999999999995 51.68 0 51 C0 34.17 0 17.339999999999996 0 0 Z " fill="#7799A8" transform="translate(0,0)"/>
<path d="M0 0 C2.3934117032551256 1.4331222826008343 4.217954712932531 2.931027886433739 5.91796875 5.1484375 C5.91796875 5.808437499999997 5.91796875 6.4684375 5.91796875 7.1484375 C6.577968749999997 7.1484375 7.23796875 7.1484375 7.91796875 7.1484375 C12.855674146089342 12.086142896089342 15.740636463090112 18.779124048712113 16.10546875 25.7109375 C13.278993552052754 33.892839388794656 7.934298026268266 38.62645290689751 0.48046875 42.66015625 C-3.0357700303154758 44.70236200503078 -6.011582459749533 47.26433901253142 -9.07421875 49.92578125 C-11.082031250000007 51.1484375 -11.082031250000007 51.1484375 -13.12890625 51.109375 C-20.508636284485817 47.47854782303298 -24.95665915569613 35.30113470911155 -28.08203125 28.1484375 C-30.60053528789761 19.829742344520014 -28.62119570390017 12.831849362821984 -25.08203125 5.1484375 C-19.292813954951896 -4.956055263442856 -9.8447504243277 -4.913663043646746 0 0 Z " fill="#7FBAE2" transform="translate(52.08203125,30.8515625)"/>
<path d="M0 0 C7.4484089373913775 3.511656819117519 9.806568969636828 7.645984541506522 13 15 C13.698371541979554 16.386542915381042 14.404719703534994 17.769084859867476 15.1171875 19.1484375 C15.8700630506452 20.640488093003114 16.622666110054823 22.13267621312255 17.375 23.625 C17.74560546875 24.329150390625003 18.1162109375 25.033300781250006 18.498046875 25.7587890625 C21.621083993519278 32.13275910534456 21.06584901243997 36.3761133577041 19.0625 43.1875 C15.989806285020734 47.377536884062636 11.868697022379465 49.327772755231365 7 51 C3.7243283440915462 51.46363352668243 2.4833225002844728 51.32607716628782 -0.28125 49.4609375 C-4.484953579160326 45.508864064662646 -8.56691583728928 41.65127531722098 -12 37 C-12 36.34 -12 35.68000000000001 -12 35 C-12.515625 34.77312499999999 -13.03125 34.54625 -13.5625 34.3125 C-14.366875 33.87937500000001 -15.17125 33.44624999999999 -16 33 C-16.61359375 32.716406250000006 -17.2271875 32.4328125 -17.859375 32.140625 C-20.052304802643818 30.930127748940606 -21.465712441811448 29.99413166784737 -23 28 C-23.47841132518208 23.12306067015882 -22.538710499981732 18.616131499945183 -21 14 C-14.592872511935525 8.546383317781789 -7.2846268986363185 4.171673538481542 0 0 Z " fill="#94A9BE" transform="translate(60,68)"/>
<path d="M0 0 C10.89 0 21.78 0 33 0 C33 10.96095495765948 31.609327921207374 20.140688105615645 25 29 C23.325137730332088 31.285754282920646 21.660981350212626 33.57914382490346 20 35.875 C19.56308837890625 36.47578369140625 19.1261767578125 37.0765673828125 18.676025390625 37.695556640625 C15.186818152646753 42.5641106704338 12.482918795530015 47.53757864983397 10 53 C6.699999999999999 52.34 3.3999999999999995 51.68 0 51 C0 34.17 0 17.339999999999996 0 0 Z " fill="#677181" transform="translate(0,0)"/>
<path d="M0 0 C11.549999999999997 0 23.099999999999994 0 35 0 C35 11.88 35 23.76 35 36 C15.033018867924525 37.17452830188679 15.033018867924525 37.17452830188679 8 33 C7.071875000000006 32.46375 6.143749999999997 31.9275 5.1875 31.375 C0.6125110539783805 26.407869144319378 -1.6901571354729725 20.549214322635102 -3 14 C-2.010000000000005 9.379999999999999 -1.019999999999996 4.76 0 0 Z " fill="#1F3143" transform="translate(93,0)"/>
<path d="M0 0 C6.999999999999999 1 6.999999999999999 1 9 2 C9 2.6599999999999966 9 3.319999999999993 9 4 C9.5375390625 4.210117187500003 10.075078125000001 4.420234375000007 10.62890625 4.63671875 C13.9033828828874 6.519407950786984 16.331715900160866 9.12213364473537 18.9375 11.8125 C19.44990234375 12.333925781250002 19.9623046875 12.855351562500005 20.490234375 13.392578125 C22.854789335395783 15.799196324843734 25.209049489431177 18.21543267994815 27.55859375 20.63671875 C30.727262052156 23.703989666487004 34.17806315565669 26.28619958237951 37.6953125 28.9375 C40.14225091372007 31.12730251261729 41.55804348780165 33.05953966139944 43 36 C43 36.99000000000001 43 37.97999999999999 43 39 C28.81 39 14.619999999999997 39 0 39 C0 26.129999999999995 0 13.259999999999991 0 0 Z " fill="#243732" transform="translate(0,89)"/>
<path d="M0 0 C9.239999999999995 0 18.480000000000004 0 28 0 C27.587500000000006 2.2687500000000003 27.174999999999997 4.5375000000000005 26.75 6.875 C25.52242038253472 14.873787330763168 26.893997060483215 20.501650915182587 31.47265625 27.1328125 C33.70036961354285 31.314760348696794 34.661701708602266 35.65854034457642 35.75 40.25 C36.099980468750005 41.605449218749996 36.099980468750005 41.605449218749996 36.45703125 42.98828125 C37.91516634716672 49.056568031622 38.03074797714666 53.84065233168464 37 60 C31.339385309125433 58.52331790672837 31.339385309125433 58.52331790672837 29.8828125 56.27734375 C28.86352806710063 53.64795072176843 28.31340956282719 51.07537381771028 27.75 48.3125 C26.279638527029817 42.21569813480543 23.85131261653636 37.89457957848419 20 33 C19.563007812500004 32.435390625 19.126015625000008 31.87078125 18.67578125 31.2890625 C16.723796161564337 28.862935923206148 14.638921673661287 26.63892167366128 12.4375 24.4375 C5.2548929722820645 17.25489297228206 1.4377460740412573 10.064222518288773 0 0 Z " fill="#3A6A7B" transform="translate(65,0)"/>
<path d="M0 0 C3.248271831394277 1.397182425294048 5.113794552768809 2.9857310501392647 7.375 5.6875 C9.94744180745245 8.764417560430395 9.94744180745245 8.764417560430395 12.64453125 11.73046875 C19.428562359330982 18.96104367918567 21.5856781030472 27.263435421609053 22 37 C19.373404366307525 38.31329781684624 17.761839113304518 37.93641468644633 14.84375 37.66015625 C13.821523437499991 37.56669921875 12.79929687500001 37.4732421875 11.74609375 37.376953125 C10.674882812500002 37.27318359375 9.603671875000003 37.1694140625 8.5 37.0625 C6.385471490309087 36.86529667930079 4.270890611227969 36.668653835025545 2.15625 36.47265625 C1.2158789062499977 36.38250244140625 0.27550781249999545 36.2923486328125 -0.693359375 36.199462890625 C-2.946219227883759 35.9712827261344 -2.946219227883759 35.9712827261344 -5 36 C-5.1817578124999955 35.419921875 -5.363515625000005 34.83984375 -5.55078125 34.2421875 C-7.043142633980366 29.604387506707162 -8.694579662444653 25.310133674559992 -11 21 C-11.666666666666664 19.66666666666667 -12.333333333333336 18.33333333333333 -13 17 C-13.659999999999997 17 -14.32 17 -15 17 C-16.374827068672865 15.367392855950968 -17.706476666472888 13.697749375254332 -19 12 C-19.659999999999997 11.340000000000003 -20.32 10.68 -21 10 C-19.85724609375 9.671289062500001 -19.85724609375 9.671289062500001 -18.69140625 9.3359375 C-11.607925865331772 7.16048659534534 -5.9079305274124465 4.475704945009426 0 0 Z " fill="#61A1BB" transform="translate(73,21)"/>
<path d="M0 0 C0 10.560000000000002 0 21.120000000000005 0 32 C-13.86 32 -27.72 32 -42 32 C-37.125668750718546 22.251337501437078 -28.795089795084195 16.625481073860016 -19.998779296875 10.5380859375 C-17.139947829455295 8.5581062610257 -14.395123244732886 6.536292078723562 -11.7421875 4.28515625 C-7.732056357212784 0.9433802976773222 -5.21074375998964 0 0 0 Z " fill="#14303D" transform="translate(128,96)"/>
<path d="M0 0 C7.291925465838509 0 7.291925465838509 0 10 2 C10.765625000000002 3.8203125 10.765625000000002 3.8203125 11.25 6.125 C12.54727436236337 10.991531932325287 14.428689600976494 15.27369236127005 16.6875 19.75 C17.0292626953125 20.429255371093745 17.371025390625 21.108510742187505 17.72314453125 21.808349609375 C19.49665894048947 25.266091150699125 21.3548092129561 28.642490807538422 23.37109375 31.96484375 C23.74854736328125 32.59229492187501 24.1260009765625 33.21974609374999 24.514892578125 33.8662109375 C25.56718485097234 35.592646027766364 26.646150710380375 37.30274025006264 27.7265625 39.01171875 C29 42 29 42 28.34375 44.65625 C27.9003125 45.4296875 27.456875 46.203125 27 47 C26.646796875 47.6664453125 26.29359375 48.332890625000005 25.9296875 49.01953125 C24.953125 50.6796875 23.9765625 52.33984375 23 54 C21.339846193890235 52.57701102333448 19.68024698942778 51.15344740722148 18.0234375 49.7265625 C16.68471179251594 48.584252147281944 15.3357983044332 47.45376462874236 13.9765625 46.3359375 C13.0291015625 45.550898437499995 13.0291015625 45.550898437499995 12.0625 44.75 C11.182714843749999 44.030703125 11.182714843749999 44.030703125 10.28515625 43.296875 C9 42 9 42 9 40 C6.029999999999999 39.34 3.0599999999999996 38.68000000000001 0 38 C0 25.460000000000008 0 12.920000000000002 0 0 Z " fill="#396071" transform="translate(0,51)"/>
<path d="M0 0 C1.6499999999999986 0.6600000000000001 3.3000000000000007 1.3200000000000003 5 2 C3.32102366101358 6.365338481364688 1.2742344471950382 10.451103393977512 -0.87890625 14.59765625 C-3.907316731254898 21.087107281260494 -3.740147989463807 27.40398643251853 -1.5625 34.125 C1.406658771939096 41.76763611694071 6.175333140806245 50.175333140806245 12 56 C11.7578125 59.039062500000014 11.7578125 59.039062500000014 11.125 62.625 C10.921328125000002 63.81351562500001 10.717656250000005 65.00203125 10.5078125 66.2265625 C10.340234375000001 67.141796875 10.172656250000003 68.05703125 10 69 C6.111573875794619 69.45214257258202 4.51188558324494 69.3966165333883 1.36328125 66.95703125 C-1.2212806901099462 63.723124822457464 -3.0696264355598757 60.41389494321717 -4.8125 56.6875 C-5.49519660941824 55.26389234160072 -6.178818616566616 53.84072815657501 -6.86328125 52.41796875 C-7.210844726562499 51.69013183593751 -7.558408203124998 50.962294921875 -7.91650390625 50.21240234375 C-8.996752339354213 48.00663143325194 -10.132647375003721 45.840368897797475 -11.29296875 43.67578125 C-11.66252685546875 42.97557861328124 -12.0320849609375 42.2753759765625 -12.412841796875 41.553955078125 C-13.117216577303214 40.22318817317495 -13.832877666635289 38.89830964878823 -14.561767578125 37.580810546875 C-16.95808670857632 32.97826055746371 -18.019483611581038 29.081430980763393 -17 24 C-15.788513273424865 21.10710799128826 -14.191370188587106 18.59273239217039 -12.4375 16 C-11.76001708984375 14.957792968749999 -11.76001708984375 14.957792968749999 -11.06884765625 13.89453125 C-7.771595118968708 8.910665663694637 -4.219550056159626 4.247494096266642 0 0 Z " fill="#5C8BAE" transform="translate(27,26)"/>
<path d="M0 0 C3.543483860196801 1.4499594788989114 5.201263337141668 3.23961128313924 7.4375 6.3125 C9.475363738473192 9.044291477005004 11.464217361082802 11.590692041481987 13.9375 13.9375 C14.618124999999992 14.618124999999992 15.298749999999998 15.298749999999998 16 16 C16 16.659999999999997 16 17.319999999999993 16 18 C16.659999999999997 18 17.319999999999993 18 18 18 C18 18.659999999999997 18 19.319999999999993 18 20 C18.763125000000002 20.144374999999997 19.526250000000005 20.288749999999993 20.3125 20.4375 C23 21 23 21 26 22 C26 28.269999999999996 26 34.53999999999999 26 41 C23.927187500000002 41.68062499999999 23.927187500000002 41.68062499999999 21.8125 42.375 C16.2460957662758 44.56180166324879 11.971777135989228 47.81735316478833 7.380126953125 51.55810546875 C4.907255831583896 53.5695607174672 3.056747250168769 54.981084249943734 0 56 C0.43216521120028517 53.26295366239823 0.8720681011017035 50.54337196327066 1.50732421875 47.84521484375 C2.982173686690004 41.420870551197766 3.1450147149382843 35.55908154571951 2.75 29 C2.7100390625000017 28.079609375000004 2.6700781250000034 27.159218750000008 2.62890625 26.2109375 C2.3446008362675315 20.755347128376997 1.6422545081567392 15.578688863525926 0.42333984375 10.25244140625 C-0.22642662099764266 6.79526412611056 -0.12991989774329227 3.5078372390690404 0 0 Z " fill="#445557" transform="translate(102,55)"/>
<path d="M0 0 C8.09507725350128 0 13.082805261426117 3.698126081819126 19 9 C21.45575625508711 11.759838926171568 23.73939259148306 14.592512775672432 25.9921875 17.51953125 C27.710172624397522 19.641944779168142 29.285444371190977 21.22716996538054 31.4375 22.875 C34.20680800456004 25.171499320854664 35.11543972431414 26.550214924825198 36 30 C36 31.319999999999993 36 32.64 36 34 C28.740000000000002 34 21.479999999999997 34 14 34 C12.68 31.36 11.36 28.72 10 26 C8.402162540851087 24.12251424179216 8.402162540851087 24.12251424179216 6.6171875 22.91796875 C6.007460937499999 22.460996093749998 5.397734374999999 22.004023437499995 4.76953125 21.533203125 C4.144335937500003 21.089121093749995 3.5191406249999986 20.645039062500004 2.875 20.1875 C-3.7997347480106143 15.300397877984082 -3.7997347480106143 15.300397877984082 -6 12 C-5.862807833193287 7.061081994958386 -2.9202743160964317 3.7392442350017063 0 0 Z " fill="#626E76" transform="translate(29,94)"/>
</svg>
