<?xml version="1.0" encoding="UTF-8"?>
<!-- Generator: visioncortex VTracer 0.6.0 -->
<svg version="1.1" xmlns="http://www.w3.org/2000/svg" width="128" height="128">
<path d="M0 0 C42.24 0 84.48 0 128 0 C128 42.24 128 84.48 128 128 C85.75999999999999 128 43.519999999999996 128 0 128 C0 85.75999999999999 0 43.519999999999996 0 0 Z " fill="#5F74BF" transform="translate(0,0)"/>
<path d="M0 0 C1.7157877251795242 1.4486590973072566 3.382954124013878 2.9277545951984365 5.01953125 4.46484375 C5.287656249999998 3.825468749999999 5.5557812499999955 3.1860937499999977 5.83203125 2.52734375 C7.01953125 0.46484375 7.01953125 0.46484375 10.01953125 -0.53515625 C18.989583860739486 10.88127434548661 24.778905056423582 22.743385390891653 29.06689453125 36.511962890625 C30.109933882342006 39.85521729124534 31.062945880989872 42.52996569648482 33.01953125 45.46484375 C33.458190473023535 49.36660210215673 33.05604193138069 53.08083237775179 30.66796875 56.26953125 C29.467648901298062 57.502736574008836 28.26425271425512 58.732951517888296 27.05859375 59.9609375 C23.9209151809564 63.8139106087298 21.966975161521773 68.17641134875795 19.861083984375 72.654541015625 C17.878049834460768 76.8542382421126 15.630428778698672 80.60720072044522 13.01953125 84.46484375 C12.524531249999995 85.94984375 12.524531249999995 85.94984375 12.01953125 87.46484375 C-1.4542290702370622 88.36811259828404 -13.407166222697683 84.21869179896693 -25.859375 79.61328125 C-27.91644241232099 78.85636282794447 -29.98856042106256 78.1389959371313 -32.07421875 77.46484375 C-39.5930867497747 74.87770637373343 -49.75569113675022 70.63688982570866 -54.98046875 64.46484375 C-57.393951656373815 58.295547556741084 -57.36019228483862 51.01528528921432 -57.79296875 44.46484375 C-57.8582275390625 43.63476806640625 -57.923486328125 42.804692382812505 -57.99072265625 41.949462890625 C-58.288910751628976 36.43189880576709 -57.43455334352586 32.23382712285493 -55.686279296875 27.01806640625 C-54.23349192557758 21.76270482581819 -54.50655804388034 16.29668003687169 -54.453125 10.880859375 C-54.318875943932156 5.451669607550556 -54.02535773039272 1.5097327303927202 -49.98046875 -2.53515625 C-47.95963998537485 -2.556428131732897 -45.9382304010965 -2.5250418396000214 -43.91796875 -2.47265625 C-38.43322713071037 -2.4223887606175083 -33.220458148809925 -2.7748398471494724 -27.79296875 -3.53515625 C-8.033859460289065 -6.227429522472587 -8.033859460289065 -6.227429522472587 0 0 Z " fill="#BFB2C6" transform="translate(77.98046875,27.53515625)"/>
<path d="M0 0 C2.9791091846438036 2.2030824914411298 4.500249222172968 3.903993889677377 5.25 7.5625 C4.834643073862722 11.923747724441398 3.9769530250594727 13.492045551457476 0.875 16.5 C-0.4449999999999932 15.84 -1.7650000000000006 15.18 -3.125 14.5 C-3.125 13.84 -3.125 13.18 -3.125 12.5 C-4.207812499999989 12.066875 -4.207812499999989 12.066875 -5.3125 11.625 C-7.057303812924147 10.927078474830346 -8.792853609619243 10.204876473654345 -10.51171875 9.4453125 C-18.39380685685537 6.594093782721973 -27.969290484597863 8.831396534271263 -36.11767578125 9.794677734375 C-41.513414338318256 10.411626071487358 -46.66859681842323 10.588493334988971 -52.09375 10.08203125 C-54.307859534550644 10.333476087099434 -54.307859534550644 10.333476087099434 -55.875 12.375 C-57.64857003099246 16.80892507748115 -57.57827824012071 20.951915909377618 -57.625 25.6875 C-57.68125763622589 31.2690611941253 -57.883101167687585 36.22584821790436 -59.66796875 41.55078125 C-61.36088000825739 46.691821453487215 -61.359982020982955 51.14492346097251 -60.9375 56.5 C-60.87780029296875 57.37213134765625 -60.8181005859375 58.2442626953125 -60.756591796875 59.142822265625 C-60.57403906534588 61.5986731633658 -60.35872437560417 64.04855001496986 -60.125 66.5 C-60.021875 67.6021484375 -59.91875 68.704296875 -59.8125 69.83984375 C-59.21033835769146 74.01106762640809 -58.508320443755274 76.04606789555297 -55.75 79.3125 C-51.83737408593985 82.0766436805798 -47.21190582460818 83.58194554314457 -42.734375 85.19140625 C-39.8542397642765 86.63578544755595 -39.16140083208315 87.51086833185774 -38.125 90.5 C-51.528720076194084 97.69600640035304 -66.19242638744068 93.0877871963672 -80.125 89.5 C-80.785 89.17 -81.445 88.84 -82.125 88.5 C-82.125 61.11 -82.125 33.72 -82.125 5.5 C-79.155 4.84 -76.185 4.18 -73.125 3.5 C-70.80767452187814 2.6378608705972795 -68.49513482225758 1.7627515289224895 -66.1875 0.875 C-55.76809131218194 -2.766483622936166 -44.815148578175226 -1.8874488745963767 -33.93896484375 -1.4658203125 C-3.433824310399771 -1.8363495225181357 -3.433824310399771 -1.8363495225181357 0 0 Z " fill="#8990BE" transform="translate(82.125,15.5)"/>
<path d="M0 0 C0.7424999999999997 0.7631250000000023 1.4849999999999994 1.5262499999999974 2.25 2.3125 C6.20335288123573 6.43832373228156 6.20335288123573 6.43832373228156 11.364013671875 8.361083984375 C18.489206029148427 8.218141336543162 25.305360827839507 7.335324148808539 32.3125 6.0625 C33.35728515625 5.880097656250001 34.4020703125 5.697695312500002 35.478515625 5.509765625 C37.46370170653892 5.162705121234453 39.44828949619849 4.812196802492899 41.43212890625 4.45751953125 C44.28450015607088 3.949310392424721 47.14068841676189 3.4675294327153523 50 3 C50.87587420454258 15.578526770792152 46.766380083032146 24.60232927240726 40 35 C40.461484375 35.317109375 40.922968749999995 35.63421875 41.3984375 35.9609375 C46.657896191321015 39.7236332435933 51.120307176906095 43.9809971043194 55.60546875 48.6328125 C57.97777731635392 51.07118379895978 57.97777731635392 51.07118379895978 60.80078125 53.1796875 C61.889394531250005 54.08074218749999 61.889394531250005 54.08074218749999 63 55 C63 55.66 63 56.31999999999999 63 57 C64.32 57.66 65.64 58.31999999999999 67 59 C66.67 60.97999999999999 66.34 62.96000000000001 66 65 C52.52623967976295 65.90326884828404 40.57330252730232 61.753848048966944 28.12109375 57.1484375 C26.06402633767901 56.391519077944466 23.99190832893744 55.674152187131284 21.90625 55 C14.387382000225301 52.412862623733446 4.224777613249774 48.172046075708664 -1 42 C-5.1315713823793025 31.438960792232677 -5.807541282823031 14.232888789469825 -1.7890625 3.6796875 C-1.2091677580084799 2.4452580987309247 -0.6099334157933853 1.2198668315867778 0 0 Z " fill="#A596B8" transform="translate(24,50)"/>
<path d="M0 0 C3.58875 0.6806250000000063 3.58875 0.6806250000000063 7.25 1.375 C8.726370758853559 1.649470882271089 10.202899565528394 1.9230951614420349 11.6796875 2.1953125 C14.252396301816969 2.6705693694887884 16.81758417128929 3.1642721083190963 19.3828125 3.6796875 C26.897194773049186 5.111932685202589 34.13648006009753 6.009030368749279 41.125 2.375 C46.297056142775304 -0.09859206828383549 51.55973091626333 1.7413278822144775 56.7421875 3.55859375 C58.453959458483034 4.182611530712279 60.164866984358376 4.809004576542975 61.875 5.4375 C69.7188644412912 8.212774463088891 77.10029037364282 9.899698214535462 85.40185546875 10.468505859375 C89.07218125041388 10.720824800776185 90.86150849773016 10.907672331820109 94 13 C95.0737890625 12.373515624999996 96.147578125 11.747031249999992 97.25390625 11.1015625 C98.68987618022898 10.275645154508823 100.12608698658545 9.450146506384385 101.5625 8.625 C102.26697265625 8.212500000000006 102.9714453125 7.799999999999997 103.697265625 7.375 C111.92090292026165 2.6757786884219144 118.23065913212588 1.888121897079472 128 1 C128 8.590000000000003 128 16.180000000000007 128 24 C85.75999999999999 24 43.519999999999996 24 0 24 C0 16.08 0 8.159999999999997 0 0 Z " fill="#915662" transform="translate(0,104)"/>
<path d="M0 0 C42.24 0 84.48 0 128 0 C128 7.92 128 15.84 128 24 C120.32038834951457 22.902912621359224 120.32038834951457 22.902912621359224 116.625 21.4375 C108.2782260138375 18.584982964324936 101.29272044608737 20.190128912342104 92.91796875 22.44140625 C90.10028478468584 22.980802243360007 88.59132719608252 23.202037557157162 86 22 C85.505 20.515 85.505 20.515 85 19 C80.41357769942226 14.452011405851689 75.04664978740419 13.700199644969237 68.86669921875 13.606201171875 C61.44686972497385 13.64327586146291 61.44686972497385 13.64327586146291 54.093505859375 14.517578125 C51.007133792747496 14.998887508920445 48.19705494301924 15.068517876239207 45.078125 14.9921875 C43.415234375 14.96705078125 43.415234375 14.96705078125 41.71875 14.94140625 C39.421705454754246 14.897431298120296 37.124798954381575 14.845457050172119 34.828125 14.78515625 C27.646107107775027 14.693718522205469 21.726511470680396 15.48657496990327 15 18 C14.166298828125 18.2956787109375 13.33259765625 18.591357421875 12.4736328125 18.89599609375 C11.046607496562718 19.403946914376775 9.622745033480003 19.92092503525076 8.203125 20.44921875 C5.9999999999999964 21 5.9999999999999964 21 0 21 C0 14.07 0 7.139999999999999 0 0 Z " fill="#63496F" transform="translate(0,0)"/>
<path d="M0 0 C9.458538728697448 10.65444592427989 14.8690689080304 23.63076860336008 19.04736328125 37.047119140625 C20.090402632342006 40.39037354124534 21.043414630989886 43.06512194648482 23 46 C23.474105271635878 50.217041626656 22.771479626072022 53.776134415184174 20.5078125 57.3671875 C18.756065839709933 59.47980900876183 17.18699636197971 61.3382450003177 15 63 C13.680000000000007 63 12.36 63 11 63 C11 62.34 11 61.68000000000001 11 61 C9.680000000000007 60.67 8.36 60.34 7 60 C7 59.34 7 58.68000000000001 7 58 C6.441835937500002 57.72671875 5.8836718750000045 57.45343750000001 5.30859375 57.171875 C-8.104013227115587 50.36344506237788 -8.104013227115587 50.36344506237788 -12 44 C-12.376595040953816 38.815541602869104 -11.521209646381763 34.54095556392328 -10.125 29.5625 C-8.211205046730996 22.527808394429158 -7.271225278061095 15.685864395884842 -6.6875 8.42578125 C-5.929265158262865 4.647531498843957 -4.476838410544218 0 0 0 Z " fill="#99A4E9" transform="translate(88,27)"/>
<path d="M0 0 C10.577922077922082 2.3506493506493484 10.577922077922082 2.3506493506493484 14 5 C14 5.659999999999997 14 6.319999999999993 14 7 C14.99 7 15.98 7 17 7 C21.188029136548728 11.9742576547484 21.931222794306592 16.9422581850707 22.6015625 23.166015625 C23.174009059047865 27.13171448471975 23.91467531082966 28.910741031213746 26.7109375 31.8359375 C30.779886201869292 34.51313177652682 34.831548817648674 36.05263384116974 39.390625 37.69140625 C42.27076023572349 39.135785447555946 42.96359916791686 40.01086833185778 44 43 C30.59627992380591 50.19600640035304 15.93257361255933 45.5877871963672 2 42 C1.3399999999999999 41.67 0.6799999999999999 41.34 0 41 C0 27.47 0 13.939999999999998 0 0 Z " fill="#756C8C" transform="translate(0,63)"/>
<path d="M0 0 C0 10.560000000000002 0 21.120000000000005 0 32 C-3.9999999999999716 33 -3.9999999999999716 33 -6.55859375 33.2890625 C-15.225581385363014 34.300407054465694 -21.5414935164017 37.65081894657709 -29 42 C-30.992582894161757 43.01469867935951 -32.990494478470765 44.01924133501484 -35 45 C-36.5625 43.8125 -36.5625 43.8125 -38 42 C-37.65561342185025 37.458902562537006 -35.56405356723734 34.38632436559311 -33.125 30.625 C-30.92688992740436 27.226446050119648 -29.029052943823615 24.069240391498425 -27.4609375 20.33203125 C-26.08583043293885 17.195757645178702 -24.882712805293522 15.450438052673547 -22.5 13.0625 C-18.987731584866253 9.268062029316397 -17.495096927385532 5.925025172564119 -16 1 C-14.458760532424307 0.8294280431141487 -12.916979191021028 0.6637500025862977 -11.375 0.5 C-10.516484375000005 0.40718750000000625 -9.657968749999995 0.3143749999999983 -8.7734375 0.21875 C-5.85710661639655 -0.011270464058867447 -2.9253880488825956 0 0 0 Z " fill="#707EB1" transform="translate(128,73)"/>
<path d="M0 0 C2.248125 0.433125000000004 4.49625 0.8662499999999937 6.8125 1.3125 C11.557174483114908 2.2220749272294142 16.301264092626646 3.063096615254892 21.08203125 3.76171875 C21.92209716796875 3.885710449218749 22.7621630859375 4.009702148437498 23.627685546875 4.137451171875 C25.259399442828222 4.374336022348217 26.89237352224169 4.602737717677371 28.526611328125 4.821533203125 C35.93423640798833 5.9025181934914315 40.96328739941532 8.282650561498471 46 14 C48.831883204047216 17.906045798685824 49 18.889939972806502 49 24 C32.83 24 16.659999999999997 24 0 24 C0 16.08 0 8.159999999999997 0 0 Z " fill="#431F2F" transform="translate(0,104)"/>
<path d="M0 0 C3.575516977796454 2.7549065238759596 6.761233632600096 5.862445081581356 10 9 C11.470466990473653 10.301561998324658 12.94882590765296 11.59430243526026 14.4375 12.875 C19.22318209134616 17.01126802884616 19.22318209134616 17.01126802884616 21 19 C21 19.659999999999997 21 20.319999999999993 21 21 C22.319999999999993 21.659999999999997 23.64 22.319999999999993 25 23 C24.67 24.980000000000004 24.340000000000003 26.960000000000008 24 29 C10.526239679762966 29.903268848284043 -1.4266974726976969 25.75384804896693 -13.87890625 21.1484375 C-16.90102355543341 20.036419367587712 -19.940213449754907 19.00305784654651 -23 18 C-23.75 15.875 -23.75 15.875 -24 13 C-19.466974665122272 4.296591357034771 -10.089456119578529 -3.420154616806286 0 0 Z " fill="#C39CAC" transform="translate(66,86)"/>
<path d="M0 0 C1.298339406376897 4.303699376039042 0.5146238304464106 7.982263475898229 -0.3125 12.3125 C-0.443339843749996 13.046621093749998 -0.574179687499992 13.780742187499996 -0.708984375 14.537109375 C-1.5502633049026429 19.11740577113663 -2.70891544467878 23.522408882609362 -4 28 C-4.416007141002197 32.02140236302128 -4.609180745929109 34.09829889588582 -2.32421875 37.48046875 C0.12609629105755005 40.13669261803719 2.4780991559501047 41.820073638636444 5.5625 43.6875 C6.512539062499997 44.26886718750001 7.462578124999993 44.850234375 8.44140625 45.44921875 C9.285742187500006 45.96097656250001 10.130078124999997 46.472734375 11 47 C11.989999999999995 47.66 12.980000000000004 48.31999999999999 14 49 C14 49.66 14 50.31999999999999 14 51 C14.618750000000006 51.103125000000006 15.237499999999997 51.20625 15.875 51.3125 C18 52 18 52 20 55 C20 61.547241017932066 15.698712987103931 68.13339473028823 11.3046875 72.80078125 C10.874140624999995 73.1965234375 10.443593750000005 73.592265625 10 74 C7.999999999999986 72.62499999999999 7.999999999999986 72.62499999999999 6 71 C6 70.34 6 69.68 6 69 C4.515000000000001 68.505 4.515000000000001 68.505 3 68 C3 67.34 3 66.68 3 66 C2.450859374999993 65.780859375 1.9017187500000006 65.56171875 1.3359375 65.3359375 C-2.2917359396234644 63.26124800777387 -4.910469719470839 60.17227210428787 -7.7578125 57.1640625 C-10.951588082040189 53.86263156126182 -14.128382892269542 51.40976758032781 -18 49 C-17.445703125 48.0705859375 -16.891406250000003 47.141171875 -16.3203125 46.18359375 C-15.588133689302765 44.93513500868292 -14.856385788721738 43.68642348350926 -14.125 42.4375 C-13.760195312500002 41.82841796875 -13.395390625000005 41.219335937500006 -13.01953125 40.591796875 C-9.476889668794385 34.50489452183763 -7.857745299225968 28.896753424107132 -7.75 21.8125 C-7.310395832214795 14.499853747419273 -4.516075851876721 9.292976666711183 -1 3 C-0.6700000000000017 2.009999999999998 -0.3400000000000034 1.0200000000000031 0 0 Z " fill="#B8ACD5" transform="translate(81,36)"/>
<path d="M0 0 C10.89 0 21.78 0 33 0 C33 7.92 33 15.84 33 24 C25.32038834951456 22.902912621359224 25.32038834951456 22.902912621359224 21.625 21.4375 C13.278226013837468 18.58498296432493 6.292720446087387 20.1901289123421 -2.08203125 22.44140625 C-4.893233355579525 22.97956140541884 -6.3528645035952 22.967838886094736 -9 22 C-9.943128889117077 18.929347802874638 -10.21514933039748 17.484843561459122 -8.890625 14.5 C-8.349218750000006 13.675 -7.807812499999997 12.85 -7.25 12 C-6.453359375000005 10.7625 -6.453359375000005 10.7625 -5.640625 9.5 C-5.099218750000006 8.675 -4.557812499999997 7.85 -4 7 C-2.59078806706853 4.691576643197976 -1.2093758929823792 2.418751785964758 0 0 Z " fill="#564D84" transform="translate(95,0)"/>
<path d="M0 0 C2.979109184643818 2.203082491441144 4.500249222172968 3.9039938896773663 5.25 7.5625 C4.834643073862722 11.923747724441377 3.9769530250594443 13.492045551457505 0.875 16.5 C-0.4449999999999932 15.84 -1.7650000000000006 15.18 -3.125 14.5 C-3.125 13.84 -3.125 13.18 -3.125 12.5 C-3.846874999999997 12.21125 -4.568749999999994 11.9225 -5.3125 11.625 C-7.057303812924147 10.927078474830346 -8.792853609619243 10.204876473654345 -10.51171875 9.4453125 C-17.03677023262925 7.084979975640838 -24.372668036718473 8.487335145841769 -31.127197265625 9.27294921875 C-51.344480769721855 11.616581144843138 -51.344480769721855 11.616581144843138 -56.5625 7.64453125 C-58.5634614923086 5.681782563968131 -60.38194703114392 3.692550869134145 -62.125 1.5 C-59.64355325368254 -0.9814467463174594 -57.97304943856976 -1.4685354071581571 -54.492919921875 -1.59765625 C-53.457561035156246 -1.5860546875000008 -52.4222021484375 -1.5744531249999998 -51.35546875 -1.5625 C-49.651005859375005 -1.5508984375000008 -49.651005859375005 -1.5508984375000008 -47.912109375 -1.5390625 C-45.52408715840721 -1.513147988696769 -43.136066304561254 -1.4871075759403976 -40.748046875 -1.4609375 C-39.037783203125 -1.449335937499999 -39.037783203125 -1.449335937499999 -37.29296875 -1.4375 C-36.25422607421875 -1.425898437499999 -35.2154833984375 -1.4142968749999998 -34.145263671875 -1.40234375 C-4.419527240704667 -2.3634863069855427 -4.419527240704667 -2.3634863069855427 0 0 Z " fill="#937F9D" transform="translate(82.125,15.5)"/>
<path d="M0 0 C11.22 0 22.44 0 34 0 C35.32 2.31 36.64 4.62 38 7 C40.20680538582178 8.962750179351348 40.20680538582178 8.962750179351348 42.625 10.3125 C45.06161552464204 11.789849944342768 46.97819017008376 12.978190170083753 49 15 C47.98800537109375 14.976434326171876 47.98800537109375 14.976434326171876 46.95556640625 14.952392578125 C43.845465763355975 14.889339211797722 40.73550028413598 14.850788690484675 37.625 14.8125 C36.5641015625 14.78736328125 35.503203125 14.7622265625 34.41015625 14.736328125 C27.392336226702465 14.671746959141434 21.577490329871964 15.573268332177298 15 18 C14.1654931640625 18.29559814453125 13.330986328125 18.5911962890625 12.47119140625 18.895751953125 C11.045086281464776 19.40408993066715 9.622054376224673 19.921182054649215 8.203125 20.44921875 C5.9999999999999964 21 5.9999999999999964 21 0 21 C0 14.07 0 7.139999999999999 0 0 Z " fill="#675981" transform="translate(0,0)"/>
<path d="M0 0 C0 7.590000000000003 0 15.180000000000007 0 23 C-11.549999999999997 23 -23.099999999999994 23 -35 23 C-35 13 -35 13 -33.3828125 10.88671875 C-32.637734374999994 10.490976562499995 -31.89265625 10.095234375000004 -31.125 9.6875 C-30.298710937500005 9.232460937500008 -29.472421874999995 8.777421875000002 -28.62109375 8.30859375 C-27.7561328125 7.876757812500003 -26.891171874999998 7.444921875000006 -26 7 C-25.207226562499997 6.5372265624999955 -24.414453124999994 6.074453125000005 -23.59765625 5.59765625 C-16.16133857377318 1.4395855882524273 -8.479306883288729 0 0 0 Z " fill="#3A3766" transform="translate(128,105)"/>
</svg>
