<?xml version="1.0" encoding="UTF-8"?>
<!-- Generator: visioncortex VTracer 0.6.0 -->
<svg version="1.1" xmlns="http://www.w3.org/2000/svg" width="128" height="128">
<path d="M0 0 C42.24 0 84.48 0 128 0 C128 42.24 128 84.48 128 128 C85.75999999999999 128 43.519999999999996 128 0 128 C0 85.75999999999999 0 43.519999999999996 0 0 Z " fill="#238468" transform="translate(0,0)"/>
<path d="M0 0 C28.380000000000003 0 56.760000000000005 0 86 0 C84 13.000000000000007 84 13.000000000000007 82 17 C80.27716796875 17.038671875 80.27716796875 17.038671875 78.51953125 17.078125 C68.07813490841644 17.41861757047384 57.52153195613295 17.869696427782465 48.421875 23.6328125 C45.05763067176449 25.531982685294235 42.942776918309136 25.200809518215543 39.2265625 24.66015625 C35.62599762131494 23.592620347372325 33.633192322922774 21.63319232292277 31 19 C30.82984375 19.556875 30.6596875 20.11375 30.484375 20.6875 C27.455289751091957 30.225896102944482 23.81888850777043 36.6611221025352 16.796875 43.788330078125 C13.17091128073432 47.3260239177427 13.17091128073432 47.3260239177427 12 52 C12.919062759007042 54.965765096135264 12.919062759007042 54.965765096135264 14.3125 58.1875 C16.719678649259006 64.50965051838354 17.78148037340039 70.3068318291177 18.190673828125 77.049560546875 C18.605294297933114 82.43833701061746 20.21285851433904 85.51926348683479 23 90 C23 90.66 23 91.32 23 92 C23.66 92 24.32 92 25 92 C26.145019531250007 93.37695312500001 26.145019531250007 93.37695312500001 27.3828125 95.28125 C27.8275390625 95.9580078125 28.272265625 96.634765625 28.73046875 97.33203125 C29.1906640625 98.0474609375 29.650859375 98.762890625 30.125 99.5 C30.5929296875 100.2154296875 31.060859375 100.930859375 31.54296875 101.66796875 C32.701525011916026 103.44126915089187 33.85156065534401 105.2201309049612 35 107 C38.465 103.535 38.465 103.535 42 100 C46.4076218892973 102.06258311958175 50.15718086686078 104.48180529453909 54.0625 107.375 C63.322159434756486 113.97037378518226 73.21824145249417 117.11194786889554 84.3203125 119.32421875 C87.00000000000001 120 87.00000000000001 120 90 122 C94.53771384086014 121.75471817076432 97.42457682493664 119.67258390598329 101 117 C103.37595681547819 114.16255551411757 103.37595681547819 114.16255551411757 105.4375 110.9375 C105.82091552734374 110.3682177734375 106.2043310546875 109.798935546875 106.599365234375 109.21240234375 C109.0289779716743 105.57985595548176 111.29813720706794 101.86274954175772 113.5625 98.125 C116.61585792168133 93.26382643238148 120.11665229380094 89.11048016938331 125 86 C125.99 86 126.98 86 128 86 C128 99.86 128 113.72 128 128 C85.75999999999999 128 43.519999999999996 128 0 128 C0 85.75999999999999 0 43.519999999999996 0 0 Z " fill="#776CCB" transform="translate(0,0)"/>
<path d="M0 0 C13.86 0 27.72 0 42 0 C42 28.380000000000003 42 56.760000000000005 42 86 C39.69 87.32 37.379999999999995 88.64 35 90 C29.376892832716067 95.54277706489417 25.5764510529483 102.33920280605734 21.72265625 109.16015625 C18.408098450032554 114.62429121729326 14.120124160871725 120.58416151544537 8 123 C4.695204529481444 122.50209207315035 1.5618097537020503 121.61621507389395 -1.625 120.625 C-4.298239162606876 119.79851037724137 -6.953250786211072 119.01141391623209 -9.671875 118.34765625 C-21.7214290505853 115.40491833880215 -31.215472238214204 109.45168152012504 -41 102 C-41.99 101.34 -42.98 100.68 -44 100 C-44 99.01 -44 98.02 -44 97 C-40.47386848540656 98.28899007914839 -37.614780355294165 99.82368602118063 -34.5625 102 C-27.530119120628967 106.73444361336966 -21.41969328306672 107.90690845203245 -13 107 C-6.023980246292467 105.24651677386427 0.19085052375457678 102.21592282664224 6 98 C6.792773437500003 97.4315234375 7.585546875000006 96.863046875 8.40234375 96.27734375 C11.558238734922057 93.51059671810593 13.799368491699497 90.49114871615308 16.1875 87.0625 C16.62513671875 86.45470703125 17.0627734375 85.8469140625 17.513671875 85.220703125 C21.51213957336772 79.56180303891317 23.62496197167563 75.12456647710216 23 68 C21.014478979401133 63.259326032250904 18.397540760322897 59.96321960489878 14.875 56.25 C13.884729074423475 55.19986672135367 12.895155696035815 54.14907525939188 11.90625 53.09765625 C11.415117187500002 52.5783251953125 10.923984375000003 52.058994140625 10.41796875 51.52392578125 C8.345057235519903 49.29611695318789 6.368486126575718 46.986326431174454 4.375 44.6875 C-2.4678337612952674 37.08571151026053 -9.117473454422566 31.230705185728294 -19.625 30.5625 C-27.77022152159646 30.733978347823083 -34.87298573490149 34.690075915785215 -41.75 38.75 C-44.716827923487 40.49455943232267 -46.879463792419116 41.27239538955265 -50.3125 41.5 C-54.15543401886567 41.623362387991754 -54.15543401886567 41.623362387991754 -56.375 44.5625 C-56.911249999999995 45.366875 -57.447500000000005 46.17125 -58 47 C-58.66 47 -59.32 47 -60 47 C-60.2475 47.53625 -60.495 48.0725 -60.75 48.625 C-62 51.00000000000001 -62 51.00000000000001 -63.9375 53.8125 C-66.1004988936707 57.155316472036546 -67.52600024380644 60.315000609516076 -69 64 C-71.56919191693959 61.74113182583682 -72.68000131124629 59.79979195117832 -73.75 56.5625 C-74.01296875 55.8006640625 -74.2759375 55.038828125 -74.546875 54.25390625 C-75.06487901806226 51.67728281532827 -75.00680564045012 50.42217009151768 -74 48 C-72.36328124999999 46.175781249999986 -72.36328124999999 46.175781249999986 -70.3125 44.3125 C-62.29664470310553 36.51173921017783 -58.83392149288207 28.78557179938057 -56 18 C-54.5459375 19.2065625 -54.5459375 19.2065625 -53.0625 20.4375 C-48.8631447978198 23.380421617592148 -45.1422298302322 24.596565878997527 -40 24 C-37.3930243170659 22.967734783931373 -35.05916837486288 21.760085064661787 -32.65234375 20.32421875 C-26.215062174315037 17.110318228413547 -19.564602655449306 16.651140820408443 -12.5 16.375 C-11.266367187499995 16.3169921875 -11.266367187499995 16.3169921875 -10.0078125 16.2578125 C-8.005529899372519 16.164683076715 -6.002797384093043 16.081310150208907 -4 16 C-2.020393217689744 10.626781590872145 -1.160320103002249 5.801600515011247 0 0 Z " fill="#337D8E" transform="translate(86,0)"/>
<path d="M0 0 C2.8242371925007603 2.5297440835391427 5.44489403814498 5.200256233286517 8 8 C7 11 7 11 5 13 C5.349335937500001 13.568476562499995 5.698671875000002 14.136953125000005 6.05859375 14.72265625 C8.845942076493998 19.45246261705357 11 23.366710212767345 11 29 C8.766706787111588 36.14653828124291 2.3447603314853467 40.89594738893422 -4 44.4375 C-9.996513497916382 47.13243116346047 -14.972605482222193 46.56644210031601 -21 44.4375 C-26.182447296740023 42.21530510650621 -30.029488634835687 38.948329737425965 -34 35 C-35.545712781471906 37.31856917220787 -36.7961855199008 39.5063842912231 -38 42 C-46.19373892498523 33.56526875369167 -46.19373892498523 33.56526875369167 -47 27 C-46.417412211039526 19.343131916519496 -43.320853207906694 13.173390809687035 -37.80078125 7.8984375 C-27.030768908937475 -1.1301128769660735 -13.105627215488894 -9.017860692699351 0 0 Z " fill="#3F9A26" transform="translate(77,39)"/>
<path d="M0 0 C0 13.86 0 27.72 0 42 C-33 42 -66 42 -100 42 C-101 40 -101 40 -100.6171875 38.1875 C-97.35955064568694 28.586044008340465 -93.75255153291965 20.747177414817685 -86 14 C-81.5923781107027 16.062583119581745 -77.84281913313922 18.481805294539086 -73.9375 21.375 C-64.67784056524351 27.97037378518226 -54.78175854750583 31.11194786889554 -43.6796875 33.32421875 C-41 34 -41 34 -38 36 C-33.46228615913992 35.75471817076432 -30.57542317506332 33.67258390598326 -27 31 C-24.62404318452181 28.1625555141176 -24.62404318452181 28.1625555141176 -22.5625 24.9375 C-22.179084472656257 24.368217773437493 -21.7956689453125 23.798935546875 -21.400634765625 23.21240234375 C-18.971022028325677 19.57985595548172 -16.701862792932076 15.86274954175775 -14.4375 12.125 C-11.172254281734467 6.926485255069082 -6.653390653605356 0 0 0 Z " fill="#7EA5B6" transform="translate(128,86)"/>
<path d="M0 0 C13.86 0 27.72 0 42 0 C42 16.830000000000002 42 33.660000000000004 42 51 C27.37553577316187 48.75008242664029 27.37553577316187 48.75008242664029 22.8125 46.4375 C21.932070312500002 46.0030859375 21.051640625000005 45.568671875 20.14453125 45.12109375 C19.436835937500007 44.7511328125 18.729140625 44.381171875 18 44 C17.340000000000003 43.67 16.680000000000007 43.34 16 43 C16 42.34 16 41.68 16 41 C14.515 40.505 14.515 40.505 13 40 C11.457031249999986 38.066406249999986 11.457031249999986 38.066406249999986 9.8125 35.5625 C6.670483678967258 30.902956647319535 3.284648394883334 26.55161908537989 -0.30078125 22.2265625 C-1.8619774389270134 20.18085714899218 -3.075545869216299 18.398583690682052 -4 16 C-3.25 13.375000000000002 -3.25 13.375000000000002 -2 10 C-1.3400000000000034 6.699999999999999 -0.6800000000000068 3.3999999999999995 0 0 Z " fill="#59699A" transform="translate(86,0)"/>
<path d="M0 0 C3.067880960806008 1.4498889472302352 5.821263226124046 3.154271125472384 8.625 5.0625 C12.614625257398984 7.773059352618247 14.821475572741036 9.139903597020705 19.6875 9.125 C20.516367187499995 9.127578125 21.345234375000004 9.130156249999999 22.19921875 9.1328125 C25.484204613898825 8.977039111753754 28.74437570886768 8.465089184447478 32 8 C32 17.24000000000001 32 26.480000000000004 32 36 C29.689999999999998 37.31999999999999 27.379999999999995 38.64 25 40 C19.37689283271608 45.54277706489415 15.576451052948286 52.33920280605736 11.72265625 59.16015625 C8.408098450032554 64.62429121729329 4.120124160871725 70.58416151544537 -2 73 C-5.3047954705185845 72.50209207315035 -8.43819024629795 71.61621507389395 -11.625 70.625 C-14.298239162606905 69.79851037724136 -16.95325078621103 69.0114139162321 -19.671875 68.34765625 C-31.7214290505853 65.40491833880215 -41.215472238214204 59.451681520125035 -51 52 C-51.99 51.34 -52.98 50.68000000000001 -54 50 C-54 49.00999999999999 -54 48.02000000000001 -54 47 C-50.473868485406584 48.28899007914839 -47.61478035529415 49.823686021180634 -44.5625 52 C-37.530119120628946 56.73444361336968 -31.419693283066735 57.906908452032454 -23 57 C-16.023980246292496 55.24651677386427 -9.809149476245409 52.21592282664224 -4 48 C-3.207226562499997 47.431523437500005 -2.4144531249999943 46.86304687500001 -1.59765625 46.27734375 C1.5582387349220284 43.510596718105944 3.7993684916995107 40.49114871615305 6.1875 37.0625 C6.625136718749999 36.454707031249995 7.062773437499999 35.84691406249999 7.513671875 35.220703125 C11.512139573367705 29.561803038913183 13.624961971675631 25.12456647710215 13 18 C11.008235574852577 13.235387061412062 8.350252742484287 9.919242070354997 4.8125 6.1875 C0 1.0858369098712402 0 1.0858369098712402 0 0 Z " fill="#428B85" transform="translate(96,50)"/>
<path d="M0 0 C18.810000000000002 0 37.620000000000005 0 57 0 C55 13.000000000000007 55 13.000000000000007 53 17 C51.851445312500005 17.02578125 50.70289062500001 17.0515625 49.51953125 17.078125 C39.07813490841643 17.41861757047384 28.521531956132954 17.869696427782465 19.421875 23.6328125 C16.052999910974876 25.534596824449668 13.936877849987951 25.217609826248093 10.21875 24.62890625 C6.327067227312071 23.525806027459936 4.6904433868674005 22.084166809335798 2 19 C-0.5238310327219331 12.346263641005816 0 7.490059124727121 0 0 Z " fill="#9BB1DF" transform="translate(29,0)"/>
<path d="M0 0 C0.6600000000000001 0 1.3200000000000003 0 2 0 C6 6.75 6 6.75 6 9 C6.66 9 7.32 9 8 9 C9.682643025469979 11.154859007751071 11.193036455395163 13.282692397952133 12.6875 15.5625 C13.116113281250001 16.171582031249997 13.5447265625 16.780664062499994 13.986328125 17.408203125 C16.24300555737173 20.842277478609162 17.014615854377183 22.48519712915916 16.89453125 26.71484375 C15.956264220288418 30.160619173525944 14.724711376680094 32.76372765154572 12.9375 35.8125 C11.59185712129836 38.6905545388459 11.59185712129836 38.6905545388459 11 45 C1.759999999999998 45 -7.48 45 -17 45 C-17 36.42 -17 27.840000000000003 -17 19 C-15.02 18.340000000000003 -13.04 17.680000000000007 -11 17 C-5.505623768922867 12.274490883020135 -1.1067311913953528 7.272804972026606 0 0 Z " fill="#565597" transform="translate(17,83)"/>
<path d="M0 0 C6.926481876391264 3.0227409943023247 11.61158971704721 9.692153110093379 14.3359375 16.5859375 C16.44279035739035 24.244967299219027 15.486318413429956 30.93211851691069 11.625 37.83203125 C8.560610788576398 41.92033897197139 4.711581744593076 44.23919648892712 -0.171875 45.609375 C-4.203427932383519 46.16621932767728 -8.18470159431088 46.18431901533202 -12.25 46.1875 C-13.0582421875 46.19974609375001 -13.866484374999999 46.2119921875 -14.69921875 46.224609375 C-24.905107266242382 46.249103507438974 -32.763492431872294 44.22918568063915 -40.64453125 37.62109375 C-42.65997751181126 35.58343871395391 -43.94242679026511 33.81057018968855 -44.1484375 30.91015625 C-43.81615332282143 27.507320139263896 -43.451746146618895 25.451746146618902 -41 23 C-40.360625 23.886875000000003 -39.72125 24.773750000000007 -39.0625 25.6875 C-34.04584403816122 31.73615375970276 -27.05411157552342 34.502126648619935 -19.4375 35.4375 C-12.800315269108353 35.338252377855824 -6.878646290537972 31.513193148184513 -2 27.25390625 C0.3698650692395944 24.696047076710144 1.8277606650485723 22.430598337378584 3.125 19.1875 C2.881893516633795 12.98828467416186 -0.222991964449335 7.453490893343833 -3 2 C-2.009999999999991 1.3400000000000034 -1.0200000000000102 0.6799999999999997 0 0 Z " fill="#2AA05F" transform="translate(84,49)"/>
<path d="M0 0 C0 13.86 0 27.72 0 42 C-11.549999999999997 42 -23.099999999999994 42 -35 42 C-35 40.349999999999994 -35 38.7 -35 37 C-33.34765625 35.47265625 -33.34765625 35.47265625 -31.0625 34.0625 C-25.05761263313164 29.74236943355396 -21.845489632487485 23.95330042829832 -18.0908203125 17.76025390625 C-7.084882108183081 0 -7.084882108183081 0 0 0 Z " fill="#9CA29E" transform="translate(128,86)"/>
<path d="M0 0 C0.3299999999999983 0.6599999999999966 0.6599999999999966 1.3200000000000003 1 2 C0.3400000000000034 2 -0.3200000000000003 2 -1 2 C-1.2771484375000028 2.703828125000001 -1.5542968749999986 3.4076562500000023 -1.83984375 4.1328125 C-2.6177537662602646 6.055324122676872 -3.4229067666133233 7.967020456991207 -4.25390625 9.8671875 C-8.865264338605176 20.46642847977906 -11.378165691130366 31.835677487617573 -7 43 C-5.719375152513429 44.70749979664876 -4.382324432016283 46.37373596233378 -3 48 C-1.6000673420497833 50.298836785686674 -0.3113629077650728 52.64859064814539 1 55 C1.4949999999999974 55.495000000000005 1.4949999999999974 55.495000000000005 2 56 C2.5 58.125 2.5 58.125 2 61 C-0.12645663101274351 63.56769638194788 -2.506303687447776 65.79256984577647 -5 68 C-15 56.076923076923094 -15 56.076923076923094 -15 52 C-15.66 52 -16.32 52 -17 52 C-23.164179191528554 44.165375302370194 -24.446152909528223 33.7340454990172 -24 24 C-22.98651672813583 20.056541392414758 -21.417566053120773 17.244298485794197 -19 14 C-18.543671875 13.291015625 -18.08734375 12.58203125 -17.6171875 11.8515625 C-16.3125 9.875 -16.3125 9.875 -14 7 C-13.34 7 -12.68 7 -12 7 C-11.566875 6.071874999999999 -11.566875 6.071874999999999 -11.125 5.125 C-10 3 -10 3 -8 1 C-5.344626275816694 0.434799970354554 -2.708552870907951 0.26211801976528903 0 0 Z " fill="#3D656B" transform="translate(40,40)"/>
<path d="M0 0 C9 1 9 1 12 4 C16.9913162112237 14.184593193999802 20.397407948424608 28.105682886106422 17.1875 39.375 C14.497210986083772 44.85568180509446 9.664199948815389 50.143883324991535 5 54 C3.3499999999999996 54 1.6999999999999997 54 0 54 C0 36.18000000000001 0 18.36 0 0 Z " fill="#A190C4" transform="translate(0,48)"/>
<path d="M0 0 C2.8242371925007603 2.5297440835391427 5.44489403814498 5.200256233286517 8 8 C7 11 7 11 5.375 11.875 C3 12 3 12 0.125 10.5625 C-6.730250652496423 7.35648838019025 -15.804660980643888 8.14476299009263 -23 9.9375 C-27.185358311461357 11.656764287793607 -29.48382039857431 14.135597627451546 -31.7890625 17.98828125 C-33.889258636671016 23.21167228668825 -34.595765732825335 28.654771470989516 -35.359375 34.20703125 C-35.88634759998013 37.32709463158966 -36.361199228214545 39.35430892351586 -38 42 C-46.19373892498523 33.56526875369167 -46.19373892498523 33.56526875369167 -47 27 C-46.417412211039526 19.343131916519496 -43.320853207906694 13.173390809687035 -37.80078125 7.8984375 C-27.030768908937475 -1.1301128769660735 -13.105627215488894 -9.017860692699351 0 0 Z " fill="#437E40" transform="translate(77,39)"/>
<path d="M0 0 C13.530000000000001 0 27.060000000000002 0 41 0 C41 9.9 41 19.8 41 30 C34.2340425531915 28.872340425531917 34.2340425531915 28.872340425531917 30.75 26 C29.980429687499992 25.3709375 29.210859375 24.741875 28.41796875 24.09375 C25.92655723144881 21.93640496939671 23.491687715494024 19.727073195994517 21.0625 17.5 C15.7646196219292 12.663521334482795 10.081482882543497 8.601742076521756 4.0390625 4.75 C2.666246101404127 3.873459952070237 1.3277553088213665 2.9434050878467595 0 2 C0 1.3399999999999999 0 0.6799999999999999 0 0 Z " fill="#955675" transform="translate(87,0)"/>
<path d="M0 0 C0.9899999999999984 0.7837500000000013 1.9800000000000004 1.567499999999999 3 2.375 C6.877450878213686 5.174059631921125 10.33323602762156 6.099396426383109 15 7 C10.842263260858587 12.690392635138636 6.451759795980962 18.15765698069643 1.953125 23.58203125 C-0.09024259929159228 26.036432387694717 -0.09024259929159228 26.036432387694717 -2 29 C-2.66 29 -3.3200000000000003 29 -4 29 C-4.247500000000002 29.536249999999995 -4.494999999999997 30.072500000000005 -4.75 30.625 C-6 33 -6 33 -7.9375 35.8125 C-10.100498893670707 39.155316472036546 -11.526000243806429 42.315000609516076 -13 46 C-15.5691919169396 43.74113182583681 -16.680001311246286 41.79979195117832 -17.75 38.5625 C-18.01296875 37.8006640625 -18.275937499999998 37.038828125 -18.546875 36.25390625 C-19.06487901806225 33.67728281532828 -19.006805640450118 32.42217009151767 -18 30 C-16.36328125 28.17578125 -16.36328125 28.17578125 -14.3125 26.3125 C-6.296644703105521 18.511739210177822 -2.833921492882066 10.78557179938057 0 0 Z " fill="#426DA5" transform="translate(30,18)"/>
<path d="M0 0 C3.789623118154509 3.789623118154509 4.912061793444025 9.329174075436441 5.1875 14.5625 C5.125624999999999 15.366874999999993 5.063749999999999 16.17125 5 17 C1.7000000000000028 17 -1.6000000000000014 17 -5 17 C-6 15 -6 15 -5.546875 13.046875 C-3.9753557726309694 8.517201932877498 -2.2805567949472874 4.235319762044966 0 0 Z " fill="#A190C4" transform="translate(33,111)"/>
<path d="M0 0 C0.6600000000000001 0 1.3200000000000003 0 2 0 C6 6.75 6 6.75 6 9 C6.66 9 7.32 9 8 9 C8 9.659999999999997 8 10.319999999999993 8 11 C4.916864899238881 9.801003016370672 1.9372050789833182 8.5229952261395 -1 7 C-0.6700000000000017 4.689999999999998 -0.33999999999999986 2.3799999999999955 0 0 Z " fill="#426DA5" transform="translate(17,83)"/>
</svg>
