<?xml version="1.0" encoding="UTF-8"?>
<!-- Generator: visioncortex VTracer 0.6.0 -->
<svg version="1.1" xmlns="http://www.w3.org/2000/svg" width="128" height="128">
<path d="M0 0 C42.24 0 84.48 0 128 0 C128 42.24 128 84.48 128 128 C85.75999999999999 128 43.519999999999996 128 0 128 C0 85.75999999999999 0 43.519999999999996 0 0 Z " fill="#4E7D90" transform="translate(0,0)"/>
<path d="M0 0 C1.3714880919221883 0.9939025603983183 2.7266455963615925 2.0112499878567576 4.0546875 3.0625 C9.434065578587933 7.008141916917381 14.353351475250292 7.163175260213151 20.91796875 7.4296875 C27.094352984353208 7.738506711717662 31.762097004556978 9.036706045220669 36.19921875 13.59375 C40.57541596608402 19.257064044344034 40.87501407082895 25.27278090820144 40.63671875 32.2578125 C39.58742180201634 40.258701728375414 34.421923753769164 44.85238412470757 28.47265625 49.90234375 C25.4529308576996 52.14897793361868 22.753734998588527 53.36334052933475 19.19921875 54.59375 C15.676188446667254 55.85397546621601 13.125409442440173 57.25755462791645 10.26171875 59.65625 C6.279111645216219 62.8409947386739 2.1622684407564066 65.69894945309673 -2.11328125 68.46875 C-2.7119702148437455 68.86199462890625 -3.310659179687491 69.2552392578125 -3.927490234375 69.660400390625 C-6.820118843674692 71.51439924199535 -9.371758504316375 73.0688131846114 -12.80078125 73.59375 C-12.80078125 74.25375 -12.80078125 74.91375 -12.80078125 75.59375 C-14.675781250000021 77.71875000000003 -14.675781250000021 77.71875000000003 -16.80078125 79.59375 C-17.460781249999997 79.59375 -18.12078125 79.59375 -18.80078125 79.59375 C-18.80078125 80.25375 -18.80078125 80.91375 -18.80078125 81.59375 C-25.285545711094848 80.90388144030906 -31.654939882690314 79.66338247849322 -37.17578125 76.03125 C-42.058353553838124 68.70739154424281 -42.68197415384738 59.11702587796273 -43.80078125 50.59375 C-44.0005859375 49.43359375 -44.200390625 48.2734375 -44.40625 47.078125 C-45.17019746098535 40.88215576700833 -44.46134250147575 34.666817825457784 -43.98828125 28.46875 C-43.90513671875 27.2196484375 -43.8219921875 25.970546874999997 -43.736328125 24.68359375 C-43.603876953124995 22.871816406249998 -43.603876953124995 22.871816406249998 -43.46875 21.0234375 C-43.38906982421875 19.932729492187505 -43.3093896484375 18.842021484374996 -43.227294921875 17.71826171875 C-42.29182102793473 10.865259489415415 -39.947871144088396 6.134674348710213 -34.80078125 1.59375 C-22.254969668558516 -6.4312432701979105 -12.363877524052668 -8.564451663520355 0 0 Z " fill="#184F6C" transform="translate(73.80078125,32.40625)"/>
<path d="M0 0 C42.24 0 84.48 0 128 0 C128 7.92 128 15.84 128 24 C121.99903674166721 23.249879592708403 118.9461795858118 22.832874210725578 113.8125 20.5 C107.92449790513676 17.845383066011856 103.0107597419436 16.932052026340152 96.618408203125 16.710205078125 C89.25219541357393 16.445200618424625 82.80851921498234 16.00074970409906 76 13 C74.1302657945685 12.209346484866076 72.26005436424349 11.419699784576443 70.383544921875 10.645263671875 C69.07966982161184 10.104663457094688 67.78117021681199 9.550839666944348 66.489501953125 8.981689453125 C60.3996501251231 6.41928395647336 55.697367658400026 6.178216332282481 49.58203125 8.57421875 C47.986600430481055 9.26589870870682 46.39687937234413 9.97086713050685 44.8125 10.6875 C43.13036159888159 11.424828924781611 41.44806991704324 12.161808254753684 39.765625 12.8984375 C38.95287109375 13.259052734375 38.1401171875 13.61966796875 37.302734375 13.9912109375 C33.355990442452466 15.720212838399746 29.350084872357037 17.299318691161297 25.34765625 18.89453125 C22.95895304649473 20.019328265960052 21.04720137505858 21.34228937379247 19 23 C19.5775 24.175625 20.155 25.35125 20.75 26.5625 C22.210683297180044 30.396793655097618 22.210683297180044 30.396793655097618 21.34375 32.87890625 C20.25 34.625 20.25 34.625 19.078125 36.1640625 C14.622640127495831 43.751301232162895 16.60534073479773 55.72418714630217 18.4375 63.8125 C20.573664043460656 73.4443661809419 20.484650324385917 83.29338483674363 20.620849609375 93.114501953125 C20.761656788201382 101.06353005884264 21.344006839474634 108.64970736079142 22.577880859375 116.497802734375 C23 119.99999999999999 23 119.99999999999999 23 128 C15.41 128 7.8199999999999985 128 0 128 C0 85.75999999999999 0 43.519999999999996 0 0 Z " fill="#AEDFD6" transform="translate(0,0)"/>
<path d="M0 0 C-4.888448995766055 2.631441693465554 -9.630547082898048 5.025531183081526 -15 6.5 C-22.170241532256313 8.529313641204617 -30.209172009824655 11.386248767770816 -34.88671875 17.5 C-37.69689255206913 23.810565730962267 -37.58746879659115 31.192588543121744 -38 38 C-38.13326646378938 39.79172995050487 -38.2673909405605 41.58339627564254 -38.40234375 43.375 C-38.521244079311444 45.14563345611961 -38.637200620909844 46.91646741297137 -38.75 48.6875 C-38.80712158203125 49.51209716796875 -38.8642431640625 50.336694335937494 -38.923095703125 51.186279296875 C-39.185478437955744 56.24814424634144 -38.561996731734844 60.120890208871884 -37 65 C-36.649257371600456 67.32789181515547 -36.3365038862932 69.66183350363139 -36.0625 72 C-35.0651572990006 79.36131417615078 -35.0651572990006 79.36131417615078 -32 86 C-26.85553937947192 89.69345890704581 -20.095456204358292 90.6092891184231 -14 92 C-14 91.34 -14 90.68 -14 90 C-12.124999999999979 87.87499999999997 -12.124999999999979 87.87499999999997 -10 86 C-9.340000000000003 86 -8.68 86 -8 86 C-8 85.34 -8 84.68 -8 84 C-6.844999999999999 83.401875 -5.689999999999998 82.80375 -4.5 82.1875 C0.3142676944449363 79.51888835467669 4.8399017650399685 76.48546807481198 9.375 73.375 C10.076894531249991 72.89571044921875 10.77878906250001 72.4164208984375 11.501953125 71.922607421875 C12.169042968750006 71.46088134765625 12.836132812499997 70.9991552734375 13.5234375 70.5234375 C14.120756835937499 70.1101318359375 14.718076171874998 69.696826171875 15.33349609375 69.27099609375 C17.055151314643098 68.01900756416254 17.055151314643098 68.01900756416254 18.595703125 66.38623046875 C20.354058028029414 64.65049696050922 21.74378419224321 64.34743765786013 24.125 63.75 C28.965553889726024 62.27644349674462 32.30115411120556 59.742950531373126 36.15234375 56.5234375 C38.000000000000014 55 38.000000000000014 55 40 54 C39.09562491907087 56.7884898328648 38.19087594936758 59.549407594935545 37.046875 62.25 C34.69965330462216 67.99543817973081 33.61893624730568 73.24600835329673 33.0625 79.375 C32.43802319889245 86.20478819777531 30.886483897629432 91.9306659674483 28.12109375 98.265625 C26.774207929574175 101.30333178619088 26.774207929574175 101.30333178619088 26 106 C2.239999999999995 106 -21.520000000000003 106 -46 106 C-47.76641741331894 92.4574664978881 -49.384800350698264 80.01525904623628 -49.5 66.5625 C-49.66166613297724 56.8945209722564 -50.23650991052926 47.7144558884286 -52.359375 38.265625 C-54.21243781440202 28.819524311950644 -54.078705403066074 18.16428003094955 -49.0625 9.75 C-40.289354691482245 0.6500613132280009 -11.213523045152016 -7.475682030101343 0 0 Z " fill="#58929F" transform="translate(69,22)"/>
<path d="M0 0 C1.5136484912814865 0.9696417123849699 3.0340702200581404 1.9288291838455152 4.5625 2.875 C5.223789062500003 3.284921875000002 5.885078125000007 3.694843750000004 6.56640625 4.1171875 C7.039492187500002 4.408515625 7.5125781250000045 4.699843749999999 8 5 C5.866002470529196 8.20099629420622 5.597227831519092 8.370988363185589 2.1875 9.375 C-1.8796166834994494 10.794793460421623 -4.293865585520763 12.555828927026418 -7 16 C-7.34820040682925 17.66362416596202 -7.684044918973015 19.329951714571664 -8 21 C-10.751604066008497 22.96543147572035 -13.700036088250862 23.450006014708478 -17 24 C-17 24.659999999999997 -17 25.32 -17 26 C-19.9618727220562 28.172039996174547 -22.506859908719335 29.83561996957311 -26 31 C-27.050211030069896 32.849716964670904 -27.050211030069896 32.849716964670904 -28 35 C-28.86625 35.928124999999994 -28.86625 35.928124999999994 -29.75 36.875 C-31.286087363268216 38.98286006059847 -31.286087363268216 38.98286006059847 -30.625 41.6875 C-26.794639916311368 49.49554170905759 -22.247178963429846 54.99130693371171 -14 58 C-13.242031249999997 58.2848828125 -12.4840625 58.569765625 -11.703125 58.86328125 C-7.5052018517152845 60.34945874041624 -3.432531919053403 61.43172667704444 1 62 C-2.6545526407336126 66.13123341995974 -7.186219581281193 69.34045280733768 -12 72 C-12.990000000000002 72 -13.979999999999997 72 -15 72 C-15 72.66 -15 73.32 -15 74 C-16.87500000000002 76.12500000000003 -16.87500000000002 76.12500000000003 -19 78 C-19.659999999999997 78 -20.32 78 -21 78 C-21 78.66 -21 79.32 -21 80 C-27.484764461094848 79.31013144030906 -33.854158632690314 78.06963247849322 -39.375 74.4375 C-44.257572303838124 67.11364154424281 -44.88119290384738 57.52327587796273 -46 49 C-46.1998046875 47.83984375 -46.399609375 46.6796875 -46.60546875 45.484375 C-47.36941621098535 39.28840576700833 -46.66056125147575 33.073067825457784 -46.1875 26.875 C-46.10435546875 25.6258984375 -46.0212109375 24.376796874999997 -45.935546875 23.08984375 C-45.803095703124995 21.278066406249998 -45.803095703124995 21.278066406249998 -45.66796875 19.4296875 C-45.58828857421875 18.338979492187505 -45.5086083984375 17.248271484374996 -45.426513671875 16.12451171875 C-44.49103977793473 9.271509489415415 -42.147089894088396 4.540924348710213 -37 0 C-22.867607544239362 -9.039857932908959 -13.405880491247018 -9.502608528457593 0 0 Z " fill="#185870" transform="translate(76,34)"/>
<path d="M0 0 C2.449020391843259 4.9855057976809185 2.449020391843259 4.9855057976809185 3 8 C2.2906450309762043 10.030950833931229 1.3775196406150947 11.457524205325512 0.078125 13.1640625 C-4.377359872504172 20.751301232162902 -2.3946592652022716 32.72418714630217 -0.5625 40.8125 C1.5736640434606564 50.4443661809419 1.4846503243859175 60.29338483674363 1.620849609375 70.114501953125 C1.7616567882013783 78.0635300588426 2.344006839474634 85.64970736079142 3.577880859375 93.497802734375 C4 96.99999999999999 4 96.99999999999999 4 105 C-3.59 105 -11.180000000000001 105 -19 105 C-19 72.66 -19 40.31999999999999 -19 7 C-17.02 6.34 -15.04 5.68 -13 5 C-10.385700957388252 3.73686869097822 -7.833098872448199 2.3859480950339105 -5.26953125 1.0234375 C-3 0 -3 0 0 0 Z " fill="#8FB3B4" transform="translate(19,23)"/>
<path d="M0 0 C0.49500000000000455 0.9899999999999949 0.49500000000000455 0.9899999999999949 1 2 C0.30076784646757915 3.4628672685744277 -0.4631592897059136 4.894830099556344 -1.25 6.3125 C-3.9534040294741715 11.949543017502478 -4.771918546731541 17.24289992759168 -5.5 23.375 C-6.4097404707813155 30.984166049924966 -7.792395952148098 37.36831087393388 -10.9140625 44.40625 C-12.236291067490285 47.324354891698775 -12.236291067490285 47.324354891698775 -13 52 C-23.89 52 -34.78 52 -46 52 C-48 47 -48 47 -48 44 C-48.99 43.67 -49.980000000000004 43.34 -51 43 C-52.75 41.6875 -52.75 41.6875 -54 40 C-53.90546874840911 37.069531200682434 -52.98397202625696 35.98138686920163 -51.0625 33.75 C-49 32 -49 32 -47 32 C-47 31.340000000000003 -47 30.680000000000007 -47 30 C-45.845 29.401875000000004 -44.69 28.803750000000008 -43.5 28.1875 C-38.68573230555508 25.518888354676704 -34.16009823496002 22.485468074811962 -29.625 19.375 C-28.923105468749995 18.895710449218754 -28.221210937500004 18.416420898437508 -27.498046875 17.922607421875 C-26.830957031249994 17.460881347656255 -26.163867187500003 16.999155273437495 -25.4765625 16.5234375 C-24.58058349609375 15.903479003906256 -24.58058349609375 15.903479003906256 -23.66650390625 15.27099609375 C-21.944848685356902 14.019007564162536 -21.944848685356902 14.019007564162536 -20.404296875 12.38623046875 C-18.645941971970586 10.650496960509216 -17.256215807756803 10.347437657860127 -14.875 9.75 C-9.01000682566982 7.961657818974729 -4.3125938276097315 4.312593827609746 0 0 Z " fill="#377898" transform="translate(108,76)"/>
<path d="M0 0 C8.038258034583947 3.28201074939029 14.75778791511091 5.819518022297704 23.5 6 C34.165103401849734 6.402456732145273 43.21866350858943 9.373009035007879 52.9375 13.625 C54.587500000000006 13.954999999999998 56.2375 14.285 57.9375 14.625 C57.9375 20.895 57.9375 27.165 57.9375 33.625 C55.957499999999996 32.965 53.977500000000006 32.305 51.9375 31.625 C51.9375 30.965000000000003 51.9375 30.305 51.9375 29.625 C51.421875 29.398125 50.90625 29.17125 50.375 28.9375 C47.72116259402348 27.508510627551104 45.47060617690687 25.805843738696268 43.109375 23.94140625 C37.33066952973989 20.438845560291984 31.525585700445077 19.243708185527158 24.875 18.75 C17.494026210230146 18.057522729293858 11.05232931955588 16.30043393088464 4.109375 13.74609375 C-10.559375264390525 8.5614492599999 -28.759233412553634 11.979620141664029 -42.625 18.375 C-43.4512890625 18.80296875 -44.277578125 19.2309375 -45.12890625 19.671875 C-47.0625 20.625 -47.0625 20.625 -49.0625 20.625 C-50.0525 17.985 -51.042500000000004 15.344999999999999 -52.0625 12.625 C-43.698813928335866 8.269181984248878 -35.32648083619973 4.389937081269972 -26.53515625 0.984375 C-23.020919836703342 -0.34320549784247234 -23.020919836703342 -0.34320549784247234 -19.55859375 -2.046875 C-12.20596996675819 -4.840050515421469 -6.881849355995456 -2.8927873856728183 0 0 Z " fill="#7DAEB1" transform="translate(70.0625,9.375)"/>
<path d="M0 0 C4.173784276111547 3.4781535634262895 6.601043120984556 7.202086241969113 9 12 C9 12.989999999999995 9 13.980000000000004 9 15 C9.659999999999997 15 10.319999999999993 15 11 15 C11.8937279251153 17.075368201945594 12.764416961683395 19.16067005670729 13.625 21.25 C14.355898437500002 22.990234375 14.355898437500002 22.990234375 15.1015625 24.765625 C16 28 16 28 15.40625 30.1875 C11.675017973584488 34.99664350071332 7.2144117185269465 38.600679854036116 1.1875 39.6875 C-7.703238845369924 38.78245472831563 -16.676432211809527 35.408069807631776 -23 29 C-29.558048684727133 20.74862583431488 -29.558048684727133 20.74862583431488 -30 16 C-27.15505261328577 10.229804292269108 -22.373613513353973 6.306839085140908 -17 3 C-16.340000000000003 3 -15.68 3 -15 3 C-15 2.3400000000000034 -15 1.6799999999999997 -15 1 C-5.423514538558777 -2.9582806573957043 -5.423514538558777 -2.9582806573957043 0 0 Z " fill="#145565" transform="translate(74,57)"/>
<path d="M0 0 C2.401044451034423 2.291574339285134 4.4198898530157535 4.741771612176457 6.4375 7.375 C8.27565716563786 9.770757142661893 10.11166249044399 12.131964761433807 12.0625 14.4375 C13.92579506144623 16.901857984493404 15.400409336956912 19.38624569835646 16.9375 22.0625 C21.757035330102042 30.155003352783268 28.366845238701956 33.40890460468144 37.25 35.91796875 C40.15969412621243 36.648823524626465 43.07214857910839 37.34606364203435 46 38 C43.331914775372766 40.79571572512194 40.64729937159677 43.09927148705191 37.4375 45.25 C36.67308593749999 45.77078125 35.90867187500001 46.2915625 35.12109375 46.828125 C33 48 33 48 30 48 C30 48.66 30 49.31999999999999 30 50 C28.125 52.125 28.125 52.125 26 54 C25.340000000000003 54 24.68 54 24 54 C24 54.66 24 55.31999999999999 24 56 C17.515235538905152 55.31013144030905 11.145841367309686 54.06963247849322 5.625 50.4375 C0.7306058539498856 43.09590878092483 0.16050408254301374 33.53246811164958 -1 25 C-1.2268749999999997 23.721249999999998 -1.4537499999999994 22.442499999999995 -1.6875 21.125 C-2.432900466860083 15.05717865573547 -2.739807867522316 5.479615735044632 0 0 Z " fill="#236C84" transform="translate(31,58)"/>
<path d="M0 0 C18.48 0 36.96 0 56 0 C55 5.999999999999999 55 5.999999999999999 52.91015625 7.65234375 C51.9704296875 8.0764453125 51.030703125 8.500546875 50.0625 8.9375 C48.43634765625 9.68193359375 48.43634765625 9.68193359375 46.77734375 10.44140625 C41.84450517442026 12.523045648899984 36.816648826430836 14.36623332612043 31.803955078125 16.244873046875 C25.489093427039663 18.67038279711234 19.798662296659703 21.710952719408393 14.015625 25.203125 C5.96521739130435 30 5.96521739130435 30 0 30 C0 20.1 0 10.2 0 0 Z " fill="#C8E4CD" transform="translate(0,0)"/>
<path d="M0 0 C-4.888448995766055 2.631441693465554 -9.630547082898048 5.025531183081526 -15 6.5 C-22.171559012316223 8.529686512919685 -30.202678435868833 11.387049621992311 -34.88671875 17.49609375 C-37.68601632887517 23.79205777827714 -37.608852709259025 31.20365338679303 -38 38 C-38.0549462890625 38.886552734375 -38.109892578125 39.77310546875 -38.16650390625 40.6865234375 C-38.49829993762153 46.12249735560469 -38.77076902376006 51.55878051135724 -39 57 C-46.662269129287594 54.56200527704485 -46.662269129287594 54.56200527704485 -49 53 C-54.25821218980112 42.44297166526415 -54.70299010449428 26.248749652846577 -51.734375 14.99609375 C-49.708974180820405 9.49088194893206 -46.42216773620687 6.957271865036077 -41.375 4.375 C-30.977957770713438 0.033532366419528614 -10.172444934220998 -6.781629956147331 0 0 Z " fill="#528796" transform="translate(69,22)"/>
<path d="M0 0 C8.04016835677423 1.148595479539182 10.526043462968214 2.8019205964101417 15.48046875 8.7890625 C19.266388560149608 14.18483090977334 20.173050484318175 19.561033868186172 21 26 C21.1843359375 27.240078124999997 21.368671875 28.480156249999993 21.55859375 29.7578125 C22.50521729883345 36.32542139742381 23 42.3131385179052 23 49 C15.41 49 7.8199999999999985 49 0 49 C0 32.83 0 16.659999999999997 0 0 Z " fill="#A9CDCC" transform="translate(0,79)"/>
<path d="M0 0 C0 16.5 0 33 0 50 C-8.579999999999998 50 -17.159999999999997 50 -26 50 C-22.713004484304918 40.13901345291478 -22.713004484304918 40.13901345291478 -20.625 35.4375 C-18.577035807521014 30.650765782952107 -17.01921798786711 25.8604463989098 -15.5625 20.875 C-9.345938831045913 0 -9.345938831045913 0 0 0 Z " fill="#99BBCC" transform="translate(128,78)"/>
<path d="M0 0 C0 6.599999999999994 0 13.200000000000003 0 20 C-1.980000000000004 20.989999999999995 -3.960000000000008 21.980000000000004 -6 23 C-11.358983526894178 29.278263352170384 -13.753122174137843 37.365152791932445 -16.125 45.125 C-18.29156419442471 52.09454987845058 -20.56397603539 58.55197204939145 -24 65 C-24.69040574450443 66.65697378681061 -25.369714133132746 68.319237688354 -26 70 C-28.310000000000002 70 -30.620000000000005 70 -33 70 C-32.66322336463533 65.45351542257698 -32.07214080825953 61.937168506045964 -30.125 57.8125 C-27.851778073480375 52.5703369808373 -27.334026218034964 47.43069310764642 -26.6875 41.8125 C-25.506914758636483 32.081251593353954 -22.807293617607357 24.489701752948974 -18 16 C-17.529492187499997 15.133749999999992 -17.058984374999994 14.267499999999998 -16.57421875 13.375 C-13.658580261424518 8.320023053862954 -13.658580261424518 8.320023053862954 -10.91796875 6.98828125 C-8.645209128476779 6.099738923709012 -8.645209128476779 6.099738923709012 -8 3 C-2.7777777777777715 0 -2.7777777777777715 0 0 0 Z " fill="#6590AE" transform="translate(128,58)"/>
</svg>
