<?xml version="1.0" encoding="UTF-8"?>
<!-- Generator: visioncortex VTracer 0.6.0 -->
<svg version="1.1" xmlns="http://www.w3.org/2000/svg" width="128" height="128">
<path d="M0 0 C42.24 0 84.48 0 128 0 C128 42.24 128 84.48 128 128 C85.75999999999999 128 43.519999999999996 128 0 128 C0 85.75999999999999 0 43.519999999999996 0 0 Z " fill="#EFD8E5" transform="translate(0,0)"/>
<path d="M0 0 C42.24 0 84.48 0 128 0 C128 42.24 128 84.48 128 128 C116.45 128 104.9 128 93 128 C93.84390811665773 122.9365513000536 95.07519976611725 119.1728370271493 97.1875 114.625 C100.00086635009322 108.40910336645214 102.48178299571629 102.14400113963143 104.790771484375 95.7255859375 C106.31637237125187 91.57349829763812 108.11968907289898 87.76423592986482 110.25 83.875 C113.58816602074873 77.44335028463072 114.46676349188691 71.16906860907599 115 64 C115.0708984375 63.1247265625 115.141796875 62.249453125 115.21484375 61.34765625 C115.59685767417659 51.919552601321804 113.64567964106902 42.302185683665485 108.0859375 34.5859375 C107 33.00000000000001 107 33.00000000000001 106 30 C105.34 30 104.68 30 104 30 C104 29.34 104 28.68 104 28 C103.2768359375 27.7215625 102.553671875 27.443125 101.80859375 27.15625 C99.1419221299237 26.058426913014486 96.6217772629634 24.82613418997156 94.0625 23.5 C80.55422459108543 16.725938585500067 61.597809583756394 15.378940147999193 47 20 C38.60656609956814 22.999168931593708 31.531130610529853 25.805495915783517 26.8125 33.75 C26.3239453125 34.54921875 25.835390625 35.3484375 25.33203125 36.171875 C21.583701587008846 44.1302054281689 21.587932699066954 52.15698242262405 21.375 60.8125 C21.322430419921872 62.74005126953125 21.322430419921872 62.74005126953125 21.268798828125 64.70654296875 C21.202213253434245 67.2812926728937 21.140352768127816 69.85616943189919 21.08349609375 72.43115234375 C21.010883617560577 75.53480490789329 20.91080630541875 78.63579808831906 20.80078125 81.73828125 C20.445719497253048 94.3016306656901 22.859328569804006 102.98069205686986 29.5390625 113.64453125 C35 122.44919786096257 35 122.44919786096257 35 128 C23.45 128 11.899999999999999 128 0 128 C0 85.75999999999999 0 43.519999999999996 0 0 Z " fill="#545E77" transform="translate(0,0)"/>
<path d="M0 0 C0.7425000000000068 0.5981249999999996 1.4849999999999994 1.1962499999999991 2.25 1.8125 C2.25 2.4725 2.25 3.1325000000000003 2.25 3.8125 C2.9099999999999966 3.8125 3.569999999999993 3.8125 4.25 3.8125 C13.823810076843117 15.093061733996201 15.037004417762276 28.506878844838013 14.046875 42.73046875 C13.124371506421 50.16063275806569 10.385746716647887 56.33080608263961 7.109375 62.9609375 C4.705753338830704 67.84468212777622 2.784167927368202 72.88506416402949 0.80078125 77.953125 C-1.1478116311208169 82.87615391193684 -3.3054700358086393 87.70753071654184 -5.478515625 92.534912109375 C-6.8642333167570655 95.6428676073919 -7.920447208178089 98.49428883271234 -8.75 101.8125 C-27.89 101.8125 -47.03 101.8125 -66.75 101.8125 C-68.07 98.1825 -69.39 94.5525 -70.75 90.8125 C-72.9747668094803 87.3804125693112 -72.9747668094803 87.3804125693112 -75.29296875 84.01171875 C-80.18992199833014 76.6203389140486 -81.92980504519348 69.63544713931637 -81.875 60.875 C-81.87089111328125 60.06812744140625 -81.86678222656249 59.261254882812494 -81.862548828125 58.429931640625 C-81.8378498571497 55.557149177832414 -81.79615747912686 52.68501884663273 -81.75 49.8125 C-81.7321142578125 48.63526367187501 -81.714228515625 47.45802734374999 -81.69580078125 46.2451171875 C-81.62805477014845 42.41276984416422 -81.53611538655667 38.581669268304054 -81.4375 34.75 C-81.4151025390625 33.52611572265625 -81.392705078125 32.3022314453125 -81.36962890625 31.041259765625 C-81.03612895439828 19.988226293507708 -79.21648573205036 10.324620495400964 -71.75 1.8125 C-52.998551625409746 -14.599586394134548 -20.150585731765844 -12.689166015050661 0 0 Z M-51 5.5625 C-51.941015625 5.98015625 -52.88203125 6.397812500000001 -53.8515625 6.828125 C-62.51607535145615 10.808461435963054 -68.56983641636992 15.130621787845214 -72.75 23.8125 C-75.40286375019758 32.5131894815846 -73.30967343773524 41.7590026853987 -71.5625 50.4375 C-71.36591796875 51.517734375 -71.1693359375 52.59796875000001 -70.966796875 53.7109375 C-68.89906679817366 64.14502157998518 -64.71975803124803 71.80819388742972 -55.75 77.8125 C-52.70240451926087 79.25609785929748 -49.64869504808394 80.50779871288104 -46.484375 81.671875 C-43.74999999999999 82.81250000000001 -43.74999999999999 82.81250000000001 -41.62109375 84.453125 C-38.97282983715548 86.37712466945698 -36.83141163003414 85.93089202250526 -33.703125 85.44921875 C-20.345464979590986 82.56919416888007 -7.0792114054889055 79.1116123162692 1.84375 68 C8.133833832096627 58.21542515007191 7.065434760926962 46.957583217247134 4.76025390625 36.085693359375 C1.7624683479965455 22.998896220174018 -1.9272219396952721 10.374437802580623 -13.65625 2.5390625 C-26.01337218196099 -4.37504157800198 -39.009465203109286 -0.048669487124342936 -51 5.5625 Z " fill="#B098B1" transform="translate(101.75,26.1875)"/>
<path d="M0 0 C16.830000000000002 0 33.660000000000004 0 51 0 C46.90137355626155 6.83104407289742 42.91763012777816 9.47769683768673 35.5625 11.875 C24.11165732908524 15.879666289281664 19.091611051439596 24.57552949318726 14 35 C10.276003030676758 46.10887231526933 13.908067907236015 56.61285285245144 17.432861328125 67.168212890625 C19.505737873992015 73.62673188632536 20.57012422451666 79.47359621773505 20.6875 86.25 C20.877670856927814 96.98138568221722 23.84373409725834 104.55224301313578 29.5390625 113.64453125 C35 122.44919786096257 35 122.44919786096257 35 128 C23.45 128 11.899999999999999 128 0 128 C0 85.75999999999999 0 43.519999999999996 0 0 Z " fill="#284054" transform="translate(0,0)"/>
<path d="M0 0 C0.6599999999999966 0 1.3200000000000003 0 2 0 C1.9071874999999991 0.5362500000000026 1.8143749999999983 1.072499999999998 1.71875 1.625 C0.7675390139233542 11.952433563117886 6.7905414179882655 22.232980778953703 12.9375 30.25 C19.153725973030596 36.599193373523235 26.637913595141235 37.46404935398779 35.1796875 37.7265625 C38 38 38 38 41 40 C48.394711376138105 39.689398229758325 56.267069242787215 37.66216429736042 61.6484375 32.3828125 C66.1097045864193 26.925120277527668 68.53574853098053 20.54226053721984 71 14 C75.69607018755684 21.04410528133525 75.82053161175968 30.784297406305058 75 39 C73.35959231433175 47.00558241808156 70.77695928953143 53.210455001205474 64 58 C57.34017071008989 62.22381637853012 50.21362080925968 64.7506852223785 42.6875 66.9375 C41.55864379882813 67.27322021484375 41.55864379882813 67.27322021484375 40.406982421875 67.61572265625 C35.618952940556625 68.91505079372156 31.930374816534993 69.16658930901824 27 68 C24.966647909742406 66.7181041170115 22.969188463952165 65.37843192476652 21 64 C19.551349121076214 63.37297200763001 18.092009121414435 62.77028444549342 16.625 62.1875 C9.101325655838991 58.939505679417834 3.1602514752268718 53.66829366840764 0 46 C-1.1737563009878897 41.56252169682543 -1.9731680267840055 37.08424837239876 -2.75 32.5625 C-2.970429687500001 31.373339843750003 -3.1908593749999987 30.184179687500006 -3.41796875 28.958984375 C-6.269394384425642 13.010482612265278 -6.269394384425642 13.010482612265278 -3.625 6.6875 C-3.3697656249999994 6.051992187499998 -3.114531249999999 5.416484374999996 -2.8515625 4.76171875 C-2 3 -2 3 0 0 Z " fill="#D0B4BE" transform="translate(33,43)"/>
<path d="M0 0 C2.7467716426824467 -0.05284793925314957 5.489705855988177 -0.08743875377665589 8.237060546875 -0.08007812499999994 C9.187744140625 -0.10843749999999996 10.138427734375 -0.13679687499999993 11.117919921875 -0.166015625 C18.222621813043773 -0.18587502930794908 18.222621813043773 -0.18587502930794908 21.576904296875 2.708984375 C22.351630859375007 3.60359375 23.126357421875 4.498203125 23.924560546875 5.419921875 C26.572228477756155 6.94464893247242 29.366377285190367 8.097849686982382 32.174560546875 9.294921875 C42.36105643997689 13.878086941936761 53.32852169148801 20.204060860201256 58.022216796875 30.927734375 C58.74751971898796 33.08002862759568 59.38832757506063 35.21370621953514 59.924560546875 37.419921875 C58.934560546875005 37.419921875 57.944560546874996 37.419921875 56.924560546875 37.419921875 C52.924560546875 33.077064732142865 52.924560546875 33.077064732142865 52.924560546875 30.419921875 C52.264560546875 30.419921875 51.60456054687501 30.419921875 50.924560546875 30.419921875 C50.924560546875 29.759921875 50.924560546875 29.099921875 50.924560546875 28.419921875 C50.201396484374996 28.141484375 49.478232421875006 27.863046875 48.733154296875 27.576171875 C46.066482676798714 26.478348788014493 43.54633780983838 25.246056064971544 40.987060546875 23.919921875 C27.47878513796043 17.145860460500067 8.522370130631387 15.798862022999195 -6.075439453125 20.419921875 C-14.468873353556866 23.41909080659371 -21.544308842595147 26.225417790783517 -26.262939453125 34.169921875 C-26.995771484375 35.368750000000006 -26.995771484375 35.368750000000006 -27.743408203125 36.591796875 C-31.658381188322142 44.9039389315476 -31.487979577734684 53.38152467610357 -31.700439453125 62.419921875 C-31.738695969198805 63.78062185772678 -31.77775192819979 65.14129961054381 -31.817626953125 66.501953125 C-31.911410129098066 69.80781007805055 -31.997113345345333 73.11366861002408 -32.075439453125 76.419921875 C-32.735439453125 76.419921875 -33.395439453125 76.419921875 -34.075439453125 76.419921875 C-44.68217252933026 45.236449024059155 -44.68217252933026 45.236449024059155 -38.403564453125 31.794921875 C-31.834909881719497 20.048621935545455 -25.755593765242537 14.161405198067303 -13.114501953125 9.642578125 C-8.145368487540111 7.643428028948495 -4.259499279168253 0.8618208163944705 0 0 Z " fill="#5D5B7D" transform="translate(53.075439453125,-0.419921875)"/>
<path d="M0 0 C6.411456780575307 6.231696310091884 11.890108271626616 14.501160627741896 13.046875 23.5625 C12.891517947521862 31.710114307742785 8.277328772504802 40.20720902931265 2.7578125 46.00390625 C-2.933958163253209 50.42728607256569 -10.268227530926055 51.99745355830454 -17.328125 52.625 C-18.4921875 50.890625 -18.4921875 50.890625 -19.328125 48.625 C-18.3515625 46.609375 -18.3515625 46.609375 -16.703125 44.375 C-12.139862265016262 37.261368715672006 -8.961702002901049 28.36828219365961 -9.5078125 19.80859375 C-11.033634940087907 14.242167440790396 -14.398100741668713 10.514050132481472 -19.328125 7.625 C-26.578514844385268 4.49038505849073 -34.559764170973764 3.659969702926695 -42.328125 2.625 C-31.82180297580158 -7.881322024198418 -11.297346501920629 -9.710116001650782 0 0 Z " fill="#D2C6D6" transform="translate(91.328125,31.375)"/>
<path d="M0 0 C18.480000000000004 0 36.96000000000001 0 56 0 C56 16.17 56 32.34 56 49 C46.68618659857705 45.89539553285902 42.839370257182594 39.93199890802088 38.4375 31.375 C31.17723571779399 17.421679582635324 18.16090399032811 11.7095018137855 4.328125 5.421875 C2 4 2 4 0 0 Z " fill="#383B5C" transform="translate(72,0)"/>
<path d="M0 0 C0.9899999999999949 0.3299999999999983 1.980000000000004 0.6599999999999966 3 1 C-0.39559409356969866 9.656899227562306 -3.9094388863232297 18.23797571006922 -7.726806640625 26.71875 C-9.11317884342968 29.827896453106916 -10.170119530773746 32.680478123095014 -11 36 C-30.14 36 -49.28 36 -69 36 C-70.32 32.370000000000005 -71.64 28.739999999999995 -73 25 C-74.5783618299638 22.043831380311758 -74.5783618299638 22.043831380311758 -76.25 19.8125 C-76.77078125 19.0764453125 -77.2915625 18.340390624999998 -77.828125 17.58203125 C-78.21484375 17.059960937499994 -78.6015625 16.537890625000003 -79 16 C-78.67 15.340000000000003 -78.34 14.680000000000007 -78 14 C-76.6580859375 14.723164062500004 -76.6580859375 14.723164062500004 -75.2890625 15.4609375 C-56.89589518833429 25.16695290353205 -44.16490772682702 21.75012395525087 -24.7265625 15.85546875 C-14.440095547480325 12.604037661699508 -6.478795778877256 8.988188510132531 0 0 Z " fill="#677689" transform="translate(104,92)"/>
<path d="M0 0 C4.696070187556842 7.044105281335263 4.820531611759677 16.784297406305043 4 25 C2.359592314331749 33.00558241808156 -0.22304071046858098 39.210455001205474 -7 44 C-13.659829289910107 48.22381637853012 -20.78637919074032 50.75068522237848 -28.3125 52.9375 C-29.065070800781257 53.1613134765625 -29.8176416015625 53.385126953124995 -30.593017578125 53.61572265625 C-35.38428765471622 54.91593019445135 -39.06230712844241 55.14137624166658 -44 54 C-46.43750000000001 52.5625 -46.43750000000001 52.5625 -48 51 C-48 50.34 -48 49.68000000000001 -48 49 C-46.59671313352957 48.11011076760411 -45.19326625852319 47.220472964515864 -43.7890625 46.33203125 C-38.47614737039926 42.376345531236126 -32.95613191737958 36.03348365146218 -31.41015625 29.51171875 C-30 27 -30 27 -26.515625 25.59375 C-25.09904711599694 25.209098701909284 -23.676711504671246 24.845172138226914 -22.25 24.5 C-15.028710337577309 22.714516292258125 -10.279900559133353 20.66342995826554 -6.171875 14.0625 C-5.70265624999999 13.051874999999995 -5.233437500000008 12.041250000000005 -4.75 11 C-4.270468749999992 9.989374999999995 -3.7909374999999983 8.978750000000005 -3.296875 7.9375 C-2.1375752336037124 5.311616191777091 -1.0421673860529665 2.6742408396830797 0 0 Z " fill="#ABADC0" transform="translate(104,57)"/>
<path d="M0 0 C16.830000000000002 0 33.660000000000004 0 51 0 C46.90137355626155 6.83104407289742 42.91763012777816 9.47769683768673 35.5625 11.875 C25.13669059213758 15.553861902774342 20.763072838360287 22.33058428497954 15.763427734375 31.781982421875 C13.030477427211293 36.81067921132018 9.978751687210401 40.99668212599304 5 44 C2.5249999999999995 44.495 2.5249999999999995 44.495 0 45 C0 30.15 0 15.299999999999997 0 0 Z " fill="#2A2644" transform="translate(0,0)"/>
<path d="M0 0 C1.363685459129547 2.7273709182590906 0.8383121033145091 4.638608040556406 0.625 7.6875 C0.5308318835161643 14.757352437555696 2.20209662017713 20.51450536394629 4.4375 27.1875 C7.212966010839597 35.50571484034924 8.650477064096744 42.9111847627027 8.78662109375 51.66796875 C8.884091157118977 57.49085565256229 9.779786827779542 62.568157710731086 12 68 C8.84164892502514 66.60249952434741 6.677271747064665 64.94801765943274 4.25 62.5 C3.3296093750000004 61.58734375 3.3296093750000004 61.58734375 2.390625 60.65625 C1 59 1 59 1 57 C0.33999999999999986 57 -0.3200000000000003 57 -1 57 C-2.1562253698542673 55.522600916297336 -3.3093198750374757 54.04089579361124 -4.390625 52.5078125 C-6.420535502547182 50.39554357510957 -6.420535502547182 50.39554357510957 -12 49 C-12 35.47 -12 21.939999999999998 -12 8 C-9.36 6.68 -6.72 5.359999999999999 -4 4 C-1.5792778768909965 1.9186334499969604 -1.5792778768909965 1.9186334499969604 0 0 Z " fill="#444154" transform="translate(12,37)"/>
<path d="M0 0 C6.71175143777133 8.763117604211828 9.825845258972652 16.887079724111487 11.443115234375 27.7421875 C12.783166498831477 35.98467542235392 16.317077052872392 42.32858463640173 22.83984375 47.6328125 C26.405550778940075 49.889589100594975 30.317505777512245 51.25083556325035 34.2421875 52.765625 C37.75105017057055 54.33616409900891 39.62278291208758 56.02847864010948 42 59 C34.37447862237598 62.689768408527755 27.21264157911584 62.42516886374608 19.203125 60.125 C5.541645298149092 55.326821763252354 5.541645298149092 55.326821763252354 1.29296875 49.765625 C-2.462895215767176 41.218711947158795 -1.3734666544866592 31.11650043048219 -1 22 C-0.9618115234375004 21.006455078125 -0.9236230468750009 20.01291015625 -0.88427734375 18.9892578125 C-0.634452507457322 12.65704423284258 -0.33812168995916636 6.32809130915598 0 0 Z " fill="#8F838F" transform="translate(21,54)"/>
<path d="M0 0 C0 11.879999999999995 0 23.760000000000005 0 36 C-11.549999999999997 36 -23.099999999999994 36 -35 36 C-33.966387668527716 29.798326011166267 -33.77789262015736 29.200893137766485 -29.5 25.3125 C-25.83173168577946 21.842516459521107 -22.559151811730374 18.344507859360846 -19.4375 14.375 C-7.9620028409090935 0 -7.9620028409090935 0 0 0 Z " fill="#1A2F43" transform="translate(128,92)"/>
<path d="M0 0 C13.120584718611 0.21638145712851653 24.299793888301622 3.2371053699443095 35 11 C35 11.66 35 12.32 35 13 C35.66 13 36.31999999999999 13 37 13 C46.58746462091632 24.296650514338737 47.776335575624074 37.71327509285001 46.796875 51.953125 C45.734818203119914 60.58810852245985 42.15299295683765 67.49352075181217 38 75 C37.34 75 36.68000000000001 75 36 75 C36.144375 74.41734375 36.28874999999999 73.8346875 36.4375 73.234375 C40.23591041795076 56.458062320717445 37.141211707541515 37.504450545631165 28.70703125 22.4296875 C22.46777220466133 13.549094533865784 10.204337024193421 4.590414878882871 0 1 C0 0.6700000000000017 0 0.33999999999999986 0 0 Z " fill="#8D889F" transform="translate(69,17)"/>
<path d="M0 0 C2.23828125 1.7500000000000036 2.23828125 1.7500000000000036 4.3125 4 C5.009882812500003 4.7425 5.707265624999998 5.484999999999999 6.42578125 6.25 C7.205019531250002 7.116250000000001 7.205019531250002 7.116250000000001 8 8 C4.217542688731534 10.52163820751231 0.233577938706091 11.944349422307159 -3.9921875 13.5859375 C-9.104085924615674 15.989193642481656 -12.31358360307663 18.911341830381026 -15.1875 23.75 C-15.676054687499999 24.54921875 -16.164609374999998 25.348437500000003 -16.66796875 26.171875 C-20.58294173519714 34.48401705654759 -20.412540124609684 42.96160280110357 -20.625 52 C-20.663256516073805 53.36069998272678 -20.70231247507479 54.72137773554381 -20.7421875 56.08203125 C-20.835970675973066 59.38788820305054 -20.921673892220333 62.69374673502409 -21 66 C-21.66 66 -22.32 66 -23 66 C-33.60673307620526 34.81652714905914 -33.60673307620526 34.81652714905914 -27.328125 21.375 C-21.84427326105934 11.568582772717875 -12.99658539030522 -1.627053438175615 0 0 Z " fill="#725C76" transform="translate(42,10)"/>
</svg>
