<?xml version="1.0" encoding="UTF-8"?>
<!-- Generator: visioncortex VTracer 0.6.0 -->
<svg version="1.1" xmlns="http://www.w3.org/2000/svg" width="128" height="128">
<path d="M0 0 C42.24 0 84.48 0 128 0 C128 42.24 128 84.48 128 128 C85.75999999999999 128 43.519999999999996 128 0 128 C0 85.75999999999999 0 43.519999999999996 0 0 Z " fill="#337DB4" transform="translate(0,0)"/>
<path d="M0 0 C42.24 0 84.48 0 128 0 C128 7.92 128 15.84 128 24 C125.03 24.66 122.06 25.32 119 26 C116.5981105312398 27.222335037598853 116.5981105312398 27.222335037598853 114.8125 28.8125 C114.1589453125 29.35390625 113.505390625 29.8953125 112.83203125 30.453125 C111.92517578125 31.218828125 111.92517578125 31.218828125 111 32 C110.01 32.680625 109.02 33.36125 108 34.0625 C103.10427255626479 38.11973268817835 100.14350590581314 44.55072453383153 97 50 C93.29554049981928 49.50696042623494 89.70670645950973 49.01201193785292 86.125 47.9375 C78.28738319564926 45.978095798912314 72.43469521200562 46.47061483438937 65.3046875 50.46875 C61.69668704044879 52.86592996634589 58.90806606912861 55.04200421348043 57 59 C56.251117391396626 63.010794105137514 56.013384552044556 66.9244039024335 56 71 C52.04247123594297 72.31917625468567 50.99282260727741 71.31878307357671 47.30078125 69.5078125 C46.17349609375 68.9676953125 45.0462109375 68.427578125 43.884765625 67.87109375 C41.522101842449786 66.71624332813019 39.16011081686172 65.56001541993999 36.798828125 64.40234375 C35.66509765625 63.8596484375 34.5313671875 63.316953125 33.36328125 62.7578125 C31.820877685546876 62.00201904296875 31.820877685546876 62.00201904296875 30.247314453125 61.23095703125 C20.764396528403562 57.636274512909615 9.787503174251308 59 0 59 C0 39.53 0 20.059999999999995 0 0 Z " fill="#63A7A8" transform="translate(0,0)"/>
<path d="M0 0 C0 25.740000000000002 0 51.480000000000004 0 78 C-13.60207388204796 76.48865845755023 -13.60207388204796 76.48865845755023 -17.4453125 72.5 C-19.21587290329066 70.79172061592057 -20.71098342029211 70.23338121739046 -23 69.375 C-25.52280197404619 68.173228877818 -26.72651728079697 67.55352902366693 -27.9765625 65.0234375 C-28.41678132336554 63.480019697597925 -28.839402344867693 61.93149545072521 -29.24609375 60.37890625 C-31.042456191123463 54.71059160417518 -34.75909461923989 50.36016576262912 -39.9375 47.5 C-46.0901965865927 44.866459415587215 -51.39847664694416 46.039914738388916 -57.65625 47.55078125 C-62.52623319847939 48.48419469637521 -67.29081016826059 48.56972994391313 -72 47 C-73.04220036137322 37.07428227263602 -73.04220036137322 37.07428227263602 -70.79296875 32.59765625 C-66.18623899261499 26.97679863033352 -60.03169861859509 23.050983260445925 -52.88671875 21.55859375 C-45.491712241035515 21.126870206162152 -38.01471184178821 23.929782012436682 -31 26 C-30.730585937499995 25.272968750000004 -30.46117187499999 24.5459375 -30.18359375 23.796875 C-26.01796197757058 13.95333589419318 -18.071876295930167 5.592064150313735 -8.5390625 0.75 C-6 0 -6 0 0 0 Z " fill="#3D6381" transform="translate(128,24)"/>
<path d="M0 0 C13.530000000000001 0 27.060000000000002 0 41 0 C41.99 1.98 42.98 3.96 44 6 C45.851506327951725 7.9688932633547855 45.851506327951725 7.9688932633547855 47.9375 9.5625 C53.69377071961625 14.380477507078076 58.28508184900613 19.464214857844777 59.2890625 27.23828125 C59.47329439543128 32.22091660370968 58.95885784229832 35.839106159267985 56 40 C50.424636327954694 44.94813525894021 46.02119073859711 47.32391472802484 38.51953125 47.21484375 C31.033595627736283 46.57650815430309 24.253709638918394 43.365496003091295 17.54296875 40.18359375 C16.7037890625 39.7930078125 15.864609375 39.402421875 15 39 C14.2742578125 38.6403515625 13.548515625 38.280703125 12.80078125 37.91015625 C8.89541128313711 36.531176469274776 8.89541128313711 36.531176469274776 0 36 C0 24.119999999999997 0 12.239999999999998 0 0 Z " fill="#A7A17D" transform="translate(0,0)"/>
<path d="M0 0 C0.9397265624999989 0.42990234375000114 1.8794531249999977 0.8598046875000023 2.84765625 1.302734375 C4.191503906250006 1.9398535156250034 4.191503906250006 1.9398535156250034 5.5625 2.58984375 C6.3681640625 2.9687475585937477 7.173828125 3.3476513671874955 8.00390625 3.738037109375 C10.36216261579569 5.302804817843878 11.044675830867128 6.422055769576076 12 9.0625 C12.258484742777291 11.033446163676842 12.512586329816699 13.00570419425037 12.703125 14.984375 C12.973150008528897 17.35527708683577 12.973150008528897 17.35527708683577 14.25 20.625 C15.22908016332432 25.112450748569785 14.299684761184388 27.153035905986542 12 31.0625 C9.155311881188503 32.85532572901465 6.524235855429886 33.452095653512046 3.21875 33.9140625 C1.8408227539062523 34.10850952148438 1.8408227539062523 34.10850952148438 0.43505859375 34.306884765625 C-25.27832718126127 37.64136891329116 -25.27832718126127 37.64136891329116 -38 30.0625 C-38 29.402500000000003 -38 28.742500000000007 -38 28.0625 C-39.65 27.7325 -41.3 27.402500000000003 -43 27.0625 C-43 15.842500000000001 -43 4.622500000000002 -43 -6.9375 C-25.29269239400674 -8.299600585076405 -15.752112120716351 -7.518561317192983 0 0 Z " fill="#3A9BE8" transform="translate(43,65.9375)"/>
<path d="M0 0 C0.7850390625000045 0.271992187500004 1.570078125000009 0.5439843749999937 2.37890625 0.82421875 C3.161367187499991 1.0884765625000057 3.9438281250000102 1.3527343749999972 4.75 1.625 C6.94140625 2.51171875 6.94140625 2.51171875 9.94140625 4.51171875 C9.94140625 5.171718749999997 9.94140625 5.831718749999993 9.94140625 6.51171875 C15.221406250000001 7.831718749999993 20.501406250000002 9.15171875 25.94140625 10.51171875 C25.94140625 19.09171875 25.94140625 27.671718749999997 25.94140625 36.51171875 C4.161406249999999 36.51171875 -17.618593750000002 36.51171875 -40.05859375 36.51171875 C-41.04859375 32.55171874999999 -42.038593750000004 28.59171875 -43.05859375 24.51171875 C-44.01582391707591 22.4908995083953 -44.99847431757308 20.480511981649997 -46.05859375 18.51171875 C-46.05859375 17.521718750000005 -46.05859375 16.531718749999996 -46.05859375 15.51171875 C-41.1125022670208 14.811291851538897 -36.964684325089564 14.34974992958405 -32.05859375 15.51171875 C-27.88199970017685 15.66088282320797 -24.123400747209587 15.497126506899292 -20.05859375 14.51171875 C-20.05859375 13.851718750000003 -20.05859375 13.191718750000007 -20.05859375 12.51171875 C-17.800445274521365 10.713454298248081 -15.545816355984016 9.03703865281075 -13.18359375 7.38671875 C-12.532617187499994 6.918789062499997 -11.881640625000003 6.450859374999993 -11.2109375 5.96875 C-6.322715470116606 2.51171875 -6.322715470116606 2.51171875 -4.05859375 2.51171875 C-4.05859375 1.8517187500000034 -4.05859375 1.1917187500000068 -4.05859375 0.51171875 C-2.05859375 -0.48828125 -2.05859375 -0.48828125 0 0 Z " fill="#24859C" transform="translate(102.05859375,91.48828125)"/>
<path d="M0 0 C6.600000000000001 0 13.200000000000003 0 20 0 C24.180264623657024 11.9137541774225 25.489611258426024 21.61002527693266 25.078125 34.19921875 C24.95945927342764 37.929229850490856 25.19769684880299 41.33493333203186 26 45 C26.5775 44.79375 27.155 44.5875 27.75 44.375 C30.537310279625316 43.910448286729114 31.580309989824983 44.66815381792888 34 46 C33.203359375000005 46.3519140625 32.406718749999996 46.703828125 31.5859375 47.06640625 C22.193222239336983 51.22245502585234 22.193222239336983 51.22245502585234 16 59 C15.26005413913905 63.01181531364746 15.01338337684907 66.92476174945868 15 71 C11.042471235942969 72.31917625468567 9.992822607277411 71.31878307357671 6.30078125 69.5078125 C5.173496093750003 68.9676953125 4.0462109375 68.427578125 2.884765625 67.87109375 C0.5221018424497856 66.71624332813019 -1.8398891831382826 65.56001541993999 -4.201171875 64.40234375 C-13.911908208230471 59.75399810328024 -21.349558147776605 58.83200386313979 -32 58.9375 C-36.455 58.9684375 -36.455 58.9684375 -41 59 C-41 51.41 -41 43.82 -41 36 C-33.445544010621745 34.111386002655436 -26.80661678458368 37.80815266417441 -19.90625 40.76171875 C-7.22909621135868 46.25248809257477 -7.22909621135868 46.25248809257477 6.22265625 45.28125 C10.54490658359476 43.277664798632706 13.38286291471941 41.08273385303772 16 37 C17.792051792279892 31.62384462316033 17.873619105810995 26.217779444051487 15.5 21 C12.221862228908698 15.148700322568212 7.576869068292368 9.717912712194911 2 6 C2 5.34 2 4.68 2 4 C1.3400000000000034 3.67 0.6799999999999997 3.34 0 3 C0 2.01 0 1.02 0 0 Z " fill="#7C8C7A" transform="translate(41,0)"/>
<path d="M0 0 C14.849999999999994 0 29.700000000000003 0 45 0 C45 7.92 45 15.84 45 24 C42.03 24.66 39.06 25.32 36 26 C33.56393404432964 27.25663798151254 33.56393404432964 27.25663798151254 31.75 28.875 C31.1003125 29.3996484375 30.450625000000002 29.924296875 29.78125 30.46484375 C28.25966272702445 31.77621172868288 26.753211596699018 33.10510790292587 25.25 34.4375 C23 36 23 36 21.1328125 35.96875 C17.938121868578662 34.517681727852576 16.478454003502605 31.91470849900336 14.625 29.0625 C14.232883300781253 28.475654296875 13.840766601562507 27.88880859375 13.436767578125 27.2841796875 C12.275397081438854 25.532479590386338 11.13395666596304 23.76954371310203 10 22 C9.120214843750006 20.62908203125 9.120214843750006 20.62908203125 8.22265625 19.23046875 C0 5.944497455470735 0 5.944497455470735 0 0 Z " fill="#96D1BC" transform="translate(83,0)"/>
<path d="M0 0 C1.5642773437499997 -0.038671875000005684 1.5642773437499997 -0.038671875000005684 3.16015625 -0.078125 C5.9375 0.25 5.9375 0.25 7.67578125 1.5078125 C9.053010903154046 3.409498027265343 10.089071939579227 5.236524182225224 11.0625 7.375 C11.395078124999998 8.078828125000001 11.727656250000003 8.782656250000002 12.0703125 9.5078125 C12.9375 12.25 12.9375 12.25 13.9375 21.25 C-6.522500000000001 21.25 -26.9825 21.25 -48.0625 21.25 C-48.0625 15.969999999999999 -48.0625 10.689999999999998 -48.0625 5.25 C-43.3180800152891 5.099383492548867 -39.26278927930734 5.084321649960316 -34.6875 6.375 C-26.742596478093255 8.312781346806517 -19.161010090939865 5.681972288035638 -12.03515625 2.15234375 C-8.036551517645655 0.3232790110418762 -4.380284212997061 0.06513433773973532 0 0 Z " fill="#43A3B5" transform="translate(48.0625,106.75)"/>
<path d="M0 0 C0 15.840000000000003 0 31.680000000000007 0 48 C-12.13636363636364 46.651515151515156 -12.13636363636364 46.651515151515156 -16 44 C-17.961317775275347 40.168286465521675 -18.95615065969112 36.161781935057604 -20 32 C-20.340657703730827 30.691279093531165 -20.68181873641754 29.38268911745513 -21.0234375 28.07421875 C-21.89161529093593 24.701400821321897 -22.712562834829512 21.318634893256245 -23.525390625 17.93212890625 C-23.978315650315096 16.088276719859252 -24.464906097165525 14.252791429914794 -24.953125 12.41796875 C-25.236718749999994 11.3519140625 -25.520312500000003 10.285859375000001 -25.8125 9.1875 C-26.066445312499994 8.2529296875 -26.320390625 7.318359375 -26.58203125 6.35546875 C-27 4 -27 4 -26 1 C-23.541893578205958 0.8292134496023991 -21.08360532772302 0.6633184867607724 -18.625 0.5 C-17.9456640625 0.4523046875000034 -17.266328125 0.4046093749999997 -16.56640625 0.35546875 C-11.006367772873205 -0.00827208495221754 -5.606054025006642 0 0 0 Z " fill="#273B3D" transform="translate(128,54)"/>
<path d="M0 0 C0.7284814453124966 0.24524414062500455 1.4569628906249932 0.4904882812499949 2.20751953125 0.7431640625 C5.734394531250004 1.856914062499996 5.734394531250004 1.856914062499996 9.33251953125 2.9931640625 C9.33251953125 11.573164062499998 9.33251953125 20.153164062499997 9.33251953125 28.9931640625 C-1.5574804687500006 28.9931640625 -12.447480468750001 28.9931640625 -23.66748046875 28.9931640625 C-25.450985318038306 23.642649514635067 -22.914039880067747 17.960637351389153 -20.78466796875 12.8916015625 C-18.512781602606566 8.557835132965891 -15.56088932092824 5.874286613111906 -11.66748046875 2.9931640625 C-10.329433593749997 1.8774804687499937 -10.329433593749997 1.8774804687499937 -8.96435546875 0.7392578125 C-5.369606543310056 -1.1645961800019649 -3.8705923875675694 -1.123280134173399 0 0 Z " fill="#74A58D" transform="translate(118.66748046875,99.0068359375)"/>
<path d="M0 0 C12.870000000000001 0 25.740000000000002 0 39 0 C37.222844118074896 8.885779409625528 31.305819185715038 15.776050133697163 24 21 C21.495029963619572 22.252485018190214 19.791467261231634 22.11374406471972 16.9921875 22.09765625 C16.1038623046875 22.09515869140625 15.215537109375 22.0926611328125 14.30029296875 22.090087890625 C13.1699462890625 22.08098388671875 12.039599609375 22.0718798828125 10.875 22.0625 C5.491875 22.0315625 5.491875 22.0315625 0 22 C0 14.739999999999998 0 7.479999999999999 0 0 Z " fill="#B5C7B5" transform="translate(0,0)"/>
<path d="M0 0 C-2.1832524120167847 2.1832524120167776 -3.9440812635047706 2.941842136677117 -6.75 4.1875 C-11.628743478255181 6.630401944249343 -15.571246187754852 8.961915883892964 -18 14 C-18.748882608603367 18.010794105137485 -18.986615447955444 21.924403902433525 -19 26 C-22.957528764057024 27.319176254685672 -24.007177392722596 26.31878307357671 -27.69921875 24.5078125 C-28.826503906249997 23.9676953125 -29.9537890625 23.427578124999997 -31.115234375 22.87109375 C-33.477898157550214 21.71624332813019 -35.83988918313828 20.560015419939987 -38.201171875 19.40234375 C-47.91755945302738 14.75129295938087 -55.338547896359444 13.831049249349213 -66 13.9375 C-66.8701171875 13.942011718750003 -67.740234375 13.946523437499998 -68.63671875 13.951171875 C-70.75784292783307 13.962826403449633 -72.87893109709137 13.980756431324416 -75 14 C-75 9.379999999999995 -75 4.759999999999998 -75 0 C-62.64510216365091 0.26287016673083485 -52.29874897116534 3.2349023430237693 -40.908935546875 7.8466796875 C-33.87961026970945 10.655389680094615 -26.61250214592215 11.624402929650842 -19.3046875 9.05078125 C-14.800461913850285 6.694610440083402 -12.059210248318912 4.07894699775855 -9 0 C-5.811229660627504 -1.4400898306843501 -3.3295071465794166 -0.8323767866448506 0 0 Z " fill="#678495" transform="translate(75,45)"/>
<path d="M0 0 C0 9.899999999999999 0 19.799999999999997 0 30 C-6.313259771806898 30.631325977180694 -12.488217854414486 31.247704293501485 -18.8125 31.375 C-19.536308593749993 31.4123828125 -20.2601171875 31.449765624999998 -21.005859375 31.48828125 C-25.164275166733603 31.556638769864115 -26.775352682277727 31.18822589785809 -30.01171875 28.4765625 C-30.667851562500005 27.659296874999995 -31.323984374999995 26.842031250000005 -32 26 C-24.842665933090814 13.45659130698239 -15.856426272174005 0 0 0 Z " fill="#5E7E63" transform="translate(128,24)"/>
<path d="M0 0 C2.475 0.49500000000000455 2.475 0.49500000000000455 5 1 C5 1.6599999999999966 5 2.319999999999993 5 3 C5.86625 3.2681249999999977 6.7325 3.5362499999999955 7.625 3.8125 C11 5 11 5 13.625 6.625 C23.01080585935001 10.448846831587048 34.65116308752665 7.36146727212963 44.263671875 5.451171875 C48.72534040723849 4.746395092022283 51.68401711602749 4.2818714459989735 55.74072265625 6.49560546875 C57.97009589093419 8.22549449484218 60.015611207453404 9.996275657376728 62 12 C57.4421348250422 15.038576783305203 53.73519079609736 15.07978714212345 48.375 14.8125 C41.860962358657815 14.748636885869189 36.95039014281718 16.546230868941365 31 19 C23.894468821418673 21.69033852257735 18.496294021916892 22.29918440587815 11 21 C9.906875 20.835000000000008 8.813749999999999 20.67 7.6875 20.5 C5.120719663774707 20.022459472330183 2.5601243678474206 19.512024873569487 0 19 C0 12.730000000000004 0 6.459999999999994 0 0 Z " fill="#2C91C0" transform="translate(0,93)"/>
<path d="M0 0 C9.886681742402558 -0.3556360338993727 18.73749436898266 3.9344454505853435 27.484375 8.109375 C28.4241015625 8.539277343750001 29.363828124999998 8.969179687500002 30.33203125 9.412109375 C31.675878906250006 10.049228515625003 31.675878906250006 10.049228515625003 33.046875 10.69921875 C33.8525390625 11.078122558593748 34.658203125 11.457026367187495 35.48828125 11.847412109375 C37.84605822371049 13.411861728061325 38.553239625988496 14.520691092512024 39.484375 17.171875 C39.56210960387616 19.503913116284693 39.57405228490281 21.840265592526933 39.484375 24.171875 C32.04230907115809 21.915486139883285 25.269226500478602 18.7812830223735 18.326171875 15.3125 C11.190408473973154 11.744641220189436 11.190408473973154 11.744641220189436 3.359375 11.5546875 C-1.409746069309156 13.442464589934872 -4.6722076622631405 15.78600734532705 -8.515625 19.171875 C-9.175625 19.171875 -9.835625 19.171875 -10.515625 19.171875 C-10.845625 20.161874999999995 -11.175625 21.151875000000004 -11.515625 22.171875 C-12.835625 22.171875 -14.155625 22.171875 -15.515625 22.171875 C-15.515625 15.241874999999993 -15.515625 8.311875 -15.515625 1.171875 C-10.345283788562313 0.7364778453526171 -5.176222706195549 0.3536549675040419 0 0 Z " fill="#599ACF" transform="translate(15.515625,57.828125)"/>
<path d="M0 0 C4.950000000000003 1.3199999999999932 9.900000000000006 2.6400000000000006 15 4 C15 5.650000000000006 15 7.299999999999997 15 9 C9.138405538567639 8.01004182429142 4.5952934339458125 6.88832521333876 0 3 C0 2.010000000000005 0 1.019999999999996 0 0 Z " fill="#5E7E63" transform="translate(113,98)"/>
</svg>
