<?xml version="1.0" encoding="UTF-8"?>
<!-- Generator: visioncortex VTracer 0.6.0 -->
<svg version="1.1" xmlns="http://www.w3.org/2000/svg" width="128" height="128">
<path d="M0 0 C42.24 0 84.48 0 128 0 C128 42.24 128 84.48 128 128 C85.75999999999999 128 43.519999999999996 128 0 128 C0 85.75999999999999 0 43.519999999999996 0 0 Z " fill="#A675AD" transform="translate(0,0)"/>
<path d="M0 0 C11.88 0 23.76 0 36 0 C34.63891539398476 9.527592242106692 31.550251563914383 12.865758673502953 24.18359375 18.41796875 C22.52012874587719 19.623162536529048 20.828452904357636 20.789520868802462 19.125 21.9375 C14.591591482213115 26.337572973146095 13.810858742484369 31.564388832031472 13.625 37.625 C13.76116147191145 43.358114606797905 14.95111285342859 48.59876045852279 16.28515625 54.15625 C17.0963457241377 58.5180556970027 17.25941187657546 62.70213604528338 17.375 67.125 C17.709201403193223 77.22128825060796 20.684722741336067 86.00064880569235 27 94 C31.670716071717806 97.11381071447853 36.52947420007224 96.60783619999198 42 96 C44.68795221840323 94.93775084152449 46.60522379867151 93.66593127048938 49 92 C49.66 92 50.32 92 51 92 C51.165 91.278125 51.33 90.55625 51.5 89.8125 C53.96670924182483 85.18742017157845 58.153302882302604 83.10451848166659 62.953125 81.2421875 C70.74840231179027 78.99233104009305 78.35479004505228 79.4515966816841 86 82 C92.1428828378742 83.90641191520234 97.41833390575566 84.1242291949344 103.8515625 83.875 C106.99999999999999 84 106.99999999999999 84 113 86 C117.95 86.66 122.9 87.32 128 88 C128 101.2 128 114.4 128 128 C85.75999999999999 128 43.519999999999996 128 0 128 C0 85.75999999999999 0 43.519999999999996 0 0 Z " fill="#886397" transform="translate(0,0)"/>
<path d="M0 0 C15.300282705781129 9.298070225754905 15.300282705781129 9.298070225754905 18 16 C18.23046875 18.761718749999922 18.23046875 18.761718749999922 18.1875 21.6875 C18.181054687499994 22.6607421875 18.174609375000003 23.633984374999997 18.16796875 24.63671875 C18 27 18 27 17 28 C15.480719621899695 28.0717996397968 13.958325182599395 28.08392007299436 12.4375 28.0625 C11.611210937500005 28.053476562499995 10.784921874999995 28.044453125000004 9.93359375 28.03515625 C8.976464843749994 28.01775390625 8.976464843749994 28.01775390625 8 28 C7.890429687500003 28.734765625 7.780859375000006 29.469531250000003 7.66796875 30.2265625 C6.0145073025125555 37.091811784889416 0.11874771264177753 44.20502849809762 -5 49 C-5.659999999999997 49 -6.319999999999993 49 -7 49 C-7.273281249999997 49.590390625 -7.546562499999993 50.180781249999995 -7.828125 50.7890625 C-12.503456158780324 59.609853952898874 -21.165540839296384 62.654913521675326 -30 66 C-29.6532421875 66.9371484375 -29.306484374999997 67.874296875 -28.94921875 68.83984375 C-28 72 -28 72 -28.8125 74.5625 C-32.79541846156053 79.00060914288173 -37.119851693300426 81.53843777136225 -43.046875 82.48828125 C-47.60916807343998 82.68688853553532 -51.71825418937943 82.81476776790493 -55.5 80 C-58.40517458202619 76.51379050156856 -60.299829188290595 73.18450203861539 -62 69 C-62.37729248046875 68.13810058593751 -62.37729248046875 68.13810058593751 -62.76220703125 67.2587890625 C-64.85475702548078 62.201273948391304 -65.419719981106 57.81382261336748 -65.5 52.375 C-65.68973936845629 46.60192692715735 -66.21381933954025 41.27063997401757 -67.5625 35.625 C-69.68293235707866 26.54493074815327 -70.50097486086055 18.290111653907722 -66.14453125 9.77734375 C-63.945305824319746 6.362164334694484 -61.773396617623696 5.257798872541233 -58 4 C-49.74294350412777 3.656797162763258 -41.491403392880095 3.9678456024726287 -33.25 4.5 C-21.750009562041768 5.23282338614267 -11.062268178934417 5.687422726311471 0 2 C0 1.3399999999999999 0 0.6799999999999997 0 0 Z " fill="#9E7AA3" transform="translate(82,15)"/>
<path d="M0 0 C0 13.200000000000003 0 26.400000000000006 0 40 C-30.36 40 -60.72 40 -92 40 C-94.51677852348993 27.416107382550337 -94.51677852348993 27.416107382550337 -92.1171875 22.01171875 C-87.12653133836585 15.51191207242259 -78.9291455017891 9.696899819124312 -70.78125 8.544921875 C-64.17382571629747 8.034253436669673 -57.61253549457112 7.955795382811758 -50.9921875 8.078125 C-50.32503219604493 8.090441589355464 -49.657876892089845 8.102758178710943 -48.97050476074219 8.115447998046875 C-46.25587219001727 8.170035019261647 -43.542147004305036 8.226440525736777 -40.82861328125 8.322265625 C-30.822471652171572 8.65699915619976 -23.16628036500836 7.089108760397707 -14 3 C-9.194808080417928 1.3604988376511358 -5.104668613573693 0 0 0 Z " fill="#4E3C7E" transform="translate(128,88)"/>
<path d="M0 0 C15.300282705781115 9.298070225754898 15.300282705781115 9.298070225754898 18 16 C18.23046875 18.76171875000003 18.23046875 18.76171875000003 18.1875 21.6875 C18.181054687499994 22.6607421875 18.174609375000003 23.633984374999997 18.16796875 24.63671875 C18 27 18 27 17 28 C15.480719621899695 28.0717996397968 13.958325182599395 28.08392007299436 12.4375 28.0625 C11.611210937500005 28.053476562499995 10.784921875000009 28.044453125000004 9.93359375 28.03515625 C8.976464843749994 28.01775390625 8.976464843749994 28.01775390625 8 28 C7.890429687500003 28.734765625 7.780859375000006 29.469531250000003 7.66796875 30.2265625 C6.0145073025125555 37.09181178488941 0.11874771264177753 44.20502849809762 -5 49 C-5.659999999999997 49 -6.319999999999993 49 -7 49 C-7.270703124999997 49.58910156249999 -7.541406249999994 50.17820312500001 -7.8203125 50.78515625 C-11.656440667111198 57.98742337169554 -17.818693563987807 61.21036615646247 -25.1328125 64.25 C-28.27424174786121 65.07173626102092 -29.93723773927333 65.00537373702365 -33 64 C-35.8125 61.875 -35.8125 61.875 -38 59 C-38.64598732734906 53.12869295809408 -37.16221967009702 49.32733900343803 -34.5625 44.25 C-29.986514231742945 34.989292168002564 -28.55861015474818 26.30460947995776 -30 16 C-31.498505692912012 12.624904100887413 -33.33189062203172 10.49530436644184 -36 8 C-36.66 7.009999999999998 -37.32 6.02 -38 5 C-36.94256591796875 5.015710449218751 -36.94256591796875 5.015710449218751 -35.86376953125 5.03173828125 C-32.61755043707057 5.073745047579266 -29.371388837915504 5.09946660464561 -26.125 5.125 C-25.016406250000003 5.1417578125 -23.9078125 5.158515625 -22.765625 5.17578125 C-14.822543285016451 5.222505260088138 -7.555023096178118 4.5183410320593715 0 2 C0 1.3399999999999999 0 0.6799999999999997 0 0 Z " fill="#AFB6DB" transform="translate(82,15)"/>
<path d="M0 0 C6.461793559498915 -0.48564628004584875 10.919953804797501 0.1038855970917183 16.71875 2.97265625 C24.11604246932312 6.303971180534212 29.872412280587554 5.903065302156939 38 5 C38 18.200000000000003 38 31.400000000000006 38 45 C23.00000000000003 44 23.00000000000003 44 15 42 C13.187453605446024 41.9836952348316 11.374285765859838 42.00752167331184 9.5625 42.0625 C4.9013160585626565 42.16550958986602 1.4483390152256135 41.368190162327096 -2.8828125 39.734375 C-12.478717071601011 36.40590625560702 -21.68716481261569 37.818114644310356 -31 41 C-32.794375 41.5878125 -32.794375 41.5878125 -34.625 42.1875 C-35.40875 42.455625 -36.1925 42.723749999999995 -37 43 C-37.66 41.02000000000001 -38.32 39.03999999999999 -39 37 C-38.154375 36.7202734375 -37.30875 36.440546874999995 -36.4375 36.15234375 C-28.155503906378748 33.225411039640676 -21.61348097464065 30.04641308527401 -16.4140625 22.78515625 C-15.947421875000003 22.196054687499995 -15.480781250000007 21.606953125000004 -15 21 C-14.340000000000003 21 -13.680000000000007 21 -13 21 C-12.739609375 20.4160546875 -12.479218750000001 19.832109375 -12.2109375 19.23046875 C-10.925586370497328 16.862934895335393 -9.48649183251166 15.251215292812368 -7.625 13.3125 C-3.9676965003455393 9.258161464892446 -1.8954267804350735 5.085865646881679 0 0 Z " fill="#938CAE" transform="translate(90,43)"/>
<path d="M0 0 C11.88 0 23.76 0 36 0 C34.63891539398476 9.527592242106692 31.550251563914383 12.865758673502953 24.18359375 18.41796875 C22.52012874587719 19.623162536529048 20.828452904357636 20.789520868802462 19.125 21.9375 C14.591591482213115 26.337572973146095 13.810858742484369 31.564388832031472 13.625 37.625 C13.726451333175568 42.13958432631278 14.426800984203574 46.18282592124983 15.5 50.5625 C16.891427119303906 56.471119426048816 17.303259242809236 62.02308762851181 17.3125 68.0625 C17.31765625 68.87211181640625 17.3228125 69.6817236328125 17.328125 70.515869140625 C17.25919621001077 76.39389479408128 17.25919621001077 76.39389479408128 15.97265625 79.40234375 C14.099878088348985 84.40394004517239 15.01463882794373 90.06870993682094 15.25390625 95.33984375 C15.421802686705316 102.30260774277923 15.421802686705316 102.30260774277923 13.140625 106.07421875 C8.755270917157688 110.01943693036726 5.994006744076851 110 0 110 C0 73.69999999999999 0 37.39999999999999 0 0 Z " fill="#5664A3" transform="translate(0,0)"/>
<path d="M0 0 C0 13.200000000000003 0 26.400000000000006 0 40 C-3.7125000000000057 40.12375 -7.424999999999997 40.2475 -11.25 40.375 C-12.414345703125008 40.4296240234375 -13.578691406250002 40.484248046874995 -14.7783203125 40.54052734375 C-17.618452122876235 40.586591567392304 -20.208463223043253 40.54272205800268 -23 40 C-25.4140625 37.2265625 -25.4140625 37.2265625 -27 34 C-29.414357237407202 31.827002481989467 -29.414357237407202 31.827002481989467 -32.125 30 C-33.563593749999995 28.990664062500002 -33.563593749999995 28.990664062500002 -35.03125 27.9609375 C-38.64453709779616 25.574266285403056 -42.33128898799491 23.355518205517072 -46.1015625 21.2265625 C-48 20 -48 20 -49 18 C-45.95708919015064 14.517166789627453 -43.409299686768634 13.159749476968287 -39.01953125 11.78125 C-37.854863281250005 11.406132812500005 -36.690195312499995 11.031015624999995 -35.490234375 10.64453125 C-34.27658203125 10.266835937500005 -33.0629296875 9.889140624999996 -31.8125 9.5 C-21.101625920442643 6.126812467751762 -21.101625920442643 6.126812467751762 -10.7578125 1.7900390625 C-7.100739902202719 0.14638810049000028 -3.979073235360204 0 0 0 Z " fill="#28206E" transform="translate(128,88)"/>
<path d="M0 0 C2.568642605930343 7.705927817791029 1.3924058065770026 15.42958693520174 -1.84375 22.7109375 C-2.5729701158766716 24.154596242918004 -3.339585112815996 25.580506983394912 -4.15625 26.9765625 C-7.148315676721687 32.16993363888122 -7.277619509651075 36.20320571156783 -6.84765625 42.16796875 C-7.080287309696189 46.49252050076248 -9.001728433161915 49.00172843316193 -12 52 C-16.021420824886015 51.924124135379515 -18.356456090061904 51.47020842229108 -21.625 49.08203125 C-24.915849684761014 44.81150427421639 -25.15959495895621 41.01428383586327 -25.6875 35.75 C-25.896284209968936 33.93189153803448 -26.10849629202658 32.11417328232156 -26.32421875 30.296875 C-26.42710205078125 29.409838867187503 -26.5299853515625 28.522802734375 -26.635986328125 27.60888671875 C-27.09119160209862 24.346429604275087 -27.819691911831576 21.183344640183094 -28.570068359375 17.978515625 C-29.659560718243938 12.964747268228926 -30.094459359842876 7.625763013528612 -28.08984375 2.81640625 C-26.114976356356188 -0.2379706514233888 -24.445976750382794 -1.7720563275821277 -21.1875 -3.4375 C-13.327848619979761 -4.824497302356512 -6.992232791660342 -4.075394940948229 0 0 Z " fill="#CB9DA2" transform="translate(52,34)"/>
<path d="M0 0 C16.5 0 33 0 50 0 C47.428571428571416 14.142857142857164 47.428571428571416 14.142857142857164 46 17 C35.593417028985485 24.01839316649816 19.633251308435135 21.188459635934436 7.78515625 20.22265625 C0.5305562800506465 19.795915075297096 -6.735896395151741 19.925876493828078 -14 20 C-9.320312499999993 15.203124999999996 -9.320312499999993 15.203124999999996 -6.4375 13.375 C-2.7966301168132475 10.171673968465939 -2.7966301168132475 10.171673968465939 0 0 Z " fill="#8981CE" transform="translate(36,0)"/>
<path d="M0 0 C6.142882837874254 1.906411915202355 11.418333905755617 2.1242291949344008 17.8515625 1.875 C21.260291610463184 2.0103341582317853 23.796369304720628 2.873823563843203 27 4 C29.645979990873087 4.332162966043981 32.26470139606208 4.4971420864611105 34.92578125 4.65625 C35.952519531250005 4.826406250000005 35.952519531250005 4.826406250000005 37 5 C37.495000000000005 5.989999999999995 37.495000000000005 5.989999999999995 38 7 C37.428945312500005 7.158554687500001 36.857890624999996 7.317109375000001 36.26953125 7.48046875 C32.47281844138533 8.573004550253188 28.77871746043246 9.653717261443973 25.162109375 11.261962890625 C16.173377387084855 15.256224806307557 8.282442124549988 15.578373554037086 -1.3125 15.25 C-4.100087896255317 15.182445731979357 -6.887848603901006 15.129220569992768 -9.67578125 15.078125 C-10.69455856323242 15.055828247070309 -10.69455856323242 15.055828247070309 -11.733917236328125 15.0330810546875 C-19.18292031580293 14.906488472264783 -26.57743237021255 15.420277128051467 -34 16 C-35.439728353140914 8.921335597057151 -35.439728353140914 8.921335597057151 -33.6875 5.25 C-24.26428974297682 -2.6391992849496404 -11.323808916339516 -3.774602972113172 0 0 Z " fill="#645D8A" transform="translate(86,82)"/>
<path d="M0 0 C0.8333789062500045 0.513691406250004 1.666757812500009 1.0273828124999937 2.525390625 1.556640625 C7.6631093436838995 4.826097991435205 12.20095460296477 8.27203451743398 15.5625 13.4375 C15.5625 14.097499999999997 15.5625 14.757499999999993 15.5625 15.4375 C-3.5775000000000006 15.4375 -22.7175 15.4375 -42.4375 15.4375 C-42.1075 14.117500000000007 -41.7775 12.7975 -41.4375 11.4375 C-40.7775 11.4375 -40.1175 11.4375 -39.4375 11.4375 C-39.4375 10.777500000000003 -39.4375 10.117500000000007 -39.4375 9.4375 C-36.63264136550475 6.864721867176939 -33.50960435122771 4.679809852717028 -30.4375 2.4375 C-29.6601953125 1.8690234375000045 -28.882890625 1.3005468749999949 -28.08203125 0.71484375 C-17.41346034833282 -6.758664609687685 -10.624156217560255 -6.861945393789881 0 0 Z " fill="#504FAB" transform="translate(89.4375,112.5625)"/>
<path d="M0 0 C11.88 0 23.76 0 36 0 C34.81482729616973 8.296208926811879 32.99186561147901 11.597043531788461 26.5625 16.625 C25.04200844469414 17.750461886525414 23.521209550358584 18.875508767630617 22 20 C21.113125 20.763125 20.22625 21.52625 19.3125 22.3125 C16.616963132487292 24.27951338980657 14.18898096879366 25.043305709361903 11 26 C9.80375 26.53625 8.6075 27.0725 7.375 27.625 C4.000000000000003 29 4.000000000000003 29 0 29 C0 19.43 0 9.86 0 0 Z " fill="#5D69BB" transform="translate(0,0)"/>
<path d="M0 0 C15.300282705781115 9.298070225754898 15.300282705781115 9.298070225754898 18 16 C18.23046875 18.76171875000003 18.23046875 18.76171875000003 18.1875 21.6875 C18.181054687499994 22.6607421875 18.174609375000003 23.633984374999997 18.16796875 24.63671875 C18 27 18 27 17 28 C12.990285820021157 28.679758412485683 9.41595531622805 28.835182355306927 5.84765625 26.73046875 C4.067176383036667 25.233991806601367 2.459609454493375 23.811605303647738 1 22 C1 21.340000000000003 1 20.68 1 20 C0.3400000000000034 19.896875 -0.3199999999999932 19.793750000000003 -1 19.6875 C-4 19 -4 19 -7.6171875 17.4375 C-12.266744805920283 15.661760292743523 -16.23784893077452 15.956744150107852 -21.125 16.3125 C-29.076811672161078 16.632280108777138 -29.076811672161078 16.632280108777138 -32.4296875 14.3359375 C-33.939299979023204 12.270547292381192 -34.995384156194696 10.345598599598986 -36 8 C-36.66 7.009999999999998 -37.32 6.02 -38 5 C-36.94256591796875 5.015710449218751 -36.94256591796875 5.015710449218751 -35.86376953125 5.03173828125 C-32.61755043707057 5.073745047579266 -29.371388837915504 5.09946660464561 -26.125 5.125 C-25.016406250000003 5.1417578125 -23.9078125 5.158515625 -22.765625 5.17578125 C-14.822543285016451 5.222505260088138 -7.555023096178118 4.5183410320593715 0 2 C0 1.3399999999999999 0 0.6799999999999997 0 0 Z " fill="#B69AD9" transform="translate(82,15)"/>
<path d="M0 0 C0 13.200000000000003 0 26.400000000000006 0 40 C-15 39 -15 39 -21 37 C-20.54998962327359 34.7022999588322 -20.091500155981166 32.40691800192192 -19.62109375 30.11328125 C-19.189406732530486 27.949416137275477 -18.78790474448617 25.779398827539637 -18.41015625 23.60546875 C-16.934581852029623 15.68626177391046 -14.997337887642828 8.473549079634175 -10 2 C-6.2395151860750815 -0.030661799519457134 -4.283526391126188 0 0 0 Z " fill="#6D87BB" transform="translate(128,48)"/>
<path d="M0 0 C0.3299999999999983 0 0.6600000000000001 0 1 0 C1.1211718750000017 0.9062109374999991 1.2423437499999999 1.8124218749999983 1.3671875 2.74609375 C2.4122427199144916 10.609891426790888 2.4122427199144916 10.609891426790888 4 18.375 C5.198467415866226 23.35760468958557 5.729299263788128 28.420213796560162 6.302734375 33.50537109375 C6.64614579330248 36.48713452199402 7.047336963003332 39.142010889009995 8 42 C11.3595676031143 43.77310512386589 14.219133224839297 44.49748247041589 18 44 C21.27974016543982 41.813506556373454 21.941919445395328 38.66258653516999 23 35 C26.667871884221995 37.03770660234555 29.16454261308354 38.62493647715904 31.0625 42.4375 C32 46 32 46 31.25 48.625 C26.260354334612302 53.891848202353685 21.089288048896165 56.30822440085652 13.8125 56.625 C10.172782319807133 56.44925759612792 7.45810473132304 56.201728584832836 4.5 54 C-5.119057073526722 42.457131511767926 -3.3150275017035753 29.64201264334818 -2.0625 15.5 C-1.9754882812500014 14.442968749999999 -1.8884765624999993 13.385937499999997 -1.798828125 12.296875 C-1.0762208581634525 3.8611042404859433 -1.0762208581634525 3.8611042404859433 0 0 Z " fill="#AF87A0" transform="translate(22,41)"/>
<path d="M0 0 C5.300948875519142 1.2929143598827153 9.534219875371416 3.770411583442254 13 8 C14.119950934477961 11.778225278957251 14.22536531858683 15.574353300543464 14.3125 19.5 C14.3498828125 20.6034375 14.387265625 21.706874999999997 14.42578125 22.84375 C13.907698650807108 26.68421550594364 12.681291351137332 28.259671041131213 10 31 C6.24496203281487 33.07515256081284 3.2251951883445766 33.06401810891431 -1 33 C-1.024653923977115 28.461022950244057 -1.0428378861517862 23.92208456951164 -1.054931640625 19.383056640625 C-1.059971396883327 17.83780234270894 -1.0668031951598032 16.292552835841263 -1.075439453125 14.747314453125 C-1.087520761422208 12.530749713184335 -1.0932317269662504 10.314247816107141 -1.09765625 8.09765625 C-1.1028175354003906 7.402856597900396 -1.1079788208007813 6.708056945800777 -1.1132965087890625 5.9922027587890625 C-1.113492767471995 4.327706701015032 -1.0618912884041165 2.663345013303754 -1 1 C-0.6699999999999999 0.6700000000000017 -0.33999999999999997 0.3400000000000034 0 0 Z " fill="#4E3C7E" transform="translate(1,77)"/>
</svg>
