<?xml version="1.0" encoding="UTF-8"?>
<!-- Generator: visioncortex VTracer 0.6.0 -->
<svg version="1.1" xmlns="http://www.w3.org/2000/svg" width="128" height="128">
<path d="M0 0 C42.24 0 84.48 0 128 0 C128 42.24 128 84.48 128 128 C85.75999999999999 128 43.519999999999996 128 0 128 C0 85.75999999999999 0 43.519999999999996 0 0 Z " fill="#655B72" transform="translate(0,0)"/>
<path d="M0 0 C4.341534601002685 -0.12381526371760902 8.68212836656511 -0.2144355775261414 13.02490234375 -0.274658203125 C14.501321457467007 -0.29976737172562934 15.977616678091607 -0.3338625548076974 17.45361328125 -0.377197265625 C19.578761396476978 -0.43801800292947607 21.70226393948728 -0.4662420924336621 23.828125 -0.48828125 C25.105908203124997 -0.51446533203125 26.383691406249994 -0.5406494140625 27.7001953125 -0.567626953125 C31 -0.00000000000000011102230246251565 31 -0.00000000000000011102230246251565 33.229736328125 2.421875 C33.81392333984374 3.27265625 34.39811035156251 4.1234375 35 5 C37.486563326134416 6.23633595545231 39.86995756898956 7.295927055996231 42.4375 8.3125 C51.95643936231684 12.523826914441875 51.95643936231684 12.523826914441875 54.28125 17.3046875 C56.472356078608186 25.521335294780677 57.07089252308032 34.22066026235154 56.98046875 42.69921875 C56.951121017429486 46.2106558950929 57.29596653168353 49.423280356726195 58 52.875 C59.712968070411634 62.50432765295681 60.50367351365101 73.25335668732295 55.23046875 81.90234375 C47.899193342779796 92.0839574066123 39.09007521035588 99.7223499803774 29 107 C28.2613671875 107.559453125 27.522734375 108.11890625 26.76171875 108.6953125 C19.63549248387642 114.03616730330461 13.295691892131018 113.36808617899042 4.8046875 112.23046875 C2.493945922595472 111.88847899654414 0.1840599369742293 111.54066545198438 -2.125 111.1875 C-3.2916015624999986 111.02185546875 -4.458203124999997 110.8562109375 -5.66015625 110.685546875 C-6.785507812500001 110.51474609375 -7.910859375000001 110.3439453125 -9.0703125 110.16796875 C-10.088833007812497 110.01610107421875 -11.107353515625 109.8642333984375 -12.15673828125 109.707763671875 C-17.695228340981753 108.3290857839167 -20.720514083500426 105.56785538369584 -24 101 C-25.3593990509877 98.2812018980246 -25.09506625462746 96.17045873947728 -25.0625 93.12890625 C-25.0542822265625 91.92387451171875 -25.046064453125 90.7188427734375 -25.03759765625 89.477294921875 C-25.0251904296875 88.18541259765625 -25.012783203125 86.8935302734375 -25 85.5625 C-24.943804300502716 76.90465124065899 -24.996858500185233 68.32329602234358 -25.625 59.6875 C-26.454892574249754 47.129092894413674 -26.132903969074395 32.80775324576941 -18.0546875 22.5234375 C-15.765944299311105 19.94760455985187 -13.403654251599121 17.468721325288904 -11 15 C-9.344049377397802 13.238623949561326 -7.6978987126094225 11.467974404857031 -6.0625 9.6875 C-5.331601562499998 8.9076171875 -4.6007031249999955 8.127734375 -3.84765625 7.32421875 C-1.952726397235935 4.94053320582533 -1.0629002064610802 2.829608747258389 0 0 Z " fill="#CBB8C2" transform="translate(46,0)"/>
<path d="M0 0 C4.341534601002685 -0.12381526371760902 8.68212836656511 -0.2144355775261414 13.02490234375 -0.274658203125 C14.501321457467007 -0.29976737172562934 15.977616678091607 -0.3338625548076974 17.45361328125 -0.377197265625 C19.578761396476978 -0.43801800292947607 21.70226393948728 -0.4662420924336621 23.828125 -0.48828125 C25.105908203124997 -0.51446533203125 26.383691406249994 -0.5406494140625 27.7001953125 -0.567626953125 C31 -0.00000000000000011102230246251565 31 -0.00000000000000011102230246251565 33.229736328125 2.421875 C33.81392333984374 3.27265625 34.39811035156251 4.1234375 35 5 C37.486563326134416 6.23633595545231 39.86995756898956 7.295927055996231 42.4375 8.3125 C51.95643936231684 12.523826914441875 51.95643936231684 12.523826914441875 54.28125 17.3046875 C56.472356078608186 25.521335294780677 57.07089252308032 34.22066026235154 56.98046875 42.69921875 C56.951121017429486 46.2106558950929 57.29596653168353 49.423280356726195 58 52.875 C59.712968070411634 62.50432765295681 60.50367351365101 73.25335668732295 55.23046875 81.90234375 C47.899193342779796 92.0839574066123 39.09007521035588 99.7223499803774 29 107 C28.2613671875 107.559453125 27.522734375 108.11890625 26.76171875 108.6953125 C19.63549248387642 114.03616730330461 13.295691892131018 113.36808617899042 4.8046875 112.23046875 C2.493945922595472 111.88847899654414 0.1840599369742293 111.54066545198438 -2.125 111.1875 C-3.2916015624999986 111.02185546875 -4.458203124999997 110.8562109375 -5.66015625 110.685546875 C-6.785507812500001 110.51474609375 -7.910859375000001 110.3439453125 -9.0703125 110.16796875 C-10.088833007812497 110.01610107421875 -11.107353515625 109.8642333984375 -12.15673828125 109.707763671875 C-17.695228340981753 108.3290857839167 -20.720514083500426 105.56785538369584 -24 101 C-25.3593990509877 98.2812018980246 -25.09506625462746 96.17045873947728 -25.0625 93.12890625 C-25.0542822265625 91.92387451171875 -25.046064453125 90.7188427734375 -25.03759765625 89.477294921875 C-25.0251904296875 88.18541259765625 -25.012783203125 86.8935302734375 -25 85.5625 C-24.943804300502716 76.90465124065899 -24.996858500185233 68.32329602234358 -25.625 59.6875 C-26.454892574249754 47.129092894413674 -26.132903969074395 32.80775324576941 -18.0546875 22.5234375 C-15.765944299311105 19.94760455985187 -13.403654251599121 17.468721325288904 -11 15 C-9.344049377397802 13.238623949561326 -7.6978987126094225 11.467974404857031 -6.0625 9.6875 C-5.331601562499998 8.9076171875 -4.6007031249999955 8.127734375 -3.84765625 7.32421875 C-1.952726397235935 4.94053320582533 -1.0629002064610802 2.829608747258389 0 0 Z M-10 32 C-19.37159373098656 46.10799315442253 -18.218858890101814 60.41148617464712 -16.30126953125 76.4609375 C-16.039114642823055 78.6703466082984 -15.8088879986811 80.87977846345854 -15.58984375 83.09375 C-14.824027833463873 89.57716241960682 -14.140707786398444 93.7533283503665 -9 98 C-2.564276802916268 101.33065262364539 4.388589575576518 102.15478551235536 11.5625 102.375 C12.6569140625 102.423984375 13.751328125 102.47296875 14.87890625 102.5234375 C19.116887827438816 101.8126871478388 20.35340155206154 100.34794703664215 23 97 C24.479244193889144 94.46692877893717 25.714947151942198 91.85214205828595 26.9375 89.1875 C30.372311760285356 82.03878791200148 33.71341070581262 75.42089478328882 40.125 70.5 C47.04440065144843 64.48312986830571 49.2081294482369 54.709091508569216 51 46 C51.419709103977866 39.53843193410815 49.340829520150166 33.49309469178536 46 28 C39.503028534640976 21.200843815321953 30.44585500883045 17.882422214964823 21.1875 17.5625 C9.148714363866333 17.46865319357947 -2.306652831141264 22.632125521286998 -10 32 Z " fill="#827B86" transform="translate(46,0)"/>
<path d="M0 0 C16.83 0 33.66 0 51 0 C51 42.24 51 84.48 51 128 C33.18000000000001 128 15.36 128 -3 128 C0.7424026742036318 118.64399331449091 9.211051762496453 115.54292355540971 17.744140625 111.10546875 C25.67212056942671 106.88276375334361 31.786741491935047 101.9557003273622 34.60546875 93.09716796875 C35.059365957123504 90.68443467098334 35.095520362890696 88.4627847576929 35.0625 86.0078125 C35.050898437499995 84.57888671875 35.050898437499995 84.57888671875 35.0390625 83.12109375 C35.0131226738759 81.13150908628216 34.9870818099499 79.14192573718671 34.9609375 77.15234375 C34.92141963188055 72.27188703724912 35.16291030320629 67.81483923343752 36 63 C37.4682910163219 39.586464568077055 37.4682910163219 39.586464568077055 28.2265625 18.765625 C23.333590804838607 14.885584287345702 17.480372065246385 12.486490858108123 11.84375 9.87548828125 C6.564892846702733 7.368869934888243 2.6824770171837145 5.364954034367418 0 0 Z " fill="#584A4F" transform="translate(77,0)"/>
<path d="M0 0 C9.57 0 19.14 0 29 0 C27.69241520143741 6.537923992812951 24.680620049446436 11.023727218409167 21 16.4375 C13.408692091412581 27.805291893415 11.642713631065114 38.24963114526949 11.75 51.875 C11.742265625 52.88046875 11.73453125 53.8859375 11.7265625 54.921875 C11.729140625 55.893828125 11.73171875 56.86578125 11.734375 57.8671875 C11.736630859375 58.7345654296875 11.73888671875 59.601943359375 11.7412109375 60.49560546875 C12.030349718763254 63.29370510855988 12.918212122669939 65.41622783107422 14 68 C14.570229370827402 75.18656721763358 14.27452487936609 82.28967768009399 12.9375 89.375 C11.564928147776865 96.85902316504148 11.59896168759824 102.22362198473837 15.6875 108.8125 C20.203254112993584 114.94026090037427 24.783591575131204 117.34669957036142 32.16015625 118.64453125 C35.27435239208536 119.03434122101756 38.3662345398364 119.20889935723514 41.5 119.375 C48.857076715506544 119.85329694958966 54.875637879069444 121.91709191937963 61 126 C61 126.66 61 127.32 61 128 C40.87 128 20.739999999999995 128 0 128 C0 85.75999999999999 0 43.519999999999996 0 0 Z " fill="#37334B" transform="translate(0,0)"/>
<path d="M0 0 C4.62347959630641 3.836504345871276 9.784174665099101 9.382541991770324 10.9375 15.4375 C10.326849826113659 22.679811062292053 8.371792271219192 28.275033951020163 2.9140625 33.30078125 C-1.1143611253297365 36.19257616214615 -5.375123801652279 38.19376518088747 -9.875 40.25 C-10.739316406249998 40.66958984375 -11.603632812499995 41.08917968750001 -12.494140625 41.521484375 C-18.250565637501794 44.15857870148196 -21.869198022182054 44.95686891204994 -28.0625 43.4375 C-35.732671104053324 38.96323352263556 -41.31514466242067 28.67956601273798 -44.0625 20.4375 C-44.12372365392622 17.07019903405798 -43.93622730345375 14.678625003492598 -41.95703125 11.8671875 C-36.74591168388217 6.7498412936837795 -29.639681627384448 4.571305301237423 -22.912109375 2.12353515625 C-21.224377953039877 1.4975418490023813 -19.556099210369524 0.81972726238061 -17.890625 0.13671875 C-11.149622156942172 -2.5727174755936915 -6.739304948808268 -3.4384208922491197 0 0 Z " fill="#EBD4E2" transform="translate(83.0625,37.5625)"/>
<path d="M0 0 C5.313954256511892 1.0368691232218339 8.052011958513987 3.471406064838831 11.390625 7.51171875 C16.026204584720034 14.67886485550159 18.122181690495808 23.83356054454461 18.1328125 32.30859375 C18.134101562500007 33.30310546875 18.135390625 34.2976171875 18.13671875 35.322265625 C18.132851562500008 36.35029296875 18.128984375 37.3783203125 18.125 38.4375 C18.130800781250002 39.973740234375 18.130800781250002 39.973740234375 18.13671875 41.541015625 C18.1267319650064 49.25580703255637 18.1267319650064 49.25580703255637 17.48046875 53.05078125 C16.593254713752984 58.49668854566255 17.079870966725153 64.09393436528511 17.302734375 69.59375 C17.453818257405246 77.6963226563997 15.889701836394494 84.59163373143213 10.5625 90.875 C9.716875000000002 91.57625 8.871250000000003 92.2775 8 93 C7.318085937500001 93.60328125 6.636171875000002 94.2065625 5.93359375 94.828125 C1.303086709507113 98.25630331493215 -3.8790884697789636 100.60267388196007 -9.05078125 103.11328125 C-14.924821786495812 106.08267811963017 -18.979435417825513 108.95887083565101 -22 115 C-26.289999999999992 115 -30.58 115 -35 115 C-34.43647111398171 108.23765336778052 -32.90345657959252 102.72590707652391 -27.828125 97.9609375 C-25.26665970935659 95.90062846187378 -22.654818458381058 93.93825241430476 -20 92 C-2.3729786461336175 79.35977053292052 -2.3729786461336175 79.35977053292052 7.625 60.9375 C8.416861338153566 52.62295594938759 7.94830350611312 45.08731487347538 6.4375 36.8828125 C6.0420226637509415 34.276899337930324 5.928765203475848 31.93928312182811 6 29.3125 C6.091781905169029 24.60102886799028 5.732906175895636 19.9941747698549 5.25 15.3125 C5.188124999999999 14.59940673828125 5.126249999999999 13.8863134765625 5.0625 13.151611328125 C4.4772912397424705 7.906068221858359 2.8598773894467513 4.435135057211117 0 0 Z " fill="#535A7F" transform="translate(96,13)"/>
<path d="M0 0 C0 15.510000000000005 0 31.02000000000001 0 47 C-17.819999999999993 47 -35.64 47 -54 47 C-50.257597325796354 37.6439933144909 -41.78894823750355 34.542923555409715 -33.255859375 30.10546875 C-24.246837979947202 25.306965231254708 -19.182097543059314 19.593205186595583 -15.4375 10.125 C-14.963124999999991 9.09375 -14.48875000000001 8.0625 -14 7 C-13.009999999999991 6.670000000000002 -12.02000000000001 6.340000000000003 -11 6 C-11 5.340000000000003 -11 4.680000000000007 -11 4 C-6.872681334599221 0.7365387296831045 -5.432220528535765 0 0 0 Z " fill="#16294E" transform="translate(128,81)"/>
<path d="M0 0 C9.57 0 19.14 0 29 0 C27.69241520143741 6.537923992812951 24.680620049446436 11.023727218409167 21 16.4375 C14.172044052285642 26.662191608572257 12.104032614684497 35.430723408799594 11.71435546875 47.712158203125 C11.385207662746348 57.98138988824988 10.651772142289204 66.35635214373487 4.9375 75.1875 C2.9999999999999987 77 2.9999999999999987 77 0 77 C0 51.59 0 26.18 0 0 Z " fill="#1D1D3E" transform="translate(0,0)"/>
<path d="M0 0 C2.4749999999999943 0.49499999999999744 2.4749999999999943 0.49499999999999744 5 1 C11.05533586538023 27.708356406230664 11.05533586538023 27.708356406230664 4.23046875 38.90234375 C-1.496436366735935 46.85582143401331 -8.258613163059792 53.75142665633757 -15.9375 59.8125 C-16.48075927734375 60.251103515625005 -17.0240185546875 60.68970703125001 -17.583740234375 61.1416015625 C-21.390022266705756 64.03022898501281 -21.390022266705756 64.03022898501281 -24.20703125 63.890625 C-26.778908980113684 62.61309096412654 -28.832175817157847 60.866737490780736 -31 59 C-26.796398986241826 47.954823866910914 -21.45773944482731 34.85475252390496 -11.875 27.5 C-4.242135149598255 20.862726217041953 -2.6047542953925387 9.394195819448491 0 0 Z " fill="#9F9AB8" transform="translate(97,43)"/>
<path d="M0 0 C-0.015952148437499147 0.6287402343750017 -0.031904296874998295 1.2574804687500034 -0.04833984375 1.9052734375 C-0.15764070037067768 9.766418164322303 0.5111205733916329 17.44185902873207 1.375 25.25 C1.5013281250000006 26.4771875 1.6276562500000011 27.704375 1.7578125 28.96875 C2.478580637587253 39.25871268419705 2.478580637587253 39.25871268419705 6.875 48.25 C14.204954254891653 52.35477438273932 21.516127396261382 53.14961722175747 29.8125 52.8125 C34.76413158485181 52.67523711212422 37.633463162327274 52.696494325178946 41.4375 56 C42.283125 56.99000000000001 43.12875 57.97999999999999 44 59 C39.93981732428071 63.39853123202923 38.04686873101362 64.86458361195496 32.1875 65.125 C26.360954905695365 65.10459575647909 20.620701989080658 64.06629201723982 14.875 63.1875 C13.708398437500001 63.021855468750005 12.541796875000003 62.85621093750001 11.33984375 62.685546875 C9.65181640625 62.429345703124994 9.65181640625 62.429345703124994 7.9296875 62.16796875 C6.911166992187503 62.01610107421875 5.892646484375 61.864233398437506 4.84326171875 61.707763671875 C-0.6952283409817568 60.329085783916696 -3.720514083500426 57.56785538369584 -7 53 C-9.646529865367459 47.70694026926509 -8.399206282971093 39.28894171293939 -8.4599609375 33.399169921875 C-8.486487588715878 31.4370064712663 -8.527323762846876 29.474980271714657 -8.5830078125 27.513427734375 C-9.098795741084366 9.120616630428344 -9.098795741084366 9.120616630428344 -4.53125 3.16015625 C-1.4119492908246514 0 -1.4119492908246514 0 0 0 Z " fill="#98899C" transform="translate(29,48)"/>
<path d="M0 0 C5.808721458744429 4.830410476219058 5.860728778828047 12.44556894503031 6.633544921875 19.4775390625 C7.021300052808755 23.846215688460617 6.953230343051459 27.675926124998462 6 32 C4.349999999999994 31.67 2.700000000000003 31.340000000000003 1 31 C0.7692578125000011 30.203359374999998 0.5385156250000023 29.406718750000003 0.30078125 28.5859375 C-2.6337003199040794 18.73461093786122 -2.6337003199040794 18.73461093786122 -9.88671875 11.828125 C-18.907975536633245 7.085521432169951 -28.881625066445167 4.930967225454264 -38.9599609375 7.49951171875 C-42.75533709705468 8.736458429224424 -46.393316189496524 10.297012703303587 -50 12 C-46.61931829492535 4.5391852025938775 -39.69789099371417 -2.9674974873247226 -32 -6 C-20.486871931266776 -8.322250263863804 -9.916226387779545 -6.325626733930086 0 0 Z " fill="#988E8F" transform="translate(96,12)"/>
<path d="M0 0 C5.609999999999999 0 11.219999999999999 0 17 0 C15.210072122737692 5.369783631786916 14.506571697939478 6.9974516831750755 10.875 10.8125 C10.074492187499999 11.6748828125 9.273984374999998 12.537265625 8.44921875 13.42578125 C6.897846977070536 15.056329891723314 5.338845154567579 16.67968107577729 3.76953125 18.29296875 C-4.578155145487987 27.141829563228352 -6.245303981486856 35.63335697968658 -7.77978515625 47.367431640625 C-8.846393924855562 55.05668497587011 -11.003672133567576 61.84671133863564 -14 69 C-16.76058615465487 66.47946481531511 -17.88426746752917 64.6014927561456 -18.1611328125 60.770263671875 C-18.4671929872029 41.80342993839713 -17.847360546651153 27.322731447940285 -5.8125 11.875 C-2.8994840094249525 8.1286014819376 -1.4483162271024952 4.505872706541098 0 0 Z " fill="#4F4A62" transform="translate(29,0)"/>
<path d="M0 0 C0 15.510000000000005 0 31.02000000000001 0 47 C-2.3100000000000023 47.66 -4.6200000000000045 48.31999999999999 -7 49 C-8.353505936367924 49.624695047554425 -9.699344825039276 50.271633102021994 -11 51 C-11 51.66 -11 52.31999999999999 -11 53 C-12.319999999999993 53.66 -13.64 54.31999999999999 -15 55 C-16.01301490565885 50.811263763109054 -16.133665540983174 46.86494109814652 -16.125 42.5625 C-16.127578125 41.285039062500005 -16.13015625 40.00757812500001 -16.1328125 38.69140625 C-16 35 -16 35 -15.52734375 32.23828125 C-14.737778305397683 27.38976455684943 -14.630485344687656 22.52872597157151 -14.4375 17.625 C-14.372724609374998 16.09166015625 -14.372724609374998 16.09166015625 -14.306640625 14.52734375 C-14.20112207508025 12.018347118574667 -14.09900787092728 9.509260574433654 -14 7 C-13.340000000000003 7 -12.680000000000007 7 -12 7 C-12 6.340000000000003 -12 5.68 -12 5 C-3.6129032258064484 0 -3.6129032258064484 0 0 0 Z " fill="#413C54" transform="translate(128,34)"/>
<path d="M0 0 C5.313954256511906 1.0368691232218339 8.052011958513987 3.471406064838831 11.390625 7.51171875 C17.38014703042252 16.77221761742512 18.180707881496318 27.559205475215094 18.1875 38.25 C18.199746093750008 39.2490234375 18.2119921875 40.248046875 18.224609375 41.27734375 C18.249286495414182 53.86267516123277 18.249286495414182 53.86267516123277 16 59 C14.515 59.495000000000005 14.515 59.495000000000005 13 60 C13 60.66 13 61.31999999999999 13 62 C10.999999999999986 63.625 10.999999999999986 63.625 9 65 C8.340000000000003 64.67 7.680000000000007 64.34 7 64 C7.165000000000006 63.071875000000006 7.329999999999998 62.14375 7.5 61.1875 C8.652601776065495 52.86872196404906 7.950888065920012 45.101350469093404 6.4375 36.8828125 C6.0420226637509415 34.276899337930324 5.928765203475848 31.93928312182811 6 29.3125 C6.0917819051690145 24.60102886799028 5.732906175895636 19.9941747698549 5.25 15.3125 C5.157187500000006 14.242860107421876 5.157187500000006 14.242860107421876 5.0625 13.151611328125 C4.4772912397424705 7.906068221858355 2.8598773894467513 4.43513505721112 0 0 Z " fill="#796E82" transform="translate(96,13)"/>
</svg>
