<?xml version="1.0" encoding="UTF-8"?>
<!-- Generator: visioncortex VTracer 0.6.0 -->
<svg version="1.1" xmlns="http://www.w3.org/2000/svg" width="128" height="128">
<path d="M0 0 C42.24 0 84.48 0 128 0 C128 42.24 128 84.48 128 128 C85.75999999999999 128 43.519999999999996 128 0 128 C0 85.75999999999999 0 43.519999999999996 0 0 Z " fill="#91A5A2" transform="translate(0,0)"/>
<path d="M0 0 C42.24 0 84.48 0 128 0 C128 42.24 128 84.48 128 128 C115.78999999999999 128 103.58 128 91 128 C92.66729896445148 123.83175258887132 93.3357265588352 122.32089257752166 96.1875 119.3125 C100.2499351140485 114.8295229486794 103.59531955530468 109.9900083679459 107 105 C108.22821447857702 103.27015687122521 109.45736783865247 101.54097994526231 110.6875 99.8125 C111.79574503944752 98.21114817895561 112.90031019120093 96.6072389513217 114 95 C114.4266796875 94.3954296875 114.853359375 93.790859375 115.29296875 93.16796875 C118.39883297484855 88.38022859111796 119.35466787350018 83.62401913693138 119 78 C117.82157798310595 73.60517906640689 115.82639789448571 69.64744693528543 113.79296875 65.59375 C110.48332684285361 58.78534379101315 108.55493012774782 52.01394630826654 106.963134765625 44.636962890625 C104.45545677219432 33.92353805678809 94.93903096947719 28.972947419464298 86.16943359375 23.32177734375 C75.19742549040804 16.636828899962765 61.6866414935438 10.270983231286003 48.5625 12.5625 C40.361360169981666 14.71314855682299 32.45481178271503 19.655580574442784 28 27 C25.886401646724426 32.09867348103434 25.74912087792327 36.491794954487005 25.83984375 41.90625 C25.845045318603514 42.749176025390625 25.85024688720703 43.59210205078125 25.855606079101563 44.4605712890625 C25.873330632756215 47.140561018556696 25.904478029194564 49.82015860281144 25.9375 52.5 C25.96521877411234 55.1798028746173 25.989934992309344 57.85954762582294 26.008682250976563 60.5394287109375 C26.0208311003287 62.20232109159787 26.038325713956063 63.865185819455085 26.061996459960938 65.5279541015625 C26.098851964286464 69.82240179447545 25.778906976450184 73.76056449405466 25 78 C24.929143655845632 80.80254636102806 25.130858172645603 83.57821350758437 25.3125 86.375 C25.365673828124997 87.450078125 25.365673828124997 87.450078125 25.419921875 88.546875 C25.867456244851322 95.94789114619796 26.92668190099065 104.2649447576416 32 110 C35.512932849487925 112.60583751276569 39.21640331094366 114.8120940885022 43 117 C47.121056108697175 119.44118785555355 49.89025397254447 121.5460917198161 52 126 C52 126.66 52 127.32 52 128 C34.84 128 17.68 128 0 128 C0 85.75999999999999 0 43.519999999999996 0 0 Z " fill="#606F71" transform="translate(0,0)"/>
<path d="M0 0 C6.033373269383176 3.4044743990843287 9.981872329724325 7.2936065110839365 12 14 C12.337248196427865 16.47863715098204 12.670207851007035 18.957859782007716 13 21.4375 C14.116598040475026 27.777505823036137 15.719500155076034 30.34906556676411 20.9375 34.125 C21.97777343749999 34.766953125 23.01804687500001 35.40890625 24.08984375 36.0703125 C28.560330692521347 39.03463538537656 31.631542178642633 42.77497922754458 33 48 C32.66206589238497 56.955253851798204 28.208514818192356 63.52313774909311 22.29296875 69.94921875 C16.116349732071996 75.47345211356422 8.559224501445698 78.33487503330035 0.34375 78.21484375 C-5.91302880722337 77.6413056926712 -10.016600975172992 74.64729886229817 -14 70 C-16.814254050973013 65.92925132052468 -18.061636356206066 61.72825396850806 -19.3125 57 C-20.833043620649875 51.51817909668449 -22.561905959782216 46.446295340144076 -25.0625 41.3125 C-30.14182968391485 30.773219027949295 -33.62481670668707 19.804790766950973 -32 8 C-29.71448070361471 3.077343053939373 -26.283052936014457 0.1895075055426787 -22 -3 C-14.113191055004982 -5.628936314998338 -7.277936861718857 -3.4112018478507586 0 0 Z " fill="#D2EDE9" transform="translate(69,29)"/>
<path d="M0 0 C0.8308007812499909 0.22776123046875085 1.6616015625000102 0.4555224609375017 2.517578125 0.690185546875 C15.218504589636836 4.313846805127504 15.218504589636836 4.313846805127504 18.5 7.8125 C21.081841111874482 13.50245679091762 22.142059922987457 18.9025368839225 22.9375 25.0625 C23.72479249000739 30.647322444505228 24.64501958715897 35.81407780959968 26.625 41.125 C31.616773478816995 55.14858152414736 28.911080605226417 67.18509227851143 23.40234375 80.45703125 C19.47797255946351 87.81346900143579 11.147679271670668 91.72922048180534 3.484375 94.2734375 C-4.81754111414449 96.52868242864555 -10.763201034450674 95.73193377674266 -18.5 91.8125 C-21.897966331100974 89.67153792026096 -25.16768863129107 87.42143086618569 -28.41015625 85.0546875 C-31.721015607136707 82.65211699305124 -35.12529606819558 80.45626981555591 -38.59765625 78.296875 C-46.764077676966494 71.9247186504163 -48.338899794505906 60.94167144945766 -49.5625 51.1875 C-50.15624742505847 39.536856081630425 -46.31407046169274 27.332659861875598 -41.5 16.8125 C-41.17 16.8125 -40.84 16.8125 -40.5 16.8125 C-40.4136328125 17.6491015625 -40.327265625 18.485703125 -40.23828125 19.34765625 C-38.863334659536925 30.73826882970785 -36.08258237577533 41.350512786240046 -30.52734375 51.45703125 C-28.69848956184407 55.65018362816741 -27.626598513348966 60.12914515370409 -26.513671875 64.56005859375 C-25.080100302308104 69.89925647327229 -22.82790753366914 73.40677266410746 -19.5 77.8125 C-19.5 78.4725 -19.5 79.1325 -19.5 79.8125 C-11.419968110986531 83.0215906793245 -4.780455151851939 84.20958042084044 3.5625 81.25 C11.881306867407702 77.56854043911305 17.300367690961565 71.77148058567768 21.5 63.8125 C21.95375 62.9875 22.4075 62.162499999999994 22.875 61.3125 C24.15032100045883 56.211215998164676 23.320585042964737 52.300053454663555 20.8515625 47.82421875 C18.66436291678636 45.02300466585096 16.729258753849948 43.482614764359255 13.727783203125 41.643310546875 C7.8582643844557225 37.971647439590996 4.8780278239525785 34.76204501898788 3.26171875 27.9287109375 C2.697199333102361 24.87662443788166 2.242848637793543 21.8174409513517 1.81494140625 18.74365234375 C1.3962881323143819 16.17656133845484 0.7748209154556207 14.085006849290465 -0.5 11.8125 C-2.367562224608335 10.594837051749082 -2.367562224608335 10.594837051749082 -4.5 9.8125 C-5.778074730933739 8.990315843193144 -7.0488328166043175 8.15666056243133 -8.3125 7.3125 C-14.36244002768936 3.5103195759438393 -20.51351720649535 2.5479192414215426 -27.5 1.8125 C-20.586203601710146 -5.101296398289854 -8.364266876350598 -2.308992163858747 0 0 Z " fill="#A0C3CC" transform="translate(77.5,23.1875)"/>
<path d="M0 0 C13.200000000000001 0 26.400000000000002 0 40 0 C38.77060649730364 4.917574010785453 37.42671812509411 5.509641028159249 33.375 8.375 C32.27759326603847 9.170424845380289 31.18123419617663 9.96729714019745 30.0859375 10.765625 C29.067578125 11.50296875 28.04921875 12.2403125 27 13 C20.927094837287292 17.59223217251067 16.5488878624464 22.25369371430113 15 30 C14.920017945099813 32.84780142263877 14.89572859929489 35.668627293034 14.921875 38.515625 C14.926286010742187 39.38519836425781 14.930697021484375 40.25477172851563 14.93524169921875 41.15069580078125 C14.946156438562133 43.06947352220823 14.959652053986835 44.98823780422847 14.975341796875 46.906982421875 C15.00092248176006 50.115712093249535 15.017389293317885 53.32441145756175 15.033203125 56.533203125 C15.066602477692493 62.39867561073878 15.13037921233885 68.2633679484435 15.20751953125 74.12841796875 C15.235922976654617 76.54989330858957 15.257039670600623 78.97146470584283 15.27099609375 81.39306640625 C15.358103682837609 99.8342498788239 15.358103682837609 99.8342498788239 19.1513671875 117.7744140625 C20 121 20 121 20 128 C13.399999999999999 128 6.799999999999999 128 0 128 C0 85.75999999999999 0 43.519999999999996 0 0 Z " fill="#394245" transform="translate(0,0)"/>
<path d="M0 0 C16.17 0 32.34 0 49 0 C49 18.810000000000002 49 37.620000000000005 49 57 C43.89538871823781 54.95815548729512 43.17623110507874 54.42737500667283 41.01171875 49.73046875 C39.980638961085276 46.947747620844034 39.186583528271356 44.13582800262395 38.400390625 41.27587890625 C34.71153928032663 28.17187790860218 28.19147607490808 20.672452174653408 16.30078125 13.83984375 C15.211523437500006 13.2326953125 14.122265624999997 12.625546875 13 12 C10.92616640560587 10.790053237862617 8.862748044127969 9.561995859134345 6.8125 8.3125 C5.932070312500002 7.7930078125 5.0516406250000045 7.273515625 4.14453125 6.73828125 C2 5 2 5 0 0 Z " fill="#353C44" transform="translate(79,0)"/>
<path d="M0 0 C6.537439948829657 1.0895733248049453 8.753562897377387 2.11120733586705 13.15380859375 6.78076171875 C17.158239544654112 13.763362422085308 16.02325401106679 22.240952625590637 15.8125 30.0625 C15.750300959556474 33.63685003916652 15.716204026663448 37.21028249644124 15.70703125 40.78515625 C15.70309356689453 41.6538735961914 15.699155883789063 42.522590942382806 15.695098876953125 43.417633056640625 C15.766641513088388 50.52093823109513 17.070247634825087 56.776163960219634 19.131591796875 63.552490234375 C20 67 20 67 20 74 C13.399999999999999 74 6.799999999999999 74 0 74 C0 49.58 0 25.159999999999997 0 0 Z " fill="#18374A" transform="translate(0,54)"/>
<path d="M0 0 C2.3670258558661708 2.3670258558661743 2.5050627563386243 3.5602878494360937 3.1484375 6.796875 C3.3495312499999983 7.755937500000002 3.550625 8.715000000000003 3.7578125 9.703125 C4.165923592733211 11.71785064767029 4.5696452864214585 13.73347092086631 4.96875 15.75 C6.335556445050621 22.220703929733304 7.614224114678279 27.14122121409936 12.83203125 31.546875 C13.81236328125 32.142421875 13.81236328125 32.142421875 14.8125 32.75 C17.79145071055116 34.60630482293848 20.727752086460413 36.48717846098424 23.60546875 38.49609375 C35.50857926042988 47.07968467102752 35.50857926042988 47.07968467102752 49.6875 48.625 C57.275619516755185 47.081984705730605 66.4804836027265 43.519516397273506 72 38 C74.65537372418333 37.43479997035456 77.29144712909203 37.262118019765296 80 37 C77.60786924026958 42.45405813218537 75.26837094174705 46.140175425971336 70.78125 50.06640625 C69.11544722559603 51.87467899853064 68.08019635238625 53.4890127050959 66.888671875 55.620849609375 C65.953779296875 57.29352905273437 65.953779296875 57.29352905273437 65 59 C59.50081610974978 59.1235216507244 54.002437823812 59.2143008973772 48.502197265625 59.274658203125 C46.630960463760985 59.299815780043104 44.759822051212524 59.33394592658368 42.888916015625 59.377197265625 C40.20043696892182 59.437796766810294 37.5132556426542 59.46619602804759 34.82421875 59.48828125 C33.98662521362305 59.51408767700195 33.14903167724609 59.539894104003906 32.28605651855469 59.56648254394531 C29.920654296875014 59.567626953125 29.920654296875014 59.567626953125 26 59 C23.926802975562197 56.56905744593769 23 55.20486386491039 23 52 C22.441835937500002 51.72800781250001 21.883671875000005 51.45601562499999 21.30859375 51.17578125 C11.953968870982067 46.41141223378274 4.715150652637032 41.598699542868246 0 32 C-1.0959702164741074 26.90562809721692 -1.383164787343432 21.752429826503345 -1.6875 16.5625 C-1.747441406250001 15.742011718750007 -1.8073828124999984 14.9215234375 -1.869140625 14.076171875 C-2.1712463300390823 8.890713677548376 -1.7238350543384229 4.907315882656889 0 0 Z " fill="#6C93A6" transform="translate(26,69)"/>
<path d="M0 0 C0.8308007812500051 0.22776123046875085 1.661601562499996 0.4555224609375017 2.517578125 0.690185546875 C15.218504589636836 4.313846805127504 15.218504589636836 4.313846805127504 18.5 7.8125 C21.08183872874187 13.502451538881942 22.142116478425095 18.90250847120707 22.9375 25.0625 C23.88959779245485 31.816955639796767 25.34349269015894 37.92397070491698 27.71484375 44.34375 C28.77400223487909 47.67403936539097 28.814399305785656 50.354107636357895 28.5 53.8125 C27.180000000000007 54.4725 25.86 55.13249999999999 24.5 55.8125 C24.255078124999997 55.1834375 24.010156249999994 54.55437499999999 23.7578125 53.90625 C20.27268951000974 45.92652011947061 15.010818259003287 40.77073098643085 7.32421875 36.64453125 C4.361429606910832 33.669053502443646 4.112257010011604 29.969975298237358 3.375 25.9375 C2.1591237430797605 18.636449053339412 2.1591237430797605 18.636449053339412 -0.5 11.8125 C-2.3675622246083208 10.594837051749082 -2.3675622246083208 10.594837051749082 -4.5 9.8125 C-5.778074730933739 8.990315843193144 -7.0488328166043175 8.15666056243133 -8.3125 7.3125 C-14.36244002768936 3.5103195759438393 -20.51351720649535 2.5479192414215426 -27.5 1.8125 C-20.586203601710146 -5.101296398289854 -8.364266876350598 -2.308992163858747 0 0 Z " fill="#B1C3BD" transform="translate(77.5,23.1875)"/>
<path d="M0 0 C7.895140393593437 7.8167118466372045 10.120578297181929 12.429639285539594 10.517578125 23.400390625 C10.868714147648063 30.88025042820118 11.860934915574198 39.19062207847517 17 45 C20.51293284948791 47.605837512765675 24.21640331094366 49.81209408850221 28 52 C32.12105610869719 54.44118785555355 34.890253972544464 56.54609171981609 37 61 C37 61.66 37 62.31999999999999 37 63 C26.439999999999998 63 15.879999999999999 63 5 63 C4.009999999999998 58.05 4.009999999999998 58.05 3 53 C2.4684143469221844 51.056893933231024 1.9314312107774327 49.11524840062317 1.38671875 47.17578125 C-0.7673913070729732 37.9425253665991 -0.3208579311661168 28.607266823438138 -0.1875 19.1875 C-0.1724172549793721 17.319672318252003 -0.15873523902952869 15.451832777368892 -0.146484375 13.583984375 C-0.11378309819666477 9.055691099695721 -0.06220191154149646 4.527980176059145 0 0 Z " fill="#3F667A" transform="translate(15,65)"/>
<path d="M0 0 C0 12.210000000000008 0 24.42 0 37 C-12.210000000000008 37 -24.42 37 -37 37 C-35.33270103554855 32.831752588871396 -34.66427344116475 31.320892577521633 -31.8125 28.3125 C-29.11241898408005 25.337929420220973 -26.72217571639507 22.305164203051547 -24.4375 19 C-23.85484375 18.15953125 -23.2721875 17.3190625 -22.671875 16.453125 C-21.622430357494807 14.913285664735355 -20.588603256156773 13.362561089209933 -19.578125 11.796875 C-14.810926191350504 4.779986865920407 -8.653961157826686 0 0 0 Z " fill="#2E5973" transform="translate(128,91)"/>
<path d="M0 0 C1.4486408485522588 0.8564291809051099 2.8835169157829483 1.7361588471377232 4.3125 2.625 C5.113007812500001 3.112265624999999 5.913515625000002 3.5995312499999983 6.73828125 4.1015625 C11.709645486572796 8.274417455050738 12.754308467512061 14.408074515481886 14.25 20.4375 C15.859666140625052 26.647302078051162 17.86849513281355 32.27032386948915 20.75 38 C24.225048901123316 45.00436669720858 26.267872237174657 50.823479689307035 23.9375 58.5 C23.32547242410348 59.68475062857033 22.674624069674366 60.84974169415233 22 62 C21.538515625000002 62.817265625000005 21.077031250000005 63.63453125000001 20.6015625 64.4765625 C19.122006897496306 67.02259980583123 17.577539454965503 69.51379781897437 16 72 C15.381249999999994 73.010625 14.762500000000003 74.02125 14.125 75.0625 C10.943700739666156 77.96309638442204 8.243762939873719 77.78781185300632 4 78 C4.412499999999994 76.80375 4.825000000000003 75.6075 5.25 74.375 C5.518124999999998 73.5512890625 5.7862499999999955 72.727578125 6.0625 71.87890625 C6.727269609458446 69.83750957428803 7.417409462749262 67.80429580983284 8.125 65.77734375 C12.174049530143677 53.30683356514777 11.021307112022157 43.19492891660795 6.873779296875 31.044921875 C4.916776556502754 25.19162088099487 4.14616271717108 19.583715791272382 3.46875 13.44140625 C2.8330910226382002 8.774609924535476 1.5642416476645167 4.4320180017161235 0 0 Z " fill="#84959D" transform="translate(95,29)"/>
<path d="M0 0 C5.905571402337159 4.921309501947629 7.740344012952988 10.983920323650104 9.99609375 18.17578125 C10.327382812500005 19.2315234375 10.658671874999996 20.287265625000003 11 21.375 C11.433125000000004 22.840664062499997 11.433125000000004 22.840664062499997 11.875 24.3359375 C13.408494899398164 27.967338615935944 15.469955244298333 30.234977622149167 19 32 C19 43.22 19 54.44 19 66 C16.03 66.99 13.060000000000002 67.98 10 69 C7.078383400128473 70.54888410059363 7.078383400128473 70.54888410059363 5 72 C6.033170794602611 68.74153826317638 7.108013613953773 65.79197378053348 8.6875 62.75 C10.948914318742965 56.28881623216296 10.161478236709883 51.30311333146052 7.28125 45.140625 C6.23301437674057 42.98108876272417 5.16590177048225 40.83158601179524 4.0966796875 38.682373046875 C-2.372315742607171 25.412751210455973 -3.8285700849384625 14.293328317103601 0 0 Z " fill="#5C6773" transform="translate(109,25)"/>
</svg>
