<?xml version="1.0" encoding="UTF-8"?>
<!-- Generator: visioncortex VTracer 0.6.0 -->
<svg version="1.1" xmlns="http://www.w3.org/2000/svg" width="128" height="128">
<path d="M0 0 C42.24 0 84.48 0 128 0 C128 42.24 128 84.48 128 128 C85.75999999999999 128 43.519999999999996 128 0 128 C0 85.75999999999999 0 43.519999999999996 0 0 Z " fill="#ACAC82" transform="translate(0,0)"/>
<path d="M0 0 C2.383349546511738 0.6422033621262777 4.784699346755659 1.2192227919462013 7.1953125 1.75 C18.22844068162634 4.181961433413498 28.17471282641175 7.922828496339541 37.36328125 14.71875 C40.62794494543124 17.331608308747704 40.62794494543124 17.331608308747704 46.36328125 18.90625 C46.36328125 23.19625 46.36328125 27.48625 46.36328125 31.90625 C44.81640625 31.865000000000002 43.26953125 31.823749999999997 41.67578125 31.78125 C35.11179153961615 31.764156276795873 28.811906448408422 32.75800513160295 22.36328125 33.90625 C21.58227644000219 36.76423947658574 21.13660424265592 39.51234369753118 20.86328125 42.4609375 C20.780781250000004 43.3233203125 20.698281249999994 44.185703125 20.61328125 45.07421875 C20.530781250000004 45.96753906250001 20.448281249999994 46.86085937499999 20.36328125 47.78125 C19.859089932062318 53.193428678487294 19.352169397906053 58.5556587711512 18.36328125 63.90625 C19.84828125 64.89625 19.84828125 64.89625 21.36328125 65.90625 C20.433538905238677 68.19382387209625 19.829546675078717 69.60938490419866 17.715576171875 70.955322265625 C9.219954250015533 73.86307098979907 0.6132407905198534 73.02351785359498 -8.240234375 72.701171875 C-15.24335270147482 72.55293860118199 -19.17996490434932 72.47873753011433 -24.63671875 76.90625 C-31.497872093393184 76.95051550544125 -37.40191527368897 72.41662798745479 -42.38671875 68.1328125 C-45.83532579182492 64.72012844819409 -48.2819414777545 61.130214881005344 -50.63671875 56.90625 C-51.196171875000005 55.95363281249999 -51.755625 55.00101562500001 -52.33203125 54.01953125 C-55.85807468920338 47.6152523522841 -58.07653113062696 42.246722047660654 -56.63671875 34.90625 C-54.195217877072125 28.691520505274504 -49.69250986553131 24.773352905582172 -44.87890625 20.23828125 C-41.66084680291503 16.89127517001789 -40.49187567919489 14.438036394313357 -40.26171875 9.84375 C-39.63671875 5.90625 -39.63671875 5.90625 -37.96484375 4.29296875 C-35.293323704271515 2.701711004641588 -32.72033778342263 1.7373431736505687 -29.76171875 0.78125 C-28.2496484375 0.28238281249999986 -28.2496484375 0.28238281249999986 -26.70703125 -0.2265625 C-17.304641765773695 -2.882199224552469 -9.351721224727925 -2.5666731696839022 0 0 Z " fill="#6D6C52" transform="translate(81.63671875,25.09375)"/>
<path d="M0 0 C31.68 0 63.36 0 96 0 C96 14.520000000000001 96 29.040000000000003 96 44 C88.26134969325153 41.78895705521472 88.26134969325153 41.78895705521472 84.9375 39.25 C74.33114294788909 31.90438109566643 62.39262358508438 28.771683554513494 50 26 C49.110546875 25.773125 48.221093749999994 25.54625 47.3046875 25.3125 C34.18119367629343 22.020194929244347 22.576978389434316 26.076650546658765 10 30 C9.09410081334974 27.73525203337436 8.189376538282389 25.470102794236222 7.2890625 23.203125 C6.342431781310445 20.85089109295323 5.378992396312803 18.509852866653304 4.3984375 16.171875 C4.125961914062501 15.51324462890625 3.853486328125001 14.8546142578125 3.57275390625 14.176025390625 C3.03248385903332 12.870239178583493 2.4854814340281024 11.567214215453493 1.93115234375 10.267333984375 C0.3626527880606929 6.446953233781273 0 4.276256492415132 0 0 Z " fill="#9CB1AE" transform="translate(32,0)"/>
<path d="M0 0 C10.56 0 21.12 0 32 0 C32.99 3.3000000000000003 33.98 6.6000000000000005 35 10 C35.57564375245835 11.6946766099632 36.16647213851434 13.384502448188364 36.7890625 15.0625 C37.090703125 15.8784765625 37.39234375 16.694453125 37.703125 17.53515625 C38.00734375 18.3485546875 38.3115625 19.161953125 38.625 20 C38.936953125 20.8443359375 39.24890625 21.688671875 39.5703125 22.55859375 C41.13321647902112 26.844343817598105 41.13321647902112 26.844343817598105 43 31 C42.59413201035707 40.0982074344956 38.38496703666747 44.82635667594301 32.0546875 50.8515625 C26.65667790610248 56.33991535069915 25.618981945086006 61.420629243844836 25 69 C23.515 69.495 23.515 69.495 22 70 C22 69.34 22 68.68 22 68 C21.1917578125 67.5978125 21.1917578125 67.5978125 20.3671875 67.1875 C18.639131593866647 66.32062046953047 16.915798081296494 65.44430876590127 15.1953125 64.5625 C14.182109375 64.046875 13.16890625 63.53125 12.125 63 C11.116953125 62.484375 10.10890625 61.96875 9.0703125 61.4375 C5.581390669467184 59.73172053751274 5.581390669467184 59.73172053751274 0 58 C0 38.86 0 19.72 0 0 Z " fill="#CFB17C" transform="translate(0,0)"/>
<path d="M0 0 C0 15.510000000000005 0 31.02000000000001 0 47 C-3.9599999999999937 47.99000000000001 -7.920000000000002 48.97999999999999 -12 50 C-15.400132356889586 50.9615822582812 -15.400132356889586 50.9615822582812 -18.795166015625 51.94091796875 C-29.75698496385573 55.1214069764076 -40.568530306149114 58.180446997160445 -52 56 C-52.73734375000001 55.8981640625 -53.4746875 55.796328125 -54.234375 55.69140625 C-60.28967362112053 54.67870975646778 -65.48035841676018 52.21698701293357 -70 48 C-70.75 45.8046875 -70.75 45.8046875 -71 44 C-66.44046746737784 40.46172613851891 -63.65921661836266 39.530818070461194 -57.9140625 39.75 C-56.92314102172851 39.7727197265625 -56.92314102172851 39.7727197265625 -55.912200927734375 39.7958984375 C-53.11303188110628 39.860654439581964 -50.316296308111546 39.973078864218195 -47.5185546875 40.08203125 C-36.166980041539006 40.55097419298582 -36.166980041539006 40.55097419298582 -26 36 C-25.504999999999995 35.010000000000005 -25.504999999999995 35.010000000000005 -25 34 C-26.319999999999993 33.34 -27.64 32.68000000000001 -29 32 C-28.867226562500008 31.2587890625 -28.734453125 30.517578125 -28.59765625 29.75390625 C-27.047790397077108 20.511275579649634 -26.42562118527394 11.352465518519423 -26 2 C-17.271792292225996 -1.77811111025553 -9.551209196465791 -0.8682917451332557 0 0 Z " fill="#B28B66" transform="translate(128,57)"/>
<path d="M0 0 C6.400650231560917 1.0835306674719192 10.594708122807646 6.393479578653469 14.23828125 11.37890625 C17.724245243074932 16.67344833625627 19.677802126853564 20.989444246130603 20.23828125 27.37890625 C20.653446192682935 29.00429056808548 21.070229501173372 30.629262028512073 21.48828125 32.25390625 C22.566954209455602 37.57427814024716 21.859010048672715 41.622768800556926 19.23828125 46.37890625 C16.396665625169163 49.29338381392907 14.21074198308375 50.72681051827101 10.23828125 51.37890625 C7.592803718887097 51.317122273689506 4.998461021912647 51.19731393968166 2.36328125 51.00390625 C1.668476562500004 50.960078124999995 0.973671875000008 50.91624999999999 0.2578125 50.87109375 C-2.8809089539471273 50.65829907515612 -5.92440569836144 50.348865734355314 -9.01953125 49.77734375 C-11.68144278127319 49.19927755244298 -11.68144278127319 49.19927755244298 -13.8828125 49.984375 C-15.76171875 50.37890625 -15.76171875 50.37890625 -17.796875 49.3046875 C-18.4658984375 48.7723046875 -19.134921875000003 48.23992187499999 -19.82421875 47.69140625 C-20.4958203125 47.17191406250001 -21.167421875000002 46.652421875 -21.859375 46.1171875 C-26.038296884834544 42.29866544917583 -27.454854766318654 39.25353650524815 -27.8828125 33.671875 C-27.55093872132921 27.387684416782186 -22.30817196687523 22.52763692545666 -18.5625 17.8515625 C-16.040137937140045 14.388102227135896 -14.134015697508111 10.684386897328878 -12.21875 6.859375 C-8.916702301251533 1.2379265048115933 -6.36652751725542 -0.32301530774945775 0 0 Z " fill="#313C29" transform="translate(64.76171875,26.62109375)"/>
<path d="M0 0 C8.579999999999998 0 17.159999999999997 0 26 0 C26 14.520000000000001 26 29.040000000000003 26 44 C18.261349693251532 41.78895705521472 18.261349693251532 41.78895705521472 14.9375 39.25 C5.3600449452065675 32.61696524921401 -5.284917639961691 29.387959143591406 -16.50390625 26.859375 C-19.498159166974872 26.123357523201705 -22.182127490484973 25.233157259442276 -25 24 C-25 23.34 -25 22.68 -25 22 C-23.679355468750003 21.636484375000002 -23.679355468750003 21.636484375000002 -22.33203125 21.265625 C-21.170585937499993 20.93046875 -20.009140625 20.5953125 -18.8125 20.25 C-17.663945312500005 19.92515625 -16.515390624999995 19.6003125 -15.33203125 19.265625 C-9.741603891675325 17.14218014173834 -6.714737713158328 14.118073525873328 -3.75 9 C-3.2498437499999966 8.154375 -2.749687499999993 7.30875 -2.234375 6.4375 C-0.799985897603193 3.8287193004847606 -0.799985897603193 3.8287193004847606 0 0 Z " fill="#B69E6B" transform="translate(102,0)"/>
<path d="M0 0 C15.888136263401613 0 26.0832787856687 1.8202373015104882 39 11 C40.370786303767645 11.9450472128364 41.74326709565127 12.887639993420407 43.1171875 13.828125 C45.204191215201334 15.256875948146046 47.28779986359551 16.68874512585576 49.357421875 18.142578125 C53.45651044954714 21.013193671089596 57.619830482606716 23.577890757823866 62 26 C62 26.659999999999997 62 27.319999999999993 62 28 C62.66 28.33 63.32 28.659999999999997 64 29 C42.879999999999995 29 21.759999999999998 29 0 29 C0 19.430000000000007 0 9.86 0 0 Z " fill="#B6CFB3" transform="translate(0,99)"/>
<path d="M0 0 C6.868805160171945 2.0909604749381856 14.757404417661519 4.826805486143634 19 11 C20.526368771442122 16.899016623213363 19.122002135583415 23.12979496180654 18 29 C17.825976562500003 30.082812500000003 17.651953125000006 31.165625000000006 17.47265625 32.28125 C16.875009097475527 35.639928212534244 16.07890162449479 38.76329512651563 15 42 C8.303869869079506 44.191460770119434 1.462882636003087 44.37130196612907 -5.527099609375 44.65869140625 C-8.874973410125108 44.79937352911311 -11.994817865960343 44.99901760492139 -15.296875 45.625 C-19.664540830808335 46.23091895918728 -22.468210981515824 44.43671685874884 -26 42 C-28.061312681011742 40.09266489275058 -29.396254803734337 38.35550075701519 -31 36 C-31 35.00999999999999 -31 34.02000000000001 -31 33 C-31.659999999999997 33 -32.32 33 -33 33 C-33 31.680000000000007 -33 30.36 -33 29 C-29.325811225038137 27.721632616010837 -26.47123564633084 28.257227903773654 -22.6875 28.9375 C-14.891776105486969 30.209204679998777 -9.148593642611644 30.98671568530264 -2 27 C1.2210164378617208 23.242147489161326 2.180571503014505 18.883638376983242 2 14 C1.3365874662929258 11.078586975061022 0.5252975258404575 8.26481011129691 -0.40625 5.41796875 C-1 3 -1 3 0 0 Z " fill="#64545C" transform="translate(84,47)"/>
<path d="M0 0 C1.9983892969172388 0.4282262779108379 3.9955016461896236 0.8627907985831946 5.98828125 1.31640625 C8.210940562053707 1.8209009057839154 10.438294948404504 2.30481437138711 12.66796875 2.77734375 C23.750399911552577 5.231750157771362 33.77092782306177 8.986621672198858 43 15.8125 C46.264663695431224 18.425358308747704 46.264663695431224 18.425358308747704 52 20 C52 24.29 52 28.58 52 33 C50.473749999999995 32.95875 48.94749999999999 32.9175 47.375 32.875 C42.68936033114976 32.80892046620852 38.68046531590075 33.51556010116631 34.125 34.5625 C28.949536973906632 35.40329970127532 26.13318973710176 35.03018914206609 21.73193359375 32.068115234375 C20.133161501191623 30.865645963823994 18.582568675665414 29.59991110844844 17.03515625 28.33203125 C14.067566975948608 25.838287075348866 14.067566975948608 25.838287075348866 10.33203125 24.5078125 C5.582264338133058 22.35844552698636 4.426995760598416 19.657959651403246 2.15625 15.140625 C0.3227176735572499 10.160354761959567 0.01840384429752362 5.272701391239131 0 0 Z " fill="#926C56" transform="translate(76,24)"/>
<path d="M0 0 C0 11.879999999999995 0 23.760000000000005 0 36 C-13.039215686274503 36 -13.039215686274503 36 -18.4375 35.6875 C-19.591210937499994 35.629492187500006 -20.744921875000003 35.571484375 -21.93359375 35.51171875 C-25.16155233187591 34.973040311495865 -26.617121108486813 34.183817755612836 -29 32 C-28.867226562499994 31.2587890625 -28.734453125 30.517578125 -28.59765625 29.75390625 C-27.047790397077108 20.511275579649634 -26.42562118527394 11.352465518519423 -26 2 C-17.271792292225996 -1.77811111025553 -9.551209196465805 -0.8682917451332557 0 0 Z " fill="#9D968D" transform="translate(128,57)"/>
<path d="M0 0 C0.4251309174180946 6.164398302562375 0.10350301143024865 9.095813474144336 -4 14 C-5.5118164247518 15.509087514237812 -7.033486008278018 17.008339770290775 -8.5625 18.5 C-14.738970096315615 24.58519221311883 -16.452947875463586 29.511260136503914 -17 38 C-18.485 38.495000000000005 -18.485 38.495000000000005 -20 39 C-20 38.34 -20 37.68000000000001 -20 37 C-20.538828125 36.731875 -21.07765625 36.463750000000005 -21.6328125 36.1875 C-23.360868406133353 35.32062046953047 -25.084201918703506 34.44430876590127 -26.8046875 33.5625 C-27.817890625 33.046875 -28.83109375 32.53125 -29.875 32 C-30.883046874999998 31.484375 -31.89109375 30.96875 -32.9296875 30.4375 C-36.41860933053278 28.73172053751275 -36.41860933053278 28.73172053751275 -42 27 C-42 19.08 -42 11.159999999999997 -42 3 C-39.56625 3.3299999999999983 -37.1325 3.6599999999999966 -34.625 4 C-21.544473226421566 5.66563554671135 -11.548902879956252 0 0 0 Z " fill="#B59158" transform="translate(42,31)"/>
<path d="M0 0 C10.174955595026644 2.2611012433392546 10.174955595026644 2.2611012433392546 14.3125 4.875 C15.1130078125 5.367421874999998 15.913515625 5.859843749999996 16.73828125 6.3671875 C20.719513179160366 9.24137566302079 23.372434013435658 11.489002909095518 24.25 16.4375 C25.662638017534366 25.508123059957512 25.165682416168423 34.84795822688116 25 44 C16.590303501479074 43.34781945521675 8.374520632787945 42.19636009039829 0 41 C0 27.47 0 13.939999999999998 0 0 Z " fill="#D5C69A" transform="translate(0,58)"/>
<path d="M0 0 C0 7.920000000000002 0 15.840000000000003 0 24 C-16.17 24 -32.34 24 -49 24 C-47.70675396278429 12.360785665058586 -47.70675396278429 12.360785665058586 -46 10 C-43.14010916301743 8.89535996719367 -40.21038600607858 8.505860413371508 -37.1875 8.0625 C-28.544249203123144 6.590432745884911 -20.272461062928443 4.504299753990367 -11.893310546875 1.929931640625 C-11.06355712890624 1.6797729492187443 -10.233803710937508 1.4296142578125028 -9.37890625 1.171875 C-8.652600097656247 0.9459667968749983 -7.926293945312494 0.7200585937499966 -7.177978515625 0.4873046875 C-5 0 -5 0 0 0 Z " fill="#E9C175" transform="translate(128,104)"/>
<path d="M0 0 C1.1756249999999966 0.16499999999999915 2.351249999999993 0.3299999999999983 3.5625 0.5 C6.920628386994508 2.566540545842777 7.640914446778297 4.682644715991373 8.66015625 8.421875 C9.412789526685245 14.131506754163908 8.124750382619979 19.07185648693718 5.25 24 C1.0449752080129144 27.737799815099635 -3.3531542895722026 28.279643813079005 -8.873046875 27.966796875 C-9.894951171874993 27.890419921875008 -9.894951171874993 27.890419921875008 -10.9375 27.8125 C-11.614902343750003 27.780917968750003 -12.292304687500007 27.749335937500007 -12.990234375 27.716796875 C-17.893012598757252 27.3924520068895 -21.57891348143123 26.13849165370145 -26 24 C-26 21.03 -26 18.060000000000002 -26 15 C-25.340000000000003 15 -24.68 15 -24 15 C-23.659687499999997 14.2265625 -23.659687499999997 14.2265625 -23.3125 13.4375 C-21.491429159981465 10.055511297108438 -19.315327788907226 7.057594638880417 -17 4 C-16.319375 3.009999999999998 -15.638750000000002 2.020000000000003 -14.9375 1 C-10.153593002632306 -2.2571281684205573 -5.49153346136309 -0.9450199858985258 0 0 Z " fill="#1E2A32" transform="translate(78,50)"/>
<path d="M0 0 C11.219999999999999 0 22.439999999999998 0 34 0 C32.730159740786945 7.619041555278371 29.76600650822833 13.231032889375165 23.5 17.9375 C19.720037559723806 20.343687544581094 16.151047392890632 22.041767910541566 11.5859375 21.953125 C7.794111076660116 20.55553338777201 6.563925836970029 17.77262262540155 4.75 14.375 C4.399375000000006 13.7704296875 4.048749999999998 13.165859375 3.6875 12.54296875 C1.1787553899799832 8.017579434233117 0.8043047110208192 5.630132977145693 0 0 Z " fill="#D6CEB1" transform="translate(68,0)"/>
<path d="M0 0 C-0.9392094451644937 2.3311660074852227 -1.531561576423968 3.712719685312649 -3.70703125 5.046875 C-15.0042034244116 8.819585559172708 -27.32180887032473 6.904534859283288 -39 6 C-38.67 4.680000000000007 -38.34 3.3599999999999994 -38 2 C-32.223009517188956 0.05331971452342543 -26.884208946963923 -0.3795903256241644 -20.8125 -0.5625 C-19.04804836426726 -0.6226372203621793 -17.283712799020194 -0.6863080088279219 -15.51953125 -0.75390625 C-14.747141113281245 -0.7778344726562523 -13.974750976562504 -0.8017626953125045 -13.178955078125 -0.826416015625 C-10.98990871120921 -0.9391276278656591 -10.98990871120921 -0.9391276278656591 -8.881591796875 -1.538818359375 C-5.674758919505592 -2.3248190477557955 -2.895792914913926 -1.447896457456963 0 0 Z " fill="#936D56" transform="translate(103,91)"/>
<path d="M0 0 C0.6600000000000001 0 1.3200000000000003 0 2 0 C2.146953125000003 0.53625 2.293906249999999 1.0725 2.4453125 1.625 C4.8215994793817885 9.928347606115679 7.910906340854581 17.942364112390912 11 26 C8 26 8 26 6 24.5625 C0.4630197489414698 17.46824405333126 0.38889896679042124 8.676470052186323 0 0 Z " fill="#D6CEB1" transform="translate(30,0)"/>
</svg>
