<?xml version="1.0" encoding="UTF-8"?>
<!-- Generator: visioncortex VTracer 0.6.0 -->
<svg version="1.1" xmlns="http://www.w3.org/2000/svg" width="128" height="128">
<path d="M0 0 C42.24 0 84.48 0 128 0 C128 42.24 128 84.48 128 128 C85.75999999999999 128 43.519999999999996 128 0 128 C0 85.75999999999999 0 43.519999999999996 0 0 Z " fill="#437F8D" transform="translate(0,0)"/>
<path d="M0 0 C42.24 0 84.48 0 128 0 C128 20.130000000000003 128 40.260000000000005 128 61 C120.27338129496404 59.71223021582734 120.27338129496404 59.71223021582734 117 57 C114.43939073764793 49.318172212943765 115.92076209893251 39.59922405606993 116.6875 31.6875 C117.1084409351079 26.072890762605013 117.17049257796339 22.704601889881157 114 18 C108.28873266901392 13.281996552663678 103.17852465437439 12.670536943594188 96 13 C92.403432327883 13.390191973983033 88.82878040680615 13.910487816805945 85.25 14.4375 C64.20680728118774 17.500193090690647 64.20680728118774 17.500193090690647 54.75 16.125 C53.44546875 15.941953125 52.1409375 15.75890625 50.796875 15.5703125 C48.36342122679358 15.204793723366112 45.93756054289845 14.781297614567398 43.52734375 14.28515625 C39.11890995770207 13.928771236890643 35.94052449422124 14.882226724537428 31.8125 16.3125 C31.11447265625 16.53873046875 30.4164453125 16.7649609375 29.697265625 16.998046875 C27.78583037811392 17.6291296824876 25.89190729685533 18.312586737798547 24 19 C23.2201171875 19.2823046875 22.440234375 19.564609375 21.63671875 19.85546875 C17.863694960652673 22.493883953529277 17.41476213474325 28.013491897552818 16.4375 32.25 C16.1887109375 33.30703125 15.939921875 34.3640625 15.68359375 35.453125 C14.145328660851257 43.43452329112605 13.943700028348978 49.51873602039776 15.9375 57.4375 C18.269271497381034 67.34153890420701 18.269271497381034 67.34153890420701 17.9375 72.625 C17.662051296478115 78.96032018100334 20.67223674289395 83.44392734027801 24.83203125 88.01171875 C29.680971223353538 92.57373919830303 34.69411023497521 95.94651068614876 41.515625 96.03125 C42.37671875 96.0003125 43.2378125 95.969375 44.125 95.9375 C48.98346783236968 95.81140236160262 51.27179395082213 96.68603906739745 55 100 C59.27647750058996 104.42326734614798 62.959869692079465 109.23137541958583 66.58984375 114.1875 C68.11833557066208 116.22931740457301 68.11833557066208 116.22931740457301 70.6875 118.6875 C73.35495034693477 121.35495034693477 76 124.06865804234947 76 128 C50.92 128 25.839999999999996 128 0 128 C0 85.75999999999999 0 43.519999999999996 0 0 Z " fill="#8EB8C6" transform="translate(0,0)"/>
<path d="M0 0 C4.28984661531122 3.1642928004028334 5.09727871569018 7.2206575442761505 6.015625 12.1640625 C6.46346951011094 15.448478548759809 6.7833649508664 18.737749949703662 7.078125 22.0390625 C7.2321370811685455 23.72428560303438 7.389523363223134 25.409204802595383 7.55078125 27.09375 C7.64951538085937 28.19565673828125 7.64951538085937 28.19565673828125 7.750244140625 29.31982421875 C7.929828327555114 31.25518642518896 7.929828327555114 31.25518642518896 9.015625 33.1640625 C9.977335310758349 42.24513035240665 8.064391031901408 49.59091345214789 3.015625 57.1640625 C2.3556250000000034 57.1640625 1.6956250000000068 57.1640625 1.015625 57.1640625 C1.015625 57.8240625 1.015625 58.48406249999999 1.015625 59.1640625 C0.3556250000000034 59.1640625 -0.3043749999999932 59.1640625 -0.984375 59.1640625 C-1.4484375000000114 60.370625000000004 -1.4484375000000114 60.370625000000004 -1.921875 61.6015625 C-2.984375000000014 64.16406250000001 -2.984375000000014 64.16406250000001 -3.984375 65.1640625 C-6.4055504455877355 65.37665351473453 -8.808412782086705 65.54070848891966 -11.234375 65.6640625 C-16.447757712213928 65.91402692720857 -16.447757712213928 65.91402692720857 -21.59375 66.7421875 C-24.56403136938306 67.26635480047936 -27.004215893900707 66.84618557038439 -29.984375 66.4140625 C-38.750205736650564 65.61807332981607 -45.513509142386546 68.83766867519991 -53.15234375 72.8125 C-57.96612254985585 75.1098344341381 -61.72142906816808 74.47462297504063 -66.796875 73.2265625 C-73.61830318208759 70.40757073664217 -79.9064855686303 64.65750708941242 -83.609375 58.2890625 C-86.04749747307093 52.409570985991635 -86.06634778725767 46.29023683788678 -83.99609375 40.30859375 C-81.8864683441036 35.78236958193128 -80.60885889962154 33.2393944139695 -75.984375 31.1640625 C-74.71632933917593 29.130467695043706 -74.71632933917593 29.130467695043706 -73.984375 27.1640625 C-72.664375 27.1640625 -71.344375 27.1640625 -69.984375 27.1640625 C-69.984375 26.504062500000003 -69.984375 25.8440625 -69.984375 25.1640625 C-66.4862337590159 23.94163512128248 -66.4862337590159 23.94163512128248 -64.23046875 24.94140625 C-63.33521484375 25.515683593749998 -63.33521484375 25.515683593749998 -62.421875 26.1015625 C-57.38828678746329 28.806880509359615 -52.58692385589275 29.026677165113647 -46.984375 28.1640625 C-44.285055193454184 26.65616771427164 -44.285055193454184 26.65616771427164 -41.984375 24.1640625 C-40.38127757519557 23.183146243563726 -38.776967949103586 22.204210023544917 -37.171875 21.2265625 C-32.82760885024567 18.266025568315563 -30.38166451786917 15.008486191231427 -27.859375 10.4765625 C-22.51074417752443 1.0269530753017975 -10.804966908889483 -4.551698658469192 0 0 Z " fill="#4D7799" transform="translate(101.984375,22.8359375)"/>
<path d="M0 0 C2 1 2 1 2.59423828125 2.698974609375 C2.7513427734375 3.42608642578125 2.908447265625 4.1531982421875 3.0703125 4.90234375 C3.2442553710937503 5.705590820312501 3.4181982421875006 6.508837890625003 3.597412109375 7.33642578125 C3.7715161132812494 8.194780273437502 3.9456201171875005 9.053134765625003 4.125 9.9375 C4.398724365234372 11.24050048828125 4.398724365234372 11.24050048828125 4.677978515625 12.56982421875 C5.56449043808686 17.001968602992577 6.204483352342692 21.086283010174242 5.9375 25.625 C5.662051296478115 31.96032018100334 8.67223674289395 36.44392734027801 12.83203125 41.01171875 C17.680971223353538 45.57373919830303 22.694110234975213 48.94651068614877 29.515625 49.03125 C30.376718750000002 49.00031250000001 31.237812499999997 48.969375 32.125 48.9375 C36.98346783236968 48.81140236160262 39.27179395082213 49.686039067397445 43 53 C47.276477500589955 57.42326734614795 50.95986969207947 62.231375419585845 54.58984375 67.1875 C56.118335570662055 69.229317404573 56.118335570662055 69.229317404573 58.6875 71.6875 C61.35495034693476 74.35495034693476 64 77.06865804234943 64 81 C38.92 81 13.839999999999996 81 -12 81 C-12 57.900000000000006 -12 34.8 -12 11 C-10.02 10.009999999999998 -8.04 9.019999999999996 -6 8 C-4.0697595930181505 6.02198468650591 -4.0697595930181505 6.02198468650591 -2.625 3.8125 C-2.1222656250000007 3.0970703125000014 -1.6195312499999996 2.381640625000003 -1.1015625 1.64453125 C-0.7380468750000002 1.1018359374999989 -0.3745312500000004 0.5591406249999977 0 0 Z " fill="#6BA6AE" transform="translate(12,47)"/>
<path d="M0 0 C3.8683301573157394 3.3041986760405244 5.253171873671391 5.9382913385375 5.875 10.875 C6.158901263387122 14.615090556795497 5.732490336338685 18.09231429380997 5.2314453125 21.80126953125 C4.821444095793822 25.69628108995866 4.896086517959972 29.588018773450088 4.9375 33.5 C4.9420117187499955 34.322421875 4.946523437500005 35.14484375 4.951171875 35.9921875 C4.9628151102355105 37.994823960508064 4.9807444448635465 39.99742226580854 5 42 C8.641256922281897 43.49934108564549 12.24725576259091 44.74908525419697 16 46 C16 51.61 16 57.22 16 63 C12.049983799986904 61.02499189999345 11.241930579793873 60.371924328265436 9 56.875 C8.488242187500006 56.07835937499999 7.976484374999998 55.28171875000001 7.44921875 54.4609375 C6.107089146089635 52.18184949335975 4.939040119557717 49.89120010051715 3.8125 47.5 C2.380836065487017 43.739719364377756 2.380836065487017 43.739719364377756 -1 43 C-3.0697630525493906 39.908617465510915 -3.3811243859271656 36.97129215056476 -3.7109375 33.31640625 C-3.821796875000004 32.22392578125 -3.9326562499999937 31.1314453125 -4.046875 30.005859375 C-4.265186941838792 27.714883461536928 -4.476156216951878 25.423195684715083 -4.6796875 23.130859375 C-5.35471058014015 15.210371620447074 -5.35471058014015 15.210371620447074 -10 9 C-14.584689572701691 6.707655213649154 -20.833595679690433 7.347818669593842 -25.62109375 8.7890625 C-31.915993315254752 11.497213051882998 -34.67658983601427 14.293460252054594 -38.0625 20.25 C-41.266558915294226 25.39962335218201 -44.61710278198926 28.373354208856867 -49.73046875 31.5625 C-52.16875168432544 32.99081549263349 -52.16875168432544 32.99081549263349 -54.4375 35.4375 C-58.71291764390019 38.04446197798792 -63.14122646050406 37.70772051555683 -68 37 C-70.2524364636059 36.131951396085434 -72.1992423183883 35.14820348229842 -74.24609375 33.875 C-76.26987459528942 32.70238916932723 -76.26987459528942 32.70238916932723 -80 33 C-80 33.66 -80 34.32 -80 35 C-81.051875 35.2784375 -81.051875 35.2784375 -82.125 35.5625 C-88.49396399907039 38.746981999535194 -91.62130664781655 44.524668096833956 -94 51 C-98.52328536171075 43.000303181253905 -99.95237928386123 32.91882354672975 -98 24 C-97.78859375 22.923632812500003 -97.57718750000001 21.847265625 -97.359375 20.73828125 C-94.65801886792453 7.906839622641506 -94.65801886792453 7.906839622641506 -89.125 3.9375 C-80.89469757832698 -0.2818322541488225 -73.08465482967534 -2.9883641658636293 -63.9560546875 -0.6650390625 C-53.92787121373196 1.59105375072631 -44.10478589180816 0.9092202805642486 -34 -0.375 C-32.21916015625 -0.5838281250000001 -32.21916015625 -0.5838281250000001 -30.40234375 -0.796875 C-24.342781217807953 -1.5072266628913553 -24.342781217807953 -1.5072266628913553 -18.33203125 -2.53369140625 C-11.809953530292887 -3.837833831358939 -5.918879401138284 -2.915103525279717 0 0 Z " fill="#4E8BB6" transform="translate(112,15)"/>
<path d="M0 0 C3.125 4.3402777777777715 3.125 4.3402777777777715 3.125 6.5625 C4.23875000000001 6.500624999999999 5.352499999999992 6.438749999999999 6.5 6.375 C7.696249999999992 6.436875000000001 8.892499999999998 6.498750000000001 10.125 6.5625 C13.126195432675303 11.064293149012968 12.703202907546384 15.282956784665778 12.125 20.5625 C10.739380199603303 25.314130164567914 8.868104854567576 29.44784271814865 6.125 33.5625 C5.465000000000003 33.5625 4.805000000000007 33.5625 4.125 33.5625 C4.125 34.2225 4.125 34.88249999999999 4.125 35.5625 C3.4650000000000034 35.5625 2.805000000000007 35.5625 2.125 35.5625 C1.8156249999999972 36.36687499999999 1.5062499999999943 37.17125 1.1875 38 C0.125 40.5625 0.125 40.5625 -0.875 41.5625 C-3.296175445587693 41.77509101473453 -5.699037782086705 41.93914598891966 -8.125 42.0625 C-13.377529229309502 42.32695199843012 -13.377529229309502 42.32695199843012 -18.57421875 43.10546875 C-22.431994957715247 43.87178422759369 -26.067494495075522 43.47859155005702 -29.875 42.5625 C-32.622639933871156 40.55746545366159 -33.87383158798748 38.56435334319228 -35.6875 35.6875 C-37.57368890949499 32.992944415007145 -39.00178637823147 31.51201883823593 -41.5 29.5 C-45.65177339113925 26.06834147970075 -46.664060932813136 23.496108115879622 -47.25 18.125 C-46.80501093008574 13.897603835814593 -45.98637569579677 11.401346437770776 -42.875 8.5625 C-35.979962171223086 3.8719147630167754 -28.034709720501823 1.4616012623029917 -20.125 -0.9375 C-19.23820556640625 -1.2172265625000023 -18.3514111328125 -1.4969531249999974 -17.437744140625 -1.78515625 C-11.108650426889966 -3.5946529652375574 -5.579533727207888 -4.277642524192714 0 0 Z " fill="#114271" transform="translate(98.875,46.4375)"/>
<path d="M0 0 C1.2224466705322214 0.0033309173583984386 1.2224466705322214 0.0033309173583984386 2.4695892333984375 0.0067291259765625 C3.8702966308593716 0.006910400390625002 3.8702966308593716 0.006910400390625002 5.2993011474609375 0.0070953369140625 C6.2874078369140705 0.012211303710937496 7.275514526367189 0.017327270507812506 8.293563842773438 0.0225982666015625 C9.648469238281251 0.02410888671875 9.648469238281251 0.02410888671875 11.030746459960938 0.0256500244140625 C14.419146337174851 0.030899398255577998 17.80752818234882 0.04486053197862995 21.195907592773438 0.0577545166015625 C28.765282592773445 0.0783795166015625 36.33465759277344 0.09900451660156251 44.13340759277344 0.1202545166015625 C44.13340759277344 20.250254516601565 44.13340759277344 40.38025451660157 44.13340759277344 61.12025451660156 C36.40678888773746 59.832484732428895 36.40678888773746 59.832484732428895 33.13340759277344 57.12025451660156 C30.572798330421364 49.43842672954533 32.054169691705965 39.71947857267149 32.82090759277344 31.807754516601563 C33.24184852788133 26.19314527920658 33.303900170736824 22.824856406482713 30.133407592773438 18.120254516601563 C26.20875008487222 14.19559700870035 22.840638982911287 13.8345411104291 17.383407592773438 13.182754516601563 C10.908841420440638 12.394844347481698 5.429731768184965 11.068423447362882 0.1334075927734375 7.1202545166015625 C-1.9915924072265625 3.807754516601563 -1.9915924072265625 3.807754516601563 -2.8665924072265625 1.1202545166015625 C-1.8665924072265625 0.12025451660156261 -1.8665924072265625 0.12025451660156261 0 0 Z " fill="#A5CCDF" transform="translate(83.86659240722656,-0.1202545166015625)"/>
<path d="M0 0 C-0.9487499999999969 0.7424999999999997 -1.8975000000000009 1.4849999999999994 -2.875 2.25 C-5.325324007715665 4.2784521856325455 -6.873253630701605 5.957784802894324 -8 9 C-8.659999999999997 9 -9.32 9 -10 9 C-10.659999999999997 11.310000000000002 -11.32 13.620000000000001 -12 16 C-12.659999999999997 16 -13.32 16 -14 16 C-14.193359375 16.591679687500005 -14.38671875 17.183359374999995 -14.5859375 17.79296875 C-15.122156772530715 19.42020842357092 -15.66538590794049 21.045151402521896 -16.21484375 22.66796875 C-16.81082856590035 24.43813260618164 -17.380381876914072 26.21722200612504 -17.9375 28 C-19 30 -19 30 -21.125 30.8125 C-21.74375 30.874375 -22.362499999999997 30.93625 -23 31 C-23 31.659999999999997 -23 32.32 -23 33 C-24.051875000000003 33.2784375 -24.051875000000003 33.2784375 -25.125 33.5625 C-31.493963999070395 36.746981999535194 -34.62130664781655 42.524668096833956 -37 49 C-41.523285361710755 41.000303181253905 -42.952379283861234 30.91882354672974 -41 22 C-40.788593750000004 20.923632812500003 -40.5771875 19.847265625 -40.359375 18.73828125 C-37.658018867924525 5.90683962264151 -37.658018867924525 5.90683962264151 -32.125 1.9375 C-21.326930219440115 -3.5982193178819646 -11.069909696722995 -5.982353046266006 0 0 Z " fill="#6093A8" transform="translate(55,17)"/>
<path d="M0 0 C4.276175847224835 3.1542089170123724 5.145972452446813 7.217083561200141 6.015625 12.1640625 C6.353273636478633 15.328236989547051 6.516365316815012 18.485085605184267 6.640625 21.6640625 C6.698632812499994 22.897695312499998 6.698632812499994 22.897695312499998 6.7578125 24.15625 C6.850941923285006 26.15853260062748 6.934314849791093 28.161265115906957 7.015625 30.1640625 C5.361913072031911 30.556651022737142 3.692511803272893 30.886682728030053 2.015625 31.1640625 C-0.13387851750157154 29.61641996739887 -1.2115056237170876 27.819160441762946 -2.671875 25.6015625 C-5.735097478657622 22.372760427901433 -8.648399490957488 21.477281450207357 -12.984375 21.1640625 C-17.05221021127754 21.767474463311316 -20.881401988278228 22.925363653418962 -24.796875 24.1640625 C-25.859707031249997 24.486408691406254 -26.922539062499993 24.8087548828125 -28.017578125 25.140869140625 C-35.1792146887083 27.387970336268552 -41.74978656573858 29.90895589361658 -47.984375 34.1640625 C-48.1328125 31.8125 -48.1328125 31.8125 -47.984375 29.1640625 C-45.3750144777544 26.554701977754405 -42.79488976499162 24.65307307487828 -39.640625 22.75 C-34.22819928831552 19.358881421382875 -30.965192525441182 16.05138487791836 -27.859375 10.4765625 C-22.51074417752443 1.0269530753017975 -10.804966908889497 -4.551698658469192 0 0 Z " fill="#296EA6" transform="translate(101.984375,22.8359375)"/>
<path d="M0 0 C3.868330157315768 3.3041986760405457 5.253171873671391 5.938291338537482 5.875 10.875 C6.158901263387122 14.61509055679549 5.732490336338685 18.092314293809977 5.2314453125 21.80126953125 C4.821444095793822 25.69628108995866 4.896086517959986 29.588018773450088 4.9375 33.5 C4.9420117187499955 34.322421875 4.946523437499991 35.14484375 4.951171875 35.9921875 C4.9628151102355105 37.994823960508064 4.9807444448635465 39.99742226580854 5 42 C8.641256922281912 43.49934108564549 12.247255762590939 44.74908525419698 16 46 C16 51.61 16 57.22 16 63 C12.049983799986933 61.024991899993466 11.24193057979386 60.37192432826541 9 56.875 C8.488242187499992 56.07835937499999 7.976484374999998 55.28171875000001 7.44921875 54.4609375 C6.107089146089649 52.18184949335978 4.939040119557717 49.891200100517125 3.8125 47.5 C2.380836065487017 43.739719364377756 2.380836065487017 43.739719364377756 -1 43 C-3.0697630525493764 39.90861746551093 -3.3811243859271656 36.97129215056475 -3.7109375 33.31640625 C-3.8217968749999898 32.22392578125 -3.932656250000008 31.1314453125 -4.046875 30.005859375 C-4.265186941838792 27.714883461536928 -4.476156216951878 25.423195684715083 -4.6796875 23.130859375 C-5.35471058014015 15.21037162044707 -5.35471058014015 15.21037162044707 -10 9 C-12.385351481129831 7.8073242594350845 -14.107554197911526 7.767853539162854 -16.76953125 7.60546875 C-27.692809210796142 6.853018779554031 -37.73058218385394 6.060460787190191 -48 2 C-48 1.6700000000000017 -48 1.3399999999999999 -48 1 C-47.208273925781256 0.9143579101562498 -46.4165478515625 0.8287158203124996 -45.600830078125 0.740478515625 C-42.004464145917325 0.35013641627728376 -38.40848289905763 -0.04364553066867494 -34.8125 -0.4375 C-33.56662109375 -0.5722070312500005 -32.3207421875 -0.706914062500001 -31.037109375 -0.845703125 C-29.835058593750006 -0.9778320312499993 -28.633007812499997 -1.1099609375000004 -27.39453125 -1.24609375 C-26.289562988281247 -1.3665405273437496 -25.184594726562494 -1.4869873046874993 -24.046142578125 -1.611083984375 C-7.548036077425763 -3.7174784426272947 -7.548036077425763 -3.7174784426272947 0 0 Z " fill="#68A1C6" transform="translate(112,15)"/>
<path d="M0 0 C6.025370622840978 1.0042284371401564 7.019317105638644 1.3805685760896722 11.125 5.3125 C11.952578125 6.092382812500006 12.780156250000001 6.872265624999997 13.6328125 7.67578125 C14.413984375 8.442773437499994 15.19515625 9.209765625000003 16 10 C16.724453125 10.693515625000003 17.44890625 11.387031250000007 18.1953125 12.1015625 C22.224763591009008 16.340335725606877 23.185290173776274 20.57980147714605 23.25 26.25 C23.094409554848806 31.859035547700557 22.579689969733483 37.420484041315234 22 43 C14.739999999999998 43 7.479999999999999 43 0 43 C0 28.810000000000002 0 14.620000000000005 0 0 Z " fill="#A4C8BA" transform="translate(0,85)"/>
<path d="M0 0 C2.875 -0.1875 2.875 -0.1875 6 0 C9.001195432675303 4.501793149012961 8.578202907546384 8.720456784665778 8 14 C6.614380199603303 18.751630164567914 4.7431048545675765 22.88534271814865 2 27 C1.3400000000000034 27 0.6800000000000068 27 0 27 C0 27.659999999999997 0 28.319999999999993 0 29 C-0.6599999999999966 29 -1.3199999999999932 29 -2 29 C-2.309375000000003 29.804374999999993 -2.6187500000000057 30.60875 -2.9375 31.4375 C-4 34 -4 34 -5 35 C-7.421175445587721 35.21259101473453 -9.824037782086691 35.37664598891966 -12.25 35.5 C-17.502529229309502 35.76445199843012 -17.502529229309502 35.76445199843012 -22.69921875 36.54296875 C-26.557761242168013 37.30943644369043 -30.19161118714659 36.91458493066648 -34 36 C-37.686076464369194 33.38094567005348 -39.04268200039785 29.996646529913875 -41 26 C-40.0448046875 25.913632812499998 -39.089609375 25.827265624999995 -38.10546875 25.73828125 C-29.53938835839297 24.807371217412594 -22.61528750551095 23.271700335122546 -15 19 C-14.174999999999997 18.568164062500003 -13.349999999999994 18.136328125000006 -12.5 17.69140625 C-5.263430020966382 13.489910850988707 -2.5813768185554693 7.744130455666436 0 0 Z " fill="#2F5870" transform="translate(103,53)"/>
<path d="M0 0 C2 1 2 1 2.59423828125 2.698974609375 C2.7513427734375 3.42608642578125 2.908447265625 4.1531982421875 3.0703125 4.90234375 C3.2442553710937503 5.705590820312501 3.4181982421875006 6.508837890625003 3.597412109375 7.33642578125 C3.7715161132812494 8.194780273437502 3.9456201171875005 9.053134765625003 4.125 9.9375 C4.398724365234372 11.24050048828125 4.398724365234372 11.24050048828125 4.677978515625 12.56982421875 C5.56449043808686 17.001968602992577 6.204483352342692 21.086283010174242 5.9375 25.625 C5.702672609441482 31.026029982845913 7.731317215413302 34.787377795520726 11 39 C13.526789339881844 41.53162067705179 16.205687538849737 43.77318587533058 19 46 C19.66 46.66 20.32 47.31999999999999 21 48 C17.67754888657595 48.73540419901876 14.346716331564942 49.385091276429335 11 50 C9.96875 50.20625 8.9375 50.412499999999994 7.875 50.625 C3.6796681816411017 49.71297134383502 1.7490697352733804 47.06244946698044 -1.11328125 43.9765625 C-4.4540710489684106 40.47668747250928 -7.349611104941055 39.162597223764735 -12 38 C-12 29.090000000000003 -12 20.180000000000007 -12 11 C-10.02 10.009999999999998 -8.04 9.019999999999996 -6 8 C-4.0697595930181505 6.02198468650591 -4.0697595930181505 6.02198468650591 -2.625 3.8125 C-2.1222656250000007 3.0970703125000014 -1.6195312499999996 2.381640625000003 -1.1015625 1.64453125 C-0.7380468750000002 1.1018359374999989 -0.3745312500000004 0.5591406249999977 0 0 Z " fill="#76A0A9" transform="translate(12,47)"/>
<path d="M0 0 C15.18 0 30.36 0 46 0 C46.66 1.98 47.31999999999999 3.96 48 6 C50.80342496797522 8.004153427225074 50.80342496797522 8.004153427225074 54.125 9.375 C55.220703125 9.877734375 56.31640625 10.38046875 57.4453125 10.8984375 C58.7098828125 11.4437109375 58.7098828125 11.4437109375 60 12 C60 12.33 60 12.66 60 13 C56.56308877902369 13.483450658713487 53.12537305635831 13.96094119463763 49.6875 14.4375 C48.251806640625006 14.639560546875 48.251806640625006 14.639560546875 46.787109375 14.845703125 C27.896042871582424 17.45356079045495 27.896042871582424 17.45356079045495 18.6875 16.1875 C18.02427734375 16.10435546875 17.3610546875 16.0212109375 16.677734375 15.935546875 C12.588596835739665 15.382524325267852 8.724700605484102 14.800361797730378 5 13 C3.3203125 10.21484375 3.3203125 10.21484375 2.125 6.9375 C1.715078124999998 5.8533984375 1.3051562500000031 4.769296875 0.8828125 3.65234375 C0 1 0 1 0 0 Z " fill="#8DC1DB" transform="translate(36,0)"/>
<path d="M0 0 C4.659580321215955 2.7835129708795563 6.172738680325423 7.071699645066772 8.267578125 11.818359375 C10.235396614249325 16.04669246746022 12.345316281284937 18.195816033700908 16 21 C16.625 24.5 16.625 24.5 16 28 C14.343752829905 29.34625438424834 12.674816491305677 30.676918265561014 11 32 C9.026164812505897 34.24261274494009 7.235838494892704 36.6155178902671 5.4375 39 C2.472824048504691 42.89852848642299 -0.42054672576092855 46.63110280071618 -4 50 C-4.4950000000000045 48.515 -4.4950000000000045 48.515 -5 47 C-5.659999999999997 47 -6.319999999999993 47 -7 47 C-8.202501578689393 44.75692972354197 -9.386916198392655 42.507120899086104 -10.5625 40.25 C-10.904746093750006 39.61578125 -11.246992187499998 38.981562499999995 -11.599609375 38.328125 C-14.053779195501733 33.568522923875435 -14.053779195501733 33.568522923875435 -13.78125 30.6875 C-12.892395515592654 28.76757431368013 -11.999287233869268 26.865336169889304 -11 25 C-10.340000000000003 25 -9.680000000000007 25 -9 25 C-9 24.340000000000003 -9 23.680000000000007 -9 23 C-8.340000000000003 23 -7.680000000000007 23 -7 23 C-6.597812500000003 21.793437499999996 -6.597812500000003 21.793437499999996 -6.1875 20.5625 C-5.550503586019815 18.65151075805946 -4.9083907456540885 16.741998426536014 -4.234375 14.84375 C-2.60975675341615 10.192882078407024 -1.6102266030594308 5.88181282447551 -1 1 C-0.6700000000000017 0.6700000000000017 -0.3400000000000034 0.3400000000000034 0 0 Z " fill="#5F7A75" transform="translate(112,57)"/>
<path d="M0 0 C0 14.189999999999998 0 28.379999999999995 0 43 C-7.590000000000003 43 -15.180000000000007 43 -23 43 C-22.67 40.03 -22.340000000000003 37.06 -22 34 C-21.926523437499995 32.50919921875 -21.926523437499995 32.50919921875 -21.8515625 30.98828125 C-21.070197606196743 21.760092418013286 -16.26155994091077 16.25956550242151 -10.3701171875 9.5595703125 C-9.151880981332454 8.172882342970723 -7.967848914874779 6.756312650078797 -6.7890625 5.3359375 C-2.3204505300353446 0 -2.3204505300353446 0 0 0 Z " fill="#8BA4A4" transform="translate(128,85)"/>
<path d="M0 0 C2.8668068871570824 0.5422004330057959 5.531284045970793 1.5203255509554694 8.25 2.5625 C10.106250000000003 3.2740624999999994 10.106250000000003 3.2740624999999994 12 4 C12 9.61 12 15.219999999999999 12 21 C5.440278580759895 17.720139290379947 2.4077357098816776 11.77488847699155 0.125 4.9375 C-0.26415689864566616 3.62912766834647 -0.6447956435820572 2.317995111971861 -1 1 C-0.6700000000000017 0.6700000000000017 -0.3400000000000034 0.3400000000000034 0 0 Z " fill="#8BA4A4" transform="translate(116,57)"/>
</svg>
