<?xml version="1.0" encoding="UTF-8"?>
<!-- Generator: visioncortex VTracer 0.6.0 -->
<svg version="1.1" xmlns="http://www.w3.org/2000/svg" width="128" height="128">
<path d="M0 0 C42.24 0 84.48 0 128 0 C128 42.24 128 84.48 128 128 C85.75999999999999 128 43.519999999999996 128 0 128 C0 85.75999999999999 0 43.519999999999996 0 0 Z " fill="#7FB6A3" transform="translate(0,0)"/>
<path d="M0 0 C0.6548437499999977 0.202382812499998 1.3096874999999955 0.4047656249999996 1.984375 0.61328125 C5.2526471372680135 2.8618018095545423 6.385843269483189 6.272074202401583 8 9.8125 C11.159921170671652 16.632251745297225 14.128946490924704 21.906352575117253 20.4375 26.3125 C24.757307774829357 29.632682835199425 28.222347327390025 32.73253444905572 30 38 C30.288968188629624 41.78799603790574 29.65035676043084 45.27158487342048 29 49 C28.826384170876793 50.41223303806255 28.65741613885409 51.825042378888696 28.4921875 53.23828125 C26.66757555860825 67.44584383513005 26.66757555860825 67.44584383513005 21.328125 71.65234375 C10.532816219353322 77.90130604752198 -2.990652136942984 83.94580982224741 -15.561767578125 80.76220703125 C-20.10421199907782 79.34220988674066 -24.379733425944536 77.44779106789255 -28.6875 75.4375 C-30.053583984375003 74.848720703125 -30.053583984375003 74.848720703125 -31.447265625 74.248046875 C-39.354639097415294 70.5671271975721 -42.76112656635015 65.72923675984666 -46.42578125 57.98828125 C-50.59469351314884 45.4080834515112 -51.23718642136395 34.36180041666101 -46 22 C-45.466328125000004 21.1685546875 -44.93265625 20.337109374999997 -44.3828125 19.48046875 C-42.36698667956311 15.864510004301067 -42.63495319171704 12.58597165890636 -42.6015625 8.5234375 C-42 6 -42 6 -39.8203125 4.29296875 C-27.15491654425086 -1.5134662380234971 -13.213815266526197 -6.05170531114015 0 0 Z " fill="#2B797D" transform="translate(77,25)"/>
<path d="M0 0 C0.6320432600458119 7.3878834396466 -0.17717935683771202 12.197706275622998 -3.75 18.68359375 C-8.41372583143212 27.326060681372645 -7.4411299839323775 36.99291363133139 -5.2109375 46.2890625 C-4.271624023678051 49.30555699713145 -3.310877979970357 52.12377949100622 -2 55 C-1.7233349609374997 55.633977050781255 -1.4466699218749994 56.26795410156251 -1.16162109375 56.921142578125 C2.3883378534542388 63.81748152784121 7.9644885757220365 66.01446177420733 14.875 68.9375 C15.9384765625 69.41767578125 17.001953125 69.8978515625 18.09765625 70.392578125 C26.415988572456882 74.0557443465043 32.71649669436805 75.84025094665431 41.6875 73.4375 C42.380854492187495 73.25695068359374 43.07420898437499 73.0764013671875 43.78857421875 72.890380859375 C52.85527128606931 70.38738819372495 61.12369380133684 66.49428918762632 68 60 C71.8265306122449 69.24744897959181 71.8265306122449 69.24744897959181 71 74 C67.17194169339596 80.20409449691 61.16317168932774 83.35852659843725 55 87 C54.2742578125 87.4395703125 53.54851562499999 87.879140625 52.80078125 88.33203125 C48.30388692579504 91 48.30388692579504 91 46 91 C45.79375 91.61875 45.587500000000006 92.2375 45.375 92.875 C43.36087021230051 95.98774603553557 41.5960178361569 96.11318251089709 38 97 C34.5204308271837 97.26041524959606 31.057934821463675 97.23307527271959 27.5703125 97.1953125 C26.57998016357422 97.19248260498046 25.58964782714844 97.18965270996094 24.569305419921875 97.18673706054688 C21.42107823779436 97.17558470114975 18.273140512430032 97.15048906922681 15.125 97.125 C12.984379122481208 97.11496381621248 10.843753764526966 97.10583908166868 8.703125 97.09765625 C3.4686520344253466 97.07566157888061 -1.765653295045361 97.04223332595797 -7 97 C-7.290603027343749 95.924921875 -7.581206054687499 94.84984375 -7.880615234375 93.7421875 C-8.724883853239088 90.91973397983669 -9.51353499721521 88.67009567705657 -10.91015625 86.125 C-16.225489630197476 75.98243865242411 -19.752152557262722 66.74923546685794 -17.40625 55.03515625 C-16.89890002760852 51.24466655242135 -17.575245085966547 48.342276740499784 -18.4375 44.625 C-20.605279908301096 34.585911268306404 -20.82547723223398 26.65872945638 -15.5673828125 17.50634765625 C-13.909698748613607 14.963343382511553 -12.193257315691124 12.476216588246444 -10.4375 10 C-9.552880859375001 8.714160156250003 -9.552880859375001 8.714160156250003 -8.650390625 7.40234375 C-3.4945584885103003 0 -3.4945584885103003 0 0 0 Z " fill="#5EA8A7" transform="translate(35,31)"/>
<path d="M0 0 C7.260000000000001 0 14.520000000000001 0 22 0 C23.125000000000004 11.25000000000006 23.125000000000004 11.25000000000006 23.31640625 15.1328125 C23.35830078125 15.9578125 23.4001953125 16.7828125 23.443359375 17.6328125 C23.48267578125 18.455234375 23.5219921875 19.27765625 23.5625 20.125 C23.60568359375 20.98609375 23.6488671875 21.8471875 23.693359375 22.734375 C23.79778099664079 24.822807432815754 23.89921486557986 26.911388916484754 24 29 C26.31 29.66 28.62 30.32 31 31 C29.425896503795773 35.66005780797183 26.85743793670153 39.26678600276848 24.0625 43.25 C18.724272812002095 51.0826282593018 14.74960222411752 58.18675163231471 16 68 C16.641336393756024 71.1260768482534 17.31439578561113 74.24378941713056 17.998046875 77.36083984375 C18.968491587299997 82.06421500131025 18.94810233370692 85.92746440123614 18.29296875 90.63671875 C17.038060901863073 100.75964205830455 20.631389588100255 108.2749168491748 25.08984375 117.08203125 C26.716148191503308 120.30872605933708 27.95996855833946 123.53141346420018 29 127 C28.67 127.33 28.34 127.66 28 128 C18.759999999999998 128 9.52 128 0 128 C0 85.75999999999999 0 43.519999999999996 0 0 Z " fill="#B8ECDC" transform="translate(0,0)"/>
<path d="M0 0 C0 24.090000000000003 0 48.18000000000001 0 73 C-18.150000000000006 73 -36.30000000000001 73 -55 73 C-53.019999999999996 72.01 -53.019999999999996 72.01 -51 71 C-50.030625 70.113125 -49.06125 69.22625 -48.0625 68.3125 C-43.86623968511951 64.58957056662446 -39.06713989565728 62.23111828450119 -34.0859375 59.7109375 C-29.630078888597325 57.24047411798182 -25.57586744223785 54.490595574301324 -23 50 C-22.815576655921404 47.7033678952468 -22.815576655921404 47.7033678952468 -23.25 45.3125 C-23.358281250000005 44.52488281250001 -23.466562499999995 43.73726562499999 -23.578125 42.92578125 C-23.813108261288136 41.296128817547995 -24.05624998177518 39.66739863174709 -24.330810546875 38.0439453125 C-25.247460344031765 31.782607745892307 -24.53824370899973 26.301701394817115 -23.3125 20.125 C-23.150722656249997 19.189140624999993 -22.988945312499993 18.25328125 -22.822265625 17.2890625 C-22.564130859375 15.943281249999998 -22.564130859375 15.943281249999998 -22.30078125 14.5703125 C-22.14778564453124 13.763520507812501 -21.994790039062508 12.956728515625002 -21.837158203125 12.12548828125 C-20.769648059174216 9.415151940265602 -19.476606975061742 8.471585604343218 -17 7 C-16.340000000000003 7 -15.680000000000007 7 -15 7 C-15 6.340000000000003 -15 5.68 -15 5 C-5.627906976744185 0 -5.627906976744185 0 0 0 Z " fill="#8EA990" transform="translate(128,55)"/>
<path d="M0 0 C8.808088686015935 3.508766334881088 12.12283653757521 13.098321284654268 15.99560546875 21.04150390625 C17.245358479108646 23.478431142296927 18.736645813356716 25.71987969212411 20.25 28 C21.650284962256094 30.469680669732497 22.049761993239457 31.55141026682672 21.734375 34.39453125 C20.043008601749847 39.963445082536396 18.010658954307004 43.810018169899934 12.9375 46.8125 C7.026509991558726 49.09941579607769 1.124148039585208 47.63724441187557 -4.75 45.875 C-11.170274418744086 42.17099552764765 -14.79166441251408 36.79499920085411 -17.3046875 29.87890625 C-19.14139103529903 22.274128129127064 -19.525856953874296 13.494140787153327 -15.328125 6.62109375 C-11.140281276714553 1.5094609701074688 -6.7718925706641855 -1.306856461005367 0 0 Z " fill="#125D65" transform="translate(54,47)"/>
<path d="M0 0 C13.200000000000003 0 26.400000000000006 0 40 0 C40 11.88 40 23.76 40 36 C36.64805880773716 37.67597059613142 32.999607124351314 36.65595599792735 29.375 36.25 C28.592539062499995 36.175234375 27.810078125000004 36.10046875 27.00390625 36.0234375 C24.64706054456299 35.76547428845963 22.333590714719406 35.418149261926736 20 35 C19.280219726562507 34.872060546875 18.560439453125 34.74412109375 17.81884765625 34.6123046875 C14.429593621791682 33.711596629251225 12.564672673323017 32.7751399392981 10.47119140625 29.9013671875 C9.033415876253912 27.232896809902968 7.808804512810994 24.540124462670278 6.625 21.75 C6.200898437500001 20.8205859375 5.776796875000002 19.891171875 5.33984375 18.93359375 C2.5443220795770713 12.698786743725524 0 6.915719208732108 0 0 Z " fill="#90DFCF" transform="translate(88,0)"/>
<path d="M0 0 C0.6548437499999977 0.202382812499998 1.3096874999999955 0.4047656249999996 1.984375 0.61328125 C5.2526471372680135 2.8618018095545423 6.385843269483189 6.272074202401583 8 9.8125 C11.159921170671652 16.632251745297225 14.128946490924704 21.906352575117253 20.4375 26.3125 C24.71776417670756 29.58814018812496 28.218271103128984 32.79773273961725 30 38 C30.092335318503828 41.11996181470818 29.709297158923732 43.9661745281678 29 47 C27.539371496000854 44.352610836501526 27 43.105516657080955 27 40 C25.680000000000007 39.34 24.36 38.68 23 38 C23 37.34 23 36.68 23 36 C21.79343750000001 35.7460546875 20.586874999999992 35.492109375 19.34375 35.23046875 C17.729098151074197 34.88313085226596 16.114518631610323 34.535456601640156 14.5 34.1875 C13.70851562499999 34.02185546875 12.917031250000008 33.8562109375 12.1015625 33.685546875 C-1.6792850264804997 30.692166059821858 -1.6792850264804997 30.692166059821858 -5 26.4375 C-6 24 -6 24 -6 22 C-6.659999999999997 22 -7.319999999999993 22 -8 22 C-8.495000000000005 20.019999999999996 -8.495000000000005 20.019999999999996 -9 18 C-19.87144079194227 14.218629289759207 -30.638836849749232 14.688669643859065 -42 15 C-42.28776308787012 11.949711268576706 -42.42888655205168 9.04110330401943 -42 6 C-39.859375 4.06640625 -39.859375 4.06640625 -37 3 C-36.07703125 2.6377734375000017 -35.1540625 2.275546875 -34.203125 1.90234375 C-11.816559246405546 -5.411785537219352 -11.816559246405546 -5.411785537219352 0 0 Z " fill="#5B9485" transform="translate(77,25)"/>
<path d="M0 0 C14.520000000000003 0 29.040000000000006 0 44 0 C42.87440692157409 10.130337705833103 42.87440692157409 10.130337705833103 39.625 14.8125 C38.716210937499994 16.15248046875 38.716210937499994 16.15248046875 37.7890625 17.51953125 C37.198671875 18.3380859375 36.60828125 19.156640625 36 20 C35.6119921875 20.7025390625 35.223984375 21.405078125 34.82421875 22.12890625 C31.88126813708233 25.14747872020892 28.155499592653058 25.92603609430627 24.1875 27.125 C23.39279296875 27.3763671875 22.598085937500002 27.627734375 21.779296875 27.88671875 C20.22386971341688 28.37817712528929 18.665118655186475 28.85925507228519 17.10302734375 29.3291015625 C14.808397687317239 30.02543469808746 14.808397687317239 30.02543469808746 11.92578125 31.3046875 C8.999999999999996 32 8.999999999999996 32 1 30 C0.6700000000000017 20.1 0.33999999999999986 10.2 0 0 Z " fill="#9DD1A6" transform="translate(22,0)"/>
<path d="M0 0 C3.333762846187529 1.4986640317723783 5.930974158742416 3.4337303597310296 8.75 5.75 C11.736844826635625 8.175996234734612 14.723877462983793 10.579845248501755 17.8125 12.875 C26.4393816347214 19.305948127701413 34.84259080567727 25.73061272703906 42.7734375 33.015625 C47.791646727412655 37.86840502490978 47.791646727412655 37.86840502490978 54 40 C54 40.66 54 41.31999999999999 54 42 C39.48 42 24.959999999999994 42 10 42 C9.009999999999998 38.535 9.009999999999998 38.535 8 35 C7.104083879945492 32.91647854748335 7.104083879945492 32.91647854748335 6.08984375 31.125 C1.1189767291911963 21.636307003316873 -1.5835980131930647 13.84638258666132 -1 3 C-0.6700000000000017 2.010000000000005 -0.33999999999999986 1.019999999999996 0 0 Z " fill="#7ECBC8" transform="translate(18,86)"/>
<path d="M0 0 C0 9.569999999999993 0 19.14 0 29 C-18.150000000000006 29 -36.30000000000001 29 -55 29 C-53.68000000000001 28.340000000000003 -52.36 27.680000000000007 -51 27 C-50.030625 26.113124999999997 -49.06125 25.226249999999993 -48.0625 24.3125 C-43.866239685119524 20.589570566624474 -39.06713989565728 18.23111828450118 -34.0859375 15.7109375 C-29.734571962040803 13.298408252371985 -26.722296330943195 11.306385619063548 -24.28515625 6.8984375 C-20.973471571978322 2.6979759083895942 -17.547085913647237 2.4606262034321844 -12.4375 1.625 C-11.142958984375 1.3794335937499937 -11.142958984375 1.3794335937499937 -9.822265625 1.12890625 C-6.4880166413427105 0.5123163058582492 -3.397562890173802 0 0 0 Z " fill="#A3D1C2" transform="translate(128,99)"/>
<path d="M0 0 C7.260000000000001 0 14.520000000000001 0 22 0 C23.512010676156592 15.120106761565955 23.512010676156592 15.120106761565955 23.875 19.8125 C23.960078125 20.63169921875 24.04515625 21.4508984375 24.1328125 22.294921875 C24.440092359173825 26.60731535317811 24.523468287709985 28.32815425749898 21.78125 31.84765625 C20.404531249999998 32.913066406249996 20.404531249999998 32.913066406249996 19 34 C18.270390625 34.631640625 17.54078125 35.26328125 16.7890625 35.9140625 C6.5616438356164295 44 6.5616438356164295 44 0 44 C0 29.479999999999997 0 14.959999999999997 0 0 Z " fill="#D3EDC3" transform="translate(0,0)"/>
<path d="M0 0 C-1.574103496204227 4.660057807971839 -4.142562063298467 8.26678600276847 -6.9375 12.25 C-12.278591744918042 20.086831341840792 -16.2427880999488 27.183547159898076 -15 37 C-14.245975018963552 40.823689521321455 -13.439269218799993 44.617372701173366 -12.55859375 48.4140625 C-12.004149263556851 51.97336346891477 -12.190536382796584 54.51555396568065 -13 58 C-14.485 57.504999999999995 -14.485 57.504999999999995 -16 57 C-16 56.34 -16 55.68000000000001 -16 55 C-16.680625 54.896874999999994 -17.36125 54.79375 -18.0625 54.6875 C-21.59144289627305 53.861577194489286 -24.692719653089593 52.46990237640463 -28 51 C-28.990000000000002 50.67 -29.98 50.34 -31 50 C-31 37.78999999999999 -31 25.58 -31 13 C-27.7 11.68 -24.4 10.36 -21 9 C-18.24216035510007 7.29727465249222 -18.24216035510007 7.29727465249222 -16.125 5.4375 C-15.426328125 4.8587109375 -14.727656249999999 4.279921874999999 -14.0078125 3.68359375 C-12.663936822879524 2.556725234749173 -11.330573703704719 1.4172053420488169 -10.0078125 0.265625 C-6.591980978496025 -1.887545064138692 -3.850404803105647 -0.7059075472360341 0 0 Z " fill="#B1D5CC" transform="translate(31,31)"/>
<path d="M0 0 C1.7265625 1.48046875 1.7265625 1.48046875 3 3 C3 3.6599999999999966 3 4.32 3 5 C3.6599999999999966 5 4.319999999999993 5 5 5 C6.6875 7.312500000000007 6.6875 7.312500000000007 8 10 C6.822554151417464 13.532337545747623 6.043943587401486 13.863080750256273 2.9375 15.6875 C1.8372851562500045 16.34298828125 1.8372851562500045 16.34298828125 0.71484375 17.01171875 C0.14894531249998977 17.3378515625 -0.41695312499999204 17.663984375 -1 18 C-1.3751171874999955 17.3851171875 -1.750234374999991 16.770234375 -2.13671875 16.13671875 C-5.936840517659036 9.821539392726116 -5.936840517659036 9.821539392726116 -12 6 C-16.12989939591695 5.474376440519663 -18.411107808464806 5.722874262806968 -22.1875 7.5 C-26.786985587250065 11.58843163311117 -28.664814524635148 15.126981639729813 -29.3828125 21.28125 C-29.66169200105459 29.833554699007337 -28.84905480066618 37.48787273367283 -23.140625 44.1796875 C-21.881628042918315 45.51422427450659 -20.618879573758022 46.845236701512874 -19.3515625 48.171875 C-18 50 -18 50 -18.0625 53.5 C-18.371875000000003 54.325 -18.68125 55.150000000000006 -19 56 C-23.40425836719504 55.48185195680058 -26.90460026779988 54.197016390075376 -30 51 C-36.39284016181562 41.30212354093504 -39.59754408338782 29.60014927098524 -39 18 C-37.43178562718752 10.993084717220867 -35.3427123705989 3.7902831607985377 -31 -2 C-21.66860152762527 -4.897735569979581 -8.77993960805074 -4.087213265816722 0 0 Z " fill="#407C7F" transform="translate(66,42)"/>
<path d="M0 0 C7.260000000000005 0 14.52000000000001 0 22 0 C22.495000000000005 1.8150000000000002 22.99000000000001 3.6300000000000003 23.5 5.5 C25.458990546432716 11.958990569760068 28.18962341792644 17.75498049398881 31.357421875 23.705078125 C34 28.71548617674858 34 28.71548617674858 34 32 C27.178131704262086 32.386143488437995 21.504222925152135 31.008657079826396 15 29 C15 28.34 15 27.68 15 27 C5.982431808008002 23.17436500945794 -1.3467121174124657 22.069342423482492 -11 24 C-9.81002709412121 21.295516123002752 -8.32211356122528 19.04071813609646 -6.5625 16.6875 C-2.7132461615189953 11.373485851300561 -1.0834145208406625 6.500487125043959 0 0 Z " fill="#80CAAE" transform="translate(66,0)"/>
<path d="M0 0 C0.6320432600458119 7.3878834396466 -0.17717935683771202 12.197706275622998 -3.75 18.68359375 C-8.40343497955746 27.306990446492414 -7.4600770006498465 36.97898939831029 -5.2109375 46.25390625 C-3.403214787756127 52.007755370678666 -1.091531171651937 57.03334726105081 2.2421875 62.0625 C3 64 3 64 2.1328125 66.25 C1.7589843749999972 66.8275 1.3851562500000014 67.405 1 68 C-1.7398941275716737 66.40587978032194 -4.3646199580862515 64.7554680279194 -7 63 C-7.7901953125 62.5114453125 -8.580390625 62.022890625 -9.39453125 61.51953125 C-16.66822879249189 56.24821147210787 -17.931800185111126 49.85946491984089 -19.44140625 41.4375 C-21.237450659228507 28.663168731897095 -17.84727457641557 20.450309138575093 -10.4375 10 C-9.552880859375001 8.714160156250003 -9.552880859375001 8.714160156250003 -8.650390625 7.40234375 C-3.4945584885103003 0 -3.4945584885103003 0 0 0 Z " fill="#76ADAF" transform="translate(35,31)"/>
</svg>
