<?xml version="1.0" encoding="UTF-8"?>
<!-- Generator: visioncortex VTracer 0.6.0 -->
<svg version="1.1" xmlns="http://www.w3.org/2000/svg" width="128" height="128">
<path d="M0 0 C42.24 0 84.48 0 128 0 C128 42.24 128 84.48 128 128 C85.75999999999999 128 43.519999999999996 128 0 128 C0 85.75999999999999 0 43.519999999999996 0 0 Z " fill="#596867" transform="translate(0,0)"/>
<path d="M0 0 C10.617834492830482 2.3475263046410504 19.304612389660875 8.04928463700982 26.07421875 16.5546875 C30.55450319953313 21.690623332391638 34.97165102331306 24.159173954662606 41.63671875 25.4921875 C41.63671875 29.122187499999995 41.63671875 32.75218749999999 41.63671875 36.4921875 C-0.6032812500000091 36.4921875 -42.843281250000004 36.4921875 -86.36328125 36.4921875 C-86.36328125 30.8821875 -86.36328125 25.2721875 -86.36328125 19.4921875 C-84.89890625 18.8528125 -83.43453125 18.213437499999998 -81.92578125 17.5546875 C-77.60036424950556 15.464879286277963 -75.02914174986279 13.197762869404144 -71.92578125 9.5546875 C-68.13840064347342 5.521459380418179 -68.13840064347342 5.521459380418179 -64.77734375 5.39453125 C-62.91043656357947 5.803753025819972 -61.05547488018597 6.270489418832298 -59.21484375 6.78515625 C-54.188977510942586 8.031295687355339 -49.440697771505704 7.166229736804894 -44.36328125 6.4921875 C-43.5758251953125 6.397763671874998 -42.788369140625 6.3033398437499955 -41.97705078125 6.2060546875 C-39.311181288925496 5.883856054751334 -36.64988402306895 5.535323344757373 -33.98828125 5.1796875 C-33.13177978515625 5.074387207031251 -32.2752783203125 4.969086914062501 -31.392822265625 4.860595703125 C-19.442350669192393 3.149034189313795 -13.186342272098258 -1.990969216460826 0 0 Z " fill="#847967" transform="translate(86.36328125,91.5078125)"/>
<path d="M0 0 C16.830000000000002 0 33.660000000000004 0 51 0 C48.75000000000001 7.874999999999984 48.75000000000001 7.874999999999984 47 11 C46.34 11 45.68 11 45 11 C44.760234375 11.590390625 44.52046875 12.18078125 44.2734375 12.7890625 C42.74615063560036 15.440732332055815 41.11405527981684 16.613641944847217 38.625 18.375 C30.947751477459953 24.18214952345978 28.42935885605886 31.04433809975475 26.25 40.125 C25.883943325534702 43.05576309378489 25.883943325534702 43.05576309378489 26.46484375 46.16796875 C28.67905929852033 62.023045049988625 27.771425731101523 84.06891207413287 19 98 C13.559733768631578 104.50377692321489 8.456269305656317 109.30874613886874 0 111 C0 74.37 0 37.739999999999995 0 0 Z " fill="#6F91AE" transform="translate(0,0)"/>
<path d="M0 0 C11.549999999999997 0 23.099999999999994 0 35 0 C32.71092919284678 17.168031053649113 32.71092919284678 17.168031053649113 29.625 23.25 C28.9918586159435 24.58585337310324 28.361653327956134 25.923102245577297 27.734375 27.26171875 C27.282880859375 28.21183837890625 27.282880859375 28.21183837890625 26.822265625 29.18115234375 C25.66080424358769 31.750299401802764 24.767145189397567 34.38972076455073 23.875 37.0625 C20.407573418341542 46.74239920712988 13.877988515034048 53.047133037336756 4.9609375 58.171875 C-0.9408615428388885 60.74632231909845 -8.000182932586831 61.28487771494034 -14.15234375 59.30859375 C-17.0921185840365 57.823168411025954 -18.986528166517047 56.01726078665003 -21 53.4375 C-22.423170246860757 48.54535227641614 -22.181158491089796 43.948904563933205 -21 39 C-20.04203116160331 37.6361548905984 -19.0437808387125 36.299345734789014 -18 35 C-17.628749999999997 33.824375 -17.2575 32.64875 -16.875 31.4375 C-14.744982412017535 25.34359941406085 -10.127369821014796 20.837696148906836 -6 16 C-1.4403381764117285 10.271194119081402 -1.6504565331233465 8.252282665616747 0 0 Z " fill="#8B7B68" transform="translate(60,0)"/>
<path d="M0 0 C10.89 0 21.78 0 33 0 C33 27.720000000000002 33 55.440000000000005 33 84 C24.95886075949366 82.85126582278481 24.95886075949366 82.85126582278481 21.8125 80.9375 C20.863105468750007 80.39416015625 20.863105468750007 80.39416015625 19.89453125 79.83984375 C14.41124960160343 74.51484239660869 13.194399881089339 67.35660025806054 12.25 60.0625 C12.124960937499992 59.22009765625 11.999921874999998 58.3776953125 11.87109375 57.509765625 C10.833060956782475 50.10094915033209 10.661613221376584 42.878182660282775 11.5 35.4375 C11.592812500000008 34.5905859375 11.685625000000002 33.743671875 11.78125 32.87109375 C11.889531250000005 31.94490234375 11.889531250000005 31.94490234375 12 31 C11.010000000000005 30.67 10.019999999999996 30.34 9 30 C8.913632812499998 29.177578125 8.827265624999995 28.35515625 8.73828125 27.5078125 C7.591802166740422 18.399088774286334 5.070960815938548 11.606441223907819 0 4 C0 2.6799999999999997 0 1.3599999999999999 0 0 Z " fill="#31A3E1" transform="translate(95,0)"/>
<path d="M0 0 C1.3199999999999932 0.3299999999999983 2.6400000000000006 0.6600000000000001 4 1 C3.9651953125000006 2.1395312499999974 3.930390625000001 3.279062500000002 3.89453125 4.453125 C3.709500385955508 13.299677178372093 3.9891525972026614 21.920269928352134 5.25 30.6875 C5.413992919921867 31.9051806640625 5.413992919921867 31.9051806640625 5.581298828125 33.1474609375 C6.580742667243285 39.50242754158499 8.10997099605342 45.81858387682878 13.4375 49.83984375 C14.283124999999998 50.2020703125 15.128749999999997 50.564296875 16 50.9375 C17.268437500000005 51.507910156250006 17.268437500000005 51.507910156250006 18.5625 52.08984375 C21.223069823714326 53.13520692827673 21.223069823714326 53.13520692827673 25 54 C25 59.61 25 65.22 25 71 C19.488851607786685 69.49695952939636 16.517805955019924 67.78144121328363 12.625 63.5625 C5.992972106870738 56.56707331820613 -1.231114801402299 54.96387766956644 -10.50390625 53.50390625 C-13.758219777862863 52.84693215752064 -16.160504422557906 51.68834872172232 -19 50 C-19 49.34 -19 48.68000000000001 -19 48 C-19.989999999999995 47.67 -20.980000000000004 47.34 -22 47 C-24.288154339026917 42.42369132194618 -24.202661194203912 39.601134420944206 -22.625 34.75 C-20.517167337588063 29.55115098364842 -17.581460885992485 25.41439475814815 -14.171875 20.9921875 C-10.281665470561691 15.632654227428517 -7.182783424405571 9.798421930100574 -4 4 C-3.3400000000000034 4 -2.680000000000007 4 -2 4 C-2 3.3400000000000034 -2 2.6799999999999997 -2 2 C-1.3400000000000034 2 -0.6800000000000068 2 0 2 C0 1.3399999999999999 0 0.6799999999999997 0 0 Z " fill="#2073A3" transform="translate(103,30)"/>
<path d="M0 0 C2.969999999999999 0 5.939999999999998 0 9 0 C9.591018016546677 7.092216198560094 7.683589778684471 11.815986717503465 3.09375 17.26171875 C1.7000253236219862 18.7932557544527 0.30028210919175535 20.319337718629328 -1.10546875 21.83984375 C-5.272076997649904 26.590636246804944 -7.66486625224875 32.16216563062188 -10 38 C-10.412500000000001 38.94875 -10.825000000000003 39.8975 -11.25 40.875 C-12.269329740982606 45.12220725409419 -12.2166335433419 48.79215277684937 -11 53 C-8.434648041573055 56.24044457906562 -6.913194999801483 57.69560166673284 -3 59 C5.459254899858806 59.84592548998588 12.269199662581642 58.7086580083012 19.04296875 53.3984375 C20.248732564330084 52.34929867598496 21.43401575981656 51.2757863665109 22.58984375 50.171875 C24 49 24 49 26 49 C26.268124999999998 48.401875 26.536249999999995 47.80375 26.8125 47.1875 C27.98493466981145 45.027751924031556 29.193692817700608 43.64209743845399 31 42 C28.213198571991484 51.18005176285155 23.38845379027086 59.786982039999494 16 66 C12.976365614898057 67.00787812836731 10.910722841627333 67.13382883475315 7.75 67.125 C6.381015625000003 67.12886718749999 6.381015625000003 67.12886718749999 4.984375 67.1328125 C2.0000000000000924 67.00000000000001 2.0000000000000924 67.00000000000001 -1.34375 66.5 C-5.354219017330351 65.95155979250183 -9.210741562286891 65.85239221023669 -13.25 65.875 C-14.309609375 65.86919921875 -14.309609375 65.86919921875 -15.390625 65.86328125 C-18.52989304021189 65.8692268334095 -21.00025549411534 66.00008516470511 -24 67 C-24.0605859375 65.865625 -24.121171875 64.73125 -24.18359375 63.5625 C-24.26808493627739 62.041658647007004 -24.352728514493744 60.5208257549033 -24.4375 59 C-24.47681640625 58.2562109375 -24.5161328125 57.512421875 -24.556640625 56.74609375 C-24.765257189271612 53.05518530519456 -25.061436847382307 49.43820739426614 -25.609375 45.78125 C-26.397124921367933 38.15583076115842 -23.482990158535213 29.263377678639195 -19 23 C-16.830879063035653 20.81887285858751 -14.586758463610408 18.82190256230725 -12.21875 16.859375 C-9.938383167051953 15.0147689824259 -9.938383167051953 15.0147689824259 -7.84375 12.765625 C-6 11 -6 11 -4 11 C-3.7950390624999955 10.373515625 -3.590078125000005 9.74703125 -3.37890625 9.1015625 C-3.1094921874999955 8.284296875 -2.840078125000005 7.46703125 -2.5625 6.625 C-2.295664062499995 5.812890625 -2.028828125000004 5.00078125 -1.75390625 4.1640625 C-1 2.0000000000000044 -1 2.0000000000000044 0 0 Z " fill="#7E8279" transform="translate(51,0)"/>
<path d="M0 0 C-0.16757812500000568 0.580078125 -0.33515624999999716 1.16015625 -0.5078125 1.7578125 C-1.8204774631020655 6.792464193923109 -2.430107885282382 10.139784229435222 0 15 C0.6599999999999966 15.329999999999998 1.3199999999999932 15.659999999999997 2 16 C2 16.659999999999997 2 17.319999999999993 2 18 C7.009915258774285 19.59890912514072 11.937382482945821 21.043360955911467 17.125 21.9375 C25.46440942006093 23.566290902355647 30.20238694230696 26.96126865292962 35.96875 33.09375 C39.00554335578754 35.94366376466215 42.190456113493596 37.3673383343544 46 39 C46 44.28 46 49.56 46 55 C38.076352853965915 53.86805040770942 38.076352853965915 53.86805040770942 34.1875 50.6875 C33.4385546875 50.09324218750001 32.689609375 49.49898437499999 31.91796875 48.88671875 C30 47.000000000000014 30 47.000000000000014 28.92578125 44.83203125 C28.08684781752092 42.6377873605979 28.08684781752092 42.6377873605979 25 42 C25 41.34 25 40.68000000000001 25 40 C24.409609375000002 39.7202734375 23.819218750000005 39.440546874999995 23.2109375 39.15234375 C21.1764434307608 38.09196256550254 19.47601697497332 36.90679060852135 17.625 35.5625 C9.993083031254372 30.762463168080203 0.759305902090631 29.99756347274922 -8.0625 29.6875 C-14.572065039541855 29.283129942732472 -14.572065039541855 29.283129942732472 -17.25 26.375 C-19.650145641724443 21.746147690960015 -20.71077249136266 18.709550891315843 -19.35546875 13.54296875 C-16.553847829874698 6.544162930810572 -12.47729634525841 4.000974160827354 -5.7421875 0.9609375 C-3 0 -3 0 0 0 Z " fill="#548394" transform="translate(82,62)"/>
<path d="M0 0 C3.744746250122475 3.3286633334422007 5.079081405588738 7.20497827962777 5.3828125 12.171875 C4.9464251214475325 19.410771514811515 1.7129810109382078 25.687715192186545 -2.5625 31.4375 C-9.031717007290005 36.05836929092143 -15.985799383051784 37.02982690746407 -23.75 36 C-27.704855710645965 34.72956540692498 -30.17649675774227 32.734801029142716 -32.75 29.4375 C-34.36751194101362 23.87730270276569 -34.16504346386475 18.322825276753832 -31.875 12.9453125 C-25.70703438435074 3.3078662255480324 -11.16654881259224 -4.060563204578997 0 0 Z " fill="#B29C6C" transform="translate(71.75,24)"/>
<path d="M0 0 C7.3418894113957265 3.569377065619264 11.705485276573995 8.386966747771993 14.9765625 15.9609375 C15.471562500000005 19.425937500000003 15.471562500000005 19.425937500000003 15.9765625 22.9609375 C-0.1934375000000017 22.9609375 -16.363437500000003 22.9609375 -33.0234375 22.9609375 C-34.0234375 19.9609375 -34.0234375 19.9609375 -33.203125 17.65625 C-30.66564380195795 12.657260094875241 -28.358840765469402 8.646030275648997 -24.0234375 4.9609375 C-22.816874999999996 3.9090625000000045 -22.816874999999996 3.9090625000000045 -21.5859375 2.8359375 C-14.352374306652322 -2.4569136170836714 -8.280175933408188 -3.4847072461061543 0 0 Z " fill="#DABB83" transform="translate(90.0234375,105.0390625)"/>
<path d="M0 0 C0.6600000000000001 0 1.3200000000000003 0 2 0 C4.707562328242812 16.839716919558967 4.3948543028086355 40.07876081318628 -5 55 C-10.440266231368433 61.5037769232149 -15.543730694343674 66.30874613886874 -24 68 C-24 57.11 -24 46.22 -24 35 C-15.000000000000004 32 -15.000000000000004 32 -12 32 C-10.020633089280878 28.30518176665764 -8.582353831743486 24.420865490107076 -7.125 20.5 C-6.8625146484375 19.7974609375 -6.600029296875 19.094921874999997 -6.32958984375 18.37109375 C-4.075686439444137 12.294515030623707 -1.9863428214650298 6.169347116079628 0 0 Z " fill="#869AA2" transform="translate(24,43)"/>
<path d="M0 0 C10.89 0 21.78 0 33 0 C33 11.22 33 22.44 33 34 C28.281866299660024 34 24.828834355916484 33.94171513942444 20.375 33.0625 C19.475234375 32.8884765625 18.57546875 32.714453125 17.6484375 32.53515625 C16.774453125000008 32.3585546875 15.900468750000002 32.181953125 15 32 C14.084765625000003 31.8337109375 13.169531250000006 31.667421875 12.2265625 31.49609375 C10 31 10 31 9 30 C8.725809391923804 28.024039422233518 8.481207689396996 26.04394989813221 8.25 24.0625 C7.125075146301313 16.315858393847655 4.30240553537223 10.453608303058353 0 4 C0 2.6799999999999997 0 1.3599999999999999 0 0 Z " fill="#87B0C7" transform="translate(95,0)"/>
<path d="M0 0 C9.241482182453623 2.651041805690454 17.033491115793083 8.378617042919501 23 15.875 C27.480284449533144 21.010935832391652 31.897432273313044 23.479486454662606 38.5625 24.8125 C38.5625 28.442499999999995 38.5625 32.07249999999999 38.5625 35.8125 C31.30250000000001 35.8125 24.04249999999999 35.8125 16.5625 35.8125 C15.985 34.12125 15.407499999999999 32.43000000000001 14.8125 30.6875 C12.026684877788114 23.116295138239465 8.816954384389277 17.74939176294484 1.5625 13.8125 C-2.8488449722603804 12.259305375580908 -7.337244461837116 11.121442039709649 -11.875 10 C-13.687744140625 9.533037109375002 -13.687744140625 9.533037109375002 -15.537109375 9.056640625 C-18.50077907317319 8.295223508868546 -21.46722849905673 7.547658926368001 -24.4375 6.8125 C-24.932500000000005 4.337500000000006 -24.932500000000005 4.337500000000006 -25.4375 1.8125 C-19.275820352922068 -4.010287266488646 -7.62666174543898 -1.7002112171360864 0 0 Z " fill="#94A195" transform="translate(89.4375,92.1875)"/>
<path d="M0 0 C14.775767112509836 2.462627852084971 14.775767112509836 2.462627852084971 20 6 C20.5865234375 6.393164062499999 21.173046875 6.786328124999997 21.77734375 7.19140625 C23 9 23 9 22.86328125 12.12109375 C21.87978887328331 16.540134157600335 20.628774485906277 20.77444017716718 19.1875 25.0625 C18.93935546875 25.839160156250003 18.6912109375 26.6158203125 18.435546875 27.416015625 C14.752856658933299 38.48282769923607 14.752856658933299 38.48282769923607 9.74609375 41.2421875 C8.9842578125 41.451015625 8.222421875 41.65984374999999 7.4375 41.875 C6.6730859375 42.09929687499999 5.908671875 42.32359375 5.12109375 42.5546875 C2.999999999999999 43 2.999999999999999 43 0 43 C0 28.810000000000002 0 14.619999999999997 0 0 Z " fill="#6BA8C5" transform="translate(0,35)"/>
<path d="M0 0 C3.031632915054189 2.785999544538064 4.914171139215981 5.353613455205654 6.6875 9.0625 C7.103867187500001 9.9197265625 7.520234375000001 10.776953125 7.94921875 11.66015625 C9.586429349984613 15.305840820225953 10.136676293655228 18.098398304053195 10.125 22.0625 C10.128867187499992 23.379277343749997 10.128867187499992 23.379277343749997 10.1328125 24.72265625 C10 26.999999999999996 10 26.999999999999996 9 29 C8.340000000000003 29 7.680000000000007 29 7 29 C7 29.659999999999997 7 30.32 7 31 C6.340000000000003 31 5.680000000000007 31 5 31 C4.746054687499992 31.685781250000005 4.492109374999998 32.3715625 4.23046875 33.078125 C1.7303691998748434 39.01486932855115 -1.6708843582757567 44.49841488294905 -5 50 C-5.5362499999999955 50.9036328125 -6.072500000000005 51.807265625 -6.625 52.73828125 C-11.240917936247357 59.60445918016794 -17.24779473514664 61.68016714630704 -25 64 C-24.45129350766007 59.881043264168234 -23.176698369723198 57.48688713245965 -20.6875 54.1875 C-15.567481865721476 47.37931970431076 -12.577691368377373 40.26707393230491 -10.0625 32.1875 C-8.402030709201597 26.990846108427213 -6.669952877678455 22.02915229193244 -4.25 17.125 C-1.5826648690328966 11.610220291923307 -0.7071283424779438 6.047530451341217 0 0 Z " fill="#59717A" transform="translate(94,3)"/>
<path d="M0 0 C-2.4453220645633564 1.6302147097088948 -4.870208778579496 3.0799805723003004 -7.4375 4.5 C-8.199335937499995 4.922812500000006 -8.961171874999991 5.345624999999998 -9.74609375 5.78125 C-11.999999999999986 7 -11.999999999999986 7 -14.16015625 7.90625 C-16.510173661125826 9.303287951412386 -16.95601396526441 10.497110403903136 -18 13 C-18.425390625 13.815976562499998 -18.850781249999997 14.631953124999995 -19.2890625 15.47265625 C-19.729921875000002 16.327304687500003 -20.170781250000005 17.181953125000007 -20.625 18.0625 C-21.071015625 18.919726562500003 -21.517031250000002 19.776953125000006 -21.9765625 20.66015625 C-23.200369297247917 23.03244987619979 -23.200369297247917 23.03244987619979 -23 26 C-30.590000000000003 26 -38.18 26 -46 26 C-46 20.35317667759213 -45.82149945210502 18.85833070129712 -43.25 14.25 C-42.73953125 13.306406249999995 -42.2290625 12.362812500000004 -41.703125 11.390625 C-39.94476159647988 8.922463525334138 -38.798754715173374 8.046490893499609 -36 7 C-36 6.340000000000003 -36 5.680000000000007 -36 5 C-23.02483166011386 -1.7752110543247852 -14.137902219712132 -4.610185506427868 0 0 Z " fill="#A89063" transform="translate(80,102)"/>
</svg>
