<?xml version="1.0" encoding="UTF-8"?>
<!-- Generator: visioncortex VTracer 0.6.0 -->
<svg version="1.1" xmlns="http://www.w3.org/2000/svg" width="128" height="128">
<path d="M0 0 C42.24 0 84.48 0 128 0 C128 42.24 128 84.48 128 128 C85.75999999999999 128 43.519999999999996 128 0 128 C0 85.75999999999999 0 43.519999999999996 0 0 Z " fill="#8E839F" transform="translate(0,0)"/>
<path d="M0 0 C0.43828125000000284 0.3996093750000007 0.8765625000000057 0.7992187500000014 1.328125 1.2109375 C1.328125 2.200937500000002 1.328125 3.1909375000000004 1.328125 4.2109375 C2.68350387572157 5.904064509801053 4.184148521690503 7.379138625233541 5.72265625 8.90625 C9.977585504402043 15.01429929464041 10.751365281775932 21.952598560036 10.890625 29.2109375 C11.108469942739035 35.65073975465406 11.59443108780809 41.95033838240326 12.453125 48.3359375 C13.927214288605512 59.97264953435487 12.30364053938409 69.28584591526642 6.390625 79.5859375 C2.1227286803286205 85.01780554321812 -0.5966790095129682 87.70279656091003 -7.46142578125 88.718505859375 C-8.314624023437503 88.81913330078125 -9.167822265625006 88.9197607421875 -10.046875 89.0234375 C-11.375012207031247 89.19661499023438 -11.375012207031247 89.19661499023438 -12.72998046875 89.373291015625 C-25.486770928877277 90.92734186428433 -37.753387851492505 92.33781163445971 -48.46875 84.046875 C-56.40624470802057 77.16322845942848 -56.40624470802057 77.16322845942848 -56.9453125 71.171875 C-57.14945057612751 63.96423061980586 -56.81107317435507 59.28882674474926 -52.859375 53.2265625 C-50.85742773777455 49.828520436485746 -50.73542102951465 47.150791329908 -50.671875 43.2109375 C-51.31426457230853 40.87080405801893 -51.98507557607617 38.53842443663075 -52.671875 36.2109375 C-52.98285927143939 32.932995179422676 -53.178490065391046 29.658203060887956 -53.3671875 26.37109375 C-53.63614117940073 23.581561357241114 -54.15656794073306 21.346846602436386 -55.046875 18.7109375 C-55.253125 17.5559375 -55.459375 16.400937499999998 -55.671875 15.2109375 C-53.55078124999999 12.8984375 -53.55078124999999 12.8984375 -50.671875 10.2109375 C-49.760730554288074 9.173208587155884 -48.86639628950766 8.120510878846044 -47.98828125 7.0546875 C-47.535175781250004 6.5068359375 -47.0820703125 5.958984375 -46.615234375 5.39453125 C-45.69623042231524 4.274048354364552 -44.779551769345716 3.1516541550299735 -43.865234375 2.02734375 C-30.37428613068937 -14.238338530374524 -16.77228170700039 -10.15882103391487 0 0 Z " fill="#476273" transform="translate(91.671875,23.7890625)"/>
<path d="M0 0 C17.49000000000001 0 34.980000000000004 0 53 0 C53 42.24 53 84.48 53 128 C42.769999999999996 128 32.53999999999999 128 22 128 C22.830368936107163 119.6963106389283 23.552862047344234 115.94951919864894 27.625 109.375 C31.140293143676487 103.39982372466287 34.33248824531523 97.43840790526002 37.0625 91.0625 C37.491999511718745 90.06065673828124 37.491999511718745 90.06065673828124 37.93017578125 89.03857421875 C43.10294694201518 76.77754485617228 40.88605385298713 66.69919995946508 36.875 54.3125 C36.496015625 53.05888671875 36.11703125 51.8052734375 35.7265625 50.513671875 C33.21677189608569 42.561818644931485 30.558754650864955 34.341611418837914 23.5859375 29.23046875 C22.856328125000005 28.8862890625 22.126718749999995 28.542109375 21.375 28.1875 C18.30606908305461 26.37566018833738 17.197633425461348 25.50760585065862 15.88671875 22.140625 C15.478730468750001 20.555078125 15.478730468750001 20.555078125 15.0625 18.9375 C13.890921142017447 14.406050834374371 13.890921142017447 14.406050834374371 10.6484375 11.21875 C7.987544395254346 9.915199744476304 7.987544395254346 9.915199744476304 5.33984375 8.96484375 C2.834933980963399 7.931934379462369 1.5591846951845696 7.213531059065305 0 5 C0 3.3499999999999996 0 1.6999999999999997 0 0 Z " fill="#A7BBE6" transform="translate(75,0)"/>
<path d="M0 0 C13.530000000000001 0 27.060000000000002 0 41 0 C41 20.249125194401252 41 20.249125194401252 33.25 28.3125 C32.43015625 29.0717578125 31.6103125 29.831015625 30.765625 30.61328125 C28.63764467502272 32.94878169622916 28.63764467502272 32.94878169622916 29.234375 36.29296875 C29.48703125 37.1862890625 29.7396875 38.079609375 30 39 C26.250000000000004 42 26.250000000000004 42 24 42 C21.17299241375649 47.45208605918391 19.80157973155584 51.66754328299859 19.625 57.875 C19.243162880910617 63.86546103227112 18.849704557097017 67.3606124568318 15 72 C9.949685099506922 76.18297821106057 6.750843892582547 77.03559372963106 0 78 C0 52.26 0 26.519999999999996 0 0 Z " fill="#8DBDDC" transform="translate(0,0)"/>
<path d="M0 0 C1.389526825271716 0.7873985343206407 2.760875777657958 1.606869904217465 4.125 2.4375 C4.890703125000002 2.8899609374999997 5.656406250000003 3.3424218749999994 6.4453125 3.80859375 C14.25891778618545 10.511090027599437 16.980161171067138 19.73688516619999 19.875 29.3125 C20.478281249999995 31.175517578124996 20.478281249999995 31.175517578124996 21.09375 33.076171875 C24.305271092976298 43.49176834490784 25.935153959422067 53.08569552441773 21.5 63.3125 C21.235903320312502 63.929316406249995 20.971806640625005 64.5461328125 20.69970703125 65.181640625 C17.050781370087208 73.4920320559499 12.7691249666224 81.66749451716642 7.8828125 89.3125 C5.362413722621113 93.83710486135402 5.362413722621113 93.83710486135402 4 103 C-18.769999999999996 103 -41.54 103 -65 103 C-63.70394736842105 91.33552631578945 -63.70394736842105 91.33552631578945 -62.75 85.5625 C-62.60498046875 84.50385742187501 -62.60498046875 84.50385742187501 -62.45703125 83.423828125 C-62.109375 81.37890625 -62.109375 81.37890625 -61 78 C-58.39062500000001 76.52734375 -58.39062500000001 76.52734375 -56 76 C-55.466328125000004 76.53109375 -54.93265625 77.0621875 -54.3828125 77.609375 C-46.87245667723609 84.72991996691111 -40.585449616393824 88.15447917704562 -30.125 88.4375 C-27.399767358485164 88.34591886235235 -24.71554774788929 88.20893407705154 -22 88 C-21.169521484374997 87.9395751953125 -20.339042968749993 87.879150390625 -19.4833984375 87.81689453125 C-7.443768969674551 87.23174982605195 -7.443768969674551 87.23174982605195 2.5 81.375 C3.922238436047877 79.262412271697 3.922238436047877 79.262412271697 5 77 C5.3983203125000045 76.2948828125 5.796640624999995 75.589765625 6.20703125 74.86328125 C11.58974190545095 64.26904155004885 12.034521035121102 52.14769608272496 9.48046875 40.6640625 C8.627346180582293 35.93374061103354 8.677453031971183 31.099146503280544 8.5703125 26.30078125 C8.172530349510353 15.941871080998922 5.29156493600226 9.29156493600226 -2 2 C-1.3400000000000034 1.3399999999999999 -0.6800000000000068 0.6799999999999997 0 0 Z " fill="#6091B8" transform="translate(93,25)"/>
<path d="M0 0 C17.49000000000001 0 34.980000000000004 0 53 0 C53 14.520000000000001 53 29.040000000000003 53 44 C51.019999999999996 44.495 51.019999999999996 44.495 49 45 C49 44.34 49 43.68 49 43 C48.44312500000001 42.79375 47.88624999999999 42.5875 47.3125 42.375 C43.05554659175557 39.84383851401683 40.5830199363854 36.10125987983907 38.3125 31.8125 C32.20788959105289 21.123493447368887 26.02870361078388 16.340420668806825 14.49609375 12.998046875 C3.346731746897973 9.762656716739432 3.346731746897973 9.762656716739432 0 5 C0 3.3499999999999996 0 1.6999999999999997 0 0 Z " fill="#B2D2D3" transform="translate(75,0)"/>
<path d="M0 0 C0.3299999999999983 0 0.6599999999999966 0 1 0 C1.5082844260173545 3.352964906024056 2.005114566064435 6.707533432103432 2.5 10.0625 C2.643085937500004 11.005449218750002 2.786171875000008 11.948398437500003 2.93359375 12.919921875 C4.8559413762335595 26.055963987596016 3.6843453374422808 37.81673084896728 -4 49 C-4.395742187500005 49.5994140625 -4.791484374999996 50.198828125000006 -5.19921875 50.81640625 C-9.135152493472631 55.7215489032767 -14.072078951404464 56.102653706581194 -20.07421875 56.87109375 C-23 57 -23 57 -26 56 C-26 53.875 -26 53.875 -25 51 C-23.257812499999986 49.578125 -23.257812499999986 49.578125 -21.125 48.125 C-17.042719477784843 45.23950315606015 -15.189478087329178 43.012800510887246 -14 38 C-14.0812266431181 32.375054964071666 -15.836143471404597 28.839192716837715 -19.625 24.75 C-20.256640625000003 24.146718750000005 -20.888281250000006 23.543437499999996 -21.5390625 22.921875 C-23 21 -23 21 -23.38671875 18.55859375 C-22.926249264107213 15.512053212022494 -21.945058684170647 13.831239817461096 -20.1875 11.3125 C-19.665429687499994 10.545507812500006 -19.143359375000003 9.778515624999997 -18.60546875 8.98828125 C-16.65810429944753 6.576581723646697 -14.992299612642583 5.160814670188856 -11.87890625 4.65625 C-11.114492187500005 4.604687499999997 -10.350078124999996 4.553125000000001 -9.5625 4.5 C-6.234644441880349 4.27476442923048 -3.864156440277668 3.762557809401642 -1 2 C-0.6700000000000017 1.3400000000000034 -0.3400000000000034 0.6799999999999997 0 0 Z " fill="#656779" transform="translate(101,56)"/>
<path d="M0 0 C11.219999999999999 0 22.439999999999998 0 34 0 C34.66 1.98 35.31999999999999 3.96 36 6 C37.74572921753658 7.6771049286725725 37.74572921753658 7.6771049286725725 39.875 8.75 C40.892070312499996 9.330078125 40.892070312499996 9.330078125 41.9296875 9.921875 C43.98487076152654 11.029613248639633 43.98487076152654 11.029613248639633 46.1484375 11.89453125 C48.49280965571559 13.2942302374842 48.89243364252785 14.379093700208088 49.75 16.9375 C49.99234375 17.6271484375 50.23468750000001 18.316796875 50.484375 19.02734375 C51 20.999999999999996 51 20.999999999999996 51 24 C47.50323507071714 22.641544559846945 44.13162551145905 21.121598198477443 40.75 19.5 C33.50903615308789 16.210422338365202 26.93366679996393 13.904314430198205 19 16 C11.253023045489606 19.873488477255197 6.05268221768533 27.56556065193227 0.5625 34.0625 C-2.000000000000007 37.00000000000001 -2.000000000000007 37.00000000000001 -4 38 C-7.5 38.1875 -7.5 38.1875 -11 38 C-11.66 37.34 -12.32 36.68 -13 36 C-12.731495200353852 32.217241204985164 -10.742230039245012 30.502001961531285 -8.125 27.9375 C-0.6454734418255441 19.748823338814372 -0.9154694773783376 10.985633728540058 0 0 Z " fill="#7AA1B5" transform="translate(41,0)"/>
<path d="M0 0 C4.5866309912149035 0.10991926122737539 7.969450842721727 0.20911343743759403 11.6875 3.0625 C12.450625000000002 4.031874999999999 13.213750000000005 5.001249999999999 14 6 C14.790839843750007 6.922324218750006 14.790839843750007 6.922324218750006 15.59765625 7.86328125 C19.06989364738908 12.090709759823596 21.202640321470966 15.326070998813108 21 21 C19.405562908612183 26.64100846815134 16.146331778675034 30.652153786665906 11.3359375 33.93359375 C5.548419947696061 36.57572132822571 -0.8347745501661734 35.52753471561236 -6.8125 33.9375 C-11.44954369268784 32.14952279236901 -14.767024049386237 29.49285522593371 -17 25 C-17.74393512244673 20.32514842808169 -16.14131994931494 16.829624834910817 -13.5625 13 C-12.716875000000002 12.010000000000005 -11.871250000000003 11.019999999999996 -11 10 C-10.340000000000003 10 -9.68 10 -9 10 C-8.752499999999998 9.4225 -8.505000000000003 8.844999999999999 -8.25 8.25 C-6.806063008454984 5.65091341521898 -5.264780126804027 3.921631622742808 -3 2 C-2.010000000000005 2 -1.019999999999996 2 0 2 C0 1.3400000000000034 0 0.6800000000000068 0 0 Z " fill="#434E4A" transform="translate(67,73)"/>
<path d="M0 0 C19.983398582684973 -0.5921006987462221 19.983398582684973 -0.5921006987462221 27 4 C28.03125 4.5362499999999955 29.0625 5.072500000000005 30.125 5.625 C32.30648110865139 8.388209404291757 32.254768178811226 8.985475534076713 32 12.375 C30.982820601546308 18.971852797738507 29.467443848379254 25.492205541970264 28 32 C18.759999999999998 32 9.52 32 0 32 C0 21.439999999999998 0 10.879999999999995 0 0 Z " fill="#B3A9CD" transform="translate(0,96)"/>
<path d="M0 0 C7.095966120173327 0 13.112874244360766 0.679813695634838 20 2 C20.817265625 2.132773437499999 21.63453125 2.2655468749999983 22.4765625 2.40234375 C24.625 2.8125 24.625 2.8125 28 4 C29.5 6.625 29.5 6.625 30 9 C26.250000000000004 12 26.250000000000004 12 24 12 C21.172992413756493 17.452086059183912 19.80157973155584 21.66754328299858 19.625 27.875 C19.24316288091062 33.86546103227111 18.84970455709702 37.3606124568318 15 42 C9.949685099506906 46.182978211060586 6.750843892582565 47.03559372963106 0 48 C0 32.16 0 16.32 0 0 Z " fill="#A2A8D0" transform="translate(0,30)"/>
<path d="M0 0 C2.4332210037750173 5.226919193294485 3.899851466364467 10.238786120894403 5.0625 15.875 C5.303232421875009 17.002285156249997 5.303232421875009 17.002285156249997 5.548828125 18.15234375 C5.871193582901185 19.661894448444883 6.191048104392365 21.171983698314108 6.50830078125 22.6826171875 C7.31008844708532 26.4614496225094 8.155098335603157 30.230610552096067 9 34 C-4.0054249547920335 41.1754068716094 -4.0054249547920335 41.1754068716094 -10 40 C-15.946054799659493 37.45169080014593 -20.634490830441322 33.592684355296036 -24 28 C-25.406596114069067 22.554192071881246 -24.040711719529426 17.723259118738447 -21.3359375 12.91796875 C-17.471902576460415 7.370480014742874 -12.44399602896982 2.481332009656608 -5.9375 0.3125 C-4 0 -4 0 0 0 Z " fill="#1C3B4B" transform="translate(71,26)"/>
<path d="M0 0 C1.389526825271716 0.7873985343206407 2.760875777657958 1.606869904217465 4.125 2.4375 C5.2735546874999955 3.1161914062499996 5.2735546874999955 3.1161914062499996 6.4453125 3.80859375 C14.258917786185435 10.511090027599437 16.980161171067152 19.736885166199997 19.875 29.3125 C20.277187499999997 30.55451171875 20.679374999999993 31.7965234375 21.09375 33.076171875 C24.305271092976312 43.49176834490784 25.935153959422067 53.08569552441773 21.5 63.3125 C21.237353515625003 63.926416015624994 20.974707031250006 64.54033203125 20.7041015625 65.1728515625 C17.108699955379578 73.36537938635473 12.963765989093389 81.55435101635993 8 89 C3.7037436946941114 88.51178905621524 1.338459100259044 87.70705487912309 -2 85 C-1.5410937500000017 84.5269140625 -1.0821875000000034 84.053828125 -0.609375 83.56640625 C7.440081621804893 74.89125657145817 11.16002812864842 65.27701043175998 10.9296875 53.36328125 C10.532363307285749 46.97071279753004 10.532363307285749 46.97071279753004 9.48046875 40.6640625 C8.627346180582293 35.93374061103354 8.677453031971169 31.099146503280544 8.5703125 26.30078125 C8.172530349510353 15.941871080998922 5.29156493600226 9.291564936002267 -2 2 C-1.3400000000000034 1.3399999999999999 -0.6800000000000068 0.6799999999999997 0 0 Z " fill="#7987AB" transform="translate(93,25)"/>
<path d="M0 0 C5.595165639772773 6.455960353583961 7.545591839914735 12.365165545923901 7.75 20.875 C7.787382812499999 21.897226562499995 7.824765624999998 22.919453125000004 7.86328125 23.97265625 C7.326838286285238 27.550583173125098 6.266735232840162 28.626953206377443 3.4375 30.8125 C-2.3721585049148786 32.84588047672021 -6.545779225865772 33.036239818467976 -12.5625 31.8125 C-15.905316524984883 29.583955650010076 -16.014877278169067 29.23427374187002 -16.87890625 25.55859375 C-17.189248046874994 24.275654296875004 -17.189248046874994 24.275654296875004 -17.505859375 22.966796875 C-17.71017578125 22.070253906250002 -17.914492187500002 21.173710937500005 -18.125 20.25 C-18.333183593749993 19.380527343750003 -18.5413671875 18.5110546875 -18.755859375 17.615234375 C-19.927426892479957 12.690243651048235 -21.030835731138268 7.7502535720162555 -22.113037109375 2.804931640625 C-22.5655495278736 0.7989816963734739 -23.056098558449463 -1.194538293666426 -23.5625 -3.1875 C-16.18465498694981 -4.903277910011671 -6.216013628114993 -4.804724819690925 0 0 Z " fill="#2E5582" transform="translate(94.5625,29.1875)"/>
<path d="M0 0 C1.39809472120794 0.25890642985332235 2.793421417688478 0.5327746074644093 4.1875 0.8125 C4.964804687500006 0.9633203125000005 5.742109374999998 1.114140625000001 6.54296875 1.26953125 C15.845110109860684 4.035032735363988 21.858016740617032 12.89900082331705 26.6875 20.8125 C29.36164733499018 25.19288983411385 31.70682087875298 28.170404670087194 36 31 C36.99000000000001 31 37.97999999999999 31 39 31 C39 36.94 39 42.88 39 49 C35.630859375 50.46484375 35.630859375 50.46484375 32.26171875 51.9296875 C29.80381660030126 53.02571894261567 29.80381660030126 53.02571894261567 27 55 C26.758784179687495 54.19892822265625 26.517568359375005 53.3978564453125 26.26904296875 52.572509765625 C25.35263241047039 49.555065680600215 24.422873697012392 46.54213479245922 23.484375 43.531494140625 C22.888302818771308 41.60548366722378 22.30725481611573 39.67484381888819 21.7265625 37.744140625 C17.933512671464456 25.528500598533228 17.933512671464456 25.528500598533228 9.55078125 16.23046875 C8.442832031249992 15.71419921875 8.442832031249992 15.71419921875 7.3125 15.1875 C4.1735351835503565 13.33265715391612 3.1608863925071944 12.393109204333616 1.7578125 8.96484375 C1.0247273570817015 5.9801399538326265 0.4282990729313383 3.0424003111674303 0 0 Z " fill="#97B2CC" transform="translate(89,13)"/>
<path d="M0 0 C1.072499999999991 0.7218750000000007 2.1450000000000102 1.4437500000000014 3.25 2.1875 C2.9200000000000017 2.8475 2.5900000000000034 3.5075000000000003 2.25 4.1875 C1.4133984375000068 4.092109375 0.5767968749999994 3.9967187499999994 -0.28515625 3.8984375 C-16.551649258537665 2.3183428295156503 -16.551649258537665 2.3183428295156503 -31.375 7.9375 C-33.9763800043078 10.238720773041521 -36.13532635390627 12.774896917192933 -38.25390625 15.53125 C-41.6069959599144 19.243286650140227 -45.7882559766843 22.156573504492457 -49.75 25.1875 C-51.75 24.1875 -51.75 24.1875 -52.55859375 22.515625 C-52.7661328125 21.829843749999995 -52.973671875 21.144062500000004 -53.1875 20.4375 C-53.4130859375 19.76203125 -53.638671875 19.0865625 -53.87109375 18.390625 C-53.676130186557906 14.843545974795461 -51.2975826148333 13.527399249493634 -48.75 11.1875 C-47.837967303001875 10.150551661310615 -46.94367127903938 9.09777312039115 -46.06640625 8.03125 C-45.613300781250004 7.4833984375 -45.1601953125 6.935546875 -44.693359375 6.37109375 C-43.77435542231524 5.250610854364552 -42.857676769345716 4.1282166550299735 -41.943359375 3.00390625 C-29.199087776565065 -12.36152759208467 -16.202242110968328 -10.047680178356686 0 0 Z " fill="#587587" transform="translate(89.75,22.8125)"/>
</svg>
