<?xml version="1.0" encoding="UTF-8"?>
<!-- Generator: visioncortex VTracer 0.6.0 -->
<svg version="1.1" xmlns="http://www.w3.org/2000/svg" width="128" height="128">
<path d="M0 0 C42.24 0 84.48 0 128 0 C128 42.24 128 84.48 128 128 C85.75999999999999 128 43.519999999999996 128 0 128 C0 85.75999999999999 0 43.519999999999996 0 0 Z " fill="#91A1A2" transform="translate(0,0)"/>
<path d="M0 0 C16.17 0 32.34 0 49 0 C49 42.24 49 84.48 49 128 C18.310000000000002 128 -12.379999999999995 128 -44 128 C-41.77779965276022 119.85193206012082 -39.69649058989261 113.87299668092858 -35.609375 106.853515625 C-32.84840073273692 101.7629693197337 -32.813937081357764 98.6716519354222 -34 93 C-27.13947562652649 90.40995933765494 -20.519980069709177 89.65255685172968 -13.25 89.5625 C-12.446511230468758 89.5405859375 -11.643022460937502 89.518671875 -10.815185546875 89.49609375 C-5.011505654965902 89.51528938375101 -1.8652067578922242 90.88266381809129 3 94 C9.190807455582416 95.39792426416376 13.931481703318894 94.69974702291299 20 93 C20.33 91.824375 20.659999999999997 90.64875 21 89.4375 C21.278437499999995 88.44556640625 21.278437499999995 88.44556640625 21.5625 87.43359375 C23.185717830712264 78.40444456666302 20.94222064249007 67.51253137230584 16.609375 59.39453125 C14.247526302188689 56.18117394271461 11.521138907325934 53.537876000054354 8.625 50.8125 C5.539672794780756 47.50679228012225 5.970729004771215 47.19603672144601 6 43 C5.060536818820765 40.808891640013016 5.060536818820765 40.808891640013016 3.6640625 38.75 C2.9331640624999977 37.58984375 2.9331640624999977 37.58984375 2.1875 36.40625 C1.671875 35.6121875 1.15625 34.818125 0.625 34 C-7.10360531309297 21.916698292220108 -7.10360531309297 21.916698292220108 -6.875 17.6875 C-5.893723695950641 14.673579923276975 -4.560643532581565 12.030371135262317 -3.03515625 9.2578125 C-1.6816972641787657 6.305739693189915 -0.8921707714950173 3.122597700232579 0 0 Z " fill="#7FA87C" transform="translate(79,0)"/>
<path d="M0 0 C4.693840102882774 2.174084853854616 6.7362245726730805 7.085423383785109 8.828125 11.55859375 C11.380598275731558 16.852854176133754 14.33754168368175 21.642318341517317 17.6953125 26.4609375 C19.015625 28.933593749999993 19.015625 28.933593749999993 18.94140625 31.46875 C18.770410835376083 34.10597670375141 18.770410835376083 34.10597670375141 20.87890625 36.21484375 C21.6871484375 36.94703125 22.495390625 37.67921875 23.328125 38.43359375 C28.985583135956404 43.6082092431131 31.41458188724218 48.25533514113271 33.203125 55.68359375 C33.375295410156255 56.3937060546875 33.547465820312496 57.103818359375 33.724853515625 57.83544921875 C35.2241802511937 64.32339100973783 35.90061993455524 69.74761198560117 34.078125 76.30859375 C31.05302238687692 80.1587243485203 27.76316216363125 81.13075819712577 23.015625 81.93359375 C18.688774429130163 82.1248357641821 15.595634300890751 81.31610621299251 11.9296875 78.8984375 C7.2822204873510685 76.16176066241064 2.780659714203665 76.41710059643583 -2.484375 76.55859375 C-3.395742187499998 76.5598828125 -4.307109375000003 76.561171875 -5.24609375 76.5625 C-10.547808795161373 76.63135344214496 -14.951695447089001 77.29960688217176 -19.984375 78.93359375 C-23.72475023573223 78.93359375 -24.74406117972621 78.16260754737691 -27.4765625 75.55859375 C-31.512453543966643 70.56106631026 -31.911210929732775 64.13482122393692 -33.01171875 57.98828125 C-34.20017873639619 51.9722148361048 -35.28278997418889 48.03804315939423 -39.984375 43.93359375 C-42.63573235742014 43.21694657494619 -42.63573235742014 43.21694657494619 -45.296875 43.55859375 C-46.1798828125 43.612734375 -47.062890625 43.666875 -47.97265625 43.72265625 C-48.96845703125 43.8270703125 -48.96845703125 43.8270703125 -49.984375 43.93359375 C-53.35447165303415 37.61466252556096 -52.59579260119812 30.45115026355664 -50.796875 23.74609375 C-48.57711907269925 17.199869094025097 -45.950202571931044 12.679627342127578 -39.671875 9.49609375 C-38.45076621376363 8.956639036671916 -37.224066227754996 8.42885500972346 -35.984375 7.93359375 C-32.72913234616047 10.956319071422417 -30.366167628446767 14.190776762440791 -27.984375 17.93359375 C-21.42819066128648 15.139154523663091 -16.79685174892643 12.06729870280208 -11.9296875 6.875 C-8.769251021675977 3.720909779664577 -4.70058512561954 -0.1573030455423865 0 0 Z " fill="#4A7169" transform="translate(66.984375,14.06640625)"/>
<path d="M0 0 C0 34.980000000000004 0 69.96000000000001 0 106 C-19.47 106 -38.94 106 -59 106 C-59.66 103.03 -60.31999999999999 100.06 -61 97 C-62.248874563100244 94.18898778974122 -62.248874563100244 94.18898778974122 -63.6875 91.8125 C-65.48655801589256 88.44058132109026 -66.01572319554478 87.30398178053254 -65.8125 83.375 C-65.4103125 82.199375 -65.4103125 82.199375 -65 81 C-59.46470921346602 78.70442790123674 -54.27517465764207 78.56519530008444 -48.375 78.5 C-47.433984374999994 78.45875 -46.49296875 78.4175 -45.5234375 78.375 C-42.88114648576871 78.34497396574737 -40.57378975605357 78.39735654492404 -38 79 C-35.08044059534541 82.13486614541083 -34 83.70917073947074 -34 88 C-31.767643031715906 86.75543833432606 -29.539203383288992 85.50460610207291 -27.3125 84.25 C-26.68666015625 83.901953125 -26.0608203125 83.55390625 -25.416015625 83.1953125 C-18.888460736803182 79.50433905536515 -14.293286444306844 76.516883345228 -12 69 C-12.422641309422687 63.928304286927826 -13.71793897144795 59.5629359394832 -15.5 54.8125 C-19.597644352853365 43.817948436966134 -19.449237624914304 34.87202349982935 -17.75 23.3125 C-17.640751953125005 22.51706787109375 -17.53150390625001 21.7216357421875 -17.4189453125 20.902099609375 C-16.36378769888421 14.233974296557577 -14.480179259055546 8.29870272790513 -9.4375 3.625 C-4 0 -4 0 0 0 Z " fill="#A6B19F" transform="translate(128,22)"/>
<path d="M0 0 C26.07 0 52.14 0 79 0 C76.75 10.12499999999999 76.75 10.12499999999999 74.375 14.0625 C73.7059765625 15.19365234375 73.7059765625 15.19365234375 73.0234375 16.34765625 C72.685703125 16.8929296875 72.34796875 17.438203125 72 18 C71.443125 17.484375 70.88625 16.96875 70.3125 16.4375 C68.10181142599328 14.76008645475154 68.10181142599328 14.76008645475154 65.51953125 15.1171875 C62.73847755487066 16.091634221084078 60.967758107428 17.265776753358526 58.6875 19.125 C57.90890625 19.751484375 57.1303125 20.37796875 56.328125 21.0234375 C54.142081650750164 22.879373632081236 52.04203333502399 24.802892386887258 49.9375 26.75 C46.20947756415561 30.0879677745488 42.76794510038753 31.552588094525216 38 33 C36.02 29.7 34.04 26.4 32 23 C26.11825267213849 25.262210510715967 22.62251879031586 27.1917944013764 19.375 32.8125 C15.953396408019426 40.744399235954965 14.682272029709818 48.22323610769809 17 56.625 C17.494999999999997 57.800625 17.494999999999997 57.800625 18 59 C16.546347308646787 60.172493528828106 15.086925809951126 61.33783815738901 13.625 62.5 C12.406835937499999 63.47453125 12.406835937499999 63.47453125 11.1640625 64.46875 C8.999999999999995 66 8.999999999999995 66 7 66 C6.71125 66.598125 6.4225 67.19625 6.125 67.8125 C5.000000000000019 69.99999999999997 5.000000000000019 69.99999999999997 3 73 C2.01 73 1.02 73 0 73 C0 48.91 0 24.82 0 0 Z " fill="#8F8FB5" transform="translate(0,0)"/>
<path d="M0 0 C6.266863582258111 5.106333289247345 9.068591828252252 12.98478406657621 10.4609375 20.7109375 C11.08273273978736 23.351314387792698 12.08731410234438 25.64771066582307 13.1875 28.125 C15.001066920118518 32.51288101272121 15.435430586384939 35.33485059424896 14 40 C9.86983385345033 47.942627204903204 1.865682961566364 52.235365588659675 -6 56 C-6.659999999999997 56 -7.319999999999993 56 -8 56 C-9.319999999999993 53.36 -10.64 50.72 -12 48 C-15.37505428395113 47.972927372053874 -18.749889401599887 47.95312551202963 -22.125 47.9375 C-23.076328125000003 47.92912109375 -24.027656250000007 47.9207421875 -25.0078125 47.912109375 C-29.79018487382082 47.89550391536868 -34.2977156926504 47.99462944943872 -39 49 C-39.36379745891715 54.03253151502058 -38.29134376668241 57.044609342561984 -36 61.5 C-33.46715091803833 66.4249843260366 -33 68.1699442938309 -33 74 C-44.22 74 -55.44 74 -67 74 C-64.77779965276022 65.85193206012083 -62.69649058989262 59.872996680928594 -58.609375 52.853515625 C-55.84840073273693 47.76296931973371 -55.813937081357764 44.67165193542219 -57 39 C-50.1394756265265 36.40995933765495 -43.51998006970917 35.652556851729685 -36.25 35.5625 C-35.44651123046876 35.5405859375 -34.6430224609375 35.518671874999995 -33.815185546875 35.49609375 C-28.0115056549659 35.515289383751025 -24.86520675789221 36.88266381809129 -20 40 C-13.809192544417584 41.39792426416378 -9.068518296681106 40.69974702291299 -3 39 C-2.5049999999999955 37.236562500000005 -2.5049999999999955 37.236562500000005 -2 35.4375 C-1.7215625000000045 34.445566406249995 -1.7215625000000045 34.445566406249995 -1.4375 33.43359375 C-0.3128029195086981 27.177466239767142 -1.33378462645382 21.80749788117123 -3 15.8125 C-4.101413091551336 11.78266764138479 -5 8.224950986344751 -5 4 C-4.040937499999998 3.8453124999999986 -4.040937499999998 3.8453124999999986 -3.0625 3.6875 C-2.3818749999999937 3.4606250000000003 -1.7012500000000017 3.2337500000000006 -1 3 C-0.6700000000000017 2.009999999999998 -0.3400000000000034 1.0200000000000031 0 0 Z " fill="#697C8E" transform="translate(102,54)"/>
<path d="M0 0 C5.166521213125222 1.7546675818161148 7.8890157695727225 5.308043727757536 10.3125 10.125 C10.359506409044599 12.389854253966583 9.932567802858387 14.272936721666682 9.45703125 16.484375 C9.257951900104032 20.121608527829125 10.40142730079559 23.132754869750492 11.625 26.5 C17.1768386974926 41.90572652790179 17.1768386974926 41.90572652790179 15.66015625 47.5546875 C13.912773455475303 50.88737700376012 12.351536497910587 53.856259268305166 9.3125 56.125 C6.0449001738568455 57.087847803481 2.8918613654168155 57.190099578535694 -0.5 57.25 C-1.3643164062499977 57.304140625 -2.2286328124999955 57.358281250000005 -3.119140625 57.4140625 C-9.136728333250986 57.6320581301857 -13.750556810131549 56.69695642973983 -18.6875 53.125 C-22.271224774099792 48.7045092998722 -23.309468112950896 43.019455290175586 -23 37.4296875 C-21.16650682426689 23.90767532896828 -12.64633892716678 11.901450869198243 -4.6875 1.125 C-2.6875 0.125 -2.6875 0.125 0 0 Z " fill="#344441" transform="translate(65.6875,33.875)"/>
<path d="M0 0 C16.17 0 32.34 0 49 0 C46.75 10.124999999999998 46.75 10.124999999999998 44.375 14.0625 C43.7059765625 15.19365234375 43.7059765625 15.19365234375 43.0234375 16.34765625 C42.685703125 16.8929296875 42.34796875000001 17.438203125 42 18 C41.44312500000001 17.484375 40.88624999999999 16.96875 40.3125 16.4375 C38.101811425993276 14.76008645475154 38.101811425993276 14.76008645475154 35.51953125 15.1171875 C32.738477554870684 16.09163422108407 30.967758107427983 17.265776753358534 28.6875 19.125 C27.90890625 19.751484375 27.130312500000002 20.37796875 26.328125 21.0234375 C24.142081650750164 22.879373632081236 22.042033335023987 24.802892386887258 19.9375 26.75 C16.209477564155605 30.087967774548805 12.767945100387522 31.552588094525216 8 33 C0.3735399065887961 22.591560753017415 0 12.648295507521052 0 0 Z " fill="#60A7BA" transform="translate(30,0)"/>
<path d="M0 0 C9.501995932808313 1.7258322466687304 15.125667939394631 6.478608899137271 20.6171875 14.3046875 C22.343966065345953 17.670442330759066 23.307101497385133 21.093488893483425 24.1875 24.75 C24.359670410156255 25.4601123046875 24.531840820312496 26.170224609374998 24.709228515625 26.90185546875 C26.2085552511937 33.389797259737875 26.884994934555237 38.814018235601125 25.0625 45.375 C22.03739738687692 49.22513059852028 18.747537163631236 50.19716444712577 14 51 C8.082976393327073 51.26152590526732 3.8379743688286823 49.124525113201855 -1 46 C0.6329526916802592 41.35236541598695 0.6329526916802592 41.35236541598695 2.5625 39.5 C4.6124227313646315 37.36095019335863 4.695591399068505 35.96106548178821 5 33 C4.514161167311059 30.161232402021014 3.9545717345693987 27.46909049376876 3.25 24.6875 C3.079843749999995 23.966269531249992 2.909687500000004 23.2450390625 2.734375 22.501953125 C1.8259579934948675 18.778111352010193 0.7488886502008967 15.235742032190366 -0.65625 11.66796875 C-2.0850800430972356 7.767761161429334 -2.1245666504658374 5.9359832766304095 -1 2 C-0.6700000000000017 1.3400000000000034 -0.3400000000000034 0.6799999999999997 0 0 Z " fill="#406182" transform="translate(76,45)"/>
<path d="M0 0 C8.364121486595636 4.182060743297825 10.765724140427022 12.74522622436065 14 21 C14.661026977950055 22.636118081904087 15.323922104620351 24.271482135909906 15.98828125 25.90625 C16.70089728352492 27.666514313422226 17.41313564381007 29.426931568290826 18.125 31.1875 C18.46184814453125 32.01854248046875 18.7986962890625 32.849584960937506 19.145751953125 33.705810546875 C25 48.30885075284441 25 48.30885075284441 25 54 C16.75 54 8.5 54 0 54 C0 36.18000000000001 0 18.36 0 0 Z " fill="#7589B2" transform="translate(0,74)"/>
<path d="M0 0 C0 18.150000000000006 0 36.300000000000004 0 55 C-8.273116751006341 53.161529610887484 -11.389478089809216 52.135453237797265 -17.375 46.9375 C-21.27022435951605 39.89613288856715 -18.852892503793925 30.957937491041548 -17.75 23.3125 C-17.640993652343752 22.516987304687504 -17.531987304687505 21.721474609375 -17.419677734375 20.90185546875 C-16.362344519896894 14.233801208485318 -14.48063652080765 8.299126531480255 -9.4375 3.625 C-4 0 -4 0 0 0 Z " fill="#B4E1CB" transform="translate(128,22)"/>
<path d="M0 0 C0.9410156250000057 -0.041250000000005116 1.8820312499999972 -0.08249999999999602 2.8515625 -0.125 C5.49195111150658 -0.15500441603984427 7.802201632360195 -0.09800641379040087 10.375 0.5 C13.302334488377738 3.616053203520522 14.81940842265547 6.349941226010159 15.0625 10.625 C15.423425127044112 16.25543198188808 15.906458379650218 21.877500555802612 16.375 27.5 C7.465000000000003 27.5 -1.4449999999999932 27.5 -10.625 27.5 C-11.284999999999997 24.53 -11.944999999999993 21.560000000000002 -12.625 18.5 C-13.873874563100244 15.688987789741205 -13.873874563100244 15.688987789741205 -15.3125 13.3125 C-17.111558015892555 9.940581321090278 -17.640723195544787 8.803981780532567 -17.4375 4.875 C-17.035312500000003 3.6993750000000034 -17.035312500000003 3.6993750000000034 -16.625 2.5 C-11.089709213466008 0.20442790123674115 -5.900174657642083 0.06519530008444008 0 0 Z " fill="#88A4BF" transform="translate(79.625,100.5)"/>
<path d="M0 0 C4.37814262315176 2.349247261203381 6.498361020935306 5.699197290776162 8.01171875 10.3359375 C8.436570399428746 11.803845985332742 8.849116028069602 13.275365710969837 9.25 14.75 C9.568076171874992 15.844414062499993 9.568076171874992 15.844414062499993 9.892578125 16.9609375 C13.109092447211694 28.325278322956137 13.109092447211694 28.325278322956137 11.8125 33.1875 C10.5625 35.375 10.5625 35.375 7.5625 37.375 C5.007748788521411 36.965527680390196 2.7209975378299163 36.45599929652283 0.25 35.75 C-0.7274316406249994 35.50056640625 -0.7274316406249994 35.50056640625 -1.724609375 35.24609375 C-7.1868775871243855 33.74793410022815 -11.54456306321589 31.451124382279346 -15.375 27.25 C-17.34782073161366 21.9117791968101 -16.37482060358615 16.894950391948925 -14.421875 11.64453125 C-12.178505827848525 6.838325776751418 -10.094381969598338 3.193639086862156 -5.4375 0.375 C-2.4375 -0.625 -2.4375 -0.625 0 0 Z " fill="#131B28" transform="translate(69.4375,48.625)"/>
<path d="M0 0 C-0.8140429687500017 0.5278710937500009 -0.8140429687500017 0.5278710937500009 -1.64453125 1.06640625 C-2.3599609375000057 1.5601171875000013 -3.075390624999997 2.053828124999999 -3.8125 2.5625 C-4.874042968750004 3.275996093749999 -4.874042968750004 3.275996093749999 -5.95703125 4.00390625 C-12.144168450147873 10.049082367161695 -12.134810369696297 19.323188102600668 -13.1875 27.4375 C-13.36474609375 28.74138671875 -13.5419921875 30.0452734375 -13.724609375 31.388671875 C-14.158673195743063 34.59135898480689 -14.583504478498753 37.794989008340664 -15 41 C-17.213586741422745 38.09815519611808 -19.16000487638756 35.15427735476418 -21 32 C-21.618750000000006 32.495 -22.237499999999997 32.99 -22.875 33.5 C-25 35 -25 35 -27 35 C-27.33 35.66 -27.659999999999997 36.32 -28 37 C-28.626484375000004 36.301328125 -29.252968750000008 35.60265625 -29.8984375 34.8828125 C-31.124335937500007 33.5176953125 -31.124335937500007 33.5176953125 -32.375 32.125 C-33.187109375000006 31.220078125 -33.99921875 30.31515625 -34.8359375 29.3828125 C-36.190762052939846 27.89103817275577 -37.575054349690205 26.424945650309795 -39 25 C-38.9896875 24.2330078125 -38.979375000000005 23.466015624999997 -38.96875 22.67578125 C-39.0061302824556 19.475094564739038 -39.87229538966781 17.91390522230642 -41.5 15.1875 C-41.9640625 14.397304687499997 -42.428124999999994 13.607109375 -42.90625 12.79296875 C-43.267187500000006 12.201289062500003 -43.628125 11.609609374999998 -44 11 C-43.272968750000004 11.046406250000004 -42.545937499999994 11.0928125 -41.796875 11.140625 C-34.65605379518291 11.396962171454973 -29.079978842843886 10.400306964224455 -22.3984375 7.875 C-20 7 -20 7 -18 7 C-18 6.34 -18 5.68 -18 5 C-16.27398621068258 4.18082357809979 -14.544035303898525 3.369939844486364 -12.8125 2.5625 C-11.849570312499992 2.1100390625000003 -10.886640624999998 1.6575781250000006 -9.89453125 1.19140625 C-3.160621761658035 -1.5803108808290176 -3.160621761658035 -1.5803108808290176 0 0 Z " fill="#72B1A3" transform="translate(124,23)"/>
<path d="M0 0 C6.266863582258111 5.106333289247345 9.068591828252252 12.98478406657621 10.4609375 20.7109375 C11.08273273978736 23.351314387792712 12.08731410234438 25.64771066582307 13.1875 28.125 C15.001066920118518 32.51288101272121 15.435430586384939 35.33485059424895 14 40 C9.86983385345033 47.942627204903204 1.865682961566364 52.235365588659675 -6 56 C-6.659999999999997 56 -7.319999999999993 56 -8 56 C-9.319999999999993 53.03 -10.64 50.06 -12 47 C-11.010000000000005 46.00999999999999 -10.019999999999996 45.02000000000001 -9 44 C-8.340000000000003 44 -7.680000000000007 44 -7 44 C-7 43.34 -7 42.68000000000001 -7 42 C-6.340000000000003 42 -5.680000000000007 42 -5 42 C-5 41.00999999999999 -5 40.02000000000001 -5 39 C-4.340000000000003 39 -3.680000000000007 39 -3 39 C-2.6700000000000017 37.824375 -2.3400000000000034 36.64875000000001 -2 35.4375 C-1.8143749999999983 34.7762109375 -1.6287499999999966 34.11492187499999 -1.4375 33.43359375 C-0.3128029195086981 27.177466239767142 -1.33378462645382 21.80749788117123 -3 15.8125 C-4.101413091551336 11.78266764138479 -5 8.224950986344766 -5 4 C-4.360624999999999 3.8968750000000014 -3.7212499999999977 3.793750000000003 -3.0625 3.6875 C-2.381875000000008 3.4606250000000003 -1.7012500000000017 3.2337500000000006 -1 3 C-0.6700000000000017 2.009999999999998 -0.3400000000000034 1.0200000000000031 0 0 Z " fill="#729196" transform="translate(102,54)"/>
<path d="M0 0 C2.9516411938562612 2.748079732211 5.29469150374878 5.320123771247374 7 9 C5.923807316316392 17.68325329711844 1.181464736263969 27.96323660010603 -4 35 C-7.4732518051588706 36.15775060171963 -10.360674475391654 36.06866651933223 -14 36 C-17.370096653034153 29.681068775560966 -16.61141760119812 22.517556513556634 -14.8125 15.8125 C-12.59274407269925 9.266275344025104 -9.96582757193104 4.746033592127578 -3.6875 1.5625 C-2.4663912137636252 1.0230452866719162 -1.2396912277549959 0.4952612597234598 0 0 Z " fill="#60718C" transform="translate(31,22)"/>
<path d="M0 0 C1.2355664062500011 0.017402343749999993 1.2355664062500011 0.017402343749999993 2.49609375 0.03515625 C3.3223828124999955 0.0441796875 4.148671875000005 0.053203125000000004 5 0.0625 C5.638085937499994 0.0741015625 6.276171875000003 0.085703125 6.93359375 0.09765625 C5.730222562990932 6.989691230142856 3.6122428885719557 12.15846317513002 -0.06640625 18.09765625 C-1.7164062500000057 16.77765625 -3.366406249999997 15.45765625 -5.06640625 14.09765625 C-4.758902541930112 11.951101239298502 -4.445269650957641 9.805423399559459 -4.12890625 7.66015625 C-3.954882812500003 6.4651953125 -3.7808593750000057 5.270234374999999 -3.6015625 4.0390625 C-2.891562234117984 0.1366522794951779 -2.891562234117984 0.1366522794951779 0 0 Z " fill="#73B2A4" transform="translate(72.06640625,-0.09765625)"/>
<path d="M0 0 C5.318895031145999 0.5909883367939983 10.81473067920686 1.4897741180444726 15 5 C16.0625 6.9375 16.0625 6.9375 16 9 C14.1875 11.25 14.1875 11.25 12 13 C11.340000000000003 13 10.680000000000007 13 10 13 C9.670000000000002 13.659999999999997 9.340000000000003 14.32 9 15 C7.512070386838957 13.424898752936599 6.03493939665762 11.839591361134282 4.5625 10.25 C3.738789062500004 9.368281250000003 2.9150781249999937 8.486562499999998 2.06640625 7.578125 C0.1812566389553183 5.226142498507578 -0.7396729116476735 3.963723775088013 -1 1 C-0.6700000000000017 0.6700000000000017 -0.3400000000000034 0.3400000000000034 0 0 Z " fill="#60A7BA" transform="translate(87,45)"/>
</svg>
