<?xml version="1.0" encoding="UTF-8"?>
<!-- Generator: visioncortex VTracer 0.6.0 -->
<svg version="1.1" xmlns="http://www.w3.org/2000/svg" width="128" height="128">
<path d="M0 0 C42.24 0 84.48 0 128 0 C128 42.24 128 84.48 128 128 C85.75999999999999 128 43.519999999999996 128 0 128 C0 85.75999999999999 0 43.519999999999996 0 0 Z " fill="#75B4CF" transform="translate(0,0)"/>
<path d="M0 0 C2.3619169705091423 2.0880715246530137 3.4930020927251633 3.897437455609353 4.82421875 6.73828125 C6.169262133789175 9.325590616159246 7.6647165599139555 10.323512309327704 10 12 C10 12.659999999999997 10 13.32 10 14 C10.680625000000006 14.247500000000002 11.361249999999998 14.494999999999997 12.0625 14.75 C14.359926076118967 15.727628117497432 16.359969940162657 16.745015194668696 18.5 18 C24.351476972554465 21.390340735171037 29.12407629840746 22.472016955201653 36 24 C36 34.89 36 45.78 36 57 C28.08 57 20.159999999999997 57 12 57 C11.670000000000002 59.31 11.340000000000003 61.620000000000005 11 64 C8.016127366906161 70.6842118588797 3.8844679231976187 78.68578300391519 -3 82 C-5.349447604777012 82.32811251032231 -7.429223248132672 82.33052276957623 -9.7890625 82.11328125 C-12.035455137063963 81.90640025250056 -12.035455137063963 81.90640025250056 -14.338134765625 82.4736328125 C-18.64667990397703 83.32562064321512 -22.931635343076238 83.34884328328626 -27.3125 83.4375 C-28.22451171875 83.48326171875 -29.136523437500003 83.5290234375 -30.076171875 83.576171875 C-36.22362582290239 83.67752774654248 -39.653406318321856 82.56127827139339 -44.381591796875 78.602294921875 C-46.80487602382512 76.20313752536366 -48.41548045900017 74.03699578691634 -50 71 C-50 69.68 -50 68.36 -50 67 C-50.66 67 -51.32 67 -52 67 C-53.459009417710874 64.08198116457824 -53.07842403565797 61.37866379475051 -53.125 58.125 C-53.47399349630557 49.363148130631544 -56.93573570692507 42.67156815295968 -62.69921875 36.046875 C-65.48936688514237 31.656371628184374 -64.506032026905 25.98160417597589 -64 21 C-62.1031340735833 12.943418914681757 -59.000121053756494 6.666747369170999 -52 2 C-49.23193359375 1.8046875 -49.23193359375 1.8046875 -45.8984375 1.875 C-44.685429687500005 1.8904687500000001 -43.472421874999995 1.9059375000000003 -42.22265625 1.921875 C-39.68097988009375 1.9734826420285536 -37.13931294135598 2.0255571263421714 -34.59765625 2.078125 C-28.47237727686383 2.155742051401937 -22.916764005020624 2.045309444562779 -16.98046875 0.49365234375 C-11.400262984053938 -0.8972717266078583 -5.6308938368345025 -1.0848511061791228 0 0 Z " fill="#31402E" transform="translate(92,22)"/>
<path d="M0 0 C4.432141003164276 4.029219093785713 5.233060197476512 7.579830100792023 5.53125 13.39453125 C5.5621875 14.171835937499992 5.593125000000001 14.949140624999998 5.625 15.75 C5.663671874999999 16.542773437500003 5.702343749999997 17.335546875000006 5.7421875 18.15234375 C5.836108001786215 20.101194162064004 5.919128221870025 22.050564506130073 6 24 C6.659999999999997 24 7.32 24 8 24 C8.350625 25.196249999999992 8.701250000000002 26.3925 9.0625 27.625 C11.049004143864963 33.00193188940371 14.917241420729894 36.458620710364954 20 39 C21.48846751298001 39.09572719110295 22.98111512083267 39.13074070956361 24.47265625 39.1328125 C25.373066406249997 39.13410156250001 26.2734765625 39.135390625 27.201171875 39.13671875 C28.617529296875006 39.13091796875 28.617529296875006 39.13091796875 30.0625 39.125 C31.438251953125004 39.13080078125 31.438251953125004 39.13080078125 32.841796875 39.13671875 C37.970360168461085 39.12944934774137 42.96866437659803 38.88813236161289 48.0556640625 38.2265625 C49.92395581729156 38.0088609996928 51.80764700104292 37.93872383047312 53.6875 37.875 C58.50634819816301 36.60209670237204 60.353962220839975 34.10832181501162 63 30 C65.90486519676692 24.80110574597323 68.5516717918089 19.793312832764386 70 14 C77.92 14 85.84 14 94 14 C94 30.17 94 46.34 94 63 C63.31 63 32.620000000000005 63 1 63 C1 58.379999999999995 1 53.75999999999999 1 49 C-0.43671434300888734 43.86887734639684 -2.0380375777701936 39.20666379964203 -4.15625 34.34765625 C-7.126424965040556 27.463214991745275 -8.485315285604127 22.236711128309935 -5.94140625 14.98046875 C-5.09224752834502 12.93694434862853 -4.210255713298768 10.906611163257836 -3.2890625 8.89453125 C-1.989017041018549 5.975338264832558 -0.9651775597740269 3.0443684712498538 0 0 Z " fill="#5D8B8C" transform="translate(34,65)"/>
<path d="M0 0 C2.3619169705091423 2.0880715246530137 3.4930020927251633 3.897437455609353 4.82421875 6.73828125 C6.169262133789175 9.325590616159246 7.6647165599139555 10.323512309327704 10 12 C10 12.659999999999997 10 13.32 10 14 C10.680625000000006 14.247500000000002 11.361249999999998 14.494999999999997 12.0625 14.75 C14.359926076118967 15.727628117497432 16.359969940162657 16.745015194668696 18.5 18 C24.351476972554465 21.390340735171037 29.12407629840746 22.472016955201653 36 24 C36 34.89 36 45.78 36 57 C28.409999999999997 57 20.819999999999993 57 13 57 C12.587500000000006 55.205625 12.174999999999997 53.411249999999995 11.75 51.5625 C10.788491586962863 47.661783404929906 9.727638706282818 44.15618669126437 7.9375 40.5625 C5.66557105092329 35.84652627237106 5.172008359858765 31.120960865217157 4.50390625 25.96875 C3.9016123327650973 22.42035172791843 2.8211975133794454 20.062923090683626 1 17 C1 16.340000000000003 1 15.68 1 15 C-6.906705920388561 10.341354023433027 -17.087144682373236 13.230896253981726 -25.46484375 15.20703125 C-29.968612007646158 16.217268770775874 -34.49002129256149 16.860270708825198 -39.0625 17.47265625 C-42.17659220388121 18.03170205787761 -45.025245182509344 18.9331608467035 -48 20 C-48.0605859375 20.687070312499998 -48.121171875 21.374140624999995 -48.18359375 22.08203125 C-48.2673828125 22.9830859375 -48.351171875 23.884140625 -48.4375 24.8125 C-48.55931640625 26.15248046875 -48.55931640625 26.15248046875 -48.68359375 27.51953125 C-49 30 -49 30 -50 33 C-50.15322358614249 35.5833022924071 -50.25706888982342 38.144922390826466 -50.31640625 40.73046875 C-50.33718734741211 41.48088943481445 -50.357968444824216 42.231310119628915 -50.37937927246094 43.00447082519531 C-50.444699262017195 45.39872184234065 -50.50367792437348 47.79308138684354 -50.5625 50.1875 C-50.605701927838695 51.81186012574018 -50.649316758263964 53.43620932615903 -50.693359375 55.060546875 C-50.800362626588466 59.04025370709806 -50.901679373892954 63.02006957536467 -51 67 C-53.85394316330715 64.14605683669285 -53.167130477123806 62.10927867458406 -53.1875 58.125 C-53.47792577297792 49.343330185685886 -56.92357561421991 42.685545271011605 -62.69921875 36.046875 C-65.48936688514237 31.656371628184374 -64.506032026905 25.98160417597589 -64 21 C-62.1031340735833 12.943418914681757 -59.000121053756494 6.666747369170999 -52 2 C-49.23193359375 1.8046875 -49.23193359375 1.8046875 -45.8984375 1.875 C-44.685429687500005 1.8904687500000001 -43.472421874999995 1.9059375000000003 -42.22265625 1.921875 C-39.68097988009375 1.9734826420285536 -37.13931294135598 2.0255571263421714 -34.59765625 2.078125 C-28.47237727686383 2.155742051401937 -22.916764005020624 2.045309444562779 -16.98046875 0.49365234375 C-11.400262984053938 -0.8972717266078583 -5.6308938368345025 -1.0848511061791228 0 0 Z " fill="#486C7B" transform="translate(92,22)"/>
<path d="M0 0 C2.3561006640732955 3.0187539758439073 3.9598741113396514 5.59415993002149 4.0546875 9.48828125 C3.0907640647738077 14.4042907696536 0.9481450460272285 18.98623295068728 -1.1953125 23.4921875 C-3.4354419351287646 31.147775472478884 -1.627906301496239 37.43406660004689 1.4375 44.5546875 C2.0839211147998213 46.11249838457701 2.7285195852314246 47.67106711714925 3.37109375 49.23046875 C3.65911865234375 49.90634033203125 3.9471435546875 50.5822119140625 4.243896484375 51.278564453125 C6.8400259378927615 58.02078892669405 6.167485421703184 64.23727496978091 5 71.2421875 C-6.550000000000001 71.2421875 -18.1 71.2421875 -30 71.2421875 C-30 47.1521875 -30 23.062187499999993 -30 -1.7578125 C-3.664653971202977 -3.2208872793776138 -3.664653971202977 -3.2208872793776138 0 0 Z " fill="#92B2C0" transform="translate(30,56.7578125)"/>
<path d="M0 0 C9.57 0 19.14 0 29 0 C29.85614930271804 3.424597210872166 30.284530941377856 6.438619627184755 30.5625 9.9375 C30.688183593749997 11.46697265625 30.688183593749997 11.46697265625 30.81640625 13.02734375 C30.981196840413986 15.695548841596667 31.0344477350035 18.327839984728406 31 21 C33.97 21.99 36.94 22.98 40 24 C38.63875 25.485 38.63875 25.485 37.25 27 C29.965653137659576 35.675931994061116 29.01332794407058 44.01339176428741 28 55 C23.521155609439653 55.195813460517215 19.04191574362917 55.38026359857661 14.5625 55.5625 C13.28310546875 55.61857421875 12.0037109375 55.6746484375 10.685546875 55.732421875 C8.863134765624999 55.804931640625 8.863134765624999 55.804931640625 7.00390625 55.87890625 C5.87799072265625 55.92603759765625 4.7520751953125 55.9731689453125 3.592041015625 56.021728515625 C1.000000000000004 56 1.000000000000004 56 0 55 C-0.09359189656063165 53.281345912682255 -0.11744611062308309 51.558842563533474 -0.113525390625 49.837646484375 C-0.11344985961914063 48.73658065795898 -0.11337432861328126 47.63551483154297 -0.1132965087890625 46.50108337402344 C-0.10813522338867188 45.3031867980957 -0.10297393798828125 44.105290222167966 -0.09765625 42.87109375 C-0.09624130249023438 41.65172622680664 -0.09482635498046875 40.43235870361328 -0.0933685302734375 39.17604064941406 C-0.08774966949362775 35.26316930174494 -0.07519396291230764 31.350354190535278 -0.0625 27.4375 C-0.057487430435159685 24.792318531896044 -0.05292410370272618 22.147136171220566 -0.048828125 19.501953125 C-0.0386229595549942 13.001262736531308 -0.019051205476119278 6.50069466857359 0 0 Z " fill="#AFAA95" transform="translate(0,0)"/>
<path d="M0 0 C2.8392188257153634 -0.30548556985544906 5.413932243406315 -0.41789850388124705 8.25 -0.375 C9.377285156249997 -0.3924023437499997 9.377285156249997 -0.3924023437499997 10.52734375 -0.41015625 C16.45168648214228 -0.3791387487845981 20.400457744454165 1.1225528154391213 25.25 4.625 C28.411541158926696 8.91566300140051 29.301625002637806 13.472095215987878 28.671875 18.75 C28.307197822254437 20.625482628405734 27.92695433879328 22.498005162805384 27.53125 24.3671875 C26.263243717253246 30.651277460083165 26.66472501566666 35.51627138074731 29.78515625 41.1796875 C31.537593946159433 43.80552662029035 33.68576732415502 45.868469903827005 36 48 C36.66 48.99000000000001 37.31999999999999 49.97999999999999 38 51 C32.52896608554951 53.253847858444715 27.45254362149339 53.43433753665923 21.625 53.5 C20.26375 53.561875 20.26375 53.561875 18.875 53.625 C12.757403275058266 53.69551984697338 9.321558562091795 52.52888001938243 4.614501953125 48.60009765625 C-0.7399236303971293 43.29344329750147 -2.0950727363415638 38.74903626406265 -2.1645965576171875 31.439926147460938 C-2.165709381103518 30.726273956298826 -2.1668222045898418 30.012621765136714 -2.16796875 29.27734375 C-2.1712971496582014 28.53545303344727 -2.174625549316403 27.793562316894537 -2.1780548095703125 27.029190063476563 C-2.18310558685814 25.46502297171355 -2.1854637074364476 23.900845159945618 -2.185302734375 22.336669921875 C-2.1874955430981373 19.94236644161957 -2.2056875720175597 17.54851929653134 -2.224609375 15.154296875 C-2.2275424069614473 13.632814073457396 -2.2295278062660913 12.111329087652422 -2.23046875 10.58984375 C-2.237654266357424 9.874167327880862 -2.244839782714841 9.158490905761717 -2.2522430419921875 8.421127319335938 C-2.235189507812393 4.720845332615518 -2.109472111916034 3.164208167874058 0 0 Z " fill="#1E4F4A" transform="translate(43,52)"/>
<path d="M0 0 C0 13.530000000000001 0 27.060000000000002 0 41 C-6.930000000000007 41 -13.86 41 -21 41 C-22.319999999999993 38.36 -23.64 35.72 -25 33 C-25.763125000000002 32.071875000000006 -26.526250000000005 31.143749999999997 -27.3125 30.1875 C-30.380186254882958 24.39298151855442 -28.742823681664063 17.85484455510084 -26.9375 11.75 C-24.970998964305537 7.004960187503414 -21.14384468833798 3.882311325557666 -17 1 C-11.614835192865499 -0.7950549357115051 -5.676462121975476 0 0 0 Z " fill="#BCC6BB" transform="translate(128,87)"/>
<path d="M0 0 C1.1498280581121207 2.9151075193586706 2.2941548769159112 5.832344343440994 3.4375 8.75 C3.925732421874997 9.987499999999997 3.925732421874997 9.987499999999997 4.423828125 11.25 C4.892724609374994 12.448828125000006 4.892724609374994 12.448828125000006 5.37109375 13.671875 C5.65911865234375 14.405029296875 5.9471435546875 15.13818359375 6.243896484375 15.8935546875 C8.715387459559587 22.778935421724285 8.188903896449645 28.86657662130213 7 36 C-4.550000000000001 36 -16.1 36 -28 36 C-28 28.409999999999997 -28 20.819999999999993 -28 13 C-26.06125 12.340000000000003 -24.1225 11.680000000000007 -22.125 11 C-16.1426596653398 8.73870142034086 -11.889713274186626 5.901258358450278 -7.21875 1.57421875 C-4.587128968444283 -0.292934904431263 -3.157474395994459 -0.32797709395012475 0 0 Z " fill="#B2D0C7" transform="translate(28,92)"/>
<path d="M0 0 C1.96776252764748 0.050526764549722714 3.936399607845459 0.06272136013172869 5.90478515625 0.07275390625 C15.331277154370866 0.33926205698221423 25.66772907345451 2.206568157420989 32.96337890625 8.74853515625 C33.329472656250005 9.179082031249997 33.69556640625001 9.609628906250002 34.07275390625 10.05322265625 C33.082753906250005 10.200175781249996 33.082753906250005 10.200175781249996 32.07275390625 10.35009765625 C24.25187624239632 11.531376053394567 16.44195750388792 12.781979985818928 8.63525390625 14.05322265625 C7.593046874999999 14.219189453124997 6.550839843749998 14.385156250000001 5.47705078125 14.55615234375 C0.5067982535933879 15.372762587964722 -4.202017088375371 16.237697275111202 -8.92724609375 18.05322265625 C-8.98783203125 18.740292968749998 -9.048417968750002 19.427363281249995 -9.11083984375 20.13525390625 C-9.194628906250003 21.03630859375 -9.278417968749999 21.93736328125 -9.36474609375 22.86572265625 C-9.486562499999998 24.205703125 -9.486562499999998 24.205703125 -9.61083984375 25.57275390625 C-9.92724609375 28.05322265625 -9.92724609375 28.05322265625 -10.92724609375 31.05322265625 C-11.080469679892488 33.636524948657105 -11.184314983573422 36.19814504707648 -11.24365234375 38.78369140625 C-11.264433441162112 39.53411209106445 -11.285214538574216 40.284532775878915 -11.306625366210938 41.05769348144531 C-11.371945355767195 43.45194449859066 -11.430924018123477 45.846304043093525 -11.48974609375 48.24072265625 C-11.532948021588695 49.86508278199018 -11.576562852013964 51.48943198240903 -11.62060546875 53.11376953125 C-11.727608720338466 57.09347636334806 -11.828925467642954 61.07329223161469 -11.92724609375 65.05322265625 C-14.78118925705715 62.19927949294285 -14.094376570873806 60.16250133083409 -14.11474609375 56.17822265625 C-14.405171866727919 47.396552841935886 -17.8508217079699 40.738767927261605 -23.62646484375 34.10009765625 C-26.41661297889237 29.709594284434374 -25.433278120655 24.03482683222589 -24.92724609375 19.05322265625 C-21.445802124463132 4.266444507128355 -14.724341464055492 -0.4205001161083892 0 0 Z " fill="#616F61" transform="translate(52.92724609375,23.94677734375)"/>
<path d="M0 0 C4.432141003164276 4.029219093785713 5.233060197476512 7.579830100792023 5.53125 13.39453125 C5.5621875 14.171835937499992 5.593125000000001 14.949140624999998 5.625 15.75 C5.663671874999999 16.542773437500003 5.702343749999997 17.335546875000006 5.7421875 18.15234375 C5.836108001786215 20.101194162064004 5.919128221870025 22.050564506130073 6 24 C6.659999999999997 24 7.32 24 8 24 C8.350625 25.196249999999992 8.701250000000002 26.3925 9.0625 27.625 C10.615475921163586 31.823236341901563 12.769754294265823 33.98825493135695 16.28125 36.67578125 C19.250473734367553 38.963433172615 20.79363493744846 40.38090481234539 22 44 C22.09137565722928 45.39615107970312 22.13065666577444 46.79617608761231 22.1328125 48.1953125 C22.134746093749996 49.392207031249995 22.134746093749996 49.392207031249995 22.13671875 50.61328125 C22.1328515625 51.44214843750001 22.128984375 52.27101562499999 22.125 53.125 C22.130800781250002 54.379902343750004 22.130800781250002 54.379902343750004 22.13671875 55.66015625 C22.126648741883116 61.873351258116884 22.126648741883116 61.873351258116884 21 63 C19.51128140382592 63.08669432025309 18.018555003976566 63.107034937131914 16.52734375 63.09765625 C15.628222656250003 63.09443359375001 14.729101562499999 63.091210937499994 13.802734375 63.087890625 C12.384443359374998 63.075322265625005 12.384443359374998 63.075322265625005 10.9375 63.0625 C9.98810546875 63.057988281250005 9.0387109375 63.05347656250001 8.060546875 63.048828125 C5.706969349087828 63.03700110225674 3.353515227249382 63.020520253490446 1 63 C1.046406250000004 62.12859374999999 1.0928125000000009 61.2571875 1.140625 60.359375 C1.4360556648559353 50.6101630597542 -0.28456362111310085 43.22899088264933 -4.15625 34.34765625 C-7.126424965040556 27.463214991745275 -8.485315285604127 22.236711128309935 -5.94140625 14.98046875 C-5.09224752834502 12.93694434862853 -4.210255713298768 10.906611163257836 -3.2890625 8.89453125 C-1.989017041018549 5.975338264832558 -0.9651775597740269 3.0443684712498538 0 0 Z " fill="#739482" transform="translate(34,65)"/>
<path d="M0 0 C9.569999999999993 0 19.14 0 29 0 C29 10.89 29 21.78 29 33 C20.053208172738096 33 13.83302241366576 32.15494644110615 6.6875 26.75 C5.800624999999997 25.8425 4.913749999999993 24.935 4 24 C3.502421874999996 23.4933984375 3.0048437500000063 22.986796875 2.4921875 22.46484375 C-2.9087675743090387 15.750541676746954 -0.8709280996032618 8.03933630403006 0 0 Z " fill="#E2DAC1" transform="translate(99,0)"/>
<path d="M0 0 C9.57 0 19.14 0 29 0 C29.861079959451757 3.4443198378070305 30.28530440009645 6.48005587424062 30.5625 10 C30.688183593749997 11.546875 30.688183593749997 11.546875 30.81640625 13.125 C30.96250368114589 15.412823602624997 31 17.707516347688504 31 20 C20.537074115399903 22.95601716844812 10.879223079491327 24.58156834309649 0 25 C0 16.75 0 8.5 0 0 Z " fill="#B8D6BD" transform="translate(0,0)"/>
<path d="M0 0 C8.579999999999998 0 17.159999999999997 0 26 0 C26.659999999999997 3.3000000000000003 27.32 6.6000000000000005 28 10 C28.9416335073263 12.028133708087408 29.922396915877748 14.040721665232269 31 16 C31 16.66 31 17.32 31 18 C31.5775 18.268125 32.155 18.53625 32.75 18.8125 C35.05550042546048 20.02929189121526 37.02056192443554 21.30333879237332 39 23 C39 23.66 39 24.32 39 25 C31.70150832633773 25.11423726097906 24.416175767113472 25.019900081660122 17.125 24.6875 C16.42447509765625 24.66502197265625 15.723950195312497 24.6425439453125 15.002197265625 24.619384765625 C9.991053413029753 24.357080381174615 6.438587457358231 23.161348722708382 2 21 C1.6637950032688167 18.250323419591407 1.330931837104373 15.50031188944851 1 12.75 C0.9046093749999997 11.9726953125 0.8092187499999994 11.195390625 0.7109375 10.39453125 C0.5755859375000014 9.26337890625 0.5755859375000014 9.26337890625 0.4375 8.109375 C0.3537109375000007 7.418115234375 0.2699218750000014 6.72685546875 0.18359375 6.0146484375 C0.0015591362234523842 4.01710903206904 0 2.0058166109747546 0 0 Z " fill="#86B7B8" transform="translate(29,0)"/>
<path d="M0 0 C4.775566581874301 1.55724997235032 9.048159243756686 4.184322629059622 13.3359375 6.76171875 C13.139324721525284 15.41268100288734 7.962340450436898 23.607895847041405 1.8984375 29.57421875 C-0.7446268824982241 31.590823177278565 -2.5924056546529215 32.13139371409582 -5.9140625 31.94921875 C-9.6640625 30.76171875 -9.6640625 30.76171875 -11.6015625 28.44921875 C-14.290727589058932 21.647212936497993 -14.800718404701044 14.398578937064187 -12.4765625 7.38671875 C-9.932402796262082 1.5799097965611537 -6.586453150537352 -1.1734485498083842 0 0 Z " fill="#584B26" transform="translate(90.6640625,72.23828125)"/>
<path d="M0 0 C4 5.0000000000000036 4 5.0000000000000036 5.625 7.5 C12.204991291934107 14.426306623088543 20.87796101999527 15.833227572324976 30 17 C30 21.29 30 25.58 30 30 C22.541046002778202 28.982869909469755 16.43254795786676 27.945296080824946 10 24 C9.399296875000005 23.64421875 8.798593749999995 23.2884375 8.1796875 22.921875 C6.5 21.875 6.5 21.875 4 20 C4 19.340000000000003 4 18.68 4 18 C3.407031250000003 17.755078124999997 2.8140625000000057 17.51015625 2.203125 17.2578125 C-0.3669872584011671 15.790478905664578 -1.5452996577874103 14.27707775493592 -3.25 11.875 C-4.031171874999998 10.788320312499998 -4.031171874999998 10.788320312499998 -4.828125 9.6796875 C-5.21484375 9.125390625000001 -5.6015625 8.57109375 -6 8 C-5.1875 6.0625 -5.1875 6.0625 -4 4 C-3.010000000000005 3.6700000000000017 -2.019999999999996 3.34 -1 3 C-0.6700000000000017 2.009999999999998 -0.3400000000000034 1.0199999999999996 0 0 Z " fill="#929995" transform="translate(98,16)"/>
<path d="M0 0 C7.920000000000002 0 15.840000000000003 0 24 0 C24 2.6400000000000006 24 5.280000000000001 24 8 C23.058984374999994 8.037382812499999 22.117968750000003 8.074765624999998 21.1484375 8.11328125 C19.280585937500007 8.211894531249996 19.280585937500007 8.211894531249996 17.375 8.3125 C15.530351562500002 8.399511718750006 15.530351562500002 8.399511718750006 13.6484375 8.48828125 C7.68775365466287 9.324308641583684 3.775007182672738 11.421681881247054 0.04931640625 16.2431640625 C-1.8439537431750637 19.41300398694456 -2.563918887589665 22.790884370883845 -3.3125 26.375 C-3.480722656249995 27.1110546875 -3.648945312500004 27.847109375000002 -3.822265625 28.60546875 C-4.230166379959513 30.40023207182189 -4.6172758583427935 32.199699847623606 -5 34 C-5.941015625000006 33.3722265625 -6.882031249999997 32.74445312500001 -7.8515625 32.09765625 C-9.689660757638563 30.87301758455098 -11.52981629972274 29.651436644919244 -13.375 28.4375 C-13.911249999999995 27.963125000000005 -14.447500000000005 27.488749999999996 -15 27 C-15 26.010000000000005 -15 25.019999999999996 -15 24 C-14.154375000000002 23.360625 -13.308750000000003 22.721249999999998 -12.4375 22.0625 C-5.5605280663990015 16.688334284668116 -2.3153170461376362 8.103609661481698 0 0 Z " fill="#929995" transform="translate(104,79)"/>
</svg>
