<?xml version="1.0" encoding="UTF-8"?>
<!-- Generator: visioncortex VTracer 0.6.0 -->
<svg version="1.1" xmlns="http://www.w3.org/2000/svg" width="128" height="128">
<path d="M0 0 C42.24 0 84.48 0 128 0 C128 42.24 128 84.48 128 128 C85.75999999999999 128 43.519999999999996 128 0 128 C0 85.75999999999999 0 43.519999999999996 0 0 Z " fill="#456566" transform="translate(0,0)"/>
<path d="M0 0 C42.24 0 84.48 0 128 0 C128 5.61 128 11.22 128 17 C120.16332590942835 15.880475129918338 120.16332590942835 15.880475129918338 116.3125 14 C109.40710816849275 10.663824905559553 102.89841007003815 9.925809874962429 95.5 12.1875 C90.00129215304909 14.213840434949038 84.98302866826809 16.761096664858606 81.0625 21.1875 C79.78616594825941 24.56603131343096 79.5093218660063 27.631464186912783 79.25 31.21875 C78.8315680291366 35.87380567585522 77.88214197038413 40.412861754002584 77 45 C73.37 45.33 69.74 45.66 66 46 C66.5053125 47.038984375 67.010625 48.07796875 67.53125 49.1484375 C75.04487503672591 65.06020534411141 75.04487503672591 65.06020534411141 73 72 C70.2943853740616 76.76152573972712 67.2242619840514 79.33350693387085 62 81 C56.61070872105821 81.74524406331801 52.340934677098886 81.71835786273155 47.5 79.125 C43.972537604391285 75.48474084174102 42.62473676252192 70.94044704155263 42 66 C42.320431871030536 59.47484189901449 44.47042450966167 54.4120157518521 48 49 C45.69 48.67 43.38 48.34 41 48 C40.7525 48.515625 40.505 49.03125 40.25 49.5625 C39 52.00000000000001 39 52.00000000000001 36.9375 55.3125 C34.85603340549635 58.88736084260479 34.33470868506586 61.8998186079432 34 66 C33.7525 65.443125 33.505 64.88625 33.25 64.3125 C31.721220784715438 61.48425845172356 30.282923040689855 59.28292304068986 28 57 C24.444505159963914 56.40741752666065 22.764371978526686 56.49041868098221 19.75 58.5 C19.1725 58.995 18.595 59.49 18 60 C17.34 60 16.68 60 16 60 C15.7331640625 60.574921875 15.466328125 61.14984375 15.19140625 61.7421875 C13.95935505199531 64.077025508022 12.551617248157656 66.03894183653335 10.9375 68.125 C7.931964812570746 72.0197032991137 6.5 74.54626313587228 6.5 79.65234375 C7.344338435981939 83.61677656269644 9.906816258451842 86.35515192724118 12.46875 89.41015625 C14 92 14 92 13.99609375 95.28515625 C14.001103033143067 100.04898451905746 15.482036857445962 103.16482077457195 17.5625 107.375 C18.100159912109376 108.49382568359376 18.100159912109376 108.49382568359376 18.648681640625 109.63525390625 C21.138925762236 114.66397932374049 23.94458416461961 119.0960848533919 27.65234375 123.3359375 C29.000000000000004 125.00000000000001 29.000000000000004 125.00000000000001 30 128 C20.1 128 10.2 128 0 128 C0 85.75999999999999 0 43.519999999999996 0 0 Z " fill="#5F9F9E" transform="translate(0,0)"/>
<path d="M0 0 C0 30.36 0 60.72 0 92 C-24.42 92 -48.84 92 -74 92 C-73.04897382223106 86.29384293338632 -72.76911032812856 85.12484013801013 -69.3125 81.0625 C-68.588046875 80.2052734375 -67.86359375 79.348046875 -67.1171875 78.46484375 C-66.0691796875 77.24474609375 -66.0691796875 77.24474609375 -65 76 C-64.466328125 75.3206640625 -63.93265625000001 74.641328125 -63.3828125 73.94140625 C-60.5493834456139 70.38047514110936 -57.95631973001085 68.1598955221517 -53.859375 66.01171875 C-48.70817967402884 63.208862469692164 -44.45007643328785 60.212464968460694 -41.625 55 C-38.14165672123214 48.8244456447607 -31.71581594175322 46.19114734287422 -25.4375 43.4375 C-22.85693409392006 42.234864826645676 -22.85693409392006 42.234864826645676 -22.0625 39.875 C-21.99327010886506 36.690425007793124 -22.341741169534345 33.68557826915303 -22.71484375 30.52734375 C-22.8089453125 29.693320312499992 -22.903046875 28.859296875 -23 28 C-23.156621093750005 26.640683593749998 -23.156621093750005 26.640683593749998 -23.31640625 25.25390625 C-23.638568958248015 20.311793214961376 -23.516342026007436 16.84508803789383 -20.375 12.875 C-15.990676992835162 8.51779651659082 -6.388099310166467 0 0 0 Z " fill="#648687" transform="translate(128,36)"/>
<path d="M0 0 C10.89 0 21.78 0 33 0 C33.99 2.64 34.98 5.28 36 8 C37.244930079050526 10.572615625783598 38.569775508387146 13.083912241489823 39.9140625 15.60546875 C42.36378765424055 21.00720083471026 42.324219227796696 26.786314421935863 42.625 32.625 C42.6765625 33.483515625 42.728125 34.34203125 42.78125 35.2265625 C42.825078125 36.0515625 42.86890625 36.8765625 42.9140625 37.7265625 C42.9548291015625 38.4750244140625 42.995595703125 39.223486328125 43.03759765625 39.99462890625 C43 42 43 42 42 45 C41.845312500000006 46.175625 41.845312500000006 46.175625 41.6875 47.375 C40.82624009025437 50.663446928119654 39.180189304655975 52.42341263995203 37 55 C34.79685755688234 58.47864596281736 34.4676737656826 61.94682736408413 34 66 C33.7525 65.443125 33.505 64.88625 33.25 64.3125 C31.721220784715438 61.48425845172356 30.282923040689855 59.28292304068986 28 57 C24.444505159963914 56.40741752666065 22.764371978526686 56.49041868098221 19.75 58.5 C19.1725 58.995 18.595 59.49 18 60 C17.34 60 16.68 60 16 60 C15.7331640625 60.574921875 15.466328125 61.14984375 15.19140625 61.7421875 C13.95935505199531 64.077025508022 12.551617248157656 66.03894183653335 10.9375 68.125 C7.931964812570746 72.0197032991137 6.5 74.54626313587228 6.5 79.65234375 C7.344338435981939 83.61677656269644 9.906816258451842 86.35515192724118 12.46875 89.41015625 C14 92 14 92 13.99609375 95.28515625 C14.001103033143067 100.04898451905746 15.482036857445962 103.16482077457195 17.5625 107.375 C18.100159912109376 108.49382568359376 18.100159912109376 108.49382568359376 18.648681640625 109.63525390625 C21.138925762236 114.66397932374049 23.94458416461961 119.0960848533919 27.65234375 123.3359375 C29.000000000000004 125.00000000000001 29.000000000000004 125.00000000000001 30 128 C20.1 128 10.2 128 0 128 C0 85.75999999999999 0 43.519999999999996 0 0 Z " fill="#387280" transform="translate(0,0)"/>
<path d="M0 0 C5.150462833514524 4.870546375171344 6.311576533268905 9.749078297046381 7.6875 16.5625 C8.99298549603241 26.203076409934454 8.99298549603241 26.203076409934454 14.3125 33.51171875 C15.199375000000003 33.89972656250001 16.08625 34.287734375 17 34.6875 C21.853018372703424 36.85301837270342 21.853018372703424 36.85301837270342 24 39 C25.85359568583825 39.76259041729682 27.732505983132654 40.46482766853464 29.625 41.125 C31.129335937500002 41.654804687500004 31.129335937500002 41.654804687500004 32.6640625 42.1953125 C33.434921875 42.460859375 34.20578125 42.72640625 35 43 C35 43.66 35 44.31999999999999 35 45 C35.99 44.67 36.97999999999999 44.34 38 44 C38.99000000000001 45.31999999999999 39.97999999999999 46.64 41 48 C38.446701414959676 52.902333283277414 35.665311461327924 56.68016156419942 31.78125 60.6171875 C29.175624749609852 64.10278268144296 27.65227132178496 67.99270559294362 26 72 C4.90790703406627 73.77338269880556 4.90790703406627 73.77338269880556 -1.09375 70.11328125 C-3.237287465216532 67.17470222493881 -4.593803856679408 64.35612146205848 -6 61 C-6.7152669113328045 59.6093335133759 -7.443882194374915 58.22547584847497 -8.18359375 56.84765625 C-15.170057378260053 43.665649404226315 -15.170057378260053 43.665649404226315 -14.84375 38.55078125 C-15.051716467214664 35.15572867272061 -16.372575905568993 33.80034824296189 -18.5 31.1875 C-21.247795379097532 27.404384569715006 -23.080631442347897 24.755732606805566 -22.62890625 20.0078125 C-21.31034394839012 15.798240928400745 -18.67091397577616 12.451032414245432 -16 9 C-15.34 8.071875000000006 -14.68 7.143749999999997 -14 6.1875 C-10.016649015676649 1.8307098608963344 -6.070254935162836 -1.2915436032261383 0 0 Z " fill="#27628E" transform="translate(28,56)"/>
<path d="M0 0 C3.9537839284738823 1.537297002098427 7.9723819075062465 2.85077099910675 12.00390625 4.16796875 C13.529605521990788 21.289705024563474 13.529605521990788 21.289705024563474 10.09375 25.51953125 C7.458756077556274 26.977534069528375 4.8008399517599685 28.05696452957868 2.00390625 29.16796875 C-0.571624665176742 30.873331337835722 -0.571624665176742 30.873331337835722 -2.93359375 32.79296875 C-3.999003906249996 33.616679687499996 -3.999003906249996 33.616679687499996 -5.0859375 34.45703125 C-8.03227874507698 37.0960853713573 -9.883171798634919 38.80299989928881 -10.21875 42.859375 C-10.165898437500005 43.8068359375 -10.113046874999995 44.754296875 -10.05859375 45.73046875 C-9.787419959930858 50.854958064896294 -9.787419959930858 50.854958064896294 -11.99609375 54.16796875 C-17.485480402985473 51.30128905344091 -22.486300164093137 48.446490869962915 -26.99609375 44.16796875 C-26.99609375 43.50796875 -26.99609375 42.84796875 -26.99609375 42.16796875 C-27.656093749999997 42.16796875 -28.316093749999993 42.16796875 -28.99609375 42.16796875 C-28.99609375 41.50796875 -28.99609375 40.84796875 -28.99609375 40.16796875 C-29.656093749999997 40.16796875 -30.316093749999993 40.16796875 -30.99609375 40.16796875 C-30.99609375 39.50796875 -30.99609375 38.84796875 -30.99609375 38.16796875 C-31.57359375 37.89984375 -32.15109375 37.63171875 -32.74609375 37.35546875 C-33.48859375000001 36.96359375 -34.23109375 36.57171875 -34.99609375 36.16796875 C-35.70378906249999 35.8289453125 -36.411484375 35.489921875 -37.140625 35.140625 C-38.99609375 33.16796875 -38.99609375 33.16796875 -39.2734375 29.18359375 C-39.181710659462524 27.59366184735049 -39.06753904828729 26.004901617327533 -38.93359375 24.41796875 C-38.89298828125 23.631640625000003 -38.8523828125 22.8453125 -38.810546875 22.03515625 C-38.36907344700987 15.631132065661255 -36.98774895942178 10.62824871457984 -32.87109375 5.54296875 C-22.548660613098335 -2.984258623962246 -12.446777418169631 -4.959708253652325 0 0 Z " fill="#337284" transform="translate(115.99609375,12.83203125)"/>
<path d="M0 0 C2.1452635082101636 1.6205836758274046 4.075817717155246 3.383098906796576 6.04296875 5.21484375 C12.276986076346674 10.901362548683494 17.633259103086914 11.58682761002899 26 12 C26 17.939999999999998 26 23.879999999999995 26 30 C6.200000000000003 30 -13.599999999999994 30 -34 30 C-32.893871867838 24.469359339190007 -32.00800847173936 23.631723181362702 -28 20 C-20.89642455599339 13.178323949123325 -20.89642455599339 13.178323949123325 -14.6875 5.5625 C-10.542341551030233 -0.15735551338285347 -7.085819246667526 -2.161775363390092 0 0 Z " fill="#A3BCC1" transform="translate(102,98)"/>
<path d="M0 0 C12.21 0 24.42 0 37 0 C40.317972350230406 24.88479262672812 40.317972350230406 24.88479262672812 37 30 C31.419284132035358 36.12308723109163 23.899510341038052 41.27533573763627 15.51953125 42.3046875 C13.312500000000021 42.3125 13.312500000000021 42.3125 10 42 C8.71948118982818 39.43896237965636 8.813708603305813 37.10750888246177 8.7099609375 34.287109375 C8.313399006723088 23.611844525810092 6.732079631154271 15.191112566624229 0.98828125 6.0078125 C0 3.9999999999999996 0 3.9999999999999996 0 0 Z " fill="#6AC8E2" transform="translate(33,0)"/>
<path d="M0 0 C10.89 0 21.78 0 33 0 C33.99 2.64 34.98 5.28 36 8 C37.244930079050526 10.572615625783598 38.569775508387146 13.083912241489823 39.9140625 15.60546875 C42.39532035751089 21.076731579691273 42.29360635403231 26.90124788126772 42.5625 32.8125 C42.60568359375 33.69615234375 42.6488671875 34.5798046875 42.693359375 35.490234375 C42.79891535689944 37.659996225155176 42.89991071434232 39.829979104570626 43 42 C42.01 42.33 41.02 42.66 40 43 C35.205719622389864 39.05176910079165 33.12635907307298 34.47500779814453 30.625 28.83984375 C28.053850854538602 24.34651339242684 25.333158626272734 22.367767896902823 20.375 21 C15.682880898469202 20.58153776513862 11.871117870077462 22.272098738534222 7.61328125 24.08984375 C4.9999999999999964 25 4.9999999999999964 25 0 25 C0 16.75 0 8.5 0 0 Z " fill="#3A93B4" transform="translate(0,0)"/>
<path d="M0 0 C3.947731534976654 1.5349437307646543 7.985626409573683 2.828542136524561 12.00390625 4.16796875 C12.00390625 10.43796875 12.00390625 16.70796875 12.00390625 23.16796875 C5.796368342642566 24.054759879622495 1.1565810107549055 24.057597006943496 -4.93359375 23.41796875 C-5.788886718750007 23.343203125000002 -6.644179687499999 23.268437500000005 -7.525390625 23.19140625 C-15.18369975451887 22.420317916593064 -22.369394625359618 20.794667874640382 -27.99609375 15.16796875 C-29.75178137866513 12.322543972508246 -30.819982072857954 9.824385001165833 -31.68359375 6.60546875 C-30.83685843729073 3.6034071867580373 -29.988880690519395 3.1740891640651796 -27.43359375 1.48046875 C-17.85512884854799 -3.8726979260311793 -9.939581362903496 -3.9606576117829206 0 0 Z " fill="#21666B" transform="translate(115.99609375,12.83203125)"/>
<path d="M0 0 C1.5345917649316618 2.5408327868114213 2.69570099645226 4.786094916607183 3.8125 7.5 C4.114382324218752 8.22179443359375 4.4162646484375045 8.9435888671875 4.727294921875 9.687255859375 C6.864758142909096 15.074578629775118 8.700187740241489 20.229987856555468 7 26 C4.294385374061605 30.761525739727105 1.2242619840513953 33.33350693387084 -4 35 C-9.38929127894177 35.74524406331801 -13.659065322901128 35.71835786273154 -18.5 33.125 C-22.027462395608723 29.484740841741 -23.37526323747808 24.940447041552645 -24 20 C-23.68416821583901 13.56851639526704 -21.741470747535026 8.196487149354205 -18 3 C-12.605618617148721 -1.5552553899632997 -6.420054774499981 -3.756626477958193 0 0 Z " fill="#94986C" transform="translate(66,46)"/>
<path d="M0 0 C5.143482826959328 4.864379107666963 6.276693232034141 9.692000333580836 7.625 16.5 C8.855007225046236 22.458886353771305 10.04952132145582 27.610686344393287 13 33 C13 33.66 13 34.31999999999999 13 35 C12.140195312499998 35.06058593750001 11.280390625000003 35.121171875 10.39453125 35.18359375 C9.212460937499998 35.2673828125 8.030390624999995 35.351171875000006 6.8125 35.4375 C5.540195312500003 35.517421875 4.267890625 35.59734374999999 2.95703125 35.6796875 C-0.9541097940125276 35.94603209124875 -0.9541097940125276 35.94603209124875 -4.61328125 36.5703125 C-7.89112492690456 37.04667732501727 -10.708251572105247 37.39132673618329 -14 37 C-16.88104304288281 34.75918874442448 -18.37049402753602 32.222666086806086 -20 29 C-20.66 28.010000000000005 -21.32 27.019999999999996 -22 26 C-22.897644095397666 19.49208030836691 -21.429564984997583 16.27630098427241 -17.578125 11.0390625 C-17.05734375 10.366171874999992 -16.536562500000002 9.693281249999998 -16 9 C-15.34 8.071875000000006 -14.68 7.143749999999997 -14 6.1875 C-10.016649015676649 1.8307098608963344 -6.070254935162836 -1.2915436032261383 0 0 Z " fill="#1E4855" transform="translate(28,56)"/>
<path d="M0 0 C3.6299999999999955 0 7.259999999999991 0 11 0 C20.386884550084886 22.404545199730933 20.386884550084886 22.404545199730933 17.94140625 30.15625 C14.55221904929276 36.79399422711127 6.604343035227572 40.334903373244174 0 43 C-8.548925192480077 45.04402873023207 -15.175796006763022 43.87154999597439 -22.625 39.4375 C-28.131876649826182 33.78570554359945 -31.370852631464004 28.39362895027915 -31.6875 20.375 C-31.410500143710777 14.352028765813785 -29.751520325582206 10.615506824807198 -26 6 C-25.340000000000003 5.009999999999998 -24.68 4.019999999999996 -24 3 C-22.0546875 2.70703125 -22.0546875 2.70703125 -19.875 2.8125 C-18.596249999999998 2.8743750000000006 -17.317499999999995 2.936250000000001 -16 3 C-16.3493359375 3.6290625000000034 -16.698671875000002 4.258125 -17.05859375 4.90625 C-21.034540217611465 12.385084148708245 -23.029095280141235 17.782177174617203 -20.875 26.25 C-19.841667813309158 29.221973103314355 -18.92640802741954 31.096589464011856 -17 33.625 C-11.323464181247651 36.226745583594834 -5.387875340351279 35.824902390303166 0.4375 33.8125 C4.063012043526982 31.24811343262725 6.597505158721788 29.345148513978174 7.3828125 24.76953125 C7.641174364325437 19.214751167003115 6.56333074935651 15.121765303875463 4.08984375 10.18359375 C2.444722071544632 6.887453899618102 1.258043031935813 3.4596183378234926 0 0 Z " fill="#647A64" transform="translate(65,45)"/>
<path d="M0 0 C12.34309146827657 4.114363822758861 12.34309146827657 4.114363822758861 15.0146484375 8.76708984375 C16.03567203836138 10.883087306274405 16.963620636440584 13.02212099058255 17.875 15.1875 C20.533662904444753 21.198667315254568 23.28895391217332 26.346366432599098 27.65234375 31.3359375 C29 33 29 33 30 36 C20.1 36 10.2 36 0 36 C0 24.120000000000005 0 12.239999999999995 0 0 Z " fill="#76AFD1" transform="translate(0,92)"/>
<path d="M0 0 C0 10.89 0 21.78 0 33 C-11.45051194539252 31.85494880546075 -11.45051194539252 31.85494880546075 -16 30.625 C-16.9075 30.390390624999995 -17.814999999999998 30.155781250000004 -18.75 29.9140625 C-21 29 -21 29 -23 26 C-23.872096481146784 22.087142336801612 -23.805472795501913 18.537720791412745 -21.92578125 14.94921875 C-17.780227665057723 9.738560717541077 -7.030440444673715 0 0 0 Z " fill="#6D96A2" transform="translate(128,36)"/>
<path d="M0 0 C1.7929567023786603 1.7050187714717993 2.970148453115172 2.938540932884166 4.0625 5.1875 C3.9083052993584317 12.126261528870259 -3.6673259630413497 17.89730523407269 -8.265625 22.53125 C-10 24 -10 24 -12 24 C-13.539245482169818 26.968544858470366 -14.74646003297326 29.866150082433165 -16 33 C-20.620000000000005 33 -25.240000000000002 33 -30 33 C-29.048973822231055 27.293842933386316 -28.769110328128555 26.12484013801013 -25.3125 22.0625 C-24.225820312499998 20.776660156250003 -24.225820312499998 20.776660156250003 -23.1171875 19.46484375 C-22.418515624999998 18.6514453125 -21.719843749999995 17.838046875000003 -21 17 C-20.1994921875 15.980996093750008 -20.1994921875 15.980996093750008 -19.3828125 14.94140625 C-16.559048553885134 11.39262183123401 -13.987804282568248 9.1479746771994 -9.87890625 7.04296875 C-6.331762678317034 5.073972214367245 -3.1940605213680584 2.4888783283387426 0 0 Z " fill="#688193" transform="translate(84,95)"/>
<path d="M0 0 C3.6300000000000003 0 7.260000000000001 0 11 0 C10.67 1.32 10.34 2.64 10 4 C6.503909696439189 5.81278756480931 3.9601824538750425 7 0 7 C0 4.6899999999999995 0 2.38 0 0 Z " fill="#6AC8E2" transform="translate(0,0)"/>
</svg>
