<?xml version="1.0" encoding="UTF-8"?>
<!-- Generator: visioncortex VTracer 0.6.0 -->
<svg version="1.1" xmlns="http://www.w3.org/2000/svg" width="128" height="128">
<path d="M0 0 C42.24 0 84.48 0 128 0 C128 42.24 128 84.48 128 128 C85.75999999999999 128 43.519999999999996 128 0 128 C0 85.75999999999999 0 43.519999999999996 0 0 Z " fill="#8877AB" transform="translate(0,0)"/>
<path d="M0 0 C42.24 0 84.48 0 128 0 C128 7.260000000000001 128 14.520000000000001 128 22 C123.75873651897734 21.151747303795467 122.20778225587343 20.747994305922468 118.875 18.5 C114.17011424956095 15.351204867410448 110.70416444618223 14.664813002113112 105 15 C101.70469483524863 16.060858069411168 101.70469483524863 16.060858069411168 98.4375 17.5 C87.3972642772225 21.605002901159857 78.32276537369043 20.78404597251604 67.34765625 17.0234375 C55.37440510506131 13.363003661057249 39.766091068644215 11.293781536317768 28.1015625 16.74609375 C24.587284635876404 18.842902661493817 23.050622471470312 20.37723363373578 21 24 C20.28733246106715 28.802021750428484 20.95418378686357 33.293827040886065 22 38 C22.01972248484803 39.66654996965863 22.022073119118946 41.3334795065196 22 43 C23.0621875 43.24234375 24.124375 43.4846875 25.21875 43.734375 C45.43765360234005 48.469968288748596 45.43765360234005 48.469968288748596 52 58 C54.70260196772769 62.69201730508279 54.98519648056568 66.69713035292835 54 72 C52.950708449417306 74.88573131433353 51.674019622019365 77.62451830824305 50.3125 80.375 C49.9736376953125 81.064970703125 49.634775390625 81.75494140625 49.28564453125 82.4658203125 C47.13022789382547 86.57166291413945 45.102838920263935 89.59446646639287 41 92 C37.88671875000001 92.390625 37.88671875000001 92.390625 34.6875 92.25 C33.6188671875 92.21390625 32.550234375 92.1778125 31.44921875 92.140625 C30.6409765625 92.09421875 29.832734375 92.0478125 29 92 C28.7331640625 92.70640625 28.466328125 93.4128125 28.19140625 94.140625 C26.94642091966761 97.12858979279774 25.4714735616192 99.90065353173436 23.9375 102.75 C19.38071420163308 111.84134337332718 19.956696468162928 117.56696468162929 21 128 C14.07 128 7.139999999999999 128 0 128 C0 85.75999999999999 0 43.519999999999996 0 0 Z " fill="#896B6C" transform="translate(0,0)"/>
<path d="M0 0 C3.000788985431214 4.16627399316566 3.685229565199151 6.8607782610063595 3 12 C2.212963309881701 13.442900598550203 1.3746719596475572 14.858476427833438 0.5 16.25 C-2.6166030228160366 21.4620967931425 -2.96569920773247 26.047781246885336 -2 32 C-0.9943359966136711 34.919354728276815 0.29117640540702894 37.43390704357109 2 40 C2.424826660156242 40.661611328125 2.8496533203124983 41.32322265625 3.287353515625 42.0048828125 C5.311244835128278 44.36257915789997 6.607944158540718 44.83949052688183 9.5703125 45.67578125 C10.462988281250006 45.94269775390626 11.355664062499997 46.20961425781249 12.275390625 46.484619140625 C13.215761718750002 46.75781982421876 14.156132812500005 47.0310205078125 15.125 47.3125 C22.841410525159873 49.71703056171944 29.34200679724742 51.96758077647702 35 58 C35.78890625 58.82564453124999 35.78890625 58.82564453124999 36.59375 59.66796875 C40.49039620711123 64.05169573300014 41.28950585648067 67.49484679239809 41.22265625 73.3203125 C40.66586396352119 80.02135650920104 39.4216649020037 86.78565567578836 35 92 C33.11197916666667 91.67447916666667 31.22395833333333 91.34895833333333 29.3359375 91.0234375 C26.881464648242684 90.85701309884622 26.881464648242684 90.85701309884622 24.29296875 92.02734375 C19.923801166245738 93.31788079431176 16.399246707197136 92.78773297884061 11.9375 92.1875 C10.250194508519641 91.98276555237283 8.562692092459955 91.7796477448035 6.875 91.578125 C6.049999999999997 91.47693359375 5.224999999999994 91.3757421875 4.375 91.271484375 C0.05083531756859827 90.7771925239655 -4.285567973751682 90.51720658507791 -8.62890625 90.24609375 C-10.999999999999986 90 -10.999999999999986 90 -13 89 C-13 88.34 -13 87.68 -13 87 C-13.990000000000009 86.67 -14.97999999999999 86.34 -16 86 C-17.1328125 84.328125 -17.1328125 84.328125 -18.125 82.25 C-18.457578124999998 81.57453125 -18.790156250000003 80.8990625 -19.1328125 80.203125 C-21.46653265290665 74.2742143412642 -21.01559359419806 68.48614206917551 -20.697265625 62.23828125 C-20.573168865462833 57.04460205455567 -21.426412293953817 54.96834448752803 -25 51 C-25.43359375 48.82421875 -25.43359375 48.82421875 -25.4375 46.6875 C-25.840254596740607 40.8033535744482 -28.62779390099547 36.809731143201326 -32.35546875 32.39453125 C-34.4309214627719 30.63458678810079 -36.36450702756922 29.942833865750913 -38.9375 29.0625 C-39.90171875 28.728632812500003 -40.8659375 28.394765624999998 -41.859375 28.05078125 C-43.413984375 27.530644531249997 -43.413984375 27.530644531249997 -45 27 C-46.11890625 26.622304687499998 -47.237812500000004 26.244609375000003 -48.390625 25.85546875 C-51.257413239802744 24.89421155584813 -54.127036765594326 23.94261271914182 -57 23 C-60.66638630017158 7.319651448373314 -60.66638630017158 7.319651448373314 -58.0078125 2.0234375 C-46.81519287213313 -12.836820198015332 -14.322908911250437 -8.86918590273585 0 0 Z " fill="#9C99B0" transform="translate(79,20)"/>
<path d="M0 0 C2.492187499999993 1.9882812499999858 2.492187499999993 1.9882812499999858 5 5 C5.291272561365801 7.933530796612743 5.335816420001876 10.296440276610682 5.125 13.1875 C4.841720251507731 20.975193556344863 4.796986765069391 28.339413445793582 10.1875 34.5 C10.78562500000001 34.995000000000005 11.383749999999992 35.49000000000001 12 36 C12 36.66 12 37.31999999999999 12 38 C12.639133300781253 38.05534912109374 13.278266601562507 38.11069824218751 13.936767578125 38.167724609375 C16.895365783728664 38.42407776739367 19.85393296053742 38.68078741380663 22.8125 38.9375 C23.817324218750002 39.024511718750006 24.822148437500005 39.1115234375 25.857421875 39.201171875 C26.859667968750003 39.288183593750006 27.861914062500006 39.3751953125 28.89453125 39.46484375 C29.90451171875 39.550969238281255 30.914492187500002 39.63709472656251 31.955078125 39.725830078125 C33.986670906221136 39.90875813243156 36.01676519949524 40.10916040748269 38.044921875 40.326904296875 C39.00591796875 40.42785400390625 39.966914062499995 40.528803710937495 40.95703125 40.6328125 C42.23864135742187 40.77614013671875 42.23864135742187 40.77614013671875 43.546142578125 40.92236328125 C46.894702659534005 41.02830717796556 49.761111026706004 40.2953844800127 52.9296875 39.27734375 C55.729130997588015 38.90232396070047 57.48673006999611 39.81342133966716 60 41 C59.52546128662493 43.480136294431986 59.04561015335169 45.95903256210735 58.5625 48.4375 C58.42779296875 49.14455078124999 58.293085937499995 49.85160156250001 58.154296875 50.580078125 C57.113281250000014 55.886718749999986 57.113281250000014 55.886718749999986 56 57 C53.230610335225606 57.095178031546766 50.486228408987756 57.125542651496005 47.716552734375 57.113525390625 C46.41423202514649 57.113744430542 46.41423202514649 57.113744430542 45.085601806640625 57.11396789550781 C42.201574137585666 57.11326845596773 39.3176102046242 57.105474625587135 36.43359375 57.09765625 C34.43962133076913 57.09579218033534 32.445648454981665 57.09436822582933 30.451675415039063 57.09336853027344 C25.19254297934458 57.0895424779178 19.93343797224844 57.079711452867116 14.67431640625 57.06866455078125 C9.312178254441925 57.05845230245322 3.950035689370786 57.05387131148663 -1.412109375 57.048828125 C-11.941418329762257 57.03808926142932 -22.470706888024502 57.021011798047795 -33 57 C-33.34846380015401 55.10289209558624 -33.68784071810009 53.204113787326094 -34.0234375 51.3046875 C-34.2134130859375 50.2474951171875 -34.403388671875 49.190302734374995 -34.59912109375 48.10107421875 C-35.73458034813496 39.317515479896315 -32.13640477518119 31.14594230956213 -27.48828125 23.81640625 C-25 21 -25 21 -21.98046875 20.02734375 C-18.812500000000014 19.875 -18.812500000000014 19.875 -15.83203125 20.1171875 C-11.904428104480445 19.95466599053023 -10.700736182813387 18.832265542365988 -8 16 C-6.346442745058894 13.344533669404925 -5.006719878781716 10.583694312677238 -3.6875 7.75 C-3.3284960937500045 7.004921874999994 -2.969492187500002 6.259843750000002 -2.599609375 5.4921875 C-1.7219924117899552 3.6667442165231137 -0.8594517666406318 1.8340658047417975 0 0 Z " fill="#7695BD" transform="translate(54,71)"/>
<path d="M0 0 C8.91 0 17.82 0 27 0 C25.852927540936577 4.588289836253698 24.656836609097006 5.557846842826567 21.25 8.6875 C15.340356841298938 14.470145096551326 10.862475592736605 19.59973204873842 10.4375 28.125 C10.72393973886879 32.86227260436844 11.752312592227792 36.46791058759237 15 40 C16.83987036874598 41.32691111847348 18.735256812885602 42.43767882608694 20.70703125 43.55859375 C27.309481945817907 47.709026981272245 32.9624923557844 52.74639341744097 36 60 C36.74797799841815 65.79682948774067 36.02161347902205 69.14191110296854 32.671875 73.921875 C27.398137695631988 80.47708118206491 22.220087657945072 85.41276886453942 14.49609375 88.87109375 C11.162195045216455 90.37891335200696 8.059070783246835 92.22468601714115 4.91015625 94.08203125 C3.0000000000000044 95 3.0000000000000044 95 0 95 C0 63.65 0 32.3 0 0 Z " fill="#593742" transform="translate(0,0)"/>
<path d="M0 0 C12.51794785590777 2.2638841867067256 23.031145296723196 4.374860395630925 31 15 C33.69497696159867 19.701874698959386 33.98644542371949 23.690407853536712 33 29 C31.95070844941732 31.88573131433347 30.674019622019358 34.62451830824308 29.3125 37.375 C28.973637695312497 38.064970703125 28.634775390625002 38.75494140625 28.28564453125 39.4658203125 C26.130227893825456 43.57166291413948 24.10283892026395 46.59446646639287 20 49 C16.886718749999993 49.390625 16.886718749999993 49.390625 13.6875 49.25 C12.618867187500001 49.21390625000001 11.550234375000002 49.1778125 10.44921875 49.140625 C9.6409765625 49.09421875000001 8.832734375000001 49.04781249999999 8 49 C7.733164062499998 49.70640625 7.466328125 50.4128125 7.19140625 51.140625 C5.946420919667606 54.128589792797754 4.471473561619206 56.90065353173435 2.9375 59.75 C-1.6192857983669207 68.84134337332716 -1.0433035318370685 74.5669646816293 0 85 C-6.93 85 -13.860000000000001 85 -21 85 C-21 74.11 -21 63.22 -21 52 C-18.03 50.68000000000001 -15.059999999999999 49.36 -12 48 C-10.22683030766502 47.01996431869594 -8.471223083681416 46.00614015957041 -6.75 44.9375 C-5.566640625 44.20853515625001 -5.566640625 44.20853515625001 -4.359375 43.46484375 C-3.580781250000001 42.9814453125 -2.8021874999999987 42.498046875 -2 42 C-1.162109375 41.523046875000006 -0.32421875 41.04609375 0.5390625 40.5546875 C6.305837479525952 36.91155029071217 11.817976448022812 31.546070655931572 14 25 C14.56923190428978 19.876912861392 14.398218993810723 16.36470373839431 11.5546875 11.87109375 C8.737994346595983 8.481154000048932 5.3933976026576325 5.673561539838154 2.046875 2.8203125 C1.3714062499999997 2.2196093749999974 0.6959374999999994 1.618906250000002 0 1 C0 0.6700000000000017 0 0.3400000000000034 0 0 Z " fill="#707891" transform="translate(21,43)"/>
<path d="M0 0 C1.1875 1.625 1.1875 1.625 1.1875 3.625 C2.1156249999999943 3.9962500000000034 2.1156249999999943 3.9962500000000034 3.0625 4.375 C5.538186867914874 5.831286392891101 6.138750024694218 7.003125061735531 7.1875 9.625 C7.847499999999997 9.625 8.507499999999993 9.625 9.1875 9.625 C9.1875 10.284999999999997 9.1875 10.944999999999993 9.1875 11.625 C9.847499999999997 11.625 10.507499999999993 11.625 11.1875 11.625 C18.358885352463716 20.213381976324015 21.796236842220054 27.419732941356756 21.1875 38.625 C15.369273657362598 41.69702350891255 11.492537139359314 41.816822425412795 5.0625 40.875 C3.384321698773064 40.66112892457389 1.7059337556619738 40.44889663525139 0.02734375 40.23828125 C-1.2007299804687506 40.077067871093746 -1.2007299804687506 40.077067871093746 -2.45361328125 39.91259765625 C-6.770443059314033 39.386285766521226 -11.101880541122483 39.141968603165594 -15.44140625 38.87109375 C-17.8125 38.625 -17.8125 38.625 -19.8125 37.625 C-19.8125 36.965 -19.8125 36.30500000000001 -19.8125 35.625 C-20.802499999999995 35.295 -21.792500000000004 34.965 -22.8125 34.625 C-23.9453125 32.953125 -23.9453125 32.953125 -24.9375 30.875 C-25.436367187499997 29.861796874999996 -25.436367187499997 29.861796874999996 -25.9453125 28.828125 C-27.737626198715702 24.27467938704659 -27.97181990534169 19.926384338024732 -28 15.0625 C-28.014179687499997 13.947460937499997 -28.028359375 12.832421874999994 -28.04296875 11.68359375 C-27.815632368675807 8.66657024869754 -27.559297966176665 7.066108829704291 -25.8125 4.625 C-20.144065225707294 0.8867649979879957 -6.0528670275719065 -4.591830158847657 0 0 Z " fill="#AABEEC" transform="translate(85.8125,71.375)"/>
<path d="M0 0 C2.9937172697486574 4.181806858864164 3.8443550661293386 6.849434096610974 3 12 C-0.3977272750394718 18.494770720429443 -4.183490460753632 23.200362153523812 -11 26 C-16.70614043259856 27.755735517722634 -20.084205147293076 26.37392219307155 -25.36328125 24.24609375 C-31.156696184153574 22.26102461574115 -37.13001188971897 21.087884656699444 -43.119384765625 19.83935546875 C-48.39813342581701 18.709291223814176 -53.17589684474873 17.45768498585099 -58 15 C-59.767126508140585 11.46574698371883 -59.63733621909928 7.849258352975831 -59 4 C-56.26970265486891 -1.546928203151701 -51.5006141919338 -4.383134284082136 -45.8046875 -6.34375 C-33.16925147543133 -9.300230852545315 -11.25359501059161 -6.968572295020191 0 0 Z " fill="#BCAFAA" transform="translate(79,20)"/>
<path d="M0 0 C0.5891015624999909 0.3351562500000007 1.1782031250000102 0.6703124999999996 1.78515625 1.015625 C2.4438671874999898 1.3765624999999986 3.102578125000008 1.7375000000000007 3.78125 2.109375 C4.804121093749998 2.6817187500000017 4.804121093749998 2.6817187500000017 5.84765625 3.265625 C7.344058018119966 4.022778715151304 8.84396180442154 4.773059841689648 10.34765625 5.515625 C11.502656250000001 6.093125000000001 12.657656250000002 6.670625000000001 13.84765625 7.265625 C13.84765625 12.875625 13.84765625 18.485625 13.84765625 24.265625 C-2.0444934116809037 28.372585024928775 -2.0444934116809037 28.372585024928775 -10.08984375 28.140625 C-16.490031969386948 28.091991350916516 -21.058761890861973 29.49771143006123 -25.96484375 33.640625 C-29.350946927982932 37.70394881357951 -31.397862324366557 40.984255020565875 -32.15234375 46.265625 C-36.086858784926946 42.72456146856575 -37.83195879352277 39.71066808890517 -38.5234375 34.43359375 C-38.667281475854566 27.977537657233 -38.090994836228134 24.282954528504135 -34.2734375 19.0703125 C-32.437136691761836 16.11431607698246 -32.708801106877814 13.623876440782297 -33.15234375 10.265625 C-33.78925959152238 8.587363866254702 -34.45135761753281 6.91815054119775 -35.15234375 5.265625 C-34.0966015625 5.244355468750001 -34.0966015625 5.244355468750001 -33.01953125 5.22265625 C-25.518134145050894 4.86031722534841 -19.417904722994876 3.170088441889888 -12.4765625 0.32421875 C-8.171183902223646 -1.0468242582225535 -4.335436753777373 -1.4792415784213162 0 0 Z " fill="#91889E" transform="translate(114.15234375,14.734375)"/>
<path d="M0 0 C17.49000000000001 0 34.980000000000004 0 53 0 C53 7.260000000000001 53 14.520000000000001 53 22 C48.7587365189773 21.15174730379546 47.20778225587344 20.747994305922482 43.875 18.5 C39.168485062282016 15.350114516391075 35.70559952780826 14.666130017181544 30 15 C26.56885256713194 16.05650503319445 26.56885256713194 16.05650503319445 23.1875 17.5 C17.215262248632953 19.767534119502994 12.343846174986211 20.657772068834976 6 20 C5.170597805317669 18.36261928356071 4.362429691919388 16.714479448751366 3.5625 15.0625 C3.110039062499993 14.1459765625 2.6575781250000006 13.229453125 2.19140625 12.28515625 C1 9 1 9 0 0 Z " fill="#6F626C" transform="translate(75,0)"/>
<path d="M0 0 C12.51794785590777 2.2638841867067256 23.031145296723196 4.374860395630925 31 15 C33.69497696159868 19.7018746989594 33.986445423719495 23.690407853536698 33 29 C31.95070844941732 31.885731314333484 30.674019622019358 34.62451830824307 29.3125 37.375 C28.973637695312505 38.064970703125 28.634775390624995 38.75494140625 28.28564453125 39.4658203125 C26.12664596700789 43.57848610900035 24.08124561004658 46.54878289381469 20 49 C17.210937500000014 49.49609375 17.210937500000014 49.49609375 14.375 49.4375 C13.433984375000001 49.43621093749999 12.492968750000003 49.434921875 11.5234375 49.43359375 C8.647408265494299 48.939415352120534 7.701110332618644 48.334745389399416 6 46 C6 45.34 6 44.68000000000001 6 44 C4.350000000000001 43.34 2.6999999999999993 42.68000000000001 1 42 C1.375117187499999 41.564296875 1.7502343750000016 41.12859374999999 2.13671875 40.6796875 C3.2061936795956143 39.435109622233824 4.273790069124633 38.18891587655628 5.33984375 36.94140625 C6.36951535282995 35.737296163867086 7.402708250202956 34.53617613459009 8.44140625 33.33984375 C12.550185929701769 28.544223288019737 14.537426408076016 25.589255658859983 14.296875 19.0703125 C13.227714022783204 11.614321474672352 7.4515584982137 7.428351898766017 2.046875 2.8203125 C1.3714062499999997 2.2196093749999974 0.6959374999999994 1.618906250000002 0 1 C0 0.6700000000000017 0 0.3400000000000034 0 0 Z " fill="#56729D" transform="translate(21,43)"/>
<path d="M0 0 C8.523965781601888 -0.27546029455804444 16.67698975358897 0.2519537446983833 25.110595703125 1.46435546875 C30.192452503911113 2.10958541218983 34.04955307735099 1.6459813908874565 38.9892578125 0.34326171875 C41.78200616259876 -0.13349935218721498 43.58856096091573 0.5998095902091336 46 2 C45.52546128662493 4.480136294431958 45.04561015335169 6.959032562107382 44.5625 9.4375 C44.42779296875 10.144550781250004 44.293085937499995 10.851601562500008 44.154296875 11.580078125 C43.11328125 16.88671875 43.11328125 16.88671875 42 18 C40.49581260625226 18.093118894388482 38.98728643978005 18.117460277910652 37.480224609375 18.113525390625 C36.03884376525879 18.1134120941162 36.03884376525879 18.1134120941162 34.56834411621094 18.113296508789063 C33.52356399536133 18.108135223388672 32.47878387451172 18.10297393798828 31.40234375 18.09765625 C30.338348541259762 18.096241302490228 29.274353332519524 18.094826354980455 28.178115844726563 18.093368530273438 C24.764549167571076 18.087750636761115 21.351047003318726 18.07519510849596 17.9375 18.0625 C15.629558235841742 18.057487305073295 13.321615448327861 18.052923999872803 11.013671875 18.048828125 C5.342425735693837 18.03777539625935 -0.32878252519179796 18.0210198675978 -6 18 C-6.329999999999998 17.340000000000003 -6.659999999999997 16.680000000000007 -7 16 C-5.926643006845708 13.233254181133617 -4.7973993888277136 10.568057424223156 -3.5625 7.875 C-3.22412109375 7.120898437500003 -2.8857421875 6.366796875000006 -2.537109375 5.58984375 C-1.6983939881103822 3.7234066918512667 -0.850086067350361 1.8612857035751205 0 0 Z " fill="#8593BB" transform="translate(68,110)"/>
<path d="M0 0 C2.2076119620041297 1.6994446801843068 4.1774736090259275 3.3495187735530294 6.1875 5.25 C6.707636718749999 5.715351562500004 7.227773437500002 6.180703125000001 7.763671875 6.66015625 C12.320233423366943 10.885014084118005 14.704030485503345 14.706236262650947 15.5 20.875 C15.121472565592732 28.854358317305127 8.899473912062412 34.70291328236752 3.45703125 39.96484375 C0.3434091604751295 42.54385346167322 -2.827704680141462 44.225118944150694 -6.50390625 45.87109375 C-9.837804954783554 47.37891335200696 -12.940929216753155 49.22468601714115 -16.08984375 51.08203125 C-17.999999999999996 52 -17.999999999999996 52 -21 52 C-21 49.03 -21 46.06 -21 43 C-19.824375 42.504999999999995 -18.64875 42.00999999999999 -17.4375 41.5 C-9.847446901851583 37.65795542288416 -5.361096666261432 31.308559677193074 -2.609375 23.3671875 C-1.6477929208927478 19.631810961929517 -1.7074684205650357 17.683715001389643 -3 14 C-5.02170468908964 11.050640690196389 -7.136705567678364 8.23549967740881 -9.3828125 5.453125 C-9.916484375 4.643593750000001 -10.45015625 3.8340625000000017 -11 3 C-10 0 -10 0 -8.3125 -1.3125 C-4.935404396559235 -2.3165013956175216 -3.2249590863164315 -1.3638079991530958 0 0 Z " fill="#40486E" transform="translate(21,43)"/>
<path d="M0 0 C26.846807455535796 7.223668740018709 26.846807455535796 7.223668740018709 36 20 C38.617388370261125 27.85216511078336 36.678497215538044 36.38336800026016 34 44 C32.39453125 46.355468749999986 32.39453125 46.355468749999986 31 48 C27.534999999999997 47.504999999999995 27.534999999999997 47.504999999999995 24 47 C23.985820312499996 46.32195312499999 23.971640624999992 45.64390625 23.95703125 44.9453125 C23.460827075262245 35.262625630792826 20.227764501331237 28.38105422379998 14 21 C14 20.340000000000003 14 19.680000000000007 14 19 C13.340000000000003 19 12.680000000000007 19 12 19 C12 18.340000000000003 12 17.680000000000007 12 17 C11.340000000000003 17 10.680000000000007 17 10 17 C8.638230782100692 15.356485426673245 7.310379340913926 13.684773438317904 6 12 C4.352599243384034 10.314287597881332 2.6893392199935704 8.643681403236982 1 7 C0 6 0 6 -0.0625 2.9375 C-0.04187500000000455 1.9681250000000006 -0.021249999999994884 0.9987500000000011 0 0 Z " fill="#9C98D4" transform="translate(83,64)"/>
<path d="M0 0 C9.06508875739645 1.1331360946745548 9.06508875739645 1.1331360946745548 13 6 C13.528515625 6.614882812499999 14.05703125 7.229765624999999 14.6015625 7.86328125 C18.084118847074024 12.113320393941052 20.196209256020516 15.309931575405031 20 21 C17.83711400040829 29.949873101758797 12.470732965566135 37.26788540993181 4.625 42.0625 C1.999999999999996 43 1.999999999999996 43 0 43 C0 28.810000000000002 0 14.619999999999997 0 0 Z " fill="#21193F" transform="translate(0,43)"/>
<path d="M0 0 C0 14.849999999999994 0 29.700000000000003 0 45 C-5.939999999999998 45 -11.879999999999995 45 -18 45 C-15.287966586393736 29.812612883804945 -15.287966586393736 29.812612883804945 -11.91796875 23.80859375 C-8.477483185897498 17.03010517051294 -8.750808171253155 9.406534909975548 -9 2 C-3.375 0 -3.375 0 0 0 Z " fill="#7272A8" transform="translate(128,83)"/>
</svg>
