<?xml version="1.0" encoding="UTF-8"?>
<!-- Generator: visioncortex VTracer 0.6.0 -->
<svg version="1.1" xmlns="http://www.w3.org/2000/svg" width="128" height="128">
<path d="M0 0 C42.24 0 84.48 0 128 0 C128 42.24 128 84.48 128 128 C85.75999999999999 128 43.519999999999996 128 0 128 C0 85.75999999999999 0 43.519999999999996 0 0 Z " fill="#58435B" transform="translate(0,0)"/>
<path d="M0 0 C21.45 0 42.9 0 65 0 C57.92970134740365 9.427064870128468 51.41379864310263 18.028605474878418 39.515625 20.81640625 C36.73295753267376 22.000535981391785 36.05022254063953 22.902142030864827 34.64453125 25.64111328125 C33.37714025770844 29.126957932589608 32.28673390323315 32.626300328785774 31.25 36.1875 C30.506146421101082 38.59794593992677 29.76137697119852 41.00810946497863 29.015625 43.41796875 C28.501168212890626 45.14648071289062 28.501168212890626 45.14648071289062 27.976318359375 46.909912109375 C27.195613055315064 49.38087660887153 26.316869450566134 51.65450676019105 25.26953125 54.015625 C23.103721865278594 59.58833385713812 23.50458209985859 65.6688583695667 23.4375 71.5625 C23.235140396256096 85.43537505666517 23.235140396256096 85.43537505666517 21 92 C20.2820182436017 97.30560544663159 20.909813254795672 101.55785655376879 24 106 C31.33665330392776 113.9025659554704 43.95111061696586 117.10349017367237 54.4375 117.75 C68.536148564294 117.21337323803725 88.84329867140511 112.52926276485682 99.4375 102.75 C101.18650165800098 99.67175708191829 102.18098381604253 96.69211310847265 103.09375 93.28125 C104 91 104 91 106.08984375 88.83203125 C108.90227758033905 84.66226739111286 108.30693525767265 81.08235999807054 108.0625 76.1875 C107.7771979092031 64.58454525104113 108.86707061510435 54.08851222025271 113.1875 43.1875 C115.34759441081583 37.68381117550756 115.54488388081616 32.84842032076007 115 27 C114.96390625 26.29359375 114.9278125 25.5871875 114.890625 24.859375 C114.6936789140409 22.71233114983299 114.6936789140409 22.71233114983299 113 20 C110.56083376949525 18.861140632984366 108.22960089585712 18.196990217069153 105.60546875 17.60546875 C101.38208869557076 16.62402360991524 98.80107629002457 15.976166465600542 95.98046875 12.5390625 C95.3887890625 11.577421875 94.797109375 10.61578125 94.1875 9.625 C93.5829296875 8.668515625 92.978359375 7.71203125 92.35546875 6.7265625 C91 3.999999999999992 91 3.999999999999992 91 0 C103.21000000000001 0 115.42 0 128 0 C128 42.24 128 84.48 128 128 C85.75999999999999 128 43.519999999999996 128 0 128 C0 85.75999999999999 0 43.519999999999996 0 0 Z " fill="#7D849C" transform="translate(0,0)"/>
<path d="M0 0 C1.217519531249991 0.027070312500000027 2.4350390625000102 0.054140625 3.689453125 0.08203125 C6.690604984459185 0.15264658786962806 9.688147124751055 0.2512302802510748 12.6875 0.375 C12.974276123046877 1.1912182617187501 12.974276123046877 1.1912182617187501 13.266845703125 2.02392578125 C13.525544433593751 2.7404833984375 13.784243164062502 3.457041015625 14.05078125 4.1953125 C14.303840332031257 4.9044580078125 14.5568994140625 5.613603515625 14.817626953125 6.34423828125 C15.988886593751971 9.078601932873651 17.768341049165585 11.12495157488379 19.6875 13.375 C19.6875 14.035 19.6875 14.695 19.6875 15.375 C20.435156250000006 15.568359375 21.182812499999997 15.76171875 21.953125 15.9609375 C22.93796875000001 16.221328125 23.922812499999992 16.48171875 24.9375 16.75 C26.399296875000005 17.1328515625 26.399296875000005 17.1328515625 27.890625 17.5234375 C32.13760019337106 18.816510952730294 34.120296332233494 19.42290812910623 36.4375 23.3125 C39.807777213808336 32.41224847728249 37.252990662980665 40.16514486329429 33.93359375 48.86328125 C30.419649610851025 58.766214733056195 30.470063123425376 68.75561064173878 30.936279296875 79.129150390625 C31.054137329863195 83.44725955147241 31.082589920274955 85.71924909497933 28.8046875 89.5 C26.6875 91.375 26.6875 91.375 24.6875 91.375 C24.275000000000006 90.4687890625 23.862499999999997 89.562578125 23.4375 88.62890625 C19.778724735377494 80.83137583245313 15.9079095350518 74.48231117986904 9.6875 68.375 C8.171562499999993 68.87 8.171562499999993 68.87 6.625 69.375 C-3.6862704015651104 72.2095723414661 -12.923663827469767 68.21844984460267 -22.1875 63.6875 C-27.51243368788022 60.62046149381139 -30.9869871251962 57.11315575205653 -33.3125 51.375 C-34.18330720975077 46.83647089833284 -33.827900790784874 43.52293812492995 -31.9375 39.3125 C-31.401249999999997 38.673125 -30.865000000000002 38.03375 -30.3125 37.375 C-29.652500000000003 37.375 -28.9925 37.375 -28.3125 37.375 C-28.3125 36.715 -28.3125 36.055 -28.3125 35.375 C-22.544988726386265 32.49124436319313 -15.920554387794823 34.28630300145343 -10.088134765625 36.169189453125 C-2.830937197181129 38.68859383788979 3.4559944571949615 41.653681384373606 9.78125 46.0546875 C11.438038652615546 47.46989752689038 11.438038652615546 47.46989752689038 12.6875 47.375 C13.509293002248043 44.06473628681242 14.318184834018922 40.75144328506276 15.125 37.4375 C15.355097656249995 36.51130859375 15.585195312499991 35.5851171875 15.822265625 34.630859375 C17.2164837732343 28.87213224098878 18.16079197058056 23.277762398666074 18.6875 17.375 C18.03289794921875 17.1856689453125 17.3782958984375 16.996337890625 16.703857421875 16.80126953125 C12.076472044103369 15.45753774632208 7.562637515055769 13.974528222552841 3.0625 12.25 C-5.7220631544631715 9.058973552586307 -11.48924709889107 9.3438825067619 -20.3125 12.375 C-21.642025952095118 12.723209177929673 -22.974264622237413 13.061926585936275 -24.3125 13.375 C-23.937382812499997 12.939296875 -23.562265625000002 12.50359375 -23.17578125 12.0546875 C-22.6640234375 11.459140625 -22.152265625 10.86359375 -21.625 10.25 C-21.126132812500003 9.669921875 -20.627265625 9.08984375 -20.11328125 8.4921875 C-18.143432917305745 6.302363932277451 -18.143432917305745 6.302363932277451 -16.4375 3.15625 C-12.426442720573903 -1.6654965314105077 -5.688965820615621 -0.23869786659925685 0 0 Z " fill="#5F637D" transform="translate(78.3125,-0.375)"/>
<path d="M0 0 C10.89 0 21.78 0 33 0 C31.94800520584706 6.311968764917638 31.746112550648178 6.767955897642391 27.3125 10.625 C16.287741967998087 21.30375991972796 14.467012439134335 33.62704773804618 12.390625 48.2626953125 C12.059258662279573 50.58474492407589 11.694209503736396 52.896823633598096 11.3125 55.2109375 C10.041796179266633 63.911728939188194 9.721676297106344 72.6343466456189 9.5946044921875 81.42062377929688 C9.56330552482219 83.38689512359907 9.510933890591895 85.35279542350617 9.4580078125 87.318603515625 C9.409384371551539 98.27246369047023 12.32886379019967 106.15839409664855 20 114 C22.314149523883014 115.83808433148806 24.724702096019357 117.49342855681951 27.1875 119.125 C31.212920223084126 121.79209893755113 33.76007255235401 123.52014510470802 36 128 C24.119999999999997 128 12.239999999999998 128 0 128 C0 85.75999999999999 0 43.519999999999996 0 0 Z " fill="#ADBBC6" transform="translate(0,0)"/>
<path d="M0 0 C11.031878996151079 0.15692573251992314 21.404480465162408 4.68813047062207 29.1875 12.5625 C31.788020511540324 15.928316547793628 32.457256223802545 18.818820377907016 32.140625 23.04296875 C30.871635360154585 27.887422442653076 27.683111858978975 30.88999746276008 23.55859375 33.53515625 C13.751663315741382 38.72706059754867 3.757293849182048 38.0451680150513 -6.73046875 35.1640625 C-11.321347886700948 33.6138955187763 -14.138749681603436 31.670508160746238 -17.4375 28.0625 C-18.982279100975756 23.717808778505685 -18.032558907656384 20.492320540111308 -16.4375 16.25 C-13.563455894009508 10.458887175653885 -10.279521293453008 5.5386474313440885 -5.4375 1.25 C-3.8440601738325384 -0.3434398261674545 -2.2057120899284968 0.0412925820267418 0 0 Z " fill="#241534" transform="translate(49.4375,72.75)"/>
<path d="M0 0 C0.27469970457880777 7.055445043918937 -0.6734248387540305 13.165021121961402 -2.375 20 C-2.7075781249999977 21.42892578125 -2.7075781249999977 21.42892578125 -3.046875 22.88671875 C-4.306563300676061 28.08108050749361 -4.306563300676061 28.08108050749361 -5 30 C-5.989999999999995 30.494999999999997 -5.989999999999995 30.494999999999997 -7 31 C-8.938081656662462 29.86066117228863 -10.82541208365609 28.634715072557377 -12.6875 27.375 C-23.311868995510295 20.54665290774814 -34.203443065973104 16.927662826757526 -47 18 C-47 18.659999999999997 -47 19.32 -47 20 C-49.00000000000001 21.625000000000007 -49.00000000000001 21.625000000000007 -51 23 C-51.20391987403276 19.438348925410175 -51.32782060629649 15.878199472850731 -51.4375 12.3125 C-51.49615234375 11.305097656249998 -51.5548046875 10.2976953125 -51.615234375 9.259765625 C-51.78334292067255 1.9830671480308197 -51.78334292067255 1.9830671480308197 -49.610595703125 -0.74365234375 C-46.19181168416876 -3.280698202496046 -42.336470047652476 -4.895282551717569 -38.3125 -6.25 C-37.4011328125 -6.56453125 -36.489765625000004 -6.8790625 -35.55078125 -7.203125 C-34.7090234375 -7.466093750000001 -33.867265625 -7.7290624999999995 -33 -8 C-31.988730468749992 -8.317109375 -31.988730468749992 -8.317109375 -30.95703125 -8.640625 C-20.89273501285537 -10.4887592391563 -9.069259332659698 -3.7314664360998115 0 0 Z " fill="#584445" transform="translate(97,17)"/>
<path d="M0 0 C1.150674883598711 3.452024650796126 1.1327450847345517 6.176182717127094 1.125 9.8125 C1.1288671874999991 11.61654296875 1.1288671874999991 11.61654296875 1.1328125 13.45703125 C1.009749748715734 16.73991111514205 0.5889608712168979 19.774100682652914 0 23 C-0.670698230550407 28.576376716861944 -0.42175333354289535 33.30927172844857 2.86328125 38.015625 C10.184807390738676 44.81514105026553 21.422657706676475 48.78984408615611 31 51 C24.28066543905696 54.389267873251 19.690034955468832 56.44675369489315 12.19140625 55.40234375 C7.844341796558837 54.85430502453556 3.497429660580849 54.57472208996977 -0.875 54.3125 C-1.7081372070312497 54.25223632812501 -2.5412744140624994 54.19197265625 -3.399658203125 54.1298828125 C-4.193317871093754 54.083154296874994 -4.986977539062501 54.03642578125 -5.8046875 53.98828125 C-6.516088867187499 53.94227783203125 -7.227490234374997 53.8962744140625 -7.96044921875 53.848876953125 C-10.410211754315725 54.0303951491407 -11.91126441451766 54.728499209156354 -14 56 C-15.642532226224962 57.899888678888146 -15.642532226224962 57.899888678888146 -17.0625 60.0625 C-19.672386895475817 63.890795631825284 -19.672386895475817 63.890795631825284 -23 65 C-23.6433583575078 50.588772791825264 -23.977123842609586 38.23011416308966 -17.85546875 25.0380859375 C-15.851642050970888 20.264128950201197 -14.572329550313142 15.18409682422105 -13.18115234375 10.203369140625 C-11.473668490046677 4.4619395560074295 -11.473668490046677 4.4619395560074295 -8.94921875 2 C-5.841841346864619 0.40583443847162926 -3.490859359093747 0 0 0 Z " fill="#564956" transform="translate(46,19)"/>
<path d="M0 0 C18.53409297544205 6.441752367705483 18.53409297544205 6.441752367705483 23.07275390625 13.113037109375 C24.76461226173322 18.1510153234806 23.255215694204935 23.742146923957122 21.65087890625 28.644287109375 C19.101244685127597 32.12878721157563 16.883077248902424 32.974627606579276 12.77587890625 34.206787109375 C2.7407356150351774 35.58415971797311 -9.227925888483114 30.00113146101768 -17.22412109375 24.206787109375 C-21.183918583570858 20.147420243601196 -23.53862102758732 16.18940402336625 -23.78662109375 10.456787109375 C-23.519937936111084 6.7427363042086625 -22.66302582784303 4.1147119846397615 -20.22412109375 1.206787109375 C-19.564121093750003 1.206787109375 -18.90412109375 1.206787109375 -18.22412109375 1.206787109375 C-18.22412109375 0.5467871093750034 -18.22412109375 -0.11321289062500028 -18.22412109375 -0.793212890625 C-12.456185000374262 -3.677180937312869 -5.83327309253076 -1.8807480767612645 0 0 Z " fill="#7B6059" transform="translate(68.22412109375,35.793212890625)"/>
<path d="M0 0 C10.89 0 21.78 0 33 0 C31.94800520584706 6.311968764917638 31.746112550648178 6.767955897642391 27.3125 10.625 C17.400990127689916 20.225449648072107 15.23187433701995 29.88925045365916 13.37939453125 43.166748046875 C13.170324707031249 44.61754760742187 13.170324707031249 44.61754760742187 12.95703125 46.09765625 C12.84335205078125 46.96914306640625 12.7296728515625 47.8406298828125 12.612548828125 48.738525390625 C12 51 12 51 9 54 C4.545 54.495 4.545 54.495 0 55 C0 36.849999999999994 0 18.699999999999996 0 0 Z " fill="#C1C8E4" transform="translate(0,0)"/>
<path d="M0 0 C0 13.530000000000001 0 27.060000000000002 0 41 C-14.52000000000001 41 -29.040000000000006 41 -44 41 C-43 37 -43 37 -41.1015625 35.5078125 C-39.87566406249999 34.8233203125 -39.87566406249999 34.8233203125 -38.625 34.125 C-37.72394531250001 33.609375 -36.822890625 33.09375 -35.89453125 32.5625 C-33.99012232974695 31.534478990416716 -32.07081902981233 30.533508053166344 -30.13671875 29.5625 C-20.112371627285185 24.460204369074617 -15.5315104652623 18.361548249877302 -10.4140625 8.49609375 C-8.161372061138707 4.519659522286275 -4.988362134564497 0 0 0 Z " fill="#BBBBB9" transform="translate(128,87)"/>
<path d="M0 0 C0 3 0 3 -1.8046875 4.89453125 C-2.5291406249999966 5.589335937499996 -3.2535937500000003 6.284140625000006 -4 7 C-8.113716827169789 12.698186705577285 -11.757699450488907 18.81650135567112 -12 26 C-10.795759040052559 29.87077451411676 -8.802812284775811 31.309058867942852 -5.375 33.1875 C4.461112486096312 37.62093026289378 14.496994089940927 37.82660972348853 25 36 C24.604041568140985 37.48484411947135 24.182492943269224 38.96288310300227 23.75 40.4375 C23.517968749999994 41.26121093750001 23.285937500000003 42.08492187499999 23.046875 42.93359375 C22 45 22 45 20.28125 45.76171875 C7.3513507808800185 47.11227329172314 -5.899682102753104 45.729078363921644 -16.8125 38 C-19.549674276984767 35.66074092627733 -21.448562128565694 33.28539784539029 -23 30 C-23.33 29.340000000000003 -23.66 28.680000000000007 -24 28 C-24.425003922372163 21.83744312560364 -23.6534667564126 17.6017631524266 -21 12 C-20.009999999999998 11.670000000000002 -19.02 11.340000000000003 -18 11 C-17.296053880789703 9.685967244140784 -16.63654341714196 8.347974295124146 -16 7 C-11.192728214484134 0.2698195002777908 -7.928380650427741 -0.2642793550142528 0 0 Z " fill="#48425B" transform="translate(44,72)"/>
<path d="M0 0 C12.210000000000008 0 24.42 0 37 0 C37 6.6000000000000005 37 13.200000000000001 37 20 C25.93317746796029 21.580974647434243 16.63137905988033 21.281456255671223 7 15 C2.7575066146978457 10.448842235271838 0 6.294265715319952 0 0 Z " fill="#929AA5" transform="translate(91,0)"/>
<path d="M0 0 C10.560000000000002 0 21.120000000000005 0 32 0 C23.695700550168212 11.072399266442378 16.647910968648276 18.805808071167426 3 22 C2.0947160340261064 20.034500919513057 1.2271508644724207 18.05161150985141 0.375 16.0625 C-0.11226562499999915 14.9603515625 -0.5995312499999983 13.858203125 -1.1015625 12.72265625 C-2 9 -2 9 0 0 Z " fill="#87797C" transform="translate(33,0)"/>
<path d="M0 0 C1.2175195312500051 0.027070312500000027 2.435039062499996 0.054140625 3.689453125 0.08203125 C6.690604984459185 0.15264658786962806 9.688147124751055 0.2512302802510748 12.6875 0.375 C13.127070312499995 1.6125 13.566640624999991 2.85 14.01953125 4.125 C15.167634554446522 7.186608811857399 16.365747557495496 9.768402236750903 18.375 12.375 C19.138125000000002 13.365 19.901250000000005 14.355 20.6875 15.375 C20.3575 16.035 20.027500000000003 16.695 19.6875 17.375 C13.960040771718468 16.661297915478936 9.081143639514295 14.710168500148423 3.78515625 12.546875 C-2.6713190417502233 10.009069683011473 -8.763945528499434 8.359540524536897 -15.5625 10.75 C-16.776796875000002 11.1637890625 -16.776796875000002 11.1637890625 -18.015625 11.5859375 C-18.773593750000003 11.846328125 -19.5315625 12.10671875 -20.3125 12.375 C-21.642025952095118 12.723209177929673 -22.974264622237413 13.061926585936275 -24.3125 13.375 C-23.937382812499997 12.939296875 -23.562265625000002 12.50359375 -23.17578125 12.0546875 C-22.6640234375 11.459140625 -22.152265625 10.86359375 -21.625 10.25 C-21.126132812500003 9.669921875 -20.627265625 9.08984375 -20.11328125 8.4921875 C-18.143432917305745 6.30236393227745 -18.143432917305745 6.30236393227745 -16.4375 3.15625 C-12.426442720573903 -1.6654965314105068 -5.688965820615607 -0.23869786659925663 0 0 Z " fill="#7B6059" transform="translate(78.3125,-0.375)"/>
<path d="M0 0 C1.6500000000000057 0 3.299999999999997 0 5 0 C5.659999999999997 2.64 6.319999999999993 5.28 7 8 C6.340000000000003 8 5.680000000000007 8 5 8 C3.7109375 6.5039062500000036 3.7109375 6.5039062500000036 2.375 4.5625 C1.9289843749999989 3.9244140625 1.4829687499999977 3.286328125 1.0234375 2.62890625 C0 1.0000000000000002 0 1.0000000000000002 0 0 Z " fill="#87797C" transform="translate(86,0)"/>
</svg>
