<?xml version="1.0" encoding="UTF-8"?>
<!-- Generator: visioncortex VTracer 0.6.0 -->
<svg version="1.1" xmlns="http://www.w3.org/2000/svg" width="128" height="128">
<path d="M0 0 C42.24 0 84.48 0 128 0 C128 42.24 128 84.48 128 128 C85.75999999999999 128 43.519999999999996 128 0 128 C0 85.75999999999999 0 43.519999999999996 0 0 Z " fill="#7DA7AA" transform="translate(0,0)"/>
<path d="M0 0 C0.9551953124999955 0.085078124999999 1.910390624999991 0.17015625000000156 2.89453125 0.2578125 C10.16037411184665 1.306951100635306 15.003670495534635 4.739649658051011 19.90625 10.07421875 C29.722458103850002 23.79127074586502 35.77335537214125 41.23308750861818 33.73876953125 58.17529296875 C32.501226675473006 65.18915525990401 30.271725680712535 71.14446318881741 25 76 C22.686953961134407 77.1565230194328 21.320420823345984 77.13374292797056 18.75 77.125 C18.002343749999994 77.127578125 17.254687500000003 77.13015625 16.484375 77.1328125 C14.000000000000071 77.00000000000001 14.000000000000071 77.00000000000001 11.140625 76.5 C7.713047755905521 75.95431606064167 4.469478710913464 75.86739149405501 1 75.875 C-0.1756249999999966 75.872421875 -1.3512499999999932 75.86984375 -2.5625 75.8671875 C-5.807182215628281 75.99255022196746 -8.804636754704923 76.45495757144056 -12 77 C-23.868459079563877 77.82270000437886 -23.868459079563877 77.82270000437886 -29.5625 75.625 C-35.889289712276174 68.81153415601028 -37.554130018676446 62.016405889047576 -37.390625 52.865234375 C-37.344218749999996 51.69283203124999 -37.2978125 50.5204296875 -37.25 49.3125 C-37.18838744104204 46.954536024879744 -37.13096929744793 44.59645802361422 -37.078125 42.23828125 C-37.0360693359375 40.597747802734375 -37.0360693359375 40.597747802734375 -36.9931640625 38.924072265625 C-37.00105271214501 35.54970237997328 -37.52111275294064 32.33510761344912 -38 29 C-36.70134489921986 20.12212504380473 -34.11272072022063 11.806302628751538 -27 6 C-18.116703019143436 0.07310930437303753 -10.522669680320838 -0.9492397291378545 0 0 Z " fill="#1D547F" transform="translate(67,23)"/>
<path d="M0 0 C42.24 0 84.48 0 128 0 C128 14.520000000000001 128 29.040000000000003 128 44 C113.40785498489427 48.377643504531726 113.40785498489427 48.377643504531726 107.61328125 46.03515625 C103.78413005633716 43.0531117479098 101.86244343390008 39.24806154605546 99.5 35.0625 C94.44884956761298 26.071335024846753 94.44884956761298 26.071335024846753 85.80859375 20.76171875 C81.15634276243621 19.831268552487245 76.79169237629273 19.745092156676996 72.0625 19.8125 C71.20720703125 19.81314453125 70.3519140625 19.8137890625 69.470703125 19.814453125 C65.43159773784592 19.842181537268793 61.55254881215063 20.018682732382633 57.55859375 20.63671875 C54 21 54 21 51 19 C40.65731242786359 17.119511350520654 27.072770787804508 20.94905757678353 17.6875 25.25 C12.999999999999996 27 12.999999999999996 27 0 27 C0 18.09 0 9.18 0 0 Z " fill="#AAD2CA" transform="translate(0,0)"/>
<path d="M0 0 C0.6600000000000001 0.3299999999999983 1.3200000000000003 0.6599999999999966 2 1 C1.9419921874999986 1.6780468750000068 1.8839843750000007 2.3560937499999994 1.82421875 3.0546875 C1.4720879964756044 10.318641901274674 2.537851421525456 16.094539165278135 7 22 C10.951894614496936 25.111944888070752 13.98140449176104 25.35762422384883 18.9375 25.25 C20.714472656250003 25.22679687499999 20.714472656250003 25.22679687499999 22.52734375 25.203125 C25.935233659977584 25.06698934375453 25.935233659977584 25.06698934375453 29.00390625 24.4921875 C32.379415987175236 23.93767090693079 35.58044113012558 23.867500967390626 39 23.875 C40.175625 23.872421875 41.35124999999999 23.86984375 42.5625 23.8671875 C45.80449419148272 23.992446366489105 48.81194288944877 24.427111822383807 52 25 C56.33305851923839 25.434017355785784 59.81717355376301 25.551985674910597 63.8125 23.6875 C66.65158926097689 20.19947605079983 67.77780275816252 16.628761351435315 69.10546875 12.36328125 C70 10 70 10 72 9 C72.103125 9.639375000000001 72.20625 10.278750000000002 72.3125 10.9375 C72.539375 11.618124999999992 72.76625 12.298749999999998 73 13 C73.99 13.329999999999998 74.98 13.659999999999997 76 14 C79.52530650889277 19.276129875725417 78.65235979267455 26.239629484050937 77.61474609375 32.220703125 C76.68734167129564 36.79425629314058 75.61750567522715 41.33120073118002 74.480712890625 45.85693359375 C73.87687440397687 48.548906288415935 73.45355466629559 51.2786720022265 73 54 C50.89 54 28.78 54 6 54 C6 51.69 6 49.379999999999995 6 47 C5.27334158847826 43.7717464493367 5.27334158847826 43.7717464493367 4.1875 40.625 C3.823984375000002 39.4944921875 3.460468750000004 38.363984375 3.0859375 37.19921875 C2.4476505284159913 35.31879777975789 1.7932170830505854 33.44348423655788 1.1015625 31.58203125 C-2.810984359527886 20.948426171382124 -2.1434520216055155 10.98297730078859 0 0 Z " fill="#5890C2" transform="translate(29,74)"/>
<path d="M0 0 C1.7692382812499972 0.013535156250000568 1.7692382812499972 0.013535156250000568 3.57421875 0.02734375 C4.4778515625 0.03894531249999744 5.381484374999999 0.05054687500000199 6.3125 0.0625 C8.262073989144856 4.155058096260433 8.582102672161916 7.486484734718445 8.5625 12 C8.567656249999999 13.184648437500002 8.572812500000001 14.369296875000003 8.578125 15.58984375 C8.310154123825427 19.093168881164644 7.475817166732558 21.765703048240937 6.3125 25.0625 C4.467377254343244 35.49507371980363 5.432030033559215 46.10631945792936 9.875 55.8125 C12.624997861157553 62.029886468704035 13.648403370740098 67.38298314629952 12.3125 74.0625 C0.7624999999999993 74.0625 -10.787500000000001 74.0625 -22.6875 74.0625 C-22.6875 51.292500000000004 -22.6875 28.522500000000008 -22.6875 5.0625 C-16.252499999999998 3.082499999999996 -16.252499999999998 3.082499999999996 -9.6875 1.0625 C-6.265170280393779 -0.07827657320207493 -3.60076782501568 -0.035651166584315774 0 0 Z " fill="#7CC5D1" transform="translate(22.6875,53.9375)"/>
<path d="M0 0 C0.9551953124999955 0.085078124999999 1.910390624999991 0.17015625000000156 2.89453125 0.2578125 C10.16037411184665 1.306951100635306 15.003670495534635 4.739649658051011 19.90625 10.07421875 C29.337490589065155 23.25332173733173 35.03029289041267 39.714842306118015 34 56 C33.504404599766985 58.44519658792095 32.826808765326476 60.637234951393964 32 63 C30.515 62.504999999999995 30.515 62.504999999999995 29 62 C28.608125 60.80375000000001 28.216250000000002 59.6075 27.8125 58.375 C26.263207311076968 53.76832652602141 23.63946818971054 51.59143566945332 19.93359375 48.5859375 C15.52127396708039 44.966943900271986 13.504739895004349 41.43484113976254 12 36 C11.731459372867278 32.65853877884214 11.588395925696688 29.358529424153474 11.521484375 26.009765625 C11.321472235394225 20.921651927224048 10.34996274339619 17.43881851530392 8 13 C3.250617359206913 9.833744906137937 -1.464144881451574 10.008503560857001 -7 11 C-16.21302175769589 16.13695758610922 -21.359685388916446 26.069509503033103 -24.2890625 35.83984375 C-25.784302233288436 40.3830721703764 -28.16534793632691 44.56439845048229 -30.5625 48.6875 C-32.83021905398734 53.913113472231714 -33.836686680825295 59.439197325363466 -35 65 C-37 63 -37 63 -37.211181640625 60.405517578125 C-37.19434326171875 59.32939208984375 -37.1775048828125 58.2532666015625 -37.16015625 57.14453125 C-37.14919921875 55.96439453125001 -37.1382421875 54.7842578125 -37.126953125 53.568359375 C-37.10568359375 52.32892578125001 -37.0844140625 51.0894921875 -37.0625 49.8125 C-36.7602633943298 40.88135003523995 -36.7602633943298 40.88135003523995 -37.57421875 32.015625 C-38.54982812800955 25.105804451161745 -35.69062516934842 16.819831997818667 -32 11 C-23.966503054875496 0.6341974901619309 -12.289237857689798 -1.108600114775097 0 0 Z " fill="#687F86" transform="translate(67,23)"/>
<path d="M0 0 C3.5456249326680904 1.843724964987409 4.58894559981097 2.9945431937822278 6.0859375 6.65625 C7.114278149679237 10.41804314583517 7.367141080587743 14.004224103054867 7.5 17.875 C7.77759499158492 23.46847511845661 8.056787884846969 28.710144797638968 10 34 C10.990000000000009 34.33 11.97999999999999 34.66 13 35 C15.374999999999986 37.187499999999986 15.374999999999986 37.187499999999986 18 40 C18.886875000000003 40.94874999999999 19.773750000000007 41.89750000000001 20.6875 42.875 C23.28631973085021 46.38691855520298 24.07433594308027 48.79243610491034 25 53 C16.97211157633815 54.24968821485092 10.97530962915117 54.51089238414116 4 50 C-0.1778133616528237 46.59945424051514 -2.8308992632808554 42.41197056722524 -5.66796875 37.890625 C-6.869882161218243 35.867723808442236 -6.869882161218243 35.867723808442236 -9 35 C-9.329999999999998 34.00999999999999 -9.659999999999997 33.02000000000001 -10 32 C-15.200152285912978 29.111026507826125 -18.066103205493604 28.68702520952209 -23.8125 30.3125 C-24.726445312499997 30.618007812499997 -25.640390625000002 30.923515625 -26.58203125 31.23828125 C-29 32 -29 32 -32 32 C-27.671397575244306 15.459811872884757 -19.482398401706632 -2.372001994188633 0 0 Z " fill="#315065" transform="translate(72,33)"/>
<path d="M0 0 C20.46 0 40.92 0 62 0 C60.72758346513219 7.63449920920687 57.84274374574006 11.794313693443286 52.06005859375 16.66259765625 C48.49281499238262 18.978473509330172 44.786997632446955 19.27861365112542 40.625 19.6875 C33.28633924310971 20.521976747356074 26.75765951000191 22.047768894072163 19.91162109375 24.85693359375 C12.596167582114614 27.667773083989843 8.845706129053596 27 0 27 C0 18.09 0 9.18 0 0 Z " fill="#C2ECC3" transform="translate(0,0)"/>
<path d="M0 0 C1.769531249999993 1.5234374999999964 1.769531249999993 1.5234374999999964 3 3 C0.6453969531387784 6.531904570291836 -1.1536761606217993 7.299591650821185 -4.9375 9.125 C-5.998398437500001 9.643203125 -7.059296875000001 10.161406249999999 -8.15234375 10.6953125 C-11 12 -11 12 -14 13 C-15.101689837370749 14.697692344682963 -15.101689837370749 14.697692344682963 -16 17 C-16.474375000000002 17.989999999999995 -16.948749999999997 18.980000000000004 -17.4375 20 C-19.634103874228604 25.1216733189922 -20.746926341945944 30.587788242872904 -22 36 C-22.8108203125 36.02578125 -23.621640625 36.0515625 -24.45703125 36.078125 C-31.41316189963162 36.43443436971338 -37.14881178249283 37.41282943731781 -43.5625 40.16015625 C-46 41 -46 41 -51 41 C-51 30.439999999999998 -51 19.879999999999995 -51 9 C-44.565 8.504999999999999 -44.565 8.504999999999999 -38 8 C-34.23609517481872 7.017409289431235 -34.23609517481872 7.017409289431235 -31.0625 5.625 C-21.76847283761385 2.0583266173267845 -10.106296350805138 -2.0252303099845275 0 0 Z " fill="#96BBA8" transform="translate(51,18)"/>
<path d="M0 0 C0.6600000000000001 0.3299999999999983 1.3200000000000003 0.6599999999999966 2 1 C1.9535937499999996 1.7012500000000017 1.9071874999999991 2.4025000000000034 1.859375 3.125 C1.6365164869034032 8.982995201396307 1.9501582728171734 13.067682732848994 4.92578125 18.15234375 C5.999957522506868 19.99992693871181 6.745767714349569 21.81649301200798 7.5 23.8125 C9.50764276063802 28.078740866355787 11.264329630022289 29.338667765656083 15.59375 30.98828125 C19.603738395395766 32.17932138120126 23.556326311353793 32.77488533481059 27.6875 33.375 C37.89006637412896 34.99082847732937 47.9289358032356 36.80688070614424 55 45 C56.881064404811866 48.43498717400428 57 49.994225030693 57 54 C40.17 54 23.339999999999996 54 6 54 C6 51.69 6 49.379999999999995 6 47 C5.27334158847826 43.7717464493367 5.27334158847826 43.7717464493367 4.1875 40.625 C3.823984375000002 39.4944921875 3.460468750000004 38.363984375 3.0859375 37.19921875 C2.4476505284159913 35.31879777975789 1.7932170830505854 33.44348423655788 1.1015625 31.58203125 C-2.810984359527886 20.948426171382124 -2.1434520216055155 10.98297730078859 0 0 Z " fill="#63B2DB" transform="translate(29,74)"/>
<path d="M0 0 C0 17.49000000000001 0 34.980000000000004 0 53 C-8.579999999999998 53 -17.159999999999997 53 -26 53 C-26 46.69333336423037 -25.71674804116455 43.15603763851813 -24.0625 37.375 C-22.59328878303978 32.02646738483318 -21.733824454382003 27.075813912186135 -21.5 21.5 C-21.128742661479436 14.083290896373342 -19.318494601050517 9.734634657649337 -14.5625 4.125 C-9.456440153726163 -0.10929353105635187 -6.909441328896548 0 0 0 Z " fill="#8EB9D4" transform="translate(128,75)"/>
<path d="M0 0 C2.31 0.3299999999999983 4.62 0.6599999999999966 7 1 C7 1.6599999999999966 7 2.319999999999993 7 3 C7.60328125 3.2552343750000006 8.2065625 3.510468750000001 8.828125 3.7734375 C16.779957809402745 8.264220777252632 23.197420113953175 23.668523177613636 25.64697265625 32.2724609375 C28 42.42763157894737 28 42.42763157894737 28 47 C18.759999999999998 47 9.52 47 0 47 C0 31.489999999999995 0 15.97999999999999 0 0 Z " fill="#A6E8DE" transform="translate(0,81)"/>
<path d="M0 0 C10.66725044047115 8.711399025403345 16.87401594510567 25.44194399571399 18.500732421875 38.698486328125 C19.134658378705993 45.66422120538937 19.330935041422137 51.3389048623975 17 58 C16.00999999999999 57.67 15.02000000000001 57.34 14 57 C13.608125000000001 55.80375000000001 13.216250000000002 54.6075 12.8125 53.375 C11.263207311076968 48.76832652602141 8.639468189710541 46.59143566945332 4.93359375 43.5859375 C0.5212739670803899 39.966943900271986 -1.4952601049956513 36.434841139762554 -3 31 C-3.2685406271327224 27.658538778842143 -3.4116040743033125 24.358529424153474 -3.478515625 21.009765625 C-3.678527764605775 15.921651927224048 -4.6500372566038095 12.438818515303915 -7 8 C-10.16240581759891 5.891729454934058 -11.506574685080693 5.661825349214489 -15.1875 5.375 C-16.088554687499993 5.300234375000002 -16.989609375 5.225468749999997 -17.91796875 5.1484375 C-18.605039062499998 5.099453124999997 -19.292109375000003 5.05046875 -20 5 C-14.575533945891465 -1.2589992932021516 -7.750311758112147 -2.317563274522737 0 0 Z " fill="#466E79" transform="translate(82,28)"/>
<path d="M0 0 C11.219999999999999 0 22.439999999999998 0 34 0 C32.875 17.99999999999996 32.875 17.99999999999996 31 24 C30.43796875000001 23.71125 29.875937499999992 23.4225 29.296875 23.125 C18.83522098820397 18.503901295402983 6.708608741402074 18.93930272765453 -4.45703125 20.640625 C-8 21 -8 21 -10.5 19.0625 C-10.994999999999997 18.381875 -11.490000000000002 17.70125 -12 17 C-10.376601949805114 15.29115994716328 -8.706809471829601 13.625532830313903 -7 12 C-6.340000000000003 12 -5.68 12 -5 12 C-2.8779334158267815 8.082338613834056 -1.6094452059933815 4.291853882649026 0 0 Z " fill="#9ED2D8" transform="translate(62,0)"/>
<path d="M0 0 C0 7.590000000000003 0 15.180000000000007 0 23 C-3.299999999999997 23.659999999999997 -6.599999999999994 24.319999999999993 -10 25 C-12.928765843148057 25.649375131646423 -12.928765843148057 25.649375131646423 -15 27 C-16.165136128694428 29.199329353988873 -16.165136128694428 29.199329353988873 -17 32 C-17.68971595113267 33.44652489362066 -18.399231965786214 34.883723207906655 -19.125 36.3125 C-19.478203124999993 37.009882812499995 -19.83140625 37.70726562499999 -20.1953125 38.42578125 C-20.593632812500005 39.20501953125 -20.593632812500005 39.20501953125 -21 40 C-21.659999999999997 39.67 -22.319999999999993 39.34 -23 39 C-23.495000000000005 37.515 -23.495000000000005 37.515 -24 36 C-24.742500000000007 35.381249999999994 -24.742500000000007 35.381249999999994 -25.5 34.75 C-29.328535464509642 30.28337529140542 -28.314762479345646 21.2036051834246 -28.5625 15.5625 C-28.60568359375 14.640175781250008 -28.648867187500002 13.717851562500002 -28.693359375 12.767578125 C-28.79854931158441 10.511838373800998 -28.900691074435883 8.256005013216864 -29 6 C-28.223984375 5.90203125 -27.44796875 5.804062500000001 -26.6484375 5.703125 C-19.09794775356724 4.657949808369693 -12.082483406128006 3.024027200532899 -4.80078125 0.8046875 C-2 0 -2 0 0 0 Z " fill="#6CA0B7" transform="translate(128,52)"/>
<path d="M0 0 C10.560000000000002 0 21.120000000000005 0 32 0 C30.728974060702697 7.626155635783835 27.84989757485949 11.789810629640693 22.0732421875 16.65380859375 C18.45157060206421 19.005421537943707 14.66131354383073 19.357934049092844 10.4375 19.8125 C9.61314453125 19.92013671875 8.788789062500001 20.0277734375 7.939453125 20.138671875 C6.348664380488259 20.345944908857245 4.756705084869267 20.54448249467215 3.16357421875 20.73291015625 C0.42708533074741695 21.07072541730561 -2.2851198207012686 21.520385835423724 -5 22 C-4.217656244119645 17.77233470380039 -3.0330668876241234 13.782838020511026 -1.71875 9.6953125 C-0.8730598778822518 6.52397454205844 -0.46416756082536637 3.2491729257775592 0 0 Z " fill="#C1E9D8" transform="translate(30,0)"/>
</svg>
