<?xml version="1.0" encoding="UTF-8"?>
<!-- Generator: visioncortex VTracer 0.6.0 -->
<svg version="1.1" xmlns="http://www.w3.org/2000/svg" width="128" height="128">
<path d="M0 0 C42.24 0 84.48 0 128 0 C128 42.24 128 84.48 128 128 C85.75999999999999 128 43.519999999999996 128 0 128 C0 85.75999999999999 0 43.519999999999996 0 0 Z " fill="#507491" transform="translate(0,0)"/>
<path d="M0 0 C4.8679572881489435 3.9908478668608502 6.626918284839306 7.840381090867936 8 14 C7.9765625 17.65625000000003 7.9765625 17.65625000000003 7.625 21.5 C7.511889150243547 22.904652083200098 7.4026084641618155 24.30961708724152 7.296875 25.71484375 C7.243378906250001 26.4236669921875 7.189882812500002 27.132490234375 7.134765625 27.86279296875 C6.699846442981695 34.76004390967066 6.496475042986205 41.796063800919086 7.5703125 48.62890625 C8.447946346022547 55.514342696522334 5.885669271864359 61.21621770575656 1.8125 66.6875 C-4.6166167742565705 74.33220608031348 -11.47850473838254 79.82616824612751 -21 83 C-23.881775134583734 83.12149291528746 -26.738489837371546 83.18821823810416 -29.62109375 83.203125 C-30.47623062133789 83.20882507324218 -31.33136749267578 83.21452514648438 -32.21241760253906 83.22039794921875 C-34.02725998090051 83.22984858746017 -35.842119525264366 83.23638218524864 -37.656982421875 83.240234375 C-40.39598971865743 83.2498542092147 -43.134218441728386 83.280840103002 -45.873046875 83.3125 C-57.744348653192304 83.38438158759688 -70.06916092197838 83.39530569639908 -80 76 C-83.38316272902503 71.30722589199755 -83.85306202083876 66.60177393684118 -83 61 C-81.21413522137495 55.55599285225588 -78.76320568801069 52.265811012263384 -74 49 C-70.98437499999997 47.91796875 -70.98437499999997 47.91796875 -67.75 47.1875 C-66.164453125 46.80658203125 -66.164453125 46.80658203125 -64.546875 46.41796875 C-61.516041730610354 46.06081108499484 -59.64973505813352 46.13415464288008 -56.71875 46.59765625 C-51.28711942112907 47.32168227113702 -46.886667673873525 45.93643607365125 -41.75 44.25 C-40.442890625000004 43.851679687499995 -40.442890625000004 43.851679687499995 -39.109375 43.4453125 C-31.535238715377574 41.32867015631294 -31.535238715377574 41.32867015631294 -25.890625 36.2734375 C-23.145707703429323 28.13910941382104 -21.785203664730005 20.218823210079407 -25 12 C-27.70038027774251 7.462410852942952 -30.68280679020073 4.046331139382172 -35 1 C-23.55137940062997 -10.065839971427572 -12.73484147805577 -7.7934179584269465 0 0 Z " fill="#153F56" transform="translate(103,27)"/>
<path d="M0 0 C12.870000000000001 0 25.740000000000002 0 39 0 C36.75000000000001 6.7499999999999964 36.75000000000001 6.7499999999999964 35 10 C34.34 10 33.68 10 33 10 C32.7525 10.53625 32.505 11.0725 32.25 11.625 C31 14 31 14 29.0078125 16.5625 C26.481466910597 20.887760931273622 26.121461302083173 24.4624762337044 25.625 29.375 C23.46991194523158 46.76448987680398 19.128820593304443 63.48633977798818 12.452392578125 79.695068359375 C9.85940079618613 86.24799253179478 9.750183358951537 90.33401787341907 11.5859375 97.1875 C14.913077712644068 104.83003989439034 19.988442261630954 111.47820670851837 24.82666015625 118.219970703125 C27.185249131268957 121.79809642448647 28 123.57696176706618 28 128 C18.759999999999998 128 9.52 128 0 128 C0 85.75999999999999 0 43.519999999999996 0 0 Z " fill="#64AFC9" transform="translate(0,0)"/>
<path d="M0 0 C16.17 0 32.34 0 49 0 C49 42.24 49 84.48 49 128 C39.099999999999994 128 29.200000000000003 128 19 128 C20.05673758865248 120.60283687943263 20.05673758865248 120.60283687943263 23 116 C24.032419158201648 113.4864034894984 25.00956252909171 110.98833698460328 25.9375 108.4375 C26.19619873046875 107.73584716796876 26.454897460937502 107.0341943359375 26.721435546875 106.311279296875 C32.17066838101249 92.10352587479088 32.17066838101249 92.10352587479088 33.96337890625 77.15966796875 C34.02693355165982 73.41163868011432 34.5968914031852 69.75881542184092 35.1875 66.0625 C35.314794921875006 65.244912109375 35.44208984375 64.42732421875 35.5732421875 63.5849609375 C36.654762911372046 57.10332980944469 38.311219494955694 50.9034607032411 40.461669921875 44.695556640625 C41.98455338522136 40.08442853619178 42.17200118633991 36.71659014014844 41 32 C39.902957755670045 30.066205538369218 39.902957755670045 30.066205538369218 38.4375 28.6875 C36 26 36 26 36 24 C35.42378906249999 23.7280078125 34.847578125 23.456015625 34.25390625 23.17578125 C31.99507747199553 21.99743209544307 30.01498278738299 20.659212105454493 27.9375 19.1875 C24.566151585384105 16.90118325905359 21.236449444566944 15.119302774714146 17.5 13.5 C12.324510138856411 11.244391583789323 7.340644747904278 8.65471570132187 3 5 C3 4.34 3 3.6799999999999997 3 3 C2.3400000000000034 3 1.6800000000000068 3 1 3 C0.6700000000000017 2.01 0.3400000000000034 1.02 0 0 Z " fill="#6B95BA" transform="translate(79,0)"/>
<path d="M0 0 C1.5140039062499966 0.017402343749999993 1.5140039062499966 0.017402343749999993 3.05859375 0.03515625 C4.070507812499997 0.0441796875 5.082421875000001 0.053203125000000004 6.125 0.0625 C7.298691406250001 0.07990234375 7.298691406250001 0.07990234375 8.49609375 0.09765625 C9.343809629572768 4.038791479592696 9.872309677886136 7.973633075332665 10.37109375 11.97265625 C11.109308261981589 17.239320977271625 12.04505672881021 21.399835292719565 14.49609375 26.09765625 C15.083906249999998 27.30421875 15.083906249999998 27.30421875 15.68359375 28.53515625 C15.951718749999998 29.05078125 16.219843750000003 29.56640625 16.49609375 30.09765625 C17.156093749999997 30.09765625 17.81609375 30.09765625 18.49609375 30.09765625 C18.521875 30.9058984375 18.547656250000003 31.714140625 18.57421875 32.546875 C18.9100739889111 40.641167261004384 18.9100739889111 40.641167261004384 23.49609375 47.09765625 C23.49609375 47.75765625 23.49609375 48.41765625 23.49609375 49.09765625 C24.081328125 49.3670703125 24.666562499999998 49.636484375 25.26953125 49.9140625 C27.49726943601283 51.098281219933135 29.217534746910175 52.38736178256762 31.12109375 54.03515625 C31.711484374999998 54.5391796875 32.301874999999995 55.043203125 32.91015625 55.5625 C34.49609375 57.09765625 34.49609375 57.09765625 36.49609375 60.09765625 C36.30065727131665 62.70347596577796 35.95582948277024 64.45736975672362 34.421875 66.59375 C31.560469510577065 68.82831615299763 28.305741244987473 69.6573826037062 24.87109375 70.66015625 C24.152683105468753 70.87486572265625 23.434272460937507 71.0895751953125 22.694091796875 71.310791015625 C20.631626390456546 71.91958964275948 18.56504062557427 72.51132352328466 16.49609375 73.09765625 C15.546054687500003 73.373515625 14.596015625 73.649375 13.6171875 73.93359375 C10.52873722224686 74.73836759564125 7.921213108601123 75.15562707162742 4.74609375 74.72265625 C2.373989874202607 73.00947011747967 1.6642601920527085 71.84861193497133 0.24609375 69.34765625 C-2.6452124294717265 64.31969298821426 -6.620745863223604 62.019205199353394 -11.50390625 59.09765625 C-19.102026170700565 54.300355581731594 -19.102026170700565 54.300355581731594 -20.50390625 49.09765625 C-20.11328125 46.328125 -20.11328125 46.328125 -19.25390625 43.28515625 C-18.075552515413005 38.80538041419943 -17.304322767058707 34.57164707360705 -16.9287109375 29.975830078125 C-16.254708955709493 22.01112230168717 -14.380876066902395 15.863739843941971 -8.50390625 10.09765625 C-7.843906250000003 10.09765625 -7.18390625 10.09765625 -6.50390625 10.09765625 C-6.298945312500003 9.4595703125 -6.093984374999998 8.821484375 -5.8828125 8.1640625 C-5.613398437500003 7.3377734375 -5.343984374999998 6.511484375 -5.06640625 5.66015625 C-4.799570312500002 4.8364453125 -4.532734375000004 4.012734375 -4.2578125 3.1640625 C-3.14823528333892 0.12278608749371722 -3.14823528333892 0.12278608749371722 0 0 Z " fill="#296C92" transform="translate(41.50390625,-0.09765625)"/>
<path d="M0 0 C4.8686022664225845 3.991376632832935 6.624065407355928 7.840442337602724 8 14 C7.9765625 17.585937499999986 7.9765625 17.585937499999986 7.625 21.375 C6.916623749981696 29.92851581317062 6.904458716084548 38.42251584403449 7 47 C-1.163452419350591 48.064057927444026 -8.05914798371954 48.64695067209348 -16 46 C-16 45.34 -16 44.68000000000001 -16 44 C-16.556875000000005 43.79375 -17.113749999999996 43.587500000000006 -17.6875 43.375 C-21.09679717225937 41.347850330007944 -23.59574598044574 39.75786286922971 -25 36 C-24.815450056065472 32.83732056865133 -24.377949192347018 29.79885883307182 -23.84326171875 26.6787109375 C-22.55779084197809 18.98860386614878 -23.350602334460604 13.975233271683464 -27.875 7.625 C-29.987842178595002 4.936933772782268 -32.20731981336867 2.9705925126446218 -35 1 C-23.55137940062997 -10.065839971427568 -12.73484147805577 -7.7934179584269465 0 0 Z " fill="#2C4953" transform="translate(103,27)"/>
<path d="M0 0 C9.57 0 19.14 0 29 0 C29.33 0.99 29.659999999999997 1.98 30 3 C30.659999999999997 3 31.319999999999993 3 32 3 C33.66666666666666 4.666666666666666 35.33333333333334 6.333333333333334 37 8 C37.928124999999994 8.53625 38.85625 9.0725 39.8125 9.625 C40.534375 10.07875 41.256249999999994 10.5325 42 11 C42 15.028043543461017 40.79432872080116 16.160161039446383 38 19 C34.9765625 20.1875 34.9765625 20.1875 31.625 21 C26.17906667758264 22.49472185677147 22.920264684904993 23.96772775266914 19 28 C19.45890625 28.3519140625 19.917812499999997 28.703828125 20.390625 29.06640625 C26.031294379374984 33.60501207416096 29.187786451129668 37.5190847905557 30.875 44.75 C31.3343274207422 49.935296216378525 30.12083104657549 54.96089182366061 29 60 C25.552056913908373 58.850685637969455 24.57892060629102 57.317168155720154 22.38671875 54.5390625 C20.891620943156823 52.74512682269368 20.891620943156823 52.74512682269368 18 51.0625 C14.288180867133747 48.510624346154444 11.719204602098301 46.219865841514014 10 42 C9.600738839104793 37.96190294233838 9.701302025820041 34.042379250568814 10 30 C9.340000000000003 30 8.68 30 8 30 C0.43339334498015347 20.92007201397618 0.6088219405051802 11.364676222763299 0 0 Z " fill="#6B6688" transform="translate(50,0)"/>
<path d="M0 0 C0.3712500000000034 1.2581250000000068 0.7424999999999997 2.5162499999999994 1.125 3.8125 C3.6832102954379664 11.475006666904235 7.20232226540768 18.347264208772486 13 24 C13.71727778133188 25.645519615996676 14.383252276486083 27.314222889061952 15 29 C16.508908768914665 31.70346154430544 17.808893885341163 33.80889388534116 20 36 C15.750135207052978 36.08842548384813 11.50051254466166 36.14086428242534 7.25 36.1875 C6.062773437499999 36.21263671874999 4.875546874999998 36.23777343750001 3.65234375 36.263671875 C-6.730132501960178 36.34877413936033 -17.437629688291903 35.376233210846465 -26 29 C-29.383162729025024 24.307225891997547 -29.853062020838756 19.60177393684117 -29 14 C-27.21504907648313 8.55877863637599 -24.766038484546332 5.258483049008987 -20 2 C-13.383899422521594 -0.3198226075462287 -6.864618656242804 -1.7560652376435115 0 0 Z " fill="#2F4D58" transform="translate(49,74)"/>
<path d="M0 0 C12.870000000000001 0 25.740000000000002 0 39 0 C36.75000000000001 6.7499999999999964 36.75000000000001 6.7499999999999964 35 10 C34.34 10 33.68 10 33 10 C32.72671875 10.5684765625 32.4534375 11.136953125 32.171875 11.72265625 C30.973365340983328 14.051760020689068 29.669265095115737 16.236113011070483 28.25 18.4375 C27.78078125 19.1787109375 27.3115625 19.919921875 26.828125 20.68359375 C25 22.999999999999996 25 22.999999999999996 22.14453125 25.19140625 C18.022090310138477 28.495111245061118 15.90107011311954 32.9102388477402 13.4375 37.5 C7.6177564277433065 48.250473982131886 7.6177564277433065 48.250473982131886 3 52 C2.01 52 1.02 52 0 52 C0 34.84 0 17.68 0 0 Z " fill="#88C3E2" transform="translate(0,0)"/>
<path d="M0 0 C1.5140039062499966 0.017402343749999993 1.5140039062499966 0.017402343749999993 3.05859375 0.03515625 C4.070507812499997 0.0441796875 5.082421875000001 0.053203125000000004 6.125 0.0625 C7.298691406250001 0.07990234375 7.298691406250001 0.07990234375 8.49609375 0.09765625 C9.592805864732462 5.251232647548119 10.239016717954101 10.447788243530042 10.93359375 15.66796875 C11.385241695477816 18.42176663978833 11.985861050641702 20.689661016530103 12.93359375 23.28515625 C13.784171934632283 29.05018616806324 11.227664783485942 33.11116416202566 8.49609375 38.09765625 C7.836093750000003 38.09765625 7.17609375 38.09765625 6.49609375 38.09765625 C6.49609375 38.75765625 6.49609375 39.41765625 6.49609375 40.09765625 C3.3983990294284467 43.076208865934184 0.781072882469843 44.09765625 -3.50390625 44.09765625 C-6.1576671924031245 42.99752117577592 -8.628237461334933 41.723029188227564 -11.13671875 40.32421875 C-13.308083713249637 39.19912205287065 -15.14068053517142 38.637839929081565 -17.50390625 38.09765625 C-16.405239655458036 17.51447392776486 -16.405239655458036 17.51447392776486 -8.50390625 10.09765625 C-7.843906250000003 10.09765625 -7.18390625 10.09765625 -6.50390625 10.09765625 C-6.298945312500003 9.4595703125 -6.093984374999998 8.821484375 -5.8828125 8.1640625 C-5.613398437500003 7.3377734375 -5.343984374999998 6.511484375 -5.06640625 5.66015625 C-4.799570312500002 4.8364453125 -4.532734375000004 4.012734375 -4.2578125 3.1640625 C-3.14823528333892 0.12278608749371767 -3.14823528333892 0.12278608749371767 0 0 Z " fill="#4579AC" transform="translate(41.50390625,-0.09765625)"/>
<path d="M0 0 C16.17 0 32.34 0 49 0 C49 12.540000000000001 49 25.080000000000002 49 38 C42.235576923076934 35.745192307692314 42.235576923076934 35.745192307692314 39.6875 31.5625 C39.1963671875 30.7800390625 38.705234375 29.997578125 38.19921875 29.19140625 C37 26.99999999999998 37 26.99999999999998 36 24 C34.15659246634364 22.934671874940562 34.15659246634364 22.934671874940562 32 22 C30.63502666998501 21.07830513755424 29.281458954401785 20.139575595735103 27.9375 19.1875 C24.566151585384105 16.90118325905359 21.236449444566944 15.119302774714146 17.5 13.5 C12.324510138856411 11.244391583789323 7.340644747904278 8.65471570132187 3 5 C3 4.34 3 3.6799999999999997 3 3 C2.3400000000000034 3 1.6800000000000068 3 1 3 C0.6700000000000017 2.01 0.3400000000000034 1.02 0 0 Z " fill="#A3AEC6" transform="translate(79,0)"/>
<path d="M0 0 C0 11.549999999999997 0 23.099999999999994 0 35 C-9.900000000000006 35 -19.799999999999997 35 -30 35 C-28.31733551972765 23.221348638093545 -19.895573092546712 11.184189930245566 -10.30859375 3.9765625 C-3.8956866197183047 0 -3.8956866197183047 0 0 0 Z " fill="#A6C4DF" transform="translate(128,93)"/>
<path d="M0 0 C2.97 0 5.94 0 9 0 C9.1611328125 0.7528125000000045 9.322265625 1.5056249999999949 9.48828125 2.28125 C11.808987431331769 11.344102575437802 15.871612294631053 17.795958626842506 21.34375 25.2734375 C28 34.44969019396552 28 34.44969019396552 28 40 C18.759999999999998 40 9.52 40 0 40 C0 26.799999999999997 0 13.599999999999994 0 0 Z " fill="#85B4B4" transform="translate(0,88)"/>
<path d="M0 0 C0.9487500000000004 0.8662500000000009 1.8975000000000009 1.7325000000000017 2.875 2.625 C6.536285347941352 5.786680218996196 10.451221343626045 8.157058827785228 14.66796875 10.5078125 C19.501330523328058 13.600516348260172 21.493224065938776 16.475154908442164 23 22 C19.692504691488395 23.54349781063874 16.572639068000477 24.27778272296112 13 24.875 C8.68099660927567 25.715697539650648 6.013709377877806 26.62099251571277 3 30 C-0.036012903499425875 35.339195106154165 -0.662711439520578 40.003004678436724 0 46 C0.8846002779714439 49.41471923617827 0.8846002779714439 49.41471923617827 2 52 C-3.17127510295839 50.738713389522346 -7.898121144694683 48.426372581399875 -11 44 C-13.170089866479175 36.33879205032453 -10.47125168000398 30.362371489372293 -7.75 23.125 C-6.930426802306982 20.8782835684693 -6.11269063022462 18.63089608553858 -5.296875 16.3828125 C-4.904355468750001 15.310634765624997 -4.511835937499999 14.238457031249993 -4.107421875 13.1337890625 C-2.576448201235152 8.80143058003845 -1.2528127592331657 4.4198533970950535 0 0 Z " fill="#407583" transform="translate(21,51)"/>
<path d="M0 0 C0.5826562499999994 0.37511718749999545 1.1653125000000006 0.7502343750000051 1.765625 1.13671875 C11.82023418408886 7.412944923086911 21.431861084269528 11.251236045495673 33.1640625 13.12890625 C36 14 36 14 37.3984375 16.08984375 C37.6962109375 17.03537109375 37.6962109375 17.03537109375 38 18 C38.66 18 39.32 18 40 18 C40.495 19.980000000000004 40.495 19.980000000000004 41 22 C41.66 22 42.32 22 43 22 C47 28.625 47 28.625 47 32 C37.1 32 27.200000000000003 32 17 32 C15.68 28.700000000000003 14.36 25.400000000000006 13 22 C11.125437858877238 18.963356563468366 11.125437858877238 18.963356563468366 9.0625 16.4375 C0.0000000000000017763568394002505 4.5122663551401985 0.0000000000000017763568394002505 4.5122663551401985 0 0 Z " fill="#6F8993" transform="translate(11,96)"/>
<path d="M0 0 C9.149657885951513 2.4658652458592734 16.692018135106707 6.8395881533643745 23 14 C23.825644531249992 14.895253906249998 23.825644531249992 14.895253906249998 24.66796875 15.80859375 C25.231289062499997 16.4698828125 25.794609374999993 17.131171875 26.375 17.8125 C26.898359375 18.4170703125 27.421718749999997 19.021640625 27.9609375 19.64453125 C30.54201451838486 25.495619378143147 27.22961640955964 33.247493180215045 25.5625 39.125 C23.587612428208388 46.239757451325566 22.28017180185944 53.039626928855654 21.65234375 60.41015625 C21 63 21 63 18.94140625 64.37109375 C18.300742187499992 64.5786328125 17.660078125 64.786171875 17 65 C14.976032668996027 56.470423390768985 15.757754126391518 47.36459488501045 16.51416015625 38.688232421875 C17.144952804514517 31.18002302682796 17.61140895659676 24.452703088531244 12.625 18.3046875 C8.526699391038022 14.383717205848871 3.636984109627889 12.25013300682733 -1.546875 10.078125 C-4 8.999999999999996 -4 8.999999999999996 -7 7 C-4.666666666666671 4.666666666666664 -2.3333333333333286 2.333333333333334 0 0 Z " fill="#517183" transform="translate(93,12)"/>
<path d="M0 0 C5.17577380934344 4.514031039199075 8.21628799688689 9.777183904290943 8.98046875 16.62890625 C9.017922310584893 21.17576850500587 7.983355571384379 25.578963381544625 7 30 C3.5520569139083733 28.850685637969463 2.578920606291021 27.317168155720154 0.38671875 24.5390625 C-1.1083790568431766 22.745126822693678 -1.1083790568431766 22.745126822693678 -4 21.0625 C-7.691771138126455 18.52440734253807 -10.247541306208916 16.17252069950257 -12 12 C-12.394894167298744 8.290994023599161 -12.30215543660367 4.713154587596229 -12 1 C-7.464107007260708 -0.9771841250402069 -4.860133724635304 -1.4495135669964938 0 0 Z " fill="#517183" transform="translate(72,30)"/>
</svg>
