<?xml version="1.0" encoding="UTF-8"?>
<!-- Generator: visioncortex VTracer 0.6.0 -->
<svg version="1.1" xmlns="http://www.w3.org/2000/svg" width="128" height="128">
<path d="M0 0 C42.24 0 84.48 0 128 0 C128 42.24 128 84.48 128 128 C85.75999999999999 128 43.519999999999996 128 0 128 C0 85.75999999999999 0 43.519999999999996 0 0 Z " fill="#547BB6" transform="translate(0,0)"/>
<path d="M0 0 C0.9899999999999949 0.3299999999999983 1.980000000000004 0.6599999999999966 3 1 C3 17.17 3 33.34 3 50 C-39.24000000000001 50 -81.48 50 -125 50 C-125 42.74000000000001 -125 35.47999999999999 -125 28 C-119.23574165047779 28 -116.80894333900656 28.169628540660938 -111.75 30 C-102.30267993428818 33.04088996387746 -93.14188143435969 33.27508694907759 -84 29 C-81.58184401213933 27.274422668856715 -79.31791076626942 25.431752283472505 -77.0390625 23.52734375 C-74.37952042322243 21.535234646513345 -72.31671820326638 20.921030518969843 -69 21 C-68.00999999999999 21.659999999999997 -67.02000000000001 22.319999999999993 -66 23 C-61.18422544733119 23.179629246191908 -56.58163131154218 22.400835266859275 -52.1875 20.4375 C-47.61775193034913 18.53420452632247 -43.26275435592464 18.845200667380396 -38.37890625 18.94140625 C-29.3551091205498 19.09788828114654 -22.158597248220588 18.948206409149464 -15 13 C-13.649008971643525 11.68456136712659 -12.307943308367882 10.358248820228184 -11 9 C-10.340000000000003 9 -9.680000000000007 9 -9 9 C-9 8.340000000000003 -9 7.680000000000007 -9 7 C-7.136718750000014 5.23828125 -7.136718750000014 5.23828125 -4.6875 3.3125 C-3.4867382812499983 2.347636718749996 -3.4867382812499983 2.347636718749996 -2.26171875 1.36328125 C-1.5153515625000011 0.9133984375000068 -0.7689843750000023 0.46351562499999943 0 0 Z " fill="#525E93" transform="translate(125,78)"/>
<path d="M0 0 C2.88671875 1.49609375 2.88671875 1.49609375 5.6875 3.4375 C9.628366976033547 6.145740746390793 9.628366976033547 6.145740746390793 14 8 C14 14.600000000000001 14 21.200000000000003 14 28 C11.689999999999998 28.659999999999997 9.379999999999995 29.32 7 30 C7 30.659999999999997 7 31.32 7 32 C6.340000000000003 32 5.680000000000007 32 5 32 C4.841445312499999 32.750234375 4.682890624999999 33.50046875 4.51953125 34.2734375 C1.6555742685969506 46.83687309797804 -2.875732040995132 56.823072851781774 -13.7421875 64.21875 C-17.787371376197783 66.43050521288512 -21.88747761929855 67.97110220968725 -26.25 69.4375 C-27.018442382812495 69.69652099609375 -27.786884765625004 69.9555419921875 -28.57861328125 70.222412109375 C-32.80334229856649 71.55805739127678 -36.52275404655266 72.49454115833365 -41 72 C-47.23700038326734 67.84199974448843 -49.99292595860331 62.82963803084675 -51.64453125 55.4609375 C-53.181693097685496 44.819047785254256 -52.372623978569756 35.906066283702096 -46.59765625 26.78515625 C-42.58488462911086 21.516553901791042 -38.29627011270712 19.667876662529792 -32.19140625 17.40625 C-26.476788793500276 14.888181108519092 -21.841801679049368 10.885733646514936 -17 7 C-15.4846234648669 5.826254245734258 -13.96453545174424 4.658536951506143 -12.4375 3.5 C-11.838085937499997 3.0359374999999993 -11.238671874999994 2.5718749999999986 -10.62109375 2.09375 C-7.1881624749336055 -0.22244459522551807 -4.016420719846195 -0.35162252911107217 0 0 Z " fill="#BAC0D3" transform="translate(114,21)"/>
<path d="M0 0 C11.219999999999999 0 22.439999999999998 0 34 0 C34 9.57 34 19.14 34 29 C28.68264669711563 27.936529339423124 26.714443486201105 26.47757231769038 22.671875 23.1796875 C18.587825277387722 21.376495955805687 15.237115198231777 21.726142020021545 11 23 C7.946915782092475 24.74722585672023 5.357015321304246 26.90747134032867 2.6875 29.1875 C-3.1560887823668935 33.92913280333652 -8.597295129326653 37.76221524372652 -15.484375 40.8515625 C-20.195866822640127 43.00246094077049 -23.351966191555533 44.910960924693455 -26.1875 49.3125 C-26.6760546875 50.0511328125 -27.164609374999998 50.789765625 -27.66796875 51.55078125 C-32.445847511465146 60.335913166242364 -32.1105727590651 70.45516371092847 -29.8125 80 C-28.36616281700529 84.66960290509722 -26.49198943208637 87.59754875847995 -23 91 C-17.392149587074286 93.80392520646286 -9.53431681660436 90.71171649808703 -4 88.875 C4.965476062631197 85.48002103395467 13.540830800024196 80.83813751505997 18 72 C20.663083953575367 65.77835064647158 22.884046463956167 59.425155714470975 25 53 C25.659999999999997 53 26.319999999999993 53 27 53 C27 52.34 27 51.68 27 51 C29.310000000000002 50.34 31.620000000000005 49.68 34 49 C34 58.9 34 68.8 34 79 C32.68000000000001 79.33 31.36 79.66 30 80 C28.342415030623812 81.16255284673575 28.342415030623812 81.16255284673575 26.875 82.5625 C24 85 24 85 22 85 C22 85.66 22 86.32 22 87 C20.023437500000057 88.87499999999994 20.023437500000057 88.87499999999994 17.375 91 C16.516484375000005 91.70125 15.657968750000009 92.4025 14.7734375 93.125 C10.190267851454792 96.22348088915732 5.770421416269571 97.22291574832393 0.3125 97.625 C-1.2479101562500006 97.74101562499999 -1.2479101562500006 97.74101562499999 -2.83984375 97.859375 C-5.826826591419717 97.99229389034748 -8.762405750894175 97.95810415157457 -11.75 97.875 C-16.058417416588057 97.81952681437869 -19.035878827946362 98.56835112621205 -22.95703125 100.25 C-26.769409415905642 101.64957286396536 -30.956285944481422 102.48827159513915 -35 102 C-39.56051344137243 98.89018004820491 -40.316358259893214 94.44853991974166 -41.5625 89.375 C-41.98329362494825 87.74841778348518 -42.40516071626853 86.12211287552309 -42.828125 84.49609375 C-43.02728515625 83.7173388671875 -43.2264453125 82.938583984375 -43.431640625 82.13623046875 C-44.12394482898689 79.5341420731807 -44.95755949405567 76.99022330312623 -45.8125 74.4375 C-47.442546599222155 68.89344615962231 -48.23977678145795 64.09440221063082 -46.0390625 58.6015625 C-39.22170312852322 46.1096381025541 -29.765957949477908 39.183221557146844 -17.015625 33.8515625 C-10.484282662996762 31.027177024380784 -5.505680945209008 27.33719247787783 -2 21 C-1.1792669717091542 18.2819030384929 -0.8336609756358087 15.720464111989605 -0.68359375 12.890625 C-0.6264318847656227 11.8701708984375 -0.6264318847656227 11.8701708984375 -0.568115234375 10.8291015625 C-0.5250122070312528 9.977998046875 -0.4819091796875057 9.12689453125 -0.4375 8.25 C-0.2931250000000034 5.5275 -0.14875000000000682 2.8049999999999997 0 0 Z " fill="#8D96BE" transform="translate(94,0)"/>
<path d="M0 0 C22.11 0 44.22 0 67 0 C67 19.15384615384616 67 19.15384615384616 62.375 26.625 C59.62972603416485 29.370273965835157 56.87433258848385 30.949809516858203 53.4453125 32.7265625 C51.78877024570119 33.58923466437926 50.15803954949149 34.50302429471276 48.5546875 35.4609375 C47.773515625 35.927578125 46.99234375 36.39421875 46.1875 36.875 C45.47980468750001 37.305546875 44.772109375 37.73609375 44.04296875 38.1796875 C41.55374865269283 39.17918314136617 40.47368405796371 38.937396064070455 38 38 C37.381249999999994 37.62875 36.7625 37.2575 36.125 36.875 C32.96856225522982 35.57529034038875 31.288763567908745 36.069217858139034 28 37 C26.483606878177028 37.803116644412526 24.984448463635225 38.63926937822831 23.5 39.5 C19.96883805521948 41.53812031712164 17.17695275214289 43 13 43 C9.319047988279365 41.37353283203041 6.984764186749622 39.496965471892196 5 36 C2.733506714951396 29.319809265119908 2.7897800505312773 23.00733164895749 3 16 C2.009999999999998 15.67 1.0199999999999996 15.34 0 15 C0 10.05 0 5.1 0 0 Z " fill="#475152" transform="translate(27,0)"/>
<path d="M0 0 C8.91 0 17.82 0 27 0 C27.27976863864847 9.045852649633847 26.66595253461386 16.625215386226458 24.73828125 25.46875 C23.067493396460105 33.46024322539717 22.938566546595837 40.77257388318676 23.73046875 48.87109375 C24.019968324412353 52.23180620078687 24.177760366705115 55.5650497509178 24.25 58.9375 C24.27578125 59.9777734375 24.3015625 61.018046875 24.328125 62.08984375 C23.87450110909825 66.11305563954527 22.368957384946928 68.65941478883435 19.4921875 71.4765625 C13.351239753244267 75.83752539262363 7.563056306382127 78 0 78 C0 52.26 0 26.519999999999996 0 0 Z " fill="#7BA3BB" transform="translate(0,0)"/>
<path d="M0 0 C4.9670716771520915 4.063967735851719 6.733387890209954 7.378314253731233 7.375 13.6875 C7.179296487720876 21.08229699968939 3.517635762882634 28.277661367015327 -1 34 C-1.6599999999999966 34 -2.319999999999993 34 -3 34 C-3.382851562500008 34.92232421874999 -3.382851562500008 34.92232421874999 -3.7734375 35.86328125 C-5.848212702919241 39.4776189442574 -9.203145734833939 40.58954885572176 -13 42 C-18.03882663667588 43.306710638988704 -22.26045406602276 43.317111345499995 -27 41 C-31.38991653072992 37.508020941464835 -33.16682896136689 34.554473590887454 -34 29 C-33.59223919769835 21.9365306181939 -30.69949490759946 15.239854949239813 -26 10 C-19.02667396645846 4.623961886267921 -8.952579431478682 -2.7976810723370846 0 0 Z " fill="#DBE9E9" transform="translate(109,39)"/>
<path d="M0 0 C11.219999999999999 0 22.439999999999998 0 34 0 C34 9.57 34 19.14 34 29 C28.682646697115615 27.93652933942312 26.714443486201105 26.477572317690385 22.671875 23.1796875 C18.587825277387708 21.376495955805684 15.237115198231777 21.726142020021545 11 23 C7.946844484571443 24.747266659024845 5.357659085869699 26.90817216206205 2.6875 29.1875 C-10.312081384870197 39.68407420600127 -10.312081384870197 39.68407420600127 -18 42 C-20.68945268843477 41.69685359870244 -22.587430392123082 41.20628480393846 -25 40 C-25 39.34 -25 38.68 -25 38 C-23.462792968749994 37.22076171875 -23.462792968749994 37.22076171875 -21.89453125 36.42578125 C-20.53359756833875 35.72185003534763 -19.17293472985793 35.017395018168244 -17.8125 34.3125 C-17.138964843750003 33.97283203125 -16.465429687500006 33.6331640625 -15.771484375 33.283203125 C-10.040769760463846 30.292049643266495 -5.541269967311393 26.488968449332674 -2 21 C-1.1860792037038834 18.282422736984174 -0.8335216989204923 15.717837751072032 -0.68359375 12.890625 C-0.6264318847656227 11.8701708984375 -0.6264318847656227 11.8701708984375 -0.568115234375 10.8291015625 C-0.5034606933593722 9.5524462890625 -0.5034606933593722 9.5524462890625 -0.4375 8.25 C-0.2931250000000034 5.5275 -0.14875000000000682 2.8049999999999997 0 0 Z " fill="#8B867A" transform="translate(94,0)"/>
<path d="M0 0 C0.9899999999999949 0.3299999999999983 1.980000000000004 0.6599999999999966 3 1 C4.071463614063788 12.462959934587062 4.071463614063788 12.462959934587062 1.6875 15.8828125 C-0.06250000000001421 17.250000000000014 -0.06250000000001421 17.250000000000014 -2.0078125 18.55078125 C-4.346691376632847 20.25220098182507 -5.739794121893851 22.10217647643003 -7.4375 24.4375 C-11.525884797739565 29.876429888228827 -17.00924734080303 36.635950700644486 -24 38 C-29.541623191176456 37.96733817372588 -34.31502392245892 36.63350881426061 -39.4765625 34.75 C-42.51103233874824 33.848114227492786 -45.48626133983662 33.46471822647402 -48.625 33.0625 C-54.062521775791666 32.30658283724392 -57.512550768967316 31.121703812892292 -62 28 C-62.99 27.340000000000003 -63.98 26.680000000000007 -65 26 C-65 25.340000000000003 -65 24.680000000000007 -65 24 C-64.275546875 23.806640625 -63.55109375 23.61328125 -62.8046875 23.4140625 C-61.3544921875 23.023476562500008 -61.3544921875 23.023476562500008 -59.875 22.625 C-58.923671875 22.369765625 -57.97234374999999 22.11453125 -56.9921875 21.8515625 C-53.97689784068571 21.03391558860119 -53.97689784068571 21.03391558860119 -51.015625 19.90234375 C-47.77247716398935 18.931919980416495 -45.248293182499 18.831820389019455 -41.875 18.9375 C-25.748007170098788 19.15865690754231 -25.748007170098788 19.15865690754231 -12.625 10.6875 C-12.088750000000005 10.130624999999995 -11.552500000000009 9.573750000000004 -11 9 C-10.340000000000003 9 -9.680000000000007 9 -9 9 C-9 8.340000000000003 -9 7.680000000000007 -9 7 C-7.136718749999986 5.238281249999986 -7.136718749999986 5.238281249999986 -4.6875 3.3125 C-3.4867382812499983 2.347636718749996 -3.4867382812499983 2.347636718749996 -2.26171875 1.36328125 C-1.5153515625000011 0.9133984375000068 -0.7689843750000023 0.46351562499999943 0 0 Z " fill="#697899" transform="translate(125,78)"/>
<path d="M0 0 C5.7642583495222075 0 8.191056660993429 0.1696285406609377 13.25 2 C21.138744580563905 4.551176573072269 27.874414520138387 4.9415795208861795 35.875 2.75 C39.160896745504346 1.9358473304365305 39.64567782225282 1.8189019980403316 42.8125 3.4375 C47.49063568889593 8.91760180699238 49.67274202773299 14.001730691683036 51 21 C50 22 50 22 47.98155212402344 22.120254516601563 C47.09552810668945 22.118033905029307 46.20950408935547 22.115813293457023 45.296630859375 22.113525390625 C44.29566879272461 22.113449859619152 43.29470672607422 22.113374328613276 42.26341247558594 22.113296508789063 C41.17488479614258 22.108135223388672 40.08635711669922 22.10297393798828 38.96484375 22.09765625 C37.856456451416015 22.096241302490228 36.74806915283203 22.094826354980455 35.60609436035156 22.093368530273438 C32.049869309523764 22.08775033288279 28.49370616835758 22.075194748226778 24.9375 22.0625 C22.533204031254332 22.057487344472975 20.12890708027358 22.052924032504734 17.724609375 22.048828125 C11.816362942353688 22.038623899727725 5.908251145435392 22.019052045972387 0 22 C0 14.739999999999995 0 7.480000000000004 0 0 Z " fill="#204C8F" transform="translate(0,106)"/>
<path d="M0 0 C0.5550542523885547 7.721201118047929 1.0724687166875029 15.447136047575135 1.25 23.1875 C1.2757812500000014 24.1916796875 1.3015624999999993 25.195859374999998 1.328125 26.23046875 C0.861822258864791 30.166285934105517 -0.6931426631522299 32.720227789304516 -3.5078125 35.4765625 C-9.648760246755732 39.83752539262363 -15.436943693617874 42 -23 42 C-23 28.47 -23 14.939999999999998 -23 1 C-14.000000000000002 1 -14.000000000000002 1 -11.375 1.625 C-7.264046265208663 2.2740979581249476 -4.040650538003948 0 0 0 Z " fill="#749FCC" transform="translate(23,36)"/>
<path d="M0 0 C2.88671875 1.49609375 2.88671875 1.49609375 5.6875 3.4375 C9.628366976033547 6.145740746390793 9.628366976033547 6.145740746390793 14 8 C14 14.600000000000001 14 21.200000000000003 14 28 C11.689999999999998 28.659999999999997 9.379999999999995 29.32 7 30 C7 30.659999999999997 7 31.32 7 32 C6.340000000000003 32 5.680000000000007 32 5 32 C5 32.66 5 33.32 5 34 C4.009999999999991 34 3.0200000000000102 34 2 34 C1.8904296875000028 33.4083203125 1.7808593750000057 32.816640625 1.66796875 32.20703125 C0.16246688978503698 24.516353661797567 0.16246688978503698 24.516353661797567 -4.75 18.625 C-9.291146340452357 17.363570460985457 -13.553651546900483 18.5570074394157 -17.5703125 20.8125 C-18.762168711847636 21.530233191310444 -19.947090855180534 22.259599966113484 -21.125 23 C-29.001524679312695 27.886520733803536 -29.001524679312695 27.886520733803536 -33 28 C-35.23828125 26.78515625 -35.23828125 26.78515625 -37.3125 25.0625 C-38.009882812499995 24.496601562500004 -38.707265625000005 23.930703125 -39.42578125 23.34765625 C-39.945273437500006 22.9029296875 -40.464765625 22.458203124999997 -41 22 C-38.30241109625746 20.201607397504972 -35.8178721948684 19.011382616911547 -32.875 17.6875 C-26.172337981086528 14.405902928316536 -20.52517384914958 10.043307179856797 -14.70068359375 5.406982421875 C-14.004106445312502 4.85373291015625 -13.307529296875003 4.3004833984375 -12.58984375 3.73046875 C-11.969724121093748 3.2292651367187517 -11.349604492187495 2.7280615234375 -10.710693359375 2.211669921875 C-7.272564647270016 -0.22352813694860885 -4.083856026630741 -0.35752623661009153 0 0 Z " fill="#ABB4AC" transform="translate(114,21)"/>
<path d="M0 0 C1.93359375 0.484375 1.93359375 0.484375 4 2 C4.553245636960753 4.835010074804291 4.882196964414753 7.389191835380771 5.0625 10.25 C5.516597354223627 16.786759444750025 6.061191788244884 22.31308963496675 11.1875 27 C15.196936847144826 28.425577545651493 18.191560206891417 27.549311528737718 22 26 C23.555043836260154 25.127594051182868 25.096732032062675 24.231004485780517 26.625 23.3125 C29.692571131434043 21.51426864709039 30.713261175276372 20.994690021764377 34.375 21.0625 C37 22 37 22 40 24 C40 24.659999999999997 40 25.32 40 26 C38.49609375 27.4453125 38.49609375 27.4453125 36.4375 29.125 C29.159321782236916 35.2366228512261 29.159321782236916 35.2366228512261 24.12890625 43.125 C22.49786056540148 45.834003213174 20.823209439882802 46.03594459964402 17.8125 46.8125 C13.179026406320098 47.899886241020056 9.620116840771402 48.510422813329114 5 47 C1.248484501822226 44.476390176928604 -1.5493656823220725 42.35190295303378 -3 38 C-5.022917891116595 25.281840295665106 -3.2237958717666757 12.395722154821158 0 0 Z " fill="#4B658F" transform="translate(26,14)"/>
<path d="M0 0 C0 9.899999999999999 0 19.799999999999997 0 30 C-1.3199999999999932 30.33 -2.6400000000000006 30.659999999999997 -4 31 C-5.657584969376188 32.162552846735736 -5.657584969376188 32.162552846735736 -7.125 33.5625 C-10 36 -10 36 -12 36 C-12 36.66 -12 37.31999999999999 -12 38 C-13.9765625 39.875 -13.9765625 39.875 -16.625 42 C-17.483515624999995 42.70125 -18.34203124999999 43.4025 -19.2265625 44.125 C-27.827485304466535 49.93970837485061 -38.857282814565465 49.265415708657514 -48.8203125 48.64453125 C-51 48 -51 48 -52.3046875 45.94921875 C-52.534140625000006 45.30597656250001 -52.76359375 44.662734375 -53 44 C-51.888828125 43.6970703125 -50.77765625000001 43.394140625000006 -49.6328125 43.08203125 C-31.112116941236565 37.98940225878715 -31.112116941236565 37.98940225878715 -17.26171875 25.2578125 C-13.56235257620871 18.637894083741912 -11.363831836829078 11.177845531923907 -9 4 C-8.340000000000003 4 -7.680000000000007 4 -7 4 C-7 3.3400000000000034 -7 2.6799999999999997 -7 2 C-2.25 0 -2.25 0 0 0 Z " fill="#8DA2B9" transform="translate(128,49)"/>
<path d="M0 0 C0 11.879999999999995 0 23.760000000000005 0 36 C-11.219999999999999 36 -22.439999999999998 36 -34 36 C-33.34 32.03999999999999 -32.68000000000001 28.08 -32 24 C-30.515 23.649374999999992 -29.03 23.29875 -27.5 22.9375 C-18.096105808070178 20.06739445900314 -12.93662272082021 12.997521345516674 -7.078125 5.453125 C-2.4585987261146443 0 -2.4585987261146443 0 0 0 Z " fill="#405383" transform="translate(128,92)"/>
<path d="M0 0 C3.5260672726266193 1.9027172434730382 6.511098915413527 4.158631198496231 9.07421875 7.234375 C9.07421875 7.894375 9.07421875 8.554375 9.07421875 9.234375 C9.734218749999997 9.234375 10.39421875 9.234375 11.07421875 9.234375 C11.606124160351712 10.667815004168183 12.124371330683346 12.106328668558113 12.63671875 13.546875 C12.9267578125 14.347382812500001 13.216796875 15.147890625000002 13.515625 15.97265625 C14.07421875 18.234375 14.07421875 18.234375 13.07421875 21.234375 C10.34375 23.0234375 10.34375 23.0234375 6.88671875 24.859375 C5.7587890625 25.470390625 4.630859375 26.08140625 3.46875 26.7109375 C0.21124985017757325 28.1728765775958 -2.3783580436060987 28.956442982405036 -5.92578125 29.234375 C-9.606733261720635 27.60790783203042 -11.941017063250378 25.73134047189219 -13.92578125 22.234375 C-15.968112012619503 16.107382712141487 -17.08153858432769 9.663275172197771 -15.92578125 3.234375 C-11.60984843289718 -1.4052527783855293 -5.825355322209866 -2.315962765016499 0 0 Z " fill="#1D3653" transform="translate(45.92578125,13.765625)"/>
</svg>
