<?xml version="1.0" encoding="UTF-8"?>
<!-- Generator: visioncortex VTracer 0.6.0 -->
<svg version="1.1" xmlns="http://www.w3.org/2000/svg" width="128" height="128">
<path d="M0 0 C42.24 0 84.48 0 128 0 C128 42.24 128 84.48 128 128 C85.75999999999999 128 43.519999999999996 128 0 128 C0 85.75999999999999 0 43.519999999999996 0 0 Z " fill="#807D8B" transform="translate(0,0)"/>
<path d="M0 0 C0 21.78 0 43.56 0 66 C-42.24000000000001 66 -84.48 66 -128 66 C-128 52.8 -128 39.599999999999994 -128 26 C-122.72 25.340000000000003 -117.44 24.680000000000007 -112 24 C-108.90660455327236 22.488054998603985 -108.90660455327236 22.488054998603985 -105.8974609375 20.8203125 C-101.15227688758657 18.768869061025583 -95.35224542034598 19.876435760313683 -90.30859375 20.15625 C-83.29268032683879 20.391092290315015 -78.31769939888105 18.981942794229923 -72 16 C-64.24454220169662 12.823186987691074 -57.38652897332079 11.660804972712072 -49.094482421875 11.35595703125 C-42.35922610257191 11.073380226834288 -36.72001586446193 10.312013484792644 -31.5 5.875 C-28.29093988356027 3.4682049126702026 -25.820279701395663 3.4425948215832562 -21.890625 3.2734375 C-21.266718749999995 3.1832031250000057 -20.642812500000005 3.092968749999997 -20 3 C-19.67 2.3400000000000034 -19.340000000000003 1.6799999999999997 -19 1 C-14 0 -14 0 0 0 Z " fill="#754A4A" transform="translate(128,62)"/>
<path d="M0 0 C7.0613564167234415 3.523849043548644 10.358228154162262 10.63656346379235 13.95703125 17.3203125 C14.281230468749996 17.9111865234375 14.605429687500006 18.502060546875 14.939453125 19.11083984375 C19.010248329338822 26.591028415907815 22.165810964085168 33.96128449906412 23.95703125 42.3203125 C22.56836802075638 43.309621597957886 21.170732737629635 44.28634327937587 19.76953125 45.2578125 C18.992226562499994 45.8030859375 18.214921875 46.348359375 17.4140625 46.91015625 C13.093229711717782 49.38999827952287 9.001191864382037 49.40981594866764 4.082275390625 49.559814453125 C-5.061504240359767 49.86491322666194 -13.057859558821498 51.3073309105842 -21.33203125 55.47265625 C-27.2168837309204 58.31396818666431 -32.47434247404592 58.68320155878027 -38.91796875 58.6953125 C-39.75142822265625 58.696923828124994 -40.5848876953125 58.69853515625 -41.443603515625 58.7001953125 C-45.542097201232956 58.62527616317438 -48.462982835724475 58.50148958223578 -52.04296875 56.3203125 C-55.43251169827625 50.61160858711368 -55.58912953198808 43.869062815944375 -54.234375 37.546875 C-52.19334175816449 30.304239995427224 -49.90481983113527 24.173387715581555 -43.04296875 20.3203125 C-41.99689453125 19.85818359375 -41.99689453125 19.85818359375 -40.9296875 19.38671875 C-38.677290921088336 18.34539485605459 -38.677290921088336 18.34539485605459 -37.41796875 15.0703125 C-31.765040482702858 4.568911141905701 -11.28373093763257 -3.754051975426517 0 0 Z " fill="#5875A4" transform="translate(75.04296875,24.6796875)"/>
<path d="M0 0 C42.24 0 84.48 0 128 0 C128 8.25 128 16.5 128 25 C109.66151990424245 25.543362373207636 109.66151990424245 25.543362373207636 103.44140625 22.07421875 C100.03524233041087 20.575506625380783 96.52484836138201 20.075401132706283 92.875 19.5 C85.8837931266547 18.38940564080191 79.22249576280268 16.820142739716744 72.3984375 14.9140625 C68.57608840039703 13.885982397348165 64.7497588790024 13.092502847660397 60.85546875 12.39453125 C59 12.000000000000002 59 12.000000000000002 57 11 C54.79407746470135 11.460939037226582 52.60881806305772 12.021728173360422 50.4375 12.625 C49.7705712890625 12.80740234375 49.103642578125 12.9898046875 48.41650390625 13.177734375 C44.915049593256136 14.144887995980401 41.43397990294949 15.165005082535306 37.96484375 16.2421875 C25.860468756309004 19.98081653757563 12.744185789208458 24 0 24 C0 16.08 0 8.16 0 0 Z " fill="#C5B2AB" transform="translate(0,0)"/>
<path d="M0 0 C-1.0608030092262197 9.29117118425728 -3.714733753338308 19.40697823824334 -10.75 26.0625 C-14.200701925239514 28.119649224662027 -17.27863170190878 29.159063805514478 -21.13671875 30.18359375 C-27.238263350206168 31.923324747875967 -33.555491407755426 34.12346698265287 -39.13671875 37.1640625 C-41 38 -41 38 -44.9375 37.8125 C-50.35176350436753 37.67118153985338 -54.49300506398971 39.63266305624187 -59.42578125 41.6875 C-65.45764087899049 43.9024779621211 -71.67585860178816 44.92410872478554 -78 46 C-78.281982421875 45.450617675781245 -78.56396484375 44.90123535156249 -78.8544921875 44.335205078125 C-80.14723655330971 41.824623524131326 -81.44852686698027 39.31856694574445 -82.75 36.8125 C-83.1934375 35.94818359375 -83.636875 35.083867187500005 -84.09375 34.193359375 C-86.41288961619478 29.742657611567367 -88.77916300495845 25.87553984216447 -92 22 C-92 21.340000000000003 -92 20.680000000000007 -92 20 C-84.51997765237789 15.494386538844083 -78.8399514396544 15.6829430546655 -70.30859375 16.15625 C-63.29268032683878 16.391092290315015 -58.31769939888106 14.981942794229923 -52 12 C-44.244542201696625 8.823186987691074 -37.38652897332079 7.6608049727120715 -29.094482421875 7.35595703125 C-22.347414894072585 7.072884689115185 -16.672758672695863 6.3386638386088805 -11.5 1.8125 C-7.821279860667701 -0.8545721010159184 -4.400881627273321 -0.3451671864528123 0 0 Z " fill="#3B576D" transform="translate(108,66)"/>
<path d="M0 0 C20.46 0 40.92 0 62 0 C62 6.346813725490193 62 6.346813725490193 59.04296875 9.59375 C54.67659854901339 12.599282069512773 49.204986134574085 13.320285966027939 44.1044921875 14.48486328125 C41.34394163571345 15.160589692418169 38.64986682933907 16.00345281616317 35.939208984375 16.8544921875 C24.53869827401683 20.419595714192727 11.999625521650755 24 0 24 C0 16.08 0 8.16 0 0 Z " fill="#DBAE95" transform="translate(0,0)"/>
<path d="M0 0 C-1.0608030092262197 9.291171184257266 -3.7147337533383222 19.40697823824337 -10.75 26.0625 C-14.200701925239528 28.119649224662027 -17.278631701908765 29.159063805514464 -21.13671875 30.18359375 C-27.10072308022393 31.884107945111595 -33.665513400009786 33.917619814062334 -38.9453125 37.21484375 C-42.08959312209626 38.41636543258812 -44.7638878098385 37.622329267338756 -48 37 C-47.54997651204063 33.644664555204756 -47.08847400485194 30.291001813952732 -46.625 26.9375 C-46.498671875 25.99455078125 -46.37234375 25.051601562499997 -46.2421875 24.080078125 C-44.80874454587922 13.795124929183402 -44.80874454587922 13.795124929183402 -43 9 C-39.96126165360188 7.987087217867298 -37.32771310681352 7.8266907619074715 -34.1474609375 7.709716796875 C-21.963542425009706 7.411970067040045 -21.963542425009706 7.411970067040045 -11.5 1.8125 C-7.821279860667687 -0.8545721010159184 -4.400881627273321 -0.3451671864528123 0 0 Z " fill="#4A455F" transform="translate(108,66)"/>
<path d="M0 0 C3.0769472280703383 1.0897521432749073 5.5339489264078665 2.740701036061232 8.25 4.546875 C9.796875 5.560078125000004 9.796875 5.560078125000004 11.375 6.59375 C15.077690630508066 9.431137928813243 17.67144613129605 12.099783651801744 19.1875 16.546875 C19.317254430222143 23.294105371551495 16.569452425265418 28.877646074626256 12.7265625 34.2890625 C9.603573791017823 37.47814620811408 7.088737969123102 38.71291091912977 2.62109375 39.16015625 C0.6739648437499994 39.135019531249995 0.6739648437499994 39.135019531249995 -1.3125 39.109375 C-2.6131640625000045 39.10550781250001 -3.913828125000002 39.101640625 -5.25390625 39.09765625 C-8.415755711523357 38.82563121252815 -10.171083667298646 38.56831510231672 -12.75 36.796875 C-16.13954294827625 31.08817108711368 -16.296160781988082 24.345625315944375 -14.94140625 18.0234375 C-12.825117301213918 10.51939109644411 -10.51977935982865 5.139752325173099 -3.75 0.796875 C-1.75 -0.203125 -1.75 -0.203125 0 0 Z " fill="#7DA5C3" transform="translate(35.75,44.203125)"/>
<path d="M0 0 C3.2819635002932124 4.670105162048657 6.1563659462172815 9.536167897547742 8.91796875 14.52734375 C9.28446533203125 15.177111816406253 9.6509619140625 15.826879882812506 10.028564453125 16.496337890625 C12.522611732809025 21.162056200988232 12.522611732809025 21.162056200988232 12.32421875 24.05859375 C11.480468750000004 25.77734375 11.480468750000004 25.77734375 9.54296875 28.52734375 C6.8996435285515005 32.31538341413723 6.8996435285515005 32.31538341413723 5.48046875 39.77734375 C-2.10953125 39.77734375 -9.699531250000001 39.77734375 -17.51953125 39.77734375 C-17.51953125 26.577343749999997 -17.51953125 13.377343749999994 -17.51953125 -0.22265625 C-2.027099099686847 -1.6310591727557409 -2.027099099686847 -1.6310591727557409 0 0 Z " fill="#403D3A" transform="translate(17.51953125,88.22265625)"/>
<path d="M0 0 C-1 3.0000000000000018 -1 3.0000000000000018 -3.88671875 4.61328125 C-5.148948908922769 5.190078701822021 -6.416284953902043 5.75578411097155 -7.6875 6.3125 C-8.357248535156252 6.618813476562501 -9.026997070312497 6.925126953125002 -9.717041015625 7.24072265625 C-13.052575862850773 8.75285266916066 -16.402928451968542 10.17617836826593 -19.828125 11.47265625 C-27.677468555293665 14.52234709020609 -33.57789774300824 17.59328327203584 -38 25 C-39.08996280686735 27.996197319318156 -39.608308215928886 30.848387645089318 -40 34 C-40.5563162326643 38.01515194009888 -42.55458387777329 40.10378991881406 -45.25 43.0625 C-46.01828125 43.9197265625 -46.7865625 44.776953125 -47.578125 45.66015625 C-51.37616854046692 49.3295563802253 -53.64552930939265 51 -59 51 C-59 38.46 -59 25.92 -59 13 C-51.4203125 11.453125 -51.4203125 11.453125 -43.6875 9.875 C-32.40578291150098 7.526974962566605 -21.393647054229604 4.925519906502071 -10.484375 1.1640625 C-2.803763440860216 -1.401881720430108 -2.803763440860216 -1.401881720430108 0 0 Z " fill="#A27E73" transform="translate(59,11)"/>
<path d="M0 0 C0 18.480000000000004 0 36.96000000000001 0 56 C-6.269999999999996 56 -12.540000000000006 56 -19 56 C-19.115513308183566 50.912280515115114 -19.214816373125785 45.829202691352975 -19.274658203125 40.7412109375 C-19.299629384979 39.01481619719381 -19.333619073765774 37.28852528963927 -19.377197265625 35.5625 C-19.663218844919456 23.933199081862796 -19.407030515385685 15.377523171993374 -11.5625 6.125 C-4.17647058823529 0 -4.17647058823529 0 0 0 Z " fill="#5B2115" transform="translate(128,72)"/>
<path d="M0 0 C-0.14308593749998977 0.8327343750000011 -0.28617187500000796 1.6654687500000023 -0.43359375 2.5234375 C-1.035464412537067 6.217678118330923 -1.5607614450382243 9.915851275171477 -2.0625 13.625 C-2.2391015624999966 14.916640625 -2.415703124999993 16.20828125 -2.59765625 17.5390625 C-3.0769834222985253 21.081499278959612 -3.0769834222985253 21.081499278959612 -3 25 C-16.53 25 -30.060000000000002 25 -44 25 C-42.73676629456248 14.894130356499815 -42.73676629456248 14.894130356499815 -39.45703125 10.81640625 C-34.19349688487449 6.925240145415955 -27.3762934839163 6.027335154259163 -21.10400390625 4.55126953125 C-18.422992807353225 3.8488184914137378 -15.960170866972192 2.8276677776708965 -13.4375 1.6875 C-8.802213223721516 -0.3197807083362534 -5.014824135325895 -0.3235370409887679 0 0 Z " fill="#726366" transform="translate(67,103)"/>
<path d="M0 0 C5.939999999999998 0 11.879999999999995 0 18 0 C18 12.21 18 24.42 18 37 C8.594999999999999 37.495 8.594999999999999 37.495 -1 38 C-3.8980891719745188 11.694267515923563 -3.8980891719745188 11.694267515923563 0 0 Z " fill="#997E6A" transform="translate(110,25)"/>
<path d="M0 0 C2.3099999999999987 0.6599999999999966 4.620000000000001 1.3200000000000003 7 2 C6.398590524229498 6.031229852441889 5.487640136301401 9.789863258330648 4.3125 13.6875 C2.695540717101789 19.96005219404475 3.3335706501945452 24.822018020233443 5 31 C5.333333333333332 32.33333333333334 5.666666666666668 33.66666666666666 6 35 C4.774931018981398 35.65357278143672 3.5447048406099135 36.2974823286296 2.3125 36.9375 C1.2857617187500026 37.47697265625 1.2857617187500026 37.47697265625 0.23828125 38.02734375 C-5.885267982585701 40.68836252646395 -11.175086794335929 40 -18 40 C-18 31.42 -18 22.840000000000003 -18 14 C-15.69 13.009999999999998 -13.379999999999999 12.019999999999996 -11 11 C-8.674182424872576 9.385082470737586 -8.674182424872576 9.385082470737586 -6.75 7.5625 C-6.10546875 6.986289062499999 -5.4609375 6.410078124999998 -4.796875 5.81640625 C-2.990356590812935 3.990251771147861 -1.4884192524460822 2.0902183946387893 0 0 Z " fill="#8C8D85" transform="translate(18,48)"/>
<path d="M0 0 C1.2542578125000006 0.00902343749999801 2.508515625000001 0.018046875000003126 3.80078125 0.02734375 C4.753398437499996 0.03894531249999744 5.706015624999992 0.05054687500000199 6.6875 0.0625 C6.6875 3.362499999999997 6.6875 6.662499999999994 6.6875 10.0625 C5.470624999999998 10.619375000000005 4.253749999999997 11.176249999999996 3 11.75 C-4.526636408780931 15.579573806580441 -8.486015065990102 21.21447366579298 -11.3125 29.0625 C-12.01332341009332 33.776629781589946 -12.102063626388201 38.42692823257255 -12.125 43.1875 C-12.150136718750005 44.43015625000001 -12.175273437499996 45.67281249999999 -12.201171875 46.953125 C-12.259571444556641 49.9899026169451 -12.29619821779761 53.02525422574185 -12.3125 56.0625 C-14.526565665003517 52.741401502494725 -15.920983097276633 49.314877444137394 -17.375 45.625 C-17.64376953125 44.95662109375 -17.912539062500002 44.2882421875 -18.189453125 43.599609375 C-20.818909678909776 36.98334587650882 -23.077039414718143 30.530313798066345 -20.3359375 23.58984375 C-19.464610030849073 21.77502365321017 -18.582563802870226 19.965321549403782 -17.69140625 18.16015625 C-15.245474992118758 12.665472149433924 -13.830712052623184 6.87241763154681 -12.3125 1.0625 C-8.156236322207093 0.05323520634856749 -4.268849064167227 -0.039895785646422155 0 0 Z " fill="#6E3F3A" transform="translate(121.3125,61.9375)"/>
</svg>
