<?xml version="1.0" encoding="UTF-8"?>
<!-- Generator: visioncortex VTracer 0.6.0 -->
<svg version="1.1" xmlns="http://www.w3.org/2000/svg" width="128" height="128">
<path d="M0 0 C42.24 0 84.48 0 128 0 C128 42.24 128 84.48 128 128 C85.75999999999999 128 43.519999999999996 128 0 128 C0 85.75999999999999 0 43.519999999999996 0 0 Z " fill="#3487AD" transform="translate(0,0)"/>
<path d="M0 0 C4.674296049128742 1.8697184196514947 6.292556503442938 4.895166311671563 9 9 C11.387278802140358 10.67109516149825 12.967605348531237 10.99577461067799 15.875 11.375 C19.6582876306378 12.131657526127562 21.839262506876963 13.826992973477907 25 16 C30.108501890836138 18.322046314016426 35.50691672564638 19.328084511252882 41 18 C44.12245615427601 15.944555352748107 46.80296562753844 13.691154015525914 49.5546875 11.1640625 C52.77683582709082 8.312512702542634 54.67745689260376 7 59 7 C59 32.08 59 57.16 59 83 C55.7 83.99 52.400000000000006 84.98 49 86 C46.27891892517745 87.36182044384346 43.679313472324125 88.72193373878883 41.0625 90.25 C38.729888749941736 91.61088408594809 36.44156164460482 92.82805041058968 34 94 C32.515 93.505 32.515 93.505 31 93 C30.67 91.35 30.340000000000003 89.7 30 88 C29.310351562500003 88.3609375 28.620703125000006 88.721875 27.91015625 89.09375 C20.697750239087497 92.65543198069753 15.010579602907896 94.6701932009693 7.1875 92.0625 C-2.8297779446338467 82.61763793791665 -1.3002121896454923 62.81716621070345 -2 50 C-2.8701171875 50.485332031249996 -2.8701171875 50.485332031249996 -3.7578125 50.98046875 C-7.08512255424948 52.49340938442354 -10.442239137322268 52.58873978688439 -14 52 C-18.721630302850322 49.88455046824543 -23.17186322673964 47.250753953954316 -27.625 44.625 C-28.279843749999998 44.251171875 -28.934687500000003 43.87734375 -29.609375 43.4921875 C-34.16510715040014 40.79932558114 -37.8996504592661 38.08900209612276 -39.75 32.89453125 C-40.61967922134691 25.651733984720302 -38.68849196539988 20.124013909888077 -34.734375 14.05859375 C-30.004165493951184 8.494373620516264 -23.24829868961932 6.156242046612853 -16.64453125 3.48046875 C-13.191481423619038 2.151448150194863 -13.191481423619038 2.151448150194863 -10.7890625 0.8203125 C-7.351480272870255 -0.7558714906053403 -3.6905979099194752 -0.4166804091844565 0 0 Z " fill="#6095B3" transform="translate(69,14)"/>
<path d="M0 0 C42.24 0 84.48 0 128 0 C128 6.930000000000001 128 13.860000000000001 128 21 C125.77250000000001 22.0209375 125.77250000000001 22.0209375 123.5 23.0625 C119.70749441235189 24.91614037149093 116.96575655086839 26.822433969206454 114 29.8125 C111.03012100167719 32.549330143323644 109.12143517750725 33.52489242740341 105.0625 33.6875 C99.81875474788859 33.30086440537428 95.59098020950239 31.454408650464742 91 29 C86.88767229252747 26.786815454792343 86.88767229252747 26.786815454792343 82.4375 25.625 C78.91002484603874 24.720519191291984 77.33010236904887 22.718452763890344 75 20 C74.505 18.515 74.505 18.515 74 17 C69.63642303678644 14.409126178091947 64.9172010202259 14.466655307775344 60 15 C56.46594202603926 16.01778931662931 53.206571231150434 17.453380174275676 49.875 19 C49.0203515625 19.3622265625 48.165703125 19.724453125 47.28515625 20.09765625 C39.864408917563104 23.460360494345444 34.495059929442974 28.335262428182716 31.0625 35.8125 C28.29907988289746 44.68998712619191 30.208188521820958 52.45658510495698 33.109375 61.02734375 C34.1768482794333 64.59026991512606 34.34175261113225 67.3261594303283 34 71 C33.34 71 32.68 71 32 71 C32 71.66 32 72.32 32 73 C24.527946340793843 75.46418790888714 18.711296612439526 76.34316705019855 10.984375 74.640625 C7.364755998442172 73.86363872217869 3.6734857918941057 73.45918572398676 0 73 C0 48.91 0 24.82 0 0 Z " fill="#316589" transform="translate(0,0)"/>
<path d="M0 0 C0 10.230000000000004 0 20.460000000000008 0 31 C-42.24000000000001 31 -84.48 31 -128 31 C-128 24.069999999999993 -128 17.14 -128 10 C-121.72376976603802 9.850565946810434 -116.1286022732547 9.871875150194057 -110 11.25 C-104.12488620224019 12.377469619152336 -100.36470089312215 11.021327367455655 -94.8828125 8.91015625 C-88.05464109471357 6.754378557003065 -82.29124401281845 8.550410949408459 -76.14990234375 11.7294921875 C-71.5122203247887 14.470180039722877 -67.42951603457595 17.996961692713796 -63.267578125 21.3984375 C-58.946353632530176 24.827106979011546 -55.52799785557532 27.218869868233924 -50 28 C-47.6942028507256 27.3014063439377 -47.6942028507256 27.3014063439377 -45.8125 25.6875 C-45.057109374999996 25.125468749999996 -44.301718750000006 24.563437499999992 -43.5234375 23.984375 C-42.690703125 23.329531250000002 -41.85796875 22.674687500000005 -41 22 C-38.981147218819416 20.476538534518085 -36.960224511977245 18.95581713997285 -34.9375 17.4375 C-33.910117187500006 16.6640625 -32.882734375 15.890625 -31.82421875 15.09375 C-25.802137835440035 10.629247413272282 -19.466537695543536 7.11545088023226 -12.8125 3.6875 C-12.122529296875001 3.3251928710937477 -11.432558593750002 2.9628857421874955 -10.7216796875 2.589599609375 C-10.056845703125006 2.254523925781257 -9.392011718749998 1.9194482421874994 -8.70703125 1.57421875 C-8.113820800781255 1.2708862304687472 -7.520610351562496 0.9675537109374943 -6.909423828125 0.655029296875 C-5 0 -5 0 0 0 Z " fill="#467286" transform="translate(128,97)"/>
<path d="M0 0 C3.648702070078329 1.4594808280313334 4.794393512407581 2.681641567598838 6.9375 6 C9.28066216210405 9.408235872151359 11.22314114304875 10.454921376701762 15 12 C13.485753092314113 16.749228937742107 11.862492754848844 21.400204578301256 9.9375 26 C8.594278096652687 29.244861901344606 7.706444087920261 32.22820133550471 7.125 35.6875 C6.140486806719082 40.66280774461612 3.5374330392460536 43.5079186663853 0 47 C-0.7425000000000068 47.78375 -1.4849999999999994 48.5675 -2.25 49.375 C-5.282169848986655 52.19058628834475 -7.660258254933936 52.16772670295015 -11.734375 52.328125 C-17.417705818156378 51.505021915991136 -22.718059507947316 47.51833542957689 -27.625 44.625 C-28.279843749999998 44.251171875 -28.934687500000003 43.87734375 -29.609375 43.4921875 C-34.16510715040014 40.79932558114 -37.8996504592661 38.08900209612276 -39.75 32.89453125 C-40.61967922134691 25.651733984720302 -38.68849196539988 20.124013909888077 -34.734375 14.05859375 C-30.004165493951184 8.494373620516264 -23.24829868961932 6.156242046612853 -16.64453125 3.48046875 C-13.191481423619038 2.151448150194863 -13.191481423619038 2.151448150194863 -10.7890625 0.8203125 C-7.351480272870255 -0.7558714906053403 -3.6905979099194752 -0.4166804091844565 0 0 Z " fill="#6DA3A9" transform="translate(69,14)"/>
<path d="M0 0 C19.799999999999997 0 39.599999999999994 0 60 0 C60 6.930000000000001 60 13.860000000000001 60 21 C57.77250000000001 22.0209375 57.77250000000001 22.0209375 55.5 23.0625 C51.70749441235192 24.91614037149092 48.96575655086838 26.822433969206465 46 29.8125 C43.03012100167717 32.549330143323644 41.12143517750725 33.52489242740341 37.0625 33.6875 C31.81875474788862 33.30086440537428 27.59098020950239 31.45440865046474 23 29 C18.887672292527483 26.786815454792347 18.887672292527483 26.786815454792347 14.4375 25.625 C10.910024846038809 24.720519191292002 9.33010236904886 22.718452763890326 7 20 C6.670000000000002 19.01 6.340000000000003 18.02 6 17 C1.732456278946458 14.542929372726748 -2.2214118028977907 14.838013959420264 -7 15 C-7 11.642371152493885 -6.605372754410354 11.154840339449066 -4.625 8.625 C-2.324668128201864 5.678960936118178 -1.4827509376632975 3.706877344158233 0 0 Z " fill="#11638B" transform="translate(68,0)"/>
<path d="M0 0 C0.7154296875000057 0.40992187499999844 1.4308593749999972 0.8198437500000004 2.16796875 1.2421875 C9.7301390261905 5.33143352257132 16.45665859134425 7.200784190803169 25 8 C25.170817758271482 11.603982117999195 25.33586607787197 15.208207791107505 25.5 18.8125 C25.547695312499997 19.817324218750002 25.595390624999993 20.822148437500005 25.64453125 21.857421875 C25.871886730128267 26.907961469277808 26.051485427260218 31.95623191824057 26.11328125 37.01171875 C26.123996582031253 37.87627685546875 26.134711914062507 38.7408349609375 26.145751953125 39.631591796875 C25.878066246893823 43.981372426939714 24.256490149221122 47.16043272270895 21.8046875 50.75 C20 52 20 52 16.99609375 51.8125 C8.360144853373072 49.84073559769659 0.14133481822764793 47.83073470686057 -6.5 41.6875 C-10.467162204728368 34.57966771652834 -10.51371011211414 27.842773406968163 -9 20 C-6.853341735790224 12.996793088543363 -3.365365504653738 6.482466340931367 0 0 Z " fill="#2E98D5" transform="translate(85,25)"/>
<path d="M0 0 C1.2724317303654686 2.4796105514814357 2.3519237593956888 4.895805933007203 3.375 7.5 C6.272458469623487 13.740679780727504 10.619696617710503 16.640161762714854 17 19 C24.407995803093755 21.105500963631428 24.407995803093755 21.105500963631428 32 22 C32.44720923166099 30.86136810883835 31.1916164786538 37.25149762958344 27.5 45.25 C23.258938307339804 49.91516786192622 17.668403030964086 52.402687064082656 11.45703125 53.4140625 C8.055284880981802 53.53941998763551 5.419962612684955 53.13998753756165 2.1875 52.0625 C-5.10281699365801 45.18877254883674 -5.335716344922972 34.43528821192743 -6 25 C-6.057363281250005 24.217216796874993 -6.114726562499996 23.43443359375 -6.173828125 22.6279296875 C-7.156933248197518 7.228023485513603 -7.156933248197518 7.228023485513603 -3 2.375 C-2.010000000000005 1.5912500000000023 -1.019999999999996 0.8074999999999974 0 0 Z " fill="#5ABCE2" transform="translate(74,54)"/>
<path d="M0 0 C9.24 0 18.48 0 28 0 C29.760009190155742 1.7600091901557429 29.21414179127747 4.1749409358915575 29.25 6.5625 C29.27578125 7.5744140625 29.3015625 8.586328125 29.328125 9.62890625 C28.925940797138917 13.76087014367993 27.61405978634702 17.22003288353155 26 21 C25.656142578125 21.80606689453125 25.31228515625 22.6121337890625 24.9580078125 23.442626953125 C23.42849364662042 26.985241818925402 21.879261112863105 30.518846200665468 20.31640625 34.046875 C18.06004921298146 39.22813930722776 16.205600795278468 44.32006739795787 14.791015625 49.79541015625 C13.536371917094986 53.29214863846675 11.9616664724467 55.48018028516395 8.6875 57.25 C6.0000000000000036 58 6.0000000000000036 58 0 58 C0 38.86 0 19.72 0 0 Z " fill="#0F3E67" transform="translate(0,0)"/>
<path d="M0 0 C0.03738281249999886 1.1859374999999943 0.07476562499999773 2.371875000000003 0.11328125 3.59375 C0.50095526100651 23.054653758146344 0.50095526100651 23.054653758146344 7 41 C11.014613642619878 43.792422795773916 15.29606995321167 43.7114607853439 20 43 C24.122091147043903 41.57978372244705 28.061661719873527 39.86587938821559 32 38 C32.85834467366868 41.05785289994469 33.359959500034165 42.91307459061608 33 46 C30.869573919042963 49.00376844954812 27.992536388005078 50.901281215440065 25 53 C23.89174870109838 53.80053435746669 22.783686462146676 54.60133049174519 21.67578125 55.40234375 C12.782617788461522 61.739127403846155 12.782617788461522 61.739127403846155 9 63 C3.1743543916038846 61.05336444174769 -1.158166174211317 57.84633131241321 -5.9375 54.0625 C-11.070199191178283 50.00512867040709 -16.056793235503157 46.743078605251526 -22 44 C-23.33522476970949 43.337129698525814 -24.66906735896365 42.67144659299622 -26 42 C-22.875336854090584 39.7898724089909 -20.186795304802878 38.07610179084563 -16.625 36.625 C-11.498416425962034 34.326876328879536 -6.599670430470454 31.888725243373827 -3.79296875 26.8203125 C-2.0869398944184496 22.193001357463743 -1.6609741443371178 18.841570339225512 -3 14 C-5.028378127240657 11.19515906934069 -5.028378127240657 11.19515906934069 -7.5625 8.6875 C-12 4.056162246489862 -12 4.056162246489862 -12 3 C-11.373515624999996 2.8672265624999937 -10.74703125 2.7344531250000017 -10.1015625 2.59765625 C-9.284296874999995 2.4210546875000034 -8.467031250000005 2.244453125000007 -7.625 2.0625 C-6.812890625000001 1.8884765625000028 -6.000781250000003 1.7144531250000057 -5.1640625 1.53515625 C-3.4130796676061266 1.1021514701480868 -1.7565303053255832 0 0 0 Z " fill="#4698AF" transform="translate(68,63)"/>
<path d="M0 0 C2.070171920344196 0.23100630870793282 4.1322588400019455 0.5359432662602046 6.1875 0.875 C7.3154296875 1.0580468750000023 8.443359375 1.2410937500000045 9.60546875 1.4296875 C10.7256640625 1.6178906250000011 11.845859375 1.8060937500000023 13 2 C14.1305078125 2.188203125000001 15.261015624999999 2.3764062500000023 16.42578125 2.5703125 C17.2752734375 2.712109374999997 18.124765625 2.8539062499999943 19 3 C19.2307421875 3.8224218750000034 19.461484375 4.644843750000007 19.69921875 5.4921875 C21.601497169979762 12.003543672737052 23.7396348804628 17.994613616218587 26.94921875 23.9765625 C28 26 28 26 29 29 C30.916666666666668 30.16666666666667 30.916666666666668 30.16666666666667 33 31 C33.66 31.33 34.32 31.659999999999997 35 32 C35 32.66 35 33.31999999999999 35 34 C27.67795836745268 37.14172708346888 22.204057204707006 38.57479363745125 14.375 36.67578125 C9.29421258798757 35.65844765940028 4.163051809093834 35.36916238157659 -1 35 C-1.024651900400903 30.176191981552563 -1.0428369262518282 25.352420333720787 -1.054931640625 20.528564453125 C-1.0599717388353465 18.886305355618234 -1.0668037810637083 17.24405076714875 -1.075439453125 15.601806640625 C-1.087519255322059 13.246245212198517 -1.093231385855704 10.890742912666894 -1.09765625 8.53515625 C-1.1028175354003906 7.796609039306645 -1.1079788208007813 7.058061828613276 -1.1132965087890625 6.2971343994140625 C-1.1134924984699832 4.5310191207224335 -1.0619471864360663 2.7650285442826714 -1 1 C-0.6699999999999999 0.6700000000000017 -0.33999999999999997 0.3400000000000034 0 0 Z " fill="#557F98" transform="translate(1,72)"/>
<path d="M0 0 C13.200000000000003 0 26.400000000000006 0 40 0 C37.85678226953715 6.429653191388525 35.70064266149402 12.640810180853498 29.75048828125 16.43408203125 C27.219034459658936 17.596775913656355 24.679713161971875 18.608851745120376 22.0625 19.5625 C13.909543546981936 22.582786020828518 7.792633102120931 26.151242416109355 3.91064453125 34.281494140625 C3.19296686476412 36.158735636122174 2.5837955331740723 38.07690883189718 2 40 C1.3399999999999999 39.67 0.6799999999999997 39.34 0 39 C0.020624999999999005 37.80375 0.04125000000000156 36.6075 0.0625 35.375 C0.07577423771082437 31.18034088337961 -0.21421148535689838 27.054462175717237 -0.5625 22.875 C-0.9368824946046033 18.023626840748705 -0.8480642793060618 13.805697582734359 0 9 C0 6.029999999999999 0 3.0599999999999996 0 0 Z " fill="#376675" transform="translate(28,0)"/>
<path d="M0 0 C0 15.18 0 30.36 0 46 C-8.04266609543643 46 -10.379557452630252 45.8889203843068 -17 43 C-17.454610385613904 39.00592304067784 -17.731310227823798 35.010589981747735 -18 31 C-18.074121093749994 30.212543945312504 -18.148242187500003 29.425087890625 -18.224609375 28.61376953125 C-19.604575533131353 13.230685242849837 -19.604575533131353 13.230685242849837 -15.6875 7.78515625 C-12.884471736458906 5.485331198663758 -10.209532411539016 3.676487600440769 -7 2 C-5.9249218749999955 1.4005859375000007 -5.9249218749999955 1.4005859375000007 -4.828125 0.7890625 C-3 0 -3 0 0 0 Z " fill="#61A7C3" transform="translate(128,21)"/>
<path d="M0 0 C16.395154148662396 -0.5925959330841835 26.698004360777226 2.706284785041589 38.8359375 13.65625 C40 15 40 15 40 17 C40.66 17 41.32 17 42 17 C42 18.319999999999993 42 19.64 42 21 C28.14 21 14.279999999999998 21 0 21 C0 14.069999999999993 0 7.140000000000001 0 0 Z " fill="#17395B" transform="translate(0,107)"/>
<path d="M0 0 C3.703677966785179 2.6405536539539582 7.211641624147404 5.520968132066457 10.732421875 8.3984375 C15.090273049325234 11.856168368072431 18.496452043266743 13.981843628004356 24 15 C26.3330844777129 14.735003958691195 26.3330844777129 14.735003958691195 28 14 C28 15.319999999999993 28 16.64 28 18 C14.799999999999997 18 1.5999999999999943 18 -12 18 C-12 16.680000000000007 -12 15.36 -12 14 C-12.659999999999997 14 -13.32 14 -14 14 C-14.639375000000001 13.174999999999997 -15.278750000000002 12.349999999999994 -15.9375 11.5 C-19.746965203413296 6.674677409009831 -24.985342246686628 3.4602016721636915 -30 0 C-21.782270238435274 -8.217729761564726 -8.858053753658496 -5.2545555550548215 0 0 Z " fill="#266B7B" transform="translate(54,110)"/>
<path d="M0 0 C5.609999999999999 0 11.219999999999999 0 17 0 C17.33 8.25 17.659999999999997 16.5 18 25 C14 26 14 26 11.4375 24.8125 C9.050065130619586 23.03722791764021 7.548445472506643 21.526411034089797 6 19 C6 18.34 6 17.68 6 17 C1.5034389601732698 14.751719480086635 -2.0787296600471876 14.833177276611769 -7 15 C-7 11.642371152493885 -6.605372754410354 11.154840339449066 -4.625 8.625 C-2.324668128201864 5.678960936118178 -1.4827509376632975 3.706877344158233 0 0 Z " fill="#478394" transform="translate(68,0)"/>
<path d="M0 0 C5.609999999999999 0 11.219999999999999 0 17 0 C17 6.930000000000001 17 13.860000000000001 17 21 C15.473749999999995 21.721875 13.947500000000005 22.44375 12.375 23.1875 C8.005047792612032 25.360061466741175 4.579446322039203 27.70314154549021 1 31 C-0.28183777640585106 28.43632444718829 0.30437497368662036 27.730090000531263 1 25 C1.3085442202515054 18.5659455247553 1.0177855781422664 12.361159863389155 0 6 C0 4.02 0 2.04 0 0 Z " fill="#478394" transform="translate(111,0)"/>
<path d="M0 0 C3.4650000000000034 1.4849999999999994 3.4650000000000034 1.4849999999999994 7 3 C5.485753092314113 7.74922893774211 3.8624927548488444 12.400204578301256 1.9375 17 C0.5703266912809823 20.29971903833689 -0.32651608781286257 23.358960505338175 -0.9375 26.875 C-1.6095822176363583 30.35872892628023 -1.9171824888544649 30.919154334357927 -4.625 33.5625 C-5.408749999999998 34.036875 -6.1924999999999955 34.51125 -7 35 C-6.577134254020962 28.445580937324934 -5.493223152554208 22.208904880386328 -4.0625 15.8125 C-3.8926660156249966 15.052758789062501 -3.722832031249993 14.293017578125003 -3.5478515625 13.51025390625 C-2.5065767791364237 8.959387257816225 -1.3224029942852127 4.47719399410466 0 0 Z " fill="#61A7C3" transform="translate(77,23)"/>
</svg>
