<?xml version="1.0" encoding="UTF-8"?>
<!-- Generator: visioncortex VTracer 0.6.0 -->
<svg version="1.1" xmlns="http://www.w3.org/2000/svg" width="128" height="128">
<path d="M0 0 C42.24 0 84.48 0 128 0 C128 42.24 128 84.48 128 128 C85.75999999999999 128 43.519999999999996 128 0 128 C0 85.75999999999999 0 43.519999999999996 0 0 Z " fill="#7DA7B1" transform="translate(0,0)"/>
<path d="M0 0 C5.232011509420687 3.4535865445956695 7.739113833739239 7.452416654153428 9.078125 13.5703125 C9.359375 14.981770833333329 9.640625 16.39322916666667 9.921875 17.8046875 C11.60909244607815 25.513525831219127 15.47753024955918 29.15558001267597 21.9375 33.3125 C22.543520507812502 33.70493896484375 23.149541015625005 34.0973779296875 23.77392578125 34.501708984375 C29.836933956170498 38.22536595952356 35.44611384883622 39.51185230813937 42.5 40.6875 C42.5 47.61750000000001 42.5 54.5475 42.5 61.6875 C39.86 62.677499999999995 37.22 63.667500000000004 34.5 64.6875 C30.404459649280554 67.39846847078873 28.107293696513395 70.43078055350901 25.5 74.5625 C17.832339398429454 86.33579230427716 10.414457330318214 92.333121893584 -3.5 95.6875 C-7.885134559056439 96.40624212846413 -12.292949056202175 96.86890899721317 -16.71484375 97.29296875 C-20.311234570049834 97.60434576691321 -20.311234570049834 97.60434576691321 -23.0546875 98.21484375 C-31.707177484625127 99.88728989718793 -40.71771890890893 99.79096018041335 -48.41015625 95.234375 C-55.3608211141606 90.08958381082692 -57.47013129592389 84.84995003851793 -58.875 76.443603515625 C-60.871584762502934 62.31152699353396 -60.36480427150915 48.802139227457204 -58.5 34.6875 C-58.4058984375 33.94177734375 -58.311796875 33.1960546875 -58.21484375 32.427734375 C-56.71124297782013 21.214261010644485 -53.04614275354177 10.490739639602705 -44.5625 2.625 C-43.23384265378432 1.6114890831523674 -41.880413793179116 0.6293027828707416 -40.5 -0.3125 C-39.931523437500005 -0.743046875000001 -39.363046874999995 -1.173593750000002 -38.77734375 -1.6171875 C-29.17198422736361 -7.739284778163855 -9.399099807036379 -5.494326725436707 0 0 Z " fill="#507C7B" transform="translate(85.5,17.3125)"/>
<path d="M0 0 C0.7515234374999977 0.027070312500001137 1.5030468749999955 0.054140625000002274 2.27734375 0.08203125 C7.0811675185344285 0.3419239844233317 10.591706967435073 1.1147291875690257 14.75 3.75 C18.918117790495998 10.002176685744004 18.628714030230213 17.47843985992978 17.75 24.75 C16.087697580033804 29.67958648679631 13.850766126057934 34.41381374509477 9.75 37.75 C7.728759765625 37.9228515625 7.728759765625 37.9228515625 5.44140625 37.640625 C4.611894531250002 37.54523437500001 3.7823828125000034 37.44984375 2.927734375 37.3515625 C2.064707031250009 37.235546875 1.2016796874999898 37.119531249999994 0.3125 37 C-0.5466601562499989 36.89945312500001 -1.4058203124999977 36.79890625 -2.291015625 36.6953125 C-8.481533601070225 35.94611094509935 -8.481533601070225 35.94611094509935 -11.304931640625 35.2255859375 C-16.753787041802283 33.89329394283534 -21.478802111460233 34.70007773596333 -26.75 36.25 C-32.77326407140022 37.99949578837351 -37.43666161243852 38.77795056468592 -43.5 36.5625 C-48.99911274181567 32.938084783803305 -52.1121085506865 27.742840654477305 -53.90234375 21.4609375 C-54.627366959582034 17.590152430661192 -54.766183004959714 14.871604427726027 -53.09765625 11.24609375 C-49.68758350519244 6.375707500357208 -45.8940096970304 3.1725254000575944 -40.25 1.25390625 C-35.19137914087398 0.4042160275686797 -30.251433159034967 0.969380499780911 -25.18359375 1.44921875 C-16.407292304771772 2.1202964176093104 -8.590118584688312 -0.4764267450331374 0 0 Z " fill="#436563" transform="translate(84.25,67.25)"/>
<path d="M0 0 C1.0441406249999972 1.0944140625000003 1.0441406249999972 1.0944140625000003 2.109375 2.2109375 C11.007475883587816 11.090266018854507 20.7560723290581 15.959345388176352 33 18 C33 24.930000000000007 33 31.86 33 39 C30.36 39.99000000000001 27.72 40.97999999999999 25 42 C20.904459649280568 44.710968470788714 18.60729369651338 47.74328055350904 16 51.875 C11.071592098018016 59.4423128793492 6.9604509813351285 64.53582649681951 -1 69 C-1.4950000000000045 68.01 -1.4950000000000045 68.01 -2 67 C-0.6454779326387552 64.59196076913557 0.8282384231638531 62.26860044804941 2.31640625 59.94140625 C7.07270984930679 51.689016244365135 7.20998770476956 43.002201164048586 5.375 33.75 C4.2567088993680215 30.7756250563462 4.2567088993680215 30.7756250563462 1.3671875 29.86328125 C-2.231168202385035 28.940732978274838 -5.542777213984635 28.622861139300767 -9.25 28.4375 C-15.80235294117648 28.09882352941176 -15.80235294117648 28.09882352941176 -18 27 C-19.02232879057675 23.933013628269734 -19.16590489774022 21.713351216255383 -19.1875 18.5 C-19.201679687500004 17.5409375 -19.215859374999994 16.581874999999997 -19.23046875 15.59375 C-19 13 -19 13 -17 10 C-14.1015625 9.04296875 -14.1015625 9.04296875 -10.625 8.1875 C-5.046254726927145 6.724198956372092 -5.046254726927145 6.724198956372092 -1.1875 2.75 C-0.7956250000000011 1.8425000000000011 -0.4037500000000023 0.9350000000000023 0 0 Z " fill="#65888B" transform="translate(95,40)"/>
<path d="M0 0 C1.062509765625002 0.011239013671875853 1.062509765625002 0.011239013671875853 2.146484375 0.022705078125 C13.441629655012093 0.2505940552577961 22.302862400223546 1.5553330164216348 30.8125 9.375 C33.91550658662746 14.661603814254171 35.551114404983934 20.489822130867083 35.4375 26.625 C34.21453122764308 30.049312562599397 33.22967032793227 31.7866389723538 30.5 34.25 C23.65734257209033 37.27772452562375 16.68059066564878 38.67631916828017 9.51171875 36.23046875 C4.634620603369953 34.25938268585526 -0.13955855761279423 32.223390599653435 -4.5 29.25 C-4.5 28.590000000000003 -4.5 27.93 -4.5 27.25 C-5.077500000000001 27.023125 -5.655000000000001 26.79625 -6.25 26.5625 C-10.597524090511492 24.02644428053496 -13.164033454242947 20.03721345562944 -14.5 15.25 C-14.969641913076366 11.20448808209655 -14.887183359264718 8.140521726308851 -13.25 4.375 C-9.571688006549294 -0.09152170633300472 -5.500304974289534 -0.0759603024069726 0 0 Z " fill="#42707E" transform="translate(60.5,12.75)"/>
<path d="M0 0 C2.51171875 2.57421875 2.51171875 2.57421875 4.6875 5.6875 C5.442890625000004 6.761289062499998 6.198281250000001 7.8350781249999955 6.9765625 8.94140625 C13 18.046332046332026 13 18.046332046332026 13 21 C15.30034491837938 21.934515123091614 17.60029259177452 22.856556615596503 19.9375 23.6953125 C27.671428571428578 26.478354978354986 27.671428571428578 26.478354978354986 31 29 C31.8125 31.1875 31.8125 31.1875 32 33 C28.51014462286355 34.16328512571215 26.885408044026065 33.76244229287579 23.3125 33.0625 C14.945318818095032 31.59774166359938 8.865710549341003 31.941494861187266 0.67578125 34.3203125 C-4.325537152375475 35.59072038615085 -8.322833244478538 35.61281092990208 -13.25 33.8125 C-18.749112741815672 30.188084783803305 -21.8621085506865 24.992840654477305 -23.65234375 18.7109375 C-24.377366959582037 14.840152430661192 -24.516183004959718 12.121604427726027 -22.84765625 8.49609375 C-19.271176101313458 3.3880385729347466 -15.368435798647802 0.6587662813674626 -9.625 -1.63671875 C-5.870331913588771 -2.1563379941015484 -3.493709500999188 -1.4429686827920278 0 0 Z " fill="#1B5466" transform="translate(54,70)"/>
<path d="M0 0 C12.540000000000001 0 25.080000000000002 0 38 0 C36.874455305617715 6.753268166293721 36.874455305617715 6.753268166293721 34.5234375 10.20703125 C34.02078369140625 10.9546875 33.5181298828125 11.70234375 33.000244140625 12.47265625 C32.46391357421875 13.2448046875 31.9275830078125 14.016953125 31.375 14.8125 C30.83029052734375 15.609140625 30.2855810546875 16.40578125 29.724365234375 17.2265625 C28.163679607461653 19.49462592927083 26.586052409968087 21.749626932421652 25 24 C24.2819921875 25.0248046875 23.563984375 26.049609375 22.82421875 27.10546875 C19.53735080484673 31.57298549141675 18.44815555511898 32.82073777795241 13 35 C8.71 35 4.42 35 0 35 C0 23.45 0 11.899999999999999 0 0 Z " fill="#BBDEE8" transform="translate(0,0)"/>
<path d="M0 0 C7.822148035733747 0 9.754165262980205 0.77414939531171 15 6 C17.874523799456515 9.53425057310227 20.46736128432748 13.215270233882634 23 17 C24.0209375 18.515937500000007 24.0209375 18.515937500000007 25.0625 20.0625 C25.701875 21.031875 26.34125 22.00125 27 23 C27.8701171875 24.156289062500008 27.8701171875 24.156289062500008 28.7578125 25.3359375 C29.394609375 26.194453124999995 30.03140625 27.052968750000005 30.6875 27.9375 C31.2894921875 28.730273437500003 31.891484375 29.523046875000006 32.51171875 30.33984375 C34 33 34 33 35 40 C23.45 40 11.899999999999999 40 0 40 C0 26.799999999999997 0 13.599999999999994 0 0 Z " fill="#8FC1E5" transform="translate(0,88)"/>
<path d="M0 0 C11.549999999999997 0 23.099999999999994 0 35 0 C35 11.88 35 23.76 35 36 C19.47345749398201 34.80565057646015 19.47345749398201 34.80565057646015 13.671875 28.44921875 C10.406921273722958 24.478836408902346 8.111187909036786 20.045640196139672 5.75 15.5 C5.303984374999999 14.6711328125 4.857968749999998 13.842265625 4.3984375 12.98828125 C3.9730468749999943 12.1774609375 3.547656250000003 11.366640625 3.109375 10.53125 C2.727490234374997 9.80486328125 2.3456054687499943 9.0784765625 1.9521484375 8.330078125 C1 6 1 6 0 0 Z " fill="#A9D0D8" transform="translate(93,0)"/>
<path d="M0 0 C0.4962890625000007 0.39832031250000455 0.9925781250000014 0.7966406249999949 1.50390625 1.20703125 C11.12429051115528 8.709835673785236 17.771544520386712 9.748422067735675 30 9 C32.74225181352114 8.633131176299202 35.408429919797626 8.144573275738324 38.11328125 7.56640625 C41.62284237903958 6.877791414126193 45.135814357371316 6.479726645086686 48.6875 6.0625 C54.24159828149692 5.3540690967478355 58.90152587866285 4.289110829988104 64 2 C63.19963448475244 8.883143431129099 61.588765631328656 15.115348930909164 60 22 C41.849999999999994 22 23.699999999999996 22 5 22 C4.009999999999998 19.03 3.020000000000003 16.060000000000002 2 13 C1.3399999999999999 12.010000000000005 0.6799999999999997 11.019999999999996 0 10 C-0.1953125 7.51953125 -0.1953125 7.51953125 -0.125 4.8125 C-0.10695312500000043 3.911445312500007 -0.08890625000000085 3.0103906249999994 -0.0703125 2.08203125 C-0.04710937500000156 1.3949609375000023 -0.023906249999999574 0.7078906250000045 0 0 Z " fill="#589BBC" transform="translate(30,106)"/>
<path d="M0 0 C0.6600000000000001 0 1.3200000000000003 0 2 0 C2.1585546875000006 0.6290625000000034 2.317109375000001 1.2581250000000068 2.48046875 1.90625 C4.4314192286579726 9.063327999054664 6.581203221729361 15.568855624340884 12.8125 20 C18.905895101761615 21.911653365258545 23.510806240201553 21.239599847244364 29.5 19.5 C37.727130861256285 17.12202107982867 44.53078833553053 18.11795521910028 52.86328125 19.4921875 C55.470411074035795 19.914263312110407 58.06400068576244 20.266221388920343 60.6875 20.5625 C64 21 64 21 66 22 C65.78125 23.867187499999986 65.78125 23.867187499999986 65 26 C57.93949969296713 30.427280930229628 48.91805014653312 30.83434498430836 40.8203125 31.60546875 C37.19383545233687 31.91551219823708 37.19383545233687 31.91551219823708 34.44140625 32.52734375 C25.79148472362528 34.20196855750615 16.779795636378736 34.101987931032994 9.08984375 29.546875 C3.9519880146874016 25.743901409002262 0.49754260921577753 21.789789348299138 -0.76171875 15.328125 C-1.2489655096172214 10.56748452898583 -1.3284563646832446 5.774075068070431 -1 1 C-0.6700000000000017 0.6700000000000017 -0.33999999999999986 0.3400000000000034 0 0 Z " fill="#337490" transform="translate(28,83)"/>
<path d="M0 0 C8.996384089995985 1.1245480112495017 8.996384089995985 1.1245480112495017 13.5625 3.8125 C14.4300390625 4.313945312499996 15.297578125 4.815390625000006 16.19140625 5.33203125 C17.1182421875 5.882460937499999 18.045078125 6.432890624999999 19 7 C20.84271484375 7.699960937499995 20.84271484375 7.699960937499995 22.72265625 8.4140625 C25.32540628312577 9.899877380457156 25.908535294776115 10.70907972065045 26.821533203125 13.613037109375 C27.33216354847157 16.932521390771456 27.641217283949494 20.212242851437537 27.875 23.5625 C28.078907982405273 25.834799578928752 28.28455648864423 28.10694383728017 28.4921875 30.37890625 C28.5680810546875 31.38510009765625 28.643974609375 32.3912939453125 28.72216796875 33.427978515625 C28.920256709369664 36.11495995178336 28.920256709369664 36.11495995178336 30 39 C30.068549499373038 40.89470816267078 30.08480372476354 42.7916833950993 30.0625 44.6875 C30.0534765625 45.6813671875 30.044453125 46.675234375 30.03515625 47.69921875 C30.0235546875 48.45847656250001 30.011953125 49.21773437499999 30 50 C25.918160257915158 46.22266695270656 23.114068566374264 42.26672691159861 20.1875 37.5625 C14.934907327361833 29.368790178838225 14.934907327361833 29.368790178838225 7 24 C4.6899999999999995 23.67 2.38 23.340000000000003 0 23 C0 15.409999999999997 0 7.819999999999993 0 0 Z " fill="#78A4BA" transform="translate(0,65)"/>
<path d="M0 0 C11.879999999999995 0 23.760000000000005 0 36 0 C37.31999999999999 3.3000000000000003 38.64 6.6000000000000005 40 10 C41.20730122253697 12.355709702511154 42.45224743457459 14.692884328132592 43.75 17 C47 22.78991596638656 47 22.78991596638656 47 25 C39.95263070897482 24.265899032184876 34.0888618244166 22.53558314384519 28.25 18.4375 C19.49765144947915 12.77821443238166 7.122551186860534 13.52548762991899 -3 13 C-2.009999999999998 8.71 -1.0200000000000031 4.42 0 0 Z " fill="#70A4B4" transform="translate(57,0)"/>
<path d="M0 0 C6.269999999999996 0 12.54 0 19 0 C17.819236209335216 10.626874115983036 17.819236209335216 10.626874115983036 15 14 C12.511718749999986 15.554687500000007 12.511718749999986 15.554687500000007 9.6875 16.875 C0.6792631637019824 21.55121253425747 -2.8770271502378364 27.93310837906286 -7 37 C-11.509137108177221 35.85061210968032 -15.074250571644082 34.47478159127791 -19 32 C-15.860349222685539 26.99943038447597 -12.70861787981912 22.016923998860786 -9.37890625 17.140625 C-8.933374023437501 16.48521728515625 -8.487841796875 15.8298095703125 -8.02880859375 15.154541015625 C-7.15093030856946 13.867124680768864 -6.267345378488027 12.583576668706328 -5.37744140625 11.304443359375 C-4.968002929687501 10.70253173828125 -4.558564453125001 10.1006201171875 -4.13671875 9.48046875 C-3.7728002929687534 8.95348388671875 -3.4088818359374997 8.4264990234375 -3.033935546875 7.883544921875 C-1.6060164536109625 5.415704277591312 -1.6060164536109625 5.415704277591312 0 0 Z " fill="#7BA9AB" transform="translate(38,0)"/>
</svg>
