<?xml version="1.0" encoding="UTF-8"?>
<!-- Generator: visioncortex VTracer 0.6.0 -->
<svg version="1.1" xmlns="http://www.w3.org/2000/svg" width="128" height="128">
<path d="M0 0 C42.24 0 84.48 0 128 0 C128 42.24 128 84.48 128 128 C85.75999999999999 128 43.519999999999996 128 0 128 C0 85.75999999999999 0 43.519999999999996 0 0 Z " fill="#637B63" transform="translate(0,0)"/>
<path d="M0 0 C7.32359481670364 0.13997432282987177 12.504934171635224 2.275560670330517 18.7333984375 5.91845703125 C24.554074862632078 9.315864294605099 29.173491456930243 11.965948403509472 35.9951171875 10.31689453125 C38.57004672236651 9.129407218023132 41.03355173379157 7.796075818675398 43.5263671875 6.44580078125 C49.23105300354467 3.8371707166346365 54.32802169933507 4.868743186677346 60.0576171875 6.94189453125 C71.5982353607784 12.073030919061473 84.80475163462552 23.629744884981605 89.9951171875 35.31689453125 C92.2497639478187 43.354452066126626 94.64266160522281 52.374261278081555 91.9326171875 60.50439453125 C87.69686372056461 66.65306891873685 81.41844276980588 67.91648404827336 74.453125 69.242919921875 C73.394482421875 69.43233154296875 72.33583984375 69.6217431640625 71.2451171875 69.81689453125 C69.01587564333123 70.24228357481054 66.78670974016953 70.66806919243365 64.5576171875 71.09423828125 C62.37029870605858 71.50276344739538 60.18280532863035 71.91035357662551 57.9951171875 72.31689453125 C54.40775933665377 72.98535000844392 50.82524398409082 73.67333373955654 47.2451171875 74.37939453125 C46.478447265625 74.51732421875 45.71177734375 74.65525390625 44.921875 74.79736328125 C40.30412179812353 75.71548863544143 37.33836441314608 76.97983850416993 33.9951171875 80.31689453125 C32.76740157697802 82.05748033760662 32.76740157697802 82.05748033760662 31.9951171875 83.94189453125 C31.668984375 84.63798828125 31.3428515625 85.33408203125 31.0068359375 86.05126953125 C30.315105305422 87.60031882316213 29.630529856478816 89.15257785179294 28.9521484375 90.70751953125 C26.198000089718207 96.68580741244187 22.86811313402643 100.97766629282098 18.1787109375 105.60205078125 C15.202165052503268 109.06535015543935 15.202165052503268 109.06535015543935 11.9951171875 117.31689453125 C4.735117187499998 117.31689453125 -2.5248828125000014 117.31689453125 -10.0048828125 117.31689453125 C-10.027430428718075 102.20964477873623 -10.045862333470886 87.10240360513825 -10.056694984436035 71.99514102935791 C-10.061857792339987 64.98104819163744 -10.068900198570368 57.96696652696309 -10.080322265625 50.952880859375 C-10.091329689008907 44.19021385615886 -10.097159007217096 37.42756088743604 -10.099760055541992 30.664884567260742 C-10.101614847304194 28.078371726275073 -10.105236480371085 25.49185955706497 -10.110612869262695 22.905351638793945 C-10.117819323092261 19.296505978940402 -10.118873921493547 15.687709059741593 -10.118408203125 12.078857421875 C-10.122003479003906 10.997767028808596 -10.125598754882812 9.916676635742188 -10.129302978515625 8.802825927734375 C-10.127928314208985 7.825409393310547 -10.126553649902343 6.84799285888672 -10.125137329101563 5.8409576416015625 C-10.126520018577576 4.5592044973373405 -10.126520018577576 4.5592044973373405 -10.127930641174316 3.2515573501586914 C-9.816475048890606 -1.645412881858503 -3.7772296862815384 0.008029066409195096 0 0 Z " fill="#565849" transform="translate(10.0048828125,10.68310546875)"/>
<path d="M0 0 C0.5426953125000011 0.48082031250000057 1.0853906250000023 0.9616406250000011 1.64453125 1.45703125 C1.64453125 2.1170312499999966 1.64453125 2.777031249999993 1.64453125 3.45703125 C2.5301171874999966 3.861152343750007 2.5301171874999966 3.861152343750007 3.43359375 4.2734375 C6.254003909718122 5.783303716244859 8.333529998344474 7.758923455219644 10.66796875 9.921875 C13.15444307956497 11.956293312860709 13.15444307956497 11.956293312860709 18.64453125 14.45703125 C18.64453125 24.027031249999993 18.64453125 33.59703125 18.64453125 43.45703125 C-16.335468750000004 43.45703125 -51.31546875000001 43.45703125 -87.35546875 43.45703125 C-84.03721837292609 33.50228011877827 -84.03721837292609 33.50228011877827 -79.60546875 29.33203125 C-74.96327422356683 24.541178383564613 -72.28167642156427 19.920423173509306 -69.7763671875 13.75927734375 C-67.67124206834518 8.665748277883182 -65.22891656756312 3.81376007162595 -60.044677734375 1.365966796875 C-57.27475649981883 0.429751022362737 -54.585063886953535 -0.20705902443692992 -51.71484375 -0.76171875 C-50.6436328125 -0.9718359375000034 -49.572421875 -1.1819531250000068 -48.46875 -1.3984375 C-47.3588671875 -1.6111328125000028 -46.248984375 -1.8238281250000057 -45.10546875 -2.04296875 C-42.91258445501023 -2.469147676588122 -40.71987281806091 -2.8962160696479913 -38.52734375 -3.32421875 C-37.47699951171876 -3.528454589843747 -36.42665527343749 -3.7326904296874943 -35.344482421875 -3.943115234375 C-31.980203168357576 -4.6182793384256655 -28.63678229878259 -5.363391172266773 -25.297119140625 -6.150634765625 C-16.0057251992923 -8.028073476013745 -7.842261811108017 -5.13713667560144 0 0 Z " fill="#87B1B9" transform="translate(109.35546875,84.54296875)"/>
<path d="M0 0 C22.439999999999998 0 44.879999999999995 0 68 0 C68 17.82 68 35.64 68 54 C59.7542372881356 51.64406779661017 59.7542372881356 51.64406779661017 57 49 C57 48.34 57 47.68 57 47 C56.34 47 55.68000000000001 47 55 47 C53.415383951558596 45.007996838915815 51.92166653317351 43.001975928258176 50.4375 40.9375 C39.76413454359391 26.75017526817651 23.214752160564117 18.51754417440491 6.46875 13.23046875 C3.260512595755138 11.631426372884285 2.4238402776910632 10.272094484309273 1 7 C0.6700000000000017 4.6899999999999995 0.3400000000000034 2.38 0 0 Z " fill="#B89531" transform="translate(60,0)"/>
<path d="M0 0 C30.873015873015873 0 30.873015873015873 0 39 8 C40.768520454601756 10.311571572455009 41.80796956705981 12.30497467335261 43 15 C43.495 15.990000000000002 43.495 15.990000000000002 44 17 C44.373628936900644 22.604434053509692 44.23200076493214 26.204127897197466 41 31 C39.39545169655852 32.46540048308884 37.72056968973342 33.810979087744784 36.0234375 35.16796875 C33.54700540998293 37.41014375042086 31.575021081637278 39.88320720250863 29.5 42.5 C23.270039318051726 50.250742329898614 16.430487709594395 56.34698140919558 7 60 C4.6899999999999995 60 2.38 60 0 60 C0 40.2 0 20.4 0 0 Z " fill="#534B19" transform="translate(0,42)"/>
<path d="M0 0 C6.22466009905888 3.04611026124158 10.920665361237155 8.85999560053726 15.6796875 13.75 C18.013748936740086 16.15573648061914 18.013748936740086 16.15573648061914 21.25 18.125 C26.229765518875098 21.520294671960286 29.76407695863469 26.220067842935634 31.375 32.0625 C32.409336167683094 38.578817856403504 32.867309890281206 43.386163062495015 29 49 C21.155282005699718 54.58181857286752 12.381367804132353 54.67254034075796 3 54 C-1.7555641034152245 53.10178800827731 -6.64728225162726 52.17635887418638 -11 50 C-12.945499929411021 44.16350021176693 -12.395785358643778 38.732164681137576 -10.5 32.9375 C-8.083315135343994 25.373741120716048 -8.381898794463936 21.071572306853966 -11.6875 13.9375 C-14.074360743474017 8.640814642290806 -14.074360743474017 8.640814642290806 -13.734375 5.7109375 C-11.014094429845315 -0.769730917133213 -6.3577810119470115 -1.0340352370477426 0 0 Z " fill="#3C474A" transform="translate(71,25)"/>
<path d="M0 0 C4.433594574927781 3.1315769276072274 7.240153266893657 8.091081609440536 10.0625 12.625 C10.627109375000003 13.468046874999999 11.191718750000007 14.311093749999998 11.7734375 15.1796875 C15.236555368601515 21.74911715377135 10.982113581757488 30.226288060808344 9.0625 36.625 C-1.8275000000000006 36.625 -12.717500000000001 36.625 -23.9375 36.625 C-25.257499999999993 31.674999999999997 -26.5775 26.724999999999994 -27.9375 21.625 C-28.515 20.160624999999996 -29.0925 18.696249999999992 -29.6875 17.1875 C-31.222311768237958 12.813286460521823 -31.550754920336573 10.224411902524295 -30.9375 5.625 C-24.166858993399117 -2.2035536638822606 -9.24741213901639 -4.414488600299677 0 0 Z " fill="#B6E0E7" transform="translate(92.9375,91.375)"/>
<path d="M0 0 C0.9861328125000028 0.4292578124999977 1.9722656250000057 0.8585156249999955 2.98828125 1.30078125 C5.480507951775365 2.581158209667521 7.591392716971811 3.8303788204999734 9.6875 5.6875 C9.6875 6.347499999999997 9.6875 7.007499999999993 9.6875 7.6875 C10.277890624999998 7.9569140625000045 10.868281249999995 8.226328124999995 11.4765625 8.50390625 C14.29697265971808 10.013772466244845 16.37649874834449 11.989392205219659 18.7109375 14.15234375 C21.19741182956497 16.18676206286071 21.19741182956497 16.18676206286071 26.6875 18.6875 C26.6875 28.257499999999993 26.6875 37.8275 26.6875 47.6875 C18.1075 47.6875 9.527500000000003 47.6875 0.6875 47.6875 C1.6875 39.687499999999986 1.6875 39.687499999999986 2.75 37.0625 C3.96633043833765 33.98112955621127 4.001718967111458 32.002510103025884 3.6875 28.6875 C2.4263172509374726 26.11937730463005 1.1904572792957424 23.922103354530066 -0.375 21.5625 C-0.74560546875 20.9553515625 -1.1162109375 20.348203124999998 -1.498046875 19.72265625 C-5.089016399007846 14.182303270102182 -9.093619296052083 11.639340797118336 -15.49609375 9.74609375 C-16.569882812499998 9.541132812499995 -17.643671874999995 9.336171875000005 -18.75 9.125 C-19.9475390625 8.890390624999995 -21.145078124999998 8.655781250000004 -22.37890625 8.4140625 C-23.689998709791013 8.171304753045575 -25.001202297702292 7.929146638246877 -26.3125 7.6875 C-27.80092470994545 7.404399046523338 -29.289202521769425 7.120524836113162 -30.77734375 6.8359375 C-34.61976012302637 6.1050316336256145 -38.46516128740536 5.392012673345249 -42.3125 4.6875 C-37.52427180572466 2.0684052462395073 -32.4185280445008 1.209931409772068 -27.125 0.0625 C-26.121464843750005 -0.16695312500000625 -25.117929687499995 -0.3964062499999983 -24.083984375 -0.6328125 C-15.523182599844233 -2.5042694918362685 -8.209019596987048 -3.685904163415387 0 0 Z " fill="#7D9898" transform="translate(101.3125,80.3125)"/>
<path d="M0 0 C10.573304797859862 0.2106434646750337 19.35477632351543 5.536960361285651 27.992919921875 11.314697265625 C29.564513971349562 14.457885364574125 28.24492352161672 16.753732906683915 27.305419921875 20.064697265625 C26.971552734375003 21.276416015625 26.637685546874998 22.488134765625 26.293701171875 23.736572265625 C24.941482912204798 27.45618765859168 23.47710111333344 30.23597178159116 20.992919921875 33.314697265625 C18.11165290920263 34.36853415964341 15.748747402285002 34.35491522233402 12.727294921875 34.010009765625 C11.514931640625 33.876591796875 11.514931640625 33.876591796875 10.278076171875 33.740478515625 C9.441474609375 33.641220703125 8.604873046875 33.541962890625 7.742919921875 33.439697265625 C6.511220703124998 33.302412109375 6.511220703124998 33.302412109375 5.254638671875 33.162353515625 C0.1620342633177323 32.58933463605675 -4.923060635731931 31.95898544380846 -10.007080078125 31.314697265625 C-10.031736297902349 27.06055103788711 -10.04991906328455 22.806442286495383 -10.06201171875 18.55224609375 C-10.067051087495138 17.103996540510316 -10.073882609225072 15.6557520979582 -10.08251953125 14.20751953125 C-10.094602548178074 12.129951385322936 -10.10031219112238 10.052450294018293 -10.104736328125 7.974853515625 C-10.112591552734376 6.097454833984376 -10.112591552734376 6.097454833984376 -10.12060546875 4.18212890625 C-9.887090596606289 -1.7160047998314916 -4.883981365289478 0.005185305212647151 0 0 Z " fill="#32553D" transform="translate(10.007080078125,10.685302734375)"/>
<path d="M0 0 C19.8 0 39.6 0 60 0 C61.333333333333336 4 62.666666666666664 8 64 12 C61.37532365927055 13.479743495058177 58.75027506774904 14.958819427652465 56.125 16.4375 C55.3786328125 16.85837890625 54.632265625 17.2792578125 53.86328125 17.712890625 C53.1478515625 18.11572265625 52.432421875 18.5185546875 51.6953125 18.93359375 C51.0354736328125 19.30540771484375 50.375634765625 19.6772216796875 49.69580078125 20.060302734375 C45.40945062378047 22.435505981726024 41.862154604461765 22.610036676271562 37 22 C33.85871591977489 20.84632158968657 31.062034180524087 19.264492834649932 28.1875 17.5625 C26.72473606368361 16.7268177161727 25.259956546923494 15.894651392797817 23.79296875 15.06640625 C23.15899169921875 14.69459228515625 22.5250146484375 14.3227783203125 21.871826171875 13.939697265625 C17.314346084250822 11.65174358657642 12.747874035438674 11.880103920087718 7.75 11.9375 C7.004921875 11.94201171875 6.25984375 11.9465234375 5.4921875 11.951171875 C3.6614235978654355 11.962907541039325 1.830701270833138 11.980841498328491 0 12 C0 8.04 0 4.08 0 0 Z " fill="#879561" transform="translate(0,0)"/>
<path d="M0 0 C8.59972595522189 1.2285322793174132 11.808519955733072 3.879441734494563 17.8125 9.75 C21.913268000225063 15.842569600334379 23.706314029589418 22.654334092270062 23 30 C21.999999999999996 33.437500000000014 21.999999999999996 33.437500000000014 21 36 C20.34 36 19.68 36 19 36 C18.61328125 36.87398437499999 18.61328125 36.87398437499999 18.21875 37.765625 C16.901659834069385 40.180290304206125 15.449116158666168 41.81740177488186 13.5 43.75 C12.8915625 44.36359375000001 12.283125 44.9771875 11.65625 45.609375 C10 47 10 47 8 47 C8 47.66 8 48.31999999999999 8 49 C5.359999999999999 49.99000000000001 2.7199999999999998 50.97999999999999 0 52 C0 34.84 0 17.68 0 0 Z " fill="#72670E" transform="translate(0,43)"/>
<path d="M0 0 C4.745232282218282 1.2220218957824613 9.365708193470468 1.9911078970558407 14.24072265625 2.511474609375 C14.24072265625 2.8414746093749983 14.24072265625 3.1714746093749966 14.24072265625 3.511474609375 C10.616034499041547 4.304573418466617 6.9909152559571055 5.095685047183991 3.36572265625 5.886474609375 C2.3525195312500102 6.108193359375008 1.339316406249992 6.329912109375002 0.29541015625 6.558349609375 C-5.362466631196462 7.791476601510766 -11.0200306339298 8.969578614643709 -16.71728515625 10.007568359375 C-19.92170899829238 10.79833005353754 -21.570142462646324 12.064794448141484 -23.75927734375 14.511474609375 C-25.742946025425567 17.83296635543641 -27.257304802047493 21.36088586210184 -28.80224609375 24.902099609375 C-31.594537737246718 30.963183176828622 -35.079587920281405 35.21593873236053 -39.66552734375 40.038818359375 C-42.61571278933013 43.52289930536796 -44.2785889013911 47.22472625177652 -45.75927734375 51.511474609375 C-46.41927734375 51.511474609375 -47.07927734375 51.511474609375 -47.75927734375 51.511474609375 C-49.53978360468366 33.54205757595214 -45.411018247081145 23.98572209508319 -34.75927734375 9.511474609375 C-34.18048828125 8.680029296875006 -33.60169921875 7.848583984374997 -33.00537109375 6.991943359375 C-24.12166145700799 -5.310106450788993 -13.2124850954269 -3.4111849531432767 0 0 Z " fill="#677C75" transform="translate(67.75927734375,76.488525390625)"/>
<path d="M0 0 C1.2168750000000017 -0.12375 2.4337500000000034 -0.2475 3.6875 -0.375 C4.7142382812500045 -0.47941406249999996 4.7142382812500045 -0.47941406249999996 5.76171875 -0.5859375 C8.773215499781259 0.20241243449771196 9.701015045546427 2.0357875133737124 11.537841796875 4.4228515625 C14.17110468013199 7.263205248564475 17.556582499329778 8.547674615481101 21.0625 10.0625 C22.196311035156242 10.57707763671875 22.196311035156242 10.57707763671875 23.35302734375 11.10205078125 C27.562729770794945 12.996372174944678 31.816849914305408 14.716215681290384 36.125 16.375 C44.738018384990326 19.863212716251283 53.43442499792721 25.434424997927216 60 32 C62.64 33.32 65.28 34.64 68 36 C68 41.94 68 47.88 68 54 C59.7542372881356 51.64406779661017 59.7542372881356 51.64406779661017 57 49 C57 48.34 57 47.68 57 47 C56.34 47 55.68000000000001 47 55 47 C53.415383951558596 45.007996838915815 51.92166653317351 43.001975928258176 50.4375 40.9375 C39.76413454359391 26.75017526817651 23.214752160564117 18.51754417440491 6.46875 13.23046875 C3.334552313252509 11.668329080181234 2.450975772789974 10.14771942891897 1 7 C0.3125 3.1875000000000018 0.3125 3.1875000000000018 0 0 Z " fill="#99813D" transform="translate(60,0)"/>
<path d="M0 0 C0.6599999999999966 0.3299999999999983 1.3200000000000003 0.6599999999999966 2 1 C0.5786599801396477 4.034938593131756 -1.1025664256392957 6.659820154668154 -3.0625 9.375 C-14.395200089953775 24.02391526721371 -14.395200089953775 24.02391526721371 -19.1640625 41.26171875 C-19.1751806640625 41.96643310546875 -19.186298828125 42.671147460937505 -19.19775390625 43.397216796875 C-19.183828042931783 46.93206510248217 -19.082825904386105 50.46609474619288 -19 54 C-25.6 54 -32.2 54 -39 54 C-39 45.42 -39 36.84 -39 28 C-36.03 27.340000000000003 -33.06 26.680000000000007 -30 26 C-19.43846813929239 21.579509221207587 -12.703314747804246 14.030049111175344 -5.64404296875 5.32861328125 C-2.1912459078317923 1.0956229539158926 -2.1912459078317923 1.0956229539158926 0 0 Z " fill="#586641" transform="translate(39,74)"/>
<path d="M0 0 C3.653361175113446 0.8487896560085204 6.887475295472342 2.34947300357271 10.23876953125 4.005615234375 C11.335238037109377 4.539649658203125 11.335238037109377 4.539649658203125 12.453857421875 5.08447265625 C14.707749983657507 6.201077748123037 16.944582644735092 7.3453158770435465 19.17626953125 8.505615234375 C20.2063916015625 9.040495605468749 20.2063916015625 9.040495605468749 21.25732421875 9.586181640625 C30.679333430986517 14.586317557201564 37.517164083859 20.048551316188437 44.17626953125 28.505615234375 C45.05025390624999 29.594228515624998 45.05025390624999 29.594228515624998 45.94189453125 30.704833984375 C47.17626953125 32.505615234375 47.17626953125 32.505615234375 47.17626953125 34.505615234375 C47.83626953125 34.505615234375 48.49626953124999 34.505615234375 49.17626953125 34.505615234375 C49.73314453124999 35.103740234375 50.29001953125001 35.701865234375 50.86376953125 36.318115234375 C53.78630059955313 39.08267165033742 56.43681480166977 40.06736341530568 60.17626953125 41.505615234375 C60.17626953125 43.815615234375 60.17626953125 46.125615234375 60.17626953125 48.505615234375 C50.24565728031729 48.174594826010576 41.06506661099566 44.070384143162165 33.72705078125 37.310302734375 C31.875947890853524 35.15612254454334 30.504742145494973 32.88325174004175 29.05126953125 30.443115234375 C21.846202111802498 18.580718199203556 10.88245088155287 8.005065791899135 -2.82373046875 4.505615234375 C-5.489560537938473 4.0880170814602295 -8.137617771363118 3.7834889616908853 -10.82373046875 3.505615234375 C-7.195180940082814 -0.23632646706303895 -5.113074236580175 -0.7985168411907662 0 0 Z " fill="#7C744D" transform="translate(67.82373046875,12.494384765625)"/>
<path d="M0 0 C0 5.939999999999998 0 11.879999999999995 0 18 C-8.579999999999998 18 -17.159999999999997 18 -26 18 C-24.875 9 -24.875 9 -23.4375 5 C-23.168085937499995 4.236874999999998 -22.898671875000005 3.4737499999999955 -22.62109375 2.6875 C-22.416132812499995 2.130624999999995 -22.211171875000005 1.573750000000004 -22 1 C-21.359335937500006 1.0116015625000045 -20.718671875 1.0232031249999949 -20.05859375 1.03515625 C-13.292809613668183 1.1057382007516026 -6.735393547828494 0 0 0 Z " fill="#9CC0A8" transform="translate(128,110)"/>
</svg>
