<?xml version="1.0" encoding="UTF-8"?>
<!-- Generator: visioncortex VTracer 0.6.0 -->
<svg version="1.1" xmlns="http://www.w3.org/2000/svg" width="128" height="128">
<path d="M0 0 C42.24 0 84.48 0 128 0 C128 42.24 128 84.48 128 128 C85.75999999999999 128 43.519999999999996 128 0 128 C0 85.75999999999999 0 43.519999999999996 0 0 Z " fill="#75786F" transform="translate(0,0)"/>
<path d="M0 0 C9.884587215740225 7.30599924641669 11.086949102389909 20.16455512566749 13.33447265625 31.46044921875 C13.81501075426661 33.829280655856266 14.337030038490852 36.18161343843397 14.88671875 38.53515625 C17.167217031227366 48.67873005292533 17.68754685166259 56.538064684587056 12.94921875 65.96484375 C11.838464403182712 68.08056339379792 11.838464403182712 68.08056339379792 11.14453125 70.25390625 C9.367765390840717 75.00698040115199 7.013655657379957 77.01826412731424 2.5625 79.4375 C-4.439455087688373 82.58837978945976 -11.587254948972358 83.89584286964885 -19.125 85.125 C-21.104452362759417 85.51940216250469 -23.08365020988657 85.91508556846753 -25.0625 86.3125 C-37.20687157019644 88.42612219068316 -46.36180061659809 85.8702355130587 -56.57421875 79.0234375 C-60.15074211386846 76.36158397038274 -63.22758827637203 73.50805743866788 -66.125 70.125 C-67.11500000000001 68.9803125 -67.11500000000001 68.9803125 -68.125 67.8125 C-70.42269008512883 61.63745789621626 -68.11727110277818 55.014640297583824 -66.5 48.875 C-64.96978892664714 42.72500882900091 -65.23414322604535 37.46522589073717 -66.09375 31.21875 C-66.13063079104231 27.567551686811015 -65.32177633572717 25.993302751150864 -63.125 23.125 C-61.791666666666664 22.45833333333333 -60.458333333333336 21.79166666666667 -59.125 21.125 C-58.011250000000004 19.6709375 -58.011250000000004 19.6709375 -56.875 18.1875 C-52.0434790173847 12.14946773309731 -43.720186135244994 11.530921791155876 -36.5 10.5625 C-28.63029592514718 9.566906858929073 -28.63029592514718 9.566906858929073 -21.125 7.125 C-20.795 6.134999999999998 -20.465000000000003 5.145 -20.125 4.125 C-19.465000000000003 4.125 -18.805000000000007 4.125 -18.125 4.125 C-18.125 3.465 -18.125 2.8049999999999997 -18.125 2.125 C-11.75552539583515 -1.059737302082425 -7.0630282615568944 -1.9776479132359341 0 0 Z " fill="#4A4D59" transform="translate(91.125,24.875)"/>
<path d="M0 0 C42.24 0 84.48 0 128 0 C128 5.94 128 11.88 128 18 C124.74479166666667 17.967447916666668 121.48958333333333 17.934895833333332 118.234375 17.90234375 C114.48531570769745 17.928214868718165 114.48531570769745 17.928214868718165 111 19 C108.37858174392342 22.636747770345952 107.62033387160888 25.223468168947633 107.55859375 29.67578125 C107.53216796875 30.75150390625 107.5057421875 31.8272265625 107.478515625 32.935546875 C107.45821289062499 34.607138671875 107.45821289062499 34.607138671875 107.4375 36.3125 C107.32370074220582 43.524001114290954 107.1016354793708 50.07051113026736 105 57 C102.60780858457748 53.41171287686622 102.03653846954515 49.957101673098 101.1875 45.8125 C99.76890651541511 39.266999480107124 98.01101392753165 34.459435623584746 94 29 C94 28.34 94 27.68 94 27 C89.04553330372202 25.01821332148881 85.25894116514836 24.660713473216234 80 25 C77.74867483164233 25.915689061101304 77.74867483164233 25.915689061101304 76 27 C75.01 27 74.02 27 73 27 C73 27.66 73 28.32 73 29 C66.18838538439306 35.81161461560695 56.589565615681146 36.57720075578555 47.471923828125 37.734619140625 C39.849653898804675 38.82492335494084 35.732792603255675 41.96160943722552 31 48 C29.515 48.495 29.515 48.495 28 49 C26.301175521375512 51.49759981539579 26.301175521375512 51.49759981539579 25 54 C22.1953125 53.17578125 22.1953125 53.17578125 19 51 C17.44057493794007 47.52464414635317 16.68593623639119 43.899092774251976 15.875 40.1875 C14.001310216628156 30.85189464366837 14.001310216628156 30.85189464366837 9 23 C6.029999999999999 22.01 3.0599999999999996 21.02 0 20 C0 13.399999999999999 0 6.799999999999999 0 0 Z " fill="#647B99" transform="translate(0,0)"/>
<path d="M0 0 C0 36.300000000000004 0 72.60000000000001 0 110 C-12.210000000000008 110 -24.42 110 -37 110 C-35.87857300315967 102.15001102211772 -35.87857300315967 102.15001102211772 -33.86328125 99.53515625 C-33.451425781249995 98.96216796875 -33.039570312500004 98.3891796875 -32.615234375 97.798828125 C-31.744370818369134 96.63811193033007 -30.86405414733339 95.484430382621 -29.974609375 94.337890625 C-27.564443507043322 90.97255393966242 -27.564443507043322 90.97255393966242 -27.27392578125 86.98779296875 C-27.691439445713215 85.62300665453343 -28.124415537712864 84.2628512590449 -28.572998046875 82.907958984375 C-29.29149350726594 79.69752901127313 -27.867726555109314 77.73084115724875 -26.25 75 C-21.056452054274843 65.51612983824103 -20.532300871723663 58.523173015138354 -22.58984375 47.9765625 C-22.787070312499992 46.953046875 -22.984296875 45.92953125 -23.1875 44.875 C-23.387304687500006 43.944296875 -23.587109374999997 43.01359375 -23.79296875 42.0546875 C-24.010817786611327 38.84038662018761 -23.359799074899684 36.438478218252946 -22.496337890625 33.36474609375 C-21.24637491935107 27.409438007296806 -21.637637768769764 21.08580140111593 -21.609375 15.0234375 C-21.38251300872787 4.537372125644055 -21.38251300872787 4.537372125644055 -17 0 C-13 -1 -13 -1 0 0 Z " fill="#648CA6" transform="translate(128,18)"/>
<path d="M0 0 C3.738036816972212 3.12774509175226 5.228063253496202 5.780840302301499 6 10.5 C6.23693232428009 14.771961604444044 5.550974097264401 17.46155205863326 3 21 C-0.5255457628131239 24.03360914474618 -2.2116028244326458 25.001573647057022 -6.9140625 24.9921875 C-9.058294653394682 25.131865978512316 -9.058294653394682 25.131865978512316 -11 26 C-13.236731119069134 28.991729506153234 -14.409703777578187 32.323413161167025 -15.6875 35.8125 C-19.987010391540494 47.02278305757622 -19.987010391540494 47.02278305757622 -25 50 C-30.52437349949801 52.23099699018189 -35.28041341344644 52.40902224303784 -41 51 C-46.64884882462833 48.33544866762816 -48.852729301113015 44.63796204015455 -51 39 C-53.22965649625428 31.768285179912112 -52.25041240753145 24.173018736707263 -50.359375 16.9921875 C-49.832385451859075 14.794972067259678 -49.832385451859075 14.794972067259678 -50.6875 11.8125 C-51 9 -51 9 -49.0625 5.8125 C-39.11057493791873 -4.545074181459583 -12.65543549613345 -4.961505961552319 0 0 Z " fill="#11334F" transform="translate(83,37)"/>
<path d="M0 0 C11.22 0 22.44 0 34 0 C34.99 1.98 35.98 3.96 37 6 C39.658217100510605 8.764296186681213 42.851438582358995 10.822759490284849 46 13 C46.6337353515625 13.4410205078125 47.267470703125 13.882041015625 47.92041015625 14.33642578125 C59.57957347573317 22.5675454692127 59.57957347573317 22.5675454692127 73 27 C73 27.66 73 28.32 73 29 C66.18838538439306 35.81161461560695 56.589565615681146 36.57720075578555 47.471923828125 37.734619140625 C39.849653898804675 38.82492335494084 35.732792603255675 41.96160943722552 31 48 C29.515 48.495 29.515 48.495 28 49 C26.301175521375512 51.49759981539579 26.301175521375512 51.49759981539579 25 54 C22.1953125 53.17578125 22.1953125 53.17578125 19 51 C17.44057493794007 47.52464414635317 16.68593623639119 43.899092774251976 15.875 40.1875 C14.001310216628156 30.85189464366837 14.001310216628156 30.85189464366837 9 23 C6.029999999999999 22.01 3.0599999999999996 21.02 0 20 C0 13.399999999999999 0 6.799999999999999 0 0 Z " fill="#7A5C4A" transform="translate(0,0)"/>
<path d="M0 0 C8 1 8 1 10.83203125 3.5703125 C13.320140303947754 7.063455139991952 14.551193518543311 10.774925066908857 15.6875 14.875 C15.88666015625 15.544023437500002 16.0858203125 16.213046875000003 16.291015625 16.90234375 C17.10467077537803 19.671438983089814 17.87704943361514 22.424961012778986 18.480712890625 25.248291015625 C18.89971188337773 27.186513229645506 19.441481394927123 29.097285498389788 20 31 C21.010625 31.391875 22.021250000000002 31.783749999999998 23.0625 32.1875 C26 34 26 34 26.7890625 36.2890625 C27.801294709524615 43.97011867815737 26.48218854122575 51.050600400309946 24.875 58.5625 C24.67543701171875 59.52647705078125 24.4758740234375 60.490454101562506 24.270263671875 61.483642578125 C23.25805712815566 65.77729029834308 22.633791429712986 68.35833538482474 19.484375 71.546875 C18.66453125 72.02640625 17.8446875 72.5059375 17 73 C16.13375 73.556875 15.2675 74.11375 14.375 74.6875 C10.999999999999996 76 10.999999999999996 76 0 77 C0 51.59 0 26.18 0 0 Z " fill="#65ADB8" transform="translate(0,20)"/>
<path d="M0 0 C2 3 2 3 3 6 C2.4974175282318 7.8763078946012754 1.9948273334377618 9.752613721071377 1.4921875 11.62890625 C-0.15896352986170825 19.58326081449252 1.0125153156066276 26.569986277156374 4 34 C4.329999999999998 34.99000000000001 4.659999999999997 35.97999999999999 5 37 C7.247437563837593 38.15020524877929 7.247437563837593 38.15020524877929 10 39 C11.361249999999998 39.5878125 11.361249999999998 39.5878125 12.75 40.1875 C17.060913132504453 41.265228283126106 20.699570310000304 41.10208144385297 25 40 C28.308594718770884 38.04543223060172 28.308594718770884 38.04543223060172 31 36 C31.990000000000002 36 32.98 36 34 36 C38.28797867553686 40.533006028424694 38.40062210945146 44.313463886929526 38.23828125 50.4140625 C38 53 38 53 37.453125 55.1328125 C36.784423596327855 57.888323456511074 37.43926743167202 60.258640777063164 38 63 C27.513684548664614 65.99609012895297 18.906951304426556 65.68180462095465 9.1640625 60.48828125 C3.390060089569076 56.96851265734006 -1.59613937626996 53.14200771691206 -6 48 C-6.66 47.236875 -7.32 46.473749999999995 -8 45.6875 C-10.297690085128842 39.51245789621623 -7.992271102778179 32.889640297583824 -6.375 26.75 C-4.844788926647144 20.6000088290009 -5.10914322604534 15.34022589073718 -5.96875 9.09375 C-6.0058259350517815 5.423232429873536 -5.269765048353499 3.847523424298025 -3 1 C-2.009999999999998 0.6700000000000017 -1.0199999999999996 0.3400000000000034 0 0 Z " fill="#395558" transform="translate(31,47)"/>
<path d="M0 0 C1.3602609775012873 1.3058505384012307 2.683649759454802 2.649897189184415 4 4 C4.543984375000001 4.478242187500001 5.087968750000002 4.956484375000002 5.6484375 5.44921875 C14.553481719338677 14.101499705470985 15.824765208902399 27.247652089023973 17 39 C4.460000000000001 39 -8.080000000000002 39 -21 39 C-21 28.769999999999996 -21 18.539999999999992 -21 8 C-16.71 7.010000000000005 -12.42 6.019999999999996 -8 5 C-3.358062543240848 2.531966086873709 -3.358062543240848 2.531966086873709 0 0 Z " fill="#689478" transform="translate(21,89)"/>
<path d="M0 0 C2.3842605218760298 4.230139635586504 3.2243024335158026 7.596622561566576 2.9375 12.4375 C1.6751541601054214 16.373048794965456 0.3770956919452999 18.059243241814514 -2.75 20.75 C-6.942627570009023 22.88586687528762 -9.336818818125764 23.512510812410703 -14.0625 23.4375 C-16.749999999999986 21.250000000000014 -16.749999999999986 21.250000000000014 -19.0625 18.4375 C-23.74021211161427 14.521275906555495 -25.777504801042795 13.306146572696107 -31.875 13.4453125 C-33.032578125 13.462070312500003 -34.19015625 13.478828125 -35.3828125 13.49609375 C-37.83609087545354 13.540367351255526 -40.28924071101193 13.592452267890948 -42.7421875 13.65234375 C-43.899765625 13.666523437500004 -45.05734375 13.680703125 -46.25 13.6953125 C-47.3160546875 13.717387695312496 -48.382109375 13.739462890625 -49.48046875 13.76220703125 C-50.3325390625 13.655053710937501 -51.184609375 13.547900390625003 -52.0625 13.4375 C-54.0625 10.4375 -54.0625 10.4375 -54.0625 7.5625 C-52.74024019947703 3.430438123365711 -50.807807196629724 1.4269731989658823 -47.0625 -0.5625 C-34.213639449125324 -4.905522991249363 -11.289702261784043 -9.446485565982563 0 0 Z " fill="#2E2628" transform="translate(86.0625,39.5625)"/>
<path d="M0 0 C5.074566410129876 3.7507664770525153 8.741274265956875 9.870820675937928 9.875 16.125 C10.871540182015679 23.627523941746574 9.27887948796382 30.671409917827397 7.5625 37.9375 C7.349643554687503 38.84491943359375 7.136787109375007 39.75233886718749 6.91748046875 40.687255859375 C5.50397298131071 46.388122058715936 4.141961589315827 51.85803841068417 -0.125 56.125 C-2.546875 56.48828125 -2.546875 56.48828125 -5.125 56.125 C-6.890624999999986 54.480468750000014 -6.890624999999986 54.480468750000014 -8.375 52.3125 C-8.875156250000003 51.60480468750001 -9.375312500000007 50.897109375 -9.890625 50.16796875 C-11.125 48.125 -11.125 48.125 -12.125 45.125 C-13.957844431230043 43.9998391518115 -13.957844431230043 43.9998391518115 -16.125 43.125 C-17.45833333333333 42.45833333333334 -18.79166666666667 41.79166666666666 -20.125 41.125 C-19.795 39.80500000000001 -19.465000000000003 38.485 -19.125 37.125 C-18.533320312499995 37.09921875 -17.941640625000005 37.0734375 -17.33203125 37.046875 C-12.110393545619857 36.672075556292455 -8.821901981367319 36.15798397967343 -5.125 32.125 C-2.693621366545301 28.256897628594793 -3.059557086049267 24.788431502480265 -3.4453125 20.40625 C-4.3986541734954585 17.206528521141706 -5.742303851912752 15.460042225125505 -8.125 13.125 C-11.165018121969027 12.131635366131263 -11.165018121969027 12.131635366131263 -14.5 11.875 C-15.600859374999999 11.74609375 -16.701718749999998 11.6171875 -17.8359375 11.484375 C-19.464023437500003 11.306484374999997 -19.464023437500003 11.306484374999997 -21.125 11.125 C-23.127065082378593 10.804303076049194 -25.12784141525664 10.474955280710319 -27.125 10.125 C-23.375 7.125 -23.375 7.125 -21.125 7.125 C-20.795 6.134999999999998 -20.465000000000003 5.145 -20.125 4.125 C-19.465000000000003 4.125 -18.805000000000007 4.125 -18.125 4.125 C-18.125 3.465 -18.125 2.8049999999999997 -18.125 2.125 C-11.75552539583515 -1.059737302082425 -7.0630282615568944 -1.9776479132359341 0 0 Z " fill="#493B47" transform="translate(91.125,24.875)"/>
<path d="M0 0 C0 11.219999999999999 0 22.439999999999998 0 34 C-12.210000000000008 34 -24.42 34 -37 34 C-35.87216773757186 26.105174163003042 -35.87216773757186 26.105174163003042 -34.03125 23.0625 C-33.6295458984375 22.398310546874995 -33.227841796875 21.734121093750005 -32.81396484375 21.0498046875 C-32.3803564453125 20.373369140625 -31.946748046875 19.696933593750003 -31.5 19 C-31.052211914062497 18.295205078125008 -30.604423828124993 17.59041015625 -30.14306640625 16.8642578125 C-26.521625494082087 11.377845038267466 -22.712062696051134 7.35453863786276 -17 4 C-16.332265625000005 3.5733203125000017 -15.664531249999996 3.1466406250000034 -14.9765625 2.70703125 C-9.441946276254527 -0.4977959309435249 -7.021349330730061 0 0 0 Z " fill="#9DC3BB" transform="translate(128,94)"/>
<path d="M0 0 C15.18 0 30.36 0 46 0 C46.495000000000005 4.455 46.495000000000005 4.455 47 9 C47.495000000000005 9.99 47.495000000000005 9.99 48 11 C48.22950319282796 13.204364000248798 48.41075933417309 15.413921726522211 48.5625 17.625 C48.6462890625 18.813515625 48.730078125000006 20.00203125 48.81640625 21.2265625 C48.87699218750001 22.141796875 48.937578125 23.05703125 49 24 C43.18342492902332 27.161182103791678 38.44866847893316 27.69312242703697 32 26 C26.48488504438123 23.64466277713859 21.458878130023272 20.53425657324316 16.5 17.1875 C15.52716064453125 16.531649169921874 15.52716064453125 16.531649169921874 14.53466796875 15.862548828125 C1.3743889576138315 6.871944788069184 1.3743889576138315 6.871944788069184 0 0 Z " fill="#957E87" transform="translate(34,0)"/>
<path d="M0 0 C8.25 0 16.5 0 25 0 C26.3968343669559 6.984171834779497 27.308376842637767 12.874349584365135 27.30078125 19.83984375 C27.305066375732423 20.728617095947264 27.309351501464842 21.617390441894532 27.313766479492188 22.533096313476563 C27.319459623250566 24.390952079237554 27.32004754877995 26.248830112694503 27.315673828125 28.106689453125 C27.31248041579041 30.954967608475176 27.336149193671435 33.80223791714469 27.361328125 36.650390625 C27.36359824987462 38.463540362414214 27.3643059506481 40.27669288100405 27.36328125 42.08984375 C27.372490997314454 42.93981430053711 27.381700744628905 43.78978485107422 27.391189575195313 44.66551208496094 C27.344259119545523 50.60526880847471 27.344259119545523 50.60526880847471 25.476730346679688 52.74659729003906 C24.98940933227539 53.16022018432617 24.502088317871095 53.57384307861328 24 54 C21.691406250000004 53.17578125000001 21.691406250000004 53.17578125000001 19 51 C17.560906081367808 47.50219156398943 16.772932245376733 43.86959026666042 15.9375 40.1875 C14.014295550871514 30.85538435654988 14.014295550871514 30.85538435654988 9 23 C6.029999999999999 22.01 3.0599999999999996 21.02 0 20 C0 13.399999999999999 0 6.799999999999999 0 0 Z " fill="#8C9376" transform="translate(0,0)"/>
<path d="M0 0 C0 15.18 0 30.36 0 46 C-10.700325732899017 44.811074918566774 -10.700325732899017 44.811074918566774 -15 41 C-20.621974323704563 33.443091423963516 -21.230666313492904 27.43470657530161 -21.3125 18.1875 C-21.341503906249997 17.10662109375 -21.370507812499994 16.0257421875 -21.400390625 14.912109375 C-21.449925327889446 8.705030066776978 -21.43337360353405 4.573129689109553 -17 0 C-13 -1 -13 -1 0 0 Z " fill="#90B1C7" transform="translate(128,18)"/>
<path d="M0 0 C7.999999999999999 1 7.999999999999999 1 10.83203125 3.57421875 C13.305824197667576 7.048298004677569 14.55635339611905 10.733678476828942 15.6875 14.8125 C15.9905908203125 15.874163818359378 15.9905908203125 15.874163818359378 16.2998046875 16.957275390625 C16.693951603689708 18.349725537407032 17.082375397476206 19.74381161753685 17.46435546875 21.1396484375 C17.91059348432398 22.689481472447 18.446655500932884 24.213095485023942 19.00390625 25.7265625 C20.171724059359576 29.1872163225001 20.44731185930986 31.019108994227665 18.90625 34.3984375 C14.819167588097443 40.355552902254196 9.956201350429822 43.26094966239254 3 45 C2.01 45 1.02 45 0 45 C0 30.15 0 15.299999999999997 0 0 Z " fill="#B6E0C3" transform="translate(0,20)"/>
</svg>
