<?xml version="1.0" encoding="UTF-8"?>
<!-- Generator: visioncortex VTracer 0.6.0 -->
<svg version="1.1" xmlns="http://www.w3.org/2000/svg" width="128" height="128">
<path d="M0 0 C42.24 0 84.48 0 128 0 C128 42.24 128 84.48 128 128 C85.75999999999999 128 43.519999999999996 128 0 128 C0 85.75999999999999 0 43.519999999999996 0 0 Z " fill="#455F60" transform="translate(0,0)"/>
<path d="M0 0 C6.599999999999994 0 13.200000000000003 0 20 0 C20 42.24 20 84.48 20 128 C-22.24000000000001 128 -64.48 128 -108 128 C-108 116.78 -108 105.56 -108 94 C-104.04 93.01 -100.08 92.02 -96 91 C-92.39517923104232 89.50040962297246 -92.39517923104232 89.50040962297246 -89.4375 87.8125 C-84.28467153284673 85 -84.28467153284673 85 -81 85 C-80.95875 84.319375 -80.9175 83.63875 -80.875 82.9375 C-79.64955095946605 78.8234925067789 -77.31702255161218 75.7299389141587 -74 73 C-71.16514364056451 72.03377886141428 -69.63940821566638 71.78309827313083 -66.7890625 72.75 C-61.09430876916481 76.03938843658351 -55.02917939197685 79.9416412160463 -52 86 C-51.04067401474668 94.01722430533135 -52.43115047812621 99.39148551300399 -57 106 C-55.741875 106.144375 -54.48375 106.28875 -53.1875 106.4375 C-50.57332877397169 106.73748686200325 -48.52560107594055 107.15813297468648 -46 108 C-37.894840295460526 108.99280068670062 -31.90028872869206 106.80728746253942 -25.3515625 102.09375 C-22.839934874212105 100.11980218853034 -20.392972928818708 98.11606587142518 -18 96 C-17.287148437499994 95.4134765625 -16.574296875 94.826953125 -15.83984375 94.22265625 C-13.37902448733469 91.24981939128118 -12.761935842587988 88.1027268662406 -11.875 84.4375 C-9.838025749511047 76.93676225133892 -6.877791340892529 72.73073088675676 -1.20703125 67.33203125 C1.0799904156766473 64.91547915370096 2.172375421149198 63.21033992687988 3 60 C2.2577917864451393 58.44811009893075 1.5115034685472608 56.898006937094515 0.7421875 55.359375 C-1.1076723009406777 49.47876805385175 -0.7416401880443573 41.54881650484344 0.50439453125 35.58642578125 C0.9958456266330984 33.02168050810292 1.1292333544549678 30.701413182809617 1.1328125 28.09375 C1.1341015625000068 27.1849609375 1.1353906249999994 26.276171875 1.13671875 25.33984375 C1.1328515624999937 24.4026953125 1.1289843750000017 23.465546875 1.125 22.5 C1.1288671875000063 21.5628515625 1.1327343749999983 20.625703125 1.13671875 19.66015625 C1.1354296874999932 18.7513671875 1.1341406250000006 17.842578125 1.1328125 16.90625 C1.1311206054687517 15.673583984375 1.1311206054687517 15.673583984375 1.12939453125 14.416015625 C1.0629940892999912 11.99100923067237 1.0629940892999912 11.99100923067237 0.49169921875 9.630859375 C0 7.000000000000012 0 7.000000000000012 0 0 Z " fill="#686564" transform="translate(108,0)"/>
<path d="M0 0 C2.080691329962022 1.6845597113730975 4.063961119830083 3.438842494259724 6.03515625 5.25 C8.857623787098362 7.763847826282436 11.887536500946283 9.860181344400573 15 12 C14.5784765625 12.9062109375 14.156953125000001 13.812421874999998 13.72265625 14.74609375 C13.168609682056228 15.9762649432311 12.615261878223976 17.206751012558527 12.0625 18.4375 C11.244589843749992 20.22994140625 11.244589843749992 20.22994140625 10.41015625 22.05859375 C7.342426044632916 29.855658836204142 7.87247821873197 36.36380511043545 10.25 44.25 C10.719051827239895 45.907098924965425 11.186492565484969 47.56465470065072 11.65234375 49.22265625 C11.882924804687491 50.02848144531251 12.11350585937501 50.834306640625 12.35107421875 51.66455078125 C13.758509246715334 56.72983425661357 14.866632058230493 61.8675939547511 16 67 C7.872477314731796 74.79442749324902 0.38185750926504625 81.31182443169203 -11.37109375 81.234375 C-16.072299318966422 80.8152482033611 -20.512031154812604 79.40930610465698 -25 78 C-24.06647507395772 75.59950733303413 -23.151220319394767 73.27534022312739 -21.91015625 71.015625 C-20.022691301071603 66.83565970537747 -20.21158680723795 62.447143165423455 -21 58 C-24.157423877245932 52.139031927862234 -29.239998341972928 48.88358085059508 -35.08203125 46.0078125 C-37.00000000000001 45 -37.00000000000001 45 -39 43 C-37.515 42.504999999999995 -37.515 42.504999999999995 -36 42 C-36.350625 41.071875000000006 -36.70125 40.14375 -37.0625 39.1875 C-40.522126484245106 26.535873221848185 -33.51245134325422 14.00910769698622 -28 3 C-27.690624999999997 2.092500000000001 -27.38125 1.1849999999999987 -27.0625 0.25 C-26 -2 -26 -2 -24.1875 -3.25 C-15.611384107994489 -6.190382591544747 -7.55336148528707 -4.990613838493246 0 0 Z " fill="#396845" transform="translate(76,28)"/>
<path d="M0 0 C2.9206902389893656 1.7279780896012795 5.4495442485710015 3.768351217499628 8 6 C8.6084375 6.516914062500007 9.216875000000002 7.033828124999999 9.84375 7.56640625 C13.293083417698064 10.942522684775227 14.439927319550229 13.593104847415248 14.6875 18.4375 C14.343027488861594 23.874174849706122 13.105906971035864 28.249874195072636 9 32 C6.045820178410473 33.36164600995109 3.2213697537769335 33.709830816072 0 34 C-0.9990234375 34.1069921875 -1.998046875 34.213984374999995 -3.02734375 34.32421875 C-5.683623532760066 34.58745368342667 -8.337562868378114 34.8108923158848 -11 35 C-12.70695732698859 40.655718610088854 -14.393346980060826 46.31492008329215 -16 52 C-16.66 52 -17.32 52 -18 52 C-18 52.99000000000001 -18 53.97999999999999 -18 55 C-25.92 55 -33.84 55 -42 55 C-42 43.78 -42 32.56 -42 21 C-36.06 19.515 -36.06 19.515 -30 18 C-26.39517923104232 16.500409622972455 -26.39517923104232 16.500409622972455 -23.4375 14.8125 C-18.284671532846716 12 -18.284671532846716 12 -15 12 C-14.958749999999998 11.319375000000008 -14.9175 10.638750000000002 -14.875 9.9375 C-13.634473224510515 5.772874396571012 -11.064379093420023 3.023737460881293 -8 0 C-4.932563458275325 -1.5337182708623374 -3.2984030428057594 -0.9162230674460403 0 0 Z " fill="#905F3D" transform="translate(42,73)"/>
<path d="M0 0 C10.626989732167118 5.622534905199103 10.626989732167118 5.622534905199103 13 12 C13.989999999999995 12.495000000000005 13.989999999999995 12.495000000000005 15 13 C15 12.340000000000003 15 11.680000000000007 15 11 C16.53124999999997 9.710937500000014 16.53124999999997 9.710937500000014 18.5 8.375 C19.1496875 7.928984374999999 19.799374999999998 7.482968749999998 20.46875 7.0234375 C21.226718750000003 6.516835937500005 21.226718750000003 6.516835937500005 22 6 C22.989999999999995 6.4950000000000045 22.989999999999995 6.4950000000000045 24 7 C23.443124999999995 7.598124999999996 22.886250000000004 8.196249999999992 22.3125 8.8125 C19.118968780149103 13.214394384118805 17.129956217265928 18.015553278447356 15 23 C14.340000000000003 23 13.680000000000007 23 13 23 C13 26.299999999999997 13 29.599999999999994 13 33 C-13.400000000000006 33 -39.800000000000004 33 -67 33 C-67 32.00999999999999 -67 31.019999999999996 -67 30 C-66.34 30 -65.68 30 -65 30 C-64.87625 28.576875 -64.87625 28.576875 -64.75 27.125 C-64.5056859478952 25.74897832722587 -64.25491213858311 24.374097813695585 -64 23 C-63.9162109375 22.146640625000003 -63.832421875 21.293281250000007 -63.74609375 20.4140625 C-63.03986546943919 17.04589685424844 -62.42819826673063 15.48580151028446 -60 13 C-51.01335515313722 9.417365817987559 -40.368047668027245 8.960275407728133 -31.30859375 12.2109375 C-24.97861438380687 14.374483746989867 -19.24007738324744 13.296629515272556 -13.34765625 10.41796875 C-8.55596445485503 7.5238187971919785 -3.964371674049545 3.964371674049545 0 0 Z " fill="#7E8F7F" transform="translate(91,95)"/>
<path d="M0 0 C7.92 0 15.84 0 24 0 C22.689165601798454 7.209589190108511 21.48346396379004 12.968622120311329 18.875 19.5625 C16.521534245622703 25.896872643536284 15.050451944271071 31.189044192857935 16 38 C16.0734765625 38.8623828125 16.146953125 39.724765625 16.22265625 40.61328125 C16.863936523327528 45.65122689385949 16.863936523327528 45.65122689385949 19.69140625 49.71484375 C20.95662015159981 50.678451105359855 22.224746691673023 51.63824907933672 23.49609375 52.59375 C25 54 25 54 25.6875 57.1875 C23.50331156620541 69.29981767831545 18.085916295707115 79.72150370412889 8 87 C5.999999999999995 88 5.999999999999995 88 0 88 C0 58.959999999999994 0 29.919999999999995 0 0 Z " fill="#5266AC" transform="translate(0,0)"/>
<path d="M0 0 C6.599999999999994 0 13.200000000000003 0 20 0 C20 26.73 20 53.46 20 81 C14 80 14 80 12.17578125 77.8203125 C10.896461686050017 74.75164563896384 10.497879835898374 72.17744145395869 10.1875 68.875 C9.802887974254588 65.7328241898482 9.802887974254588 65.7328241898482 9 63 C6.132972557654142 61.10801200820309 6.132972557654142 61.10801200820309 3 60 C-1.3880985369910377 53.564122145746474 -0.4318167481801396 45.49035974727847 0 38 C0.16645019531250682 37.2035205078125 0.33290039062499943 36.407041015625 0.50439453125 35.58642578125 C0.9958456266330984 33.02168050810296 1.1292333544549678 30.70141318280958 1.1328125 28.09375 C1.1341015625000068 27.1849609375 1.1353906249999994 26.276171875 1.13671875 25.33984375 C1.1328515624999937 24.4026953125 1.1289843750000017 23.465546875 1.125 22.5 C1.1288671875000063 21.5628515625 1.1327343749999983 20.625703125 1.13671875 19.66015625 C1.1354296874999932 18.7513671875 1.1341406250000006 17.842578125 1.1328125 16.90625 C1.1316845703125011 16.08447265625 1.1305566406250023 15.2626953125 1.12939453125 14.416015625 C1.0629940892999628 11.99100923067237 1.0629940892999628 11.99100923067237 0.49169921875 9.630859375 C0 7.000000000000001 0 7.000000000000001 0 0 Z " fill="#AC866A" transform="translate(108,0)"/>
<path d="M0 0 C3.7793530699541193 0.46718813589376396 7.497868311639266 0.7749350452422874 11.3046875 0.8984375 C12.278574218749995 0.9313085937500034 13.252460937500004 0.9641796875000068 14.255859375 0.998046875 C16.250524016433125 1.0596025139674055 18.245326109102933 1.116845146316166 20.240234375 1.169921875 C25.685480236054687 1.3616813637946166 30.384628648923282 1.8703717150825838 35.54296875 3.65234375 C35.54296875 4.312343749999997 35.54296875 4.972343749999993 35.54296875 5.65234375 C36.53296875000001 5.982343749999998 37.52296874999999 6.312343749999997 38.54296875 6.65234375 C41.97692907502757 13.60517001248715 44.99144089866299 21.0348748430485 42.54296875 28.65234375 C38.608544702433306 34.85204224919599 33.37771577813203 37.37409474062265 26.54296875 39.65234375 C19.483672095787895 40.41710088753965 13.240429408687937 38.75547158300856 6.54296875 36.65234375 C7.476493676042267 34.251851083034154 8.39174843060524 31.927683973127372 9.6328125 29.66796875 C11.520277448928397 25.488003455377466 11.33138194276205 21.099486915423455 10.54296875 16.65234375 C7.385544872754068 10.791375677862234 2.302970408027072 7.535924600595081 -3.5390625 4.66015625 C-5.45703125 3.65234375 -5.45703125 3.65234375 -7.45703125 1.65234375 C-4.122460098589556 -0.5707036842736244 -3.730806428182241 -0.5306832745272061 0 0 Z " fill="#476B26" transform="translate(44.45703125,69.34765625)"/>
<path d="M0 0 C1.5554769000426774 2.2144951505280446 2.09590408814573 3.3777929891033054 1.6796875 6.078125 C1.4141406250000017 6.794843749999998 1.1485937500000034 7.5115625 0.875 8.25 C0.5836718750000003 9.037617187500004 0.29234375000000057 9.825234375 -0.0078125 10.63671875 C-1.2167225902618384 13.516209319324446 -2.597514593186837 16.27603426254899 -4.01953125 19.0546875 C-8.39444030752341 27.734785948791476 -10.3549761140237 37.38384753440323 -8 47 C-8.603281250000002 47.412499999999994 -9.206562499999997 47.825 -9.828125 48.25 C-10.627343750000001 48.8275 -11.426562500000003 49.405 -12.25 50 C-13.433359374999995 50.8353125 -13.433359374999995 50.8353125 -14.640625 51.6875 C-16.928609654721797 53.930028005952494 -17.567028355349237 55.116221238315944 -18.75390625 57.97265625 C-21.115629131280397 63.03785306102057 -24.66546066513395 64.45261838942434 -29.6875 66.4375 C-30.45255859375 66.77458984375 -31.2176171875 67.1116796875 -32.005859375 67.458984375 C-37.36426914884858 69.71159303308798 -42.20818862485123 70.59001135828957 -48 71 C-48 69.02 -48 67.04 -48 65 C-46.845 64.814375 -45.69 64.62875 -44.5 64.4375 C-37.721324041866644 62.65615481876213 -33.7313833936245 58.714428188825835 -30.01171875 52.8828125 C-25.81127622987119 45.07329410853899 -23.799637131463193 37.84536876285209 -23 29 C-21.18767237688869 9.620297137403234 -21.18767237688869 9.620297137403234 -17 4 C-11.680356239273394 0.36759678560486364 -6.367322301578987 -1.76117425362823 0 0 Z " fill="#70664F" transform="translate(48,23)"/>
<path d="M0 0 C-0.0721874999999983 0.5478515625 -0.1443749999999966 1.095703125 -0.21875 1.66015625 C-1.5140781454273622 12.72441749219199 -2.392758638777792 23.567198232902747 2 34 C1.3967187500000051 34.6406640625 0.793437499999996 35.281328125 0.171875 35.94140625 C-7.479054308051019 44.22168619468101 -11.021814325094098 50.21785544884514 -13.97265625 61.109375 C-14.996483528303884 63.99010574503755 -15.818669387307068 64.99559417939253 -18 67 C-20.429232956235992 60.91981458907014 -22.143796249262607 54.87283342138245 -23.625 48.5 C-23.841562499999995 47.60152343749999 -24.058125000000004 46.703046875 -24.28125 45.77734375 C-26.707850891141533 35.48675848941829 -27.372827021869014 28.874125533252602 -23 19 C-22.682890625 18.20078125 -22.365781249999998 17.401562499999997 -22.0390625 16.578125 C-18.39324806521809 8.628604803858991 -11.022801005023439 4.183523214683802 -3.1875 0.77734375 C-1 0 -1 0 0 0 Z " fill="#534C35" transform="translate(110,28)"/>
<path d="M0 0 C8.909999999999997 0 17.82 0 27 0 C26.046708051422662 8.579627537196068 24.890971099052337 14.9036812109942 20 22 C17.440269609393695 23.628552878432988 15.176168964566045 24.474772103414697 12.2734375 25.3203125 C9.288996899855661 26.212567937156553 7.820939276837073 27.496208494349027 6 30 C3.471580163193096 35.11430376081397 3.293562486543806 40.43384910747282 2.7890625 46.025390625 C2.204491618075803 51.7955083819242 2.204491618075803 51.7955083819242 0 54 C-4.432174323664196 51.08471956250965 -7.3044777030298285 48.571008416882144 -8.4375 43.25 C-8.80859375 40.95312500000001 -8.80859375 40.95312500000001 -9 38 C-9.04962890625 37.2737744140625 -9.0992578125 36.547548828125 -9.150390625 35.79931640625 C-9.404544357042832 29.174462237847795 -8.014624530703943 24.010266156212108 -5.625 17.875 C-4.988781148937804 16.18617516364385 -4.3559185261519175 14.496081820283282 -3.7265625 12.8046875 C-3.3023803710937507 11.70616455078125 -3.3023803710937507 11.70616455078125 -2.86962890625 10.58544921875 C-1.7041315596411017 7.120368673947018 -0.886671477291685 3.5466859091667375 0 0 Z " fill="#57475A" transform="translate(24,0)"/>
<path d="M0 0 C1.6860937499999977 0.13535156250000568 1.6860937499999977 0.13535156250000568 3.40625 0.2734375 C6.5 0.625 6.5 0.625 8.406494140625 1.131591796875 C10.678580990050861 1.6670888840691305 12.7577706990987 1.800018768356324 15.08984375 1.87109375 C16.390185546875003 1.9204003906250051 16.390185546875003 1.9204003906250051 17.716796875 1.970703125 C19.526569429672605 2.0317650848489706 21.336472620592673 2.089073812144406 23.146484375 2.142578125 C33.25495240473492 2.5403129472538666 33.25495240473492 2.5403129472538666 37.25 6.25 C38.5 8.625 38.5 8.625 39.5 16.625 C19.039999999999992 16.625 -1.4200000000000017 16.625 -22.5 16.625 C-21.535089161509276 10.835534969055644 -20.693435046728926 6.964376836557236 -15.8203125 3.39453125 C-10.207176895538325 0.05796781129637907 -6.429632183245573 -0.5456339238075429 0 0 Z " fill="#6DA1B2" transform="translate(51.5,111.375)"/>
<path d="M0 0 C4.390767644872646 1.6684917050516077 7.607804533934669 4.109953967192837 11.125 7.1875 C11.7334375 7.704414062500007 12.341875000000002 8.221328125 12.96875 8.75390625 C16.41808341769807 12.130022684775241 17.564927319550222 14.780604847415248 17.8125 19.625 C17.468027488861594 25.061674849706122 16.230906971035864 29.437374195072636 12.125 33.1875 C9.170820178410466 34.54914600995109 6.346369753776926 34.897330816072 3.125 35.1875 C2.1259765625 35.2944921875 1.126953125 35.401484374999995 0.09765625 35.51171875 C-2.558623532760052 35.77495368342667 -5.2125628683781144 35.9983923158848 -7.875 36.1875 C-11.479246920916879 28.50975517400255 -14.116291952737512 19.055425594759157 -12.31640625 10.546875 C-9.95955562271675 5.422436291716082 -5.900583446429849 0.3848206595497743 0 0 Z " fill="#999B45" transform="translate(38.875,71.8125)"/>
<path d="M0 0 C0 10.560000000000002 0 21.120000000000005 0 32 C-7.920000000000002 32 -15.840000000000003 32 -24 32 C-24 28.700000000000003 -24 25.400000000000006 -24 22 C-23.340000000000003 21.67 -22.680000000000007 21.340000000000003 -22 21 C-21.383193187839666 19.500370167591228 -20.830897149650397 17.97392594127153 -20.3125 16.4375 C-17.747152753243228 9.805602302828774 -13.942604970441181 4.0589540099674934 -7.3125 1 C-4 0 -4 0 0 0 Z " fill="#9B4C2E" transform="translate(128,96)"/>
<path d="M0 0 C2.909765379786503 1.7731382783073997 5.5593718985851375 3.6124290312245932 8 6 C9.620096497896089 12.885410116058381 5.9142796391334045 20.474856802863854 2.64453125 26.49609375 C-0.8344654113155698 32.027045546675964 -5.066320269063837 37.033160134531926 -11 40 C-12.98 40 -14.96 40 -17 40 C-17 31.75 -17 23.5 -17 15 C-12.05 13.515 -12.05 13.515 -7 12 C-6.34 11.009999999999998 -5.68 10.019999999999996 -5 9 C-4.34 9 -3.6799999999999997 9 -3 9 C-2.01 6.030000000000001 -1.0199999999999996 3.0600000000000023 0 0 Z " fill="#627793" transform="translate(17,48)"/>
<path d="M0 0 C6.599999999999994 0 13.200000000000003 0 20 0 C20 9.57 20 19.14 20 29 C14.060000000000002 29 8.120000000000005 29 2 29 C1.5625 20.81250000000008 1.5625 20.81250000000008 1.431884765625 18.260986328125 C1.2620711598150223 15.240601834088434 1.0726650182778599 12.354838665897013 0.46484375 9.38671875 C0 7 0 7 0 0 Z " fill="#9CA1A4" transform="translate(108,0)"/>
<path d="M0 0 C0 7.590000000000003 0 15.180000000000007 0 23 C-6 22 -6 22 -7.8125 19.6875 C-9.549935304150495 15.755409574817307 -10.125652553969658 12.544373669936476 -10.0625 8.25 C-10.053476562499995 7.450781250000006 -10.044453125000004 6.651562499999997 -10.03515625 5.828125 C-10.023554687499995 5.224843749999998 -10.011953125000005 4.621562499999996 -10 4 C-8.71086512703019 3.3284506708250348 -7.418597960751953 2.6629114104921 -6.125 2 C-5.405703125000002 1.6287499999999966 -4.6864062500000045 1.2575000000000003 -3.9453125 0.875 C-2 0 -2 0 0 0 Z " fill="#9CA1A4" transform="translate(128,58)"/>
<path d="M0 0 C0.6599999999999966 0.3299999999999983 1.3199999999999932 0.6599999999999966 2 1 C1.4431249999999949 1.598124999999996 0.886250000000004 2.1962500000000063 0.3125 2.8125 C-2.8810312198508825 7.2143943841187905 -4.870043782734072 12.01555327844737 -7 17 C-8.319999999999993 17 -9.64 17 -11 17 C-10.541775316182537 13.53058453681065 -10.108683171198479 10.326049513595436 -9 7 C-8.340000000000003 7 -7.680000000000007 7 -7 7 C-7 6.340000000000003 -7 5.680000000000007 -7 5 C-5.46875 3.7109375 -5.46875 3.7109375 -3.5 2.375 C-2.850312500000001 1.9289843749999989 -2.2006250000000023 1.4829687499999977 -1.53125 1.0234375 C-0.7732812499999966 0.5168359375000051 -0.7732812499999966 0.5168359375000051 0 0 Z " fill="#AC866A" transform="translate(113,101)"/>
<path d="M0 0 C1.3581477670597266 4.074443301179173 -0.05254237710992271 6.814681164189892 -1.4375 10.6875 C-1.6804882812499997 11.389394531250005 -1.9234765624999994 12.091289062499996 -2.173828125 12.814453125 C-2.774494395292635 14.545785315843474 -3.3861971899023686 16.273281368133652 -4 18 C-5.32 18 -6.640000000000001 18 -8 18 C-7.400224852923312 10.652754448310588 -4.6280527217198895 5.785065902149867 0 0 Z " fill="#706750" transform="translate(30,107)"/>
<path d="M0 0 C-5.914999468238122 3.132292862613099 -11.23427112858677 5.168378881408714 -18 4 C-18.990000000000002 3.3400000000000034 -19.979999999999997 2.680000000000007 -21 2 C-17.876675967907346 1.4687588294430327 -14.751156455601915 0.951788669779333 -11.625 0.4375 C-10.735546874999997 0.2860351562499943 -9.846093749999994 0.13457031250000284 -8.9296875 -0.021484375 C-8.078906250000003 -0.16005859374999432 -7.228125000000006 -0.29863281250000284 -6.3515625 -0.44140625 C-5.5660400390625 -0.57232666015625 -4.780517578125 -0.7032470703125 -3.97119140625 -0.838134765625 C-2 -1 -2 -1 0 0 Z " fill="#396845" transform="translate(80,105)"/>
</svg>
