<?xml version="1.0" encoding="UTF-8"?>
<!-- Generator: visioncortex VTracer 0.6.0 -->
<svg version="1.1" xmlns="http://www.w3.org/2000/svg" width="128" height="128">
<path d="M0 0 C42.24 0 84.48 0 128 0 C128 42.24 128 84.48 128 128 C85.75999999999999 128 43.519999999999996 128 0 128 C0 85.75999999999999 0 43.519999999999996 0 0 Z " fill="#885E72" transform="translate(0,0)"/>
<path d="M0 0 C7.775351470923041 0.6479459559102523 13.977770639888536 1.2156337192109277 21.1875 3.4375 C32.96956424573839 7.4789535922117665 32.96956424573839 7.4789535922117665 45.0625 6.875 C46.0744140625 6.590117187499999 47.086328125 6.305234374999998 48.12890625 6.01171875 C50.75063559966832 5.087871264878785 53.06491344398813 4.016141267991571 55.5 2.6875 C56.655 2.130624999999995 57.81 1.573750000000004 59 1 C63.58780568257991 2.626505290163209 66.55423723739823 5.889474348568456 69 10 C70.5404822265359 14.810427770595368 72 19.914640724827194 72 25 C82.16971840138132 28.276065652646082 82.16971840138132 28.276065652646082 92.125 25.375 C96.66858929717387 21.62160014581289 98.59316813115615 17.305532724929108 100.4375 11.875 C101.93116115755393 7.853006153878226 103.41680584178025 5.559424398728396 107 3 C114.25800069600116 0.37228587940396096 120.1596409977301 0 128 0 C128 21.450000000000003 128 42.900000000000006 128 65 C85.75999999999999 65 43.519999999999996 65 0 65 C0 43.55 0 22.099999999999994 0 0 Z " fill="#804B62" transform="translate(0,63)"/>
<path d="M0 0 C10.56 0 21.12 0 32 0 C32 4.62 32 9.24 32 14 C33.26719759318518 16.98404594524253 34.3741076945656 19.310007445886992 36 22 C37.092669602165 25.362060314353858 36.9838212882899 27.09553631661724 36.3828125 30.64453125 C35.68619270755941 35.934994936852576 37.1538954851275 40.25179605073109 38.705078125 45.263671875 C39.61839336071834 48.458737632277305 40.09580549452878 50.616778021884876 39.28125 53.875 C37.355893949465575 57.068273449666854 35.50532104222901 57.78907091268452 32 59 C27.111106316840676 59.608733843817504 22.499367041056928 58.97772543144022 17.6875 58.0625 C11.852660455542777 56.972475030156346 5.91527828942809 56.49293985745234 0 56 C0 37.519999999999996 0 19.04 0 0 Z " fill="#C88784" transform="translate(0,0)"/>
<path d="M0 0 C12.023632172914839 0 22.42446972209639 5.566573519850692 30.98828125 13.9453125 C33.94457712571353 17.411314561181385 35 19.162531516192843 35 23.8125 C34.68432874783442 25.212433379169084 34.349224048236096 26.608057339654707 34 28 C33.728410864689764 29.812386902961364 33.45762371932207 31.624894107726647 33.1875 33.4375 C32.3582729322249 37.92398973236527 30.98790637432556 41.69793653885763 29.01953125 45.796875 C26.927683506115493 50.31718966494583 25 54.990207626489024 25 60 C16.75 60 8.5 60 0 60 C0 40.2 0 20.400000000000006 0 0 Z " fill="#4B1C5E" transform="translate(0,68)"/>
<path d="M0 0 C0 21.450000000000003 0 42.900000000000006 0 65 C-8.579999999999998 65 -17.159999999999997 65 -26 65 C-23.799180327868854 53.99590163934427 -23.799180327868854 53.99590163934427 -21.8125 49.3125 C-20.08931169727876 44.65664028396827 -19.4609420378315 41.873683546866914 -21 37 C-22.46308788704603 33.87543942766442 -23.999750156191652 30.812967856554565 -25.625 27.76953125 C-28.172617103505672 22.638109300041123 -28.688949161355367 17.674261842829566 -28 12 C-26.71792500786829 8.369776788583593 -24.826012210601135 5.7045398266892136 -21.875 3.1875 C-14.541128562075698 0.15829223216169908 -7.975526013755768 0 0 0 Z " fill="#652945" transform="translate(128,63)"/>
<path d="M0 0 C1.340485011365658 0.990392705991809 2.6760702783713413 1.9875831540486715 4 3 C3.650663892868579 8.705823083146562 2.3268616710565624 13.011603195389725 -2 17 C-9.889643761504288 21.879269049667897 -19.48659207882453 26.676760208741506 -29 25 C-35.78416579944628 22.48083653388437 -40.992762763519906 17.9989295534211 -45 12 C-45.2668359375 10.91912109375 -45.2668359375 10.91912109375 -45.5390625 9.81640625 C-45.691171875 9.216992187499997 -45.843281250000004 8.617578125000001 -46 8 C-47.6543861290679 7.303416366708252 -49.322543179053895 6.63903116988423 -51 6 C-52.9375 4.1875 -52.9375 4.1875 -54 2 C-52.55509128493486 -3.160388268089797 -49.95303672284282 -4.913741647852291 -45.5625 -7.63671875 C-29.856559482254923 -15.992470641300352 -13.869145776264844 -9.505819015192753 0 0 Z " fill="#772F55" transform="translate(91,23)"/>
<path d="M0 0 C0.990000000000002 0.6600000000000001 1.9799999999999969 1.3200000000000003 3 2 C3 2.66 3 3.3200000000000003 3 4 C3.721874999999997 4.164999999999999 4.443750000000001 4.329999999999998 5.1875 4.5 C8.219333282885877 6.1169777508724685 8.771185293883619 6.939730165753907 10.4375 9.8125 C14.412731085412844 16.63952729886119 20.031962748697474 19.756258520945373 27 23 C27.37391781905285 28.23484946673998 27.233555149540607 32.45249639728146 24.6484375 37.109375 C19.699917595272154 42.784928634806334 10.85230706850112 45.79756624238597 3.546875 46.94921875 C-1.5403718818859389 47.050651586602015 -6.183877272532918 45.49769670183427 -11 44 C-19.634054171967687 41.43127121354355 -28.067567686177604 39.243342226832425 -37 38 C-37 35.69 -37 33.38 -37 31 C-30.97924933146042 30.810866471145353 -25.23603968543623 30.808579836640305 -19.3125 32 C-13.023380246381045 33.259636377165755 -7.622194986315016 33.93649820939822 -1.5 31.75 C1.0932032752641092 30.284267905522995 1.0932032752641092 30.284267905522995 1.709228515625 28.127685546875 C2.197652766040285 24.55369953313091 0.8910488152274425 21.233598108922486 -0.0625 17.8125 C-1.7885864111033314 11.196070074241348 -2.3958994537172345 6.588723497722391 0 0 Z " fill="#A16575" transform="translate(37,25)"/>
<path d="M0 0 C19.47 0 38.94 0 59 0 C60.97999999999999 5.28 62.96000000000001 10.56 65 16 C65.99 17.98 65.99 17.98 67 20 C66.625 22.749999999999993 66.625 22.749999999999993 66 25 C64.00000000000001 25.875 64.00000000000001 25.875 61 26 C59.37890625 24.941406249999993 59.37890625 24.941406249999993 57.5625 23.4375 C49.223725791855 16.675053619481652 37.11524991017495 11.532032002366845 26.22265625 12.16015625 C20.559848899977666 12.960251115641016 16.30945201431912 14.556598879606902 11.65625 17.87890625 C10 19 10 19 7 20 C6.670000000000002 20.99 6.340000000000003 21.98 6 23 C2.7289696976702587 21.984852664794218 1.9814186522482657 20.967482641434465 0.25 17.9375 C-2.0514353578656532 11.946263389034526 -1.2313840631116975 6.156920315558486 0 0 Z " fill="#C45846" transform="translate(32,0)"/>
<path d="M0 0 C10.56 0 21.12 0 32 0 C30.871139240506327 12.417468354430383 30.871139240506327 12.417468354430383 28.0625 16.1875 C27.5378515625 16.9235546875 27.013203125 17.659609375 26.47265625 18.41796875 C25.9866796875 18.9400390625 25.500703125 19.462109375 25 20 C24.34 20 23.68 20 23 20 C22.8105078125 20.8701171875 22.8105078125 20.8701171875 22.6171875 21.7578125 C22.002291640802017 23.991674672023045 21.18880702433111 25.821605046058558 20.125 27.875 C18.849624725625723 30.338584612730166 17.645772569279845 32.782252242840336 16.5 35.3125 C15.000000000000004 37.99999999999999 15.000000000000004 37.99999999999999 11 41 C5.555 41.495 5.555 41.495 0 42 C0 28.14 0 14.279999999999998 0 0 Z " fill="#E8AC98" transform="translate(0,0)"/>
<path d="M0 0 C12.210000000000008 0 24.42 0 37 0 C37 11.22 37 22.44 37 34 C29.42426205525159 34 27.051930870351413 33.54024431380217 20.8125 30.39453125 C18.05603840337352 28.96059666645362 18.05603840337352 28.96059666645362 15.25 28.01171875 C11.01909992194092 26.381059344914732 8.641494685599241 25.138383854540624 6.37109375 21.109375 C5.070977761114705 17.771763804652675 3.998768404012793 14.438848935767648 3 11 C2.4010904938901803 9.269005451853324 1.7977040408862592 7.539545381774406 1.1875 5.8125 C0 2 0 2 0 0 Z " fill="#EF9872" transform="translate(91,0)"/>
<path d="M0 0 C7.997830173492915 4.341679237039017 14.249446419642702 11.728190848655117 18 20 C18.835080619556166 23.118804934177405 19.311469966192092 26.24169768257815 19.75 29.4375 C20.1625 32.263125 20.575000000000003 35.088750000000005 21 38 C10.769999999999996 38 0.5399999999999991 38 -10 38 C-11.09822560816309 34.70532317551073 -10.977086143100614 34.177343467605425 -9.875 31.0625 C-9.595273437500001 30.267148437499998 -9.315546874999999 29.471796874999995 -9.02734375 28.65234375 C-7.911267321488339 25.77091449159917 -6.677722711892645 22.955063102211994 -5.4375 20.125 C-3.340628700885908 15.207112658834518 -2.1347585426332785 10.557705675332613 -1.359375 5.27734375 C-1 3 -1 3 0 0 Z " fill="#7A5482" transform="translate(35,90)"/>
<path d="M0 0 C1.340485011365658 0.990392705991809 2.6760702783713413 1.9875831540486715 4 3 C3.744386767173893 5.343121300906066 3.407292275616811 7.678434028984221 3 10 C2.010000000000005 10.494999999999997 2.010000000000005 10.494999999999997 1 11 C-1.00390625 10.14453125 -1.00390625 10.14453125 -3.5625 8.8125 C-13.33638752742506 4.221344937775331 -26.242345572398108 -0.15479483213825773 -37 3 C-39.163892592294516 3.940330288798137 -41.18628813272594 4.949674394246788 -43.2109375 6.16015625 C-45 7 -45 7 -49 7 C-51.75 4.5 -51.75 4.5 -54 2 C-52.03634013882463 -4.034163115070157 -48.43443332181565 -6.108815199216977 -43 -9 C-28.03900234753184 -15.475306796458874 -12.75023299169382 -8.73892373588004 0 0 Z " fill="#8A2B38" transform="translate(91,23)"/>
<path d="M0 0 C3.1148886639144564 0.9371830718463556 5.803857243239165 2.2417444036796113 8.6875 3.74609375 C15.505814021824946 7.2857031975545326 19.813445158974204 8.824336894871777 27.6875 9.80859375 C27.6875 17.068593750000005 27.6875 24.328593750000003 27.6875 31.80859375 C13.174122498225799 29.63158712473387 3.8166836037669896 23.938162598746977 -5.08984375 12.08984375 C-6.441562883431246 9.56778632532317 -6.6884379756647405 8.19798686361095 -6.4375 5.37109375 C-5.2197254404050994 1.5148076446161518 -4.3277111656057485 -0.3582058228288538 0 0 Z " fill="#B47C76" transform="translate(100.3125,24.19140625)"/>
<path d="M0 0 C12.023632172914839 0 22.42446972209639 5.566573519850692 30.98828125 13.9453125 C33.300214404230914 16.655854818753483 34.91970912919289 18.6579954450811 35.13671875 22.28515625 C34.875 24.5 34.875 24.5 34 28 C31.278441511364672 26.95940410728649 28.86037527930733 25.913565649095005 26.375 24.375 C18.320418936572445 21.09350401119619 8.448489197851103 23.204848075496372 0 24 C0 16.08 0 8.159999999999997 0 0 Z " fill="#4F1E47" transform="translate(0,68)"/>
<path d="M0 0 C0 8.909999999999997 0 17.819999999999993 0 27 C-8.579999999999998 27 -17.159999999999997 27 -26 27 C-21.60386473429952 5.019323671497574 -21.60386473429952 5.019323671497574 -15.9375 0.625 C-10.686653346101224 -0.20846772284107828 -5.316583397989518 0 0 0 Z " fill="#78243D" transform="translate(128,101)"/>
</svg>
