<?xml version="1.0" encoding="UTF-8"?>
<!-- Generator: visioncortex VTracer 0.6.0 -->
<svg version="1.1" xmlns="http://www.w3.org/2000/svg" width="128" height="128">
<path d="M0 0 C42.24 0 84.48 0 128 0 C128 42.24 128 84.48 128 128 C85.75999999999999 128 43.519999999999996 128 0 128 C0 85.75999999999999 0 43.519999999999996 0 0 Z " fill="#9B9F80" transform="translate(0,0)"/>
<path d="M0 0 C6.915407146501622 2.4407319340594 11.041686712480328 8.062530068720505 15 14 C14.625 16.18750000000002 14.625 16.18750000000002 14 18 C19.69260962864101 21.63694504052065 25.37975409523719 21.64082512970461 32 22 C45.866861658290645 22.791364348851857 45.866861658290645 22.791364348851857 50.62109375 27.66015625 C54.379830327230835 32.19407591030482 56.91387993738378 37.003890640346086 57 43 C55.742505235435175 47.29936757493674 53.36199490764817 50.506995005126555 50.6875 54.0625 C49.928242187500004 55.08472656250001 49.168984374999994 56.10695312499999 48.38671875 57.16015625 C45.19337319161991 60.95976708623948 42.197819310846654 64.3499162258848 37.0625 64.875 C36.120839843750005 64.9948828125 36.120839843750005 64.9948828125 35.16015625 65.1171875 C33 65 33 65 30.234375 64.0625 C26.56213049793419 62.85615881091559 23.01024085244505 62.47159398720218 19.1875 62.125 C12.205838102333885 61.42099912468002 5.556916391032502 60.11874862055602 -1.202392578125 58.23291015625 C-5.818659725009809 57.01479923693236 -9.36157257777905 56.832168982348634 -14 58 C-16.57981582865869 59.52367924655867 -16.57981582865869 59.52367924655867 -18.75 61.5 C-22.77200702309655 64.93136263508936 -25.373766184143328 66.13951063501241 -30.6875 66.0625 C-31.4957421875 66.0534765625 -32.303984375 66.044453125 -33.13671875 66.03515625 C-33.7516015625 66.0235546875 -34.366484375 66.011953125 -35 66 C-39.60016176910396 57.52463032225259 -43.88930125776562 44.74879449007058 -42 35 C-40.55961398134467 30.620050677966447 -38.67711608923051 26.923457371217225 -35.94921875 23.203125 C-33.11312844189301 18.542615876457447 -32.771949674669685 13.891930258370635 -32.00390625 8.55859375 C-30.817739527804754 4.353932723074436 -29.314639502572426 2.7776581398581897 -26 0 C-25.352890625 -0.6019921875000023 -24.70578125 -1.203984375000001 -24.0390625 -1.82421875 C-17.947954455991137 -5.336524346257985 -6.550007492495297 -1.7403969638946215 0 0 Z " fill="#276D4C" transform="translate(62,33)"/>
<path d="M0 0 C4.174555011785457 1.0436387529463644 4.859161852918741 1.5423680140803384 7 5.04736328125 C9.038101155044238 9.027034433116171 10.492234652685616 13.235193065199951 12 17.4375 C14.236070160849609 23.643468161264252 16.532934736610137 29.3737579319544 20 35 C20.4125 33.7625 20.825 32.525000000000006 21.25 31.25 C22.637550464820528 27.660190540556073 23.642550670390712 25.120494313437447 27 23 C29.331805261930583 22.784170474848537 31.542299981753715 22.811239627866584 33.87890625 22.95703125 C36.1914949880915 23.12248901459313 36.1914949880915 23.12248901459313 39 22 C48.69087754499734 20.79111752506168 55.91893062473515 24.218573356741217 63.446533203125 30.020263671875 C65.24451690656404 31.446088508528675 67.02771662367456 32.88707806216948 68.80078125 34.34375 C69.63113891601563 35.01664062500001 69.63113891601563 35.01664062500001 70.478271484375 35.703125 C71.99999999999999 37 71.99999999999999 37 74.2421875 39.34375 C78.62284327812695 41.97462542482411 82.83151114617236 41.3239130110651 87.8125 41 C88.77220703125 40.9677734375 89.7319140625 40.935546875 90.720703125 40.90234375 C97.5432468673338 40.53909568726823 103.64796329008311 39.35505248743368 108.628173828125 34.370361328125 C112.75722356842654 29.493247406362883 115.34361165466949 23.518582291487405 117.93359375 17.7236328125 C120.2063442737103 12.855137136709786 122.61585835218389 10.135879095312916 127 7 C127.33 7 127.66 7 128 7 C128 22.180000000000007 128 37.36 128 53 C85.75999999999999 53 43.519999999999996 53 0 53 C0 35.50999999999999 0 18.019999999999996 0 0 Z " fill="#86ABA7" transform="translate(0,75)"/>
<path d="M0 0 C6.460631716829496 2.891080194508408 6.460631716829496 2.891080194508408 13.25 1.875 C15.561385603377573 0.8264424284480469 17.45392403238506 -0.3099969001654017 19.5625 -1.75 C23.119094373481587 -3.573894550503379 25.20787717501284 -3.0834636642820463 29 -2 C30.11955078125 -0.803105468750001 30.11955078125 -0.803105468750001 31.26171875 0.41796875 C34.52215324942834 3.4923584848389986 36.99844915974559 4.2239077318984215 41.3125 5.3125 C42.5667578125 5.638632812499999 43.821015625 5.964765624999998 45.11328125 6.30078125 C46.065898437499996 6.531523437499999 47.018515625000006 6.762265624999998 48 7 C48.15225191763491 13.60166846642911 48.25725699651386 20.202883688427903 48.32958984375 26.805908203125 C48.35974538161233 29.051523014582592 48.40067698321127 31.297020208508847 48.45263671875 33.542236328125 C48.52550334287872 36.77194228583093 48.55946915336693 40.0000902476076 48.5859375 43.23046875 C48.616905212402344 44.232729949951164 48.64787292480469 45.23499114990234 48.679779052734375 46.26762390136719 C48.683087945495686 53.13530435837525 48.683087945495686 53.13530435837525 46.69779968261719 55.648406982421875 C45.093994140625014 56.943603515625 45.093994140625014 56.943603515625 42 59 C40.66657328897284 60.80981512490615 40.66657328897284 60.80981512490615 39.91015625 62.671875 C39.6046484375 63.332197265625 39.29914062500001 63.99251953125 38.984375 64.6728515625 C38.680156249999996 65.358310546875 38.375937500000006 66.04376953125 38.0625 66.75 C33.514345954718166 76.32987619307927 29.352772641899804 84.12536763550199 19 88 C11.440531266753155 89.90793762649875 1.7929489836263741 91.29688199636944 -5.43212890625 87.83447265625 C-9.121429007572345 85.36396636424372 -12.253863205839053 82.49084359225508 -15.39453125 79.3671875 C-20.6147496051111 74.19528416542421 -26.729750199737133 70.70851579497331 -34.0625 69.6875 C-35.0022265625 69.5469921875 -35.941953125 69.406484375 -36.91015625 69.26171875 C-37.94462890625 69.13216796875 -37.94462890625 69.13216796875 -39 69 C-31.362641371762145 61.15049252097775 -31.362641371762145 61.15049252097775 -28.0546875 60.78515625 C-21.49637431265873 61.619636960217264 -15.12603493726516 63.052176915787356 -8.69384765625 64.552490234375 C-3.517835971543846 65.73723625690621 1.5089586325781 66.4581177249667 6.81640625 66.78125 C8.999999999999986 67 8.999999999999986 67 12.1875 68.125 C16.05902730546657 69.32947516170071 19.126643353034723 69.16356883144724 23 68 C29.3344337800755 64.04097888745281 35.65104604376222 56.59057290209489 37.765625 49.39453125 C38.424641605028555 42.66157826862491 35.59076588844695 37.85942218766854 31.73046875 32.6640625 C28.340968085322828 29.40463296692444 24.495456274087672 28.760613039037892 19.9375 28.4375 C18.982304687500005 28.361445312500003 18.02710937500001 28.285390624999998 17.04296875 28.20703125 C14.98388449434502 28.066939509884833 12.923892538049799 27.93969509864538 10.86328125 27.82421875 C4.90319786440304 27.44283323850007 0.3137270116805695 26.77763002883303 -5 24 C-4.653886718750002 22.9055859375 -4.653886718750002 22.9055859375 -4.30078125 21.7890625 C-3.726780163394693 18.965008546927116 -3.726780163394693 18.965008546927116 -5.29296875 16.6484375 C-5.918164062499997 15.898203124999995 -6.543359374999994 15.147968750000004 -7.1875 14.375 C-7.7998046875 13.619609374999996 -8.412109375 12.86421875 -9.04296875 12.0859375 C-14.888596490025563 5.855268411829037 -21.757404272783305 4.723346408927519 -29.875 3.375 C-30.658749999999998 3.240937500000001 -31.442500000000003 3.1068750000000023 -32.25 2.96875 C-34.16595474089118 2.64163577594541 -36.08288281736783 2.3202311552280896 -38 2 C-37.67 1.009999999999998 -37.34 0.019999999999999574 -37 -1 C-34.65232713130594 -1.9057473390187418 -32.49002180725202 -2.5883034318768985 -30.0625 -3.1875 C-29.37953857421875 -3.358220214843751 -28.6965771484375 -3.5289404296874984 -27.992919921875 -3.704833984375 C-17.009887767230325 -6.305908085362994 -10.243629171616703 -4.699039633529175 0 0 Z " fill="#4D8381" transform="translate(80,28)"/>
<path d="M0 0 C28.379999999999995 0 56.760000000000005 0 86 0 C86 11.55 86 23.1 86 35 C80.03163902782178 34.14737700397454 76.31878258104048 33.38428184667332 71 31 C70.505 29.515 70.505 29.515 70 28 C65.33051617045882 26.28510107145169 61.663481809456826 25.306528043627974 56.9453125 27.2734375 C55.93210937500001 27.843203125 54.91890624999999 28.41296875 53.875 29 C47.529776160648495 32.532309322033896 47.529776160648495 32.532309322033896 43.9375 31.6875 C42.078125 30.984375 42.078125 30.984375 40 30 C39.06671875000001 29.59265625 38.1334375 29.1853125 37.171875 28.765625 C35.243377459420415 27.907393110213274 33.32441261408384 27.027259592307836 31.41796875 26.12109375 C21.81040186848682 21.666535276665133 11.855293605798991 24.61428051041177 2 27 C1.7550781249999972 26.38640625 1.5101562500000014 25.7728125 1.2578125 25.140625 C-0.2505228546132088 22.573644334384973 -1.442567883247193 21.96142095595288 -4.125 20.75 C-5.211679687500002 20.247265624999997 -5.211679687500002 20.247265624999997 -6.3203125 19.734375 C-6.874609374999999 19.49203125 -7.428906249999997 19.2496875 -8 19 C-6.601946006569179 14.932933837292149 -4.549396728847341 11.669306252073161 -2.12109375 8.16015625 C-0.5996851607649347 5.500278055584937 -0.5996851607649347 5.500278055584937 0 0 Z " fill="#6FA0A3" transform="translate(42,0)"/>
<path d="M0 0 C0.375 2.1875 0.375 2.1875 0 5 C-0.916523437500004 5.723164062500004 -1.8330468749999937 6.446328124999994 -2.77734375 7.19140625 C-6.494941360025308 10.139259254525683 -8.042867630586954 13.481056091375478 -9.9375 17.75 C-14.485654045281848 27.329876193079286 -18.64722735810018 35.12536763550199 -29 39 C-36.55946873324686 40.90793762649875 -46.20705101637361 42.29688199636945 -53.43212890625 38.83447265625 C-57.12142900757236 36.36396636424371 -60.25386320583905 33.49084359225509 -63.39453125 30.3671875 C-68.6147496051111 25.195284165424212 -74.72975019973714 21.70851579497331 -82.0625 20.6875 C-83.0022265625 20.546992187499995 -83.941953125 20.406484375000005 -84.91015625 20.26171875 C-85.5998046875 20.175351562499998 -86.289453125 20.088984374999995 -87 20 C-79.36264137176212 12.15049252097775 -79.36264137176212 12.15049252097775 -76.0546875 11.78515625 C-69.49637431265873 12.619636960217264 -63.126034937265175 14.052176915787356 -56.69384765625 15.552490234375 C-51.517835971543846 16.737236256906215 -46.4910413674219 17.458117724966698 -41.18359375 17.78125 C-39 18 -39 18 -35.8125 19.125 C-32.04851331006853 20.296018081312013 -28.723971067610847 20.362261475100297 -25 19 C-20.341679992888302 15.633948422866453 -17.378371624477523 12.062391086040563 -14.3125 7.25 C-10.159515522723368 0.7614054491780422 -7.823140077580462 -0.14760641655811924 0 0 Z " fill="#608E7D" transform="translate(128,77)"/>
<path d="M0 0 C13.860000000000001 0 27.720000000000002 0 42 0 C42 7.187854622998221 40.24407665281929 11.230268503470104 35.52099609375 16.65234375 C31.6697859231945 20.064651958903106 26.546936565618285 21.29442162057313 21.70703125 22.71875 C16.903314924296524 24.379043946080863 14.061726614345945 26.40741007848108 11.25 30.625 C8.992950330048537 36.719034108868954 8.947281904839159 42.86988817892299 9.0625 49.3125 C9.114640423446366 52.99129654316022 8.766949912517795 55.68696891402914 7 59 C6.34 59 5.68 59 5 59 C4.67 60.32 4.34 61.64 4 63 C2.0199999999999996 63.495 2.0199999999999996 63.495 0 64 C0 42.879999999999995 0 21.759999999999998 0 0 Z " fill="#B4AF82" transform="translate(0,0)"/>
<path d="M0 0 C2.881562069546348 1.0847740930414318 5.246864171124031 1.380034270273356 8.3125 1.57421875 C9.359218749999997 1.6502734374999974 10.405937499999993 1.726328125000002 11.484375 1.8046875 C13.556890936811527 1.9386427983548913 15.629803850318993 2.0666457879071984 17.703125 2.1875 C23.87934908076255 2.617810694151487 28.769380533156294 3.023283151425126 33.30859375 7.671875 C37.06733032723085 12.205794660304832 39.60137993738378 17.01560939034607 39.6875 23.01171875 C38.430005235435175 27.31108632493674 36.04949490764818 30.51871375512654 33.375 34.07421875 C32.61574218749999 35.09644531250001 31.856484375000008 36.11867187499999 31.07421875 37.171875 C27.880873191619912 40.97148583623948 24.88531931084664 44.36163497588481 19.75 44.88671875 C16.01815076867507 45.20537760276969 13.154150169073546 44.48504507185626 9.6875 43.01171875 C9.955624999999998 42.516718749999995 10.223749999999995 42.02171874999999 10.5 41.51171875 C10.891874999999999 40.68671875 11.283749999999998 39.861718749999994 11.6875 39.01171875 C11.998164062499995 38.4290625 12.308828124999991 37.84640625 12.62890625 37.24609375 C13.970104167915025 34.395346711084386 14.98663206151187 32.203460883063315 14.19921875 29.06640625 C13.155109583616564 26.943813952907746 11.970481907060105 24.999437197557896 10.6875 23.01171875 C9.643976122581407 21.262825568098464 8.602360546891532 19.512792559827233 7.5625 17.76171875 C7.064921874999996 16.952187500000008 6.567343749999992 16.14265625 6.0546875 15.30859375 C4.6875 13.01171875 4.6875 13.01171875 3.8125 10.83203125 C1.7765476229661772 7.537747195493871 -1.5579384644423868 7.2926498852970525 -5.13671875 6.40625 C-10.38484425515108 5.754268848683566 -15.214529792432558 6.775038368059555 -20.3125 8.01171875 C-20.13671875 5.65625 -20.13671875 5.65625 -19.3125 3.01171875 C-13.702659492736146 -0.3236038003153112 -6.217936607603349 -2.657327638046702 0 0 Z " fill="#216456" transform="translate(79.3125,52.98828125)"/>
<path d="M0 0 C0.9191015625000034 0.140507812500001 1.8382031249999997 0.28101562499999844 2.78515625 0.42578125 C12.16727907570241 2.053147954307356 17.17538311242015 5.554097999382456 23 13 C25 16 25 16 24.890625 18.0625 C24 20 24 20 22.171875 21.125 C20.973046874999994 21.558125000000004 20.973046874999994 21.558125000000004 19.75 22 C18.843789062500008 22.327421875 17.937578125 22.654843749999998 17.00390625 22.9921875 C16.0126171875 23.324765624999998 15.021328124999997 23.657343749999995 14 24 C12.977773437499991 24.353203125 11.955546875000003 24.70640625 10.90234375 25.0703125 C-10.474963457141783 32.08352385592744 -10.474963457141783 32.08352385592744 -19 29 C-22.837572638665538 24.68273078150127 -23.27175488214256 21.655392026438662 -22.9375 15.9375 C-22.140961609971495 9.735327293176098 -20.8062947766795 5.309985347489189 -16.0625 1.0625 C-11.004017777568777 -2.267133867929413 -5.677553533178433 -0.961929452118131 0 0 Z " fill="#2D6C79" transform="translate(52,31)"/>
<path d="M0 0 C0 15.180000000000007 0 30.36 0 46 C-16.83 46 -33.66 46 -51 46 C-51 38 -51 38 -50 35 C-47.738984775006145 33.86949238750307 -46.43957320807256 33.862480881325084 -43.9296875 33.82421875 C-42.70765625 33.788447265624995 -42.70765625 33.788447265624995 -41.4609375 33.751953125 C-39.76065760443181 33.70957454754249 -38.06006761814983 33.67800932785113 -36.359375 33.658203125 C-29.825039820843386 33.43800217460523 -24.125112461142635 32.120441142067676 -19.36669921875 27.369140625 C-15.24497298941914 22.486095188608033 -12.656523102856454 16.5188838044037 -10.06640625 10.7236328125 C-8.351968947303277 7.051108922387186 -4.80429569948717 0 0 0 Z " fill="#94AE9A" transform="translate(128,82)"/>
<path d="M0 0 C0.990000000000002 0.3299999999999983 1.9800000000000004 0.6599999999999966 3 1 C4.1875 3.5625 4.1875 3.5625 5 6 C11.08849324133832 7.044730090275095 15.9714992175968 6.790140973886267 22 5.5625 C22.7747265625 5.414902343750001 23.549453125 5.267304687500001 24.34765625 5.115234375 C26.23387010639378 4.754292217295017 28.117268208618164 4.3786858262211155 30 4 C30.494999999999997 5.980000000000004 30.494999999999997 5.980000000000004 31 8 C30.030625 8.618749999999999 29.06125 9.237499999999997 28.0625 9.875 C24.97164638374349 11.656788457765543 24.97164638374349 11.656788457765543 24 14 C23.340000000000003 14 22.68 14 22 14 C21.690624999999997 14.783749999999998 21.38125 15.567499999999995 21.0625 16.375 C20 19 20 19 19 21 C18.502217945158534 27.851034459038402 18.502217945158534 27.851034459038402 21.5625 33.6875 C22.036874999999995 34.12062499999999 22.511250000000004 34.55375000000001 23 35 C12.824999999999996 45.79166666666666 12.824999999999996 45.79166666666666 5.73828125 46.09765625 C4.937773437499999 46.086054687499995 4.137265624999998 46.07445312499999 3.3125 46.0625 C2.100136718750001 46.04896484375 2.100136718750001 46.04896484375 0.86328125 46.03515625 C0.24839843750000057 46.023554687499995 -0.36648437499999886 46.01195312499999 -1 46 C-5.600161769103959 37.52463032225259 -9.889301257765613 24.748794490070566 -8 15 C-6.183486601666711 9.476316400986526 -3.3759021406297904 4.702149410162924 0 0 Z " fill="#426E5F" transform="translate(28,53)"/>
<path d="M0 0 C6.460631716829496 2.8910801945084117 6.460631716829496 2.8910801945084117 13.25 1.875 C15.561385603377573 0.8264424284480434 17.453924032385032 -0.30999690016539105 19.5625 -1.75 C23.1190943734816 -3.5738945505033826 25.20787717501284 -3.0834636642820463 29 -2 C31.9375 0.4375 31.9375 0.4375 34 3 C34 5 34 5 32.0625 7.25 C28.430760996570726 10.72785175752125 24.27169778192834 13.37791232272864 20 16 C19.023535156250006 16.611015625 19.023535156250006 16.611015625 18.02734375 17.234375 C11.402891159071459 20.98868488726135 4.462905957236046 21 -3 21 C-4.746093750000014 18.95312499999998 -4.746093750000014 18.95312499999998 -6.4375 16.25 C-10.97705058431373 9.411698268735933 -14.959763724410635 6.279392537414964 -23.079345703125 4.5595703125 C-25.341252476449533 4.141682105557763 -27.605914596002293 3.7518989315114837 -29.875 3.375 C-30.658749999999998 3.240937500000001 -31.442500000000003 3.1068750000000023 -32.25 2.96875 C-34.16595474089118 2.64163577594541 -36.08288281736783 2.3202311552280896 -38 2 C-37.67 1.009999999999998 -37.34 0.019999999999999574 -37 -1 C-34.652327131305945 -1.9057473390187383 -32.49002180725202 -2.5883034318768985 -30.0625 -3.1875 C-29.37953857421875 -3.358220214843751 -28.6965771484375 -3.5289404296874984 -27.992919921875 -3.704833984375 C-17.009887767230317 -6.305908085362994 -10.243629171616703 -4.699039633529175 0 0 Z " fill="#488FA4" transform="translate(80,28)"/>
<path d="M0 0 C18.480000000000004 0 36.96000000000001 0 56 0 C54.79910714285714 8.406250000000004 54.79910714285714 8.406250000000004 51 12 C44.485252925092254 15.257373537453875 36.92715904218693 14.458349272039353 30 13 C21.24857632585396 12.258353925919828 14.693379797510694 15.359031413569323 7.25 19.75 C3.650829178944747 21.80304814440476 1.2152851564322162 22.766415482987675 -3 22 C-5.875 20.5 -5.875 20.5 -8 19 C-6.601946006569179 14.932933837292149 -4.549396728847341 11.669306252073161 -2.12109375 8.16015625 C-0.5996851607649347 5.500278055584937 -0.5996851607649347 5.500278055584937 0 0 Z " fill="#A4CBBE" transform="translate(42,0)"/>
<path d="M0 0 C4.185272963917461 1.0463182409793603 4.876693345855083 1.568314522280815 7.0263671875 5.0869140625 C8.948496811331692 8.863696342426067 10.235448825579358 12.879587337816076 11.625 16.875 C14.776570365569656 25.58789632240621 18.724965670545938 33.087813760365805 23.8984375 40.75 C26.73008693053633 45.12905636841306 28 47.767131318378006 28 53 C18.759999999999998 53 9.52 53 0 53 C0 35.50999999999999 0 18.019999999999996 0 0 Z " fill="#D9CFAE" transform="translate(0,75)"/>
<path d="M0 0 C1.0725000000000051 0.45374999999999943 2.144999999999996 0.9074999999999989 3.25 1.375 C6 3 6 3 7.1875 4.875 C6.874112499800383 8.42672500226233 4.632712999980285 9.759393191506145 2 12 C0.9481250000000045 12.659999999999997 -0.10375000000000512 13.32 -1.1875 14 C-4.4009361648826655 16.28511016169434 -4.828661176079876 17.329107792893197 -6 21 C-6.311201698975836 22.9523251884467 -6.58047253763003 24.911690703023325 -6.8125 26.875 C-7.557897642348234 31.693672947778737 -8.598364986789548 34.44319057771335 -11.69140625 38.1328125 C-14.369551719818382 41.95416633454683 -15.573338629533303 46.592493084535846 -17 51 C-17.33 51 -17.66 51 -18 51 C-18.09796875 49.828242187499995 -18.1959375 48.65648437499999 -18.296875 47.44921875 C-19.21468855348389 37.46387523475061 -20.261570209622576 28.129925318045338 -25.59375 19.38671875 C-27.464125202446088 16.212276392515115 -27.654548658305124 14.636381435028468 -27 11 C-23.492959624348856 4.889247830304825 -18.457116380606916 2.26506176701918 -12 0 C-10.7625 -0.45374999999999943 -9.524999999999999 -0.9074999999999989 -8.25 -1.375 C-4.52681333761668 -2.0909974350737137 -3.2869239154369723 -1.769882108312217 0 0 Z " fill="#798A7F" transform="translate(37,20)"/>
<path d="M0 0 C3.8781875984474112 3.2318229987061766 5.064202525703365 6.06579513552683 6 11 C5.922677696292908 14.943437489061974 5.577177089368092 16.406332136649958 2.8125 19.25 C-3.8691771876360406 23.407488027862428 -3.8691771876360406 23.407488027862428 -7.9609375 22.625 C-11.38494282489286 21.537229355268693 -14.626747719509382 20.170255426188707 -17.89453125 18.6796875 C-29.896877258932292 13.287105852854552 -38.39290732008692 14.948138947802022 -51 18 C-51.66 16.35 -52.32 14.7 -53 13 C-50.46080993958732 11.703263983399701 -47.91885762137498 10.412521633235322 -45.375 9.125 C-44.30572265625 8.57779296875 -44.30572265625 8.57779296875 -43.21484375 8.01953125 C-35.654955319966845 4.204908647689692 -29.18575204767282 1.6977364110162458 -20.625 3.5 C-13.453191543014412 4.866058753711542 -7.448855931350408 4.430242516675744 -1 1 C-0.6700000000000017 0.6699999999999999 -0.3400000000000034 0.33999999999999986 0 0 Z " fill="#7AB7C5" transform="translate(95,9)"/>
</svg>
