<?xml version="1.0" encoding="UTF-8"?>
<!-- Generator: visioncortex VTracer 0.6.0 -->
<svg version="1.1" xmlns="http://www.w3.org/2000/svg" width="128" height="128">
<path d="M0 0 C42.24 0 84.48 0 128 0 C128 42.24 128 84.48 128 128 C85.75999999999999 128 43.519999999999996 128 0 128 C0 85.75999999999999 0 43.519999999999996 0 0 Z " fill="#90939A" transform="translate(0,0)"/>
<path d="M0 0 C32.34 0 64.68 0 98 0 C98 15.180000000000001 98 30.360000000000003 98 46 C87.90990990990991 44.87887887887888 87.90990990990991 44.87887887887888 85 42.3125 C84.3516015625 41.7801171875 83.703203125 41.247734375 83.03515625 40.69921875 C82.3635546875 40.1384765625 81.691953125 39.577734375 81 39 C75.17582813386 34.511733400794924 75.17582813386 34.511733400794924 68.25 32.4375 C63.861706424475315 33.19701234961004 61.440206977766735 34.75182061926883 58.125 37.625 C56.28032710973892 41.51930943499563 56.95412017016686 44.903121613316344 58 49 C59.197434659139816 51.975919579108115 60.51510801866905 54.842044762815014 61.94140625 57.71484375 C63 60.00000000000001 63 60.00000000000001 63 62 C58.048319087980914 61.45617377266842 54.560880066468 59.153296324948926 50.4375 56.5625 C43.94083283173279 51.88998360157446 43.94083283173279 51.88998360157446 36.5625 50.1875 C33.95337193695677 50.8932798435515 33.95337193695677 50.8932798435515 31.75 52.4375 C26.343943017047437 55.5091232857685 21.043880745503287 56.48968891614518 15 55 C9.792993481144116 39.68640518255299 9.792993481144116 39.68640518255299 9.5 33.25 C9.166496888272661 26.894383556510444 6.626396578667347 21.71852045762163 4 16 C3.2143942670452645 14.214761331202219 2.4424565395445725 12.423414328129395 1.6875 10.625 C1.3613671875000009 9.874765625 1.0352343750000017 9.12453125 0.69921875 8.3515625 C0 6 0 6 0 0 Z " fill="#909EA5" transform="translate(30,0)"/>
<path d="M0 0 C5.389837932544893 0.3515111695137989 5.389837932544893 0.3515111695137989 7.5546875 2.65234375 C9.284841793777304 5.462675454216651 10.21345105189917 8.24345423425875 11.25 11.375 C14.404982825312558 19.744598355576926 18.23382587520007 22.7478815454146 26.125 26.5 C26.931953125000007 26.840312499999996 27.73890625 27.180624999999992 28.5703125 27.53125 C32.42756151712243 29.862963232215492 35.22117474510682 32.6785349518714 36.65869140625 36.96337890625 C37.12930913071867 39.15942499431779 37.46446942058938 41.334934607637976 37.75 43.5625 C37.9225732421875 44.74307983398438 37.9225732421875 44.74307983398438 38.0986328125 45.947509765625 C40.650210102776384 64.04936969167083 40.650210102776384 64.04936969167083 39 69 C6.329999999999998 69 -26.340000000000003 69 -60 69 C-60 62.06999999999999 -60 55.14 -60 48 C-52.43750000000012 48.687499999999986 -52.43750000000012 48.687499999999986 -50.099365234375 48.928466796875 C-44.151166589414714 49.381005931708856 -39.99151378446078 48.21891208392856 -35.109375 44.59765625 C-31.061715962434384 40.02659302654229 -29.771882587200025 35.5102449818086 -28.54296875 29.57421875 C-28 27 -28 27 -27 25 C-25.700625000000002 24.87625 -24.401249999999997 24.752499999999998 -23.0625 24.625 C-20.90771577648775 24.44294581456043 -20.90771577648775 24.44294581456043 -19 24 C-17.633591018168474 22.268380365552346 -17.633591018168474 22.268380365552346 -17 20 C-15.000000000000014 17.250000000000014 -15.000000000000014 17.250000000000014 -13 15 C-12.340000000000003 15 -11.68 15 -11 15 C-10.731875000000002 14.443124999999995 -10.463749999999997 13.886250000000004 -10.1875 13.3125 C-7.675597666970738 8.420900719890383 -5.015746533168759 4.80439145247567 -1 1 C-0.6700000000000017 0.6700000000000017 -0.3400000000000034 0.3400000000000034 0 0 Z " fill="#99BAA0" transform="translate(60,59)"/>
<path d="M0 0 C9.9 0 19.8 0 30 0 C30.99 3.96 31.98 7.92 33 12 C34.878636427422926 15.94652883671762 34.878636427422926 15.94652883671762 36.86328125 19.83984375 C39.20255538826375 24.28526848697544 40.04949248576901 28.1645485331321 40.375 33.125 C40.68394606632902 37.49183382215058 41.60985245622332 41.083110592029605 43.125 45.1875 C44.878628448872504 50.19238119349743 45.376896398656456 53.856122888038136 44 59 C43.7022265625 60.157578125 43.404453125 61.31515625 43.09765625 62.5078125 C42.41400379591243 65.13018579564059 41.69903873612732 67.7418397290619 40.96875 70.3515625 C40.17386999004921 73.34518318263724 39.5755684720703 76.26368927173611 39.0625 79.3125 C38.711875 80.529375 38.36125 81.74625 38 83 C36.7625 83.46406250000001 36.7625 83.46406250000001 35.5 83.9375 C34.675 84.288125 33.85 84.63875 33 85 C32.223610723824414 87.47074469653525 31.848178508702368 89.91691588780758 31.4375 92.47265625 C30.35611956629729 98.71955929112188 27.06841536898815 102.63850777553448 22.30078125 106.578125 C15.128500531964262 111.01057012965197 7.876175719441329 108.57523514388826 0 107 C0 71.69 0 36.379999999999995 0 0 Z " fill="#957145" transform="translate(0,0)"/>
<path d="M0 0 C4.012231118107493 2.08175007743818 7.543852280203723 4.809368659053334 11.03515625 7.6640625 C12.007753906250002 8.449101562500005 12.007753906250002 8.449101562500005 13 9.25 C13.556875000000005 9.72953125 14.113749999999996 10.209062500000002 14.6875 10.703125 C17.908855782384308 12.655751541307644 17.908855782384308 12.655751541307644 26 14 C26 27.86 26 41.72 26 56 C8 56 8 56 1 52 C-5.349734017945835 43.84459773966279 -8.823375482485275 33.728412584888844 -12 24 C-12.344179687500002 23.154375 -12.688359375000005 22.308750000000003 -13.04296875 21.4375 C-16.929453372358438 11.67486285987777 -16.929453372358438 11.67486285987777 -15 6 C-10.570620636840175 0.6381197182802083 -6.90837796751498 -0.7799781576226579 0 0 Z " fill="#576267" transform="translate(102,32)"/>
<path d="M0 0 C17.22222222222222 0 17.22222222222222 0 24.6875 6.25 C28.923749966048568 11.287702662328023 33.006672816354445 16.467484303919754 33.46484375 23.2578125 C32.435761534101 29.32853279883276 28.96217134918926 34.7070323351236 26.0380859375 40.0537109375 C24.56590834583938 42.81387080596624 23.276295073070322 45.644935298969855 22 48.5 C21.608125 49.376562500000006 21.21625 50.253125 20.8125 51.15625 C20.544375 51.76468750000001 20.27625 52.373125 20 53 C14.250000000000039 51.12500000000003 14.250000000000039 51.12500000000003 12 50 C12 49.34 12 48.68000000000001 12 48 C10.68 47.67 9.36 47.34 8 47 C5.359999999999999 46.01 2.7199999999999998 45.02 0 44 C0 29.479999999999997 0 14.959999999999997 0 0 Z " fill="#653D15" transform="translate(0,16)"/>
<path d="M0 0 C5.744658781624267 4.739343494840028 5.629740531348062 12.54424495924863 6.375 19.5 C7.176056338028161 28.471830985915503 7.176056338028161 28.471830985915503 6 32 C-1.9200000000000017 32 -9.840000000000003 32 -18 32 C-18.989999999999995 30.02000000000001 -19.980000000000004 28.039999999999992 -21 26 C-22.505279088952847 24.22065599321246 -22.505279088952847 24.22065599321246 -24.21484375 22.81640625 C-24.81876953125 22.280800781250008 -25.422695312499997 21.7451953125 -26.044921875 21.193359375 C-27.302467285685864 20.10971601285067 -28.560278084251706 19.026380548447904 -29.818359375 17.943359375 C-34.71547366050086 13.599060972633424 -38.753065862347704 9.395344392719068 -39.25 2.5625 C-39.1675 1.7168750000000017 -39.085 0.8712500000000034 -39 0 C-27.99185156668227 -5.888079394565295 -10.850264601355349 -6.913037783985885 0 0 Z " fill="#DBE3CE" transform="translate(93,96)"/>
<path d="M0 0 C4.998753549041323 0.8331255915068851 7.717722115337702 1.6549430631611202 12 4 C12 4.659999999999997 12 5.319999999999993 12 6 C12.886875 6.226875000000007 13.77375 6.453749999999999 14.6875 6.6875 C18.464124697251012 8.183898464948513 20.38617976137766 9.924917366326667 23 13 C23 13.659999999999997 23 14.319999999999993 23 15 C23.99 15.329999999999998 24.98 15.659999999999997 26 16 C28.974538960857327 18.293768188372454 31.203477702355645 20.69144867178693 33 24 C33.279777965565245 30.830441366213506 30.81940922207515 37.73220280525747 26.37890625 42.87890625 C22.16933604937764 47.07153653029792 18.801403093535136 48.79989977903321 12.8828125 49.22265625 C8.538038096316125 48.887084243211405 4.273090350654032 47.85461807013081 0 47 C0 31.489999999999995 0 15.97999999999999 0 0 Z " fill="#9D763F" transform="translate(0,60)"/>
<path d="M0 0 C5.932114130700654 0.37704115237504254 9.96380158911552 3.0821792011853404 14.90625 6.140625 C17.878762986262274 8.007650551901776 17.878762986262274 8.007650551901776 20.71875 9.234375 C28.52224585669171 12.943444018304078 31.04797655694381 18.849335976977983 34.40625 26.41796875 C35.881822818621416 30.0053462742152 35.881822818621416 30.0053462742152 38 33 C37.855691575949024 38.050794841783954 34.727459130963254 41.944036790486365 32 46 C31.340000000000003 45.278125 30.680000000000007 44.556250000000006 30 43.8125 C25.746936896617697 39.5594368966177 20.48214564565599 36.81181177100416 15.25 33.9375 C8.426870672683151 29.869865208714955 6.831944414575403 25.423836248343747 4.34375 18.09375 C2.9535491056600875 14.893054917682534 1.7251518948950917 13.15281748922348 -1 11 C-4.020801354343774 10.682912285869058 -4.020801354343774 10.682912285869058 -7 12 C-10.885077466474542 15.885077466474542 -13.399614790269013 20.18447183383151 -16 25 C-16.659999999999997 25 -17.32 25 -18 25 C-18.371250000000003 25.8353125 -18.371250000000003 25.8353125 -18.75 26.6875 C-20.23870529001683 29.441604786531144 -21.884099715732837 31.691745144435828 -24 34 C-24.990000000000002 34 -25.979999999999997 34 -27 34 C-25.769684299978927 24.40029986694084 -23.645218055385513 15.28394492254236 -21 6 C-19.721249999999998 6.082499999999996 -18.442499999999995 6.164999999999999 -17.125 6.25 C-11.555845172200009 6.267651837806021 -6.910799149270453 4.543589729489796 -2 2 C-1.3400000000000034 1.3400000000000034 -0.6800000000000068 0.6799999999999997 0 0 Z " fill="#7A9B88" transform="translate(65,49)"/>
<path d="M0 0 C16.83 0 33.660000000000004 0 51 0 C50 4.9999999999999964 50 4.9999999999999964 48.3203125 6.625 C44.068279432362175 9.288195088627253 39.84398073608136 11.595680596256742 35.25 13.625 C29.59026908501486 16.031033249354113 29.59026908501486 16.031033249354113 25 20 C23.403457365600786 24.415020134232456 22.98356619567994 28.97738255711764 22.5625 33.625 C21.881685450158763 40.3744545889433 18.84065534182917 45.57010796500014 15 51 C10.621201170582935 46.621201170582935 9.928083846431903 39.591422005473774 9.625 33.625 C9.176168783060284 27.130687085504935 6.6895172530030464 21.855954716567673 4 16 C3.2143942670452645 14.214761331202219 2.4424565395445725 12.423414328129395 1.6875 10.625 C1.3613671875000009 9.874765625 1.0352343750000017 9.12453125 0.69921875 8.3515625 C0 6 0 6 0 0 Z " fill="#A78F8E" transform="translate(30,0)"/>
<path d="M0 0 C4.089566799003023 1.514654370001117 6.752291360763479 4.348517935515396 9 8 C10.119835332632249 11.919423664212886 10.192033515538725 14.246637746732723 9.1875 18.1875 C6.367310928324642 21.813457377868318 3.675486093041471 22.447061000298167 -0.55859375 23.95703125 C-4.270738099102914 25.542859315936767 -5.886992783563116 27.606382349358945 -8 31 C-8.879580422829207 33.2732535128828 -9.621790868523249 35.55177284702994 -10.3203125 37.88671875 C-11.64179407815385 41.9954631970186 -13.792749817170602 45.160794920118235 -17 48 C-22.872854978930427 50.91905217887666 -27.64410532212596 51.27117893557481 -34 50 C-33.68394459794671 46.04930747433392 -33.372200632287615 43.52828476840823 -31.0625 40.25 C-27.41486686489504 34.502214453774 -27.116419329823728 27.869611664622347 -26.6875 21.1875 C-26.286210005526776 17.503526280245786 -25.274003750530312 15.016103911267322 -22.6328125 12.26171875 C-20.143164472718432 10.337899819827879 -17.464447915901474 9.235183764425335 -14.5546875 8.07421875 C-6.745380311191681 4.874226817677576 -6.745380311191681 4.874226817677576 0 0 Z " fill="#A2ABB4" transform="translate(79,5)"/>
<path d="M0 0 C2.167253069081255 5.901894518480219 2.0616140908395906 9.858558505655267 0 15.8125 C-0.22840576171874716 16.525915527343756 -0.4568115234375014 17.239331054687497 -0.692138671875 17.974365234375 C-1.1839829039244307 19.5058156400533 -1.6845091168582442 21.03449995760093 -2.19287109375 22.560546875 C-3.31262106126745 25.94486075141694 -4.370235957150314 29.34777211081787 -5.430908203125 32.7509765625 C-6.607924365929371 36.50465092717879 -7.80608619337206 40.25166595593555 -9 44 C-19.23 44 -29.46 44 -40 44 C-40 37.06999999999999 -40 30.14 -40 23 C-32.43750000000012 23.687499999999986 -32.43750000000012 23.687499999999986 -30.099365234375 23.928466796875 C-24.151166589414714 24.381005931708856 -19.99151378446078 23.218912083928558 -15.109375 19.59765625 C-11.061715962434384 15.026593026542287 -9.771882587200022 10.510244981808597 -8.54296875 4.57421875 C-8 2 -8 2 -7 0 C-4.026265604200212 -1.0903692784599173 -3.1159249872085297 -1.0386416624028385 0 0 Z " fill="#B69D71" transform="translate(40,84)"/>
<path d="M0 0 C11.188543925278182 3.5584359884676786 11.188543925278182 3.5584359884676786 13.03125 6.83203125 C13.26595159722784 8.18423249766495 13.462284927201736 9.543511265314507 13.625 10.90625 C14.922134012851643 18.14858157175499 22.59447899081968 23.5780539008571 27.94873046875 28.055908203125 C31.55149452726627 31.17019093115738 32.0068438686159 32.03421934307953 33 37 C18.479999999999997 37 3.9599999999999937 37 -11 37 C-8.750143595634697 25.75071797817347 -8.750143595634697 25.75071797817347 -7.34375 21.640625 C-7.043398437500002 20.752460937500004 -6.743046874999997 19.864296875000008 -6.43359375 18.94921875 C-5.971464843749999 17.613105468750007 -5.971464843749999 17.613105468750007 -5.5 16.25 C-5.191914062500004 15.343789062500008 -4.883828125000001 14.437578125000002 -4.56640625 13.50390625 C-3.976403452845176 11.769348670381746 -3.384097294709427 10.035572189322735 -2.7890625 8.302734375 C-1.8426085893104016 5.540681997022176 -0.9177814213282929 2.7716998924114478 0 0 Z " fill="#CEC49E" transform="translate(42,91)"/>
<path d="M0 0 C4.012231118107493 2.08175007743818 7.543852280203723 4.809368659053334 11.03515625 7.6640625 C15.946438639964526 11.628238743192043 19.740203101659148 13.021906734634243 26 14 C26 17.299999999999997 26 20.6 26 24 C14.45178844559669 27.998204336482495 3.1215094716318106 29.14632369595722 -9 30 C-17.111429688518186 13.950779790607754 -17.111429688518186 13.950779790607754 -16 8 C-12.187891109040848 1.3538891045777959 -7.6771909902796125 -0.8667796279347968 0 0 Z " fill="#49768B" transform="translate(102,32)"/>
<path d="M0 0 C3.709939790663128 5.564909685994699 6 12.110070479242921 6 18.8125 C5.714597499544929 20.21891644554148 5.371074314271226 21.613722373099932 5 23 C4.702226562500002 24.157578125 4.404453125000003 25.31515625 4.09765625 26.5078125 C3.4135981770115364 29.127013169828132 2.705928624209342 31.738557791981975 1.984375 34.34765625 C1.1755413622935222 37.34868581847442 0.4544855677047508 40.33529560745859 -0.1875 43.375 C-1 47 -1 47 -2 48 C-4.343749999999979 48.29296875 -4.343749999999979 48.29296875 -7 48 C-8.84375 46.42578125 -8.84375 46.42578125 -10.5 44.3125 C-12.594557610255244 41.698896315273615 -14.457215389190171 39.59993653445861 -17 37.375 C-19 35 -19 35 -18.86328125 32.33203125 C-17.818863102617406 28.3008607535414 -16.141380493392028 24.9693119373849 -14.1875 21.3125 C-11.65909037949347 16.484319476324316 -9.49708222105587 11.850175495060824 -7.875 6.625 C-6.40576856047403 2.2106875217845925 -6.40576856047403 2.2106875217845925 -2.75 0.3125 C-1.3887500000000017 0.15781249999999858 -1.3887500000000017 0.15781249999999858 0 0 Z " fill="#6C6654" transform="translate(39,36)"/>
<path d="M0 0 C1.801796791211558 1.2067461188252935 3.213813497469488 2.5512912052425634 4.69140625 4.1328125 C4.361406250000002 4.792812499999997 4.031406250000003 5.4528125 3.69140625 6.1328125 C3.17578125 5.802812500000002 2.66015625 5.472812500000003 2.12890625 5.1328125 C-1.2017014914723205 3.766409324011356 -3.7350545743879024 3.8193441512621007 -7.30859375 4.1328125 C-10.909546833317947 5.769609356053614 -13.597656625239225 7.520834125505019 -15.30859375 11.1328125 C-15.773684536429684 17.685120932347544 -13.222525179795554 23.096537013924532 -10.3671875 28.84765625 C-9.30859375 31.1328125 -9.30859375 31.1328125 -9.30859375 33.1328125 C-14.21426038157081 32.587738429825464 -17.61113319721629 30.34194409574227 -21.68359375 27.7578125 C-26.44400806611867 24.75836445529108 -31.078169914703423 22.227685095532223 -36.30859375 20.1328125 C-34.25423169691696 11.386210425510072 -32.1719296525507 4.315465708499332 -24.30859375 -0.8671875 C-16.06809354694633 -5.3284873862169775 -8.106809632140951 -4.298809283014197 0 0 Z " fill="#659AA4" transform="translate(102.30859375,28.8671875)"/>
</svg>
