<?xml version="1.0" encoding="UTF-8"?>
<!-- Generator: visioncortex VTracer 0.6.0 -->
<svg version="1.1" xmlns="http://www.w3.org/2000/svg" width="128" height="128">
<path d="M0 0 C42.24 0 84.48 0 128 0 C128 42.24 128 84.48 128 128 C85.75999999999999 128 43.519999999999996 128 0 128 C0 85.75999999999999 0 43.519999999999996 0 0 Z " fill="#9FB48F" transform="translate(0,0)"/>
<path d="M0 0 C7.920000000000002 0 15.840000000000003 0 24 0 C24 19.14 24 38.28 24 58 C22.019999999999996 58.66 20.040000000000006 59.32 18 60 C16.2931905281704 61.6255328303139 14.62339805019488 63.29115994716328 13 65 C12.278125000000003 65.350625 11.556250000000006 65.70125 10.8125 66.0625 C8.856979740876056 66.84072736302156 8.856979740876056 66.84072736302156 8.17578125 68.7578125 C3.5568261078194183 77.56605253857694 -7.273059633731208 85.70160711321847 -15.625 91 C-19.343788453624484 93.38563787591005 -21.857082021954568 95.95458631645405 -24.59375 99.390625 C-28.469238873018014 103.82590671023173 -33.00388091412965 105.69550725808757 -38.6875 106.5625 C-43.79177214297839 106.52886393974973 -47.77026537854696 104.54293575382464 -52.25 102.3125 C-52.93537841796875 101.97355712890625 -53.6207568359375 101.6346142578125 -54.326904296875 101.285400390625 C-59.52495071149416 98.56557349391869 -63.95181311782724 95.64805107075222 -66.1875 90 C-67.27551391699294 85.36054442942634 -67.87177277902938 80.60558190111351 -68.53515625 75.890625 C-69.0725936660184 72.5485772029107 -69.40769417426696 70.5725622982086 -71.875 68.1875 C-74.46540260704222 65.52090908098596 -75.77855224523975 63.530485976087824 -77 60 C-75.93074813906676 57.30832840788192 -74.95504329472519 55.41702353263146 -73.375 53.0625 C-68.61101678964843 45.56794104712986 -65.64499011218955 38.97549046720365 -64.8125 30.0625 C-64.73064453125 29.28326171875 -64.6487890625 28.5040234375 -64.564453125 27.701171875 C-64.36635829495756 25.80179203400489 -64.18176158859033 23.90101237949185 -64 22 C-63.01 22 -62.019999999999996 22 -61 22 C-61 20.35 -61 18.7 -61 17 C-60.3915625 17.11859375 -59.783125 17.2371875 -59.15625 17.359375 C-52.51943678254409 18.335376943743515 -47.27470634057872 17.570433014227582 -40.84228515625 15.757080078125 C-33.41412009915214 13.711003865681905 -25.867089328576043 12.589752914303121 -18.249267578125 11.483642578125 C-10.710020952561464 10.398823733519539 -10.710020952561464 10.398823733519539 -4 7 C-2.680000000000007 4.6899999999999995 -1.3599999999999994 2.38 0 0 Z " fill="#6D8268" transform="translate(104,0)"/>
<path d="M0 0 C34.32 0 68.64 0 104 0 C100.53913106646426 8.075360844916739 100.53913106646426 8.075360844916739 96.16357421875 10.23046875 C91.75448839816744 11.798674404082178 87.18099664582283 12.3616741523532 82.5625 13 C75.28485509908421 14.088498869305283 68.21070566459997 15.32114381223744 61.125 17.3125 C55.0865397562924 18.93242096308231 50.117010837645566 19.352800473710076 44 18 C43.67 19.32 43.34 20.64 43 22 C42.01 22 41.02 22 40 22 C40.0348046875 22.750234375 40.069609375 23.50046875 40.10546875 24.2734375 C40.41308656016855 35.90432041780155 37.33896753474593 43.953972509070496 31.693359375 53.911376953125 C29.529132563348245 57.71227246683714 29.529132563348245 57.71227246683714 29 62 C29.8353125 63.051875 29.8353125 63.051875 30.6875 64.125 C32.18532529513426 67.40595064648457 32.03101463684948 68.00299997784781 31 71.3125 C29.259884847606596 75.77107830892216 27.227122057974015 80.41634037754727 24 84 C22.667694523351265 84.33741814678628 21.334453992831143 84.67118176768021 20 85 C19.67 85.99 19.34 86.98 19 88 C16.74740938985509 89.21179939891303 14.604334402486689 90.22241352934503 12.25 91.1875 C11.628671875 91.46013671875 11.00734375 91.7327734375 10.3671875 92.013671875 C6.525998216957262 93.63037495931862 4.298665711483284 94 0 94 C0 62.98 0 31.959999999999994 0 0 Z " fill="#AB9EBB" transform="translate(0,0)"/>
<path d="M0 0 C6.9843881791884 6.717808477692657 7.719679061280885 16.802803486786956 8 26 C7.777381777296313 28.693243988395515 7.3892678545949195 31.323783499659868 7 34 C7.329999999999998 34.66 7.659999999999997 35.32 8 36 C8.639457172042555 43.5455946301021 6.671728709719673 47.58824052750664 2.08203125 53.44921875 C-3.534582179515695 60.09968668689558 -10.155794843244294 66.32482468517662 -19 68 C-24.288293317371505 68.39172543091641 -27.561763662009724 67.95882422532685 -32 65 C-37.44297714723169 60.034885942782225 -40.28419624396058 55.12401719507568 -42 48 C-42.226875 47.13374999999999 -42.45375 46.2675 -42.6875 45.375 C-43.590686178603185 38.51078504261579 -42.39160805438882 33.229678859025306 -40.1875 26.8125 C-38.32648450477822 21.279679025833616 -36.72654309310408 15.9455304742851 -35.6875 10.1875 C-34.66284048815881 5.8524020652872615 -33.399306727156805 3.953515208564422 -29.75 1.375 C-20.808300859866137 -3.520616276401796 -9.147016426161343 -5.74489673090757 0 0 Z " fill="#365942" transform="translate(88,25)"/>
<path d="M0 0 C4.742481234609107 1.5808270782030291 7.462458066575724 2.7547793918108994 11.4375 5.4375 C20.044743648100322 11.054981946724908 26.862415747988504 13.165552661557399 37.1875 12.9375 C42.97948402042303 12.863425814510208 48.20977918386143 13.211458217524097 53.87109375 14.54296875 C60.44906439123495 15.955120245457778 66.02234891512714 14.887821218565918 72 12 C73.2248174683904 11.20261442448475 74.43943970741319 10.389395374820651 75.64453125 9.5625 C80.11457274984927 6.732094987297202 84.57678899510894 5.417781654689634 89.6875 4.1875 C90.51572265625 3.9715820312499943 91.3439453125 3.755664062500003 92.197265625 3.533203125 C100.85799065227972 1.3489530180399356 100.85799065227972 1.3489530180399356 104 2 C107.33081605150753 5.282279569882647 109.01750430065238 8.862369182446699 110.6875 13.1875 C111.1038671875 14.232929687500004 111.520234375 15.278359375000008 111.94921875 16.35546875 C113.00000000000001 20.00000000000003 113.00000000000001 20.00000000000003 114 30 C76.38 30 38.75999999999999 30 0 30 C0 20.099999999999994 0 10.200000000000003 0 0 Z " fill="#D5D5A7" transform="translate(0,98)"/>
<path d="M0 0 C7.920000000000002 0 15.840000000000003 0 24 0 C24 15.84 24 31.68 24 48 C15.731756132459509 48 9.733436151715537 47.89704447397494 3 43 C3 42.34 3 41.68 3 41 C2.3400000000000034 41 1.6800000000000068 41 1 41 C0.32591691985132343 39.7330849252563 -0.3390049654714744 38.46129251445602 -1 37.1875 C-1.3712500000000034 36.4798046875 -1.7425000000000068 35.772109375 -2.125 35.04296875 C-3 33 -3 33 -3 30 C-3.6599999999999966 30 -4.319999999999993 30 -5 30 C-5.350625000000008 29.175 -5.701250000000002 28.35 -6.0625 27.5 C-7.678331090891106 24.811063771189275 -7.678331090891106 24.811063771189275 -9.94921875 24.73828125 C-11.525606041151718 24.78913245294038 -13.101366050524149 24.863225513477285 -14.67578125 24.95703125 C-17 25 -17 25 -20.4375 24 C-29.316733126913704 21.507583683673346 -36.72690715577839 23.228240533582827 -45 27 C-45.99 27.66 -46.980000000000004 28.32 -48 29 C-52.605238202258946 29 -55.804928760874134 26.308922496983048 -59.42578125 23.765625 C-61 22 -61 22 -61.23046875 19.296875 C-61.1544140625 18.53890625 -61.078359375 17.7809375 -61 17 C-60.3915625 17.11859375 -59.783125 17.2371875 -59.15625 17.359375 C-52.519436782544105 18.335376943743515 -47.2747063405787 17.57043301422758 -40.84228515625 15.757080078125 C-33.41412009915216 13.711003865681906 -25.86708932857603 12.58975291430312 -18.249267578125 11.483642578125 C-10.710020952561464 10.398823733519539 -10.710020952561464 10.398823733519539 -4 7 C-2.680000000000007 4.6899999999999995 -1.3599999999999994 2.38 0 0 Z " fill="#8A8081" transform="translate(104,0)"/>
<path d="M0 0 C34.32 0 68.64 0 104 0 C100.53913106646426 8.075360844916739 100.53913106646426 8.075360844916739 96.16357421875 10.23046875 C91.75448839816744 11.798674404082178 87.18099664582283 12.3616741523532 82.5625 13 C75.28485509908421 14.088498869305283 68.21070566459997 15.32114381223744 61.125 17.3125 C55.0865397562924 18.93242096308231 50.117010837645566 19.352800473710076 44 18 C43.67 19.32 43.34 20.64 43 22 C40.30298165832734 21.460596331665467 38.26109801194333 20.64475865958814 35.75 19.4375 C28.299573151125013 16.22638184645091 21.263713089667085 18.273444939949012 14 21 C11.086925543753257 22.28450527204581 8.209063299849186 23.616010850864928 5.34765625 25.01171875 C2.999999999999999 26 2.999999999999999 26 0 26 C0 17.42 0 8.84 0 0 Z " fill="#E8D7A5" transform="translate(0,0)"/>
<path d="M0 0 C6.40757969670338 6.163015586142183 7.327321601666853 14.856460644477664 7.9609375 23.31640625 C8.035870748781491 28.464320441288734 7.304367510318471 32.369540612101915 4 36.5 C-0.5877024171054757 38.79385120855274 -3.971121614259147 39.058040319433445 -9 38 C-18.263831517448082 34.54487996537789 -29.332919620358773 29.386024307598056 -35 21.0625 C-36.62851173844004 16.07518280102739 -36.387904877111865 12.406155179530515 -35 7.375 C-31.782594500548214 1.9456282196751182 -27.38243299514744 -0.07349827966488576 -21.625 -2.3125 C-14.279321815956806 -3.7056458624909503 -6.561593557075767 -4.121089940078768 0 0 Z " fill="#5E5621" transform="translate(88,25)"/>
<path d="M0 0 C4.742481234609107 1.5808270782030291 7.462458066575724 2.7547793918108994 11.4375 5.4375 C20.139840508804678 11.117046519314854 27.23381818211636 13.177316426058084 37.5625 13 C45.95711122745496 12.856624914987961 45.95711122745496 12.856624914987961 50 14 C50 14.659999999999997 50 15.319999999999993 50 16 C49.236875 16.680624999999992 48.47375 17.36125 47.6875 18.0625 C44.14254831836878 21.53705784377172 44.14254831836878 21.53705784377172 42 30 C28.14 30 14.279999999999998 30 0 30 C0 20.099999999999994 0 10.200000000000003 0 0 Z " fill="#C0D59B" transform="translate(0,98)"/>
<path d="M0 0 C24.78571428571428 0 24.78571428571428 0 30.8125 5.625 C32.283858386795906 9.806755415104163 31.757611087201923 11.666185243961934 30.125 15.6796875 C26.42904965594198 23.302585084619665 26.42904965594198 23.302585084619665 24 26 C22.667694523351265 26.337418146786263 21.334453992831143 26.67118176768021 20 27 C19.67 27.989999999999995 19.34 28.980000000000004 19 30 C16.747409389855093 31.21179939891303 14.604334402486684 32.22241352934503 12.25 33.1875 C11.628671875 33.46013671874999 11.00734375 33.7327734375 10.3671875 34.013671875 C6.525998216957255 35.63037495931863 4.2986657114832925 36 0 36 C0 24.120000000000005 0 12.239999999999995 0 0 Z " fill="#CAC4AF" transform="translate(0,58)"/>
<path d="M0 0 C0 16.5 0 33 0 50 C-4.6200000000000045 50 -9.239999999999995 50 -14 50 C-14.230742187499999 48.961015625 -14.461484374999998 47.92203125 -14.69921875 46.8515625 C-16.88351628473403 37.38134847453766 -19.555027515865916 29.16745872620112 -25 21 C-20.911698057333567 11.678671570720525 -15.019158527436787 5.744861660086315 -6 1 C-3 0 -3 0 0 0 Z " fill="#CEAF81" transform="translate(128,78)"/>
<path d="M0 0 C0 6.599999999999994 0 13.200000000000003 0 20 C-1.4437499999999943 20.474374999999995 -2.887500000000003 20.948750000000004 -4.375 21.4375 C-12.348907565848421 24.649684040710568 -18.55082774644083 29.800288420008215 -22.17578125 37.6171875 C-23.61081100869211 40.30727720659263 -24.453663038998442 41.70601838835725 -27.156494140625 43.160400390625 C-29.721494851613386 43.93379429485098 -32.236387813985004 44.47583944915257 -34.875 44.9375 C-36.62252298696265 45.300169098476005 -38.369921315999946 45.66343943949772 -40.1171875 46.02734375 C-41.360004882812504 46.26686767578124 -41.360004882812504 46.26686767578124 -42.6279296875 46.51123046875 C-45.813969331751224 47.167719905533744 -48.888599186867424 48.054710652140926 -52 49 C-52.989999999999995 48.00999999999999 -53.980000000000004 47.02000000000001 -55 46 C-54.095078125 45.22076171875 -54.095078125 45.22076171875 -53.171875 44.42578125 C-48.23873025072767 40.17321693737405 -48.23873025072767 40.17321693737405 -43.9375 35.3125 C-42.07458234979882 33.08901764330827 -40.850801361982406 32.2313046567847 -38.390625 30.82421875 C-33.64674512222132 27.92330811069506 -29.79782349639015 24.351843762061293 -25.8125 20.5 C-25.12736328125 19.849023437499994 -24.442226562499997 19.198046875000003 -23.736328125 18.52734375 C-17.014914133924194 12.249088085246143 -17.014914133924194 12.249088085246143 -10.9375 5.375 C-7.278840218911668 0.8901912360852648 -6.001288407225246 0 0 0 Z " fill="#9DA17F" transform="translate(128,58)"/>
<path d="M0 0 C12.21 0 24.42 0 37 0 C38.32 4.95 39.64 9.9 41 15 C41.66 15.66 42.32 16.32 43 17 C43.125 19.625 43.125 19.625 43 22 C40.30298165832734 21.460596331665467 38.26109801194333 20.64475865958814 35.75 19.4375 C28.299573151125013 16.22638184645091 21.263713089667085 18.273444939949012 14 21 C11.086925543753257 22.28450527204581 8.209063299849186 23.616010850864928 5.34765625 25.01171875 C2.999999999999999 26 2.999999999999999 26 0 26 C0 17.42 0 8.84 0 0 Z " fill="#E2B3A4" transform="translate(0,0)"/>
<path d="M0 0 C4.950000000000003 0 9.900000000000006 0 15 0 C13.55055414793965 7.247229260301716 9.910238216212747 10.897118192155949 3.97265625 15.1875 C1.8881749431644153 16.56199434050734 -0.211397997714883 17.913983772682027 -2.328125 19.23828125 C-4.955037832038158 20.825492346086385 -4.955037832038158 20.825492346086385 -6.59375 22.6796875 C-9.369559457635958 25.28586415744709 -13.354239051249749 25.024509317302524 -17 25 C-19.34119554527095 24.361492124017012 -21.674519932006177 23.693564230805173 -24 23 C-32.70103893563524 21.936706085318242 -40.723787906295044 24.149191937530027 -48 29 C-52.605238202258946 29 -55.804928760874134 26.308922496983048 -59.42578125 23.765625 C-61 22 -61 22 -61.23046875 19.296875 C-61.1544140625 18.53890625 -61.078359375 17.7809375 -61 17 C-60.3915625 17.11859375 -59.783125 17.2371875 -59.15625 17.359375 C-52.519436782544105 18.335376943743515 -47.2747063405787 17.57043301422758 -40.84228515625 15.757080078125 C-33.41412009915216 13.711003865681906 -25.86708932857603 12.58975291430312 -18.249267578125 11.483642578125 C-9.442109090068811 10.32282132309565 -9.442109090068811 10.32282132309565 -2.5390625 5.17578125 C-2.2374218749999955 4.5608984375 -1.935781249999991 3.9460156250000002 -1.625 3.3125 C-1.0887500000000045 2.219375 -0.5525000000000091 1.1262499999999998 0 0 Z " fill="#B3A580" transform="translate(104,0)"/>
<path d="M0 0 C3.770215060831937 0.4679904329345064 6.387037044663295 0.7939257256345371 9.1875 3.4375 C11.91656980588386 6.052962512305811 11.91656980588386 6.052962512305811 15 8 C13.924994892693142 12.230461275225224 12.806501988405081 16.44665773910544 11.64599609375 20.654296875 C11.203538180997583 22.260924095606654 10.766633740077026 23.86908814040278 10.33447265625 25.478515625 C9.644804073816246 28.014621749788226 8.920034697848479 30.538477657950565 8.1875 33.0625 C7.975932617187496 33.85889892578125 7.764365234374999 34.6552978515625 7.54638671875 35.475830078125 C5.827308109547928 41.22168328110817 3.1956624236767652 44.86332938205328 -2 48 C-5.125 48.4375 -5.125 48.4375 -8 47 C-10.97052802447661 44.305494491072096 -12.465727123638263 42.00704657271304 -13 38 C-11.468171615602142 34.117909208683145 -9.533505945559273 30.880123663416754 -7.21875 27.4296875 C-3.0863230386692635 21.225321034714902 -1.4950624147049751 15.370301265694522 -0.8125 8.0625 C-0.7306445312500003 7.283261718749998 -0.6487890625000006 6.504023437499999 -0.564453125 5.701171875 C-0.3663582949575641 3.8017920340048903 -0.18176158859033364 1.9010123794918492 0 0 Z " fill="#738079" transform="translate(40,22)"/>
<path d="M0 0 C0.990000000000002 0 1.9799999999999969 0 3 0 C3 1.6499999999999986 3 3.3000000000000007 3 5 C1.6799999999999997 4.670000000000002 0.35999999999999943 4.34 -1 4 C-1 1 -1 1 0 0 Z " fill="#CAC4AF" transform="translate(40,17)"/>
</svg>
