<?xml version="1.0" encoding="UTF-8"?>
<!-- Generator: visioncortex VTracer 0.6.0 -->
<svg version="1.1" xmlns="http://www.w3.org/2000/svg" width="128" height="128">
<path d="M0 0 C42.24 0 84.48 0 128 0 C128 42.24 128 84.48 128 128 C85.75999999999999 128 43.519999999999996 128 0 128 C0 85.75999999999999 0 43.519999999999996 0 0 Z " fill="#4E4A75" transform="translate(0,0)"/>
<path d="M0 0 C11.219999999999999 0 22.439999999999998 0 34 0 C34 42.24 34 84.48 34 128 C18.489999999999995 128 2.9799999999999898 128 -13 128 C-11.87771203155819 119.02169625246547 -11.87771203155819 119.02169625246547 -8.625 113.875 C-6.7631680680524795 110.88814621981186 -5.0157538080722475 108.03411920999605 -3.5390625 104.8359375 C-1.891478297195377 101.80003361361382 -0.5902405107401307 100.6368730665756 2.25 98.75 C9.7847690454997 93.18774772901322 15.182861721741858 84.93770656137853 18 76 C18.71612046120424 70.27103631036609 17.44386208138357 65.17981923225523 15 60 C12.624488681480202 57.12438103547603 10.816578423624776 55.37841439143587 7.4375 53.8125 C3.5350619355652526 50.910687080292114 2.3975858942934565 46.55191383448651 1 42 C1 41.34 1 40.68 1 40 C0.010000000000005116 39.67 -0.980000000000004 39.34 -2 39 C-3.270802267597759 31.721768831031007 -2.6792308275675225 25.726638525279604 -1.117919921875 18.593994140625 C0.23884619282318909 12.057130724818135 0 7.106922977956523 0 0 Z " fill="#6F84A3" transform="translate(94,0)"/>
<path d="M0 0 C7.260000000000005 0 14.519999999999996 0 22 0 C22.973080305881382 7.696180601061878 23.019956208041037 14.205247544397519 21.5 21.75 C20.285532318243185 27.831789519147904 19.528951819346815 32.905657537293926 21 39 C21.4782421875 39.46921875 21.956484375000002 39.9384375 22.44921875 40.421875 C24.41311241233346 42.42039651028393 24.858248671377638 44.21330549154382 25.6875 46.875 C27.540210875187924 51.81794677511528 29.535941105788083 53.388936374186265 34.09765625 55.79296875 C37.98339569341775 58.25845845845191 39.455480585667914 62.184935285559696 40.75 66.5 C41.581469648562305 74.81469648562299 41.581469648562305 74.81469648562299 39.375 79.3125 C36.58052278207256 82.47467158870737 35.13916695063622 83.28360572008219 31 84 C25.160432037663668 83.81461689008457 20.588537304071963 82.74004865417058 16 79 C10.81269771046118 73.1156958524353 9.883874686991206 68.32752428376891 9.76953125 60.59375 C9.21693100065059 57.66366041313451 9.21693100065059 57.66366041313451 5.94921875 56.15625 C4.489355468750006 55.58390625 4.489355468750006 55.58390625 3 55 C3.1069921874999977 54.0680078125 3.2139843749999955 53.136015625 3.32421875 52.17578125 C4.076951764100286 44.17091080972921 3.77510691894679 38.02942615256809 1.62890625 30.1953125 C0.7379531823691394 25.668606852036998 1.2880502652934922 21.566429578053118 1.8046875 17.015625 C2.0390236684148277 13.397474559675103 1.4915765797690312 10.454882177759915 0.47265625 7 C0 5 0 5 0 0 Z " fill="#67609A" transform="translate(72,0)"/>
<path d="M0 0 C14.520000000000003 0 29.040000000000006 0 44 0 C47.73994638069705 18.69973190348525 47.73994638069705 18.69973190348525 46.28125 23.234375 C44.6249806523883 25.51679495463564 43.09577388661012 26.18809250093222 40.5 27.25 C39.705937500000005 27.58515625 38.91187500000001 27.9203125 38.09375 28.265625 C36 29 36 29 34 29 C34 29.66 34 30.32 34 31 C33.34 31 32.68 31 32 31 C31.67 31.99 31.340000000000003 32.98 31 34 C30.340000000000003 34 29.68 34 29 34 C28.752499999999998 34.598125 28.504999999999995 35.19625 28.25 35.8125 C26.187401725317734 39.42204698069397 23.740623716023563 40.697704605704665 19.9375 42.25 C17.000000000000007 43 17.000000000000007 43 14 42 C11.758304423316652 37.60282790727497 10.811457102490586 33.86874261494351 10 29 C9.340000000000003 28.67 8.68 28.34 8 28 C7.554683231815304 26.150222655232803 7.115158697277764 24.298880740147325 6.703125 22.44140625 C5.637618413797526 18.741730603463637 3.878432450614305 15.419505208167273 2.12109375 12.00390625 C1 9 1 9 0 0 Z " fill="#384381" transform="translate(28,0)"/>
<path d="M0 0 C11.219999999999999 0 22.439999999999998 0 34 0 C34 12.540000000000001 34 25.080000000000002 34 38 C25.015894955079432 39.123013130615064 25.015894955079432 39.123013130615064 21.8515625 39.0625 C20.815035400390627 39.049931640625 20.815035400390627 39.049931640625 19.757568359375 39.037109375 C19.053820800781253 39.02486328125 18.350073242187506 39.0126171875 17.625 39 C11.336455719478977 38.93947370702331 5.249527919438677 39.20640915308715 -1 40 C-4.183363135431989 33.43431353317151 -3.0159983764729077 27.202780909284552 -1.5 20.3125 C0.06599005704084959 13.098795802057193 0 7.808689132370978 0 0 Z " fill="#7583B9" transform="translate(94,0)"/>
<path d="M0 0 C3.936725824157861 3.1787707538877896 6.45425299174147 7.451552593726447 9.125 11.6875 C9.567148437500009 12.357167968750005 10.00929687499999 13.026835937499996 10.46484375 13.716796875 C13.518109714014244 18.545753769747606 15.465429623896 23.262759558083886 16 29 C14.307769626734057 34.19756471788824 9.386806282828317 37.05683485058651 5 40 C0.7308559781739206 42.13457201091305 -4.377795507336636 41.57845770510309 -9 41 C-13.009037464722972 39.45846043291942 -16.451583393459494 37.40376608830164 -20 35 C-20.654843749999998 34.58234375000001 -21.309687500000003 34.1646875 -21.984375 33.734375 C-24.850887926348292 31.686865766894073 -25.924485153737578 30.319639560899148 -26.73828125 26.875 C-27.24853691455126 19.32016986216641 -25.934165320214028 9.70438371677021 -21.125 3.6328125 C-19.141166023401766 2.122393449635439 -17.26487712271873 1.029489601235781 -15 0 C-14.216250000000002 -0.49500000000000455 -13.432499999999997 -0.9899999999999949 -12.625 -1.5 C-8.310076176199729 -2.3218902521524285 -4.09445590957823 -1.5312599336634065 0 0 Z " fill="#232B44" transform="translate(68,71)"/>
<path d="M0 0 C8.12015393931551 1.353358989885919 14.10398018272587 4.10398018272587 20 10 C23.677221055214435 15.310272641846936 24.522703674979336 19.623015165252113 24 26 C23.81953125 26.703828125 23.6390625 27.407656250000002 23.453125 28.1328125 C23.03810133885935 30.758910493769292 23.034155216988008 32.874142056928406 23.18359375 35.51171875 C24.02287486969138 51.11663204175272 24.02287486969138 51.11663204175272 19.375 56.9375 C17.962848276490185 58.33975924208417 16.507697201771446 59.7010186221532 15 61 C14.4882421875 61.5375390625 13.976484375 62.075078125000005 13.44921875 62.62890625 C9.22369998320153 66.80681353773595 6.431660989858425 66.57074200225368 0 68 C0 45.56 0 23.119999999999997 0 0 Z " fill="#989AAC" transform="translate(0,14)"/>
<path d="M0 0 C1.3148530065425774 3.506274684113535 0.664522669688937 6.410772546341903 0.125 10.0390625 C-0.04679035386888408 12.734023676318117 0.8355999845372644 14.602705850517893 2 17 C2 17.989999999999995 2 18.980000000000004 2 20 C2.66 20 3.3200000000000003 20 4 20 C4.537539062499999 20.751523437499998 5.075078125000001 21.503046874999995 5.62890625 22.27734375 C8.67313620293218 25.772942229726084 11.734064239794897 26.824958891532077 15.9375 28.5625 C21.618299958610535 31.134817997565847 24.93657709457743 33.11831909322615 27.4375 39.125 C28.696539649581624 43.09703303675542 29.308764936128213 46.85258961676928 30 51 C16.14 51 2.2799999999999976 51 -12 51 C-12 35.81999999999999 -12 20.64 -12 5 C-8.7 3.680000000000007 -5.3999999999999995 2.3599999999999994 -2 1 C-1.3399999999999999 0.6700000000000017 -0.6799999999999997 0.3400000000000034 0 0 Z " fill="#817E7A" transform="translate(12,77)"/>
<path d="M0 0 C2.894531250000007 1.55859375 2.894531250000007 1.55859375 5.8125 3.4375 C6.788320312500005 4.054960937499999 7.764140624999996 4.672421874999998 8.76953125 5.30859375 C9.505585937500001 5.866757812499998 10.241640625000002 6.4249218749999955 11 7 C11 7.659999999999997 11 8.319999999999993 11 9 C11.659999999999997 9 12.32 9 13 9 C13 9.659999999999997 13 10.319999999999993 13 11 C13.659999999999997 11.329999999999998 14.32 11.659999999999997 15 12 C14.481634184827591 16.578898034022913 13.786373699682585 20.995048756952173 12.8125 25.5 C12.056786266421199 29.299560716048973 11.963461246495818 31.624458349957507 13.3125 35.25 C14 39 14 39 12.79296875 41.08203125 C10.906506595791832 43.16577049222994 9.495267568122216 44.68552869179277 7 46 C2.1574048762920413 45.8275240092926 -1.2597342528268207 44.006256573321366 -5.375 41.5625 C-6.434609375000001 40.9450390625 -7.494218750000002 40.327578125 -8.5859375 39.69140625 C-9.382578125000002 39.1332421875 -10.17921875 38.575078125000005 -11 38 C-11 37.34 -11 36.68000000000001 -11 36 C-11.990000000000002 35.67 -12.98 35.34 -14 35 C-14 34.34 -14 33.68000000000001 -14 33 C-14.66 33 -15.32 33 -16 33 C-19.168302310037994 26.029734917916414 -19.566821528052806 20.907253212226294 -17.23046875 13.58984375 C-15.713377698110712 10.396728297928263 -13.760025982564692 7.9649662777562895 -11.5 5.25 C-10.705937499999997 4.285781249999999 -9.911875000000002 3.321562499999999 -9.09375 2.328125 C-5.884042709130547 -1.2408778831309561 -4.5089684423905325 -1.2800067332891771 0 0 Z " fill="#6B5662" transform="translate(30,64)"/>
<path d="M0 0 C9.24 0 18.48 0 28 0 C28.66 2.97 29.32 5.94 30 9 C30.950473088127296 11.198441731689664 31.967770433431777 13.369715438029406 33.0625 15.5 C37.051413596723 23.917780898966924 37.94569039451209 29.543925755737057 34.9609375 38.40234375 C34.30762914847436 40.16840087912418 33.645846921381015 41.93134149300946 32.9765625 43.69140625 C30.558259934010664 50.08263446011467 28.99437204553315 56.23565332183371 28 63 C25.525 63.495 25.525 63.495 23 64 C21.780556694897903 60.19649826265774 21.86713088330561 56.53246937232065 21.875 52.5625 C21.8711328125 50.61537109375 21.8711328125 50.61537109375 21.8671875 48.62890625 C21.97870594662023 45.581828693817826 22.332272541766866 42.956350578436776 23 40 C23.514096471930106 33.72802304245272 22.94666722759874 29.07283705346882 19 24 C13.295981500602899 18.87969614057711 7.336460677630811 16.011610185801995 0 14 C0 9.379999999999999 0 4.76 0 0 Z " fill="#606F90" transform="translate(0,0)"/>
<path d="M0 0 C-1.605652679705969 5.28493721209756 -3.9531479585730267 10.01751416194368 -6.521484375 14.876953125 C-8.336391144114316 18.3950208112025 -9.205653670579352 21.028268352896802 -10 25 C-22.870000000000005 25 -35.74 25 -49 25 C-50.980000000000004 19.72 -52.96 14.439999999999998 -55 9 C-53.04783565482528 5.095671309650555 -51.12613392690197 2.9616005623281865 -48 0 C-44.336473354055855 1.3500652756073208 -41.24233759463678 3.061345755385176 -37.9375 5.125 C-31.929661450966464 8.407883514007551 -26.74873741176029 9.406753166211615 -20 8 C-15.827645447276552 6.001006251605631 -12.48527919736307 3.2665171450382786 -8.984375 0.28125 C-5.916012140588606 -1.699897673005779 -3.434986971782891 -0.7266318594156047 0 0 Z " fill="#4A6577" transform="translate(91,103)"/>
<path d="M0 0 C3.960000000000008 0.04124999999999801 7.920000000000002 0.08250000000000313 12 0.125 C12 12.665 12 25.205 12 38.125 C7.049999999999997 38.455 2.0999999999999943 38.785 -3 39.125 C-3.170156250000005 38.02800781249999 -3.340312499999996 36.931015625 -3.515625 35.80078125 C-3.7596159811620424 34.346219631533955 -4.0044524507465695 32.891799660269015 -4.25 31.4375 C-4.359570312499997 30.716269531249992 -4.469140624999994 29.9950390625 -4.58203125 29.251953125 C-5.3972868017329745 24.553506655802025 -6.502227521504679 21.583908339845365 -10 18.125 C-11.155000000000001 17.568124999999995 -12.310000000000002 17.011250000000004 -13.5 16.4375 C-17.799435618539448 14.209190356842996 -18.812554979276058 10.76239725509599 -20.37109375 6.3671875 C-21 4.125 -21 4.125 -21 2.125 C-13.941000273730879 -0.07228667950043643 -7.351899569906038 -0.10862508517251257 0 0 Z " fill="#9791BC" transform="translate(116,37.875)"/>
<path d="M0 0 C4.579990202644666 3.7834701674021147 7.272954495664777 8.354544956647686 7.875 14.375 C8.257800290340256 18.585803193742777 8.12590101918174 20.863547922437235 6.25 24.6875 C3.4555227820725776 27.849671588707338 2.014166950636209 28.658605720082193 -2.125 29.375 C-7.964567962336332 29.189616890084565 -12.536462695928037 28.11504865417058 -17.125 24.375 C-21.23199210104616 19.716163999071668 -23.262698661659897 15.663874947045954 -23.375 9.375 C-23.400781249999994 8.50875 -23.426562500000003 7.642499999999998 -23.453125 6.75 C-23.125 4.375 -23.125 4.375 -21.94140625 2.703125 C-15.056090554199898 -2.331299379724811 -7.577009004501448 -3.940044682340748 0 0 Z " fill="#9B7586" transform="translate(105.125,54.625)"/>
<path d="M0 0 C5.875 1.875 5.875 1.875 7 3 C7.133295635907899 4.6854492629243865 7.2311981275531565 6.373743963746961 7.3125 8.0625 C7.878963941782274 14.772919002651633 9.59196116636059 19.52687903572169 14.3125 24.375 C20.41522804535184 28.06502160881739 25.21945905751626 28.24309917278869 32 27 C32.99000000000001 26.67 33.97999999999999 26.340000000000003 35 26 C32.98633339473437 34.72588862281769 26.354651663621055 41.52950719103005 19.35546875 46.7578125 C15.435335013015234 48.82514670955416 12.34452961654003 48.48272551294889 8 48 C8.009023437500005 47.41734375 8.018046874999996 46.8346875 8.02734375 46.234375 C7.679814710181304 36.62444155110046 2.722963124291695 29.591924085304626 -2.875 22.0625 C-5.521316334294994 18.248691165280746 -6.294688166043983 15.81385647030524 -5.546875 11.2109375 C-5.152421875000002 9.807148437500004 -5.152421875000002 9.807148437500004 -4.75 8.375 C-4.497343749999999 7.433984375000001 -4.244687499999998 6.492968750000003 -3.984375 5.5234375 C-2.9920681027245166 2.9796666442858495 -2.070380560067818 1.7330713676972138 0 0 Z " fill="#66556B" transform="translate(75,55)"/>
<path d="M0 0 C0 11.219999999999999 0 22.439999999999998 0 34 C-11.219999999999999 34 -22.439999999999998 34 -34 34 C-32.10685598724308 28.32056796172924 -31.515287027769944 27.071211360495298 -27.4375 23.3125 C-23.762746281902025 19.806943575397185 -20.5042638499462 16.250015529931233 -17.375 12.25 C-13.124864539585928 6.939211265394107 -7.502843629663801 0 0 0 Z " fill="#8DBDDB" transform="translate(128,94)"/>
<path d="M0 0 C1.265625 2.312500000000007 1.265625 2.312500000000007 2.25 5 C2.585156249999997 5.886875000000003 2.9203124999999943 6.77375 3.265625 7.6875 C4 10 4 10 4 12 C2.083968427601363 12.647715075575015 0.16714886744713908 13.293099483549469 -1.75 13.9375 C-2.817343749999992 14.297148437499999 -3.8846874999999983 14.656796874999998 -4.984375 15.02734375 C-8.000000000000014 16 -8.000000000000014 16 -10.328125 16.50390625 C-11.155703125000002 16.74947265625 -11.155703125000002 16.74947265625 -12 17 C-12.329999999999998 17.659999999999997 -12.659999999999997 18.32 -13 19 C-15.310000000000002 17.68 -17.620000000000005 16.36 -20 15 C-19.340000000000003 10.71 -18.680000000000007 6.420000000000002 -18 2 C-4.162030598052851 -2.7503477051460337 -4.162030598052851 -2.7503477051460337 0 0 Z " fill="#856B96" transform="translate(95,40)"/>
</svg>
