<?xml version="1.0" encoding="UTF-8"?>
<!-- Generator: visioncortex VTracer 0.6.0 -->
<svg version="1.1" xmlns="http://www.w3.org/2000/svg" width="128" height="128">
<path d="M0 0 C42.24 0 84.48 0 128 0 C128 42.24 128 84.48 128 128 C85.75999999999999 128 43.519999999999996 128 0 128 C0 85.75999999999999 0 43.519999999999996 0 0 Z " fill="#A8AB86" transform="translate(0,0)"/>
<path d="M0 0 C10.56 0 21.12 0 32 0 C30.87692307692308 7.861538461538456 30.87692307692308 7.861538461538456 28.75 11.8125 C28.3104296875 12.6594140625 27.870859375 13.506328125 27.41796875 14.37890625 C26.461161685243095 16.1475496121264 25.484009588563545 17.90531650998799 24.48828125 19.65234375 C21.59040846638897 24.658767766265182 21.59040846638897 24.658767766265182 21.5 30.25 C21.995 31.1575 22.49 32.065 23 33 C23.391875 34.093125 23.78375 35.18625 24.1875 36.3125 C25.78656448587658 39.29557788864411 25.78656448587658 39.29557788864411 29.125 39.9375 C32.67098922411036 39.994693374582425 35.914352295102844 39.71305755103491 39.41796875 39.27734375 C48.9612745821473 38.25226853958781 56.942528338086206 38.1979666531858 65 44 C67 47.00000000000001 67 47.00000000000001 66.625 50.1875 C66.41875 51.115625 66.2125 52.04375 66 53 C67.3303125 52.845312500000006 67.3303125 52.845312500000006 68.6875 52.6875 C73.00684857966723 53.09498571506295 74.25642975354238 54.77227029828515 77 58 C77.99 57.67 78.98 57.34 80 57 C91.03030507335757 56.25218270689101 98.80165781536728 60.8534662151532 107 68 C108.24071587911868 71.72214763735603 108.66762705789347 75.13838440377529 108 79 C105.87500000000001 81.68749999999999 105.87500000000001 81.68749999999999 103 84 C102.1853125 84.873984375 101.370625 85.74796875 100.53125 86.6484375 C96.10181836924484 90.33417723953418 91.06217866082619 89.37094855395617 85.625 88.9375 C84.622109375 88.88400390625 83.61921875 88.8305078125 82.5859375 88.775390625 C68.4758154572057 87.8981251838577 68.4758154572057 87.8981251838577 64.125 84.5625 C63.047911700729365 83.06654402879079 62.022516273667335 81.533774410501 61 80 C60.1711328125 80.322265625 59.342265625 80.64453125 58.48828125 80.9765625 C50.14560660967107 83.42424531720737 39.81502622834952 83.30716052591065 31.9921875 79.36328125 C29.999999999999996 78 29.999999999999996 78 27.42578125 75.68359375 C23.22312916125923 72.11568977315656 18.288275946312993 70.03441122483648 13.3125 67.75 C12.36310546875 67.303984375 11.4137109375 66.85796875 10.435546875 66.3984375 C5.300300217499 63.99570868483947 5.300300217499 63.99570868483947 0 62 C0 41.54 0 21.08 0 0 Z " fill="#8B6259" transform="translate(0,0)"/>
<path d="M0 0 C5.674569750841656 1.1349139501683325 10.182787406539685 3.217593314916442 15.375 5.6875 C16.295390625 6.109667968750003 17.21578125 6.531835937500006 18.1640625 6.966796875 C23.263330301830354 9.381664412581088 27.28721714378759 11.926164432537405 31.447509765625 15.718994140625 C35.940801396589194 19.426542684054652 41.38493128159479 19.313037677030138 46.9375 19.25 C47.953603515625005 19.261601562500005 47.953603515625005 19.261601562500005 48.990234375 19.2734375 C53.71954981883225 19.255300144510713 57.55805450224875 18.459413644632747 62 17 C62.154687499999994 17.9590625 62.154687499999994 17.9590625 62.3125 18.9375 C62.539375 19.618124999999992 62.76625 20.29875 63 21 C63.99 21.33 64.98 21.659999999999997 66 22 C66 22.659999999999997 66 23.319999999999993 66 24 C66.698671875 24.048984375000003 67.39734375 24.097968750000007 68.1171875 24.1484375 C69.027265625 24.223203124999998 69.93734375 24.297968749999995 70.875 24.375 C71.779921875 24.444609375 72.68484375 24.514218749999998 73.6171875 24.5859375 C76 25 76 25 78 27 C77.32453125 27.38671875 76.6490625 27.7734375 75.953125 28.171875 C75.06109375 28.69265625 74.1690625 29.213437499999998 73.25 29.75 C72.36828125 30.26046875 71.4865625 30.770937500000002 70.578125 31.296875 C67.9308694450788 32.92207913744873 67.9308694450788 32.92207913744873 65.796875 35.203125 C64.90742187500001 36.092578125 64.90742187500001 36.092578125 64 37 C63.34 37 62.68 37 62 37 C66.41542738516958 41.924543750335886 71.63000442744388 45.21954242714136 77.1875 48.75 C78.10208984375 49.33910156249999 79.0166796875 49.92820312500001 79.958984375 50.53515625 C84.38495283327774 53.43139199949546 84.38495283327774 53.43139199949546 89 56 C89 59.3 89 62.599999999999994 89 66 C59.629999999999995 66 30.259999999999998 66 0 66 C0 44.22 0 22.439999999999998 0 0 Z " fill="#766B8D" transform="translate(0,62)"/>
<path d="M0 0 C2.5625 1.375 2.5625 1.375 4 3 C4 4.319999999999993 4 5.640000000000001 4 7 C11.920000000000002 6.670000000000002 19.840000000000003 6.340000000000003 28 6 C28 16.560000000000002 28 27.120000000000005 28 38 C15.129999999999995 38 2.259999999999991 38 -11 38 C-11 34.7 -11 31.400000000000006 -11 28 C-11.649687499999999 27.780859375000006 -12.299374999999998 27.561718749999997 -12.96875 27.3359375 C-17.099964875111084 25.515221665865994 -20.73231016537595 23.097749805107327 -24.5 20.625 C-25.2463671875 20.142890625000007 -25.992734374999998 19.66078125 -26.76171875 19.1640625 C-34.615727673920986 14.048531023888629 -34.615727673920986 14.048531023888629 -38 11 C-38 10.340000000000003 -38 9.680000000000007 -38 9 C-36.1154932443489 7.411799338004727 -34.2381323293813 5.947175393247321 -32.25 4.5 C-31.711171875000005 4.096523437499997 -31.172343749999996 3.693046874999993 -30.6171875 3.27734375 C-21.39828922842797 -3.5356469238690806 -10.85289610909237 -3.7657678309566194 0 0 Z " fill="#C1997F" transform="translate(100,90)"/>
<path d="M0 0 C0.6599999999999966 0.6599999999999966 1.3199999999999932 1.3199999999999932 2 2 C0.986796874999996 2.580078125 0.986796874999996 2.580078125 -0.046875 3.171875 C-0.9389062500000023 3.692656249999999 -1.8309375000000045 4.213437499999998 -2.75 4.75 C-3.6317187500000045 5.260468750000001 -4.513437500000009 5.770937500000002 -5.421875 6.296875 C-8.069130554921202 7.922079137448733 -8.069130554921202 7.922079137448733 -10.203125 10.203125 C-10.796093749999997 10.796093749999997 -11.389062499999994 11.389062499999994 -12 12 C-12.659999999999997 12 -13.32 12 -14 12 C-9.584572614830421 16.924543750335886 -4.369995572556121 20.219542427141363 1.1875 23.75 C2.102089843750008 24.339101562500005 3.0166796875000017 24.928203124999996 3.958984375 25.53515625 C8.384952833277737 28.431391999495474 8.384952833277737 28.431391999495474 13 31 C13 34.3 13 37.599999999999994 13 41 C-5.810000000000002 41 -24.620000000000005 41 -44 41 C-44.66 36.05 -45.32 31.099999999999994 -46 26 C-46.309375 24.205624999999998 -46.61875 22.411249999999995 -46.9375 20.5625 C-47.33972936328193 16.085836160510354 -46.288328609105385 13.280534833492865 -43.625 9.68359375 C-37.51063825508152 3.3487622306253257 -28.296573564018672 2.483622566742156 -20 1 C-19.254921875 0.8659375000000011 -18.50984375 0.7318750000000023 -17.7421875 0.59375 C-11.960822055589176 -0.2770832886978667 -5.82460419857415 -0.5286948426398084 0 0 Z " fill="#7F97B1" transform="translate(76,87)"/>
<path d="M0 0 C3.9211926382105986 0.7247949158394604 5.4038360931276515 2.562187683091352 7.9375 5.54296875 C8.927500000000009 5.212968750000002 9.91749999999999 4.882968750000003 10.9375 4.54296875 C21.967805073357553 3.7951514568910127 29.739157815367292 8.396434965153205 37.9375 15.54296875 C39.178215879118696 19.2651163873561 39.60512705789347 22.681353153775262 38.9375 26.54296875 C36.812500000000014 29.230468749999986 36.812500000000014 29.230468749999986 33.9375 31.54296875 C33.122812499999995 32.41695312499999 32.308125000000004 33.2909375 31.46875 34.19140625 C27.03931836924484 37.877145989534185 21.99967866082619 36.91391730395617 16.5625 36.48046875 C15.559609375000008 36.42697265625 14.556718750000002 36.3734765625 13.5234375 36.318359375 C-0.5866845427943304 35.44109393385769 -0.5866845427943304 35.44109393385769 -4.9375 32.10546875 C-6.014588299270635 30.609512778790787 -7.039983726332665 29.076743160500996 -8.0625 27.54296875 C-8.891367187500002 27.865234375 -9.720234374999997 28.1875 -10.57421875 28.51953125 C-18.950995182309285 30.97721929620944 -29.568716992940523 30.919551845544163 -37.35546875 26.765625 C-39.78080707415293 25.02848336279206 -41.463634195773906 23.045541313136496 -43.0625 20.54296875 C-37.3385372267858 18.5407129973144 -33.09852139146655 17.09957233030147 -27.0625 18.54296875 C-21.44301693770477 19.08678969151245 -17.8047985718204 18.694421909926618 -13.0703125 15.51953125 C-9.523499139734653 12.027921210516993 -7.38453785314568 7.594805886661497 -5.1171875 3.2109375 C-3.0625 0.54296875 -3.0625 0.54296875 0 0 Z " fill="#584A87" transform="translate(69.0625,52.45703125)"/>
<path d="M0 0 C10.230000000000004 0 20.460000000000008 0 31 0 C33.697418017039894 12.760862157534898 35.857018155778945 25.06370913623664 29 37 C25.596000837021677 40.49599914035612 22.88171117668955 41.8007464825841 18 42 C9.494649920642942 40.01850836025878 4.3531642961776384 32.73737858804683 -0.125 25.625 C-2.1749622559891293 17.132299225187886 -0.9543707451858197 8.58933670667237 0 0 Z " fill="#C7DAB8" transform="translate(62,0)"/>
<path d="M0 0 C7.479649118499573 -0.3387683748545669 13.173393924256168 0.7862183049917633 19.33984375 5.2265625 C21.525938202640646 8.505704178960968 21.66682037348653 10.005871214665959 21.078125 13.8359375 C18.601015873164158 21.857052767849375 13.304598512846098 27.80259369803717 6.52734375 32.4765625 C1.4706959071473449 34.210270331835204 -3.1531102806717257 33.6813953624476 -8.03515625 31.7890625 C-15.083258861170336 28.313956351436843 -22.041183618231557 23.054247446933267 -24.91015625 15.5390625 C-26.133981147512486 10.592051998787554 -24.84579884056582 7.525862238133001 -22.56640625 3.10546875 C-19.70194731189587 0.2820983622375337 -16.60313876267871 0.5477232309675912 -12.78515625 0.4765625 C-11.647115478515623 0.4386157226562517 -11.647115478515623 0.4386157226562517 -10.486083984375 0.39990234375 C-8.941645989553521 0.3521613311879648 -7.396922081437296 0.3128956020390916 -5.85205078125 0.2822265625 C-3.8997294680612242 0.23264656033838094 -1.9492200473111154 0.12065609684530187 0 0 Z " fill="#9B5926" transform="translate(45.66015625,38.7734375)"/>
<path d="M0 0 C0.8301562500000017 0.35062500000000085 1.6603125000000034 0.7012500000000017 2.515625 1.0625 C6.564301035600664 2.1518298750495077 9.715464705935744 1.714247875025734 13.75 1 C20.982123158563525 -0.06529901969691565 27.72919092931579 -0.8107701379274488 34.13671875 3.40625 C35.48274750783786 4.452306634662563 36.81063499942891 5.522222448914107 38.1171875 6.6171875 C40.81740794980681 8.600336958986745 43.80035069731173 9.121664897301258 47 10 C50 13.096774193548391 50 13.096774193548391 50 16 C50.66 16 51.31999999999999 16 52 16 C53.35278115015848 17.98689731429525 54.68568305387387 19.987452176244375 56 22 C56.66 22.33 57.31999999999999 22.659999999999997 58 23 C58 23.659999999999997 58 24.319999999999993 58 25 C59.31999999999999 25 60.64 25 62 25 C62 32.92 62 40.84 62 49 C58.16885717129031 49.63852380478494 55.21823239642157 50.124769799974075 51.4765625 50.09765625 C50.28740234375 50.092822265625 50.28740234375 50.092822265625 49.07421875 50.087890625 C48.2659765625 50.07951171875 47.457734375 50.0711328125 46.625 50.0625 C45.377832031249994 50.05573242187501 45.377832031249994 50.05573242187501 44.10546875 50.048828125 C42.07028102800115 50.03713164383909 40.03513077135722 50.0191993468996 38 50 C37.72414062499999 49.21238281250001 37.44828125000001 48.42476562499999 37.1640625 47.61328125 C35.716885306140824 44.364417012779256 34.122330070834394 43.56116503541719 31 42 C32.66666666666666 40.33333333333334 34.33333333333334 38.66666666666666 36 37 C36.55687499999999 36.40187499999999 37.11375000000001 35.80375000000001 37.6875 35.1875 C39 34 39 34 41 34 C41.05437607012783 32.41705218072326 41.09296271073947 30.833557440591406 41.125 29.25 C41.14820312500001 28.368281249999995 41.17140624999999 27.486562500000005 41.1953125 26.578125 C40.97659901793918 23.691107036797277 40.69042329078641 22.350448114997945 39 20 C36.88917796373943 18.466667011395614 34.86234933362884 17.12583391500459 32.625 15.8125 C32.0475 15.457363281249997 31.47 15.1022265625 30.875 14.736328125 C24.559336507516093 10.936836503380121 18.724559555982196 10.055088088803558 11.5 11.5 C11.004999999999995 11.665 10.510000000000005 11.829999999999998 10 12 C9.463750000000005 11.195625 8.927499999999995 10.39125 8.375 9.5625 C5.568946311471592 6.534915757114092 4.031748056348036 6.274891912932823 0 6 C0 4.019999999999996 0 2.039999999999999 0 0 Z " fill="#B87A76" transform="translate(66,47)"/>
<path d="M0 0 C11.549999999999997 0 23.099999999999994 0 35 0 C35 12.21 35 24.42 35 37 C31.988749999999996 37.061875 28.977499999999992 37.12375 25.875 37.1875 C24.937690429687507 37.21481201171875 24.000380859375 37.2421240234375 23.03466796875 37.270263671875 C17.99440183722109 37.32018324058982 14.121840565030013 37.21063248759756 10 34 C8.252947339267322 31.13729617732115 7.114292376094895 28.155316877341548 6 25 C5.713183593750003 24.2028759765625 5.426367187500006 23.405751953125 5.130859375 22.58447265625 C4.295569682279236 20.172011266208113 3.5155805408488163 17.747905444996093 2.75 15.3125 C2.4818750000000023 14.49716796875 2.2137500000000045 13.6818359375 1.9375 12.841796875 C1.6848437499999989 12.04451171875 1.4321874999999977 11.2472265625 1.171875 10.42578125 C0.9459667968749983 9.71848876953125 0.7200585937499966 9.0111962890625 0.4873046875 8.282470703125 C0 6 0 6 0 0 Z " fill="#557D69" transform="translate(93,0)"/>
<path d="M0 0 C3.203029888762387 3.2030298887623836 3.8014989466803257 7.765874415751995 4.96875 12.05859375 C6.216694282041175 16.34741492182505 7.3283782600409495 19.178947002888606 11 22 C13.725019076550169 22.90833969218339 15.622339706464444 23.183599851981555 18.44921875 23.31640625 C19.213229980468753 23.35451416015625 19.977241210937507 23.3926220703125 20.764404296875 23.431884765625 C21.729025878906242 23.474987792968747 22.6936474609375 23.5180908203125 23.6875 23.5625 C26.760625000000005 23.706874999999997 29.83375000000001 23.85125 33 24 C33 35.55 33 47.1 33 59 C31.680000000000007 59 30.36 59 29 59 C29 58.34 29 57.68000000000001 29 57 C28.381249999999994 56.77312499999999 27.762500000000003 56.54625 27.125 56.3125 C24.38589791246254 54.6207016518151 23.949755281085885 53.00755839010529 23 50 C22.340000000000003 50 21.680000000000007 50 21 50 C20.44312500000001 49.05125 19.88624999999999 48.1025 19.3125 47.125 C16.422462825421462 43.21954435867764 14.614159214493185 43.1730913257186 10 42 C8.929263051187235 41.20436423199052 7.888368628579556 40.36752401205942 6.875 39.5 C0.9711533875600793 35.06882782095266 -6.6499384984856675 34.580809264029746 -13.77734375 35.47265625 C-16.16333273016116 35.89076764526433 -18.541714772691606 36.35675764438322 -20.90625 36.8828125 C-24 37 -24 37 -26.90625 35.1796875 C-29 33 -29 33 -29 31 C-24.323906708468726 28.661953354234363 -21.172053373686452 27.826846975336522 -15.984375 28.0078125 C-11.52092509440476 27.990239862576395 -8.080127630929297 27.074082140457683 -4.90625 23.91796875 C-2.605337357869388 20.395875012968105 -1.8898862499958966 17.08021585291496 -1.25 13 C-1.0624414062500023 11.9519921875 -1.0624414062500023 11.9519921875 -0.87109375 10.8828125 C-0.24279482110910067 7.2234890679980595 0.1450044101148933 3.712112898941186 0 0 Z " fill="#9E9B88" transform="translate(95,13)"/>
<path d="M0 0 C11.189979123173275 1.118997912317326 11.189979123173275 1.118997912317326 16.75 3 C20.837548337289483 4.369228014461498 24.7292609458182 5.386241094009804 29 6 C29.47952665439704 8.70827003552543 29.95863231018858 11.416613438089826 30.4375 14.125 C30.57220703125 14.885546875000003 30.7069140625 15.646093750000006 30.845703125 16.4296875 C31.110088778185577 17.925723391196442 31.372338667710956 19.422138486416813 31.63232421875 20.9189453125 C31.957427509126166 22.75903857091066 32.30696750942787 24.594777948388582 32.66015625 26.4296875 C33 29 33 29 32 31 C21.439999999999998 31 10.879999999999999 31 0 31 C0 20.769999999999996 0 10.539999999999992 0 0 Z " fill="#92728E" transform="translate(0,97)"/>
<path d="M0 0 C2.5625 1.25 2.5625 1.25 4 3 C4.718337853633315 6.088852770623262 4.574148140946804 8.01203187821983 2.96484375 10.78125 C1.3862386456613933 12.927097607011817 -0.2859137201459987 14.960410467002006 -2 17 C-2.792773437500003 17.975820312500005 -3.5855468750000057 18.951640624999996 -4.40234375 19.95703125 C-6.589302169310656 22.648406619104264 -8.789599283434313 25.327871133751714 -11 28 C-15.989761970422876 26.316945367119274 -20.130741617499325 23.49256163272929 -24.5 20.625 C-25.2463671875 20.142890625000007 -25.992734374999998 19.66078125 -26.76171875 19.1640625 C-34.615727673920986 14.048531023888629 -34.615727673920986 14.048531023888629 -38 11 C-38 10.340000000000003 -38 9.680000000000007 -38 9 C-36.1154932443489 7.411799338004727 -34.2381323293813 5.947175393247321 -32.25 4.5 C-31.711171875000005 4.096523437499997 -31.172343749999996 3.693046874999993 -30.6171875 3.27734375 C-21.373462067476225 -3.5539948013529425 -10.880047060379113 -3.7282919883626704 0 0 Z " fill="#B9BDE4" transform="translate(100,90)"/>
<path d="M0 0 C10.56 0 21.12 0 32 0 C30.874289324068226 7.8799747315224185 30.874289324068226 7.8799747315224185 28.8125 11.75 C28.371640625 12.587890625 27.93078125 13.42578125 27.4765625 14.2890625 C26.989296875 15.183671875 26.50203125 16.07828125 26 17 C25.450859375 18.018359375 24.90171875 19.03671875 24.3359375 20.0859375 C22.901637771866795 22.730215197837996 21.45624013076074 25.36775838907165 20 28 C19.3709375 27.7834375 18.741875 27.566875 18.09375 27.34375 C12.454746921365807 25.509375504540685 7.908839961302184 24.788970001382065 2 25 C1.3399999999999999 24.67 0.6799999999999999 24.34 0 24 C0 16.08 0 8.16 0 0 Z " fill="#727072" transform="translate(0,0)"/>
<path d="M0 0 C2.90625 0.54296875 2.90625 0.54296875 5.28125 3.04296875 C5.8174999999999955 3.867968750000003 6.353749999999991 4.692968749999999 6.90625 5.54296875 C3.8255834940647304 13.893991190108835 -1.2224556748525686 21.841256437643622 -8.09375 27.54296875 C-15.591633068719815 30.68338644110149 -25.126875501249522 30.77967370594729 -32.99609375 28.8203125 C-37.53277171809344 26.955820889152946 -40.402156189927084 24.755898191853248 -43.09375 20.54296875 C-37.3697872267858 18.5407129973144 -33.12977139146655 17.09957233030147 -27.09375 18.54296875 C-21.47426693770477 19.08678969151245 -17.8360485718204 18.694421909926618 -13.1015625 15.51953125 C-9.554749139734653 12.027921210516993 -7.41578785314568 7.594805886661497 -5.1484375 3.2109375 C-3.09375 0.54296875 -3.09375 0.54296875 0 0 Z " fill="#683942" transform="translate(69.09375,52.45703125)"/>
<path d="M0 0 C0.8301562500000017 0.35062500000000085 1.6603125000000034 0.7012500000000017 2.515625 1.0625 C6.564301035600664 2.1518298750495077 9.715464705935744 1.714247875025734 13.75 1 C22.23705572774449 -0.2501518501069171 29.0306581199372 -0.09692953913105384 36.625 4.375 C39.339010840284004 6.554928385770289 39.93241158823119 7.579449882327374 40.4921875 11.0625 C40.49931418062603 14.084212585436347 40.34951388748755 17.00000579906515 40 20 C35.74892229948881 17.980738092257184 31.844168286678382 15.67987055141338 27.9296875 13.0859375 C22.9484354233971 10.282722768632382 16.991252009109147 10.40174959817817 11.5 11.5 C11.004999999999995 11.665 10.510000000000005 11.829999999999998 10 12 C9.463750000000005 11.195625 8.927499999999995 10.39125 8.375 9.5625 C5.568946311471592 6.534915757114092 4.031748056348036 6.274891912932823 0 6 C0 4.019999999999996 0 2.039999999999999 0 0 Z " fill="#8A768A" transform="translate(66,47)"/>
<path d="M0 0 C0 7.259999999999998 0 14.519999999999996 0 22 C-1.3199999999999932 22 -2.6400000000000006 22 -4 22 C-4 21.340000000000003 -4 20.680000000000007 -4 20 C-4.618750000000006 19.773124999999993 -5.237499999999997 19.54625 -5.875 19.3125 C-8.61410208753746 17.620701651815097 -9.050244718914115 16.007558390105288 -10 13 C-10.659999999999997 13 -11.319999999999993 13 -12 13 C-16 7.705882352941174 -16 7.705882352941174 -16 4 C-14.274773002164281 3.3232034194129554 -12.544610611866588 2.6589799950034063 -10.8125 2 C-9.849570312500006 1.6287499999999966 -8.886640624999998 1.2575000000000003 -7.89453125 0.875 C-5 0 -5 0 0 0 Z " fill="#C1997F" transform="translate(128,50)"/>
<path d="M0 0 C5 2 5 2 6.3125 3.625 C7.463094499149733 7.599780997062723 7.885555175634579 12.228889648730842 6 16 C5.340000000000003 16 4.680000000000007 16 4 16 C2.680000000000007 10.719999999999999 1.3599999999999994 5.439999999999998 0 0 Z " fill="#683942" transform="translate(101,65)"/>
<path d="M0 0 C-0.28211876645195844 1.6266848023080769 -0.576023746287575 3.2513289606079354 -0.875 4.875 C-1.0374218750000068 5.779921874999999 -1.1998437499999994 6.684843749999999 -1.3671875 7.6171875 C-2 10 -2 10 -4 12 C-5.980000000000004 10.680000000000007 -7.959999999999994 9.36 -10 8 C-8.333333333333329 6.333333333333329 -6.666666666666671 4.666666666666671 -5 3 C-4.443124999999995 2.401875000000004 -3.886250000000004 1.8037499999999937 -3.3125 1.1875 C-2 0 -2 0 0 0 Z " fill="#8A768A" transform="translate(107,81)"/>
<path d="M0 0 C2.4375 0.8125 2.4375 0.8125 5 2 C5.329999999999998 2.990000000000002 5.659999999999997 3.979999999999997 6 5 C5 6 5 6 2.4375 6.0625 C1.230937499999996 6.0315625 1.230937499999996 6.0315625 0 6 C0 4.019999999999996 0 2.039999999999999 0 0 Z " fill="#8B6259" transform="translate(66,47)"/>
</svg>
