<?xml version="1.0" encoding="UTF-8"?>
<!-- Generator: visioncortex VTracer 0.6.0 -->
<svg version="1.1" xmlns="http://www.w3.org/2000/svg" width="128" height="128">
<path d="M0 0 C42.24 0 84.48 0 128 0 C128 42.24 128 84.48 128 128 C85.75999999999999 128 43.519999999999996 128 0 128 C0 85.75999999999999 0 43.519999999999996 0 0 Z " fill="#699EAE" transform="translate(0,0)"/>
<path d="M0 0 C9.919049801155651 7.4997693618493955 13.028605273996732 18.634101127789933 16.5 30.125 C16.73597900390625 30.860812988281253 16.971958007812503 31.5966259765625 17.215087890625 32.354736328125 C18.805698555221056 37.92591389231977 18.603703474153164 42.483802856469396 16.5625 47.9375 C14.788590102516807 50.811227172929165 12.719641562546116 53.34254535076376 10.5625 55.9375 C-0.647061253042466 69.94459473733728 -4.533379229850411 83.51277537910246 -7.4375 100.9375 C-14.037499999999994 100.9375 -20.637500000000003 100.9375 -27.4375 100.9375 C-28.159374999999997 99.37 -28.881249999999994 97.8025 -29.625 96.1875 C-32.177979613670516 91.15954848307668 -34.20544772283546 88.13602905181321 -39.66015625 86.11328125 C-43.81560660570567 84.79663932894951 -47.97238719607448 83.82124452829956 -52.25 83 C-56.88913325254273 82.0082418311702 -59.974246297176606 80.17088723062518 -62.625 76.125 C-63.4375 73.93749999999999 -63.4375 73.93749999999999 -64.3125 70.375 C-65.06314041846335 66.88994348298945 -65.06314041846335 66.88994348298945 -67.449462890625 65.583251953125 C-69.4375 63.9375 -69.4375 63.9375 -70.122802734375 61.305419921875 C-70.20473876953125 60.27006103515626 -70.2866748046875 59.23470214843749 -70.37109375 58.16796875 C-70.46197265625 57.03166015625 -70.5528515625 55.8953515625 -70.646484375 54.724609375 C-70.72189453125 53.536738281249995 -70.7973046875 52.34886718749999 -70.875 51.125 C-70.97748046875 49.94873046875 -71.0799609375 48.7724609375 -71.185546875 47.560546875 C-71.9682692535314 36.65790209057438 -71.9682692535314 36.65790209057438 -68.4375 31.9375 C-66.3515625 29.8828125 -66.3515625 29.8828125 -64.0625 28.0625 C-60.375434633122396 24.94038819740203 -58.058550306500635 22.03964029354546 -55.66796875 17.88671875 C-49.29667094313109 7.793773970229893 -39.287201882228985 4.529740820697526 -28.25 1.6875 C-27.23494384765624 1.4259008789062513 -26.219887695312508 1.164301757812499 -25.174072265625 0.894775390625 C-16.572917807226446 -1.2161860062808998 -8.657197366168589 -2.675861004088471 0 0 Z " fill="#2E6476" transform="translate(94.4375,27.0625)"/>
<path d="M0 0 C42.24 0 84.48 0 128 0 C128 9.9 128 19.8 128 30 C123.1733834882122 31.20665412794695 121.84223506458686 30.413582916596624 117.375 28.4375 C116.75036865234375 28.16301025390625 116.1257373046875 27.8885205078125 115.482177734375 27.605712890625 C111.82409005536651 25.95832790862259 108.42944756058625 24.110454392042225 105.0625 21.9375 C96.9629559069393 16.87194354575907 85.68460538586035 12.2155668468264 76 14 C72.65279117833872 14.901339891846042 69.34287178832213 15.898578205734507 66.02734375 16.91015625 C61.473492743849434 18.21469860172416 56.861538104915965 19.00763122005989 52.1875 19.75 C51.4116455078125 19.87737548828125 50.635791015625 20.0047509765625 49.83642578125 20.135986328125 C45.917659660393205 20.731268343716085 42.26067811765035 21.01844077460317 38.296875 20.859375 C33.99027356053743 20.793704136093588 31.59436580317793 21.94611138478956 28.0625 24.5 C23.125 28 23.125 28 21 28 C21 28.66 21 29.32 21 30 C15.501112962223932 35.20591354805849 7.93827700404346 42 0 42 C0 28.14 0 14.279999999999998 0 0 Z " fill="#96C5D6" transform="translate(0,0)"/>
<path d="M0 0 C4.002436271592273 0.6123946207900737 7.10013906353052 1.8916608232975172 10.6875 3.75 C12.259511718749991 4.554375 12.259511718749991 4.554375 13.86328125 5.375 C15.415957031250002 6.179375 15.415957031250002 6.179375 17 7 C26.042086995288614 12.047635435272205 26.042086995288614 12.047635435272205 36 14 C36 46.34 36 78.68 36 112 C22.47 112 8.939999999999998 112 -5 112 C-5 102.97732426303855 -5 102.97732426303855 -3.8984375 98.9765625 C-3.6589941406249977 98.10572021484376 -3.4195507812499955 97.2348779296875 -3.1728515625 96.337646484375 C-2.9095605468749994 95.44247314453125 -2.646269531249999 94.5472998046875 -2.375 93.625 C-2.1013964843750017 92.69179931640625 -1.8277929687500034 91.7585986328125 -1.5458984375 90.797119140625 C1.1620332813554484 81.92949773407454 4.743928955276942 75.55368513255506 10.836181640625 68.55908203125 C15.500350145991433 63.177802884859744 19.600636489436567 58.399318376272504 20 51 C18.814718836071492 39.22516738465761 13.98732781304598 24.819508687004898 6.31640625 15.7265625 C4.080786161603655 12.794384223824373 3.0834373367045345 9.487089706214583 2 6 C1.6081250000000011 4.844999999999999 1.2162500000000023 3.6900000000000013 0.8125 2.5 C0.5443750000000023 1.6750000000000007 0.27625000000000455 0.8500000000000014 0 0 Z " fill="#6499AF" transform="translate(92,16)"/>
<path d="M0 0 C1.9065234374999989 0.19142578124999687 1.9065234374999989 0.19142578124999687 3.8515625 0.38671875 C11.61050466092226 1.2769552716216097 16.553183432807103 2.0777604580218707 21.8125 8.0625 C24.26129973540405 12.057910094606612 24.437624620189354 15.404941488011715 24 20 C20.87446487367224 29.93473665154181 14.338230903582499 34.088237688955005 5.5625 38.875 C2.3307459025599826 39.89555392550737 -0.15365440767986627 40.22351599613735 -3.5 40.4375 C-11.112171419923982 40.997523510457626 -15.114658319734303 44.130389740721455 -20.5625 49.125 C-25.979641306442325 54.03970830162896 -30.560046820639933 55.499746292408076 -37.8203125 55.31640625 C-42.3592611742118 54.65752660374345 -45.06954104353046 52.18713728928873 -47.8125 48.6875 C-51.87854834181903 39.48539059483062 -48.30165828107489 30.465102371730353 -45.12109375 21.53125 C-42.6398281100352 15.923367118644563 -38.47074046761641 12.084271743500253 -34 8 C-33.113125 7.092500000000001 -32.22625 6.185000000000002 -31.3125 5.25 C-22.222031572515014 -1.9344024668832986 -10.824138722720306 -1.3725454256645335 0 0 Z " fill="#13486B" transform="translate(80,55)"/>
<path d="M0 0 C1.9142578124999972 0.18949218750000085 1.9142578124999972 0.18949218750000085 3.8671875 0.3828125 C11.619796669766743 1.284278682531017 16.55566347384709 2.080582573688062 21.8125 8.0625 C24.26129973540405 12.057910094606598 24.437624620189354 15.40494148801173 24 20 C21.348133835391394 28.4291460232202 16.54210065538095 32.73088642148248 9 37 C8.365781249999998 37.360937500000006 7.7315624999999955 37.721875 7.078125 38.09375 C2.601069297509383 40.31174089848159 -1.1418340013591717 40.085143115440104 -6 40 C-6.191103515625002 39.40574218750001 -6.3822070312500045 38.81148437499999 -6.5791015625 38.19921875 C-7.462843838178728 35.46397791601001 -8.356349003285345 32.73201876138481 -9.25 30 C-9.550351562499998 29.0654296875 -9.850703124999995 28.130859375 -10.16015625 27.16796875 C-12.028907814649244 21.48219271287573 -14.267715114272079 16.319492697877365 -17 11 C-17 10.340000000000003 -17 9.680000000000007 -17 9 C-17.659999999999997 9 -18.32 9 -19 9 C-19 8.340000000000003 -19 7.68 -19 7 C-19.990000000000002 6.670000000000002 -20.979999999999997 6.340000000000003 -22 6 C-23.1875 3.9375 -23.1875 3.9375 -24 2 C-15.766958122997863 -1.6109832793869003 -8.81601724168813 -0.9990317749030311 0 0 Z " fill="#1A4159" transform="translate(80,55)"/>
<path d="M0 0 C6.890928751641074 1.1484881252735164 9.568382689834106 2.809982201702624 14 8 C17.778227115735117 14.319251397602315 19.611993332584337 20.82863221835241 21 28 C21.33 28.33 21.66 28.659999999999997 22 29 C22.160046177079476 31.018360122057842 22.27748160335003 33.040154202806576 22.375 35.0625 C22.965370099128112 43.354929238522544 24.717254651607192 48.48461407031553 30 55 C30.33 56.650000000000006 30.66 58.3 31 60 C20.77 60 10.54 60 0 60 C0 40.2 0 20.400000000000006 0 0 Z " fill="#98D2E4" transform="translate(0,68)"/>
<path d="M0 0 C0 14.849999999999994 0 29.700000000000003 0 45 C-10.230000000000004 45 -20.460000000000008 45 -31 45 C-29.091566265060237 18.281927710843377 -29.091566265060237 18.281927710843377 -20 10 C-6.8788501026694036 0 -6.8788501026694036 0 0 0 Z " fill="#93C0D5" transform="translate(128,83)"/>
<path d="M0 0 C10.56 0 21.12 0 32 0 C32.495 6.4350000000000005 32.495 6.4350000000000005 33 13 C33.31199001647921 15.669247918766544 33.63456467475187 18.337542630335086 34 21 C32.211903034438606 22.172130452341246 30.419408752573553 23.337555255402226 28.625 24.5 C27.627265625 25.1496875 26.62953125 25.799375 25.6015625 26.46875 C23 28 23 28 21 28 C21 28.66 21 29.32 21 30 C15.501112962223932 35.20591354805849 7.93827700404346 42 0 42 C0 28.14 0 14.279999999999998 0 0 Z " fill="#87AFCB" transform="translate(0,0)"/>
<path d="M0 0 C0.7631250000000023 0.06187500000000057 1.5262500000000045 0.12375000000000114 2.3125 0.1875 C1.3352081725440996 2.2573303326778245 0.3362337996714473 4.1538294588998355 -0.984375 6.02734375 C-5.0502497106138975 11.896630630644253 -7.069407921940211 18.01230250595283 -9 24.8125 C-9.254267578124995 25.707028808593748 -9.508535156249991 26.601557617187495 -9.7705078125 27.523193359375 C-11.215999524697395 32.8415211997965 -11.990754301545621 37.613534412365 -12.6875 43.1875 C-19.287499999999994 43.1875 -25.887500000000003 43.1875 -32.6875 43.1875 C-33.7703125 40.83625000000001 -33.7703125 40.83625000000001 -34.875 38.4375 C-37.50428687306954 33.25926557498249 -39.58243040956469 30.281439901861063 -45.2265625 28.29296875 C-47.701586132424225 27.529545967604363 -50.178818188762776 26.830501939967604 -52.6875 26.1875 C-50.6875 24.1875 -50.6875 24.1875 -47.453125 22.8828125 C-43.48633881767374 21.24882544562209 -40.612125141425196 18.901662175449843 -37.4375 16.0625 C-32.863017534023456 12.025519223775703 -29.936982304896148 10.19078800059151 -23.75 10 C-16.682159788504634 9.425914443540321 -9.098286487904403 6.614187590412115 -4.01171875 1.50390625 C-2.6875 0.1875 -2.6875 0.1875 0 0 Z " fill="#4B6A86" transform="translate(99.6875,84.8125)"/>
<path d="M0 0 C-0.4273242187500017 1.2104296875000031 -0.4273242187500017 1.2104296875000031 -0.86328125 2.4453125 C-1.6979314862813055 5.055387122048074 -2.4091884979360785 7.584934843544914 -3.04296875 10.2421875 C-6.885167875217007 26.05633365707429 -6.885167875217007 26.05633365707429 -14 32 C-24.516484273406817 40.94098101147321 -27.77960032136214 49.630461940200405 -31 63 C-35.87499999999999 61.125 -35.87499999999999 61.125 -37 60 C-37.60323749759893 55.79143584359272 -37.89644765616117 51.54832904253058 -38.25 47.3125 C-38.366015625 46.12720703125001 -38.48203125 44.94191406249999 -38.6015625 43.720703125 C-39.51965692685053 32.66014661773987 -39.51965692685053 32.66014661773987 -36 28 C-33.914062499999986 25.945312499999993 -33.914062499999986 25.945312499999993 -31.625 24.125 C-27.93793463312239 21.002888197402022 -25.621050306500635 18.102140293545474 -23.23046875 13.94921875 C-18.921771525461125 7.1236952101749225 -12.648031319009043 2.656755853575987 -4.94921875 0.3984375 C-3 0 -3 0 0 0 Z " fill="#397182" transform="translate(62,31)"/>
<path d="M0 0 C15.510000000000005 0 31.020000000000003 0 47 0 C47.495000000000005 6.4350000000000005 47.495000000000005 6.4350000000000005 48 13 C38.70646492783219 15.809156957298038 29.47499809798623 18.295102508932647 19.875 19.8125 C19.106960449218747 19.93600830078125 18.3389208984375 20.0595166015625 17.547607421875 20.186767578125 C12.6505547975907 20.9133031965967 7.9496513950577565 21.10662514343095 3 21 C0.6081988936012763 14.772291458810873 -0.9492475798874622 8.712007559883077 -1 2 C-0.6700000000000017 1.3399999999999999 -0.33999999999999986 0.6799999999999999 0 0 Z " fill="#9AC2C3" transform="translate(32,0)"/>
<path d="M0 0 C1.887187499999996 0.15468749999999964 1.887187499999996 0.15468749999999964 3.8125 0.3125 C8.324829429776159 2.701380286352082 8.885842103841554 5.745774054056845 10.37109375 10.46875 C11 13.000000000000004 11 13.000000000000004 11 15 C10.298347167968757 14.8403173828125 9.5966943359375 14.680634765625001 8.873779296875 14.51611328125 C-1.1884617209312012 12.7089960005056 -10.601804249857906 14.404404839866018 -20.3125 17.125 C-21.42689453125 17.40859375 -22.5412890625 17.6921875 -23.689453125 17.984375 C-30.606263659438618 19.868171829983282 -35.636907383879425 22.251900796171547 -41 27 C-42.16563748035315 27.959584885919355 -43.33223324293071 28.91800747653246 -44.5 29.875 C-45.325 30.57625 -46.15 31.277500000000003 -47 32 C-49.25943749177752 23.95075393554258 -49.1967627679803 16.296830049836217 -49 8 C-48.2856982421875 7.899775390624999 -47.571396484375 7.799550781249998 -46.83544921875 7.6962890625 C-29.096697060940485 5.184047122080603 -29.096697060940485 5.184047122080603 -11.7734375 0.7578125 C-7.730901888203206 -0.34676765308250346 -4.139957784910564 -0.4865687436448667 0 0 Z " fill="#5D9099" transform="translate(85,13)"/>
<path d="M0 0 C5.6185164528722815 2.931399888455104 5.6185164528722815 2.931399888455104 6.66796875 5.87109375 C6.7981640625 6.553007812499999 6.928359374999999 7.234921874999998 7.0625 7.9375 C7.908070496486502 12.303570736665876 9.30251203059018 14.32522146893757 13 17 C15.165739938920439 17.70193942684378 17.291587211476276 18.14390917675152 19.53125 18.55078125 C26.83033221034475 19.87893703194564 32.85502318532764 21.48752484142247 38 27 C42 33.500000000000014 42 33.500000000000014 42 37 C30.119999999999997 37 18.239999999999995 37 6 37 C5.009999999999998 35.02000000000001 4.02 33.03999999999999 3 31 C1.7357110879052726 28.946444021395266 0.4178834952202557 26.939715092786926 -0.9140625 24.9296875 C-4.10562255688777 19.258354161501586 -3.468190032900825 12.29715594251607 -3 6 C-2.256237758754036 3.582772715950611 -1.4387098571751622 2.0981185417137738 0 0 Z " fill="#4F83A7" transform="translate(25,91)"/>
<path d="M0 0 C5.453041675584856 1.7220131607110147 10.703481202181251 3.8527626495329343 16 6 C16 9.299999999999997 16 12.599999999999994 16 16 C14.576875000000001 16.495000000000005 13.153750000000002 16.989999999999995 11.6875 17.5 C3.438649190161996 20.827661406241475 -4.763981539469626 25.796075786378537 -9.08203125 33.82421875 C-12.741249652587683 42.497344921239744 -13.848754880918122 51.7223187462225 -15 61 C-18.299999999999997 61 -21.599999999999994 61 -25 61 C-25.322153083125173 54.418872730443 -24.22840826780049 48.92647468284311 -22.375 42.625 C-22.101396484375 41.69179931640625 -21.827792968750003 40.75859863281249 -21.5458984375 39.797119140625 C-18.605561288773828 30.16844332839284 -14.38519452820995 23.563702099725887 -7.8125 16 C-3.4514147374911346 10.937206281719028 -1.135043026280087 6.577428818956378 0 0 Z " fill="#6A93A7" transform="translate(112,67)"/>
<path d="M0 0 C2.4459356598142428 1.8539671889549396 2.9657691121210377 2.759396355389228 3.40625 5.85546875 C3.4371875000000003 6.955039062500006 3.4681250000000006 8.054609374999998 3.5 9.1875 C3.969746615227983 17.467935433136404 5.728328906857591 22.498272318457694 11 29 C11.329999999999998 30.650000000000006 11.66 32.3 12 34 C1.7699999999999996 34 -8.46 34 -19 34 C-19 28.72 -19 23.439999999999998 -19 18 C-9.37499999999999 13.125 -9.37499999999999 13.125 -6 12 C-4.879981742281846 10.177657117950034 -4.879981742281846 10.177657117950034 -4 8 C-2.666666666666668 5.333333333333329 -1.3333333333333321 2.6666666666666714 0 0 Z " fill="#73B9DD" transform="translate(19,94)"/>
</svg>
