<?xml version="1.0" encoding="UTF-8"?>
<!-- Generator: visioncortex VTracer 0.6.0 -->
<svg version="1.1" xmlns="http://www.w3.org/2000/svg" width="128" height="128">
<path d="M0 0 C42.24 0 84.48 0 128 0 C128 42.24 128 84.48 128 128 C85.75999999999999 128 43.519999999999996 128 0 128 C0 85.75999999999999 0 43.519999999999996 0 0 Z " fill="#D4DCA7" transform="translate(0,0)"/>
<path d="M0 0 C4.930706948750705 0.986141389750145 6.083376340543065 1.5391552800021628 9.6875 4.625 C13.175520519702042 7.518649310066721 16.684805503412704 10.30476153345397 20.375 12.9375 C21.5622265625 13.786347656250001 21.5622265625 13.786347656250001 22.7734375 14.65234375 C25.017413439805832 16.010539713566686 26.394277716058244 16.774693185974968 29 17 C30.98292954720247 16.38704314566533 32.939894986813044 15.687896083667255 34.875 14.9375 C44.59588665579811 11.780942423004888 53.91118969592015 13.412546832049685 62.97265625 17.91796875 C63.6416796875 18.2750390625 64.310703125 18.632109375 65 19 C66.43599494156165 19.732126222441977 67.87345936220791 20.461378577260874 69.3125 21.1875 C69.9273828125 21.511054687500007 70.542265625 21.834609375 71.17578125 22.16796875 C77.96289549433658 25.26359045030769 84.46053945705026 24.448945048994617 91.375 22.25 C96.68254201255813 20.125758848491728 99.79259877278812 17.435778034378018 103.1875 12.9375 C107.48189840479338 7.290262033114999 110.99690972975293 4.371438511256713 118 3 C121.3 2.6700000000000017 124.6 2.3400000000000034 128 2 C128 22.129999999999995 128 42.260000000000005 128 63 C85.75999999999999 63 43.519999999999996 63 0 63 C0 42.209999999999994 0 21.419999999999987 0 0 Z " fill="#7A6019" transform="translate(0,65)"/>
<path d="M0 0 C12.21 0 24.42 0 37 0 C36.07012272502138 3.719509099914496 35.44231344706003 5.0547638208473025 33.1875 7.9375 C32.6499609375 8.63359375 32.112421875 9.3296875 31.55859375 10.046875 C30.3104045251761 11.611021898275565 29.034600398856643 13.153116190254565 27.75 14.6875 C24.78835084967796 18.601107805782696 23.80404507467651 22.209639863317435 23.5625 27.0625 C23.294185105014627 31.266100021437516 22.469085631698132 34.60647791084901 21.0625 38.5625 C18.54357784617302 47.916749746007966 23.13754533056383 57.549886309393536 27.46484375 65.7890625 C30.587740295175205 70.40852719563313 34.550771498276816 73.5927816506539 40 75 C44.647007054914624 75.17364261237225 49.01015856607256 74.0072535242575 53.5 72.9375 C58.81216113249528 71.69304267175809 64.06847598669597 71.40240200691876 69.43359375 72.49609375 C76.87950767621307 73.9580768496674 84.25583000960242 73.62441788599598 91 70 C94.60505102954257 67.5199212217943 94.60505102954257 67.5199212217943 97 64 C97.03707444150905 62.474341519169045 97.0133565049076 60.94694410663229 96.95703125 59.421875 C96.925126953125 58.05095703125 96.925126953125 58.05095703125 96.892578125 56.65234375 C96.83961351397576 54.73269955531692 96.77470061849998 52.81334413977926 96.697265625 50.89453125 C96.58690362062231 45.065782426200286 96.9239404089011 41.534526750730414 101 37 C108.827617690998 30.99773013190279 118.63338181789328 32 128 32 C128 43.55 128 55.1 128 67 C122.72 68.32 117.44 69.64 112 71 C106.96041991200433 74.35972005866378 105.46680685161671 75.37596833712472 102.4375 79.9375 C97.33176111806561 86.57202058170745 90.79898043293208 88.88827836259851 82.73828125 90.43359375 C75.76900461768409 90.90009705398869 69.17106566023675 87.21432907265239 63.25 83.9375 C53.59659614763492 78.96273973252352 44.63240922362698 78.53083342067863 34.5625 81.6875 C29.917254520889397 82.93408790560912 27.339870827161597 83.45297046752611 23 81 C19.897056053441233 78.78700173601067 16.945781949293394 76.41680298311056 14 74 C12.422168908515388 72.72234165274905 10.838972618100152 71.45127522704138 9.25 70.1875 C8.205859375 69.34251953125 8.205859375 69.34251953125 7.140625 68.48046875 C4.664575722764663 66.65057197279637 4.664575722764663 66.65057197279637 0 65 C0 43.55 0 22.1 0 0 Z " fill="#B1A96D" transform="translate(0,0)"/>
<path d="M0 0 C9.962218649517682 1.1069131832797439 9.962218649517682 1.1069131832797439 15.125 3.625 C19.919818616814574 5.73642393405413 22.82444848400149 6.552665454799552 28 5 C28.9075 4.628749999999997 29.815 4.257499999999993 30.75 3.875 C38.48195847679007 1.7933188716334456 47.74712675313522 3.833633694465746 55 7 C58.224927603536024 9.488269013895817 59.93292281977384 13.12126209870118 61.875 16.625 C62.2243359375 17.248745117187497 62.573671875 17.872490234374993 62.93359375 18.51513671875 C63.6328727860556 19.764356140633453 64.33049666499699 21.01450368286521 65.0263671875 22.265625 C65.87712301250032 23.781113811635464 66.75292193744741 25.282489041776458 67.6328125 26.78125 C68.083984375 27.5546875 68.53515625 28.328125 69 29.125 C69.5878125 30.1188671875 69.5878125 30.1188671875 70.1875 31.1328125 C71 33 71 33 71 37 C47.57 37 24.14 37 0 37 C0 24.789999999999992 0 12.579999999999998 0 0 Z " fill="#626728" transform="translate(0,91)"/>
<path d="M0 0 C4.930706948750705 0.986141389750145 6.083376340543065 1.5391552800021628 9.6875 4.625 C13.175520519702042 7.518649310066721 16.684805503412704 10.30476153345397 20.375 12.9375 C21.5622265625 13.786347656250001 21.5622265625 13.786347656250001 22.7734375 14.65234375 C25.017413439805832 16.010539713566686 26.394277716058244 16.774693185974968 29 17 C30.98292954720247 16.38704314566533 32.939894986813044 15.687896083667255 34.875 14.9375 C44.59588665579811 11.780942423004888 53.91118969592015 13.412546832049685 62.97265625 17.91796875 C63.6416796875 18.2750390625 64.310703125 18.632109375 65 19 C66.43599494156165 19.732126222441977 67.87345936220791 20.461378577260874 69.3125 21.1875 C69.9273828125 21.511054687500007 70.542265625 21.834609375 71.17578125 22.16796875 C77.96289549433658 25.26359045030769 84.46053945705026 24.448945048994617 91.375 22.25 C96.68254201255813 20.125758848491728 99.79259877278812 17.435778034378018 103.1875 12.9375 C107.48189840479338 7.290262033114999 110.99690972975293 4.371438511256713 118 3 C121.3 2.6700000000000017 124.6 2.3400000000000034 128 2 C128 9.920000000000002 128 17.840000000000003 128 26 C126.02 25.979375000000005 124.04 25.958749999999995 122 25.9375 C116.89046425258658 25.931915807926316 112.0427279363024 26.20898385312904 107 27 C106.835 26.360625 106.67 25.721249999999998 106.5 25.0625 C105.0363848919819 22.655650884643833 105.0363848919819 22.655650884643833 101.5625 21.6875 C97.05058549775558 21.302636149536312 94.87343573608518 23.30520183951711 91.5 26.125 C89.65692845688466 27.738946528875587 87.82283070196104 29.363227461404804 86 31 C79.9498753160924 36.31200947247086 74.74206951599223 36.51325124135701 66.78125 36.37109375 C62.678886396201094 35.968485751693294 58.95579836280052 35.11146375153788 55 34 C52.98495735013547 33.44638738714707 50.96931304053925 32.89573201962111 48.951171875 32.353515625 C47.6021074737621 31.991060882863337 46.255707727161955 31.618547521227356 44.912109375 31.236328125 C38.883485037864965 29.648614621245287 34.30582794961518 30.271843805384677 28.4375 32.125 C22.16289374175296 33.722172502099255 17.56485793997644 31.550347802703186 11.85546875 29.03515625 C8.020416828945796 27.644884349754633 3.982134831967375 26.884918851548306 0 26 C0 17.42 0 8.840000000000003 0 0 Z " fill="#879058" transform="translate(0,65)"/>
<path d="M0 0 C4.879962322151883 -0.8019039209154077 9.15764137393208 -1.1314407079129771 14 0 C19.990555514589076 6.244170273600872 23.138132166368663 13.74550268124259 23.1875 22.375 C23.20167968749999 23.496484375 23.215859375000008 24.61796875 23.23046875 25.7734375 C22.85497969096761 31.030284326453476 21.39895596699637 34.11323227924155 17.4375 37.5625 C8.120262117038507 45.3240466211966 -1.2625164811021108 46.187966817918294 -13 46 C-20.51326053042122 32.78471138845554 -20.51326053042122 32.78471138845554 -19 25 C-17.095872584841565 19.168609791077294 -12.638537761196446 14.880220547582587 -8 11 C-7.340000000000003 11 -6.68 11 -6 11 C-6 10.34 -6 9.68 -6 9 C-5.195625 8.21625 -4.391249999999999 7.4325 -3.5625 6.625 C-1.0543813132089497 4.05570768670186 -0.6137245276297563 3.31552331018374 0 0 Z " fill="#E7F0BA" transform="translate(68,0)"/>
<path d="M0 0 C15.180000000000007 0 30.36 0 46 0 C46 10.56 46 21.12 46 32 C36.874999999999986 32.8125 36.874999999999986 32.8125 34.03466796875 33.046142578125 C29.047679025338866 33.53209517484717 25.425073715126274 34.48418706227245 21 37 C20.340000000000003 37 19.680000000000007 37 19 37 C18.690624999999997 37.61875 18.381249999999994 38.2375 18.0625 38.875 C17.375 40.25 16.6875 41.625 16 43 C12.216122142396301 41.78375354577024 10.685911684929124 39.469495663013205 8.8115234375 36.066162109375 C7.1259170672578875 31.774559608966147 7.85020312643428 27.27013142417487 8.15625 22.759765625 C8.459158678253317 15.370055995111958 5.810206527855783 10.615335762371071 1.75 4.625 C0 1.9999999999999996 0 1.9999999999999996 0 0 Z " fill="#D0D196" transform="translate(82,0)"/>
<path d="M0 0 C0.9487500000000004 0.8456249999999983 1.8975000000000009 1.6912500000000001 2.875 2.5625 C9.193460826115938 7.931292365276867 14.951498098535346 12.466663773782173 23 14.75 C31.634060739183568 18.00309127205368 34.441483637760705 27.01197005425979 38.00830078125 34.88671875 C39.172994566763165 37.36864622597291 40.520355984532806 39.6930789790799 42 42 C37.32583734259181 42.91189185586245 32.648218134923596 43.79596767111087 27.96142578125 44.640625 C26.37605787915794 44.93109818295737 24.794703795038494 45.24342588150695 23.21484375 45.5625 C18.370803282766985 46.38265499974315 15.11794718566528 45.85210123214962 10.84765625 43.34765625 C3.9019405946568746 38.28154229420005 1.541158295052547 31.989668001911937 -1 24 C-1.520136718749999 22.793437499999996 -1.520136718749999 22.793437499999996 -2.05078125 21.5625 C-5.153500180257701 13.799318479025999 -2.727162396964932 7.540441049775545 0 0 Z " fill="#C9CC96" transform="translate(23,30)"/>
<path d="M0 0 C0 11.549999999999997 0 23.1 0 35 C-5.280000000000001 36.31999999999999 -10.560000000000002 37.64 -16 39 C-17.650000000000006 39.66 -19.299999999999997 40.31999999999999 -21 41 C-21.659999999999997 40.67 -22.319999999999993 40.34 -23 40 C-23 39.34 -23 38.68000000000001 -23 38 C-24.144687500000003 37.566874999999996 -24.144687500000003 37.566874999999996 -25.3125 37.125 C-28 36 -28 36 -31 34 C-31.667885851840865 30.29212374216688 -31.46281744467514 26.510791327198582 -31.4375 22.75 C-31.457480468750006 21.7123046875 -31.4774609375 20.674609375000003 -31.498046875 19.60546875 C-31.494111603646928 13.442833811088533 -31.228638012369487 9.617822395808808 -27 5 C-19.172382309002003 -1.0022698680971978 -9.366618182106691 0 0 0 Z " fill="#C0BA7C" transform="translate(128,32)"/>
<path d="M0 0 C12.21 0 24.42 0 37 0 C36.07012272502138 3.719509099914496 35.44231344706003 5.0547638208473025 33.1875 7.9375 C32.6499609375 8.63359375 32.112421875 9.3296875 31.55859375 10.046875 C30.3104045251761 11.611021898275565 29.034600398856643 13.153116190254565 27.75 14.6875 C24.770870015458783 18.624207479572323 23.80288569138271 22.244442023442 23.5625 27.125 C23.13083889229284 33.000387299347466 21.72706757573221 38.38431486381414 20 44 C16.002251935121627 42.50603186502815 12.758682649997427 40.62102073054217 9.2578125 38.21875 C6.343444217152898 36.54112650036524 6.343444217152898 36.54112650036524 0 35 C0 23.45 0 11.899999999999999 0 0 Z " fill="#B3B785" transform="translate(0,0)"/>
<path d="M0 0 C3.274881541596727 0.9793198574322162 4.674753532571515 2.2607938753737358 6.84765625 4.8515625 C5.101837229144365 9.728151943730836 2.5708475663113006 14.105285114375846 0.03515625 18.6015625 C-0.3908789062500091 19.362109375000003 -0.8169140624999898 20.122656250000006 -1.255859375 20.90625 C-1.681894531250009 21.666796875000003 -2.1079296874999898 22.427343750000006 -2.546875 23.2109375 C-2.973071289062503 23.97341796875 -3.3992675781250057 24.735898437499998 -3.83837890625 25.521484375 C-4.732747067899936 27.107483954113164 -5.639183223090242 28.68672503261952 -6.55615234375 30.259765625 C-7.004262695312491 31.037714843749995 -7.45237304687501 31.815664062500005 -7.9140625 32.6171875 C-8.319714355468747 33.31102539062499 -8.725366210937494 34.00486328125001 -9.143310546875 34.7197265625 C-10.43882409238843 37.23423915388665 -10.43882409238843 37.23423915388665 -11.15234375 41.8515625 C-17.092343749999998 41.8515625 -23.032343749999995 41.8515625 -29.15234375 41.8515625 C-30.142343749999995 39.2115625 -31.132343750000004 36.5715625 -32.15234375 33.8515625 C-33.33485491193336 31.475071211534555 -33.33485491193336 31.475071211534555 -34.59765625 29.45703125 C-35.25314453125 28.365517578125008 -35.25314453125 28.365517578125008 -35.921875 27.251953125 C-36.3691796875 26.52169921875 -36.816484375 25.791445312500002 -37.27734375 25.0390625 C-38.17829904685823 23.55491092741343 -39.07684377777841 22.0692926096676 -39.97265625 20.58203125 C-40.3672705078125 19.936452636718755 -40.761884765625 19.290874023437496 -41.16845703125 18.625732421875 C-42.15234375 16.8515625 -42.15234375 16.8515625 -43.15234375 13.8515625 C-42.56332275390625 13.882983398437503 -41.9743017578125 13.914404296875006 -41.367431640625 13.94677734375 C-27.34036152257636 15.184408109976857 -27.34036152257636 15.184408109976857 -15.05859375 9.72265625 C-14.429531249999997 9.105195312500001 -13.800468749999993 8.487734375000002 -13.15234375 7.8515625 C-11.439847024626502 6.353127865298191 -9.709991290111958 4.874340368123086 -7.96484375 3.4140625 C-7.187539062500008 2.714101562500005 -6.410234375000002 2.014140624999996 -5.609375 1.29296875 C-3.15234375 -0.1484375 -3.15234375 -0.1484375 0 0 Z " fill="#737538" transform="translate(100.15234375,86.1484375)"/>
<path d="M0 0 C10.253816793893128 1.1393129770992374 10.253816793893128 1.1393129770992374 15.25 3.25 C16.22453125 3.6470312499999977 17.1990625 4.0440624999999955 18.203125 4.453125 C24.417870372930167 7.890330541452997 27.431876542386128 13.011588258506421 30.6875 19.0625 C31.272412109374997 20.123076171875 31.272412109374997 20.123076171875 31.869140625 21.205078125 C32.92648857928808 23.129993631524457 33.97415451302573 25.058120011997318 35 27 C35.55651245117187 27.919302978515617 35.55651245117187 27.919302978515617 36.124267578125 28.857177734375 C37 31 37 31 37 37 C24.79 37 12.579999999999998 37 0 37 C0 24.789999999999992 0 12.579999999999998 0 0 Z " fill="#604B0A" transform="translate(0,91)"/>
<path d="M0 0 C3.6625184714401087 0.7325036942880274 5.891058069883584 1.9273720465890563 9 4 C9 4.659999999999997 9 5.319999999999993 9 6 C9.659999999999997 6 10.319999999999993 6 11 6 C9.48515426858836 11.386118156130308 6.237110547339611 15.461941361144028 2 19 C-4.686404398973309 22.53886034347697 -11.430186015841201 25.11685780094146 -19 24 C-23.798116780277155 22.47789210029856 -28.23207332949559 20.438364583627987 -32.625 18 C-38.890336692720474 14.72434679135776 -46.15609548787259 13.561473359563053 -53 12 C-49.26333443717038 7.462620387992601 -43.525749571758055 6.995321351434683 -38 6 C-34.07603845582301 5.665671437940077 -30.43928297345346 5.702857708706389 -26.578125 6.5 C-19.18167438851617 7.934463148893826 -11.68133857917843 7.693125223811933 -5 4 C-4.133749999999992 3.2368749999999977 -3.2674999999999983 2.4737499999999955 -2.375 1.6875 C-1.5912500000000023 1.1306249999999949 -0.8075000000000045 0.573750000000004 0 0 Z " fill="#A6AF7D" transform="translate(96,66)"/>
<path d="M0 0 C4.930706948750705 0.986141389750145 6.083376340543065 1.5391552800021628 9.6875 4.625 C17.804429598503454 11.613620656703361 17.804429598503454 11.613620656703361 27.0546875 16.84375 C29.895511058227616 18.532271633002765 31.05476631007356 20.821344282044734 32.75 23.625 C33.36359375 24.627890624999992 33.9771875 25.63078125 34.609375 26.6640625 C35.297734375 27.820351562500008 35.297734375 27.820351562500008 36 29 C27.397436046494345 32.56654341844629 22.886211228076206 33.59801913411073 14.1875 30.0625 C13.4179296875 29.723476562499997 12.648359375 29.384453124999993 11.85546875 29.03515625 C8.020416828945796 27.644884349754633 3.982134831967375 26.884918851548306 0 26 C0 17.42 0 8.840000000000003 0 0 Z " fill="#8C7F3D" transform="translate(0,65)"/>
<path d="M0 0 C0 7.920000000000002 0 15.840000000000003 0 24 C-1.980000000000004 23.979375000000005 -3.960000000000008 23.958749999999995 -6 23.9375 C-11.109535747413418 23.931915807926316 -15.957272063697587 24.20898385312904 -21 25 C-21.185625 24.381249999999994 -21.371250000000003 23.762500000000003 -21.5625 23.125 C-23.71437232886629 19.943971339936795 -26.375337630562782 19.8054805265416 -30 19 C-27.698372617834664 12.474886371561269 -23.535382104256954 6.96886985168787 -17.42578125 3.56640625 C-11.559244773966185 1.1724384503628755 -6.360710826889417 0 0 0 Z " fill="#9C8D4B" transform="translate(128,67)"/>
</svg>
