<?xml version="1.0" encoding="UTF-8"?>
<!-- Generator: visioncortex VTracer 0.6.0 -->
<svg version="1.1" xmlns="http://www.w3.org/2000/svg" width="128" height="128">
<path d="M0 0 C42.24 0 84.48 0 128 0 C128 42.24 128 84.48 128 128 C85.75999999999999 128 43.519999999999996 128 0 128 C0 85.75999999999999 0 43.519999999999996 0 0 Z " fill="#9DA98B" transform="translate(0,0)"/>
<path d="M0 0 C7.985609708300984 4.053180466156242 15.981699091612214 8.974911320886992 19.261962890625 17.715087890625 C20.199923083784554 22.143342264099445 19.885093768362808 25.66737073189769 19.386962890625 30.113525390625 C18.621210142644628 39.11666911235075 20.399298138179773 45.25260990611825 24.074462890625 53.551025390625 C27.896849105538266 63.11442747696442 28.41727488220252 71.29380128663286 24.445556640625 80.996337890625 C21.529747070323808 86.42921384212637 18.032409044899737 89.61199486545841 12.121337890625 91.488525390625 C5.334852593149449 92.79992351574104 -0.521403045939536 92.41687476048243 -7.261474609375 91.121337890625 C-12.501319252271529 90.30575439610166 -17.741563160082087 90.16837452146801 -23.039306640625 90.0693359375 C-29.10068557355543 89.86737545898582 -35.84882126119933 89.17564696809058 -40.625244140625 85.10107421875 C-42.4060938433406 82.97816495052969 -42.870611045986585 80.9758993542849 -43.550537109375 78.301025390625 C-43.799326171875 77.327783203125 -44.048115234375004 76.354541015625 -44.304443359375 75.351806640625 C-44.81385159636311 73.05466383609372 -45.208088733449195 70.82142852334003 -45.488037109375 68.488525390625 C-45.64497412327277 65.4347700096434 -45.64497412327277 65.4347700096434 -47.925537109375 63.551025390625 C-48.300883597648436 61.16191520336076 -48.57889974059564 58.829785972584546 -48.800537109375 56.426025390625 C-49.42312161861729 50.558416090685924 -50.44781974655625 44.9954132391825 -51.988037109375 39.301025390625 C-54.94500662115558 28.128446447761753 -56.74371522057524 17.040528608748538 -51.300537109375 6.363525390625 C-39.24653269693043 -7.91095351884883 -16.557086034506852 -7.770572716028919 0 0 Z " fill="#1D4140" transform="translate(77.925537109375,18.448974609375)"/>
<path d="M0 0 C11.791949539724214 -1.0957121253726037 20.335956310719183 1.379113861251092 31.01806640625 6.243896484375 C38.35462668635839 9.042778867658527 44.847827256282216 8 53 8 C53 41.99 53 75.98 53 111 C18.680000000000007 111 -15.64 111 -51 111 C-54.530699871189356 87.46200085873767 -54.530699871189356 87.46200085873767 -53 77 C-52.862070312499995 76.007421875 -52.724140625000004 75.01484375 -52.58203125 73.9921875 C-51.761986301369866 69.07191780821918 -51.761986301369866 69.07191780821918 -51 67 C-48.00000000000001 65 -48.00000000000001 65 -45.375 65.3125 C-43.00000000000001 65.99999999999999 -43.00000000000001 65.99999999999999 -42 67 C-41.375358493430696 70.08557852642667 -40.807492675614476 73.17370796995552 -40.28125 76.27734375 C-39.51193773413743 80.44308782791538 -38.841261147910934 83.80782612067377 -36 87 C-30.233464857613328 89.91662397491571 -24.295850057440163 90.44180137803916 -17.9375 90.5625 C-11.685733511070218 90.76758701022693 -5.621776280517906 91.25822171867578 0.5625 92.1875 C8.481597394211775 93.22490175864175 15.202490636725656 93.40884890595716 21.875 88.5625 C27.070820353667372 83.51407880530192 29.118628463948014 76.27776374693575 29.5625 69.1875 C29.33291387220048 63.64211199007306 27.380571362268242 58.72117014253419 25.38671875 53.58984375 C24.929101562499994 52.4051953125 24.471484375000003 51.220546875 24 50 C23.717856445312506 49.306726074218744 23.435712890625 48.6134521484375 23.14501953125 47.899169921875 C20.96558392568994 42.12914882039948 20.838719658762145 37.52226612497216 21.5 31.4375 C22.303431084481502 24.00876034572704 22.140174991329985 17.984467323904568 17.34375 11.8984375 C11.96283658657191 7.45234378975222 6.233366313582891 4.128141550750236 0 1 C0 0.6700000000000017 0 0.33999999999999986 0 0 Z " fill="#709AA9" transform="translate(75,17)"/>
<path d="M0 0 C5.187413379155643 2.5940537666137615 9.1130805637316 5.337699567615623 13.074462890625 9.599853515625 C12.056103515624997 9.311103515625 11.037744140624994 9.022353515625 9.988525390625 8.724853515625 C-5.37648112101175 4.60195291475949 -21.78284808611498 2.7246174851788076 -36.363037109375 10.412353515625 C-40.813088743719476 14.211178081528821 -43.60696789838232 18.436916349340592 -44.198974609375 24.314697265625 C-44.42977962531449 31.63831796370485 -43.48542909133654 36.98157264605894 -40.343505859375 43.599853515625 C-38.86345004222976 46.731211277519066 -37.728242265151735 49.907035609956424 -36.550537109375 53.162353515625 C-34.98126782894013 56.99778801892428 -33.99438758107397 59.18641759918259 -30.113037109375 60.849853515625 C-29.061162109375005 61.097353515625 -28.009287109374995 61.344853515625005 -26.925537109375 61.599853515625 C-26.966787109375005 62.796103515625006 -27.008037109374996 63.992353515625 -27.050537109375 65.224853515625 C-27.036989648097958 69.04523759575237 -26.591604564371302 72.10111186013276 -24.925537109375 75.599853515625 C-22.233525477001045 77.26487373567528 -19.89185821095854 77.90754952723042 -16.765380859375 78.232666015625 C-15.976635742187497 78.31685791015624 -15.187890625000001 78.4010498046875 -14.375244140625 78.48779296875 C-13.546215820312497 78.56602294921875 -12.717187499999994 78.6442529296875 -11.863037109375 78.724853515625 C-11.013383789062502 78.80759521484374 -10.163730468750003 78.8903369140625 -9.288330078125 78.9755859375 C1.5215585438848507 80.2961384675941 1.5215585438848507 80.2961384675941 12.074462890625 78.537353515625 C15.634818191034896 75.08825931835293 16.9036221217945 71.74002241970169 17.289306640625 66.908447265625 C17.33636165306764 63.06562124947649 17.24587426801351 59.46857104048516 16.500244140625 55.689697265625 C16.009533907164155 52.12867162647339 16.398818078774156 49.259453019235735 17.011962890625 45.724853515625 C17.206611328125007 44.572431640625 17.401259765625 43.420009765625 17.601806640625 42.232666015625 C17.835771484375 40.929423828124996 17.835771484375 40.929423828124996 18.074462890625 39.599853515625 C20.038132107411386 43.318492805384736 21.58041559202509 47.19901721986366 23.136962890625 51.099853515625 C23.5401171875 52.095654296875 23.5401171875 52.095654296875 23.951416015625 53.111572265625 C27.82494339878687 62.79056088888734 28.475572925655825 71.20021273800644 24.445556640625 81.045166015625 C21.529747070323808 86.47804196712637 18.032409044899737 89.66082299045841 12.121337890625 91.537353515625 C5.334852593149449 92.84875164074104 -0.521403045939536 92.46570288548243 -7.261474609375 91.170166015625 C-12.501319252271529 90.35458252110166 -17.741563160082087 90.21720264646801 -23.039306640625 90.1181640625 C-29.10068557355543 89.91620358398582 -35.84882126119933 89.22447509309058 -40.625244140625 85.14990234375 C-42.4060938433406 83.02699307552969 -42.870611045986585 81.0247274792849 -43.550537109375 78.349853515625 C-43.799326171875 77.376611328125 -44.048115234375004 76.403369140625 -44.304443359375 75.400634765625 C-44.81385159636311 73.10349196109372 -45.208088733449195 70.87025664834003 -45.488037109375 68.537353515625 C-45.64497412327277 65.4835981346434 -45.64497412327277 65.4835981346434 -47.925537109375 63.599853515625 C-48.300883597648436 61.21074332836076 -48.57889974059564 58.878614097584546 -48.800537109375 56.474853515625 C-49.42312161861729 50.607244215685924 -50.44781974655625 45.0442413641825 -51.988037109375 39.349853515625 C-54.94500662115558 28.177274572761753 -56.74371522057524 17.089356733748538 -51.300537109375 6.412353515625 C-39.23095218012115 -7.880576005859821 -16.603496162725705 -7.673742390299177 0 0 Z " fill="#516876" transform="translate(77.925537109375,18.400146484375)"/>
<path d="M0 0 C0 25.08 0 50.16 0 76 C-9.569999999999993 76 -19.14 76 -29 76 C-26.815736381977132 65.07868190988566 -26.815736381977132 65.07868190988566 -23.875 60.9375 C-19.038525423265185 52.66489263395479 -20.172754521108345 42.61403947095987 -21.6875 33.4375 C-22.940569322676595 24.272192954136955 -19.99661059402655 12.641875026158246 -15 5 C-11.363888043073132 0.9483323908529258 -8.0949339640879 0.45724684506600255 -2.890625 0.078125 C-1.9275533710609665 0.03832865169673738 -0.9638935168396756 0 0 0 Z " fill="#ADAD9F" transform="translate(128,52)"/>
<path d="M0 0 C11.02071428455327 2.4490476187896135 13.91706577704543 4.239893948130657 20.12890625 13.05859375 C22.55691366868543 16.87548223908169 24.412780862155163 20.770896376137102 26 25 C25.34 25 24.68 25 24 25 C23.75025848704866 27.3061237578911 23.516190210531576 29.61261484204988 23.296875 31.921875 C23.098756325965958 33.97605283077402 22.879940206617256 36.02833823027828 22.640625 38.078125 C21.590597063039546 48.62840569993598 22.77450611585467 58.475170171457776 24 69 C16.08 69 8.16 69 0 69 C0 46.230000000000004 0 23.460000000000008 0 0 Z " fill="#A5C7D3" transform="translate(0,59)"/>
<path d="M0 0 C11.073509524481892 -1.0289544248412366 18.98107747094363 0.9698490299348705 29.1015625 5.37109375 C34.72749105286604 7.790355798379014 39.71501956138124 8.138353823638319 45.8125 8.0625 C46.50537109375 8.057988281249997 47.1982421875 8.053476562500002 47.912109375 8.048828125 C49.608110682387974 8.037131564259393 51.30406703159173 8.019199241151792 53 8 C53.0288633848802 12.47915328133005 53.04675187362204 16.958282911637895 53.0625 21.4375 C53.070878906250016 22.71689453125 53.0792578125 23.996289062499997 53.087890625 25.314453125 C53.09111328124999 26.52939453125 53.094335937500006 27.744335937499997 53.09765625 28.99609375 C53.10289306640624 30.12200927734375 53.108129882812506 31.2479248046875 53.113525390625 32.407958984375 C53 35 53 35 52 36 C50.585608957489484 36.13150329940697 49.16811224733644 36.230324621429176 47.75 36.3125 C43.30072227510507 36.81313188346678 40.97141124021455 37.434306511742534 38 41 C33.97931414746772 49.113947261969486 32.57412591647304 58.1634295143446 31 67 C28.885903850805207 63.8288557762078 27.818793241739172 60.96776385020735 26.5625 57.375 C26.1512890625 56.207109375 25.740078124999997 55.03921875 25.31640625 53.8359375 C25.004372558593758 52.91204223632812 25.004372558593758 52.91204223632812 24.68603515625 51.969482421875 C24.205995726073027 50.59137634243099 23.692248974946267 49.22476220434385 23.15380859375 47.868408203125 C20.97022400289555 42.102912320686954 20.83881592797445 37.52138030453366 21.5 31.4375 C22.303431084481502 24.008760345727033 22.140174991329985 17.984467323904568 17.34375 11.8984375 C11.96283658657191 7.4523437897522165 6.233366313582891 4.1281415507502395 0 1 C0 0.6700000000000017 0 0.33999999999999986 0 0 Z " fill="#8B9181" transform="translate(75,17)"/>
<path d="M0 0 C0.9609960937499977 0.5414062499999943 0.9609960937499977 0.5414062499999943 1.94140625 1.09375 C1.94140625 1.7537499999999966 1.94140625 2.413749999999993 1.94140625 3.09375 C2.931406250000009 3.09375 3.9214062499999898 3.09375 4.94140625 3.09375 C6.745209857313171 11.152679019770119 7.056542787759213 18.777951710650285 2.94140625 26.09375 C0.9220076135780602 28.61799829552743 0.09640028912910736 29.042085320290298 -3.05859375 30.09375 C-10.00565218091576 30.668218293325737 -17.014914825994353 29.934666105408866 -23.93359375 29.28125 C-24.754082031249993 29.211237792968745 -25.5745703125 29.14122558593749 -26.419921875 29.069091796875 C-30.957441061674352 28.602404784545797 -34.39590465184528 28.047988595610292 -38.05859375 25.09375 C-39.77234001753646 21.21919322122193 -40.11940664061178 18.681607942580513 -39.68359375 14.46875 C-37.51635559876378 9.967563070509385 -34.54741649473584 8.123071949182659 -30.05859375 6.09375 C-29.398593750000003 6.09375 -28.73859375 6.09375 -28.05859375 6.09375 C-28.05859375 5.433750000000003 -28.05859375 4.773750000000007 -28.05859375 4.09375 C-27.398593750000003 4.09375 -26.73859375 4.09375 -26.05859375 4.09375 C-26.05859375 3.4337500000000034 -26.05859375 2.773750000000007 -26.05859375 2.09375 C-25.068593750000005 2.09375 -24.078593749999996 2.09375 -23.05859375 2.09375 C-23.05859375 1.4337500000000034 -23.05859375 0.7737500000000068 -23.05859375 0.09375 C-22.398593750000003 0.09375 -21.738593750000007 0.09375 -21.05859375 0.09375 C-21.05859375 -0.5662499999999966 -21.05859375 -1.2262499999999932 -21.05859375 -1.90625 C-12.732515135846796 -5.155451410401255 -7.66314819509563 -4.111376080826261 0 0 Z " fill="#1F4257" transform="translate(90.05859375,68.90625)"/>
<path d="M0 0 C0.8024414062499972 -0.012246093750000853 1.6048828124999943 -0.024492187500001705 2.431640625 -0.037109375 C9.66664050346111 -0.055121822830194844 9.66664050346111 -0.055121822830194844 12.9375 2.1875 C11.669104743903148 2.6936529763046835 10.397668984989139 3.19219098962585 9.125 3.6875 C8.063457031249996 4.10515625 8.063457031249996 4.10515625 6.98046875 4.53125 C4.9375 5.1875 4.9375 5.1875 1.9375 5.1875 C1.6075000000000017 6.177500000000002 1.2775000000000034 7.1675 0.9375 8.1875 C0.2775000000000034 8.1875 -0.3824999999999932 8.1875 -1.0625 8.1875 C-1.211628417968754 9.09846435546875 -1.211628417968754 9.09846435546875 -1.36376953125 10.02783203125 C-2.5121877222104843 16.42335451288767 -4.405418368202405 22.093896587619113 -6.9375 28.0625 C-9.631277936295334 34.5751363451975 -12.13771379344454 41.02686666218948 -14.17578125 47.77734375 C-15.17079751797801 50.4818593330063 -16.514397424979833 52.76344022566869 -18.0625 55.1875 C-19.91015625 55.01953125 -19.91015625 55.01953125 -22.0625 54.1875 C-23.37109375 51.88671875 -23.37109375 51.88671875 -24.5 48.875 C-25.75124930127516 45.58755618360627 -26.981674800021615 42.35754208738622 -28.4921875 39.1796875 C-32.25996390381801 31.197110373266923 -33.8680350580113 23.441308580821257 -31.36328125 14.765625 C-28.6482566383971 8.67113937395467 -24.183141215284678 4.871165751402067 -18 2.4375 C-11.990383930054357 0.3236882126162577 -6.314705604764342 0.0050966146931124 0 0 Z " fill="#39432D" transform="translate(65.0625,22.8125)"/>
<path d="M0 0 C5.187413379155643 2.5940537666137615 9.1130805637316 5.337699567615623 13.074462890625 9.599853515625 C12.056103515624997 9.311103515625 11.037744140624994 9.022353515625 9.988525390625 8.724853515625 C-5.37648112101175 4.60195291475949 -21.78284808611498 2.7246174851788076 -36.363037109375 10.412353515625 C-40.813088743719476 14.211178081528821 -43.60696789838232 18.436916349340592 -44.198974609375 24.314697265625 C-44.4696961856261 32.90490112743878 -42.71214859082686 38.95175405450048 -38.925537109375 46.599853515625 C-34.98835178211535 54.657633424519744 -34.98835178211535 54.657633424519744 -34.738037109375 58.412353515625 C-37.02059509574415 62.6170655957787 -41.55650757798368 64.14351033849456 -45.925537109375 65.599853515625 C-48.66454552461829 62.86084510038171 -48.4609008098626 60.15836750727162 -48.800537109375 56.474853515625 C-49.42312161861729 50.607244215685924 -50.44781974655625 45.0442413641825 -51.988037109375 39.349853515625 C-54.94500662115558 28.177274572761753 -56.74371522057524 17.089356733748538 -51.300537109375 6.412353515625 C-39.23095218012115 -7.880576005859821 -16.603496162725705 -7.673742390299177 0 0 Z " fill="#6D735E" transform="translate(77.925537109375,18.400146484375)"/>
<path d="M0 0 C16.17 0 32.34 0 49 0 C49 8.25 49 16.5 49 25 C40.03511008352146 25.88841251424562 33.35176008042576 26.538184073480863 25 23 C23.8746484375 22.646796875 22.749296875 22.29359375 21.58984375 21.9296875 C12.565622770981221 19.0639517106586 7.6465295852332105 15.983590433152049 2.125 8.4375 C1 6 1 6 0 0 Z " fill="#C1D0BC" transform="translate(79,0)"/>
<path d="M0 0 C13.200000000000001 0 26.400000000000002 0 40 0 C38.82894459432645 8.19738783971486 37.35713324423984 12.376819152173749 31 17.375 C29.336442220117924 18.587609885831398 27.669453634416872 19.79552011857627 26 21 C24.9958203125 21.7824609375 23.991640625 22.564921875 22.95703125 23.37109375 C21.9193359375 24.1767578125 20.881640625 24.982421875 19.8125 25.8125 C18.8495703125 26.5614453125 17.886640625 27.310390625 16.89453125 28.08203125 C10.939266776325066 32.028097183298776 7.396546140673938 32 0 32 C0 21.439999999999998 0 10.879999999999999 0 0 Z " fill="#C1DACA" transform="translate(0,0)"/>
<path d="M0 0 C4.251418031060467 4.251418031060467 3.395041573867857 10.674461521523227 3.46630859375 16.361328125 C3.3591020607043163 22.442392674145765 1.7992072410151252 26.423690504414367 -1.53515625 31.5546875 C-3.738283199438129 35.23244075426206 -4.2562474132903105 38.80793996581812 -5 43 C-6 44 -6 44 -9.968994140625 44.113525390625 C-11.741056065010383 44.11336620146204 -13.513122599906197 44.10766784991483 -15.28515625 44.09765625 C-16.21597518920899 44.09624130249023 -17.146794128417966 44.094826354980455 -18.105819702148438 44.09336853027344 C-21.091411911062636 44.0877517211394 -24.07693029424931 44.07519639688718 -27.0625 44.0625 C-29.08137912862216 44.057487164358236 -31.10025942758618 44.052923883332824 -33.119140625 44.048828125 C-38.079455715631966 44.037776830363725 -43.039715323879456 44.02050095402478 -48 44 C-47.080460362865075 38.41246797248715 -45.08734747122608 37.01975243204775 -40.58203125 33.77734375 C-39.30392578125 32.897558593750006 -39.30392578125 32.897558593750006 -38 32 C-37.220117187499994 31.423789062499992 -36.440234375 30.847578125 -35.63671875 30.25390625 C-29.72682735527681 26.220477916776474 -25.01051276572298 25.453739916083492 -17.921875 25.1875 C-12.662553838995734 24.850003454908816 -9.998685654680486 22.975460406897213 -6.3125 19.375 C-2.0080804222665307 13.797247299592968 -0.7295716421014049 6.857973435753266 0 0 Z " fill="#81A29F" transform="translate(105,84)"/>
<path d="M0 0 C0 10.89 0 21.78 0 33 C-9.569999999999993 33 -19.14 33 -29 33 C-26.73082099596232 21.654104979811578 -26.73082099596232 21.654104979811578 -23.5625 15.9375 C-22.965664062499997 14.832773437499995 -22.368828124999993 13.728046875000004 -21.75390625 12.58984375 C-20 10 -20 10 -17 9 C-17 8.340000000000003 -17 7.680000000000007 -17 7 C-15.57421875 5.7109375 -15.57421875 5.7109375 -13.6875 4.375 C-13.0726171875 3.928984374999999 -12.457734375000001 3.4829687499999977 -11.82421875 3.0234375 C-10 2 -10 2 -7 2 C-7 1.3400000000000034 -7 0.6800000000000068 -7 0 C-3.9896825638578264 -0.9342364456992982 -3.133497324458091 -1.0444991081526922 0 0 Z " fill="#AFB699" transform="translate(128,95)"/>
<path d="M0 0 C12.870000000000005 0 25.74000000000001 0 39 0 C40.31999999999999 2.97 41.64 5.94 43 9 C44.60138754793603 11.567611151938888 44.60138754793603 11.567611151938888 46.25 13.5625 C47.031171875 14.55443359375 47.031171875 14.55443359375 47.828125 15.56640625 C48.21484375 16.0394921875 48.6015625 16.512578125 49 17 C40.452519116970166 17.19255901864147 32.10593646380775 17.169922972727214 23.625 16 C14.411498735315107 14.733823438950033 5.283106156694451 14.816579680767838 -4 15 C-4 11 -4 11 0 0 Z " fill="#B9AE90" transform="translate(40,0)"/>
<path d="M0 0 C11.02071428455327 2.4490476187896135 13.91706577704543 4.239893948130657 20.12890625 13.05859375 C22.55691366868543 16.87548223908169 24.412780862155163 20.770896376137102 26 25 C20.602008650249573 27.134089603389697 15.348824527952996 27.62634406082806 9.625 28.125 C6.44875 28.413749999999993 3.2725 28.7025 0 29 C0 19.430000000000007 0 9.86 0 0 Z " fill="#B7CCB9" transform="translate(0,59)"/>
</svg>
