<?xml version="1.0" encoding="UTF-8"?>
<!-- Generator: visioncortex VTracer 0.6.0 -->
<svg version="1.1" xmlns="http://www.w3.org/2000/svg" width="128" height="128">
<path d="M0 0 C42.24 0 84.48 0 128 0 C128 42.24 128 84.48 128 128 C85.75999999999999 128 43.519999999999996 128 0 128 C0 85.75999999999999 0 43.519999999999996 0 0 Z " fill="#418078" transform="translate(0,0)"/>
<path d="M0 0 C0 28.710000000000008 0 57.42 0 87 C-29.700000000000003 87 -59.400000000000006 87 -90 87 C-90.66 82.38 -91.32 77.76 -92 73 C-92.66051430668276 70.5843381363369 -93.37265098527261 68.18056302113915 -94.1875 65.8125 C-96.08039892693898 59.474478873844745 -96.4831248918056 54.4501002006042 -95 48 C-94.8182421875 47.18531250000001 -94.63648437500001 46.37062499999999 -94.44921875 45.53125 C-93.13120085360839 41.47581031879507 -91.87248681891623 39.52903551588982 -88.171875 37.28515625 C-86.06965218647787 36.287362088509425 -83.93754149583916 35.34952218127552 -81.77734375 34.484375 C-78.55382882692966 32.76154002001866 -77.70049822728446 31.15731135034747 -76 28 C-75.34 28 -74.68 28 -74 28 C-73.896875 27.29875 -73.79375 26.597499999999997 -73.6875 25.875 C-72.86403737128038 22.431429007172483 -72.00476419409114 19.94032081800033 -70 17 C-65.08526476803182 15.582287913855332 -60.979977542862045 16.2136877563902 -56 17 C-48.717745013617645 17.621655913471663 -43.46251737058185 15.599369430779866 -36.8125 12.75 C-35.841191406250005 12.354257812500002 -34.86988281250001 11.958515625000004 -33.869140625 11.55078125 C-28.976605489286385 9.505238801209522 -25.055668801789295 7.469932356923934 -21 4 C-17.56774629257015 2.359904082842064 -14.236880454954544 1.5363018782644247 -10.5 0.875 C-9.582187500000003 0.7074218750000014 -8.664375000000007 0.5398437500000028 -7.71875 0.3671875 C-5 0 -5 0 0 0 Z " fill="#2C6A71" transform="translate(128,41)"/>
<path d="M0 0 C19.47 0 38.94 0 59 0 C59 13.530000000000001 59 27.060000000000002 59 41 C52.730000000000004 42.32 46.459999999999994 43.64 40 45 C38.02000000000001 46.32 36.03999999999999 47.64 34 49 C30.743952730838174 50.8394196208587 27.39511460440565 52.43374547255319 24 54 C22.984218749999997 54.471796875 21.968437499999993 54.94359375 20.921875 55.4296875 C10.976235380337897 59.68180878666713 1.5555634834119871 60.1111126966824 -9 58 C-11 57 -11 57 -11.859375 54.8828125 C-12.15328125 53.972734375 -12.447187499999998 53.06265625 -12.75 52.125 C-15.256145621370052 44.908054338460666 -18.766722098740388 38.349916851889425 -23 32 C-23.33142708498061 28.818299984186133 -23.506083276962926 26.82571482030793 -21.8125 24.0625 C-19.26017608023917 22.56631011600227 -17.855667955263243 23.393631481522295 -15 24 C-8.629065787028004 24.404056299642768 -3.0272103136678084 24.143008111526335 3 22 C3 17.547750922375258 1.9558972124309975 14.167055305158021 0.65625 9.94921875 C0 7.000000000000002 0 7.000000000000002 0 0 Z " fill="#378583" transform="translate(69,0)"/>
<path d="M0 0 C0.8262890624999999 -0.02578125000000142 1.6525781249999998 -0.05156250000000284 2.50390625 -0.078125 C9.612210865874705 0.7169450236131496 15.069731896734925 4.02424523205724 20.6875 8.25 C21.285625 8.688281250000003 21.88375 9.126562500000006 22.5 9.578125 C24.153053257719073 10.792314560979491 25.795683101581282 12.020659268179088 27.4375 13.25 C28.23671875 13.848124999999996 29.035937500000003 14.446249999999992 29.859375 15.0625 C30.38015625 15.454374999999999 30.900937499999998 15.846249999999998 31.4375 16.25 C31.232539062500003 16.844257812500004 31.027578124999998 17.438515625000008 30.81640625 18.05078125 C27.089339420411108 29.517307429070115 27.08613150323724 37.78793681471468 30.607421875 49.261474609375 C30.838808593750002 50.03370361328125 31.070195312499997 50.805932617187494 31.30859375 51.6015625 C31.52443115234375 52.28041503906249 31.740268554687503 52.95926757812501 31.962646484375 53.65869140625 C32.65966417612696 57.46236532926045 32.4375 61.382989659283936 32.4375 65.25 C19.8975 65.25 7.357499999999998 65.25 -5.5625 65.25 C-5.602608809335011 49.31788962525977 -5.602608809335011 49.31788962525977 -5.611328125 42.548828125 C-5.617315790101885 37.92227029926535 -5.624414044425552 33.29573218203802 -5.637939453125 28.669189453125 C-5.648770998456204 24.94096599311112 -5.654777399578926 21.212763655410527 -5.657377243041992 17.484525680541992 C-5.65923101017605 16.05910344160222 -5.662850707075928 14.633682413122969 -5.668230056762695 13.208269119262695 C-5.675443929335309 11.218365922476437 -5.675908083250873 9.228441659912903 -5.676025390625 7.238525390625 C-5.678246002197266 6.1037928771972645 -5.680466613769531 4.969060363769529 -5.6827545166015625 3.7999420166015625 C-5.481572937031654 -0.4660213518372416 -3.8504492545995417 0.0705425817636538 0 0 Z " fill="#599DAC" transform="translate(5.5625,62.75)"/>
<path d="M0 0 C11.88 0 23.76 0 36 0 C36.66 4.95 37.32 9.9 38 15 C39.891347125949295 19.004403568627705 39.891347125949295 19.004403568627705 42 22 C43.00155009740339 25.312819552949676 43.39630820597749 27.777750293898094 42 31 C37.60816727108441 35.088947713128306 32.69022399792705 35.39339837645839 26.90625 35.359375 C22.460950594922878 34.80968743915713 18.63572977991199 33.103545742803 14.56640625 31.2890625 C9.869410646040446 29.47965327193652 9.869410646040446 29.47965327193652 0 28 C0 18.759999999999998 0 9.52 0 0 Z " fill="#649394" transform="translate(0,0)"/>
<path d="M0 0 C0 16.17 0 32.34 0 49 C-18.90574794716173 47.64958943234561 -18.90574794716173 47.64958943234561 -23 44 C-29.298161251129187 33.818862214806 -30.888147171100044 24.712412920729946 -29 13 C-26.78313076026035 8.319942716105182 -23.809408301782184 5.007637973842286 -19 3 C-12.640599275395914 1.2588244784573988 -6.605112245038697 0 0 0 Z " fill="#1E443C" transform="translate(128,41)"/>
<path d="M0 0 C5.902474742840582 4.894735152599509 11.448120445322644 12.395790182080958 13 20 C13.463210566872817 27.06083134368305 12.64104861739969 33.94846520860345 12 41 C2.0999999999999943 41 -7.799999999999997 41 -18 41 C-18.515625 37.24625 -19.03125 33.49250000000001 -19.5625 29.625 C-19.72822509765625 28.463071289062498 -19.8939501953125 27.301142578124995 -20.064697265625 26.10400390625 C-21.087160622079395 18.29405373180313 -22.137612504271424 10.093643430902517 -17.9375 3.0625 C-12.784776245613372 -3.1890755060425704 -6.935625870259251 -4.187547695250871 0 0 Z " fill="#1C3641" transform="translate(69,87)"/>
<path d="M0 0 C15.510000000000005 0 31.02000000000001 0 47 0 C47 10.56 47 21.12 47 32 C18.72689938398358 29.980492813141687 18.72689938398358 29.980492813141687 10.03125 20.95703125 C4.66830431682753 14.355608703552528 1.399846514079755 8.399079084478503 0 0 Z " fill="#BDC79F" transform="translate(81,0)"/>
<path d="M0 0 C3.9599999999999937 0 7.920000000000002 0 12 0 C12.515625 1.423125 13.03125 2.84625 13.5625 4.3125 C17.443676401833528 13.933444320038028 22.165456292517135 22.657670199156037 31.99609375 26.8515625 C40.6330931375044 29.815385513389725 49.997070120485574 30.696701116004583 59 32 C59 34.97 59 37.94 59 41 C49.55918957909273 43.20325061265841 41.50487937682614 44.93598458129731 32 42 C31.184023437500002 41.786015625 30.368046875000005 41.57203125 29.52734375 41.3515625 C22.520468945593805 39.10847421079231 17.90981620868618 34.69229908685965 12.76171875 29.65625 C10.133529245864793 26.986985484296227 10.133529245864793 26.986985484296227 7.3203125 25.14453125 C4.216913786144346 22.276238499315223 3.300269410523441 19.1387435134324 2.1875 15.1875 C1.9715820312499943 14.50107421875 1.7556640625000028 13.8146484375 1.533203125 13.107421875 C0.18895175301054223 8.596711715657616 -0.2150420344265882 4.700204466752485 0 0 Z " fill="#769978" transform="translate(69,0)"/>
<path d="M0 0 C0 11.219999999999999 0 22.439999999999998 0 34 C-10.230000000000004 34 -20.460000000000008 34 -31 34 C-31 13.027626811594203 -31 13.027626811594203 -24.6953125 6.43359375 C-17.93125628918156 0.7137581984553805 -8.43999799059803 0 0 0 Z " fill="#C1C0A4" transform="translate(128,94)"/>
<path d="M0 0 C5.074445107301614 1.9196788166704266 10.431249426259996 1.893931212421947 15.80859375 2.0625 C16.303593750000005 4.537499999999994 16.303593750000005 4.537499999999994 16.80859375 7.0625 C15.734804687500002 7.2442578124999955 14.661015625000005 7.426015625000005 13.5546875 7.61328125 C12.118410864856855 7.866741832672318 10.682217268069138 8.120673280060004 9.24609375 8.375 C8.541621093749995 8.492949218749999 7.837148437499991 8.610898437499998 7.111328125 8.732421875 C0.3966043375711905 9.939215551081674 -5.904467386383914 11.531203294364005 -10.1953125 17.28515625 C-14.10213245083115 24.25614871128694 -13.703377583138803 33.335379441364495 -14.19140625 41.0625 C-19.47140625 41.0625 -24.751406250000002 41.0625 -30.19140625 41.0625 C-30.757393012123458 15.31010232338241 -30.757393012123458 15.31010232338241 -23.19140625 5.0625 C-20.717193420941143 2.8637883853117216 -18.1804932528609 1.454067505987382 -15.19140625 0.0625 C-14.550742187499992 -0.3010156250000051 -13.910078124999998 -0.664531249999996 -13.25 -1.0390625 C-7.963896177347266 -3.666095914894086 -5.149104210112256 -2.442008860958069 0 0 Z " fill="#76817A" transform="translate(111.19140625,86.9375)"/>
<path d="M0 0 C10.417634468161038 2.9764669909031483 14.170914457996922 9.42449663819724 19.359375 18.64453125 C23.51414322147529 27.142021493445895 25.82279721931808 35.58237775454464 27 45 C18.09 45 9.18 45 0 45 C0 30.150000000000006 0 15.299999999999997 0 0 Z " fill="#79BFE0" transform="translate(0,83)"/>
<path d="M0 0 C4.137510495955297 2.5389268952452966 7.357151482792702 4.877156313156618 10 9 C9.670000000000002 9.989999999999995 9.340000000000003 10.980000000000004 9 12 C8.360624999999999 12.144374999999997 7.721249999999998 12.288749999999993 7.0625 12.4375 C4.831724103234819 12.79036019565008 4.831724103234819 12.79036019565008 3.875 14.875 C3.5862499999999997 15.576250000000002 3.2974999999999994 16.277500000000003 3 17 C2.3400000000000034 17.989999999999995 1.6799999999999997 18.980000000000004 1 20 C-1.1989330760432608 28.387865685229542 0.6474378485960415 37.395926364178365 1.800537109375 45.8251953125 C2.0494849023327077 48.53954897182342 2 51.27425408530051 2 54 C-2.289999999999999 54 -6.579999999999998 54 -11 54 C-11.247500000000002 51.97874999999999 -11.494999999999997 49.957499999999996 -11.75 47.875 C-12.475963870161337 42.62368470562129 -13.566345927569053 37.87790528513891 -15.1875 32.8125 C-17.080398926938983 26.47447887384476 -17.483124891805595 21.450100200604197 -16 15 C-15.818242187499997 14.185312499999995 -15.636484375000002 13.370625000000004 -15.44921875 12.53125 C-14.107095761187182 8.401640803652867 -12.766871622863498 6.494228848822814 -9.06640625 4.109375 C-6.083272017844422 2.605509921834411 -3.0999484604773784 1.2429038638706515 0 0 Z " fill="#356D79" transform="translate(49,74)"/>
<path d="M0 0 C1.391204708818293 0.00015906390304569473 2.7824153423732625 0.005850325796810121 4.173583984375 0.015869140625 C4.904638519287111 0.01728408813476562 5.635693054199223 0.01869903564453125 6.3889007568359375 0.0201568603515625 C8.732534056574906 0.025771308489495937 11.076073127278988 0.03832617334904777 13.419677734375 0.051025390625 C15.004962816712876 0.05603853329076293 16.590249390779817 0.06060176154678572 18.175537109375 0.064697265625 C22.06945383397821 0.0757454234446044 25.963299788759116 0.09301967350071641 29.857177734375 0.113525390625 C30.059963378906247 1.0675927734375001 30.262749023437493 2.0216601562500003 30.4716796875 3.004638671875 C30.873262939453127 4.887717285156251 30.873262939453127 4.887717285156251 31.282958984375 6.808837890625 C31.547619628906247 8.0516552734375 31.812280273437494 9.29447265625 32.0849609375 10.574951171875 C32.92968111712513 14.445761884327288 33.860341747030844 18.279540823916733 34.857177734375 22.113525390625 C24.42380252682198 26.441443995239588 15.269699531492876 26.031423927068627 4.622802734375 22.347900390625 C1.857177734375 21.113525390625 1.857177734375 21.113525390625 -0.830322265625 18.738525390625 C-2.892362821926035 13.043365758936432 -3.7351460995693913 7.148731378311 -4.142822265625 1.113525390625 C-3.142822265625 0.11352539062500011 -3.142822265625 0.11352539062500011 0 0 Z " fill="#436C5F" transform="translate(39.142822265625,-0.113525390625)"/>
<path d="M0 0 C15.289575289575291 1.389961389961389 15.289575289575291 1.389961389961389 21 5 C24.094769856964763 9.73317742829905 24.806572820243435 14.473886218061864 24 20 C21.873023271282808 26.274581349715717 18.631684694507246 30.368315305492757 14 35 C9.379999999999999 35.33 4.76 35.66 0 36 C0 24.119999999999997 0 12.239999999999995 0 0 Z " fill="#386E71" transform="translate(0,28)"/>
<path d="M0 0 C0 7.590000000000003 0 15.180000000000007 0 23 C-8.587321307069416 22.666511793900213 -15.4715046091776 22.28208071171116 -23 18 C-23 17.010000000000005 -23 16.019999999999996 -23 15 C-20.825616852094285 13.242621839363878 -18.689641844090573 11.675856607811184 -16.375 10.125 C-15.131154453172826 9.275861182019867 -13.888952704167707 8.424309282658612 -12.6484375 7.5703125 C-12.037099609375005 7.151689453125002 -11.425761718749996 6.733066406250003 -10.7958984375 6.3017578125 C-9.015444021929426 5.0111946064338895 -7.378638698442032 3.629468653734847 -5.7265625 2.1796875 C-3 0 -3 0 0 0 Z " fill="#514F43" transform="translate(128,67)"/>
<path d="M0 0 C0 1.9799999999999969 0 3.960000000000001 0 6 C-6.625 5.25 -6.625 5.25 -10 3 C-10 2.3400000000000034 -10 1.6799999999999997 -10 1 C-6.594371478191789 0.22157062358669322 -3.492342444302011 -0.09978121269434581 0 0 Z " fill="#514F43" transform="translate(128,41)"/>
</svg>
