<?xml version="1.0" encoding="UTF-8"?>
<!-- Generator: visioncortex VTracer 0.6.0 -->
<svg version="1.1" xmlns="http://www.w3.org/2000/svg" width="128" height="128">
<path d="M0 0 C42.24 0 84.48 0 128 0 C128 42.24 128 84.48 128 128 C85.75999999999999 128 43.519999999999996 128 0 128 C0 85.75999999999999 0 43.519999999999996 0 0 Z " fill="#36546F" transform="translate(0,0)"/>
<path d="M0 0 C1.2934936523437486 0.005236816406249997 2.586987304687497 0.010473632812499994 3.919677734375 0.015869140625 C4.94967140197754 0.017991561889648428 4.94967140197754 0.017991561889648428 6.0004730224609375 0.0201568603515625 C8.201449494849633 0.0257705989829774 10.402325572545394 0.0383253216726898 12.603271484375 0.051025390625 C14.09220231068926 0.05603862573043522 15.581134725679924 0.06060183809255674 17.070068359375 0.064697265625 C20.727002231971603 0.07574446185388793 24.383877068387477 0.09301826121086927 28.040771484375 0.113525390625 C28.476474609375003 1.059697265625 28.912177734375007 2.005869140625 29.361083984375 2.980712890625 C32.07762110744687 8.047370501563702 35.95358540066384 9.460637132912396 41.212646484375 11.105712890625 C43.45258036608607 11.75944924976692 45.69988284881447 12.38863340206733 47.954833984375 12.988525390625 C52.59424088402315 14.679853475560021 55.18499387896205 16.76150912999447 57.825927734375 20.933837890625 C60.08213764175652 26.839158998691097 60.46066429495076 34.4038955251568 58.173583984375 40.379150390625 C57.465726655672384 41.60885874267773 56.73928877493748 42.8280748495731 55.993896484375 44.035400390625 C54.31450470840056 47.69702508250371 54.39272094978271 51.59809459999386 54.216552734375 55.574462890625 C54.040771484375 58.11352539062501 54.040771484375 58.11352539062501 53.040771484375 60.113525390625 C50.86108398437493 61.14868164062503 50.86108398437493 61.14868164062503 48.165771484375 62.176025390625 C47.281474609374996 62.517626953125 46.397177734375006 62.859228515625 45.486083984375 63.211181640625 C43.682293573271494 63.87679759104818 41.864787382491585 64.5055200912528 40.040771484375 65.113525390625 C38.97065369689213 67.26552680497366 38.97065369689213 67.26552680497366 38.290771484375 69.863525390625 C37.896318359375 71.155166015625 37.896318359375 71.155166015625 37.493896484375 72.472900390625 C36.82181613152342 76.38950658482905 37.65121338047561 79.18291436464312 39.165771484375 82.801025390625 C40.5144198493946 87.90662277248491 40.62698706320836 93.35705985677824 37.923583984375 98.054931640625 C35.160372899877245 101.44763164082195 33.30377674336319 102.95222203698667 28.982177734375 103.504150390625 C23.668513406916134 102.9775235990037 20.404642516666655 100.70432396264583 15.978271484375 97.863525390625 C9.06300078484719 93.62203392668374 2.973755893623526 90.6770687905053 -4.978759765625 88.894775390625 C-8.278477979315 88.02984270027376 -11.001710167686468 86.80600304375187 -13.959228515625 85.113525390625 C-15.653067804052103 81.7258468137708 -15.689145403311713 77.93545112719976 -16.1455078125 74.204833984375 C-16.674667014891135 69.99649717968471 -17.40432967530132 65.89347292205201 -18.271728515625 61.738525390625 C-19.353521886682458 55.28238255215409 -18.35486060015482 50.49677181640945 -14.556884765625 45.133056640625 C-14.050283203124998 44.487236328125 -13.543681640625 43.841416015625 -13.021728515625 43.176025390625 C-5.735417008189515 33.87782189979315 -5.380185862428974 24.559947542977753 -5.035888671875 13.188232421875 C-4.555042027828705 0.17474585784509244 -4.555042027828705 0.17474585784509244 0 0 Z " fill="#25345E" transform="translate(41.959228515625,-0.113525390625)"/>
<path d="M0 0 C7.920000000000002 0 15.840000000000003 0 24 0 C24 37.29 24 74.58 24 113 C19.513967387171803 110.7569836935859 18.473082756056797 108.7227803441635 16.3125 104.5 C13.214058537425757 98.74491145658511 9.720643112839284 94.20266544625363 5.1875 89.45703125 C-4 79.13749999999999 -4 79.13749999999999 -4 74 C-4.659999999999997 74 -5.319999999999993 74 -6 74 C-6.97198326894771 65.88471111957945 -5.65323069998243 61.31898629647881 -0.7265625 54.80078125 C-0.15679687499999773 54.2065234375 0.41296875000000455 53.612265625 1 53 C1.6599999999999966 53 2.319999999999993 53 3 53 C3.123750000000001 52.445703125 3.2475000000000023 51.89140625 3.375 51.3203125 C4.0685152873866315 48.74563699557715 5.017305801548673 46.353412574035346 6 43.875 C11.166442144401003 29.515329922179568 6.982748792520951 19.00942951572478 0.953125 5.4609375 C0 2.9999999999999996 0 2.9999999999999996 0 0 Z " fill="#799DBF" transform="translate(104,0)"/>
<path d="M0 0 C11.219999999999999 0 22.439999999999998 0 34 0 C35.46437499999999 3.58875 36.92875000000001 7.1775 38.4375 10.875 C38.898259277343755 11.9847216796875 39.35901855468751 13.094443359375 39.833740234375 14.23779296875 C44.23551915211834 25.261293468190686 44.83692877752728 33.705814485504405 41 45 C39.80070151061 47.784085778941076 38.47923607276155 50.347576697117205 37 53 C36.34 53 35.68000000000001 53 35 53 C34.7525 53.53625 34.504999999999995 54.0725 34.25 54.625 C33 57 33 57 30.875 59.4375 C27.60842706762196 64.21547234885146 28.442291229727417 70.49424713998344 29 76 C29.646283886579354 78.33906092841481 30.31445036280894 80.67214463854901 31 83 C31.691109765991598 86.54363979150992 32.22800273107987 90.11409499022065 32.767578125 93.68359375 C33.359167265186954 97.2984975568883 34.09793577733973 100.49029400476199 35.59765625 103.84375 C37 106.99999999999999 37 106.99999999999999 37 110 C30.11032762269747 113.44483618865127 20.99472821282373 110.24103376182966 14.125 108.125 C13.202031250000005 107.8555859375 12.279062499999995 107.586171875 11.328125 107.30859375 C7.36027681843791 106.12974030475328 3.66762357720161 104.942175773825 0 103 C1.7252604166666714 102.34895833333333 3.4505208333333286 101.69791666666667 5.17578125 101.046875 C7.538049684485188 99.69122630526331 8.598454811317282 98.3303798699399 10 96 C11.401819761336213 90.29863909147822 11.277289393158796 85.44019132810156 9 80 C7.544423112270238 75.74523678971302 8.299268407635537 72.95373992836234 10 68.9296875 C11.988897218822643 65.0917373980532 14.137752108454293 62.59779722232811 18.32421875 61.25390625 C20.544942807302164 60.74840391356544 22.746937094508255 60.32887846332886 25 60 C25.025781249999994 59.0937890625 25.051562500000003 58.187578125 25.078125 57.25390625 C25.59802963035841 46.08777271162053 25.59802963035841 46.08777271162053 28.0625 41.4375 C31.15845413932726 35.370337126226815 31.18766239909266 28.268161746739224 29.375 21.75390625 C26.960717962195915 16.7421154125942 22.969576698623044 14.804024417993297 18 13 C15.453315778235364 12.229706624281064 12.895918762544085 11.505921618935558 10.3359375 10.78125 C5.738763721703734 9.243733686188541 2.719593270740077 7.079389906110114 0 3 C0 2.01 0 1.02 0 0 Z " fill="#49415D" transform="translate(70,0)"/>
<path d="M0 0 C8.58 0 17.16 0 26 0 C25.67 2.5575 25.34 5.115 25 7.75 C24.32352178200153 13.089729425969763 23.9313183167882 18.168836994000245 24.1875 23.5625 C24.28276086122767 29.38928934509236 22.61704273440002 32.54825509612305 19 37 C17.74775078452175 38.56069796960658 16.49780248217183 40.1232445171949 15.25 41.6875 C14.360546875 42.74517578125 14.360546875 42.74517578125 13.453125 43.82421875 C11.388216784876601 46.91603024414982 10.776529206989048 49.46363829804971 11.3125 53.1484375 C13.404615530378766 59.92403893361305 16.301683543712674 66.21042953047181 19.37890625 72.58203125 C23.56671792243294 81.4117546557321 23.56671792243294 81.4117546557321 22 86 C20.062500000000014 89.31249999999999 20.062500000000014 89.31249999999999 18 92 C17.34 92 16.68 92 16 92 C15.74734375 92.6045703125 15.4946875 93.209140625 15.234375 93.83203125 C13.832516088241947 96.29415687033455 12.646189986973273 97.21542204288657 10.25 98.6875 C9.59515625 99.1038671875 8.9403125 99.520234375 8.265625 99.94921875 C6.000000000000021 100.99999999999999 6.000000000000021 100.99999999999999 0 102 C0 68.34 0 34.67999999999999 0 0 Z " fill="#577DC9" transform="translate(0,0)"/>
<path d="M0 0 C0.536249999999999 0.7218749999999972 1.0725000000000016 1.4437499999999943 1.625 2.1875 C6.1791836288067685 7.580612192008019 9.604152685073743 9.969638759155742 16.25 12.25 C24.95219701002116 15.396332099733058 31.577890932626055 20.819098225358204 36 29 C36.584607857919046 30.251660413749747 37.130724546319335 31.52249538187739 37.625 32.8125 C37.864765625 33.4170703125 38.10453125 34.021640625 38.3515625 34.64453125 C39.279268866579095 38.0144525695614 39.566463402261284 41.53170721809029 40 45 C19.209999999999994 45 -1.5800000000000054 45 -23 45 C-23 36.42 -23 27.840000000000003 -23 19 C-19.7 17.680000000000007 -16.4 16.36 -13 15 C-9.372411429812274 12.529178161029364 -9.372411429812274 12.529178161029364 -7 9 C-6.34 9 -5.68 9 -5 9 C-4.731874999999999 8.257499999999993 -4.463750000000001 7.515000000000001 -4.1875 6.75 C-3.05770578846327 4.1336344574938835 -1.7910679833752745 2.198128888687833 0 0 Z " fill="#40767F" transform="translate(23,83)"/>
<path d="M0 0 C1.2934936523437486 0.005236816406249997 2.586987304687497 0.010473632812499994 3.919677734375 0.015869140625 C4.94967140197754 0.017991561889648428 4.94967140197754 0.017991561889648428 6.0004730224609375 0.0201568603515625 C8.201449494849626 0.025770598982977386 10.402325572545408 0.03832532167268986 12.603271484375 0.051025390625 C14.09220231068926 0.05603862573043522 15.58113472567993 0.06060183809255674 17.070068359375 0.064697265625 C20.72700223197161 0.07574446185388797 24.383877068387477 0.09301826121086926 28.040771484375 0.113525390625 C28.476474609375003 1.059697265625 28.912177734375007 2.005869140625 29.361083984375 2.980712890625 C32.07762110744687 8.047370501563702 35.95358540066384 9.460637132912396 41.212646484375 11.105712890625 C43.45258036608607 11.75944924976692 45.69988284881447 12.38863340206733 47.954833984375 12.988525390625 C52.595427980020204 14.68028623967034 55.186853291958684 16.75961562501756 57.822021484375 20.937744140625 C60.24909209177909 27.26213005030296 60.3679675739362 34.680327172836485 57.915771484375 41.023681640625 C56.72592231056849 43.15662149480655 55.49364450771843 45.152146809111365 54.040771484375 47.113525390625 C49.80396371292362 46.86430140406904 47.58690638055654 46.57277518968675 44.290771484375 43.801025390625 C39.040771484375 37.530192057291664 39.040771484375 37.530192057291664 39.040771484375 35.113525390625 C37.390771484374994 34.453525390625 35.740771484375 33.793525390625 34.040771484375 33.113525390625 C34.040771484375 32.453525390625 34.040771484375 31.793525390625 34.040771484375 31.113525390625 C33.44264648437499 31.092900390625 32.84452148437501 31.072275390625 32.228271484375 31.051025390625 C30.040771484375 30.113525390625 30.040771484375 30.113525390625 28.415771484375 26.613525390625 C27.962021484375 25.458525390625 27.508271484375 24.303525390625 27.040771484375 23.113525390625 C26.380771484375003 22.783525390625 25.720771484375007 22.453525390625 25.040771484375 22.113525390625 C25.040771484375 21.453525390625 25.040771484375 20.793525390625 25.040771484375 20.113525390625 C18.79804079937744 17.63414299090966 13.757774953675138 16.793668082563087 7.040771484375 17.113525390625 C7.040771484375 17.773525390625 7.040771484375 18.433525390625 7.040771484375 19.113525390625 C6.605068359374997 19.541494140625 6.169365234375 19.969462890625 5.720458984375 20.410400390625 C3.6372044048042653 22.522723638747884 2.526559805596527 24.73021609874766 1.165771484375 27.363525390625 C-1.2494471826767466 31.910174531349906 -3.85838780590921 36.00947151011881 -6.959228515625 40.113525390625 C-7.949228515625002 39.783525390625 -8.939228515624997 39.453525390625 -9.959228515625 39.113525390625 C-9.682080078124997 38.600478515625 -9.404931640625001 38.087431640625 -9.119384765625 37.558837890625 C-5.348184084261931 29.58697595208528 -5.29761905988687 21.832867035993612 -5.035888671875 13.188232421875 C-4.555042027828705 0.17474585784509244 -4.555042027828705 0.17474585784509244 0 0 Z " fill="#2E3068" transform="translate(41.959228515625,-0.113525390625)"/>
<path d="M0 0 C0.9281249999999943 0.7734375 0.9281249999999943 0.7734375 1.875 1.5625 C1.875 2.2225 1.875 2.8825000000000003 1.875 3.5625 C2.514375000000001 3.7481250000000017 3.1537500000000023 3.93375 3.8125 4.125 C5.875 5.5625000000000036 5.875 5.5625000000000036 6.625 9.1875 C6.70750000000001 10.30125 6.789999999999992 11.415 6.875 12.5625 C6.215000000000003 12.5625 5.555000000000007 12.5625 4.875 12.5625 C4.627499999999998 13.243125 4.3799999999999955 13.923749999999998 4.125 14.625 C2.9779263933370146 17.320622975657997 1.6897464573426788 19.824180302247534 0.19140625 22.33984375 C-0.8539902258267489 24.104919698799478 -1.858260777802478 25.894341004580006 -2.84765625 27.69140625 C-8.106351177772936 36.881054046247336 -13.171667139076611 41.94456802308924 -23.125 45.5625 C-26.97102764847976 46.04325345605997 -28.57561350625805 45.912109586926704 -31.875 43.8125 C-35.35576923076923 40.33173076923077 -35.35576923076923 40.33173076923077 -36.125 37.5625 C-35.952183238755296 27.539127847807194 -30.551313465774676 19.92123369125563 -24.83984375 12.03515625 C-22.29996898665788 8.37287669374587 -20.192066679184684 4.50612030037999 -18.125 0.5625 C-17.465000000000003 0.5625 -16.805 0.5625 -16.125 0.5625 C-16.125 -0.09750000000000014 -16.125 -0.7575000000000003 -16.125 -1.4375 C-10.769657580594973 -3.222614139801676 -5.078009546123177 -2.3358843912166627 0 0 Z " fill="#0D153E" transform="translate(65.125,18.4375)"/>
<path d="M0 0 C1.7924414062499991 0.017402343749999993 1.7924414062499991 0.017402343749999993 3.62109375 0.03515625 C5.417402343749998 0.04869140625 5.417402343749998 0.04869140625 7.25 0.0625 C8.176835937500002 0.0741015625 9.103671875000003 0.085703125 10.05859375 0.09765625 C9.89359340098433 4.009748834156068 9.698799681522544 7.919221600530253 9.478759765625 11.82861328125 C9.373823939278893 13.796457462388936 9.291105502122463 15.76544677140114 9.208984375 17.734375 C8.606591547118782 28.053626051530482 6.561577885403352 37.10278296715461 -0.12890625 45.22265625 C-3.55804918429261 49.55794576278444 -4.8727423237115275 53.5587661960634 -4.94140625 59.09765625 C-4.353210527772205 62.676189664952304 -3.5536914227681535 66.14885163365598 -2.6796875 69.66796875 C-1.703612979658491 74.20232551645421 -1.6545700214638046 78.48702946538116 -1.94140625 83.09765625 C-3.2614062500000003 83.09765625 -4.581406250000001 83.09765625 -5.94140625 83.09765625 C-19.65815629312575 52.53460639662755 -19.65815629312575 52.53460639662755 -18.00390625 46.91015625 C-15.971215130273219 42.578814424787794 -12.851961627812209 39.06078970420997 -9.78125 35.4296875 C-6.440380120403269 31.19508172904618 -5.72368235961433 28.69423415176901 -5.94140625 23.28515625 C-6.069479923120433 15.762962515393305 -5.29653553503838 8.496464317216851 -3.94140625 1.09765625 C-2.94140625 0.09765625000000011 -2.94140625 0.09765625000000011 0 0 Z " fill="#465A93" transform="translate(28.94140625,-0.09765625)"/>
<path d="M0 0 C11.219999999999999 0 22.439999999999998 0 34 0 C35.46437499999999 3.58875 36.92875000000001 7.1775 38.4375 10.875 C38.898259277343755 11.9847216796875 39.35901855468751 13.094443359375 39.833740234375 14.23779296875 C44.23551915211834 25.261293468190686 44.83692877752728 33.705814485504405 41 45 C39.80070151061 47.784085778941076 38.47923607276155 50.347576697117205 37 53 C36.34 53 35.68000000000001 53 35 53 C34.7525 53.53625 34.504999999999995 54.0725 34.25 54.625 C32.69347463412947 57.58239819515401 30.965643268010922 60.297240506484975 29 63 C28.340000000000003 63 27.680000000000007 63 27 63 C24.287156465440162 57.237836213415534 24.870304523086247 52.15407536025046 26 46 C26.96484375 43.675781250000014 26.96484375 43.675781250000014 28.0625 41.5625 C31.11499596952794 35.42396414919108 31.20272748332168 28.3223018931873 29.375 21.75390625 C26.960717962195915 16.7421154125942 22.969576698623044 14.804024417993297 18 13 C15.453315778235364 12.229706624281064 12.895918762544085 11.505921618935558 10.3359375 10.78125 C5.738763721703734 9.243733686188541 2.719593270740077 7.079389906110114 0 3 C0 2.01 0 1.02 0 0 Z " fill="#5F5D92" transform="translate(70,0)"/>
<path d="M0 0 C3.756355693750442 0.7512711387500914 5.832103073489204 1.2400572630495574 9 3 C9 4.32 9 5.640000000000001 9 7 C9.66 7 10.32 7 11 7 C11.3029296875 7.738632812500001 11.605859375 8.477265625000001 11.91796875 9.23828125 C14.459070098601405 15.391655900305558 17.089311335783343 21.486037184444157 19.88671875 27.52734375 C23.5105854869324 35.576142502555115 23.5105854869324 35.576142502555115 22 40 C20.0625 43.3125 20.0625 43.3125 18 46 C17.34 46 16.68 46 16 46 C15.74734375 46.6045703125 15.4946875 47.209140625 15.234375 47.83203125 C13.832516088241974 50.29415687033452 12.64618998697325 51.21542204288659 10.25 52.6875 C9.59515625 53.1038671875 8.9403125 53.520234375 8.265625 53.94921875 C6.0000000000000036 55 6.0000000000000036 55 0 56 C0 37.519999999999996 0 19.039999999999992 0 0 Z " fill="#6B9DC4" transform="translate(0,46)"/>
<path d="M0 0 C4.8463260283783995 3.6541298253973196 9.78508538640034 8.718233350352307 11.953125 14.47265625 C12.448124999999997 18.432656250000008 12.448124999999997 18.432656250000008 12.953125 22.47265625 C1.4031250000000028 22.47265625 -10.146875000000001 22.47265625 -22.046875 22.47265625 C-26.224445093457945 4.3698525116822395 -26.224445093457945 4.3698525116822395 -23.921875 0.66015625 C-16.724876304900818 -3.897942923562823 -7.404489292203465 -4.198887220578797 0 0 Z " fill="#628E8B" transform="translate(50.046875,105.52734375)"/>
<path d="M0 0 C7.920000000000002 0 15.840000000000003 0 24 0 C24 14.190000000000001 24 28.380000000000003 24 43 C18.49468608095249 41.8989372161905 17.577600501985785 41.03626723300961 14 37 C13.328398437499999 36.2613671875 12.656796874999998 35.522734375 11.96484375 34.76171875 C9.667148791155483 31.532155457946175 8.98953504484966 28.919973033448226 8.125 25.0625 C6.505305362037888 18.26248764730313 4.095549946126809 12.167578596057137 1.171875 5.828125 C0 3 0 3 0 0 Z " fill="#B9B4DF" transform="translate(104,0)"/>
<path d="M0 0 C2.258744404503531 2.9862541053405494 4.445788776451408 6.017881850227383 6.625 9.0625 C9.48201473268395 13.017154584027594 12.467261270721494 16.782189367724456 15.625 20.5 C19.36669154824486 24.98357866556927 22.14209479001758 29.549824762111854 24.7109375 34.78515625 C25.946899386619805 37.282447471061815 25.946899386619805 37.282447471061815 29 39 C29.222962029831876 41.64581608733843 29.281487517193796 43.99279501994744 29.1875 46.625 C29.125625000000014 49.05875 29.06375 51.49250000000001 29 54 C23.72 54 18.439999999999998 54 13 54 C12.814374999999998 52.349999999999994 12.628749999999997 50.7 12.4375 49 C11.562058918580831 43.58875911267718 9.893277380678015 39.20544527691456 7.5625 34.3125 C4.24886850669202 27.290999830590465 2.6851952682656446 20.598595096210914 1.60546875 12.9375 C1.1591221654994683 10.034807373054619 0.6141608608577229 7.382846474867463 -0.13671875 4.5625 C-0.42160156250000114 3.3868750000000034 -0.7064843750000023 2.211250000000007 -1 1 C-0.6700000000000017 0.6700000000000017 -0.3400000000000034 0.3400000000000034 0 0 Z " fill="#706F73" transform="translate(99,74)"/>
<path d="M0 0 C1.4231249999999989 1.3612499999999983 1.4231249999999989 1.3612499999999983 2.875 2.75 C11.182046171827025 9.777761061365666 18.9350765211571 10.148852040089011 30 11 C30 21.230000000000004 30 31.460000000000008 30 42 C25.513967387171817 39.75698369358591 24.473082756056783 37.72278034416348 22.3125 33.5 C19.214058537425757 27.74491145658513 15.720643112839284 23.202665446253633 11.1875 18.45703125 C2 8.137500000000003 2 8.137500000000003 2 3 C1.3400000000000034 3 0.6800000000000068 3 0 3 C0 2.010000000000005 0 1.019999999999996 0 0 Z " fill="#918E97" transform="translate(98,71)"/>
</svg>
