<?xml version="1.0" encoding="UTF-8"?>
<!-- Generator: visioncortex VTracer 0.6.0 -->
<svg version="1.1" xmlns="http://www.w3.org/2000/svg" width="128" height="128">
<path d="M0 0 C42.24 0 84.48 0 128 0 C128 42.24 128 84.48 128 128 C85.75999999999999 128 43.519999999999996 128 0 128 C0 85.75999999999999 0 43.519999999999996 0 0 Z " fill="#806C74" transform="translate(0,0)"/>
<path d="M0 0 C3.1818131661611915 1.9090878996967078 5.495508919633153 4.283006646147477 8 7 C8.751523437499998 7.7231640625 9.503046874999995 8.446328125 10.27734375 9.19140625 C20.27486688427338 19.28873826747744 25.75023222439627 33.80486475318804 26 48 C25.526218083104993 56.97553520339976 21.974326775974134 63.64893358053716 17 71 C16.5243359375 71.7051171875 16.048671874999997 72.410234375 15.55859375 73.13671875 C11.655064715474069 78.2635759719842 6.807623738598011 80.46942873086796 1 83 C-0.28474437191954394 83.59574022296006 -1.5685381167520802 84.19353322684282 -2.8515625 84.79296875 C-14.664519020103633 90.23571234680271 -26.080126234931193 94.63692727584113 -38.984375 89.984375 C-41.90369565889466 88.55866025960958 -43.326245486372834 86.74495740234856 -45 84 C-45.391875 83.38125 -45.78375 82.7625 -46.1875 82.125 C-51.53902810052871 68.12869573707876 -50.13547778642106 41.95658255734295 -44.73828125 28.13671875 C-40.02848185389654 19.637912199278475 -32.952280169061595 13.616970867084774 -25.32421875 7.78515625 C-22.62863067065085 5.714763389054518 -20.096249841657226 3.4986367922444366 -17.5703125 1.2265625 C-11.882491806066106 -3.2161631166548332 -6.62970067788828 -2.061623049511063 0 0 Z " fill="#BBA8BB" transform="translate(75,22)"/>
<path d="M0 0 C16.83 0 33.66 0 51 0 C51 42.24 51 84.48 51 128 C33.84 128 16.680000000000007 128 -1 128 C1.101778266224514 119.59288693510197 2.573737693437323 116.98338319049991 8.875 111.8125 C16.271448600354532 105.41409344738277 19.784223311246933 96.68534209339423 23.377197265625 87.797119140625 C25.104361318033455 83.62862035266826 27.12639444402285 80.19081505289176 29.929443359375 76.647216796875 C34.78332375396644 69.17877186590384 31.826678139971733 57.41954242771257 30.75 49.1875 C30.640751953125005 48.28008056640625 30.531503906249995 47.3726611328125 30.4189453125 46.437744140625 C29.021854157574566 36.506846187011305 23.68047674383388 31.481943726395166 16.6875 24.75 C1.664206016034342 9.985236096206053 1.664206016034342 9.985236096206053 0 0 Z " fill="#4E3451" transform="translate(77,0)"/>
<path d="M0 0 C12.870000000000001 0 25.740000000000002 0 39 0 C41.655738229289774 5.311476458579548 40.604069437348414 13.36280542780462 39.31640625 18.984375 C36.28427294371468 27.690749472819242 31.625682101250657 35.58484009319096 26.56884765625 43.249267578125 C14.232290923904783 61.98620149451108 16.813549092742303 77.36071819196633 20.65625 98.6328125 C22.022334930650246 104.86150926713148 24.25780500899804 109.72341483104815 27.79296875 115.0390625 C29 118 29 118 29 128 C19.43 128 9.86 128 0 128 C0 85.75999999999999 0 43.519999999999996 0 0 Z " fill="#4D3F41" transform="translate(0,0)"/>
<path d="M0 0 C3.3642917781996147 2.311241099657458 5.205349647723125 4.509133309296658 6.35546875 8.44921875 C7.112515662120302 17.090980671373273 2.662470167986072 25.487652110949796 -1.4375 32.8125 C-2.0974999999999966 32.8125 -2.757499999999993 32.8125 -3.4375 32.8125 C-3.7159374999999955 33.7096875 -3.7159374999999955 33.7096875 -4 34.625 C-6.138228362389199 37.87882576885312 -8.814605387495334 38.8329998967925 -12.4375 39.8125 C-18.900197050893993 41.05362151869021 -24.99300642756066 41.8271102140089 -30.8203125 38.296875 C-37.224502374970854 32.418633085775554 -38.39267599954081 21.367544542348682 -38.8125 13.125 C-38.661965641673305 7.790438676797649 -36.685567436831306 4.134476503247676 -33.01171875 0.33984375 C-23.10395857068118 -8.441452739680507 -10.8694485471054 -5.892594816745785 0 0 Z " fill="#E9C0B9" transform="translate(71.4375,58.1875)"/>
<path d="M0 0 C16.83 0 33.66 0 51 0 C51 8.91 51 17.82 51 27 C47.03999999999999 28.32 43.08 29.64 39 31 C34.74354811846466 33.28823458915073 34.74354811846466 33.28823458915073 32 37 C31.340000000000003 37 30.680000000000007 37 30 37 C29.67 37.66 29.340000000000003 38.32 29 39 C28.5114453125 38.18015625 28.022890625000002 37.3603125 27.51953125 36.515625 C24.520720357977538 32.01806774128323 20.563555290487827 28.481370352256405 16.6875 24.75 C1.664206016034342 9.985236096206053 1.664206016034342 9.985236096206053 0 0 Z " fill="#50385A" transform="translate(77,0)"/>
<path d="M0 0 C5.119281090336358 7.633096868711235 6.347141378021561 15.97432417143935 6 25 C5.5049999999999955 26.485 5.5049999999999955 26.485 5 28 C5.0206249999999955 29.134375 5.041249999999991 30.268749999999997 5.0625 31.4375 C5.002132471513534 34.87844912372902 4.614229539994426 36.11970807569621 3 39 C1.8959179687499983 38.47599609375 1.8959179687499983 38.47599609375 0.76953125 37.94140625 C-0.6941992187500006 37.25884765625 -0.6941992187500006 37.25884765625 -2.1875 36.5625 C-3.150429687500008 36.1100390625 -4.113359375000002 35.657578125 -5.10546875 35.19140625 C-11.07796813614575 32.733090038428536 -17.92109497109545 31.72306193191718 -24.18359375 33.68359375 C-29.057781156288897 35.90415927914106 -31.935009974257035 38.634711175456985 -35 43 C-35.33 43.99000000000001 -35.66 44.97999999999999 -36 46 C-36.66 46 -37.32 46 -38 46 C-40.02574272478225 41.06225210834327 -40.81855424634557 36.280995137713376 -40 31 C-36.00332476591144 21.600411949458376 -28.3174310313715 14.924784052014786 -20.359375 8.8203125 C-17.65555694719069 6.734254200978249 -15.108256558342099 4.50943680373485 -12.5703125 2.2265625 C-8.342851367711503 -1.075484255071114 -5.172267970589331 -1.9055724102171183 0 0 Z " fill="#C1B1B1" transform="translate(70,21)"/>
<path d="M0 0 C8.91 0 17.82 0 27 0 C28.622278638303307 16.222786383033057 27.618922084634136 25.01509930389767 17.40625 38.03125 C14.020943918533122 42.1292520986178 11.163271169484217 45.2422906657075 6 47 C4.02 47 2.04 47 0 47 C0 31.49 0 15.979999999999997 0 0 Z " fill="#27151B" transform="translate(0,0)"/>
<path d="M0 0 C0 15.180000000000007 0 30.36 0 46 C-10.560000000000002 46 -21.120000000000005 46 -32 46 C-31.24953118189768 39.99624945518147 -30.491426637006697 35.94835598105186 -28.0625 30.6875 C-27.7574755859375 30.018879394531254 -27.452451171874998 29.350258789062508 -27.13818359375 28.661376953125 C-26.468055268038654 27.21341517951643 -25.790015663382306 25.76909413668109 -25.10498046875 24.328125 C-24.337480820018456 22.711051060471945 -23.582137990648533 21.088173542329997 -22.83642578125 19.4609375 C-21.632851688954915 16.85230137597992 -20.38535318703599 14.269115635898999 -19.125 11.6875 C-18.75125244140625 10.86918701171875 -18.377504882812502 10.050874023437501 -17.992431640625 9.207763671875 C-15.808994023054069 4.884093305233279 -14.145636122052593 2.6112696110899236 -9.4921875 0.95703125 C-6.083425701959968 0.024261187785612037 -3.6785447294664664 0 0 0 Z " fill="#292739" transform="translate(128,82)"/>
<path d="M0 0 C9.899999999999999 0 19.799999999999997 0 30 0 C30.495000000000005 3.96 30.495000000000005 3.96 31 8 C32.127883668161246 11.064856068828488 32.127883668161246 11.064856068828488 33.5625 13.8125 C36 18.708215297450415 36 18.708215297450415 36 22 C35.2265625 21.8698046875 34.453125 21.739609375 33.65625 21.60546875 C27.45566508124729 20.78435168773943 23.17702424631843 20.394643026136556 18.05859375 24.21484375 C14.549353066484471 27.257961382574187 11.081770317415533 30.332767471146692 7.68359375 33.5 C4.76697573902149 36.21708228096979 1.7762229132517575 38.83167015232354 -1.24609375 41.4296875 C-3.240440372828999 43.21527178146383 -5.12198649398227 45.093093978505074 -7 47 C-9.112065505147758 37.46908255240045 -7.040879327249208 31.54390726034291 -2.6640625 23.25 C0.01947229721351107 18.008917954737935 0.12881221757341876 13.569043800513267 0.0625 7.75 C0.04187499999999744 5.1925 0.02125000000000199 2.635 0 0 Z " fill="#887176" transform="translate(39,0)"/>
<path d="M0 0 C2.6400000000000006 0 5.280000000000001 0 8 0 C8.1959375 0.533671875 8.391874999999999 1.06734375 8.59375 1.6171875 C12.033059784308989 10.185812738493928 17.401057877312795 16.510565126142186 23.97265625 22.91015625 C24.684541015625 23.60488037109375 25.396425781250002 24.2996044921875 26.1298828125 25.015380859375 C27.557773312149635 26.39551528974105 28.998164200062007 27.76286173244015 30.4521484375 29.115478515625 C37.32608423532662 35.7149514092938 39.25950131362663 42.00682459131479 40.1875 51.3125 C40.26572998046875 52.0516162109375 40.3439599609375 52.790732421875 40.424560546875 53.55224609375 C42.253365459002055 71.8562498925526 42.253365459002055 71.8562498925526 36.3125 80.4375 C35.87937500000001 80.953125 35.44624999999999 81.46875 35 82 C33.349999999999994 81.67 31.700000000000003 81.34 30 81 C30.095390624999993 80.2845703125 30.19078125 79.569140625 30.2890625 78.83203125 C31.958996110288467 63.822046590081534 28.84527496392053 48.32103490626507 19.625 36.0625 C13.577118286536006 28.608254737404017 13.577118286536006 28.608254737404017 6 23 C-1.867158671586708 5.6014760147601415 -1.867158671586708 5.6014760147601415 0 0 Z " fill="#7E6A84" transform="translate(69,0)"/>
<path d="M0 0 C0.3299999999999983 0 0.6600000000000001 0 1 0 C3.1578896409113213 6.81036092344354 4.432121063039617 13.572249600585735 5.4375 20.625 C6.654627650590037 30.377194969125384 6.654627650590037 30.377194969125384 11 39 C16.948545947574388 43.21355337953186 23.04912534068822 42.001077056911754 30 41 C31.333581419750217 40.70946976212585 32.666967246995455 40.41803737242773 34 40.125 C35.485 40.063125 35.485 40.063125 37 40 C39.062499999999986 42.24999999999997 39.062499999999986 42.24999999999997 41 45 C44.116629079621475 46.80979140510942 44.116629079621475 46.80979140510942 47 48 C38.26085402907216 55.1031447109674 25.223223198302996 59.020293018027544 14 58 C9.377437763083208 56.99029357282363 5.9499138468026445 55.949913846802644 2.5625 52.5625 C2.046875 51.716875 1.53125 50.87125 1 50 C0.6081250000000011 49.381249999999994 0.21624999999999872 48.7625 -0.1875 48.125 C-2.927499105980221 40.95884849205173 -2.1861543968830794 32.7439267342249 -2.185302734375 25.1845703125 C-2.187494305048588 23.005662047247355 -2.205707945136343 20.827256869737994 -2.224609375 18.6484375 C-2.227543313255371 17.244793374112817 -2.229528106473083 15.841146877003268 -2.23046875 14.4375 C-2.2345776367187504 13.1780859375 -2.238686523437501 11.918671875000001 -2.242919921875 10.62109375 C-1.982621185088579 6.740942127873161 -1.1955558501614654 3.6817315653225933 0 0 Z " fill="#B09089" transform="translate(29,56)"/>
<path d="M0 0 C2.656183858312829 4.685508326063825 2.5532746309077794 8.728021889055526 2 14 C1.3752680938129558 15.957889422297605 0.7049905150395261 17.901588472226656 0 19.83203125 C-2.2767953322638874 27.00064051775381 -2.5458732276289595 33.73074740650162 -2.41162109375 41.158203125 C-2.374786271960698 43.26220814560489 -2.370605740606166 45.36445349378464 -2.37109375 47.46875 C-2.320812515078611 57.262137061314874 -2.1520993432259345 66.00227085380628 4 74 C2.551405742813216 77.38005326676915 0.6266982858300878 79.45872279663593 -2 82 C-3.1382943134245807 79.86037191888374 -4.260341579801899 77.71441000566023 -5.375 75.5625 C-5.692109375000001 74.97017578125 -6.009218750000002 74.3778515625 -6.3359375 73.767578125 C-13.027140947302243 60.7336714099425 -17.12941235284533 37.20238914714197 -13.19140625 23.10546875 C-10.015746250951004 14.721286814794524 -5.009221863246481 7.377416077461049 0 0 Z " fill="#7B6A67" transform="translate(30,36)"/>
<path d="M0 0 C2.97903733957142 2.97903733957142 4 5.802853289449303 4 10 C4.659999999999997 10.329999999999998 5.319999999999993 10.659999999999997 6 11 C5.596845703124998 11.74983154296875 5.193691406249997 12.499663085937499 4.7783203125 13.272216796875 C3.2557996288436755 16.117214162816964 1.7438261638540666 18.96752089506448 0.23828125 21.821533203125 C-0.4093809300227065 23.04437955735264 -1.0609394074677567 24.26517202543947 -1.716796875 25.483642578125 C-6.16202874604781 33.750273933409474 -9.522414722950487 41.90962163825404 -12 51 C-12.329999999999998 51.99000000000001 -12.659999999999997 52.97999999999999 -13 54 C-19.599999999999994 54 -26.200000000000003 54 -33 54 C-30.898221733775486 45.592886935101944 -29.42626230656269 42.98338319049992 -23.125 37.8125 C-15.669318901604768 31.362853504530563 -12.34918982986872 22.6641716573468 -8.62060546875 13.779541015625 C-6.378026680137623 8.554996071188839 -3.7107156764412537 4.3442524992482845 0 0 Z " fill="#544856" transform="translate(109,74)"/>
<path d="M0 0 C0.5710546874999949 0.3609375000000057 1.142109375000004 0.7218749999999972 1.73046875 1.09375 C8.920771010112858 5.209026333291945 14.822259758790409 5.576799860273411 23 5 C22.79008761673049 14.236144863858286 16.649030937390677 22.968688004097103 10.52734375 29.59375 C6.727074675668618 33.09271896869386 3.610537367432883 35.05368457891443 -1.75 34.875 C-5 34 -5 34 -8 32 C-8 31.340000000000003 -8 30.680000000000007 -8 30 C-8.989999999999995 29.67 -9.980000000000004 29.340000000000003 -11 29 C-11.329999999999998 28.010000000000005 -11.659999999999997 27.019999999999996 -12 26 C-10.6875 23.8125 -10.6875 23.8125 -9 22 C-8.340000000000003 22 -7.680000000000007 22 -7 22 C-6.752499999999998 21.216250000000002 -6.5049999999999955 20.432500000000005 -6.25 19.625 C-5.237413490678463 16.688499122967528 -4.1277636672267874 13.86528926437866 -2.9375 11 C-1.448562768435096 7.335775288862578 -0.4169433242552998 3.9609615804253338 0 0 Z " fill="#B9A2A9" transform="translate(77,69)"/>
</svg>
