<?xml version="1.0" encoding="UTF-8"?>
<!-- Generator: visioncortex VTracer 0.6.0 -->
<svg version="1.1" xmlns="http://www.w3.org/2000/svg" width="128" height="128">
<path d="M0 0 C42.24 0 84.48 0 128 0 C128 42.24 128 84.48 128 128 C85.75999999999999 128 43.519999999999996 128 0 128 C0 85.75999999999999 0 43.519999999999996 0 0 Z " fill="#9FB7B8" transform="translate(0,0)"/>
<path d="M0 0 C8.197885351753627 3.8305595244801154 14.63836087574434 9.758477528474451 20 17 C20 17.66 20 18.32 20 19 C20.585234375 19.2771484375 21.170468749999998 19.554296875 21.7734375 19.83984375 C25.813787975492744 21.945078997756752 29.987933338181975 24.493430754668317 31.75390625 28.8671875 C32.0585035713824 30.321571106600643 32.319066951416474 31.785534806412727 32.546875 33.25390625 C33.11564932111099 36.700874765008834 34.02039730424171 40.00430539058987 34.9375 43.375 C35.28793689469673 44.67182732387308 35.63819862033387 45.9687019963045 35.98828125 47.265625 C36.322148437500005 48.49796875 36.656015624999995 49.7303125 37 51 C37.2823046875 52.06734375 37.564609375 53.1346875 37.85546875 54.234375 C38.109414062499994 55.18828125 38.363359375 56.142187500000006 38.625 57.125 C38.844140624999994 57.952578125 39.06328125 58.780156250000005 39.2890625 59.6328125 C39.523671875000005 60.413984375 39.758281249999996 61.19515625 40 62 C40.378984375 63.33611328124999 40.378984375 63.33611328124999 40.765625 64.69921875 C41.80656997115457 67.19269791284859 41.80656997115457 67.19269791284859 44.3203125 68.07421875 C45.245859374999995 68.2766015625 46.171406250000004 68.478984375 47.125 68.6875 C48.490117187500005 69.00267578125 48.490117187500005 69.00267578125 49.8828125 69.32421875 C51.42582031250001 69.65873046875001 51.42582031250001 69.65873046875001 53 70 C55.64 70.66 58.28 71.32 61 72 C61 80.58 61 89.16 61 98 C58.48375 98.474375 55.9675 98.94875 53.375 99.4375 C52.5943115234375 99.58501708984375 51.813623046874994 99.7325341796875 51.00927734375 99.884521484375 C47.013025949858616 100.6357842813226 43.01394226514266 101.3478926603948 39 102 C38.62875 100.783125 38.25749999999999 99.56625 37.875 98.3125 C36.519521003429276 94.81810001801492 35.02729094001343 92.08201125579953 31.94140625 89.76953125 C27.159938397205835 87.87426129627676 21.564793473439693 89.42635000870446 16.703369140625 90.513671875 C3.776497709285138 92.83917787077613 -11.38858820008727 92.82774042604522 -23.3125 87.125 C-31.44839298629239 83.71927735457528 -40.573278860039785 86.30784854456161 -48.7734375 88.34375 C-51.94579007742626 88.98897425303585 -54.77337095677228 89.11697748797201 -58 89 C-56.30126868591874 84.41260480883372 -53.938738646630014 80.526262546853 -51.33984375 76.40234375 C-46.21935943985973 67.22130045339281 -48.757734563264925 54.235099125625 -51.34375 44.609375 C-52 42 -52 42 -52 39 C-50.019999999999996 38.34 -48.04 37.68 -46 37 C-46.144375 36.4547265625 -46.28875 35.909453125 -46.4375 35.34765625 C-48.11593380962455 28.529018898400267 -49.66494380429984 22.206558437910807 -46.3125 15.75 C-42.7166014966079 11.986362790910306 -37.56775877506669 10.643988185533193 -32.765625 8.98046875 C-30.123653573479977 8.267050020590943 -30.123653573479977 8.267050020590943 -29 7 C-27.358018419467115 6.725839736099772 -25.711076984745198 6.4812169684074625 -24.0625 6.25 C-19.82733096014661 5.536823866345934 -16.572468801848082 4.441815148841959 -12.8125 2.375 C-8.34572085250091 0.02923862379764941 -4.992709761233002 -1.413377395643165 0 0 Z " fill="#7C6974" transform="translate(67,11)"/>
<path d="M0 0 C30.36 0 60.72 0 92 0 C92 27.39 92 54.78 92 83 C78.20224719101121 81.2752808988764 78.20224719101121 81.2752808988764 72.625 77.3125 C68.78082885100785 71.84194874951119 67.40796495667598 65.06699254261333 66 58.625 C63.59779105102078 44.23886327205952 63.59779105102078 44.23886327205952 55.3125 33.25 C50.821289961288656 30.036181222298946 47.528899102715556 26.210221206705196 44 22 C39.23732867252181 16.748849562011237 34.38426916600332 12.630965437729433 27.3125 11.3125 C22.136219496477366 11.608579160950999 17.704428279848713 14.402693309411465 13.14453125 16.6640625 C9.069054503179544 18.39550727939453 6.345985185662734 18.511292374783853 2 18 C-0.6997942308422154 12.600411538315576 0.3765729369280706 6.025166990849118 0 0 Z " fill="#A5A18D" transform="translate(36,0)"/>
<path d="M0 0 C3.7642626571870537 2.5632452355149553 6.453286423294145 5.330944397725524 9.19921875 8.9921875 C12.01195729357935 10.398556771789671 14.07003950640167 10.199044300959024 17.19921875 9.9921875 C20.23638460710947 8.97191739515533 20.23638460710947 8.97191739515533 23.19921875 7.5546875 C28.66877088072144 5.054931252756212 32.89629537520585 3.317192717732752 38.82421875 5.0546875 C43.23955044663576 7.589414955476087 45.25302603213164 10.006150741012831 46.80078125 14.890625 C48.72737650586423 25.05247056524469 43.883142353006406 35.24275240766519 39.26171875 44.0546875 C38.93824462890625 44.6735986328125 38.614770507812494 45.292509765625 38.281494140625 45.93017578125 C36.05566254875012 49.964599023651544 33.94195866575136 53.27706392720057 30.19921875 55.9921875 C26.682317235491354 56.72075667972837 23.279637178451736 56.70196147863119 19.69921875 56.6171875 C18.714697265625006 56.60679443359375 17.730175781249997 56.5964013671875 16.7158203125 56.585693359375 C9.791917382606798 56.37679230912255 4.460124133874672 55.335508005404634 -1.75390625 52.18359375 C-6.022348067381898 50.51452355217759 -10.254406382816029 50.286818532342096 -14.80078125 49.9921875 C-14.815363769531249 49.42524169921876 -14.829946289062498 48.85829589843749 -14.844970703125 48.274169921875 C-15.205061329478877 35.62773622812526 -16.195577044369347 23.366221750004854 -18.453125 10.9140625 C-18.929974667444856 8.277994675473366 -19.36581560988793 5.635440236065648 -19.80078125 2.9921875 C-18.553425578361036 2.34126160339229 -17.30276293040719 1.696670806924125 -16.05078125 1.0546875 C-15.3546875 0.6950390625000011 -14.658593750000001 0.3353906250000023 -13.94140625 -0.03515625 C-9.085769169381386 -2.241458500135103 -4.8486638554786765 -2.7135689256258146 0 0 Z " fill="#1F4547" transform="translate(45.80078125,46.0078125)"/>
<path d="M0 0 C6.913178279636199 2.9580023426807003 13.476441923816637 2.961854354821952 20.9375 2.9375 C22.628548583984383 2.9336328124999937 22.628548583984383 2.9336328124999937 24.353759765625 2.9296875 C31.24173124821354 2.809748941208639 37.80931193910304 2.099028810270852 44.580078125 0.824462890625 C47.51814701638919 0.4908424568710501 49.607908011703884 0.683605279675362 52.4375 1.5 C54.203125 2.91796875 54.203125 2.91796875 55.6875 4.6875 C56.18765625 5.258554687499995 56.68781250000001 5.829609375000004 57.203125 6.41796875 C58.77095376227645 9.062439415485272 59.07766466331823 11.471385916261752 59.4375 14.5 C60.3553125 14.211250000000007 61.27312499999999 13.9225 62.21875 13.625 C63.4459375 13.253749999999997 64.673125 12.882499999999993 65.9375 12.5 C67.1440625 12.128749999999997 68.350625 11.757499999999993 69.59375 11.375 C73.4375 10.5 73.4375 10.5 81.4375 10.5 C81.4375 16.769999999999996 81.4375 23.039999999999992 81.4375 29.5 C55.69749999999999 29.5 29.957499999999996 29.5 3.4375 29.5 C2.7775000000000034 26.53 2.1174999999999997 23.560000000000002 1.4375 20.5 C-3.627180581872395 15.197912515852337 -13.177114201980558 14.260175916337403 -20.140625 12.930419921875 C-25.562516247270757 11.87439835190419 -30.52724949459259 10.670933872434574 -34.4375 6.5 C-35.5625 4.5 -35.5625 4.5 -35.5625 1.5 C-10.164514387742386 -4.8212764190507755 -10.164514387742386 -4.8212764190507755 0 0 Z " fill="#578CC4" transform="translate(46.5625,98.5)"/>
<path d="M0 0 C1.4921875 1.5312500000000036 1.4921875 1.5312500000000036 2.875 3.5 C3.390625 4.216718749999998 3.90625 4.9334375 4.4375 5.671875 C5.476186304989135 7.219517594433807 6.477004264594271 8.793278831336117 7.4375 10.390625 C10.848153685950678 15.988545723679913 13.803550873432414 18.801627423846426 20 21 C21.415390625 21.585878906250002 21.415390625 21.585878906250002 22.859375 22.18359375 C26.59512460612254 23.1547027894025 28.568145036484395 22.686027169288977 32.25 21.625 C40.409428733983376 19.54805450407696 48.029140812289455 18.78919839038199 56.0859375 21.75 C59.737890385111086 24.134948822929687 60.823989383078015 27.960963535928656 62 32 C62.188203125 32.64453125 62.37640625 33.2890625 62.5703125 33.953125 C65.72116867410946 48.962658047576 58.61850143183021 63.48904859654422 51 76 C50.542382812499994 76.7644140625 50.084765625 77.528828125 49.61328125 78.31640625 C47.42544383044353 80.59959735854441 45.92457612551769 80.58833370776532 42.8125 80.75 C41.91144531250001 80.80671875 41.010390625 80.8634375 40.08203125 80.921875 C39.3949609375 80.94765625 38.707890625000005 80.9734375 38 81 C38.33 80.34 38.66 79.68 39 79 C39.66 79 40.31999999999999 79 41 79 C52.06659031950332 59.46575416322858 52.06659031950332 59.46575416322858 53 38 C51.09735749155402 33.97517930905659 49.85821135314916 32.42910567657458 45.875 30.4375 C39.43705981470501 29.71063578553121 34.03577171892415 32.02502097890216 28.25 34.6875 C24.72595050564695 36.110673834257966 22.74575072391515 36.637574591304706 19 36 C16.62668871034849 34.53365206360204 15.004048815883785 33.004048815883785 13 31 C13 30.340000000000003 13 29.68 13 29 C12.463749999999997 28.731875000000002 11.927500000000002 28.463750000000005 11.375 28.1875 C8.999999999999993 27 8.999999999999993 27 6.3125 25.25 C0.15325688244983837 22.925757314132014 -6.020151423954381 25.853387690650294 -12 28 C-11.806640625 28.631640625000003 -11.61328125 29.26328125 -11.4140625 29.9140625 C-7.023793045978998 44.99746349549791 -6.724833478017011 59.417108193547904 -7 75 C-12.39480904791111 76.9820009401223 -17.273930976060228 78.38283847242423 -23.0625 78.6875 C-24.1878515625 78.7532421875 -25.313203125 78.818984375 -26.47265625 78.88671875 C-27.3066796875 78.9241015625 -28.140703125 78.961484375 -29 79 C-27.301268685918753 74.41260480883373 -24.938738646630007 70.52626254685299 -22.33984375 66.40234375 C-17.219359439859733 57.221300453392814 -19.757734563264925 44.235099125625 -22.34375 34.609375 C-23 32 -23 32 -23 29 C-21.02 28.340000000000003 -19.04 27.68 -17 27 C-17.144375 26.4547265625 -17.28875 25.909453125 -17.4375 25.34765625 C-20.715511079342388 12.03073624017155 -20.715511079342388 12.03073624017155 -17.125 5.6875 C-13.081243748751298 1.5394635015844251 -5.688004916534183 -2.4818226045003016 0 0 Z " fill="#59727D" transform="translate(38,21)"/>
<path d="M0 0 C13.86 0 27.72 0 42 0 C42 14.190000000000001 42 28.380000000000003 42 43 C36.310810328542374 43 32.293092562918446 42.48664019514067 27 41 C25.029534543475876 40.475343547145 23.05903449842029 39.950812784992344 21.087890625 39.4287109375 C18.057037007271504 38.624925155810544 15.028568185030764 37.812350320463985 12 37 C11.88519287109375 36.46221923828125 11.7703857421875 35.9244384765625 11.652099609375 35.370361328125 C9.371219131390262 24.926446955799193 7.01328551762704 15.699567150099245 1.35546875 6.53125 C0 4 0 4 0 0 Z " fill="#BF9585" transform="translate(86,0)"/>
<path d="M0 0 C3.7642626571870537 2.5632452355149553 6.453286423294145 5.330944397725524 9.19921875 8.9921875 C9.859218749999997 9.322187499999998 10.51921875 9.652187499999997 11.19921875 9.9921875 C12.049071321514958 13.136642014605343 12.19921875 15.699908294430955 12.19921875 18.9921875 C12.570468750000003 20.064687500000005 12.94171875 21.137187499999996 13.32421875 22.2421875 C14.362638744508267 26.692558905035412 14.202225099585164 29.864496845013747 12.19921875 33.9921875 C9.76171875 35.8046875 9.76171875 35.8046875 7.19921875 36.9921875 C6.177248834883244 37.96972394054646 5.179422496722282 38.97277560340882 4.19921875 39.9921875 C2.6877813877176777 41.21420068652614 1.1760833823478478 42.4359046608721 -0.33984375 43.65234375 C-2.0327996557413 45.09139843694919 -2.0327996557413 45.09139843694919 -3.61328125 47.8046875 C-5.80078125 49.9921875 -5.80078125 49.9921875 -7.983154296875 50.205810546875 C-8.793088378906248 50.18043212890625 -9.603022460937503 50.155053710937494 -10.4375 50.12890625 C-11.25307373046875 50.109167480468756 -12.068647460937498 50.0894287109375 -12.908935546875 50.069091796875 C-13.533244628906246 50.04371337890625 -14.1575537109375 50.018334960937494 -14.80078125 49.9921875 C-14.815363769531249 49.42524169921876 -14.829946289062498 48.85829589843749 -14.844970703125 48.274169921875 C-15.205061329478877 35.62773622812526 -16.195577044369347 23.366221750004854 -18.453125 10.9140625 C-18.929974667444856 8.277994675473366 -19.36581560988793 5.635440236065648 -19.80078125 2.9921875 C-18.553425578361036 2.34126160339229 -17.30276293040719 1.696670806924125 -16.05078125 1.0546875 C-15.3546875 0.6950390625000011 -14.658593750000001 0.3353906250000023 -13.94140625 -0.03515625 C-9.085769169381386 -2.241458500135103 -4.8486638554786765 -2.7135689256258146 0 0 Z " fill="#365541" transform="translate(45.80078125,46.0078125)"/>
<path d="M0 0 C3.475285685467796 2.6854480296796623 3.979840958542283 5.851353231405277 5 10 C5.340927939808651 11.351617479490692 5.682075576430023 12.70317956138345 6.0234375 14.0546875 C6.1881152343750045 14.722099609375 6.352792968749995 15.38951171875 6.5224609375 16.0771484375 C7.1908965081020995 18.76866099070152 7.902727431563818 21.44748451902953 8.625 24.125 C8.844140624999994 24.952578125000002 9.063281250000003 25.780156250000005 9.2890625 26.6328125 C9.523671875000005 27.413984375 9.758281249999996 28.195156249999997 10 29 C10.252656250000001 29.890742187499995 10.505312500000002 30.781484375000005 10.765625 31.69921875 C11.806569971154573 34.19269791284859 11.806569971154573 34.19269791284859 14.3203125 35.07421875 C15.245859374999995 35.27660156249999 16.171406250000004 35.47898437500001 17.125 35.6875 C18.035078125 35.8976171875 18.945156249999997 36.10773437500001 19.8828125 36.32421875 C21.425820312500008 36.65873046875001 21.425820312500008 36.65873046875001 23 37 C25.64 37.66 28.28 38.31999999999999 31 39 C31 47.58 31 56.16 31 65 C28.48375 65.474375 25.9675 65.94875 23.375 66.4375 C22.594311523437497 66.58501708984375 21.813623046874994 66.7325341796875 21.00927734375 66.884521484375 C17.013025949858644 67.63578428132259 13.013942265142617 68.3478926603948 9 69 C8.443125000000009 67.1746875 8.443125000000009 67.1746875 7.875 65.3125 C6.146171149249341 60.82710533192338 4.247002032985691 58.470983001009856 0 56 C-3.3790910043129827 55.61107622222406 -6.616754186150899 55.69911845529009 -10 56 C-9.561920166015625 55.126257324218756 -9.561920166015625 55.126257324218756 -9.114990234375 54.23486328125 C2.0565520643839363 33.381811312282494 2.0565520643839363 33.381811312282494 2.3203125 10.37890625 C1.8049310298593042 8.884299986591998 1.2548571463269127 7.400761913243549 0.65625 5.9375 C0 4 0 4 0 0 Z " fill="#727279" transform="translate(97,44)"/>
<path d="M0 0 C16.5 0 33 0 50 0 C50.99000000000001 2.64 51.97999999999999 5.28 53 8 C53.7734176893498 9.335903281604185 54.58059649451661 10.653549501619983 55.4375 11.9375 C57.992132721913805 16.363459427023912 59.200695299481424 20.880420257821974 60.375 25.8125 C60.554743652343745 26.55427490234375 60.73448730468749 27.2960498046875 60.919677734375 28.060302734375 C61.7420573479168 31.747800919929826 62.099482117503044 34.39447757925093 61 38 C49.86373248270672 28.411203899501817 49.86373248270672 28.411203899501817 46.75 24.3828125 C41.710385696915765 17.940123760261624 35.228315885742376 12.886582363139532 27.125 11.1875 C22.083180454759542 11.633586914496584 17.60504116159987 14.451981915201927 13.14453125 16.6640625 C9.069054503179544 18.39550727939453 6.345985185662734 18.511292374783853 2 18 C-0.6997942308422154 12.600411538315576 0.3765729369280706 6.025166990849118 0 0 Z " fill="#A47F75" transform="translate(36,0)"/>
<path d="M0 0 C9 0 9 0 11 1 C11.4125 1.948750000000004 11.825 2.8974999999999937 12.25 3.875 C14.451624918780302 7.8064730692505435 15.850448380804359 8.29621059344285 20 10 C24.33355709056365 11.160644380169842 28.72849592938061 12.04289264484666 33.125 12.9296875 C39.343374285578165 14.29163691125055 44.103625438011015 15.824011580464571 49 20 C49.495 24.455 49.495 24.455 50 29 C33.5 29 17 29 0 29 C0 19.430000000000007 0 9.86 0 0 Z " fill="#BBD0DC" transform="translate(0,99)"/>
<path d="M0 0 C1.9443654200588867 2.835980502185329 3.0425628096451334 5.7116591736026265 4 9 C4.188203125000001 9.64453125 4.376406250000002 10.2890625 4.5703125 10.953125 C7.721168674109464 25.962658047575985 0.6185014318302109 40.48904859654422 -7 53 C-7.457617187500006 53.76441406250001 -7.915234374999997 54.52882812499999 -8.38671875 55.31640625 C-10.574556169556487 57.59959735854443 -12.075423874482311 57.588333707765315 -15.1875 57.75 C-16.088554687499993 57.80671875 -16.989609375 57.8634375 -17.91796875 57.921875 C-18.605039062499998 57.947656249999994 -19.292109374999995 57.9734375 -20 58 C-19.67 57.34 -19.340000000000003 56.68000000000001 -19 56 C-18.340000000000003 56 -17.680000000000007 56 -17 56 C-5.933409680496666 36.46575416322858 -5.933409680496666 36.46575416322858 -5 15 C-6.902642508445979 10.975179309056585 -8.141788646850841 9.42910567657458 -12.125 7.4375 C-18.562940185295005 6.71063578553121 -23.964228281075833 9.025020978902148 -29.75 11.6875 C-33.27404949435306 13.110673834257966 -35.254249276084856 13.637574591304706 -39 13 C-41.31498121365098 11.522014282360132 -43.01201590155955 9.940651143715677 -45 8 C-45 7.670000000000002 -45 7.340000000000003 -45 7 C-43.453125 6.659687500000004 -43.453125 6.659687500000004 -41.875 6.3125 C-38.7926282791021 5.456285633083915 -37.84740134557184 4.858301249459565 -35.375 2.5625 C-27.513338164189946 -4.542424332897866 -8.996544774029203 -5.8752945463047865 0 0 Z " fill="#4B6167" transform="translate(96,44)"/>
<path d="M0 0 C11 1 11 1 15 3 C16.01171875 4.953125 16.01171875 4.953125 16.6875 7.25 C16.9182421875 7.997656249999999 17.148984375 8.745312499999997 17.38671875 9.515625 C19.810592220033353 19.33462835631346 21.258523771498332 31.89513551931384 16 41 C15.5011328125 41.87914062499999 15.002265625 42.75828125000001 14.48828125 43.6640625 C10.106396141156221 50.65538480849233 10.106396141156221 50.65538480849233 5.1875 52.1875 C1.9999999999999925 52 1.9999999999999925 52 0 51 C0 34.17 0 17.340000000000003 0 0 Z " fill="#BBBE88" transform="translate(0,48)"/>
<path d="M0 0 C2.3984375 1.3828125 2.3984375 1.3828125 3.47265625 3.4921875 C4.159719555773531 6.450498294286028 4.820133003197505 9.40092993836214 5.3984375 12.3828125 C5.707812500000003 13.900683593750003 5.707812500000003 13.900683593750003 6.0234375 15.44921875 C7.915483543585683 26.36790112652571 7.593444637701673 37.339408286463836 7.3984375 48.3828125 C2.0036284520888863 50.364813440122305 -2.875493476060228 51.765650972424226 -8.6640625 52.0703125 C-9.7894140625 52.13605468750001 -10.914765625000001 52.201796875 -12.07421875 52.26953125 C-12.9082421875 52.3069140625 -13.742265625 52.344296875 -14.6015625 52.3828125 C-12.902831185918746 47.79541730883372 -10.540301146630014 43.909075046853005 -7.94140625 39.78515625 C-2.820921939859737 30.604112953392814 -5.3592970632649255 17.617911625625 -7.9453125 7.9921875 C-8.6015625 5.3828125 -8.6015625 5.3828125 -8.6015625 2.3828125 C-3.3473941051430955 -0.7941265294483628 -3.3473941051430955 -0.7941265294483628 0 0 Z " fill="#7C8A66" transform="translate(23.6015625,47.6171875)"/>
<path d="M0 0 C0.7792382812500023 0.2339648437500017 1.5584765624999974 0.4679296875000034 2.361328125 0.708984375 C4.263071873673347 1.2806742135582425 6.162982257161161 1.858456908538443 8.0625 2.4375 C7.857539062500003 3.0059765624999955 7.652578124999998 3.574453125000005 7.44140625 4.16015625 C5.771573309289693 8.945945395863504 4.59873063692428 13.396932012911748 4.0625 18.4375 C1.0207223046631313 17.74682111963682 -1.7833054911282744 16.756914319451553 -4.6875 15.625 C-10.156208541477199 13.590817308021954 -15.678225064835747 12.179016364044301 -21.3662109375 10.920654296875 C-26.94740417952773 9.629121354030957 -30.71034157953011 8.278237630704837 -33.9375 3.4375 C-33.9375 2.447500000000005 -33.9375 1.457499999999996 -33.9375 0.4375 C-31.086370446949616 -0.2654769162547552 -28.23278535560504 -0.9500904421291239 -25.375 -1.625 C-24.575136718750002 -1.8241601562500023 -23.775273437499997 -2.0233203125000045 -22.951171875 -2.228515625 C-14.641400749779354 -4.161809315357459 -7.995771869446415 -2.4460073328126555 0 0 Z " fill="#80919C" transform="translate(44.9375,99.5625)"/>
<path d="M0 0 C0 6.269999999999996 0 12.540000000000006 0 19 C-10.230000000000004 19 -20.460000000000008 19 -31 19 C-27.05511288180611 7.1653386454183305 -27.05511288180611 7.1653386454183305 -20 3 C-13.124432443867633 0.4066651231232328 -7.41418009975601 0 0 0 Z " fill="#CBC4D0" transform="translate(128,109)"/>
<path d="M0 0 C7.321108046930377 -0.8512916333639993 13.349693217633586 2.1998708284773016 20 5 C16.943719363441502 5.9781287251242645 15.147225528351434 6.008356827922654 12.109375 5.00390625 C11.400390625 4.775097656249997 10.69140625 4.546289062499994 9.9609375 4.310546875 C9.231328124999997 4.063691406250001 8.501718750000002 3.8168359375000023 7.75 3.5625 C7.004921875000001 3.319511718749993 6.259843750000002 3.0765234375000006 5.4921875 2.826171875 C3.6584176475450363 2.226670192466642 1.828779958532948 1.6145551256000203 0 1 C0 0.6700000000000017 0 0.3400000000000034 0 0 Z " fill="#57707B" transform="translate(34,96)"/>
</svg>
