<?xml version="1.0" encoding="UTF-8"?>
<!-- Generator: visioncortex VTracer 0.6.0 -->
<svg version="1.1" xmlns="http://www.w3.org/2000/svg" width="128" height="128">
<path d="M0 0 C42.24 0 84.48 0 128 0 C128 42.24 128 84.48 128 128 C85.75999999999999 128 43.519999999999996 128 0 128 C0 85.75999999999999 0 43.519999999999996 0 0 Z " fill="#85AEC2" transform="translate(0,0)"/>
<path d="M0 0 C20.129999999999995 0 40.260000000000005 0 61 0 C61 42.24 61 84.48 61 128 C39.879999999999995 128 18.75999999999999 128 -3 128 C-0.6808510638297918 117.56382978723404 -0.6808510638297918 117.56382978723404 4 113 C4.659999999999997 113 5.319999999999993 113 6 113 C6 112.34 6 111.68 6 111 C6.952617187499996 110.636484375 7.905234374999992 110.27296875 8.88671875 109.8984375 C18.49317522182642 106.40062077795994 18.49317522182642 106.40062077795994 25 99 C27.356673704098256 91.73889723602159 27.172845121105624 84.2097332991853 27.014892578125 76.662841796875 C26.906586797536562 71.18682640492688 26.906586797536562 71.18682640492688 28 69 C28.659999999999997 69 29.319999999999993 69 30 69 C31.120298137145852 63.5105391279853 30.792179694218675 60.16569441274797 29 55 C29.804374999999993 54.236875 30.60875 53.47375 31.4375 52.6875 C34.167990236989525 50.205691016247904 34.167990236989525 50.205691016247904 35 47 C34.34 47 33.68000000000001 47 33 47 C32.08211787211624 45.95275193462928 31.217731786578014 44.858620425124016 30.375 43.75 C26.725513246454952 39.43976406581311 22.56785459350624 36.16788283076439 18.0625 32.8125 C17.394604492187497 32.313955078125 16.726708984374994 31.81541015625 16.03857421875 31.3017578125 C12.03586054203646 28.36532881739696 7.944627246544258 25.648132113947064 3.70458984375 23.06640625 C-0.28733987968908536 20.569020252867094 -1.7406575041781878 19.002790983844342 -2.9375 14.375 C-3 10.000000000000002 -3 10.000000000000002 0 0 Z " fill="#75A091" transform="translate(67,0)"/>
<path d="M0 0 C12.870000000000001 0 25.740000000000002 0 39 0 C34.56794588480117 28.069676062925964 34.56794588480117 28.069676062925964 29.3125 38.4375 C25.337422940916202 46.35017250471548 25.027851357772118 53.29230910813175 26.515625 62.02734375 C27.696544223133483 69.27475930487564 27.911103729844598 75.58578988305486 24 82 C22.02806391957811 88.33931129209454 22.434982619087233 94.81874461714584 24.5 101.0625 C27.45820024199536 110.12022740763342 25.81327321404153 118.02084818730786 23 127 C22.67 127.33 22.34 127.66 22 128 C14.739999999999998 128 7.479999999999999 128 0 128 C0 85.75999999999999 0 43.519999999999996 0 0 Z " fill="#39675C" transform="translate(0,0)"/>
<path d="M0 0 C2 2.9999999999999964 2 2.9999999999999964 2 7 C3.319999999999993 7.66 4.640000000000001 8.32 6 9 C6 9.66 6 10.32 6 11 C6.689648437499997 11.2384765625 7.379296874999994 11.476953125000001 8.08984375 11.72265625 C11.551881759858588 13.242235349629212 14.510971085142444 15.237066221328682 17.5625 17.4375 C18.468630371093752 18.088154296875 18.468630371093752 18.088154296875 19.39306640625 18.751953125 C23.757279198741685 21.949562915997305 27.874029491918648 25.35949915395419 31.875 29 C32.39263916015625 29.468493652343753 32.9102783203125 29.9369873046875 33.443603515625 30.419677734375 C34.672640115089635 31.56819778762192 35.84275752235504 32.779172770836084 37 34 C37 34.66 37 35.32 37 36 C37.66 36 38.31999999999999 36 39 36 C38.44823576471404 39.86234964700174 37.06857667819381 41.6218530743998 34 44 C31.879038084704973 44.87748736204514 29.750650156886735 45.55565740007629 27.55078125 46.2109375 C24.005445060568803 47.30765711755758 20.59707980679667 48.72691017435946 17.1640625 50.1328125 C8.61902515011218 52.47478569959888 -0.5732195705041789 52.20593601787486 -9.375 52.25 C-10.428164062500002 52.270625 -11.481328125000005 52.29125 -12.56640625 52.3125 C-22.068339998807325 52.36067203421449 -22.068339998807325 52.36067203421449 -26 49 C-28.863974725789646 45.72688602766898 -29.892610200971667 43.11685390989469 -30.3125 38.75 C-29.739985565510445 31.879826786125335 -26.0458229085315 27.430478651393514 -21 23 C-18.3000089853248 21.20000599021654 -16.081138271031456 20.02704609034382 -13 19 C-11.896249452636937 16.841808017510363 -11.896249452636937 16.841808017510363 -11.0625 14.25 C-8.646539703254945 7.82574193820065 -5.494267303251831 4.12070047743887 0 0 Z " fill="#9CDAE7" transform="translate(63,11)"/>
<path d="M0 0 C0.6599999999999966 0.24750000000000227 1.3199999999999932 0.49499999999999744 2 0.75 C3.6288205151349757 4.869957773576687 4.30770013436063 7.470254105728834 3 11.75 C2.6700000000000017 12.409999999999997 2.3400000000000034 13.069999999999993 2 13.75 C1.3400000000000034 13.75 0.6800000000000068 13.75 0 13.75 C0.015710449218744316 14.364077148437502 0.03142089843750284 14.978154296875005 0.047607421875 15.61083984375 C0.11076193661560296 18.448795885891272 0.149241765079978 21.286603333076798 0.1875 24.125 C0.2126367187499909 25.090507812499993 0.23777343750001023 26.056015625 0.263671875 27.05078125 C0.3344465487632817 34.08106551048509 0.12790256088865704 42.04138379979973 -4.613525390625 47.6630859375 C-9.7421961414407 52.44056171970098 -15.292542230388278 54.88803940018188 -22.3125 55.125 C-35.06208136208769 54.65472855631643 -41.57052357454172 49.513027080804065 -50.18359375 40.453125 C-55 35.14247987927564 -55 35.14247987927564 -55 32.75 C-54.41097900390625 32.72083496093751 -53.8219580078125 32.69166992187499 -53.215087890625 32.66162109375 C-38.96178875720011 32.304706090233594 -38.96178875720011 32.304706090233594 -26.42578125 26.3828125 C-24.234950072368946 23.873860630822506 -23.042630658198476 21.90305780270174 -22.91796875 18.53125 C-23.0069140625 17.778437499999995 -23.095859375000003 17.025625000000005 -23.1875 16.25 C-23.263554687500005 15.497187499999995 -23.339609374999995 14.744375000000005 -23.41796875 13.96875 C-24.103403543065156 11.355817366033477 -25.27177257660351 9.799649774378594 -27 7.75 C-25.937812500000007 7.507656249999997 -24.875625 7.2653125 -23.78125 7.015625 C-14.76269561024995 5.032714145615358 -14.76269561024995 5.032714145615358 -6.3125 1.4375 C-3 -0.25 -3 -0.25 0 0 Z " fill="#9DBDC6" transform="translate(95,55.25)"/>
<path d="M0 0 C8.58 0 17.16 0 26 0 C24.94795656800987 12.62452118388154 23.714845349597795 22.143400811995186 17.8125 33.1875 C14.65331889383609 39.21396209666522 12.175609933373348 44.092627204390425 14 51 C15.4137877340943 54.61117042931418 16.969845047861345 58.13409347524225 18.56640625 61.66796875 C22.05685515206596 69.7806469883168 22.05685515206596 69.7806469883168 21 74 C18.722873810173134 77.17304469074236 16.1631697231473 79.71028937200185 13 82 C12.34 82 11.68 82 11 82 C11 82.66 11 83.32 11 84 C9.543745499610429 84.67119548989149 8.084921328495737 85.33681807159815 6.625 86 C5.812890625 86.37125 5.00078125 86.7425 4.1640625 87.125 C1.9999999999999982 88 1.9999999999999982 88 0 88 C0 58.959999999999994 0 29.919999999999995 0 0 Z " fill="#234746" transform="translate(0,0)"/>
<path d="M0 0 C0 23.760000000000005 0 47.52000000000001 0 72 C-8.909999999999997 72 -17.819999999999993 72 -27 72 C-25.170396737310057 64.07171919501022 -23.582994199512186 57.33587615677169 -20.76953125 49.94921875 C-18.74158092958743 42.177124882429 -20.656062664875023 35.01113359078366 -22.4375 27.375 C-22.895758195317583 25.36225812252667 -23.352825400772034 23.349244642676595 -23.80859375 21.3359375 C-24.019838867187502 20.407490234375004 -24.231083984375005 19.479042968750008 -24.44873046875 18.5224609375 C-25.06660172363422 15.695248446152007 -25.575015672139884 12.862538116391164 -26 10 C-24.8643359375 9.5810546875 -23.728671875000003 9.162109375 -22.55859375 8.73046875 C-17.230491030340247 6.732870617722895 -11.98959717503628 4.536021695536611 -6.740234375 2.341796875 C-1.1029450959488258 0 -1.1029450959488258 0 0 0 Z " fill="#4A807A" transform="translate(128,56)"/>
<path d="M0 0 C1.6713245726013888 1.432563919372626 3.341690090180599 2.8660677485495114 5.0078125 4.3046875 C6.236343869140825 5.350143606288469 7.478665190064646 6.379927079109606 8.7421875 7.3828125 C12.292180630618802 10.245710185982901 15.083881384434228 13.260363218653438 17.875 16.875 C25.833229396465583 27.02174248049363 32.81298539675676 31.97019292796034 45.625 33.6875 C46.73875000000001 33.790625000000006 47.85249999999999 33.89375 49 34 C48.010000000000005 34.495000000000005 48.010000000000005 34.495000000000005 47 35 C47 35.66 47 36.31999999999999 47 37 C46.25749999999999 37.66 45.515 38.31999999999999 44.75 39 C41.03894559504113 42.69346111614003 41.03894559504113 42.69346111614003 38 52 C24.14 52 10.280000000000001 52 -4 52 C-2.0000000000000036 42.000000000000014 -2.0000000000000036 42.000000000000014 -1 39 C-0.47346446532773 34.04854083740884 -0.9222958013168778 29.780728594175002 -2.5 25.0625 C-5.243110686045711 16.624169032449856 -4.560847318108934 9.099543899740013 -1 1 C-0.6700000000000017 0.6700000000000017 -0.33999999999999986 0.3400000000000034 0 0 Z " fill="#88A29B" transform="translate(26,76)"/>
<path d="M0 0 C8.579999999999998 0 17.159999999999997 0 26 0 C29 6.000000000000002 29 6.000000000000002 30 9 C30.5775 9.265546875 31.155 9.53109375 31.75 9.8046875 C34.995292577139196 11.5287491816052 36.84287070032255 14.237164509786771 39 17.125 C39.4413427734375 17.7110400390625 39.882685546874995 18.297080078125 40.33740234375 18.90087890625 C44.9926430618593 25.18935491540546 49.06703117226348 30.768616671110323 48 39 C46.58711916466234 43.32175314338581 45.60300060754699 44.65383298455636 41.625 46.9375 C37.92603472415183 48.02167947740377 36.57518498714438 48.129005785414016 33 47 C31.542968750000014 45.57421875000002 31.542968750000014 45.57421875000002 30.1875 43.6875 C26.63053883705662 39.347067215262925 22.538822181284303 36.14054599364764 18.0625 32.8125 C17.39436279296875 32.31387451171875 16.7262255859375 31.8152490234375 16.037841796875 31.301513671875 C12.035598415215375 28.36484380545914 7.944414994977734 25.648002875615685 3.70458984375 23.06640625 C-0.28733987968908536 20.569020252867094 -1.7406575041781878 19.002790983844342 -2.9375 14.375 C-3 10.000000000000002 -3 10.000000000000002 0 0 Z " fill="#3190C7" transform="translate(67,0)"/>
<path d="M0 0 C11.549999999999997 0 23.099999999999994 0 35 0 C35 16.5 35 33 35 50 C26 48.87499999999999 26 48.87499999999999 23 45.9375 C22.4225 45.3896484375 21.845 44.841796875 21.25 44.27734375 C20.837500000000006 43.8558203125 20.424999999999997 43.434296875 20 43 C20.1585546875 42.40703125 20.317109375 41.8140625 20.48046875 41.203125 C21.763429382309397 35.76260021336463 21.291207625882436 31.379553558273518 18.6015625 26.4453125 C14.16876366352409 19.67718549601483 9.1199162655128 12.927382863433472 3.21484375 7.38671875 C1 5 1 5 0 0 Z " fill="#457388" transform="translate(93,0)"/>
<path d="M0 0 C4.289999999999999 0 8.579999999999998 0 13 0 C8.979872096836296 27.257037414358162 8.979872096836296 27.257037414358162 3.3125 38.4375 C-0.6588749963589358 46.342803286585024 -0.9785976980788078 53.284099808948774 0.515625 62.01171875 C0.9936896677420606 64.96106932115062 1.2005141906750438 67.76435617072751 1.25 70.75 C1.2886718749999986 72.165390625 1.2886718749999986 72.165390625 1.328125 73.609375 C1.2198437500000026 74.39828125 1.111562499999998 75.1871875 1 76 C-0.48499999999999943 76.99 -0.48499999999999943 76.99 -2 78 C-2 77.34 -2 76.68 -2 76 C-2.990000000000002 75.67 -3.9800000000000004 75.34 -5 75 C-5.7734375 72.4453125 -5.7734375 72.4453125 -6.375 69.125 C-7.524264094859159 63.50159547167844 -9.23339400151443 58.933322315854525 -12.01171875 53.92578125 C-14.00598967721135 48.02179340620039 -13.923171003121443 42.27177016534623 -11.171875 36.640625 C-10.37596749380996 35.17086131602586 -9.568186273865948 33.70747907923107 -8.75 32.25 C-3.3518706491092054 21.901915741298815 -1.5468864419731894 11.477248356178698 0 0 Z " fill="#5B6B6F" transform="translate(26,0)"/>
<path d="M0 0 C2 3 2 3 2 7 C3.319999999999993 7.66 4.640000000000001 8.32 6 9 C6 9.66 6 10.32 6 11 C6.689648437499997 11.2384765625 7.379296874999994 11.476953125000001 8.08984375 11.72265625 C11.551881759858603 13.242235349629212 14.510971085142444 15.237066221328682 17.5625 17.4375 C18.468630371093752 18.088154296875 18.468630371093752 18.088154296875 19.39306640625 18.751953125 C23.757279198741685 21.949562915997298 27.874029491918648 25.35949915395419 31.875 29 C32.39263916015625 29.468493652343753 32.9102783203125 29.9369873046875 33.443603515625 30.419677734375 C34.672640115089635 31.56819778762192 35.84275752235504 32.779172770836084 37 34 C37 34.66 37 35.32 37 36 C37.66 36 38.31999999999999 36 39 36 C38.616794427094476 38.68243901033869 37.92847619363653 40.0980141050166 36.3125 42.3125 C34 44 34 44 31.19140625 43.828125 C27.64183013487046 42.90705996155757 25.574805957066445 41.597028429886755 22.625 39.4375 C17.88320548529967 36.14475076556835 13.123380342545943 33.4056850731336 7.9375 30.875 C6.922484130859374 30.37637451171875 6.922484130859374 30.37637451171875 5.886962890625 29.86767578125 C2.78570792876738 28.349474089539214 -0.3217246489188952 26.84426768133197 -3.4296875 25.33984375 C-4.422265625000001 24.835820312500005 -5.414843750000003 24.331796874999995 -6.4375 23.8125 C-7.302460937500001 23.3858203125 -8.167421875000002 22.959140625000003 -9.05859375 22.51953125 C-11 21 -11 21 -11.88671875 18.57421875 C-12.124714473503523 13.165971102109541 -8.95449619318559 9.047617773008572 -5.4375 5.1875 C-4.230937499999996 4.104687500000001 -4.230937499999996 4.104687500000001 -3 3 C-2.401875000000004 2.4018750000000004 -1.8037500000000009 1.8037500000000009 -1.1875 1.1875 C-0.7956250000000011 0.7956249999999994 -0.4037500000000023 0.4037500000000005 0 0 Z " fill="#58BFEA" transform="translate(63,11)"/>
<path d="M0 0 C9.240000000000002 0 18.480000000000004 0 28 0 C26.874769117103796 9.001847063169567 26.874769117103796 9.001847063169567 24.25 11.6875 C23.439824218749997 12.551816406250001 23.439824218749997 12.551816406250001 22.61328125 13.43359375 C21.260394383441373 14.747171555060554 19.854475895477833 16.00582604299507 18.4375 17.25 C15.912555849721855 20.098654938775347 15.250059690095206 21.971529629467117 14 25.5 C12.44991767786533 29.18083040303724 11.629143433243584 30.660648935873954 8.07421875 32.578125 C5.80681229580555 33.362694707333716 3.527587621756055 34.113868322506875 1.23828125 34.83203125 C-4.881921245448829 37.039438422664894 -8.770017542721895 40.88596765155326 -12 46.4375 C-12.495000000000001 47.7059375 -12.495000000000001 47.7059375 -13 49 C-14 46 -14 46 -12.5234375 42.68359375 C-12.18449462890625 42.01392578125 -11.845551757812501 41.3442578125 -11.496337890625 40.654296875 C-5.624457420843534 29.04605070351824 -3.475221738864761 17.092723999334435 -1.445556640625 4.328125 C-1 1.9999999999999987 -1 1.9999999999999987 0 0 Z " fill="#6D9EAD" transform="translate(39,0)"/>
<path d="M0 0 C8.58 0 17.16 0 26 0 C23.95806451612903 24.503225806451617 23.95806451612903 24.503225806451617 19 31 C12.189260148655556 34.64861063464881 8.311442108242476 34 0 34 C0 22.78 0 11.559999999999999 0 0 Z " fill="#20201B" transform="translate(0,0)"/>
<path d="M0 0 C2.67371978018933 0.40244571085894165 5.299053002305101 0.9739016666870697 7.9453125 1.52734375 C11.637773380884312 2.1783970898642906 11.637773380884312 2.1783970898642906 18 2 C18 10.579999999999998 18 19.159999999999997 18 28 C9.090000000000003 28 0.18000000000000682 28 -9 28 C-5.610340479192942 13.311475409836078 -5.610340479192942 13.311475409836078 -3.375 7.25 C-2.7369140625000057 5.494296875000003 -2.7369140625000057 5.494296875000003 -2.0859375 3.703125 C-1 1 -1 1 0 0 Z " fill="#408064" transform="translate(110,100)"/>
<path d="M0 0 C0.9899999999999949 0.7837499999999977 1.980000000000004 1.5675000000000026 3 2.375 C6.877450878213693 5.174059631921125 10.333236027621567 6.099396426383109 15 7 C15 8.980000000000004 15 10.96 15 13 C-6.104073984791043 23.270649339264963 -6.104073984791043 23.270649339264963 -12.13671875 22.8515625 C-14 22 -14 22 -15.2578125 19.9609375 C-17.49591433096677 13.286958166216202 -17.49591433096677 13.286958166216202 -16.19921875 9.921875 C-12.721687821528391 5.415778585642428 -8.359127527225056 3.5434967582388097 -3.07421875 1.7265625 C-1.0365619700029498 1.1810915969766498 -1.0365619700029498 1.1810915969766498 0 0 Z " fill="#5D8F9F" transform="translate(113,43)"/>
</svg>
