<?xml version="1.0" encoding="UTF-8"?>
<!-- Generator: visioncortex VTracer 0.6.0 -->
<svg version="1.1" xmlns="http://www.w3.org/2000/svg" width="128" height="128">
<path d="M0 0 C42.24 0 84.48 0 128 0 C128 42.24 128 84.48 128 128 C85.75999999999999 128 43.519999999999996 128 0 128 C0 85.75999999999999 0 43.519999999999996 0 0 Z " fill="#B7BE98" transform="translate(0,0)"/>
<path d="M0 0 C42.24 0 84.48 0 128 0 C128 14.520000000000001 128 29.040000000000003 128 44 C121.3156146179402 42.8859357696567 121.3156146179402 42.8859357696567 118.375 40.375 C115.01210786755642 37.70408759480924 111.5588139142153 35.398700183656466 107.875 33.1875 C106.903046875 32.6035546875 105.93109375 32.019609375 104.9296875 31.41796875 C101.86880180470763 29.93650007347849 99.37892548692321 29.291946819691667 96 29 C95.34 29.33 94.68 29.66 94 30 C85.1920526455527 30.61810156873314 78.8081733517827 28.616743015220727 72 23 C67.74119959604799 20.524323503497058 64.56785871221034 18.680621373438637 59.625 19.6875 C58.325625 20.3371875 58.325625 20.3371875 57 21 C56.01 21.33 55.02 21.66 54 22 C53.326879203152544 23.33008669457057 52.66060842565145 24.66365471146843 52 26 C47.30279192134579 28.95750138285635 43.61862046979379 30.154115072563375 38.125 30.8125 C30.65339412664953 31.89876381218117 25.195514133562675 35.24490274627428 20.3046875 40.9921875 C15.582451641491492 47.927128160781066 15.823159416667595 54.84344365641457 16.8125 62.875 C16.9086962890625 63.69782470703125 17.004892578125 64.5206494140625 17.10400390625 65.368408203125 C17.303345326144818 67.07194539458294 17.505506910493143 68.77515488385983 17.71044921875 70.47802734375 C17.98807997274348 72.89617716563252 18.222420538276026 75.3141957960903 18.44140625 77.73828125 C19.462573548291093 88.61036392409574 20.87527408746368 96.07522702716331 29.5703125 103.27734375 C33.337216055132394 105.94809048281896 37.36622471205521 108.1014583948641 41.4609375 110.2265625 C44 112 44 112 46 117 C46 120.63 46 124.26 46 128 C30.82 128 15.639999999999997 128 0 128 C0 85.75999999999999 0 43.519999999999996 0 0 Z " fill="#93907C" transform="translate(0,0)"/>
<path d="M0 0 C1.4849999999999994 0.24749999999999872 1.4849999999999994 0.24749999999999872 3 0.5 C7.718987876533234 1.1686824926261679 12.70165901720867 1.7000023297841587 17.30859375 0.296875 C21.102387341139234 -0.12159860366702802 23.684403778008473 1.3881477652230387 26.9375 3.125 C27.532402343749993 3.4214843749999986 28.1273046875 3.7179687500000007 28.740234375 4.0234375 C32.99257874950402 6.21699656531792 36.39268665528229 8.863655829413297 40 12 C43.195173916361554 14.130115944241041 45.21000906310648 15.052502265776617 49 16 C49 43.72 49 71.44 49 100 C21.939999999999998 100 -5.1200000000000045 100 -33 100 C-33 97.36 -33 94.72 -33 92 C-12.797052714865032 80.85866877657996 -12.797052714865032 80.85866877657996 -6.98828125 80.90234375 C-5.852294921875 80.90717773437501 -5.852294921875 80.90717773437501 -4.693359375 80.912109375 C-3.5148339843750023 80.924677734375 -3.5148339843750023 80.924677734375 -2.3125 80.9375 C-1.5152148437500017 80.94201171875 -0.7179296875000034 80.9465234375 0.103515625 80.951171875 C2.0690425674735593 80.96294149741001 4.0345308504137165 80.98087651638241 6 81 C6.158554687500001 80.2407421875 6.317109375000001 79.481484375 6.48046875 78.69921875 C8.387327392028197 70.57663304279697 8.387327392028197 70.57663304279697 11.125 68 C12.789515255534312 67.42103817198806 14.461277913300336 66.8607779388948 16.1484375 66.3515625 C21.364308121787218 64.74001443413219 24.391109243298644 63.330668908041616 28 59 C28.70125 58.175 29.402500000000003 57.349999999999994 30.125 56.5 C33.49546336338692 52.00604884881744 35.444495189525696 48.66154159344893 36 43 C35.42422400540673 40.244407886722016 35.42422400540673 40.244407886722016 34.3046875 37.55859375 C33.91796875 36.56279296875 33.53125 35.5669921875 33.1328125 34.541015625 C32.717734375000006 33.51685546875 32.30265625 32.4926953125 31.875 31.4375 C31.2871875 29.895458984374997 31.2871875 29.895458984374997 30.6875 28.322265625 C27.155956852174384 19.41839131602137 22.439186544952747 14.41704391087648 14 10 C12.25741758275484 9.334412129352977 10.507105418256472 8.688743757316743 8.75 8.0625 C3.998218511531306 6.2860647666186225 2.2509352963167686 4.50187059263353 0 0 Z " fill="#BBAE82" transform="translate(79,28)"/>
<path d="M0 0 C8.898061764688748 11.878172712007299 9.713552130687887 33.797123823567105 12 48 C12.659999999999997 48 13.319999999999993 48 14 48 C14.495000000000005 50.97 14.495000000000005 50.97 15 54 C14.386406249999993 54.213984374999995 13.7728125 54.42796874999999 13.140625 54.6484375 C10.193158109666399 56.50942936871428 9.81543217619415 58.35260117311795 8.75 61.625 C8.414843750000003 62.627890625000006 8.079687500000006 63.63078125 7.734375 64.6640625 C7.492031249999997 65.434921875 7.249687499999993 66.20578125 7 67 C5.888828125000003 67.02578125 4.777656250000007 67.0515625 3.6328125 67.078125 C-8.562004986745478 67.48836919763016 -17.08388110146838 69.49162970053217 -27.08984375 76.828125 C-29 78 -29 78 -32 78 C-34.1215463794276 72.82873070014523 -34.28138296723072 68.47817464327309 -34 63 C-33.95875 62.1453515625 -33.9175 61.29070312499999 -33.875 60.41015625 C-33.40999649734832 53.96792022367978 -31.971968104477206 49.588208137126344 -28 44.375 C-22.819989232585044 35.633731829987255 -22.467864759225023 25.314094526338437 -21.82177734375 15.386474609375 C-21.379211825922447 9.474436234127786 -20.32696517338767 5.102620231183565 -16.6875 0.25 C-11.171628655085655 -3.835830625862478 -5.7503137230986 -3.40637631977841 0 0 Z " fill="#DDE2AA" transform="translate(78,42)"/>
<path d="M0 0 C1.6399678253788004 3.2799356507576007 1.5888785819842752 6.951475109336101 1.9375 10.5625 C2.115540516896438 12.28909809962505 2.293933352065995 14.01565990130959 2.47265625 15.7421875 C2.812007643787556 19.079245148131506 3.130104369054056 22.417326611805137 3.43359375 25.7578125 C4.474382229364874 36.621852606801866 5.87849940531725 44.077898564026924 14.5703125 51.27734375 C18.337216055132394 53.94809048281894 22.36622471205522 56.101458394864096 26.4609375 58.2265625 C29 60 29 60 31 65 C31 68.63 31 72.26 31 76 C15.82 76 0.639999999999997 76 -15 76 C-15 52.900000000000006 -15 29.799999999999997 -15 6 C-12.03 5.009999999999998 -9.059999999999999 4.019999999999996 -6 3 C-1.666666666666666 0 -1.666666666666666 0 0 0 Z " fill="#9B977F" transform="translate(15,52)"/>
<path d="M0 0 C9.35712761092445 2.2696011652029497 18.469940273475515 5.726344750238567 24 14 C25.809495333619807 17.722369151157878 27.35341636405495 21.52742864031729 28.875 25.375 C29.30296874999999 26.390781250000003 29.73093750000001 27.4065625 30.171875 28.453125 C33.50550658168267 36.84167505848254 33.50550658168267 36.84167505848254 32.40234375 40.96875 C29.497107685058126 47.24859174483257 26.197202574703567 52.33584384321475 21 57 C20.381249999999994 57.5775 19.762500000000003 58.155 19.125 58.75 C16.179618027343068 60.482577630974674 13.365220512793684 60.67642110453906 10 61 C9.504999999999995 58.525000000000006 9.504999999999995 58.525000000000006 9 56 C8.340000000000003 56 7.680000000000007 56 7 56 C6.510625705425852 54.6703792751193 6.03416419191467 53.33600574934681 5.5625 52 C5.295664062499995 51.25749999999999 5.028828125000004 50.515 4.75390625 49.75 C3.976598410505204 46.91463876163559 3.613784814137773 44.13431484207436 3.283935546875 41.21728515625 C2.76572100659925 37.1704885485249 1.9315299421478613 33.18501677765332 1.125 29.1875 C0.9522656249999955 28.306748046875 0.7795312500000051 27.42599609375 0.6015625 26.5185546875 C-0.34310793964657194 21.810831228158378 -1.4775752676302716 17.310877454536204 -3 12.75 C-4.152609132380448 8.889674175678195 -3.966908175352387 6.940480626071832 -2.1875 3.3125 C-1.4656250000000028 2.2193749999999994 -0.7437500000000057 1.1262499999999989 0 0 Z " fill="#B8C9AC" transform="translate(83,34)"/>
<path d="M0 0 C0 10.560000000000002 0 21.120000000000005 0 32 C-15.180000000000007 32 -30.36 32 -46 32 C-45.08966270191323 24.717301615305814 -44.119024581821805 21.23804916364361 -41 15 C-38.5221356401441 14.788989653053633 -36.10695978642751 14.679823534022802 -33.625 14.625 C-24.346214880875394 14.232340379617213 -16.68543607995919 12.814002158419939 -10 6 C-9.340000000000003 6 -8.680000000000007 6 -8 6 C-7.773124999999993 5.381249999999994 -7.546250000000001 4.762500000000003 -7.3125 4.125 C-5.666645871703452 1.4602837922817855 -3.254915112534391 0 0 0 Z " fill="#A57E53" transform="translate(128,96)"/>
<path d="M0 0 C12.870000000000001 0 25.740000000000002 0 39 0 C37.80626850148818 7.16238899107092 35.89954154536114 11.63063940234396 31 17 C27.770403601094593 19.277468677970383 24.326650631307054 21.10819374672197 20.775146484375 22.831298828125 C15.897686324590978 25.232248653386765 13.3374791059674 27.71506803427995 10 32 C9.34 32 8.68 32 8 32 C7.731875 32.61875 7.46375 33.2375 7.1875 33.875 C6 36 6 36 3 38 C2.01 38 1.02 38 0 38 C0 25.46 0 12.919999999999998 0 0 Z " fill="#755541" transform="translate(0,0)"/>
<path d="M0 0 C1.4849999999999994 0.24749999999999872 1.4849999999999994 0.24749999999999872 3 0.5 C7.718987876533248 1.1686824926261679 12.701659017208684 1.7000023297841587 17.30859375 0.296875 C21.102387341139234 -0.12159860366702802 23.684403778008473 1.3881477652230423 26.9375 3.125 C27.532402343749993 3.4214843749999986 28.1273046875 3.7179687500000007 28.740234375 4.0234375 C32.99257874950402 6.216996565317913 36.39268665528229 8.863655829413304 40 12 C43.19517391636154 14.130115944241027 45.21000906310647 15.052502265776617 49 16 C49 25.57 49 35.14 49 45 C40 45 40 45 36 43 C34.799072265625 40.740966796875014 34.799072265625 40.740966796875014 33.81640625 37.94921875 C33.260498046875 36.436181640624994 33.260498046875 36.436181640624994 32.693359375 34.892578125 C32.13358398437501 33.306064453125 32.13358398437501 33.306064453125 31.5625 31.6875 C27.873253869661625 21.2378552015023 23.94750445793545 15.20649280120712 14 10 C12.25741758275484 9.334412129352977 10.507105418256472 8.688743757316743 8.75 8.0625 C3.998218511531306 6.28606476661863 2.2509352963167686 4.50187059263353 0 0 Z " fill="#A89E82" transform="translate(79,28)"/>
<path d="M0 0 C5.5758582502768546 1.1151716500553732 5.5758582502768546 1.1151716500553732 8.1875 4.0625 C15.169801726294274 11.388683824163152 22.722343729375503 16.705822545108305 31.734375 21.210693359375 C35.53003063349653 23.1210596791409 38.86735074528141 25.11199573469753 42 28 C42 28.659999999999997 42 29.319999999999993 42 30 C42.66 30 43.32 30 44 30 C44.495 31.980000000000004 44.495 31.980000000000004 45 34 C30.15 34 15.299999999999997 34 0 34 C0 22.78 0 11.560000000000002 0 0 Z " fill="#7D6A55" transform="translate(0,94)"/>
<path d="M0 0 C12.870000000000005 0 25.74000000000001 0 39 0 C39 10.56 39 21.12 39 32 C32.24944699131214 30.87490783188536 32.24944699131214 30.87490783188536 28.57421875 28.0859375 C27.77693359375 27.4891015625 26.979648437500003 26.892265625 26.158203125 26.27734375 C25.342871093750006 25.6495703125 24.527539062499997 25.021796875 23.6875 24.375 C22.883769531249996 23.7704296875 22.080039062499992 23.165859375 21.251953125 22.54296875 C18.823000502458626 20.710018178846493 16.409892450002218 18.85791950750525 14 17 C13.167426757812507 16.3630419921875 12.334853515625 15.726083984375 11.47705078125 15.06982421875 C10.676381835937505 14.4538134765625 9.875712890624996 13.837802734375 9.05078125 13.203125 C8.331887207031258 12.650439453125 7.612993164062502 12.09775390625 6.872314453125 11.5283203125 C2.463560926680344 7.929572486767375 1.1236415560808837 5.618207780404388 0 0 Z " fill="#6A2B11" transform="translate(89,0)"/>
<path d="M0 0 C4.950000000000003 0 9.900000000000006 0 15 0 C15.495000000000005 1.1756250000000001 15.989999999999995 2.3512500000000003 16.5 3.5625 C21.902948205558914 14.128675159676645 34.48566501659903 20.450830690732786 44 27 C44.8502978515625 27.60255615234375 44.8502978515625 27.60255615234375 45.7177734375 28.21728515625 C48.59785781287482 30.223219628615578 50.50844259571947 31.127110648929868 54 32 C54 35.96 54 39.92 54 44 C48.799864446391666 43.73999322231958 46.23319983191601 41.85375826318507 42.328125 38.74609375 C36.34087746028541 34.255658095214066 29.638041028279872 30.731346267967613 22.875 27.5625 C13.869467689982457 23.153994650168542 4.967172456033879 16.33103292826881 1.1875 6.8125 C0 2.999999999999999 0 2.999999999999999 0 0 Z " fill="#806048" transform="translate(74,0)"/>
<path d="M0 0 C-0.3089393216381495 1.6256807022123922 -0.6222694961575286 3.25052747654901 -0.9375 4.875 C-1.1115234374999972 5.779921874999999 -1.2855468749999943 6.684843749999999 -1.46484375 7.6171875 C-2 10 -2 10 -3 12 C-4.111171874999997 12.025781249999994 -5.222343749999993 12.051562500000003 -6.3671875 12.078125 C-18.562004986745478 12.488369197630163 -27.083881101468386 14.491629700532172 -37.08984375 21.828125 C-39 23 -39 23 -42 23 C-44.46043248656661 17.00269581399388 -44.62202401459485 11.498885082096024 -43.5 5.1875 C-34.83857102020664 -7.443750595531981 -12.1577502710293 -3.8035419842326377 0 0 Z " fill="#E6CE95" transform="translate(88,97)"/>
<path d="M0 0 C1.0050880124937613 1.788817355569254 2.003927359307312 3.5811469572710415 3 5.375 C3.556874999999998 6.372734375 4.113750000000003 7.370468750000001 4.6875 8.3984375 C6 10.999999999999993 6 10.999999999999993 6 13 C5.009999999999998 13.37125 4.020000000000003 13.7425 3 14.125 C-4.26162872155237 17.33772058589893 -8.618960036816404 20.598241548481226 -11.875 28 C-14.441729546717282 33.65383713852245 -17.144433949975294 36.14575515733239 -22.53515625 39.109375 C-25 40 -25 40 -30 40 C-30 33.4 -30 26.799999999999997 -30 20 C-27.69 18.68 -25.38 17.36 -23 16 C-22.67 15.340000000000003 -22.34 14.68 -22 14 C-21.34 14 -20.68 14 -20 14 C-19.744765625 13.401875 -19.48953125 12.80375 -19.2265625 12.1875 C-16.157083923897037 6.713270692300451 -6.3301166720429265 0 0 0 Z " fill="#A18866" transform="translate(30,18)"/>
<path d="M0 0 C0.7805273437499949 -0.0038671875000062528 1.5610546874999898 -0.007734374999998295 2.365234375 -0.01171875 C8.184145021645023 -0.0016774891774957723 8.184145021645023 -0.0016774891774957723 10.4375 1.125 C9.830202033822076 5.01170698353873 8.618884257284378 8.435167041934747 7.15625 12.0625 C6.2292307498690604 14.5705480056657 6.2292307498690604 14.5705480056657 5.4375 19.125 C-6.4424999999999955 19.125 -18.322500000000005 19.125 -30.5625 19.125 C-30.5625 16.485 -30.5625 13.844999999999999 -30.5625 11.125 C-10.296201790746892 -0.051267394808704125 -10.296201790746892 -0.051267394808704125 0 0 Z " fill="#E2AC6F" transform="translate(76.5625,108.875)"/>
</svg>
