<?xml version="1.0" encoding="UTF-8"?>
<!-- Generator: visioncortex VTracer 0.6.0 -->
<svg version="1.1" xmlns="http://www.w3.org/2000/svg" width="128" height="128">
<path d="M0 0 C42.24 0 84.48 0 128 0 C128 42.24 128 84.48 128 128 C85.75999999999999 128 43.519999999999996 128 0 128 C0 85.75999999999999 0 43.519999999999996 0 0 Z " fill="#7DAAA7" transform="translate(0,0)"/>
<path d="M0 0 C6.570400084056786 0.43011648405789416 10.895323158375803 2.264936805311411 16.625 5.375 C25.710733906433006 10.03451428922688 34.278068352100206 11.516736381824032 44.3671875 12.46484375 C47.89095822039528 12.799343586517907 50.794874585446806 13.39743729272341 54 15 C54.582089618473546 22.89054816153032 53.80677013665482 28.514585605000022 48.59765625 34.65234375 C45.121214186885354 37.99278807959427 41.53867689028873 39.69895966934561 37.0625 41.4375 C27.562010388234555 45.25191104113276 23.09892236519663 49.8596748320203 18.875 59.0625 C18.554909667968744 59.74739501953124 18.2348193359375 60.43229003906251 17.905029296875 61.137939453125 C16.519922629371564 64.43189251856599 15.92873590027429 66.60658312069233 16.5703125 70.1484375 C18.12529982466954 73.2499149508436 19.867532992120545 75.82456468095477 22 78.5625 C22.794062499999995 79.601484375 23.588125000000005 80.64046875 24.40625 81.7109375 C26.15976210924694 83.95796106944144 27.95700240639755 86.16170103812667 29.78125 88.3515625 C30.235 88.90900146484375 30.68875 89.4664404296875 31.15625 90.040771484375 C32.43323594100323 91.60568248947436 33.73169981309363 93.15299468502344 35.03125 94.69921875 C37 98 37 98 38 107 C5.990000000000009 107 -26.019999999999996 107 -59 107 C-59 95.45 -59 83.9 -59 72 C-53.555 71.01 -53.555 71.01 -48 70 C-46.07422978339409 69.51390582696783 -44.15418857389324 69.00225158014536 -42.25 68.4375 C-38.164421078061196 67.28338166046926 -34.219694144542544 66.52746176806782 -30 66 C-26.32827355182861 65.3605700879375 -22.663954933045247 64.68243645226701 -19 64 C-19.106992187499998 63.154375 -19.213984375000003 62.30875 -19.32421875 61.4375 C-20.66586756541333 48.74232841329325 -17.186164892577878 42.33880497448301 -10 32 C-9.332265624999998 31.2252734375 -8.664531250000003 30.450546875 -7.9765625 29.65234375 C-5.531947999637872 26.3719223157196 -4.226394981768792 23.062007769028575 -2.8125 19.25 C-0.09882397572080492 12.098823975720805 -0.09882397572080492 12.098823975720805 1 11 C0.9101569886740108 9.142278378710962 0.7538813946947158 7.287520148715572 0.5625 5.4375 C0.4097460937500017 3.9196289062500007 0.4097460937500017 3.9196289062500007 0.25390625 2.37109375 C0.17011718749999716 1.5886328124999984 0.08632812500000142 0.8061718750000004 0 0 Z " fill="#C1D49D" transform="translate(59,21)"/>
<path d="M0 0 C6.570400084056786 0.43011648405789416 10.895323158375803 2.264936805311411 16.625 5.375 C25.710733906433035 10.034514289226891 34.27806835210018 11.516736381824032 44.3671875 12.46484375 C47.89095822039526 12.7993435865179 50.794874585446806 13.397437292723403 54 15 C54.582089618473546 22.890548161530305 53.80677013665482 28.514585605000036 48.59765625 34.65234375 C45.12121418688537 37.99278807959426 41.53867689028874 39.69895966934561 37.0625 41.4375 C28.435392739086055 44.90125129428216 23.869651709366508 48.55666671014444 20.155517578125 57.106201171875 C19.55942677924375 58.55857985871508 18.98435812146505 60.01979430603052 18.432373046875 61.489501953125 C16.446098486119666 66.66067559372236 16.446098486119666 66.66067559372236 14.07421875 68.46484375 C5.076050890401149 70.78640494918088 -6.56109283169036 68.78721419050902 -15.1875 65.75 C-18 64 -18 64 -19.4375 61.25 C-21.490272757285297 49.389535180129386 -16.571044001809952 41.45382459615239 -10 32 C-9.332265624999998 31.2252734375 -8.664531249999996 30.450546875 -7.9765625 29.65234375 C-5.531947999637865 26.371922315719587 -4.226394981768792 23.062007769028583 -2.8125 19.25 C-0.09882397572079071 12.09882397572079 -0.09882397572079071 12.09882397572079 1 11 C0.9101569886740108 9.142278378710962 0.7538813946947158 7.287520148715572 0.5625 5.4375 C0.46066406250000114 4.425585937499999 0.3588281250000023 3.4136718749999986 0.25390625 2.37109375 C0.12822265625000284 1.1974023437499994 0.12822265625000284 1.1974023437499994 0 0 Z " fill="#A5CAA9" transform="translate(59,21)"/>
<path d="M0 0 C7.999702971912271 1.6630565977926608 15.368891969242867 2.300633788158237 22.53515625 -2.109375 C23.52515625000001 -2.109375 24.51515624999999 -2.109375 25.53515625 -2.109375 C25.53515625 18.680625000000006 25.53515625 39.47062500000001 25.53515625 60.890625 C15.305156249999996 60.890625 5.075156249999992 60.890625 -5.46484375 60.890625 C-5.794843749999998 59.240624999999994 -6.124843749999997 57.590625 -6.46484375 55.890625 C-8.556785353996517 49.93663735785607 -11.695782236762398 45.838217290226396 -15.77734375 41.078125 C-28.634150739397242 25.53089886168135 -28.634150739397242 25.53089886168135 -28.3203125 20.63671875 C-27.59923663563484 18.21204844584814 -26.624670796166228 16.137550663694967 -25.46484375 13.890625 C-25.1051953125 13.041132812499995 -24.745546875000002 12.191640625000005 -24.375 11.31640625 C-23.22132431211122 8.717722629806076 -21.934959163369513 6.323072229920598 -20.46484375 3.890625 C-20.0536328125 3.2074218749999943 -19.642421874999997 2.524218750000003 -19.21875 1.8203125 C-14.09999087120552 -4.366588777621509 -6.8666191703682955 -1.432745822998001 0 0 Z " fill="#909F70" transform="translate(102.46484375,67.109375)"/>
<path d="M0 0 C6.2700000000000005 0 12.540000000000001 0 19 0 C20.37500000000009 8.125000000000528 20.37500000000009 8.125000000000528 20.79443359375 10.64892578125 C21.37235776652863 13.989726068305504 22.022634569526144 17.066871254529875 23.11328125 20.2890625 C23.984472525152963 22.95252833681126 24.08978633069719 24.508527598390053 23.8125 27.25 C23.686559116982444 31.20719511376215 24.571351622692006 33.49618622872495 26.5 36.9375 C29.302198341508728 42.19564803737126 30.300031159353193 46.11022468658889 29 52 C27.674955580614217 55.466834538048616 26.083173227826695 58.80977898078182 24.517578125 62.1728515625 C22.22520220806854 67.19367906455258 20.463376508765897 71.46196768595495 22 77 C23.199756110900694 79.7462855827594 24.505259485469374 82.33837618215428 26.00390625 84.93359375 C26.3326171875 85.6155078125 26.661328125 86.297421875 27 87 C26.67 87.66 26.34 88.32 26 89 C24.12896915143158 89.2381311989087 22.256290710981276 89.4670801459875 20.37890625 89.6484375 C17.00484660582935 90.14706700406462 13.896644218435165 91.2459482404511 10.6875 92.37890625 C8.00000000000001 93 8.00000000000001 93 0 93 C0 62.31 0 31.619999999999997 0 0 Z " fill="#867E52" transform="translate(0,0)"/>
<path d="M0 0 C2.096273210851564 5.502717178485359 2.899633030246534 9.600978586009248 0.79296875 15.21875 C0.2631640625000031 16.301562500000003 -0.26664062500000085 17.384375 -0.8125 18.5 C-1.3345703124999986 19.582812500000003 -1.8566406249999972 20.665625 -2.39453125 21.78125 C-2.924335937499997 22.8434375 -3.454140625000001 23.905625 -4 25 C-4.501445312500003 26.045429687500004 -5.002890624999999 27.090859375 -5.51953125 28.16796875 C-6.81281361620843 30.641925782984472 -8.131572123372969 32.649707039535656 -9.875 34.8125 C-15.832957012038932 42.5533867912027 -19.34073920795842 49.118562969205826 -19 59 C-18.708149366624433 61.00647310445703 -18.388304012813933 63.00994193432862 -18 65 C-22.70973649114208 66.76615118417828 -27.030833638957834 67.4859483074784 -32 68 C-32.81642254001875 66.73168306513693 -33.62799105347567 65.46024069496036 -34.4375 64.1875 C-34.8899609375 63.47980468750001 -35.342421875 62.772109375 -35.80859375 62.04296875 C-38.435082452106045 57.53918648376569 -38.866074832971336 53.06112480517626 -38 48 C-36.97126754153794 45.288679706934744 -35.73976690865224 42.68280538008494 -34.5 40.0625 C-31.68490032963732 34.01506766443687 -29.287558767191143 28.769314671975962 -31 22 C-32.191264278303336 19.38396781409135 -33.47407538511282 16.953164631270397 -35.00390625 14.51953125 C-36.36181996505255 11.08480832369063 -35.72572218222538 8.559080642171192 -35 5 C-34.0937890625 4.890429687499999 -33.187578125 4.780859374999999 -32.25390625 4.66796875 C-24.160710485211567 3.6709334617986578 -24.160710485211567 3.6709334617986578 -16.375 1.375 C-11.031953234371528 -0.6349552105105225 -5.627815756974648 -0.2571083340749851 0 0 Z " fill="#94A984" transform="translate(59,20)"/>
<path d="M0 0 C5.609999999999999 0 11.219999999999999 0 17 0 C17 21.45 17 42.9 17 65 C3.455287049317718 71.01987242252547 -6.978539740879668 68.79100156816614 -21 66 C-21 65.34 -21 64.68 -21 64 C-20.058984374999994 63.6480859375 -19.117968750000003 63.296171875 -18.1484375 62.93359375 C-9.7871216991972 59.67214317049564 -4.204843544884412 56.64662910289157 0.3125 48.6875 C1.38473912110544 44.49601979931512 1.6551537149762794 40.3105785627966 2 36 C-4.435000000000002 34.515 -4.435000000000002 34.515 -11 33 C-10.257499999999993 32.13375 -9.515 31.2675 -8.75 30.375 C-2.658179712340697 21.83264577226245 -1.4832692871064523 10.135673461894084 0 0 Z " fill="#9FA880" transform="translate(111,0)"/>
<path d="M0 0 C7.95225662760933 1.2174464543897017 14.840946472390002 4.7496948165557455 19.75390625 11.1796875 C23.115193089618998 16.349191352351312 24.844365977081424 20.85346393311474 23.9375 27 C22.391526070683938 31.314473341743792 20.82430961676033 35.41832231501752 17.9375 39 C8.101361707323889 41.61825263905767 -4.745474463798892 40.09949123592848 -14.0625 36 C-17.130614585987082 32.931885414012925 -16.993385674229692 29.91576481645656 -17.3125 25.6875 C-16.68151486438466 16.380469249673695 -11.327372950696457 8.311188447933986 -5.59765625 1.17578125 C-3.557186964925471 -0.38702092508252406 -2.5305229196760806 -0.2939264371311623 0 0 Z " fill="#98CAB3" transform="translate(56.0625,50)"/>
<path d="M0 0 C2.2027341040774715 3.558262783509761 1.7361903091036694 6.169103344532488 1.5703125 10.27734375 C1.6575011757004887 15.614536255379946 2.806413838174336 20.710863414651342 3.87109375 25.92578125 C5.783289572393102 35.3084208552138 5.783289572393102 35.3084208552138 4.625 37.625 C-6.925000000000001 37.625 -18.475 37.625 -30.375 37.625 C-30.375 26.075000000000003 -30.375 14.525000000000006 -30.375 2.625 C-24.93 1.6350000000000051 -24.93 1.6350000000000051 -19.375 0.625 C-17.42783785444592 0.09691659851759482 -15.486845297535167 -0.45652337020781886 -13.5625 -1.0625 C-8.291039533144616 -2.5343037770707326 -4.85919717535921 -2.8132194173132206 0 0 Z " fill="#DAAF64" transform="translate(30.375,90.375)"/>
<path d="M0 0 C10.98511596205006 1.8845797135796971 21.933927640857434 4.244887261815336 31 11 C31 11.659999999999997 31 12.319999999999993 31 13 C31.990000000000002 13.329999999999998 32.97999999999999 13.659999999999997 34 14 C35.350289298244974 16.199379511988553 36.5048105050337 18.313422525217874 37.625 20.625 C37.936953125 21.2295703125 38.248906250000005 21.834140625000003 38.5703125 22.45703125 C38.86937499999999 23.0616015625 39.16843750000001 23.666171875000003 39.4765625 24.2890625 C39.74549316406251 24.8325634765625 40.01442382812499 25.376064453124997 40.29150390625 25.93603515625 C41.2897204426431 28.84400297109056 41.56519629565338 31.956374069573656 42 35 C29.129999999999995 35 16.259999999999998 35 3 35 C2.6700000000000017 32.36 2.3400000000000034 29.72 2 27 C1.7570509978997606 25.61352023047499 1.4989450326729141 24.22938760865759 1.2109375 22.8515625 C-0.3713807583562563 14.901038948786407 -1.414604400354797 8.101825202032032 0 0 Z " fill="#F1EA9E" transform="translate(32,93)"/>
<path d="M0 0 C0 15.510000000000005 0 31.02000000000001 0 47 C-9.894039735099327 43.701986754966896 -9.894039735099327 43.701986754966896 -13.75 41 C-17.78615836984443 38.408494861434264 -21.223409570382685 37.404862440808415 -25.9375 36.5625 C-31.573660714285708 35.43526785714286 -31.573660714285708 35.43526785714286 -33.4921875 33.4765625 C-35.165309262277745 29.827563608937112 -35.584576553095246 25.925013999353837 -35 22 C-31.990642584642586 16.186110543105315 -28.212568919924067 14.01898948732142 -22.4375 11.1875 C-21.669863281250002 10.793691406250005 -20.902226562500005 10.399882812499996 -20.111328125 9.994140625 C-17.090864067086386 8.458891674900926 -14.22005853560961 7.073352845203203 -11 6 C-11 5.340000000000003 -11 4.680000000000007 -11 4 C-9.733084925256293 3.3259169198513376 -8.46129251445602 2.6609950345285256 -7.1875 2 C-6.479804687500007 1.6287499999999966 -5.772109374999999 1.2574999999999932 -5.04296875 0.875 C-3 0 -3 0 0 0 Z " fill="#877A42" transform="translate(128,65)"/>
<path d="M0 0 C15.180000000000007 0 30.36 0 46 0 C47.34183697518708 4.025510925561242 46.291153351217986 7.130119850971171 45.3125 11.125 C45.12751953125 11.88965576171875 44.9425390625 12.6543115234375 44.751953125 13.442138671875 C40.76918885200493 29.31412934455241 40.76918885200493 29.31412934455241 35 33 C32.24328360363704 33.31278128343349 29.791421011880757 33.18609473412538 27 33 C27 32.34 27 31.68 27 31 C26.4573046875 30.773125 25.914609374999998 30.54625 25.35546875 30.3125 C22.295168105327548 28.607257849734754 19.85994884174454 26.372479973171306 17.3125 24 C16.788657226562492 23.51523193359375 16.264814453125 23.0304638671875 15.72509765625 22.531005859375 C2.2893321152749593 9.9357425463057 2.2893321152749593 9.9357425463057 0 4 C0 2.6799999999999997 0 1.3599999999999999 0 0 Z " fill="#71A6B9" transform="translate(65,0)"/>
<path d="M0 0 C10.527151011998129 0.721634727840609 10.527151011998129 0.721634727840609 15.1875 3.3125 C16.42113281249999 3.9815234375000017 16.42113281249999 3.9815234375000017 17.6796875 4.6640625 C18.445390625 5.104921875000002 19.211093750000003 5.5457812500000045 20 6 C20.9938671875 6.5684765624999955 20.9938671875 6.5684765624999955 22.0078125 7.1484375 C22.603359374999997 7.4913281249999955 23.198906249999993 7.834218750000005 23.8125 8.1875 C27.212791019876192 10.216681528141677 27.212791019876192 10.216681528141677 32 12 C32 17.28 32 22.560000000000002 32 28 C21.769999999999996 28 11.539999999999992 28 1 28 C0.2347171720154222 24.17358586007711 -0.11896320375518599 21.29441347217724 -0.09765625 17.48046875 C-0.09443359374999716 16.458886718749994 -0.09121093749999432 15.437304687500003 -0.087890625 14.384765625 C-0.0795117187499983 13.329667968750002 -0.07113281249999659 12.274570312500003 -0.0625 11.1875 C-0.05798828125000455 10.113066406249999 -0.053476562499994884 9.038632812499998 -0.048828125 7.931640625 C-0.03707729185184405 5.287703166665679 -0.02064787111106625 2.643880480882572 0 0 Z " fill="#AF9965" transform="translate(96,100)"/>
<path d="M0 0 C5.609999999999999 0 11.219999999999999 0 17 0 C17 10.56 17 21.12 17 32 C14.030000000000001 32.66 11.060000000000002 33.32 8 34 C6.675488281249997 34.580078125 6.675488281249997 34.580078125 5.32421875 35.171875 C2.2092347202395928 36.28175166270455 0.042340838498176936 35.84380924732637 -3.1875 35.25 C-4.232929687500004 35.06953125 -5.278359374999994 34.8890625 -6.35546875 34.703125 C-9 34 -9 34 -11 32 C-10.257499999999993 31.29875 -9.515 30.5975 -8.75 29.875 C-2.2700111230484765 22.091670584058235 -1.4164759183578894 9.679252108778885 0 0 Z " fill="#8F9D9A" transform="translate(111,0)"/>
<path d="M0 0 C8.026667450284227 1.6053334900568466 13.312677613616433 7.42802116707275 17.9296875 14.05078125 C20.710902723891742 19.115841092051014 18.85545756181539 24.005414607608586 17.4375 29.25 C15.063125299371798 36.59360175265722 11.236298780742477 45.09024888166485 5 50 C2.5249999999999995 50.495000000000005 2.5249999999999995 50.495000000000005 0 51 C0 34.17 0 17.339999999999996 0 0 Z " fill="#443C1F" transform="translate(0,17)"/>
<path d="M0 0 C6.2700000000000005 0 12.540000000000001 0 19 0 C20.37500000000009 8.125000000000528 20.37500000000009 8.125000000000528 20.79443359375 10.64892578125 C21.534862269123135 14.929114165372493 22.569979464075633 18.886409011553738 24 23 C24.358922008881102 26.589220088811004 24.439275054269352 28.304481164073522 22.5 31.375 C22.005 31.91125 21.51 32.4475 21 33 C18.458526088839765 32.624493148029856 17.278121328279997 32.312420473322575 15.54296875 30.36328125 C15.0956640625 29.6865234375 14.648359375 29.009765625 14.1875 28.3125 C10.333701992370079 22.887913437361426 6.570243015002478 18.64256075375062 0 17 C0 11.39 0 5.779999999999999 0 0 Z " fill="#4F6461" transform="translate(0,0)"/>
</svg>
