<?xml version="1.0" encoding="UTF-8"?>
<!-- Generator: visioncortex VTracer 0.6.0 -->
<svg version="1.1" xmlns="http://www.w3.org/2000/svg" width="128" height="128">
<path d="M0 0 C42.24 0 84.48 0 128 0 C128 42.24 128 84.48 128 128 C85.75999999999999 128 43.519999999999996 128 0 128 C0 85.75999999999999 0 43.519999999999996 0 0 Z " fill="#778CAB" transform="translate(0,0)"/>
<path d="M0 0 C2.0295153452348984 1.2879616613990699 4.035016780370142 2.615580004351692 6 4 C6.7425 3.525624999999998 7.484999999999999 3.0512499999999996 8.25 2.5625 C14.092346846085299 -0.7570152534575563 20.421235146414844 -0.6164952943667714 27 0 C34.53810843424367 2.3811046281653496 40.008582682609315 7.2558810844088555 44 14 C44.2848828125 14.8030859375 44.569765625 15.606171875000001 44.86328125 16.43359375 C47.197867989707845 21.70446484274246 52.124833435045076 25.562416717522538 57.21875 28.109375 C63.38333859523934 30.17831226826526 69.93229755411073 30.714247180740315 76.375 31.35498046875 C81.90636670694201 31.90636670694201 81.90636670694201 31.90636670694201 83 33 C83.08775605102625 35.14558826691935 83.10695218955732 37.294044212256615 83.09765625 39.44140625 C83.09282226562499 41.399169921875 83.09282226562499 41.399169921875 83.087890625 43.396484375 C83.07953401158977 44.785156897578986 83.0710690505392 46.17382877205351 83.0625 47.5625 C83.05748665970339 48.955076557879295 83.05292346543095 50.34765481485897 83.048828125 51.740234375 C83.03699433839762 55.16019870308219 83.0205088016778 58.580078440221996 83 62 C82.2740966796875 62.17740722656251 81.548193359375 62.354814453125 80.80029296875 62.53759765625 C75.41438422032593 63.917473395192005 70.81799685119218 65.2973967236989 66.125 68.375 C49.736422088601856 78.36544308476928 49.736422088601856 78.36544308476928 40.57421875 76.671875 C38.44711381704769 76.11669738472261 36.32615926313345 75.53801306129739 34.20703125 74.953125 C23.604950883431087 71.99093884819959 23.604950883431087 71.99093884819959 13 74 C11.111012139099444 74.63234774874496 9.22185984961068 75.26423659196668 7.330322265625 75.888916015625 C5.397647921433297 76.53407615060684 3.473936631507101 77.20590171877686 1.55078125 77.87890625 C-4.048378332094359 79.64673771321351 -9.203151305416199 80.15562106259748 -15.0625 80.1875 C-16.2497265625 80.2016796875 -17.436953125000002 80.215859375 -18.66015625 80.23046875 C-21.893730144867355 80.00733324146529 -24.09727845644496 79.38825812952632 -27 78 C-27.31471370379577 72.12534419581229 -26.764130634434196 66.60069215876409 -25.75 60.8125 C-25.64067138671875 60.1357421875 -25.5313427734375 59.458984375 -25.418701171875 58.76171875 C-24.3211153056714 52.88102231649941 -22.188740072988118 48.80641207946937 -17.5625 44.98828125 C-16.2940625 44.15876953125 -16.2940625 44.15876953125 -15 43.3125 C-14.154375000000002 42.7517578125 -13.30875 42.191015625000006 -12.4375 41.61328125 C-10 39.99999999999999 -10 39.99999999999999 -7.69140625 38.8203125 C-5.603770472614201 36.94548083665245 -5.603770472614201 36.94548083665245 -5.65234375 33.19140625 C-5.719260186515527 31.646961478392214 -5.8159624545450015 30.103608720067257 -5.9375 28.5625 C-6.017864990234372 27.359925537109376 -6.017864990234372 27.359925537109376 -6.099853515625 26.133056640625 C-6.70153995734092 19.235422747934443 -8.40752204487221 12.987463258546327 -12 7 C-12.659999999999997 6.670000000000002 -13.32 6.34 -14 6 C-14 5.009999999999998 -14 4.02 -14 3 C-12.422746525866472 2.2986640086391006 -10.837886666176537 1.614417003644622 -9.25 0.9375 C-8.368281249999995 0.5546484374999991 -7.486562500000005 0.1717968749999983 -6.578125 -0.22265625 C-3.7761407056176495 -1.0674969690637717 -2.6772322247803118 -1.0708928899121233 0 0 Z " fill="#6D695A" transform="translate(45,24)"/>
<path d="M0 0 C0 13.86 0 27.72 0 42 C-42.24000000000001 42 -84.48 42 -128 42 C-128 33.75 -128 25.5 -128 17 C-124.9046310833585 15.45231554167924 -121.59045838287007 15.53976792405632 -118.1875 15.3125 C-117.47529296875 15.252558593749995 -116.7630859375 15.192617187500005 -116.029296875 15.130859375 C-111.7136032477156 14.83942030488737 -108.919646141317 15.301912257996207 -105 17 C-94.49572995493976 18.00977377461878 -85.11298143694432 16.28752159479734 -75.3046875 12.6171875 C-67.22772559388436 9.596010348663754 -61.456291559901985 8.402798370976242 -53 11 C-38.28973699026703 15.156835611782611 -31.18253598855277 13.08097458943827 -18.004150390625 6.06103515625 C-15.905294137107788 4.949860923361001 -13.797359668840343 3.860040790172647 -11.6796875 2.78515625 C-10.722316894531247 2.298011474609382 -10.722316894531247 2.298011474609382 -9.74560546875 1.801025390625 C-6.476600598410386 0.30094077809573605 -3.5568284651830027 0 0 0 Z " fill="#747C93" transform="translate(128,86)"/>
<path d="M0 0 C4.674136798654757 3.159672894195527 8.029448329654684 6.043710730105175 10.67578125 11.1328125 C10.608239011554431 14.577466660723843 10.326078372843611 16.35245595258767 8.11328125 19.0078125 C7.638906249999991 19.379062500000003 7.16453125000001 19.7503125 6.67578125 20.1328125 C8.643000677052044 28.001690208208203 13.328770461829848 33.13066201916118 19.48828125 38.1328125 C22.476142178124803 40.69743511790139 24.266937793277492 42.37465449513371 24.92578125 46.3203125 C24.566332269692737 51.80190944968582 22.947918951600457 53.79543696754824 19.23828125 57.6953125 C11.663480911688822 63.64293350637767 0.9358733073494534 64.88499867666923 -8.32421875 66.1328125 C-8.8746484375 65.3864453125 -9.425078124999999 64.640078125 -9.9921875 63.87109375 C-12.35979899646118 61.09103401964944 -14.617098852822231 59.34905288353528 -17.63671875 57.3203125 C-24.288064218532185 52.59856859118905 -30.651339350762775 47.497209496186116 -32.32421875 39.1328125 C-32.848957881488865 34.47961108400314 -31.47034246994194 32.62405610449734 -28.63671875 29.0078125 C-25.884735914695312 25.00417140649428 -25.884735914695312 25.00417140649428 -25.52734375 20.32421875 C-26.1020020966332 18.482699957379964 -26.722464905672354 16.654879622424602 -27.38671875 14.84375 C-28.843623735125995 10.630866418010655 -29.340174489163665 6.505486001360417 -28.32421875 2.1328125 C-20.954573158795675 -4.734357255440393 -8.502499936144275 -5.0346065874477475 0 0 Z " fill="#404D4A" transform="translate(78.32421875,26.8671875)"/>
<path d="M0 0 C0 0.6600000000000001 0 1.3200000000000003 0 2 C1.4849999999999994 2.495000000000001 1.4849999999999994 2.495000000000001 3 3 C8.633526063846524 11.710798971554595 10.161531262885852 22.846614650290903 9 33 C6.917975348339439 36.25736114856571 4.449144317802151 37.413855037800005 1 39 C-0.4640716191769165 39.938971727493325 -1.9030363600227815 40.91838967295328 -3.3125 41.9375 C-3.9480078124999984 42.3590234375 -4.583515625 42.780546875 -5.23828125 43.21484375 C-10.417414558424412 48.46287905365844 -10.816870902278335 55.97722475427982 -11.6875 62.9375 C-11.81705078125 63.90751953125 -11.9466015625 64.8775390625 -12.080078125 65.876953125 C-12.395721285248491 68.250122070572 -12.699113225280367 70.62491503359611 -13 73 C-21.91 73.99 -21.91 73.99 -31 75 C-31 50.91 -31 26.82 -31 2 C-26.05 1.6700000000000017 -21.1 1.3399999999999999 -16 1 C-12.04213473803766 0.20306293966423183 -12.04213473803766 0.20306293966423183 -8.09765625 -0.65625 C-5.238662761402356 -1.1247628994349945 -2.7824135509759813 -0.7322140923620992 0 0 Z " fill="#90A199" transform="translate(31,28)"/>
<path d="M0 0 C22.77 0 45.54 0 69 0 C69 0.99 69 1.98 69 3 C68.34 3 67.68 3 67 3 C66.7628125 3.57234375 66.525625 4.1446875 66.28125 4.734375 C64.72406762467371 7.487929200272101 62.87507203081002 9.167956336627585 60.5 11.25 C59.7059375 11.95640625 58.911875 12.6628125 58.09375 13.390625 C56 15 56 15 54 15 C53.731875 15.680625 53.46375 16.36125 53.1875 17.0625 C51.83946694052743 20.39710809448477 50.424637016830204 23.697432370075447 49 27 C48.29875 26.484375 47.5975 25.96875 46.875 25.4375 C43.25893685670908 23.62946842835454 41.85538770991392 23.9204914412241 38 25 C36.2675 25.7734375 36.2675 25.7734375 34.5 26.5625 C30.8446019281416 28.0638242080847 28.88478451558329 28.076172245403594 25 28 C23.452709623004374 28.28334581409974 21.911250560405435 28.5993778670878 20.375 28.9375 C5.984186746987945 31.994728915662648 5.984186746987945 31.994728915662648 0 30 C0 20.1 0 10.2 0 0 Z " fill="#8E9DB4" transform="translate(0,0)"/>
<path d="M0 0 C3.135697111864033 1.3882711882922223 5.197416234519537 3.035741593726776 7.625 5.4375 C15.006678945062276 11.94201417096896 23.938280440731745 12.417166549966062 33.374755859375 13.354736328125 C38.90674772078208 13.906747720782072 38.90674772078208 13.906747720782072 40 15 C40.08775605102625 17.145588266919347 40.10695218955732 19.294044212256615 40.09765625 21.44140625 C40.09443359375001 22.74658203125 40.091210937499994 24.0517578125 40.087890625 25.396484375 C40.0795340115898 26.785156897578986 40.071069050539194 28.17382877205351 40.0625 29.5625 C40.057486659703386 30.955076557879295 40.05292346543095 32.34765481485897 40.048828125 33.740234375 C40.03699433839765 37.160198703082244 40.020508801677806 40.58007844022197 40 44 C39.2740966796875 44.17740722656251 38.548193359375006 44.354814453125 37.80029296875 44.53759765625 C32.414384220325914 45.91747339519202 27.81799685119219 47.297396723698895 23.125 50.375 C6.675845117773392 60.40237068047534 6.675845117773392 60.40237068047534 -2.390625 58.6640625 C-3.251718749999995 58.444921875000006 -4.112812500000004 58.22578125 -5 58 C-6.36962988188121 57.67379912682286 -7.739438985344435 57.34835031715728 -9.109375 57.0234375 C-13.086085134578056 56.063300394954354 -17.044399169724187 55.04350205952062 -21 54 C-21 53.34 -21 52.68000000000001 -21 52 C-16.719356472411263 50.47119874014689 -12.477547891239766 49.08548653354924 -8.05078125 48.05078125 C-7.004707031250007 47.8047314453125 -7.004707031250007 47.8047314453125 -5.9375 47.5537109375 C-4.547991656314451 47.23251484518666 -3.1560742990239987 46.921524766123724 -1.76171875 46.6220703125 C2.88220332079311 45.545317793144534 6.1867451640144395 43.831568695173814 10 41 C10.598124999999996 40.587500000000006 11.196249999999992 40.175 11.8125 39.75 C13.792528209612698 36.83206369109706 14.291102750907811 33.45526308686236 14 30 C12.071425129142796 25.952530369714168 9.560080435345782 23.569062971256415 6.125 20.75 C1.7425910920582623 16.900934111646485 -2.448574655136426 12.795681824026083 -4 7 C-3.0199408682202034 4.3448398011476 -1.5809137763498882 2.3713706645248394 0 0 Z " fill="#5E7282" transform="translate(88,42)"/>
<path d="M0 0 C0 13.86 0 27.72 0 42 C-12.210000000000008 42 -24.42 42 -37 42 C-39.29047900121745 33.983323495738915 -41.69389991289127 25.195808406213033 -39.41796875 16.87109375 C-37.2772797645591 14.046327843591754 -34.363064776587066 13.306751961347189 -31.125 12.1875 C-25.945883589301857 10.277930339139303 -21.289307059346328 8.153696290607385 -16.5625 5.25 C-11.096331177241666 1.912837632466946 -6.502334742027244 0 0 0 Z " fill="#849DC7" transform="translate(128,86)"/>
<path d="M0 0 C17.159999999999997 0 34.31999999999999 0 52 0 C52 4.95 52 9.9 52 15 C48.240234375 16.025390625 48.240234375 16.025390625 44.48046875 17.05078125 C41.920521624007876 18.03041455963163 40.834105601040534 19.03370660789347 39 21 C38.34 21 37.68000000000001 21 37 21 C37 21.66 37 22.32 37 23 C36.34 23 35.68000000000001 23 35 23 C34.79375 23.5775 34.587500000000006 24.155 34.375 24.75 C32.41551397640973 27.956431674965906 30.308741150112354 29.251985807487813 27 31 C23.3125 31.5625 23.3125 31.5625 20 31 C18.59375 28.925781249999993 18.59375 28.925781249999993 17 26 C15.432974961501131 23.51730584706388 13.809433133378676 21.072100394984616 12.1875 18.625 C11.52536499023438 17.624727783203124 11.52536499023438 17.624727783203124 10.849853515625 16.604248046875 C8.544934409165876 13.164794192680283 6.208888357768359 9.900041884018627 3.4375 6.8125 C1 4 1 4 0 0 Z " fill="#8EAFE0" transform="translate(76,0)"/>
<path d="M0 0 C-0.023203125000009095 0.787617187500004 -0.04640624999998977 1.5752343749999937 -0.0703125 2.38671875 C-0.08835937500001023 3.4759765624999943 -0.10640624999999204 4.565234375000003 -0.125 5.6875 C-0.1482031250000091 6.743242187500002 -0.17140624999998977 7.798984375000003 -0.1953125 8.88671875 C0.07746524106019592 14.631417976727732 1.1254930121989162 20.31570457929294 2 26 C-16.480000000000004 26 -34.96 26 -54 26 C-52.68 23.36 -51.36 20.72 -50 18 C-49.01 18 -48.019999999999996 18 -47 18 C-47 17.340000000000003 -47 16.680000000000007 -47 16 C-35.34948611270747 9.38438156148716 -22.27126512728597 5.920861899745262 -9.5 2.125 C-8.776110839843753 1.9097265624999977 -8.052221679687506 1.6944531249999955 -7.306396484375 1.47265625 C-2.250236056498352 0 -2.250236056498352 0 0 0 Z " fill="#6F85B5" transform="translate(89,102)"/>
<path d="M0 0 C4.674136798654757 3.1596728941955234 8.029448329654684 6.043710730105175 10.67578125 11.1328125 C10.80078125 14.1953125 10.80078125 14.1953125 9.67578125 17.1328125 C3.2712845338871688 23.26925853143247 -5.2491500432336125 26.709167541369155 -14.125 27.328125 C-16.32191665930567 27.1435101546802 -18.221822195381584 26.781813175556124 -20.32421875 26.1328125 C-21.272968750000004 25.8440625 -22.22171875 25.5553125 -23.19921875 25.2578125 C-27.86978120670328 20.58725004329672 -28.471303710989496 13.05871559757 -28.88671875 6.6953125 C-28.8125 4.234375 -28.8125 4.234375 -28.32421875 2.1328125 C-20.954573158795675 -4.734357255440393 -8.502499936144275 -5.0346065874477475 0 0 Z " fill="#1A406F" transform="translate(78.32421875,26.8671875)"/>
<path d="M0 0 C2 2 2 2 2.625 5.25 C1.933639536973935 9.398162778156376 1.6741289267998098 9.70368654263308 -1.5 12.0625 C-2.9871952803741735 13.061007666041633 -4.487795716400825 14.039788791059266 -6 15 C-7.450338848730283 15.960047308717037 -8.888477149548901 16.938834624358975 -10.3125 17.9375 C-10.948007812499998 18.3590234375 -11.583515625 18.780546875 -12.23828125 19.21484375 C-17.41741455842441 24.46287905365844 -17.816870902278335 31.977224754279803 -18.6875 38.9375 C-18.81705078125 39.90751953125 -18.9466015625 40.877539062500006 -19.080078125 41.876953125 C-19.39572128524849 44.25012207057199 -19.699113225280367 46.624915033596096 -20 49 C-25.94 49.66 -31.880000000000003 50.31999999999999 -38 51 C-38 41.43000000000001 -38 31.86 -38 22 C-35.69 21.010000000000005 -33.38 20.019999999999996 -31 19 C-28.777055800940964 17.456888250167765 -26.63852359941557 15.898680173890384 -24.5 14.25 C-18.348063097075773 9.657092536623622 -12.015569873038508 6.406209415125858 -4.984375 3.375 C-1.959099395736743 2.1899851018411596 -1.959099395736743 2.1899851018411596 0 0 Z " fill="#898F86" transform="translate(38,52)"/>
<path d="M0 0 C3.125 -0.5625000000000001 3.125 -0.5625000000000001 7 0 C8.83658970541056 1.9934843033602103 10.091954618285456 4.0939454572429845 11.46484375 6.4296875 C12.996988684808017 8.994958154207826 14.688148281854183 11.238789662601075 16.5625 13.5625 C19.70107927775966 17.54127417291214 22.481922794491652 21.603049802689277 25 26 C25.7734375 27.299375 25.7734375 27.299375 26.5625 28.625 C27 31.000000000000004 27 31.000000000000004 25.375 34.25 C22.945821387226403 37.062733130579964 22.418854238767423 37.39412709692729 19 38 C18.340000000000003 36.948125 17.680000000000007 35.89625 17 34.8125 C13.464218896228601 29.832099759544867 8.747517757054155 26.915839252351386 3 25 C-4.447459914778889 24.426269754713328 -10.176332444323272 25.022399612068334 -17 28 C-17.990000000000002 28 -18.979999999999997 28 -20 28 C-19.4405556777457 21.00694597182125 -17.649820274180442 17.267247438242535 -12.4296875 12.80078125 C-10.521800933450152 11.261752752983123 -8.597882059578765 9.742323949757814 -6.65625 8.24609375 C-4.02811345513058 6.023772406911882 -2.0161717500546246 3.781746400429133 0 1 C0 0.6699999999999999 0 0.33999999999999997 0 0 Z " fill="#5283C5" transform="translate(69,0)"/>
<path d="M0 0 C1.335839591716251 0.35299738894350696 2.6732012346403167 0.7002656241419203 4.01171875 1.04296875 C7.686007797561942 1.9893895179645966 11.344439090502988 2.9837442005986787 15 4 C12.319741148483502 5.786839234344328 10.471656531980685 6.609937872245283 7.45703125 7.55078125 C6.104361572265617 7.976655273437501 6.104361572265617 7.976655273437501 4.724365234375 8.4111328125 C3.763449707031242 8.708583984374997 2.8025341796874983 9.006035156249993 1.8125 9.3125 C0.8303149414062432 9.621552734375001 -0.15187011718749943 9.930605468750002 -1.163818359375 10.2490234375 C-5.714048120877123 11.6782598993275 -10.270116456548749 13.0862467092782 -14.8359375 14.46484375 C-15.916453857421871 14.793917236328127 -15.916453857421871 14.793917236328127 -17.018798828125 15.129638671875 C-18.939017028147887 15.712516995403632 -20.862000720954057 16.286262544334676 -22.78515625 16.859375 C-25.83133534160612 17.940157861177383 -28.26616806290587 19.304147033674226 -31 21 C-31.659999999999997 21 -32.32 21 -33 21 C-33 21.659999999999997 -33 22.319999999999993 -33 23 C-33.99 23 -34.980000000000004 23 -36 23 C-36.28875 23.763125000000002 -36.5775 24.526250000000005 -36.875 25.3125 C-38 28 -38 28 -40 31 C-41.65 30.67 -43.3 30.340000000000003 -45 30 C-46.78600965695988 23.302463786400452 -47.41559337816584 14.884297157967325 -43.89453125 8.67578125 C-40.19203150310982 5.400786628523946 -35.100532650499055 4.881088493963958 -30.375 3.94921875 C-26.780080466472313 3.2326208518344117 -23.49413143869681 2.1553982605068853 -20.077392578125 0.84423828125 C-12.51806431632091 -2.0326227262780776 -7.647688609505622 -2.3239964047627524 0 0 Z " fill="#6A758E" transform="translate(75,97)"/>
<path d="M0 0 C3.606567219000503 2.169205393033881 4.812349096443057 3.2562512132994144 5.85546875 7.390625 C5.965039062499997 8.664218750000003 6.074609375000001 9.9378125 6.1875 11.25 C6.567347019162725 15.486053957702744 6.968776821072801 19.294840169726093 8.625 23.25 C9.185561389116728 28.85561389116731 6.231579849989032 31.619588526115372 2.8203125 35.875 C2.2196093750000045 36.57625 1.618906250000002 37.2775 1 38 C-0.980000000000004 37.34 -2.960000000000001 36.68 -5 36 C-5.086367187500002 34.91203125 -5.172734374999997 33.8240625 -5.26171875 32.703125 C-6.098603821530553 23.530864616025113 -7.32480653188172 15.151619380308794 -12 7 C-12.659999999999997 6.670000000000002 -13.32 6.34 -14 6 C-14 5.009999999999998 -14 4.02 -14 3 C-12.42274652586648 2.2986640086391006 -10.837886666176537 1.614417003644622 -9.25 0.9375 C-7.927421875 0.3632226562499987 -7.927421875 0.3632226562499987 -6.578125 -0.22265625 C-3.71072583323253 -1.087220544222312 -2.713368447969188 -1.1911046533408047 0 0 Z " fill="#667584" transform="translate(45,24)"/>
<path d="M0 0 C8.909999999999997 0 17.82 0 27 0 C27 0.99 27 1.98 27 3 C26.340000000000003 3 25.680000000000007 3 25 3 C24.762812499999995 3.57234375 24.525625000000005 4.1446875 24.28125 4.734375 C22.724067624673708 7.487929200272111 20.875072030810017 9.16795633662758 18.5 11.25 C17.705937500000005 11.95640625 16.911874999999995 12.6628125 16.09375 13.390625 C14 15 14 15 12 15 C11.731875000000002 15.680625 11.463749999999997 16.36125 11.1875 17.0625 C9.83946694052743 20.39710809448478 8.424637016830204 23.697432370075443 7 27 C4.1332232650215275 25.82722769932699 2.243128373806165 25.04901149530371 0 23 C-1.0587898272032419 19.84769392355399 -1.0249148230054885 16.803705530527846 -1 13.5 C-1.0244921875000017 12.6453515625 -1.0489843750000034 11.790703125 -1.07421875 10.91015625 C-1.1545282721836827 6.950279040789142 -0.9724538917392849 3.88981556695714 0 0 Z " fill="#7F9AC8" transform="translate(42,0)"/>
</svg>
