<?xml version="1.0" encoding="UTF-8"?>
<!-- Generator: visioncortex VTracer 0.6.0 -->
<svg version="1.1" xmlns="http://www.w3.org/2000/svg" width="128" height="128">
<path d="M0 0 C42.24 0 84.48 0 128 0 C128 42.24 128 84.48 128 128 C85.75999999999999 128 43.519999999999996 128 0 128 C0 85.75999999999999 0 43.519999999999996 0 0 Z " fill="#7C876C" transform="translate(0,0)"/>
<path d="M0 0 C29.700000000000003 0 59.400000000000006 0 90 0 C90 12.540000000000001 90 25.080000000000002 90 38 C76.00000000000115 37.81250000000002 76.00000000000115 37.81250000000002 71.6328125 37.729736328125 C64.59879382455496 37.68420711481651 59.41504570352136 38.14470512495136 53 41 C46.18763002266543 41.707778698943855 39.664596870335316 38.975825589912986 33.32421875 36.79443359375 C28.29653190465592 35.15902044776214 23.76604863521048 34.688714672785935 18.5 34.625 C13.47032753311526 34.44308613756135 10.312752124150201 34.260211358857106 6.4375 30.9375 C5.260545605174656 29.652833261005373 4.1146282480951655 28.339101992503217 3 27 C2.319375000000001 26.3412890625 1.6387500000000017 25.682578125 0.9375 25.00390625 C-3.957726189546058 20.099119071802484 -3.957726189546058 20.099119071802484 -4.125 15.75 C-3.7537499999999966 14.5125 -3.3825000000000003 13.275 -3 12 C-2.009999999999998 8.04 -1.0200000000000031 4.08 0 0 Z " fill="#9B533E" transform="translate(38,0)"/>
<path d="M0 0 C4.938089547445713 3.735670579627957 6.391537868274895 8.66217857136175 7.4140625 14.50390625 C7.81677175047065 19.144965316899402 7.29930458323733 23.651332455637288 6.65234375 28.25 C7.21437499999999 28.060507812499992 7.776406250000008 27.871015625 8.35546875 27.67578125 C14.55054574829822 26.52737411936309 21.543790986791976 30.4627518874305 26.86328125 33.3828125 C28.94924842149679 34.46936764971066 28.94924842149679 34.46936764971066 32.65234375 35.25 C32.65234375 47.46000000000001 32.65234375 59.67 32.65234375 72.25 C22.752343749999994 72.25 12.852343750000003 72.25 2.65234375 72.25 C1.3323437500000068 69.28 0.012343749999999432 66.31 -1.34765625 63.25 C-1.7421093749999983 62.391484375000005 -2.1365624999999966 61.532968749999995 -2.54296875 60.6484375 C-4.1538762203039425 57.142344770514924 -5.357182705066663 54.20077998215555 -6.09765625 50.375 C-7.450755836852039 46.992251032869916 -7.707117633107941 46.64439914590008 -10.84765625 45.25 C-18.263749690669783 43.077473530943024 -25.404297575540937 44.961139813136214 -32.4375 47.62890625 C-34.34765625 48.25 -34.34765625 48.25 -37.34765625 48.25 C-37.1426953125 47.658320312499995 -36.937734375 47.06664062499999 -36.7265625 46.45703125 C-35.90995948133694 44.061922874686815 -35.12821181149286 41.65705353779735 -34.34765625 39.25 C-34.05890625 38.425 -33.77015625 37.599999999999994 -33.47265625 36.75 C-33.232546879260696 31.947812585213825 -34.7316736201831 27.124375791437373 -37.88671875 23.46484375 C-38.7026953125 22.646933593749992 -38.7026953125 22.646933593749992 -39.53515625 21.8125 C-42.35937088956625 18.855791340305956 -42.7398146328548 16.884756197539446 -42.72265625 12.8125 C-42.627328071068305 11.289518855638931 -42.51248483683769 9.76703347515435 -42.34765625 8.25 C-41.68765625 8.25 -41.02765625 8.25 -40.34765625 8.25 C-40.34765625 7.259999999999998 -40.34765625 6.269999999999996 -40.34765625 5.25 C-37.26559683153121 4.100719563159593 -34.181796539180716 2.9561833728384244 -31.09765625 1.8125 C-30.2249609375 1.4870117187499972 -29.352265625 1.1615234375000014 -28.453125 0.826171875 C-27.608789062499994 0.5135742187500014 -26.764453125000003 0.20097656250000284 -25.89453125 -0.12109375 C-25.119482421875006 -0.40911865234375 -24.344433593749997 -0.6971435546875 -23.5458984375 -0.993896484375 C-15.749012808972822 -3.6756995487406954 -7.305644116886498 -4.3027106455282365 0 0 Z " fill="#4F6C63" transform="translate(95.34765625,55.75)"/>
<path d="M0 0 C7.861525050848867 1.12307500726412 7.861525050848867 1.12307500726412 10.61328125 2.9609375 C11.2165625 3.3490258789062466 11.81984375 3.737114257812493 12.44140625 4.136962890625 C13.0588671875 4.545515136718748 13.676328125 4.954067382812497 14.3125 5.375 C22.990735169287944 10.836414054782864 31.243072408947352 14.729669184225287 41.74267578125 12.388427734375 C44.94788077119684 11.53505406029926 48.130554048667264 10.623809732274935 51.3125 9.6875 C52.928017578125 9.224404296875008 52.928017578125 9.224404296875008 54.576171875 8.751953125 C58.67534717648924 7.57260226600097 62.77039553621209 6.392321038321171 66.834228515625 5.095703125 C74.87381360246353 2.543121783180098 74.87381360246353 2.543121783180098 79.3125 3.125 C80.0923828125 3.2100781249999955 80.872265625 3.295156250000005 81.67578125 3.3828125 C84.64042518742885 4.170062486745806 86.5793088204903 5.093402097744033 89 7 C90.22265625 9.925781250000014 90.22265625 9.925781250000014 91.0625 13.3125 C92.47270424860642 18.67896532097066 92.47270424860642 18.67896532097066 95.1875 23.4375 C97.00000000000001 26.000000000000014 97.00000000000001 26.000000000000014 98 32 C65.66 32 33.31999999999999 32 0 32 C0 21.439999999999998 0 10.879999999999995 0 0 Z " fill="#ABAFC6" transform="translate(0,96)"/>
<path d="M0 0 C4.537499999999994 0.24750000000000227 9.075000000000003 0.49499999999999744 13.75 0.75 C13.75 18.240000000000002 13.75 35.730000000000004 13.75 53.75 C8.930480939923399 52.94674682332057 6.551864683184476 52.34680214965253 2.4375 50.25 C-2.6007724491121706 47.85509515090148 -6.699492883627428 47.022975759821605 -12.25 46.75 C-12.226796875000005 45.988164062500005 -12.203593749999996 45.22632812500001 -12.1796875 44.44140625 C-12.017135630371286 35.14111713767133 -12.18475308740912 27.2423638332005 -18.25 19.75 C-18.971874999999997 19.275625000000005 -19.693749999999994 18.801249999999996 -20.4375 18.3125 C-23.181235116079975 15.94721110682761 -22.7741418645943 13.259453748617062 -23.25 9.75 C-24.407678793469003 7.549929927764303 -25.74276586662279 5.743438692531157 -27.25 3.75 C-17.932665051091462 -0.19211693724274426 -10.006280839987312 -0.6312748866704538 0 0 Z " fill="#927B74" transform="translate(114.25,37.25)"/>
<path d="M0 0 C5.213526532784105 -0.22485238701334964 7.911461133496815 0.4321324239094011 12.091796875 3.848388671875 C13.012187500000003 4.583154296874994 13.932578125 5.317919921875003 14.880859375 6.074951171875 C15.734218749999997 6.7633105468750045 16.587578125 7.451669921874995 17.466796875 8.160888671875 C18.793895963819722 9.024709533324923 20.126245788375144 9.880594950747977 21.466796875 10.723388671875 C26.061816266417345 14.456841927401598 27.18649167410279 18.093637815258077 27.966796875 23.848388671875 C27.466796875 27.160888671875 27.466796875 27.160888671875 25.529296875 29.598388671875 C19.411150767856668 32.71989178776445 14.040155079996701 31.363932805012695 7.654296875 29.535888671875 C0.6571701143550044 27.738993397247825 -5.588749720458118 28.46031740163005 -12.641845703125 29.472900390625 C-13.46193115234375 29.585209960937505 -14.2820166015625 29.697519531249995 -15.126953125 29.813232421875 C-16.220400390625 29.983267822265617 -16.220400390625 29.983267822265617 -17.3359375 30.15673828125 C-19.533203125 30.160888671875 -19.533203125 30.160888671875 -24.533203125 28.160888671875 C-24.533203125 19.250888671875003 -24.533203125 10.340888671875007 -24.533203125 1.160888671875 C-21.088828125 0.9958886718750009 -17.644453125 0.8308886718750017 -14.095703125 0.660888671875 C-13.02908447265625 0.6086816406250009 -11.9624658203125 0.5564746093750017 -10.863525390625 0.502685546875 C-9.014854802500869 0.4164860856468948 -7.165748620785834 0.33937138496608554 -5.31640625 0.26904296875 C-3.543341301683242 0.20014228698646264 -1.7708351968714204 0.11246919764246854 0 0 Z " fill="#947141" transform="translate(24.533203125,59.839111328125)"/>
<path d="M0 0 C5.394757139701369 1.0275727885145471 7.750283370165043 3.360535106988351 10.7265625 7.73046875 C13.344155257728097 12.395565045214795 14.655970008788032 16.391286901467254 13.32421875 21.6875 C11.773159311256322 25.807688779365435 10.345475300151179 29.071292790546494 7 32 C5.209960937500007 32.799560546875 5.209960937500007 32.799560546875 3.234375 33.38671875 C2.5086328124999966 33.602636718750006 1.7828906250000003 33.8185546875 1.03515625 34.041015625 C0.28105468750000284 34.25435546874999 -0.4730468750000014 34.4676953125 -1.25 34.6875 C-1.9886328125000006 34.91244140625 -2.727265625000001 35.13738281249999 -3.48828125 35.369140625 C-11.84749605061225 37.794344919004786 -18.998478895151138 37.41256926590904 -27 34 C-30.263823795399034 32.20140406398221 -33.43175653183991 30.25134104988925 -36.55859375 28.224853515625 C-40.64319503828682 25.61906554097942 -44.2781081292473 24.121373550820607 -49 23 C-49 20.36 -49 17.72 -49 15 C-47.8488671875 15.188203125000001 -46.697734375 15.376406250000002 -45.51171875 15.5703125 C-41.07545606418216 16.126186259269332 -37.191833095243986 15.603191433278937 -32.8125 14.875 C-25.956249490478676 13.885019919856589 -20.61051761404849 14.362789805323075 -13.87890625 16.25 C-8.92700786161545 17.54004679860222 -4.265977754315472 17.939551751789338 0.5625 15.9375 C2.777478980959309 12.952093547402669 2.3801234054752243 10.611172352014634 2 7 C1.0671670357912149 4.799325791909155 1.0671670357912149 4.799325791909155 0 3 C0 2.010000000000005 0 1.019999999999996 0 0 Z " fill="#8B746A" transform="translate(49,73)"/>
<path d="M0 0 C16.83 0 33.66 0 51 0 C51 15 51 15 48.9375 18.8125 C41.63006282001518 24.254208538286562 33.59458697629444 23.16648117735214 24.875 22.8125 C23.6130078125 22.78091796875 22.351015625000002 22.7493359375 21.05078125 22.716796875 C19.835195312500005 22.67232421875 18.619609374999996 22.6278515625 17.3671875 22.58203125 C16.2648779296875 22.54311767578125 15.162568359375001 22.5042041015625 14.02685546875 22.464111328125 C9.490185879542402 21.76849841563237 6.886090045873537 19.962040621234127 3.8125 16.625 C2 13 2 13 0 0 Z " fill="#924319" transform="translate(39,0)"/>
<path d="M0 0 C3.0870949282393667 2.4314744334460556 3.4614248126062392 4.373785610602823 4.3984375 8.15234375 C5.808641748606419 13.518809070970676 5.808641748606419 13.518809070970676 8.5234375 18.27734375 C10.3359375 20.83984375 10.3359375 20.83984375 11.3359375 26.83984375 C-2.194062500000001 26.83984375 -15.724062500000002 26.83984375 -29.6640625 26.83984375 C-29.6640625 5.83984375 -29.6640625 5.83984375 -25.6640625 1.83984375 C-24.674062499999998 1.5098437500000017 -23.684062499999996 1.1798437500000034 -22.6640625 0.83984375 C-21.938320312499997 0.5562500000000057 -21.212578124999993 0.27265624999999716 -20.46484375 -0.01953125 C-13.44920185379074 -2.5306244247813368 -6.930201995677365 -3.017991191665942 0 0 Z " fill="#69B0CD" transform="translate(86.6640625,101.16015625)"/>
<path d="M0 0 C1.9993611003252667 2.9990416504878996 2.3558879797214374 4.364113008149552 2.875 7.8125 C3.720939106780243 12.339596001128653 4.963801510205428 15.428001776712264 8 19 C10.90547149042849 20.788423860138668 13.069335679353586 21.2400689521481 16.45703125 21.23828125 C17.31490234375 21.2506884765625 18.1727734375 21.263095703125 19.056640625 21.27587890625 C19.966074218749995 21.2879638671875 20.875507812500004 21.300048828125 21.8125 21.3125 C36.05819496058409 21.769594193141597 52.0419940995464 25.757129024372535 62.859375 35.7109375 C63.23578125 36.136328125 63.612187500000005 36.56171875 64 37 C52.32293616652544 42.17253968288892 45.096044771736274 40.84215141563086 33.323486328125 36.794677734375 C28.29632062858414 35.15826895827812 23.765741738380072 34.68871095959746 18.5 34.625 C13.47032753311526 34.44308613756135 10.312752124150201 34.260211358857106 6.4375 30.9375 C5.260545605174656 29.652833261005373 4.1146282480951655 28.339101992503217 3 27 C2.319375000000001 26.3412890625 1.6387500000000017 25.682578125 0.9375 25.00390625 C-3.957726189546058 20.099119071802484 -3.957726189546058 20.099119071802484 -4.125 15.75 C-3.7537499999999966 14.5125 -3.3825000000000003 13.275 -3 12 C-2.4739742817993644 9.855433610412803 -1.9534857535405408 7.709504135463822 -1.4375 5.5625 C-0.9617863571914427 3.70744440722979 -0.4837799147578181 1.8529683527516438 0 0 Z " fill="#A06F50" transform="translate(38,0)"/>
<path d="M0 0 C8.76980406604386 -0.7840553304078952 16.1735419257667 0.21808295985339043 24.5625 2.6875 C25.418759765624998 2.931293945312497 26.275019531249995 3.175087890625001 27.1572265625 3.42626953125 C33.468861628452004 5.400058213470864 36.95078463000843 8.10283344242572 40.8125 13.5625 C42 16 42 16 42 20 C41.12601562500001 19.930390625 40.25203125 19.860781250000002 39.3515625 19.7890625 C30.414102249768277 19.395589407222502 23.43571430555741 20.70863670831193 15.08056640625 23.95361328125 C7.961514651868114 26.666467418129024 7.961514651868114 26.666467418129024 4 25 C2.671875 23.51171875 2.671875 23.51171875 1.75 21.6875 C1.4354687499999983 21.093242187499996 1.1209374999999966 20.498984375 0.796875 19.88671875 C-0.9133017805342689 15.837623725499753 -1.1357843245325014 12.264220084726986 -1.125 7.875 C-1.1288671874999991 6.293320312500001 -1.1288671874999991 6.293320312500001 -1.1328125 4.6796875 C-1 2 -1 2 0 0 Z " fill="#989787" transform="translate(51,34)"/>
<path d="M0 0 C0.7012500000000017 0.7218749999999972 1.4025000000000034 1.4437499999999943 2.125 2.1875 C9.278818581711278 9.280863776795414 14.761903189178156 12.153010743843524 24.875 12.625 C28.401875000000004 12.810625000000002 28.401875000000004 12.810625000000002 32 13 C32 18.61 32 24.22 32 30 C22.099999999999994 30 12.200000000000003 30 2 30 C0.6800000000000068 27.03 -0.6400000000000006 24.060000000000002 -2 21 C-2.406054687500003 20.1298828125 -2.8121093750000057 19.259765625 -3.23046875 18.36328125 C-7.25 9.75 -7.25 9.75 -7 6 C-4.910650525161486 3.645422223951414 -2.5691316537966884 1.8067210133931866 0 0 Z " fill="#506B92" transform="translate(96,98)"/>
<path d="M0 0 C1.6995093427454435 0.8673531408981887 3.389385481085583 1.7539884273362958 5.06640625 2.6640625 C7.53566163637602 3.988305962487331 7.53566163637602 3.988305962487331 11.328125 4.78515625 C11.328125 11.385156249999994 11.328125 17.985156250000003 11.328125 24.78515625 C-7.1458699395558085 25.450885797371384 -7.1458699395558085 25.450885797371384 -14.8046875 18.984375 C-18.00243432132173 15.755277719645704 -19.61185592323767 13.90551234956348 -19.859375 9.28515625 C-18.501447851011406 5.282844652980998 -17.128902779377725 1.2588851794650537 -14.671875 -2.21484375 C-9.557090040786903 -3.9197720697377036 -4.808133871742072 -2.1861544358359453 0 0 Z " fill="#5C475E" transform="translate(116.671875,86.21484375)"/>
<path d="M0 0 C12.540000000000001 0 25.080000000000002 0 38 0 C36.87499999999999 9.00000000000002 36.87499999999999 9.00000000000002 35.4375 13.5 C35.1680859375 14.3559375 34.898671875 15.211875 34.62109375 16.09375 C34.4161328125 16.7228125 34.211171875 17.351875 34 18 C33.29875 17.855625 32.5975 17.71125 31.875 17.5625 C22.18539948076887 15.666708594063474 15.138736007759508 15.715791321797626 5.63671875 18.34375 C3.000000000000003 19 3.000000000000003 19 0 19 C0 12.73 0 6.459999999999999 0 0 Z " fill="#AD9E60" transform="translate(0,0)"/>
<path d="M0 0 C5.09180364499444 1.0183607289988856 7.907656305534602 2.748221919730831 11.9375 5.75 C12.53240234375 6.180546874999997 13.1273046875 6.611093750000002 13.740234375 7.0546875 C27.4921761124925 17.094356440595618 27.4921761124925 17.094356440595618 29.75 25.9375 C29.87375 26.958437500000002 29.87375 26.958437500000002 30 28 C23.46358788610685 28.9882432600767 17.102818109737555 29.11838065056923 10.5 29.0625 C5.3025 29.0315625 5.3025 29.0315625 0 29 C0 19.43 0 9.86 0 0 Z " fill="#B3A271" transform="translate(0,32)"/>
<path d="M0 0 C-0.13277343749999915 0.6548437499999977 -0.2655468749999983 1.3096874999999955 -0.40234375 1.984375 C-0.5789453124999966 2.8970312499999977 -0.7555468750000003 3.8096874999999955 -0.9375 4.75 C-1.1985351562500028 6.072578125000007 -1.1985351562500028 6.072578125000007 -1.46484375 7.421875 C-2.2366596893140667 12.582337776727655 -2.5666802095595145 17.800162514714174 -3 23 C-12.240000000000002 23 -21.480000000000004 23 -31 23 C-25.993160614277954 12.986321228555909 -21.602005941236904 4.5713551246251 -10.6875 0.75 C-3.798276578073086 -1.4630398671096287 -3.798276578073086 -1.4630398671096287 0 0 Z " fill="#B5CAD1" transform="translate(60,105)"/>
</svg>
