<?xml version="1.0" encoding="UTF-8"?>
<!-- Generator: visioncortex VTracer 0.6.0 -->
<svg version="1.1" xmlns="http://www.w3.org/2000/svg" width="128" height="128">
<path d="M0 0 C42.24 0 84.48 0 128 0 C128 42.24 128 84.48 128 128 C85.75999999999999 128 43.519999999999996 128 0 128 C0 85.75999999999999 0 43.519999999999996 0 0 Z " fill="#795C7F" transform="translate(0,0)"/>
<path d="M0 0 C42.24 0 84.48 0 128 0 C128 15.180000000000001 128 30.360000000000003 128 46 C120.24548532731379 44.89221218961626 120.24548532731379 44.89221218961626 116.1875 42.5625 C108.69846223429174 38.64777571337977 100.34157791751733 36.581916128968714 92 39 C91.4091259765625 39.4919384765625 90.818251953125 39.983876953125 90.20947265625 40.49072265625 C87.5488545650963 42.30817470481488 85.83646048326042 42.497427588164044 82.640625 42.73046875 C81.606796875 42.81103515625 80.57296875 42.8916015625 79.5078125 42.974609375 C78.432734375 43.04486328125 77.35765625 43.1151171875 76.25 43.1875 C75.190390625 43.26935546875 74.13078125 43.3512109375 73.0390625 43.435546875 C68.49153288810155 43.77125160441434 63.978791737723 44.04404206617764 59.41796875 43.99609375 C56.03511441650863 43.83795870381178 56.03511441650863 43.83795870381178 53.0625 44.875 C48.09039527015842 45.07794305019762 44.82877538227986 41.93539445974789 41 39 C40.773125 39.9075 40.54625 40.815 40.3125 41.75 C38.74314467735066 45.63602270370315 37.48207619803051 46.7112457654177 34 49 C30.627411640186804 49.96409032006955 27.323445429744673 50.68965920457733 23.8828125 51.333984375 C18.908209307762473 52.399300341639545 16.339192274147972 53.943452731595904 13 58 C11.592438701314437 61.21728296842414 12.161839700722652 63.64735880289061 13 67 C13.66 67 14.32 67 15 67 C16.76171875000002 69.01171875000003 16.76171875000002 69.01171875000003 18.6875 71.6875 C19.3307421875 72.5576171875 19.973984375 73.427734375 20.63671875 74.32421875 C22 77 22 77 21.70703125 79.83203125 C21.4737109375 80.5474609375 21.240390625 81.262890625 21 82 C20.34 82 19.68 82 19 82 C19.2049609375 82.65484375 19.409921875 83.3096875 19.62109375 83.984375 C24.117357832993257 99.21573849645563 22.32080108162579 112.52799278916143 20 128 C13.399999999999999 128 6.799999999999999 128 0 128 C0 85.75999999999999 0 43.519999999999996 0 0 Z " fill="#887CA5" transform="translate(0,0)"/>
<path d="M0 0 C3.218637629716426 1.2435645387540788 3.7835932628889566 2.2691040261284243 5.6875 5.0625 C8.00346112008529 8.420677592091707 8.00346112008529 8.420677592091707 11.6875 10.125 C15.107181570450237 10.055210580194895 18.367470617467873 9.554504273822857 21.75 9.0625 C24.687500000000014 9.5 24.687500000000014 9.5 26.75 10.0625 C24.875760958353425 17.007665396101558 21.911949788151958 22.299275598468455 17.75 28.125 C13.868940220777162 33.58566985844759 10.499162182043321 38.53677955160762 8.75 45.0625 C9.176722713507871 48.02330525482989 9.176722713507871 48.02330525482989 10.5 50.625 C14.546224179728753 59.70202957652485 13.75 67.96599207959858 13.75 78.0625 C-8.36 78.0625 -30.47 78.0625 -53.25 78.0625 C-54.49455929694878 68.10602562440978 -55.694243699130794 58.36492580435103 -56.1875 48.375 C-56.26806640625 47.24900390625001 -56.3486328125 46.12300781249999 -56.431640625 44.962890625 C-56.82300061054877 36.83129981415337 -56.82300061054877 36.83129981415337 -53.91796875 32.93359375 C-53.0375390625 32.3161328125 -52.157109375 31.698671875000002 -51.25 31.0625 C-50.38375 30.319999999999993 -49.5175 29.5775 -48.625 28.8125 C-45.39484454036098 26.432385450792296 -43.05792107000243 25.93764770847882 -39.16015625 26.10546875 C-38.37576171875 26.12673828125 -37.5913671875 26.148007812499998 -36.783203125 26.169921875 C-35.13954784651811 26.22319449667411 -33.49623119167586 26.288252469969123 -31.853515625 26.365234375 C-27.06426929904532 26.50699637501917 -27.06426929904532 26.50699637501917 -22.87109375 24.421875 C-21.032111031792795 21.745379670368294 -19.61729411572287 19.071370200457153 -18.25 16.125 C-14.80654450765303 8.723442134656388 -9.164242050498672 0.25456227918051866 0 0 Z " fill="#6C3F7A" transform="translate(90.25,49.9375)"/>
<path d="M0 0 C3.3000000000000003 0 6.6000000000000005 0 10 0 C11.687500000000002 2.1250000000000036 11.687500000000002 2.1250000000000036 13 5 C14.78761776627796 6.661671969108376 16.65469447152357 8.161758187800068 18.57421875 9.66796875 C19.0447265625 10.1075390625 19.515234375 10.547109375 20 11 C20 11.66 20 12.32 20 13 C20.8353125 13.37125 20.8353125 13.37125 21.6875 13.75 C27.28956108079722 16.778141124755255 30.64341773569495 20.874216876436265 34.1875 26 C34.62513671875 26.616171875 35.0627734375 27.23234375 35.513671875 27.8671875 C41 35.67368797709924 41 35.67368797709924 41 40.4375 C39.7818231389216 44.7772550675918 37.73094342953158 46.69957112588119 34 49 C30.695532876063517 50.19874548490361 27.2833904877997 50.75506542654713 23.833984375 51.3828125 C18.809033992169134 52.43265968349743 16.254298966464773 54.04791017355321 13 58 C11.592438701314437 61.21728296842414 12.161839700722652 63.64735880289061 13 67 C13.66 67 14.32 67 15 67 C16.76171875000002 69.01171875000003 16.76171875000002 69.01171875000003 18.6875 71.6875 C19.3307421875 72.5576171875 19.973984375 73.427734375 20.63671875 74.32421875 C22 77 22 77 21.70703125 79.83203125 C21.4737109375 80.5474609375 21.240390625 81.262890625 21 82 C20.34 82 19.68 82 19 82 C19.2049609375 82.65484375 19.409921875 83.3096875 19.62109375 83.984375 C24.117357832993257 99.21573849645563 22.32080108162579 112.52799278916143 20 128 C13.399999999999999 128 6.799999999999999 128 0 128 C0 85.75999999999999 0 43.519999999999996 0 0 Z " fill="#AE92B3" transform="translate(0,0)"/>
<path d="M0 0 C17.159999999999997 0 34.31999999999999 0 52 0 C52 15.180000000000001 52 30.360000000000003 52 46 C44.24548532731379 44.89221218961625 44.24548532731379 44.89221218961625 40.1875 42.5625 C33.064123045950254 38.816772908660774 25.987900943004604 37.6526999589998 18 38 C17.792460937499996 37.443125 17.584921874999992 36.88625 17.37109375 36.3125 C15.228944530830617 31.006423273019777 12.695536664963555 27.226719387536246 8.8125 23.05078125 C2.0431008756458624 15.391439568349302 0 10.461220306882208 0 0 Z " fill="#556ED7" transform="translate(76,0)"/>
<path d="M0 0 C4.481902312266236 1.408597869569391 7.3505088866185275 3.0659071346759887 10 7 C10.01965321793952 13.446255484163771 8.208889084784566 19.08962940108467 4 24 C2.9893750000000026 24.783749999999998 1.978749999999998 25.567499999999995 0.9375 26.375 C-3.1391893300208125 30.017998975763277 -4.79488290078482 33.75801029296005 -5.140625 39.22265625 C-5.126640964469985 41.148957144259995 -5.066386462007387 43.07479260178579 -5 45 C-5.329999999999998 45.66 -5.659999999999997 46.31999999999999 -6 47 C-6.028254742520474 48.77344377404492 -5.9880107168432914 50.54818586473961 -5.9140625 52.3203125 C-5.870798339843745 53.4065087890625 -5.827534179687504 54.492705078125 -5.782958984375 55.61181640625 C-5.730832519531248 56.7711669921875 -5.6787060546874955 57.930517578125006 -5.625 59.125 C-5.551644287109376 60.881428222656254 -5.551644287109376 60.881428222656254 -5.476806640625 62.67333984375 C-5.0987189895472085 71.4582820340728 -4.602015444789828 80.22777494734815 -4 89 C-9.61 89 -15.219999999999999 89 -21 89 C-21.10828646729884 82.9179100867153 -20.715764756929573 77.20058106894112 -19.875 71.1875 C-18.93277019649084 63.72605858302205 -19.289361599154383 57.359189362027124 -21 50 C-21.22481281397541 48.58585487983211 -21.435939161499295 47.169367190535155 -21.625 45.75 C-21.74875 44.8425 -21.872500000000002 43.935 -22 43 C-21.34 43 -20.68 43 -20 43 C-20.372499352429223 36.79167745951291 -21.987366631655416 34.424185508687614 -26 30 C-26 29.340000000000003 -26 28.680000000000007 -26 28 C-26.66 28 -27.32 28 -28 28 C-29.25 24.875 -29.25 24.875 -30 21 C-27.809232793467377 16.44320421041214 -25.438606669945315 14.258771109739612 -21 12 C-17.617708219574787 10.972445777382994 -14.162420710360166 10.273721880761258 -10.70703125 9.5390625 C-5.630816725473373 8.444329829970314 -5.630816725473373 8.444329829970314 -2 5 C-0.8097201615021419 2.4008446234805803 -0.8097201615021419 2.4008446234805803 0 0 Z " fill="#967192" transform="translate(41,39)"/>
<path d="M0 0 C3.21863762971644 1.2435645387540788 3.7835932628889566 2.269104026128417 5.6875 5.0625 C8.003461120085277 8.420677592091707 8.003461120085277 8.420677592091707 11.6875 10.125 C15.107181570450237 10.055210580194895 18.367470617467873 9.554504273822857 21.75 9.0625 C24.6875 9.5 24.6875 9.5 26.75 10.0625 C24.871272915598297 17.015026216947064 21.90075770856228 22.34235085968163 17.75 28.1875 C14.125977218651173 33.343416469117074 11.004982204636718 38.158831311471914 8.75 44.0625 C-6.129364815664914 43.370955308417365 -14.47484989384148 36.83531056139958 -25.25 27.0625 C-24.651875000000004 26.36125 -24.053749999999994 25.659999999999997 -23.4375 24.9375 C-21.25304638156679 22.0665038157735 -19.77960738507376 19.321228776896277 -18.25 16.0625 C-14.790711816186132 8.692712130135675 -9.130221053211116 0.2536172514780901 0 0 Z " fill="#8B4662" transform="translate(90.25,49.9375)"/>
<path d="M0 0 C13.871966959215282 2.7743933918430628 13.871966959215282 2.7743933918430628 19 8 C20.760639682133714 11.244195086423431 21.42745611479884 14.372153745589017 22 18 C22.162421875 18.826289062499995 22.32484375 19.652578125000005 22.4921875 20.50390625 C24.02881573256633 31.27598375788847 21.598622273394707 42.34251817736862 20 53 C13.399999999999999 53 6.799999999999999 53 0 53 C0 35.50999999999999 0 18.019999999999996 0 0 Z " fill="#AFB8D0" transform="translate(0,75)"/>
<path d="M0 0 C4.315245471357102 2.7742229414883326 8.182490302587752 6.032139873551529 12.02197265625 9.4228515625 C14.459901158103804 11.483852111584909 17.047656823198594 13.172017271843814 19.7431640625 14.8779296875 C15.974016338849367 21.105759866644576 11.967604874623404 27.09125369478741 7.5556640625 32.8779296875 C7.140102539062497 33.42924560546875 6.724541015624993 33.9805615234375 6.29638671875 34.548583984375 C4.034948459267881 37.47326293291354 1.8317582435846163 39.833067333126735 -1.2568359375 41.8779296875 C-5.344248045531941 36.53897369506181 -8.19695849179665 31.12485421727851 -10.9443359375 25.0029296875 C-11.713336116724847 23.29460532241208 -12.48779816415091 21.58872564697596 -13.2685546875 19.8857421875 C-13.770684814453126 18.76643310546875 -13.770684814453126 18.76643310546875 -14.282958984375 17.62451171875 C-15.140225647308299 15.701484332039882 -15.140225647308299 15.701484332039882 -17.2568359375 14.8779296875 C-17.2568359375 14.217929687500003 -17.2568359375 13.557929687500007 -17.2568359375 12.8779296875 C-17.813710937499998 12.671679687500003 -18.370585937499996 12.465429687500006 -18.9443359375 12.2529296875 C-22.181848961208452 10.327921943673346 -23.939147346622107 7.839420664732856 -26.2568359375 4.8779296875 C-25.291972259093214 2.2464832918451236 -24.694221914159108 1.1031508247349109 -22.1630859375 -0.2001953125 C-15.257081786011952 -2.390809532595668 -6.675497649267939 -3.318973084815596 0 0 Z " fill="#531A3A" transform="translate(66.2568359375,77.1220703125)"/>
<path d="M0 0 C1.0828125000000028 1.113749999999996 1.0828125000000028 1.113749999999996 2.1875 2.25 C4.907110466936828 5.012672692977674 4.907110466936828 5.012672692977674 7.8125 7.1875 C8.534374999999997 7.785624999999996 9.256250000000001 8.383749999999992 10 9 C10 9.659999999999997 10 10.319999999999993 10 11 C10.990000000000002 11.329999999999998 11.980000000000004 11.659999999999997 13 12 C14.195068359375 13.9619140625 14.195068359375 13.9619140625 15.33984375 16.515625 C15.763300781249995 17.437304687500003 16.186757812500005 18.358984375000006 16.623046875 19.30859375 C17.05681640625 20.279257812499992 17.4905859375 21.249921875 17.9375 22.25 C20.955968039236915 29.37066749086783 20.955968039236915 29.37066749086783 25.37890625 35.609375 C27 38 27 38 26 47 C16.759999999999998 47 7.519999999999996 47 -2 47 C-3.452903986983621 37.120252888511374 -4.3828733962949755 27.284672451597473 -4.9375 17.3125 C-5.019274902343753 16.178286132812502 -5.101049804687499 15.044072265625005 -5.185302734375 13.87548828125 C-5.56093005073123 5.946369480062117 -5.56093005073123 5.946369480062117 -3.88720703125 3.12255859375 C-2.50390625 1.73046875 -2.50390625 1.73046875 0 0 Z " fill="#7C3B42" transform="translate(39,81)"/>
<path d="M0 0 C4.950000000000003 0 9.900000000000006 0 15 0 C15.082499999999996 1.32 15.164999999999992 2.64 15.25 4 C16.309721356610282 12.937913020884023 20.710323323688613 18.1623899282463 26.87890625 24.5078125 C30.34305611140553 28.578029095905574 32.224426960942964 32.726103334412095 33 38 C28.34998702389747 42.1333448676467 24.41037156406844 42.72340356691494 18.2421875 42.5234375 C10.867996063086409 41.33290538849829 3.904649768567211 37.66264109643669 -1 32 C-4.065283107565577 22.80415067730327 -1.8659380605812075 9.329690302906045 0 0 Z " fill="#6E7BC1" transform="translate(61,0)"/>
<path d="M0 0 C3.3000000000000003 0 6.6000000000000005 0 10 0 C10 1.98 10 3.96 10 6 C10.66 6 11.32 6 12 6 C13.444773254600126 7.974523447953505 14.736703292662876 9.91297557302456 16 12 C16.36085693359375 12.59578857421875 16.7217138671875 13.1915771484375 17.093505859375 13.805419921875 C21.33373590814133 21.01390877351303 22.858190377649677 26.77087118469428 21 35 C17.384144676197895 41.953567930388665 11.251753308071994 47.099298676771205 4 50 C2.6799999999999997 50 1.3599999999999999 50 0 50 C0 33.5 0 17 0 0 Z " fill="#C8B4C2" transform="translate(0,0)"/>
<path d="M0 0 C0 19.14 0 38.28 0 58 C-4.950000000000003 58 -9.900000000000006 58 -15 58 C-15.36941850161962 50.33456609139283 -15.703201808978264 42.668588347846566 -16 35 C-16.031582031249997 34.240258789062494 -16.063164062499993 33.480517578125 -16.095703125 32.69775390625 C-16.489444620111044 22.40747137055945 -15.720266162366173 13.256326999478432 -9 5 C-3.960212201591517 0 -3.960212201591517 0 0 0 Z " fill="#E2A7D2" transform="translate(128,70)"/>
<path d="M0 0 C0 5.280000000000001 0 10.560000000000002 0 16 C-1.980000000000004 16.989999999999995 -3.960000000000008 17.980000000000004 -6 19 C-13.659295245997 26.837418391252754 -15.167056336489722 35.04655646164926 -15.09765625 45.58203125 C-15.096241302490228 46.39621017456054 -15.09482635498047 47.2103890991211 -15.093368530273438 48.04924011230469 C-15.087793167463403 50.63703155986036 -15.075245242013551 53.22473491872161 -15.0625 55.8125 C-15.057481814414231 57.57226437106006 -15.052919464091403 59.33203010500364 -15.048828125 61.091796875 C-15.037831808571354 65.39456493562857 -15.020584206139716 69.69726755660959 -15 74 C-17.97 74 -20.939999999999998 74 -24 74 C-24.146953124999996 71.82664062500001 -24.146953124999996 71.82664062500001 -24.296875 69.609375 C-24.444200075728205 67.65596614040196 -24.595504969424255 65.70285486819216 -24.75 63.75 C-24.829277343749993 62.7388916015625 -24.9085546875 61.727783203125 -24.990234375 60.68603515625 C-25.49180099255875 55.15368422037588 -26.266606081062932 50.517320566441526 -28.5 45.375 C-29.74889180200617 42.08374754433713 -30.14802803991431 40.58176611385679 -29.2734375 37.14453125 C-27.737153912193122 33.896020981927904 -25.983807000642784 30.997590725235966 -24 28 C-23.396718750000005 27.087827148437498 -23.396718750000005 27.087827148437498 -22.78125 26.1572265625 C-21.05279187737959 23.552682577423354 -19.317290545855315 20.954283531334596 -17.54345703125 18.38037109375 C-15.20073274882354 14.953925513945848 -13.271488412321531 11.69932754072056 -11.75 7.8125 C-9.517366918307204 2.2309172957679877 -6.013571597061386 0 0 0 Z " fill="#AC6F9D" transform="translate(128,54)"/>
<path d="M0 0 C2.8605372997586755 1.2476811626607045 5.758668027453979 2.315854495798682 8.6953125 3.37109375 C9.626015625000008 3.706249999999997 10.556718750000002 4.041406250000001 11.515625 4.38671875 C12.193671875000007 4.629062500000003 12.87171875 4.87140625 13.5703125 5.12109375 C13.5703125 7.761093750000001 13.5703125 10.401093750000001 13.5703125 13.12109375 C11.877604166666657 13.8046875 10.184895833333343 14.48828125 8.4921875 15.171875 C6.471345080649968 16.077669919223737 6.471345080649968 16.077669919223737 4.64453125 17.71875 C2.0782132607894965 19.453793612291093 0.6924071723391734 19.406380681986953 -2.3671875 19.24609375 C-5.264776158847496 19.139877156933743 -7.409303349859982 19.11611095774355 -10.2421875 19.80859375 C-12.4296875 20.12109375 -12.4296875 20.12109375 -14.9921875 19.05859375 C-17.888965780772764 16.756026398616527 -19.41296663990491 14.209197567020595 -21.4296875 11.12109375 C-22.316562500000003 10.461093750000003 -23.203437500000007 9.80109375 -24.1171875 9.12109375 C-26.4296875 7.12109375 -26.4296875 7.12109375 -27.2421875 3.87109375 C-27.3040625 2.963593750000001 -27.3659375 2.0560937500000023 -27.4296875 1.12109375 C-18.978616388166543 -6.156217485189927 -9.727311215243475 -4.269382575179215 0 0 Z " fill="#5B387F" transform="translate(114.4296875,40.87890625)"/>
<path d="M0 0 C2.969999999999999 1.3199999999999932 5.940000000000001 2.6400000000000006 9 4 C9 4.659999999999997 9 5.319999999999993 9 6 C9.990000000000002 6.329999999999998 10.980000000000004 6.659999999999997 12 7 C12.43185088341557 11.695229817560758 12.858921026888268 16.390862108160434 13.28173828125 21.0869140625 C13.425961156602995 22.681431847722607 13.57144596521431 24.275836051790236 13.71826171875 25.8701171875 C13.930153019971442 28.173534189893687 14.137367636851586 30.47733363752107 14.34375 32.78125 C14.442182006835935 33.83487731933593 14.442182006835935 33.83487731933593 14.5426025390625 34.9097900390625 C14.602664794921878 35.58989135742188 14.66272705078125 36.26999267578125 14.724609375 36.970703125 C14.804551391601564 37.850065307617186 14.804551391601564 37.850065307617186 14.8861083984375 38.7471923828125 C15.058676949879974 42.16064642018745 15 45.58218660980177 15 49 C9.39 49 3.780000000000001 49 -2 49 C-2.1082864672988357 42.917910086715295 -1.7157647569295733 37.20058106894112 -0.875 31.1875 C0.06722980350916075 23.726058583022052 -0.28936159915438253 17.359189362027124 -2 10 C-2.224812813975408 8.585854879832098 -2.435939161499295 7.169367190535141 -2.625 5.75 C-2.748750000000001 4.842500000000001 -2.8724999999999987 3.9350000000000023 -3 3 C-2.34 3 -1.6799999999999997 3 -1 3 C-0.6700000000000017 2.010000000000005 -0.33999999999999986 1.019999999999996 0 0 Z " fill="#997E88" transform="translate(22,79)"/>
<path d="M0 0 C10.742596810933946 2.7061503416856496 10.742596810933946 2.7061503416856496 14 7 C11 9 11 9 8.125 9 C3.791355487090854 7.613233755869075 2.5746178141311162 5.710478614483073 0 2 C0 1.3400000000000034 0 0.6799999999999997 0 0 Z " fill="#531A3A" transform="translate(94,52)"/>
</svg>
