<?xml version="1.0" encoding="UTF-8"?>
<!-- Generator: visioncortex VTracer 0.6.0 -->
<svg version="1.1" xmlns="http://www.w3.org/2000/svg" width="128" height="128">
<path d="M0 0 C42.24 0 84.48 0 128 0 C128 42.24 128 84.48 128 128 C85.75999999999999 128 43.519999999999996 128 0 128 C0 85.75999999999999 0 43.519999999999996 0 0 Z " fill="#6A677A" transform="translate(0,0)"/>
<path d="M0 0 C42.24 0 84.48 0 128 0 C128 24.75 128 49.5 128 75 C121.0962137468108 73.8493689578018 118.38285013057036 72.27695155720673 114 67 C111.64731984320085 62.80186889451894 109.80063078784723 58.45844808847203 108 54 C105.20867383967388 46.65737027005649 105.20867383967388 46.65737027005649 100 41 C93.14422019255686 38.776503846234654 87.23599101803187 39.820867324140615 81 43 C80.01 43.989999999999995 80.01 43.989999999999995 79 45 C74.87018458731016 44.71018839209194 71.06178241574872 44.027053071748696 67.0625 43 C59.30836287689034 41.243836540062276 47.77626492200543 38.78856290171118 40.625 42.875 C40.0462109375 43.2565625 39.467421875 43.638125 38.87109375 44.03125 C36.42292365877149 45.298778564978434 34.43206286518815 45.282616397244716 31.6875 45.375 C23.712250890878153 45.873453069320114 16.772485456365438 49.53762329590604 11.375 55.4375 C8.067620832312235 60.30905279115263 8.318473776912743 65.69347879821316 8.30078125 71.4140625 C7.96778884458892 75.38402390477106 7.259434591637923 77.72160471017243 5 81 C2.5249999999999995 81.495 2.5249999999999995 81.495 0 82 C0 54.94 0 27.879999999999995 0 0 Z " fill="#8EB2BC" transform="translate(0,0)"/>
<path d="M0 0 C-0.39600080368863644 5.412010983744679 -2.1046263043526636 9.262994045619884 -6 13 C-8.726391604537582 14.4698686445195 -11.521130630556769 15.30696851512699 -14.5 16.125 C-20.351181316387148 17.792435090162144 -23.908270164485927 19.225103904204715 -28 24 C-33.48116195384918 29.889695764073963 -38.90204293096021 34.160121585601416 -46 38 C-43.51610568823773 40.55486272066976 -41.20127195249879 42.862769123296275 -38.25 44.875 C-35.196081332474044 47.75925651933008 -35.49706510965674 49.87903285156382 -35 54 C-34.49428476383823 56.25344613004725 -33.97324285191175 58.50350340357778 -33.4375 60.75 C-31.770816723722092 68.37609225926185 -31.0963816005155 75.38552640206201 -33 83 C-47.85 83 -62.7 83 -78 83 C-78 67.82 -78 52.64 -78 37 C-76.35 36.34 -74.7 35.68000000000001 -73 35 C-70.63414766515864 31.04503600651519 -70.80540860388375 27.207918600182325 -70.75 22.6875 C-70.49794731177255 17.043295764706045 -69.81122380403234 12.943377134420459 -65.95703125 8.6484375 C-60.32607553350721 3.9053969563673476 -54.25298524195122 0.047151091181468985 -46.875 -0.3125 C-43.05196542548558 -0.6031688658458165 -40.566624482440794 -1.014175626385743 -37.375 -3.125 C-27.053432744689644 -8.896651893785787 -10.558213224339823 -3.0552030191562096 0 0 Z " fill="#80829A" transform="translate(78,45)"/>
<path d="M0 0 C32.01 0 64.02 0 97 0 C98.32 3.6300000000000003 99.64 7.260000000000001 101 11 C101.598125 12.093125 102.19625 13.186250000000001 102.8125 14.3125 C104.344897694493 17.780557940168382 104.21743482895509 19.42378518994442 103 23 C98.03450463021692 28.729417734365093 98.03450463021692 28.729417734365093 93.6796875 29.30859375 C87.0878547913381 29.61156099148446 83.46465869136011 28.7402178321104 78.36328125 24.5078125 C77 23.000000000000004 77 23.000000000000004 77 21 C76.4444140625 20.765390625 75.888828125 20.53078125 75.31640625 20.2890625 C72.4395164268654 18.688095144798616 70.34961614747074 16.6130459100244 67.9375 14.375 C63.38910640632928 10.706361482999807 60.17689272599511 8.434715018491712 54.234375 8.8984375 C47.872483636094 11.065168616692624 42.54220093177301 15.167594246224532 37.13671875 19.08203125 C29.75897335281587 24.34472319998597 24.567907727640183 26.055342446802804 15.59326171875 24.61328125 C13.191786537952664 24.12666013940277 10.818308719776653 23.57960516593041 8.4375 23 C5.653124999999999 22.34 2.8687499999999995 21.68 0 21 C0 14.07 0 7.139999999999999 0 0 Z " fill="#BCD6C7" transform="translate(0,0)"/>
<path d="M0 0 C0 15.510000000000005 0 31.02000000000001 0 47 C-14.52000000000001 47 -29.040000000000006 47 -44 47 C-44.989999999999995 44.03 -45.980000000000004 41.06 -47 38 C-47.5530078125 36.74896484375 -47.5530078125 36.74896484375 -48.1171875 35.47265625 C-49.40693709984427 31.860215999108746 -49.73686616801041 28.239936370477125 -50.125 24.4375 C-50.2099169921875 23.645532226562494 -50.294833984375 22.853564453125003 -50.38232421875 22.03759765625 C-51.02267633829368 15.681748550195692 -51.22543569193817 9.387344604915015 -51 3 C-46.14375325235237 2.6275237660993866 -43.96904816440582 3.283498733983393 -40.1875 6.3125 C-35.71619814331501 9.620590997727845 -31.574478397402856 12.174548391153806 -26 13 C-21.819550230882598 12.196067352092811 -18.502939935622763 10.402015955855603 -15 8 C-14.670000000000002 7.340000000000003 -14.340000000000003 6.680000000000007 -14 6 C-13.340000000000003 6 -12.680000000000007 6 -12 6 C-12 5.340000000000003 -12 4.680000000000007 -12 4 C-7.988731723003312 1.214397029863406 -4.85096691551945 0 0 0 Z " fill="#8471A4" transform="translate(128,81)"/>
<path d="M0 0 C10.230000000000004 0 20.460000000000008 0 31 0 C31 24.75 31 49.5 31 75 C24.096213746810818 73.8493689578018 21.38285013057036 72.27695155720671 17 67 C14.647319843200847 62.80186889451893 12.800630787847226 58.458448088472025 11 54 C8.208673839673878 46.65737027005649 8.208673839673878 46.65737027005649 3 41 C-0.6483169612184128 40.05017954975176 -4.053590433731458 39.892211932936526 -7.8125 39.9375 C-9.524375000000006 39.958125 -11.236249999999998 39.97875 -13 40 C-12.670000000000002 36.37 -12.340000000000003 32.74 -12 29 C-9.432187499999998 28.8453125 -9.432187499999998 28.8453125 -6.8125 28.6875 C-0.9124349381937975 28.13709927589822 -0.9124349381937975 28.13709927589822 4 25 C6.1685246203404205 21.25436656486654 6.067637128980294 19.097579372119913 5 15 C3.771322655448614 12.159942531446813 2.4191432125195718 9.40000639157681 1.05859375 6.62109375 C0 4 0 4 0 0 Z " fill="#97B0B0" transform="translate(97,0)"/>
<path d="M0 0 C3.317047993017823 1.8039078762490277 5.745681872212117 3.9719594614404343 8 7 C9.184696847198069 11.11421463163559 9.299569216320464 15.110646362649845 9.375 19.375 C9.460232454049518 21.54971897908169 9.55128037650104 23.724218628185383 9.6484375 25.8984375 C9.6927490234375 26.934924316406253 9.737060546875 27.971411132812506 9.78271484375 29.039306640625 C10.275671159444641 35.75625185458999 11.943239010280863 41.02542170191259 15 47 C15 48.31999999999999 15 49.64 15 51 C2.1299999999999955 51 -10.740000000000002 51 -24 51 C-24 46.05 -24 41.099999999999994 -24 36 C-24.53761381591778 31.34995327249483 -24.53761381591778 31.34995327249483 -25.4375 27.375 C-25.704335937499998 26.083359375 -25.971171875000003 24.79171875 -26.24609375 23.4609375 C-26.494882812500002 22.318828124999996 -26.743671874999997 21.176718749999992 -27 20 C-27.336291633385528 18.3339277247959 -27.670968044482933 16.667521172620454 -28 15 C-26.27744283460754 13.533865529981199 -24.54666215605664 12.07738944113595 -22.8125 10.625 C-21.8495703125 9.812890624999994 -20.886640625 9.000781250000003 -19.89453125 8.1640625 C-17.26884404070053 6.2009981087018815 -15.08824959484459 5.02753460011283 -12 4 C-12 3.3400000000000034 -12 2.680000000000007 -12 2 C-8.280454717905563 -0.47969685472962453 -4.300121002264703 -0.977211523432743 0 0 Z " fill="#5563AA" transform="translate(69,77)"/>
<path d="M0 0 C1.1020275878906247 0.07528930664062727 1.1020275878906247 0.07528930664062727 2.226318359375 0.152099609375 C10.108535333435661 0.8119631397831952 17.610452918695586 2.744949364090921 25.1875 4.9375 C24.791499196311364 10.349510983744672 23.082873695647322 14.200494045619884 19.1875 17.9375 C16.461108395462418 19.407368644519508 13.66636936944326 20.244468515126982 10.6875 21.0625 C4.8357222210922615 22.73010506652811 1.2799673263563704 24.162954785917563 -2.8125 28.9375 C-8.347660752340424 34.8776725147068 -15.197802995157716 42.16480771139774 -23.8125 42.9375 C-26.910278802455572 41.59992834316762 -28.453808109402363 40.54594011241777 -30.17578125 37.625 C-32.68626515141994 30.517127884045607 -34.644118503137385 23.21687097963128 -32.08203125 15.83203125 C-28.324162442384846 8.638396675422413 -22.863344363668126 6.364251034739709 -15.53125 3.96484375 C-12.765072198164717 3.0439826524520726 -12.765072198164717 3.0439826524520726 -10.45703125 1.3125 C-6.91219007634507 -0.5306079662134948 -3.866985552592503 -0.3138973316466789 0 0 Z " fill="#A1796D" transform="translate(52.8125,40.0625)"/>
<path d="M0 0 C2.8515625 1.8632812500000018 2.8515625 1.8632812500000018 5.625 4.3125 C7.005585937500001 5.51326171875 7.005585937500001 5.51326171875 8.4140625 6.73828125 C9.267421874999997 7.484648437499999 10.120781249999993 8.231015624999998 11 9 C11.770859375 9.5504296875 12.541718750000001 10.100859374999999 13.3359375 10.66796875 C13.885078125000007 11.107539062500003 14.43421875 11.547109374999998 15 12 C15 12.66 15 13.32 15 14 C15.5775 14.268124999999998 16.155 14.536250000000003 16.75 14.8125 C22.4888178913738 17.841320553780623 22.4888178913738 17.841320553780623 23.9375 21.125 C24.0490352214363 26.25562018606984 22.512071742576495 31.095909657496264 19.3125 35.125 C14.095941206121836 37.09883305714308 8.065784581549593 34.80937637579692 2.83203125 33.5078125 C0.44521025546940507 33.079830804428994 -1.7627744127871807 32.86983711708305 -4.17578125 32.7421875 C-15.762142579583838 32.039455185785 -15.762142579583838 32.039455185785 -19.2421875 29.1171875 C-21.462683889128023 25.416360184786626 -21.989462457771168 22.621714991501097 -22.0625 18.3125 C-19.58468943142399 10.587561168557137 -14.149149798171756 5.97392618809646 -8 1 C-5.1276525231261445 -0.4361737384369295 -3.190843018477736 -0.3283555164293066 0 0 Z " fill="#7EB0CE" transform="translate(62,9)"/>
<path d="M0 0 C0.9100781249999983 0.00902343749999801 1.8201562499999966 0.018046875000003126 2.7578125 0.02734375 C3.8058203125000034 0.044746093749999716 3.8058203125000034 0.044746093749999716 4.875 0.0625 C4.875 0.3924999999999983 4.875 0.7224999999999966 4.875 1.0625 C4.283320312500003 1.2094531250000031 3.691640624999998 1.3564062499999991 3.08203125 1.5078125 C-2.8659446590275692 3.196144976624467 -5.68279668780653 4.8991950317097945 -9.125 10.0625 C-11.735396822626665 17.893690467879992 -10.156992395119538 25.206862593956387 -7.09765625 32.65234375 C-4.847140762463344 38.22892228739002 -4.847140762463344 38.22892228739002 -6.125 42.0625 C-6.281354503706286 45.841067172901944 -6.378547967007226 49.61738192726634 -6.453125 53.3984375 C-7.279774466377415 57.90656075268613 -8.464169864185486 59.36238495507604 -12.125 62.0625 C-18.3475942467243 63.875315397080925 -24.767692114112677 62.64633439768353 -31.125 62.0625 C-31.125 53.8125 -31.125 45.5625 -31.125 37.0625 C-29.475 36.4025 -27.825 35.74250000000001 -26.125 35.0625 C-23.759147665158636 31.10753600651519 -23.93040860388375 27.270418600182325 -23.875 22.75 C-23.622947311772542 17.105795764706045 -22.936223804032338 13.005877134420459 -19.08203125 8.7109375 C-13.492651049994944 4.002916652889951 -7.382423773237264 -0.09464645863124588 0 0 Z " fill="#849498" transform="translate(31.125,44.9375)"/>
<path d="M0 0 C11.879999999999995 0 23.760000000000005 0 36 0 C37.31999999999999 3.6300000000000003 38.64 7.260000000000001 40 11 C40.59812500000001 12.093125 41.19624999999999 13.186250000000001 41.8125 14.3125 C43.344897694493 17.780557940168382 43.21743482895509 19.42378518994442 42 23 C37.034504630216915 28.72941773436509 37.034504630216915 28.72941773436509 32.6796875 29.30859375 C26.087854791338103 29.61156099148446 22.464658691360114 28.740217832110403 17.36328125 24.5078125 C16 23 16 23 16 21 C15.456015624999992 20.7641015625 14.912031249999998 20.528203125 14.3515625 20.28515625 C11.375322146564713 18.658606289401646 8.971303580879407 16.617415270738366 6.375 14.4375 C2.8893331879792328 11.41267743593285 2.8893331879792328 11.41267743593285 -1 9 C-0.6700000000000017 6.029999999999999 -0.3400000000000034 3.0599999999999996 0 0 Z " fill="#CDE7E0" transform="translate(61,0)"/>
<path d="M0 0 C5.703454242933077 5.83609271369896 7.096855353749163 10.381920464762388 7.125 18.375 C7.093062441220496 20.250190951196785 7.054601977668781 22.125332100038577 7 24 C1.5157278712509026 24.368690563277255 1.5157278712509026 24.368690563277255 -0.8359375 22.6875 C-1.5977734374999955 21.8521875 -1.5977734374999955 21.8521875 -2.375 21 C-5.009929868628291 18.51697296193565 -6.534930837389567 17.569276566164405 -10.1875 17.5625 C-14.159836348573222 18.005508084573847 -14.159836348573222 18.005508084573847 -18 19 C-18 19.659999999999997 -18 20.319999999999993 -18 21 C-20.213553093045277 22.831803963362333 -22.41824301076518 24.519646042422323 -24.75 26.1875 C-25.384218750000002 26.663808593750005 -26.018437500000005 27.140117187499996 -26.671875 27.630859375 C-27.290625 28.076230468749998 -27.909374999999997 28.521601562499995 -28.546875 28.98046875 C-29.3952392578125 29.597647705078117 -29.3952392578125 29.597647705078117 -30.2607421875 30.227294921875 C-32.58480990705672 31.25981518189704 -33.64960271812564 30.87806528944222 -36 30 C-39.939409880921254 27.715142269065666 -42.17130142774745 26.153758185545072 -44 22 C-42.88625 21.525625000000005 -41.7725 21.051249999999996 -40.625 20.5625 C-33.866581143497235 17.201297016304125 -28.479221969096614 11.721097283154819 -23.4375 6.1875 C-17.87004614307807 1.1910670514803172 -6.881355433788272 -4.346119221339961 0 0 Z " fill="#625175" transform="translate(75,60)"/>
<path d="M0 0 C3.840962749845815 3.993381906585725 5.760636066511566 8.508754793839273 7.8125 13.5625 C8.13669921875001 14.31724609375 8.460898437499992 15.071992187500001 8.794921875 15.849609375 C9.095917968750001 16.58115234375 9.396914062500002 17.312695312499997 9.70703125 18.06640625 C10.116590576171873 19.055560302734378 10.116590576171873 19.055560302734378 10.534423828125 20.064697265625 C11.103460069007582 22.430061860001665 10.894773342710948 23.748069612420494 10 26 C5.024977682978502 29.123121265259556 -0.05749695043699887 31.154166908695473 -5.9375 30.6875 C-9.742635485945925 28.590792691417548 -11.416387079449123 26.469423064739743 -14 23 C-14.659999999999997 22.67 -15.319999999999993 22.340000000000003 -16 22 C-16.988272818949753 20.2869937804871 -17.97203018235591 18.57089541527538 -18.9140625 16.83203125 C-20.05560906065587 14.777807586884464 -20.05560906065587 14.777807586884464 -22.25 12.4375 C-24 10 -24 10 -24.625 7 C-23.725461839500184 2.682216829600854 -21.581123767966815 1.410371766900738 -18 -1 C-12.327133153240254 -3.3789441615444105 -5.5315070944049864 -2.1917292260849948 0 0 Z " fill="#557874" transform="translate(102,41)"/>
<path d="M0 0 C10.230000000000004 0 20.460000000000008 0 31 0 C31 8.91 31 17.82 31 27 C19.73116188624209 25.873116188624206 19.73116188624209 25.873116188624206 16.1875 24.125 C15.500429687500002 23.797578125 14.813359375000005 23.47015625 14.10546875 23.1328125 C13.410664062500004 22.758984375 12.715859375000008 22.38515625 12 22 C11.167265624999999 21.6145703125 10.334531249999998 21.229140625 9.4765625 20.83203125 C6.123320096346674 18.35147811543626 4.8048793488767245 15.286399913638899 3.1875 11.5625 C2.876191406250001 10.89412109375 2.5648828125000023 10.2257421875 2.244140625 9.537109375 C0.6823011850639773 6.073601693911113 0 3.8576223721464222 0 0 Z " fill="#AD9A82" transform="translate(97,0)"/>
<path d="M0 0 C-0.3970531651091562 5.4263932564919415 -2.1157962224786075 9.241206543599546 -6 13 C-8.762017795175154 14.578394477152813 -11.587111746492383 15.522504647194381 -14.625 16.4375 C-15.388125000000002 16.692089843749997 -16.151250000000005 16.9466796875 -16.9375 17.208984375 C-20.04614418632108 18.220657175986943 -22.71356808285836 19 -26 19 C-26.041249999999998 18.154375 -26.082499999999996 17.308750000000003 -26.125 16.4375 C-27.732267327812167 10.123235497880778 -31.916103966839607 6.4841690075924205 -37.375 3.1875 C-38.063359375 2.809804687499998 -38.75171875 2.432109374999996 -39.4609375 2.04296875 C-39.968828125 1.6987890624999977 -40.47671875 1.3546093750000026 -41 1 C-41 0.3400000000000034 -41 -0.3200000000000003 -41 -1 C-29.289933951899755 -9.221961267815068 -12.663550100105084 -3.6644189387921813 0 0 Z " fill="#9B8BA2" transform="translate(78,45)"/>
<path d="M0 0 C1.0209375000000023 0.9899999999999949 1.0209375000000023 0.9899999999999949 2.0625 2 C2.0625 2.6599999999999966 2.0625 3.319999999999993 2.0625 4 C3.052500000000009 4.329999999999998 4.04249999999999 4.659999999999997 5.0625 5 C6.23046875 6.707031250000014 6.23046875 6.707031250000014 7.25 8.8125 C7.594179687500002 9.499570312499998 7.9383593750000045 10.186640624999995 8.29296875 10.89453125 C9.0625 13 9.0625 13 9.0625 17 C-3.8075000000000045 17 -16.677500000000002 17 -29.9375 17 C-29.6075 15.349999999999994 -29.277500000000003 13.700000000000003 -28.9375 12 C-27.947499999999998 12 -26.957500000000003 12 -25.9375 12 C-24.449310258537032 10.202712353740694 -24.449310258537032 10.202712353740694 -23.125 7.875 C-16.87734864141997 -1.953811318460879 -16.87734864141997 -1.953811318460879 -11.97265625 -3.69921875 C-7.437200726485187 -4.369525996277616 -3.6659994310719384 -2.4959996126447237 0 0 Z " fill="#3F2E73" transform="translate(74.9375,111)"/>
<path d="M0 0 C1.002890624999992 0.10183593749999886 2.0057812499999983 0.20367187499999773 3.0390625 0.30859375 C3.8099218750000006 0.39238281250000284 4.580781250000001 0.4761718750000057 5.375 0.5625 C5.375 2.8725000000000023 5.375 5.1825000000000045 5.375 7.5625 C0.09499999999999886 7.5625 -5.185000000000002 7.5625 -10.625 7.5625 C-10.954999999999998 6.902500000000003 -11.284999999999997 6.242500000000007 -11.625 5.5625 C-11.295000000000002 4.902500000000003 -10.965000000000003 4.242500000000007 -10.625 3.5625 C-9.965000000000003 3.5625 -9.305000000000007 3.5625 -8.625 3.5625 C-8.295000000000002 2.572500000000005 -7.965000000000003 1.582499999999996 -7.625 0.5625 C-4.8965793870460175 -0.8017103064769913 -3.0154668216389098 -0.31557210924128754 0 0 Z " fill="#3F2E73" transform="translate(122.625,120.4375)"/>
<path d="M0 0 C0.990000000000002 0.3299999999999983 1.9799999999999969 0.6599999999999966 3 1 C3 2.319999999999993 3 3.6400000000000006 3 5 C1.6799999999999997 5 0.35999999999999943 5 -1 5 C-0.6700000000000017 3.3499999999999943 -0.3400000000000034 1.7000000000000028 0 0 Z " fill="#625175" transform="translate(46,123)"/>
</svg>
