<?xml version="1.0" encoding="UTF-8"?>
<!-- Generator: visioncortex VTracer 0.6.0 -->
<svg version="1.1" xmlns="http://www.w3.org/2000/svg" width="128" height="128">
<path d="M0 0 C42.24 0 84.48 0 128 0 C128 42.24 128 84.48 128 128 C85.75999999999999 128 43.519999999999996 128 0 128 C0 85.75999999999999 0 43.519999999999996 0 0 Z " fill="#6E3124" transform="translate(0,0)"/>
<path d="M0 0 C0.8546484375000034 0.18369140624999858 1.7092968750000068 0.3673828125000007 2.58984375 0.556640625 C16.863203762542142 3.7686947599269125 16.863203762542142 3.7686947599269125 19.875 8.4375 C20.53515625 11.562499999999957 20.53515625 11.562499999999957 20.9375 15.4375 C21.012749023437493 16.148256835937502 21.087998046875 16.859013671875005 21.16552734375 17.59130859375 C21.325707232277182 19.10954972273852 21.481177689668314 20.628293912717183 21.63232421875 22.1474609375 C21.863267524847075 24.32678509362737 22.143157121543766 26.493051077633268 22.44140625 28.6640625 C25.264154972271925 50.070108199692584 27.72455056319285 72.46986331180412 15.875 91.4375 C14.875332031249997 93.06171875000001 14.875332031249997 93.06171875000001 13.85546875 94.71875 C12.718417589874818 96.49973118554344 11.547120433435296 98.26008460148492 10.3203125 99.98046875 C8.390326385354143 103.02650898002301 8.390326385354143 103.02650898002301 6.875 109.4375 C-3.6850000000000023 109.4375 -14.245000000000005 109.4375 -25.125 109.4375 C-26.114999999999995 107.1275 -27.105000000000004 104.8175 -28.125 102.4375 C-31.76836280077891 99.1678154351984 -35.59991523276105 97.8971860623033 -40.1875 96.4375 C-47.95490098270091 93.93467079446305 -51.40546243100226 90.8765352610842 -55.109375 83.65625 C-58.241189571257706 76.81443970586778 -56.65470322789028 71.26223892416442 -54.125 64.4375 C-52.70828887625245 61.5961631652214 -51.174773054391636 58.852766932856156 -49.59765625 56.09765625 C-46.64590664708906 50.76571598585585 -44.650188879999845 45.10273386548225 -42.79296875 39.3125 C-38.35693502520962 25.697231448382873 -38.35693502520962 25.697231448382873 -32.91796875 20.40234375 C-29.89583605323098 17.090507701035257 -27.99142353126163 13.112814551546286 -25.8984375 9.171875 C-19.74742509763653 -0.31206482743266406 -10.360742278559627 -2.57835823827169 0 0 Z " fill="#B67569" transform="translate(76.125,18.5625)"/>
<path d="M0 0 C13.530000000000001 0 27.060000000000002 0 41 0 C39.87807494279177 8.97540045766588 39.87807494279177 8.97540045766588 37.8203125 13.6875 C37.38742919921875 14.70835693359375 36.9545458984375 15.7292138671875 36.508544921875 16.781005859375 C36.05197509765625 17.84327392578125 35.5954052734375 18.9055419921875 35.125 20 C32.101204655681826 27.24115240151679 29.338794543029785 34.15091124064188 28.1875 41.9375 C27.360573497124285 47.50624281307211 26.067918368252162 51.682897470214066 23.31640625 56.578125 C21.828643977871515 59.31525440272896 20.705897229446922 62.102903482944775 19.5625 65 C17.930316246214115 69.07263741759354 16.06815956557545 72.54815145543611 13.625 76.1875 C11.139096968296709 80.23836271228333 10.239822891683925 82.89008563621911 11.203125 87.58203125 C14.860147587418682 98.67858508143217 20.571149394226026 106.76568105230747 31 112.3125 C33.81627692889488 113.60282608295981 36.66393896654163 114.53630751155615 39.625 115.4375 C44.0991476150258 116.87727760621938 46.78065115895614 118.53919999587785 50 122 C50.33 123.98 50.66 125.96 51 128 C34.17 128 17.339999999999996 128 0 128 C0 85.75999999999999 0 43.519999999999996 0 0 Z " fill="#703D39" transform="translate(0,0)"/>
<path d="M0 0 C5.932862576933331 0.4478856868800847 9.695477428281436 1.5474892030574523 14.875 4.6875 C15.772912597656244 5.225522460937498 15.772912597656244 5.225522460937498 16.68896484375 5.7744140625 C17.895600562799473 6.498847055011389 19.098976851222332 7.2287401889065706 20.298828125 7.96435546875 C21.846902567566644 8.90679688456052 23.414720672323085 9.81661232525456 24.984375 10.72265625 C32.95814810481983 15.334705486663537 32.95814810481983 15.334705486663537 36 19 C36.73224655500202 22.907805594551576 35.75098083358705 26.65824757732446 33.828125 30.09375 C32.81717456879984 31.550388255707745 31.782684847738324 32.990853805086516 30.73046875 34.41796875 C29.05968299513202 36.91094704338087 27.78658995977642 39.44341323558298 26.53369140625 42.166015625 C22.722487082020336 50.42619072125312 17.842024575513307 57.888954766601586 9.4375 62.0625 C5.116595545646277 63.24092848755102 2.4680376343647765 63.648586108214246 -2 63 C-3.1674167594718767 61.501678137931336 -4.334674581131765 60.00323161735565 -5.50048828125 58.503662109375 C-8.232824724138496 55.763763028985835 -11.736010401815406 55.043952955876065 -15.375 54 C-21.77572719036384 51.96272521351737 -26.430276921638743 50.14093846315642 -31 45 C-33.25317851597431 38.24046445207705 -32.3216709712343 32.29624709484685 -29.1875 25.984375 C-27.487527307586483 23.143631158730045 -25.474801522974694 21.199823575977504 -23 19 C-22.3619140625 18.310351562500003 -21.723828124999997 17.620703125000006 -21.06640625 16.91015625 C-16.28515693504218 11.787997892977458 -11.720079310230503 8.39285813434011 -5.3828125 5.38671875 C-2.823098253051228 3.897048983333093 -1.589889335896217 2.469066551441479 0 0 Z " fill="#E9A497" transform="translate(64,50)"/>
<path d="M0 0 C3 1 3 1 4.5078125 3.58984375 C5.308320312500001 5.246933593750001 5.308320312500001 5.246933593750001 6.125 6.9375 C10.504840505835631 15.544797324596779 15.891185278940597 23.10426465576446 25 27 C27.310000000000002 27.659999999999997 29.620000000000005 28.32 32 29 C32 52.760000000000005 32 76.52000000000001 32 101 C17.150000000000006 101 2.299999999999997 101 -13 101 C-12.092566598921152 94.6479661924481 -11.707683533943452 92.95858526897871 -8.375 88.0625 C-7.647877719496648 86.90464401455431 -6.926718320537361 85.74302633092364 -6.2109375 84.578125 C-4.8076211268082005 82.29480460386557 -3.3772782014188465 80.04376053401396 -1.9140625 77.796875 C3.385550047989284 68.14941705549707 3.614869860228552 58.71448987586534 3.5625 47.9375 C3.559357910156251 47.2155142211914 3.5562158203125023 46.49352844238281 3.552978515625 45.749664306640625 C3.470908766599109 36.815586889919004 2.7559635583653943 28.15457691670126 1.465576171875 19.310302734375 C0.8902851859961061 15.219914439916764 0.5939784279182447 11.186593725793493 0.375 7.0625 C0.3363281249999943 6.367050781250001 0.29765625000000284 5.671601562500001 0.2578125 4.955078125 C0.16669993066668098 3.303662805833671 0.08248490367421368 1.6518687288442777 0 0 Z " fill="#884C4A" transform="translate(96,27)"/>
<path d="M0 0 C4.950000000000003 0 9.899999999999999 0 15 0 C15.371250000000003 0.99 15.7425 1.98 16.125 3 C17.761878072274122 6.871846209417637 20.072421405824258 9.940822644060024 22.6953125 13.203125 C24 14.999999999999993 24 14.999999999999993 25 18 C24.20335937499999 18.3287109375 23.40671875000001 18.657421875 22.5859375 18.99609375 C14.819965785369263 22.482278132845185 11.04066011552974 25.610324293220387 7 33 C5.953632071484144 34.635434317902565 4.891282472379672 36.260763453738456 3.8125 37.875 C3.3445703124999966 38.594296875 2.8766406250000003 39.31359375 2.39453125 40.0546875 C1 42 1 42 -0.458984375 43.269775390625 C-2.4932496059739435 45.553811780344944 -3.1199314252163646 47.719855501143634 -4.05078125 50.62890625 C-4.604755859375004 52.306298828124994 -4.604755859375004 52.306298828124994 -5.169921875 54.017578125 C-5.92255439509497 56.35266876426901 -6.672619719098975 58.68858864543649 -7.419921875 61.025390625 C-9.559144928141922 67.48739601350643 -11.953268610289737 73.15681476372093 -15.67529296875 78.869873046875 C-18.669409329083564 83.6844077398183 -20.76848784683264 89.3279522473997 -21 95 C-20.23385310002575 98.09765868910452 -19.167129153136983 101.03309224623122 -18 104 C-17.608125 105.010625 -17.216250000000002 106.02125 -16.8125 107.0625 C-16.544375000000002 107.701875 -16.276249999999997 108.34125 -16 109 C-23.91718952817012 102.97654744830861 -29.00525448807698 95.64865890362042 -31 85.8125 C-31.491916229626668 80.67282353183168 -29.47116936702471 77.8241768429309 -26.6796875 73.65625 C-24.366476882084605 69.99814948794774 -22.879413139688182 66.14769765448595 -21.29296875 62.1328125 C-19.53419870630461 57.8713817596867 -17.44427570285545 53.787711455405685 -15.33203125 49.69140625 C-14.10029278835006 46.27793749264167 -13.597488809565384 43.46601828525386 -13.13671875 39.890625 C-12.147391399911879 32.80154097839258 -9.819146056577782 26.731946202769855 -7 20.1875 C-4.175447992007179 13.509452038245534 -1.5089111057518423 7.107314242433397 0 0 Z " fill="#8C473E" transform="translate(41,0)"/>
<path d="M0 0 C13.530000000000001 0 27.060000000000002 0 41 0 C40.02411222814168 7.807102174866543 38.1436175864392 13.566134373551241 35.25 20.75 C34.819453125 21.8727734375 34.38890625 22.995546875 33.9453125 24.15234375 C33.514765625 25.2312890625 33.08421875 26.310234375 32.640625 27.421875 C32.254228515625 28.397373046875 31.86783203125 29.37287109375 31.4697265625 30.3779296875 C27.99165369680239 36.582996560854205 21.533871089949912 39.06181805588642 15 41 C9.528354856855799 41.804076884834814 5.404152174826805 40.54404347852194 0 39 C0 26.13 0 13.259999999999998 0 0 Z " fill="#6B211A" transform="translate(0,0)"/>
<path d="M0 0 C1.309042968749992 0.26876953125000114 1.309042968749992 0.26876953125000114 2.64453125 0.54296875 C8.495928562243662 1.8012391494749522 13.962762242889667 3.262440329279112 18.99609375 6.625 C20.78818688483348 9.403054409707263 20.848515517500857 12.110217411270416 21.1875 15.375 C21.262749023437493 16.069079589843753 21.337998046875 16.7631591796875 21.41552734375 17.478271484375 C21.576740791116833 18.979550938049798 21.73211408280011 20.48146644176493 21.88232421875 21.98388671875 C22.13379093660589 24.461618141969993 22.41011424474499 26.935643330675525 22.69140625 29.41015625 C22.878294377231114 31.08586066603602 23.06450538356013 32.76164075492767 23.25 34.4375 C23.381605224609373 35.614091796875 23.381605224609373 35.614091796875 23.515869140625 36.814453125 C23.998050548191785 41.36476646865748 24.210074164395422 45.79922530073222 24.125 50.375 C23.795 49.715 23.465000000000003 49.05500000000001 23.125 48.375 C21.816095921176682 47.661563012830214 20.478079790342093 47.00061753746999 19.125 46.375 C17.828640890363317 45.675291526597775 16.537282470156242 44.966270012577205 15.25 44.25 C14.470117187499994 43.8181640625 13.690234375000003 43.386328125 12.88671875 42.94140625 C10.812871256297583 41.76515045795662 8.755587893599795 40.55961290578914 6.70703125 39.33984375 C5.493129179439578 38.62080368635089 4.278272028438963 37.903373749280426 3.0625 37.1875 C2.458977050781243 36.83163818359375 1.8554541015625006 36.4757763671875 1.233642578125 36.109130859375 C-2.012642561048054 34.251768263023564 -4.871027606360897 32.92547512071498 -8.5625 32.3125 C-11.875 31.375 -11.875 31.375 -13.875 28.4375 C-15.857963820935481 22.348784165204506 -15.217355654967406 15.733450067553264 -14.3125 9.5 C-13.883331224233125 6.434508744522336 -14.066952422428258 4.337841117763055 -14.875 1.375 C-9.958546969017036 -2.8070451093423543 -5.790734807148226 -1.3311059512771166 0 0 Z " fill="#9E7569" transform="translate(75.875,18.625)"/>
<path d="M0 0 C5.958832461579789 0.18738466860313707 9.721276317348284 1.563129407168418 14.875 4.6875 C15.473608398437506 5.046181640625001 16.072216796874997 5.404863281250002 16.68896484375 5.7744140625 C17.895600562799473 6.498847055011389 19.098976851222332 7.2287401889065706 20.298828125 7.96435546875 C21.846902567566644 8.90679688456052 23.414720672323085 9.81661232525456 24.984375 10.72265625 C32.95814810481984 15.334705486663552 32.95814810481984 15.334705486663552 36 19 C36.73224655500201 22.907805594551547 35.75098083358705 26.658247577324488 33.828125 30.09375 C32.81717456879986 31.550388255707745 31.782684847738324 32.990853805086516 30.73046875 34.41796875 C29.059682995132036 36.91094704338087 27.78658995977642 39.443413235582995 26.53369140625 42.166015625 C22.722487082020322 50.42619072125312 17.842024575513307 57.888954766601586 9.4375 62.0625 C5.135158418646057 63.2358658858238 2.443174228269214 63.65555029597414 -2 63 C-4.5 60 -4.5 60 -6 57 C-4.710865127030196 56.328450670825035 -3.4185979607519457 55.6629114104921 -2.125 55 C-1.4057031250000023 54.62875 -0.6864062499999974 54.25749999999999 0.0546875 53.875 C2 53 2 53 4 53 C8.213210155317626 42.76791819422863 10.931568702884249 31.03961043125517 7.859375 20.05859375 C5.293238483946922 13.91153036836375 1.5458021803322595 8.751572063165938 -4 5 C-2.5 2.4375 -2.5 2.4375 0 0 Z " fill="#BF8A88" transform="translate(64,50)"/>
<path d="M0 0 C0.5428505354481352 8.323708210204721 -2.030000013872403 15.52984851091179 -5.90625 22.8125 C-7.222311235509693 25.444622471019386 -8.286964428632349 28.14096189758898 -9.375 30.875 C-11.699913007259859 36.52224239726391 -14.264300979436936 42.13134307975798 -18 47 C-21.000000000000007 48 -21.000000000000007 48 -29 47 C-29 33.14 -29 19.28 -29 5 C-25.37 5.329999999999998 -21.74 5.659999999999997 -18 6 C-11.871847360587047 5.814298404866271 -7.923587968568668 4.169856866045862 -2.78515625 1.05859375 C-1 0 -1 0 0 0 Z " fill="#77312C" transform="translate(29,34)"/>
<path d="M0 0 C0 13.530000000000001 0 27.060000000000002 0 41 C-9.900000000000006 41 -19.799999999999997 41 -30 41 C-26.514899623588462 27.059598494353835 -26.514899623588462 27.059598494353835 -23.625 20.6875 C-23.346562500000005 20.037167968749998 -23.068124999999995 19.386835937499995 -22.78125 18.716796875 C-19.35237950396649 10.986392896329875 -15.741124721955174 5.666848552505087 -8 2 C-2.700000000000003 0 -2.700000000000003 0 0 0 Z " fill="#420D1A" transform="translate(128,87)"/>
<path d="M0 0 C0.3299999999999983 0 0.6599999999999966 0 1 0 C4.043642825865035 14.790201856937898 -1.9289581208135473 25.983452556861323 -9.875 38.1875 C-10.429296875000006 38.96480468749999 -10.983593749999997 39.742109375 -11.5546875 40.54296875 C-13.484673614645828 43.58900898002294 -13.484673614645828 43.58900898002294 -15 50 C-25.560000000000002 50 -36.120000000000005 50 -47 50 C-48.485 46.535 -48.485 46.535 -50 43 C-51.4958904147403 41.41241506457514 -51.4958904147403 41.41241506457514 -53.1875 40.5625 C-54.115625 40.046875 -55.04375 39.53125 -56 39 C-52.852482616670734 37.19363885068171 -50.239364099565115 36.635023438636125 -46.640625 36.2890625 C-45.606796875 36.17820312500001 -44.57296875 36.06734374999999 -43.5078125 35.953125 C-41.35217570626429 35.73601050278921 -39.195916904551055 35.52497751649025 -37.0390625 35.3203125 C-27.694931436588163 34.30010960473916 -21.16625870745864 32.03414245723744 -14.64306640625 25.09619140625 C-11.536745474559524 21.133209011079956 -9.392654977890743 16.69422716920124 -7.1875 12.1875 C-6.246602165609147 10.304431127112196 -5.302733453867404 8.422842866957666 -4.35546875 6.54296875 C-3.949655761718759 5.718210449218745 -3.5438427734374898 4.893452148437504 -3.125732421875 4.043701171875 C-2 2 -2 2 0 0 Z " fill="#935F61" transform="translate(98,78)"/>
<path d="M0 0 C14.849999999999994 0 29.700000000000003 0 45 0 C44.34 3.6300000000000003 43.68000000000001 7.260000000000001 43 11 C42.599226951565726 13.896945924176148 42.21524112556213 16.784294985982203 41.875 19.6875 C41.7886328125 20.40099609375 41.702265624999995 21.1144921875 41.61328125 21.849609375 C41.40592540575716 23.56605497456565 41.20250974282335 25.282975903933913 41 27 C40.42765625 26.7099609375 39.8553125 26.419921875 39.265625 26.12109375 C33.24067212949811 23.13978086407924 27.700835567924344 21.01927396752071 20.986083984375 20.107666015625 C14.912319233488944 19.25844876295688 10.463281163441863 18.406603704033877 6.1875 13.625 C4.48046875 11.3515625 4.48046875 11.3515625 3 9 C2.158886718749997 7.7431640625 2.158886718749997 7.7431640625 1.30078125 6.4609375 C0 4 0 4 0 0 Z " fill="#683C35" transform="translate(56,0)"/>
<path d="M0 0 C0 4.6200000000000045 0 9.239999999999995 0 14 C-4.443359375 15.708984375 -4.443359375 15.708984375 -8.88671875 17.41796875 C-15.145215805768771 20.598258972818513 -18.10258393055645 25.347456108053024 -21.0625 31.4375 C-21.406115722656253 32.13109619140624 -21.749731445312506 32.8246923828125 -22.103759765625 33.539306640625 C-24.887151600697962 39.34976091270258 -26.736410036405886 45.14885965153371 -28.30859375 51.40234375 C-29 54 -29 54 -30 55 C-32.53049402011801 55.07313566532133 -35.033048367627316 55.0924752700281 -37.5625 55.0625 C-38.628876953125 55.05573242187501 -38.628876953125 55.05573242187501 -39.716796875 55.048828125 C-41.477900132234595 55.03700864005211 -43.23896035888038 55.019072631492264 -45 55 C-44.53402704910998 49.72991155542688 -43.4128232129315 46.536945088179706 -40.4375 42.1875 C-36.93463338144403 36.892339906626816 -34.38021461278298 31.477001063052597 -31.9375 25.625 C-26.18411376788461 12.293280316901217 -17.63540415386167 7.484689797025922 -5 1 C-2 0 -2 0 0 0 Z " fill="#6B333A" transform="translate(128,73)"/>
<path d="M0 0 C-2.1791118543086014 11.676677111307043 -6.098421150892566 24.10573804173528 -12.71484375 34.00390625 C-15.749737321742856 38.71767711674954 -17.77167311487345 44.40599131439956 -18 50 C-17.233853100025744 53.09765868910455 -16.16712915313699 56.033092246231206 -15 59 C-14.608125000000001 60.010625000000005 -14.216250000000002 61.02125000000001 -13.8125 62.0625 C-13.544375000000002 62.701875 -13.276249999999997 63.34125 -13 64 C-20.917189528170116 57.97654744830862 -26.00525448807698 50.6486589036204 -28 40.8125 C-28.491666935479202 35.675428225855256 -26.476102931943306 32.82646888026585 -23.6796875 28.6640625 C-21.917940162515215 25.869849281012506 -20.71333468346981 23.13152302289423 -19.5 20.0625 C-13.014641473090418 4.177476266367037 -13.014641473090418 4.177476266367037 -8.6875 1.6484375 C-5.750859997914091 0.6413205762077183 -3.107366641806287 0 0 0 Z " fill="#9A564B" transform="translate(38,45)"/>
</svg>
