<?xml version="1.0" encoding="UTF-8"?>
<!-- Generator: visioncortex VTracer 0.6.0 -->
<svg version="1.1" xmlns="http://www.w3.org/2000/svg" width="128" height="128">
<path d="M0 0 C42.24 0 84.48 0 128 0 C128 42.24 128 84.48 128 128 C85.75999999999999 128 43.519999999999996 128 0 128 C0 85.75999999999999 0 43.519999999999996 0 0 Z " fill="#4C3C4F" transform="translate(0,0)"/>
<path d="M0 0 C42.24 0 84.48 0 128 0 C128 8.25 128 16.5 128 25 C125.36 25.99 122.72 26.98 120 28 C117.86691180401209 29.985743202271735 117.86691180401209 29.985743202271735 116.375 32.25 C114.67578125 34.39062499999999 114.67578125 34.39062499999999 113 36 C109.5625 36 109.5625 36 107 35 C107 35.66 107 36.32 107 37 C106.34 37 105.68 37 105 37 C104.61714843749999 37.91845703125 104.61714843749999 37.91845703125 104.2265625 38.85546875 C102.15074200300819 42.48484917308441 98.89859286789512 43.78467682927263 95 45 C91.4313919543701 45.215510965455444 88.22799480854133 44.919994408271634 85.279052734375 42.710693359375 C83.64298888788379 40.52250871109022 83.7001843051166 39.395250969398454 83.84765625 36.69140625 C83.87537109375 35.86189453125 83.9030859375 35.0323828125 83.931640625 34.177734375 C84.01869523464072 32.43794150471761 84.10982417505264 30.698347598011388 84.205078125 28.958984375 C84.4338138163734 23.87181926117014 84.4338138163734 23.87181926117014 82.2109375 19.421875 C78.49074722466028 17.029385140947603 74.82160920114839 17.616503326074024 70.625 18.5 C62.4067190626364 20.065386845212114 56.519001799788406 18.540697937216322 49.33203125 14.5 C48.3768359375 13.96375 47.421640625 13.4275 46.4375 12.875 C45.5493359375 12.356796875 44.661171875 11.83859375 43.74609375 11.3046875 C40.802021711872285 9.905939191700346 38.22265396095228 9.388043501906148 35 9 C35.043828125 10.107304687500001 35.08765625 11.214609375 35.1328125 12.35546875 C35.1259972577362 17.520286512246045 34.08416647115341 22.30975473854754 32.875 27.3125 C32.6519921875 28.23732177734375 32.428984375 29.1621435546875 32.19921875 30.114990234375 C30.1416795632656 38.192394590032244 27.507165754305646 45.30325771843459 21.6875 51.4375 C13.9837709193399 55.91641225619773 9.381828186083666 57.06181718139163 0 58 C0 38.86 0 19.72 0 0 Z " fill="#5D5C64" transform="translate(0,0)"/>
<path d="M0 0 C1.6500000000000057 0.3299999999999983 3.299999999999997 0.6599999999999966 5 1 C3.7071903460851416 9.335727917779408 1.1902028122722186 15.956763863201544 -5.75 21.125 C-11.464792754784241 24.664110233927303 -17.857540353030373 26.61405875900067 -24.20703125 28.703125 C-29.77208300718408 30.56576315459158 -31.9982328347715 31.815129441878042 -35 37 C-35.66 37 -36.31999999999999 37 -37 37 C-37.33 39.31 -37.66 41.620000000000005 -38 44 C-42.05431691859761 45.15837626245647 -44.218121187853775 44.836912565899596 -48 43 C-47.67 43.66 -47.34 44.31999999999999 -47 45 C-46.440111420612816 50.78551532033427 -46.440111420612816 50.78551532033427 -47 53 C-52.28258352907371 58.399541097983104 -58.72623454672279 58.89480091286583 -66 59 C-72.99979761170789 57.76742694228622 -79.47844950773111 55.5305029680155 -85 51 C-85.763125 50.463750000000005 -86.52625 49.92750000000001 -87.3125 49.375 C-90.05933788538825 45.50908001315727 -90.37943984151329 41.67055950371804 -90 37 C-87.68015982039417 29.846147299540135 -81.81204405566668 22.620300006397486 -76 18 C-71.18351897560373 16.840893585250427 -66.78644451792705 17.072596834352687 -61.875 17.375 C-48.13516302178377 17.761921712388357 -34.6216986208363 11.906258091989038 -23 5 C-22.010000000000005 5.659999999999997 -21.019999999999996 6.32 -20 7 C-20 7.659999999999997 -20 8.32 -20 9 C-13.726910714938171 9.448077806075844 -9.22692907940933 8.668666184843644 -4 5 C-3.3400000000000034 4.009999999999998 -2.680000000000007 3.020000000000003 -2 2 C-1.3400000000000034 2 -0.6800000000000068 2 0 2 C0 1.3400000000000034 0 0.6799999999999997 0 0 Z " fill="#573139" transform="translate(107,35)"/>
<path d="M0 0 C5.383736699974065 -0.518616838070896 8.6924294932994 1.1492701651399422 13.125 3.9375 C21.61777037133541 9.157578604037372 28.228768438915885 10.057101381280866 38 8 C42.276637620461585 7.541788826379118 44.277658034717405 7.538930660457915 47.9375 9.875 C50.88925642354023 14.347358217485194 50.42034628146257 17.80515444607585 50 23 C50.0244921875 23.730898437500002 50.048984375 24.461796875000005 50.07421875 25.21484375 C50.0625 27.25 50.0625 27.25 49 31 C34.7842745039255 43.61268834211469 14.548667930872611 45.32623504540356 -3.49951171875 44.27783203125 C-6.5231966930544125 43.941867034105066 -9.200560422588513 43.186040438457354 -12 42 C-11.042753995234136 39.51906425370315 -10.056090092825517 37.11046314199311 -8.8515625 34.73828125 C-3.3970741276440037 23.950901379830974 -1.3505314469136493 11.925192676247534 0 0 Z " fill="#333944" transform="translate(35,9)"/>
<path d="M0 0 C11.22 0 22.44 0 34 0 C35.39725786163905 9.780805031473347 35.2345154771689 17.85903279159767 32.875 27.4375 C32.54048828125 28.811197509765627 32.54048828125 28.811197509765627 32.19921875 30.212646484375 C30.132897902860876 38.244612567332574 27.475879122639196 45.33623551938031 21.6875 51.4375 C13.9837709193399 55.91641225619773 9.381828186083666 57.06181718139163 0 58 C0 38.86 0 19.72 0 0 Z " fill="#4B5089" transform="translate(0,0)"/>
<path d="M0 0 C0.8374877929687514 0.45673095703125455 1.6749755859375028 0.9134619140624949 2.537841796875 1.384033203125 C12.42219094464906 6.874695086969041 20.255796309485874 12.97744446422881 26.5625 22.4375 C26.5625 23.757499999999993 26.5625 25.0775 26.5625 26.4375 C5.4424999999999955 26.4375 -15.677500000000002 26.4375 -37.4375 26.4375 C-37.4375 17.43380547486015 -36.66905114856869 9.128936231786582 -30.890625 1.87109375 C-21.676723861965534 -7.218964630802816 -10.320868935739433 -5.776829759338256 0 0 Z " fill="#484D68" transform="translate(53.4375,101.5625)"/>
<path d="M0 0 C2.4749999999999943 0.49499999999999744 2.4749999999999943 0.49499999999999744 5 1 C3.7071903460851416 9.335727917779408 1.1902028122722186 15.956763863201544 -5.75 21.125 C-11.464792754784241 24.664110233927303 -17.857540353030373 26.61405875900067 -24.20703125 28.703125 C-29.772083007184065 30.565763154591565 -31.9982328347715 31.815129441878042 -35 37 C-35.66 37 -36.31999999999999 37 -37 37 C-37.33 39.31 -37.66 41.620000000000005 -38 44 C-41.11941474780343 45.00922241840699 -42.865040788862316 45.03580550499572 -46.0625 44.1875 C-53.641511899983236 38.543554968097595 -54.342511647394375 26.714370581123504 -56 18 C-55.32010009765625 17.783840332031247 -54.6402001953125 17.5676806640625 -53.939697265625 17.344970703125 C-50.810720538050695 16.343985285560443 -47.68667788394167 15.328359358643027 -44.5625 14.3125 C-43.49322265625 13.97283203125 -42.423945312499995 13.6331640625 -41.322265625 13.283203125 C-34.767551050883924 11.138388264356507 -28.874421356073498 8.624203359406494 -23 5 C-22.00999999999999 5.659999999999997 -21.02000000000001 6.32 -20 7 C-20 7.659999999999997 -20 8.32 -20 9 C-13.726910714938171 9.448077806075844 -9.22692907940933 8.668666184843644 -4 5 C-3.3400000000000034 4.009999999999998 -2.680000000000007 3.020000000000003 -2 2 C-1.3400000000000034 2 -0.6800000000000068 2 0 2 C0 1.3400000000000034 0 0.6799999999999997 0 0 Z " fill="#504658" transform="translate(107,35)"/>
<path d="M0 0 C0 12.870000000000005 0 25.74000000000001 0 39 C-10.126044568245561 40.0262883008357 -10.126044568245561 40.0262883008357 -14.76953125 40.48046875 C-17.79064916814707 40.77699692176142 -20.80706723977643 41.08985733313139 -23.82421875 41.42578125 C-24.851601562500008 41.5327734375 -25.878984375 41.639765624999995 -26.9375 41.75 C-28.25041015625 41.896953124999996 -28.25041015625 41.896953124999996 -29.58984375 42.046875 C-32.53167948788446 41.989659394076796 -34.41722733316922 41.40559056698274 -37 40 C-39.714548989097906 35.88648549092332 -40.55002596350252 30.840228478822183 -40 26 C-39 23.625 -39 23.625 -38 22 C-37.34 22 -36.68000000000001 22 -36 22 C-35.67 21.010000000000005 -35.34 20.019999999999996 -35 19 C-33.301025390625 17.7607421875 -33.301025390625 17.7607421875 -31.09765625 16.546875 C-30.293845214843742 16.095541992187492 -29.4900341796875 15.644208984374998 -28.661865234375 15.17919921875 C-27.804074707031248 14.707563476562498 -26.946284179687495 14.235927734374997 -26.0625 13.75 C-19.71037426950602 10.176595936665855 -13.592283448562767 6.559884853249983 -7.71484375 2.2421875 C-4.740989403494922 0.08800599159768296 -3.9290833876942486 0 0 0 Z " fill="#1B0E34" transform="translate(128,50)"/>
<path d="M0 0 C0 12.870000000000005 0 25.74000000000001 0 39 C-4.289999999999992 39 -8.579999999999998 39 -13 39 C-13.268124999999998 38.030625 -13.536249999999995 37.06125 -13.8125 36.0625 C-16.726415295157068 29.169969590301562 -24.301637556264566 24.636046214365777 -30.4375 20.75 C-36.24021982987104 16.787166945453933 -38.36311652478932 11.621937695170487 -40 5 C-40 4.010000000000005 -40 3.019999999999996 -40 2 C-36.677809078467064 1.0354929582646264 -34.52887395719205 1.0675700061396185 -31.05078125 1.56640625 C-25.26506557261304 2.261114232338997 -19.849807944629475 1.385807878900465 -14.125 0.5 C-12.086863361628161 0.191731833446255 -10.04782278216716 -0.11063493300189009 -8.0078125 -0.40625 C-7.117231445312498 -0.5435351562500017 -6.226650390624997 -0.6808203125000034 -5.30908203125 -0.822265625 C-3 -1 -3 -1 0 0 Z " fill="#481E2C" transform="translate(128,89)"/>
<path d="M0 0 C0 8.25 0 16.5 0 25 C-2.6400000000000006 25.989999999999995 -5.280000000000001 26.980000000000004 -8 28 C-10.80890394189359 29.77848594004277 -10.80890394189359 29.77848594004277 -13.3125 31.8125 C-17.848488274767362 35.244457748919956 -22.45189375835092 38.05031480845443 -27.4921875 40.67578125 C-32.53176240625541 43.003873255959604 -32.53176240625541 43.003873255959604 -36 47 C-36.66 47 -37.31999999999999 47 -38 47 C-38.99989549420138 53.5939054212199 -39.0092516437701 58.61767124920085 -37 65 C-38.82812500000003 65.60546875 -38.82812500000003 65.60546875 -41 66 C-43.04872886759077 64.74282546761476 -45.04148656218388 63.39355763844608 -47 62 C-50.58143893024358 60.042781002068025 -54.12560822816248 58.29146392394584 -58 57 C-58 56.34 -58 55.68000000000001 -58 55 C-58.66 54.67 -59.31999999999999 54.34 -60 54 C-58.17647058823529 46.56561085972851 -58.17647058823529 46.56561085972851 -55 44 C-54.466328125000004 43.3748046875 -53.932656249999994 42.749609375000006 -53.3828125 42.10546875 C-50.328492094150064 39.40665121106046 -47.043514827420836 38.288594922326766 -43.25 37 C-41.810112425912266 36.48479452819665 -40.37129246782776 35.96659486201197 -38.93359375 35.4453125 C-38.2502294921875 35.198134765625 -37.566865234375 34.95095703125 -36.86279296875 34.6962890625 C-28.792048753508553 31.67954430471906 -22.61835727628501 28.14620045312781 -18.88671875 20.2109375 C-17.99112694326311 17.977875990691288 -17.33921086701173 15.752061018599214 -16.6875 13.4375 C-14.896141777954 7.7484612508649136 -11.087076692636401 3.864472061889316 -6.02734375 0.80859375 C-4 0 -4 0 0 0 Z " fill="#3B304C" transform="translate(128,25)"/>
<path d="M0 0 C0.5452734375000006 0.2745703125000034 1.0905468750000011 0.5491406249999997 1.65234375 0.83203125 C1.277226562500001 1.2445312500000014 0.9021093749999984 1.6570312500000028 0.515625 2.08203125 C-5.439984568266606 8.802719125525037 -11.749871782623142 16.391515396051616 -11.41015625 25.83203125 C-10.743415650244142 30.18251366340698 -8.458568115199814 32.04976309187572 -5.0390625 34.60546875 C-4.480898437499999 35.01023437500001 -3.922734375000001 35.41499999999999 -3.34765625 35.83203125 C-2.68765625 36.49203125 -2.0276562499999997 37.15203124999999 -1.34765625 37.83203125 C-3.8525534597999 40.33692845979991 -9.455052441253883 40.3409357191731 -12.83203125 41.015625 C-16.225710949746947 41.69855068677043 -16.225710949746947 41.69855068677043 -18.80078125 42.8671875 C-21.347656249999986 43.83203125 -21.347656249999986 43.83203125 -29.34765625 44.83203125 C-29.34765625 31.962031249999995 -29.34765625 19.09203124999999 -29.34765625 5.83203125 C-25.05765625 4.842031249999998 -20.76765625 3.852031249999996 -16.34765625 2.83203125 C-12.909757056400046 0.7528508302695798 -12.909757056400046 0.7528508302695798 -9.4921875 -1.359375 C-5.955735525692603 -2.6927913181814773 -3.3462843570402647 -1.4357561942172765 0 0 Z " fill="#5F3B52" transform="translate(29.34765625,52.16796875)"/>
<path d="M0 0 C9.900000000000006 0 19.799999999999997 0 30 0 C30 8.25 30 16.5 30 25 C27.36 25.99 24.72 26.98 22 28 C19.664676348739533 29.9399333117384 19.664676348739533 29.9399333117384 18 32.1875 C17.133749999999992 33.260644531249994 17.133749999999992 33.260644531249994 16.25 34.35546875 C15.837500000000006 34.8981640625 15.424999999999997 35.440859375 15 36 C12.65625 35.828125 12.65625 35.828125 10 35 C8.59375 32.734375 8.59375 32.734375 7.5 29.75 C7.0926562500000045 28.669765625 6.685312499999995 27.58953125 6.265625 26.4765625 C5.847968750000007 25.329296875 5.430312499999999 24.18203125 5 23 C4.541093750000002 21.852734375 4.082187500000003 20.70546875 3.609375 19.5234375 C-1.6153846153846132 6.461538461538462 -1.6153846153846132 6.461538461538462 0 0 Z " fill="#5D6387" transform="translate(98,0)"/>
<path d="M0 0 C8.58 0 17.16 0 26 0 C24.873751783166902 10.13623395149786 24.873751783166902 10.13623395149786 23.51171875 13.60546875 C23.21716796875 14.36150390625 22.9226171875 15.1175390625 22.619140625 15.896484375 C22.31169921875 16.65251953125 22.0042578125 17.4085546875 21.6875 18.1875 C21.39166015625 18.95513671875 21.0958203125 19.7227734375 20.791015625 20.513671875 C17.692660985894236 28.323131624106754 13.763874738199307 35.11806263090035 6 39 C4.02 39 2.04 39 0 39 C0 26.13 0 13.259999999999998 0 0 Z " fill="#7286D5" transform="translate(0,0)"/>
<path d="M0 0 C0.990000000000002 0.33000000000000007 1.980000000000004 0.6600000000000001 3 1 C3 1.6600000000000001 3 2.3200000000000003 3 3 C4.082812500000003 3.3403124999999996 4.082812500000003 3.3403124999999996 5.1875 3.6875 C8.576851093217904 5.269197176835021 10.542468795435582 7.201145017023862 13 10 C13.329999999999998 10.990000000000002 13.659999999999997 11.98 14 13 C14.989999999999995 13.329999999999998 15.980000000000004 13.66 17 14 C18.421875 15.890625000000007 18.421875 15.890625000000007 19.75 18.25 C20.422890625 19.402421875 20.422890625 19.402421875 21.109375 20.578125 C22.591712216679703 24.60904199272551 21.29998262932 27.318221297000008 19.625 31.125 C18.18214664075169 33.67774055867009 17.24709821019377 35.19680508966833 15 37 C12.826904296875 37.464111328125 12.826904296875 37.464111328125 10.32421875 37.58203125 C9.413496093749998 37.62650390625 8.502773437499997 37.6709765625 7.564453125 37.716796875 C6.61505859375 37.74837890625 5.665664062499999 37.7799609375 4.6875 37.8125 C3.280810546875003 37.888876953125 3.280810546875003 37.888876953125 1.845703125 37.966796875 C-3.222014233455994 38.177505348677876 -7.252243821722907 38.059746817711506 -12 36 C-11.042753995234136 33.51906425370315 -10.056090092825517 31.110463141993108 -8.8515625 28.73828125 C-5.1006829565706795 21.32014049691208 -3.4310609402931576 13.829322718219437 -1.796875 5.74609375 C-1 2 -1 2 0 0 Z " fill="#232140" transform="translate(35,15)"/>
<path d="M0 0 C0 8.25 0 16.5 0 25 C-2.6400000000000006 25.989999999999995 -5.280000000000001 26.980000000000004 -8 28 C-11.012180155125478 29.91335962046921 -11.012180155125478 29.91335962046921 -13.6875 32.0625 C-17.043639144041066 34.670671809479096 -19.974202813790512 36.60003809560643 -24 38 C-17.277887725056715 8.745667809045699 -17.277887725056715 8.745667809045699 -8 2 C-4.8845012548704005 0.1356558205089229 -3.8493439071821456 0 0 0 Z " fill="#363358" transform="translate(128,25)"/>
</svg>
