<?xml version="1.0" encoding="UTF-8"?>
<!-- Generator: visioncortex VTracer 0.6.0 -->
<svg version="1.1" xmlns="http://www.w3.org/2000/svg" width="128" height="128">
<path d="M0 0 C42.24 0 84.48 0 128 0 C128 42.24 128 84.48 128 128 C85.75999999999999 128 43.519999999999996 128 0 128 C0 85.75999999999999 0 43.519999999999996 0 0 Z " fill="#873C5E" transform="translate(0,0)"/>
<path d="M0 0 C42.24 0 84.48 0 128 0 C128 19.14 128 38.28 128 58 C120 57 120 57 117.28125 55.08984375 C114.17044888316562 50.876412785246586 112.39983859008402 46.41950784426072 110.5 41.5625 C106.80819750860731 31.215415158918844 106.80819750860731 31.215415158918844 99 24 C96.89946283993494 23.85098508550698 94.79312175149454 23.77861547114149 92.6875 23.75 C91.5569921875 23.72421875 90.426484375 23.6984375 89.26171875 23.671875 C84.70762091989816 24.130011787698866 82.24609545354767 25.691729305526874 79.12109375 28.97265625 C78.5655078125 29.6623046875 78.009921875 30.351953125 77.4375 31.0625 C73.537047670046 35.899781526986835 70.15180020679557 37.31646664368938 64 38 C57.85670490583126 38.35074176143178 52.375948588781505 37.76155219693369 46.37890625 36.45703125 C39.78666680653858 35.19054189879313 34.97002907630608 36.07351515867349 29 39 C27.515 39.495 27.515 39.495 26 40 C26 39.34 26 38.68 26 38 C24.35 37.67 22.7 37.34 21 37 C15.107828322316138 44.11903482153036 9.44937455321726 51.205541295107 10 61 C11.411064844235336 67.03668569456892 13.695788332534384 72.58176553545327 16.5625 78.0625 C20.825784638531466 86.2732704149495 22.215107345119858 93.84095567358072 22 103 C19.083973908023395 103.50400450972435 16.167279075705842 104.00334666042431 13.25 104.5 C12.425 104.6430859375 11.6 104.786171875 10.75 104.93359375 C9.95078125 105.0689453125 9.1515625 105.204296875 8.328125 105.34375 C7.2283935546875 105.53227539062499 7.2283935546875 105.53227539062499 6.1064453125 105.724609375 C3.999999999999975 106 3.999999999999975 106 0 106 C0 71.02 0 36.03999999999999 0 0 Z " fill="#CE8C73" transform="translate(0,0)"/>
<path d="M0 0 C6.230687909945942 2.9422692908078076 8.629832137243923 10.52436256078758 11.03125 16.55859375 C12.569077776760196 20.979848608185556 13.533028404430056 24.490096760051273 12.25 29.0625 C10.602264910468165 32.3637517056936 8.532622487516122 35.17316739597632 6.25 38.0625 C5.627382812500002 38.8630078125 5.0047656250000045 39.663515625 4.36328125 40.48828125 C3.1764835375012126 42.00847706202674 1.9783871280472738 43.519967267346956 0.765625 45.01953125 C-2.4960848575484675 49.41611438272642 -2.98552389152961 52.286305423519195 -2.875 57.8125 C-2.856953125000004 58.98296875 -2.8389062499999937 60.153437499999995 -2.8203125 61.359375 C-2.797109375000005 62.25140625 -2.773906249999996 63.143437500000005 -2.75 64.0625 C7.042651882718474 66.53829460691753 17.162015815716614 67.40821076811713 26.95703125 64.5 C30.330266472800872 63.856384420862526 33.81591251100777 64.0625 37.25 64.0625 C37.25 72.3125 37.25 80.5625 37.25 89.0625 C17.450000000000003 89.0625 -2.3499999999999943 89.0625 -22.75 89.0625 C-23.409999999999997 83.7825 -24.069999999999993 78.5025 -24.75 73.0625 C-26.400000000000006 72.7325 -28.049999999999997 72.4025 -29.75 72.0625 C-49.15811330652213 67.98433948242698 -49.15811330652213 67.98433948242698 -54.75 60.0625 C-58.0768126561192 54.76424280692126 -58.829197904077155 49.150626798925146 -59.75 43.0625 C-57.769999999999996 42.07249999999999 -55.79 41.08250000000001 -53.75 40.0625 C-54.2694921875 39.85496093750001 -54.788984375 39.64742187499999 -55.32421875 39.43359375 C-60.70689886408151 37.05566297871445 -64.25945032427069 34.503228690756316 -66.75 29.0625 C-68.07227353130693 24.422223321811074 -68.00415722065844 20.959525484676824 -66.6875 16.3125 C-64.14308080345901 12.04444199289901 -61.25518472017964 9.315092360089821 -56.75 7.0625 C-50.27723489660862 6.38115630490617 -45.33385421122605 7.710230854528184 -39.25 9.6875 C-31.2482072022122 12.20580007296416 -26.67185307294919 12.519865137724267 -19.05078125 8.71484375 C-16.24810790658863 7.219829729162555 -13.496991724333796 5.657134782368068 -10.75 4.0625 C-3.800635578341172 0.0863780813259325 -3.800635578341172 0.0863780813259325 0 0 Z " fill="#81466D" transform="translate(90.75,38.9375)"/>
<path d="M0 0 C6.2280920611406145 2.9410434733164053 8.620510350628294 10.519537370371225 11.04296875 16.54296875 C12.889737028423895 21.927882079643773 13.424800794425508 26.18732963469546 11.2109375 31.60546875 C8.449850746108439 35.06507745158922 5.429028162041888 35.941552393661965 1.3125 37.3125 C0.5964257812500051 37.567734375 -0.11964843750000398 37.82296875 -0.857421875 38.0859375 C-5.712906942540599 39.79593224111717 -10.035785864590338 41.20535689475011 -15.1875 41.1875 C-16.29931640625 41.19136718749999 -16.29931640625 41.19136718749999 -17.43359375 41.1953125 C-19.75000000000003 41.0625 -19.75000000000003 41.0625 -21.9853515625 40.551513671875 C-25.163585297480893 39.98934463521245 -28.074515748103366 40.018432910856575 -31.30078125 40.10546875 C-32.55697265625 40.12673828125 -33.8131640625 40.1480078125 -35.107421875 40.169921875 C-37.7326910512032 40.22307547313548 -40.35774851920543 40.288076563344845 -42.982421875 40.365234375 C-50.42307694961997 40.46799534022493 -55.49880458030659 40.24990363041664 -61.75 36.0625 C-65.79909346031907 31.97388511502629 -67.55516021858898 28.034190650596315 -67.87890625 22.265625 C-67.62846222046859 17.98530885891769 -66.28425374200603 14.637558362804057 -63.28125 11.5546875 C-59.078688841166354 7.949549251000548 -56.3355231469568 6.6875 -50.77734375 6.6875 C-46.75068319792136 7.186286339354254 -43.098306035411824 8.4367900845467 -39.25 9.6875 C-31.2482072022122 12.20580007296416 -26.67185307294919 12.519865137724267 -19.05078125 8.71484375 C-16.24810790658863 7.219829729162555 -13.496991724333796 5.657134782368068 -10.75 4.0625 C-3.800635578341172 0.0863780813259325 -3.800635578341172 0.0863780813259325 0 0 Z " fill="#5A1842" transform="translate(90.75,38.9375)"/>
<path d="M0 0 C1.6499999999999986 0.6599999999999966 3.3000000000000007 1.3200000000000003 5 2 C4.416322339565042 6.786156815566663 2.920828334870766 10.598101732587835 1 15 C-1.0270523726728662 22.371099536992233 -0.23374166849400524 29.160210878810375 3 36 C4.300379102897864 37.9803690087882 5.63651068767355 39.93754184112436 7 41.875 C10.370022966723916 46.69984162448998 12.01304014070719 50.75816523954728 13.296875 56.453125 C14.87153216680207 62.15688318197192 17.99447524475437 66.82203194496095 23 70 C25.562605705847204 70.92533665261853 25.562605705847204 70.92533665261853 28.3125 71.5625 C29.279296875 71.8087109375 30.24609375 72.054921875 31.2421875 72.30859375 C32.152265625 72.5367578125 33.06234375 72.764921875 34 73 C35.31439069558096 73.36831827183862 36.62727096160396 73.74214086540375 37.9375 74.125 C40.28558296727893 74.79588084779398 42.6297741448754 75.41640227325226 45 76 C45.34328344556266 77.35167856690296 45.67402697219232 78.70654275238336 46 80.0625 C46.185625 80.8166015625 46.37125 81.570703125 46.5625 82.34765625 C47 85.00000000000001 47 85.00000000000001 47 92 C24.560000000000002 92 2.1199999999999974 92 -21 92 C-21 84.74 -21 77.48 -21 70 C-18.1125 69.505 -15.225 69.01 -12.25 68.5 C-11.346689453125 68.34337890625 -10.44337890625 68.1867578125 -9.5126953125 68.025390625 C-8.791787109375 67.90357421875 -8.07087890625 67.7817578125 -7.328125 67.65625 C-6.2283935546875 67.46772460937501 -6.2283935546875 67.46772460937501 -5.1064453125 67.275390625 C-2.9999999999999893 67 -2.9999999999999893 67 1 67 C0.8556249999999999 66.360625 0.7112499999999997 65.72125 0.5625 65.0625 C0 62 0 62 -0.11328125 60.12109375 C-0.6746482576116222 51.41188560333967 -4.126471133565545 43.39877993264534 -8.1875 35.75 C-11.507263231880918 29.286624238337964 -12.756011350246844 23.288945609241594 -10.828125 16.1953125 C-8.482659557560929 9.977616374288878 -4.3314445897023575 4.950222388231261 0 0 Z " fill="#9A6168" transform="translate(21,36)"/>
<path d="M0 0 C22.11 0 44.22 0 67 0 C67 19.14 67 38.28 67 58 C59 57 59 57 56.28125 55.08984375 C53.170448883165605 50.876412785246565 51.399838590084016 46.41950784426073 49.5 41.5625 C45.80819750860732 31.215415158918844 45.80819750860732 31.215415158918844 38 24 C36.44868743530168 23.951022638860085 34.895196372542756 23.963274780940313 33.34375 24.0078125 C32.402734374999994 24.0245703125 31.461718750000003 24.041328125 30.4921875 24.05859375 C28.52843874593586 24.102175641408735 26.5648518355664 24.153987072482444 24.6015625 24.21484375 C18.091183205682626 24.311881923763536 11.963396848790865 23.82822608199778 6 21 C2.5623485191654325 17.613412288359445 1.1719071554019536 14.6876286216078 0 10 C0 6.699999999999999 0 3.3999999999999995 0 0 Z " fill="#D79888" transform="translate(61,0)"/>
<path d="M0 0 C11.549999999999997 0 23.1 0 35 0 C35.66 4.62 36.32 9.24 37 14 C38.55132607431236 17.813676599351226 39.49379454107688 19.353004527953985 43.2734375 20.9765625 C47.760344174581036 22.41830128132184 52.32602328909536 23.385003064354652 57 24 C55.024725763266616 26.355395739334995 53.01671642984877 28.68005413081836 51 31 C50.21625 31.928125 49.432500000000005 32.85625 48.625 33.8125 C42.83408023034282 38.638266474714314 35.21949671282056 38.56880883191919 28 38 C25.442152283105308 37.55043888612154 22.916353926519932 37.00899561155911 20.37890625 36.45703125 C13.786666806538577 35.19054189879313 8.970029076306083 36.07351515867349 3 39 C1.5150000000000006 39.495 1.5150000000000006 39.495 0 40 C0 39.34 0 38.68 0 38 C-1.3200000000000003 37.34 -2.6400000000000006 36.68 -4 36 C-3.7112499999999997 35.07703125 -3.4224999999999994 34.1540625 -3.125 33.203125 C0.17432418815383244 21.887795698738014 0.32752882498668257 11.791037699520547 0 0 Z " fill="#BF667F" transform="translate(26,0)"/>
<path d="M0 0 C6 1.5 6 1.5 12 3 C12 17.849999999999994 12 32.7 12 48 C-15.297491039426518 52.817204301075265 -15.297491039426518 52.817204301075265 -28 48 C-29.3064803544886 41.7995727438615 -30.332377699150356 36.65013477040483 -26.9375 31.0625 C-25.980827066538637 29.692349781737548 -24.99983689953038 28.338977556406263 -24 27 C-23.445703124999994 26.220117187499994 -22.891406250000003 25.440234375000003 -22.3203125 24.63671875 C-18.97703344538087 20.097288744728246 -15.995013823271478 16.67175157988939 -11 14 C-10.340000000000003 14 -9.680000000000007 14 -9 14 C-9 13.340000000000003 -9 12.680000000000007 -9 12 C-8.443124999999995 11.463750000000005 -7.886250000000004 10.927499999999995 -7.3125 10.375 C-4.274782913128476 7.25518245132114 -2.2101937745975135 3.7319665374351416 0 0 Z " fill="#A0677B" transform="translate(116,55)"/>
<path d="M0 0 C-0.7115624999999994 1.4849999999999994 -0.7115624999999994 1.4849999999999994 -1.4375 3 C-4.720852757612928 10.908460247904216 -4.121883897558913 16.057468974552066 -1.24609375 23.98828125 C-0.09688460610415461 26.765836892456733 1.1700846096980833 29.400404922492683 2.5625 32.0625 C6.825784638531466 40.273270414949494 8.215107345119858 47.84095567358072 8 57 C5.083973908023388 57.50400450972435 2.1672790757058458 58.00334666042431 -0.75 58.5 C-1.5749999999999993 58.64308593749999 -2.4000000000000004 58.78617187500001 -3.25 58.93359375 C-4.448828124999999 59.136621093749994 -4.448828124999999 59.136621093749994 -5.671875 59.34375 C-6.405029296875 59.46943359375 -7.13818359375 59.595117187499994 -7.8935546875 59.724609375 C-9.999999999999984 60 -9.999999999999984 60 -14 60 C-14 40.2 -14 20.400000000000006 -14 0 C-3 -1 -3 -1 0 0 Z " fill="#BF8C7A" transform="translate(14,46)"/>
<path d="M0 0 C1.7696190730263055 2.3005047949341986 3.383526386526043 4.60621912708956 4.9375 7.0625 C8.109706553177475 11.580491151495181 10.99573369001591 13.246468735152447 16.3125 14.5625 C17.279296875 14.808710937499995 18.24609375 15.054921875000005 19.2421875 15.30859375 C20.152265625 15.5367578125 21.062343749999997 15.764921874999999 22 16 C23.31439069558097 16.368318271838618 24.627270961603955 16.742140865403755 25.9375 17.125 C28.2855829672789 17.795880847793967 30.629774144875405 18.41640227325226 33 19 C33.34328344556266 20.35167856690296 33.67402697219232 21.706542752383342 34 23.0625 C34.185625 23.816601562499997 34.37125 24.570703124999994 34.5625 25.34765625 C35 27.999999999999986 35 27.999999999999986 35 35 C23.119999999999997 35 11.239999999999995 35 -1 35 C-1.3299999999999983 33.68000000000001 -1.6600000000000001 32.36 -2 31 C-2.188203125000001 30.372226562500003 -2.3764062499999987 29.744453125000007 -2.5703125 29.09765625 C-5.27667849638917 19.167961291417186 -3.683188123434846 9.448178229680693 0 0 Z " fill="#855E6B" transform="translate(33,93)"/>
<path d="M0 0 C10.89 0 21.78 0 33 0 C34.31999999999999 4.29 35.64 8.58 37 13 C38.30039847785292 16.359362734453377 39.594626523565836 19.688401861381205 41 23 C36.5237339980267 24.492088667324435 32.12707925416599 24.2253017550801 27.4375 24.25 C26.009541015625004 24.2809375 26.009541015625004 24.2809375 24.552734375 24.3125 C17.81152281975703 24.349211839647342 9.35123716457504 24.300055316328056 4.257568359375 19.2841796875 C-0.49072880408576225 13.091283146585386 0 8.084742293622014 0 0 Z " fill="#E47F7F" transform="translate(61,0)"/>
<path d="M0 0 C2.311342683038191 1.1609483796082287 4.542898605913564 2.403691513577968 6.77294921875 3.7138671875 C7.557907714843751 4.164636230468744 8.342866210937501 4.615405273437503 9.151611328125 5.079833984375 C20.568652973837615 11.775211249951482 20.568652973837615 11.775211249951482 23.71044921875 16.0888671875 C24.205449218750005 18.563867187499994 24.205449218750005 18.563867187499994 24.71044921875 21.0888671875 C9.530449218749993 21.0888671875 -5.649550781249999 21.0888671875 -21.28955078125 21.0888671875 C-21.949550781249997 15.808867187499999 -22.609550781249993 10.528867187499998 -23.28955078125 5.0888671875 C-15.166596086069049 -0.44415992371021673 -9.727852723655246 -3.8712248202901804 0 0 Z " fill="#70373D" transform="translate(89.28955078125,106.9111328125)"/>
<path d="M0 0 C6.215892362761096 3.3299423371934473 8.217440390268933 8.74118944926036 11 15 C11.701537487333923 16.34916271730387 12.406189526982473 17.696708678863047 13.11328125 19.04296875 C18.57994759514115 29.983670570381342 18.57994759514115 29.983670570381342 16.9921875 35.50390625 C14.465211016233624 39.55869905972554 12.618883274057012 42.46037224198099 8 44 C8 44.66 8 45.31999999999999 8 46 C5.689999999999998 47.31999999999999 3.3799999999999955 48.64 1 50 C1.3299999999999983 49.360625 1.6599999999999966 48.72125 2 48.0625 C4.840652530879964 39.3630016241801 2.1140909069272027 32.991939389035 -1.39453125 25.0390625 C-2.775012170270003 22.425889371119062 -3.889205195395789 20.965004172454364 -6 19 C-6 18.340000000000003 -6 17.68 -6 17 C-6.556875000000005 16.731875000000002 -7.113749999999996 16.463750000000005 -7.6875 16.1875 C-10 15 -10 15 -12.1875 13.4375 C-16.03603082928801 11.47047313169724 -19.731199520905747 11.269706348352358 -24 11 C-18.24870617486819 0.40551137475719656 -11.493220862929775 -1.1904199167522833 0 0 Z " fill="#954E56" transform="translate(99,23)"/>
<path d="M0 0 C7.171089339703386 6.636899840357529 7.958475083997868 14.626275755980814 9 24 C-1.5600000000000023 24 -12.120000000000001 24 -23 24 C-23 16.739999999999995 -23 9.480000000000004 -23 2 C-18.6996875 1.2265625 -18.6996875 1.2265625 -14.3125 0.4375 C-13.41829345703125 0.27177490234375057 -12.5240869140625 0.10604980468750114 -11.602783203125 -0.064697265625 C-3.7097452220570766 -1.4305106114574357 -3.7097452220570766 -1.4305106114574357 0 0 Z " fill="#966041" transform="translate(23,104)"/>
<path d="M0 0 C3.4040351322088043 0.2745189622748967 6.588435451571499 0.5992217566048481 9.87109375 1.53125 C16.92721959587078 3.0848923880816415 24.81669189279434 2.483291479252813 31.70703125 0.4375 C35.08026647280087 -0.20611557913747447 38.56591251100778 0 42 0 C42 8.25 42 16.5 42 25 C37.379999999999995 25 32.75999999999999 25 28 25 C27.010000000000005 23.019999999999996 26.019999999999996 21.039999999999992 25 19 C19.334936595200503 13.003198648072598 11.508545881622553 9.414796742604395 4.2578125 5.69921875 C1 4 1 4 -2 2 C-1.3400000000000034 1.3400000000000034 -0.6800000000000068 0.6800000000000068 0 0 Z " fill="#7F4A56" transform="translate(86,103)"/>
</svg>
