<?xml version="1.0" encoding="UTF-8"?>
<!-- Generator: visioncortex VTracer 0.6.0 -->
<svg version="1.1" xmlns="http://www.w3.org/2000/svg" width="128" height="128">
<path d="M0 0 C42.24 0 84.48 0 128 0 C128 42.24 128 84.48 128 128 C85.75999999999999 128 43.519999999999996 128 0 128 C0 85.75999999999999 0 43.519999999999996 0 0 Z " fill="#CEBC7D" transform="translate(0,0)"/>
<path d="M0 0 C27.72 0 55.44 0 84 0 C84 11.88 84 23.76 84 36 C80.7 37.32 77.4 38.64 74 40 C66.46667042597562 44.2882029882908 63.27842429697519 50.00941053440089 59.11328125 57.33984375 C56.7327067898201 61.527037133543104 54.094199623872655 65.30205410805463 51 69 C50.34 69 49.68000000000001 69 49 69 C49 69.66 49 70.32 49 71 C26.568742655699168 70.28437132784958 26.568742655699168 70.28437132784958 18 66 C16.2523454753128 65.90030158751784 14.500489704186734 65.87031954624548 12.75 65.875 C11.676210937500002 65.875 10.602421874999997 65.875 9.49609375 65.875 C5.976423030078152 65.95100060484644 5.976423030078152 65.95100060484644 2.41015625 66.4375 C-7.958673702783955 67.69842177493138 -7.958673702783955 67.69842177493138 -13.0625 64.375 C-14.411141113328434 63.293589625794056 -15.7284179674918 62.17105097438255 -17 61 C-17.928125 60.154375 -18.85625 59.30875 -19.8125 58.4375 C-24.47314476976009 53.2442101136959 -28.478740853132198 48.478967484197405 -29.31640625 41.28125 C-28.89507238277966 36.91186174734464 -27.232217161818614 33.77268753118693 -25.1875 29.9375 C-24.83107421875 29.24333984375 -24.4746484375 28.5491796875 -24.107421875 27.833984375 C-23.094181641056007 25.87629269363665 -22.05195466349846 23.93709110372078 -21 22 C-20.298105468750002 20.66388671875 -20.298105468750002 20.66388671875 -19.58203125 19.30078125 C-17.578911802910643 16.38760259731943 -15.25540151433086 14.457284008791927 -12.5 12.25 C-11.540937499999998 11.47140625 -10.581874999999997 10.6928125 -9.59375 9.890625 C-7 7.999999999999998 -7 7.999999999999998 -4 7 C-4 6.34 -4 5.68 -4 5 C-3.3400000000000034 5 -2.6799999999999997 5 -2 5 C-1.3400000000000034 3.3499999999999996 -0.6799999999999997 1.6999999999999997 0 0 Z " fill="#DDD299" transform="translate(44,0)"/>
<path d="M0 0 C4.643333208630743 0.9063366093225511 9.155564944449054 1.1880447806828585 13.875 1.1875 C14.978961181640614 1.1960803222656295 14.978961181640614 1.1960803222656295 16.105224609375 1.204833984375 C19.94386405493607 1.188868650219419 23.603299177925408 0.9714970797526092 27.38671875 0.3046875 C28.0887744140625 0.18456298828124318 28.790830078124998 0.06443847656250057 29.51416015625 -0.059326171875 C31.45547497977867 -0.4177405534776142 33.386545313464424 -0.8304004993622698 35.31640625 -1.24609375 C39.54184524197899 -0.963800370896422 39.87901462477508 -0.4555188144662168 42.71484375 2.40625 C47.653716343825224 7.2024533770112384 52.388957467741534 7.005027077293789 59 6.9375 C64.445 6.968437499999993 64.445 6.968437499999993 70 7 C70 15.909999999999997 70 24.819999999999993 70 34 C27.75999999999999 34 -14.480000000000004 34 -58 34 C-58 23.11 -58 12.219999999999999 -58 1 C-53.38 1.6599999999999966 -48.76 2.319999999999993 -44 3 C-40.27403212971194 3.2187257589384046 -36.65695892836651 3.380104005482167 -32.9375 3.375 C-31.99430908203125 3.37701416015625 -31.0511181640625 3.3790283203125 -30.079345703125 3.381103515625 C-23.333201330025346 3.283266186263134 -18.026637668263298 2.17550926604018 -11.6953125 -0.171875 C-7.56333144712579 -1.4414112075497627 -4.144806187573266 -0.9030583313707155 0 0 Z " fill="#51400E" transform="translate(58,94)"/>
<path d="M0 0 C5.214405131637037 -0.07412765186769857 10.42850393495953 -0.12859104370285707 15.643310546875 -0.164794921875 C17.417453430325708 -0.17988641443522282 19.191558982895884 -0.20036191021261113 20.965576171875 -0.226318359375 C23.51490487180247 -0.26268640516417513 26.06374058869939 -0.27972238304545116 28.61328125 -0.29296875 C29.407127227783207 -0.3084526062011719 30.200973205566413 -0.32393646240234375 31.018875122070313 -0.3398895263671875 C36.5037780374179 -0.34156781334652775 36.5037780374179 -0.34156781334652775 39.024169921875 1.393310546875 C40 3.0000000000000018 40 3.0000000000000018 40 5 C40.708984375 5.23203125 41.41796875 5.4640625 42.1484375 5.703125 C45.5620696554127 7.255626199447966 47.8524545385234 9.229504125930365 50.625 11.75 C51.566015625000006 12.59046875 52.50703125 13.4309375 53.4765625 14.296875 C57.76896859510657 18.89493230311726 59.417769016856155 22.78684707203727 59.3125 29.0625 C59.308632812499994 30.0641015625 59.304765625 31.065703125 59.30078125 32.09765625 C58.91595354567396 35.81099370862666 58.21246424042748 38.730439105591174 55.58984375 41.4765625 C47.937829298041564 46.794983892141325 40.20354946132821 48.49104795605558 31 49 C30.150507812499995 49.08765625 29.30101562499999 49.1753125 28.42578125 49.265625 C21.98519633467299 49.69960009383521 21.98519633467299 49.69960009383521 19.26171875 47.765625 C18.700976562500003 47.24484375 18.140234375 46.7240625 17.5625 46.1875 C12.759549644298538 41.977506478335755 7.088930104336129 41.73544139551558 0.965087890625 41.026123046875 C-6.102823774967426 40.18072709945353 -11.604814090174294 38.40985509166703 -17.3125 33.9375 C-17.9686328125 33.4308984375 -18.624765625000002 32.924296875 -19.30078125 32.40234375 C-20.999999999999996 31.000000000000004 -20.999999999999996 31.000000000000004 -23 29 C-22.656971828232237 22.99700699406414 -19.666377661125896 18.543960111807802 -15.39453125 14.5859375 C-7.802294792586061 8.267431597528688 -7.802294792586061 8.267431597528688 -4 7 C-4 6.34 -4 5.68 -4 5 C-3.3400000000000034 5 -2.6799999999999997 5 -2 5 C-1.3400000000000034 3.3499999999999996 -0.6799999999999997 1.6999999999999997 0 0 Z " fill="#F4F0B5" transform="translate(44,0)"/>
<path d="M0 0 C6.815840742685002 0 10.429457698061404 0.09456040594241699 16.5625 1.93359375 C17.23869384765625 2.1309864807128918 17.9148876953125 2.3283792114257835 18.611572265625 2.5317535400390625 C20.74459724928292 3.1556658099833896 22.87247037804504 3.795121750819746 25 4.4375 C46.4604625165766 10.863417534861028 66.1169429311573 12.707216855710001 86.75 2.0625 C90.66864123183689 0.1861287240255507 92.77491007584285 -0.29560437982289045 96.9375 1.0625 C99.04503199633662 1.980359729245663 101.021043224048 3.0117582562117917 103.02734375 4.1328125 C108.36386033370023 6.478766324913764 115.40007214833449 3.3786509224524934 120.60546875 1.62109375 C123 1 123 1 128 1 C128 9.579999999999998 128 18.159999999999997 128 27 C124.37 27.144374999999997 120.74 27.288749999999993 117 27.4375 C115.8720703125 27.501228027343757 114.744140625 27.5649560546875 113.58203125 27.630615234375 C106.09346080781515 27.773864510287737 106.09346080781515 27.773864510287737 102.726318359375 25.390869140625 C101.40978638603868 24.112367827520984 100.10690799148612 22.819617341031176 98.81982421875 21.511474609375 C96.92006661292325 19.63315121509204 96.92006661292325 19.63315121509204 93.31640625 19.75390625 C92.0776171875 20.020742187500005 90.838828125 20.287578124999996 89.5625 20.5625 C88.16697308780896 20.817557137998364 86.76972831266217 21.063355753432774 85.37109375 21.30078125 C84.6555029296875 21.426625976562505 83.939912109375 21.552470703124996 83.20263671875 21.68212890625 C74.27469682242173 22.970554725915193 64.99952505672184 22.467522933686 56.26171875 20.390625 C50.67132444244554 19.425099212857603 45.541748871974704 20.350144561490225 40.3671875 22.53125 C35.34953813613866 24.47199461360111 30.572928946059456 24.412109829363132 25.25 24.3125 C24.282236328125 24.303395996093755 23.31447265625 24.294291992187496 22.3173828125 24.284912109375 C6.003404648132065 24.00170232406603 6.003404648132065 24.00170232406603 0 21 C0 14.069999999999993 0 7.140000000000001 0 0 Z " fill="#9D8F59" transform="translate(0,74)"/>
<path d="M0 0 C4.643333208630743 0.9063366093225511 9.155564944449054 1.1880447806828585 13.875 1.1875 C14.978961181640614 1.1960803222656295 14.978961181640614 1.1960803222656295 16.105224609375 1.204833984375 C20.69085185156132 1.185761843770834 24.993135459424252 0.7325273935035597 29.50244140625 -0.073486328125 C37.910661798717925 -1.5592242524162572 37.910661798717925 -1.5592242524162572 41.77734375 0.42578125 C43.76876723528848 2.172214148346143 45.42490884912631 3.875699434676932 47 6 C43.09224536247072 11.86163195629392 34.6243480831256 14.16374862600513 28 16 C19.82619688193394 17.498316613744663 11.860751715539195 16.517442724051463 3.84375 14.61328125 C2.78228759765625 14.362880859374997 1.7208251953125 14.112480468749993 0.627197265625 13.8544921875 C-1.4570935809583716 13.336969071823276 -3.5310662567176934 12.775390125014582 -5.590087890625 12.1650390625 C-11.199955174124185 10.69636678469341 -11.199955174124185 10.69636678469341 -16.611083984375 12.27490234375 C-24.45595250385953 18.157960204523533 -27.347154515569294 24.71504080449253 -30 34 C-39.24 34 -48.480000000000004 34 -58 34 C-58 23.11 -58 12.219999999999999 -58 1 C-53.38 1.6599999999999966 -48.76 2.319999999999993 -44 3 C-40.27403212971194 3.2187257589384046 -36.65695892836651 3.380104005482167 -32.9375 3.375 C-31.99430908203125 3.37701416015625 -31.0511181640625 3.3790283203125 -30.079345703125 3.381103515625 C-23.333201330025346 3.283266186263134 -18.026637668263298 2.17550926604018 -11.6953125 -0.171875 C-7.56333144712579 -1.4414112075497627 -4.144806187573266 -0.9030583313707155 0 0 Z " fill="#6E551E" transform="translate(58,94)"/>
<path d="M0 0 C11.219999999999999 0 22.439999999999998 0 34 0 C33.01830145969163 3.9267941612335275 32.46102973617943 4.965547981022199 29.875 7.8125 C29.24464843749999 8.5124609375 28.614296875000008 9.212421875 27.96484375 9.93359375 C26.175314032347984 11.81562400971752 24.327125511982842 13.594796009869164 22.4375 15.375 C14.452823091464516 23.377701009909153 12.035236209792053 30.759649076334487 12 42 C6.424192398422072 42.15540154965379 1.474423288023246 41.77826205451394 -3.9375 40.4375 C-4.631176757812497 40.2662158203125 -5.324853515625001 40.094931640625 -6.03955078125 39.91845703125 C-13.156955437646225 37.9740200031296 -17.84894665783176 34.15105334216824 -23 29 C-22.656971828232237 22.99700699406414 -19.666377661125896 18.543960111807802 -15.39453125 14.5859375 C-7.802294792586061 8.267431597528688 -7.802294792586061 8.267431597528688 -4 7 C-4 6.34 -4 5.68 -4 5 C-3.3400000000000034 5 -2.6799999999999997 5 -2 5 C-1.3400000000000034 3.3499999999999996 -0.6799999999999997 1.6999999999999997 0 0 Z " fill="#E4E6AF" transform="translate(44,0)"/>
<path d="M0 0 C3.177740659886563 1.4450811598126663 5.647775521672926 3.2734054907472867 8.375 5.4375 C15.670352850776922 10.620756604466322 24.016513407340085 11.85018242760637 32.8125 12.25 C38.43437920044457 12.704400010562253 41.89019632948871 16.412076160664753 46 20 C44.02000000000001 25.28 42.04 30.560000000000002 40 36 C36.188866989056436 36.500909010147765 32.3823449587054 36.95131608747576 28.5625 37.375 C27.493222656249998 37.5206640625 26.423945312499995 37.66632812500001 25.322265625 37.81640625 C18.338857680301885 38.54250982834782 14.40633553820146 37.91653920221205 8.8017578125 33.584716796875 C1.9433542032912676 27.552481318911063 -3.881078049586872 21.433801214875494 -5.5 12.125 C-4.760447714381694 7.502798214885594 -2.4497526023666616 3.9371023966607055 0 0 Z " fill="#E1DCA3" transform="translate(20,29)"/>
<path d="M0 0 C14.520000000000001 0 29.040000000000003 0 44 0 C43.34 1.6500000000000001 42.68 3.3000000000000003 42 5 C41.34 5 40.68 5 40 5 C40 5.66 40 6.32 40 7 C37.95312500000003 8.874999999999973 37.95312500000003 8.874999999999973 35.25 11 C34.36828125 11.70125 33.4865625 12.4025 32.578125 13.125 C30 15 30 15 27.796875 15.9375 C25.197682419735795 17.47441387354753 24.986905127987757 19.162167744813416 24 22 C22.699957750093986 24.75603207760617 21.31301242680007 27.468463807488234 19.9375 30.1875 C19.57333984375 30.91130859375 19.2091796875 31.6351171875 18.833984375 32.380859375 C17.890950090967262 34.25472602072124 16.945631147218123 36.12744249748675 16 38 C15.67 38.66 15.34 39.32 15 40 C12.499147242563811 38.84576026579868 10.34991729977545 37.55739050197477 8.0625 36 C4.814544486677173 33.73564904730779 4.814544486677173 33.73564904730779 0 32 C0 21.439999999999998 0 10.879999999999999 0 0 Z " fill="#CEC58F" transform="translate(0,0)"/>
<path d="M0 0 C0.9620434570312568 0.0074926757812505684 1.9240869140624994 0.014985351562501137 2.915283203125 0.022705078125 C4.122731933593755 0.05001708984374886 5.330180664062496 0.07732910156249773 6.57421875 0.10546875 C12.359531250000003 0.19828124999999375 12.359531250000003 0.19828124999999375 18.26171875 0.29296875 C18.26171875 9.202968749999997 18.26171875 18.112968749999993 18.26171875 27.29296875 C5.3917187499999955 27.29296875 -7.478281250000009 27.29296875 -20.73828125 27.29296875 C-23.73828125 12.29296875 -23.73828125 12.29296875 -23.73828125 8.29296875 C-22.857851562500002 7.966835937499994 -21.977421875000005 7.640703125000002 -21.0703125 7.3046875 C-19.908867187499993 6.867695312500004 -18.747421875 6.430703124999994 -17.55078125 5.98046875 C-16.402226562500005 5.551210937500002 -15.253671874999995 5.1219531250000045 -14.0703125 4.6796875 C-10.803892832560308 3.446009266199553 -10.803892832560308 3.446009266199553 -8.388671875 1.724609375 C-5.315216903309903 0.06444541461029019 -3.4687026501176774 -0.055647636098143494 0 0 Z " fill="#60460E" transform="translate(109.73828125,100.70703125)"/>
<path d="M0 0 C0 12.870000000000005 0 25.740000000000002 0 39 C-3.0112499999999898 39.845625 -6.022500000000008 40.69125 -9.125 41.5625 C-10.062309570312493 41.83263916015625 -10.999619140625 42.102778320312495 -11.96533203125 42.381103515625 C-19.02569714108182 44.299206965591026 -23.690901755801633 43.940823096487804 -30.3125 40.625 C-31.1748828125 40.20476562499999 -32.037265625 39.78453125 -32.92578125 39.3515625 C-35 38 -35 38 -36 35 C-35.67 34.34 -35.34 33.68000000000001 -35 33 C-34.34 33 -33.68000000000001 33 -33 33 C-32.738320312499994 32.4366796875 -32.476640625 31.873359375000007 -32.20703125 31.29296875 C-30.88830527111702 28.78781616228379 -29.350830093140758 26.602805959734837 -27.6875 24.3125 C-25.34167690437451 21.026408969351067 -23.28544979479402 17.775402523658528 -21.4375 14.1875 C-17.91694144363437 7.673893289851215 -12.488810475211295 4.303394423743924 -6 1 C-3.9251122995694345 0.4587249477137618 -2.1351487325355833 0 0 0 Z " fill="#CEB676" transform="translate(128,36)"/>
<path d="M0 0 C4.471763304872184 1.4812775122745165 9.145640366228108 1.891787608875319 13.80615234375 2.451416015625 C14.81935546874999 2.5809667968750034 15.832558593750008 2.710517578125007 16.87646484375 2.843994140625 C19.352075228266898 3.159284142426685 21.8284364320333 3.465707947303059 24.30615234375 3.763916015625 C24.801152343750005 5.248916015624999 24.801152343750005 5.248916015624999 25.30615234375 6.763916015625 C9.07236878829977 15.538934153706208 -10.002773910425724 21.49467698228932 -28.57666015625 16.701416015625 C-32.05334610920082 15.622731582560107 -35.38898627027606 14.294532907526388 -38.69384765625 12.763916015625 C-38.0615625 11.733310546875003 -38.0615625 11.733310546875003 -37.41650390625 10.681884765625 C-36.86865234375 9.780830078125007 -36.32080078125 8.879775390625 -35.75634765625 7.951416015625 C-35.21107421875 7.058095703125005 -34.66580078125 6.164775390624996 -34.10400390625 5.244384765625 C-32.58375188075065 2.7568803979870893 -32.58375188075065 2.7568803979870893 -31.69384765625 -0.236083984375 C-9.7200089420692 -3.8767199843576208 -9.7200089420692 -3.8767199843576208 0 0 Z " fill="#C1BA85" transform="translate(67.69384765625,67.236083984375)"/>
<path d="M0 0 C4.64333320863075 0.9063366093225511 9.155564944449026 1.1880447806828585 13.875 1.1875 C14.978961181640628 1.1960803222656295 14.978961181640628 1.1960803222656295 16.105224609375 1.204833984375 C20.690851851561348 1.185761843770834 24.993135459424252 0.7325273935035597 29.50244140625 -0.073486328125 C37.91066179871791 -1.5592242524162572 37.91066179871791 -1.5592242524162572 41.77734375 0.42578125 C43.76876723528849 2.172214148346143 45.4249088491263 3.8756994346769034 47 6 C43.09352697595398 11.859709536069033 34.623780108987916 14.167285380887392 28 16 C14.918732242838018 18.38026631572413 -0.6239334215039918 15.32902748341067 -13 11 C-16.023437499999993 8.90625 -16.023437499999993 8.90625 -18 7 C-19.311389043070378 6.291141057799791 -20.637770172440497 5.605435478915339 -22 5 C-22 4.340000000000003 -22 3.680000000000007 -22 3 C-14.289595413191527 0.22330097569339102 -8.093423470933836 -1.7633715942258021 0 0 Z " fill="#746637" transform="translate(58,94)"/>
<path d="M0 0 C0 8.579999999999998 0 17.159999999999997 0 26 C-3.6299999999999955 26.144374999999997 -7.260000000000005 26.288749999999993 -11 26.4375 C-12.1279296875 26.501228027343757 -13.255859375 26.5649560546875 -14.41796875 26.630615234375 C-20.103696349417007 26.739377830379368 -23.38484662042248 26.292165457130324 -27.75 22.47265625 C-28.86092136093619 21.341554279991925 -29.955222698840984 20.1924673277383 -31 19 C-29.622191025599008 14.98139049133043 -27.73478207203391 12.232015176040065 -25 9 C-24.635195312500002 8.346445312499995 -24.270390625000005 7.692890625000004 -23.89453125 7.01953125 C-21.011531589133824 3.946313054808627 -17.617117921194676 3.3222073470776223 -13.625 2.25 C-12.491914062500001 1.9193554687499983 -12.491914062500001 1.9193554687499983 -11.3359375 1.58203125 C-7.253429247476447 0.4329336474540355 -4.36892281156554 0 0 0 Z " fill="#9A7F3F" transform="translate(128,75)"/>
</svg>
