<?xml version="1.0" encoding="UTF-8"?>
<!-- Generator: visioncortex VTracer 0.6.0 -->
<svg version="1.1" xmlns="http://www.w3.org/2000/svg" width="128" height="128">
<path d="M0 0 C42.24 0 84.48 0 128 0 C128 42.24 128 84.48 128 128 C85.75999999999999 128 43.519999999999996 128 0 128 C0 85.75999999999999 0 43.519999999999996 0 0 Z " fill="#465489" transform="translate(0,0)"/>
<path d="M0 0 C42.24 0 84.48 0 128 0 C128 25.41 128 50.82 128 77 C122.86078160797203 74.94431264318881 121.24023075966745 73.24636880984266 118.375 68.875 C117.98111083984375 68.28388427734374 117.5872216796875 67.6927685546875 117.181396484375 67.083740234375 C111.02580802151301 57.63758294412892 109.92489734502387 48.58833248950731 108.7265625 37.4609375 C108.24295867190685 32.417356133755106 108.24295867190685 32.417356133755106 106 28 C101.33800930844461 24.598006792648775 96.82980597982198 23.95710917910401 91.18359375 23.67578125 C78.36489615688187 22.893277114214104 67.04841645185539 20.695879476051573 54.8896484375 16.61279296875 C50.23057949340883 15.101906269826378 45.89251978363051 14.503351123475953 41 15 C38.441311248455285 16.321208667602956 36.32366448031125 18.027511096405128 34.125 19.875 C33.544921875 20.3351953125 32.96484375 20.795390625 32.3671875 21.26953125 C29.223987481130283 23.74190709017622 29.223987481130283 23.74190709017622 27 27 C26.34 27 25.68 27 25 27 C24.312255946175302 28.322584718893648 23.652886268346517 29.65986502813083 23 31 C22.23236328125 32.49853515625 22.23236328125 32.49853515625 21.44921875 34.02734375 C19.49304697186716 38.63091196461296 19.55867534949424 43.06249824012685 19.625 48 C19.6133984375 48.863671875 19.601796875 49.72734375 19.58984375 50.6171875 C19.62161478451149 57.58563440285309 20.856736642546853 62.33540231235555 25.3125 67.875 C30.98193677824671 72.20542407182663 40.03802723136117 71.34556348967453 46.75 70.5625 C47.8225 70.376875 48.895 70.19125 50 70 C59.24293667198215 69.26643359746173 68.59812747082788 71.01635354220288 77 75 C78.9375 77.81249999999999 78.9375 77.81249999999999 80 81 C78.86957048522984 84.63394618884229 77.0958174931254 87.65305512911345 75 90.8125 C74.484375 91.6026953125 73.96875 92.392890625 73.4375 93.20703125 C72.963125 93.7987109375 72.48875 94.390390625 72 95 C71.34 95 70.68 95 70 95 C69.7525 95.598125 69.505 96.19625 69.25 96.8125 C67.7325294047942 99.46807354161014 66.68785307913905 100.51460750889684 64 102 C55.36132585958478 104.23027776567653 49.804081406151944 100.47670231524087 42.220703125 96.515625 C35.87838275697907 93.37752069004107 31.965016599563768 92.31321495066064 25 94 C23.017228282796214 97.96554343440756 24.913491699497065 102.88411387641992 26 107 C27.435006455215618 110.47010651897595 29.194008248921484 113.71124797601895 31 117 C31.944680900862124 118.87139232806655 32.88240577514487 120.74631535831818 33.8125 122.625 C34.2314453125 123.462890625 34.650390625 124.30078125 35.08203125 125.1640625 C35.3849609375 125.769921875 35.687890625 126.37578125 36 127 C35.67 127.33 35.34 127.66 35 128 C23.45 128 11.899999999999999 128 0 128 C0 85.75999999999999 0 43.519999999999996 0 0 Z " fill="#5E6895" transform="translate(0,0)"/>
<path d="M0 0 C3.6151801775833974 1.3642189349371279 3.98724230782301 1.7590755903629969 5.6875 5 C8.056890654541363 10.398090012955095 8.469411514446648 15.514246167977475 8.5 21.375 C8.514179687500004 22.594453125 8.528359374999994 23.813906250000002 8.54296875 25.0703125 C8.261397017565685 30.1767829017749 7.227360821847071 35.21826547984112 6.3125 40.25 C-16.787499999999994 40.25 -39.8875 40.25 -63.6875 40.25 C-64.3475 38.27000000000001 -65.0075 36.28999999999999 -65.6875 34.25 C-66.80657896161875 32.222989050652814 -67.97514765742379 30.222641099785022 -69.1875 28.25 C-72.5477454139281 22.78248203835429 -74.72821647220448 17.802118805750666 -75.3125 11.375 C-75.387265625 10.593828125000002 -75.46203125 9.812656250000003 -75.5390625 9.0078125 C-75.6125390625 8.1376953125 -75.6125390625 8.1376953125 -75.6875 7.25 C-72.61595357238562 4.77294642934325 -70.44265703997158 4.005586656434502 -66.59375 4.37109375 C-60.306919636706986 5.193937323209624 -55.20752895892447 8.20311988668503 -49.705078125 11.1875 C-44.07885593437973 14.067098643610052 -40.882536647707944 14.642369800299178 -34.6875 13.25 C-33.2025 12.971562500000005 -33.2025 12.971562500000005 -31.6875 12.6875 C-31.027500000000003 12.543125000000003 -30.367500000000007 12.398750000000007 -29.6875 12.25 C-29.6875 12.909999999999997 -29.6875 13.569999999999993 -29.6875 14.25 C-27.70750000000001 14.579999999999998 -25.727499999999992 14.909999999999997 -23.6875 15.25 C-23.352988281249992 14.368281249999995 -23.352988281249992 14.368281249999995 -23.01171875 13.46875 C-20.346191966510844 9.002616628254145 -15.053077150690555 6.865713355198778 -10.6875 4.25 C-9.680097656249998 3.5693749999999937 -9.680097656249998 3.5693749999999937 -8.65234375 2.875 C-5.649153082128137 0.904797466179744 -3.6060380362914373 0.2444771550028122 0 0 Z " fill="#405275" transform="translate(98.6875,87.75)"/>
<path d="M0 0 C1.230732421875004 0.3441796874999987 1.230732421875004 0.3441796874999987 2.486328125 0.6953125 C3.722861328124999 1.0278906250000013 3.722861328124999 1.0278906250000013 4.984375 1.3671875 C9.347134200046895 2.5529094248728548 13.650556269870322 3.8381728290149866 17.923828125 5.3203125 C16.871423601406732 8.793247427857779 15.352507141279176 11.137077238363318 12.986328125 13.8203125 C7.8319725371381494 19.691249230564594 5.706769771236523 24.378530379948167 5.923828125 32.3203125 C7.491161765211032 36.69234844374657 10.033843351065116 39.732745194425675 12.923828125 43.3203125 C12.923828125 43.9803125 12.923828125 44.6403125 12.923828125 45.3203125 C11.7984765625 45.371875 10.673124999999999 45.4234375 9.513671875 45.4765625 C0.14459808364467364 46.102398572352904 -7.104464338600607 47.53871777198021 -15.127197265625 52.576171875 C-18.96994619448887 54.96181694546084 -21.550305208338145 56.01659967948643 -26.076171875 55.3203125 C-28.341796875000004 54 -28.341796875000004 54 -30.326171875 52.1953125 C-30.991328125 51.615234375 -31.656484374999998 51.03515625 -32.341796875 50.4375 C-36.67752224532418 45.14479020109076 -36.44149105693217 38.96050305964749 -36.451171875 32.4453125 C-36.4756640625 31.585507812499998 -36.50015625 30.725703125000003 -36.525390625 29.83984375 C-36.559802610861965 22.280677522321717 -34.19879624713021 17.50424905819532 -30.076171875 11.3203125 C-29.416171875 11.3203125 -28.756171875 11.3203125 -28.076171875 11.3203125 C-27.8634765625 10.75828125 -27.65078125 10.19625 -27.431640625 9.6171875 C-25.586822160881454 6.491097422473473 -23.261239916991947 4.7760987505634525 -20.388671875 2.5703125 C-19.374179687500003 1.7710937499999986 -18.3596875 0.9718750000000007 -17.314453125 0.1484375 C-11.436304550475228 -3.169986544484429 -6.191270469684028 -1.660228952764431 0 0 Z " fill="#262875" transform="translate(55.076171875,15.6796875)"/>
<path d="M0 0 C19.47 0 38.94 0 59 0 C59 25.41 59 50.82 59 77 C53.860781607972 74.9443126431888 52.24023075966747 73.24636880984266 49.375 68.875 C48.98111083984375 68.28388427734374 48.5872216796875 67.6927685546875 48.181396484375 67.083740234375 C42.02580802151303 57.63758294412894 40.924897345023865 48.58833248950731 39.7265625 37.4609375 C39.28585356628105 32.38466104931318 39.28585356628105 32.38466104931318 37 28 C34.72850468155494 26.485669787703298 32.432118193404676 25.261098322506125 30 24 C31.319999999999993 21.36 32.64 18.72 34 16 C32.008398437500006 15.76216796875 32.008398437500006 15.76216796875 29.9765625 15.51953125 C8.800432916576256 12.800432916576263 8.800432916576256 12.800432916576263 1.375 5.375 C0 3 0 3 0 0 Z " fill="#5685D0" transform="translate(69,0)"/>
<path d="M0 0 C10.56 0 21.12 0 32 0 C30.916630582274685 5.416847088626568 30.156355494446206 6.311847604725891 26.34375 9.9765625 C25.4040234375 10.894375 24.464296875 11.8121875 23.49609375 12.7578125 C22.498079950703236 13.714256029532683 21.499374030747404 14.669977845576664 20.5 15.625 C18.545613432703618 17.506579811469013 16.599778890820584 19.396187997280364 14.65625 21.2890625 C13.78806640625 22.1213134765625 12.9198828125 22.953564453125 12.025390625 23.81103515625 C8.843423945651635 27.249983233279586 8.798299991737787 30.25656661958992 8.86181640625 34.8193359375 C9.08579243446028 38.35388343568767 9.834806677520046 41.69498398347979 10.6875 45.125 C10.953248291015624 46.2285986328125 10.953248291015624 46.2285986328125 11.224365234375 47.3544921875 C12.701022101354477 53.27133431597635 14.695836915957639 58.92819889830626 16.828125 64.640625 C19.28484776216032 71.68323025152625 21.753322590452658 79.47709358301385 21 87 C19.601562500000014 88.87890624999999 19.601562500000014 88.87890624999999 17.625 90.5625 C13.269890791511974 94.55274266160934 9.864657442108463 98.93065098952377 6.41455078125 103.695556640625 C3.3092166156334213 107.89692779478887 3.3092166156334213 107.89692779478887 0 109 C0 73.03 0 37.06 0 0 Z " fill="#998899" transform="translate(0,0)"/>
<path d="M0 0 C12.21 0 24.42 0 37 0 C37.99000000000001 1.98 38.97999999999999 3.96 40 6 C48.376362448275486 13.807831060383489 61.24624246188894 13.668177590800475 72 15 C70.35 17.97 68.7 20.94 67 24 C52.06201086389517 23.41176830344872 38.833421164049525 21.7796283878287 24.6015625 17.12109375 C15.90261136282352 14.296353218841467 15.90261136282352 14.296353218841467 7.2392578125 15.9091796875 C5.4550529302623545 17.153997194171158 3.7904089742231406 18.475593848048614 2.125 19.875 C1.544921875 20.3351953125 0.96484375 20.795390625 0.3671875 21.26953125 C-2.7760125188697202 23.74190709017622 -2.7760125188697202 23.74190709017622 -5 27 C-5.66 27 -6.32 27 -7 27 C-7.687744053824698 28.322584718893648 -8.34711373165348 29.65986502813083 -9 31 C-9.518203125 31.9629296875 -10.036406249999999 32.925859375 -10.5703125 33.91796875 C-12.75356201360687 39.034897261725725 -12.244498727104158 44.290038186875265 -12.0625 49.75 C-12.002598403510635 51.80704631348584 -11.951412812756072 53.86437028964884 -11.91015625 55.921875 C-11.88058837890625 56.825185546875 -11.8510205078125 57.72849609375 -11.820556640625 58.6591796875 C-12 61 -12 61 -14 64 C-14.66 64 -15.32 64 -16 64 C-25.162025316455694 39.845569620253166 -25.162025316455694 39.845569620253166 -24 29 C-22.055793911080386 25.20501909738527 -19.682351732826053 22.47458191169168 -16.62109375 19.53125 C-15.78255859375 18.7126953125 -14.9440234375 17.894140625 -14.080078125 17.05078125 C-12.316336145330439 15.34830746918075 -10.550704672856902 13.647789038080289 -8.783203125 11.94921875 C-7.94595703125 11.1306640625 -7.1087109375 10.312109375 -6.24609375 9.46875 C-5.479665527343752 8.73076171875 -4.7132373046875 7.9927734375 -3.923583984375 7.232421875 C-1.5965340961552705 4.77607803907304 -1.5965340961552705 4.77607803907304 0 0 Z " fill="#7B69A1" transform="translate(32,0)"/>
<path d="M0 0 C1.0157812500000034 0.05800781250000142 2.031562500000007 0.11601562499999929 3.078125 0.17578125 C16.17941095132744 1.0435287610619461 16.17941095132744 1.0435287610619461 21.4375 5.25 C24.842005655602634 9.529949967043311 25.865405631846755 13.03109341946265 25.5625 18.4375 C24.760767197225007 23.91139982584305 22.445229284369887 27.86595788944274 18.01953125 31.21484375 C7.69582215453525 37.475216542444294 -4.442189259457251 39.60251953341362 -16.375 38 C-20.569934899948528 35.53282188257827 -21.92606123425118 31.99140644102866 -23.875 27.6875 C-24.792191805076747 20.923210437559014 -23.651959896911087 15.276582754740303 -19.5625 9.75 C-18.518315004440765 8.484660541574332 -17.453240827766464 7.236447721231066 -16.375 6 C-15.718867187499995 4.932656250000001 -15.062734375000005 3.8653125000000017 -14.38671875 2.765625 C-10.63537477643851 -1.7272555239951757 -5.329260077937192 -0.46312209745298105 0 0 Z " fill="#173C9B" transform="translate(84.375,22)"/>
<path d="M0 0 C2.1487137535073657 3.2230706302610557 2.3654119899047146 4.79418677205399 2.8125 8.5625 C4.217499074188723 17.640111205891202 8.035311856415262 24.183213550188867 14 31 C14 31.659999999999997 14 32.31999999999999 14 33 C15.650000000000006 33.66 17.299999999999997 34.31999999999999 19 35 C19 51.83 19 68.66 19 86 C14.710000000000008 86 10.420000000000002 86 6 86 C5.8747076511861 77.48012028065486 5.8747076511861 77.48012028065486 6.48828125 75.12890625 C9.188252526668322 63.89620132034938 7.226321907562436 46.87003425472194 1.4609375 36.96484375 C-5.3214238207956726 27.84311181320794 -11.39922203520382 23.01432338467569 -22.2265625 19.90234375 C-23.141796874999997 19.6045703125 -24.057031249999994 19.306796875000003 -25 19 C-25.33 18.340000000000003 -25.659999999999997 17.68 -26 17 C-25.203359375000005 16.818242187500005 -24.406718749999996 16.636484374999995 -23.5859375 16.44921875 C-15.218249946982112 14.464183381583346 -8.782749050164455 12.720492139380305 -3 6 C-1.206791764069834 2.833545255753002 -1.206791764069834 2.833545255753002 0 0 Z " fill="#4666AE" transform="translate(109,42)"/>
<path d="M0 0 C3.5625 1.125 3.5625 1.125 4.87109375 2.8046875 C10.802158454406367 14.319208721008678 9.246858098694872 27.877616174704684 6.5625 40.125 C1.9424999999999955 40.125 -2.677500000000009 40.125 -7.4375 40.125 C-7.4375 39.13499999999999 -7.4375 38.14500000000001 -7.4375 37.125 C-8.097499999999997 37.125 -8.757499999999993 37.125 -9.4375 37.125 C-10.557072847081258 36.04041380439003 -11.666449012972237 34.94406927235181 -12.734375 33.80859375 C-14.518127436522562 31.996854346567346 -14.518127436522562 31.996854346567346 -16.953125 30.03515625 C-24.058572005746086 24.097032680912193 -24.058572005746086 24.097032680912193 -25.875 19.4375 C-25.318020260951357 15.220367690060314 -23.413322555672792 12.99072888325739 -20.4375 10.125 C-18.16501045928375 8.49706149356939 -15.783865728116822 7.175718804272009 -13.3125 5.875 C-12.080337783349691 5.203843033758048 -10.84855330489583 4.531992020308692 -9.6171875 3.859375 C-8.567890625000004 3.2870312499999983 -7.518593750000008 2.7146874999999966 -6.4375 2.125 C-3.4375 0.125 -3.4375 0.125 0 0 Z " fill="#1F2B5A" transform="translate(98.4375,87.875)"/>
<path d="M0 0 C3.2418083341254906 3.492555940079953 3.724255025479277 7.07615462345629 4.375 11.625 C5.513750295737854 18.51809012576925 7.5013800803496125 23.92076538742964 11 30 C11.947816192594622 31.869806330895102 12.8855187482676 33.74477740441813 13.8125 35.625 C14.2314453125 36.462890625 14.650390625 37.30078125 15.08203125 38.1640625 C15.384960937499997 38.769921874999994 15.687890625000001 39.37578125 16 40 C15 41 15 41 11.673583984375 41.113525390625 C10.197744435082516 41.11336629332908 8.721899313912338 41.107673140395065 7.24609375 41.09765625 C6.470647125244142 41.09624130249023 5.69520050048828 41.094826354980455 4.8962554931640625 41.09336853027344 C2.4099650565335686 41.0877534531995 -0.07623660328135884 41.07519846391307 -2.5625 41.0625 C-4.244139328090071 41.0574869392085 -5.925780062113343 41.05292369687746 -7.607421875 41.048828125 C-11.738315660714482 41.037779131268735 -15.869142759815194 41.02050444601849 -20 41 C-20.13530844271089 37.93601548616893 -20.234240695898 34.8780287406812 -20.3125 31.8125 C-20.35439453125 30.948183593750002 -20.3962890625 30.083867187500005 -20.439453125 29.193359375 C-20.563813931927093 22.70172525340567 -20.563813931927093 22.70172525340567 -17.828125 19.296875 C-16.89484375 18.538906249999997 -15.9615625 17.780937499999993 -15 17 C-14.059099495552571 15.956425498964506 -13.141788785943149 14.891216445618241 -12.24609375 13.80859375 C-11.78396484375 13.256230468750005 -11.3218359375 12.703867187499995 -10.845703125 12.134765625 C-10.148642578125 11.294619140625002 -10.148642578125 11.294619140625002 -9.4375 10.4375 C-6.419325492488973 6.804896569364303 -3.4087247946802606 3.2803963318217058 0 0 Z " fill="#846A73" transform="translate(20,87)"/>
<path d="M0 0 C19.47 0 38.94 0 59 0 C59 7.590000000000001 59 15.180000000000001 59 23 C54.06961320600513 22.17826886766752 52.42761471209789 21.888584867984033 48.53125 19.5625 C42.11946778019495 16.222230220820123 35.611331096843884 15.716249175221687 28.5 15 C18.299826031516787 13.972644348498093 8.917605759462205 12.9176057594622 1.375 5.375 C0 3 0 3 0 0 Z " fill="#AEAFD6" transform="translate(69,0)"/>
<path d="M0 0 C1.85546875 0.5208333333333339 3.7109375 1.041666666666666 5.56640625 1.5625 C4.56640625 3.5625 4.56640625 3.5625 2.3125 4.3671875 C-6.0127110497833485 7.990963575723619 -13.283735570119696 19.121835871115834 -17.80859375 26.9375 C-19.03769403875802 32.09972121278368 -18.952934254634307 37.34349966201706 -17.74609375 42.5 C-15.907477587727996 45.38925396928458 -14.648806894134296 46.289811463780175 -11.43359375 47.5625 C-8.083828328971798 47.798471224145935 -4.785152522196171 47.738212789998634 -1.43359375 47.5625 C-3.884148914163177 50.291713610924205 -6.555216238761183 51.96257898748033 -9.74609375 53.75 C-10.670351562500002 54.27980468749999 -11.594609375000005 54.80960937500001 -12.546875 55.35546875 C-15.836292159231853 56.73088133755432 -17.902813200737498 57.01273376131536 -21.43359375 56.5625 C-23.699218750000004 55.2421875 -23.699218750000004 55.2421875 -25.68359375 53.4375 C-26.34875 52.857421875 -27.013906249999998 52.27734375 -27.69921875 51.6796875 C-32.03494412032418 46.38697770109076 -31.798912931932172 40.20269055964749 -31.80859375 33.6875 C-31.8330859375 32.8276953125 -31.857578125 31.967890625000003 -31.8828125 31.08203125 C-31.917224485861965 23.522865022321717 -29.55621812213021 18.74643655819532 -25.43359375 12.5625 C-24.77359375 12.5625 -24.11359375 12.5625 -23.43359375 12.5625 C-23.2208984375 12.00046875 -23.008203125 11.4384375 -22.7890625 10.859375 C-20.944244035881454 7.733284922473473 -18.618661791991947 6.0182862505634525 -15.74609375 3.8125 C-14.731601562500003 3.0132812499999986 -13.717109375 2.2140625000000007 -12.671875 1.390625 C-8.234595788755506 -1.114377015515588 -4.913220364576617 -0.8832755711598423 0 0 Z " fill="#3F3464" transform="translate(50.43359375,14.4375)"/>
<path d="M0 0 C3.6299999999999955 0 7.260000000000005 0 11 0 C11.19200747993694 5.472213178202845 11.047639510959492 9.80960458224753 9 15 C7.033806273352518 17.107689453761576 4.810832173937392 18.69025464967681 2.4375 20.3125 C-1.8995484779075404 23.084358251286183 -1.8995484779075404 23.084358251286183 -5 27 C-5.66 27 -6.32 27 -7 27 C-7.687744053824698 28.322584718893648 -8.34711373165348 29.65986502813083 -9 31 C-9.518203125 31.9629296875 -10.036406249999999 32.925859375 -10.5703125 33.91796875 C-12.75356201360687 39.034897261725725 -12.244498727104158 44.290038186875265 -12.0625 49.75 C-12.002598403510635 51.80704631348584 -11.951412812756072 53.86437028964884 -11.91015625 55.921875 C-11.88058837890625 56.825185546875 -11.8510205078125 57.72849609375 -11.820556640625 58.6591796875 C-12 61 -12 61 -14 64 C-14.66 64 -15.32 64 -16 64 C-25.162025316455694 39.845569620253166 -25.162025316455694 39.845569620253166 -24 29 C-22.055793911080386 25.20501909738527 -19.682351732826053 22.47458191169168 -16.62109375 19.53125 C-15.78255859375 18.7126953125 -14.9440234375 17.894140625 -14.080078125 17.05078125 C-12.316336145330439 15.34830746918075 -10.550704672856902 13.647789038080289 -8.783203125 11.94921875 C-7.94595703125 11.1306640625 -7.1087109375 10.312109375 -6.24609375 9.46875 C-5.479665527343752 8.73076171875 -4.7132373046875 7.9927734375 -3.923583984375 7.232421875 C-1.5965340961552705 4.77607803907304 -1.5965340961552705 4.77607803907304 0 0 Z " fill="#795D6F" transform="translate(32,0)"/>
<path d="M0 0 C10.56 0 21.12 0 32 0 C30.913240444209812 5.433797778950944 30.042538399310146 6.461466917919738 26.265625 10.23046875 C25.55306549072266 10.94521110534668 25.55306549072266 10.94521110534668 24.82611083984375 11.674392700195313 C23.822157424892442 12.676691020944213 22.813266204711557 13.67406474576648 21.7998046875 14.666748046875 C20.256703283389427 16.18092237677493 18.73309565495371 17.712851489565917 17.2109375 19.248046875 C7.396544453551352 29 7.396544453551352 29 0 29 C0 19.43 0 9.86 0 0 Z " fill="#C89F91" transform="translate(0,0)"/>
<path d="M0 0 C8.63617236452572 6.280852628745976 10.587458807199596 13.665347097540916 12.46484375 23.99609375 C14.05755973359885 34.78300546099646 13.01183162513226 45.34807005621937 11 56 C7.700000000000003 56 4.400000000000006 56 1 56 C0 54 0 54 0.9375 50.3125 C3.3453003275016044 40.08759449965072 2.771324711477149 29.770271273256867 -1 20 C-1.3299999999999983 19.010000000000005 -1.6599999999999966 18.019999999999996 -2 17 C-3.6500000000000057 16.67 -5.299999999999997 16.340000000000003 -7 16 C-6.102812499999999 14.824375000000003 -6.102812499999999 14.824375000000003 -5.1875 13.625 C-2.3785395436468093 9.466538968530514 -1.2544920717582215 4.808886275073178 0 0 Z " fill="#324381" transform="translate(104,72)"/>
</svg>
