<?xml version="1.0" encoding="UTF-8"?>
<!-- Generator: visioncortex VTracer 0.6.0 -->
<svg version="1.1" xmlns="http://www.w3.org/2000/svg" width="128" height="128">
<path d="M0 0 C42.24 0 84.48 0 128 0 C128 42.24 128 84.48 128 128 C85.75999999999999 128 43.519999999999996 128 0 128 C0 85.75999999999999 0 43.519999999999996 0 0 Z " fill="#557E97" transform="translate(0,0)"/>
<path d="M0 0 C4.847689075630242 3.393382352941167 4.847689075630242 3.393382352941167 6.125 6.1875 C6.338652519235978 11.421986721281392 4.577326376795256 14.24887607639122 1.6875 18.5625 C-1.392456845796744 23.182435268695116 -3.885230066559572 27.509813059441328 -3.875 33.1875 C-3.2289862186887035 35.19426621428613 -2.5601900619065106 37.193770072575276 -1.875 39.1875 C-0.04273197190036626 49.72949280955915 -0.8488279004697432 59.21782392854428 -6.26953125 68.6015625 C-9.925616269436759 73.75288017910087 -15.727962404646775 80.43089761599407 -22.14453125 81.6015625 C-23.403300781249996 81.7059765625 -23.403300781249996 81.7059765625 -24.6875 81.8125 C-25.576953125000003 81.8911328125 -26.466406250000006 81.969765625 -27.3828125 82.05078125 C-29.875 82.1875 -29.875 82.1875 -33.0625 82 C-37.097750747264215 82.26901671648429 -39.44484710183756 84.07663667805389 -42.875 86.1875 C-43.535 86.1875 -44.195 86.1875 -44.875 86.1875 C-45.101875 86.703125 -45.32875 87.21875 -45.5625 87.75 C-45.995625 88.554375 -46.42875 89.35875 -46.875 90.1875 C-47.135390625 90.7894921875 -47.39578125 91.391484375 -47.6640625 92.01171875 C-48.88445114392107 94.30809890821789 -49.80802428612619 95.57789543143394 -51.875 97.1875 C-55.030029296875036 97.5048828125 -55.030029296875036 97.5048828125 -58.57421875 97.390625 C-59.752019042968755 97.361298828125 -60.9298193359375 97.33197265625 -62.143310546875 97.3017578125 C-63.49549682617187 97.24520019531249 -63.49549682617187 97.24520019531249 -64.875 97.1875 C-64.83834228515624 96.2308544921875 -64.8016845703125 95.274208984375 -64.763916015625 94.28857421875 C-64.63525448242777 90.66959224753951 -64.55616476567334 87.05080188391419 -64.490478515625 83.43017578125 C-64.45571257016135 81.87644242131259 -64.40827951005461 80.3229301870964 -64.346923828125 78.77001953125 C-63.78197037483709 64.08122974576426 -67.53113831005915 55.50535760466795 -75.8125 43.3125 C-80.04626563446746 36.70205229345649 -80.04626563446746 36.70205229345649 -79.62890625 32.32421875 C-78.19911620264006 28.2719122427156 -75.53365004649135 24.95520773632399 -73.03515625 21.49609375 C-70.06183629606754 16.942021415495844 -68.27114333500278 12.206655805128364 -66.39453125 7.12109375 C-64.644828518748 3.7431329500764576 -63.31088881958022 2.721664310138145 -59.875 1.1875 C-54.165071186939684 0.38810996617155524 -50.029367028724614 2.1152235535782324 -44.9140625 4.41015625 C-36.324798506357176 6.607153081278824 -28.205752470387807 2.7112033034486274 -20.3359375 -0.4609375 C-13.151964680516443 -3.1743885339845015 -6.9467313752502236 -3.672308788712723 0 0 Z " fill="#2F5C50" transform="translate(97.875,30.8125)"/>
<path d="M0 0 C8.25 0 16.5 0 25 0 C25.04125 3.50625 25.0825 7.0125 25.125 10.625 C25.1432080078125 11.7189306640625 25.161416015625 12.812861328124999 25.18017578125 13.93994140625 C25.209098601464422 19.025692792986142 25.060687867396556 23.24581460514023 23 28 C23.70125 28.2475 24.4025 28.495 25.125 28.75 C28.36960883455151 30.160699493283268 31.081359891653968 32.011120590988575 34 34 C27.244136426348376 51.700773253761994 27.244136426348376 51.700773253761994 21.28515625 58.62890625 C19.379259478503432 62.14525682841464 19.19709642436465 65.16500821756036 20 69 C21.63658700655505 72.61061836164399 23.71329939080381 75.87074883646214 25.875 79.1875 C26.979641521623538 80.9290404035805 28.081308212645897 82.67247202708427 29.1796875 84.41796875 C29.6719482421875 85.17875732421875 30.164208984375 85.9395458984375 30.67138671875 86.723388671875 C33.17227438933423 91.00872081597605 34.25277402117844 94.41614214327531 34.23046875 99.38671875 C34.22853515625 100.40830078125 34.2266015625 101.4298828125 34.224609375 102.482421875 C34.206240234375 104.068935546875 34.206240234375 104.068935546875 34.1875 105.6875 C34.18685546875 106.72583984375 34.1862109375 107.7641796875 34.185546875 108.833984375 C34.1488075885633 115.34500236017043 33.65447813996758 121.45521860032423 33 128 C22.11 128 11.219999999999999 128 0 128 C0 85.75999999999999 0 43.519999999999996 0 0 Z " fill="#5C8F9A" transform="translate(0,0)"/>
<path d="M0 0 C0 25.409999999999997 0 50.81999999999999 0 77 C-27.060000000000002 77 -54.120000000000005 77 -82 77 C-79.47309989157797 69.41929967473394 -75.95735930722724 66.52487838387938 -69.1875 62.625 C-65.17583573112762 60.72432799688377 -61.691995545270274 60.80276470309323 -57.3203125 60.9765625 C-51.64505282361894 61.033888355316975 -47.38643652146696 58.35982371857044 -43 55 C-36.91158738366991 48.62166297336847 -31.9216475829068 40.14282500012422 -32.02099609375 31.0859375 C-32.20607919206887 26.378621704607028 -32.57868519369305 21.6913973026612 -33 17 C-32.31937500000001 16.694492187500003 -31.63875 16.388984375000007 -30.9375 16.07421875 C-23.551151338890122 12.587312134715418 -17.07106720958258 8.475685176212508 -10.521484375 3.608154296875 C-9.553720703124995 2.9087976074218744 -9.553720703124995 2.9087976074218744 -8.56640625 2.1953125 C-7.714779052734372 1.5613354492187526 -7.714779052734372 1.5613354492187526 -6.845947265625 0.91455078125 C-5 0 -5 0 0 0 Z " fill="#758D79" transform="translate(128,51)"/>
<path d="M0 0 C0.9231564041708324 2.9990996279726048 1.007609187917467 5.118652843500797 0.44140625 8.1953125 C0.30226806640624915 8.989052734375 0.1631298828124983 9.782792968750002 0.019775390625 10.6005859375 C-0.13112548828124915 11.433642578125003 -0.2820263671874983 12.266699218749999 -0.4375 13.125 C-2.955639906072502 25.252522626744238 -2.955639906072502 25.252522626744238 -0.25 36.9375 C2.361124151772067 40.60907726714653 2.361124151772067 40.60907726714653 6 43 C9.138081192139978 43.224148656581434 11.879287754061096 43.2892160634681 14.9375 42.5 C20.72511037109853 41.096942940339744 25.13511201915587 41.41975238253494 30.276123046875 44.513427734375 C34.33413672345286 48.012825167696434 36.05996457014163 53.54891939707224 38.171875 58.353515625 C39.31161240993626 60.75325494429762 40.378448156785424 62.894317820736106 42 65 C46.32640573935318 66.40631547251112 48.02623243259403 66.46740843235486 52.125 64.5 C55.474566563835225 61.58733342275198 57.57603854401739 58.707235167973394 60 55 C61.22903387213937 58.687101616418104 60.68373686560946 59.36147955796096 59 62.75 C55.65776279246474 69.10953468656017 50.77372535996774 75.16448705861816 44 78 C39.587966536840895 78.7501942420523 35.28051973663062 79.07532469039003 30.8125 78.8125 C26.777249252735785 79.08151671648429 24.43015289816244 80.88913667805389 21 83 C20.340000000000003 83 19.68 83 19 83 C18.773125 83.515625 18.54625 84.03125 18.3125 84.5625 C17.879375000000003 85.366875 17.44625 86.17125 17 87 C16.739609375 87.6019921875 16.47921875 88.203984375 16.2109375 88.82421875 C14.99054885607893 91.12059890821789 14.06697571387381 92.39039543143394 12 94 C8.844970703125028 94.3173828125 8.844970703125028 94.3173828125 5.30078125 94.203125 C4.1229809570312455 94.173798828125 2.945180664062498 94.14447265625 1.731689453125 94.1142578125 C0.3795031738281267 94.05770019531249 0.3795031738281267 94.05770019531249 -1 94 C-0.9633422851562514 93.0433544921875 -0.9266845703125028 92.086708984375 -0.888916015625 91.10107421875 C-0.7602544824277757 87.48209224753954 -0.68116476567333 83.86330188391416 -0.615478515625 80.24267578125 C-0.5807125701613529 78.68894242131259 -0.5332795100546122 77.1354301870964 -0.471923828125 75.58251953125 C0.09302962516291302 60.89372974576426 -3.6561383100591485 52.31785760466795 -11.9375 40.125 C-16.171265634467456 33.514552293456504 -16.171265634467456 33.514552293456504 -15.75390625 29.13671875 C-14.326097223318094 25.090026845362672 -11.66351322636137 21.776253741102934 -9.17578125 18.31640625 C-6.139050831139784 13.687709435615218 -4.183685800746659 8.861232990962378 -2.12890625 3.73828125 C-1 1 -1 1 0 0 Z " fill="#4E756D" transform="translate(34,34)"/>
<path d="M0 0 C23.099999999999994 0 46.2 0 70 0 C70 8.91 70 17.82 70 27 C60.23943661971833 25.915492957746483 60.23943661971833 25.915492957746483 56.0625 24.4375 C44.521142342790625 21.169863173760803 32.50399398711926 22.66900166481362 20.9345703125 24.9892578125 C15.260304964710187 26.08221853022383 9.61861137329386 26.65007545907143 4 25 C1.5444031229560409 23.055522834919945 1.0174738726747634 22.052421618024294 0 19 C0 12.73 0 6.459999999999999 0 0 Z " fill="#85ABB9" transform="translate(58,0)"/>
<path d="M0 0 C10.649572309422126 1.746626893572646 21.684157167590655 9.703832904990485 28.50390625 17.78125 C32.48616704839978 24.011798260226954 33.682747942741216 32.76287180694311 33 40 C30.992756284897197 46.49402378415611 26.900808802309484 52.63219387875378 20.9921875 56.21875 C17.52084717518838 57.58005993129868 15.509342919745094 57.169780973248365 12 56 C9.740804333443265 53.2902710935808 8.437760972768231 50.20248939417223 7 47 C6.493398437500005 45.96488281250001 5.986796874999996 44.929765625 5.46484375 43.86328125 C2.3318409033826413 37.35864389031531 -0.1382619426013818 30.966105976359074 -2 24 C-2.391874999999999 22.783125 -2.7837499999999977 21.566249999999997 -3.1875 20.3125 C-4.925351159876676 13.227414502041249 -3.7358404876982476 7.6057081205564 -1 1 C-0.6700000000000017 0.6700000000000017 -0.3400000000000034 0.3400000000000034 0 0 Z " fill="#214742" transform="translate(64,44)"/>
<path d="M0 0 C0 7.920000000000002 0 15.840000000000003 0 24 C-1.9799999999999898 24.659999999999997 -3.960000000000008 25.32 -6 26 C-7.906180273431303 27.0182324431863 -7.906180273431303 27.0182324431863 -9.55078125 28.20703125 C-10.162683105468744 28.62686279296875 -10.774584960937503 29.046694335937502 -11.405029296875 29.479248046875 C-12.034494628906259 29.91922119140625 -12.66395996093749 30.359194335937502 -13.3125 30.8125 C-14.636497031395209 31.713181565184748 -15.962013303154748 32.611634029962204 -17.2890625 33.5078125 C-18.24280761718751 34.1521826171875 -18.24280761718751 34.1521826171875 -19.2158203125 34.8095703125 C-21.50309433497705 36.33567158967543 -23.81723791205779 37.79369139679146 -26.1875 39.1875 C-26.841054687500005 39.57292968749999 -27.494609374999996 39.958359375 -28.16796875 40.35546875 C-30.465317497803113 41.1637044501866 -31.735772474812634 40.78821224269271 -34 40 C-35.67623239690509 33.96991722152323 -33.54685897900343 29.50629324432517 -31 24 C-29.65234375 21.9765625 -29.65234375 21.9765625 -28.3125 20.25 C-25.69939663591404 16.577530407230547 -24.83319010470845 14.503867172872035 -25 10 C-28.084993541309757 5.475342806079034 -31.684282695828216 4.170086749312862 -36.71484375 2.68359375 C-40.873655309594895 1.4395048219160564 -44.89113948840816 0.10886051159184618 -48 -3 C-31.36253527283958 -7.681899621713484 -16.21376143875699 -4.567256743311827 0 0 Z " fill="#638694" transform="translate(128,27)"/>
<path d="M0 0 C4.4345392902709335 3.5955723975169747 7.633614573984261 8.337274162402707 11.03515625 12.890625 C13.002272304001863 15.386306871806653 13.002272304001863 15.386306871806653 17 16 C17 21.28 17 26.560000000000002 17 32 C2.1500000000000057 32 -12.700000000000003 32 -28 32 C-26.877659574468083 25.265957446808514 -26.877659574468083 25.265957446808514 -24.4375 21.875 C-22.58028429894162 19.25982753311588 -20.790804312680947 16.66097358714893 -19.10546875 13.9296875 C-8.926665340456978 -2.41261225417756 -8.926665340456978 -2.41261225417756 0 0 Z " fill="#89A388" transform="translate(111,96)"/>
<path d="M0 0 C12.712121212121215 0 12.712121212121215 0 17.6953125 4.546875 C23.33970306630673 10.709349724566763 24.327078006334936 16.275005247505092 24.203125 24.4765625 C23.824979065102184 31.035940063035213 22.897750304902008 37.49131028946043 22 44 C14.739999999999998 44 7.479999999999999 44 0 44 C0 29.47999999999999 0 14.959999999999994 0 0 Z " fill="#74B9DF" transform="translate(0,84)"/>
<path d="M0 0 C0.9231564041708324 2.9990996279726048 1.007609187917467 5.118652843500797 0.44140625 8.1953125 C0.30226806640624915 8.989052734375 0.1631298828124983 9.782792968750002 0.019775390625 10.6005859375 C-0.13112548828124915 11.433642578125003 -0.2820263671874983 12.266699218749999 -0.4375 13.125 C-2.955639906072502 25.252522626744238 -2.955639906072502 25.252522626744238 -0.25 36.9375 C2.361124151772067 40.60907726714653 2.361124151772067 40.60907726714653 6 43 C9.138081192139978 43.224148656581434 11.879287754061096 43.2892160634681 14.9375 42.5 C19.821435801319495 41.31601556331648 24.257126129542605 41.30156992325371 28.75 43.5625 C32.55958825395069 46.00028697901891 34.18161241500904 48.90862793377036 36 53 C35.504999999999995 53.989999999999995 35.504999999999995 53.989999999999995 35 55 C34.25749999999999 54.504999999999995 34.25749999999999 54.504999999999995 33.5 54 C29.979758024928444 52.59190320997138 26.705277877795446 52.38130955305917 23 53 C20.48508232198479 54.35860979795808 18.47674973235248 56.1384717523685 16.375 58.0625 C10.989286175814946 62.960377427066845 10.989286175814946 62.960377427066845 6.9765625 63.12109375 C-0.1862696387673708 60.42328164524116 -3.2467655993325835 55.55956865985502 -6.625 49.0625 C-7.364886099182314 47.67715382478276 -8.107044976017093 46.29301890458093 -8.8515625 44.91015625 C-9.2060546875 44.24693359375 -9.560546875 43.5837109375 -9.92578125 42.900390625 C-10.932978748327496 41.11856668704972 -12.076350423347396 39.41568771019567 -13.2265625 37.72265625 C-15.097694361453513 34.85001548472886 -15.818410124120646 32.76425175137314 -15.6484375 29.3125 C-14.468259303808239 25.103671734063113 -11.701373182657836 21.828907996485057 -9.17578125 18.31640625 C-6.139050831139784 13.687709435615218 -4.183685800746659 8.861232990962378 -2.12890625 3.73828125 C-1 1 -1 1 0 0 Z " fill="#426E65" transform="translate(34,34)"/>
<path d="M0 0 C8.25 0 16.5 0 25 0 C25.061875 3.485625 25.12375 6.97125 25.1875 10.5625 C25.21481201171875 11.64732666015625 25.2421240234375 12.7321533203125 25.270263671875 13.849853515625 C25.320200449042513 19.687086898292222 25.046042655485728 23.951526733734575 22 29 C19.476562499999996 31.144531250000004 19.476562499999996 31.144531250000004 16.625 32.8125 C15.689140625 33.3758203125 14.75328125 33.939140625 13.7890625 34.51953125 C8.586015657799763 37.28137264102786 6.147937600726855 38 0 38 C0 25.46 0 12.919999999999998 0 0 Z " fill="#91B4DE" transform="translate(0,0)"/>
<path d="M0 0 C4.847689075630257 3.393382352941174 4.847689075630257 3.393382352941174 6.125 6.1875 C6.38143134929598 12.470068057751739 3.267145766526326 16.369530729024518 -0.15234375 21.453125 C-2.343987437900239 24.931924504603536 -3.6231494382099356 28.28467177794863 -4.875 32.1875 C-5.864999999999995 31.692500000000003 -5.864999999999995 31.692500000000003 -6.875 31.1875 C-6.875 30.527500000000003 -6.875 29.8675 -6.875 29.1875 C-7.4666796875000045 28.9232421875 -8.058359374999995 28.658984375000003 -8.66796875 28.38671875 C-10.95056276250105 27.146442003384387 -12.362517594525258 25.83337312917807 -14.1875 24 C-18.502493172635667 20.076537398794407 -23.249085828293133 17.93604396154587 -28.594970703125 15.760986328125 C-32.91513328355849 13.931657890848797 -35.21508343281103 12.028220650754164 -37.875 8.1875 C-38.535 7.527500000000003 -39.195 6.8675 -39.875 6.1875 C-26.69140625000007 1.7929687500000213 -26.69140625000007 1.7929687500000213 -24.287109375 0.997802734375 C-22.663514552189795 0.4523866193034358 -21.044987998274877 -0.10832861812085426 -19.431640625 -0.683349609375 C-18.651113281250005 -0.9580004882812503 -17.870585937499996 -1.2326513671875006 -17.06640625 -1.515625 C-16.371037597656255 -1.7660253906249999 -15.675668945312495 -2.0164257812499997 -14.959228515625 -2.2744140625 C-9.723840023218798 -3.626035971515261 -4.700155402582766 -2.4883175660732313 0 0 Z " fill="#205870" transform="translate(97.875,30.8125)"/>
<path d="M0 0 C2.2551563700729282 0.9483894036934615 4.214398932811758 2.0768593063276413 6.265625 3.41015625 C6.972031250000001 3.865195312499999 7.678437500000001 4.320234374999998 8.40625 4.7890625 C8.937343749999997 5.138398437500001 9.4684375 5.487734375000002 10.015625 5.84765625 C0.5819332437275975 30.564502128136198 0.5819332437275975 30.564502128136198 -5.984375 33.84765625 C-7.359856563732752 33.930742626608954 -8.73923296070255 33.95501640520632 -10.1171875 33.9453125 C-10.8430908203125 33.94281494140625 -11.568994140625 33.9403173828125 -12.31689453125 33.937744140625 C-13.2384130859375 33.92864013671875 -14.159931640625 33.9195361328125 -15.109375 33.91015625 C-18.038125 33.88953125 -20.966875 33.86890625 -23.984375 33.84765625 C-23.984375 25.92765625 -23.984375 18.007656249999997 -23.984375 9.84765625 C-21.344375 9.187656250000003 -18.704375 8.52765625 -15.984375 7.84765625 C-13.190709727569956 6.723512266022624 -13.190709727569956 6.723512266022624 -10.734375 5.41015625 C-9.92484375 4.998945312499998 -9.1153125 4.587734374999997 -8.28125 4.1640625 C-5.9351070866167355 2.9100517804869526 -5.9351070866167355 2.9100517804869526 -3.9375 1.125 C-1.984375 -0.15234375 -1.984375 -0.15234375 0 0 Z " fill="#7C9EA2" transform="translate(23.984375,28.15234375)"/>
<path d="M0 0 C12.210000000000008 0 24.42 0 37 0 C37 8.91 37 17.82 37 27 C24.621244289425846 25.624582698825094 15.117496733438927 24.481332788236795 6.4765625 15.0234375 C5 13 5 13 5 11 C4.340000000000003 11 3.680000000000007 11 3 11 C2.4938470236953094 9.731604743903139 1.9953090103741573 8.46016898498914 1.5 7.1875 C1.2215625000000045 6.4798046875 0.9431249999999949 5.772109374999999 0.65625 5.04296875 C0 3 0 3 0 0 Z " fill="#A1ADAC" transform="translate(91,0)"/>
<path d="M0 0 C3.2865681429497187 3.2865681429497187 2.711160928500391 7.624238261062047 2.7919921875 12.04833984375 C2.531019631363421 20.36640511634326 -1.5382970604863289 25.278404227987238 -6.736328125 31.3994140625 C-9.790524386078161 35.26790530817783 -11.799017603406341 39.196070413625364 -13 44 C-25.210000000000008 44 -37.42 44 -50 44 C-47.47309989157798 36.419299674733935 -43.95735930722723 33.52487838387938 -37.1875 29.625 C-33.175835731127606 27.72432799688376 -29.691995545270274 27.80276470309323 -25.3203125 27.9765625 C-19.64505282361894 28.033888355316975 -15.386436521466962 25.35982371857044 -11 22 C-4.8612915307149365 15.568972079796595 -1.8494431154053643 8.630734538558357 0 0 Z " fill="#658574" transform="translate(96,84)"/>
</svg>
