<?xml version="1.0" encoding="UTF-8"?>
<!-- Generator: visioncortex VTracer 0.6.0 -->
<svg version="1.1" xmlns="http://www.w3.org/2000/svg" width="128" height="128">
<path d="M0 0 C42.24 0 84.48 0 128 0 C128 42.24 128 84.48 128 128 C85.75999999999999 128 43.519999999999996 128 0 128 C0 85.75999999999999 0 43.519999999999996 0 0 Z " fill="#708BA5" transform="translate(0,0)"/>
<path d="M0 0 C4.3297779036463595 1.2704538453145275 8.714027125470096 1.8652981340111374 13.171875 2.5078125 C27.00102436545174 4.683281954012202 27.00102436545174 4.683281954012202 31.921875 9.0703125 C34.544060758327575 12.866024646958124 36.276595937651024 16.773103370049064 37.921875 21.0703125 C38.272499999999994 21.887578125000005 38.623125 22.704843749999995 38.984375 23.546875 C44.65693095220237 38.69057347954026 38.20997879252167 59.145839616575444 31.984375 73.3828125 C27.90561131195274 81.43708003589079 24.397565322779485 86.10908711486675 15.7578125 89.18359375 C12.678201177992705 90.14650252423644 9.582490824898358 91.04384174334905 6.484375 91.9453125 C2.0069852377130815 93.25296137917259 -1.5693081919536667 94.84806108790039 -5.515625 97.3203125 C-14.684195465037085 102.57660471145087 -25.334742590790917 100.61389792333327 -35.1640625 98.04296875 C-41.41416691754574 95.95680789213286 -46.547356788503535 92.81359298173186 -50.12109375 87.16015625 C-52.18477458027331 82.65375117164807 -52.57314466773982 77.95988167871157 -53.078125 73.0703125 C-53.1722265625 72.1745751953125 -53.266328125 71.278837890625 -53.36328125 70.35595703125 C-53.67934333283335 67.2828533935745 -53.97673094783336 64.20858558408169 -54.265625 61.1328125 C-54.36190185546875 60.12541015625 -54.4581787109375 59.1180078125 -54.557373046875 58.080078125 C-54.64027587890625 57.11908203125 -54.7231787109375 56.158085937500005 -54.80859375 55.16796875 C-54.88489013671875 54.30695556640626 -54.961186523437505 53.44594238281249 -55.039794921875 52.558837890625 C-55.08058695969582 49.9104732950353 -54.61171771379953 47.65830023435251 -54.078125 45.0703125 C-54.03308395491037 43.34824320940646 -54.03798533885631 41.62433443742829 -54.0859375 39.90234375 C-54.1026953125 38.92587890625 -54.119453125 37.9494140625 -54.13671875 36.943359375 C-54.18057004328571 34.92233065209689 -54.23249537031413 32.90145903972124 -54.29296875 30.880859375 C-54.41255852154066 22.591113847749916 -53.734051570659915 14.66378917249531 -48.015625 8.2578125 C-34.59387479730869 -3.626028825299594 -16.407670860722988 -5.122919067867656 0 0 Z " fill="#D7D1D9" transform="translate(75.078125,14.9296875)"/>
<path d="M0 0 C4.3297779036463595 1.2704538453145275 8.714027125470096 1.8652981340111374 13.171875 2.5078125 C27.00102436545174 4.683281954012202 27.00102436545174 4.683281954012202 31.921875 9.0703125 C34.544060758327575 12.866024646958124 36.276595937651024 16.773103370049064 37.921875 21.0703125 C38.272499999999994 21.887578125000005 38.623125 22.704843749999995 38.984375 23.546875 C44.65693095220237 38.69057347954026 38.20997879252167 59.145839616575444 31.984375 73.3828125 C27.90561131195274 81.43708003589079 24.397565322779485 86.10908711486675 15.7578125 89.18359375 C12.678201177992705 90.14650252423644 9.582490824898358 91.04384174334905 6.484375 91.9453125 C2.0069852377130815 93.25296137917259 -1.5693081919536667 94.84806108790039 -5.515625 97.3203125 C-14.684195465037085 102.57660471145087 -25.334742590790917 100.61389792333327 -35.1640625 98.04296875 C-41.41416691754574 95.95680789213286 -46.547356788503535 92.81359298173186 -50.12109375 87.16015625 C-52.18477458027331 82.65375117164807 -52.57314466773982 77.95988167871157 -53.078125 73.0703125 C-53.1722265625 72.1745751953125 -53.266328125 71.278837890625 -53.36328125 70.35595703125 C-53.67934333283335 67.2828533935745 -53.97673094783336 64.20858558408169 -54.265625 61.1328125 C-54.36190185546875 60.12541015625 -54.4581787109375 59.1180078125 -54.557373046875 58.080078125 C-54.64027587890625 57.11908203125 -54.7231787109375 56.158085937500005 -54.80859375 55.16796875 C-54.88489013671875 54.30695556640626 -54.961186523437505 53.44594238281249 -55.039794921875 52.558837890625 C-55.08058695969582 49.9104732950353 -54.61171771379953 47.65830023435251 -54.078125 45.0703125 C-54.03308395491037 43.34824320940646 -54.03798533885631 41.62433443742829 -54.0859375 39.90234375 C-54.1026953125 38.92587890625 -54.119453125 37.9494140625 -54.13671875 36.943359375 C-54.18057004328571 34.92233065209689 -54.23249537031413 32.90145903972124 -54.29296875 30.880859375 C-54.41255852154066 22.591113847749916 -53.734051570659915 14.66378917249531 -48.015625 8.2578125 C-34.59387479730869 -3.626028825299594 -16.407670860722988 -5.122919067867656 0 0 Z M-23.203125 8.8203125 C-23.962382812499996 9.072968750000001 -24.721640625 9.325625000000002 -25.50390625 9.5859375 C-33.01611108636506 12.171894414411376 -39.12730061842376 14.77648287247463 -43.078125 22.0703125 C-44.51512669437444 26.537725930810318 -44.44590441462273 31.22762387913656 -44.69921875 35.87890625 C-45.078125 39.0703125 -45.078125 39.0703125 -46.17578125 41.48046875 C-48.511337607962865 48.183818816360954 -45.05867397793132 56.60151948438158 -43.265625 63.1953125 C-43.01748046875 64.15824218750001 -42.7693359375 65.121171875 -42.513671875 66.11328125 C-40.45063803504218 73.74598151284648 -37.99714761379312 79.65391508694057 -31.078125 84.0703125 C-26.347711084347836 86.23299409140672 -21.94723468349784 88.0703125 -16.703125 88.0703125 C-11.689005751724771 86.16017183399039 -9.16301561859612 83.19837821108288 -6.203125 78.8828125 C-0.5295781246667559 71.3013472064131 9.159011438728598 66.2766476344882 17.921875 63.0703125 C17.921875 62.4103125 17.921875 61.75031250000001 17.921875 61.0703125 C18.911874999999995 61.0703125 19.901875000000004 61.0703125 20.921875 61.0703125 C22.651309750577184 59.757632944519756 22.651309750577184 59.757632944519756 23.921875 58.0703125 C23.921875 57.4103125 23.921875 56.75031250000001 23.921875 56.0703125 C24.581874999999997 56.0703125 25.241874999999993 56.0703125 25.921875 56.0703125 C31.047243056269153 46.033133389806245 28.703120607439274 37.42846926644685 25.42578125 27.203125 C23.6688044611504 22.117078359081297 21.3990596069156 17.22050057922185 17.921875 13.0703125 C17.261875000000003 13.0703125 16.601875000000007 13.0703125 15.921875 13.0703125 C15.426874999999995 11.5853125 15.426874999999995 11.5853125 14.921875 10.0703125 C10.644033221377455 7.40220673881468 7.102569706175714 6.634994050816957 2.109375 6.3828125 C0.9685546875000028 6.3170703125 -0.17226562499999432 6.251328125000001 -1.34765625 6.18359375 C-2.5787109375000057 6.146210937500001 -3.809765624999997 6.108828125000002 -5.078125 6.0703125 C-6.134350585937497 6.013513183593751 -6.134350585937497 6.013513183593751 -7.2119140625 5.95556640625 C-13.032214432224087 5.756830617201135 -17.743967716056545 6.872620021337497 -23.203125 8.8203125 Z " fill="#AFBACB" transform="translate(75.078125,14.9296875)"/>
<path d="M0 0 C12.870000000000001 0 25.740000000000002 0 39 0 C36.2216111069703 4.630648155049497 34.97407917836331 6.052619108631761 30.75 8.9375 C29.28626953125 9.97197265625 29.28626953125 9.97197265625 27.79296875 11.02734375 C26.8712890625 11.6783203125 25.949609375 12.329296875 25 13 C17.307506072825554 18.63928713856847 14.245726025472251 24.756861551811635 12 34 C11.814085872503759 36.71215903641575 11.719425925964202 39.29419444783184 11.75 42 C11.742265625 42.6535546875 11.73453125 43.307109375 11.7265625 43.98046875 C11.744432324643409 48.742777017468484 12.311783376499527 53.30635251202068 13.015625 58.015625 C14.175983447148552 66.30153576519982 14.161276043554292 74.40012484026651 14 82.75 C13.772343291994805 94.65590378889077 14.28309915396719 105.46313156104328 18.125 116.875 C19.52789650730969 121.04272903996382 20 123.47946366472104 20 128 C13.399999999999999 128 6.799999999999999 128 0 128 C0 85.75999999999999 0 43.519999999999996 0 0 Z " fill="#31597D" transform="translate(0,0)"/>
<path d="M0 0 C5.003597004103312 4.5381461200006825 7.372773287351521 9.332560604050208 7.85546875 16.01171875 C7.597865543871322 19.731988308276954 6.273490735679616 22.833248447843125 4.8671875 26.26171875 C3.2176827550012206 30.702272914516605 2.1916393065158957 35.24692547447862 1.171142578125 39.867431640625 C-0.12243967781793685 45.44803823755804 -1.4715654890632663 49.21021032604217 -6.3125 52.4375 C-13.401379898016188 53.66419469117085 -18.835244274275837 52.4635377963736 -24.7578125 48.48046875 C-41.25572992009478 35.28718004860923 -41.25572992009478 35.28718004860923 -42.80859375 26.69140625 C-42.65182204797492 19.49035940364798 -41.98983419637068 14.593988102363213 -37.1953125 8.94140625 C-33.75939218633086 5.957090638804985 -30.631825690737173 4.692656803267472 -26.375 3.25 C-25.339560546875 2.8797167968750017 -25.339560546875 2.8797167968750017 -24.283203125 2.501953125 C-22.298507684307545 1.7964926602988918 -20.306526774548637 1.1160336926520706 -18.3125 0.4375 C-17.2490234375 0.05722656249999858 -16.185546875 -0.3230468749999993 -15.08984375 -0.71484375 C-9.696083199467772 -2.3610407112735494 -5.1272793461996 -2.4185279934903754 0 0 Z " fill="#F1E2D7" transform="translate(73.3125,22.5625)"/>
<path d="M0 0 C4.3297779036463595 1.2704538453145275 8.714027125470096 1.865298134011141 13.171875 2.5078125 C27.00102436545174 4.683281954012205 27.00102436545174 4.683281954012205 31.921875 9.0703125 C34.544060758327575 12.866024646958117 36.276595937651024 16.773103370049068 37.921875 21.0703125 C38.272499999999994 21.887578125000005 38.623125 22.704843749999995 38.984375 23.546875 C42.7458406447966 33.58864489101952 40.581533821097864 44.96360897982811 37.921875 55.0703125 C35.921875 55.0703125 35.921875 55.0703125 34.37109375 53.55078125 C29.4054642432953 47.087755705796766 27.540562468982927 40.84508595092348 25.704833984375 33.059326171875 C24.395898919991055 27.584856170565025 22.720034433328877 22.813886179316995 19.9375 17.8828125 C18.921875 16.070312499999993 18.921875 16.070312499999993 17.921875 13.0703125 C17.261875000000003 13.0703125 16.601875000000007 13.0703125 15.921875 13.0703125 C15.447500000000005 12.451562500000001 14.973124999999996 11.8328125 14.484375 11.1953125 C7.942373609876597 5.7702381764830335 -3.8477760021264373 6.14485461934434 -11.95263671875 6.76708984375 C-20.71635432845283 8.017323851474664 -29.585549188374763 11.432714460462446 -37.078125 16.0703125 C-37.738125 16.0703125 -38.398125 16.0703125 -39.078125 16.0703125 C-41.97281736182604 21.446169743391216 -43.27419450516215 26.413521524244565 -43.515625 32.5078125 C-43.838723204167614 37.73721676745361 -44.615947196003624 41.46711051861548 -47.078125 46.0703125 C-52.08258701409777 41.98772506744656 -53.34967037059526 38.42405565647463 -54.078125 32.0703125 C-54.76215333334896 24.39942333315811 -54.2099374851048 16.54184477039963 -49.671875 10.0625 C-37.03402275123973 -3.7079899503001013 -16.77419378301994 -5.237357447536791 0 0 Z " fill="#BCB6B2" transform="translate(75.078125,14.9296875)"/>
<path d="M0 0 C1.986846923828125 -0.3607635498046875 1.986846923828125 -0.3607635498046875 4.44970703125 -0.340576171875 C5.370510559082028 -0.3403495788574219 6.291314086914063 -0.34012298583984374 7.240020751953125 -0.3398895263671875 C8.733827667236326 -0.3166637420654297 8.733827667236326 -0.3166637420654297 10.2578125 -0.29296875 C11.276000671386718 -0.28872390747070314 12.294188842773437 -0.28447906494140623 13.343231201171875 -0.2801055908203125 C16.604086730316553 -0.26327579216360963 19.864330408798153 -0.22561545838855268 23.125 -0.1875 C25.332022342216646 -0.17245873678542073 27.539054344447166 -0.15876936501161218 29.74609375 -0.146484375 C35.16427223320639 -0.11335830175773637 40.582092416628115 -0.06311652900340771 46 0 C46.284479980468745 0.7907592773437501 46.568959960937505 1.5815185546875001 46.862060546875 2.396240234375 C48.29399517248491 5.67270081839767 49.70010117210653 6.387310825766486 52.8125 8.0625 C53.7096875 8.57296875 54.606875 9.0834375 55.53125 9.609375 C56.345937500000005 10.06828125 57.160624999999996 10.5271875 58 11 C63.13086785605047 14.306559285010305 65.32236558735484 18.667519552689647 68 24 C67.360625 23.731875 66.72125 23.46375 66.0625 23.1875 C65.051875 22.795625 64.04125 22.40375 63 22 C62.426367187500006 21.770546875 61.852734375 21.54109375 61.26171875 21.3046875 C55.415480884640985 19.147823044819006 49.501950801688935 18.135137621830193 43.377685546875 17.1318359375 C39.17275592108672 16.430011285656445 35.15047686209461 15.551104653806759 31.0625 14.3125 C19.688806496940003 11.11630511423725 6.699635524767245 13.33056191858482 -3.91796875 18.390625 C-10.366673401024272 22.495328127955148 -14.84129871268599 26.958723429250092 -16.627197265625 34.60107421875 C-17.350487628980307 39.25533165838932 -17.120700429514457 43.929753291887536 -17 48.625 C-16.691560275675066 60.71583719353745 -16.691560275675066 60.71583719353745 -19 66 C-22.875789713861572 63.35741610418529 -26.207244295180267 60.87158468353588 -27.4375 56.1875 C-29.30173644712171 43.96639440220214 -29.57022093148521 30.325517249892282 -22.375 19.8125 C-18.833847861109923 15.456181650919884 -14.53550911993134 12.258224089529092 -10 9 C-8.517879077208526 7.920711943403132 -7.03853099417357 6.837601785180526 -5.5625 5.75 C-4.924414062499999 5.29109375 -4.286328124999997 4.8321875 -3.62890625 4.359375 C-1.7347717125183806 2.9091852678650874 -1.7347717125183806 2.9091852678650874 0 0 Z " fill="#76808B" transform="translate(39,0)"/>
<path d="M0 0 C7.402370266306292 0.24309918772762984 12.868952640751957 0.6803984514388723 19 5 C19 5.66 19 6.32 19 7 C19.659999999999997 7 20.319999999999993 7 21 7 C27.90138050436377 15.23713156972451 32.0954327912242 28.40396896744152 32.5 39.125 C31.951817958662673 43.373410820364214 30.93414320470589 46.21230289078429 29 50 C28.340000000000003 50 27.680000000000007 50 27 50 C27 50.66 27 51.31999999999999 27 52 C25.6875 53.625 25.6875 53.625 24 55 C23.010000000000005 55 22.019999999999996 55 21 55 C21 55.66 21 56.31999999999999 21 57 C14.69673384284772 58.18541154081581 10.502606865643415 57.6912022495754 4.5 55.5625 C3.772968750000004 55.31951171874999 3.0459374999999937 55.0765234375 2.296875 54.826171875 C0.5262705195796826 54.23208747696424 -1.2376388236020404 53.618109684440554 -3 53 C-2.7460546875000063 52.5011328125 -2.4921093749999983 52.00226562500001 -2.23046875 51.48828125 C0.468140122066643 45.858599071194305 1.9238821329431346 40.37116183297107 3.203125 34.2734375 C3.9741306682146984 31.106267157039596 5.017897409974864 28.262744004376543 6.25 25.25 C8.166524105284239 20.212699094923423 8.506668567943962 16.2000991546399 7 11 C5.5578091956356275 8.147512271669417 5.5578091956356275 8.147512271669417 4 6 C4 5.34 4 4.68 4 4 C2.680000000000007 3.34 1.3599999999999994 2.6799999999999997 0 2 C0 1.3399999999999999 0 0.6799999999999997 0 0 Z " fill="#DACECC" transform="translate(72,21)"/>
<path d="M0 0 C14.189999999999998 0 28.379999999999995 0 43 0 C43 16.17 43 32.34 43 49 C33.47512368150845 47.80939046018855 33.47512368150845 47.80939046018855 31 46 C29.922607421875 44.21923828125 29.922607421875 44.21923828125 29.10546875 42.0703125 C28.793676757812506 41.280439453125 28.481884765624997 40.49056640625 28.16064453125 39.6767578125 C27.8395068359375 38.834677734375 27.518369140624998 37.99259765625 27.1875 37.125 C21.686478433469773 23.527026578228586 16.96497893994328 13.482489469971636 3.2578125 6.62890625 C1 5 1 5 0 0 Z " fill="#585E68" transform="translate(85,0)"/>
<path d="M0 0 C12.870000000000001 0 25.740000000000002 0 39 0 C36.2216111069703 4.630648155049497 34.97407917836331 6.052619108631761 30.75 8.9375 C29.28626953125 9.97197265625 29.28626953125 9.97197265625 27.79296875 11.02734375 C26.8712890625 11.6783203125 25.949609375 12.329296875 25 13 C17.607704532896975 18.419214775700755 13.684320741787225 24.895084969720383 12 34 C11.769529646199361 37.817143040066355 11.810342790961244 41.6152642195166 11.875 45.4375 C11.8840234375 46.45521484375 11.893046875 47.4729296875 11.90234375 48.521484375 C11.92575301931525 51.01457155707412 11.958542998251374 53.5071585948538 12 56 C9 56 9 56 6.5625 55 C3.8373999429404924 53.75763834289819 3.8373999429404924 53.75763834289819 0 54 C0 36.18 0 18.36 0 0 Z " fill="#3E5362" transform="translate(0,0)"/>
<path d="M0 0 C0 13.86 0 27.72 0 42 C-14.52000000000001 42 -29.040000000000006 42 -44 42 C-42.813694839812214 36.068474199061086 -40.71414433794715 34.31475489102752 -36 31 C-33.86124474245223 29.717290366502482 -31.714785773367183 28.447374599044196 -29.5625 27.1875 C-20.34703961474277 21.620265350782816 -14.942002737618907 14.251686527486001 -9.0546875 5.3828125 C-6.8343723565483 2.8079223146282573 -3.6463020399665993 0 0 0 Z " fill="#1F5277" transform="translate(128,86)"/>
<path d="M0 0 C4.152395495388841 5.011511804779637 7.057680285274085 9.406122454659354 8.68359375 15.74609375 C8.97169921875 16.83083984375 9.2598046875 17.915585937499998 9.556640625 19.033203125 C10.142688196329829 21.298127552556295 10.726033432268153 23.563752970448945 11.306640625 25.830078125 C13.208181515145725 32.96615028512372 14.809751155028643 38.45587750337728 20.77734375 43.21484375 C24.26796397268651 45.14843580062757 27.75818726056019 46.429219274209004 31.5625 47.5625 C36.06902144885657 48.92389182353294 40.00428188935955 50.466129978618255 44 53 C45.98451771226611 53.711430877982195 47.98202112493047 54.38991336335107 50 55 C46.54525181389374 58.701515913685284 44.13044017548464 60.7861226942473 39.00390625 61.30078125 C26.80636964343944 61.342316561940606 14.654114460110762 60.320473573387986 5.4765625 51.54296875 C1.135928491230242 46.38689771646136 0.6823628139795801 40.505192159938645 0 34 C-0.14912841796875043 32.70425048828125 -0.14912841796875043 32.70425048828125 -0.30126953125 31.38232421875 C-0.6395149877068853 28.402638834075404 -0.9488122836986044 25.421148290477362 -1.25 22.4375 C-1.3546557617187496 21.480371093749994 -1.4593115234374991 20.523242187500003 -1.567138671875 19.537109375 C-2.192275969165845 12.702118981421535 -1.5460550410525258 6.679771490526406 0 0 Z " fill="#9EADC2" transform="translate(22,54)"/>
<path d="M0 0 C4.638924707514729 3.274535087657455 7.703091372621568 5.867280744454945 8.74267578125 11.73779296875 C9.356653737312477 17.1354397817243 9.775321533459106 22.53422306371516 10.123046875 27.955078125 C10.718954315630242 35.73408606620022 12.2022885028567 42.35094777201422 18 48 C19.629930211280566 48.803914731326515 21.278059254369914 49.571414444458966 22.9375 50.3125 C28.11783060523463 52.7498531903685 30.99219900206961 55.60228382881971 33 61 C33.495 64.465 33.495 64.465 34 68 C25.090000000000003 68 16.18 68 7 68 C3.099349517410591 55.385130354178926 0.007187544822286895 44.249040955748285 0 31 C-0.0069287109374993605 29.776357421875005 -0.013857421875000497 28.552714843749996 -0.02099609375 27.2919921875 C-0.07161366446557693 18.194228227414854 -0.05570408001962157 9.097761745973855 0 0 Z " fill="#5E7EA0" transform="translate(13,60)"/>
<path d="M0 0 C4.400138839619899 0.8250260324287311 8.63254061224174 1.9081351530604351 13 3 C13 15.21 13 27.42 13 40 C10.689999999999998 41.31999999999999 8.379999999999995 42.64 6 44 C4.321675139950216 45.61395513597226 4.321675139950216 45.61395513597226 3.2265625 47.390625 C2.798352050781247 48.01445068359375 2.3701416015624943 48.6382763671875 1.928955078125 49.281005859375 C1.4986499023437432 49.93077392578125 1.0683447265625006 50.580541992187506 0.625 51.25 C-3.623351538223474 57.374651223341544 -8.06224482497177 62.41106822275597 -14 67 C-14.659999999999997 66.67 -15.319999999999993 66.34 -16 66 C-13.811193306168931 50.87035373036068 -13.811193306168931 50.87035373036068 -10.125 44.125 C-2.9890373890666098 31.024650729181985 0 14.82895489228801 0 0 Z " fill="#61819D" transform="translate(115,46)"/>
<path d="M0 0 C12.54 0 25.08 0 38 0 C38.66 1.6500000000000001 39.31999999999999 3.3000000000000003 40 5 C42.19582278272357 6.738453592080928 42.19582278272357 6.738453592080928 44.8125 8.0625 C45.7096875 8.57296875 46.606875 9.0834375 47.53125 9.609375 C48.34593749999999 10.06828125 49.16062500000001 10.5271875 50 11 C55.13086785605047 14.306559285010305 57.32236558735485 18.667519552689647 60 24 C59.360625 23.731875 58.72125 23.46375 58.0625 23.1875 C57.051874999999995 22.795625 56.04124999999999 22.40375 55 22 C54.426367187500006 21.770546875 53.852734375 21.54109375 53.26171875 21.3046875 C47.41548088464097 19.147823044819 41.50195080168896 18.135137621830197 35.377685546875 17.1318359375 C31.172755921086747 16.430011285656445 27.150476862094592 15.551104653806757 23.0625 14.3125 C15.174125065302853 12.048464897896588 8.116760990515026 12.694031870441696 0.2265625 14.66015625 C-2.1724680735888526 15.026324074389878 -3.7118577252776745 14.747041884212997 -6 14 C-5.670000000000002 13.34 -5.340000000000003 12.68 -5 12 C-4.340000000000003 12 -3.6799999999999997 12 -3 12 C-2.6700000000000017 10.68 -2.3400000000000034 9.36 -2 8 C-1.3400000000000034 5.359999999999999 -0.6799999999999997 2.7199999999999998 0 0 Z " fill="#868484" transform="translate(47,0)"/>
<path d="M0 0 C9.119397732238937 0.3183035857675023 18.413626435059015 1.1060385876136323 25.61328125 7.21875 C31.333562443660398 13.884609590648449 35.40662499933663 24.122020847816792 35 33 C33.7067551009536 46.96429332480954 33.7067551009536 46.96429332480954 32 53 C30 53 30 53 28.44921875 51.48046875 C23.483589243295313 45.01744320579679 21.618687468982927 38.77477345092348 19.782958984375 30.989013671875 C18.474023919991055 25.514543670565025 16.798159433328877 20.743573679316995 14.015625 15.8125 C13 14.000000000000004 13 14.000000000000004 12 11 C11.340000000000003 11 10.680000000000007 11 10 11 C6.311525455581062 7.610590959182602 3.1544533328928566 3.875471237554077 0 0 Z " fill="#9C9CA2" transform="translate(81,17)"/>
</svg>
