<?xml version="1.0" encoding="UTF-8"?>
<!-- Generator: visioncortex VTracer 0.6.0 -->
<svg version="1.1" xmlns="http://www.w3.org/2000/svg" width="128" height="128">
<path d="M0 0 C42.24 0 84.48 0 128 0 C128 42.24 128 84.48 128 128 C85.75999999999999 128 43.519999999999996 128 0 128 C0 85.75999999999999 0 43.519999999999996 0 0 Z " fill="#6986BC" transform="translate(0,0)"/>
<path d="M0 0 C0.49500000000000455 0.9899999999999984 0.49500000000000455 0.9899999999999984 1 2 C1.948750000000004 2.3093749999999993 2.8974999999999937 2.6187499999999986 3.875 2.9375 C7.063067591932096 4.021442981256914 7.735972773845006 4.735972773845013 10 7 C11.763437499999995 7.7425 11.763437499999995 7.7425 13.5625 8.5 C17 10 17 10 19 13 C18.982010982953454 15.485482521931665 18.851631508112973 17.8451133552813 18.625 20.3125 C18.0932550181016 27.38176273310988 17.87860316604329 34.4107708098175 17.875 41.5 C17.868474121093755 42.85992065429687 17.868474121093755 42.85992065429687 17.86181640625 44.247314453125 C17.87055494724163 48.573289450393645 18.05210190973476 52.74187148075467 18.6328125 57.03125 C18.814570312499995 58.99578124999999 18.814570312499995 58.99578124999999 19 61 C15.487605491026272 64.51239450897373 11.578235500369715 64.1215704404671 6.755126953125 64.290283203125 C-4.211188002607841 64.68061157420298 -12.503727363821795 66.37975701124147 -22 72 C-22.99000000000001 72 -23.979999999999997 72 -25 72 C-24.935546875 72.7321875 -24.87109375 73.464375 -24.8046875 74.21875 C-25.0444025508682 77.63229232436316 -26.019550567258214 78.83856608501904 -28.125 81.5 C-33.12854529100131 88.27309179635543 -36.9532920793319 95.8131683173276 -39 104 C-47.91 104 -56.82 104 -66 104 C-68.38781596655006 88.4791962174246 -67.9858444051729 79.90531832325277 -62 66 C-61.58234375 64.9648828125 -61.1646875 63.929765625 -60.734375 62.86328125 C-53.8510752688172 45.8510752688172 -53.8510752688172 45.8510752688172 -51 43 C-51.48123115884712 38.007698671879766 -51.48123115884712 38.007698671879766 -52.5048828125 33.112060546875 C-53.315838460294614 29.652702899404005 -53.308184068176736 26.160170211012606 -53.375 22.625 C-53.4123828125 21.8825 -53.449765625 21.14 -53.48828125 20.375 C-53.55078332536617 16.4443139269718 -53.268559744366335 13.77312281743103 -50.8515625 10.5859375 C-46.80809366734897 6.91912055860962 -43.90997350936707 6.0297768698565015 -38.4921875 5.9453125 C-36.07527051870233 6.065375330604418 -33.65859496392324 6.190398120219179 -31.2421875 6.3203125 C-27.329658374293956 5.933773477942296 -26.49075712853012 4.91141833245965 -24 2 C-20.380373823127172 0.7934579410423872 -16.901382910394418 0.6450309527333857 -13.125 0.4375 C-12.063457031249996 0.3727246093749983 -12.063457031249996 0.3727246093749983 -10.98046875 0.306640625 C-7.315858032702835 0.0916774264993272 -3.6708587083819992 -0.05038433521308505 0 0 Z " fill="#324660" transform="translate(87,24)"/>
<path d="M0 0 C0.8043749999999932 0.4124999999999943 1.6087500000000006 0.8250000000000028 2.4375 1.25 C3.404296875 1.6618554687500051 3.404296875 1.6618554687500051 4.390625 2.08203125 C6.817372523738513 3.466759321751553 7.99161987109396 4.932679616394481 9.625 7.1875 C10.134179687499994 7.877148437499997 10.643359375000003 8.566796874999994 11.16796875 9.27734375 C12.4375 11.250000000000014 12.4375 11.250000000000014 13.4375 14.25 C16.412531221931502 15.408356726950899 16.412531221931502 15.408356726950899 19.4375 16.25 C25.570289830991385 22.38278983099137 20.4375 33.57692544582821 20.4375 42.25 C-5.962500000000006 42.25 -32.36250000000001 42.25 -59.5625 42.25 C-58.710060804283195 36.28292562998237 -58.090889746709024 33.7269416332353 -55.3125 28.75 C-54.3727734375 27.063906250000002 -54.3727734375 27.063906250000002 -53.4140625 25.34375 C-51.932331815868174 22.8679468315772 -50.415594985086855 20.554126646782464 -48.6875 18.25 C-46.37030340695313 15.526560717396308 -46.37030340695313 15.526560717396308 -46.3828125 12.796875 C-45.5625 10.25 -45.5625 10.25 -42.359375 8.265625 C-41.01899153817776 7.657807548995464 -39.66945224367417 7.0698688330307675 -38.3125 6.5 C-37.6434765625 6.197070312500003 -36.974453125 5.894140625000006 -36.28515625 5.58203125 C-28.935877072217878 2.3333322028468046 -22.09656440990406 1.9966693513036233 -14.15625 1.732421875 C-9.518262097773587 1.52757740931834 -4.116162880424866 -1.2047305991487463 0 0 Z " fill="#807A95" transform="translate(107.5625,85.75)"/>
<path d="M0 0 C0.3299999999999983 0.6600000000000001 0.6599999999999966 1.3200000000000003 1 2 C1.948750000000004 2.3093749999999993 2.897500000000008 2.6187499999999986 3.875 2.9375 C7.06306759193204 4.021442981256893 7.73597277384502 4.735972773845031 10 7 C11.175624999999997 7.495000000000001 12.351249999999993 7.990000000000002 13.5625 8.5 C17 10 17 10 19 13 C18.982010982953454 15.485482521931665 18.851631508112973 17.8451133552813 18.625 20.3125 C18.0932550181016 27.381762733109888 17.87860316604329 34.4107708098175 17.875 41.5 C17.868474121093755 42.85992065429687 17.868474121093755 42.85992065429687 17.86181640625 44.247314453125 C17.87055494724163 48.573289450393645 18.05210190973476 52.74187148075467 18.6328125 57.03125 C18.814570312499995 58.99578124999999 18.814570312499995 58.99578124999999 19 61 C15.487605491026272 64.51239450897373 11.5782355003697 64.1215704404671 6.755126953125 64.290283203125 C-2.527805233257851 64.62069426771366 -10.725080258188072 65.36930845452628 -18.875 70.1875 C-22 72 -22 72 -26 72 C-26.796223538413578 62.644373423640474 -21.864205599346732 55.527439948250745 -17.26953125 47.67578125 C-14.865847057009859 42.60955456631311 -14.83955921434108 38.41539033307494 -16 33 C-19.629999999999995 32.01 -23.259999999999998 31.019999999999996 -27 30 C-26.67 28.68 -26.340000000000003 27.36 -26 26 C-25.884017606137675 24.190135202752984 -25.825076516357143 22.37603365869959 -25.8125 20.5625 C-25.798320312500003 19.6356640625 -25.784140625 18.708828124999997 -25.76953125 17.75390625 C-26.015803013612967 14.811167379709474 -26.861418918130333 12.704692609500675 -28 10 C-28 6.875 -28 6.875 -27 4 C-22.44072550398667 1.0834564674357487 -18.2323700090124 0.485534967614786 -12.9375 0.3125 C-12.243339843749993 0.2783398437500004 -11.5491796875 0.24417968750000085 -10.833984375 0.208984375 C-7.221568597842463 0.040885255265223464 -3.615958795479173 -0.035243263113830636 0 0 Z " fill="#355D78" transform="translate(87,24)"/>
<path d="M0 0 C8.25 0 16.5 0 25 0 C25 33.99 25 67.98 25 103 C17.09569377990431 99.61244019138758 17.09569377990431 99.61244019138758 14.0625 95.4375 C13.475976562499994 94.6524609375 12.889453125000003 93.867421875 12.28515625 93.05859375 C11 91 11 91 11 89 C9.886250000000004 88.62875 9.886250000000004 88.62875 8.75 88.25 C5.64442224726082 86.83837374875492 4.060087330407015 85.72225825803784 2 83 C0.8396630570917978 77.22091925187924 0.848333810434525 71.50284355383648 0.875 65.625 C0.8740332031249949 64.6641650390625 0.873066406250004 63.703330078125 0.8720703125 62.71337890625 C0.8888898474442612 58.09794561268386 0.9931813759650083 53.523062535689064 1.3671875 48.921875 C1.4292236328124943 48.1502099609375 1.4912597656250028 47.378544921875 1.55517578125 46.58349609375 C1.6818963690039794 45.147011837080186 1.8277134174827836 43.71204120393918 1.99560546875 42.27978515625 C2.300063854985595 38.922309157347186 2.2817291137531015 37.375226028427214 0.22265625 34.6328125 C-2.6653433389668493 32.51122404975722 -5.684027756259553 31.34887006525035 -9 30 C-11.375542363007256 28.729038619013625 -13.680570240721167 27.37272373508339 -16 26 C-16 25.34 -16 24.68 -16 24 C-16.659999999999997 23.67 -17.319999999999993 23.34 -18 23 C-16.680000000000007 22.67 -15.36 22.34 -14 22 C-14 21.34 -14 20.68 -14 20 C-7.25 16 -7.25 16 -5 16 C-5 15.34 -5 14.68 -5 14 C-4.340000000000003 14 -3.680000000000007 14 -3 14 C-2.867226562500008 13.0731640625 -2.7344531250000017 12.146328125 -2.59765625 11.19140625 C-2.4210546875000034 9.9938671875 -2.244453125000007 8.796328125 -2.0625 7.5625 C-1.8014648437499972 5.770058593749999 -1.8014648437499972 5.770058593749999 -1.53515625 3.94140625 C-1 1.0000000000000027 -1 1.0000000000000027 0 0 Z " fill="#6C839F" transform="translate(103,0)"/>
<path d="M0 0 C23.760000000000005 0 47.52000000000001 0 72 0 C71 10 71 10 69 14 C68.34 14 67.68 14 67 14 C67 14.66 67 15.32 67 16 C60.249999999999986 20 60.249999999999986 20 58 20 C58 20.66 58 21.32 58 22 C51.87832795527983 25.33909384257464 45.90599743314445 26.051632702649094 39 25 C36.76697323744993 24.08491737278287 34.60073153568146 23.06038662401826 32.41796875 22.031494140625 C27.60702493290829 19.979168047408876 22.463448575844424 19.057901817970208 17.373046875 17.93359375 C11.041179968671536 16.4592500293283 4.702958696616214 14.702958696616214 0 10 C0 6.699999999999999 0 3.3999999999999995 0 0 Z " fill="#99A199" transform="translate(31,0)"/>
<path d="M0 0 C0.5855566406250006 0.32468261718750036 1.1711132812500011 0.6493652343750007 1.7744140625 0.98388671875 C8.279455023204065 4.432756926257738 14.601777288891881 6.452409326420451 21.75 8.125 C33.75 10.982142857142858 33.75 10.982142857142858 39 14 C36.605053696137944 15.289586471310336 34.440246624760704 16.16463334565862 31.8125 16.9375 C30.884375 17.288125 29.956249999999997 17.63875 29 18 C28.505000000000003 19.485 28.505000000000003 19.485 28 21 C27.0705859375 20.9651953125 26.141171874999998 20.930390625 25.18359375 20.89453125 C15.632314215824422 20.55343390928629 15.632314215824422 20.55343390928629 7 24 C4.268032502770808 26.62243106455726 3.998781252527337 28.012960658607163 3.63671875 31.86328125 C3.6380418266478074 33.346450172196164 3.6554597364729915 34.82967660397016 3.6875 36.3125 C3.684277343749997 37.04662109375 3.6810546875000014 37.7807421875 3.677734375 38.537109375 C3.724625509810366 43.34131927784392 4.533971789307401 47.389197549115835 6 52 C6.25 54.8125 6.25 54.8125 6 57 C5.340000000000003 57.66 4.68 58.31999999999999 4 59 C-0.008511376234135781 58.78813364819058 -1.862424822842378 56.423198766998325 -4.4375 53.5625 C-11.46753199333967 45.36079600777038 -14.986064859860818 38.673774893836566 -14.54296875 27.65625 C-12.909509539346814 16.656841214594373 -7.233792851625161 8.157255768853904 0 0 Z " fill="#737A6A" transform="translate(31,10)"/>
<path d="M0 0 C0 0.6599999999999966 0 1.3199999999999932 0 2 C0.9074999999999989 2.1650000000000063 1.8149999999999977 2.3299999999999983 2.75 2.5 C7.331010537738109 4.614312555879124 8.306180759915193 7.407143983616194 10 12 C12.177880693143777 18.187161060067567 12 23.18501950899494 12 30 C-3.180000000000007 30 -18.36 30 -34 30 C-32.84430978528532 21.9101684969972 -30.062361458371974 16.929910723105138 -26 10 C-25.592656249999997 9.15953125 -25.185312500000002 8.319062500000001 -24.765625 7.453125 C-23.361436499014317 4.954763641103398 -22.38181508419987 3.624162753942514 -20 2 C-13.364938792809767 0.38052574036655074 -6.8240774085582245 0 0 0 Z " fill="#9C888A" transform="translate(82,98)"/>
<path d="M0 0 C0.3299999999999983 0.6600000000000001 0.6599999999999966 1.3200000000000003 1 2 C1.9693749999999994 2.2681250000000013 2.938749999999999 2.536249999999999 3.9375 2.8125 C7 4 7 4 8.5625 6.3125 C9.151932487275516 9.93329956469244 7.901848022295553 10.875535391943025 6 14 C5.140729092023747 17.637751688258746 4.5501885130707365 21.304027753371855 4 25 C3.010000000000005 25.33 2.019999999999996 25.659999999999997 1 26 C1 26.989999999999995 1 27.980000000000004 1 29 C0.010000000000005116 29 -0.980000000000004 29 -2 29 C-2 29.659999999999997 -2 30.32 -2 31 C-3.8936908416394687 31.365449109790077 -5.790087816854282 31.716891749511454 -7.6875 32.0625 C-9.271113281249995 32.35833984375 -9.271113281249995 32.35833984375 -10.88671875 32.66015625 C-13.966707026370997 32.99636576072055 -16.029153443159288 32.7818017254844 -19 32 C-19.7386328125 31.823398437500003 -20.477265625 31.646796875 -21.23828125 31.46484375 C-23.158854166666664 30.9765625 -25.079427083333336 30.48828125 -27 30 C-26.8388671875 29.4521484375 -26.677734375 28.904296875 -26.51171875 28.33984375 C-25.933077622626868 25.693996152316743 -25.83127766161543 23.270238804945492 -25.8125 20.5625 C-25.798320312500003 19.6356640625 -25.784140625 18.708828124999997 -25.76953125 17.75390625 C-26.015803013612967 14.811167379709474 -26.861418918130333 12.704692609500675 -28 10 C-28 6.875 -28 6.875 -27 4 C-22.44072550398667 1.0834564674357487 -18.2323700090124 0.485534967614786 -12.9375 0.3125 C-12.243339843749993 0.2783398437500004 -11.5491796875 0.24417968750000085 -10.833984375 0.208984375 C-7.221568597842463 0.040885255265223464 -3.615958795479173 -0.035243263113830636 0 0 Z " fill="#3B666B" transform="translate(87,24)"/>
<path d="M0 0 C10.23 0 20.46 0 31 0 C31 12.28838951310861 31 12.28838951310861 27.375 16.375 C23.952733319045507 20.492414600523375 22.15041006747805 24.01922577707017 20.375 29.0625 C18.972656249999996 32.35937500000001 18.972656249999996 32.35937500000001 17 35 C12.329057126358581 36.74957860238129 7.958471216906133 37.030797957868984 3 37 C2.01 37 1.02 37 0 37 C0 24.79 0 12.579999999999998 0 0 Z " fill="#63819B" transform="translate(0,0)"/>
<path d="M0 0 C0.3799770883557301 4.316539723721078 -0.46496209584540793 6.137527844098955 -3.125 9.5 C-8.128545291001302 16.273091796355416 -11.953292079331902 23.81316831732761 -14 32 C-22.909999999999997 32 -31.82 32 -41 32 C-43 19 -43 19 -43 13 C-42.010000000000005 13.082499999999996 -41.019999999999996 13.164999999999992 -40 13.25 C-35.35888310546879 13.231210053058575 -31.78344382092189 11.624261033235186 -28 9 C-27.174999999999997 8.010000000000005 -26.35 7.019999999999996 -25.5 6 C-18.418287672713433 -2.4980547927438863 -10.09424754468256 -1.2092067371234378 0 0 Z " fill="#5D4D59" transform="translate(62,96)"/>
<path d="M0 0 C0.014179687500000426 0.8224218750000034 0.028359375000000853 1.6448437499999997 0.04296875 2.4921875 C0.6130490287120054 15.835147536881031 5.498814937697794 23.760144192849523 15 33 C15.989999999999995 33.495000000000005 15.989999999999995 33.495000000000005 17 34 C16.52055369693698 38.21912746695456 15.833748807921943 40.79663178234911 13 44 C7.520473880302326 42.37550147296213 2.768766223605329 39.808874862800494 -2.169921875 37.009765625 C-7.137146687376864 34.270828578923044 -11.411367751809522 32.8628774160635 -17 31 C-17 21.43 -17 11.86 -17 2 C-3.9999999999999982 0 -3.9999999999999982 0 0 0 Z " fill="#799AAE" transform="translate(17,35)"/>
<path d="M0 0 C3.4491660852427373 6.8983321704854745 4.250940019481632 14.084541570507461 2.3359375 21.609375 C0.5408115654968952 24.82170561963713 -1.469498484708673 25.82227584304823 -4.6875 27.5625 C-5.763867187499997 28.151601562500005 -6.840234375000001 28.740703124999996 -7.94921875 29.34765625 C-8.955976562499998 29.8929296875 -9.962734374999997 30.438203125 -11 31 C-12.335586068153432 31.829718070658146 -13.669442558877769 32.66224161114526 -15 33.5 C-18 35 -18 35 -20.078125 34.84375 C-22 34 -22 34 -23.046875 32.3125 C-24.772887089183385 26.63583801779687 -25.359851649864083 21.151519616632342 -25.5 15.25 C-25.530615234375 14.529414062500003 -25.561230468749997 13.808828124999998 -25.5927734375 13.06640625 C-25.594589067990007 9.137381869627873 -25.064209235033353 6.590315520981832 -22.6328125 3.5703125 C-16.815225922209187 -2.1091711323239686 -7.547022597829063 -2.5156741992763543 0 0 Z " fill="#3D4C34" transform="translate(59,31)"/>
<path d="M0 0 C0 20.790000000000006 0 41.58000000000001 0 63 C-7.923719376391972 59.60412026726058 -7.923719376391972 59.60412026726058 -11.375 54.625 C-12.042734374999995 53.68914062499999 -12.710468750000004 52.75328125 -13.3984375 51.7890625 C-17.84340891628399 44.0483073994469 -16.172587528181282 34.44006545580967 -14.6875 26 C-14.552148437499994 25.214719238281248 -14.416796875000003 24.429438476562495 -14.27734375 23.620361328125 C-11.09689042884716 5.897800547233352 -11.09689042884716 5.897800547233352 -4.4375 1.1875 C-2 0 -2 0 0 0 Z " fill="#6FAEE1" transform="translate(128,40)"/>
<path d="M0 0 C0.1348759528478638 2.772450141872689 0.23400806854456846 5.538370879703461 0.3125 8.3125 C0.3543945312499943 9.09818359375 0.39628906249998863 9.883867187500002 0.439453125 10.693359375 C0.4864087623563762 12.900274330749397 0.47422058105124165 14.842839793553395 0 17 C-2.42491780647282 19.068893984967843 -3.8003099521795605 20 -7 20 C-13.200266235800967 35.085469189783616 -15.44489270427502 49.7367000326131 -15 66 C-21.46864773741447 63.2448352229531 -21.46864773741447 63.2448352229531 -22.784912109375 60.1611328125 C-23.99420997966898 54.126317546092565 -24.274657659907376 48.333986506964635 -24.1875 42.1875 C-24.17887939453125 41.22207275390625 -24.1702587890625 40.2566455078125 -24.161376953125 39.261962890625 C-23.91408635764067 19.53016497308657 -23.91408635764067 19.53016497308657 -20 14 C-18.006691582866154 12.656683458018499 -16.006151340228584 11.324059884550863 -14 10 C-13.195625000000007 9.009999999999998 -12.39125 8.02 -11.5625 7 C-8.620940436332816 3.5562229498530513 -4.822755179035596 0 0 0 Z " fill="#4C84B0" transform="translate(128,23)"/>
<path d="M0 0 C2.76375 0.1443749999999966 5.5275 0.2887499999999932 8.375 0.4375 C9.67896728515625 0.5021545410156278 9.67896728515625 0.5021545410156278 11.00927734375 0.568115234375 C16.77777777777778 0.8888888888888857 16.77777777777778 0.8888888888888857 19 2 C19.6328125 4.2578125 19.6328125 4.2578125 20.125 7.125 C20.292578125 8.055703125000008 20.46015625 8.986406250000002 20.6328125 9.9453125 C21 13 21 13 21 20 C14.07 20 7.139999999999999 20 0 20 C0 13.400000000000006 0 6.799999999999997 0 0 Z " fill="#918CA9" transform="translate(0,108)"/>
</svg>
