<?xml version="1.0" encoding="UTF-8"?>
<!-- Generator: visioncortex VTracer 0.6.0 -->
<svg version="1.1" xmlns="http://www.w3.org/2000/svg" width="128" height="128">
<path d="M0 0 C42.24 0 84.48 0 128 0 C128 42.24 128 84.48 128 128 C85.75999999999999 128 43.519999999999996 128 0 128 C0 85.75999999999999 0 43.519999999999996 0 0 Z " fill="#96AF8E" transform="translate(0,0)"/>
<path d="M0 0 C0 19.799999999999997 0 39.599999999999994 0 60 C-42.24000000000001 60 -84.48 60 -128 60 C-128 41.849999999999994 -128 23.69999999999999 -128 5 C-116.75 2.75 -116.75 2.75 -112.375 2.875 C-111.537109375 2.893046874999996 -110.69921875 2.9110937500000063 -109.8359375 2.9296875 C-108.9271484375 2.9644921874999994 -108.9271484375 2.9644921874999994 -108 3 C-107.82984375 3.663867187500003 -107.6596875 4.327734375000006 -107.484375 5.01171875 C-105.6056897158605 12.286305610771194 -105.6056897158605 12.286305610771194 -101 18 C-94.50507656623495 20.80678319580244 -87.53461379837194 20.499294520492853 -81 18 C-78.84389254524903 16.433899251025778 -76.76596596763464 14.847577537780566 -74.6875 13.1875 C-71.28402785523963 10.533505029632224 -68.84544573271276 9.006384164108937 -64.37890625 8.97265625 C-60.78558720853698 9.742376905813927 -57.44945647023167 10.737698900386235 -54 12 C-52.33344409942205 12.562828089230266 -50.6667937260042 13.125376612538844 -49 13.6875 C-48.29875 13.929843750000003 -47.5975 14.172187500000007 -46.875 14.421875 C-41.363232285618324 16.121336711934347 -37.372388413121016 14.649414939336154 -32.375 12.27734375 C-27.614336775486308 9.716921259184247 -23.186613053738682 6.674506650818472 -18.8984375 3.390625 C-12.884690593653445 -1.0145064787229927 -7.652901752314364 0 0 0 Z " fill="#C4BB88" transform="translate(128,68)"/>
<path d="M0 0 C5.992547176808621 0.24459376231871843 10.643859242023382 2.466202772741699 16 5 C17.499846410948606 5.625368486225977 18.999845400369622 6.250371168446581 20.5 6.875 C24.667075235865255 8.70676161856774 28.26848747421664 11.07659845594823 31.95703125 13.73046875 C34.166048077766504 15.103184751958153 35.401534854519454 15.81272323275816 38 16 C40.38469439677151 15.194360001090708 42.584812760497854 14.330034045252276 44.875 13.3125 C54.008680857710345 9.462125862124317 62.974634026825115 6 73 6 C73 18.870000000000005 73 31.740000000000002 73 45 C69.37 45.33 65.74 45.66 62 46 C56.12790393079358 48.11395458491431 51.96193336320188 50.69097544664368 47.125 54.54296875 C43.97202849187565 56.70484075832792 40.58330449944626 57.943140204017155 37.00390625 59.23828125 C35.03232658298194 59.83109951762549 35.03232658298194 59.83109951762549 34 61 C28.459074029501622 60.72295370147509 23.66386176603463 59.67948843609645 18.375 58 C17.262539062499997 57.6532421875 16.150078124999993 57.306484375 15.00390625 56.94921875 C12.771294605494461 56.24372508340072 10.541211130763898 55.53022053363583 8.3125 54.8125 C2.828369110755247 55.1229225031648 -0.7462921682660166 58.753003021776394 -5 62 C-11.023738255939058 65.68800301384024 -17.30705460518047 66.72128990319304 -24.25 65.4375 C-28.698065619628082 64.1261181041734 -30.45838700292777 61.81241949560834 -33 58 C-35.006380599986905 54.178322666691614 -35.324247836287114 51.29004829549103 -35 47 C-34.07208160152352 44.16021545055271 -32.854253585417936 41.47052907751991 -31.625 38.75 C-28.91954109371377 32.51620522038203 -27.124888064137476 26.711410809629214 -26 20 C-25.1875 16.1875 -25.1875 16.1875 -23 13 C-19.832932848994943 11.500274608159167 -16.632399257826968 10.37679640163364 -13.3125 9.2578125 C-7.984635151392233 7.234731743806957 -3.992761071146518 3.992761071146518 0 0 Z " fill="#AD784D" transform="translate(55,23)"/>
<path d="M0 0 C4.732284310376059 3.953747214152898 8.008190676832797 7.10360623041457 9.546875 13.1484375 C9.43476451281822 19.53873526936127 7.01126456440376 23.68404793559624 2.546875 28.1484375 C-6.057302053284758 29.263793784685063 -13.347847025834596 25.394721674543334 -20.765625 21.3359375 C-28.289296126285592 18.91306035763685 -36.78469954557892 19.595183859311845 -44.453125 21.1484375 C-46.63849294283711 21.26345686541248 -48.82726905346037 21.3232587285832 -51.015625 21.3359375 C-52.1306640625 21.35011718749999 -53.245703125 21.364296875000008 -54.39453125 21.37890625 C-58.30342716797648 21.084366199986448 -60.3826728931093 20.108153182039928 -63.265625 17.5234375 C-65.06123440202191 13.932218695956188 -64.55729187282006 10.864901608516277 -63.453125 7.1484375 C-60.4162170933593 0.700848405901283 -56.60774379168909 -3.566860445426286 -49.89453125 -6.30078125 C-48.60510209042795 -6.7244695699814585 -47.31199083803408 -7.13709861602333 -46.015625 -7.5390625 C-45.373027343749996 -7.751113281249999 -44.7304296875 -7.963164062499999 -44.068359375 -8.181640625 C-27.768348524037116 -13.427430919167747 -13.601729797629957 -10.266273764453182 0 0 Z " fill="#774A16" transform="translate(88.453125,49.8515625)"/>
<path d="M0 0 C7.260000000000001 0 14.520000000000001 0 22 0 C22.249999999999996 10.93749999999988 22.249999999999996 10.93749999999988 22.2978515625 14.327880859375 C22.51831462215411 20.89129821165647 23.488485460655916 26.358248493606272 27 32 C29.547638425046877 34.52858116412773 29.547638425046877 34.52858116412773 32 36 C31.7099609375 36.92619140625 31.7099609375 36.92619140625 31.4140625 37.87109375 C30.157097945077545 41.95933985190125 28.966406368852894 45.97979961568127 28.1875 50.1875 C26.942226051949273 56.145491734208214 24.35640037764546 66.64359962235454 20 71 C17.967517882111142 71.40355079731997 15.923088809943975 71.74758885040725 13.875 72.0625 C12.2005078125 72.32740234375 12.2005078125 72.32740234375 10.4921875 72.59765625 C7.000000000000005 73 7.000000000000005 73 0 73 C0 48.91 0 24.82 0 0 Z " fill="#A58179" transform="translate(0,0)"/>
<path d="M0 0 C0 12.540000000000006 0 25.08 0 38 C-19.14 38 -38.28 38 -58 38 C-57.2462554416872 30.462554416871995 -56.708066651597704 26.058548074806623 -53.375 19.75 C-53.01527099609375 19.05543701171875 -52.655541992187494 18.360874023437503 -52.284912109375 17.645263671875 C-49.59578620125225 12.661827391776967 -46.92779929241152 8.946305261147103 -42 6 C-41.2536328125 5.510156249999994 -40.507265625 5.020312500000003 -39.73828125 4.515625 C-33.85248786044997 0.8965917092353521 -33.85248786044997 0.8965917092353521 -30.359375 1.3203125 C-25.850433903547668 2.619245862223025 -23.631008537279683 4.053487194080461 -21 8 C-17.006096211443776 7.429442315920539 -14.369174719104691 6.189963567418047 -11 4 C-7.462757654306017 1.7007924752989112 -4.328346238779517 0 0 0 Z " fill="#E6D8AA" transform="translate(128,90)"/>
<path d="M0 0 C6.930000000000007 0 13.86 0 21 0 C21 9.57 21 19.14 21 29 C18.277500000000003 29.556875 15.555000000000007 30.11375 12.75 30.6875 C3.7380701243766055 32.615546769200016 -4.279906557543015 35.80271512161485 -12.625 39.6875 C-18.06030967693424 40.19076941453095 -21.778876957679614 37.21003326836425 -26 34 C-27.359615012816988 32.69347691467841 -28.70143847767079 31.367221097073045 -30 30 C-23.89873207075766 23.381918787339487 -17.569267541932078 17.945677405969178 -10.179443359375 12.844482421875 C-5.078467146467062 9.27346414334418 -1.5667541000365475 6.267016400146225 0 0 Z " fill="#BCB47A" transform="translate(107,0)"/>
<path d="M0 0 C0.837890625 0.01804687499999602 1.67578125 0.03609375000000625 2.5390625 0.0546875 C3.4478515624999986 0.08949218749999943 3.4478515624999986 0.08949218749999943 4.375 0.125 C4.545156250000002 0.7888671875000028 4.7153125 1.4527343750000057 4.890625 2.13671875 C6.634446748133634 8.490537353572023 8.686267378971039 12.436267378971039 13.375 17.125 C10.405000000000001 17.455 7.434999999999999 17.784999999999997 4.375 18.125 C4.375 18.784999999999997 4.375 19.444999999999993 4.375 20.125 C3.5706249999999997 20.908749999999998 2.7662499999999994 21.692499999999995 1.9375 22.5 C-1.8750489005243587 26.405537898098117 -1.8955424229299602 29.80390777197097 -1.859375 35.2109375 C-1.4397024905848799 40.42886570039465 -0.32379743839697994 45.52484925761674 0.71875 50.6484375 C1.375 54.125 1.375 54.125 1.375 57.125 C-4.234999999999999 57.125 -9.845 57.125 -15.625 57.125 C-15.625 38.974999999999994 -15.625 20.82499999999999 -15.625 2.125 C-4.375 -0.125 -4.375 -0.125 0 0 Z " fill="#CBA78E" transform="translate(15.625,70.875)"/>
<path d="M0 0 C8.91 0 17.82 0 27 0 C28.812499999999957 7.12499999999983 28.812499999999957 7.12499999999983 29.362548828125 9.33251953125 C30.220850247318495 12.62379080797013 31.117512551738926 15.216264784796694 32.76171875 18.2421875 C34 21 34 21 33.3671875 23.19140625 C28.30464591587714 29.88842554556824 21.066748651551094 33.86374640452995 13 36 C8.73242997337725 35.718621756486414 7.434655163313309 35.40501958399649 4.25 32.4375 C-0.6314486422059886 25.834616561826905 -0.2643891885725864 17.83539934347842 -0.125 10 C-0.08374999999999844 6.699999999999999 -0.042500000000000426 3.3999999999999995 0 0 Z " fill="#C3B47D" transform="translate(22,0)"/>
<path d="M0 0 C11.664788430821318 -1.036870082739675 23.178554361676078 5.609259934432593 31.875 12.875 C35.65544637578813 16.397688668348025 37.72088494973346 18.97490515966713 39 24 C38.88788951281822 30.39029776936127 36.46438956440376 34.53561043559624 32 39 C24.42124157052774 39.98243164826492 18.78856363975929 37.13250060762749 12 34 C10.250639919704682 33.22771550757062 8.500713621780989 32.45671118185338 6.75 31.6875 C5.499337007322907 31.126475643355846 4.2490539529316464 30.5645976201383 3 30 C4.3578497941625045 24.840170782182483 6.8498118071648975 20.86858642599192 9.7578125 16.46484375 C11.178218145457407 13.646365881183577 11.544360049080396 12.108448504561906 11 9 C9.382730266603488 7.210732929612611 9.382730266603488 7.210732929612611 7.1875 5.875 C4.523105539965883 4.079324316552601 2.2023317611530473 2.3482275560559316 0 0 Z " fill="#6D4D2B" transform="translate(59,39)"/>
<path d="M0 0 C0 7.260000000000005 0 14.519999999999996 0 22 C-1.8562500000000028 22.742500000000007 -3.7125000000000057 23.485 -5.625 24.25 C-9.167293722221359 25.708591532679378 -12.417666318585248 27.09119836040253 -15.5 29.375 C-18 31 -18 31 -20.25 31 C-22 30 -22 30 -22.875 28.0625 C-23.88538057291342 25.67979570628718 -23.88538057291342 25.67979570628718 -26.9375 24.875 C-27.948125000000005 24.586250000000007 -28.958749999999995 24.2975 -30 24 C-30.989999999999995 23.340000000000003 -31.980000000000004 22.680000000000007 -33 22 C-33 21.340000000000003 -33 20.680000000000007 -33 20 C-35.474999999999994 19.00999999999999 -35.474999999999994 19.00999999999999 -38 18 C-38 16.680000000000007 -38 15.36 -38 14 C-37.238164062500005 13.720273437499998 -36.476328124999995 13.440546874999995 -35.69140625 13.15234375 C-29.25877394592679 10.654779896608275 -24.256439570927682 7.884753933262019 -18.9375 3.515625 C-12.911819765009199 -1.1980119580169912 -7.899736179246986 0 0 0 Z " fill="#CE9D7E" transform="translate(128,68)"/>
<path d="M0 0 C0 12.540000000000006 0 25.08 0 38 C-7.590000000000003 38 -15.180000000000007 38 -23 38 C-23 30.115504682622273 -23 30.115504682622273 -22.59765625 26.51953125 C-22.51193359375 25.748027343749996 -22.426210937500002 24.976523437499992 -22.337890625 24.181640625 C-22.247011718750002 23.39982421875 -22.156132812500005 22.618007812499997 -22.0625 21.8125 C-21.975488281249994 21.019082031250008 -21.888476562500003 20.2256640625 -21.798828125 19.408203125 C-20.918053982132506 11.63781790903569 -20.918053982132506 11.63781790903569 -20 9 C-17.75599148814578 7.41685786925467 -15.649475766779403 6.106954032078363 -13.25 4.8125 C-12.628671874999995 4.457363281249997 -12.007343750000004 4.102226562499993 -11.3671875 3.736328125 C-7.716635451155057 1.706960055652658 -4.2539402065900305 0 0 0 Z " fill="#CEBBB8" transform="translate(128,90)"/>
<path d="M0 0 C5.992547176808614 0.24459376231871843 10.643859242023382 2.466202772741699 16 5 C17.499846410948606 5.625368486225977 18.999845400369622 6.250371168446581 20.5 6.875 C26.139559248925977 9.372660686694807 31.622493069752025 12.622493069752025 36 17 C35.34 17.989999999999995 34.68000000000001 18.980000000000004 34 20 C33.34 20 32.68000000000001 20 32 20 C31.504999999999995 21.485 31.504999999999995 21.485 31 23 C26.86893832891036 24.37702055702988 25.409587828504073 23.020160178854454 21.5625 21.125 C9.959082608999054 15.448697977098512 0.3238543659306856 16.370794766925172 -12 20 C-17.48847989985029 21.9905979338263 -22.266182134928307 24.60136153276904 -27 28 C-25.965882657017318 16.211062289997415 -25.965882657017318 16.211062289997415 -23 13 C-19.83408216195472 11.494097495672477 -16.633844770763318 10.377283616931386 -13.3125 9.2578125 C-7.98463515139224 7.234731743806957 -3.992761071146518 3.9927610711465142 0 0 Z " fill="#8F7E4E" transform="translate(55,23)"/>
<path d="M0 0 C1.3756285444675456 1.2896517604383178 2.707663929993849 2.6268929256184634 4 4 C4 4.659999999999997 4 5.319999999999993 4 6 C7.511787839557648 7.081871070377176 10.77552565784849 7.133466992698615 14.4375 7.125 C15.549960937500003 7.127578124999999 16.662421875 7.130156249999999 17.80859375 7.1328125 C20.676194780364405 7.013475370217392 23.20131484658298 6.580772899483591 26 6 C27.603036271823754 5.936286316700176 29.208376720377707 5.913557861498177 30.8125 5.9375 C31.997792968750005 5.951035156250001 31.997792968750005 5.951035156250001 33.20703125 5.96484375 C34.09455078125 5.982246093750007 34.09455078125 5.982246093750007 35 6 C36.84160932403421 9.107715734307732 37.60309376550581 11.392816534616202 37 15 C34.04521368407674 17.861354337554147 30.505068261939478 19.86418163224201 27 22 C25.989374999999995 22.618750000000006 24.978749999999998 23.237499999999997 23.9375 23.875 C17.983932436585803 26.155089705137357 11.946713444618545 26.67477806733774 5.7890625 24.859375 C1.7333539176204837 22.911218039031667 -0.26232432515063664 19.4050965235226 -2.3125 15.5 C-3.9825517247045283 9.427084637438085 -2.624047499829768 5.4667656246453475 0 0 Z " fill="#B58649" transform="translate(23,63)"/>
<path d="M0 0 C4.949999999999999 0 9.899999999999999 0 15 0 C15.025781250000001 1.5558984375 15.0515625 3.111796875 15.078125 4.71484375 C15.134439357837472 6.789089263680181 15.191785917587147 8.863306933159347 15.25 10.9375 C15.2641796875 11.95908203125 15.278359375 12.9806640625 15.29296875 14.033203125 C15.506196696261487 20.707237842984537 16.426305643463298 26.258347703396453 20 32 C22.547638425046877 34.52858116412773 22.547638425046877 34.52858116412773 25 36 C24.55123384002199 37.64846769431923 24.09069512093204 39.29373454839334 23.625 40.9375 C23.369765625 41.8540234375 23.11453125 42.770546875 22.8515625 43.71484375 C22 46 22 46 20 47 C13.526807500210001 44.26134163470423 10.086452587181114 40.28242445971381 7 34 C5.958150584041064 30.708442779250618 5.491929410708506 27.411914077941564 5 24 C4.523147304146599 21.22481592073501 4.011424520393019 18.45648500316048 3.5 15.6875 C3.38116455078125 15.00550537109375 3.2623291015625 14.3235107421875 3.139892578125 13.620849609375 C2.458728077547118 9.852419455395115 1.450177272272139 6.531681719111026 0 3 C0 2.01 0 1.02 0 0 Z " fill="#B49679" transform="translate(7,0)"/>
<path d="M0 0 C5.499164926927165 0.21565352654616277 9.357780341760119 1.5074405972116978 14.3125 3.9375 C20.160323177615908 6.786264328347926 25.558438434568444 8.251281421252443 32 9 C31.125 13.875 31.125 13.875 30 15 C22.239575038475664 14.611978751923786 15.354190574601319 12.388459840018143 8 10 C5.672212794223569 9.310426376030222 3.3384545317743957 8.652591962355643 1 8 C0.6700000000000017 5.359999999999999 0.3400000000000034 2.719999999999999 0 0 Z " fill="#8F7E4E" transform="translate(59,69)"/>
</svg>
