<?xml version="1.0" encoding="UTF-8"?>
<!-- Generator: visioncortex VTracer 0.6.0 -->
<svg version="1.1" xmlns="http://www.w3.org/2000/svg" width="128" height="128">
<path d="M0 0 C42.24 0 84.48 0 128 0 C128 42.24 128 84.48 128 128 C85.75999999999999 128 43.519999999999996 128 0 128 C0 85.75999999999999 0 43.519999999999996 0 0 Z " fill="#9AA3A6" transform="translate(0,0)"/>
<path d="M0 0 C42.24 0 84.48 0 128 0 C128 19.14 128 38.28 128 58 C118.93975903614458 56.867469879518076 118.93975903614458 56.867469879518076 114.25 53.75 C113.34765625 53.16734375 112.4453125 52.5846875 111.515625 51.984375 C106.30940794962657 47.87760751305947 103.2236013553511 42.28910037502267 99.78125 36.71875 C94.33698142363886 28.409076909764572 88.08286861853428 24.131151710257036 79.0625 20.3125 C78.39798828125 20.01794921875 77.7334765625 19.7233984375 77.048828125 19.419921875 C69.59879795346538 16.204341442087383 62.621913782838405 14.607937155918407 54.5 14.625 C53.3412939453125 14.626329345703125 53.3412939453125 14.626329345703125 52.1591796875 14.627685546875 C41.32045937389228 14.845477050524604 28.461197953573247 16.919815857141163 20.3125 24.5 C17.01658000610649 28.788921530515275 16.117614589456213 33.80718099289247 15 39 C14.74734375 39.941015625 14.4946875 40.88203125 14.234375 41.8515625 C11.560595475188876 53.386123008196826 15.537309130941054 63.986016985191974 20.8515625 74.2421875 C21.890828301769286 76.15548972166441 21.890828301769286 76.15548972166441 24 77 C24.859374999999996 78.6015625 24.859374999999996 78.6015625 25.75 80.625 C27.17973827055657 83.62798186938461 28.6600753729634 85.89456588440588 30.9375 88.3125 C34.761735935068806 92.51624026450311 39 99.16680861544563 39 105 C39.9577734375 105.0708984375 40.915546875 105.141796875 41.90234375 105.21484375 C46.02155387463491 105.80123394348932 49.31956994730718 107.44305026020024 53.014892578125 109.29052734375 C65.41202018265952 115.48018089618171 74.82948013331627 117.01012117740375 88.125 112.625 C92.72682093532242 110.96493858734182 92.72682093532242 110.96493858734182 97.1171875 108.8359375 C99 108 99 108 101.484375 108.1328125 C104.13652870755953 108.2421091829249 104.13652870755953 108.2421091829249 106.140625 106.2421875 C107.18476562500001 105.0704296875 107.18476562500001 105.0704296875 108.25 103.875 C114.30571514229224 97.48677470846376 119.20785342508546 93.46535776248575 128 92 C128 103.88 128 115.76 128 128 C85.75999999999999 128 43.519999999999996 128 0 128 C0 85.75999999999999 0 43.519999999999996 0 0 Z " fill="#6D7379" transform="translate(0,0)"/>
<path d="M0 0 C2.134182255695862 3.2012733835438 2.3747453892968196 4.632198921093092 2.6875 8.375 C2.7738671875000023 9.310859375 2.8602343750000045 10.24671875 2.94921875 11.2109375 C2.9995591596631357 13.97578769226807 2.6480610840553425 16.32004814864335 2 19 C6.097717524458972 22.673430696313353 10.186575231998901 26.140707378254262 14.6875 29.3125 C19.501339616929044 33.04176569976999 22.284009231025237 37.142272348840066 24 43 C24.55438757137169 49.088183511063704 22.673129466530412 55.135620182939874 19 60 C13.976312492083878 63.40783457221602 7.99069475819438 65.16486809845617 2.1875 66.75 C1.3992382812500068 66.96535400390626 0.6109765624999994 67.1807080078125 -0.201171875 67.402587890625 C-8.92550047677156 69.66329116961154 -16.428743396176642 69.58375152395924 -25.1875 67.5625 C-29.90176969626114 66.61964606074777 -34.702670881882135 66.22798005973125 -39.484375 65.7578125 C-44.89757981067344 64.59096612969928 -48.71959360997559 61.76213177714442 -52.25 57.5625 C-52.72953125 57.0069140625 -53.2090625 56.451328125 -53.703125 55.87890625 C-57.55453130130218 50.299007361667634 -57.845022364351486 44.565823771011054 -57 38 C-55.95201480836022 34.83589086370298 -54.68697241644416 31.873846746931463 -53.30078125 28.84375 C-51.16924486186325 24.183814592902245 -49.60869757171558 19.35693362071266 -48.328125 14.3984375 C-48.09609375 13.524453125 -47.8640625 12.650468750000002 -47.625 11.75 C-47.431640625 10.961093750000003 -47.23828125 10.1721875 -47.0390625 9.359375 C-45.53509051589953 5.944340870689167 -44.0035817922838 4.240830100295938 -41 2 C-37.9295654410945 1.4473665270466434 -34.97834832783231 1.624934991174971 -31.875 1.8125 C-25.481144339845997 2.0211007537076036 -19.78189236464229 1.8226651622617815 -13.50390625 0.45703125 C-9.097476018983386 -0.347262567517852 -4.434249243993705 -0.7273107225598139 0 0 Z " fill="#BDCDD9" transform="translate(80,28)"/>
<path d="M0 0 C10.30556887131936 1.4722241244741952 14.720555369743924 6.17561264325235 21 14 C27 22.18644067796609 27 22.18644067796609 27 25 C27.6174609375 24.699648437500002 28.234921875 24.399296875000005 28.87109375 24.08984375 C29.7180078125 23.709570312500006 30.564921875 23.329296874999997 31.4375 22.9375 C32.67306640625 22.363222656250002 32.67306640625 22.363222656250002 33.93359375 21.77734375 C42.08513380401822 19.710902385987737 48.52133756269239 22.911800254388126 55.6875 26.5625 C67.19615797399004 32.024415884363435 76.03285124463211 32.613225967782796 88.125 28.625 C92.72682093532242 26.96493858734182 92.72682093532242 26.96493858734182 97.1171875 24.8359375 C99 24 99 24 101.484375 24.1328125 C104.13652870755953 24.242109182924906 104.13652870755953 24.242109182924906 106.140625 22.2421875 C106.83671875 21.461015625 107.5328125 20.679843750000003 108.25 19.875 C114.30571514229227 13.486774708463727 119.20785342508545 9.465357762485752 128 8 C128 19.879999999999995 128 31.760000000000005 128 44 C85.75999999999999 44 43.519999999999996 44 0 44 C0 29.47999999999999 0 14.959999999999994 0 0 Z " fill="#6B7172" transform="translate(0,84)"/>
<path d="M0 0 C7.986481121838025 -0.45582769779812793 14.80734467309194 1.655468302716038 22.423828125 3.8671875 C28.5063440095672 5.560134267076357 33.68415791914628 6.3135061219038064 40 6 C41.75440754502654 9.258367364051239 42.26482833626309 10.646305214371438 41.1875 14.25 C39.50889688377325 19.316191305535042 37.07231866567122 23.90590379314142 34.5 28.5625 C33.91255004882812 29.6351611328125 33.91255004882812 29.6351611328125 33.313232421875 30.7294921875 C30.37191042142573 35.87602985952475 30.37191042142573 35.87602985952475 27 37 C26.67 37.99000000000001 26.340000000000003 38.97999999999999 26 40 C20.403015455266058 43.91788918131377 16.70175972084688 44.79921412976421 9.83984375 43.6328125 C2.972531733428575 41.91303967938349 -1.034879466605858 37.72422676523567 -5 32 C-8.03070476082257 25.73060093594546 -8.085781230556936 19.350180005064146 -5.94921875 12.7578125 C-4.147248660554368 8.409695882989595 -2.1239821675513006 4.198338583524297 0 0 Z " fill="#B9DDE6" transform="translate(30,50)"/>
<path d="M0 0 C-0.6599999999999966 2.3100000000000023 -1.3199999999999932 4.620000000000001 -2 7 C-26.48952095808383 10.238023952095809 -26.48952095808383 10.238023952095809 -37.5 9.6875 C-41.47648155623107 9.697964425147976 -42.63491409542954 9.749003440607805 -46 12.0625 C-48.531655684174396 15.990289333535273 -49.39655171975459 20.674319040147772 -50.475830078125 25.169189453125 C-51.74236243857742 30.388896385623745 -53.59457143746529 35.0167713582882 -55.94921875 39.828125 C-57.717255996423916 43.48250681788734 -58.232329622092045 46.67828826826053 -58.5625 50.6875 C-58.6462890625 51.6813671875 -58.730078125 52.675234375 -58.81640625 53.69921875 C-58.8769921875 54.45847656250001 -58.937578125 55.21773437499999 -59 56 C-64.26710079477245 51.349262064190285 -65.85668181841599 45.527038643569426 -68 39 C-68.2977734375 38.120859375 -68.595546875 37.24171875 -68.90234375 36.3359375 C-71.59048434678745 26.060559834173404 -68.24463021542779 13.061333120293824 -63 4 C-49.45784183960654 -13.411346206220163 -16.702817933293375 -8.62320038272099 0 0 Z " fill="#98A7AA" transform="translate(82,21)"/>
<path d="M0 0 C3.232235983578221 4.8483539753673455 3.451907836180851 10.52332238031535 2.70703125 16.25390625 C1.2099433441232463 21.388214437268566 -2.069261704210021 24.36179780963274 -6.0625 27.75 C-14.23152842971993 31.22618231051912 -23.082579204557504 28.541051705814112 -31.1875 26.0625 C-37.48283397598027 24.187386701003803 -43.447527611100575 22.60827887041487 -50 22 C-49.65272315171084 19.974218384979892 -49.27064746211299 17.954392522380573 -48.875 15.9375 C-48.666171875 14.8121484375 -48.45734375 13.686796874999999 -48.2421875 12.52734375 C-46.67726281789067 8.083548190425404 -44.860092023302585 4.801432108640199 -41 2 C-37.87773285927672 1.226357009832455 -34.999543752618735 1.4271784246473196 -31.8125 1.6875 C-30.110989442074654 1.761478719909796 -28.409134523219578 1.8279354443247264 -26.70703125 1.88671875 C-25.8931494140625 1.9181396484374993 -25.079267578125 1.9495605468749986 -24.24072265625 1.98193359375 C-20.53748156661888 2.0117919333264567 -17.10172763460976 1.2396559330371772 -13.50390625 0.45703125 C-9.0974760189834 -0.347262567517852 -4.434249243993705 -0.7273107225598139 0 0 Z " fill="#BAD1BE" transform="translate(80,28)"/>
<path d="M0 0 C10.235152302912994 1.4621646147018623 14.857997889166974 6.106432559248361 21 14 C27.045187165639355 22.637577964952357 34 33.13926076656692 34 44 C22.78 44 11.559999999999999 44 0 44 C0 29.47999999999999 0 14.959999999999994 0 0 Z " fill="#1F4859" transform="translate(0,84)"/>
<path d="M0 0 C17.49000000000001 0 34.980000000000004 0 53 0 C53 11.22 53 22.44 53 34 C47.40311418685121 32.88062283737025 47.40311418685121 32.88062283737025 44.3125 29.9375 C32.17790252124408 18.854110589083575 24.344331941423235 14.951219403119346 8 13 C7.670000000000002 12.01 7.340000000000003 11.02 7 10 C6.401875000000004 9.731875 5.803749999999994 9.46375 5.1875 9.1875 C2.0642395378003187 7.492015749091599 0.817326527072737 4.985607865905208 -1 2 C-0.6700000000000017 1.3399999999999999 -0.3400000000000034 0.6799999999999999 0 0 Z " fill="#4D575D" transform="translate(75,0)"/>
<path d="M0 0 C2.740352688367917 2.7403526883679206 2.9219000723262702 5.240531369138985 3.8125 9 C5.408570668744332 15.39196347704059 7.360669625563368 21.429596365658227 11 27 C11.66 27.33 12.32 27.659999999999997 13 28 C13.859375 29.6015625 13.859375 29.6015625 14.75 31.625 C16.179738270556566 34.6279818693846 17.66007537296339 36.894565884405864 19.9375 39.3125 C23.761735935068806 43.51624026450311 28 50.166808615445646 28 56 C26.565709989306484 56.67354499453951 25.12742943388293 57.33859700644612 23.6875 58 C22.8869921875 58.37125 22.086484374999998 58.74250000000001 21.26171875 59.125 C19 60 19 60 16 60 C14.316154124393428 57.676113240947956 12.806765625557112 55.378448557773936 11.3125 52.9375 C4.9151222627177 42.97125525819408 0.6191952763826656 38.87306509212755 -11 35 C-11 24.11 -11 13.219999999999999 -11 2 C-5.555 1.009999999999998 -5.555 1.009999999999998 0 0 Z " fill="#658899" transform="translate(11,49)"/>
<path d="M0 0 C0.6780468750000068 0.47050781250000284 1.3560937499999994 0.9410156249999986 2.0546875 1.42578125 C2.985390625000008 2.0483984374999977 3.9160937500000017 2.6710156250000026 4.875 3.3125 C5.779921874999999 3.9273828124999994 6.684843749999999 4.542265624999999 7.6171875 5.17578125 C11.918012705090575 7.641844741449084 11.918012705090575 7.641844741449084 21 10 C21 21.22 21 32.44 21 44 C17.700000000000003 45.31999999999999 14.400000000000006 46.64 11 48 C8.425563476894482 50.02713629218732 6.218233595030512 51.89570830269055 3.9375 54.1875 C3.3709570312500006 54.73341796874999 2.804414062500001 55.27933593750001 2.220703125 55.841796875 C0.4612837872709008 57.54221771996693 -1.2698439516371565 59.26984395163714 -3 61 C-4.666171151071751 61.04063832075785 -6.333880948484193 61.04272100132093 -8 61 C-8.630146253068617 39.544876857242556 -8.630146253068617 39.544876857242556 -0.12890625 30.375 C3.4039875916511164 26.433716595002053 4.43680560377058 22.676113637578027 4.3359375 17.390625 C3.760258029403886 13.293929232502087 2.3015673378532426 9.505291982164508 0.875 5.63671875 C0 3 0 3 0 0 Z " fill="#6B94A8" transform="translate(107,48)"/>
<path d="M0 0 C15.697439872521812 0.9629216588468239 24.36324510731434 8.18940274385318 35.5859375 18.671875 C37.561721277165816 20.342450891904512 37.561721277165816 20.342450891904512 41.375 21.01953125 C41.375 28.93953125 41.375 36.85953125 41.375 45.01953125 C32.314759036144565 43.88700112951807 32.314759036144565 43.88700112951807 27.625 40.76953125 C26.72265625 40.186875 25.8203125 39.60421875 24.890625 39.00390625 C19.684407949626575 34.89713876305947 16.598601355351093 29.30863162502267 13.15625 23.73828125 C8.144907943889393 16.089390743304865 2.6247238785190774 11.842574022972258 -5.625 8.01953125 C-3.4448454656364333 0.02563129066693648 -3.4448454656364333 0.02563129066693648 0 0 Z " fill="#647E90" transform="translate(86.625,12.98046875)"/>
<path d="M0 0 C8.323826239283633 0.9275464839722716 13.284078336515108 5.638883463006653 18.43359375 12.01171875 C22.958188638293848 18.351237524584917 26.051552432817033 25.017162734951725 28.5625 32.375 C28.814189453124996 33.1115380859375 29.065878906249992 33.848076171875 29.3251953125 34.60693359375 C31.057155529849865 40.13550012927613 31.96380593814007 45.46181767445948 30.40625 51.1796875 C27.296316075198803 56.99740872139533 23.24679674315881 61.96981356635558 19 67 C18.504999999999995 66.01 18.504999999999995 66.01 18 65 C18.680624999999992 63.48406249999999 18.680624999999992 63.48406249999999 19.375 61.9375 C21.65290900514097 56.785593651924145 22.76894610694947 52.12571599318419 21.3984375 46.5546875 C18.445633902485696 39.36427263277052 13.21358556154243 35.56323929589305 7.05859375 31.2265625 C1.926444597801762 27.49051522445339 1.926444597801762 27.49051522445339 0 25 C-0.1015625 22.51953125 -0.1015625 22.51953125 0.375 19.8125 C1.0244314688959264 15.043635586244655 0.6554806910264546 11.559018299344878 -0.5859375 6.94921875 C-1.1224136305199295 4.423732060099567 -0.7871324555134862 2.4401106120917895 0 0 Z " fill="#97B3C1" transform="translate(81,22)"/>
<path d="M0 0 C0 11.879999999999995 0 23.760000000000005 0 36 C-10.89 36 -21.78 36 -33 36 C-29.572420225921505 20.57589101664678 -21.1945162759165 10.569263603264119 -7.91015625 2.05859375 C-5.156794713948315 0.5327021829856733 -3.157525889105443 0 0 0 Z " fill="#27545F" transform="translate(128,92)"/>
<path d="M0 0 C13.86 0 27.72 0 42 0 C42.66 1.98 43.31999999999999 3.96 44 6 C45.62626403766622 7.382324432016282 47.29250020335124 8.71937515251343 49 10 C50.5 11.875000000000007 50.5 11.875000000000007 51 14 C49.625 17.25 49.625 17.25 48 20 C47.3709375 19.806640625 46.74187499999999 19.61328125 46.09375 19.4140625 C45.23781249999999 19.153671875 44.38187500000001 18.89328125 43.5 18.625 C42.24703124999999 18.2421484375 42.24703124999999 18.2421484375 40.96875 17.8515625 C39.9890625 17.570546875 39.009375000000006 17.28953125 38 17 C36.7534765625 16.6403515625 35.506953124999995 16.280703125 34.22265625 15.91015625 C29.76887014976002 14.81432505367177 25.504369315968688 14.738903293466153 20.9375 14.8125 C20.17373046875 14.81314453125 19.409960937500003 14.8137890625 18.623046875 14.814453125 C13.98905768951694 14.850129688446833 9.571267489572357 15.241157455250272 5 16 C4.346346005234551 14.461632923947366 3.702463965285638 12.919112343287054 3.0625 11.375 C2.702851562500001 10.516484375 2.3432031250000023 9.65796875 1.97265625 8.7734375 C1 6 1 6 0 0 Z " fill="#6B7064" transform="translate(33,0)"/>
<path d="M0 0 C0.7802050781250003 0.0008862304687493605 1.5604101562500006 0.0017724609375004974 2.3642578125 0.002685546875 C11.862732829360553 0.19448542165170402 19.92472145044883 3.0446232044476993 28.3125 7.375 C27.652500000000003 9.685000000000002 26.992500000000007 11.995000000000001 26.3125 14.375 C-2.783764921062769 18.22213130535233 -2.783764921062769 18.22213130535233 -14.6875 16.375 C-16.565748914248942 14.496751085751058 -16.07852397384505 11.33564724199428 -16.25 8.8125 C-16.333789062500003 7.614960937500001 -16.417578125 6.417421875000002 -16.50390625 5.18359375 C-16.5644921875 4.256757812499998 -16.625078125 3.329921875 -16.6875 2.375 C-11.016382801342516 0.7729894919046654 -5.887425802488394 -0.012174694193216595 0 0 Z " fill="#A3A58D" transform="translate(53.6875,13.625)"/>
</svg>
