<?xml version="1.0" encoding="UTF-8"?>
<!-- Generator: visioncortex VTracer 0.6.0 -->
<svg version="1.1" xmlns="http://www.w3.org/2000/svg" width="128" height="128">
<path d="M0 0 C42.24 0 84.48 0 128 0 C128 42.24 128 84.48 128 128 C85.75999999999999 128 43.519999999999996 128 0 128 C0 85.75999999999999 0 43.519999999999996 0 0 Z " fill="#D798C0" transform="translate(0,0)"/>
<path d="M0 0 C12.21 0 24.42 0 37 0 C35.61367594841152 6.931620257942394 34.50608225009661 11.851721026614488 31.4375 17.875 C27.817002889167853 25.160236548884242 26.333217830681985 29.057313647058237 29 37 C31.124565280564514 42.519803575820724 33.739752066460994 46.957526089287825 39 50 C40.700159613726086 50.62679935126294 42.40927416079418 51.22965783991685 44.125 51.8125 C47.73297589754652 53.17841546045879 49.742414313451725 54.243126280182615 51.6875 57.625 C53.63617934983709 62.4287211879705 52.93951382125722 67.01649190463559 52 72 C51.012578125 72.265546875 50.02515625 72.53109375 49.0078125 72.8046875 C47.713445017863066 73.16110753131306 46.419179406243956 73.51789765894247 45.125 73.875 C44.148535156250006 74.13603515624999 44.148535156250006 74.13603515624999 43.15234375 74.40234375 C39.193156299152534 75.49529578930876 39.193156299152534 75.49529578930876 36 78 C35.43907453152629 83.51576710665819 35.83627099697921 86.50073675588328 38.921875 91.28125 C40.64147144235779 94.02263563274431 41.753980241261104 97.02038753345047 43 100 C43.5775 100.99 44.155 101.98 44.75 103 C46.35946338330756 106.86271211993815 46.20345473980734 109.01355617438819 45 113 C39.65504073488375 117.20731655914656 33.48071745121705 116.75905803609587 27.00634765625 116.27197265625 C22.63942879489486 115.68001018222351 18.65633724665081 114.06288594917254 14.609375 112.38671875 C9.863037297175811 110.56317991395824 4.905424683702537 109.33784309555524 0 108 C0 72.36 0 36.72 0 0 Z " fill="#60607C" transform="translate(0,0)"/>
<path d="M0 0 C0.3299999999999983 0 0.6599999999999966 0 1 0 C1.0141796874999969 0.6084375000000009 1.0283593750000009 1.216875 1.04296875 1.84375 C1.3758640525230774 7.961825830153899 2.5287693219597998 13.541482897240478 4.3125 19.375 C4.51319091796875 20.05240234375 4.713881835937499 20.7298046875 4.920654296875 21.427734375 C6.7338411032758 27.09842166723839 8.941973123993463 30.806344411916207 14.125 33.8125 C17.18918260729904 35.00924084662752 19.72917501658761 35.06674232457252 23 34.9375 C28.297918351377206 34.78475273342008 30.741996673668055 35.827370070576194 35 39 C39.18567051718851 43.06321739035587 41.4246332732276 47.123166366137994 42.5625 52.8125 C41.67958509521327 57.81568446045813 38.74505275642258 60.69915970556184 35 64 C32.72503124993774 65.44666636958657 30.424065126588445 66.69355222726274 28.01953125 67.91015625 C24.802928067527972 69.64600206800715 22.626971129576837 71.74605774084633 21 75 C20.35508224802436 79.60655537125459 20.85799412775735 82.33218818580373 23.5 86.0625 C26.393221039408502 89.62711443850569 29.660287955368126 92.22543649442282 33.4609375 94.7734375 C33.968828125 95.178203125 34.47671875 95.58296875 35 96 C35 96.66 35 97.32 35 98 C36.485 98.495 36.485 98.495 38 99 C39.351562499999986 100.96874999999999 39.351562499999986 100.96874999999999 40.625 103.5 C41.050390625000006 104.3146875 41.47578125 105.129375 41.9140625 105.96875 C43 108.99999999999999 43 108.99999999999999 44 118 C18.259999999999998 118 -7.480000000000004 118 -34 118 C-34 111.4 -34 104.8 -34 98 C-27.464126614637507 98.72620815392916 -23.82224149073249 99.15005866569308 -18.125 101.5 C-16.4891796875 102.16515625 -16.4891796875 102.16515625 -14.8203125 102.84375 C-13.424257812499999 103.41609375 -13.424257812499999 103.41609375 -12 104 C-8.401179942393384 105.19960668586887 -5.418620177248542 105.168867287931 -1.625 105.1875 C0.33566406250000114 105.20876953125 0.33566406250000114 105.20876953125 2.3359375 105.23046875 C5.737989634721444 105.01648039611027 7.966837468731818 104.48144810890126 11 103 C11.515713510779136 96.81143787065032 9.989797712424732 93.33633591702475 7 88 C-0.15630240596871658 75.06629248091994 -0.15630240596871658 75.06629248091994 1 68 C3.2941625073662664 64.90100015398393 5.845446114968048 64.24087457563311 9.5 63.3125 C10.459062500000002 63.061132812500006 11.418125000000003 62.809765625 12.40625 62.55078125 C15 62 15 62 18 62 C18.43044026351584 56.165143094563064 18.5028836863468 50.87972360909318 15.59375 45.6640625 C12.894979244278922 42.84622832858535 9.418056988397744 42.2214104624383 5.76171875 41.11328125 C0.09940893939165107 38.830737691268205 -3.3228138001218 33.833550822599626 -5.875 28.4375 C-8.346936503729612 20.884360683048406 -8.006214967471408 16.64996364485048 -4.625 9.6875 C-4.295000000000002 8.972714843749998 -3.965 8.257929687499999 -3.625 7.521484375 C-2.4537707348875415 4.995723703690411 -1.245088899433128 2.4901777988662612 0 0 Z " fill="#8087A4" transform="translate(34,10)"/>
<path d="M0 0 C2.030656931522884 2.450792848389682 3.866915877811195 4.75197959046632 5.375 7.5625 C8.807482901634586 12.711224352451893 14.451980017049209 14.78079200681968 20 17 C20 17.659999999999997 20 18.319999999999993 20 19 C21.216875 19.371250000000003 22.433750000000003 19.742500000000007 23.6875 20.125 C28.816800993909183 21.82670205930006 33.62668270877231 24.07025033945034 38.49609375 26.40234375 C42.92966771593609 28.423895313063383 47.47580747978634 30.19032299191454 52 32 C52 42.230000000000004 52 52.46000000000001 52 63 C35.5 63 19 63 2 63 C1.0100000000000051 59.03999999999999 0.01999999999999602 55.08 -1 51 C-3.1163150037808265 46.16258539267274 -3.1163150037808265 46.16258539267274 -7 43 C-7 42.34 -7 41.68000000000001 -7 41 C-7.576210937500008 40.73832031250001 -8.152421875000002 40.476640625 -8.74609375 40.20703125 C-14.054503352678125 37.36422610749126 -19.73560824927975 32.66097937680061 -22 27 C-22.525623559480337 22.87010060408305 -22.277125737193032 20.588892191535194 -20.5 16.8125 C-17.815092044758863 13.791978550353718 -15.768760665923999 12.739400821142155 -12.1640625 11.1328125 C-7.21844759487135 8.543952712116777 -3.0772611836412977 4.615891775461932 0 0 Z " fill="#C8C9E3" transform="translate(76,65)"/>
<path d="M0 0 C22.769999999999996 0 45.53999999999999 0 69 0 C69 25.41 69 50.82 69 77 C62.704262474580474 77 58.13918196735011 76.86314599114802 52.1875 75.625 C50.9229296875 75.369765625 49.658359375 75.11453125 48.35546875 74.8515625 C45.594912427564 74.15097893970774 43.44483727760644 73.41640446813471 41 72 C40.34967985213298 65.7135719039521 41.31205586483715 61.77723029264951 43.9375 56 C49.09735488035116 44.61637156361779 48.068610273814485 37.87466486892368 44 26 C43.504999999999995 25.009999999999998 43.504999999999995 25.009999999999998 43 24 C41.1506907998579 23.842095109347472 39.29333722483517 23.77732521067242 37.4375 23.75 C25.077761515726195 22.948654318052576 12.519254265893963 18.260808787014284 4 9 C0 2.9581151832460737 0 2.9581151832460737 0 0 Z " fill="#7C5986" transform="translate(59,0)"/>
<path d="M0 0 C0.3299999999999983 0 0.6599999999999966 0 1 0 C1.014179687500004 0.6084375000000009 1.0283593750000009 1.216875 1.04296875 1.84375 C1.3758640525230774 7.961825830153899 2.5287693219597998 13.541482897240478 4.3125 19.375 C4.51319091796875 20.05240234375 4.713881835937499 20.7298046875 4.920654296875 21.427734375 C6.733841103275807 27.09842166723839 8.941973123993463 30.806344411916207 14.125 33.8125 C17.18918260729904 35.00924084662752 19.729175016587604 35.06674232457252 23 34.9375 C28.297918351377213 34.78475273342008 30.74199667366804 35.827370070576194 35 39 C39.18567051718853 43.06321739035588 41.4246332732276 47.12316636613799 42.5625 52.8125 C41.67875649457818 57.82037986405692 38.74130336003809 60.69038548919707 35 64 C32.10487323221497 65.89836166953377 29.08755468519768 67.44211134713974 26 69 C22.81109964572635 70.96240021801455 20.237823487163396 72.75591800001652 17.625 75.4375 C14.46999572369387 78.51738512687028 11.061534014460364 81.21564405222453 7 83 C4 82 4 82 2.3125 79.4375 C0.676237305622692 75.15205008615467 0.5513498151536709 72.56127687927102 1 68 C3.2539629255695743 64.88027648050304 5.86095662605117 64.23693440547893 9.5 63.3125 C10.938593750000003 62.935449218749994 10.938593750000003 62.935449218749994 12.40625 62.55078125 C15 62 15 62 18 62 C18.43044026351584 56.165143094563064 18.5028836863468 50.87972360909319 15.59375 45.6640625 C12.894979244278922 42.84622832858534 9.418056988397751 42.22141046243831 5.76171875 41.11328125 C0.09940893939164397 38.830737691268205 -3.3228138001218 33.833550822599626 -5.875 28.4375 C-8.346936503729612 20.88436068304841 -8.006214967471408 16.649963644850473 -4.625 9.6875 C-4.295000000000002 8.972714843749998 -3.965 8.257929687499999 -3.625 7.521484375 C-2.4537707348875415 4.995723703690414 -1.245088899433128 2.490177798866256 0 0 Z " fill="#8B7EB4" transform="translate(34,10)"/>
<path d="M0 0 C9.652445369406868 1.6087408949011461 9.652445369406868 1.6087408949011461 13.16796875 5.23828125 C16.45311796247042 8.441868137195286 19.949197750075186 10.891570049092437 23.75 13.4375 C24.458662109375 13.920495605468744 25.16732421875 14.403491210937503 25.8974609375 14.901123046875 C29.63905049006628 17.444462123739555 33.42200616653333 19.900863884915992 37.25 22.3125 C41.458375917254486 25.131469364420468 44.12801464588313 28.03983919260324 45.59375 33.015625 C46 35.125 46 35.125 46 39 C44.15579697422862 41.48013510362358 42.73717673055171 42.631411634724145 40 44 C30.650033405330127 44.85667233197236 23.346928828511373 44.00563097001776 14.609375 40.38671875 C9.863037297175811 38.56317991395824 4.905424683702537 37.33784309555523 0 36 C0 24.120000000000005 0 12.239999999999995 0 0 Z " fill="#4F5B8A" transform="translate(0,72)"/>
<path d="M0 0 C19.966920383350363 -1.6465996256251885 19.966920383350363 -1.6465996256251885 24.4453125 1.98046875 C25.750000000000014 4.562500000000023 25.750000000000014 4.562500000000023 26.8359375 7.33203125 C29.547760033303476 13.547382895121736 36.20523499112713 16.3322784939485 42.203125 18.76171875 C46.10402249677338 20.27035314101733 50.038852078454426 21.65832086528295 54 23 C53.34 23.99 52.68000000000001 24.98 52 26 C51.34 26 50.68000000000001 26 50 26 C50 26.66 50 27.32 50 28 C49.34 28 48.68000000000001 28 48 28 C48 28.66 48 29.32 48 30 C43.631694250892 31.84241466969181 40.26202663115893 33.20282570857911 35.5 32.4375 C32.00016350974238 31.00006715578705 28.53658968168463 29.513670098839125 25.11328125 27.90234375 C21.517154096476645 26.366843985741415 18.35442054123496 25.875983644991656 14.453125 25.90234375 C13.608789062500001 25.90556640625 12.764453125000003 25.9087890625 11.89453125 25.912109375 C11.0218359375 25.92048828125 10.149140625000001 25.9288671875 9.25 25.9375 C8.361835937500004 25.94201171875 7.473671875000001 25.9465234375 6.55859375 25.951171875 C4.372326710519687 25.962925998868172 2.1861982125805 25.979357512519215 0 26 C-1.9375747135798207 21.92494207064561 -2.2696646782202876 18.61837897333561 -2.25 14.125 C-2.255156249999999 12.951953125 -2.2603124999999977 11.77890625 -2.265625 10.5703125 C-1.9797654354624186 6.7280236472448465 -1.1770395911440446 3.652559366169223 0 0 Z " fill="#DFA1B0" transform="translate(37,0)"/>
<path d="M0 0 C0 10.230000000000004 0 20.460000000000008 0 31 C-13.530000000000001 31 -27.060000000000002 31 -41 31 C-42 29 -42 29 -41 25.5 C-38.89514747211973 20.174233603875024 -35.70356651255413 15.355037248497382 -32 11 C-31.340000000000003 11 -30.680000000000007 11 -30 11 C-30 10.340000000000003 -30 9.680000000000007 -30 9 C-23.73927800103442 5.3402397138399635 -18.141807525569817 2.3782435575661083 -11 1 C-10.11634765625 0.7312304687499989 -10.11634765625 0.7312304687499989 -9.21484375 0.45703125 C-7 0 -7 0 0 0 Z " fill="#D3D8DF" transform="translate(128,97)"/>
<path d="M0 0 C12.21 0 24.42 0 37 0 C35.63235123039159 6.838243848042036 34.54524930614661 11.828002984482918 31.5625 17.8125 C31.26279296875 18.44091796875 30.9630859375 19.0693359375 30.654296875 19.716796875 C25.93990573098581 29.483051847957803 25.93990573098581 29.483051847957803 22.5 31.375 C17.53188652056391 32.26216312132787 12.973887633116597 31.646213747609636 8 31 C5.359999999999999 30.67 2.7199999999999998 30.34 0 30 C0 20.1 0 10.2 0 0 Z " fill="#644B6D" transform="translate(0,0)"/>
<path d="M0 0 C14.189999999999998 0 28.379999999999995 0 43 0 C47.08403361344537 16.33613445378152 47.08403361344537 16.33613445378152 43 24 C29.342002149472506 23.95322603475847 16.342432333337428 20.195660574077657 5.9296875 11.09765625 C3.3049658880668957 8.244466967392556 0 4.083906726157176 0 0 Z " fill="#BA6C6F" transform="translate(59,0)"/>
<path d="M0 0 C4.778468299809106 4.778468299809106 4.744484049585935 9.480239113420687 4.9375 15.9375 C4.758526214747292 18.664719584803265 4.395896140866313 21.238056059342853 3.9375 23.9375 C3.256875000000008 23.195 2.5762500000000017 22.4525 1.875 21.6875 C-1.8632150937486927 18.032587749566034 -5.348469961531748 15.045580842239886 -10.7109375 14.83203125 C-12.610678862741125 14.902295656567134 -14.510418449732036 14.972608090730816 -16.41015625 15.04296875 C-21.586606045867775 14.837130540149587 -24.64842196354391 12.31229809099898 -28.3125 8.75 C-30.832868465494244 4.699407823312818 -33.0625 -0.20808757046852122 -33.0625 -5.0625 C-21.173727613190202 -7.248328106991934 -10.2668862943341 -6.914433626796434 0 0 Z " fill="#C8AFD3" transform="translate(70.0625,31.0625)"/>
<path d="M0 0 C8.579999999999998 0 17.159999999999997 0 26 0 C26 11.88 26 23.76 26 36 C19.252723311546845 33.75090777051562 19.252723311546845 33.75090777051562 17.18359375 31.13671875 C16.729199218749997 30.57919921875 16.274804687499994 30.0216796875 15.806640625 29.447265625 C15.354824218749997 28.86654296875 14.903007812499993 28.2858203125 14.4375 27.6875 C13.521754347897243 26.543789376510986 12.603805622075228 25.40183900686703 11.68359375 24.26171875 C11.239592285156249 23.70669677734375 10.795590820312498 23.1516748046875 10.338134765625 22.579833984375 C8.84380673970358 20.762910116592828 8.84380673970358 20.762910116592828 6.3046875 18.390625 C3.9792098913806484 15.978434666991449 2.878209700828492 14.164225270059418 1.6875 11.0625 C1.3613671874999937 10.2491015625 1.0352343750000017 9.435703125 0.69921875 8.59765625 C0 6 0 6 0 0 Z " fill="#462242" transform="translate(102,0)"/>
<path d="M0 0 C1.9007226562499966 0.41572265624999716 1.9007226562499966 0.41572265624999716 3.83984375 0.83984375 C5.5390121525476275 1.2059629085599823 7.238233778440403 1.5718351168795834 8.9375 1.9375 C9.768300781250005 2.119902343749999 10.599101562499996 2.3023046874999977 11.455078125 2.490234375 C12.283300781250006 2.66748046875 13.111523437499997 2.8447265625 13.96484375 3.02734375 C14.713708496093744 3.189685058593753 15.462573242187503 3.3520263671875057 16.234130859375 3.519287109375 C20.128639541787607 4.196159524916567 24.071285064427883 4.563476118269762 28 5 C28 11.599999999999994 28 18.200000000000003 28 25 C21.31319554848966 23.885532591414943 21.31319554848966 23.885532591414943 17.625 21.875 C14.411048705187824 20.17697060228147 11.191552964157466 18.635724399275944 7.83203125 17.25390625 C7.1074169921874955 16.953071289062507 6.382802734375005 16.652236328125 5.63623046875 16.34228515625 C4.185684414174645 15.745380461795605 2.730282318001315 15.160125369596813 1.27001953125 14.58740234375 C-3.7719681431050276 12.491541122299168 -3.7719681431050276 12.491541122299168 -4.855224609375 10.156494140625 C-5.0478757323204775 7.286869572366413 -4.169188985095957 6.101252173311153 -2.5625 3.75 C-1.8528710937499966 2.6903906250000063 -1.8528710937499966 2.6903906250000063 -1.12890625 1.609375 C-0.756367187500004 1.0782812500000034 -0.38382812499999375 0.5471875000000068 0 0 Z " fill="#9D94B3" transform="translate(100,72)"/>
<path d="M0 0 C13.41270720809938 1.4903008008999308 23.96286142533107 6.840602386646694 33 17 C33.495 18.485 33.495 18.485 34 20 C22.78 20 11.559999999999999 20 0 20 C0 13.400000000000006 0 6.799999999999997 0 0 Z " fill="#839BB7" transform="translate(0,108)"/>
<path d="M0 0 C0.3299999999999983 0 0.6599999999999966 0 1 0 C1.014179687500004 0.6084375000000009 1.0283593750000009 1.216875 1.04296875 1.84375 C1.3758640525230774 7.961825830153899 2.5287693219597998 13.541482897240478 4.3125 19.375 C4.51319091796875 20.05240234375 4.713881835937499 20.7298046875 4.920654296875 21.427734375 C6.755614681868877 27.166517880490353 8.951601205434592 30.857623749184675 14.25 33.8125 C15.611249999999998 34.4003125 15.611249999999998 34.4003125 17 35 C16.33333333333333 37.666666666666664 15.666666666666671 40.333333333333336 15 43 C7.559214333642913 42.48684236783744 3.590275411216105 40.710753337319176 -1.6875 35.1875 C-5.585273837976498 29.81489281792429 -7.631464394158765 24.633640905142194 -8 18 C-7.188722681543769 15.070035344238583 -5.950667473843978 12.417261840224526 -4.625 9.6875 C-4.295000000000002 8.972714843749998 -3.965 8.257929687499999 -3.625 7.521484375 C-2.4537707348875415 4.995723703690414 -1.245088899433128 2.490177798866256 0 0 Z " fill="#8C7C95" transform="translate(34,10)"/>
<path d="M0 0 C3 3.3214285714285694 3 3.3214285714285694 3 6 C3.6599999999999966 6.329999999999998 4.32 6.659999999999997 5 7 C-0.42274835287253154 12.761670124927065 -6.153431823863876 18.038357955965978 -14 20 C-17.553637385288937 14.669543922066595 -18.749589360852347 11.42505166444866 -18 5 C-15.748786168227745 1.919391598627442 -13.168171919488508 1.2089032513158031 -9.5625 0.25 C-8.615039062500003 -0.012968749999998863 -7.667578124999999 -0.2759374999999977 -6.69140625 -0.546875 C-3.9892025537826896 -1.0018178574183025 -2.5248336324602008 -1.0020958319520474 0 0 Z " fill="#8B7C95" transform="translate(53,73)"/>
<path d="M0 0 C2.030656931522884 2.450792848389682 3.866915877811195 4.75197959046632 5.375 7.5625 C8.807482901634586 12.711224352451893 14.451980017049209 14.78079200681968 20 17 C20 17.33 20 17.659999999999997 20 18 C15.891165160555644 18.144169643489278 12.749884823545074 18.23525798385728 8.8125 17 C0.19731328586935604 14.740278894654253 -7.962924430853121 15.268500628610383 -16 19 C-16.969375 19.350625000000008 -17.93875 19.70125 -18.9375 20.0625 C-21.170407853597574 20.816483849971846 -21.170407853597574 20.816483849971846 -22 23 C-21.71695017809541 19.697752077779754 -21.092265608798655 18.115332010998316 -19 15.5 C-16.490602031517923 13.408835026264939 -14.483947765247194 12.146246385339438 -11.625 10.6875 C-6.601729589178575 8.062273252636032 -3.4288876461429965 4.443220969117775 0 0 Z " fill="#C8AFD3" transform="translate(76,65)"/>
</svg>
