<?xml version="1.0" encoding="UTF-8"?>
<!-- Generator: visioncortex VTracer 0.6.0 -->
<svg version="1.1" xmlns="http://www.w3.org/2000/svg" width="128" height="128">
<path d="M0 0 C42.24 0 84.48 0 128 0 C128 42.24 128 84.48 128 128 C85.75999999999999 128 43.519999999999996 128 0 128 C0 85.75999999999999 0 43.519999999999996 0 0 Z " fill="#8E8897" transform="translate(0,0)"/>
<path d="M0 0 C3.5 1.6875000000000036 3.5 1.6875000000000036 6 4 C6.763125000000002 4.701250000000002 7.5262500000000045 5.4025 8.3125 6.125 C10.73560176712553 10.253247455102755 10.816845029403794 14.283759507147842 11 19 C11.556875000000005 18.216250000000002 12.113749999999996 17.432500000000005 12.6875 16.625 C15.076685653288536 13.912951420591384 16.600734132223494 13.038664570709486 20 12 C21.545624944347352 13.545624944347352 21.127285222527775 15.01413503072662 21.140625 17.1640625 C21.33210553538379 27.475289330417105 22.203118665703272 36.05087739629623 25.8515625 45.69921875 C28.361181152315552 52.91223834594098 28.665838605026167 60.567796992960155 27 68 C26.401875000000004 68.7425 25.803749999999994 69.485 25.1875 70.25 C22.85678611609721 73.18004031119207 22.188306927786414 75.25776261380192 21.125 78.8125 C18.95023280755781 85.71058968852756 16.184187443231878 90.89979126084707 10.0625 94.9375 C3.674550518653348 97.15372737107946 -0.4961774912619745 97.23316100018798 -6.75 94.625 C-14.342853626645109 91.71521214520288 -21.062954672654065 90.90379832032784 -29.125 91.0625 C-35.60918152007873 90.9579164270955 -41.675161362204605 90.31774923957958 -46.59765625 85.66796875 C-57.174148464160794 73.08812982117922 -61.10326667090696 57.107693395241625 -60 41 C-59.663031097512075 37.881831730556506 -59.23048943617235 34.78660903755492 -58.75 31.6875 C-58.64083251953125 30.946933593750003 -58.5316650390625 30.2063671875 -58.419189453125 29.443359375 C-56.957820313155196 20.880215352199897 -53.52621986710798 14.693085415987817 -47 9 C-44.11788697919091 8.0392956597303 -42.301499561081464 7.894181165781429 -39.3125 7.9375 C-38.10013671875 7.951035156250001 -38.10013671875 7.951035156250001 -36.86328125 7.96484375 C-35.94095703125 7.98224609375 -35.94095703125 7.98224609375 -35 8 C-34.34 9.32 -33.68 10.64 -33 12 C-32.34 12 -31.68 12 -31 12 C-31 12.659999999999997 -31 13.32 -31 14 C-27.71520368631142 12.581565228179933 -25.418691812420164 11.534193002053307 -23.1875 8.6875 C-16.889255358412697 0.9496565831927377 -9.863668903762061 -1.6462899596863956 0 0 Z " fill="#655971" transform="translate(85,20)"/>
<path d="M0 0 C15.180000000000007 0 30.36 0 46 0 C46 42.24 46 84.48 46 128 C29.83 128 13.659999999999997 128 -3 128 C-1.7674418604651123 120.6046511627907 -1.7674418604651123 120.6046511627907 0 118 C2.7781524526376984 116.36934529953875 5.279557918029212 115.66135758064668 8.4375 115.125 C12.578646434728796 114.22888306658328 15.057315989042792 113.19491406903926 18 110 C21.03286044840857 105.11121002346081 22.97890320952156 99.67059564128954 24.97265625 94.296875 C26 92 26 92 27.56640625 90.078125 C31.014061475767093 85.080434046027 30.407026740952375 77.56739944293035 29.4921875 71.796875 C28.597483069636198 68.1238778648223 27.588220607838153 64.54011991840702 26.23828125 61.005615234375 C24.060880940593137 55.104365532175706 23.564122236490846 49.823578377356334 23.5 43.5625 C23.400583900775743 33.897834925413484 22.32062280978562 24.72520565640465 16 17 C12.647618672319453 13.747939310554276 9.01616004811629 10.97660928348092 5.1875 8.3125 C2 6 2 6 0 3 C0 2.01 0 1.02 0 0 Z " fill="#D5A5A5" transform="translate(82,0)"/>
<path d="M0 0 C7.260000000000001 0 14.520000000000001 0 22 0 C22.30990825367883 15.288807181488957 21.686830805970928 26.93607656553431 15.0859375 40.91796875 C12.188994460699233 49.13986823923851 13.248930714450125 55.53953996034406 15.6875 63.75 C17.866151434844554 71.48734284001259 19.66181916103262 79.1373583990976 21 87.0625 C22.31895142359169 94.66574222790041 24.41339302989656 101.14724062967748 27.671875 108.125 C30.850133510720234 115.00499489379439 31 120.17262775576998 31 128 C20.77 128 10.54 128 0 128 C0 85.75999999999999 0 43.519999999999996 0 0 Z " fill="#CCC6BD" transform="translate(0,0)"/>
<path d="M0 0 C0.07476562499999773 0.7760156249999994 0.14953124999999545 1.5520312499999989 0.2265625 2.3515625 C1.200647452401185 10.354338873648956 3.301511690315749 16.769270902611694 6.66015625 24.00390625 C8.856017562826125 28.91418504573656 9.763284918421945 33.603253112002534 9 39 C6.476623322317408 43.36738271137371 3.6639639153063683 45.224223804675475 -1 47 C-4.842818633545903 47.26722576570563 -8.653869153722326 47.08841053103416 -12.5 46.9375 C-21.214467802566276 46.731450083583894 -27.960367662705472 47.40429928702338 -36.21484375 50.22265625 C-40.60949231842518 51.44921314357168 -42.866313645834765 50.878948342802374 -47 49 C-52.726084991435336 44.31502137064382 -56.492645840331875 38.64589395294864 -57.87890625 31.37109375 C-58.148957823833996 26.083309707508462 -56.07112180391893 21.705860650685707 -53.3125 17.3125 C-50.692120715602506 14.692120715602499 -47.890910561228814 12.578099276003712 -44.88671875 10.41796875 C-42.856101283802886 8.9678117074019 -42.856101283802886 8.9678117074019 -40.8125 6.75 C-37.03222031987288 3.1000747916013935 -32.860106478411026 2.74471056328764 -27.78125 2.65625 C-26.012011718750003 2.611777343749999 -26.012011718750003 2.611777343749999 -24.20703125 2.56640625 C-21.735677083333343 2.5221354166666643 -19.264322916666657 2.4778645833333357 -16.79296875 2.43359375 C-15.023730468750003 2.389121093749999 -15.023730468750003 2.389121093749999 -13.21875 2.34375 C-12.145605468750006 2.3250585937500006 -11.072460937499997 2.306367187500001 -9.966796875 2.287109375 C-6.424993601910714 1.944354219539747 -3.4678768579812242 0 0 0 Z " fill="#431B31" transform="translate(88,50)"/>
<path d="M0 0 C17.82 0 35.64 0 54 0 C55.31999999999999 2.31 56.64 4.62 58 7 C60.3057478962382 9.014481081045847 60.3057478962382 9.014481081045847 62.875 10.5 C68.68083967031357 14.310617482727935 73.19458301325432 18.557471610084022 76 25 C76.38749212914607 27.324952774876387 76.72982838652085 29.658512683180703 77 32 C75.79343750000001 32.4021875 75.79343750000001 32.4021875 74.5625 32.8125 C73.2940625 33.4003125 73.2940625 33.4003125 72 34 C71.67 34.99 71.34 35.98 71 37 C70.34 37 69.68 37 69 37 C68.67 37.99 68.34 38.98 68 40 C66.86493751828195 37.7298750365639 66.86998744777566 36.269736403288746 66.75 33.75 C66.23341207931473 28.657919067530923 64.68111916289679 26.509904318110895 61 23 C56.11853467972807 19.918641196965005 50.56324772960565 20.395136824029453 45 21 C40.48650125716611 23.215717564663905 37.48709837194478 26.423488849287402 34 30 C29.45945945945946 34 29.45945945945946 34 26 34 C26 33.34 26 32.68 26 32 C25.340000000000003 32 24.68 32 24 32 C23.340000000000003 31.01 22.68 30.02 22 29 C17.934913434864136 28.18538540345018 14.06429521149714 28.564606504387534 10.25 30.125 C7.399039459081507 32.50080045076541 5.278683895321954 35.07026356315749 3 38 C1.8585916103098334 34.575774830929504 2.5005508262654956 33.32446587976756 3.50390625 29.99609375 C5.409626101681937 22.32819733890181 3.228192356184252 15.58810111307579 0.875 8.234375 C0 5 0 5 0 0 Z " fill="#9B6C97" transform="translate(28,0)"/>
<path d="M0 0 C2.4354934297829516 1.0824415243479848 4.21580960723108 2.185836050671213 6.25 3.9375 C9.60276190806006 6.653235902788396 9.60276190806006 6.653235902788396 17 9 C17 19.230000000000004 17 29.460000000000008 17 40 C0.8299999999999983 40 -15.340000000000003 40 -32 40 C-30.767441860465112 32.6046511627907 -30.767441860465112 32.6046511627907 -29 30 C-26.221847547362287 28.369345299538736 -23.720442081970802 27.661357580646694 -20.5625 27.125 C-16.421353565271232 26.22888306658328 -13.942684010957208 25.194914069039243 -11 22 C-7.96713955159143 17.111210023460814 -6.021096790478438 11.670595641289523 -4.02734375 6.296875 C-2.9544972397230964 3.8982675929930934 -1.6488606926757825 2.036553150160458 0 0 Z " fill="#A597B4" transform="translate(111,88)"/>
<path d="M0 0 C4.413125735154466 2.1277570508780457 7.47505015195452 4.7917502532575185 10 9 C11.671348808701822 15.078672722059395 11.108329702975055 19.426443291217147 8 25 C5.006034661278576 29.879054626064544 1.3978429862297617 31.581005176097577 -4 33 C-7.593938433597216 33.44911354458251 -11.131216639194221 33.51017941873644 -14.75 33.5 C-15.6819921875 33.528359375 -16.613984375 33.55671875 -17.57421875 33.5859375 C-24.31171514615847 33.60527034475224 -24.31171514615847 33.60527034475224 -27.55859375 30.75 C-30.025473482456363 26.043541106641527 -31 21.49452079433246 -31 16.1875 C-29.50483661196843 12.916830088680939 -27.021682415751208 11.85949687123151 -24 10 C-22.312885768171853 8.354034895777414 -20.645437800681492 6.687628513519485 -19 5 C-12.663443239114244 -0.30502426492761003 -8.229487566629828 -0.7755538020907693 0 0 Z " fill="#4C3C6B" transform="translate(85,20)"/>
<path d="M0 0 C15.180000000000007 0 30.36 0 46 0 C46 10.89 46 21.78 46 33 C37.249999999997286 32.93749999999998 37.249999999997286 32.93749999999998 34.5126953125 32.909912109375 C33.4313330078125 32.906165771484375 33.4313330078125 32.906165771484375 32.328125 32.90234375 C31.594970703125 32.89710693359375 30.86181640625 32.8918701171875 30.1064453125 32.886474609375 C27.95381510051432 33.00248910271915 26.068586498988964 33.409267294261056 24 34 C22 31 22 31 21.125 27.1875 C18.98367328235031 18.2462350034017 12.388898077939928 13.323472829233202 5.1875 8.3125 C2 6 2 6 0 3 C0 2.01 0 1.02 0 0 Z " fill="#B7A1CD" transform="translate(82,0)"/>
<path d="M0 0 C7.260000000000001 0 14.520000000000001 0 22 0 C22.31395486972308 15.488440239672007 21.37926667247565 26.93752207505574 15.140625 41.21875 C13.683052551093951 44.77283076582571 12.793795907538302 48.24751025527348 12 52 C4.499999999999987 53.125 4.499999999999987 53.125 0 52 C0 34.84 0 17.68 0 0 Z " fill="#E4C3E1" transform="translate(0,0)"/>
<path d="M0 0 C1.2123632812499991 0.013535156250000568 1.2123632812499991 0.013535156250000568 2.44921875 0.02734375 C3.371542968749999 0.044746093749999716 3.371542968749999 0.044746093749999716 4.3125 0.0625 C4.972499999999997 1.3825000000000003 5.6325 2.7025000000000006 6.3125 4.0625 C6.972499999999997 4.0625 7.6325 4.0625 8.3125 4.0625 C8.436250000000001 5.031874999999999 8.560000000000002 6.001249999999999 8.6875 7 C10.03569990757589 16.544862875358845 10.03569990757589 16.544862875358845 14.3125 25.0625 C13.709218749999998 25.183671875 13.105937500000003 25.304843750000003 12.484375 25.4296875 C11.685156249999999 25.597265625 10.885937499999997 25.764843749999997 10.0625 25.9375 C8.879140624999998 26.181132812499996 8.879140624999998 26.181132812499996 7.671875 26.4296875 C3.956536421015244 27.42618559568797 1.84198959256981 28.39181318274491 -0.5625 31.4375 C-2.6875 34.06249999999999 -2.6875 34.06249999999999 -5.6875 36 C-11.298430552438525 39.857514754801485 -13.162487657841652 44.70828190767355 -14.6875 51.0625 C-17.6875 51.0625 -17.6875 51.0625 -19.3515625 49.4453125 C-23.300015936703158 42.40274935266396 -20.638719226351604 31.412831125948827 -19.4375 23.6875 C-19.3284130859375 22.951284179687505 -19.219326171875 22.215068359374996 -19.10693359375 21.45654296875 C-17.639618666076018 12.919962413121148 -14.193342834443374 6.737809706642096 -7.6875 1.0625 C-4.805386979190899 0.1017956597302998 -2.988999561081471 -0.043318834218570856 0 0 Z " fill="#6B496F" transform="translate(45.6875,27.9375)"/>
<path d="M0 0 C0.9899999999999949 0.3299999999999983 1.980000000000004 0.6599999999999966 3 1 C3.004108886718754 1.5576000976562483 3.008217773437508 2.1152001953124966 3.012451171875 2.689697265625 C3.154836291846692 13.77865040902033 3.922288118298013 23.308218578736096 7.8515625 33.69921875 C10.361181152315567 40.91223834594098 10.665838605026167 48.567796992960155 9 56 C6.9375 59 6.9375 59 5 61 C0.7805335274565266 59.510776539102295 -2.677099021923027 58.033953066939844 -6 55 C-6.996061465909008 52.132414972584826 -7.606316934450405 49.28590048795493 -8.21484375 46.3125 C-9.27715309613103 41.83071728597454 -11.051260903118092 37.793520872970106 -12.9140625 33.59375 C-15.037428781300264 28.522112551138918 -15.970684308623177 23.464593144841615 -15 18 C-13.325334092495922 15.032237632271261 -11.200678533477245 12.58736106649134 -9 10 C-8.504999999999995 9.113124999999997 -8.010000000000005 8.22625 -7.5 7.3125 C-5.400512773777123 4.075790526239729 -3.15604256014484 2.235530146769264 0 0 Z " fill="#835A5C" transform="translate(103,32)"/>
<path d="M0 0 C1.9800000000000004 0 3.960000000000001 0 6 0 C6.193359375 0.7850390625 6.38671875 1.570078125 6.5859375 2.37890625 C6.976523437499999 3.9547851562500003 6.976523437499999 3.9547851562500003 7.375 5.5625 C7.6469921875 6.663359375 7.918984375000001 7.7642187499999995 8.19921875 8.8984375 C8.788710599971683 11.181640079890323 9.464676246732335 13.442942029326728 10.1875 15.6875 C12.075015583497922 23.3827558404146 10.714483843039432 30.245392295209413 8.625 37.75 C5.542406492667439 49.44229872991035 3.826189454891683 60.93328559302934 3 73 C-0.46499999999999986 73.495 -0.46499999999999986 73.495 -4 74 C-9.118872206216587 59.31430352488348 -11.73004163845867 49.486875184562294 -5.5 34.8125 C-1.935799487150554 26.288478291558853 -0.838092718479988 18.83206543129416 -0.4375 9.625 C-0.39431640624999886 8.6981640625 -0.3511328124999977 7.771328125 -0.306640625 6.81640625 C-0.20123813678884517 4.544397059670637 -0.09911394417902386 2.272290745969252 0 0 Z " fill="#AA88A4" transform="translate(22,0)"/>
<path d="M0 0 C6.890264902663333 6.258130507923578 10.914502162536891 11.46735207531973 12 20.875 C11.195625000000007 21.143124999999998 10.39125 21.411249999999995 9.5625 21.6875 C8.716875000000002 22.079375 7.871250000000003 22.471249999999998 7 22.875 C6.5049999999999955 24.36 6.5049999999999955 24.36 6 25.875 C5.340000000000003 25.875 4.680000000000007 25.875 4 25.875 C3.5049999999999955 27.36 3.5049999999999955 27.36 3 28.875 C1.8649375182819483 26.60487503656391 1.8699874477756566 25.144736403288725 1.75 22.625 C1.233412079314732 17.53291906753092 -0.31888083710320814 15.384904318110895 -4 11.875 C-8.881465320271928 8.793641196965002 -14.43675227039435 9.270136824029453 -20 9.875 C-24.513498742833875 12.090717564663905 -27.512901628055218 15.298488849287402 -31 18.875 C-35.54054054054054 22.875 -35.54054054054054 22.875 -39 22.875 C-39 22.215000000000003 -39 21.555 -39 20.875 C-39.66 20.875 -40.32 20.875 -41 20.875 C-42.375 18.875 -42.375 18.875 -43 15.875 C-38.70709364658394 7.778872428538534 -31.047953135584315 0.6462116265208131 -22.4375 -2.375 C-14.585855041096764 -3.9844368019207774 -6.691163991691596 -5.060262584701658 0 0 Z " fill="#7C6291" transform="translate(93,11.125)"/>
<path d="M0 0 C0.15855468750000057 0.6174609374999989 0.31710937500000114 1.2349218749999977 0.48046875 1.87109375 C4.199927195028636 15.372111420628798 12.06752513953574 25.277366157714567 22 35 C19.33973454859626 35.900862618770816 16.675126423164627 36.77038390474607 14 37.625 C13.2562109375 37.880234375 12.512421875000001 38.13546875 11.74609375 38.3984375 C6.081677036463226 40.17164621032455 2.610037855628292 40.00358494843867 -3 38 C-8.726084991435336 33.31502137064382 -12.492645840331878 27.64589395294864 -13.87890625 20.37109375 C-14.152610748372147 15.011783088326041 -12.033958406654868 10.60441821722307 -9.1875 6.1875 C-3 0 -3 0 0 0 Z " fill="#362B4D" transform="translate(44,61)"/>
<path d="M0 0 C5.001847974762136 10.559456835608948 11.608635898962532 30.86002330134923 9.5703125 42.44140625 C9.382109374999999 42.95574218749999 9.193906250000001 43.470078125 9 44 C8.010000000000002 43.52562499999999 7.02 43.05125000000001 6 42.5625 C0.0878688300472028 40.03043574135356 -5.5774256286446 40 -12 40 C-12 26.799999999999997 -12 13.599999999999994 -12 0 C-2.2608695652173907 -1.217391304347828 -2.2608695652173907 -1.217391304347828 0 0 Z " fill="#CAC5D6" transform="translate(12,52)"/>
</svg>
