<?xml version="1.0" encoding="UTF-8"?>
<!-- Generator: visioncortex VTracer 0.6.0 -->
<svg version="1.1" xmlns="http://www.w3.org/2000/svg" width="128" height="128">
<path d="M0 0 C42.24 0 84.48 0 128 0 C128 42.24 128 84.48 128 128 C85.75999999999999 128 43.519999999999996 128 0 128 C0 85.75999999999999 0 43.519999999999996 0 0 Z " fill="#87BCC7" transform="translate(0,0)"/>
<path d="M0 0 C0.8759381103515693 -0.0021752929687508527 1.7518762207031244 -0.004350585937501705 2.65435791015625 -0.006591796875 C15.688124229548677 -0.002931226373146245 26.532699633359144 0.01721128779670522 36.40234375 9.50390625 C38.65815007539845 12.017246489925967 40.09569205037725 14.38815313853744 41.25 17.5625 C41.47687500000001 18.18125 41.70375 18.799999999999997 41.9375 19.4375 C44.03372214191391 33.691810565014634 39.12362020092387 50.63628116624767 31.25 62.5625 C27.756032284383352 66.47241625319006 25.094429819504285 69.33194627256196 19.75 70 C14.91114724358954 69.91965004648027 11.175141736452787 67.88075663507772 6.9609375 65.65625 C2.640610839362182 63.91317872481471 -1.3477029692000002 64.20794706744616 -5.75 65.5625 C-5.75 66.2225 -5.75 66.8825 -5.75 67.5625 C-6.739999999999995 68.0575 -6.739999999999995 68.0575 -7.75 68.5625 C-7.894374999999997 69.655625 -8.03875 70.74875 -8.1875 71.875 C-8.915197112908963 74.68183172122029 -9.476224222650686 75.39861346200198 -12.0078125 76.9140625 C-18.623720630759152 79.47565367040535 -25.13199449065563 81.12306737901982 -32.015625 78.796875 C-36.06351025818374 76.96222196931241 -37.99774920889618 75.73450354271573 -39.75 71.5625 C-40.037109375 69.47534179687501 -40.037109375 69.47534179687501 -40.09375 67.26171875 C-40.1233984375 66.44896484375 -40.153046875 65.6362109375 -40.18359375 64.798828125 C-40.2055078125 63.95771484375 -40.227421875000005 63.116601562499994 -40.25 62.25 C-40.46551685022688 53.71706375466914 -40.46551685022688 53.71706375466914 -42.75 45.5625 C-44.579754678622436 44.132301072397894 -44.579754678622436 44.132301072397894 -46.875 43.6875 C-47.6780859375 43.4773828125 -48.481171875 43.26726562499999 -49.30859375 43.05078125 C-54.86586298439887 41.93932740312022 -60.04201222918836 41.5625 -65.75 41.5625 C-65.75 29.3525 -65.75 17.1425 -65.75 4.5625 C-57.74999999999999 5.5625 -57.74999999999999 5.5625 -55.375 6.125 C-48.522898645225396 7.267016892462436 -42.58467078140555 6.766079937585928 -36.0791015625 4.427490234375 C-24.168833929067844 0.22951189919293213 -12.47776183466268 -0.03049899916586085 0 0 Z " fill="#49808C" transform="translate(65.75,25.4375)"/>
<path d="M0 0 C2.928920431221389 2.2219396374783003 3.888795774582338 4.521250445325109 5 8 C5.421692590188879 12.03414605531627 5.461947342296007 16.08628072024797 5.56640625 20.138671875 C5.596054687500001 20.96044921875 5.625703125000001 21.7822265625 5.65625 22.62890625 C5.684287109374999 23.743743896484375 5.684287109374999 23.743743896484375 5.712890625 24.881103515625 C6.044687716806251 27.329799910001228 6.673145602568969 28.917514206369205 8 31 C15.417241487618348 35.23842370721049 21.987917728252718 34.676716658622496 30.0625 32.5 C31.711735141709084 32.01133773578991 33.35890363821508 31.515334932298813 35 31 C35.33 28.689999999999998 35.66 26.379999999999995 36 24 C36.99 23.67 37.98 23.340000000000003 39 23 C39 22.340000000000003 39 21.680000000000007 39 21 C42.44145131417823 18.882183806659555 44.9982998423057 18.725373518589606 49 19 C51.71093750000003 20.093750000000014 51.71093750000003 20.093750000000014 54.375 21.5 C59.363783823934526 23.885940089707816 62.51046905605796 24.757176681923042 68 24 C73.85920524971809 21.115607292191243 76.22342338878724 16.730210281691257 79 11 C79.88578901339872 8.324255594380631 80.63186919692056 5.680080576693314 81.26171875 2.93359375 C81.5053515625 2.2955078125000057 81.748984375 1.6574218749999972 82 1 C82.99 0.6700000000000017 83.98 0.3400000000000034 85 0 C86.92431253794781 6.0134766810869 85.98111059859744 11.812630676977975 84.5 17.8125 C82.96363335278079 24.610197712696305 81.75458953065538 31.26376859196614 84 38 C90.77498775761757 39.69374693940439 97.38815707760494 39.06956994290566 104.21484375 38.12109375 C104.8039453125 38.0811328125 105.393046875 38.041171875 106 38 C110.71993408616876 42.71993408616876 107 51.32500520183308 107 58 C64.75999999999999 58 22.519999999999996 58 -21 58 C-21 37.870000000000005 -21 17.739999999999995 -21 -3 C-12.870840867618197 -4.354859855396967 -7.214328619026652 -3.6778930214645698 0 0 Z " fill="#69A7B2" transform="translate(21,70)"/>
<path d="M0 0 C1.1343750000000057 0.515625 2.268749999999997 1.03125 3.4375 1.5625 C6 3 6 3 7 5 C5.53587782970483 13.554421669140282 1.540605406530375 21.76727332447227 -4.875 27.625 C-8.783194866796237 29.344605741390353 -11.856020359920166 29.860071246054304 -16 29 C-18.849131697531448 27.82873533344724 -21.56501516609285 26.53166354868999 -24.2890625 25.09375 C-28.609389160637804 23.350678724814713 -32.5977029692 23.645447067446156 -37 25 C-37 25.659999999999997 -37 26.319999999999993 -37 27 C-37.989999999999995 27.495000000000005 -37.989999999999995 27.495000000000005 -39 28 C-39.144375 29.093125 -39.28875 30.18625 -39.4375 31.3125 C-40.16519711290897 34.11933172122032 -40.726224222650664 34.83611346200195 -43.2578125 36.3515625 C-49.87372063075915 38.91315367040535 -56.381994490655636 40.56056737901983 -63.265625 38.234375 C-67.31351025818375 36.399721969312395 -69.24774920889618 35.17200354271573 -71 31 C-71.287109375 28.912841796875 -71.287109375 28.912841796875 -71.34375 26.69921875 C-71.3733984375 25.886464843750005 -71.403046875 25.073710937499996 -71.43359375 24.236328125 C-71.4555078125 23.395214843749997 -71.477421875 22.554101562499994 -71.5 21.6875 C-71.65634135558965 15.769519863415624 -72.11441350451022 10.633949972410988 -74 5 C-69.15734760452604 2.9920709579742066 -66.11285344536083 3.1184735439033062 -61 4 C-54.359960589561666 4.675258245129328 -49.98573461242709 3.0359698109417366 -43.9296875 0.2890625 C-30.704737209943346 -5.529915627624931 -13.196693784507318 -6.238437061767094 0 0 Z " fill="#748880" transform="translate(97,66)"/>
<path d="M0 0 C0.6599999999999966 0 1.3199999999999932 0 2 0 C3.9243125379477988 6.013476681086885 2.9811105985974393 11.812630676977975 1.5 17.8125 C-0.03636664721921079 24.610197712696305 -1.2454104693446197 31.26376859196614 1 38 C7.774987757617566 39.69374693940439 14.38815707760493 39.06956994290566 21.21484375 38.12109375 C21.803945312500005 38.0811328125 22.393046874999996 38.041171875 23 38 C27.719934086168763 42.71993408616876 24 51.32500520183308 24 58 C6.840000000000003 58 -10.319999999999993 58 -28 58 C-28 56.349999999999994 -28 54.7 -28 53 C-29.261171734428757 50.649378575339256 -30.52342820759172 48.51488664306844 -32 46.3125 C-36 40.22466216216216 -36 40.22466216216216 -36 38 C-36.66 38 -37.31999999999999 38 -38 38 C-39.33333333333333 36.66666666666666 -40.666666666666664 35.33333333333334 -42 34 C-43.976304070171835 32.631789489881044 -45.9720901645651 31.290488077094935 -48 30 C-47.01 26.534999999999997 -47.01 26.534999999999997 -46 23 C-45.34 23 -44.68 23 -44 23 C-44 22.340000000000003 -44 21.680000000000007 -44 21 C-40.558548685821776 18.882183806659555 -38.00170015769429 18.725373518589606 -34 19 C-31.2890625 20.09375 -31.2890625 20.09375 -28.625 21.5 C-23.63621617606546 23.885940089707816 -20.489530943942043 24.757176681923042 -15 24 C-8.422553223640506 20.762028515958832 -5.386829302905852 14.898114797356968 -2.98828125 8.15625 C-2.4779252226684605 6.423529048669479 -1.9932548942884694 4.682887195387366 -1.54296875 2.93359375 C-1 1 -1 1 0 0 Z " fill="#84A1A4" transform="translate(104,70)"/>
<path d="M0 0 C0.9281249999999943 0.8043750000000003 0.9281249999999943 0.8043750000000003 1.875 1.625 C1.875 2.2849999999999966 1.875 2.9450000000000003 1.875 3.625 C2.865000000000009 3.9549999999999983 3.8549999999999898 4.284999999999997 4.875 4.625 C6.186902724371976 8.560708173115913 5.635330088015451 10.8417190494158 3.951416015625 14.562744140625 C1.7964941938994485 18.69125959268119 -0.8586558642980506 22.484335695215748 -3.5 26.3125 C-4.064609375000003 27.153613281250003 -4.62921875 27.9947265625 -5.2109375 28.861328125 C-8.790170850457777 34.08518605894358 -11.896233569687197 38.54874452322906 -18.125 40.625 C-26.890917602996254 41.190543071161045 -26.890917602996254 41.190543071161045 -31.125 37.625 C-35.696324890517005 32.447274868904216 -39.94753129154866 26.795514648606606 -40.25 19.6875 C-36.995245260963145 10.827334321510776 -28.744570859420122 5.515577982002043 -20.6796875 1.3671875 C-13.844247386150833 -1.6969753096565228 -7.0487114182637995 -3.101433024036073 0 0 Z " fill="#1B637F" transform="translate(62.125,30.375)"/>
<path d="M0 0 C-2.488927803126991 3.733391704690483 -3.7488750219492104 3.7146269219420702 -8 4.8125 C-17.97258578231677 7.729426304982283 -26.108907043755075 12.207855225422982 -32 21 C-33.47150551694825 24.384462688980975 -33.402725447443345 25.972123334977233 -32.06640625 29.3828125 C-29.765874072719075 34.184546327969535 -27.08119560775152 38.663502477979335 -24 43 C-31.485262777665795 45.495087592555265 -35.82472177266952 44.14560193195305 -43.01171875 41.62109375 C-47.12310291939655 40.66084290581364 -47.12310291939655 40.66084290581364 -56 41 C-56 28.79 -56 16.58 -56 4 C-47.99999999999999 5 -47.99999999999999 5 -45.625 5.5625 C-36.20307563253139 7.132820727911437 -28.242663993147303 4.9392175356589405 -19.298828125 2.1328125 C-12.719031020691347 0.17979851850909512 -6.853198815661543 -0.3582938264995512 0 0 Z " fill="#4C8EAB" transform="translate(56,26)"/>
<path d="M0 0 C-0.9590625000000017 0.9281250000000014 -0.9590625000000017 0.9281250000000014 -1.9375 1.875 C-11.293965515143142 10.756538193863065 -11.293965515143142 10.756538193863065 -17 22 C-16.853217758026446 25.155818202431334 -16.443620721754158 26.488129936437502 -14.375 28.875 C-12.322410079436196 32.047184422689526 -13.245554275087933 34.433529300415685 -14 38 C-21.417271231964605 41.10554907656088 -28.32482566778924 43.917817532953976 -36.265625 41.234375 C-40.313510258183754 39.399721969312395 -42.24774920889618 38.17200354271574 -44 34 C-44.287109375 31.912841796875 -44.287109375 31.912841796875 -44.34375 29.69921875 C-44.3733984375 28.886464843750005 -44.403046875 28.073710937499996 -44.43359375 27.236328125 C-44.4555078125 26.395214843749997 -44.477421875000005 25.554101562499994 -44.5 24.6875 C-44.656341355589646 18.76951986341561 -45.114413504510225 13.633949972410988 -47 8 C-42.15734760452604 5.992070957974207 -39.11285344536082 6.118473543903306 -34 7 C-27.359960589561666 7.675258245129328 -22.985734612427088 6.035969810941737 -16.9296875 3.2890625 C-10.938419176783086 0.6529044377845565 -6.463539110095901 -0.22288065896882614 0 0 Z " fill="#5C8887" transform="translate(70,63)"/>
<path d="M0 0 C17.490000000000002 0 34.980000000000004 0 53 0 C53 2.31 53 4.62 53 7 C52.34 7 51.68 7 51 7 C50.67 7.66 50.34 8.32 50 9 C45.830559893361475 12.60088009209691 41.145495269848695 15.645061508623654 36.5625 18.6875 C35.7181640625 19.2482421875 34.873828125 19.808984375 34.00390625 20.38671875 C26.16100036782979 24.59883855407841 19.263352887328264 25.41349623300886 10.4375 25.1875 C6.993125 25.125625 3.54875 25.06375 0 25 C0 16.75 0 8.5 0 0 Z " fill="#95DCEE" transform="translate(0,0)"/>
<path d="M0 0 C14.189999999999998 0 28.379999999999995 0 43 0 C43 10.23 43 20.46 43 31 C40.46312499999999 31.061875 37.926249999999996 31.12375 35.3125 31.1875 C34.52270751953125 31.21481201171875 33.732915039062505 31.2421240234375 32.919189453125 31.270263671875 C23.51218683622409 31.380878318906454 17.845187038010835 24.74575057240854 11 19 C10.200781250000006 18.3387109375 9.401562499999997 17.677421875 8.578125 16.99609375 C7.871718749999999 16.3992578125 7.165312499999999 15.802421875 6.4375 15.1875 C5.5074414062499955 14.404394531249999 5.5074414062499955 14.404394531249999 4.55859375 13.60546875 C0.45634967412638616 9.379848912445969 0.7811318125010018 6.24905450000796 0 0 Z " fill="#B6ECEC" transform="translate(85,0)"/>
<path d="M0 0 C3.3589148668064723 2.5481423127497322 4.651040294600769 5.850069058762827 5.321533203125 9.98095703125 C6.716346164082719 23.59058382039973 6.716346164082719 23.59058382039973 3.15234375 28.59375 C0.5087383337796645 30.504184341991248 -1.978720674007203 31.77461410315452 -5 33 C-6.454062499999999 33.63615234375 -6.454062499999999 33.63615234375 -7.9375 34.28515625 C-12.658162880368732 36.17726976862605 -15.824938524435073 37 -21 37 C-21 23.799999999999997 -21 10.599999999999994 -21 -3 C-12.870840867618197 -4.354859855396967 -7.214328619026652 -3.6778930214645698 0 0 Z " fill="#93C0C8" transform="translate(21,70)"/>
<path d="M0 0 C2 1 2 1 2.67578125 2.8203125 C2.8858984375 3.580859375000003 3.0960156249999997 4.341406250000006 3.3125 5.125 C4.780513529336389 9.869559190174826 7.023119923775212 13.057645304459072 10 17 C10 17.659999999999997 10 18.319999999999993 10 19 C10.659999999999997 19 11.32 19 12 19 C14.936839771289215 24.0171012759524 15 25.70324806743571 15 32 C1.7999999999999972 32 -11.400000000000002 32 -25 32 C-25 25.069999999999993 -25 18.14 -25 11 C-23.39125 10.608125000000001 -21.7825 10.216250000000002 -20.125 9.8125 C-12.702209994838823 7.791585559885149 -6.067472207388093 4.754465693260826 0 0 Z " fill="#6FAFC2" transform="translate(25,96)"/>
<path d="M0 0 C0 13.200000000000003 0 26.400000000000006 0 40 C-18 41 -18 41 -23 39 C-27.43569473838329 32.346457892425065 -24.775755849522128 23.62609425853411 -23.375 16.1875 C-23.234975585937505 15.36314453125 -23.094951171874996 14.538789062500001 -22.95068359375 13.689453125 C-21.740524806001886 7.767758877474861 -20.026869190628105 5.373121101805282 -15 2 C-9.840142456441527 -1.0099169004091095 -6.734604927868489 0 0 0 Z " fill="#93C1DC" transform="translate(128,69)"/>
<path d="M0 0 C0 0.6599999999999966 0 1.3199999999999932 0 2 C6.774987757617566 3.6937469394043916 13.388157077604944 3.069569942905659 20.21484375 2.12109375 C20.80394531249999 2.0811328125000017 21.39304687500001 2.0411718750000034 22 2 C26.719934086168763 6.719934086168763 23 15.32500520183308 23 22 C5.840000000000003 22 -11.319999999999993 22 -29 22 C-29 20.680000000000007 -29 19.36 -29 18 C-28.223984375 17.622304687500005 -27.44796875 17.244609374999996 -26.6484375 16.85546875 C-19.2686580996063 13.09512769514545 -12.878933690205372 8.845362631028763 -6.49560546875 3.557373046875 C-2.1805113412982706 0 -2.1805113412982706 0 0 0 Z " fill="#6E99A5" transform="translate(105,106)"/>
<path d="M0 0 C2.777769960087653 1.2832663503827 4.75589282163412 3.055931755601387 7.0546875 5.07421875 C11.936254163575896 9.188119688255494 16.95314337941268 12.438754061830998 22.5234375 15.5390625 C25.054687499999957 16.949218749999975 25.054687499999957 16.949218749999975 28.0546875 18.94921875 C26.591682128906257 18.94752685546875 26.591682128906257 18.94752685546875 25.09912109375 18.94580078125 C-0.5438604706043151 18.967382676270734 -0.5438604706043151 18.967382676270734 -25.421875 24.671875 C-32.68696085127855 27.019786314286975 -39.7518392296943 26.317765116886562 -47.0703125 24.44921875 C-48.186640625 24.17078125 -49.30296875 23.89234375 -50.453125 23.60546875 C-51.275546875 23.38890625 -52.09796875 23.17234375 -52.9453125 22.94921875 C-52.9453125 21.29921875 -52.9453125 19.64921875 -52.9453125 17.94921875 C-52.3312353515625 17.939873046875 -51.717158203125 17.93052734375 -51.08447265625 17.9208984375 C-48.24566817277969 17.866521337534934 -45.408395175473515 17.783013232074314 -42.5703125 17.69921875 C-41.122050781249996 17.67794921875 -41.122050781249996 17.67794921875 -39.64453125 17.65625 C-25.625433978453593 17.18581049424341 -14.336289692818909 10.194883432320488 -3.953125 1.171875 C-1.9453125 -0.05078125 -1.9453125 -0.05078125 0 0 Z " fill="#6AB0C7" transform="translate(52.9453125,7.05078125)"/>
</svg>
