<?xml version="1.0" encoding="UTF-8"?>
<!-- Generator: visioncortex VTracer 0.6.0 -->
<svg version="1.1" xmlns="http://www.w3.org/2000/svg" width="128" height="128">
<path d="M0 0 C42.24 0 84.48 0 128 0 C128 42.24 128 84.48 128 128 C85.75999999999999 128 43.519999999999996 128 0 128 C0 85.75999999999999 0 43.519999999999996 0 0 Z " fill="#5D8177" transform="translate(0,0)"/>
<path d="M0 0 C5.679965181007617 0.8200691976888805 10.0883119425759 2.02650873847017 14.75 5.4375 C14.75 6.097499999999997 14.75 6.757499999999993 14.75 7.4375 C15.409999999999997 7.4375 16.069999999999993 7.4375 16.75 7.4375 C18.01144564964588 9.128310952929098 19.209138302306968 10.86691771881749 20.375 12.625 C27.443842541711007 22.48084139328165 32.02222639101757 23.316204398502933 44.75 25.4375 C44.75 34.67750000000001 44.75 43.917500000000004 44.75 53.4375 C25.28 53.4375 5.810000000000002 53.4375 -14.25 53.4375 C-16.560000000000002 46.837500000000006 -18.870000000000005 40.2375 -21.25 33.4375 C-23.326408139466807 26.026880000447818 -23.326408139466807 26.026880000447818 -25.9765625 23.88671875 C-26.603046875000004 23.635351562500006 -27.22953125 23.383984374999997 -27.875 23.125 C-28.568515625000003 22.8349609375 -29.26203125 22.544921875 -29.9765625 22.24609375 C-30.726796874999998 21.979257812499995 -31.477031249999996 21.712421875000004 -32.25 21.4375 C-33.082734375 21.1397265625 -33.91546875 20.841953125000003 -34.7734375 20.53515625 C-36.922913736048635 19.799452238607955 -39.07742972595331 19.10134091706982 -41.25 18.4375 C-41.745 15.962500000000006 -41.745 15.962500000000006 -42.25 13.4375 C-41.37859375 13.351132812499998 -40.5071875 13.264765624999995 -39.609375 13.17578125 C-28.81296691897427 11.902178998017533 -18.967665024610966 9.14339617277767 -10.25 2.4375 C-9.854257812500009 1.8922265624999994 -9.45851562499999 1.3469531249999989 -9.05078125 0.78515625 C-6.105423218664029 -1.41907047627096 -3.5328721301874566 -0.5031879627657361 0 0 Z " fill="#6BAFBD" transform="translate(83.25,74.5625)"/>
<path d="M0 0 C24.42 0 48.84 0 74 0 C75.02750455667815 4.110018226712617 74.74109992205778 5.938202350260226 74 10 C73.9143742399308 12.031288622106727 73.86895365708335 14.064586284057818 73.859375 16.09765625 C73.83037109374999 17.794384765624997 73.83037109374999 17.794384765624997 73.80078125 19.525390625 C73.76687348681514 21.887196745298727 73.74869369284954 24.24928004619595 73.74609375 26.611328125 C73.55972170721968 35.20896473010279 73.55972170721968 35.20896473010279 70.703125 39.24609375 C66.59130084107491 41.914025899360354 63.29110930684028 42.12721099494301 58.44140625 42.1328125 C56.79325927734375 42.13631713867188 56.79325927734375 42.13631713867188 55.11181640625 42.139892578125 C49.07414183207561 42.11455909697047 43.03732276210502 42.07042300463551 37 42 C35.9302392578125 41.9927490234375 34.860478515625005 41.985498046875 33.75830078125 41.97802734375 C30.87914392654538 41.95070383491494 28.003232892397698 41.88849465382712 25.125 41.8125 C23.844114990234374 41.804040527343744 23.844114990234374 41.804040527343744 22.537353515625 41.79541015625 C18.292536977949908 41.639391922252806 16.51245516075258 41.405979892767796 13.0859375 38.69140625 C6.8469252036039805 30.641444691541466 3.9165057735182316 21.635686382508315 1 12 C0.6828906249999989 11.03513671875 0.6828906249999989 11.03513671875 0.359375 10.05078125 C-0.21927589203416176 6.748697355239851 0 3.352401363632685 0 0 Z " fill="#8DA596" transform="translate(34,0)"/>
<path d="M0 0 C6.599999999999994 0 13.200000000000003 0 20 0 C20 33 20 66 20 100 C10.679235569823064 100 5.449666961948182 98.9629972127965 -1.390625 92.6875 C-8 85.75728155339807 -8 85.75728155339807 -8 82 C-8.659999999999997 82 -9.319999999999993 82 -10 82 C-10 81.34 -10 80.68 -10 80 C-10.748945312499998 79.770546875 -11.497890624999997 79.54109375 -12.26953125 79.3046875 C-15.56253367300053 77.73120708614853 -16.690728326310662 76.14932383835195 -18.6875 73.125 C-19.268867187500007 72.261328125 -19.850234375 71.39765625 -20.44921875 70.5078125 C-24 64.76574307304786 -24 64.76574307304786 -24 60.4375 C-23 57 -23 57 -20.4140625 55.41796875 C-16.792877594316636 53.91397547681572 -13.17023639824474 52.82002898362668 -9.375 51.875 C-8.392734375000003 51.62169921875 -8.392734375000003 51.62169921875 -7.390625 51.36328125 C-4.264439399050559 50.559585761496805 -1.1315049745980161 49.78266193315302 2 49 C1.7090747070312489 48.4593994140625 1.4181494140624977 47.918798828125 1.118408203125 47.36181640625 C-2.6514781692116287 39.40506767915367 -2.29728055997829 31.937095067674974 -1.8125 23.375 C-1.7526145021512036 21.99487459700244 -1.6946604182915905 20.614663985637378 -1.638671875 19.234375 C-1.3539134037507097 12.759780131055217 -0.805658573299354 6.44526858639487 0 0 Z " fill="#596A63" transform="translate(108,0)"/>
<path d="M0 0 C5.345680623686274 4.986910112029477 9.809339109963922 10.968512850518351 12 18 C12.08520324183148 20.60478482170521 11.827174110879334 22.913721662885393 11.390625 25.48046875 C10.859773411765811 28.904461494110528 11.017484930021645 32.22313530652387 11.16015625 35.67578125 C11 37.99999999999999 11 37.99999999999999 10.01953125 40.43359375 C7.950572365290718 45.64166266668198 7.88939304724812 52.21452611043682 9.96875 57.4296875 C10.350312500000001 58.154140625 10.731874999999999 58.87859374999999 11.125 59.625 C13.245077869769602 63.88051862265347 13.405699283279958 66.89038794224115 12.24609375 71.5 C10.159844832469563 75.6855777655783 6.815021486053002 78.29496121637061 3.21484375 81.1875 C0.924902072730859 82.8093889624837 0.924902072730859 82.8093889624837 0 85 C-7.512324604524117 85.2504108201508 -13.28773901104805 84.28537683149199 -21 83 C-21 54.95 -21 26.9 -21 -2 C-6.3781512605042 -4.436974789915967 -6.3781512605042 -4.436974789915967 0 0 Z " fill="#186770" transform="translate(21,19)"/>
<path d="M0 0 C4.8445595854922345 2.3782383419689097 4.8445595854922345 2.3782383419689097 7 4 C7.9375 6.75 7.9375 6.75 8 9 C8.556874999999998 9.097968750000007 9.113750000000003 9.1959375 9.6875 9.296875 C22.750774885481526 11.856570754587594 22.750774885481526 11.856570754587594 26.6015625 17.23828125 C28.122361503612588 20.241646880039383 29.07757480078196 23.13882492607671 30 26.375 C31.078279252838982 30.04529668754806 32.15108515966121 33.5856144273765 33.75 37.0625 C35 40 35 40 35 44 C12.230000000000004 44 -10.54 44 -34 44 C-34 35.42 -34 26.840000000000003 -34 18 C-23.874999999999996 18 -23.874999999999996 18 -18.4375 19 C-17.4049609375 19.185625 -16.372421875 19.371250000000003 -15.30859375 19.5625 C-14.546757812500001 19.706874999999997 -13.784921874999998 19.851249999999993 -13 20 C-12.751210937500002 19.405742187499996 -12.502421875 18.811484374999992 -12.24609375 18.19921875 C-10.8227427197486 15.687160348647211 -9.356350886763927 14.54249927214039 -7.0625 12.8125 C-2.6652767084193663 9.141496889061543 -1.1996801129817953 5.51103051901012 0 0 Z " fill="#3E8DB0" transform="translate(34,84)"/>
<path d="M0 0 C4.829470207646125 4.568417763989586 5.775537247996823 9.802390269709065 6.22265625 16.171875 C6.447478435844829 24.969264880884992 5.1030985339555315 30.886573019526026 3 40 C-6.569999999999993 40 -16.14 40 -26 40 C-27.134375000000006 36.82374999999999 -28.268749999999997 33.64750000000001 -29.4375 30.375 C-29.793845214843756 29.3854833984375 -30.1501904296875 28.395966796875 -30.517333984375 27.37646484375 C-34.620090982858216 15.76860732502169 -34.620090982858216 15.76860732502169 -33.1015625 11.4375 C-29.12693617525214 4.8762120988289155 -24.499763871641804 -0.27934450848826486 -16.96484375 -2.63671875 C-10.560449655854526 -3.8208313757565264 -5.70731277052036 -3.1829244297132817 0 0 Z " fill="#80CAE3" transform="translate(95,88)"/>
<path d="M0 0 C15.18 0 30.36 0 46 0 C47.396474801970385 2.7929496039407526 46.52819508914301 4.79719038882914 45.86328125 7.734375 C42.07418021070076 17.678622071464062 31.084543683570203 27.618709792534844 22 33 C18.248516226596195 34.52602729765579 16.185148848246953 35.296287212061735 12.25 34.3125 C8.50042363863863 32.1252471225392 6.757345455980293 30.0382115038544 5.4296875 25.91015625 C5.1731640625 25.12576171875 4.916640624999999 24.3413671875 4.65234375 23.533203125 C4.3958203125 22.71787109375 4.139296874999999 21.9025390625 3.875 21.0625 C3.6107421875000014 20.25103515625 3.346484375000003 19.4395703125 3.07421875 18.603515625 C2.364283102716591 16.40703959952163 1.662363794569771 14.211288155030443 1 12 C0.8080908203125006 11.41790771484375 0.6161816406250011 10.8358154296875 0.41845703125 10.236083984375 C-0.20969303956638186 6.879475758816525 0 3.4148779321307283 0 0 Z " fill="#B1B294" transform="translate(34,0)"/>
<path d="M0 0 C5.857994133402208 5.464840164717497 10.726756838870983 12.206743616862973 12.46875 20.1328125 C12.507264238436512 22.588095200327714 12.204805639179696 23.84608488247371 11 26 C1.822492088074057 34.960584997644055 -8.497689764248252 38.749768976424825 -21 40 C-21 26.14 -21 12.279999999999998 -21 -2 C-6.3781512605042 -4.436974789915967 -6.3781512605042 -4.436974789915967 0 0 Z " fill="#1F4933" transform="translate(21,19)"/>
<path d="M0 0 C-1.087292879600028 3.261878638800084 -2.4864410501482723 5.7374233311176965 -4.5625 8.4375 C-6.8819391276635855 11.61726521359222 -8 13.958516756402169 -8 18 C-5.151198500651404 25.708521704119732 -0.010861197174790505 31.876883326857737 6.97265625 36.08984375 C9.412104729713946 37.27542220029663 9.412104729713946 37.27542220029663 14 38 C14 42.620000000000005 14 47.24000000000001 14 52 C6.244343594658488 52.4154815931433 0.4448536813016233 51.214286313434656 -5.6875 46.25 C-9.048110923148641 43.16687071270768 -11.558378354331083 39.84740380529648 -14 36 C-14 35.34 -14 34.68000000000001 -14 34 C-14.659999999999997 34 -15.319999999999993 34 -16 34 C-16 33.34 -16 32.68000000000001 -16 32 C-16.7489453125 31.770546875000008 -17.497890624999997 31.54109375 -18.26953125 31.3046875 C-21.562533673000516 29.731207086148544 -22.690728326310662 28.149323838351947 -24.6875 25.125 C-25.268867187500007 24.261328125000006 -25.850234375 23.397656249999997 -26.44921875 22.5078125 C-30 16.765743073047858 -30 16.765743073047858 -30 12.4375 C-29 9 -29 9 -26.4140625 7.4140625 C-22.793239931118336 5.914362534399125 -19.17337655688125 4.856828190559902 -15.375 3.9375 C-10.455528314229511 2.7771975792884476 -10.455528314229511 2.7771975792884476 -5.7890625 0.87890625 C-4 0 -4 0 0 0 Z " fill="#396C84" transform="translate(114,48)"/>
<path d="M0 0 C11.22 0 22.44 0 34 0 C34.99 5.28 35.98 10.56 37 16 C37.81787746784603 18.856811436983314 38.69146048757544 21.700321370482328 39.6875 24.5 C39.91244140625 25.1432421875 40.1373828125 25.786484375 40.369140625 26.44921875 C40.90247608061508 27.969792176647243 41.44949203038594 29.485559103354213 42 31 C40.903988305906566 32.00893131291888 39.79786082193896 33.00688224621609 38.6875 34 C38.0726171875 34.556875 37.457734375 35.11375 36.82421875 35.6875 C35 37 35 37 32 37 C31.5758984375 36.131171875 31.151796875 35.26234375 30.71484375 34.3671875 C25.206209918936402 23.356759250748482 25.206209918936402 23.356759250748482 15 17 C12.42502931527901 16.929645609707077 9.88550070943123 16.906506600557965 7.3125 16.9375 C4.899375 16.958125 2.48625 16.97875 0 17 C0 11.39 0 5.779999999999999 0 0 Z " fill="#627054" transform="translate(0,0)"/>
<path d="M0 0 C6.621728508044413 3.6517571884983937 6.621728508044413 3.6517571884983937 9 6 C9 7.319999999999993 9 8.64 9 10 C0.9077348418115889 18.09226515818841 -10.291017599817359 22.174165903058608 -21.625 22.1875 C-23.4171297494728 22.14010110234392 -25.209169620554704 22.08307975987117 -27 22 C-29.526250013862352 16.837663015150852 -31.49081671943459 11.83971729449729 -31 6 C-29.33032678566269 1.5757506993366235 -27.025739645063204 -1.270585141288393 -23.1875 -4 C-14.374453637279828 -6.764877290265154 -7.983114130978564 -3.996774787143515 0 0 Z " fill="#769482" transform="translate(66,66)"/>
<path d="M0 0 C3.282208954835454 1.641104477417727 3.7457078865498943 4.693229882722434 5 8 C5 8.990000000000002 5 9.980000000000004 5 11 C-0.8674732414218624 13.571701037729582 -6.436031600402231 15.496304717979513 -12.7734375 16.5078125 C-15.1575395842967 17.03482453968664 -16.938709567169624 17.689091610699982 -19 19 C-20.08667020580087 21.89778721546898 -20.438459719516743 23.033630539565728 -20 26 C-18.6306321334869 28.74706015774666 -17.07599966824904 31.23019638644105 -15.34765625 33.765625 C-14 36 -14 36 -14 39 C-16.272645041345413 38.74481528597839 -18.543127053875082 38.470309394501896 -20.8125 38.1875 C-22.0770703125 38.0366796875 -23.341640624999997 37.885859374999995 -24.64453125 37.73046875 C-29.244282180784097 36.72912599789683 -29.244282180784097 36.72912599789683 -31 34 C-31.87890625 31.328124999999986 -31.87890625 31.328124999999986 -32.5625 28.25 C-33.34470846800512 24.832984060819754 -34.124005872524904 21.46527028770347 -35.1875 18.125 C-36.366365521601395 13.590901839994615 -36.69344941081576 10.485963023176609 -34.6875 6.1875 C-33 4 -33 4 -30 3 C-28.307960421563493 2.95235182663977 -26.613971625235962 2.9622351560095197 -24.921875 3.0078125 C-23.427207031249992 3.032949218749998 -23.427207031249992 3.032949218749998 -21.90234375 3.05859375 C-19.816218943257624 3.1025393778991557 -17.73024619655726 3.1545023112945714 -15.64453125 3.21484375 C-9.517032475406921 3.3015908368990026 -5.47936027921358 2.7100619759353606 0 0 Z " fill="#5A7F86" transform="translate(105,38)"/>
<path d="M0 0 C0 14.850000000000001 0 29.700000000000003 0 45 C-8.396082402826494 43.80055965673907 -12.51059029538635 41.203318161925 -17.87109375 34.74609375 C-20.715967753904735 30.71415001784726 -23.112919599395838 27.081381972812807 -23 22 C-20.043836613247876 13.328587398860442 -12.711294308162067 5.687257324569103 -5 1 C-2 0 -2 0 0 0 Z " fill="#163D58" transform="translate(128,41)"/>
<path d="M0 0 C16.03272727272727 0 16.03272727272727 0 21 2 C23.51727744615434 5.026519780089004 24.63637629135466 8.342771662637034 26 12 C26.888828774583747 13.619756735344595 27.80451385559391 15.225148613898511 28.75 16.8125 C30.726907180427183 20.146966858125595 31.187928016158363 21.939640080791804 32 26 C21.439999999999998 26 10.879999999999999 26 0 26 C0 17.42 0 8.840000000000003 0 0 Z " fill="#32878F" transform="translate(0,102)"/>
<path d="M0 0 C5.679965181007617 0.8200691976888805 10.0883119425759 2.02650873847017 14.75 5.4375 C14.75 6.097499999999997 14.75 6.757499999999993 14.75 7.4375 C15.409999999999997 7.4375 16.069999999999993 7.4375 16.75 7.4375 C18.0390625 9.1875 18.0390625 9.1875 19.375 11.4375 C19.821015625 12.180000000000007 20.267031250000002 12.9225 20.7265625 13.6875 C21.064296874999997 14.265 21.402031249999993 14.842500000000001 21.75 15.4375 C16.16915546072316 15.765784972898643 12.423423310288996 15.87384066933015 7.75 12.4375 C1.7625301699701197 10.441676723323368 -3.715300949287524 11.054697275480677 -9.4375 13.46875 C-15.121083683807939 16.506527486173212 -18.110353614288414 22.05334045343926 -21.25 27.4375 C-22.322500000000005 26.694999999999993 -23.394999999999996 25.9525 -24.5 25.1875 C-29.719674492761776 21.89234577885003 -35.36875030143408 20.192072826738837 -41.25 18.4375 C-41.745 15.962500000000006 -41.745 15.962500000000006 -42.25 13.4375 C-41.37859375 13.351132812499998 -40.5071875 13.264765624999995 -39.609375 13.17578125 C-28.81296691897427 11.902178998017533 -18.967665024610966 9.14339617277767 -10.25 2.4375 C-9.854257812500009 1.8922265624999994 -9.45851562499999 1.3469531249999989 -9.05078125 0.78515625 C-6.105423218664029 -1.41907047627096 -3.5328721301874566 -0.5031879627657361 0 0 Z " fill="#6EA6B3" transform="translate(83.25,74.5625)"/>
<path d="M0 0 C6.7692307692307665 3.446153846153848 6.7692307692307665 3.446153846153848 7.9375 6.25 C7.958125000000003 6.827500000000001 7.978749999999998 7.405000000000001 8 8 C4.594371478191789 8.7784293764133 1.4923424443020181 9.099781212694339 -2 9 C-1.3400000000000034 6.030000000000001 -0.6799999999999997 3.0600000000000023 0 0 Z " fill="#32878F" transform="translate(34,84)"/>
<path d="M0 0 C4.666666666666671 2.3333333333333357 9.333333333333329 4.666666666666664 14 7 C14 7.329999999999998 14 7.659999999999997 14 8 C6.777502067824649 8.61207609594706 6.777502067824649 8.61207609594706 3.0625 5.6875 C1 3 1 3 0 0 Z " fill="#779583" transform="translate(44,33)"/>
</svg>
