<?xml version="1.0" encoding="UTF-8"?>
<!-- Generator: visioncortex VTracer 0.6.0 -->
<svg version="1.1" xmlns="http://www.w3.org/2000/svg" width="128" height="128">
<path d="M0 0 C42.24 0 84.48 0 128 0 C128 42.24 128 84.48 128 128 C85.75999999999999 128 43.519999999999996 128 0 128 C0 85.75999999999999 0 43.519999999999996 0 0 Z " fill="#9B7D9F" transform="translate(0,0)"/>
<path d="M0 0 C11.879999999999995 0 23.760000000000005 0 36 0 C36 32.34 36 64.68 36 98 C29.069999999999993 98.99 29.069999999999993 98.99 22 100 C19.24894604062338 100.78080311313872 16.514054629182937 101.62465461059452 13.8125 102.5625 C5.3154738565876585 105.30318902844786 -2.9905581176405747 105.9013107423536 -11.881103515625 105.9755859375 C-13.849003689255426 105.99826021072998 -15.81573577746255 106.09191224493354 -17.78125 106.19140625 C-23.489815552786837 106.17376326090127 -28.941758189391322 104.52914080722623 -34.4375 103.125 C-36.602708702022525 102.58531172483875 -38.7680708010158 102.04623846063282 -40.93359375 101.5078125 C-41.9595263671875 101.250322265625 -42.985458984375 100.99283203125 -44.04248046875 100.7275390625 C-48.0147215802834 99.75038217688257 -52.002173188103406 98.86598561856015 -56 98 C-55.88426733890245 96.14523182609442 -55.75691884771116 94.29118725663105 -55.625 92.4375 C-55.5205859375 90.88869140624999 -55.5205859375 90.88869140624999 -55.4140625 89.30859375 C-55 85.99999999999999 -55 85.99999999999999 -53.98828125 82.5859375 C-51.82807711590716 74.74772645218488 -51.429418197462695 65.10242940444783 -55.125 57.6875 C-56.05622727435044 56.10869513831391 -57.01624707324128 54.54662186938871 -58 53 C-59.139608676039956 51.02920884923366 -60.26456168241935 49.04987325062332 -61.375 47.0625 C-62.160039062500005 45.718652343749994 -62.160039062500005 45.718652343749994 -62.9609375 44.34765625 C-64 42 -64 42 -63 39 C-61.846273511240895 37.88020664326322 -60.69150111411426 36.761469092028214 -59.53125 35.6484375 C-54.758928043629915 30.51088682247914 -50.8592550630041 24.39127602318564 -48 18 C-46.834848632812495 18.15090087890625 -45.669697265625004 18.3018017578125 -44.46923828125 18.457275390625 C-40.48305869489981 18.955069033337402 -36.49485461368049 19.33908712382575 -32.4921875 19.68359375 C-31.078113101156873 19.80780732365956 -29.664050990616417 19.93216085442839 -28.25 20.056640625 C-26.072074253353946 20.246819516785617 -23.89406888782065 20.435867803247373 -21.7158203125 20.622314453125 C-12.085752636839274 21.449658683339365 -2.555891965609476 22.519469773570293 7 24 C6.856672363281248 23.3601416015625 6.713344726562497 22.720283203125 6.565673828125 22.06103515625 C5.667734500524034 18.048409631162727 4.7814186799452045 14.037329846383571 4 10 C3.3400000000000034 10 2.680000000000007 10 2 10 C0.26265853104720804 6.199565536665775 0 4.402854231926122 0 0 Z " fill="#8F7CDF" transform="translate(92,0)"/>
<path d="M0 0 C13.648118525289458 2.099710542352227 13.648118525289458 2.099710542352227 18.97265625 4.33984375 C22.311208013887956 5.426963688529995 25.70340312977347 5.571386228009644 29.19140625 5.7890625 C35.628735403986425 6.272533674291054 41.88662514596318 7.533282057850272 48.1875 8.875 C49.02611572265625 9.050634765625006 49.8647314453125 9.226269531249997 50.728759765625 9.4072265625 C55.34423448336697 10.386199354137318 59.88995006639768 11.486791685110461 64.4375 12.75 C70.38406912836906 14.265469140747797 75.89863696900521 14.286236784170129 82 14 C83.106015625 13.992265625000002 84.21203125 13.984531250000003 85.3515625 13.9765625 C94.24349489184065 13.724721277573138 101.98842133933334 11.848090561287819 110.415771484375 9.08349609375 C111.25438720703124 8.817465820312492 112.0930029296875 8.551435546874998 112.95703125 8.27734375 C114.05494995117186 7.909840087890629 114.05494995117186 7.909840087890629 115.175048828125 7.534912109375 C119.37904705187223 6.738873728229876 123.72129947653193 7 128 7 C128 16.900000000000006 128 26.799999999999997 128 37 C85.75999999999999 37 43.519999999999996 37 0 37 C0 24.789999999999992 0 12.579999999999998 0 0 Z " fill="#84546B" transform="translate(0,91)"/>
<path d="M0 0 C9.197604790419163 0.7664670658682624 9.197604790419163 0.7664670658682624 12 4 C13.553067610062712 8.505038030659861 14.19971969690836 12.568245292758991 14.480712890625 17.306884765625 C15.110184675794955 27.14730747829035 17.781030574460623 36.78103057446062 25 44 C24.90689595234548 46.636946898085824 24.75563660606045 49.24504878770574 24.5625 51.875 C24.462888132502002 53.433469985773456 24.365231829699937 54.99206619594162 24.26953125 56.55078125 C24.2226416015625 57.31342285156251 24.175751953125 58.076064453125 24.12744140625 58.86181640625 C23.38741472013838 71.277819695456 25.039267029392363 78.31315340793375 33 88 C26.22865890862755 88.44624883983256 20.15853717511365 86.78149822246395 13.625 85.125 C11.450680552865556 84.58529362891794 9.276203915248388 84.04622009677044 7.1015625 83.5078125 C6.069345703124995 83.250322265625 5.037128906250004 82.99283203125 3.9736328125 82.7275390625 C-0.004694062707677915 81.75418815214542 -3.9974590833637222 80.86791939876534 -8 80 C-7.884267338902447 78.14523182609442 -7.756918847711162 76.29118725663105 -7.625 74.4375 C-7.520585937500002 72.88869140624999 -7.520585937500002 72.88869140624999 -7.4140625 71.30859375 C-7 68 -7 68 -5.98828125 64.5859375 C-3.8280771159071634 56.74772645218488 -3.429418197462695 47.10242940444783 -7.125 39.6875 C-8.05622727435044 38.10869513831391 -9.016247073241281 36.54662186938871 -10 35 C-11.139608676039956 33.02920884923366 -12.264561682419348 31.04987325062332 -13.375 29.0625 C-13.898359374999998 28.1666015625 -14.42171875 27.270703124999997 -14.9609375 26.34765625 C-16 24 -16 24 -15 21 C-13.846273511240891 19.88020664326322 -12.69150111411426 18.761469092028214 -11.53125 17.6484375 C-6.758928043629908 12.51088682247914 -2.859255063004099 6.391276023185636 0 0 Z " fill="#C39EE7" transform="translate(44,18)"/>
<path d="M0 0 C25.409999999999997 0 50.81999999999999 0 77 0 C79 5.999999999999992 79 5.999999999999992 79 10 C79.66 10 80.32 10 81 10 C81.6964067306566 12.122097762945003 82.38188357185335 14.247785265250144 83.0625 16.375 C83.4453515625 17.558359375 83.828203125 18.74171875 84.22265625 19.9609375 C85 23.00000000000001 85 23.00000000000001 84 25 C83.39341552734375 24.9195947265625 82.7868310546875 24.839189453125 82.161865234375 24.75634765625 C69.593512051599 23.103826680703538 57.05120135514319 21.615557388203076 44.402099609375 20.73486328125 C39.818116099393414 20.385943608689388 36.25479236952413 19.81181385368916 32 18 C29.018647363077477 17.7215325190755 29.018647363077477 17.7215325190755 25.875 17.8125 C24.738046874999995 17.825390625 23.601093750000004 17.83828125 22.4296875 17.8515625 C19.25215690194942 17.989086603332485 16.155437485764224 18.30269055051656 13 18.6875 C9.515558050317697 19.052681689049674 8.236054394013987 19.101166168863138 4.9375 17.6875 C1.2330322642536338 14.461028101124134 0.5464399263528215 12.917959337175395 0 8 C0 5.359999999999999 0 2.7199999999999998 0 0 Z " fill="#7060AF" transform="translate(15,0)"/>
<path d="M0 0 C0.6690234375000017 0.27714843750000284 1.3380468750000034 0.5542968749999986 2.02734375 0.83984375 C5.502488262167347 2.1961090852348235 9.022600292106688 3.389494885388352 12.5625 4.5625 C13.221855468749993 4.783574218749997 13.8812109375 5.004648437500002 14.560546875 5.232421875 C17.6943915936495 6.274937052761793 20.79289983368301 7.198224958420752 24 8 C24 20.210000000000008 24 32.42 24 45 C19.379999999999995 45.66 14.759999999999991 46.31999999999999 10 47 C6.998172377983977 47.81130476270704 4.1199518809902855 48.6376920802696 1.1875 49.625 C-4.743374554210462 51.50578304960425 -9.720266532284938 52.57088486070137 -16 52 C-14.015342291465757 50.99438102714893 -12.031250026721224 50.013977062732735 -10 49.10546875 C-5.614251533486126 47.092478731189914 -2.431737954857198 45.356863835785816 0 41 C0.5733509040906029 36.98654367136578 0.5945386158030033 34.91021030943173 -1.640625 31.48828125 C-4.314024944280533 28.668818063730626 -6.741400234437336 27.327389020860807 -10.25 25.6875 C-11.866484374999999 24.919863281250002 -11.866484374999999 24.919863281250002 -13.515625 24.13671875 C-14.335468750000004 23.761601562500005 -15.155312499999994 23.386484374999995 -16 23 C-15.340000000000003 22.67 -14.680000000000007 22.340000000000003 -14 22 C-14 21.340000000000003 -14 20.680000000000007 -14 20 C-13.340000000000003 20 -12.680000000000007 20 -12 20 C-11.740898437499993 19.440546874999995 -11.481796875 18.881093750000005 -11.21484375 18.3046875 C-9.85911531595508 15.732726805188108 -8.2676601658886 13.479221132259099 -6.5625 11.125 C-3.9982887582238504 7.51373583449859 -1.80650445175948 4.0380687745212 0 0 Z " fill="#9173B8" transform="translate(104,53)"/>
<path d="M0 0 C13.659692635423006 2.1014911746804614 13.659692635423006 2.1014911746804614 18.96875 4.33984375 C22.338322647097932 5.434954860306831 25.76931450212267 5.572303825643914 29.2890625 5.7890625 C32.23398818332153 6.018206573342027 35.09360414957589 6.480087545818563 38 7 C38.028959757773706 10.124980631150578 38.04678483354488 13.249926899211673 38.0625 16.375 C38.07087890625 17.264453125000003 38.0792578125 18.153906250000006 38.087890625 19.0703125 C38.09111328125 19.921093749999997 38.0943359375 20.771874999999994 38.09765625 21.6484375 C38.10289306640625 22.4339599609375 38.1081298828125 23.219482421875 38.113525390625 24.02880859375 C38 26 38 26 37 28 C36.80125184558862 29.349831215377293 36.6379563609468 30.705107948541325 36.5 32.0625 C36 36 36 36 35 37 C32.40665851838303 37.088506700106564 29.83937420997729 37.115331697776355 27.24609375 37.09765625 C26.559063720703126 37.096649169921875 25.87203369140625 37.09564208984375 25.1641845703125 37.0946044921875 C22.588606158604374 37.08935775975161 20.013051467367656 37.075396588638824 17.4375 37.0625 C11.683125 37.041875000000005 5.928749999999999 37.02125000000001 0 37 C0 24.789999999999992 0 12.579999999999998 0 0 Z " fill="#8C4773" transform="translate(0,91)"/>
<path d="M0 0 C3.4652022743768995 4.652354905413432 4.6063439559529655 9.23973241844682 4 15 C3.518234522973266 17.253682570497944 2.986906268775474 19.49249367114301 2.453125 21.734375 C1.302540377403961 27.4872981129802 1.8083838369150769 32.52095959228768 4 38 C3 39 3 39 0.953125 39.01953125 C-5.746549944175715 38.50640585687671 -11.657948012713181 37.01964095295054 -18.03125 34.91796875 C-21.382470894831222 33.881735973308764 -24.527567854054062 33.394594562039316 -28 33 C-29 32 -29 32 -29.113525390625 29.683349609375 C-29.10828857421875 28.683117675781247 -29.1030517578125 27.682885742187494 -29.09765625 26.65234375 C-29.09443359375 25.57275390625 -29.0912109375 24.4931640625 -29.087890625 23.380859375 C-29.07951171875 22.24455078125 -29.0711328125 21.108242187499997 -29.0625 19.9375 C-29.05798828125 18.797324218749992 -29.0534765625 17.6571484375 -29.048828125 16.482421875 C-29.036997474839723 13.654896486693687 -29.020514095771738 10.827473600292251 -29 8 C-27.847698974609376 7.815341796875003 -27.847698974609376 7.815341796875003 -26.672119140625 7.626953125 C-23.06289017299514 6.780128091754364 -21.205800113272968 4.9333319493581556 -18.4375 2.5 C-12.12439325398806 -3.0338189507344637 -7.544035470129916 -4.514540911258848 0 0 Z " fill="#7860B6" transform="translate(29,59)"/>
<path d="M0 0 C4.007541669603668 1.3358472232012275 5.374762355141456 3.7689382832510177 8 7 C8.659999999999997 7.329999999999998 9.319999999999993 7.659999999999997 10 8 C10 8.659999999999997 10 9.319999999999993 10 10 C10.906210937499992 10.146953124999996 11.812421874999998 10.293906249999992 12.74609375 10.4453125 C21.47972293731688 12.053409302744058 28.762821891692724 14.063104405917215 34.703125 20.984375 C36.76146848301657 24.183487160351063 36.56774159439743 26.278138436727914 36 30 C33.47457879979066 34.907119242683194 29.86256680369776 37.3708903945211 24.8125 39.375 C22.889557867091213 39.96627200277196 20.95065405280961 40.50780309424459 19 41 C18.039648437500006 41.244921875 17.079296874999997 41.489843750000006 16.08984375 41.7421875 C12.08970891212185 42.45747983689705 9.322064436447477 42.89504727358032 5.859375 40.55078125 C-0.7389511710464802 33.49500809650702 -2.500401860714561 25.85514125901399 -2.3125 16.4375 C-2.315722656250003 15.626035156249998 -2.3189453125000057 14.814570312499995 -2.322265625 13.978515625 C-2.277680726756401 8.956634813743761 -1.6036634273242072 4.759877503412497 0 0 Z " fill="#9997DB" transform="translate(69,64)"/>
<path d="M0 0 C2.8053859713994598 2.717717659793223 2.9390607815763303 5.206665627617198 3 8.9375 C2.9594815343170353 10.750026031550945 2.9177351970264453 12.56252487905455 2.875 14.375 C2.8253890975163074 23.453795154515404 6.342164237843178 29.052884315304325 12 35.9375 C5.228658908627551 36.38374883983258 -0.8414628248863352 34.718998222463966 -7.375 33.0625 C-9.549319447134444 32.522793628917924 -11.723796084751612 31.98372009677044 -13.8984375 31.4453125 C-14.930654296874998 31.187822265625 -15.962871093749996 30.930332031250003 -17.0263671875 30.6650390625 C-21.00469406270767 29.691688152145417 -24.997459083363722 28.805419398765338 -29 27.9375 C-28.634191957887772 20.482584383161125 -27.790803489905095 13.88818038995231 -25 6.9375 C-24.009999999999998 6.9375 -23.019999999999996 6.9375 -22 6.9375 C-21.7434765625 6.323906249999993 -21.486953125 5.710312500000001 -21.22265625 5.078125 C-17.098725859569505 -2.1420470573671366 -7.033521515242924 -2.491038869981864 0 0 Z " fill="#BA9DCD" transform="translate(65,70.0625)"/>
<path d="M0 0 C0.375117187499999 0.7734375 0.7502343750000016 1.546875 1.13671875 2.34375 C3.853894506249951 7.873921312468411 6.607117831138595 13.243721008024096 10.01953125 18.37890625 C12.401485921678628 22.31719783863199 12.183449123916851 26.310239812867366 12.1875 30.75 C12.19974609375 31.440937500000004 12.211992187500002 32.13187500000001 12.224609375 32.84375 C12.237929258542984 37.5678686965784 11.432252565685573 41.460129321314 10 46 C9.59583608177855 47.973417650081274 9.218077643781605 49.952550775263575 8.875 51.9375 C8.707421875000001 52.89527343750001 8.539843750000003 53.85304687499999 8.3671875 54.83984375 C8.185429687499997 55.90912109375 8.185429687499997 55.90912109375 8 57 C6.68 56.67 5.359999999999999 56.34 4 56 C1.197010294422686 48.58032136758946 2.0927612536918616 41.581668074167055 4 34 C4.393947476037006 28.681709073500386 3.5852637916883126 25.631930960108235 1 21 C1 20.340000000000003 1 19.68 1 19 C-4.0995175526207035 17.392669070715925 -8.214089236697944 16.21256112193531 -13.23828125 18.80078125 C-16.127076984130298 20.767212049064305 -18.67039289018602 23.075532459896344 -21.203125 25.4765625 C-23 27 -23 27 -26 28 C-26.66 27.67 -27.32 27.340000000000003 -28 27 C-28 19.409999999999997 -28 11.82 -28 4 C-19.045603082528707 1.015201027509569 -9.412544020325164 -0.09995621968487 0 0 Z " fill="#9480CB" transform="translate(28,40)"/>
<path d="M0 0 C0 15.18 0 30.36 0 46 C-5.730706089116765 45.2836617388604 -9.567599729340472 44.708897709962216 -14.75 42.75 C-15.837968750000002 42.35296875 -16.925937500000003 41.9559375 -18.046875 41.546875 C-21.54494111694359 39.71455465302955 -23.053172446776543 38.44760392480145 -25 35 C-25.530968631225207 31.938691202039458 -25.51460883467078 28.97427767741241 -25.4375 25.875 C-25.444589843749995 25.0641796875 -25.451679687500004 24.253359375000002 -25.458984375 23.41796875 C-25.395342750534454 17.494402165129443 -25.395342750534454 17.494402165129443 -23.597900390625 15.24658203125 C-22 14 -22 14 -20 14 C-20 13.34 -20 12.68 -20 12 C-19.340000000000003 12 -18.680000000000007 12 -18 12 C-18 11.34 -18 10.68 -18 10 C-17.340000000000003 10 -16.680000000000007 10 -16 10 C-16 9.34 -16 8.68 -16 8 C-11.573630519086805 3.865725967065849 -6.279102266503116 0 0 0 Z " fill="#A19EDA" transform="translate(128,15)"/>
<path d="M0 0 C0 6.269999999999996 0 12.540000000000006 0 19 C-17.49000000000001 19 -34.980000000000004 19 -53 19 C-50.57612921579164 10.516452255270735 -50.57612921579164 10.516452255270735 -46 7 C-42.60595703125 5.8974609375 -42.60595703125 5.8974609375 -38.7578125 5.234375 C-38.071215515136714 5.110645141601566 -37.38461853027344 4.986915283203132 -36.677215576171875 4.85943603515625 C-34.495932597353146 4.4709684460146235 -32.311101429192846 4.1102455635471244 -30.125 3.75 C-28.6650487762938 3.4939819163756027 -27.20540829140768 3.2361851183906936 -25.74609375 2.9765625 C-21.835309264952755 2.2880585560836124 -17.921055710472984 1.6279140143224993 -14 1 C-12.834526367187493 0.8095410156250011 -11.669052734375 0.6190820312500023 -10.46826171875 0.4228515625 C-7 0 -7 0 0 0 Z " fill="#5C163F" transform="translate(128,109)"/>
<path d="M0 0 C11.879999999999995 0 23.760000000000005 0 36 0 C36 4.95 36 9.9 36 15 C34.61812499999999 15.5775 33.23625 16.155 31.8125 16.75 C28.05040771028297 18.406267045787374 25.145576161504138 20.331026287208612 22 23 C21.340000000000003 23 20.680000000000007 23 20 23 C20 23.66 20 24.32 20 25 C19.340000000000003 25 18.680000000000007 25 18 25 C18 25.66 18 26.32 18 27 C17.340000000000003 27 16.680000000000007 27 16 27 C16 27.66 16 28.32 16 29 C13.499999999999986 30.625000000000007 13.499999999999986 30.625000000000007 11 32 C7.921454744356623 26.356000364653802 6.139672127095054 21.31018461949468 5 15 C4.690624999999997 13.4840625 4.690624999999997 13.4840625 4.375 11.9375 C4.251249999999999 11.298125 4.127499999999998 10.65875 4 10 C3.3400000000000034 10 2.680000000000007 10 2 10 C0.26265853104722225 6.1995655366658 0 4.402854231926094 0 0 Z " fill="#7B7BB7" transform="translate(92,0)"/>
<path d="M0 0 C0 3.6299999999999955 0 7.260000000000005 0 11 C-2.3203125 11.380917968749998 -2.3203125 11.380917968749998 -4.6875 11.76953125 C-6.791731407581338 12.116795432753491 -8.895893370258506 12.464480575322156 -11 12.8125 C-12.635578613281254 13.082719726562502 -12.635578613281254 13.082719726562502 -14.30419921875 13.3583984375 C-21.81623357960082 14.60948153665423 -29.29357749322409 15.975475880350672 -36.7578125 17.484375 C-40.00853647612861 18.00135760825178 -42.72820819330664 18.418062286410816 -46 18 C-48.1171875 16.03125 -48.1171875 16.03125 -49.875 13.5 C-50.768320312499995 12.247031249999992 -50.768320312499995 12.247031249999992 -51.6796875 10.96875 C-52.333242187500005 9.994218750000002 -52.333242187500005 9.994218750000002 -53 9 C-49.215758729408066 6.5230420774307305 -45.41646845011692 6.794842476448508 -41.0625 6.75 C-32.7241585720129 6.509868160775355 -25.32992858595651 4.712283564917499 -17.433837890625 2.0830078125 C-11.39696319444188 0.13467661470984638 -6.349889849778577 -0.2664685919103533 0 0 Z " fill="#764D81" transform="translate(128,98)"/>
<path d="M0 0 C9.240000000000002 0 18.480000000000004 0 28 0 C28.33 3.3000000000000003 28.659999999999997 6.6000000000000005 29 10 C29.31846487764924 12.335409102761101 29.645404812518755 14.669803053694668 30 17 C8.29297820823244 20.2227602905569 8.29297820823244 20.2227602905569 2.5 16.3125 C-0.8055468781532618 11.216448562847056 0 6.002799174140863 0 0 Z " fill="#6C5B85" transform="translate(15,0)"/>
</svg>
