<?xml version="1.0" encoding="UTF-8"?>
<!-- Generator: visioncortex VTracer 0.6.0 -->
<svg version="1.1" xmlns="http://www.w3.org/2000/svg" width="128" height="128">
<path d="M0 0 C42.24 0 84.48 0 128 0 C128 42.24 128 84.48 128 128 C85.75999999999999 128 43.519999999999996 128 0 128 C0 85.75999999999999 0 43.519999999999996 0 0 Z " fill="#6E989C" transform="translate(0,0)"/>
<path d="M0 0 C2.6618371740867985 2.190491447694871 5.090491407043899 4.608373299686981 7.548828125 7.021484375 C12.392143395165604 11.64840973821996 16.43997611983123 13.687995223966247 23 15 C23 43.379999999999995 23 71.76 23 101 C-19.24000000000001 101 -61.480000000000004 101 -105 101 C-105 86.81 -105 72.62 -105 58 C-96.53975779895595 58 -90.8872562679668 59.04978455739885 -84 64 C-84 64.66 -84 65.32 -84 66 C-83.4083203125 66.074765625 -82.816640625 66.14953125 -82.20703125 66.2265625 C-76.95791591633842 67.09998788994042 -74.63781393022269 67.93680902501566 -71.41796875 72.3984375 C-67.86205106445465 76.41476326053332 -62.712537879230474 78.80042889477133 -57.3984375 79.19140625 C-51.11575371335049 78.73734798223329 -44.953989758117466 77.21229469739309 -38.82421875 75.81640625 C-35.36019114441147 75.07689473869459 -31.909888173638066 74.47886458230006 -28.4140625 73.922119140625 C-21.52455766474108 72.80937345835127 -15.033324667785067 71.69053053791446 -9 68 C-8.310351562500003 67.5913671875 -7.620703125000006 67.182734375 -6.91015625 66.76171875 C-4.038822244200674 64.74325623107175 -2.3674201272304174 63.111878709629195 -1.25390625 59.7421875 C-0.8144927706632217 55.429175195125154 -1.399771459423377 52.88202004488943 -3.85546875 49.2734375 C-9.190682932229834 43.2143500367641 -14.687283839483783 38.51232284837559 -21.9375 34.9375 C-27.93852665039377 31.797030990692676 -33.050200730688886 28.069665864662028 -38.241943359375 23.732177734375 C-45.758739403530235 17.51430874611163 -53.52686098526371 16.45536464310473 -63.1640625 17.15771484375 C-67.79710848510706 17.630907040399656 -72.39866439167739 18.28528676687158 -77 19 C-76.72348823735229 12.0042524050127 -76.11247683774397 7.112476837743962 -71 2 C-65.12190208064818 1.522922724451366 -59.366538058219625 2.0000832109797315 -53.5546875 2.90234375 C-51.909199218750004 3.152744140625 -51.909199218750004 3.152744140625 -50.23046875 3.408203125 C-47.9815139137602 3.762956769133286 -45.73648338744215 4.143485953601505 -43.49609375 4.548828125 C-37.22779807934701 5.51662377287056 -37.22779807934701 5.51662377287056 -31.370361328125 3.57470703125 C-29.012159756046827 1.7514284919395031 -29.012159756046827 1.7514284919395031 -27.010498046875 -0.236083984375 C-18.85682996048712 -7.389727205279968 -8.342441873958165 -5.5763053749464575 0 0 Z " fill="#6BA4BA" transform="translate(105,27)"/>
<path d="M0 0 C3.485720959354765 2.7867932198231244 7.317865700180164 4.784602164000745 11.25390625 6.859375 C19.48677814357133 11.239573155861208 25.950452167094937 16.560443875642406 31.19140625 24.421875 C32.00421463227663 27.915089650547642 32.01434137864646 30.928282472727247 31.19140625 34.421875 C25.578051741263295 42.517794156335256 16.657026557828928 45.21422591184623 7.43603515625 46.9365234375 C2.233406811173552 47.85205358064313 -2.978054363316275 48.690035617190986 -8.19921875 49.4921875 C-11.611655941635043 50.024709790162035 -14.927110684263567 50.65541805499289 -18.265625 51.5390625 C-23.77306541529144 52.911368491020795 -28.081097487199756 52.728617582499155 -33.23828125 50.2578125 C-40.94976185898682 45.52978996268678 -43.50635307673261 40.14991213158291 -45.6953125 31.5625 C-46.151609616173886 29.60328041694669 -46.607596035326836 27.643933112489833 -47.046142578125 25.6806640625 C-47.492652250209964 23.687239438563424 -47.958713790760434 21.69917158651947 -48.427734375 19.7109375 C-50.12796485797077 12.28498554374255 -51.3922681510727 5.032982608074377 -51.80859375 -2.578125 C-51.14859375 -2.578125 -50.48859375 -2.578125 -49.80859375 -2.578125 C-49.58171875 -3.176249999999996 -49.35484375 -3.774374999999999 -49.12109375 -4.390625 C-47.40878275082626 -7.244476665289561 -45.768180795652206 -8.067630366741824 -42.80859375 -9.578125 C-25.242206551354386 -13.925362236028462 -13.368511776959714 -11.379039231570715 0 0 Z " fill="#305EAE" transform="translate(72.80859375,54.578125)"/>
<path d="M0 0 C11.55 0 23.1 0 35 0 C34.01 2.97 33.02 5.94 32 9 C30.16389957057731 16.48168025447003 29.49631384266732 21.98859234646942 32.453125 29.16015625 C33 31.000000000000004 33 31.000000000000004 31.8125 33.4375 C30.9153125 34.7059375 30.9153125 34.7059375 30 36 C29.65997825427227 37.636527426592 29.373428822031574 39.2845874415325 29.125 40.9375 C28.234762222160175 45.984695537074934 26.70394368672973 48.48125349760676 23 52 C22.34 52 21.68 52 21 52 C23.346427413183747 63.351989607916906 25.79897686103464 74.67232376504292 28.424560546875 85.96337890625 C28.62992431640625 86.8533154296875 28.8352880859375 87.743251953125 29.046875 88.66015625 C29.230888671875 89.45043212890624 29.41490234375 90.2407080078125 29.6044921875 91.054931640625 C30 92.99999999999999 30 92.99999999999999 30 95 C28.559895190471078 94.74337754966466 27.122931297790267 94.4690917856909 25.6875 94.1875 C24.48673828125 93.96126953125 24.48673828125 93.96126953125 23.26171875 93.73046875 C20.71934447805615 92.90935650672971 19.78005501847141 91.93872287527108 18 90 C13.25220743388547 87.53114786562044 9.24278870468505 86.59586424371217 3.91796875 86.2109375 C2.0000000000000053 86 2.0000000000000053 86 0 85 C0 56.95 0 28.9 0 0 Z " fill="#7B7B95" transform="translate(0,0)"/>
<path d="M0 0 C2.6618371740867843 2.1904914476948605 5.090491407043913 4.6083732996869955 7.548828125 7.021484375 C12.392143395165618 11.648409738219968 16.439976119831215 13.68799522396624 23 15 C23 23.58 23 32.16 23 41 C9.639683912357555 39.886640326029806 -1.3828351234248828 38.44596551531231 -12 30 C-12.620039062499998 29.529492187499997 -13.240078124999997 29.058984375 -13.87890625 28.57421875 C-15.30815387185848 27.450054147192525 -16.66385033603109 26.233368920586685 -18 25 C-18 24.340000000000003 -18 23.68 -18 23 C-18.659999999999997 23 -19.319999999999993 23 -20 23 C-21.336196212622383 21.34229079140445 -22.594621391237638 19.6214798404814 -23.8125 17.875 C-26.729836633039753 13.756719689242601 -29.700095106314876 9.815515033323422 -33 6 C-31.526166707389535 1.8732667806906989 -28.789596123091002 -0.0974044155674818 -25 -2 C-15.561788296198046 -5.851042902554646 -8.686625842228068 -5.806366901443283 0 0 Z " fill="#A7C4D3" transform="translate(105,27)"/>
<path d="M0 0 C1.5732797025606828 2.667735147820281 2.1908045033979704 4.073235269209832 1.5625 7.125 C-2.7938701487107096 12.352644178452863 -12.002877420163529 13.460479865982123 -18.328125 15.10546875 C-21.922905732933174 16.06529965998385 -25.345498621332368 17.076713025898556 -28.74609375 18.59765625 C-33.18617567210127 20.511208963126478 -37.173295768349206 21.224125569628896 -42 21 C-48.99807726468838 18.173853412337394 -52.0601470230109 11.203014783476391 -55.078125 4.6640625 C-57.11960453890502 -0.62522539625391 -57.734319947990436 -5.520400164324698 -56 -11 C-42.939879242320785 -28.537876446026374 -13.349702118362018 -8.899801412241345 0 0 Z " fill="#16328A" transform="translate(86,75)"/>
<path d="M0 0 C9.03076923076923 0 9.03076923076923 0 12.1875 1.3125 C13.10595703125 1.6779492187500011 13.10595703125 1.6779492187500011 14.04296875 2.05078125 C15.01169921875 2.5206445312499994 15.01169921875 2.5206445312499994 16 3 C16.8366015625 3.373828125000003 17.673203125 3.7476562500000057 18.53515625 4.1328125 C21.88552624368406 6.670810688559399 22.846257854780845 9.74643357889012 24.25 13.5625 C26.86678064518974 20.116954499699546 29.906586885236017 24.74441200503412 34.91015625 29.81640625 C38.507608045195276 33.57523906030684 42 37.666599548812 42 43 C28.14 43 14.279999999999998 43 0 43 C0 28.810000000000002 0 14.620000000000005 0 0 Z " fill="#A8A0A8" transform="translate(0,85)"/>
<path d="M0 0 C1.8861301964595611 1.654553629527527 3.6586236221356216 3.3375476755803746 5.41796875 5.12109375 C4.861416015624997 4.9796191406250045 4.304863281249993 4.838144531249995 3.7314453125 4.6923828125 C-3.815434167562131 2.9615587801923198 -11.11354948972697 2.8223454441456397 -18.83203125 2.87109375 C-20.072109374999997 2.8633593750000017 -21.3121875 2.8556250000000034 -22.58984375 2.84765625 C-24.3880859375 2.851523437499999 -24.3880859375 2.851523437499999 -26.22265625 2.85546875 C-27.300634765625 2.8577246093749977 -28.378613281249997 2.8599804687500026 -29.4892578125 2.8623046875 C-32.805640461608014 3.1398043408039555 -35.474486138942794 3.9561722190436583 -38.58203125 5.12109375 C-39.57203125 5.451093749999998 -40.562031250000004 5.781093749999997 -41.58203125 6.12109375 C-43.861185539711876 11.5910640453085 -44.16845320760646 16.40162511336618 -42.58203125 22.12109375 C-41.53534667138727 24.633684741067725 -40.46448760039904 27.057529030732837 -39.26953125 29.49609375 C-38.97377197265625 30.10332275390624 -38.6780126953125 30.71055175781251 -38.373291015625 31.336181640625 C-36.54467624254867 34.8655808962981 -34.768008107369994 36.82831570253285 -31.58203125 39.12109375 C-31.58203125 40.11109375000001 -31.58203125 41.10109374999999 -31.58203125 42.12109375 C-30.88078125 42.38921875 -30.179531249999997 42.657343749999995 -29.45703125 42.93359375 C-26.58203124999997 44.121093750000014 -26.58203124999997 44.121093750000014 -23.64453125 45.68359375 C-20.55915896827907 47.13182971897105 -17.949686655767046 47.720182392170585 -14.58203125 48.12109375 C-14.58203125 48.78109375 -14.58203125 49.44109374999999 -14.58203125 50.12109375 C-21.439282076742217 52.240607641902145 -27.338281306143585 53.15427298355179 -34.01171875 49.95703125 C-41.72319935898682 45.22900871268678 -44.27979057673261 39.84913088158291 -46.46875 31.26171875 C-46.925047116173886 29.30249916694669 -47.381033535326836 27.343151862489833 -47.819580078125 25.3798828125 C-48.266089750209964 23.386458188563424 -48.732151290760434 21.39839033651947 -49.201171875 19.41015625 C-50.90140235797077 11.98420429374255 -52.1657056510727 4.732201358074377 -52.58203125 -2.87890625 C-51.92203125 -2.87890625 -51.26203125 -2.87890625 -50.58203125 -2.87890625 C-50.35515625 -3.477031249999996 -50.12828125 -4.075156249999999 -49.89453125 -4.69140625 C-48.18222025082626 -7.545257915289561 -46.541618295652206 -8.368411616741824 -43.58203125 -9.87890625 C-25.726017513558595 -14.297818740331458 -13.706057534066026 -11.463599601835199 0 0 Z " fill="#465E9D" transform="translate(73.58203125,54.87890625)"/>
<path d="M0 0 C7.510593806226765 0.0027236967565649195 14.879292854724262 0.5624887026082526 22.34130859375 1.3916015625 C23.489863281249995 1.5011718750000007 24.638417968749998 1.6107421875000014 25.82177734375 1.7236328125 C33.51762798695495 2.5747455146006644 37.185517350289075 3.7445002030238044 42.16943359375 9.8330078125 C43.182636718750004 11.254199218750003 43.182636718750004 11.254199218750003 44.21630859375 12.7041015625 C44.90208984374999 13.654140624999997 45.58787109375001 14.6041796875 46.29443359375 15.5830078125 C47.96630859375 18.1416015625 47.96630859375 18.1416015625 48.96630859375 21.1416015625 C49.62630859375 21.1416015625 50.28630859374999 21.1416015625 50.96630859375 21.1416015625 C52.121303484282905 22.296596453032905 53.2721528106628 23.456083115145958 54.39990234375 24.6376953125 C56.808956232188876 26.950627350028597 59.49632874208298 28.852648668079738 62.19677734375 30.8095703125 C63.966308593749986 32.14160156249999 63.966308593749986 32.14160156249999 65.96630859375 34.1416015625 C64.59513254419583 34.510295566935675 63.21906152051275 34.860800090649875 61.84130859375 35.2041015625 C60.692753906250005 35.49994140625 60.692753906250005 35.49994140625 59.52099609375 35.8017578125 C51.46004812192979 36.874085753705444 44.43278611630225 32.45669875154889 38.17822265625 27.814453125 C35.69777287470944 25.886082454941445 33.24277580818986 23.93262922980169 30.82568359375 21.92529296875 C23.24410820452026 15.69538669413236 15.50550749898862 14.592151822790598 5.80224609375 15.29931640625 C1.1692001086429187 15.772508602899656 -3.4323557979273787 16.42688832937158 -8.03369140625 17.1416015625 C-7.376458417559945 0.5136069486416268 -7.376458417559945 0.5136069486416268 0 0 Z " fill="#6E95C7" transform="translate(36.03369140625,28.8583984375)"/>
<path d="M0 0 C0.7824609375000051 0.14824218750000284 1.564921874999996 0.2964843750000057 2.37109375 0.44921875 C4.918626150759991 0.9460074396957907 7.458513888015943 1.4731065377594064 10 2 C13.299999999999997 2.6599999999999966 16.599999999999994 3.319999999999993 20 4 C20 15.549999999999997 20 27.099999999999994 20 39 C1.3487960339943328 39 1.3487960339943328 39 -3.3515625 35.24609375 C-6.0031603308292745 33.24168685892289 -8.793051096706705 32.73492579033805 -12 32 C-11.216250000000002 31.257499999999993 -10.432500000000005 30.515 -9.625 29.75 C-5.883205269474161 25.830024568020548 -4.259648704041041 22.90282400526098 -4.34375 17.2890625 C-5.548498127688163 13.086786292706776 -8.72692752991236 10.34217312595014 -11.73828125 7.296875 C-13.711914001744631 5.292564018953641 -15.376999086050859 3.2900595420123864 -17 1 C-11.053935184814748 -0.6654487098088353 -6.115567920522324 -1.2231135841044676 0 0 Z " fill="#577AA1" transform="translate(108,64)"/>
<path d="M0 0 C9.138461538461538 0 9.138461538461538 0 14.375 1.75 C15.393359375 2.0748437499999994 16.41171875 2.399687499999999 17.4609375 2.734375 C20 4 20 4 21.26953125 5.7421875 C22.193715225196694 8.598756150607962 22.77132140540855 11.420098471249126 23.3125 14.375 C24.79129257383118 22.219509015549946 26.563698338477934 29.987303957389443 28.374267578125 37.76123046875 C28.58462646484375 38.67146972656249 28.7949853515625 39.581708984375 29.01171875 40.51953125 C29.20209716796875 41.33526611328125 29.3924755859375 42.1510009765625 29.588623046875 42.991455078125 C30 45 30 45 30 47 C28.559895190471078 46.74337754966466 27.122931297790267 46.46909178569092 25.6875 46.1875 C24.8869921875 46.0366796875 24.086484375 45.885859374999995 23.26171875 45.73046875 C20.719344478056133 44.909356506729694 19.780055018471433 43.93872287527111 18 42 C13.252207433885474 39.531147865620454 9.242788704685047 38.59586424371217 3.91796875 38.2109375 C2.0000000000000053 38 2.0000000000000053 38 0 37 C0 24.789999999999992 0 12.579999999999998 0 0 Z " fill="#705B70" transform="translate(0,48)"/>
<path d="M0 0 C2.817940533109123 1.47169839486007 5.422452669878481 3.1422464721730563 8 5 C5.727424727647502 7.599626524122186 3.8548905767735846 8.60704476143593 0.5703125 9.61328125 C-0.7372802734375057 10.026586914062506 -0.7372802734375057 10.026586914062506 -2.0712890625 10.4482421875 C-2.996513671874993 10.733447265625003 -3.9217382812500006 11.018652343750006 -4.875 11.3125 C-12.295095535571647 13.681368659908216 -19.24550602481807 16.31787061119627 -26.26171875 19.703125 C-28.833677417973746 20.921228106658035 -31.392564708384654 22.0165666454147 -34.0625 23 C-34.7341015625 23.247500000000002 -35.405703125 23.495000000000005 -36.09765625 23.75 C-38.60648597426706 24.079702468897523 -39.87552481423148 23.28698719494217 -42 22 C-42 21.340000000000003 -42 20.680000000000007 -42 20 C-42.66 20 -43.32 20 -44 20 C-44 19.340000000000003 -44 18.680000000000007 -44 18 C-44.515625 17.773124999999993 -45.03125 17.54625 -45.5625 17.3125 C-48.92403126839551 15.50244470163318 -51.929111443527994 13.260035960100183 -55 11 C-46.62327614228005 5.415517428186703 -34.379121149694754 4.990814726967443 -24.630126953125 3.53369140625 C-20.073734598441362 2.822963430452745 -15.817073269543329 2.070112824075352 -11.515625 0.375 C-7.349064036027812 -1.2545882881313446 -4.1991315646790355 -1.3647177585206833 0 0 Z " fill="#5A95C8" transform="translate(103,97)"/>
<path d="M0 0 C10.89 0 21.78 0 33 0 C33 11.88 33 23.76 33 36 C30.36 35.01 27.72 34.02 25 33 C25 32.34 25 31.68 25 31 C24.010000000000005 30.67 23.019999999999996 30.34 22 30 C20.28158108524329 27.61168896593135 18.685194038730657 25.23787698067861 17.125 22.75 C14.095947677243217 17.94242154278052 11.077721110617262 14.006680673150063 7 10 C6.670000000000002 9.01 6.340000000000003 8.02 6 7 C4.066693974441193 5.908337247490303 4.066693974441193 5.908337247490303 2 5 C1.3400000000000034 4.34 0.6800000000000068 3.6799999999999997 0 3 C0 2.01 0 1.02 0 0 Z " fill="#477778" transform="translate(95,0)"/>
<path d="M0 0 C5.69990352257258 0.9660853428089098 8.05228719516731 1.58432288141897 11.52734375 6.4140625 C14.570126407373067 9.690905361786378 18.975055100810593 11.205355747695833 23 13 C28.111164030121557 15.351135453855917 32.827236441157055 18.197913407044126 37 22 C37 22.659999999999997 37 23.319999999999993 37 24 C37.66 24 38.32 24 39 24 C39 24.659999999999997 39 25.319999999999993 39 26 C39.99 26.33 40.98 26.659999999999997 42 27 C40.12500000000001 33.875 40.12500000000001 33.875 39 35 C37.584298768452335 35.08651610890652 36.164404995674744 35.10704903970645 34.74609375 35.09765625 C33.89208984375 35.09443359375001 33.0380859375 35.091210937499994 32.158203125 35.087890625 C31.260371093749995 35.079511718749984 30.362539062500005 35.0711328125 29.4375 35.0625 C28.535800781250003 35.057988281250005 27.6341015625 35.05347656250001 26.705078125 35.048828125 C24.46998686288208 35.03700224530627 22.235025633605787 35.02052220174946 20 35 C19.390917968750003 33.416386718750005 19.390917968750003 33.416386718750005 18.76953125 31.80078125 C17.26630351420915 28.29677236850509 15.380785801133314 25.917998731028078 12.6875 23.1875 C6.208690667927591 16.233859365088406 1.7420221570116468 9.406919647862907 0 0 Z " fill="#7C94AF" transform="translate(22,93)"/>
<path d="M0 0 C11.55 0 23.1 0 35 0 C31 12 31 12 28.5234375 13.53515625 C18.75945336500559 18.271778826653616 10.821289765596076 20.270474847263188 0 21 C0 14.07 0 7.139999999999999 0 0 Z " fill="#3C4964" transform="translate(0,0)"/>
</svg>
