<?xml version="1.0" encoding="UTF-8"?>
<!-- Generator: visioncortex VTracer 0.6.0 -->
<svg version="1.1" xmlns="http://www.w3.org/2000/svg" width="128" height="128">
<path d="M0 0 C42.24 0 84.48 0 128 0 C128 42.24 128 84.48 128 128 C85.75999999999999 128 43.519999999999996 128 0 128 C0 85.75999999999999 0 43.519999999999996 0 0 Z " fill="#C7BCBA" transform="translate(0,0)"/>
<path d="M0 0 C42.24 0 84.48 0 128 0 C128 42.24 128 84.48 128 128 C85.75999999999999 128 43.519999999999996 128 0 128 C0 85.75999999999999 0 43.519999999999996 0 0 Z M27 23 C26.414765625 23.605859375 25.829531250000002 24.21171875 25.2265625 24.8359375 C16.403369934447756 35.09233901021047 14.944302861894986 48.64377801694683 15.79931640625 61.5849609375 C17.58751979431871 83.35328923367044 17.58751979431871 83.35328923367044 28 102 C28.66 102 29.32 102 30 102 C30 102.66 30 103.32 30 104 C40.168258053967165 108.78406694848964 40.168258053967165 108.78406694848964 50.55859375 113.0546875 C52.234991548208555 113.70378872746635 53.89388168747608 114.39942325018191 55.53515625 115.1328125 C66.84324812790643 119.89586739997237 79.58707918140038 119.32903893119295 91 115 C102.5276406771789 109.44965448876572 106.63793832154819 99.54341774582197 110.797119140625 88.08447265625 C112.91857742846696 81.83928084260286 113.88348259741528 76.59213938071399 113 70 C112.9136328125 68.9287890625 112.827265625 67.857578125 112.73828125 66.75390625 C111.13688621155303 51.308192814656685 104.04534902675339 33.353435429401635 91.875 23.0625 C71.54442397116202 9.023028791274466 45.44353165543241 2.946851036457126 27 23 Z " fill="#6F594D" transform="translate(0,0)"/>
<path d="M0 0 C11.158072282889094 8.432241839352265 17.976765974088195 26.453441345768724 20.0859375 39.85546875 C20.370326803804247 42.09712561528056 20.569378207715943 44.3502827832678 20.7109375 46.60546875 C20.764916992187494 47.42829345703126 20.818896484375003 48.25111816406249 20.87451171875 49.098876953125 C21.13774945265125 56.219520630688265 19.75041033667189 61.72867657965379 17.0859375 68.29296875 C16.754648437499995 69.17791015625 16.423359375000004 70.0628515625 16.08203125 70.974609375 C12.082193309564019 81.18551641916959 6.82487835953178 88.0232958419558 -3.2890625 92.60546875 C-16.251680436283863 97.10667831719039 -29.12347223233302 95.11738667062582 -41.2890625 89.60546875 C-42.94185403679944 88.90763096237818 -44.596978304657114 88.21530248850878 -46.25390625 87.52734375 C-49.63872469983622 86.12132278764741 -53.020291134180354 84.70858739962017 -56.39453125 83.27734375 C-57.44870239257813 82.8302001953125 -57.44870239257813 82.8302001953125 -58.524169921875 82.3740234375 C-59.79539661504426 81.82044457042339 -61.04891190672517 81.22554404663741 -62.2890625 80.60546875 C-62.2890625 79.94546875 -62.2890625 79.28546875 -62.2890625 78.60546875 C-63.2790625 78.27546875 -64.2690625 77.94546875 -65.2890625 77.60546875 C-66.82153096767561 75.28204881513697 -68.06587574869495 73.08862982407793 -69.2890625 70.60546875 C-69.631953125 69.950625 -69.97484374999999 69.29578125 -70.328125 68.62109375 C-77.43241997573526 53.327878611394354 -79.43266509017761 30.59202555631947 -74.1640625 14.48046875 C-71.97722960217058 8.7185326315618 -69.48770518444556 4.103277620806541 -65.2890625 -0.39453125 C-64.7541015625 -1.0184374999999974 -64.219140625 -1.642343750000002 -63.66796875 -2.28515625 C-59.45828452031381 -6.912892262310919 -55.14456616372247 -9.30627815128894 -49.2890625 -11.39453125 C-48.175312500000004 -11.80703125 -47.0615625 -12.21953125 -45.9140625 -12.64453125 C-29.32333219820113 -16.07709614002735 -13.894518570371588 -8.46474936795675 0 0 Z M-58.2890625 11.60546875 C-58.2890625 12.265468749999997 -58.2890625 12.92546875 -58.2890625 13.60546875 C-58.9490625 13.60546875 -59.6090625 13.60546875 -60.2890625 13.60546875 C-65.61068820199245 23.140048132736467 -63.35544720393802 34.17678670587827 -62.0693359375 44.57470703125 C-61.30535583120863 50.87687742025636 -60.93509908124023 57.15767973658325 -60.806884765625 63.504638671875 C-60.58186610944911 69.7253620964436 -59.11066088151776 74.36750502413533 -55.1015625 79.29296875 C-46.40580606627268 86.44281292884246 -35.659555198996635 89.23609931145928 -24.53515625 88.9609375 C-19.374280355099643 88.39578743208672 -14.982701410608058 86.7560910804233 -10.2890625 84.60546875 C-9.631640625000003 84.3515234375 -8.974218750000006 84.097578125 -8.296875 83.8359375 C-2.1353557674895995 81.05640771288975 0.4567513278066144 75.22322172094435 3.7109375 69.60546875 C4.480454739435558 68.43015787375491 5.255386861734607 67.2583779338101 6.03515625 66.08984375 C10.20640911412454 59.96012847436644 10.20640911412454 59.96012847436644 11.72265625 52.890625 C10.301884859089753 48.12032552549131 7.68507865684461 44.608153179615925 3.7109375 41.60546875 C-1.4442615391597542 38.97255593600854 -6.569127286539498 38.11617725120183 -12.2890625 37.60546875 C-14.443319664665879 25.333896686992574 -14.443319664665879 25.333896686992574 -14.2265625 19.29296875 C-14.134751359763968 13.628221397436931 -15.210666152541691 9.307384001695794 -18.6953125 4.77734375 C-21.785940785770833 1.6575585936086874 -24.441000022296976 0.1863746902549508 -28.8515625 -0.08203125 C-39.084035660415275 0.5876739948978056 -50.23892663097897 5.280361995769194 -58.2890625 11.60546875 Z " fill="#A78F82" transform="translate(92.2890625,23.39453125)"/>
<path d="M0 0 C42.24 0 84.48 0 128 0 C128 22.11 128 44.22 128 67 C120.89212529637031 65.81535421606172 116.19487586450661 64.06286855554308 111 59 C108.84953871769103 55.21620963884676 107.64058246284048 51.07768357758948 106.32421875 46.94921875 C104.67396981071343 41.77450078601786 102.03702170353915 37.4747607014912 99 33 C98.5978125 32.306484375 98.195625 31.61296875 97.78125 30.8984375 C91.0606572854069 20.284818517807246 75.13921184977441 14.173349159397574 63.4375 11.390625 C54.782183450434395 10.003555040133717 47.47174792619838 11.411266736558296 39.1640625 14.02734375 C36 15 36 15 33.34765625 15.50390625 C25.687905249809415 17.122522517927127 19.983929641891727 22.604273054663683 14.42578125 27.7734375 C12.217863566582466 29.800028610383244 9.984174657491971 31.715428190238196 7.625 33.5625 C7.019140625 34.0381640625 6.41328125 34.513828125 5.7890625 35.00390625 C3.999999999999997 36 3.999999999999997 36 0 36 C0 24.119999999999997 0 12.239999999999998 0 0 Z " fill="#695553" transform="translate(0,0)"/>
<path d="M0 0 C8.613929252067607 1.4072260659318374 17.19404418422448 2.9146741120572486 25.6875 4.9375 C26.9494921875 5.235273437499998 28.211484374999998 5.533046874999997 29.51171875 5.83984375 C34.45390269829542 7.483548825748869 38.027039277815646 9.062075493073891 40.42578125 13.83984375 C40.86470703124999 15.37318359375 40.86470703124999 15.37318359375 41.3125 16.9375 C41.6180078125 17.957148437499995 41.92351562499999 18.976796875000005 42.23828125 20.02734375 C44.14013802151078 27.44946171471642 45.34799409447447 34.95601771657658 42.875 42.375 C39.96666788945379 46.4466649547647 36.839657621424095 49.386780792858644 32 51 C24.336958240595777 51.76630417594042 18.710763200807506 50.701087583475655 12 47 C11.071874999999999 46.54625 10.143749999999997 46.0925 9.1875 45.625 C5.1932534751161015 42.657845438657674 2.9308944956135505 38.835077800475204 2 34 C1.7871565915098806 31.90164731712042 1.6132089748581677 29.799207473219525 1.46484375 27.6953125 C1.3343261718749986 25.860332031249996 1.3343261718749986 25.860332031249996 1.201171875 23.98828125 C1.0706542968749986 22.07595703125 1.0706542968749986 22.07595703125 0.9375 20.125 C0.8466210937499987 18.857851562500002 0.755742187500001 17.590703125000005 0.662109375 16.28515625 C0.28156233992449486 10.843047522830005 -0.053002732328824465 5.457737660966188 0 0 Z " fill="#E4C6B8" transform="translate(30,59)"/>
<path d="M0 0 C9.798077762567885 -0.7216260217930532 17.111644388061052 0.8746028805346668 26 5 C27.069277343750002 5.431191406250001 27.069277343750002 5.431191406250001 28.16015625 5.87109375 C36.506027636624125 10.992021203788482 40.99455653142962 26.09236138603537 43.6328125 35.1796875 C44.62871651900241 40.11682870058645 45.13276803093282 44.12526890880616 42.4375 48.5859375 C40.699515707254776 50.8074738741945 38.91680204705921 52.93161411758662 37 55 C33.37187879068807 53.185939395344036 32.578759962567275 48.53118533786002 31.1953125 44.87109375 C29.57860963211229 42.340372594058124 28.24895030708298 42.113507354451656 25.375 41.375 C24.488124999999997 41.1391015625 23.601249999999993 40.903203125 22.6875 40.66015625 C21.35718750000001 40.33337890625 21.35718750000001 40.33337890625 20 40 C19.195625000000007 39.7924609375 18.39125 39.584921875 17.5625 39.37109375 C15.712210849518357 38.89860919907344 13.856619206643018 38.44696388308073 12 38 C10.251513256780513 32.03641128651923 8.789620223099476 26.50003253875324 9 20.25 C9.128201912832537 15.307104027456646 8.644330512136406 11.261924634945117 6 7 C4.111964896447844 5.116769057016683 2.1363803291635293 3.614154026479113 0 2 C0 1.3399999999999999 0 0.6799999999999997 0 0 Z " fill="#A79FA1" transform="translate(68,23)"/>
<path d="M0 0 C6.954545454545456 1.1590909090909065 6.954545454545456 1.1590909090909065 9 4 C9 4.659999999999997 9 5.319999999999993 9 6 C9.66 6 10.32 6 11 6 C11.75 7.5 12.5 9 13.25 10.5 C13.7140625 11.413945312500005 14.178125 12.327890624999995 14.65625 13.26953125 C15.453832004430899 14.890199334584878 16.218055920048595 16.529161564600685 16.90625 18.19921875 C21.036247254096857 27.931480797848607 30.417965738965364 31.98699448610492 39.5029296875 36.248046875 C45.7023721098347 39.17847446757773 45.7023721098347 39.17847446757773 48 42 C48 42.99000000000001 48 43.97999999999999 48 45 C32.16 45 16.32 45 0 45 C0 30.150000000000006 0 15.299999999999997 0 0 Z " fill="#3E363C" transform="translate(0,83)"/>
<path d="M0 0 C15.180000000000001 0 30.360000000000003 0 46 0 C44.70242461098998 6.487876945050122 42.15770169568026 9.020764270395052 37 13 C34.1563026334682 14.500271991935241 31.282386316729017 15.873414805602698 28.360107421875 17.212158203125 C22.880567265007215 19.82401125716111 18.841096613100124 23.407060704594137 14.47265625 27.62109375 C12.246954900409024 29.76240831856383 9.997511452769727 31.728112625190434 7.5625 33.625 C6.9656640625 34.091640625 6.368828125 34.55828125 5.75390625 35.0390625 C3.9999999999999982 36 3.9999999999999982 36 0 36 C0 24.119999999999997 0 12.239999999999998 0 0 Z " fill="#4C3329" transform="translate(0,0)"/>
<path d="M0 0 C2.700005949288112 1.8711287429717025 4.725345374512287 3.6116126432379048 7 6 C7 6.66 7 7.32 7 8 C4.503829384590475 7.010446648891222 2.0212850085786727 6.009346301843841 -0.4375 4.9296875 C-7.8025264342903995 1.8983504005207195 -14.099631930937875 1.416139080346447 -22 2 C-23.13695312499999 2.0824999999999996 -24.27390625000001 2.164999999999999 -25.4453125 2.25 C-35.90404928520331 3.373085829283575 -45.55923838754221 6.602590180603258 -54 13 C-54.66 13 -55.32 13 -56 13 C-56 13.659999999999997 -56 14.32 -56 15 C-60.981147610117546 15.894052135149302 -65.96979240496876 16.474622762296733 -71 17 C-70.55592129457291 8.340465244171831 -64.13319860821846 1.4750694655226866 -58.140625 -4.27734375 C-54.72331761946393 -7.027403156599284 -51.118540157293786 -8.574640018422915 -47 -10 C-45.886250000000004 -10.4125 -44.7725 -10.825 -43.625 -11.25 C-27.910074141737688 -14.50136397067496 -13.343229482293467 -7.853487635279478 0 0 Z " fill="#93857A" transform="translate(90,22)"/>
<path d="M0 0 C13.86 0 27.72 0 42 0 C42 12.540000000000001 42 25.080000000000002 42 38 C41.010000000000005 38.495 41.010000000000005 38.495 40 39 C27.377030162412993 28.131090487238964 27.377030162412993 28.131090487238964 26 24 C24.678411519968236 23.310343482833996 23.34187818449361 22.649295895722712 22 22 C20.02440183487093 20.42565167376879 18.099213620728364 18.835196415658523 16.1875 17.1875 C12.870318248679965 14.360706182107045 9.568474589215299 11.608149726143528 5.9375 9.1875 C2.9812066331314497 6.986004939565973 1.5282766340854863 5.32624914477429 0 2 C0 1.3399999999999999 0 0.6799999999999999 0 0 Z " fill="#391E1A" transform="translate(86,0)"/>
<path d="M0 0 C2.394427358880577 3.5916410383208586 3.9122087226007913 7.340236810037354 5.5859375 11.30859375 C7.057174628512854 14.108821323329707 8.745383403901883 15.817339252713523 11 18 C11 18.659999999999997 11 19.319999999999993 11 20 C12.266503906250001 20.40798828125 12.266503906250001 20.40798828125 13.55859375 20.82421875 C17.11525388127542 22.03937731925528 20.579420064214105 23.40064192977235 24.0625 24.8125 C24.717343749999998 25.072407226562504 25.372187499999995 25.332314453125008 26.046875 25.60009765625 C29.177144206563213 26.843577420849456 32.26749700103549 28.120451865963346 35.33984375 29.50390625 C46.43796863253945 34.31903830657768 57.21846117540716 33.65354930871479 69 32 C67.48806820407165 36.12345035253185 65.98689421137787 40.083594803565646 64 44 C59.07048718939156 44.12357051010008 54.141874684113304 44.214321773322155 49.211181640625 44.274658203125 C47.53393859041357 44.29980792478338 45.85680519750022 44.33393258910161 44.179931640625 44.377197265625 C41.76941915170353 44.43783460257626 39.36035447648721 44.46620283543433 36.94921875 44.48828125 C35.82407112121582 44.52699089050293 35.82407112121582 44.52699089050293 34.67619323730469 44.56648254394531 C32.553466796875014 44.567626953125 32.553466796875014 44.567626953125 29 44 C27.265869140625 41.62353515625 27.265869140625 41.62353515625 26 39 C24.051629231387807 37.54674933870943 24.051629231387807 37.54674933870943 21.796875 36.53515625 C20.980898437500002 36.12716796875 20.164921875000005 35.7191796875 19.32421875 35.298828125 C18.474726562499995 34.89083984375 17.625234375000005 34.4828515625 16.75 34.0625 C8.31764338305927 29.976651778344788 0.5293679941931124 25.914332330213597 -3.41015625 17.00390625 C-5.130359989011044 11.159770368459164 -2.1648070094678395 5.364956501724649 0 0 Z " fill="#786966" transform="translate(19,84)"/>
<path d="M0 0 C5.641601357239622 -0.12351097616051715 11.282417755746465 -0.2142962960606169 16.925048828125 -0.274658203125 C18.8447845973333 -0.29981750338941915 20.764424441444007 -0.3339488544326724 22.683837890625 -0.377197265625 C25.441809459056458 -0.4377885252054276 28.19851609473568 -0.4661945161651022 30.95703125 -0.48828125000000006 C31.816498565673825 -0.5140876770019531 32.67596588134765 -0.5398941040039063 33.56147766113281 -0.5664825439453125 C35.81762287793747 -0.5675467968542741 37.80658323193346 -0.5289535903549608 40 0 C42.089927779553705 2.4343372043909035 43 3.784385506861131 43 7 C43.827578125 7.3751171875 43.827578125 7.3751171875 44.671875 7.7578125 C47.42669690518471 9.227667140685801 49.781928170632554 10.962605161455048 52.25 12.875 C53.14203125 13.553046875 54.034062500000005 14.23109375 54.953125 14.9296875 C57 16.999999999999996 57 16.999999999999996 57 21 C54.24817270494174 23.675387647973317 51.87314736692673 25.645316175189862 48 26 C45.6953125 24.77734375 45.6953125 24.77734375 43.125 22.9375 C31.516719319941913 15.167566479211452 18.166433380172364 9.463665484621913 4 11 C-0.7477636815032298 12.117692575993596 -5.362556523317863 13.483522133172556 -10 15 C-10.329999999999998 14.34 -10.659999999999997 13.68 -11 13 C-10.457304687499999 12.564296875 -9.914609374999998 12.12859375 -9.35546875 11.6796875 C-8.640039062500001 11.084140625 -7.924609375000003 10.48859375 -7.1875 9.875 C-6.125957031249996 9.0048828125 -6.125957031249996 9.0048828125 -5.04296875 8.1171875 C-2.653522684493737 5.640935554484908 -1.477918553755103 3.088352843338801 0 0 Z " fill="#59534E" transform="translate(46,0)"/>
<path d="M0 0 C0 10.230000000000004 0 20.460000000000008 0 31 C-14.849999999999994 31 -29.700000000000003 31 -45 31 C-44.67 29.680000000000007 -44.34 28.36 -44 27 C-41.5019062876397 25.530882983445252 -39.12706163171157 24.31076919010917 -36.5 23.125 C-28.488238973739556 19.319857623447916 -21.210157314312042 15.458563606884525 -15 9 C-14.340000000000003 9 -13.680000000000007 9 -13 9 C-13 8.340000000000003 -13 7.680000000000007 -13 7 C-12.340000000000003 7 -11.680000000000007 7 -11 7 C-11 6.340000000000003 -11 5.680000000000007 -11 5 C-9.544624324595574 4.161511956557121 -8.0855962675424 3.3293606566486886 -6.625 2.5 C-5.406835937500006 1.8039062499999972 -5.406835937500006 1.8039062499999972 -4.1640625 1.09375 C-2 0 -2 0 0 0 Z " fill="#3D322E" transform="translate(128,97)"/>
<path d="M0 0 C0.9899999999999949 0.49500000000000455 0.9899999999999949 0.49500000000000455 2 1 C2.5053976148063555 9.052475023648341 1.3984998032901501 15.238695939167016 -1.625 22.6875 C-1.956289062499991 23.572441406249993 -2.2875781250000102 24.4573828125 -2.62890625 25.369140625 C-6.628744190435981 35.58004766916959 -11.88605914046822 42.417827091955786 -22 47 C-34.79102486783293 51.441624661952005 -48.01732531305708 49.706035565210925 -60 44 C-61.337288296916704 43.34130262399805 -62.672418670870194 42.67804869793264 -64 42 C-63.67 41.00999999999999 -63.34 40.02000000000001 -63 39 C-62.4289453125 39.21656250000001 -61.857890625 39.43312499999999 -61.26953125 39.65625 C-50.05799201261236 43.5063175282603 -39.71797029462854 43.13569409950951 -29 38 C-28.113124999999997 37.4598828125 -27.226249999999993 36.919765625 -26.3125 36.36328125 C-24 35 -24 35 -22 35 C-21.713344726562497 34.42201660156249 -21.426689453124993 33.84403320312501 -21.13134765625 33.24853515625 C-15.670763113291201 22.395711755160107 -9.952867399496554 12.219868333239873 -2 3 C-1.3400000000000034 2.010000000000005 -0.6800000000000068 1.019999999999996 0 0 Z " fill="#9A9488" transform="translate(111,69)"/>
</svg>
