<?xml version="1.0" encoding="UTF-8"?>
<!-- Generator: visioncortex VTracer 0.6.0 -->
<svg version="1.1" xmlns="http://www.w3.org/2000/svg" width="128" height="128">
<path d="M0 0 C42.24 0 84.48 0 128 0 C128 42.24 128 84.48 128 128 C85.75999999999999 128 43.519999999999996 128 0 128 C0 85.75999999999999 0 43.519999999999996 0 0 Z " fill="#5CA3AC" transform="translate(0,0)"/>
<path d="M0 0 C8.56908618498386 -0.5208417073362099 15.057820080561015 2.6883150281355555 22.6171875 6.35546875 C27.273033559327388 8.547996631596952 31.896568432503173 9.97660950346576 36.88671875 11.2109375 C44.59519240651724 13.140447473342675 52.32305310761268 15.791945477744235 57.38671875 22.2734375 C59.78007288777435 26.682247753794854 60.049978897999026 31.352443753712983 60.38671875 36.2734375 C60.4640625 37.1332421875 60.541406249999994 37.993046875000005 60.62109375 38.87890625 C61.261345447533344 51.20375142751686 55.14092666402982 61.11594942242374 47.38671875 70.2734375 C40.01365214951623 78.26596256486867 30.135418178573218 82.87060900314917 19.38671875 84.2734375 C18.666132812499995 84.368828125 17.94554687499999 84.46421875 17.203125 84.5625 C11.384173021864527 84.93538393789063 6.1824002158281175 83.61122740554397 0.63671875 82.0234375 C-0.08451171875000085 81.81904052734374 -0.8057421875000017 81.6146435546875 -1.548828125 81.404052734375 C-6.137980654363417 79.99939423007054 -9.712126823173797 78.15004631978094 -13.61328125 75.2734375 C-14.2539453125 74.8158203125 -14.894609375000002 74.358203125 -15.5546875 73.88671875 C-21.355770495271337 69.23187384054131 -25.080152617523893 64.37011014955323 -26.05859375 56.8515625 C-26.342529801310015 47.727750717904854 -24.594176155158603 39.82713180889604 -21.61328125 31.2734375 C-21.203359374999998 30.077993164062498 -21.203359374999998 30.077993164062498 -20.78515625 28.8583984375 C-19.040158463246577 23.778388433300073 -17.26506247310087 18.710179617616276 -15.43701171875 13.659423828125 C-14.873517548634574 12.02722805914513 -14.353487949929622 10.379553574510972 -13.87158203125 8.721435546875 C-13.632944335937502 7.91101806640625 -13.394306640625004 7.100600585937499 -13.1484375 6.265625 C-12.947424316406249 5.535854492187497 -12.746411132812497 4.806083984375 -12.539306640625 4.05419921875 C-11.61328125 2.2734375 -11.61328125 2.2734375 -9.66845703125 1.2607421875 C-6.4769618874664445 0.4069470979537222 -3.2736429814262777 0.3425336452912404 0 0 Z " fill="#1D516F" transform="translate(52.61328125,26.7265625)"/>
<path d="M0 0 C42.24 0 84.48 0 128 0 C128 12.870000000000001 128 25.740000000000002 128 39 C120.45346541136684 36.843847260390525 114.93896469404513 34.06259872121957 108.546875 29.625 C100.62668586006487 24.133917047518537 93.22952741350564 20.034207137189977 84 17 C82.96875 16.6094140625 81.9375 16.218828125 80.875 15.81640625 C70.27924694670766 11.910573810712387 63.020245921285905 11.892941498780402 52.64453125 16.5546875 C49.388032258889325 18.334457997357383 47.396941790180776 20.203567911455757 45 23 C44.34 23 43.68 23 43 23 C42.34 24.32 41.68 25.64 41 27 C39.35 27 37.7 27 36 27 C35.7342919921875 27.558486328125 35.468583984375 28.11697265625 35.19482421875 28.6923828125 C33.89188737757507 31.208802719076512 32.42366351386441 33.54363436578259 30.8828125 35.921875 C30.2756640625 36.86546875 29.668515625 37.8090625 29.04296875 38.78125 C27.77374504978091 40.74583250950409 26.502934919613203 42.70939109305016 25.23046875 44.671875 C15.745022119570843 59.43147060252825 13.413718557856907 69.9900630308976 16.18359375 87.5390625 C18.221256387125283 96.17719214829188 22.527802946291576 103.16488873710435 28.6796875 109.4765625 C30 111 30 111 30 113 C30.66 113 31.32 113 32 113 C35.67019917555342 116.28386242023201 38.545677852375924 119.72766144672846 41 124 C41 125.32 41 126.64 41 128 C27.47 128 13.939999999999998 128 0 128 C0 85.75999999999999 0 43.519999999999996 0 0 Z " fill="#84C9C9" transform="translate(0,0)"/>
<path d="M0 0 C8.56908618498386 -0.5208417073362099 15.057820080561015 2.6883150281355555 22.6171875 6.35546875 C27.273033559327388 8.547996631596952 31.896568432503173 9.97660950346576 36.88671875 11.2109375 C44.59519240651724 13.140447473342675 52.32305310761268 15.791945477744235 57.38671875 22.2734375 C59.78007288777435 26.682247753794854 60.049978897999026 31.352443753712983 60.38671875 36.2734375 C60.4640625 37.1332421875 60.541406249999994 37.993046875000005 60.62109375 38.87890625 C61.02225990387832 46.60135471215763 58.749130291078544 52.3925024534357 55.38671875 59.2734375 C54.72671875 59.2734375 54.06671875000001 59.2734375 53.38671875 59.2734375 C53.360937500000006 58.644375 53.33515625 58.01531249999999 53.30859375 57.3671875 C52.84046052630363 50.30263157876382 51.415084795083914 44.75045036657784 46.69921875 39.3359375 C41.716624822585246 37.04663758740403 35.79839616020317 37.098867260961185 30.38671875 37.2734375 C30.38671875 37.9334375 30.38671875 38.59343749999999 30.38671875 39.2734375 C24.38303711088375 40.629107547542375 21.370911741908486 40.70395170000232 16.07421875 37.3984375 C15.273710937499999 36.844140625 14.473203124999998 36.28984375 13.6484375 35.71875 C9.384586668992057 32.994009399874024 4.367496542695534 32.37306612978196 -0.61328125 33.2734375 C-2.9220672543841744 34.721491879942704 -4.622673584601088 36.37762067581056 -6.61328125 38.2734375 C-7.273281249999997 38.2734375 -7.93328125 38.2734375 -8.61328125 38.2734375 C-8.891718749999995 38.85222656249999 -9.170156250000005 39.431015625 -9.45703125 40.02734375 C-10.92104512852407 42.871289628889656 -12.648798107574848 45.49863560780534 -14.39453125 48.17578125 C-17.891422475018025 54.19446903152141 -18.133064201138644 59.436292527330124 -17.61328125 66.2734375 C-16.756122759788113 69.78173464234264 -16.756122759788113 69.78173464234264 -15.61328125 72.2734375 C-20.103860437239774 70.77657777092007 -22.278527945182013 67.17047926157352 -24.61328125 63.2734375 C-28.11087164546175 52.78066631361476 -25.113140619053446 41.316303189495386 -21.61328125 31.2734375 C-21.203359374999998 30.077993164062498 -21.203359374999998 30.077993164062498 -20.78515625 28.8583984375 C-19.040158463246577 23.778388433300073 -17.26506247310087 18.710179617616276 -15.43701171875 13.659423828125 C-14.873517548634574 12.02722805914513 -14.353487949929622 10.379553574510972 -13.87158203125 8.721435546875 C-13.632944335937502 7.91101806640625 -13.394306640625004 7.100600585937499 -13.1484375 6.265625 C-12.947424316406249 5.535854492187497 -12.746411132812497 4.806083984375 -12.539306640625 4.05419921875 C-11.61328125 2.2734375 -11.61328125 2.2734375 -9.66845703125 1.2607421875 C-6.4769618874664445 0.4069470979537222 -3.2736429814262777 0.3425336452912404 0 0 Z " fill="#3B6675" transform="translate(52.61328125,26.7265625)"/>
<path d="M0 0 C3.583229668453285 0.9613543012923458 6.337087064295943 2.1263142420336862 9.25 4.375 C13.762222404594922 7.746058852564005 13.762222404594922 7.746058852564005 23 11 C23 40.370000000000005 23 69.74000000000001 23 100 C9.799999999999997 100 -3.4000000000000057 100 -17 100 C-17 92.13203463203463 -17 92.13203463203463 -13.875 87.1875 C-13.236914062500006 86.1523828125 -12.598828124999997 85.117265625 -11.94140625 84.05078125 C-10.980410156250002 82.54064453125 -10.980410156250002 82.54064453125 -10 81 C-6.447739224745547 75.34145754153586 -3.419428614660049 69.91613212269964 -1.07421875 63.65234375 C0.5870864878495752 59.5504300900005 2.6674381816577863 55.673642536552705 4.73046875 51.76171875 C8.310349277341345 43.974101725906664 7.607268434445558 34.27041039083639 6 26 C2.772070608224368 17.445987111794587 -4.194414977017132 14.698180088558871 -12 11 C-10.748892024043002 8.497784048085997 -9.530577388895551 8.008427289584617 -7.125 6.625 C-4.038785496365676 4.76110342701655 -1.8748489575816478 3.1638076159190263 0 0 Z " fill="#678E96" transform="translate(105,28)"/>
<path d="M0 0 C3.4375 1.1875 3.4375 1.1875 7 3 C8.171757812500005 3.4756640625000017 8.171757812500005 3.4756640625000017 9.3671875 3.9609375 C12.861078937987514 5.534863035962417 15.359225268577063 6.725148530862356 17.12109375 10.23046875 C18.86984812498315 17.23634807834864 17.14598058939751 22.70803882120498 14 29 C13.340000000000003 29 12.680000000000007 29 12 29 C12 29.659999999999997 12 30.319999999999993 12 31 C11.340000000000003 31 10.680000000000007 31 10 31 C9.670000000000002 31.659999999999997 9.340000000000003 32.31999999999999 9 33 C7 33.66666666666666 5 34.33333333333334 3 35 C2.6700000000000017 35.66 2.3400000000000034 36.31999999999999 2 37 C-1 39 -1 39 -4 39 C-4.268124999999998 39.55687499999999 -4.5362499999999955 40.11375000000001 -4.8125 40.6875 C-6.101226469096233 43.197125229292666 -7.5292647781664925 45.593342364272445 -9 48 C-14.827685359211806 47.44498234674174 -18.806783000691702 45.42820453494846 -22.75 41.0625 C-26.294811118657314 35.213561654215425 -26.99717259447945 29.713722381797027 -26 23 C-21.712875717631285 11.572308325244421 -13.761751551388222 -1.9659645073411767 0 0 Z " fill="#124D60" transform="translate(60,59)"/>
<path d="M0 0 C8.61051297107614 2.4601465631646136 11.760223166663653 5.993321676352565 17 13 C18.670804325983728 16.012739927169747 20.127562574507856 19.05543157534825 21.55078125 22.19140625 C23.427302967703866 25.828115454930128 25.837960545286414 28.561024455553593 28.6796875 31.4765625 C30 33 30 33 30 35 C30.66 35 31.32 35 32 35 C35.67019917555339 38.28386242023198 38.54567785237594 41.72766144672849 41 46 C41 47.31999999999999 41 48.64 41 50 C27.47 50 13.939999999999998 50 0 50 C0 33.5 0 17 0 0 Z " fill="#A1E1E4" transform="translate(0,78)"/>
<path d="M0 0 C14.190000000000001 0 28.380000000000003 0 43 0 C41.18436853620233 10.893788782786029 33.99194595244751 17.38756492195999 25.72314453125 24.07373046875 C21.889615374832477 27.181967101559188 18.687597280289896 30.42420006079112 15.55078125 34.21484375 C12.024875758586207 38.27363168344107 7.986473916699896 41.89525558545606 3 44 C2.01 44 1.02 44 0 44 C0 29.479999999999997 0 14.959999999999997 0 0 Z " fill="#AFEAE9" transform="translate(0,0)"/>
<path d="M0 0 C8.030438522322854 -0.2257552998243355 8.030438522322854 -0.2257552998243355 12.10546875 2.16796875 C8.91051853749267 15.421095557437823 4.3910604901983845 29.826444420288155 -6.89453125 38.16796875 C-7.554531249999997 38.16796875 -8.21453125 38.16796875 -8.89453125 38.16796875 C-9.172968749999995 38.74675781249999 -9.451406250000005 39.325546875 -9.73828125 39.921875 C-11.20229512852407 42.765820878889656 -12.930048107574848 45.39316685780534 -14.67578125 48.0703125 C-18.172672475018025 54.08900028152141 -18.414314201138644 59.330823777330124 -17.89453125 66.16796875 C-17.037372759788113 69.67626589234264 -17.037372759788113 69.67626589234264 -15.89453125 72.16796875 C-20.385110437239774 70.67110902092007 -22.559777945182013 67.06501051157352 -24.89453125 63.16796875 C-28.39212164546175 52.67519756361476 -25.394390619053446 41.210834439495386 -21.89453125 31.16796875 C-21.484609374999998 29.972524414062498 -21.484609374999998 29.972524414062498 -21.06640625 28.7529296875 C-19.321408463246577 23.672919683300073 -17.54631247310087 18.604710867616276 -15.71826171875 13.553955078125 C-15.154767548634574 11.92175930914513 -14.634737949929622 10.274084824510972 -14.15283203125 8.615966796875 C-13.914194335937502 7.80554931640625 -13.675556640625004 6.995131835937499 -13.4296875 6.16015625 C-13.228674316406249 5.430385742187497 -13.027661132812497 4.700615234375 -12.820556640625 3.94873046875 C-11.89453125 2.16796875 -11.89453125 2.16796875 -9.94775390625 1.156005859375 C-6.652820866449716 0.2725250026865744 -3.3934097491495976 0.19691851445807274 0 0 Z " fill="#377B84" transform="translate(52.89453125,26.83203125)"/>
<path d="M0 0 C13.86 0 27.72 0 42 0 C42 12.870000000000001 42 25.740000000000002 42 39 C35.670942403451974 37.191697829557704 31.469359366344037 35.35619779298384 26 32 C24.984218749999997 31.4057421875 23.968437499999993 30.811484375 22.921875 30.19921875 C13.1820016733882 24.071407450911295 4.252229651756508 14.951273013741613 0 4 C0 2.6799999999999997 0 1.3599999999999999 0 0 Z " fill="#99CFCF" transform="translate(86,0)"/>
<path d="M0 0 C1.1163281249999955 0.4189453125 2.232656249999991 0.837890625 3.3828125 1.26953125 C9.214024830408377 3.5713255909506714 14.090901471825376 6.0950352616792784 19 10 C16.83070833254287 15.227069815734467 12.625777202094469 17.98181828210872 8 21 C2.4350005941382165 23.131276368202386 -2.656595346692825 21.06485548549628 -8 19 C-10.578246401988196 17.792664071576525 -13.105652099972247 16.50995980545752 -15.63671875 15.20703125 C-25.82035907372451 10.00580007639525 -34.82041919791891 10.53382546857953 -46 12 C-45.49396007965173 9.831257484221702 -45.00016186677635 8.000323733552712 -44 6 C-43.34 6 -42.68 6 -42 6 C-41.67 5.009999999999998 -41.34 4.02 -41 3 C-26.928334903918163 -7.414622189755484 -15.453406921225252 -5.898091125507261 0 0 Z " fill="#668E8A" transform="translate(87,17)"/>
<path d="M0 0 C14.189999999999998 0 28.379999999999995 0 43 0 C44.31999999999999 3.3000000000000003 45.64 6.6000000000000005 47 10 C49.02897697641505 13.12807978578973 49.02897697641505 13.12807978578973 51.25 15.625 C51.95640625 16.462890625 52.6628125 17.30078125 53.390625 18.1640625 C53.92171875 18.769921875 54.45281249999999 19.37578125 55 20 C54.67 20.66 54.34 21.32 54 22 C53.200781250000006 21.68546875 52.4015625 21.3709375 51.578125 21.046875 C48.06009287238285 19.675998631022424 44.5323269142543 18.333595080996545 41 17 C39.9494140625 16.5965234375 38.898828124999994 16.193046875 37.81640625 15.77734375 C27.22197418706844 11.933590114684126 20.00949067264409 11.897773767104706 9.64453125 16.5546875 C6.388032258889339 18.33445799735738 4.396941790180769 20.203567911455767 2 23 C1.3400000000000034 23 0.6799999999999997 23 0 23 C-0.6599999999999966 24.32 -1.3200000000000003 25.64 -2 27 C-3.6499999999999986 27 -5.299999999999997 27 -7 27 C-8.496051821444325 22.511844535667027 -9.357278578768984 19.55609090762653 -8 15 C-6.40625 12.246093750000002 -6.40625 12.246093750000002 -4.5 9.4375 C-2.2252198491661943 6.076605555837762 -0.9979341445559697 3.9917365782238914 0 0 Z " fill="#8CB7AF" transform="translate(43,0)"/>
<path d="M0 0 C1 3 1 3 -0.66015625 6.44140625 C-1.4507123478780244 7.821014032202527 -2.2521594921806525 9.194419286740356 -3.0625 10.5625 C-3.6812500000000057 11.638424072265622 -3.6812500000000057 11.638424072265622 -4.3125 12.736083984375 C-7.047791320648074 17.47011913804336 -9.892358705326302 22.128709706674528 -12.90625 26.69140625 C-14.444369960981618 29.643543873688074 -14.444369960981618 29.643543873688074 -15 36 C-25.560000000000002 36 -36.120000000000005 36 -47 36 C-48.32 33.03 -49.64 30.060000000000002 -51 27 C-52.7037286477711 24.539919088900206 -54.371800021270516 22.244300845968624 -56.25 19.9375 C-56.938359375 19.06834960937499 -56.938359375 19.06834960937499 -57.640625 18.181640625 C-58.75190489283531 16.780964926738818 -59.874703812513 15.389440139893296 -61 14 C-60.67 13.340000000000003 -60.34 12.680000000000007 -60 12 C-59.0473828125 12.349335937500001 -58.094765625 12.698671875000002 -57.11328125 13.05859375 C-55.846422205048704 13.518416662611955 -54.579491296609454 13.97804161771306 -53.3125 14.4375 C-52.68666015625 14.667597656249995 -52.0608203125 14.897695312500005 -51.416015625 15.134765625 C-39.57916342258963 19.41090594943097 -28.094550202952888 18.982396206883095 -16.484375 13.8984375 C-10.064142108427092 10.513620839476872 -4.0172021095231685 6.143956167506019 0 0 Z " fill="#4584A7" transform="translate(103,92)"/>
<path d="M0 0 C0 11.549999999999997 0 23.099999999999994 0 35 C-11.549999999999997 35 -23.099999999999994 35 -35 35 C-33.973222445929224 29.86611222964609 -32.449854853191326 27.666859059424397 -29.125 23.9375 C-28.635397949218756 23.376757812500003 -28.1457958984375 22.816015625000006 -27.641357421875 22.23828125 C-26.61541284612693 21.068583136477358 -25.584649577505587 19.9030954361466 -24.54931640625 18.74169921875 C-23.053409515112534 17.06004151919521 -21.578435240136685 15.361903713972481 -20.10546875 13.66015625 C-8.129185055547111 0 -8.129185055547111 0 0 0 Z " fill="#A5DCE1" transform="translate(128,93)"/>
<path d="M0 0 C0 7.260000000000005 0 14.519999999999996 0 22 C-2.6400000000000006 22.989999999999995 -5.280000000000001 23.980000000000004 -8 25 C-14.490434651652265 29.72116265191923 -19.926280756330385 35.81533094451109 -25 42 C-25.705117187500008 42.84046875 -26.410234375 43.6809375 -27.13671875 44.546875 C-30.46994646810363 48.59222856811141 -33.25261272519501 52.00619778824766 -35 57 C-36.650000000000006 57 -38.3 57 -40 57 C-41.213766082394955 49.370613196374535 -36.96658380080427 44.23320311554957 -33 38 C-29.449043125485957 32.343534578715264 -26.424905674424707 26.918736204902928 -24.07421875 20.66015625 C-22.394746384101012 16.50117195481016 -20.321815930944695 12.551475491226796 -18.26953125 8.56640625 C-16.9172192566421 5.980311324593345 -16.9172192566421 5.980311324593345 -16 3 C-13.671875 1.796875 -13.671875 1.796875 -10.75 0.75 C-9.796093749999997 0.3942187499999932 -8.842187499999994 0.03843750000000057 -7.859375 -0.328125 C-5 -1 -5 -1 0 0 Z " fill="#6B99AB" transform="translate(128,71)"/>
</svg>
