<?xml version="1.0" encoding="UTF-8"?>
<!-- Generator: visioncortex VTracer 0.6.0 -->
<svg version="1.1" xmlns="http://www.w3.org/2000/svg" width="128" height="128">
<path d="M0 0 C42.24 0 84.48 0 128 0 C128 42.24 128 84.48 128 128 C85.75999999999999 128 43.519999999999996 128 0 128 C0 85.75999999999999 0 43.519999999999996 0 0 Z " fill="#BDA681" transform="translate(0,0)"/>
<path d="M0 0 C42.24 0 84.48 0 128 0 C128 22.77 128 45.54 128 69 C121.75871659327822 66.50348663731128 116.1917271178345 64.23133235872304 110.5 60.875 C109.894140625 60.5282421875 109.28828125 60.181484375 108.6640625 59.82421875 C106.1704796588672 58.37794070214297 104.04716228166738 57.04716228166738 102 55 C101.95654296875 52.937011718749986 101.95654296875 52.937011718749986 102.2421875 50.4296875 C102.3388671875 49.5337890625 102.435546875 48.637890625 102.53515625 47.71484375 C102.6473046875 46.7776953125 102.759453125 45.840546875 102.875 44.875 C103.03162109375 43.45767578125 103.03162109375 43.45767578125 103.19140625 42.01171875 C103.45124070012491 39.67320869887574 103.72116058565652 37.33630756462394 104 35 C102.7328515625 34.8620703125 101.465703125 34.724140625 100.16015625 34.58203125 C94.91284850144741 33.99580297286763 89.67271135625796 33.37365007638138 84.4375 32.6875 C83.096552734375 32.529912109375 83.096552734375 32.529912109375 81.728515625 32.369140625 C76.44479732038434 31.66181037646696 72.30173951732576 30.49998515128858 67.676025390625 27.815673828125 C65.8610768859087 26.781199874217975 65.8610768859087 26.781199874217975 63 27 C62.236875 27.495 61.47375 27.99 60.6875 28.5 C57.36012583128416 30.357139070911167 55.7644394786223 30.60231031657957 52 30 C50.34375 28.910156250000004 50.34375 28.910156250000004 48.625 27.5625 C44.90539007531599 24.69495930916431 41.72001318597481 23.57090789218411 37 24 C29.277120252017575 26.79621508116605 26.525733695334974 32.94853260933005 23 40 C21.593550945753734 52.00220817922549 22.364574426204175 62.195843108637106 28.2734375 72.7734375 C31.23993778619052 78.3171688040574 32.68516743179631 83.71929854186716 32 90 C28.015292774607286 97.81002616176971 20.973237174704117 102.75981212687556 13 106 C8.452366436480089 107.36429006905597 5.057194058534787 107 0 107 C0 71.69 0 36.379999999999995 0 0 Z " fill="#978256" transform="translate(0,0)"/>
<path d="M0 0 C3.20240984346853 1.1148320956784659 6.013075794619411 2.8202483394671347 8.9140625 4.546875 C14.59820824391106 7.913339449696764 20.35116453812354 10.827926019061778 26.2890625 13.796875 C26.2890625 33.266875 26.2890625 52.736875 26.2890625 72.796875 C19.689062500000006 72.796875 13.089062499999997 72.796875 6.2890625 72.796875 C-1.7109375 47.49957770270275 -1.7109375 47.49957770270275 -1.7109375 43.796875 C-3.377695312499995 43.9012890625 -3.377695312499995 43.9012890625 -5.078125 44.0078125 C-14.723978819127467 44.43333294756897 -20.89255475187113 43.94365066224947 -28.7109375 37.796875 C-29.600390625000003 37.205195312499995 -30.489843750000006 36.61351562499999 -31.40625 36.00390625 C-38.57845530753022 31.159171467058272 -47.46417846585705 24.589723594055314 -50.68359375 16.2890625 C-50.72118427648302 12.862954514832822 -49.53316016983052 11.348399092284495 -47.5234375 8.609375 C-46.9111328125 7.749570312499998 -46.298828125 6.889765625000003 -45.66796875 6.00390625 C-43.67164147715404 3.7525591259322013 -42.557652863311034 2.7007590752118986 -39.7109375 1.796875 C-36.86328125 1.78515625 -36.86328125 1.78515625 -33.6484375 2.109375 C-31.9159375 2.2659960937499974 -31.9159375 2.2659960937499974 -30.1484375 2.42578125 C-28.040781393236642 2.6533123069801334 -25.935380650021344 2.9054108091682096 -23.8359375 3.19921875 C-15.435766145910662 4.285868823421438 -7.394336123374927 -0.8778663890764733 0 0 Z " fill="#BD9462" transform="translate(101.7109375,55.203125)"/>
<path d="M0 0 C0.5787890625000003 0.727031249999996 1.1575781250000006 1.4540625000000063 1.75390625 2.203125 C9.02360751814156 11.25548344867714 16.30876815576046 17.771734508479568 26 24 C26.613593750000007 24.4782421875 27.2271875 24.956484375000002 27.859375 25.44921875 C32.845377014867324 29.111617137209237 38.84402521675645 28.16691096920158 44.671875 27.84765625 C48 28 48 28 49.86328125 29.1875 C51.25778885196972 31.41104476740189 51.83317429918429 33.38131489282301 52.4375 35.9375 C53.75292420551709 41.19919682206836 55.414209699999404 46.262440017601335 57.23046875 51.37109375 C58 54 58 54 58 58 C34.239999999999995 58 10.479999999999997 58 -14 58 C-12.638760585065434 26.691493456505015 -12.638760585065434 26.691493456505015 -9 16 C-8.788593750000004 15.154375000000002 -8.5771875 14.308750000000003 -8.359375 13.4375 C-6.815987946540943 7.263951786163773 -4.866058847896021 4.109116360445526 0 0 Z " fill="#EEBB89" transform="translate(50,70)"/>
<path d="M0 0 C7.590000000000003 0 15.180000000000007 0 23 0 C23 22.77 23 45.54 23 69 C16.75871659327821 66.50348663731128 11.191727117834517 64.23133235872305 5.5 60.875 C4.591210937499994 60.35486328125 4.591210937499994 60.35486328125 3.6640625 59.82421875 C1.1704796588672366 58.377940702143 -0.9528377183326597 57.04716228166735 -3 55 C-3.059326171875 52.90869140625 -3.059326171875 52.90869140625 -2.79296875 50.3515625 C-2.7008007812499955 49.42859375 -2.608632812500005 48.505625 -2.513671875 47.5546875 C-2.406035156249999 46.587890625 -2.2983984374999977 45.62109375 -2.1875 44.625 C-2.0914648437500034 43.6659375 -1.9954296875000068 42.706875 -1.896484375 41.71875 C-1.1506201276036876 34.53042074321411 -1.1506201276036876 34.53042074321411 -0.46826171875 32.12744140625 C0.2017478561035233 29.083404161581832 0.11085162974904961 26.16098462077408 0.09765625 23.046875 C0.09624130249022755 22.386653442382812 0.09482635498046932 21.726431884765624 0.0933685302734375 21.04620361328125 C0.08779244772404127 18.947422057836732 0.07524446607055779 16.84874905403416 0.0625 14.75 C0.05748190387828345 13.322918212611334 0.052919537686463514 11.895834745040512 0.048828125 10.46875 C0.038683769422974024 6.979091681505407 0.01910401465104883 3.4896666762572113 0 0 Z " fill="#826832" transform="translate(105,0)"/>
<path d="M0 0 C13.530000000000001 0 27.060000000000002 0 41 0 C41.67961271635036 7.475739879854066 42.18214250599192 14.553083328756154 42.1875 22 C42.19974609375001 22.9268359375 42.2119921875 23.853671875 42.224609375 24.80859375 C42.22654296875001 25.6967578125 42.22847656249999 26.584921875 42.23046875 27.5 C42.23457763671874 28.2940625 42.23868652343751 29.088125 42.242919921875 29.90625 C42 31.999999999999996 42 31.999999999999996 40 35 C33.47089490967559 34.28930392200945 26.949570325017888 33.541000889810455 20.4375 32.6875 C19.54353515625 32.58244140625 18.649570312500003 32.4773828125 17.728515625 32.369140625 C11.030306105636697 31.47245273762364 4.896454680495353 29.896454680495346 0 25 C-2.015749019168652 16.735429021408514 -0.8366790120406478 8.366790120406465 0 0 Z " fill="#7E876A" transform="translate(64,0)"/>
<path d="M0 0 C0.47824218750000114 0.32613281249999915 0.9564843750000023 0.6522656249999983 1.44921875 0.98828125 C9.161584885984226 5.551094723121555 17.15113474196852 6.285564557920935 25.87890625 7.32421875 C30.679611396824086 7.903221175115533 35.297768428966776 8.8781477977738 40 10 C39.85879984278351 12.583662451195366 39.71221666708149 15.166828848564194 39.5625 17.75 C39.52318359374999 18.479609374999995 39.48386718750001 19.209218750000005 39.443359375 19.9609375 C39.03794120192208 26.82186042901067 39.03794120192208 26.82186042901067 38 30 C28.870236047780296 35.91743959866092 18.08481454717156 35.46493128920178 7.8828125 33.48046875 C3.864178576679734 32.81069642944662 0.0650533698160416 32.86449822100613 -4 33 C-8.223850260625078 24.058019129102227 -10.029084011016302 14.623940839824662 -12 5 C-10.762500000000003 4.731874999999999 -9.524999999999999 4.463750000000001 -8.25 4.1875 C-4.89716220674687 3.3611800474074727 -2.5890406423691275 2.37328725550503 0 0 Z " fill="#AC9B75" transform="translate(64,25)"/>
<path d="M0 0 C2.5327889784641258 2.1255063286608475 3.729173698224031 4.221197314100621 5 7.25 C6.16114137295807 10.017164498007375 7.3433360556475975 12.68667211129518 8.6875 15.375 C11.012040895220196 21.795160567751026 11.99881135143059 28.175274397123914 9.5625 34.6875 C9.046875 35.780625 8.53125 36.87375 8 38 C4.375311274594338 39.103166133819116 2.231536016698641 39.52809934275382 -1.3046875 38.01171875 C-3.9520708866513417 36.44274233394944 -6.474062814840437 34.75781593587128 -9 33 C-9.90234375 32.40703125 -10.8046875 31.814062500000006 -11.734375 31.203125 C-18.881347562563832 26.317341496778397 -27.75118206968117 19.798157073352158 -30.97265625 11.4921875 C-31.010246776483022 8.066079514832822 -29.822222669830524 6.551524092284495 -27.8125 3.8125 C-27.2001953125 2.9526953124999977 -26.587890625 2.0928906250000026 -25.95703125 1.20703125 C-19.719318604698074 -5.827514946797578 -7.98351058897677 -3.123982404382218 0 0 Z " fill="#CF976A" transform="translate(82,60)"/>
<path d="M0 0 C0.6599999999999966 0 1.3200000000000003 0 2 0 C3.1443948311748215 1.7106933043335033 4.215839751997585 3.4704990327165604 5.25 5.25 C8.816563746906233 11.030805406443847 11.494215497999413 13.831405165999797 18 16 C20.144132227840643 16.095046278678723 22.291267704418047 16.129872264008128 24.4375 16.125 C25.5705859375 16.127578125 26.703671874999998 16.13015625 27.87109375 16.1328125 C30.88719916540606 16.115851123940416 30.88719916540606 16.115851123940416 33.27734375 15.40234375 C33.845820312499995 15.269570312500008 34.41429687499999 15.136796875000002 35 15 C38.187664213442986 17.15636108556437 38.992665701753324 18.97873053508465 40.25 22.625 C41 27 41 27 41 37 C26.150000000000006 37 11.299999999999997 37 -4 37 C-2.799999999999997 2.799999999999997 -2.799999999999997 2.799999999999997 0 0 Z " fill="#DCC999" transform="translate(40,91)"/>
<path d="M0 0 C0.49499999999999744 0.9899999999999949 0.49499999999999744 0.9899999999999949 1 2 C1.6599999999999966 2 2.3200000000000003 2 3 2 C5.706425228702884 5.612946300452876 6.3678328964850195 8.15913322321785 6.25 12.625 C6.209394531249998 14.307226562500006 6.209394531249998 14.307226562500006 6.16796875 16.0234375 C6.112539062499998 17.335703124999995 6.057109375000003 18.647968750000004 6 20 C5.968579101562497 20.805986328125 5.937158203125001 21.611972656250003 5.90478515625 22.4423828125 C5.80052471853822 25.045467355933 5.684673849236191 27.647697011269173 5.5625 30.25 C5.504008789062496 31.519645996093743 5.504008789062496 31.519645996093743 5.4443359375 32.81494140625 C5.119412771386912 38.880587228613095 5.119412771386912 38.880587228613095 4 40 C1.333739695693886 40.088551606421134 -1.3064711438522245 40.11524673226239 -3.97265625 40.09765625 C-4.770298919677735 40.09624130249023 -5.5679415893554705 40.094826354980455 -6.3897552490234375 40.09336853027344 C-8.94737435387746 40.08775316477562 -11.50490717809203 40.07519811892843 -14.0625 40.0625 C-15.792316447652368 40.05748697673391 -17.522134261937346 40.05292372795259 -19.251953125 40.048828125 C-23.501362388446857 40.03862791073345 -27.750584163364216 40.01905567639747 -32 40 C-32 33.06999999999999 -32 26.14 -32 19 C-30.081875 18.793750000000003 -28.16375 18.587500000000006 -26.1875 18.375 C-16.768048931431053 16.907699888011592 -9.097732205841414 13.265976022814371 -3.12109375 5.7109375 C-1.9151774046876682 3.8705494886871037 -0.9414779848026065 1.9870825670027443 0 0 Z " fill="#A1A883" transform="translate(32,88)"/>
<path d="M0 0 C3.4051841447622557 3.0203765548424286 5.017047477113415 5.784346945396635 6.6875 10 C7.103867187500001 11.03125 7.520234375000001 12.0625 7.94921875 13.125 C9.702314574476983 17.92157444912661 10.444418206590882 21.844748803545798 10 27 C6.0152927746072855 34.81002616176973 -1.0267628252958758 39.75981212687556 -9 43 C-13.547633563519895 44.36429006905597 -16.942805941465238 44 -22 44 C-22 34.43000000000001 -22 24.86 -22 15 C-19.03 14.010000000000005 -16.06 13.019999999999996 -13 12 C-9.043476430861801 10.024505015129591 -6.553177038514194 7.663885011143719 -3.6875 4.3125 C-2.990117187500001 3.5042578125000006 -2.2927343749999984 2.696015625000001 -1.57421875 1.86328125 C-1.0547265625000009 1.2483984375000006 -0.5352343750000017 0.6335156250000011 0 0 Z " fill="#817D54" transform="translate(22,63)"/>
<path d="M0 0 C0 13.200000000000003 0 26.400000000000006 0 40 C-6.599999999999994 40 -13.200000000000003 40 -20 40 C-28 14.702702702702695 -28 14.702702702702695 -28 10 C-6.37630662020905 -2.125435540069688 -6.37630662020905 -2.125435540069688 0 0 Z " fill="#A78D67" transform="translate(128,88)"/>
<path d="M0 0 C9.57 0 19.14 0 29 0 C27.564526192900708 6.459632131946813 26.28563826857556 11.17070575390138 23.3125 16.8125 C22.96018310546875 17.49610595703125 22.6078662109375 18.1797119140625 22.244873046875 18.884033203125 C21.179514686770233 20.931843587618825 20.0950441310382 22.967928216391424 19 25 C18.677734375 25.599091796875 18.35546875 26.19818359375 18.0234375 26.8154296875 C14.159975871236169 33.91332295294952 10.78445582686064 39.47702944875957 4 44 C2.6799999999999997 44 1.3599999999999999 44 0 44 C0 29.479999999999997 0 14.959999999999997 0 0 Z " fill="#775614" transform="translate(0,0)"/>
<path d="M0 0 C0.3299999999999983 0 0.6600000000000001 0 1 0 C1.3473064077451475 5.662334826273554 1.6301785660928942 11.323481286666773 1.8623046875 16.99169921875 C1.954678475630164 19.009837192756862 2.064933213845144 21.0272302586213 2.1923828125 23.04345703125 C3.428040645296658 42.86150765725786 3.428040645296658 42.86150765725786 -2.1875 49.25 C-4.5429687499999964 51.328125 -4.5429687499999964 51.328125 -7 53 C-7.738632812500001 53.53109375 -8.477265625 54.06218749999999 -9.23828125 54.609375 C-11.999999999999986 56 -11.999999999999986 56 -21 58 C-21 46.78 -21 35.56 -21 24 C-18.69 23.010000000000005 -16.38 22.019999999999996 -14 21 C-9.453157497351118 17.261485053377584 -6.928413802098369 12.790798743008445 -4.1875 7.6875 C-3.780800781250001 6.94693359375 -3.3741015625000017 6.2063671875 -2.955078125 5.443359375 C-1.9623577201432418 3.633104519084732 -0.9800930742658167 1.8171224535952284 0 0 Z " fill="#95753F" transform="translate(21,20)"/>
<path d="M0 0 C1.1537109374999943 -0.025781249999994316 2.307421875000003 -0.05156250000000284 3.49609375 -0.078125 C6.5625 0.25 6.5625 0.25 8.3828125 1.45703125 C9.838434998508177 3.669384650050503 10.390428069813098 5.6091243201411345 11 8.1875 C12.31542420551709 13.449196822068345 13.976709699999418 18.512440017601364 15.79296875 23.62109375 C16.5625 26.25 16.5625 26.25 16.5625 30.25 C7.652500000000003 30.25 -1.2574999999999932 30.25 -10.4375 30.25 C-11.312499999999986 23.062500000000085 -11.312499999999986 23.062500000000085 -11.57373046875 20.827392578125 C-12.063355979818084 16.9947531389504 -12.94001397155813 13.792372411818377 -14.4375 10.25 C-14.4375 7.25 -14.4375 7.25 -12.5625 5.0625 C-10.4375 3.25 -10.4375 3.25 -8.4375 3.25 C-8.4375 2.5900000000000034 -8.4375 1.9300000000000068 -8.4375 1.25 C-5.607208522867367 -0.16514573856630932 -3.153708674600921 0.042190082603354995 0 0 Z " fill="#C8B086" transform="translate(91.4375,97.75)"/>
<path d="M0 0 C3.1429055691991437 1.5132508296144067 5.980108335000665 3.1880650010004032 9 5 C13.620000000000005 5.659999999999997 18.24000000000001 6.32 23 7 C23 16.9 23 26.799999999999997 23 37 C16.75871659327821 34.50348663731128 11.191727117834517 32.23133235872305 5.5 28.875 C4.894140625000006 28.5282421875 4.288281249999997 28.181484374999997 3.6640625 27.82421875 C1.1704796588672366 26.377940702143 -0.9528377183326597 25.047162281667347 -3 23 C-3.059326171875 20.876953125 -3.059326171875 20.876953125 -2.79296875 18.28125 C-2.7008007812499955 17.3492578125 -2.608632812500005 16.417265625 -2.513671875 15.45703125 C-2.406035156249999 14.481210937500002 -2.2983984374999977 13.505390625000004 -2.1875 12.5 C-2.0914648437500034 11.524179687500002 -1.9954296875000068 10.548359375000004 -1.896484375 9.54296875 C-1.1501864655923413 2.3003729311846683 -1.1501864655923413 2.3003729311846683 0 0 Z " fill="#9D7C4A" transform="translate(105,32)"/>
</svg>
