<?xml version="1.0" encoding="UTF-8"?>
<!-- Generator: visioncortex VTracer 0.6.0 -->
<svg version="1.1" xmlns="http://www.w3.org/2000/svg" width="128" height="128">
<path d="M0 0 C42.24 0 84.48 0 128 0 C128 42.24 128 84.48 128 128 C85.75999999999999 128 43.519999999999996 128 0 128 C0 85.75999999999999 0 43.519999999999996 0 0 Z " fill="#A07C6C" transform="translate(0,0)"/>
<path d="M0 0 C5.885974063963744 4.024796494330946 10.445529577643754 9.581566804316225 15 15 C15.841113281249989 15.951328125 15.841113281249989 15.951328125 16.69921875 16.921875 C17.231601562500003 17.52515625 17.763984375000007 18.128437500000004 18.3125 18.75 C18.783007812500003 19.281093749999997 19.253515625000006 19.8121875 19.73828125 20.359375 C24.082919113536207 26.0087493117189 23.795776923847583 32.14863288301041 23 39 C22.429892522914486 42.37158106751539 21.691204248027404 45.680046992697584 20.875 49 C20.59354125976563 50.21925170898437 20.59354125976563 50.21925170898437 20.306396484375 51.463134765625 C18.78359484314072 57.17171294778217 16.988633477029225 59.77459042433455 12 63 C9.1484375 64.14453125 9.1484375 64.14453125 6.375 64.8125 C5.45460937499999 65.0458203125 4.534218750000008 65.279140625 3.5859375 65.51953125 C1 66 1 66 -3 66 C-3.0825000000000102 66.53625 -3.164999999999992 67.0725 -3.25 67.625 C-5.731829985905193 75.4841282886998 -12.371178229662036 80.7942455905789 -19.1875 84.9375 C-26.541835766481604 86.98706898410143 -35.066506656938614 87.29986063863018 -42.16015625 84.10546875 C-48.36116037797337 80.37960002767205 -53.26449493317902 75.72478328926823 -56 69 C-56.89870952459677 63.45795793165327 -56.25519245911897 59.150117593187986 -53.9375 54.0625 C-51.434162449033195 48.412361372641826 -52.08153782363978 43.982196122133836 -53 38 C-53.27307186750821 35.87784148679332 -53.52316061648426 33.75259697642345 -53.75 31.625 C-53.86859375 30.668515624999998 -53.987187500000005 29.712031249999995 -54.109375 28.7265625 C-53.97419414394073 25.356696873950966 -52.97739400018943 23.694316469452417 -51 21 C-48.21312771416532 18.950829201592143 -45.24373802853977 17.671137495217952 -42.08203125 16.32421875 C-35.026977781168746 13.202343331647931 -28.35804163331023 9.344022509508065 -21.619140625 5.6015625 C-20.59626953125 5.03953125 -19.573398437500003 4.477499999999999 -18.51953125 3.8984375 C-17.60276611328125 3.389741210937501 -16.686000976562497 2.8810449218749987 -15.741455078125 2.35693359375 C-10.198975502209734 -0.3864185732227554 -6.06979598613384 -1.7790781338668182 0 0 Z " fill="#463726" transform="translate(82,14)"/>
<path d="M0 0 C20.130000000000003 0 40.260000000000005 0 61 0 C60.34 1.98 59.68 3.96 59 6 C58.34 6 57.68 6 57 6 C57 6.66 57 7.32 57 8 C55.46093750000001 9.218749999999993 55.46093750000001 9.218749999999993 53.375 10.5 C52.702109375 10.9228125 52.02921875 11.345625 51.3359375 11.78125 C45.03475307849376 15.068824480785864 39.29789739581057 15.349105915278203 32.365234375 15.478515625 C26.62431280580418 15.689996114071903 21.798656969456943 16.6468691400306 17.2578125 20.46484375 C12.267706125162256 26.951982037289067 12.466827913018658 33.021460555529195 13 41 C13.939055179649475 46.233851663046345 15.41257311832253 51.27443353507243 17.125 56.3046875 C19.792721205523595 64.47458369191601 20.183020541155223 70.71119502928786 19.1640625 79.11328125 C18.81063683787623 87.48610348364639 21.517843519353413 93.62556766786825 25.75 100.6875 C37 120.18668566775247 37 120.18668566775247 37 128 C24.79 128 12.579999999999998 128 0 128 C0 85.75999999999999 0 43.519999999999996 0 0 Z " fill="#AFAC9C" transform="translate(0,0)"/>
<path d="M0 0 C15.180000000000007 0 30.36 0 46 0 C46 42.24 46 84.48 46 128 C40.06 128 34.120000000000005 128 28 128 C27.62499999999997 119.06249999999925 27.62499999999997 119.06249999999925 27.52197265625 116.304931640625 C27.32923792775962 112.25096157099829 26.951346233928845 108.48489890473567 25.94921875 104.546875 C24.704713587291096 99.37865853278322 24.88501421931352 94.4665424334982 25.1875 89.1875 C25.238659667968747 88.21772216796874 25.289819335937494 87.2479443359375 25.342529296875 86.248779296875 C25.981345176802947 75.96306774030236 28.449603824275442 66.96847376002675 32.1328125 57.375 C35.84852208842196 47.19864220828579 35.0212878028492 34.957474559436136 31 25 C30.340000000000003 25 29.680000000000007 25 29 25 C28.376093749999995 24.2948828125 27.752187500000005 23.589765625 27.109375 22.86328125 C22.347569030256423 17.893452185396114 15.188953774987468 15.518380518419352 9.01953125 12.724609375 C8.007617187500003 12.23154296875 6.995703125000006 11.7384765625 5.953125 11.23046875 C5.026611328125 10.80145263671875 4.10009765625 10.3724365234375 3.1455078125 9.930419921875 C1 8 1 8 0 0 Z " fill="#DBB7A2" transform="translate(82,0)"/>
<path d="M0 0 C5.871477931052809 4.070267569733822 10.434594328152954 9.568557186655042 15 15 C15.841113281249989 15.951328125 15.841113281249989 15.951328125 16.69921875 16.921875 C17.231601562500003 17.52515625 17.763984375000007 18.128437500000004 18.3125 18.75 C18.783007812500003 19.281093749999997 19.253515625000006 19.8121875 19.73828125 20.359375 C24.082919113536207 26.0087493117189 23.795776923847583 32.14863288301041 23 39 C22.429892522914486 42.37158106751539 21.691204248027404 45.680046992697584 20.875 49 C20.59354125976563 50.21925170898437 20.59354125976563 50.21925170898437 20.306396484375 51.463134765625 C18.78359484314072 57.17171294778217 16.988633477029225 59.77459042433455 12 63 C9.1484375 64.14453125 9.1484375 64.14453125 6.375 64.8125 C5.45460937499999 65.0458203125 4.534218750000008 65.279140625 3.5859375 65.51953125 C1 66 1 66 -3 66 C-3.0825000000000102 66.53625 -3.164999999999992 67.0725 -3.25 67.625 C-5.731829985905193 75.4841282886998 -12.371178229662036 80.7942455905789 -19.1875 84.9375 C-26.541835766481604 86.98706898410143 -35.066506656938614 87.29986063863018 -42.16015625 84.10546875 C-48.36116037797337 80.37960002767205 -53.26449493317902 75.72478328926823 -56 69 C-57.203984727056735 61.5754275164835 -55.17499071111254 55.66181086706649 -52 49 C-48.43513202966484 49.631022606243235 -46.11779557288829 51.097068670049765 -43.1875 53.1875 C-42.30578125 53.81398437499999 -41.4240625 54.44046875000001 -40.515625 55.0859375 C-38.35044900095346 56.73335402101367 -36.407687201605285 58.44358410315013 -34.4375 60.3125 C-28.211837810222605 65.67747156446255 -21.214428196289305 65.13161522799072 -13.4375 64.625 C-10.955682474765808 64.43785375543301 -8.478804874972099 64.22506939969072 -6 64 C-5.841445312499999 63.033203125 -5.682890624999999 62.06640625 -5.51953125 61.0703125 C-3.8754019565188855 51.657460266356054 -2.094551987248991 42.54060277968613 5.25 35.8125 C8.225633486520778 33.19758994585992 8.225633486520778 33.19758994585992 9.0625 29.5625 C8.933074623890477 22.185253561757378 4.902256069809027 16.294436555393744 0 11 C-4.263462621765072 7.534019595255735 -8.830650998751565 6.380671529020926 -14.1796875 5.4921875 C-14.780390624999995 5.329765625 -15.381093749999991 5.167343750000001 -16 5 C-16.495000000000005 4.009999999999998 -16.495000000000005 4.009999999999998 -17 3 C-6.055845629965944 -2.1307604994324656 -6.055845629965944 -2.1307604994324656 0 0 Z " fill="#674C22" transform="translate(82,14)"/>
<path d="M0 0 C6.043243243243243 6.043243243243239 6.043243243243243 6.043243243243239 6.1875 10 C6.919168986790183 16.7786979658502 10.18387994290514 21.292610447040076 15.0234375 25.9453125 C21.875982359796268 31.347830802433236 29.581026450900012 33.296600222992964 37.87353515625 35.42822265625 C39.891519199488755 35.97083099485678 41.86977455655267 36.58059582554189 43.85546875 37.23046875 C59.31601419968338 42.17042492966982 72.62252369237515 37.37755758392697 87 31 C91.30835176327125 39.90392697742725 90 50.476044825786744 90 60 C65.91 60 41.82 60 17 60 C15.68 56.370000000000005 14.36 52.74000000000001 13 49 C11.750501772194369 46.31130239644254 10.489270651016447 43.687661786862705 9.125 41.0625 C8.78202880859375 40.38501708984376 8.439057617187501 39.7075341796875 8.085693359375 39.009521484375 C6.488722419775421 35.859744035064836 4.857343638078206 32.734935275913045 3.18359375 29.625 C-1.8388143265851298 20.136884501101832 -2.800820542480519 12.58482296635772 -1 2 C-0.6700000000000017 1.3400000000000034 -0.33999999999999986 0.6800000000000068 0 0 Z " fill="#8E8773" transform="translate(20,68)"/>
<path d="M0 0 C20.130000000000003 0 40.260000000000005 0 61 0 C60.34 1.98 59.68 3.96 59 6 C58.34 6 57.68 6 57 6 C57 6.66 57 7.32 57 8 C55.46093750000001 9.218749999999993 55.46093750000001 9.218749999999993 53.375 10.5 C52.702109375 10.9228125 52.02921875 11.345625 51.3359375 11.78125 C45.03475307849376 15.068824480785864 39.29789739581057 15.349105915278203 32.365234375 15.478515625 C26.62431280580418 15.689996114071903 21.798656969456943 16.6468691400306 17.2578125 20.46484375 C12.935602911132408 26.08371621552787 12.857957846101051 30.323713983568446 12.9375 37.25 C12.94201171875 37.995078125 12.9465234375 38.74015625 12.951171875 39.5078125 C12.962907541039325 41.338576402134564 12.980841498328491 43.16929872916686 13 45 C11.586222176676493 45.365528026970395 10.168794238680158 45.71695495154725 8.75 46.0625 C7.566640625 46.35833984375 7.566640625 46.35833984375 6.359375 46.66015625 C3.9999999999999925 47 3.9999999999999925 47 0 46 C0 30.82 0 15.639999999999997 0 0 Z " fill="#A5AFA4" transform="translate(0,0)"/>
<path d="M0 0 C15.180000000000007 0 30.36 0 46 0 C46 16.5 46 33 46 50 C42.03999999999999 51.980000000000004 42.03999999999999 51.980000000000004 38 54 C36.29250020335124 55.28062484748657 34.60628069146824 56.59450439496529 33 58 C33.15984374999999 57.0061328125 33.3196875 56.012265625 33.484375 54.98828125 C34.92425136042398 44.83000458665425 34.87419336495634 34.59324071322524 31 25 C30.340000000000003 25 29.680000000000007 25 29 25 C28.376093749999995 24.2948828125 27.752187500000005 23.589765625 27.109375 22.86328125 C22.347569030256423 17.893452185396114 15.188953774987468 15.518380518419352 9.01953125 12.724609375 C8.007617187500003 12.23154296875 6.995703125000006 11.7384765625 5.953125 11.23046875 C5.026611328125 10.80145263671875 4.10009765625 10.3724365234375 3.1455078125 9.930419921875 C1 8 1 8 0 0 Z " fill="#B8A291" transform="translate(82,0)"/>
<path d="M0 0 C6.924842713824177 4.3087910219350505 6.924842713824177 4.3087910219350505 9 8 C9.294151284685043 10.742528154269408 9.41985677141281 13.203728986674676 9.375 15.9375 C9.386601562500005 16.640683593749998 9.398203124999995 17.343867187499995 9.41015625 18.068359375 C9.384973225659436 22.546740536896323 8.938107421273969 25.564961090984127 6 29 C-6.338370319169741 35.71065320956282 -20.037632628622447 38.71851083072461 -33.5625 34.75 C-34.3655859375 34.49089843749999 -35.168671875 34.231796875 -35.99609375 33.96484375 C-40.01770963406371 32.67311537111348 -44.07068596289977 31.49684047070751 -48.125 30.3125 C-49.62766132853142 29.87128838301865 -51.13026995668001 29.429897219748142 -52.6328125 28.98828125 C-53.743984375 28.662148437500008 -54.85515625 28.336015625 -56 28 C-52.65445066334911 26.884816887783032 -50.44341865606768 27.066137758203837 -46.9375 27.25 C-39.16095548256893 27.28460086548357 -33.68156377700964 25.38926570775746 -27.93359375 20.09765625 C-25.20752142954153 17.132554623781076 -23.25898766311046 14.656924262937324 -21.76953125 10.87890625 C-20 8 -20 8 -16.6015625 6.6796875 C-15.281317072667832 6.386593015132263 -13.955202178794991 6.118955998041557 -12.625 5.875 C-7.499336167747018 4.863882720590723 -3.9119662453017554 3.6400921433116764 0 0 Z " fill="#917052" transform="translate(99,72)"/>
<path d="M0 0 C5.871477931052823 4.070267569733829 10.434594328152954 9.568557186655038 15 15 C15.560742187499997 15.634218749999999 16.121484374999994 16.2684375 16.69921875 16.921875 C17.231601562500003 17.52515625 17.763984375000007 18.128437500000004 18.3125 18.75 C18.783007812500003 19.281093749999997 19.253515625000006 19.8121875 19.73828125 20.359375 C24.082919113536207 26.008749311718894 23.795776923847598 32.14863288301041 23 39 C22.429892522914486 42.3715810675154 21.691204248027404 45.680046992697584 20.875 49 C20.59354125976563 50.21925170898437 20.59354125976563 50.21925170898437 20.306396484375 51.463134765625 C18.78305278063931 57.17374499587375 16.97980308804405 59.76220466710609 12 63 C5.969008136998795 65.59083860971033 0.38149073707583625 66.55991995795188 -6 65 C-4.8525362891495405 54.22754217723973 -2.8177086431804383 44.84604969835115 4.75 36.75 C7.196793948395424 34.126908671043324 8.006488692328702 32.97945247429242 9.125 29.4375 C8.859021558527957 22.12309285951858 4.869634849814517 16.25920563779968 0 11 C-4.263462621765072 7.534019595255735 -8.830650998751565 6.380671529020926 -14.1796875 5.4921875 C-14.780390624999995 5.329765625 -15.381093750000005 5.167343750000001 -16 5 C-16.33 4.34 -16.659999999999997 3.6799999999999997 -17 3 C-6.055845629965944 -2.130760499432462 -6.055845629965944 -2.130760499432462 0 0 Z " fill="#6F5046" transform="translate(82,14)"/>
<path d="M0 0 C6.3364173735315035 3.4831768018243316 10.764798082841367 8.563179576587487 14 15 C15.26187620198013 19.617479956966427 14.764079011515037 22.509617061598064 13 27 C10.906942985660237 29.873733521704395 9.278329990475555 31.703515698001894 5.73681640625 32.52490234375 C3.023864427654402 32.79110013705687 0.35046555885925557 32.89396825843489 -2.375 32.9375 C-3.295390624999996 32.97939453125 -4.215781249999992 33.0212890625 -5.1640625 33.064453125 C-10.568179203426865 33.23815687618158 -14.901937056465684 32.79815398395978 -20 31 C-20.990000000000002 30.67 -21.980000000000004 30.340000000000003 -23 30 C-26.19367027398399 27.6517130338353 -26.971475923610157 26.095080254632805 -28.125 22.25 C-28.500215950507183 17.670659876764567 -26.573001270477263 15.225027079376673 -23.6953125 11.83203125 C-23.135859375000003 11.227460937499998 -22.576406249999998 10.622890625 -22 10 C-21.523046875 9.4676171875 -21.046093749999997 8.935234375 -20.5546875 8.38671875 C-19.25 7.0000000000000036 -19.25 7.0000000000000036 -17 5 C-16.340000000000003 5 -15.68 5 -15 5 C-15 4.34 -15 3.6799999999999997 -15 3 C-9.761073914108707 -0.17057085198096544 -6.141446364850367 -1.974036331559045 0 0 Z " fill="#422116" transform="translate(77,21)"/>
<path d="M0 0 C6.750746611532276 1.1251244352553726 6.750746611532276 1.1251244352553726 9.734375 3.44140625 C10.712169189453125 4.186927490234382 10.712169189453125 4.186927490234382 11.709716796875 4.947509765625 C12.38301025390625 5.480456542968753 13.0563037109375 6.013403320312506 13.75 6.5625 C14.45229736328125 7.108981933593753 15.1545947265625 7.655463867187507 15.878173828125 8.218505859375 C17.280114588076987 9.310979507735425 18.679038472488813 10.407337220467483 20.07470703125 11.5078125 C21.713535502484618 12.77797730042937 23.397586646526072 13.989441873646768 25.08984375 15.1875 C31.380973299048875 19.728465689539036 34.78782528283156 24.501892011281726 37 32 C37 33.31999999999999 37 34.64 37 36 C24.79 36 12.579999999999998 36 0 36 C0 24.120000000000005 0 12.239999999999995 0 0 Z " fill="#BAC3C6" transform="translate(0,92)"/>
<path d="M0 0 C3.643076786253502 1.0119657739593073 6.908373348740746 2.3953196042443565 10.32421875 4 C14.283793088267885 5.810091126065316 17.747631867314894 6.200949733378259 22.0625 6.5 C23.831738281249997 6.625683593750001 23.831738281249997 6.625683593750001 25.63671875 6.75390625 C26.992167968749996 6.844785156249998 26.992167968749996 6.844785156249998 28.375 6.9375 C23.942204572655115 10.805972762240089 19.597632337666994 12.534887180909692 14.1171875 14.49609375 C10.813444916806837 16.232676389883586 9.798515662866425 17.508121357639972 8.375 20.9375 C8.190153159761103 23.699106768052218 8.190153159761103 23.699106768052218 8.625 26.5625 C8.735859375 27.615664062500002 8.84671875 28.668828125000005 8.9609375 29.75390625 C9.222710664188426 31.766596144467613 9.51565924259376 33.775690732505424 9.8515625 35.77734375 C10.964491668607579 43.382359735485124 9.093402102652512 48.28554883366316 5.375 54.9375 C-1.3669064733136835 50.382157788301555 -2.9610128493456678 43.3000786893139 -5.25 35.875 C-5.574843749999999 34.853095703125 -5.574843749999999 34.853095703125 -5.90625 33.810546875 C-8.581882040244231 25.21384022717826 -10.838051740067685 14.550441454616816 -7.3125 5.875 C-3.8843703148425774 -0.09248500749625066 -3.8843703148425774 -0.09248500749625066 0 0 Z " fill="#6C6B5D" transform="translate(20.625,19.0625)"/>
<path d="M0 0 C6.930000000000007 0 13.86 0 21 0 C21.989999999999995 4.455 21.989999999999995 4.455 23 9 C22.340000000000003 9 21.680000000000007 9 21 9 C20.786015625000005 9.6251953125 20.57203125000001 10.250390625 20.3515625 10.89453125 C18.451314824029154 13.85474367008175 16.760603092558043 13.893605478295944 13.375 14.6875 C7.579264279234906 16.264093307300637 3.1925427608200323 18.573829244742004 -1.875 21.75 C-9.677150664092274 26.463251015633574 -15.823935039704807 27.53284380343604 -25 26 C-28.548322782491574 25.001142380263765 -31.714333749815882 23.654694736103554 -35 22 C-36.37144161479553 21.408349195061135 -37.74611072861373 20.82407939784807 -39.125 20.25 C-40.073750000000004 19.8375 -41.0225 19.425 -42 19 C-39.75404877759064 16.417156094229238 -38.35197866371911 15.588640155579942 -35 15 C-33.02036626925211 14.908255903312405 -31.040443536338472 14.819237784937133 -29.0595703125 14.760009765625 C-21.524285531825235 14.516856834305964 -15.657997748734289 13.785333551527582 -9 10 C-7.3380526174680725 9.321654129578803 -5.674010967693995 8.648004245558965 -4 8 C-4 7.34 -4 6.68 -4 6 C-3.3400000000000034 6 -2.6799999999999997 6 -2 6 C-1.3400000000000034 4.02 -0.6799999999999997 2.04 0 0 Z " fill="#797B79" transform="translate(61,0)"/>
<path d="M0 0 C0 11.549999999999997 0 23.099999999999994 0 35 C-5.939999999999998 35 -11.879999999999995 35 -18 35 C-19.805828611078994 18.62715392621719 -19.805828611078994 18.62715392621719 -17.578125 14.12890625 C-15.823070495708606 12.210675190557538 -14.025657165499354 10.621424028260023 -12 9 C-11.340000000000003 8.010000000000005 -10.680000000000007 7.019999999999996 -10 6 C-9.340000000000003 6 -8.680000000000007 6 -8 6 C-7.628749999999997 5.071875000000006 -7.628749999999997 5.071875000000006 -7.25 4.125 C-5.493697299395677 1.139285408972654 -3.46854078894404 0 0 0 Z " fill="#D8C8B5" transform="translate(128,93)"/>
</svg>
