<?xml version="1.0" encoding="UTF-8"?>
<!-- Generator: visioncortex VTracer 0.6.0 -->
<svg version="1.1" xmlns="http://www.w3.org/2000/svg" width="128" height="128">
<path d="M0 0 C42.24 0 84.48 0 128 0 C128 42.24 128 84.48 128 128 C85.75999999999999 128 43.519999999999996 128 0 128 C0 85.75999999999999 0 43.519999999999996 0 0 Z " fill="#627A85" transform="translate(0,0)"/>
<path d="M0 0 C3.6454713766840428 2.5305735708118675 6.279681400082524 5.457641321026095 8.6748046875 9.16259765625 C9.262617187499998 10.011445312500001 9.262617187499998 10.011445312500001 9.8623046875 10.87744140625 C12.79880859449537 15.811199808812077 13.536542801896545 21.224087304033134 14.454345703125 26.804931640625 C15.52849857003504 33.0748178475448 17.458803381628712 38.8130956450007 19.6865234375 44.76025390625 C21.670845906843823 51.591656557627346 20.726025290470673 56.9569196629901 17.6748046875 63.16259765625 C14.439417687162177 69.01570686595207 10.95556607764442 74.40253988272633 4.6748046875 77.16259765625 C0.04913668567499485 78.43385514404949 -4.602330817573943 79.33637549874521 -9.3251953125 80.16259765625 C-10.178554687499997 80.34693359375 -11.031914062499993 80.53126953125 -11.9111328125 80.72119140625 C-22.35239371577881 82.6303539985971 -33.75123168800871 80.92540813830222 -42.8251953125 75.22509765625 C-48.50626069897856 70.5382187124052 -51.40025059676455 66.61463871347722 -53.8876953125 59.78759765625 C-54.1843408203125 58.99973876953125 -54.480986328125 58.2118798828125 -54.78662109375 57.400146484375 C-61.052048346982154 40.378099585847764 -65.94695387399554 23.128257115747253 -58.2587890625 5.75244140625 C-54.804872097819526 -0.8932140076401467 -49.89003134938704 -8.894221732938131 -42.4501953125 -11.43505859375 C-26.874867615088235 -14.384063654105537 -12.868578974920865 -8.219178103722179 0 0 Z " fill="#C8E0E3" transform="translate(83.3251953125,24.83740234375)"/>
<path d="M0 0 C14.520000000000003 0 29.040000000000006 0 44 0 C44.989999999999995 1.98 45.980000000000004 3.96 47 6 C49.169898770257575 8.39312542553144 49.169898770257575 8.39312542553144 51.6875 10.5 C52.566640625000005 11.2669921875 53.445781249999996 12.033984375 54.3515625 12.82421875 C57.30130836822522 15.247535045872338 60.3330346128141 17.488733452851307 63.50390625 19.61328125 C65.39303855074323 21.36430466191604 65.60656136108467 22.47736402107227 66 25 C66.2477868532639 26.583681192599702 66.49792914522766 28.166995032029657 66.75 29.75 C66.86859375 30.54921875 66.9871875 31.3484375 67.109375 32.171875 C67.9207864569785 34.748462258124746 68.76141382554209 36.32938366271652 70.21484375 38.55859375 C73.66967137639517 43.872655918194816 76.22182638762105 49.53969057535318 78.8125 55.3125 C79.31458984375 56.37662109375 79.8166796875 57.4407421875 80.333984375 58.537109375 C84.08939676723735 66.91142353945853 85.61985569567192 73.85078984157272 82.8203125 82.75 C73.95072659219382 99.75344579561 63.52067498605109 106.81881699967494 46 114 C44.18048828125001 114.74830078125 44.18048828125001 114.74830078125 42.32421875 115.51171875 C30.68355519233662 119.81468776936973 20.45005410442168 118.04267261142958 9 114 C-0.017508347737020813 109.67057127622853 -5.330374821454729 102.52844273128554 -9.15234375 93.4609375 C-10.073056490990375 90.78790051002794 -10.660805010497072 88.13939913313952 -11.25 85.375 C-12.618248134269258 79.41280142608926 -15.124302315014553 74.52082854670738 -18.1318359375 69.25146484375 C-23.112969807944474 60.50255022514881 -24.380203942131736 52.719196436844925 -22.34765625 42.82421875 C-18.71753711323003 30.064272084701255 -13.097767075011333 19.46359916345018 -4.13671875 9.81640625 C-1.42850347912578 6.599887139523506 -1.42850347912578 6.599887139523506 0 0 Z M-1.6875 20.625 C-9.829775721713503 30.644832452062964 -13.252627673761644 42.1918820357872 -12 55 C-10.418198459738939 63.93358369897439 -7.970176656812363 72.55812683283045 -5 81.125 C-4.763295898437498 81.8109423828125 -4.526591796875 82.496884765625 -4.28271484375 83.20361328125 C-1.1234236481270798 91.94039211985739 2.5190371661621143 97.71006690474964 11 102 C22.39809957885356 106.70791069561342 32.44154798450799 106.80064422509285 44.375 104.6875 C45.041203613281255 104.57011474609375 45.70740722656251 104.4527294921875 46.393798828125 104.331787109375 C53.136333004223374 103.00362230058226 59.392072910997655 100.22389677699238 64 95 C68.67513465735988 87.66581439533054 71.5544868592683 81.78998021167945 71 73 C70.24977185964796 70.1157581672988 69.22711808244034 67.35351926972544 68.1875 64.5625 C66.03627436448174 58.55272679601249 64.4919338305467 52.811204436624216 63.5625 46.5 C62.05050492747675 37.65658695954425 58.45149714080793 31.605670187928723 51.5625 25.875 C47.57810619665716 23.14596314839532 43.29257983208825 20.94891565014305 39 18.75 C38.33556884765625 18.4082373046875 37.671137695312495 18.066474609375 36.986572265625 17.71435546875 C24.032452195491913 11.324059541317997 8.891672239130713 9.43418396974181 -1.6875 20.625 Z " fill="#92ACB5" transform="translate(33,0)"/>
<path d="M0 0 C10.89 0 21.78 0 33 0 C32.000757530409984 6.99469728713009 31.866972286856033 7.7781009074140375 27.4375 12.4375 C16.847250541917195 24.261527844001918 10.634176086516625 39.283690472228926 10.69921875 55.17578125 C11.335610224426304 61.15124925013269 13.93891086877275 65.86438506218063 16.875 71 C20.25970537007843 77.09761981080811 22.332607332577325 82.99416661987252 24.078125 89.76953125 C26.17323847410446 97.11130600883214 29.671516050993787 103.53830395226863 35 109 C35.825 109.433125 36.65 109.86625 37.5 110.3125 C41.35410678719337 112.91402208135553 43.435131501356 116.65832229312387 45 121 C45 123.31 45 125.62 45 128 C30.15 128 15.299999999999997 128 0 128 C0 85.75999999999999 0 43.519999999999996 0 0 Z " fill="#456E7E" transform="translate(0,0)"/>
<path d="M0 0 C3.6454713766840428 2.5305735708118675 6.279681400082524 5.457641321026095 8.6748046875 9.16259765625 C9.262617187499998 10.011445312500001 9.262617187499998 10.011445312500001 9.8623046875 10.87744140625 C12.874072132543319 15.937653620899994 13.635464758903865 21.563545281053166 14.5927734375 27.288330078125 C15.226363916472408 31.025193923897717 15.98605260704663 34.466105025642 17.4248046875 37.97509765625 C18.6748046875 41.16259765625 18.6748046875 41.16259765625 17.6748046875 44.16259765625 C17.043164062499997 43.787480468750005 16.411523437499994 43.41236328125001 15.7607421875 43.02587890625 C9.302817496092842 39.33164821102142 2.949395904122923 36.724633098843746 -4.1611328125 34.53369140625 C-9.590784204120979 32.18084246988091 -12.430874710960936 28.406841452514215 -15.1376953125 23.28759765625 C-19.01415596795283 16.600952155456035 -24.81128060581898 10.567050362387924 -32.3251953125 8.16259765625 C-38.07112402946741 8.032641271698232 -42.58425684887854 8.755048135522074 -47.3251953125 12.16259765625 C-47.9851953125 12.16259765625 -48.6451953125 12.16259765625 -49.3251953125 12.16259765625 C-53.734244215491586 20.556748452330126 -57.42984857985843 29.875398666306324 -59.3251953125 39.16259765625 C-63.644965599561985 31.38701113953843 -63.23181652403585 21.961407275535436 -61.1376953125 13.53759765625 C-58.17848487805133 3.8616677240759714 -52.865556824763694 -5.291570975901237 -44.2001953125 -10.83740234375 C-28.91643131580043 -16.05708067297999 -12.677143107067636 -8.096907766306316 0 0 Z " fill="#B5D1D6" transform="translate(83.3251953125,24.83740234375)"/>
<path d="M0 0 C8.226615918747484 1.0664131746524532 14.568670837765772 6.886037454776236 19.6796875 13.09375 C25.060600042472643 20.53279959788844 26.426963917530173 27.296296302841284 25.375 36.4375 C24.60538156184694 39.551156309785 23.6270683925338 42.48619593188462 22.375 45.4375 C21.715000000000003 45.4375 21.055000000000007 45.4375 20.375 45.4375 C20.375 46.42750000000001 20.375 47.41749999999999 20.375 48.4375 C19.715000000000003 48.4375 19.055000000000007 48.4375 18.375 48.4375 C18.127499999999998 49.056250000000006 17.879999999999995 49.675 17.625 50.3125 C16.16871360710892 52.78818686791483 14.996874938264455 53.38875002469422 12.375 54.4375 C12.375 55.0975 12.375 55.75749999999999 12.375 56.4375 C7.160106382978725 59.5906914893617 7.160106382978725 59.5906914893617 3.8125 58.9375 C-3.2918846917859597 54.56557095890095 -6.713250876961823 47.557764603495826 -10.537109375 40.44921875 C-11.275322212364188 39.08412140262996 -12.024424371689527 37.724867647137415 -12.783203125 36.37109375 C-20.991128959887618 21.70918950404048 -20.991128959887618 21.70918950404048 -19.43359375 15.39453125 C-16.55668720591457 8.431583527358455 -13.544932515833537 4.582923870833426 -6.625 1.4375 C-4.396393884154222 0.6270977760560825 -2.343217831731657 0.3905363052886095 0 0 Z " fill="#D4F1EC" transform="translate(47.625,31.5625)"/>
<path d="M0 0 C14.520000000000003 0 29.040000000000006 0 44 0 C44.989999999999995 1.98 45.980000000000004 3.96 47 6 C49.169898770257575 8.39312542553144 49.169898770257575 8.39312542553144 51.6875 10.5 C52.566640625000005 11.2669921875 53.445781249999996 12.033984375 54.3515625 12.82421875 C57.30130836822522 15.247535045872338 60.3330346128141 17.488733452851307 63.50390625 19.61328125 C66.35502469358279 22.255962836088482 66.18178578882478 26.051633377154985 66.5625 29.75 C66.68818359375001 30.948828125 66.68818359375001 30.948828125 66.81640625 32.171875 C66.8769921875 32.77515625 66.937578125 33.3784375 67 34 C59.26043186348437 31.004941082795035 51.92973976916552 27.19150002110443 44.81982421875 22.92236328125 C33.484381489706735 16.166452013176144 20.998350649996908 11.236687274293622 7.65234375 14.58984375 C-0.009743824068522144 17.7934526200826 -4.867040481559741 25.67876405214931 -8.22265625 32.98046875 C-11.8865374225239 42.49919521329073 -11.884596758286595 52.14430593977196 -9.453125 61.95703125 C-8.01419486270565 68.44462143797365 -9.570714998943007 74.65754780780959 -11 81 C-13.728815153699017 77.55894692882607 -15.939628228130594 73.86088427015396 -18.125 70.0625 C-18.4846484375 69.45470703125 -18.844296875 68.8469140625 -19.21484375 68.220703125 C-23.784869123009408 60.28734447185445 -24.16871875243399 51.730946171573905 -22.3515625 42.8203125 C-18.702223641149644 30.063221959232514 -13.100866336503067 19.46693573439763 -4.13671875 9.81640625 C-1.42850347912578 6.599887139523506 -1.42850347912578 6.599887139523506 0 0 Z " fill="#698B8F" transform="translate(33,0)"/>
<path d="M0 0 C16.83 0 33.66 0 51 0 C51 14.520000000000001 51 29.040000000000003 51 44 C44.32859680284193 42.88809946714032 44.32859680284193 42.88809946714032 40.875 38.5 C35.91109479824041 32.640415444803175 30.238225083687723 28.421599097778667 24 24 C4.7945587722357885 9.943843739100108 4.7945587722357885 9.943843739100108 0 3 C0 2.01 0 1.02 0 0 Z " fill="#34505C" transform="translate(77,0)"/>
<path d="M0 0 C10.89 0 21.78 0 33 0 C32.000757530409984 6.99469728713009 31.866972286856033 7.7781009074140375 27.4375 12.4375 C17.025412545324873 24.062609726220686 10.619092342060195 38.6886744033783 11.25 54.3125 C11.507365556733365 61.15016269247162 11.507365556733365 61.15016269247162 9.59375 64.35546875 C6.211830407483929 67.37196906451116 4.64724979166432 68 0 68 C0 45.56 0 23.119999999999997 0 0 Z " fill="#476364" transform="translate(0,0)"/>
<path d="M0 0 C-2.9997229489018338 0.9999076496339434 -5.174283035562297 0.9743611353128365 -8.2919921875 0.83349609375 C-16.05684360752454 0.5222467752258098 -21.6925454079176 1.5784156283814212 -28.890625 4.765625 C-32.987270238124935 6.391931401064674 -36.98275612974932 6.954101651977254 -41.34375 7.4453125 C-44.380083272661935 8.07937033046764 -46.39731715967492 9.351039981300893 -49 11 C-49.66 11 -50.32 11 -51 11 C-55.409048902991586 19.394150796080126 -59.10465326735843 28.712801010056324 -61 38 C-65.31977028706198 30.22441348328843 -64.90662121153585 20.798809619285436 -62.8125 12.375 C-59.85328956555133 2.6990700678259714 -54.540361512263694 -6.454168632151237 -45.875 -12 C-29.460137540585706 -17.6059686524339 -13.575106943988146 -8.155519961214964 0 0 Z " fill="#9FBEBD" transform="translate(85,26)"/>
<path d="M0 0 C2.621874938264483 1.048749975305796 3.7937136071088986 1.6493131320851404 5.25 4.125 C5.621250000000003 5.053124999999994 5.621250000000003 5.053124999999994 6 6 C-5.202952029520318 21.96309963099634 -5.202952029520318 21.96309963099634 -10 27 C-10.659999999999997 27 -11.319999999999993 27 -12 27 C-12.309375000000003 27.783749999999998 -12.618750000000006 28.567499999999995 -12.9375 29.375 C-14 32 -14 32 -15 34 C-30.840000000000003 34 -46.68 34 -63 34 C-63.66 31.03 -64.32 28.060000000000002 -65 25 C-66.49486845776688 22.640405416616886 -66.49486845776688 22.640405416616886 -68 21 C-68 20.340000000000003 -68 19.680000000000007 -68 19 C-66.33324218749999 19.433125000000004 -66.33324218749999 19.433125000000004 -64.6328125 19.875 C-50.20812403949332 23.52704596956879 -41.02652857565889 23.923777168145477 -27 18 C-26.2228564453125 17.678217773437495 -25.445712890625003 17.356435546875005 -24.64501953125 17.02490234375 C-10.43694369484706 11.06760249626015 -10.43694369484706 11.06760249626015 0 0 Z " fill="#5F8091" transform="translate(108,94)"/>
<path d="M0 0 C4 1 4 1 5.34375 3.15234375 C5.7253125 4.071445312500003 6.1068750000000005 4.990546875000007 6.5 5.9375 C6.925390625 6.9365234375 7.35078125 7.935546875 7.7890625 8.96484375 C8.531167312647376 10.824893554603264 9.258707682881223 12.69093881159742 9.9609375 14.56640625 C13.293180137384063 23.438146263206278 18.180172250606056 30.882499962096375 24.1875 38.1875 C32 47.69902912621359 32 47.69902912621359 32 53 C21.439999999999998 53 10.879999999999999 53 0 53 C0 35.50999999999999 0 18.019999999999996 0 0 Z " fill="#1C495B" transform="translate(0,75)"/>
<path d="M0 0 C1.6433881030603885 2.46508215459059 2.4926930981083473 4.109959338682842 3.40234375 6.8359375 C3.653066406249998 7.570703124999994 3.9037890624999996 8.305468750000003 4.162109375 9.0625 C4.676287001267312 10.595966774560452 5.189320568442049 12.12981766295161 5.701171875 13.6640625 C7.107909103444019 17.77993817606128 8.676004314438465 21.295481504209377 11 25 C11 25.659999999999997 11 26.319999999999993 11 27 C11.562031250000004 27.278437499999995 12.1240625 27.556875000000005 12.703125 27.84375 C14.242831894207065 28.61884054538315 15.774164047596528 29.41078092321449 17.296875 30.21875 C27.88301463798551 35.74781656251473 37.152645340833566 37.25568082971901 49.08203125 35.40625 C50.133906249999995 35.247211914062504 50.133906249999995 35.247211914062504 51.20703125 35.0849609375 C53.221673531360906 34.76444966546532 55.230255970579364 34.406521318702204 57.23828125 34.046875 C62.10292621416876 33.98625637116301 64.02881992510416 35.308022821157294 68 38 C64.27540319061463 41.22930468047774 60.01813689742832 42.81467689678594 55.5 44.625 C54.74074218749999 44.936953125 53.98148437500001 45.248906250000005 53.19921875 45.5703125 C40.926998442139734 50.556573640846906 30.37403066878229 49.36890117910954 18 45 C8.190367768509397 40.290261797949114 2.54873870651128 32.07438144644672 -1 22 C-3.6734629045964553 14.005950822216505 -2.536822876548939 7.9378006137176556 0 0 Z " fill="#84A9B5" transform="translate(24,69)"/>
<path d="M0 0 C0 12.540000000000006 0 25.08 0 38 C-11.549999999999997 38 -23.099999999999994 38 -35 38 C-33 33 -33 33 -32 31 C-31.340000000000003 31 -30.680000000000007 31 -30 31 C-29.735742187499994 30.413476562499994 -29.471484375000003 29.826953125000003 -29.19921875 29.22265625 C-27.956992856706478 26.92028969207162 -26.603684518081266 25.335253848676487 -24.8125 23.4375 C-21.10206174360853 19.331178163951705 -18.300405824762862 14.874367704863772 -15.48046875 10.125 C-14.991914062500001 9.423749999999998 -14.503359375000002 8.722499999999997 -14 8 C-13.340000000000003 8 -12.680000000000007 8 -12 8 C-11.752499999999998 7.386406249999993 -11.504999999999995 6.772812500000001 -11.25 6.140625 C-9.769377467264547 3.6050589126905237 -8.634324631564851 2.970312145504309 -6 1.75 C-5.298749999999998 1.4148437500000028 -4.597499999999997 1.0796875000000057 -3.875 0.734375 C-2 0 -2 0 0 0 Z " fill="#1D475D" transform="translate(128,90)"/>
<path d="M0 0 C2.2015664123473115 3.302349618520971 3.8877093787801833 6.756109612151562 5.625 10.3125 C8.363409711824431 15.836631270777815 11.172655286169324 21.30862726767836 14.1875 26.6875 C14.7998046875 27.784492187500007 15.412109375 28.881484375 16.04296875 30.01171875 C18.412037215189436 33.629158621995856 20.95449582208606 37.10509192216264 25 38.875 C27.266405695682174 40.14985320382122 27.949127844057173 41.231650771958556 29.375 43.375 C33.07201278954148 48.813113613973854 37.74658800184494 51.21331085766998 44 53 C41.41347958342848 55.58652041657152 40.29149257487386 55.32726499900829 36.6875 55.375 C25.87726580534099 55.19287812427771 16.720839217906878 51.88251978339878 8.57421875 44.9296875 C5.336113678770545 41.24443893638529 3.950619150750569 37.6335614115477 2.3125 33.0625 C1.8706738281249997 31.883974609375002 1.8706738281249997 31.883974609375002 1.419921875 30.681640625 C0.5930398072428389 28.46113709473076 -0.20802877995505753 26.233154899440024 -1 24 C-1.3918749999999989 22.91203125 -1.7837500000000013 21.824062499999997 -2.1875 20.703125 C-4.391441082996781 13.370782550799177 -2.759354977570027 6.947661639953097 0 0 Z " fill="#ADD2D5" transform="translate(27,51)"/>
<path d="M0 0 C1.953125 0.5625 1.953125 0.5625 3.953125 1.5625 C3.953125 2.2225 3.953125 2.8825000000000003 3.953125 3.5625 C3.086874999999999 4.2225 2.2206249999999983 4.8825 1.328125 5.5625 C-6.2765288840076 11.657009850303961 -10.464844702854009 22.169195110695675 -12.046875 31.5625 C-12.453856387936373 37.8091910706513 -12.001705442391756 43.4590771432047 -10.5 49.51953125 C-9.06106986270565 56.007121437973666 -10.617589998943004 62.22004780780958 -12.046875 68.5625 C-14.775690153699038 65.12144692882606 -16.986503228130587 61.423384270153974 -19.171875 57.625 C-19.5315234375 57.017207031249995 -19.891171875 56.40941406249999 -20.26171875 55.783203125 C-24.831744123009408 47.84984447185445 -25.215593752433993 39.29344617157391 -23.3984375 30.3828125 C-13.947069600861212 -2.656584685878329 -13.947069600861212 -2.656584685878329 0 0 Z " fill="#749294" transform="translate(34.046875,12.4375)"/>
</svg>
