<?xml version="1.0" encoding="UTF-8"?>
<!-- Generator: visioncortex VTracer 0.6.0 -->
<svg version="1.1" xmlns="http://www.w3.org/2000/svg" width="128" height="128">
<path d="M0 0 C42.24 0 84.48 0 128 0 C128 42.24 128 84.48 128 128 C85.75999999999999 128 43.519999999999996 128 0 128 C0 85.75999999999999 0 43.519999999999996 0 0 Z " fill="#559A97" transform="translate(0,0)"/>
<path d="M0 0 C10.230000000000004 0 20.460000000000008 0 31 0 C31 42.24 31 84.48 31 128 C25.39 128 19.78 128 14 128 C13.010000000000005 127.01 12.019999999999996 126.02 11 125 C11 124.34 11 123.68 11 123 C10.4495703125 122.73703125 9.899140625000001 122.4740625 9.33203125 122.203125 C1.0444482479714168 117.9274540374794 -6.410023474666033 112.58997652533397 -13 106 C-13.765703125000002 106.3983203125 -13.765703125000002 106.3983203125 -14.546875 106.8046875 C-22.351637427713328 110.59636286381817 -30.322003720401398 112.20868738373746 -39 111.9375 C-42.662311238953876 111.82511860819095 -44.2480928924763 112.45977805459351 -47 115 C-47.99 115 -48.98 115 -50 115 C-50 115.66 -50 116.32 -50 117 C-56.43831989315621 117.5255771341352 -61.16725067318429 115.71838947314333 -67.0625 113.25 C-67.93455078125 112.901953125 -68.80660156249999 112.55390625 -69.705078125 112.1953125 C-76.72318805199197 109.32644091742948 -82.63406389189764 106.46805349348497 -87 100 C-89.18850183581183 93.3901329688656 -89.2076919596647 85.30696858753824 -86.8359375 78.8125 C-84.18933088820276 73.81787829158264 -81.28039939276508 69.68589947710325 -77 66 C-76.00999999999999 65.01 -76.00999999999999 65.01 -75 64 C-69.24471071236798 62.32137395777399 -65.80866135459546 63.534701042469166 -60.4296875 65.9921875 C-58.037137513220074 67.10928597066594 -58.037137513220074 67.10928597066594 -55.4375 67.328125 C-52.00873900527257 68.27323219726462 -51.108522970442074 69.96967382337738 -49.125 72.875 C-48.4379296875 73.8611328125 -47.750859375 74.847265625 -47.04296875 75.86328125 C-45.70712926835797 77.91429292066644 -44.41552566476526 79.994983076042 -43.17578125 82.10546875 C-42.6021484375 83.0812890625 -42.028515625 84.057109375 -41.4375 85.0625 C-40.9412109375 85.9609765625 -40.444921875 86.859453125 -39.93359375 87.78515625 C-37.183199073313055 90.93560833420504 -35.11745703029587 91.45529474703378 -31 92 C-28.22342571219295 91.0990119490255 -26.08701942521664 90.23017582655693 -23.5625 88.875 C-22.244861410150207 88.20038459508982 -20.927153710422544 87.52590415551342 -19.609375 86.8515625 C-18.674482421875 86.36091308593751 -18.674482421875 86.36091308593751 -17.720703125 85.8603515625 C-15.641712630520246 84.82085631526013 -13.489097871165015 84.06008717761405 -11.3125 83.25 C-7.861680079685939 81.50952095722151 -6.867777383091209 79.2151975723894 -5.4375 75.6875 C-4.042639429584966 71.0930250509575 -3.7741910339857725 67.71464986928548 -5 63 C-5.340292213662735 61.33474023101217 -5.674827167583416 59.668278009789454 -6 58 C-8.22907395404134 57.52040222098434 -10.45826296804131 57.04133919802607 -12.6875 56.5625 C-13.928867187500003 56.2956640625 -15.170234375000007 56.028828125 -16.44921875 55.75390625 C-18.528731174498034 55.31238160981505 -20.612178518339917 54.88764931816594 -22.703125 54.50390625 C-27.892625789161983 53.36539332176548 -32.560857892167064 51.33129623925559 -35.5 46.75 C-36.90710809964325 43.68172261605568 -38.07786752658675 40.581060217190505 -37.88671875 37.16015625 C-35.66811253841919 31.75535785791105 -29.59223600188146 28.380253894480678 -25 25 C-22.76370624706763 23.300930838289318 -20.538543534783273 21.58746796434164 -18.3125 19.875 C-17.77036865234375 19.45968017578125 -17.228237304687497 19.0443603515625 -16.669677734375 18.616455078125 C-13.356298453286797 16.07129375431289 -10.072488559642892 13.50212165713883 -6.875 10.8125 C-6.191796874999994 10.2414453125 -5.508593750000003 9.670390625 -4.8046875 9.08203125 C-2.349526273514101 6.462955357739762 -2.349526273514101 6.462955357739762 0 0 Z " fill="#448796" transform="translate(97,0)"/>
<path d="M0 0 C32.01 0 64.02 0 97 0 C94.9431881488519 10.284059255740468 85.6346600419393 15.637217086721217 77.72900390625 21.671875 C75.2711375484906 23.55987175038282 72.85333114131258 25.4961424411641 70.4375 27.4375 C69.6937109375 28.0343359375 68.949921875 28.631171875 68.18359375 29.24609375 C67.4630078125 29.8248828125 66.742421875 30.403671875 66 31 C65.175 31.6045703125 64.35 32.209140625 63.5 32.83203125 C60.57980437393612 35.36438839447727 58.700468327569205 38.03352002055543 56.5625 41.25 C55.776905183434906 42.41074115058852 54.99044723882436 43.57089860260222 54.203125 44.73046875 C53.47609375 45.8094140625 52.7490625 46.888359375 52 48 C48.466577274088564 53.162363019278864 45.47310207033127 56.872513102667845 40 60 C37.035954950682836 57.19195732169953 34.555009810705634 54.81684226264111 33 51 C32.34 51 31.68 51 31 51 C30.017067329621703 48.75157909038848 29.038555338308388 46.50140453321477 28.0625 44.25 C27.78470703125 43.61578125 27.5069140625 42.9815625 27.220703125 42.328125 C25.89279106139085 39.256328419121004 24.656338332136745 36.28999974083736 24 33 C18.039335689082403 31.33530996722121 12.404053127717866 31.227421337693336 6.625 33.5625 C3.0000000000000044 35 3.0000000000000044 35 0 34 C0 22.78 0 11.559999999999999 0 0 Z " fill="#62A7A4" transform="translate(0,0)"/>
<path d="M0 0 C10.230000000000004 0 20.460000000000008 0 31 0 C31 17.82 31 35.64 31 54 C20.9163879598662 52.87959866220735 20.9163879598662 52.87959866220735 16.75 51.5 C14.265863530429158 50.68819069621868 11.976995984677188 49.99641853653657 9.390625 49.59375 C6.629841507213939 48.90806521094202 5.925720263838016 48.011196098003154 4 46 C-3.2744754910078058 42.60607661482998 -11.209947624583577 40.794567039362946 -19 39 C-19 38.01 -19 37.02 -19 36 C-19.659999999999997 35.67 -20.319999999999993 35.34 -21 35 C-19.019999999999996 30.545 -19.019999999999996 30.545 -17 26 C-18.319999999999993 25.67 -19.64 25.34 -21 25 C-21 24.01 -21 23.02 -21 22 C-19.09375 20.203125000000004 -19.09375 20.203125000000004 -16.5 18.25 C-15.136816406250006 17.19232421875 -15.136816406250006 17.19232421875 -13.74609375 16.11328125 C-12.839882812500008 15.4158984375 -11.933671875000002 14.718515625 -11 14 C-9.50647379878626 12.830611371670715 -8.025723081014306 11.644590921581631 -6.5625 10.4375 C-5.945039062500001 9.9412109375 -5.327578125000002 9.444921875 -4.69140625 8.93359375 C-2.3329612657817336 6.438181878321533 -2.3329612657817336 6.438181878321533 0 0 Z " fill="#1F728F" transform="translate(97,0)"/>
<path d="M0 0 C0.33000000000000007 0 0.6600000000000001 0 1 0 C1.0863671875000005 1.0853906250000023 1.1727343749999992 2.1707812500000045 1.26171875 3.2890625 C1.4025067920782845 4.734486398670398 1.5444979521401194 6.179793463221387 1.6875 7.625 C1.7409960937500006 8.337851562499992 1.7944921874999995 9.050703124999998 1.849609375 9.78515625 C2.437677132253313 15.359015862227068 4.01205854545692 18.047665165586764 8 22 C13.066240259375643 25.058862043396616 18.553799568488156 27.061046927984876 24.0625 29.1875 C24.735148925781253 29.449824218749995 25.4077978515625 29.712148437500005 26.100830078125 29.982421875 C30.41575483416102 31.5988700291135 34.41678010978867 32.50532217049735 39 33 C39 32.34 39 31.680000000000007 39 31 C44.504508765221814 26.9967208980205 48.295558286963534 26.75924690977743 55.015625 26.9765625 C62.89332839438593 27.038429280584182 69.86230357969617 24.06965649808474 77 21 C77.6703125 21.885585937499997 78.340625 22.771171874999993 79.03125 23.68359375 C82.04373703082882 27.297517452124566 85.531191182956 29.59869492248852 89.5 32.0625 C100.46836697909157 38.936733958183126 100.46836697909157 38.936733958183126 103 44 C66.37 44 29.739999999999995 44 -8 44 C-8 31.129999999999995 -8 18.25999999999999 -8 5 C-6.35 4.340000000000003 -4.699999999999999 3.680000000000007 -3 3 C-1.2907841095924946 1.4587688006378414 -1.2907841095924946 1.4587688006378414 0 0 Z " fill="#4A8BBA" transform="translate(8,84)"/>
<path d="M0 0 C4.231296229570923 3.1488716127039424 5.3916365396487365 6.982518818541408 6.6875 12 C7.039085713384651 14.453048412469997 7.349395335705836 16.912257403463144 7.625 19.375 C8.444591863854015 26.61228886921093 10.505547205952212 32.48600229897764 13.6875 39 C14.178632812499998 40.026738281250005 14.178632812499998 40.026738281250005 14.6796875 41.07421875 C15.325905102060624 42.39434899420955 16.001453574551718 43.70012256230851 16.6875 45 C12.0625 49 12.0625 49 8.6875 49 C8.6875 49.66 8.6875 50.31999999999999 8.6875 51 C2.249180106843795 51.525577134135204 -2.4797506731842986 49.71838947314332 -8.375 47.25 C-9.683076171875001 46.727929687499994 -9.683076171875001 46.727929687499994 -11.017578125 46.1953125 C-18.035688051991965 43.32644091742948 -23.946563891897654 40.46805349348496 -28.3125 34 C-30.50100183581184 27.3901329688656 -30.5201919596647 19.306968587538236 -28.1484375 12.8125 C-25.501830888202768 7.817878291582659 -22.592899392765062 3.6858994771032485 -18.3125 0 C-17.6525 -0.6599999999999966 -16.9925 -1.3199999999999932 -16.3125 -2 C-10.801048549842616 -3.999935969255425 -5.3663713693445985 -1.6200366398021373 0 0 Z " fill="#186591" transform="translate(38.3125,66)"/>
<path d="M0 0 C23.76 0 47.52 0 72 0 C68.72413793103448 9.827586206896566 68.72413793103448 9.827586206896566 65 15 C63.75993117519797 16.888720210083093 62.531657856896814 18.78521483678472 61.3125 20.6875 C60.7105078125 21.6194921875 60.108515625 22.551484375 59.48828125 23.51171875 C57.882275556279865 25.99387842878002 57.882275556279865 25.99387842878002 57 29 C53.19450576583785 31.910083826123998 49.752818585119975 32.74075534990255 45 33 C40.49269556698526 31.70051505257841 38.80541223789962 27.929041135781393 36.5625 24.125 C32.76224107274951 17.68125129882318 32.76224107274951 17.68125129882318 27 13 C22.738549800867453 13.068183203186122 19.634973381180824 15.195653304144516 16.0625 17.375 C5.138297872340431 24 5.138297872340431 24 0 24 C0 16.08 0 8.16 0 0 Z " fill="#71D5D7" transform="translate(0,0)"/>
<path d="M0 0 C2.4113009147290967 1.3953721029396746 4.62036877614463 2.88558682323432 6.82421875 4.58984375 C9.289413620048492 6.377457537433784 9.289413620048492 6.377457537433784 14 7 C14 20.200000000000003 14 33.400000000000006 14 47 C8.39 47 2.780000000000001 47 -3 47 C-3.989999999999995 46.00999999999999 -4.980000000000004 45.02000000000001 -6 44 C-6 43.34 -6 42.68000000000001 -6 42 C-6.550429687499999 41.73703125 -7.100859374999999 41.4740625 -7.66796875 41.203125 C-14.680411786019675 37.58531519247225 -22.862781205867577 33.12266013514524 -28 27 C-29.52380952380952 22.04761904761905 -29.52380952380952 22.04761904761905 -28 19 C-27.340000000000003 19 -26.680000000000007 19 -26 19 C-25.731875000000002 18.278125000000003 -25.463750000000005 17.556250000000006 -25.1875 16.8125 C-21.31493599288939 7.6406378778959265 -10.685296739851424 -2.671324184962856 0 0 Z " fill="#1A5A7B" transform="translate(114,81)"/>
<path d="M0 0 C0.752812500000001 -0.005156249999998863 1.5056249999999984 -0.010312500000001279 2.28125 -0.015625 C4.853367382959696 0.29230454584728705 6.350474294058724 0.7961714105044493 8.5 2.25 C12.19068434028193 7.735050207380326 14.191096065482494 13.82447159418679 15.5 20.25 C16.16 20.25 16.82 20.25 17.5 20.25 C20.5 23.711538461538467 20.5 23.711538461538467 20.5 26.25 C21.490000000000002 26.58 22.479999999999997 26.909999999999997 23.5 27.25 C24.449218750000007 29.31640625000002 24.449218750000007 29.31640625000002 25.1875 31.8125 C25.564550781250006 33.05193359375 25.564550781250006 33.05193359375 25.94921875 34.31640625 C26.130976562500003 34.954492187499994 26.312734374999998 35.592578125 26.5 36.25 C22.81317803810775 37.47894065396409 22.159436280074694 36.859423337178114 18.75 35.25 C14.220512491393077 33.35776868272171 11.315079518486474 32.64497349383784 6.5 34.25 C1.390029344139542 38.11363634955302 -1.3386211290002663 43.80055133838721 -4.5 49.25 C-8.856725146198826 56.26754385964912 -8.856725146198826 56.26754385964912 -11.5 58.25 C-12.82 58.25 -14.14 58.25 -15.5 58.25 C-15.5 40.099999999999994 -15.5 21.949999999999996 -15.5 3.25 C-12.035 2.7550000000000026 -12.035 2.7550000000000026 -8.5 2.25 C-5.394756340610199 0.7423817016006033 -3.502425930969661 -0.023989218705271043 0 0 Z " fill="#6692A1" transform="translate(15.5,30.75)"/>
<path d="M0 0 C0.990000000000002 0 1.9799999999999969 0 3 0 C4.796875 2.01953125 4.796875 2.01953125 6.75 4.8125 C7.455117187500001 5.807656249999994 8.160234375000002 6.802812500000002 8.88671875 7.828125 C11.471207198417616 11.707246294112949 13.81291780199075 15.70546417659105 16.06640625 19.78515625 C18.816800926686966 22.93560833420507 20.88254296970412 23.455294747033776 25 24 C27.776237842653316 23.099121124229143 29.911850027803368 22.227026854154758 32.4375 20.875 C33.0934716796875 20.547497558593747 33.74944335937499 20.219995117187494 34.42529296875 19.882568359375 C37.1638475342323 18.5085378205073 39.86663794625025 17.070627248495697 42.57421875 15.63671875 C46.2081388385661 13.733236798846335 48.845522068066046 12.480690258508261 53 13 C54.33285920467088 16.998577614012618 53.760398588363756 19.378269177289326 51.96875 23.15234375 C50.394700142994836 26.15446303372356 48.72662900759681 29.08259236647433 47 32 C46.34 32 45.68000000000001 32 45 32 C44.87625 32.78375 44.7525 33.567499999999995 44.625 34.375 C44 37 44 37 42 39 C35.48207444054394 41.657308112701315 29.019456424229787 43.51589955694968 22 44 C20.39125 44.154687499999994 20.39125 44.154687499999994 18.75 44.3125 C16 44 16 44 13.9375 42.625 C6.726004540453751 32.85458679674379 4.134061636214753 21.819148270904904 2.47265625 10.0078125 C1.927041828099462 6.5357207242692965 1.086381755093484 3.3367439620728447 0 0 Z " fill="#2C7E87" transform="translate(41,68)"/>
<path d="M0 0 C0.6922265624999966 0.7308984375000023 1.3844531249999932 1.4617968750000045 2.09765625 2.21484375 C4.941876659171811 5.057061892076291 8.10492995009406 7.329093405150758 11.4375 9.5625 C11.984707031249997 9.93568359375 12.531914062499993 10.308867187499999 13.095703125 10.693359375 C15.77228730624023 12.514703640340983 18.45782001446854 14.2791314754881 21.22265625 15.96484375 C24 18 24 18 27 23 C5.8799999999999955 23 -15.240000000000009 23 -37 23 C-37 18.710000000000008 -37 14.420000000000002 -37 10 C-31.49679793343992 5.997671224319944 -27.706852247123834 5.759024709308562 -20.98828125 5.9765625 C-13.318145638082456 6.036720426367978 -6.802488958045615 3.3127960410340336 0 0 Z " fill="#2F8AAB" transform="translate(84,105)"/>
<path d="M0 0 C5.885876896886344 0.4746674916843858 11.117689608923257 1.4710755584293906 16.73828125 3.28125 C18.801066196583548 3.9367809674807788 20.900184302725492 4.475046075681377 23 5 C23 16.22 23 27.439999999999998 23 39 C17.8331658597117 39 17.39321187088244 38.926631678649386 13.6875 36 C10.272338075304077 33.648208097985346 7.53148664574627 31.95937136446281 3.1953125 32.2578125 C-1.8421111145174933 33.96085607074434 -5.94303472573074 37.658969774131194 -10 41 C-12.342574211936665 33.30838993570593 -7.427680342636478 24.104852810189456 -4.9375 16.8125 C-4.214600540747753 14.694980345022195 -3.4944446216905334 12.576521626771076 -2.77734375 10.45703125 C-2.3015588378906244 9.064481201171873 -2.3015588378906244 9.064481201171873 -1.816162109375 7.643798828125 C-1.0332691481995937 5.107768951795791 -0.4702215600922699 2.6102757413031554 0 0 Z " fill="#4B6D86" transform="translate(105,49)"/>
<path d="M0 0 C10.230000000000004 0 20.460000000000008 0 31 0 C31 10.23 31 20.46 31 31 C29.02000000000001 30.01 27.039999999999992 29.02 25 28 C25 27.34 25 26.68 25 26 C24.340000000000003 26 23.680000000000007 26 23 26 C22.504999999999995 24.02 22.504999999999995 24.02 22 22 C21.340000000000003 22 20.680000000000007 22 20 22 C18.666666666666657 20.666666666666668 17.333333333333343 19.333333333333332 16 18 C12.354551881225717 15.3961084865898 8.309205410547122 15.388765189993316 4 16 C-1.1064809366853865 17.593511781660688 -5.3448705439888045 20.175185183830997 -9.6875 23.25 C-12.562723862216416 25.23551298177532 -13.90806553879618 25.984956179075738 -17.4375 26.5625 C-20 26 -20 26 -22 23 C-21.29875 22.4315234375 -20.597499999999997 21.863046875 -19.875 21.27734375 C-17.901494987734367 19.671189534854463 -15.932995476025255 18.05887127471667 -13.96875 16.44140625 C-12.188260176835598 14.97718764542401 -10.399251600118859 13.523107195548901 -8.59375 12.08984375 C-7.902812499999996 11.5239453125 -7.211874999999992 10.958046875 -6.5 10.375 C-5.891562499999992 9.887734375 -5.283124999999998 9.40046875 -4.65625 8.8984375 C-2.3309620277748877 6.429484178185597 -2.3309620277748877 6.429484178185597 0 0 Z " fill="#1C8AA4" transform="translate(97,0)"/>
<path d="M0 0 C3.377249534568776 5.394682424855731 4.239949810422033 11.141845094963884 4.9375 17.375 C5.757091863854015 24.61228886921093 7.818047205952212 30.48600229897764 11 37 C11.491132812499998 38.026738281250005 11.491132812499998 38.026738281250005 11.9921875 39.07421875 C12.638405102060624 40.39434899420955 13.313953574551718 41.70012256230851 14 43 C9.375 47 9.375 47 6 47 C5.757656249999997 46.347734375 5.5153125 45.69546875 5.265625 45.0234375 C4.930468750000003 44.14945312500001 4.595312499999999 43.27546875 4.25 42.375 C3.9251562500000006 41.516484375000005 3.600312500000001 40.65796875000001 3.265625 39.7734375 C2.0504533170774835 36.89967339285721 2.0504533170774835 36.89967339285721 0.0625 34.17578125 C-2.3145667613099334 30.515638680028445 -3.7741603302088294 26.897413371743426 -5.25 22.8125 C-5.518124999999998 22.101582031250004 -5.7862499999999955 21.390664062500008 -6.0625 20.658203125 C-7.173364891000418 17.64583225986368 -8 15.235615286290141 -8 12 C-8.659999999999997 12 -9.32 12 -10 12 C-10.329999999999998 10.680000000000007 -10.66 9.36 -11 8 C-13.984566518880008 7.056162724798625 -16.87224102649956 6.248492077342007 -20 6 C-22.4823172661055 7.730103882450038 -22.4823172661055 7.730103882450038 -24 10 C-24.66 10 -25.32 10 -26 10 C-26.2475 10.5775 -26.495 11.155000000000001 -26.75 11.75 C-28.166833167293696 14.300299701128651 -29.876275371656803 16.017857013546347 -32 18 C-31.46376738877015 13.272686190473678 -30.156719089876347 9.966422452789786 -27.75 5.875 C-26.876015625 4.355195312500001 -26.876015625 4.355195312500001 -25.984375 2.8046875 C-23.505190300595743 -0.6993570160871201 -21.002412281758993 -3.217448073795339 -16.9609375 -4.796875 C-11.401825357439655 -5.372719285683544 -4.382647529825192 -3.2615051384745612 0 0 Z " fill="#1D718D" transform="translate(41,68)"/>
<path d="M0 0 C8.25 0 16.5 0 25 0 C22.943188148851902 10.284059255740473 13.634660041939313 15.637217086721211 5.72900390625 21.671875 C3.2711375484906284 23.5598717503828 0.8533311413125801 25.496142441164107 -1.5625 27.4375 C-2.3062890624999994 28.0343359375 -3.050078124999999 28.631171875 -3.81640625 29.24609375 C-4.5369921875000045 29.8248828125 -5.257578124999995 30.403671875 -6 31 C-7.666437979266902 32.33361914233877 -9.333047555269566 33.66702396774631 -11 35 C-12.649999999999999 33.35 -14.299999999999997 31.7 -16 30 C-14.446953125323617 25.94482204945612 -12.742900591256841 22.4968821276234 -10.25 18.9375 C-6.12559415808721 12.96851064084983 -3.1639549451444964 6.517747186997658 0 0 Z " fill="#3FACBD" transform="translate(72,0)"/>
<path d="M0 0 C9.57 0 19.14 0 29 0 C26.67914438502674 10.443850267379677 26.67914438502674 10.443850267379677 22 14 C18.070874833942593 16.468791128181934 14.077514448502555 18.785442603258588 10 21 C8.9674609375 21.564609375 7.934921875000001 22.12921875 6.87109375 22.7109375 C3.999999999999998 24 3.999999999999998 24 0 24 C0 16.08 0 8.16 0 0 Z " fill="#A6DDC2" transform="translate(0,0)"/>
</svg>
