<?xml version="1.0" encoding="UTF-8"?>
<!-- Generator: visioncortex VTracer 0.6.0 -->
<svg version="1.1" xmlns="http://www.w3.org/2000/svg" width="128" height="128">
<path d="M0 0 C42.24 0 84.48 0 128 0 C128 42.24 128 84.48 128 128 C85.75999999999999 128 43.519999999999996 128 0 128 C0 85.75999999999999 0 43.519999999999996 0 0 Z " fill="#569E80" transform="translate(0,0)"/>
<path d="M0 0 C10.230000000000004 0 20.460000000000008 0 31 0 C31 20.130000000000003 31 40.260000000000005 31 61 C24.540103048621575 61 19.665556201912892 60.10686400159643 13.5 58.55859375 C8.824345162367123 57.81236758729743 4.721095402254804 57.80479485954528 0.75 60.5625 C-1.6252057923826442 63.87082235367581 -2.7124657974308377 67.13739739229251 -4 71 C-4.59812500000001 70.38125 -5.196249999999992 69.7625 -5.8125 69.125 C-12.014962873174213 64.99002475121719 -19.043305305521017 64.60392018347028 -26.26171875 65.69921875 C-30.154115806837524 66.12677163641439 -34.02429421081544 66.16225351103752 -37.9375 66.1875 C-38.6962744140625 66.2002294921875 -39.455048828125 66.212958984375 -40.23681640625 66.22607421875 C-42.15935112484177 66.22997564207972 -44.081394066758655 66.12290743763435 -46 66 C-49.10062903714041 62.89937096285959 -48.7546372498201 59.18828508446621 -49 55 C-49.0657421875 53.888828125 -49.131484375 52.77765625 -49.19921875 51.6328125 C-49.50056839534136 41.80257924162328 -47.75998285894702 33.376548909190554 -45 24 C-40.540856801438586 24.567676901661876 -37.674593883235225 26.357387606546112 -33.875 28.6875 C-25.11579436908606 33.508393593440275 -16.444901423524684 32.22284656758302 -7 30 C-3.487295730376644 28.928047992837946 -0.2806326452606811 27.63324599365348 3 26 C3.990000000000009 25.67 4.97999999999999 25.34 6 25 C5.079514972979084 18.520269875576467 3.841200826180696 12.899531513033017 0.8046875 7.0703125 C0 4.9999999999999964 0 4.9999999999999964 0 0 Z " fill="#5D959A" transform="translate(97,0)"/>
<path d="M0 0 C0.7631250000000023 0.34933593750000114 1.5262500000000045 0.6986718750000023 2.3125 1.05859375 C5.939758813664348 2.3291887704841656 9.395512834765768 2.25365148195948 13.1875 2.1875 C13.944904785156247 2.182504882812495 14.7023095703125 2.177509765625004 15.482666015625 2.17236328125 C19.512226866257876 2.123238060741798 23.437958949740533 1.9036017630120057 27.4375 1.375 C33.900507948410166 0.6250263814131571 39.72707035544849 1.2953027665863743 45 5.25 C47.60411440385282 8.830657305297635 48.52973007240058 12.140158286332635 49.60546875 16.39453125 C51.175248318815676 22.179299053315248 52.93679791026403 25.607349092177344 57 30 C57 30.659999999999997 57 31.319999999999993 57 32 C58.31999999999999 32.66 59.64 33.31999999999999 61 34 C58.53308488551659 36.46691511448341 57.43422948432645 36.552057023783505 54 37 C52.174687500000005 36.96906250000001 52.174687500000005 36.96906250000001 50.3125 36.9375 C43.32072601574697 36.872033951458306 37.016677090726006 38.53229638235793 30.5625 41.125 C24.3379571155277 43.49120920998379 17.991725994078145 44.26255870100235 11.5546875 42.2265625 C9.000000000000007 41 9.000000000000007 41 6.2421875 38.99609375 C2.2444775252246103 36.534853030590085 -1.308875316633447 35.874782066143254 -5.875 35.0625 C-15.586009125058595 33.10799710783479 -22.216438588596475 30.33513262231685 -28 22 C-30.80923749442394 15.998447171003406 -29.82635294468349 11.437741186816297 -27.75 5.3125 C-21.961610557253266 -5.644094302342033 -10.348329440208559 -2.5751603215265533 0 0 Z " fill="#237485" transform="translate(46,63)"/>
<path d="M0 0 C32.01 0 64.02 0 97 0 C97.99 2.97 98.98 5.94 100 9 C100.556875 10.340625 101.11375 11.68125 101.6875 13.0625 C103.26813618132073 17.15404261518959 103.23334096906316 20.64430191082098 103 25 C101.39709470488263 25.81498561909345 99.79262722305712 26.62689927075942 98.1875 27.4375 C97.2941796875 27.8899609375 96.400859375 28.342421875 95.48046875 28.80859375 C87.73820511060292 32.52731880514348 76.04051148508184 34.67911761626041 67.67431640625 32.353515625 C63.09634604164633 30.440581713300666 59.073598208200735 27.807409720556176 55 25 C54.0705859375 24.466328125 53.141171875 23.93265625 52.18359375 23.3828125 C49.46467994035987 21.66099588351949 48.61243592980214 19.754578046745316 47 17 C44.13475724973497 14.355160538216893 41.911772111851135 12.447059669925844 38 12 C36.80375 11.855625 35.6075 11.71125 34.375 11.5625 C27.38020474470917 11.704199351396316 21.975731565698233 16.394955843650685 16.71875 20.58984375 C16.15373779296875 21.0385986328125 15.5887255859375 21.487353515625 15.006591796875 21.94970703125 C13.90216945047014 22.838147085671665 12.809110684673795 23.740959392560544 11.729736328125 24.65966796875 C7.468900651545521 28.131261655904936 5.994957248015032 28.143577535997853 0 29 C0 19.43 0 9.86 0 0 Z " fill="#4F9996" transform="translate(0,0)"/>
<path d="M0 0 C4.4666986962939195 0.8933397392587779 5.827635513634965 1.348352716323916 9.3125 3.75 C20.403996227708994 10.529044086154983 31.210206113595746 12.288886331182837 43.97998046875 12.4755859375 C50.14685669039074 12.669761631942336 53.695031012065975 13.999586299879212 58.71484375 17.69140625 C64.99380519082662 21.287050835772504 73.02977265113313 19.12559681446288 79.671875 17.453125 C87.54266239763753 15.921226781667869 95.33688680279204 17.144484766740433 103.1328125 18.48828125 C111.36658884446992 19.57780115012683 119.70596727359163 19.702385983377226 128 20 C128 24.289999999999992 128 28.58 128 33 C85.75999999999999 33 43.519999999999996 33 0 33 C0 22.11 0 11.219999999999999 0 0 Z " fill="#81D1E0" transform="translate(0,95)"/>
<path d="M0 0 C0 17.819999999999993 0 35.64 0 54 C-22.541071428571414 54 -22.541071428571414 54 -31.08203125 52.453125 C-37.58432038205939 51.4433987090778 -44.103537732437374 51.38938000457057 -50.5 53 C-56.89701855675918 54.57607703572327 -63.628165361331824 55.55256792684439 -69.765625 52.7265625 C-72.02579795556531 51.26953276449407 -74.07414707244958 49.87722027786481 -76 48 C-76 47.34 -76 46.68000000000001 -76 46 C-75.34 46 -74.68 46 -74 46 C-73.67 45.00999999999999 -73.34 44.02000000000001 -73 43 C-71.91525390625 43.2358984375 -71.91525390625 43.2358984375 -70.80859375 43.4765625 C-61.77578942352311 45.160005865435195 -54.83024474887084 43.61683860236597 -46.359375 40.19140625 C-41.394089917537826 38.430462121917486 -36.61999203779945 37.84316396932839 -31.375 38.0625 C-27.807296656800276 38.11738774374153 -25.225301610816615 37.664671799131156 -22 36 C-22.721874999999997 35.31937500000001 -23.443749999999994 34.63875 -24.1875 33.9375 C-31.49071967939514 26.427390244701314 -34.09340362795206 19.33072162222537 -35 9 C-34.498585241851885 4.346023582822397 -32.45315311069139 1.555112560596946 -29.5 -2.0625 C-21.998215904680862 -7.510005810048369 -6.987971619752443 -1.3975943239504858 0 0 Z " fill="#578A7E" transform="translate(128,61)"/>
<path d="M0 0 C2.9940408481892007 1.7076705775788312 5.100017176427627 3.957982236396333 7.40625 6.4921875 C9.032276600050793 8.137165459025745 10.51232880484607 9.131231424012562 12.51953125 10.25 C13.787968749999997 11.209062500000002 13.787968749999997 11.209062500000002 15.08203125 12.1875 C15.45703125 15.437500000000014 15.45703125 15.437500000000014 15.08203125 18.1875 C13.498353776607708 18.04545259303542 11.915098074102914 17.898698473362266 10.33203125 17.75 C9.009453125 17.628183593750002 9.009453125 17.628183593750002 7.66015625 17.50390625 C5.082031250000007 17.1875 5.082031250000007 17.1875 3.0703125 16.66796875 C0.6850734087410117 16.09157502067808 -1.528012984201638 15.981888339652457 -3.98046875 15.9375 C-5.266308593749997 15.898828125000001 -5.266308593749997 15.898828125000001 -6.578125 15.859375 C-9.389882980787224 16.25367828945931 -10.080360488904013 17.115419468200372 -11.91796875 19.1875 C-12.57796875 19.1875 -13.23796875 19.1875 -13.91796875 19.1875 C-16.510023164908976 25.38207072037568 -17.767362414237958 30.596707814024455 -15.91796875 37.1875 C-11.948931086298789 44.33176779466217 -7.543588097140109 47.614501907359525 0.08203125 50.1875 C3.8941337174086 50.98920398893978 7.683461611089513 51.673914761044244 11.53125 52.28125 C15.569497131794357 53.31191373440737 17.782143701885495 54.71385157683582 21.08203125 57.1875 C20.75203125 58.50749999999999 20.422031250000003 59.8275 20.08203125 61.1875 C19.422031250000003 61.1875 18.76203125 61.1875 18.08203125 61.1875 C17.75203125 61.8475 17.422031250000003 62.50749999999999 17.08203125 63.1875 C0.47412751458942637 63.00032075708042 -13.791240464712953 61.56373448949074 -27.68359375 51.640625 C-30.063083036764226 49.9205907206653 -30.063083036764226 49.9205907206653 -33.91796875 49.1875 C-33.91796875 38.6275 -33.91796875 28.067499999999995 -33.91796875 17.1875 C-31.60796875 16.527500000000003 -29.29796875 15.8675 -26.91796875 15.1875 C-24.598159290428153 14.364074677404872 -24.598159290428153 14.364074677404872 -22.91796875 13.1875 C-22.58796875 12.197499999999998 -22.25796875 11.207499999999996 -21.91796875 10.1875 C-21.25796875 10.1875 -20.59796875 10.1875 -19.91796875 10.1875 C-19.91796875 9.527500000000003 -19.91796875 8.8675 -19.91796875 8.1875 C-17.871093749999993 6.3125 -17.871093749999993 6.3125 -15.16796875 4.1875 C-14.286249999999999 3.4862499999999983 -13.404531250000002 2.7849999999999966 -12.49609375 2.0625 C-7.6930479193748305 -1.4306242404546694 -5.800707984799594 -2.410683837838789 0 0 Z " fill="#418970" transform="translate(33.91796875,45.8125)"/>
<path d="M0 0 C3.0251714376964003 1.0594666974276805 4.720837639680688 1.7208376396806813 7 4 C7.664308616963744 7.958457532010783 7.7465571449706445 11.996462018858281 8 16 C8.12565146533337 17.380508447620443 8.254674378020873 18.760713354813802 8.38671875 20.140625 C8.50830323330441 21.552041145736183 8.629402261808053 22.963499199940657 8.75 24.375 C8.868593750000002 25.682109374999996 8.987187499999997 26.989218749999992 9.109375 28.3359375 C8.989440129611403 32.35375565801803 8.050304387793709 34.58634888011666 6 38 C5.238164062499997 37.806640625 4.476328125000002 37.61328125 3.69140625 37.4140625 C2.6588671875000003 37.153671875 1.6263281250000006 36.89328125 0.5625 36.625 C-0.5344921874999997 36.346562500000005 -1.6314843749999994 36.06812500000001 -2.76171875 35.78125 C-5.4210927085614316 35.139664002759616 -8.06077804373372 34.61480575035323 -10.75 34.125 C-18.232314629433652 32.4713000275527 -23.68956739742094 28.212094044893348 -28 22 C-30.80923749442394 15.998447171003406 -29.82635294468349 11.437741186816297 -27.75 5.3125 C-21.961610557253266 -5.644094302342033 -10.348329440208559 -2.5751603215265533 0 0 Z " fill="#156262" transform="translate(46,63)"/>
<path d="M0 0 C12.210000000000008 0 24.42 0 37 0 C37.99000000000001 2.97 38.97999999999999 5.94 40 9 C40.55687499999999 10.340625 41.11375000000001 11.68125 41.6875 13.0625 C43.26813618132073 17.15404261518959 43.233340969063164 20.64430191082098 43 25 C41.39709470488262 25.81498561909345 39.792627223057124 26.62689927075942 38.1875 27.4375 C37.29417968749999 27.8899609375 36.40085937500001 28.342421875 35.48046875 28.80859375 C30.037851739814954 31.422764124970772 24.742250541883934 32.01998725635142 18.87890625 30.421875 C10.370773626109411 26.773163153497215 6.016689995719631 18.53895247515225 1.9453125 10.65234375 C1 8 1 8 0 0 Z " fill="#1E6F93" transform="translate(60,0)"/>
<path d="M0 0 C3.068416646644735 0.946582605030784 6.072909088144129 1.2976878547680144 9.25390625 1.6953125 C10.25390625 2.6953125 10.25390625 2.6953125 10.3515625 5.19921875 C10.339960937499995 6.208554687499998 10.328359374999991 7.2178906249999955 10.31640625 8.2578125 C10.307382812500009 9.269726562499997 10.298359375000018 10.281640624999994 10.2890625 11.32421875 C10.277460937499995 12.106679687500005 10.265859374999991 12.889140624999996 10.25390625 13.6953125 C-0.2599142966304129 13.88915687258006 -10.445560899948958 14.02885014425246 -20.828125 12.1484375 C-27.33041413205939 11.138711209077798 -33.849631482437374 11.084692504570569 -40.24609375 12.6953125 C-46.64311230675918 14.271389535723273 -53.37425911133181 15.24788042684439 -59.51171875 12.421875 C-61.7718917055653 10.964845264494073 -63.820240822449584 9.572532777864808 -65.74609375 7.6953125 C-65.74609375 7.035312500000003 -65.74609375 6.375312500000007 -65.74609375 5.6953125 C-65.08609375 5.6953125 -64.42609375 5.6953125 -63.74609375 5.6953125 C-63.41609375 4.705312500000005 -63.08609375 3.715312499999996 -62.74609375 2.6953125 C-62.0229296875 2.8525781249999937 -61.299765625 3.0098437500000017 -60.5546875 3.171875 C-51.52188317352309 4.8553183654351955 -44.57633849887084 3.3121511023659735 -36.10546875 -0.11328125 C-31.13454943549695 -1.8762235650272459 -26.31178990520023 -2.455587210023708 -21.05859375 -2.3046875 C-5.329561249671428 -1.8576812477704152 -5.329561249671428 -1.8576812477704152 0 0 Z " fill="#4FA0B0" transform="translate(117.74609375,101.3046875)"/>
<path d="M0 0 C4.4666986962939195 0.8933397392587779 5.827635513634965 1.348352716323916 9.3125 3.75 C17.268903652121022 8.722752282575641 26.80987736527155 11.346844477698752 36 13 C35.35737498135362 15.959064039348434 34.71105389787635 18.917235164702333 34.0625 21.875 C33.88009765625 22.716757812499992 33.6976953125 23.558515625 33.509765625 24.42578125 C33.33251953125 25.2314453125 33.1552734375 26.037109375 32.97265625 26.8671875 C32.81031494140625 27.610815429687506 32.6479736328125 28.354443359374997 32.480712890625 29.12060546875 C31.999999999999996 31 31.999999999999996 31 31 33 C20.77 33 10.54 33 0 33 C0 22.11 0 11.219999999999999 0 0 Z " fill="#A0C584" transform="translate(0,95)"/>
<path d="M0 0 C0 10.560000000000002 0 21.120000000000005 0 32 C-5.884417507669838 32 -10.493408175350297 31.531277335185386 -16.125 30.3125 C-16.910039062500005 30.16361328125 -17.695078124999995 30.0147265625 -18.50390625 29.861328125 C-23.67533191110205 28.749428003936742 -26.66982053311311 27.35833196248886 -30 23 C-31.137843464468546 19.98497699507181 -31.289136383367122 17.20317758043965 -31 14 C-23.811248686269266 -0.3775026274614568 -15.09515165956023 -2.1564502370800334 0 0 Z " fill="#86AFAC" transform="translate(128,29)"/>
<path d="M0 0 C4.482286341598552 0.592000082852639 8.01359663703795 2.3909023400005296 11.875 4.625 C12.493427734375004 4.981828613281252 13.111855468750008 5.3386572265625 13.7490234375 5.706298828125 C19.470431475139065 9.110642171554154 24.15589647341399 12.772818828474485 27.5 18.625 C28.12343949617585 21.586337606835272 28.0680405565696 23.15189184914773 27 26 C22.905708562750775 31.086846937188433 17.72055817914655 33.855212867954904 11.5625 35.75 C6.6005828304068785 36.2340894799603 1.7627216734412983 36.5875738911471 -3 35 C-7.363096666128342 24.28362222354442 -3.1007203073605325 10.534143544202529 0 0 Z " fill="#7AB9B7" transform="translate(52,24)"/>
<path d="M0 0 C10.230000000000004 0 20.460000000000008 0 31 0 C31 9.57 31 19.14 31 29 C23.121439280359823 29 23.121439280359823 29 19.88671875 28.16015625 C18.851279296874992 27.896220703125 18.851279296874992 27.896220703125 17.794921875 27.626953125 C17.09947265625 27.44068359375 16.4040234375 27.2544140625 15.6875 27.0625 C14.972714843749998 26.88009765625 14.257929687499995 26.6976953125 13.521484375 26.509765625 C8.326626712328789 25.16331335616439 8.326626712328789 25.16331335616439 6 24 C5.5078125 22.03125 5.5078125 22.03125 5.125 19.5 C4.315956868539743 14.939345573461914 2.9163944266846187 11.213278209572636 0.8046875 7.10546875 C0 5 0 5 0 0 Z " fill="#428FBD" transform="translate(97,0)"/>
<path d="M0 0 C6.609679601910884 0.15216302869001197 11.090662029415164 2.1379035079202566 16.010498046875 6.45751953125 C18.447998046875 9.52001953125 18.447998046875 9.52001953125 20.010498046875 12.45751953125 C20.587998046875 13.344394531250003 21.165498046875 14.231269531250007 21.760498046875 15.14501953125 C23.010498046875 17.45751953125 23.010498046875 17.45751953125 23.010498046875 20.45751953125 C10.800498046875 20.45751953125 -1.4095019531250017 20.45751953125 -13.989501953125 20.45751953125 C-13.326908219201268 15.819363393783874 -12.62286864551745 11.581985300048032 -11.489501953125 7.08251953125 C-11.231689453125 6.043535156250002 -10.973876953125 5.004550781250003 -10.708251953125 3.93408203125 C-9.192228106939908 -1.289608830061681 -4.830638288896104 0.047128178428252454 0 0 Z " fill="#AFDCC1" transform="translate(44.989501953125,107.54248046875)"/>
<path d="M0 0 C5.280000000000001 0 10.560000000000002 0 16 0 C16.536249999999995 1.959375 17.072500000000005 3.91875 17.625 5.9375 C19.295887245586208 11.443013370348798 21.388113408772824 15.703448334971656 24.828125 20.29296875 C26 22 26 22 26 24 C26.989999999999995 24.33 27.980000000000004 24.66 29 25 C29 25.66 29 26.32 29 27 C29.763125000000002 27.28875 30.526250000000005 27.5775 31.3125 27.875 C34 29.000000000000004 34 29.000000000000004 37 31 C31.60840091393834 33.24747002939503 27.07611302213084 33.64174988963391 21.625 31.48046875 C8.754394734372234 25.545069086091083 8.754394734372234 25.545069086091083 6.25 19.0625 C5.829048665803768 17.376063717376336 5.412465762672291 15.688531715939703 5 14 C3.725177235893341 11.363089818291293 2.3459436035544883 8.802437869224269 0.953125 6.2265625 C0 4 0 4 0 0 Z " fill="#42919D" transform="translate(44,0)"/>
</svg>
