<?xml version="1.0" encoding="UTF-8"?>
<!-- Generator: visioncortex VTracer 0.6.0 -->
<svg version="1.1" xmlns="http://www.w3.org/2000/svg" width="128" height="128">
<path d="M0 0 C42.24 0 84.48 0 128 0 C128 42.24 128 84.48 128 128 C85.75999999999999 128 43.519999999999996 128 0 128 C0 85.75999999999999 0 43.519999999999996 0 0 Z " fill="#928492" transform="translate(0,0)"/>
<path d="M0 0 C14.189999999999998 0 28.379999999999995 0 43 0 C43 27.060000000000002 43 54.120000000000005 43 82 C36.000000000000014 82 36.000000000000014 82 32.58203125 81 C28.437456957728514 79.8429541779482 24.946691170500912 79.85362942393938 20.6875 80 C14.913276662804307 80.10972395890158 9.716704274031216 79.82405972743967 4.078125 78.43359375 C1.7214659909965349 77.86236665211115 1.7214659909965349 77.86236665211115 -1.875 78.0625 C-5.575271456142573 77.98849457087715 -6.341227805812309 77.48290010352159 -9 75 C-10.703124999999986 72.15234375000001 -10.703124999999986 72.15234375000001 -12.25 68.9375 C-13.031171874999998 67.34228515625 -13.031171874999998 67.34228515625 -13.828125 65.71484375 C-15 63 -15 63 -15 61 C-17.711528065596667 61.03321470904406 -20.415093456339164 61.10058687894509 -23.125 61.1875 C-23.885546875000003 61.19330078125 -24.64609375 61.1991015625 -25.4296875 61.205078125 C-30.099390126197 61.38623038205075 -33.17139298893305 62.03652887009595 -36.69970703125 65.424560546875 C-39.077166656346066 68.30509884217071 -40.73264139192147 71.47346353026836 -42.375 74.8125 C-42.7294921875 75.50537109375 -43.083984375 76.1982421875 -43.44921875 76.912109375 C-44.31161269192877 78.60193534229286 -45.15755421556521 80.30014112023946 -46 82 C-47.47656249999999 80.91015625000001 -47.47656249999999 80.91015625000001 -49 79 C-49.3359375 75.99609375000001 -49.3359375 75.99609375000001 -49.375 72.4375 C-49.72653637288599 65.47134044750419 -51.44580258051994 60.906392213130125 -55 55 C-58.72524383435743 48.58225319625552 -60.699168944486075 42.43122542383389 -59.73046875 34.90625 C-58.78425170637083 32.436977715021214 -57.54163016656821 31.41895164409941 -55.5 29.75 C-52.410370131737515 27.184503770103476 -49.437408536253514 24.55102149994468 -46.5 21.8125 C-41.22236151618158 17.167455170063928 -36.598030851177285 13.5739450061497 -29.3125 13.875 C-25.70885913284379 14.543716861946514 -23.256650699626576 15.606657513377538 -21.0625 18.72265625 C-17.842852657483718 25.623591546643343 -16 33.42481271252496 -16 41 C-10.060000000000002 40.505 -10.060000000000002 40.505 -4 40 C-2.470052083333343 42.571614583333336 -0.9401041666666572 45.143229166666664 0.58984375 47.71484375 C1.8073217311157634 49.88412677119649 1.8073217311157634 49.88412677119649 3 51 C5.262235799054281 51.23846903248457 5.262235799054281 51.23846903248457 7.875 51.25 C8.759296875000004 51.27578125 9.643593749999994 51.3015625 10.5546875 51.328125 C13.016243591319892 51.1951545473525 13.016243591319892 51.1951545473525 14.70703125 49.7578125 C16.1738212047147 47.76368718392263 17.002222472872532 45.96402773840736 17.8125 43.625 C18.087070312500003 42.874765625 18.361640625000007 42.12453125 18.64453125 41.3515625 C19.531004970902217 35.487197884800715 14.59146098096926 29.843966712746504 11.625 25.0625 C11.142890625000007 24.27681640625 10.66078125 23.4911328125 10.1640625 22.681640625 C7.524245102017588 18.39552406169975 4.815618202043339 14.172465887643408 2 10 C-0.4022780507581558 6.156355118786953 0 5.193014221864551 0 0 Z " fill="#74A4B9" transform="translate(85,0)"/>
<path d="M0 0 C0.7837499999999977 0.02255859374999858 1.5674999999999955 0.04511718749999716 2.375 0.068359375 C4.2925026012423615 0.12681982015983095 6.209010598795416 0.21648716809108492 8.125 0.3125 C8.956445312499994 1.9193164062499974 8.956445312499994 1.9193164062499974 9.8046875 3.55859375 C10.536156548792746 4.95588718936051 11.26794389251836 6.3530140371068455 12 7.75 C12.364804687499998 8.457050781250004 12.729609374999995 9.164101562500008 13.10546875 9.892578125 C14.913031795130308 13.752596676697422 14.913031795130308 13.752596676697422 18.125 16.3125 C20.53085268377248 16.34328787712323 22.92021149527153 16.2458121502616 25.32421875 16.15234375 C28.125 16.3125 28.125 16.3125 31.453125 17.3203125 C36.11692680733347 18.58053128623692 40.430076809505834 18.392301294154038 45.193359375 18.146484375 C52.82677674811406 17.939790533897934 58.03621657258958 19.579189265554902 66.125 21.3125 C66.125 31.212500000000006 66.125 41.1125 66.125 51.3125 C60.038494615408936 51.3125 54.69071687579759 51.17270004793505 48.75 50.55078125 C40.12856801617448 49.76818102527774 33.307624554302436 50.22311942961379 25.14453125 53.21875 C10.081319120817966 58.67502347499479 10.081319120817966 58.67502347499479 3.125 56.3125 C-6.210280449233096 50.64204644587599 -19.73698955680024 39.18607107062242 -22.875 28.3125 C-23.438118189297406 21.9675985415211 -22.357233300070213 18.11067915339669 -19.25 12.625 C-18.918710937500002 11.987558593749995 -18.587421875000004 11.350117187500004 -18.24609375 10.693359375 C-13.844481882478462 2.645884092682323 -9.260806091677935 -0.5101291491178515 0 0 Z " fill="#85BBB0" transform="translate(61.875,60.6875)"/>
<path d="M0 0 C10.504344740611776 1.3130430925764713 21.00931257085441 4.4697787947305585 28.3125 12.5625 C31.078865507514063 16.558361288631417 31.559374427995262 20.26211332479781 31.56640625 25.015625 C30.42429443958938 31.03337274588766 26.46956651419328 36.058965544519396 23 41 C29.953391825020603 50.05986052495331 37.476329496781005 58.799891785672486 45.80078125 66.63671875 C48 69 48 69 49 73 C32.83 73 16.659999999999997 73 0 73 C0 48.91 0 24.819999999999993 0 0 Z " fill="#695451" transform="translate(0,55)"/>
<path d="M0 0 C5 1 5 1 8 3 C8.8515625 5.03125 8.8515625 5.03125 9.625 7.5 C12.048353791814641 13.93442213688715 16.219895141632996 18.179385778426493 21 23 C21.636796875 23.6741796875 22.273593750000003 24.348359375 22.9296875 25.04296875 C28.146693281323977 30.48024810875765 32.82461294460518 34.55708888760171 40.58984375 35.1015625 C45.97412696727284 34.87467212131426 50.88953391498573 32.80180529688465 55.87890625 30.90625 C66.0025164667175 27.210538317234807 74.86879018313785 27.677612888675256 85.4453125 28.78125 C87.85788959678814 28.98783152510724 90.20527704843353 29.03444445482657 92.625 29 C93.73875 29 94.8525 29 96 29 C97 30.000000000000014 97 30.000000000000014 97.09765625 33.59765625 C97.09098220326484 35.085968671940805 97.07902183076999 36.57426432064301 97.0625 38.0625 C97.05798828125 38.82111328125001 97.05347656250001 39.5797265625 97.048828125 40.361328125 C97.0370068005472 42.240918712994585 97.01907077690441 44.12046898731148 97 46 C86.7516129155275 46.115749676130406 76.5033808101187 46.20464192073939 66.25447368621826 46.259060859680176 C61.49566785966229 46.285176831000456 56.73730856194622 46.320610991585795 51.978759765625 46.377197265625 C47.38813185354789 46.431446299302394 42.79793393077904 46.461405460617755 38.20701026916504 46.47438621520996 C36.45382731048025 46.48363895627469 34.70066841190102 46.50170736946524 32.94766807556152 46.52865028381348 C30.495434229571565 46.56484783284287 28.04498645282505 46.569949507416766 25.592529296875 46.567626953125 C24.86460678100586 46.585603332519526 24.136684265136722 46.60357971191405 23.386703491210938 46.622100830078125 C21.3599090576172 46.60127258300781 21.3599090576172 46.60127258300781 18 46 C15.865628645776503 43.378991908881005 15.065351990184908 41.19605597055471 14 38 C12.681897969134667 37.303703182219735 11.346210477661621 36.64026523570806 10 36 C8.308349609375 34.45947265625 8.308349609375 34.45947265625 6.65234375 32.6640625 C6.047128906250002 32.011796875 5.441914062500004 31.359531250000003 4.818359375 30.6875 C4.197675781249998 30.006875000000008 3.5769921874999966 29.32625 2.9375 28.625 C2.312949218749999 27.952109374999992 1.6883984374999983 27.27921875 1.044921875 26.5859375 C-7 17.86273512540022 -7 17.86273512540022 -7 15 C-7.66 14.670000000000002 -8.32 14.340000000000003 -9 14 C-6.030000000000001 9.379999999999995 -3.0599999999999987 4.760000000000005 0 0 Z " fill="#79A37C" transform="translate(31,82)"/>
<path d="M0 0 C12.870000000000005 0 25.74000000000001 0 39 0 C39.66 2.31 40.31999999999999 4.62 41 7 C43.335400393667754 12.324712897562467 46.29159232976117 17.119529238557032 49.4375 22 C49.829858398437494 22.611982421875 50.222216796875 23.22396484375 50.62646484375 23.8544921875 C52.276218979151935 26.410681949236658 53.944372162328605 28.925542385417703 55.765625 31.36328125 C57.75784993314164 34.09438081493868 59.02128203995824 35.85850876587638 58.95703125 39.3046875 C58.123678962639005 43.64951566487354 56.674162840470245 47.43444954603967 54 51 C50.204206742939476 52.89789662853026 46.09996377057654 52.88529079885343 42 52 C38.16568713290812 48.77795266058745 35.97939181253933 44.885954660308585 35 40 C34.010000000000005 40.495 34.010000000000005 40.495 33 41 C31.292972646755004 41.069960137428076 29.58331997242439 41.084401538108004 27.875 41.0625 C26.964921875 41.0534765625 26.054843750000003 41.044453125 25.1171875 41.03515625 C24.418515624999998 41.0235546875 23.719843749999995 41.011953125 23 41 C22.757656249999997 39.8540234375 22.515312499999993 38.708046875 22.265625 37.52734375 C21.927692643219245 35.99726113457601 21.58911655831443 34.46732059329161 21.25 32.9375 C21.014101562500002 31.809248046875 21.014101562500002 31.809248046875 20.7734375 30.658203125 C19.49819880040141 24.993200440244774 17.953081666998067 19.11512307264441 13.00390625 15.5703125 C9.09033649859451 14.45650902299181 5.875230255408013 14.804890821996308 2 16 C-5.718160661290085 20.37547525258747 -11.971339518917759 26.569428820178942 -18 33 C-18.33 32.34 -18.66 31.68 -19 31 C-16.333175461202075 25.545131625186066 -12.753248407004676 20.660053151523663 -9.26220703125 15.707763671875 C-5.6768932342291905 10.61207698945967 -2.793737713347106 5.587475426694213 0 0 Z " fill="#9FA9A9" transform="translate(46,0)"/>
<path d="M0 0 C14.189999999999998 0 28.379999999999995 0 43 0 C43 18.48 43 36.96 43 56 C38.05 56 33.099999999999994 56 28 56 C22.948241964344433 56.84991708911936 22.948241964344433 56.84991708911936 18 58 C15.92262532917826 52.86766257796984 15.641684309658729 49.259957656819054 17.80078125 44.078125 C19.20690415553679 40.12655909110684 19.414995293007195 37.92463863529673 17.6640625 34.0234375 C15.930077175253572 31.206568059404017 14.136317304981347 28.48041795212645 12.23486328125 25.7763671875 C10.52922823500812 23.322788580055178 8.921023463985051 20.811173374117192 7.311767578125 18.293701171875 C6.5370888192904175 17.082040484070156 5.757197676674068 15.873692121090011 4.971435546875 14.669189453125 C1.2969612055013187 9.021920410417257 0 6.979945965892576 0 0 Z " fill="#944D22" transform="translate(85,0)"/>
<path d="M0 0 C1.47265625 2.15234375 1.47265625 2.15234375 3.0625 4.9375 C4.774689054167851 8.158303374110865 4.774689054167851 8.158303374110865 7 11 C8.622524919508066 11.098863525561427 10.249472728236682 11.129711673251492 11.875 11.125 C12.759296875000004 11.127578125 13.643593750000008 11.130156249999999 14.5546875 11.1328125 C17.139062913536094 11.10048584776684 17.139062913536094 11.10048584776684 20 10 C21.256649778003023 12.90600261163199 22 14.79604584376709 22 18 C23.073144531249994 17.65775390625 23.073144531249994 17.65775390625 24.16796875 17.30859375 C32.23721049995018 14.980727113209717 38.66921216384655 15.003927541329482 47 16 C47 24.58 47 33.16 47 42 C40 42 40 42 36.58203125 41 C32.43745695772857 39.842954177948215 28.946691170500856 39.85362942393938 24.6875 40 C18.913276662804307 40.10972395890158 13.716704274031201 39.824059727439675 8.078125 38.43359375 C5.721465990996563 37.862366652111135 5.721465990996563 37.862366652111135 2.125 38.0625 C-1.565041827370834 37.98869916345258 -2.3341913931238167 37.4527517786463 -5 35 C-9.553163044553344 27.99431353566382 -11.962519248769127 21.320726773254748 -12 13 C-12.021269531249999 11.371914062499997 -12.021269531249999 11.371914062499997 -12.04296875 9.7109375 C-12.059977200517736 6.805894151570371 -12.04491729813887 3.904651946313784 -12 1 C-10.375125288026894 0.8321162659215986 -8.7500955786834 0.6657321270045387 -7.125 0.5 C-6.220078125000001 0.40718749999999915 -5.315156250000001 0.3143749999999983 -4.3828125 0.21875 C-2 0 -2 0 0 0 Z " fill="#909596" transform="translate(81,40)"/>
<path d="M0 0 C0.7837499999999977 0.02255859374999858 1.5674999999999955 0.04511718749999716 2.375 0.068359375 C4.2925026012423615 0.12681982015983095 6.209010598795416 0.21648716809108492 8.125 0.3125 C13.153464561407617 8.840584790605774 16.910735895415655 16.32069379855554 18.45703125 26.19140625 C19.185594150287514 29.595627053097786 20.557786876543844 32.22185065597752 22.125 35.3125 C21.284869933822833 40.23326181618057 18.025562748981656 42.48267996642507 14.125 45.3125 C7.542210706528422 48.4358003567048 0.32563033952801845 48.17808581336223 -6.625 46.25 C-14.015459639466307 43.41259138841919 -18.130519820758202 37.419705962895264 -22.02734375 30.81640625 C-23.746025844378316 25.739561906698157 -23.535974842099712 21.235264830406578 -21.3359375 16.42578125 C-20.657888850109273 15.149531378101429 -19.962266321384398 13.882473814662276 -19.25 12.625 C-18.918710937500002 11.987558593749995 -18.587421875000004 11.350117187500004 -18.24609375 10.693359375 C-13.844481882478462 2.645884092682323 -9.260806091677935 -0.5101291491178515 0 0 Z " fill="#A5CEDA" transform="translate(61.875,60.6875)"/>
<path d="M0 0 C1.9962064079761532 1.869089490487113 3.395724411848331 3.8993712070882367 4.9453125 6.15234375 C7.434284169872068 9.601888136571745 10.221408683136922 12.648677830206125 13.125 15.75 C13.628056640624997 16.292292480468745 14.131113281250002 16.834584960937505 14.6494140625 17.393310546875 C16.977901603864503 19.89080121624177 19.316010968275634 22.297525647011597 21.8046875 24.640625 C24 27 24 27 25 31 C8.829999999999998 31 -7.340000000000003 31 -24 31 C-24 21.430000000000007 -24 11.86 -24 2 C-17.564999999999998 1.5049999999999955 -17.564999999999998 1.5049999999999955 -11 1 C-7.183385795417589 -0.2722047348608072 -3.9123095528110348 -1.0875636630015748 0 0 Z " fill="#786031" transform="translate(24,97)"/>
<path d="M0 0 C5 1 5 1 8 3 C8.8515625 5.03125 8.8515625 5.03125 9.625 7.5 C12.048372133991982 13.934470838530444 16.219839629917622 18.17926101896616 21 23 C21.625195312499997 23.662578124999996 22.250390625 24.325156249999992 22.89453125 25.0078125 C25.70950040494032 27.943513966326023 28.494133149512507 30.419845405160828 31.875 32.6875 C35 35 35 35 35.6953125 36.70703125 C36.108418957224615 39.81592215244672 36.060222851241434 42.86841173544511 36 46 C33.06097651002983 46.134817591283024 30.12810440700217 46.23399416152168 27.1875 46.3125 C26.354121093750003 46.354394531249994 25.520742187499998 46.39628906249999 24.662109375 46.439453125 C22.343181070337053 46.48601795039485 20.272016875750822 46.47163738432147 18 46 C15.735964542183623 43.37547734307499 15.089834037944513 41.269502113833525 14 38 C12.681897969134667 37.303703182219735 11.346210477661621 36.64026523570806 10 36 C8.308349609375 34.45947265625 8.308349609375 34.45947265625 6.65234375 32.6640625 C6.047128906250002 32.011796875 5.441914062500004 31.359531250000003 4.818359375 30.6875 C4.197675781249998 30.006875000000008 3.5769921874999966 29.32625 2.9375 28.625 C2.312949218749999 27.952109374999992 1.6883984374999983 27.27921875 1.044921875 26.5859375 C-7 17.86273512540022 -7 17.86273512540022 -7 15 C-7.66 14.670000000000002 -8.32 14.340000000000003 -9 14 C-6.030000000000001 9.379999999999995 -3.0599999999999987 4.760000000000005 0 0 Z " fill="#899276" transform="translate(31,82)"/>
<path d="M0 0 C3.6299999999999955 0 7.260000000000005 0 11 0 C11.247500000000002 0.99 11.495000000000005 1.98 11.75 3 C13.800408624683712 10.016024069495973 17.5072086797868 15.902658983377808 21.4375 22 C21.829858398437494 22.611982421875 22.222216796875003 23.22396484375 22.62646484375 23.8544921875 C24.276218979151935 26.410681949236665 25.94437216232859 28.92554238541769 27.765625 31.36328125 C29.757849933141657 34.0943808149387 31.021282039958237 35.858508765876365 30.95703125 39.3046875 C30.123678962639005 43.64951566487355 28.674162840470245 47.434449546039666 26 51 C22.191356239750164 52.90432188012492 18.117437580928964 52.85253692243161 14 52 C9.080702840517446 48.33052427331281 7.329602452814029 43.02281082065046 6.421875 37.16796875 C6.282656250000002 36.1225390625 6.1434375000000045 35.077109375 6 34 C5.534823200606596 30.83116363518807 5.050105531304098 27.665454250017497 4.5625 24.5 C4.436816406250003 23.66927978515625 4.311132812500006 22.8385595703125 4.181640625 21.982666015625 C3.374984194985842 16.82692349054089 2.3225510631340285 11.932423980608437 0.55078125 7.0078125 C0 5 0 5 0 0 Z " fill="#BA9480" transform="translate(74,0)"/>
<path d="M0 0 C1.8538252023962372 -0.054792863125015856 3.708138800579775 -0.09314594258664499 5.5625 -0.125 C6.595039062500007 -0.14820312499999488 7.627578124999999 -0.17140625000000398 8.69140625 -0.1953125 C12 0 12 0 15.3984375 1.01171875 C19.400827159594314 2.1099883637498493 22.967781973525746 2.1041867983484366 27.0625 1.9375 C35.1802791986333 1.7513575599916464 42.08493858783996 3.000405537980626 50 5 C50 10.61 50 16.22 50 22 C44.19656261524807 21.46429808756136 38.45465985603083 20.781036866909076 32.6875 19.9375 C23.678626856954978 18.715648784242887 14.964672746214134 18.33494191192159 6 20 C1.9372637907219712 13.499622065155165 -0.16200117273470482 7.803056486721715 0 0 Z " fill="#68A4B4" transform="translate(78,77)"/>
<path d="M0 0 C15.180000000000001 0 30.360000000000003 0 46 0 C43.30136616654747 8.095901500357607 39.53719687247722 10.860569486569286 32.07421875 14.6328125 C30.283918200943752 15.474843967028654 28.488199499319336 16.30544258250649 26.6875 17.125 C25.80126953125 17.5413671875 24.9150390625 17.957734375 24.001953125 18.38671875 C21.34730590041219 19.622068807831525 18.679463160052173 20.819519996728804 16 22 C15.1139306640625 22.394130859375 14.227861328125 22.78826171875 13.31494140625 23.1943359375 C12.02402587890625 23.7439599609375 12.02402587890625 23.7439599609375 10.70703125 24.3046875 C9.94495361328125 24.6319482421875 9.1828759765625 24.959208984375 8.397705078125 25.29638671875 C5.999999999999998 26 5.999999999999998 26 0 26 C0 17.42 0 8.84 0 0 Z " fill="#876366" transform="translate(0,0)"/>
<path d="M0 0 C0 8.579999999999998 0 17.159999999999997 0 26 C-7 26 -7 26 -10.40625 25 C-14.604042411207729 23.831918633403063 -18.183765990795592 23.8455730229265 -22.5 24 C-28.080269997536604 24.199651878266067 -32.746576948772486 24.058042020068513 -38 22 C-39 19 -39 19 -37.9375 16.625 C-36.07516771526649 14.101840130361055 -34.133196054681946 12.370562958547126 -31.6640625 10.4609375 C-29.714678001097326 8.749506038522071 -28.232777459178266 6.846081535125023 -26.625 4.8125 C-19.81850055594751 -3.113489484192698 -9.459145765677164 -1.5765242942795297 0 0 Z " fill="#3F6B7E" transform="translate(128,56)"/>
<path d="M0 0 C0 7.259999999999998 0 14.520000000000003 0 22 C-2.268749999999997 21.958749999999995 -4.537499999999994 21.917500000000004 -6.875 21.875 C-13.130438440468652 21.819093084237778 -18.92407303137476 22.398814540032873 -25 24 C-26.825795519007627 19.48921107068705 -27.22553976689059 16.713614488040733 -26 12 C-25.894296874999995 11.3232421875 -25.788593750000004 10.646484375 -25.6796875 9.94921875 C-25.111661802474515 7.483265920266341 -24.584421021619292 5.98932861603312 -23 4 C-19.102868240806842 2.3265257739935308 -15.177195689200872 1.6357744382305697 -11 1 C-9.478261718749991 0.7196289062500014 -9.478261718749991 0.7196289062500014 -7.92578125 0.43359375 C-5 0 -5 0 0 0 Z " fill="#614B49" transform="translate(128,34)"/>
<path d="M0 0 C1.3200000000000003 1.3199999999999932 2.6400000000000006 2.6400000000000006 4 4 C3.6700000000000017 4.989999999999995 3.3400000000000034 5.980000000000004 3 7 C1.6799999999999997 6.010000000000005 0.35999999999999943 5.019999999999996 -1 4 C-0.6700000000000017 2.680000000000007 -0.3400000000000034 1.3599999999999994 0 0 Z " fill="#909596" transform="translate(35,78)"/>
</svg>
