<?xml version="1.0" encoding="UTF-8"?>
<!-- Generator: visioncortex VTracer 0.6.0 -->
<svg version="1.1" xmlns="http://www.w3.org/2000/svg" width="128" height="128">
<path d="M0 0 C42.24 0 84.48 0 128 0 C128 42.24 128 84.48 128 128 C85.75999999999999 128 43.519999999999996 128 0 128 C0 85.75999999999999 0 43.519999999999996 0 0 Z " fill="#4E6482" transform="translate(0,0)"/>
<path d="M0 0 C6.768072289156626 2.2560240963855414 6.768072289156626 2.2560240963855414 9.1875 5.3125 C9.679921875 5.933828125 10.17234375 6.55515625 10.6796875 7.1953125 C14.67490807426556 12.656235296777183 16.181977915477464 16.540662535676034 15.95703125 23.2890625 C15.93576171875 24.3138671875 15.9144921875 25.338671875000003 15.892578125 26.39453125 C15.83976525416396 28.5250797466539 15.774927838138105 30.655368777839783 15.697265625 32.78515625 C15.574157678502319 40.089561075529126 16.79063012358131 45.453216858523525 20 52 C20.4434375 52.9655078125 20.886875 53.931015625 21.34375 54.92578125 C21.7253125 55.7133984375 22.106875 56.50101562500001 22.5 57.3125 C24.364228887816143 61.31776751958074 25.696449901705872 65.24412464504898 26.875 69.5 C30.171501657925894 80.50126631723504 37.132016633483516 88.71859724356715 44.556396484375 97.255126953125 C49.12682007695608 102.64891631049883 51.32480421429377 107.6602876489272 51.1875 114.875 C51.1810546875 115.635546875 51.174609375 116.39609375 51.16796875 117.1796875 C51 119 51 119 50 120 C33.5 120 17 120 0 120 C0 80.4 0 40.8 0 0 Z " fill="#895949" transform="translate(0,8)"/>
<path d="M0 0 C19.14 0 38.28 0 58 0 C58 42.24 58 84.48 58 128 C51.06999999999999 128 44.14 128 37 128 C37.62566668736687 121.74333312633122 38.28057115075441 116.02854710198173 39.5 109.9375 C41.15761659025689 101.32208517538365 42.07703382652704 93.2021425606746 42.125 84.4375 C42.12975341796874 83.72859619140625 42.1345068359375 83.0196923828125 42.139404296875 82.289306640625 C42.12651960689047 78.17336400667973 41.77756068980314 74.25249647437417 41.2138671875 70.167724609375 C40.69251843576271 64.88341460175477 41.006715419078375 59.52209288608974 41.126953125 54.220703125 C41.225409004530604 45.88670249884979 40.98159196127273 37.80940052954369 34.9453125 31.49609375 C30.25858258714956 27.891640825056786 24.48822686265038 26.28395059491422 18.6796875 25.62109375 C10.417864633541214 24.557216327520965 10.417864633541214 24.557216327520965 7.66357421875 21.5322265625 C2.8337293296815034 14.564518612172513 1.056018423480495 8.44814738784396 0 0 Z " fill="#7C84A9" transform="translate(70,0)"/>
<path d="M0 0 C14.520000000000003 0 29.040000000000006 0 44 0 C44.99000000000001 3.3000000000000003 45.97999999999999 6.6000000000000005 47 10 C48.204820085680836 12.1835811449762 49.47039542140985 14.3355072893364 50.8125 16.4375 C53.88532126564954 21.96597969781768 54.71548908243618 25.338605242058822 52.98828125 31.44140625 C48.40139812476991 43.316538451682646 40.83325756149513 50.23959205889294 29.3203125 55.61328125 C11.862785862785856 62.90436590436591 11.862785862785856 62.90436590436591 3 62 C-0.5770574110712019 55.99977466529992 -2.1441209410768636 52.07946241625606 -2.1875 45 C-2.2016796875000004 43.96875 -2.215859375000001 42.9375 -2.23046875 41.875 C-2.0355292382147354 38.597372954390096 -1.595826177513409 35.63784693368202 -0.99609375 32.421875 C0.18754020848009034 25.666680570294318 0.22478157419584477 19.08989445770803 0.125 12.25 C0.06312499999999943 6.186249999999999 0.06312499999999943 6.186249999999999 0 0 Z " fill="#193A7C" transform="translate(26,0)"/>
<path d="M0 0 C22.367110860417938 3.583080865989281 22.367110860417938 3.583080865989281 28.71875 11.88037109375 C32.66391399482481 18.407031498298224 32.36417283571963 27.21921963222517 32.375 34.625 C32.3994921875 35.514453125 32.423984375 36.40390625 32.44921875 37.3203125 C32.48867897443199 46.26463003791605 29.19010245408691 52.66251415414911 23 59 C16.478122871497334 62.8598864638077 10.478029247669966 63.65949734770183 3 63 C-3.811111111111103 61.1888888888889 -3.811111111111103 61.1888888888889 -6 59 C-7.577812499999993 59.09281250000001 -7.577812499999993 59.09281250000001 -9.1875 59.1875 C-13.855884187377185 57.733413121964475 -14.215496249312721 56.64872615606447 -16.4375 52.4375 C-20.445116540734368 43.26643142026015 -20.445116540734368 43.26643142026015 -19 38 C-16.2118543476505 30.88778284470846 -12.414397955550271 25.02955621937052 -7.60546875 19.1484375 C-3.348679393694894 13.45200405482285 -1.4961160612722182 6.85719861416435 0 0 Z " fill="#6E7867" transform="translate(80,23)"/>
<path d="M0 0 C6.768072289156626 2.2560240963855414 6.768072289156626 2.2560240963855414 9.1875 5.3125 C9.679921875 5.933828125 10.17234375 6.55515625 10.6796875 7.1953125 C14.67490807426556 12.656235296777183 16.181977915477464 16.540662535676034 15.95703125 23.2890625 C15.93576171875 24.3138671875 15.9144921875 25.338671875000003 15.892578125 26.39453125 C15.83976525416396 28.5250797466539 15.774927838138105 30.655368777839783 15.697265625 32.78515625 C15.589641066101528 39.170880077975994 16.29733641501679 43.960865408725645 19.033935546875 49.75927734375 C20.076723055222196 52.17795405631269 20.646041979250537 54.39238818810143 21 57 C20.67 57.33 20.34 57.66 20 58 C20.144375 58.515625 20.28875 59.03125 20.4375 59.5625 C22.03520118916922 66.48587181973329 21.04659164589239 71.19279739389604 17.68359375 77.328125 C14.590975685646463 82.2361313944729 11.39580866810668 87.17966786099876 7 91 C3.5349999999999997 91.495 3.5349999999999997 91.495 0 92 C0 61.64 0 31.279999999999994 0 0 Z " fill="#A27F8F" transform="translate(0,8)"/>
<path d="M0 0 C5.519067257891237 -0.2806305385368404 8.356923728764656 -0.22435852169120096 13 3 C21.204139654365903 5.578938414558053 29.12454682199116 3.8150556040542227 37 1 C39.62949585624608 6.2589917124921755 37.67759296112152 15.984047016184618 36.40234375 21.66015625 C34.73943967213788 26.376261257707313 32.44592701876644 30.662016889926235 27.96484375 33.11328125 C23.770097829961017 34.36783635388517 19.79398791860605 34.33889803437208 15.4375 34.3125 C14.549416503906258 34.31048583984375 13.661333007812502 34.3084716796875 12.746337890625 34.306396484375 C5.8428545876276985 34.201522317941766 -0.4420695105061725 33.23224088972188 -7 31 C-7.990000000000002 30.67 -8.979999999999997 30.340000000000003 -10 30 C-10.284105857704652 24.169372965743207 -9.593433593505722 19.828523915829265 -7.25 14.4375 C-6.997343749999999 13.816816406249998 -6.744687499999998 13.196132812499997 -6.484375 12.556640625 C-4.649728094020425 8.15807466791398 -2.4270242403607654 4.09956051034851 0 0 Z " fill="#28454D" transform="translate(66,81)"/>
<path d="M0 0 C1.3199999999999932 0 2.6400000000000006 0 4 0 C4.203027343749994 0.85658203125 4.203027343749994 0.85658203125 4.41015625 1.73046875 C5.865820630010305 7.2131806962663685 7.860977951046593 11.580270801328648 10.8125 16.4375 C13.885321265649537 21.96597969781768 14.715489082436179 25.338605242058822 12.98828125 31.44140625 C8.401398124769912 43.316538451682646 0.833257561495131 50.23959205889294 -10.6796875 55.61328125 C-28.137214137214144 62.90436590436591 -28.137214137214144 62.90436590436591 -37 62 C-45.17320717968237 48.29010408569409 -41.66535507670247 34.02435272403116 -39 19 C-35.216033699390096 22.783966300609904 -35.25503908654961 28.83990685353115 -35 34 C-35.58132985191948 36.510456303193656 -36.39414897339866 38.686970495991574 -37.39453125 41.0546875 C-38.341456251224535 44.097065891031086 -37.34865881086863 46.23170033558545 -36 49 C-28.036806911985202 48.2626673066653 -19.56632845060829 46.87179207625776 -13 42 C-12.670000000000002 41.34 -12.340000000000003 40.68 -12 40 C-11.340000000000003 40 -10.68 40 -10 40 C-9.917499999999997 38.7625 -9.835 37.525 -9.75 36.25 C-8.947160271657786 28.97856588901479 -6.443603056310337 22.109298890514577 -3.375 15.5 C-1.4007847776342999 10.474724888523696 -0.7437278705172048 5.32859144876437 0 0 Z " fill="#304D7D" transform="translate(66,0)"/>
<path d="M0 0 C0.6599999999999966 0 1.3199999999999932 0 2 0 C6.353509185473783 18.256651422954562 0.7957072074909206 39.28669969837574 -3 57 C-21.810000000000002 57 -40.620000000000005 57 -60 57 C-60 52.379999999999995 -60 47.75999999999999 -60 43 C-53.263636363636365 39.631818181818176 -53.263636363636365 39.631818181818176 -49.5 40.75 C-42.61478121242453 42.695822700836544 -36.12526468918877 43.20808667829888 -29 43.25 C-28.123437499999994 43.270624999999995 -27.246875000000003 43.29124999999999 -26.34375 43.3125 C-21.13886314781665 43.3438547400734 -17.473776266454678 42.96630817667105 -13 40 C-7.545245426850414 32.878514862832475 -6.729801308682397 24.127878214260306 -7.3125 15.375 C-7.472019449512061 9.60711253606405 -5.126984614731413 6.299693636362761 -1.7265625 1.80078125 C-1.1567968749999977 1.206523437499996 -0.5870312499999955 0.6122656250000063 0 0 Z " fill="#4C7382" transform="translate(110,71)"/>
<path d="M0 0 C22.183342957161926 3.5536423183803088 22.183342957161926 3.5536423183803088 28.80078125 11.9296875 C30.936021082934445 15.61593216272071 32.1269524669723 19.728422875990816 32 24 C30.76171875 25.84765625 30.76171875 25.84765625 29 27 C27.023133239202508 26.571678868493876 25.04646172667168 26.12781026957039 23.10546875 25.55859375 C16.22146559324051 23.732225565553605 8.571595153820397 25.0784711616555 2.37890625 28.41015625 C-2.9988404970033997 31.918077233557938 -7.973146753002069 35.6929762090623 -10 42 C-10.144490937533234 45.45172795218272 -9.67015958832026 48.62104409250287 -9 52 C-8.814374999999998 53.19624999999999 -8.628749999999997 54.3925 -8.4375 55.625 C-8.293125000000003 56.40875 -8.148750000000007 57.192499999999995 -8 58 C-9.650000000000006 58 -11.299999999999997 58 -13 58 C-20.71007327624261 44.23201200670964 -20.71007327624261 44.23201200670964 -19 38 C-16.2118543476505 30.88778284470846 -12.414397955550271 25.02955621937052 -7.60546875 19.1484375 C-3.348679393694894 13.45200405482285 -1.4961160612722182 6.85719861416435 0 0 Z " fill="#636875" transform="translate(80,23)"/>
<path d="M0 0 C8.58 0 17.16 0 26 0 C27.207597641619305 12.075976416193035 27.710496782434443 23.142786797918593 25.45703125 35.05859375 C24.12802926184302 43.61191423788208 24.35657308334316 51.13019786002123 28 59 C28.33 59.99 28.66 60.98 29 62 C26.291206646414455 63.354396676792774 23.990667323211273 63.06501450702633 21 63 C15.20508931665642 53.3418155277607 14.806793337422464 45.9894065399036 15.166015625 34.853515625 C15.344176569195723 25.005515847560538 12.832135727642745 18.274504227993713 6 11 C2.8332495517652365 8.994092211297435 2.8332495517652365 8.994092211297435 0 8 C0 5.359999999999999 0 2.7199999999999998 0 0 Z " fill="#555582" transform="translate(0,0)"/>
<path d="M0 0 C3.0785454394023084 3.458940421857193 4.062645450148249 7.197948447786331 5.25 11.5625 C7.969069383740759 20.72493986278704 12.174574963021172 27.61147197518237 18.26953125 34.984375 C18.851542968750003 35.688847656250005 19.4335546875 36.39332031250001 20.033203125 37.119140625 C21.194143143220458 38.509465059553804 22.368141404019624 39.889018725563446 23.556640625 41.255859375 C28.151915054768367 46.67773938266754 30.348272077287845 51.681157488145104 30.125 58.9375 C30.106953124999997 59.70964843749999 30.08890625 60.481796875 30.0703125 61.27734375 C30.047109374999998 61.845820312499995 30.023906250000003 62.41429687499999 30 63 C27.525000000000006 63.495000000000005 27.525000000000006 63.495000000000005 25 64 C24.525624999999998 62.845 24.051250000000003 61.69 23.5625 60.5 C16.70717365824315 47.02655584042253 -0.5957052009527466 40.10639801868467 -14 35 C-13.125 33.6875 -12.25 32.375 -11.375 31.0625 C-10.832304687499999 30.246523437500002 -10.289609375 29.430546875000005 -9.73046875 28.58984375 C-8.594463386511341 26.88968222405647 -7.451440280231594 25.194184687512617 -6.30078125 23.50390625 C-5.7683984375 22.718867187499995 -5.236015625 21.933828125000005 -4.6875 21.125 C-4.196367187500002 20.405703125000002 -3.705234375 19.686406250000005 -3.19921875 18.9453125 C-0.16014114895906317 14.01547326443523 -0.5813281200954563 8.512031279427248 -1.5 3 C-1.6649999999999991 2.3400000000000034 -1.8299999999999983 1.6800000000000068 -2 1 C-1.3399999999999999 0.6700000000000017 -0.6799999999999997 0.3400000000000034 0 0 Z " fill="#62525D" transform="translate(21,64)"/>
<path d="M0 0 C4.950000000000003 0 9.900000000000006 0 15 0 C15 16.830000000000002 15 33.660000000000004 15 51 C9.957295478884049 49.73932386972101 7.699976670038652 47.49914286331421 4 44 C3.3722265625000034 43.4676171875 2.744453125000007 42.935234375 2.09765625 42.38671875 C-4.308544112612481 36.27848119495089 -5.340431473770138 28.45600674653671 -6 20 C-5.673764731763242 12.861204718584014 -2.7852431568802984 6.498900699387361 0 0 Z " fill="#A7B7D0" transform="translate(113,0)"/>
<path d="M0 0 C0 16.17 0 32.34 0 49 C-6.930000000000007 49 -13.86 49 -21 49 C-19.169079015633884 30.69079015633882 -17.131021001098105 14.727885592057106 -4 1 C-2 0 -2 0 0 0 Z " fill="#7FBCDD" transform="translate(128,79)"/>
<path d="M0 0 C3.4855372241819396 2.862995998569339 6.805600738807925 5.592719590798566 9.5625 9.1875 C12.187371649843712 12.216198057511974 14.410596107697089 13.330853334031985 18 15 C18.174066367287026 19.582855023854236 18.280784854815835 24.16486293437076 18.375 28.75 C18.42527343750001 30.051953124999997 18.475546874999992 31.353906249999994 18.52734375 32.6953125 C18.581903905071556 36.22353586129324 18.57076754781059 39.516839586342286 18 43 C15.20703125 45.546875 15.20703125 45.546875 12 47 C9.938087188032412 49.616350725758025 9.938087188032412 49.616350725758025 8.3125 52.5 C6.336897225057271 55.806296138294954 4.335566590346531 58.938618700631096 2 62 C2.005236816406253 61.37544921874999 2.0104736328125057 60.7508984375 2.015869140625 60.107421875 C2.0368407615699198 57.23829175888994 2.049723762733379 54.369177854734176 2.0625 51.5 C2.0708789062500017 50.517734375 2.0792578125000034 49.53546875000001 2.087890625 48.5234375 C2.1019949463167222 44.29214110498303 2.1014963148065107 40.15391081921541 1.49609375 35.9609375 C0.758615954954891 30.072728963183152 0.9568914267824624 24.233128128984546 1.0390625 18.30859375 C1.090709570175349 12.136768864046587 0.7461414739122603 6.127353755632129 0 0 Z " fill="#79A4B5" transform="translate(110,36)"/>
<path d="M0 0 C6.768072289156626 2.2560240963855414 6.768072289156626 2.2560240963855414 9.1875 5.3125 C9.679921875 5.933828125 10.17234375 6.55515625 10.6796875 7.1953125 C14.67490807426556 12.656235296777183 16.181977915477464 16.540662535676034 15.95703125 23.2890625 C15.93576171875 24.3138671875 15.9144921875 25.338671875000003 15.892578125 26.39453125 C15.83976525416396 28.5250797466539 15.774927838138105 30.655368777839783 15.697265625 32.78515625 C15.589641066101528 39.170880077975994 16.29733641501679 43.960865408725645 19.033935546875 49.75927734375 C20.068974038674327 52.1599807245269 20.568509077761682 54.42805345234443 21 57 C17.612800996220194 55.56118980370415 15.640589604625779 53.77880501050518 13.25 51 C12.329609375 49.948125 12.329609375 49.948125 11.390625 48.875 C10 47 10 47 10 45 C9.278125 44.71125 8.55625 44.4225 7.8125 44.125 C5.208333333333334 43.083333333333336 2.6041666666666665 42.041666666666664 0 41 C0 27.47 0 13.939999999999998 0 0 Z " fill="#85769E" transform="translate(0,8)"/>
</svg>
