<?xml version="1.0" encoding="UTF-8"?>
<!-- Generator: visioncortex VTracer 0.6.0 -->
<svg version="1.1" xmlns="http://www.w3.org/2000/svg" width="128" height="128">
<path d="M0 0 C42.24 0 84.48 0 128 0 C128 42.24 128 84.48 128 128 C85.75999999999999 128 43.519999999999996 128 0 128 C0 85.75999999999999 0 43.519999999999996 0 0 Z " fill="#89898E" transform="translate(0,0)"/>
<path d="M0 0 C3.655067778933521 0.5125295363087865 7.12522036205786 1.3550311384907445 10.6796875 2.3359375 C18.808884493731824 4.400673691624643 27.01959257045455 4.98438429131604 35.35546875 5.69140625 C36.5452734375 5.8035546875 37.735078125 5.915703125 38.9609375 6.03125 C40.0261865234375 6.122128906250001 41.091435546875005 6.213007812499999 42.18896484375 6.306640625 C47.639963405791136 7.318757761100795 51.46830932971886 9.59229165317322 55 13.8125 C55.57234375 14.481523437500002 56.1446875 15.150546875 56.734375 15.83984375 C60.20646056498231 20.502102975143767 61.32410099890788 25.070421752215644 61.25 30.875 C60.25498434220695 37.485297819601904 58.62965114218025 43.85770354963092 56.5 50.1875 C54.031363234436384 58.20730409553471 56.29545662484779 64.70989827719075 59.3125 72.296875 C61.81404011868415 79.1761103263814 62.26469931520374 86.26807899840615 59.50390625 93.13671875 C57.42582305697768 96.01755059079419 54.72573623513914 96.66266762710248 51.40625 97.59765625 C49.25 97.875 49.25 97.875 46.25 96.875 C46.146874999999994 97.4125390625 46.04375 97.950078125 45.9375 98.50390625 C44.75940595238511 102.56699197103545 42.587762789436965 106.17026354220039 40.625 109.90234375 C39.0002815395094 113.11104451900664 39.0002815395094 113.11104451900664 38.25 117.875 C27.36 117.875 16.47 117.875 5.25 117.875 C4.460928585142248 114.718714340569 4.056262263825161 112.16083656250652 3.85546875 108.9609375 C3.7865039062500045 108.035390625 3.717539062499995 107.10984375 3.646484375 106.15625 C3.5066600864940085 104.21177765143067 3.3791387331988716 102.26638314380115 3.263671875 100.3203125 C3.1908398437499983 99.39734375 3.1180078124999966 98.474375 3.04296875 97.5234375 C2.986491699218746 96.6795849609375 2.930014648437499 95.835732421875 2.871826171875 94.96630859375 C2.6666235351562477 94.2761767578125 2.4614208984374955 93.586044921875 2.25 92.875 C1.2491235351562509 92.403203125 1.2491235351562509 92.403203125 0.22802734375 91.921875 C-0.42472167968750085 91.57640625 -1.0774707031250017 91.2309375 -1.75 90.875 C-2.213134765625 88.48681640625 -2.213134765625 88.48681640625 -2.19140625 85.4765625 C-2.2120312500000026 84.3661962890625 -2.232656249999998 83.255830078125 -2.25390625 82.11181640625 C-2.273242187500003 80.9199169921875 -2.2925781249999986 79.728017578125 -2.3125 78.5 C-2.8451863384890856 65.328278926242 -6.4775239722524205 56.58933992712004 -13.58740234375 45.691162109375 C-16.979326705710115 40.39243776485142 -17.115453067077354 35.69640440280117 -17.125 29.5625 C-17.1494921875 28.74587890625 -17.173984375 27.929257812499998 -17.19921875 27.087890625 C-17.22809773478432 21.047369640946567 -15.857301261345182 17.009970354945814 -12.75 11.875 C-12.159609374999999 10.823124999999997 -11.569218750000001 9.771250000000002 -10.9609375 8.6875 C-5.391785015248757 0.1560323637853358 -5.391785015248757 0.1560323637853358 0 0 Z " fill="#315747" transform="translate(39.75,10.125)"/>
<path d="M0 0 C8.579999999999998 0 17.159999999999997 0 26 0 C26 42.24 26 84.48 26 128 C15.769999999999996 128 5.539999999999992 128 -5 128 C-2.756939234808698 116.7846961740435 -2.756939234808698 116.7846961740435 0 112.1875 C3.999602374380359 105.41817298136125 5.449633437266897 99.96083843995574 6.1875 92.1875 C6.329619140624999 90.891025390625 6.329619140624999 90.891025390625 6.474609375 89.568359375 C6.926917873968662 84.99348333581317 6.93691617295184 80.97994284578235 6.229248046875 76.415283203125 C5.917931105869883 73.13534870114027 6.028079025740567 69.91819814291519 6.11328125 66.625 C6.5150455591175245 50.7183915409159 6.143853994354927 36.60218224106262 1.41015625 21.2265625 C-0.6617801951393147 14.286439269392247 -1.7684204882746997 7.073681953098818 0 0 Z " fill="#A6BBC2" transform="translate(102,0)"/>
<path d="M0 0 C5.000000000000001 0 5.000000000000001 0 7.16796875 1.42578125 C9.78413469658154 5.101801204791549 10.403001990108141 8.81704018930822 11.3125 13.1875 C13.533988922138183 22.9841225932257 16.97198458281633 31.82868532700384 21 41 C22.03036916703695 44.091107501110855 22.075309343644772 46.06778404092556 21.9921875 49.296875 C21.9754296875 50.3384375 21.958671875 51.379999999999995 21.94140625 52.453125 C21.897446537741722 54.635595420352146 21.845478158716528 56.8179205194717 21.78515625 59 C21.685101574792682 66.38585420621291 21.981871548247018 71.5414831554815 27.0078125 77.30078125 C27.706484375 77.9646484375 28.40515625 78.628515625 29.125 79.3125 C36.2428588322297 87.03003192065931 34 95.74085232457789 34 106 C22.78 106 11.559999999999999 106 0 106 C0 71.02 0 36.03999999999999 0 0 Z " fill="#9BB2AF" transform="translate(0,22)"/>
<path d="M0 0 C4.877173295434773 3.8041951704391153 7.040716877599834 7.795144520380816 8.1875 13.75 C8.579097148865515 19.33742273381285 6.49376195487163 24.052301248399857 3.125 28.4375 C0.4789024441220562 31.089393557264025 -2.0358282289242737 33.349814950476045 -5.90283203125 33.5341796875 C-8.130072284299814 33.216372224015785 -10.256657535383638 32.73937607105243 -12.4375 32.1875 C-21.011834490480425 30.38139984905129 -30.029369826861796 29.079523411755602 -38.421875 32.46484375 C-42.80208445357484 34.201582848630785 -47.24588852288447 33.96926832874081 -51.875 33.4375 C-57.46457909110457 30.95324262617575 -60.150528112708784 26.72362672952518 -62.875 21.4375 C-64.11766631669067 17.70950104992798 -64.40402513178515 14.309670061816249 -63.875 10.4375 C-61.127686633311605 5.146377960451975 -57.59374266940653 1.3437475564688448 -51.875 -0.5625 C-47.49712386628621 -0.7889418689851979 -43.80817382400335 -0.6372576466507596 -39.5625 0.4375 C-31.325616924799135 2.4047280884070794 -24.312602921041574 1.7621373182503 -16.3515625 -0.87890625 C-10.8244726746955 -2.40452252670077 -5.215432113576213 -2.5799152459481505 0 0 Z " fill="#122921" transform="translate(88.875,25.5625)"/>
<path d="M0 0 C3.655067778933521 0.5125295363087865 7.12522036205786 1.3550311384907445 10.6796875 2.3359375 C18.808884493731824 4.400673691624643 27.01959257045455 4.98438429131604 35.35546875 5.69140625 C36.5452734375 5.8035546875 37.735078125 5.915703125 38.9609375 6.03125 C40.0261865234375 6.122128906250001 41.091435546875005 6.213007812499999 42.18896484375 6.306640625 C47.639963405791136 7.318757761100795 51.46830932971886 9.59229165317322 55 13.8125 C55.57234375 14.481523437500002 56.1446875 15.150546875 56.734375 15.83984375 C60.20646056498231 20.502102975143767 61.32410099890788 25.070421752215644 61.25 30.875 C60.25498434220695 37.485297819601904 58.62965114218025 43.85770354963092 56.5 50.1875 C54.031363234436384 58.20730409553471 56.29545662484779 64.70989827719075 59.3125 72.296875 C61.81036129731815 79.16599356762492 62.285969090896444 86.28530199137302 59.4921875 93.13671875 C57.47061401352296 95.96565020120214 54.94368190266927 96.64073779834013 51.69921875 97.59765625 C45.56802020446801 98.29193870092946 40.72908482933707 95.9324736810225 35.375 93.3125 C34.686640624999995 92.98314453125 33.99828124999999 92.6537890625 33.2890625 92.314453125 C31.60612670458775 91.5080463896983 29.927597072041408 90.6924550618217 28.25 89.875 C28.708749056210166 77.80989982167262 32.053034460793924 70.13489059988981 39.3671875 60.62109375 C41.218280118107856 57.92126364516636 42.299603506277805 55.51457988329753 43.375 52.4375 C45.03704434223275 47.75888178552103 47.08575881132688 46.594504449745706 51.25 43.875 C54.48954033708689 39.3545189684017 56.7184064702482 34.83153282440352 56.3125 29.1875 C55.25067400942807 23.632576993767216 53.286851974572244 19.378390743136652 48.625 15.9375 C42.27762205583953 13.939251387949483 36.59388343287128 14.277876755321198 30.3125 16.375 C22.506296009970328 18.956675614257463 15.237162071006765 18.283532192624893 7.375 16.33203125 C2.6529825363807475 15.316450288155416 -1.4046700226572995 15.383437123663246 -6 17.0625 C-8.995134756194965 19.036566089310316 -10.686620417809635 20.957808176903278 -12.75 23.875 C-13.3275 24.638125000000002 -13.905000000000001 25.401250000000005 -14.5 26.1875 C-14.912500000000001 26.744375000000005 -15.325 27.301249999999996 -15.75 27.875 C-16.75 26.875 -16.75 26.875 -17.0625 23.8125 C-16.6732849113064 18.908389882460625 -15.280044591567062 16.020270799742647 -12.75 11.875 C-12.190546874999999 10.900468750000002 -11.631093749999998 9.9259375 -11.0546875 8.921875 C-5.505063325690578 0.1593105142482809 -5.505063325690578 0.1593105142482809 0 0 Z " fill="#595241" transform="translate(39.75,10.125)"/>
<path d="M0 0 C2.7978790473354707 5.222707555026226 3.132666644649447 9.636582142881366 3.0625 15.51171875 C3.0587133789062477 16.239379425048824 3.0549267578124955 16.967040100097655 3.051025390625 17.716751098632813 C3.0347730216178235 20.81604055418793 3.0068065856608683 23.91519561983658 2.9794921875 27.014404296875 C2.868082137970106 38.04453552002333 2.868082137970106 38.04453552002333 3.80908203125 49.024169921875 C4.951947733945076 60.85180691920402 2.0128568146175496 71.92483777711536 -4 82 C-6.221903240196156 86.57553987407984 -7.589277694795442 91.06247193178406 -9 96 C-15.269999999999996 96 -21.540000000000006 96 -28 96 C-26.85818258014561 88.00727806101925 -24.728663986780788 81.50826871298861 -20 75 C-16.614487086184823 73.30219053874343 -13.738333479989677 73.07517672446049 -10 73 C-7.6311182668096365 72.10309052239347 -7.6311182668096365 72.10309052239347 -6.875 68.875 C-4.725970480372126 59.35786927021944 -7.374601813928479 51.27236296052031 -10.75 42.375 C-13.505120039787514 34.10963988063746 -10.352284549917044 26.60879913128906 -7.8984375 18.5859375 C-7.01638032867119 15.065378877044154 -6.7388593369029905 11.929723549302636 -6.625 8.3125 C-6.48046875 5.378906250000007 -6.48046875 5.378906250000007 -6 3 C-2.9375 0.75 -2.9375 0.75 0 0 Z " fill="#7F8882" transform="translate(106,32)"/>
<path d="M0 0 C1.374755543393718 2.749511086787436 0.8552895901901252 5.122670461481249 0.680419921875 8.11962890625 C0.10319195831930728 20.383631726143406 3.4854175710302684 28.940379348060723 10.347900390625 38.969970703125 C14.65421257649082 45.70600181641504 14.83120467822544 52.08607516812536 15.0625 59.9375 C15.140033088989611 62.363904375101015 15.234214191887332 64.78985293128568 15.34765625 67.21484375 C15.378674316406247 68.27823974609375 15.409692382812501 69.3416357421875 15.441650390625 70.437255859375 C15.625905761718755 71.28296142578125 15.810161132812496 72.1286669921875 16 73 C17.32982194250942 73.67364369175603 18.663211739226014 74.34028842053584 20 75 C20.6376953125 77.52197265625 20.6376953125 77.52197265625 20.828125 80.6640625 C20.905468749999997 81.785546875 20.9828125 82.90703125 21.0625 84.0625 C21.124375 85.238125 21.18625 86.41375 21.25 87.625 C21.327343749999997 88.808359375 21.4046875 89.99171875 21.484375 91.2109375 C21.673319270241578 94.13957368874453 21.838854853323497 97.06970272754046 22 100 C18.370000000000005 100 14.739999999999995 100 11 100 C10.960039062500002 98.527890625 10.920078125000003 97.05578125 10.87890625 95.5390625 C10.669733376771745 82.68452263276782 10.669733376771745 82.68452263276782 4.5 72 C3.7059374999999974 71.34 2.911875000000002 70.68 2.09375 70 C-1.1891988714140922 66.86404883924624 -1.93640585922763 63.95533278715985 -2.0830078125 59.44775390625 C-2.043079162151777 55.36332834562917 -1.9153876545524824 51.28608724837875 -1.74609375 47.205078125 C-1.6032795950561365 40.55581908746663 -2.5796459625629566 35.64609493642842 -5.07861328125 29.493896484375 C-7.712672026466874 22.364349562702934 -7.119977015900458 13.663217623168727 -4.125 6.75 C-2.8803749346921776 4.371383208522829 -1.494384270001845 2.241576405002764 0 0 Z " fill="#73846B" transform="translate(23,28)"/>
<path d="M0 0 C0 4.416637646932855 -0.8851329638428354 6.108024565476157 -2.9375 9.9375 C-5.045202202485839 13.878853291173286 -6.1048573209485255 16.5242866047426 -7 21 C-17.89 21 -28.78 21 -40 21 C-42.1035762617642 12.585694952943186 -42.10805128768686 4.656108713580707 -42 -4 C-25.919783828360593 -11.218373592078606 -14.955209207002667 -7.519566469963181 0 0 Z " fill="#334C6C" transform="translate(85,107)"/>
<path d="M0 0 C11.88 0 23.76 0 36 0 C36 11.228991596638657 36 11.228991596638657 32.75 15.6875 C32.1093359375 16.60015625 31.468671875 17.5128125 30.80859375 18.453125 C30.2117578125 19.29359375 29.614921875 20.1340625 29 21 C28.25066729914649 22.30109214939195 27.517739459837667 23.611989689943663 26.8125 24.9375 C24.999999999999996 28 24.999999999999996 28 22.9375 29.9375 C17.077514594367724 36.1755489801892 17.356725422166342 44.930624933064806 17 53 C13.831355219044188 49.507289275537346 12.988840847371286 45.73240002960241 12 41.25 C10.085233906273128 31.34181768428838 10.085233906273128 31.34181768428838 5 23 C3.3499999999999996 22.67 1.6999999999999997 22.34 0 22 C0 14.739999999999998 0 7.479999999999999 0 0 Z " fill="#979671" transform="translate(0,0)"/>
<path d="M0 0 C5.000000000000001 0 5.000000000000001 0 7.16796875 1.42578125 C9.78413469658154 5.101801204791549 10.403001990108141 8.81704018930822 11.3125 13.1875 C13.533988922138183 22.9841225932257 16.97198458281633 31.82868532700384 21 41 C22.63900811530005 45.917024345900145 22.60954262544045 50.874300649705305 22 56 C19.07652525286607 60.29922756931461 16.04460137982906 61.97239601522 11 63 C7.369999999999999 63 3.7399999999999993 63 0 63 C0 42.209999999999994 0 21.419999999999995 0 0 Z " fill="#BED6B9" transform="translate(0,22)"/>
<path d="M0 0 C0.6599999999999966 0 1.3199999999999932 0 2 0 C3.195500444783093 1.7268339757977884 4.390531298329918 3.4539970459627938 5.58203125 5.18359375 C9.176794815554757 9.78845616868584 13.568114332243141 11.189371444081047 19 13 C19 23.560000000000002 19 34.120000000000005 19 45 C8.769999999999996 45 -1.460000000000008 45 -12 45 C-9.756939234808698 33.78469617404352 -9.756939234808698 33.78469617404352 -7 29.1875 C-2.989981234201551 22.400543238886115 -1.583987498426339 16.98055110975187 -0.875 9.1875 C-0.7454492187499966 7.862021484374992 -0.7454492187499966 7.862021484374992 -0.61328125 6.509765625 C-0.4022155648893744 4.340479416918527 -0.20020574073289765 2.1703154234767936 0 0 Z " fill="#A9BCB5" transform="translate(109,83)"/>
<path d="M0 0 C3.655067778933521 0.5125295363087865 7.12522036205786 1.3550311384907445 10.6796875 2.3359375 C18.808884493731824 4.400673691624643 27.01959257045455 4.98438429131604 35.35546875 5.69140625 C36.5452734375 5.8035546875 37.735078125 5.915703125 38.9609375 6.03125 C40.0261865234375 6.122128906250001 41.091435546875005 6.213007812499999 42.18896484375 6.306640625 C47.639963405791136 7.318757761100795 51.46830932971886 9.59229165317322 55 13.8125 C55.57234375 14.481523437500002 56.1446875 15.150546875 56.734375 15.83984375 C60.80512238688142 21.305976194755722 61.77026900229431 27.23311698393978 60.8125 33.9375 C60.534062500000005 34.8965625 60.534062500000005 34.8965625 60.25 35.875 C59.59 35.875 58.93000000000001 35.875 58.25 35.875 C58.0192578125 34.9223828125 57.788515625 33.969765625 57.55078125 32.98828125 C57.224648437499994 31.7340234375 56.898515625 30.479765625 56.5625 29.1875 C56.249257812500005 27.946132812499997 55.936015624999996 26.704765625 55.61328125 25.42578125 C53.831884907672176 20.785983899925508 51.38602491474475 18.239911673321448 47.2265625 15.58203125 C41.684857787343304 13.599721856737428 35.759524882307005 14.541950159223639 30.3125 16.375 C22.506296009970328 18.956675614257463 15.237162071006765 18.283532192624893 7.375 16.33203125 C2.6529825363807475 15.316450288155416 -1.4046700226572995 15.383437123663246 -6 17.0625 C-8.995134756194965 19.036566089310316 -10.686620417809635 20.957808176903278 -12.75 23.875 C-13.3275 24.638125000000002 -13.905000000000001 25.401250000000005 -14.5 26.1875 C-14.912500000000001 26.744375000000005 -15.325 27.301249999999996 -15.75 27.875 C-16.75 26.875 -16.75 26.875 -17.0625 23.8125 C-16.6732849113064 18.908389882460625 -15.280044591567062 16.020270799742647 -12.75 11.875 C-12.190546874999999 10.900468750000002 -11.631093749999998 9.9259375 -11.0546875 8.921875 C-5.505063325690578 0.1593105142482809 -5.505063325690578 0.1593105142482809 0 0 Z " fill="#555858" transform="translate(39.75,10.125)"/>
<path d="M0 0 C0 17.159999999999997 0 34.31999999999999 0 52 C-7.9660322310418366 50.672327961493025 -12.325021137575504 47.14310016334878 -17.5 41.0625 C-21.674363299544254 32.53984159676381 -20.50172483022388 21.268110717350794 -19.625 12.0625 C-16.126778791247474 5.469698491197171 -7.453329134125994 0 0 0 Z " fill="#A3C4CC" transform="translate(128,44)"/>
<path d="M0 0 C4.877173295434773 3.804195170439119 7.040716877599834 7.795144520380809 8.1875 13.75 C8.586563566773037 19.443955769810394 6.367023559032901 23.868471699892353 3.125 28.4375 C0.832856911662688 30.807784329985182 -0.8698225759048483 31.8812474053793 -3.875 33.4375 C-6.8125 33.25 -6.8125 33.25 -8.875 32.4375 C-8.8401953125 31.8200390625 -8.805390625000001 31.202578125000002 -8.76953125 30.56640625 C-8.592454690395314 25.02643959951058 -9.141591890097146 20.628356017233543 -11.12109375 15.4453125 C-11.86595543512614 13.46158759764333 -12.398605171923649 11.50033585749565 -12.875 9.4375 C-13.534999999999997 9.4375 -14.194999999999993 9.4375 -14.875 9.4375 C-14.875 8.777500000000003 -14.875 8.1175 -14.875 7.4375 C-15.617500000000007 7.189999999999998 -16.36 6.942500000000003 -17.125 6.6875 C-20.07624061574012 5.3460269928454025 -21.7231497372821 3.828444736353223 -23.875 1.4375 C-16.14210480696984 -1.3265987072958865 -7.791564301640548 -3.8542492920695253 0 0 Z " fill="#35322B" transform="translate(88.875,25.5625)"/>
<path d="M0 0 C3.068883957551762 5.35526363907438 2.7105097963461304 10.977253120747122 1.32421875 16.875 C0.6069990019421567 19.267998590676427 -0.18978315234546983 21.636867527674283 -1 24 C-7.269999999999996 24 -13.540000000000006 24 -20 24 C-18.85818258014561 16.007278061019235 -16.728663986780788 9.50826871298861 -12 3 C-8.614487086184837 1.3021905387434458 -5.738333479989677 1.0751767244604906 -2 1 C-1.3400000000000034 0.6700000000000017 -0.6800000000000068 0.3400000000000034 0 0 Z " fill="#707A8D" transform="translate(98,104)"/>
<path d="M0 0 C2.4750000000000014 0.9899999999999949 2.4750000000000014 0.9899999999999949 5 2 C5.659999999999997 10.25 6.32 18.5 7 27 C3.3699999999999974 27 -0.259999999999998 27 -4 27 C-4.659999999999997 19.409999999999997 -5.32 11.819999999999993 -6 4 C-4.020000000000003 2.680000000000007 -2.039999999999999 1.3599999999999994 0 0 Z " fill="#707A8D" transform="translate(38,101)"/>
</svg>
