<?xml version="1.0" encoding="UTF-8"?>
<!-- Generator: visioncortex VTracer 0.6.0 -->
<svg version="1.1" xmlns="http://www.w3.org/2000/svg" width="128" height="128">
<path d="M0 0 C42.24 0 84.48 0 128 0 C128 42.24 128 84.48 128 128 C85.75999999999999 128 43.519999999999996 128 0 128 C0 85.75999999999999 0 43.519999999999996 0 0 Z " fill="#85797D" transform="translate(0,0)"/>
<path d="M0 0 C3.81437377229463 2.8560828245752834 5.690099971249751 5.4438702261922565 6.484375 10.125 C7.0925592846812435 16.439290243575503 4.401594596492771 21.398717960790087 1.7734375 27 C-4.713217835165693 40.24988570779181 -4.713217835165693 40.24988570779181 -4.359375 54.44921875 C-3.7586718750000045 55.2497265625 -3.157968750000009 56.050234375 -2.5390625 56.875 C-1.8803515625000102 57.7825 -1.221640624999992 58.69 -0.54296875 59.625 C1.4027307371372615 61.96697956616889 3.424173850341745 64.17139919081599 5.5234375 66.375 C9.162343906203915 70.32011575154004 11.646454644802873 74.50798579858684 14.0859375 79.25 C14.436481933593754 79.91088623046875 14.787026367187494 80.5717724609375 15.148193359375 81.252685546875 C17.769827935089737 86.58248383144094 18.822908288023285 91.52922469073964 16.8515625 97.359375 C14.694707735694891 100.71079547992025 12.703740894120713 103.6975136715896 9.5859375 106.1875 C0.8033412024218762 107.65486252637669 -7.238693404362962 105.97378154015553 -15.59375 103.26171875 C-20.88051292587491 101.77515453260163 -26.219950319104328 101.05459606681144 -31.6669921875 100.403076171875 C-37.991400346606895 99.55315835923304 -43.80820136376171 97.79336113623829 -48.4140625 93.1875 C-49.04443376928434 86.88378730715662 -48.34762802508096 84.35436164680601 -44.4140625 79.1875 C-41.88528471551078 76.56613344207801 -39.200387822768995 74.11296261382161 -36.484375 71.6875 C-33.771945751680235 69.12204967646603 -32.461058694443835 67.82194862499183 -32.1796875 64.0234375 C-32.295703125 62.61964843749999 -32.295703125 62.61964843749999 -32.4140625 61.1875 C-31.392332602610026 59.463330798154416 -30.36971081330872 57.73959093230965 -29.328125 56.02734375 C-27.671417503485912 52.69268891727293 -27.61634251968721 49.719340880578414 -28.4140625 46.1875 C-31.41029495334712 38.38367638287319 -37.44670133824498 32.81794496949505 -43.38720703125 27.18505859375 C-51.9853044719941 18.99157750315856 -51.9853044719941 18.99157750315856 -52.8046875 13.6328125 C-52.674479166666664 11.484374999999996 -52.544270833333336 9.335937500000004 -52.4140625 7.1875 C-14.613815928631624 -8.879280564231873 -14.613815928631624 -8.879280564231873 0 0 Z " fill="#C5C2BF" transform="translate(92.4140625,12.8125)"/>
<path d="M0 0 C5.61 0 11.22 0 17 0 C17 6.000000000000001 17 6.000000000000001 15.5 9.0625 C12.739529118291617 15.019305586844403 12.981571549573708 22.364319940413665 14.7265625 28.59375 C15.676622899865638 30.849177941144443 16.743884809930115 32.900965406067435 18 35 C18.350625 35.61359375 18.70125 36.2271875 19.0625 36.859375 C21.936227547270846 41.36953073391119 25.6560253730523 44.13662248268353 29.90234375 47.3125 C32.85478613730419 49.6876491830827 34.38826104790702 51.55673951143773 36 55 C35.58593750000001 58.183593749999964 35.58593750000001 58.183593749999964 35 61 C34.0731640625 61.2771484375 33.146328125 61.554296875 32.19140625 61.83984375 C30.39509765625 62.38318359375 30.39509765625 62.38318359375 28.5625 62.9375 C26.77005859375 63.47697265625 26.77005859375 63.47697265625 24.94140625 64.02734375 C22.14132454707567 64.70889142373116 22.14132454707567 64.70889142373116 21 66 C22.0480078125 66.2539453125 23.096015625 66.507890625 24.17578125 66.76953125 C25.554825989234836 67.11663774899108 26.93372478471681 67.46432444058506 28.3125 67.8125 C29.00279296875 67.97814453125 29.6930859375 68.1437890625 30.404296875 68.314453125 C34.02312665359744 69.24101340647664 36.706113548203085 69.93269589395737 39 73 C38.32453125 73.7876171875 37.6490625 74.575234375 36.953125 75.38671875 C29.536574979477003 84.32425717592723 23.970919930605675 93.85119938312756 24.61328125 105.9453125 C25.95261420386761 113.06136435590267 30.625785721892335 118.85849015486528 35.8125 123.6875 C37 125 37 125 37 128 C24.79 128 12.579999999999998 128 0 128 C0 85.75999999999999 0 43.519999999999996 0 0 Z " fill="#4C3220" transform="translate(0,0)"/>
<path d="M0 0 C7.920000000000002 0 15.840000000000003 0 24 0 C24 42.24 24 84.48 24 128 C13.11 128 2.219999999999999 128 -9 128 C-7.138527765038759 123.34631941259691 -6.138250276347335 121.79416160834502 -2.6875 118.5 C-1.8857031250000063 117.7149609375 -1.0839062499999983 116.929921875 -0.2578125 116.12109375 C1.421344586663281 114.54361572567792 3.1644984240412697 113.03371407366788 4.9375 111.5625 C9.977722394485 105.30040550988227 9.292883720009627 96.24591373447004 8.5625 88.625 C8.476857910156255 87.683984375 8.391215820312496 86.74296875 8.302978515625 85.7734375 C7.253084152740158 76.37543021876903 4.319376902053065 67.87090598003599 0.724365234375 59.16796875 C-0.8825495678623838 54.358597855538285 -1.1276038128414285 49.60711298234239 -1.1328125 44.5703125 C-1.1341015625000068 43.3624609375 -1.1353906249999994 42.154609375 -1.13671875 40.91015625 C-1.1328515624999937 39.6610546875 -1.1289843750000017 38.411953125 -1.125 37.125 C-1.1288671875000063 35.8836328125 -1.1327343749999983 34.642265625 -1.13671875 33.36328125 C-1.1258963318925908 23.20103064714359 -1.1258963318925908 23.20103064714359 -0.49609375 18.6171875 C0.046883826295740505 14.658154148426327 0.09817760660605757 10.995891939878502 0.0625 7 C0.04187500000000455 4.6899999999999995 0.021249999999994884 2.38 0 0 Z " fill="#5F5564" transform="translate(104,0)"/>
<path d="M0 0 C11.880000000000003 0 23.760000000000005 0 36 0 C35 4.000000000000003 35 4.000000000000003 33.389404296875 5.15673828125 C32.36713745117187 5.60895751953125 32.36713745117187 5.60895751953125 31.32421875 6.0703125 C30.578496093749997 6.4093359375 29.832773437500002 6.748359375 29.064453125 7.09765625 C28.28005859375 7.4366796875 27.495664062499998 7.775703125 26.6875 8.125 C25.14970226421282 8.8150210023799 23.61194068954231 9.505122601082473 22.07421875 10.1953125 C21.389323730468746 10.4945361328125 20.7044287109375 10.793759765625 19.998779296875 11.10205078125 C19.339182128906245 11.3983740234375 18.679584960937504 11.694697265625 18 12 C17.278286132812497 12.31251708984375 16.556572265625 12.6250341796875 15.81298828125 12.947021484375 C13.719144412155803 13.916235725856215 13.719144412155803 13.916235725856215 12.91796875 16.65234375 C10.888262077582432 25.780596752690762 9.342495708756779 34.293775253757175 14.5625 42.5625 C15.0175390625 43.1825390625 15.472578124999998 43.802578125 15.94140625 44.44140625 C17 46 17 46 17 48 C17.585234375 48.2513671875 18.170468749999998 48.502734375 18.7734375 48.76171875 C23.368165294322523 51.31703227771972 26.818361496798012 55.90527719886921 29.375 60.4375 C30.13548941798711 63.555506613747156 30.386576392787205 66.61466382703927 30.55859375 69.81640625 C31.09867735206454 72.48814725490335 32.252134690481626 73.9445103960064 34 76 C30.64774688444335 80.49344566553339 27.319891105733888 84.81719843676478 23.25 88.6875 C18.99542046934215 92.86559270763479 16.874310675480956 96.52918165336088 16.625 102.5625 C16.822425782564963 107.6784028873357 18.39112506427516 110.39112506427516 22 114 C31.098552279370537 120.06570151958036 41.615759420196866 122.93814738236671 52 126 C52 126.66 52 127.32 52 128 C41.44 128 30.879999999999995 128 20 128 C19.67 126.35 19.340000000000003 124.7 19 123 C17.515 122.505 17.515 122.505 16 122 C14.246093750000018 120.10937500000003 14.246093750000018 120.10937500000003 12.4375 117.75 C11.8380859375 116.98171875 11.238671875000001 116.2134375 10.62109375 115.421875 C6.999458523268213 110.01123923958143 6.26117394326306 105.35951542507748 7 99 C8.617303513115527 91.17496264312967 11.026403455363589 85.03225262996402 16.31640625 79 C18.16876261548773 76.79952097649718 19.575464028936523 74.49402042350324 21 72 C14.700187792643568 69.86902903987615 8.417391865252842 67.75019778143259 2 66 C4.979741632802995 64.01350557813134 7.136630647658585 63.27822520873981 10.5625 62.375 C11.5331640625 62.114609375 12.503828124999998 61.85421875 13.50390625 61.5859375 C16 61 16 61 18 61 C18.340970773501937 57.419806878229714 18.156441332713342 55.319684462501186 16.5625 52.0625 C14.321565627700842 49.384310140422954 12.4656146914668 47.77432589292888 9.6875 45.75 C2.925394283456548 40.717475778612055 -1.811575400668005 34.17562397486293 -4 26 C-4.701624682366621 18.573712777548096 -4.384739650552504 12.63408971508291 -1 6 C-0.6700000000000017 4.02 -0.33999999999999986 2.04 0 0 Z " fill="#69574F" transform="translate(17,0)"/>
<path d="M0 0 C3.81437377229463 2.8560828245752834 5.690099971249751 5.4438702261922565 6.484375 10.125 C7.0925592846812435 16.439290243575503 4.401594596492771 21.398717960790087 1.7734375 27 C-4.713217835165693 40.24988570779181 -4.713217835165693 40.24988570779181 -4.359375 54.44921875 C-3.7586718750000045 55.2497265625 -3.157968750000009 56.050234375 -2.5390625 56.875 C-1.8803515625000102 57.7825 -1.221640624999992 58.69 -0.54296875 59.625 C1.4027307371372615 61.96697956616889 3.424173850341745 64.17139919081599 5.5234375 66.375 C9.162343906203915 70.32011575154004 11.646454644802873 74.50798579858684 14.0859375 79.25 C14.436481933593754 79.91088623046875 14.787026367187494 80.5717724609375 15.148193359375 81.252685546875 C17.769827935089737 86.58248383144094 18.822908288023285 91.52922469073964 16.8515625 97.359375 C14.694432896084436 100.71122253839187 12.706203286529885 103.6997923541806 9.5859375 106.1875 C-0.1922251068576344 107.80333245994245 -9.260577814311944 105.64514008363258 -18.4140625 102.1875 C-18.4140625 101.8575 -18.4140625 101.5275 -18.4140625 101.1875 C-17.522031249999998 100.9567578125 -16.629999999999995 100.726015625 -15.7109375 100.48828125 C-14.540468750000002 100.1621484375 -13.370000000000005 99.836015625 -12.1640625 99.5 C-11.00390625 99.1867578125 -9.84375 98.873515625 -8.6484375 98.55078125 C-4.921555902120701 96.97990965862334 -3.4711396944664585 95.64481538376913 -1.4140625 92.1875 C-0.32349419876501884 83.95370932567585 -4.4396824648289055 76.29383828996386 -8.6796875 69.55859375 C-9.086386718749992 68.8916650390625 -9.493085937499998 68.224736328125 -9.912109375 67.53759765625 C-10.719049224578882 66.22427472633866 -11.552147610809712 64.92649981089781 -12.416015625 63.64990234375 C-16.943768781247144 56.25167462809574 -16.464017405698286 47.91622703785952 -14.63134765625 39.662353515625 C-13.62378351494911 36.17759502302542 -12.520271566644908 32.74643648964115 -11.3515625 29.3125 C-7.6546954688363655 18.921207093000074 -7.6546954688363655 18.921207093000074 -8.4140625 8.1875 C-9.855552249401683 6.002023160100727 -9.855552249401683 6.002023160100727 -12.4140625 5.1875 C-17.545616099221263 4.617327377864303 -21.779679335380138 5.448026872201581 -26.7890625 6.625 C-35.27692314644367 8.580898322876152 -43.73144852557083 8.902017227598133 -52.4140625 9.1875 C-52.4140625 8.5275 -52.4140625 7.8675 -52.4140625 7.1875 C-14.613815928631624 -8.879280564231873 -14.613815928631624 -8.879280564231873 0 0 Z " fill="#9BA4C0" transform="translate(92.4140625,12.8125)"/>
<path d="M0 0 C7.825674643580754 7.064514799828231 13.529741892140365 19.692912477873406 14.203125 30.15625 C13.972252208154401 33.38846908583852 13.155028062620602 35.247560553569144 10.8984375 37.59765625 C2.1920250770827607 44.028936208492354 -6.777661493781451 43.12125140467694 -16.843994140625 41.623291015625 C-23.189585526877522 40.49769421303523 -29.350908484082154 38.649091515917846 -34 34 C-34.70379674207898 26.962032579210245 -33.229258098277825 23.94978705703653 -28.67822265625 18.38330078125 C-21.889857374082652 10.55882886955969 -16.00138697331525 5.681290034047336 -5.8984375 2.83203125 C-2.840576141107718 2.1129762927632356 -2.840576141107718 2.1129762927632356 0 0 Z " fill="#B6CEDF" transform="translate(78,72)"/>
<path d="M0 0 C0 20.460000000000008 0 40.92 0 62 C-10.89 62 -21.78 62 -33 62 C-31.138527765038745 57.34631941259687 -30.138250276347364 55.794161608345036 -26.6875 52.5 C-25.885703125000006 51.714960937499995 -25.08390625 50.92992187499999 -24.2578125 50.12109375 C-22.57865541333672 48.543615725677924 -20.83550157595873 47.03371407366788 -19.0625 45.5625 C-15.531587482243381 41.17560869005996 -14.86486960538494 36.069390391970785 -15.109375 30.515625 C-15.48026168523117 27.090377377570988 -15.893413161959316 23.6815690469207 -16.42578125 20.27734375 C-16.867649387456794 15.588265455495872 -16.759839613369422 13.035370239525804 -13.91015625 9.15234375 C-4.942176258992802 0 -4.942176258992802 0 0 0 Z " fill="#6C5C63" transform="translate(128,66)"/>
<path d="M0 0 C0.4296875 2.05859375 0.4296875 2.05859375 0 5 C-2.026100257131347 7.628057579902247 -4.4405592143611585 9.81624005786945 -6.875 12.0625 C-8.168484388146524 13.277863053812922 -9.457715030040333 14.497772709059078 -10.7421875 15.72265625 C-11.3182373046875 16.25640869140625 -11.894287109375 16.7901611328125 -12.48779296875 17.340087890625 C-15.730374135491957 20.89938872250724 -16.606585109716434 24.388664811947365 -16.4140625 29.10546875 C-16.10692985988745 31.27337302492316 -16.10692985988745 31.27337302492316 -13.875 33.3125 C-6.165155991293275 37.449934018856794 3.7706746459342497 37.98148433167569 12.296875 39.46484375 C15.198636987508166 40.039325530763904 18.02019132647969 40.78901126254095 20.875 41.5625 C27.207410786581136 43.207929574465965 33.48045131360857 43.69505336789459 40 44 C38.470338943894575 47.539502669823094 36.82405172436869 50.34650730433701 34 53 C29.50607048988344 54.1380730577568 25.224929885217023 53.85404485187996 20.625 53.5625 C18.805488281250007 53.501591796875005 18.805488281250007 53.501591796875005 16.94921875 53.439453125 C13.962040586466145 53.33360822944172 10.98308762096596 53.18592651377213 8 53 C8 52.34 8 51.68000000000001 8 51 C7.007421875000006 50.79246093750001 6.014843749999997 50.58492187499999 4.9921875 50.37109375 C-6.753858574152794 47.76587164240772 -18.782555274143604 44.34271643606377 -27 35 C-28.80378837900858 29.58863486297426 -28.733093442649007 24.784923164710634 -26.5625 19.5 C-24.007234110746097 15.557589770865405 -20.55229829321025 12.442972599077947 -17.16796875 9.21875 C-15.220166371769636 7.2253234219191995 -13.829606697655237 5.358299230750021 -12.375 3 C-10 0 -10 0 -6.375 -1 C-3 -1 -3 -1 0 0 Z " fill="#7E949E" transform="translate(61,75)"/>
<path d="M0 0 C1.3199999999999932 0 2.6400000000000006 0 4 0 C4.0145825195312455 0.7247753906249983 4.029165039062505 1.4495507812500001 4.044189453125 2.1962890625 C4.119637719374083 5.548004975162527 4.2159716605861774 8.89882746185991 4.3125 12.25 C4.335058593750006 13.389531250000005 4.357617187499997 14.529062500000002 4.380859375 15.703125 C4.697986402271496 25.85118987268791 6.498199038078155 34.92376707170287 10.5625 44.25 C12.992181725919707 50.85962050060226 13.86060986382327 57.31274853417847 14.5 64.3125 C14.60127197265625 65.326669921875 14.702543945312499 66.34083984375 14.806884765625 67.3857421875 C15.374393994592253 74.91712690619937 14.868197876702226 81.64011105872024 9.8125 87.5625 C9.214375000000004 88.036875 8.616250000000008 88.51125 8 89 C8.329999999999998 88.175 8.659999999999997 87.35 9 86.5 C11.104438244150217 79.13446614547424 10.148487458843647 73.90434742696505 6.6875 67.3125 C6.337197265625008 66.62551025390626 5.986894531250002 65.9385205078125 5.6259765625 65.230712890625 C2.677620378536517 59.71560496396728 -0.9146669153898443 55.018518849177326 -5.141845703125 50.425048828125 C-13.023717151193253 41.85231321603257 -13.023717151193253 41.85231321603257 -12.977783203125 36.328125 C-11.902454145567091 28.53725429693354 -9.099412668325613 21.588699938688336 -5.9375 14.4375 C-5.029429856738233 12.332254632802673 -4.121854004218832 10.226795970146796 -3.21484375 8.12109375 C-2.813864746093742 7.207712402343752 -2.4128857421874983 6.2943310546875 -1.999755859375 5.353271484375 C-0.9286748867485812 2.919185389034986 -0.9286748867485812 2.919185389034986 0 0 Z " fill="#7D7B94" transform="translate(99,25)"/>
<path d="M0 0 C0.01675781250000341 0.5826562499999994 0.033515624999999716 1.1653124999999989 0.05078125 1.765625 C0.9424400716084946 10.229729634970184 5.7990643073402595 14.823594179261676 11.53955078125 20.5361328125 C13.756600550814419 22.758371264239926 15.881928837285415 25.058685723533806 18 27.375 C19.051875000000003 28.5003515625 19.051875000000003 28.5003515625 20.125 29.6484375 C23.680591974822704 34.10774243509014 25.582195704382002 38.17541168606769 25.359375 43.96875 C24.714556792930054 47.61337464865622 23.14734865774094 49.993711879162674 21 53 C18.38672514695805 53.87109161768065 16.692888289093197 54.1887979934297 14 54.25 C13.319375 54.275781249999994 12.638750000000002 54.3015625 11.9375 54.328125 C10 54 10 54 8.30078125 52.83984375 C6.541299660908038 50.35120762849155 6.477519445661365 48.33256916082033 6.1875 45.3125 C5.139249291849453 38.088305536329116 2.3320629187380604 33.49904718905354 -3.5 29.125 C-9.034068352534089 24.421041900346026 -12.187690982948187 18.393456787251182 -12.9375 11.1875 C-13.143889921731056 7.6047826407198755 -12.809386533142082 4.4947930151948725 -12 1 C-8.01862170078249 -0.3271260997391714 -4.149547730989141 -0.06915912884981879 0 0 Z " fill="#9D8675" transform="translate(40,21)"/>
<path d="M0 0 C5.999999999999999 0 5.999999999999999 0 9 2 C14.338708745788377 12.796940821706343 15.688392651344007 23.202328255690702 15.796875 35.125 C15.937344004469548 41.85547201415517 17.010292141339182 48.104150611611686 20.625 53.875 C23 57.70520231213874 23 57.70520231213874 23 61 C15.41 61 7.8199999999999985 61 0 61 C0 40.870000000000005 0 20.739999999999995 0 0 Z " fill="#131424" transform="translate(0,67)"/>
<path d="M0 0 C0.6585498046874996 0.1651611328125 1.3170996093749991 0.330322265625 1.99560546875 0.50048828125 C5.475307676106738 1.4516128496275371 7.946225682460053 2.279675699548548 10.1875 5.1875 C9.51203125 5.975117187500004 8.8365625 6.762734375000008 8.140625 7.57421875 C0.7240749794770096 16.511757175927215 -4.841580069394325 26.03869938312758 -4.19921875 38.1328125 C-2.8598857961323887 45.248864355902654 1.813285721892342 51.04599015486528 7 55.875 C8.1875 57.1875 8.1875 57.1875 8.1875 60.1875 C3.5674999999999955 60.1875 -1.052500000000002 60.1875 -5.8125 60.1875 C-6.967744177127788 57.81668557905368 -8.111752077590136 55.441460432747036 -9.25 53.0625 C-9.57548828125 52.397343750000005 -9.900976562499999 51.73218750000001 -10.236328125 51.046875 C-13.258393315403518 44.69119150678023 -13.859398545865455 39.08212756024665 -13.951416015625 32.104248046875 C-14.16226055931146 20.531107591160506 -16.536066363463846 10.898200759397895 -20.8125 0.1875 C-13.384082894143688 -2.9816199257066245 -7.64282604497172 -1.9604954210505952 0 0 Z " fill="#3A4351" transform="translate(28.8125,67.8125)"/>
<path d="M0 0 C3.81877105234382 2.859375369242663 5.690305689449673 5.445991988689173 6.48046875 10.1328125 C7.083726017424908 16.411625548885265 4.439522468269644 21.30006704037295 1.8359375 26.875 C-1.716393036592308 34.83431143842226 -4.251325543633527 41.92800860273018 -5.70703125 50.515625 C-6.8430524712373 54.80865547141609 -8.866180456051381 56.62094703203718 -12.4140625 59.1875 C-13.074062499999997 59.1875 -13.734062499999993 59.1875 -14.4140625 59.1875 C-18.289132415512995 51.43736016897401 -15.005437834203747 40.477855206411675 -12.521484375 32.75 C-12.135410156250003 31.615625 -11.749335937500007 30.481250000000003 -11.3515625 29.3125 C-7.6546954688363655 18.921207093000074 -7.6546954688363655 18.921207093000074 -8.4140625 8.1875 C-9.855552249401683 6.002023160100727 -9.855552249401683 6.002023160100727 -12.4140625 5.1875 C-17.545616099221263 4.617327377864303 -21.779679335380138 5.448026872201581 -26.7890625 6.625 C-35.27692314644367 8.580898322876152 -43.73144852557083 8.902017227598133 -52.4140625 9.1875 C-52.4140625 8.5275 -52.4140625 7.8675 -52.4140625 7.1875 C-14.613815928631624 -8.879280564231873 -14.613815928631624 -8.879280564231873 0 0 Z " fill="#A9A6B2" transform="translate(92.4140625,12.8125)"/>
<path d="M0 0 C7.920000000000002 0 15.840000000000003 0 24 0 C24 17.16 24 34.32 24 52 C18.480653259115684 50.896130651823135 17.51214490279645 50.14252988534966 14 46 C10.111801818982514 40.112157040173514 8.368561524092485 34.58733216783359 7.6484375 27.578125 C6.8120816081165 19.542548783864454 5.302022787479871 13.5104365438946 1.2421875 6.48828125 C0 4 0 4 0 0 Z " fill="#41353B" transform="translate(104,0)"/>
<path d="M0 0 C1.0320129045729303 1.3087120166685793 2.035655437820644 2.6406555465324857 3 4 C-0.35225311555664973 8.493445665533372 -3.6801088942661124 12.817198436764784 -7.75 16.6875 C-12.00457953065785 20.86559270763479 -14.125689324519044 24.529181653360865 -14.375 30.5625 C-14.17757421743503 35.67840288733571 -12.608874935724849 38.391125064275144 -9 42 C0.09855227937053712 48.06570151958036 10.615759420196866 50.93814738236671 21 54 C21 54.66 21 55.31999999999999 21 56 C10.439999999999998 56 -0.12000000000000455 56 -11 56 C-11.495000000000005 53.525000000000006 -11.495000000000005 53.525000000000006 -12 51 C-12.990000000000002 50.67 -13.980000000000004 50.34 -15 50 C-16.75390625 48.109375 -16.75390625 48.109375 -18.5625 45.75 C-19.1619140625 44.98171875 -19.761328125 44.2134375 -20.37890625 43.421875 C-24.00054147673179 38.011239239581414 -24.738826056736944 33.35951542507749 -24 27 C-22.15548474648772 18.07563877342561 -19.01047896599525 11.772370665910145 -13 5 C-12.298749999999998 4.010000000000005 -11.597499999999997 3.019999999999996 -10.875 2 C-7.797120107259744 -1.2830718855896066 -4.107597467821648 -1.7799589027227114 0 0 Z " fill="#5C6E77" transform="translate(48,72)"/>
</svg>
