<?xml version="1.0" encoding="UTF-8"?>
<!-- Generator: visioncortex VTracer 0.6.0 -->
<svg version="1.1" xmlns="http://www.w3.org/2000/svg" width="128" height="128">
<path d="M0 0 C42.24 0 84.48 0 128 0 C128 42.24 128 84.48 128 128 C85.75999999999999 128 43.519999999999996 128 0 128 C0 85.75999999999999 0 43.519999999999996 0 0 Z " fill="#655D78" transform="translate(0,0)"/>
<path d="M0 0 C8.334633872753841 2.6158784108142257 12.940276848561808 9.268761164604548 18 16 C18.33 16.33 18.659999999999997 16.659999999999997 19 17 C20.111985072556337 25.85942205348171 18.02344751535665 33.66275840301779 12.94140625 40.953125 C8.658434815700758 46.12446993584866 8.658434815700758 46.12446993584866 6 48 C2.7109375 47.765625 2.7109375 47.765625 0 47 C0.14695312499999602 47.6664453125 0.29390624999999204 48.332890625000005 0.4453125 49.01953125 C1.2282263339454715 53.226314738030965 1.6602273715222111 57.47871090908629 2.07421875 61.736328125 C2.3023496854936525 63.93526454845269 2.3023496854936525 63.93526454845269 3 67 C3.990000000000009 67.66 4.97999999999999 68.32 6 69 C6.525624456314162 71.6047611946235 6.915789918139154 74.12205335631519 7.25 76.75 C8.19646459522231 83.33387364761256 8.19646459522231 83.33387364761256 11.75 88.75 C17.262572857936405 92.45693619514162 24.661975389863144 93.54169345253489 31 95 C30.67 100.61 30.340000000000003 106.22 30 112 C14.489999999999995 112 -1.0200000000000102 112 -17 112 C-17.495000000000005 104.57499999999999 -17.495000000000005 104.57499999999999 -18 97 C-19.0878012317514 92.9447361778542 -19.0878012317514 92.9447361778542 -20.37890625 88.953125 C-21 87 -21 87 -21 84 C-21.86625 83.7215625 -21.86625 83.7215625 -22.75 83.4375 C-26.435215191945076 81.08305696070175 -28.296677300479487 77.25063263846563 -29.5859375 73.125 C-31.76821290489672 61.92539792203948 -28.641703823214343 52.59495915800848 -24.81689453125 42.24560546875 C-23.54635789671429 38.75295873699284 -22.40223362293972 35.22054572395841 -21.25 31.6875 C-19.17308214835613 25.394438909519067 -19.17308214835613 25.394438909519067 -17.8515625 22.3828125 C-16.907884569260176 19.74224581306747 -16.918515047195598 17.96606925621579 -17.125 15.1875 C-17.240406787056337 10.04035729728735 -16.05486006926828 6.168504709904543 -13 2 C-8.685077553644788 -0.8766149642368131 -5.060534374479886 -0.6776843703815878 0 0 Z " fill="#674647" transform="translate(74,16)"/>
<path d="M0 0 C18.48 0 36.96 0 56 0 C55.296119851690676 4.927161038165276 54.512534132366206 8.946105832718603 53.125 13.625 C51.058732513881 20.854138907888363 50.01677557877834 28.12164799399185 49.21533203125 35.59033203125 C48.22459890285835 43.802617536259476 45.40073782573053 49.73060998492557 40.0625 56.0625 C36.857193532527866 59.93882389617659 33.87181298485541 63.87176883427034 31 68 C30.0190234375 67.662265625 29.038046875 67.32453125 28.02734375 66.9765625 C26.664292722236034 66.52534560805054 25.300997563131215 66.07486573908685 23.9375 65.625 C23.30005859375 65.40328125 22.6626171875 65.1815625 22.005859375 64.953125 C14.57484699379778 62.535379344872005 8.140295609740097 62.085372747965344 0 61 C0 40.87 0 20.739999999999995 0 0 Z " fill="#8583A3" transform="translate(0,0)"/>
<path d="M0 0 C10.230000000000004 0 20.460000000000008 0 31 0 C31 42.24 31 84.48 31 128 C23.08 128 15.159999999999997 128 7 128 C6.196428571428569 111.92857142857143 6.196428571428569 111.92857142857143 9.6875 107.375 C10.761968072638197 106.22160180828175 11.865574663352461 105.09448078254023 13 104 C18.08654444612742 98.14643694691686 19.45377203900408 94.2002788171308 19.42578125 86.4375 C18.795122527688406 81.34594334280551 16.621749427271595 77.24498297281002 14.45703125 72.63671875 C12.04162562848363 66.60791812364144 11.694358112961936 60.411015198318445 11 54 C9.721387941092019 44.989308718719386 7.178942376714318 37.538215263239216 2.86865234375 29.592041015625 C-0.46350243564964444 23.436173678741685 -2.45858058071542 17.991237648530287 -1.6875 10.875 C-1.5882421875000006 9.882421875 -1.4889843750000011 8.88984375 -1.38671875 7.8671875 C-1.0307871203080055 5.228260063697706 -0.52222251885145 2.611112594257217 0 0 Z " fill="#8E9BDB" transform="translate(97,0)"/>
<path d="M0 0 C32.5426157031731 1.7433544126699871 32.5426157031731 1.7433544126699871 41 8 C42.051875 8.763125000000002 43.10375 9.526250000000005 44.1875 10.3125 C49.6966463343369 15.576795386144141 54.29373513160284 21.820438496193404 57 29 C57 29.989999999999995 57 30.980000000000004 57 32 C38.19 32 19.379999999999995 32 0 32 C0 21.439999999999998 0 10.879999999999995 0 0 Z " fill="#717F99" transform="translate(0,96)"/>
<path d="M0 0 C2.4140625 0.515625 2.4140625 0.515625 5 2 C5.693834703158046 4.690871979204218 6.090858931763506 7.0171238887639475 6.375 9.75 C7.223302145264427 16.338977494024135 7.223302145264427 16.338977494024135 10.75 21.75 C16.26257285793639 25.45693619514161 23.66197538986316 26.541693452534886 30 28 C29.67 33.61 29.340000000000003 39.22 29 45 C13.489999999999995 45 -2.0200000000000102 45 -18 45 C-18.494999999999997 37.575 -18.494999999999997 37.575 -19 30 C-20.087801231751406 25.944736177854196 -20.087801231751406 25.944736177854196 -21.37890625 21.953125 C-22 20 -22 20 -22 17 C-21.2871484375 16.780859375000006 -20.574296875 16.561718749999997 -19.83984375 16.3359375 C-11.732942284652744 13.651822075403203 -5.936246788580689 10.642377292873078 -1.5625 3.125 C-1.046875 2.09375 -0.53125 1.0625 0 0 Z " fill="#5D3B51" transform="translate(75,83)"/>
<path d="M0 0 C3.157757621196737 2.389654416040772 4.314039729371693 4.175447925081803 5 8 C6.138955006004473 24.038727051767893 6.138955006004473 24.038727051767893 2.7578125 30.328125 C-5.287059014128083 37.979691684548484 -26.94650369840062 36 -37 36 C-37 27.42 -37 18.84 -37 10 C-31.555 9.009999999999998 -31.555 9.009999999999998 -26 8 C-22.494007904712554 6.697998461257903 -19.104802147294336 5.368585340052967 -15.6875 3.875 C-5.1650671785028806 -0.7151631477927065 -5.1650671785028806 -0.7151631477927065 0 0 Z " fill="#A0AED7" transform="translate(37,11)"/>
<path d="M0 0 C10.230000000000004 0 20.460000000000008 0 31 0 C31 14.520000000000001 31 29.040000000000003 31 44 C28.689999999999998 44 26.379999999999995 44 24 44 C24 43.34 24 42.68 24 42 C23.340000000000003 42 22.680000000000007 42 22 42 C22 41.34 22 40.68 22 40 C21.443124999999995 39.8904296875 20.886250000000004 39.780859375 20.3125 39.66796875 C18.70695612346003 39.33438446484051 17.106769431949033 38.97435863996272 15.51171875 38.59375 C13.068820365155773 37.98320108573802 13.068820365155773 37.98320108573802 10.83203125 37.65625 C6.993914862818443 36.765391264097126 5.416958364028304 35.62634397726861 3.203125 32.30078125 C-2.542492748703154 20.741145541299602 -2.3437109538338206 12.890410246085995 0 0 Z " fill="#92A7C3" transform="translate(97,0)"/>
<path d="M0 0 C8.334633872753841 2.6158784108142257 12.940276848561808 9.268761164604548 18 16 C18.33 16.33 18.659999999999997 16.659999999999997 19 17 C19.943618389353404 24.51800880697958 18.584155184219924 31.349087361565644 15 38 C12.221400765153263 41.57248473051723 9.222625452947526 44.82557620981024 6 48 C1.6298922875062658 46.83019308112165 -0.6048024855076903 45.9834170988275 -2.9375 42.0625 C-3.6741992187500045 40.863671874999994 -3.6741992187500045 40.863671874999994 -4.42578125 39.640625 C-4.945273437499992 38.76921875 -5.464765624999998 37.8978125 -6 37 C-7.203759636611252 35.101259309571795 -8.412163613997052 33.20545572399608 -9.625 31.3125 C-10.497050781249996 29.916445312500002 -10.497050781249996 29.916445312500002 -11.38671875 28.4921875 C-13.04636537766762 25.83951445559712 -13.04636537766762 25.83951445559712 -15.4375 22.9375 C-17.741100721577084 18.606730643435085 -17.74605718208918 14.801358102554119 -17 10 C-13.947207621639869 1.0352145767180545 -9.27096435537868 -1.2415265221176703 0 0 Z " fill="#282344" transform="translate(74,16)"/>
<path d="M0 0 C2.653136337777866 3.6082654193779007 3.674678546299745 7.022138244143903 4.5625 11.375 C4.815156250000001 12.609921874999998 5.067812500000002 13.844843750000003 5.328125 15.1171875 C5.984275907662479 18.90912937335176 6.413083167588823 22.673586745500955 6.8125 26.5 C7.463191390937979 31.96014949787083 8.788805366195334 36.21419573272027 11.125 41.1875 C14.688965122162074 48.88183056936214 15.538102327998558 55.539503248804195 12.75 63.625 C10.918872319019584 66.11010185275914 9.7421674648497 66.76489151376605 7 68 C-12.42571375448 49.42298247751185 -12.42571375448 49.42298247751185 -13.19140625 36.859375 C-12.962717103656757 32.248255069650654 -11.860293463902053 28.28187653366261 -10.5625 23.875 C-8.594642583451645 16.903046009209262 -7.412087881306434 10.536725145121281 -7.23828125 3.2734375 C-7.159648437499996 2.523203125000002 -7.081015625000006 1.7729687499999969 -7 1 C-4.397223027732778 -0.3013884861336109 -2.881851072989278 -0.42173430336428197 0 0 Z " fill="#4F64AB" transform="translate(103,35)"/>
<path d="M0 0 C22.89186237028946 1.5261241580193001 22.89186237028946 1.5261241580193001 30.33203125 6.5859375 C32.84180944044282 10.218356520359862 32.5841124711798 13.498231165735902 32.5 17.8125 C32.51546875 18.59431640625 32.5309375 19.376132812500003 32.546875 20.181640625 C32.50242498084793 26.83247474062945 30.753556523339157 30.954030394536332 26.234375 35.953125 C22.90666005972911 37.512264167819225 19.8055563943102 37.10026856672573 16.25 36.75 C15.571953125 36.697148437500005 14.89390625 36.64429687500001 14.1953125 36.58984375 C9.438921225940623 36.201013284630136 4.742883975357246 35.592860496919656 0 35 C0 23.450000000000003 0 11.900000000000006 0 0 Z " fill="#284885" transform="translate(0,61)"/>
<path d="M0 0 C0.9899999999999949 0.3299999999999983 1.980000000000004 0.6599999999999966 3 1 C3.7347162055527576 10.094153922064038 2.372837248983558 17.61509695153616 -0.221435546875 26.286376953125 C-2.521580037173109 34.11506837874924 -2.779697382958659 40.53509766865665 1 48 C5.568246747683986 55.7279507481654 11.507028242427566 61.85976513871421 18 68 C16.02000000000001 70.64 14.039999999999992 73.28 12 76 C-4.280913517591372 73.77409385501682 -4.280913517591372 73.77409385501682 -9.55859375 68.5078125 C-11.886333773117926 64.45792335408751 -12.515522429003 60.11200095736106 -13.0791015625 55.510986328125 C-13.305881646749427 53.66237840197982 -13.645897455785459 51.828494424218945 -14 50 C-14.989999999999995 49.34 -15.980000000000004 48.68000000000001 -17 48 C-17.524169921875 46.15234375 -17.524169921875 46.15234375 -17.73046875 43.9375 C-17.851318359375 42.7425390625 -17.851318359375 42.7425390625 -17.974609375 41.5234375 C-18.044863281250002 40.690703125 -18.115117187500005 39.85796875 -18.1875 39 C-18.269355468750007 38.167265625 -18.3512109375 37.33453125 -18.435546875 36.4765625 C-19 30.613839285714278 -19 30.613839285714278 -19 28 C-18.095078125 28.078632812500004 -17.19015625 28.157265625 -16.2578125 28.23828125 C-12.282391662099315 27.947513059218295 -11.43983404414152 27.15211586883565 -8.875 24.1875 C-3.010043946761982 17.055354589179018 -0.6861172576761163 9.091053664208602 0 0 Z " fill="#49477B" transform="translate(93,35)"/>
<path d="M0 0 C1.4791513754016137 2.9583027508032274 0.37753082105704294 4.5765932919107755 -0.625 7.6875 C-1.1780078124999989 9.44126953125 -1.1780078124999989 9.44126953125 -1.7421875 11.23046875 C-2.5818854156769575 13.746954739528768 -3.462443955782234 16.250166287241797 -4.3828125 18.73828125 C-8.531794786951053 30.008388557189534 -9.999496617677934 39.66786919110271 -5.265625 50.9765625 C-4.109803506597828 53.11678790423379 -4.109803506597828 53.11678790423379 -2 54.40234375 C2.210778059463763 57.766031692032584 2.940477605874541 63.93415855308764 4 69 C4.286006958154054 73.0309105664837 4.261455719320473 76.9692243271427 4 81 C2.8811968622357824 79.32179529335369 1.766617279969637 77.64068642810575 0.66796875 75.94921875 C-7.1830437829259495 63.95519168782553 -14.895325665938458 57.421133774644716 -29 54 C-28.5784765625 53.5294921875 -28.156953125 53.058984374999994 -27.72265625 52.57421875 C-27.1748046875 51.9516015625 -26.626953125 51.328984375000005 -26.0625 50.6875 C-25.5172265625 50.0726171875 -24.971953125 49.457734375 -24.41015625 48.82421875 C-22.012089863895177 45.72201098736579 -21.918220491354052 43.25253778653439 -22.18359375 39.5 C-23.02956737959916 22.93162916484502 -23.02956737959916 22.93162916484502 -18.4375 16.75 C-16.984055300187933 15.143022409362715 -15.505402693905587 13.558409831014941 -14 12 C-12.799970433496945 10.342332039491545 -11.611775062609944 8.676010771179648 -10.4375 7 C-7.359887022451481 3.035977754724371 -4.771345125315847 1.4606158546885268 0 0 Z " fill="#59566C" transform="translate(53,44)"/>
<path d="M0 0 C2.4286286091419242 2.4286286091419242 2.348399260775764 3.2133604491596586 2.4375 6.5625 C2.293383719675404 13.685961856044386 -0.8892510569582228 19.05485250364893 -5.8125 24.0625 C-6.534375000000001 24.701875 -7.256250000000001 25.341250000000002 -8 26 C-8.860449218749999 25.619082031250002 -8.860449218749999 25.619082031250002 -9.73828125 25.23046875 C-18.88440712709353 21.524830496306564 -28.287421294566244 20.328559988722546 -38 19 C-38 14.379999999999995 -38 9.759999999999998 -38 5 C-35.393515625 4.835644531249997 -35.393515625 4.835644531249997 -32.734375 4.66796875 C-30.406211243957564 4.508376879626127 -28.07808831027477 4.348188704024402 -25.75 4.1875 C-24.61046875 4.117246093749998 -23.470937499999998 4.046992187500003 -22.296875 3.974609375 C-15.35159571913676 3.4813366988023233 -9.011361582398784 2.428311660056849 -2.3369140625 0.419189453125 C-1.5657324218749977 0.2808569335937534 -0.7945507812500026 0.14252441406249972 0 0 Z " fill="#6A84C0" transform="translate(38,42)"/>
<path d="M0 0 C11.045300428604454 1.2272556031782784 21.899103243264904 3.8575601829739554 30 12 C33.32284763863187 16.88043246924056 33 18.651033301696344 33 25 C22.11 25 11.219999999999999 25 0 25 C0 16.75 0 8.5 0 0 Z " fill="#B3C7DE" transform="translate(0,103)"/>
<path d="M0 0 C0 9.569999999999993 0 19.14 0 29 C-7.920000000000002 29 -15.840000000000003 29 -24 29 C-24.80357142857143 12.92857142857143 -24.80357142857143 12.92857142857143 -21.25 8.25 C-20.196535062244465 7.137599960831565 -19.11605592728776 6.049591058168886 -18 5 C-17.360625 4.195625000000007 -16.721249999999998 3.3912499999999994 -16.0625 2.5625 C-11.48832117368407 -0.9027869896332845 -5.473747070732429 0 0 0 Z " fill="#A082A1" transform="translate(128,99)"/>
<path d="M0 0 C2.4749999999999943 0.49499999999999744 2.4749999999999943 0.49499999999999744 5 1 C7.940081065921063 7.7273041338871735 8.71540064313723 13.7772604499485 7 21 C6.340000000000003 21.33 5.680000000000007 21.659999999999997 5 22 C2 20 2 20 1.475830078125 18.15234375 C1.4077514648437557 17.421445312499998 1.3396728515624972 16.690546874999995 1.26953125 15.9375 C1.18896484375 15.140859375000005 1.1083984375 14.344218749999996 1.025390625 13.5234375 C0.9551367187499977 12.690703124999999 0.8848828124999955 11.857968749999998 0.8125 11 C0.7306445312499932 10.167265624999999 0.6487890625000006 9.334531249999998 0.564453125 8.4765625 C0 2.613839285714292 0 2.613839285714292 0 0 Z " fill="#59566C" transform="translate(74,63)"/>
</svg>
