<?xml version="1.0" encoding="UTF-8"?>
<!-- Generator: visioncortex VTracer 0.6.0 -->
<svg version="1.1" xmlns="http://www.w3.org/2000/svg" width="128" height="128">
<path d="M0 0 C42.24 0 84.48 0 128 0 C128 42.24 128 84.48 128 128 C85.75999999999999 128 43.519999999999996 128 0 128 C0 85.75999999999999 0 43.519999999999996 0 0 Z " fill="#6E7C82" transform="translate(0,0)"/>
<path d="M0 0 C42.24 0 84.48 0 128 0 C128 28.05 128 56.1 128 85 C121.59639717988698 83.576977151086 116.9962930580973 82.35098061434589 111.4375 79.375 C110.81037109375 79.05015625 110.1832421875 78.7253125 109.537109375 78.390625 C108.0198744074992 77.6030526504576 106.50918303641265 76.80289396247274 105 76 C105.83050260331379 69.81461493949882 107.15425563302311 64.37140545407372 109.625 58.625 C113.04363770811624 50.073333566937734 113.48604417691121 42.0874325609564 110.125 33.4375 C109.44540626944342 31.944910806592418 108.73882780668932 30.464173354132477 108 29 C107.7048046875 28.280703125 107.409609375 27.56140625 107.10546875 26.8203125 C104.25364563102262 22.124377611507207 95.53007200303603 21.590469745423707 90.5625 20.375 C88.38801007335856 19.85845450018479 86.19768415894922 19.406706321500078 84 19 C83.3095458984375 18.86730712890625 82.619091796875 18.7346142578125 81.90771484375 18.597900390625 C74.56650772726108 17.498474132585034 67.74175923377419 18.79196811875476 60.55029296875 20.268310546875 C58.50672962963882 20.686124104061697 56.459414199463 21.07799224848589 54.41015625 21.466796875 C43.26325100179618 23.64194882518858 32.64013535640509 26.05716875333229 25 35 C21.685737610545264 40.20545166253343 19.717113357701326 45.81195854891228 21 52 C22.452274500769075 56.10495301693399 24.19721315096561 60.03933192257596 26 64 C27.715430803601432 67.872628068331 28.002687917206636 70.45750175287932 27.875 74.703125 C28.023218922616948 77.42664770308639 28.66906259678829 79.7593573006063 29.4375 82.375 C33.12418816657734 95.10285200365985 31.41326490662377 104.65518014119863 26.90234375 116.9453125 C25.68517934466318 120.76189855778652 25.68517934466318 120.76189855778652 25 128 C16.75 128 8.5 128 0 128 C0 85.75999999999999 0 43.519999999999996 0 0 Z " fill="#B5B097" transform="translate(0,0)"/>
<path d="M0 0 C5.367408938450836 2.5072045125647264 9.045570658963442 6.362795667985964 11.37890625 11.796875 C13.421716580470004 19.043070134497363 12.053803222448735 25.30512370463161 9 32 C8.340000000000003 32.99 7.680000000000007 33.98 7 35 C6.033776881976678 39.7302923082359 5.7683711439402146 44.37118052406382 6.625 49.125 C7.198680322725139 55.053030001493084 5.305755434580405 58.928801724458665 2.1875 63.875 C-1.727389309838344 67.67803532955725 -5.909610247392578 68.17154520351056 -11.1875 68.5625 C-21.288592247227513 68.3435061301414 -28.41204522845672 60.87030757140013 -35.3984375 54.31640625 C-38.164283334398505 51.85372369775027 -41.05470815579922 49.721256931217525 -44.0625 47.5625 C-51.447859556228345 42.1116281726934 -58.683860306406714 36.192925587973356 -61 27 C-61.38630028611358 21.792994060094074 -60.70917411169965 17.27008383533955 -57.5 13.0625 C-53.36605435002256 9.03581348040035 -48.38431975967906 7.174739564680614 -42.62158203125 6.877197265625 C-40.18060358355229 6.9549625081197775 -37.74975799519329 7.095510791266236 -35.3125 7.25 C-28.41981386105256 7.500016930366186 -23.441908524017776 6.978292955984266 -17.4375 3.5 C-11.476783800405514 0.0608558707392568 -6.849690227126075 -1.6988963122571796 0 0 Z " fill="#46322C" transform="translate(90,27)"/>
<path d="M0 0 C0.7025390624999943 0.2707031250000007 1.4050781250000028 0.5414062500000014 2.12890625 0.8203125 C4.6715894047690085 2.4234238000840094 5.6924590901883505 4.284620634413741 7.1875 6.875 C7.696679687499994 7.738671875000001 8.205859375000003 8.60234375 8.73046875 9.4921875 C12.429968954331088 16.80012328824786 12.184092072117537 25.617391031042253 9.765625 33.31640625 C8.514098347555858 36.95204111428412 7.140661470291008 40.537845759352706 5.73095703125 44.11474609375 C4.778632158828202 46.57094270859339 3.941356538536084 49.058217864877236 3.125 51.5625 C2.568124999999995 53.264062499999994 2.568124999999995 53.264062499999994 2 55 C-0.8750000000000142 55.125 -0.8750000000000142 55.125 -4 55 C-6.898213771677547 52.10178622832245 -6.944704736288273 48.9328756314962 -7 45 C-6.3404854594244 40.00784132480965 -4.710090181715387 36.24188028442408 -2 32 C-0.14923770558426952 26.01671367832722 -0.0009286583226213452 19.456508961811878 -2.5625 13.6875 C-4.937643324674312 9.62171646158182 -7.603651614723148 6.804471352165876 -12 5 C-19.681469007135362 3.254211589287415 -24.581076040876 5.685637728272226 -31.1630859375 9.5 C-37.259512655797636 12.704153191738556 -43.052450320268434 12.520029560057324 -49.808349609375 12.091796875 C-57.16477871124152 11.67197855591428 -63.282114208599026 12.678472553178338 -69 17.5625 C-72.26043580761423 23.166374044336955 -72.69077318083576 28.236907276656964 -71.125 34.5 C-66.5890454592334 43.165097015096734 -58.68926867458441 49.25941096393751 -50.9140625 54.83984375 C-48.23247966002234 56.82766588204778 -45.815497006630885 58.91516444788962 -43.375 61.1875 C-38.991061233158035 65.20141824707181 -34.191327319038535 68.1388091602794 -29 71 C-32.116138727943124 74.11613872794312 -35.6610678191185 74.74942860396179 -40 75 C-43.12030197527476 74.22045170295569 -45.67984493108576 72.81738618843339 -48.4375 71.1875 C-49.17540771484375 70.7709716796875 -49.9133154296875 70.354443359375 -50.673583984375 69.92529296875 C-64.02045970445182 62.148280999737835 -72.97635767568549 51.45536596298825 -79 37.3125 C-79.30317138671876 36.61189453125 -79.6063427734375 35.9112890625 -79.918701171875 35.189453125 C-82.22212356646511 29.436647238481847 -82.98610444895004 24.409245532048416 -81.22265625 18.3125 C-77.55838491449148 11.008632556831515 -72.94760258237424 4.9485060037992525 -65.135986328125 1.8720703125 C-42.603599058734375 -4.772027273241193 -22.38119971311278 -9.123546379867626 0 0 Z " fill="#6C6959" transform="translate(102,23)"/>
<path d="M0 0 C9.245606986695895 1.3208009980994149 13.860590279678675 4.159365068257721 19.55859375 11.37890625 C21.11048945124697 13.276532510242234 21.11048945124697 13.276532510242234 24.1875 15 C28.900674090178367 18.351590464126843 29.601519616567877 22.018854590845947 30.69140625 27.4375 C32.52273455956077 38.863145805561516 30.864466104633152 47.15039800926364 26.90234375 57.9453125 C25.685179344663187 61.76189855778645 25.685179344663187 61.76189855778645 25 69 C16.75 69 8.5 69 0 69 C0 46.230000000000004 0 23.460000000000008 0 0 Z " fill="#D7BFB9" transform="translate(0,59)"/>
<path d="M0 0 C3.2198122481253506 2.9721343828849456 5.668276394069586 6.217385743901389 8.14453125 9.8046875 C13.869573540937026 16.578316484224445 20.953485430391396 20.363807698836723 28.767578125 24.298828125 C34.61256577770395 27.379491891995514 34.61256577770395 27.379491891995514 36.48046875 30.37109375 C36.6519140625 31.2386328125 36.823359374999995 32.106171875 37 33 C37.25652343749999 34.0634765625 37.513046875 35.126953125 37.77734375 36.22265625 C38.06198556209938 41.05157962368601 36.974215911583656 44.859633281643596 35.5625 49.4375 C34.716875 52.263125 33.87125 55.088750000000005 33 58 C21.119999999999997 58 9.239999999999995 58 -3 58 C-3 51.309054919862746 -2.7508847427757033 48.40181947626762 -0.5625 42.5 C3.6026098197264673 30.62689288038183 3.195829270957592 20.649928258867476 -0.1875 8.4375 C-0.9789898203540659 5.0888892215789525 -1.0140225885078848 3.2448722832252344 0 0 Z " fill="#A18C97" transform="translate(28,70)"/>
<path d="M0 0 C0.5452734375000006 0.27714843750000284 1.0905468750000011 0.5542968749999986 1.65234375 0.83984375 C7.045178833888571 3.430248294568699 11.949441761973219 5.360308771235452 18 5 C19.59162185388029 4.388248907207526 21.162410408489357 3.720926528034795 22.71484375 3.015625 C30.396046651977485 0.10144497629893579 38.117780784226085 0.5650707519463793 46.1875 0.75 C47.72719010106866 0.7701118268758549 49.26690580429836 0.7883542569672031 50.806640625 0.8046875 C54.53830207629633 0.8482753856624825 58.268981580587905 0.9170388446893725 62 1 C61.99202392578124 1.6025561523437517 61.98404785156251 2.2051123046875034 61.975830078125 2.825927734375 C61.96652465820313 4.023909912109374 61.96652465820313 4.023909912109374 61.95703125 5.24609375 C61.94905517578124 6.034274902343753 61.94107910156251 6.822456054687507 61.932861328125 7.634521484375 C61.99594224066996 9.857034072186053 62.29000053419169 11.879617016133253 62.6875 14.0625 C63.1602736370852 20.01944782727341 61.32124095823535 23.904238480040476 58.1875 28.875 C54.272610690161656 32.67803532955725 50.090389752607436 33.17154520351056 44.8125 33.5625 C34.71418870378673 33.34356642176232 27.603855391760618 25.87663574954304 20.61328125 19.33203125 C17.776679091808703 16.800713629013146 14.81476715140488 14.56100364375574 11.75 12.3125 C7.436831984786828 9.133206050641832 3.5379831542594076 6.029369703462095 0 2 C0 1.3400000000000034 0 0.6799999999999997 0 0 Z " fill="#5B4750" transform="translate(34,62)"/>
<path d="M0 0 C13.86 0 27.72 0 42 0 C42.66 2.31 43.31999999999999 4.62 44 7 C47.18984980411976 11.503317370522014 51.00472736601938 14.762268518318344 55.1953125 18.3203125 C57.3305178876067 20.307624873746498 58.729339052219174 22.37926179520206 60 25 C58.783125 24.566875 57.56625 24.13375 56.3125 23.6875 C50.31339735810144 21.697231670690886 44.21479175495131 20.15011753770559 38 19 C37.31244628906251 18.86585693359375 36.624892578125 18.7317138671875 35.91650390625 18.593505859375 C28.492715636346972 17.4676342799807 21.594594808117876 18.86161242177336 14.33056640625 20.378173828125 C12.242553795011077 20.814054423688724 10.15133252460177 21.23004595477878 8.05859375 21.642578125 C0.8537903811456573 23.05234936884847 0.8537903811456573 23.05234936884847 -6.1884765625 25.096435546875 C-9 26 -9 26 -13 26 C-13.659999999999997 23.36 -14.32 20.72 -15 18 C-14.2407421875 17.4083203125 -13.481484375 16.816640625 -12.69921875 16.20703125 C-11.208417968749998 15.02173828125 -11.208417968749998 15.02173828125 -9.6875 13.8125 C-8.701367187499997 13.0351953125 -7.715234375000001 12.257890625 -6.69921875 11.45703125 C-2.8030570870821663 7.910452833248458 -1.2734901829700647 5.093960731880261 0 0 Z " fill="#A1A396" transform="translate(46,0)"/>
<path d="M0 0 C1.0737890624999977 0.4821093749999932 2.1475781249999955 0.9642187500000006 3.25390625 1.4609375 C4.689996798677228 2.0991999660787712 6.126200792143962 2.7372072240004854 7.5625 3.375 C8.266972656250005 3.692109375000001 8.971445312499995 4.009218750000002 9.697265625 4.3359375 C10.396582031250006 4.645312500000003 11.095898437499997 4.954687500000006 11.81640625 5.2734375 C12.766888427734372 5.697619628906253 12.766888427734372 5.697619628906253 13.736572265625 6.13037109375 C16.75409268512317 7.28972906314408 19.89180183610233 8.11194338174353 23 9 C23 23.189999999999998 23 37.379999999999995 23 52 C15.079999999999998 52 7.159999999999997 52 -1 52 C-0.539422427209459 45.1680993369404 0.07019690026820058 38.55631277994844 1.25 31.8125 C2.349267405544907 24.1574566903721 1.2552673872648512 17.42806836028629 -0.2734375 9.8984375 C-0.8543070537933204 6.781728818893868 -1.2529578519376088 4.143904731224524 -1 1 C-0.6700000000000017 0.6700000000000017 -0.3400000000000034 0.3400000000000034 0 0 Z " fill="#87A596" transform="translate(105,76)"/>
<path d="M0 0 C15.180000000000001 0 30.360000000000003 0 46 0 C44.63512377747365 8.189257335158098 41.1988454541255 11.548435153898943 34.6875 16.4375 C24.17350985769543 23.527208949168678 12.681720888545101 29 0 29 C0 19.43 0 9.86 0 0 Z " fill="#DDD6C2" transform="translate(0,0)"/>
<path d="M0 0 C13.200000000000003 0 26.400000000000006 0 40 0 C40 9.9 40 19.8 40 30 C38 31 38 31 35.0234375 30.14453125 C17.07000290971567 23.5897976362024 17.07000290971567 23.5897976362024 10.6640625 16.73046875 C9.108672930935114 15.11300964414144 7.515877396749815 13.75377619401402 5.75 12.375 C3.0227723584010135 10.019667036800879 1.472001498263296 8.271114440585093 0 5 C0 3.3499999999999996 0 1.6999999999999997 0 0 Z " fill="#CED0C3" transform="translate(88,0)"/>
<path d="M0 0 C4.299951917659257 0.6999921726422045 6.832383256629953 3.2580983919508775 9.6875 6.4375 C13.297272829560853 12.492602810876264 13.825654615821847 18.923594278747366 12.11328125 25.71484375 C10.836567624208627 29.342331670899313 9.363734471030796 32.64975575934291 6.6875 35.4375 C2.8709462635170695 36.70968457882765 -0.37692962432818433 37.25598950620558 -4.3125 36.4375 C-10.509153531031558 33.05563251551023 -15.652618778676612 28.03653864909279 -18.3125 21.4375 C-19.288242608785367 17.587069551485442 -19.048798660598905 14.814604662144035 -17.16796875 11.296875 C-13.770101209499884 6.455586156015663 -9.911861972665335 2.74635889915103 -4.25 0.6875 C-2.826716931499675 0.5038505718064101 -1.4100693727508826 0.2667698813312498 0 0 Z " fill="#56261B" transform="translate(89.3125,27.5625)"/>
<path d="M0 0 C7.854036523186398 1.1220052175980584 12.693904369851035 3.10867671965795 17.9375 9.0625 C22.445770041139212 15.483369452531605 21.878218499535457 24.41211645552231 21 32 C19.07214973719786 38.589591631043504 15.773524077172834 43.336032797178774 10 47 C2.6707317073170715 50 2.6707317073170715 50 0 50 C0 33.5 0 17 0 0 Z " fill="#E9E6DB" transform="translate(0,59)"/>
<path d="M0 0 C7.198512506860482 0.415298798472719 13.828449857738775 2.174158256831049 20 6 C26.014166044610675 13.026001163647265 27.46255975792269 20.13049868064418 27.421875 29.15234375 C26.68812876214764 35.84438119707941 24.185721155123176 41.88617337142699 21.73095703125 48.11474609375 C20.778632158828202 50.57094270859338 19.941356538536084 53.05821786487722 19.125 55.5625 C18.753749999999997 56.696875000000006 18.382499999999993 57.83125 18 59 C15.125 59.125 15.125 59.125 12 59 C9.101786228322467 56.10178622832247 9.055295263711727 52.9328756314962 9 49 C9.6595145405756 44.00784132480965 11.289909818284627 40.24188028442407 14 36 C15.836304935487462 30.06345253732819 16.00662223890147 23.492042133166365 13.5 17.75 C11.35571282785645 13.907191447771424 8.428246414467111 12.004935199324194 4.83984375 9.5859375 C1.7352552638421486 6.90979540789791 1.0712059756482688 3.8831216617249815 0 0 Z " fill="#987765" transform="translate(86,19)"/>
<path d="M0 0 C1.8952694352450905 1.819458657835284 3.7167472690370076 3.6487666136058863 5.3671875 5.6953125 C9.404729562292104 10.656869163612697 13.987476943421406 14.478134484030889 19.0927734375 18.27880859375 C22.45699075852564 20.787962063796982 25.61051142095893 23.38615983051949 28.6875 26.25 C33.04833036210365 30.237971260511145 37.838929619599185 33.15548521831772 43 36 C39.88386127205686 39.11613872794314 36.33893218088153 39.7494286039618 32 40 C28.87969802472523 39.220451702955685 26.32015506891424 37.8173861884334 23.5625 36.1875 C22.45563842773437 35.562707519531244 22.45563842773437 35.562707519531244 21.326416015625 34.92529296875 C11.15569988504398 28.998978620743287 -0.686444671584244 19.724482009493073 -3.8359375 7.84765625 C-4 5 -4 5 -2.0625 2.125 C-1.3818750000000009 1.4237499999999983 -0.7012500000000017 0.7224999999999966 0 0 Z " fill="#7B666F" transform="translate(30,58)"/>
</svg>
