<?xml version="1.0" encoding="UTF-8"?>
<!-- Generator: visioncortex VTracer 0.6.0 -->
<svg version="1.1" xmlns="http://www.w3.org/2000/svg" width="128" height="128">
<path d="M0 0 C42.24 0 84.48 0 128 0 C128 42.24 128 84.48 128 128 C85.75999999999999 128 43.519999999999996 128 0 128 C0 85.75999999999999 0 43.519999999999996 0 0 Z " fill="#977628" transform="translate(0,0)"/>
<path d="M0 0 C10.14851485148515 0 10.14851485148515 0 13.375 2.75 C14.001484375 3.260468750000001 14.62796875 3.7709375000000023 15.2734375 4.296875 C18.628894233513996 7.606782547086198 20.30118999247365 10.35697083922608 21.4375 14.9375 C22.640778674301114 19.112140298595705 23.674751327880866 22.034237670812672 27 25 C36.50984445131226 29.841375357031694 46.948480906743114 29.135041929892736 57.3125 28.375 C64.96946466913 27.828397960527155 71.18084384904776 28.63575332957808 78.6875 30.29296875 C89.9249370470576 32.43737510665096 102.29915462910898 31.460307976228947 113.59765625 30.16015625 C118.07571058263962 29.861619294490694 122.57670273621038 30.265504144389183 127 31 C135.2529456020933 39.25294560209329 128 54.32857239999227 128 66 C85.75999999999999 66 43.519999999999996 66 0 66 C0 44.22 0 22.439999999999998 0 0 Z " fill="#DAC065" transform="translate(0,62)"/>
<path d="M0 0 C3.4009644706805773 3.057517319700512 6.007620786060713 6.670826235185686 8.5859375 10.42578125 C8.989414062500003 10.992968750000003 9.392890625000007 11.560156249999999 9.80859375 12.14453125 C14.32510596094248 19.151135744541946 16.59605457284266 28.40561974614313 15.2265625 36.65234375 C14.5859375 38.42578125 14.5859375 38.42578125 12.3359375 40.36328125 C11.428437500000001 40.71390625000001 10.520937500000002 41.06453125 9.5859375 41.42578125 C8.46952880859375 41.938425292968745 8.46952880859375 41.938425292968745 7.33056640625 42.46142578125 C4.101860763985968 43.59586692045502 1.3398698566892904 43.777035184480525 -2.078125 43.91796875 C-3.365898437499993 43.98371093750001 -4.653671875000001 44.049453125 -5.98046875 44.1171875 C-8.66250882067041 44.24206897976825 -11.344490148557497 44.35320292834561 -14.02734375 44.4609375 C-21.29356381409343 44.84413119492234 -27.419975348311894 45.67761276261771 -34.139404296875 48.54150390625 C-39.120650135789724 50.47797191403674 -43.61788826969428 50.00698599097606 -48.5390625 47.98828125 C-53.35306136540064 45.344372424317356 -55.8146610415967 41.12788325118814 -58.4140625 36.42578125 C-58.793046875 35.794140625 -59.17203125 35.1625 -59.5625 34.51171875 C-61.7229263773261 29.219665146825065 -60.82310513015328 22.470994400766372 -59.7265625 16.98828125 C-54.88828252289216 7.542115580408506 -42.49176959504645 2.770284560761773 -33 -0.79296875 C-23.04652107086592 -3.8000620820646773 -9.225513627162783 -6.1878445060238185 0 0 Z " fill="#7B601F" transform="translate(86.4140625,28.57421875)"/>
<path d="M0 0 C31.349999999999994 0 62.7 0 95 0 C95 7.92 95 15.84 95 24 C83.25820265328073 25.278018758826587 71.82858295742678 26.23493246758645 60.018798828125 26.013671875 C55.21422133915459 25.934202640172096 50.767826687560444 26.30212622900407 46 27 C43.69140625 26.7734375 43.69140625 26.7734375 41.5625 26.375 C35.331135701125135 25.597279648368467 29.606063097606807 27.0118642796338 23.5390625 28.30859375 C19.999999999999993 29 19.999999999999993 29 16 29 C14.76171875 27.4609375 14.76171875 27.4609375 13.6875 25.375 C11.899899162472721 22.22594465463461 10.23410124366346 20.15857022928804 7.375 17.9375 C1.3209317576991495 13.054762352405184 0.9490847151333597 7.592677721066895 0 0 Z " fill="#A69655" transform="translate(33,0)"/>
<path d="M0 0 C10.89 0 21.78 0 33 0 C34.32 4.29 35.64 8.58 37 13 C39.30912611252363 16.315668264136487 41.71306284006795 18.726726514350425 44.625 21.5 C47.15822412075034 24.166551706052992 48.4310328061043 26.698820470647192 50 30 C47.39704724132853 31.314955421239098 44.792719673101246 32.627049863487336 42.1875 33.9375 C41.44951171875 34.31068359375 40.7115234375 34.6838671875 39.951171875 35.068359375 C39.23896484375 35.42607421875 38.5267578125 35.7837890625 37.79296875 36.15234375 C37.13836669921875 36.48226318359375 36.4837646484375 36.8121826171875 35.809326171875 37.152099609375 C33.999999999999986 38.00000000000001 33.999999999999986 38.00000000000001 31 39 C29.840778720003904 40.73142853535164 29.840778720003904 40.73142853535164 29 43 C28.649375 43.825 28.29875 44.65 27.9375 45.5 C27.066335507022917 48.75234744044778 26.841726153864407 51.40843333293786 26.6875 54.75 C26.278449363333 61.043086717953884 24.212764148751674 65.64144134599351 21 71 C20.01 71 19.02 71 18 71 C16.65576660508347 69.34211214626961 15.323815167012897 67.67423682886925 14 66 C9.252715460648169 62.20217236851853 6.829518879398997 62.75883543104433 0 62 C0 41.54 0 21.08 0 0 Z " fill="#8C8937" transform="translate(0,0)"/>
<path d="M0 0 C9.916666666666666 0 9.916666666666666 0 14.125 1 C22.018554927839922 2.5675933025710265 30.425492883969312 2.7969524592387955 38.36328125 1.4140625 C42.92889186447915 0.8942400240227784 46.92750100680954 1.4459830884905216 51.4375 2.1875 C52.24509765625 2.301582031250007 53.0526953125 2.4156640624999994 53.884765625 2.533203125 C61.91701560394607 3.8082661756465512 68.76806660787204 6.537023456783118 74 13 C76.85941169697006 18.861793978788626 76.43140197095074 24.17682365140888 77 31 C51.59 31 26.18 31 0 31 C0 20.769999999999996 0 10.539999999999992 0 0 Z " fill="#D6CE7A" transform="translate(0,97)"/>
<path d="M0 0 C0 15.840000000000003 0 31.68 0 48 C-7.424999999999997 48.989999999999995 -7.424999999999997 48.989999999999995 -15 50 C-18.721862553955162 50.93949928546441 -22.349993901509436 51.86174445993018 -26 53 C-26.676020394475273 48.52136488660126 -27.006958721320544 44.40119437556436 -26.8125 39.875 C-26.738647349614567 29.240218344496952 -30.223744966980775 19.18571607988723 -37 11 C-37.5555859375 10.467617187499997 -38.111171875 9.935234375 -38.68359375 9.38671875 C-40 8 -40 8 -40 6 C-42.474999999999994 5.009999999999998 -42.474999999999994 5.009999999999998 -45 4 C-43.35476295640906 1.993226821002267 -42.500597125396155 1.0770505933082823 -39.890380859375 0.67529296875 C-38.68973999023437 0.7084057617187511 -38.68973999023437 0.7084057617187511 -37.46484375 0.7421875 C-36.572167968749994 0.7563671875000004 -35.6794921875 0.7705468750000009 -34.759765625 0.78515625 C-33.82841796875 0.8148046875000006 -32.897070312500006 0.8444531250000011 -31.9375 0.875 C-26.581717545797673 1.0047908791467428 -21.33490184211901 1.1086959264401486 -16.00390625 0.5078125 C-10.693859608932243 -0.031068111505703655 -5.337320268053219 0 0 0 Z " fill="#8C7F2F" transform="translate(128,24)"/>
<path d="M0 0 C1 1 1 1 1.113525390625 4.234619140625 C1.113274379925059 5.668141248026458 1.107716084644352 7.101669418828536 1.09765625 8.53515625 C1.096649169921875 9.202528076171873 1.09564208984375 9.869899902343747 1.0946044921875 10.5574951171875 C1.0893580845336999 13.05918079924534 1.075396908944981 15.560842060483466 1.0625 18.0625 C1.0418750000000045 23.651875000000004 1.021250000000009 29.241250000000008 1 35 C-10.549999999999997 35 -22.099999999999994 35 -34 35 C-34.22687500000001 32.009375000000006 -34.45375 29.018749999999997 -34.6875 25.9375 C-34.767019042968755 25.00929443359375 -34.846538085937496 24.081088867187503 -34.928466796875 23.124755859375 C-35.36506068066056 16.280397135172194 -34.22370376885016 11.068357087081495 -29.5625 5.75 C-25.708643311340822 1.6141537975364884 -23.441722390162028 -0.3931347537868817 -17.6328125 -0.9453125 C-11.756447987834719 -1.067373483932215 -5.837128510773979 -0.6624736014749857 0 0 Z " fill="#E8C562" transform="translate(127,93)"/>
<path d="M0 0 C0.9899999999999949 0.3299999999999983 1.980000000000004 0.6600000000000001 3 1 C3.109570312499997 2.099570312499999 3.2191406250000014 3.1991406249999983 3.33203125 4.33203125 C4.6628078871192855 17.014648768982426 6.92739372772661 27.79154053012391 13.12109375 39.03515625 C14 41 14 41 14 44 C5.992714320751212 47.29711763263185 -0.6946765224980425 50.020685623096256 -9.125 46.5625 C-13.938998865400642 43.918591174317356 -16.4005985415967 39.70210200118814 -19 35 C-19.378984375 34.368359375 -19.75796875 33.73671875 -20.1484375 33.0859375 C-22.308863877326093 27.793883896825072 -21.409042630153273 21.045213150766372 -20.3125 15.5625 C-17.41642148906867 9.908251478657888 -12.768275440234191 7.071561650436486 -7.25 4.25 C-3.386528529330043 2.4768103527735335 -3.386528529330043 2.4768103527735335 0 0 Z " fill="#75610E" transform="translate(47,30)"/>
<path d="M0 0 C16.653631284916198 3.027932960893853 16.653631284916198 3.027932960893853 23 10 C27.26521432340876 16.797262191591102 28.285602528298195 22.158533712756423 27.375 30.125 C27.2894384765625 30.879665527343747 27.203876953125 31.6343310546875 27.11572265625 32.411865234375 C26.289210203836024 38.625348944672325 24.410856690545746 43.70145544636597 21 49 C20.01 49 19.02 49 18 49 C16.65576660508347 47.34211214626961 15.323815167012897 45.674236828869255 14 44 C9.25271546064818 40.202172368518546 6.829518879398982 40.75883543104433 0 40 C0 26.799999999999997 0 13.599999999999994 0 0 Z " fill="#8B912A" transform="translate(0,22)"/>
<path d="M0 0 C5.710439084896379 2.326475182735564 8.797566063354111 4.989490610869709 11.875 10.375 C13.125 14.3125 13.125 14.3125 14.125 26.3125 C0.5949999999999989 26.3125 -12.935000000000002 26.3125 -26.875 26.3125 C-26.875 8.3125 -26.875 8.3125 -22.875 2.3125 C-16.225011934806226 -3.85090357261862 -8.072046069514911 -2.6688951241985848 0 0 Z " fill="#F1EC96" transform="translate(62.875,101.6875)"/>
<path d="M0 0 C10.14851485148515 0 10.14851485148515 0 13.375 2.75 C14.001484375 3.260468750000001 14.62796875 3.7709375000000023 15.2734375 4.296875 C18.628894233513996 7.606782547086198 20.30118999247365 10.35697083922608 21.4375 14.9375 C22.640778674301114 19.112140298595705 23.674751327880866 22.034237670812672 27 25 C32.638498062839986 28.10051981645725 38.67354918202256 28.62404288171855 45 29 C45.495 30.485 45.495 30.485 46 32 C44.922505581683666 32.82022749259474 43.83770492026459 33.63086168728276 42.75 34.4375 C42.14671875 34.88996093750001 41.5434375 35.342421875 40.921875 35.80859375 C30.33090251882015 42.37413563365824 11.311084846387988 36.87217956078146 0 35 C0 23.450000000000003 0 11.900000000000006 0 0 Z " fill="#B5B34E" transform="translate(0,62)"/>
<path d="M0 0 C9.569999999999993 0 19.14 0 29 0 C29 7.92 29 15.84 29 24 C-0.09016393442624349 26.983606557377048 -0.09016393442624349 26.983606557377048 -11 25 C-8.992767609894173 19.42684638054414 -7.060549781828001 14.471079684782596 -3.1484375 9.9609375 C-1.397299850900552 7.181489739760389 -1.397299850900552 7.181489739760389 0 0 Z " fill="#9D9445" transform="translate(99,0)"/>
<path d="M0 0 C0 7.260000000000005 0 14.519999999999996 0 22 C-7.437499999999687 21.43750000000003 -7.437499999999687 21.43750000000003 -9.720458984375 21.251708984375 C-14.158503764572387 20.946718109949103 -18.294764218728773 21.1852347186328 -22.702880859375 21.744384765625 C-35.6591520894674 23.186112470790988 -48.3694451170674 21.96359388314619 -61 19 C-61 18.340000000000003 -61 17.680000000000007 -61 17 C-60.0680078125 16.913632812499998 -59.136015625 16.827265624999995 -58.17578125 16.73828125 C-46.78264583046669 15.482617184550932 -37.040090523835275 12.850336852371228 -27.375 6.375 C-18.198795294154394 0.270829043502701 -11.124507173599966 0 0 0 Z " fill="#B49E48" transform="translate(128,72)"/>
<path d="M0 0 C16.83 0 33.66 0 51 0 C49.08260290182895 5.752191294513161 47.91011400495216 7.979971720803485 43 11 C37.19220779395748 13.892854672971747 30.91890563998207 15.724987731309854 24.75 17.6875 C24.076625976562497 17.90212890625 23.403251953125 18.1167578125 22.70947265625 18.337890625 C12.216302827791822 21.58571475979101 12.216302827791822 21.58571475979101 8.98828125 20.03125 C2.3891805065510354 14.001302467524491 1.1298810329108093 9.03904826328647 0 0 Z " fill="#BCAF68" transform="translate(33,0)"/>
<path d="M0 0 C0.6600000000000001 0 1.3200000000000003 0 2 0 C2.527871093750001 1.1214843750000014 2.527871093750001 1.1214843750000014 3.06640625 2.265625 C6.18766661212954 8.491846714535171 8.40027813073074 12.51353164043563 15 15 C24.215106887323337 18.487721345109392 32.49495438320247 23.061586416053046 41 28 C41 28.33 41 28.659999999999997 41 29 C13.16222596964586 32.78043844856661 13.16222596964586 32.78043844856661 2 27 C-1.7787511325235812 23.7250823518129 -4.000731003153362 19.896418084548515 -5 15 C-4.7859965264002255 9.221906212806118 -2.762080106964234 4.946050424098743 0 0 Z " fill="#9F8A22" transform="translate(25,61)"/>
</svg>
