<?xml version="1.0" encoding="UTF-8"?>
<!-- Generator: visioncortex VTracer 0.6.0 -->
<svg version="1.1" xmlns="http://www.w3.org/2000/svg" width="128" height="128">
<path d="M0 0 C42.24 0 84.48 0 128 0 C128 42.24 128 84.48 128 128 C85.75999999999999 128 43.519999999999996 128 0 128 C0 85.75999999999999 0 43.519999999999996 0 0 Z " fill="#6D92A5" transform="translate(0,0)"/>
<path d="M0 0 C42.24 0 84.48 0 128 0 C128 1.98 128 3.96 128 6 C127.105390625 6.17015625 126.21078125 6.3403125 125.2890625 6.515625 C112.61877593415772 9.055085420446002 100.42881435465466 12.287065721691562 92.33984375 23.25 C91.8976953125 23.8275 91.455546875 24.405 91 25 C90.34 25 89.68 25 89 25 C88.505 26.485 88.505 26.485 88 28 C85.09725187770833 30.749971905328955 83.49283213364785 32.022756587403165 79.4375 31.9609375 C77.54135812660648 31.734453887344664 75.64677494804228 31.494569993072304 73.75390625 31.2421875 C68.91785896122754 30.816889724249798 65.0544947610895 32.00051606217267 60.6875 34.125 C54.99210860699422 40.45321265889531 54.85198393245254 49.914622310220004 55 58 C55.773568380216915 62.82098865528043 57.397809407244196 66.13972772463457 60.1875 70.125 C63.19467572928312 72.12978381952209 63.73210197155664 72.24853005817725 67.125 71.875 C70.88598532195513 71.09328473658218 70.88598532195513 71.09328473658218 74 70 C79.58344537267072 69.32822452123685 84.34800158996268 69.80515728350456 89.2734375 72.62109375 C93.99752347204789 76.39394974125092 95.15497999534175 81.66115973791021 95.875 87.4375 C96.26682956179279 93.99836708118156 95.36411760088183 100.27158995933759 92 106 C87.63776394259854 109.56100902645017 83.29769080428484 111.94146120957915 78.11328125 114.10546875 C75.98274484817412 114.94317803743348 75.98274484817412 114.94317803743348 74.10546875 116.17578125 C71.00849215620511 117.38814128950041 69.18381640200234 116.900115995134 66 116 C63.69403597558277 114.62368006775098 61.55530044935449 113.23495900536813 59.375 111.6875 C53.19545822825291 107.49883247835552 47.213450190860485 105.00028144660355 40 103 C31.949806432078066 100.69700720406831 26.249477651928387 95.59146292251755 21.9375 88.4375 C19.23479253850727 82.97616699160434 19.61798310400576 78.61837434237466 20.9375 72.8125 C21.747530764170087 69.23624172825586 22.074776246760536 65.84473647016792 22.14453125 62.19140625 C22.16459228515625 61.31959716796875 22.1846533203125 60.4477880859375 22.205322265625 59.549560546875 C22.234505292654834 57.80256567741141 22.23993969859467 56.05496845521682 22.218505859375 54.307861328125 C22.343948094431724 47.64382383570735 24.39489003467585 43.78317703260629 29 39 C30.04458745607204 38.103691851751336 31.106437621789063 37.22695973168743 32.1875 36.375 C35.24319866683112 33.79463223689817 36.52580070689648 31.685498232758793 38 28 C38 27.34 38 26.68 38 26 C25.571752184598935 20.642996631292647 13.460611777071684 16.922944539581668 0 15 C0 10.05 0 5.1 0 0 Z " fill="#4D85A2" transform="translate(0,0)"/>
<path d="M0 0 C0 40.260000000000005 0 80.52000000000001 0 122 C-7.590000000000003 122 -15.180000000000007 122 -23 122 C-24.56528386239134 118.86943227521733 -23.22811612586989 115.90946977984655 -22.5 112.625 C-20.801835003769796 104.36177371910956 -21.12919730163854 97.14854150126116 -22.53515625 88.8359375 C-22.90592006896364 85.77635707796385 -23.07255444261746 82.92514631563483 -23.10546875 79.85546875 C-23.082037215946514 65.34125125173387 -23.082037215946514 65.34125125173387 -30 53 C-31.35549831899894 51.313569474214205 -32.70962293896713 49.62603405913004 -34.0625 47.9375 C-34.73796874999999 47.1137890625 -35.4134375 46.290078125 -36.109375 45.44140625 C-40.69862230754387 39.51520879707662 -43.56669955109844 33.043764457346626 -46 26 C-44.47005208333333 24.763020833333332 -42.94010416666667 23.526041666666668 -41.41015625 22.2890625 C-39.86733562698929 21.03336089990652 -39.86733562698929 21.03336089990652 -39 19 C-38.34 19 -37.68000000000001 19 -37 19 C-36.7421875 18.4108984375 -36.484375 17.821796875 -36.21875 17.21484375 C-31.338879933444247 8.346618340586174 -20.483409205311332 3.881099700328271 -11.25 1.1875 C-7.155524620315106 0.07806879682190537 -4.454979611769886 0 0 0 Z " fill="#9EB2C6" transform="translate(128,6)"/>
<path d="M0 0 C0.7541015624999972 0.4434375000000017 1.5082031250000014 0.8868750000000034 2.28515625 1.34375 C8.890631499632953 4.223309166261203 14.24034191662306 3.556133843590345 20.875 1.5625 C29.254573248870756 -0.7122871977543923 36.33055520301153 -2.3842244158081485 44.2109375 2.12109375 C48.93502347204789 5.893949741250921 50.09247999534175 11.161159737910182 50.8125 16.9375 C51.20432956179279 23.498367081181556 50.301617600881826 29.77158995933759 46.9375 35.5 C42.57526394259855 39.061009026450165 38.23519080428488 41.44146120957913 33.05078125 43.60546875 C30.92024484817412 44.44317803743348 30.92024484817412 44.44317803743348 29.04296875 45.67578125 C25.945992156205108 46.888141289500425 24.12131640200238 46.400115995134 20.9375 45.5 C18.63153597558273 44.12368006775094 16.492800449354498 42.734959005368125 14.3125 41.1875 C8.132958228252917 36.99883247835554 2.1509501908604705 34.50028144660355 -5.0625 32.5 C-13.112693567921944 30.197007204068314 -18.813022348071605 25.091462922517564 -23.125 17.9375 C-25.699426930678484 12.75301393199004 -25.79853838725929 8.846122359388971 -24.0625 3.3125 C-17.816147067873448 -5.471433810802964 -8.678569730709356 -4.558574912149027 0 0 Z " fill="#325B74" transform="translate(45.0625,70.5)"/>
<path d="M0 0 C0.35191406250000057 0.8224218749999999 0.7038281250000011 1.6448437499999997 1.06640625 2.4921875 C4.37789191398349 9.979776494803396 8.084042444855385 16.472757818221332 13 23 C14.440788037536834 24.95591552101189 15.87826525256402 26.914274016163475 17.3125 28.875 C17.968632812500005 29.759296875000004 18.62476562500001 30.64359375 19.30078125 31.5546875 C22.892619048908614 36.723631091073074 23.20871166158092 39.738650152572376 23 46 C20.269642985879997 45.379874812669556 17.54079236239474 44.75409112526191 14.8125 44.125 C14.043574218749995 43.9509765625 13.274648437499991 43.776953125000006 12.482421875 43.59765625 C9.283295121227752 42.85622773195837 6.278468671884255 42.112171887547746 3.2265625 40.8828125 C-1.4412384091348258 39.03207038515005 -6.4462040940103975 39.47170939196354 -11.125 41.0625 C-15.045561776120167 42.34094405743048 -17.07140392937862 42.33291652396082 -21 41 C-25.301319646170548 36.65045928156297 -27.808443084571465 31.642710174244165 -28.109375 25.52734375 C-27.796260971719875 18.292173167955696 -27.327404455937724 10.027456206484686 -23 4 C-15.67712265913103 -2.021032480270037 -8.89069018437317 -1.0282826725698513 0 0 Z " fill="#4B8DB9" transform="translate(82,31)"/>
<path d="M0 0 C6.121304209687988 0 10.38416514706951 0.5748525308529295 16.125 2.125 C16.95233642578125 2.344382324218749 17.7796728515625 2.5637646484374983 18.632080078125 2.789794921875 C25.82409477471341 4.783048244256037 32.37672850515926 7.539727100541011 39 11 C37.87893142629639 14.777629174897008 36.85455453681561 17.642110467602954 34.1875 20.5625 C33.7066796875 21.100039062500002 33.225859375 21.637578125000005 32.73046875 22.19140625 C31.385505564688444 23.59709012087867 30.007581985484173 24.971268122403195 28.6171875 26.33203125 C25.871306897997478 29.13119013233989 23.365543678189866 32.05223170607776 20.9375 35.125 C20.4721484375 35.712490234375 20.006796875 36.29998046875 19.52734375 36.9052734375 C14.886669451936088 42.90667736684462 10.893272958708852 49.28964388453389 6.972412109375 55.77783203125 C6.49682861328125 56.5575537109375 6.0212451171875 57.337275390624995 5.53125 58.140625 C5.11423828125 58.837041015625005 4.6972265625 59.53345703125001 4.267578125 60.2509765625 C3.0000000000000013 62 3.0000000000000013 62 0 64 C0 42.879999999999995 0 21.759999999999998 0 0 Z " fill="#8EA6B4" transform="translate(0,15)"/>
<path d="M0 0 C5.6016925375470095 -0.375371149423259 10.34304385455205 0.7468554426626071 14.7734375 4.28515625 C19.17633196443714 9.69333586672191 19.879260869303465 16.512460614577662 19.7734375 23.28515625 C19.124226640955357 28.41626858172627 18.198221997956182 34.074143685113 14.22265625 37.69921875 C6.024814020970709 43.33409921784718 6.024814020970709 43.33409921784718 0.8984375 43.22265625 C-5.035687580036992 41.4424187259889 -10.337760026760677 37.32852248857154 -13.61328125 32.05078125 C-14.042539062499998 31.220625 -14.471796875000003 30.390468749999997 -14.9140625 29.53515625 C-15.351054687500003 28.715312499999996 -15.788046875 27.895468749999992 -16.23828125 27.05078125 C-18.194390696196976 21.576767463804515 -17.56198867291163 17.080707412194258 -15.14501953125 11.84228515625 C-10.450637322136672 2.60575748164689 -10.450637322136672 2.60575748164689 -6.3515625 0.91015625 C-4.237216460863465 0.4570820987564588 -2.1439038858350727 0.2745701467823807 0 0 Z " fill="#154A72" transform="translate(76.2265625,69.71484375)"/>
<path d="M0 0 C5.636730192096772 0.9394550320161272 7.1473492976318855 1.2606625535838845 11 5 C11 5.659999999999997 11 6.319999999999993 11 7 C11.58265625 7.256523437499993 12.1653125 7.513046875000001 12.765625 7.77734375 C15.201392749298183 9.110202675752333 16.779622549311913 10.61182632381879 18.75 12.5625 C23.484981580025703 16.902899781690223 28.662657518595655 19.825100876779146 34.3271484375 22.765869140625 C39.7389913714296 25.628282405459657 43.55773425918233 28.836601388773502 47 34 C47 35.650000000000006 47 37.3 47 39 C31.49 39 15.979999999999997 39 0 39 C0 26.129999999999995 0 13.259999999999991 0 0 Z " fill="#B1D2E0" transform="translate(0,89)"/>
<path d="M0 0 C0 13.200000000000003 0 26.400000000000006 0 40 C-2.6400000000000006 40.99 -5.280000000000001 41.98 -8 43 C-10.497293412069837 44.51799720362517 -10.497293412069837 44.51799720362517 -12.5 46.1875 C-13.170312499999994 46.71730468749999 -13.840625000000003 47.24710937500001 -14.53125 47.79296875 C-15.015937500000007 48.191289062500005 -15.500625 48.58960937500001 -16 49 C-19.68029926216596 44.22009912901615 -22.82313015708371 39.122045467775195 -26 34 C-26.639375 33.01 -27.278750000000002 32.02 -27.9375 31 C-30.585572805283405 23.52308854978805 -29.402742940405645 16.206666533084366 -26.203125 9.09765625 C-23.61686130998288 4.588488712535078 -19.84451530465627 2.4994928323936065 -15 1 C-9.809391280813657 0.02063986430446363 -5.400391024834761 0 0 0 Z " fill="#D1E5ED" transform="translate(128,22)"/>
<path d="M0 0 C1.375896169257345 0.2874094220226482 2.7506732218902386 0.5801774238378385 4.125 0.875 C4.890703125000002 1.0374218750000068 5.656406250000003 1.1998437499999994 6.4453125 1.3671875 C9.357721233493095 2.088609846828561 12.16457354318186 3.021983338083018 15 4 C15.50418944798247 9.174730418812743 15.999160379038088 14.350067342838088 16.4765625 19.52734375 C16.761185866040506 22.591997172989167 17.079494784656177 25.63663196186515 17.4609375 28.69140625 C18.523069562121663 37.93195519045848 16.843340849321095 45.930763021340255 15 55 C6.75 55 -1.5 55 -10 55 C-10.989999999999995 53.02000000000001 -11.980000000000004 51.03999999999999 -13 49 C-14.636548213393255 47.62986661204286 -16.298035948422026 46.28797279578873 -18 45 C-18 44.34 -18 43.68000000000001 -18 43 C-2.0000000000000284 35 -2.0000000000000284 35 0.0546875 34.23828125 C3.45200547813387 32.07573145267382 3.5767837069123516 28.606886425189003 4.4609375 24.87109375 C6.12816634137468 15.991287964417438 4.18810409581414 7.939188633804207 0 0 Z " fill="#4F7B9B" transform="translate(90,73)"/>
<path d="M0 0 C16.83 0 33.66 0 51 0 C50.1886334797135 5.67956564200546 49.80541331088658 8.041532326755718 47.1875 12.6875 C46.68605468749999 13.5988671875 46.18460937500001 14.510234375 45.66796875 15.44921875 C43.93538569486512 18.098812977173473 42.45174698250216 19.99236402307747 40 22 C35.7267983637723 22.57251194446553 31.473082276701305 21.996432802917614 27.1875 21.625 C26.024121093749997 21.5618359375 24.8607421875 21.498671875 23.662109375 21.43359375 C16.296761367167704 20.855097435212944 11.859428268992659 19.676131285288577 7 14 C6.352890625000001 13.29875 5.705781250000001 12.5975 5.0390625 11.875 C4.572421875000003 11.25625 4.10578125 10.6375 3.625 10 C2.901835937500003 9.071874999999999 2.901835937500003 9.071874999999999 2.1640625 8.125 C1 6 1 6 0 0 Z " fill="#43575C" transform="translate(34,0)"/>
<path d="M0 0 C2.3100000000000023 0 4.6200000000000045 0 7 0 C7.170156250000005 1.2787500000000023 7.340312499999996 2.5575000000000045 7.515625 3.875 C7.759687522229342 5.583437655605337 8.004520359695931 7.291765389636595 8.25 9 C8.359570312499997 9.839179687500007 8.469140624999994 10.678359375 8.58203125 11.54296875 C9.50360758081429 17.799986996054926 10.971192217549827 24.031078770468255 15.6298828125 28.59765625 C17 30 17 30 17 32 C18.980000000000004 32.33 20.960000000000008 32.66 23 33 C23 40.59 23 48.18000000000001 23 56 C15.409999999999997 56 7.819999999999993 56 0 56 C-1.5652838623913112 52.86943227521736 -0.22811612586988872 49.909469779846546 0.5 46.625 C2.202392054242978 38.34120496581437 1.8626767477788775 31.113997411293454 0.45703125 22.78125 C-0.09887081532943398 18.181991886847044 -0.10823625521632607 13.688898123804847 -0.0625 9.0625 C-0.05573242187500682 7.750556640625007 -0.05573242187500682 7.750556640625007 -0.048828125 6.412109375 C-0.037148344399156485 4.274709525045239 -0.019216891472808584 2.137345373809211 0 0 Z " fill="#8B9A9F" transform="translate(105,72)"/>
<path d="M0 0 C11.22 0 22.44 0 34 0 C35.32 2.97 36.64 5.94 38 9 C38.99 9.99 39.98 10.98 41 12 C41 12.66 41 13.32 41 14 C41.598125 14.2475 42.19625 14.495 42.8125 14.75 C45.294820868397515 16.168469067655725 46.36328035455996 17.692647376628937 48 20 C45.374201797305915 23.23362186072513 43.044734462330744 24.913067790146552 39 26 C32.863678159323065 25.009346307242282 27.07634529993699 22.26164575152476 21.35546875 19.92138671875 C14.44333572526948 17.21757348954882 7.314556046764338 16.04493657810919 0 15 C0 10.05 0 5.1 0 0 Z " fill="#778486" transform="translate(0,0)"/>
<path d="M0 0 C14.189999999999998 0 28.379999999999995 0 43 0 C43 1.98 43 3.96 43 6 C42.105390625 6.17015625 41.21078125 6.3403125 40.2890625 6.515625 C27.618775934157725 9.055085420446002 15.428814354654662 12.287065721691567 7.33984375 23.25 C6.897695312500005 23.8275 6.455546874999996 24.405 6 25 C5.340000000000003 25 4.680000000000007 25 4 25 C3.6700000000000017 25.99 3.3400000000000034 26.98 3 28 C1.0440281633352129 29.39712274047485 -0.9543640123895614 30.737799071474413 -3 32 C-5.640000000000001 29.03 -8.280000000000001 26.06 -11 23 C-9.125516073011397 19.251032146022794 -7.009709077622617 16.158940693452653 -4.53515625 12.8046875 C-2.3176643112586106 8.984053021562204 -2.3176643112586106 8.984053021562204 0 0 Z " fill="#7F848D" transform="translate(85,0)"/>
<path d="M0 0 C10.647352826798063 0.6142703553921933 19.306688510129064 5.16628554991982 27.75390625 11.4375 C29.747823087170403 12.824572582379403 31.49766821882288 13.757581195870515 33.75 14.625 C37.703306227903155 16.29755263488211 39.962626908658095 17.962626908658095 43 21 C43.495000000000005 23.474999999999994 43.495000000000005 23.474999999999994 44 26 C33.11 26 22.22 26 11 26 C10.340000000000003 23.689999999999998 9.68 21.379999999999995 9 19 C8.23396041357578 16.71422889501926 8.23396041357578 16.71422889501926 7 15 C6.340000000000003 14.731875000000002 5.68 14.463750000000005 5 14.1875 C3 13 3 13 1.8125 9.75 C1.1095993212085062 6.505843020962331 0.4805864017454482 3.284007078593916 0 0 Z " fill="#6D838F" transform="translate(36,102)"/>
<path d="M0 0 C0 14.189999999999998 0 28.379999999999995 0 43 C-6 42 -6 42 -7.79296875 40.46875 C-14.738519414757562 30.663266708577567 -15.782967253354855 20.66919633547988 -17 9 C-15.209661934737653 7.6856882765047345 -13.417687971440671 6.37360469890713 -11.625 5.0625 C-10.627265625000007 4.331601562499998 -9.62953125 3.6007031249999955 -8.6015625 2.84765625 C-5.07916849561019 0.34601606369912474 -4.479823562393108 0 0 0 Z " fill="#C0BFB0" transform="translate(128,62)"/>
</svg>
