<?xml version="1.0" encoding="UTF-8"?>
<!-- Generator: visioncortex VTracer 0.6.0 -->
<svg version="1.1" xmlns="http://www.w3.org/2000/svg" width="128" height="128">
<path d="M0 0 C42.24 0 84.48 0 128 0 C128 42.24 128 84.48 128 128 C85.75999999999999 128 43.519999999999996 128 0 128 C0 85.75999999999999 0 43.519999999999996 0 0 Z " fill="#2C5280" transform="translate(0,0)"/>
<path d="M0 0 C42.24 0 84.48 0 128 0 C128 8.91 128 17.82 128 27 C120 25 120 25 116.53515625 23.4296875 C112.40118697924655 21.757828104314072 108.84130017586106 21.425324108117827 104.4375 21.125 C95.97232742914984 20.39019425995728 88.82406933692123 18.295669077609904 81 15 C80.01 16.65 79.02 18.3 78 20 C77.4547265625 19.7950390625 76.909453125 19.590078125 76.34765625 19.37890625 C67.78401761624104 16.31941825947757 61.05097320566129 14.675918770624985 52.4921875 18.58203125 C44.92659382667755 22.886593167580013 40.6745396141847 27.542756578038613 37.875 35.75390625 C36.603871015934445 39.01684895463256 34.63095507767374 40.72781152382722 32 43 C25.214315461945336 48.90086489520402 25.214315461945336 48.90086489520402 22 57 C22.43837111819097 62.3571529296573 23.908002897037342 66.22299466905866 26.3125 71 C29.169241220349832 77.1196351198316 29.169241220349832 77.1196351198316 28.57421875 80.21484375 C27.500000000000014 81.93749999999999 27.500000000000014 81.93749999999999 25 85 C23.257307984756665 90.22807604573 22.147957984012404 95.61436733032478 21 101 C22.485 101.495 22.485 101.495 24 102 C24 102.66 24 103.32 24 104 C24.86625 104.28875 25.7325 104.5775 26.625 104.875 C28.707009996373696 105.56900333212457 30.774836054829386 106.30993442193176 32.8125 107.125 C35.65716337301365 107.90588798474884 37.248426337575125 108.02958043040638 40.10546875 107.8984375 C46.04624007227242 107.83943318363406 51.25539851657221 109.5207972684598 56.89453125 111.22265625 C65.33262711296648 113.63945948407387 72.73021725936543 113.1597307613848 81.3125 111.875 C87.69645609342858 111.00618172234644 93.0106760691943 111.20817409642996 99.359375 112.53515625 C108.02860974463377 114.0612493485376 114.60200210570355 110.79872593273411 121.75 106.25 C124 105 124 105 128 105 C128 112.59 128 120.18 128 128 C85.75999999999999 128 43.519999999999996 128 0 128 C0 85.75999999999999 0 43.519999999999996 0 0 Z " fill="#94A184" transform="translate(0,0)"/>
<path d="M0 0 C42.24 0 84.48 0 128 0 C128 8.91 128 17.82 128 27 C120 25 120 25 116.53515625 23.4296875 C112.40118697924655 21.757828104314072 108.84130017586106 21.425324108117827 104.4375 21.125 C95.97232742914984 20.39019425995728 88.82406933692123 18.295669077609904 81 15 C80.01 16.65 79.02 18.3 78 20 C77.4547265625 19.7950390625 76.909453125 19.590078125 76.34765625 19.37890625 C67.7960352869836 16.323711752101833 61.105345882622906 14.734741183592455 52.5234375 18.484375 C49.64010331208148 20.2161608589975 47.55927284259887 22.245551517133816 45.1875 24.625 C39.63428432798037 29.984907531537935 34.456875572248684 30.452706380018444 27 31 C21.916705993720388 31.64549765159106 17.84473820083209 34.02474400890259 13.435546875 36.47265625 C8.56608512641256 39.044592952568834 5.932856309952989 39.25839296125588 0 40 C0 26.799999999999997 0 13.599999999999998 0 0 Z " fill="#74B4D0" transform="translate(0,0)"/>
<path d="M0 0 C0.9590625000000017 0.46277343750000455 1.9181250000000034 0.9255468749999949 2.90625 1.40234375 C3.7789453124999994 1.8419140624999955 4.651640624999999 2.281484375000005 5.55078125 2.734375 C8.548968305158013 3.742981705191397 10.071263079963245 3.3528016133102483 13.09375 2.58984375 C15.435404985166457 2.8585582564945184 17.77259289186273 3.180227789740485 20.09375 3.58984375 C20.753749999999997 5.239843750000006 21.413749999999993 6.889843749999997 22.09375 8.58984375 C22.753749999999997 8.58984375 23.413749999999993 8.58984375 24.09375 8.58984375 C25.20280726594291 9.733559055503633 26.309491014106086 10.879642318433199 27.40625 12.03515625 C29.489635858469526 13.954571925164046 31.74060662596544 15.451578097744715 34.09375 17.02734375 C39.229769920016295 20.56361976050303 43.01264839738448 23.53732157790914 45.15625 29.58984375 C45.06989970538373 33.73465789158068 43.78798381681288 35.48111242290821 41.09375 38.58984375 C36.49772656578985 41.40982273028233 32.33105039403375 42.18546160012771 27.03125 42.40234375 C25.872906494140622 42.453704833984375 25.872906494140622 42.453704833984375 24.691162109375 42.506103515625 C10.901609643314274 42.933633255127035 -3.4319934297550674 43.077897900543974 -14.90625 34.58984375 C-15.909140625 33.892460937500005 -16.91203125 33.19507812500001 -17.9453125 32.4765625 C-21.016512065323447 30.270328569079055 -23.970490973977 27.97260661599651 -26.90625 25.58984375 C-27.754453124999998 24.916953124999992 -28.602656250000003 24.2440625 -29.4765625 23.55078125 C-34.67166632597438 19.007328078154814 -34.67166632597438 19.007328078154814 -35.2734375 15.37109375 C-35.0837510047293 12.962899983954642 -34.6162044573278 10.89719573631534 -33.90625 8.58984375 C-33.596875 7.5147656249999955 -33.596875 7.5147656249999955 -33.28125 6.41796875 C-31.87867362709607 2.1783628955404026 -30.151904133443487 -1.257235091797753 -26.90625 -4.41015625 C-17.76024592772651 -8.983158286136742 -8.411475611754568 -4.0813745911873625 0 0 Z " fill="#15385A" transform="translate(68.90625,66.41015625)"/>
<path d="M0 0 C0.8017968749999937 0.33773437500000014 1.6035937500000017 0.6754687500000003 2.4296875 1.0234375 C9.992864031752347 3.990397908147745 16.83951685138335 5.706812557546979 24.98974609375 6.01513671875 C33.461174315590995 6.568605988765654 38.255490411914096 9.502196164765639 47 13 C47 28.840000000000003 47 44.68 47 61 C40.412912117035944 59.90215201950599 40.412912117035944 59.90215201950599 37.265625 58.00390625 C32.53450115069393 55.511175677637254 28.021683675998545 55.23080584250734 22.75 54.9375 C14.014789968652025 54.42179153605015 14.014789968652025 54.42179153605015 10.453125 52.94140625 C6.66976583995708 47.88675704962007 8.05924243313288 40.554600589910685 8.625 34.625 C9.242970518008647 26.388079921557264 8.851531672346567 19.30888095667735 3.5625 12.5625 C1.460859886634438 10.460859886634431 -0.5324315648015698 8.645045623465624 -3 7 C-2.3872238832228874 4.038248768910599 -1.7462747819592437 2.619412172938869 0 0 Z " fill="#68ACB9" transform="translate(81,14)"/>
<path d="M0 0 C0.8545275878906295 0.48086059570312045 0.8545275878906295 0.48086059570312045 1.726318359375 0.971435546875 C4.109077484573959 2.04934429748846 5.784091240117718 2.3128904097358003 8.37890625 2.45703125 C9.213010253906248 2.5151196289062483 10.047114257812495 2.5732080078124966 10.906494140625 2.633056640625 C11.782976074218752 2.692272949218747 12.659458007812503 2.7514892578124943 13.5625 2.8125 C21.61980569260197 3.467323781875578 27.88926813337794 5.006301280390346 35 9 C35.989999999999995 9.329999999999998 36.980000000000004 9.659999999999997 38 10 C38 19.900000000000006 38 29.799999999999997 38 40 C35.36 40.99000000000001 32.72 41.97999999999999 30 43 C28.989374999999995 43.68062499999999 27.978750000000005 44.36125 26.9375 45.0625 C19.19272220045852 50.17075769756991 11.44318219670187 49.021347599477195 2.68359375 47.6328125 C-3.0010285613663257 46.774361248559785 -7.954178487825146 47.452122413714136 -13.59375 48.52734375 C-22.411988804144045 49.75097551066678 -29.45727061856055 48.32366221136428 -37.89453125 45.77734375 C-42.76715079571609 44.381748953763804 -46.938446063007945 43.86910045117331 -52 44.01953125 C-57.47456517106276 43.966068699501335 -62.46665731669684 40.811769655866385 -67.1875 38.3125 C-69.30280087436883 35.613667849943226 -69.22813679057145 34.98510973917604 -68.9375 31.6875 C-67.70144228041053 24.69461790121143 -65.69490899624955 19.0350180272076 -62 13 C-61.34 13 -60.68 13 -60 13 C-58.51953125 14.50390625 -58.51953125 14.50390625 -56.8125 16.5625 C-55.86310546875 17.66658203125 -55.86310546875 17.66658203125 -54.89453125 18.79296875 C-53.76618386190477 20.107435294894444 -52.63837771679887 21.42236723366011 -51.51171875 22.73828125 C-42.170406398814634 32.85200185761413 -28.963185530790113 41.10190184274197 -15.25 42.25 C-14.332751464843753 42.33080810546875 -13.415502929687506 42.411616210937495 -12.470458984375 42.494873046875 C-6.3131164733616885 42.97284027375731 -0.23128520074214975 43.104773680370585 5.9375 42.8125 C6.663564453125005 42.782529296875 7.389628906249996 42.752558593749995 8.1376953125 42.7216796875 C13.75810622569729 42.34381473188776 18.146368313161403 41.02740965747972 22 36.8125 C23.160811569381224 33.54771746111531 23.004152656207964 31.287277974296046 21.98046875 27.98046875 C19.067797805579957 22.097105527605734 12.324554530243418 18.786389507239534 6.91796875 15.4921875 C4.797578444152123 13.842515205022622 3.999877535927723 12.465306517155142 3 10 C2.3400000000000034 10 1.6800000000000068 10 1 10 C-1.566873668079353 6.149689497880971 -0.832887239376447 4.414302368695189 0 0 Z " fill="#53686C" transform="translate(90,65)"/>
<path d="M0 0 C0 7.590000000000003 0 15.180000000000007 0 23 C-30.36 23 -60.72 23 -92 23 C-92 16.259320448881155 -91.84284442340507 10.532044281389233 -91 4 C-84.4514856393466 2.7473059585004336 -79.88031639080782 3.484534965553351 -73.5625 5.4375 C-64.13266241866629 8.320751231275594 -56.36468522304574 8.323632947129624 -46.6875 6.875 C-40.303543906571406 6.00618172234644 -34.989323930805725 6.208174096429957 -28.640625 7.53515625 C-19.97139025536623 9.0612493485376 -13.397997894296452 5.798725932734101 -6.25 1.25 C-4 0 -4 0 0 0 Z " fill="#62948B" transform="translate(128,105)"/>
<path d="M0 0 C6.3929507267058625 4.569820313086179 9.902852053653277 9.074405839651337 11.65625 16.90625 C12.662067480107481 23.03259283338192 11.832912020761839 29.1176273485139 11.21875 35.2421875 C11.01054887634777 37.86700880890135 10.966153118339548 40.430904950899844 11 43.0625 C11 47 11 47 10 49 C5.080240263530385 49.28939763155704 1.78623823987418 49.353525298174276 -2 46 C-4.072043969561207 40.86922445632461 -4.903069381668445 35.499393853965216 -3.5 30.0625 C-2.186630695147173 24.64485161748209 -2.557949641368026 19.006203235195535 -5 14 C-12.056449294265406 11.43120486217532 -20.030821099567653 12.977087894387779 -27 15 C-29.060685562863988 15.527966497152079 -31.12332468533578 16.048346441768615 -33.1875 16.5625 C-34.1710546875 16.811289062499995 -35.154609375 17.060078125000004 -36.16796875 17.31640625 C-38.7694271662829 17.944344488413115 -41.37213611561084 18.495565433526764 -44 19 C-39.72214830201684 7.99501680832568 -34.948206328639216 0.4695948342813807 -24 -4.5625 C-15.021970166788066 -7.666016485554742 -7.817927733879515 -4.819978586342252 0 0 Z " fill="#387799" transform="translate(79,21)"/>
<path d="M0 0 C7.3469387755102105 -0.48979591836734926 7.3469387755102105 -0.48979591836734926 10.5 1.875 C12 4 12 4 12 6 C12.659999999999997 6 13.319999999999993 6 14 6 C15.109057265942909 7.143715305503633 16.215741014106086 8.289798568433199 17.3125 9.4453125 C19.39588585846954 11.36472817516406 21.646856625965412 12.8617343477447 24 14.4375 C29.136019920016295 17.97377601050303 32.918898397384496 20.947477827909154 35.0625 27 C34.97614970538373 31.14481414158068 33.69423381681288 32.89126867290821 31 36 C26.403976565789847 38.81997898028234 22.237300394033753 39.59561785012771 16.9375 39.8125 C15.779156494140622 39.863861083984375 15.779156494140622 39.863861083984375 14.597412109375 39.916259765625 C0.8281406302927792 40.34316071567929 -13.553339139512843 40.50476204120308 -25 32 C-26.10671825936135 31.201750021439366 -27.213492387754144 30.4035774976052 -28.3203125 29.60546875 C-31.25721964461639 27.458601866156982 -34.13878088494839 25.247030718626917 -37 23 C-35 22 -35 22 -32.27734375 22.890625 C-31.1751953125 23.33921875 -30.073046875000003 23.7878125 -28.9375 24.25 C-27.767031250000002 24.711484374999998 -26.596562500000005 25.172968749999995 -25.390625 25.6484375 C-23.399734585634803 26.44204128268474 -21.40973377819384 27.237895174243093 -19.421875 28.0390625 C-12.819710983266276 30.509102883882903 -8.200122642116114 30.33823310488492 -1.5625 27.5625 C1.0944872197417084 26.253388724810392 1.0944872197417084 26.253388724810392 2 24 C2.6599999999999966 24 3.319999999999993 24 4 24 C3.097846837926369 18.916101592549737 2.094553490277235 14.043187033140711 0.3125 9.1875 C-0.8993306507837815 5.770137564789735 -1.2520529214571496 3.528512778651958 0 0 Z " fill="#214A59" transform="translate(79,69)"/>
<path d="M0 0 C0.7631250000000023 0.020624999999999005 1.5262499999999974 0.04125000000000156 2.3125 0.0625 C0.6947533997835009 6.0994568251981605 -0.8543831249902567 9.873798708324891 -5.6875 14.0625 C-12.473008078726398 19.963429895479464 -12.473008078726398 19.963429895479464 -15.6875 28.0625 C-15.249128881809032 33.419652929657296 -13.779497102962655 37.285494669058664 -11.375 42.0625 C-8.501000641632803 48.13734570258791 -8.501000641632803 48.13734570258791 -9.18359375 51.5234375 C-10.312500000000004 53.4375 -10.312500000000004 53.4375 -12.6875 56.0625 C-13.3475 56.0625 -14.0075 56.0625 -14.6875 56.0625 C-19.6875 50.58630952380952 -19.6875 50.58630952380952 -19.6875 48.0625 C-20.3475 48.0625 -21.0075 48.0625 -21.6875 48.0625 C-21.6875 47.4025 -21.6875 46.74250000000001 -21.6875 46.0625 C-22.471249999999998 45.77375000000001 -23.255000000000003 45.485 -24.0625 45.1875 C-26.687499999999996 44.0625 -26.687499999999996 44.0625 -28.6875 42.0625 C-31.6575 41.07249999999999 -34.6275 40.08250000000001 -37.6875 39.0625 C-37.6875 29.822499999999998 -37.6875 20.582499999999996 -37.6875 11.0625 C-32.2425 9.5775 -32.2425 9.5775 -26.6875 8.0625 C-23.415813940580687 6.369593372701409 -23.415813940580687 6.369593372701409 -20.6875 4.4375 C-13.722524484416333 0.14092419493215402 -7.945104148903539 0.13466278218480454 0 0 Z " fill="#7F8AA4" transform="translate(37.6875,28.9375)"/>
<path d="M0 0 C18.150000000000006 0 36.30000000000001 0 55 0 C55 8.91 55 17.82 55 27 C47 25 47 25 43.53125 23.42578125 C39.40664018346381 21.760424410358727 35.89088480077584 21.466976401746695 31.5 21.1875 C22.700573089436503 20.426424035250815 14.767206283039258 18.342122431343423 7 14 C6.670000000000002 13.01 6.340000000000003 12.02 6 11 C5.340000000000003 11 4.680000000000007 11 4 11 C0 4.500000000000001 0 4.500000000000001 0 0 Z " fill="#86D4E2" transform="translate(73,0)"/>
<path d="M0 0 C10.23 0 20.46 0 31 0 C31 5.80020371909494 30.56266504872935 10.024031625076812 29.25 15.5 C29.0141015625 16.58087890625 29.0141015625 16.58087890625 28.7734375 17.68359375 C27.437037992599944 23.368431654555632 25.67356875166471 28.858077806983722 20.95703125 32.63671875 C20.2493359375 32.9834765625 19.541640625 33.330234375 18.8125 33.6875 C18.0300390625 34.076796875 17.247578125 34.46609375 16.44140625 34.8671875 C15.6357421875 35.241015625 14.830078125 35.61484375 14 36 C12.80697265625 36.5916796875 12.80697265625 36.5916796875 11.58984375 37.1953125 C7.197727676708117 39.2923829456786 5.085258894736499 40 0 40 C0 26.799999999999997 0 13.599999999999998 0 0 Z " fill="#CAE0D6" transform="translate(0,0)"/>
<path d="M0 0 C1.0725000000000051 -0.02578125000000142 2.144999999999996 -0.05156250000000284 3.25 -0.078125 C7 0.25 7 0.25 17 3.25 C17 12.82 17 22.39 17 32.25 C10.412912117035944 31.15215201950599 10.412912117035944 31.15215201950599 7.265625 29.25390625 C2.5345011506939272 26.761175677637254 -1.9783163240014687 26.480805842507337 -7.25 26.1875 C-16.21598396323985 25.658167127534668 -16.21598396323985 25.658167127534668 -19.55859375 23.91796875 C-22.477120540454152 20.540703331235974 -22.11635563907862 15.958312337381514 -21.828125 11.7265625 C-21.59561582553451 9.558756373365803 -21.32436644930729 7.4057893246269515 -21 5.25 C-20.084765625000003 4.972851562499997 -19.169531250000006 4.695703125000001 -18.2265625 4.41015625 C-17.038046875000006 4.047929687500002 -15.849531249999998 3.6857031250000034 -14.625 3.3125 C-13.441640625000005 2.952851562500001 -12.258281249999996 2.5932031250000023 -11.0390625 2.22265625 C-4.283783248107184 0.06061957426566522 -4.283783248107184 0.06061957426566522 0 0 Z " fill="#6C9292" transform="translate(111,42.75)"/>
<path d="M0 0 C0.6600000000000001 0 1.3200000000000003 0 2 0 C3.480468750000007 1.50390625 3.480468750000007 1.50390625 5.1875 3.5625 C5.820429687500003 4.298554687500001 6.453359374999998 5.034609375000002 7.10546875 5.79296875 C8.233816138095229 7.107435294894444 9.361622283201129 8.422367233660111 10.48828125 9.73828125 C16.301434880927268 16.032109082967764 23.733778917932433 20.555355960982993 31 25 C31.921679687500003 25.57234375 32.843359375 26.144687500000003 33.79296875 26.734375 C39.21325114985659 28.87343894342696 44.88178490541972 28.830146077844503 50.65234375 29.171875 C51.566289062500005 29.23890625 52.48023437500001 29.3059375 53.421875 29.375 C54.25299804687501 29.423984375000003 55.08412109375 29.472968750000007 55.9404296875 29.5234375 C58 30 58 30 60 33 C56.66666666666666 33.66666666666666 53.33333333333333 34.33333333333334 50 35 C49.2510546875 35.186914062499994 48.502109375 35.373828125 47.73046875 35.56640625 C39.249790991161504 36.91312331900011 32.20201379189372 35.220836136215894 24.10546875 32.77734375 C19.23284920428391 31.381748953763804 15.061553936992055 30.86910045117331 10 31.01953125 C4.52543482893725 30.966068699501335 -0.4666573166968462 27.811769655866385 -5.1875 25.3125 C-7.302800874368835 22.613667849943212 -7.2281367905714475 21.98510973917604 -6.9375 18.6875 C-5.701442280410529 11.694617901211416 -3.6949089962495556 6.035018027207613 0 0 Z " fill="#476F75" transform="translate(28,78)"/>
<path d="M0 0 C2.240600275480375 0.6848110971727692 4.486359389296808 1.3502388847667817 6.733154296875 2.014404296875 C8.176863947558616 2.451399794834586 9.62023590819966 2.8895128165424637 11.063232421875 3.328857421875 C11.725865936279291 3.5238130187988332 12.388499450683597 3.7187686157226523 13.071212768554688 3.9196319580078125 C17.442528146916317 5.281742603991631 21.019042321461285 6.939678831891996 24.551513671875 9.871826171875 C25.046513671875005 12.346826171874994 25.046513671875005 12.346826171874994 25.551513671875 14.871826171875 C7.731513671875007 14.871826171875 -10.088486328125 14.871826171875 -28.448486328125 14.871826171875 C-28.448486328125 8.13114662075617 -28.29133075153006 2.4038704532642328 -27.448486328125 -4.128173828125 C-18.343886200615174 -6.74654771540969 -8.723161578639036 -2.6755633611376055 0 0 Z " fill="#6DB4AA" transform="translate(64.448486328125,113.128173828125)"/>
<path d="M0 0 C6.228905581336319 1.1918870912706723 10.86007057789411 3.1749362440142193 16 7 C16 7.659999999999997 16 8.319999999999993 16 9 C16.66 9 17.32 9 18 9 C20.879477670408775 11.245016488793283 22.664070561526806 13.603900987910635 24 17 C23.63007271298151 21.866367409510843 22.449669021479327 26.350611066246472 21 31 C19.83984375 30.982597656249993 19.83984375 30.982597656249993 18.65625 30.96484375 C13.827451896602462 30.923010103064627 9.101013099258942 30.882164805569772 4.3125 31.5625 C2.6728125 31.77906250000001 2.6728125 31.77906250000001 1 32 C0.00000000000000011102230246251565 31 0.00000000000000011102230246251565 31 -0.113525390625 28.040771484375 C-0.10828857421875 26.747277832031244 -0.1030517578125 25.453784179687503 -0.09765625 24.12109375 C-0.09624130249023438 23.434431304931636 -0.09482635498046875 22.747768859863285 -0.0933685302734375 22.040298461914063 C-0.08775479164202268 19.839321989525402 -0.0752000689523101 17.638445911829592 -0.0625 15.4375 C-0.05748676489456478 13.94856917368574 -0.05292355253244326 12.45963675869507 -0.048828125 10.970703125 C-0.03778092877111205 7.3137692524033895 -0.0205071294141307 3.656894415987523 0 0 Z " fill="#97A0A4" transform="translate(0,68)"/>
<path d="M0 0 C0 0.990000000000002 0 1.9799999999999969 0 3 C-2.4492187499999982 5.0078125 -2.4492187499999982 5.0078125 -5.6875 7.125 C-7.271113281249999 8.180742187500002 -7.271113281249999 8.180742187500002 -8.88671875 9.2578125 C-11.73408402626949 10.851193821475775 -13.794404661855204 11.60747812185982 -17 12 C-17 10.019999999999996 -17 8.04 -17 6 C-15.9133203125 5.72736328125 -15.9133203125 5.72736328125 -14.8046875 5.44921875 C-9.532009428744981 4.078322451473696 -4.7451629528200705 2.693200594843823 0 0 Z " fill="#97A0A4" transform="translate(17,34)"/>
</svg>
