<?xml version="1.0" encoding="UTF-8"?>
<!-- Generator: visioncortex VTracer 0.6.0 -->
<svg version="1.1" xmlns="http://www.w3.org/2000/svg" width="128" height="128">
<path d="M0 0 C42.24 0 84.48 0 128 0 C128 42.24 128 84.48 128 128 C85.75999999999999 128 43.519999999999996 128 0 128 C0 85.75999999999999 0 43.519999999999996 0 0 Z " fill="#5B7890" transform="translate(0,0)"/>
<path d="M0 0 C42.24 0 84.48 0 128 0 C128 19.470000000000002 128 38.940000000000005 128 59 C111 57 111 57 106 54 C102.36236411927156 48.26537402332224 101.68193557377144 42.044150163949496 101.26171875 35.4140625 C100.78252392732162 30.994026672906834 98.84235461946353 28.818955880033993 95.75 25.8125 C89.39953928829837 21.626969076378472 82.3947755250603 21.209489490555125 75 22 C66.54910392386672 24.019026673410952 59.325122114239264 28.4768945111216 52 33 C51.1840234375 33.476953125 50.368046875 33.95390625 49.52734375 34.4453125 C46.557377767074364 36.272277664149 43.751237328289605 38.25288696197259 40.9375 40.3125 C39.9152734375 41.0511328125 38.893046875 41.789765625 37.83984375 42.55078125 C34.310173612713626 45.59493967651796 31.927853739949292 48.82834232417041 30.09375 53.12109375 C28.465976039852986 55.9173768743954 26.15176631008167 57.25162274351002 23.5 59.0625 C20.242078378888937 61.295891006051136 18.203827690542656 62.69425846418602 16 66 C16.5775 67.051875 17.155 68.10375 17.75 69.1875 C21.347601357089314 76.39555129045395 24.786243643470204 84.84272219899663 24 93 C22.828125000000007 95.59765624999999 22.828125000000007 95.59765624999999 21.25 98.0625 C20.7034375 98.9171484375 20.156875 99.771796875 19.59375 100.65234375 C17.84348249264359 103.23055642627746 16.12920300373223 105.71871106742975 14 108 C13.34 108 12.68 108 12 108 C11.67 108.99 11.34 109.98 11 111 C9.511718750000021 112.57031249999997 9.511718750000021 112.57031249999997 7.6875 114.125 C7.0932421875 114.643203125 6.498984375 115.16140625 5.88671875 115.6953125 C4.000000000000005 117 4.000000000000005 117 0 118 C0 79.06 0 40.11999999999999 0 0 Z " fill="#787F77" transform="translate(0,0)"/>
<path d="M0 0 C3.306472921461065 2.547724398431047 5.654499418797187 4.9634982563915635 7 9 C7.120909066790645 11.080760684304082 7.1753823523426234 13.16576460293156 7.1875 15.25 C7.201679687500004 16.34828125 7.215859374999994 17.4465625 7.23046875 18.578125 C7 21.999999999999986 7 21.999999999999986 6.01171875 25.2734375 C4.502260176562601 30.833373712584105 4.642433058407832 36.35036436624013 4.609375 42.0859375 C4.386370281094116 50.60967342262481 2.142362194581878 57.59861653802713 -4.0625 63.6875 C-8.157955155032596 67.57275795336702 -12.472710707774112 70.22029879084957 -17.51953125 72.7109375 C-20.026072558768377 73.91536407820908 -20.026072558768377 73.91536407820908 -22.08203125 75.640625 C-25.162413293578084 77.8238692997254 -28.411651148340027 77.5036279090049 -32 77 C-36.66416917743973 75.21372244268265 -40.59294437559538 72.28559719921194 -44.69140625 69.47265625 C-47.406242445131795 67.74085718813082 -50.19278742489102 66.450701917025 -53.17578125 65.25 C-57.197540852302254 62.49419042240531 -58.8005471040727 58.75699689844224 -60.01171875 54.16015625 C-60.251399339649545 52.79672732199357 -60.47651550134456 51.430663282692024 -60.6875 50.0625 C-60.80416015625 49.38509765625 -60.9208203125 48.70769531249999 -61.041015625 48.009765625 C-61.59916672570341 44.7207735457138 -62.07488236299015 41.43295187720432 -62.51171875 38.125 C-62.8080197711531 35.07591777696767 -62.8080197711531 35.07591777696767 -64.125 32.9375 C-65.50394656514587 29.88411832003414 -64.9954601100749 28.173029100863772 -64 25 C-57.07564764538989 13.767749043094291 -43.35612112765082 7.7675795366785145 -32 2 C-31.144062499999997 1.5526953124999991 -30.288125000000008 1.1053906249999983 -29.40625 0.64453125 C-20.17081557035462 -4.12825855785778 -9.447679976308763 -4.953152608938577 0 0 Z " fill="#304C51" transform="translate(95,24)"/>
<path d="M0 0 C42.24 0 84.48 0 128 0 C128 7.590000000000001 128 15.180000000000001 128 23 C119.00481347773767 23 119.00481347773767 23 114.3125 21.609375 C113.29309326171875 21.3136962890625 112.2736865234375 21.018017578125 111.223388671875 20.71337890625 C110.15967041015625 20.3954638671875 109.0959521484375 20.077548828125 108 19.75 C105.74629018589873 19.10608291025678 103.49238429914051 18.462851672732075 101.23828125 17.8203125 C97.74380217545169 16.809697702863318 94.26168129115578 15.775070407733407 90.79296875 14.6796875 C77.8198454960034 10.884732701972823 64.42627502477772 11.164149230910015 51 11 C50.8182421875 11.904921875 50.8182421875 11.904921875 50.6328125 12.828125 C50.465234375 13.62734375 50.29765625 14.4265625 50.125 15.25 C49.962578125 16.03890625 49.80015625 16.8278125 49.6328125 17.640625 C47.83718967412602 24.33541627671532 43.792942943623345 26.65602614459773 38 30 C33.40037461733626 32.06513792691025 28.986431813010746 32.682666260114566 24 32 C20.500000000000014 30.500000000000007 20.500000000000014 30.500000000000007 18 29 C18 28.34 18 27.68 18 27 C17.34 27 16.68 27 16 27 C16 26.01 16 25.02 16 24 C15.34 24 14.68 24 14 24 C13.67 25.32 13.34 26.64 13 28 C12.34 28 11.68 28 11 28 C10.814375 28.7425 10.62875 29.485 10.4375 30.25 C8.361901755897597 34.220709684369815 6.03673479299525 35.12580170325221 2 37 C1.3399999999999999 36.67 0.6799999999999999 36.34 0 36 C0 24.119999999999997 0 12.239999999999998 0 0 Z " fill="#BBC0A5" transform="translate(0,0)"/>
<path d="M0 0 C0 14.519999999999996 0 29.040000000000006 0 44 C-15.840000000000003 44 -31.680000000000007 44 -48 44 C-46.71367715481831 29.85044870300146 -43.59700389573052 22.356676729080647 -32.9375 13.4375 C-27.325953788717968 9.688024427676112 -21.075618194016442 6.90692843296479 -15 4 C-14.110546874999997 3.5591406249999977 -13.221093749999994 3.1182812499999955 -12.3046875 2.6640625 C-11.544140624999997 2.300546874999995 -10.783593749999994 1.937031250000004 -10 1.5625 C-9.360624999999999 1.254414062500004 -8.721249999999998 0.9463281249999937 -8.0625 0.62890625 C-6 0 -6 0 0 0 Z " fill="#7693B0" transform="translate(128,84)"/>
<path d="M0 0 C29.209186230252712 -0.8004203646570094 29.209186230252712 -0.8004203646570094 41.73193359375 3.2802734375 C45.66491970945084 4.528329742030255 49.64192927563326 5.621787258943623 53.614501953125 6.736083984375 C55.82025443097288 7.355959761844765 58.02339646102229 7.9852251993324685 60.223388671875 8.625244140625 C61.24279541015625 8.917780761718753 62.262202148437495 9.210317382812498 63.3125 9.51171875 C64.2161328125 9.77428466796875 65.119765625 10.0368505859375 66.05078125 10.307373046875 C69.64605558589273 11.151726796123977 73.33542620492919 11.54192827561615 77 12 C77 23.880000000000003 77 35.760000000000005 77 48 C60 46 60 46 55 43 C51.36236411927156 37.265374023322224 50.681935573771455 31.04415016394949 50.26171875 24.4140625 C49.78252392732162 19.99402667290682 47.84235461946355 17.818955880033997 44.75 14.8125 C38.39953928829837 10.626969076378476 31.394775525060297 10.209489490555121 24 11 C16.41816662230113 12.811396529435925 10.056304202001058 16.54301639740722 3.53125 20.70703125 C2.6959374999999994 21.1337109375 1.8606249999999989 21.560390624999997 1 22 C0.00999999999999801 21.67 -0.9799999999999969 21.340000000000003 -2 21 C-3.88939075831599 15.114803110921144 -4.368508849966567 10.979630067568639 -2.046875 5.14453125 C-1.6688574218750034 4.174914550781249 -1.2908398437499997 3.2052978515625004 -0.9013671875 2.206298828125 C-0.455190429687498 1.1141809082031244 -0.455190429687498 1.1141809082031244 0 0 Z " fill="#78909A" transform="translate(51,11)"/>
<path d="M0 0 C3.23300085693387 1.4759351738176392 5.721607873989029 3.265929448786842 8 6 C10.785266140420873 14.355798421262605 8.600832691241052 25.088869508291538 5 33 C0.8436110064324112 39.21813796955219 -5.075970327877485 44.18625089021316 -12 47 C-14.44921875 47.14453125 -14.44921875 47.14453125 -16.6875 46.8125 C-17.4338671875 46.7158203125 -18.180234374999998 46.619140625 -18.94921875 46.51953125 C-21.000000000000014 46 -21.000000000000014 46 -24 44 C-24 43.34 -24 42.68000000000001 -24 42 C-24.990000000000002 41.67 -25.980000000000004 41.34 -27 41 C-28.334472656250007 39.572998046874986 -28.334472656250007 39.572998046874986 -29.6640625 37.76171875 C-30.387226562500004 36.778486328125 -30.387226562500004 36.778486328125 -31.125 35.775390625 C-31.619999999999997 35.08638671874999 -32.115 34.3973828125 -32.625 33.6875 C-33.127734375 33.01009765625 -33.63046875 32.3326953125 -34.1484375 31.634765625 C-36.48567385792402 28.421065632854464 -38.21961135044091 25.95146581900181 -39 22 C-38.3825390625 21.5758984375 -37.765078125 21.151796875000002 -37.12890625 20.71484375 C-30.0994949182194 15.846682173196086 -23.26064139032897 10.7973322050252 -16.75 5.25 C-11.1182087119427 0.6421707643167593 -7.286787065525999 -0.9936527816626359 0 0 Z " fill="#141D2A" transform="translate(84,30)"/>
<path d="M0 0 C26.069999999999993 0 52.14 0 79 0 C79 7.590000000000001 79 15.180000000000001 79 23 C70.00481347773766 23 70.00481347773766 23 65.3125 21.609375 C64.29309326171875 21.3136962890625 63.273686523437505 21.018017578125 62.223388671875 20.71337890625 C61.15967041015625 20.3954638671875 60.095952148437505 20.077548828125 59 19.75 C56.74629018589873 19.10608291025678 54.49238429914051 18.462851672732075 52.23828125 17.8203125 C48.74380217545172 16.809697702863325 45.26168129115578 15.775070407733406 41.79296875 14.6796875 C28.819845496003367 10.884732701972816 15.426275024777752 11.164149230910015 2 11 C0 3.374999999999999 0 3.374999999999999 0 0 Z " fill="#98C7DD" transform="translate(49,0)"/>
<path d="M0 0 C3.839238757282004 1.5641343085222985 6.0993623190194235 4.09936231901942 9 7 C9.928125000000001 7.556875000000005 10.856250000000003 8.113749999999996 11.8125 8.6875 C12.534374999999997 9.120625000000004 13.256250000000001 9.553750000000008 14 10 C14 10.659999999999997 14 11.319999999999993 14 12 C14.701250000000002 12.185625000000002 15.402500000000003 12.371250000000003 16.125 12.5625 C21.30648565601235 15.15324282800617 24.14576572230324 19.433903824222597 26.875 24.4375 C28 28 28 28 28 36 C10.840000000000003 36 -6.32 36 -24 36 C-24 32.7 -24 29.400000000000006 -24 26 C-19.61904761904762 22 -19.61904761904762 22 -16 22 C-15.67 21.010000000000005 -15.34 20.019999999999996 -15 19 C-13.562500000000007 17.3125 -13.562500000000007 17.3125 -12 16 C-11.34 16 -10.68 16 -10 16 C-9.731875 15.434101562500004 -9.46375 14.868203125000008 -9.1875 14.28515625 C-7.936322288161254 11.87746229794189 -6.520501337259844 9.684040725801424 -5 7.4375 C-4.484375 6.673085937500005 -3.96875 5.908671874999996 -3.4375 5.12109375 C-2.9631250000000016 4.421132812500005 -2.4887499999999996 3.721171874999996 -2 3 C-1.3399999999999999 2.010000000000005 -0.6799999999999997 1.019999999999996 0 0 Z " fill="#738674" transform="translate(24,92)"/>
<path d="M0 0 C11.000000000000002 0 11.000000000000002 0 16 2 C20.733964830649068 9.603034424981843 24.871902010995797 19.95401663591859 24 29 C22.828125000000007 31.597656249999986 22.828125000000007 31.597656249999986 21.25 34.0625 C20.7034375 34.9171484375 20.156875 35.77179687500001 19.59375 36.65234375 C17.843482492643584 39.230556426277474 16.129203003732247 41.71871106742974 14 44 C13.34 44 12.68 44 12 44 C11.67 44.99000000000001 11.34 45.97999999999999 11 47 C9.511718750000012 48.570312499999986 9.511718750000012 48.570312499999986 7.6875 50.125 C7.0932421875 50.643203125 6.498984375 51.16140625 5.88671875 51.6953125 C4.000000000000002 53 4.000000000000002 53 0 54 C0 36.18000000000001 0 18.36 0 0 Z " fill="#99B9B6" transform="translate(0,64)"/>
<path d="M0 0 C4.1404068333784 3.3876055909459666 4.829344098055159 7.680802789727949 5.4921875 12.8046875 C5.554304199218748 13.466621093750007 5.616420898437497 14.1285546875 5.680419921875 14.810546875 C6.235007512766046 24.750655511865915 6.235007512766046 24.750655511865915 11 33 C14.04939082632643 34.94512325995308 17.238196057132967 36.60082762554674 20.516357421875 38.125 C24.77393328992102 40.12681133723309 27.287202652749798 41.99308759168912 30 46 C29.401874999999997 47.07249999999999 28.80375 48.14500000000001 28.1875 49.25 C25.497035752536405 54.57348085975002 24.275130117140336 60.203954012998466 23 66 C21.873854073278885 64.31078110991832 20.762153837864815 62.610992572170474 19.703125 60.87890625 C16.59127438143088 55.918348677926105 14.010412359375145 52.98238830915187 9 50 C9 49.34 9 48.68000000000001 9 48 C8.463750000000005 47.938125 7.927499999999995 47.87625 7.375 47.8125 C3.8297384336551517 46.599647358882024 1.7407607954346602 44.55389074120049 -1 42 C-1 41.34 -1 40.68000000000001 -1 40 C-1.9126562500000013 39.769902343750005 -1.9126562500000013 39.769902343750005 -2.84375 39.53515625 C-6.322534696233269 37.05841279779045 -6.556612670304531 33.45624159450162 -7.5 29.4375 C-9.148183331376906 22.946371421413005 -10.992050303876773 17.015899392246453 -14 11 C-13.34 11 -12.68 11 -12 11 C-11.670000000000002 10.010000000000005 -11.34 9.019999999999996 -11 8 C-8.496093750000004 5.95703125 -8.496093750000004 5.95703125 -5.4375 3.8125 C-3.9196289062500007 2.7393554687499986 -3.9196289062500007 2.7393554687499986 -2.37109375 1.64453125 C-1.588632812500002 1.1018359374999989 -0.8061718750000004 0.5591406249999977 0 0 Z " fill="#557682" transform="translate(29,54)"/>
<path d="M0 0 C3.94111294798698 3.7299818972019665 6.888852854450242 7.9200876524214365 10 12.34375 C11.922201177570535 15.031627434569955 11.922201177570535 15.031627434569955 14.25 17.21875 C16 19 16 19 16 21 C20.771245676602433 22.817617400610445 24.98374269345865 24.35103191855498 29.875 22.16015625 C35.39186846761483 18.959941533434375 39.673579530805554 14.63709427948234 44 10 C44.495000000000005 10.990000000000002 44.495000000000005 10.990000000000002 45 12 C43.785156249999986 14.820312500000028 43.785156249999986 14.820312500000028 42.0625 18.125 C41.49660156249999 19.220703125 40.93070312500001 20.31640625 40.34765625 21.4453125 C39.902929687500006 22.288359375 39.458203125 23.131406249999998 39 24 C38.34 24 37.68000000000001 24 37 24 C37 24.659999999999997 37 25.319999999999993 37 26 C35.02343750000003 27.87499999999997 35.02343750000003 27.87499999999997 32.375 30 C31.516484375000005 30.70125 30.65796875000001 31.402500000000003 29.7734375 32.125 C20.540260882210674 38.36714757258997 9.664486435242921 35.44522388841189 -0.66015625 33.59765625 C-3.0860916215764007 32.978009986475485 -4.91771684519108 32.398751075730345 -7 31 C-10.252283030505012 24.69634717639569 -11.547425422154518 16.013242672507857 -11 9 C-8.6875 5.75 -8.6875 5.75 -6 4 C-5.340000000000003 4 -4.68 4 -4 4 C-4 3.3400000000000034 -4 2.6799999999999997 -4 2 C-2.6799999999999997 1.3400000000000034 -1.3599999999999994 0.6799999999999997 0 0 Z " fill="#293C57" transform="translate(44,53)"/>
<path d="M0 0 C0.6599999999999966 0 1.3199999999999932 0 2 0 C2.842344652381101 23.000688702517337 2.842344652381101 23.000688702517337 -6.0625 32.6875 C-10.15795515503261 36.57275795336702 -14.472710707774098 39.22029879084957 -19.51953125 41.7109375 C-22.026072558768362 42.91536407820911 -22.026072558768362 42.91536407820911 -24.08203125 44.640625 C-27.162413293578084 46.8238692997254 -30.411651148340013 46.503627909004905 -34 46 C-38.6611373268785 44.21488357694014 -42.585852181491575 41.28856576395248 -46.68359375 38.48046875 C-49.46599430410274 36.70217227444361 -52.33527621884494 35.34261008897488 -55.37109375 34.0546875 C-57.460366685039666 32.70192085141316 -58.06415507537906 31.266719867674837 -59 29 C-58.1401953125 29.204960937500005 -57.280390625 29.409921874999995 -56.39453125 29.62109375 C-40.36873553322948 33.82612238845243 -40.36873553322948 33.82612238845243 -25 30 C-23.65368175356798 29.017551549900958 -22.31558702896055 28.023234355858193 -21 27 C-20.340000000000003 27 -19.680000000000007 27 -19 27 C-18.504999999999995 25.515 -18.504999999999995 25.515 -18 24 C-17.340000000000003 24 -16.680000000000007 24 -16 24 C-16 23.340000000000003 -16 22.680000000000007 -16 22 C-15.555273437500006 21.587500000000006 -15.110546874999997 21.174999999999997 -14.65234375 20.75 C-11.78424478090787 17.712391635571464 -10.814781285968735 13.679410987955407 -9.37890625 9.8125 C-7.9251281762539065 6.847286931736008 -6.838300436915858 5.625110389327567 -4 4 C-3.3400000000000034 4 -2.680000000000007 4 -2 4 C-1.3400000000000034 2.6799999999999997 -0.6800000000000068 1.3599999999999994 0 0 Z " fill="#3C576D" transform="translate(97,55)"/>
<path d="M0 0 C4.416536919973808 -0.0883488612428085 8.83284147689021 -0.14083987475588167 13.25 -0.1875 C15.102382812499997 -0.22520507812500057 15.102382812499997 -0.22520507812500057 16.9921875 -0.263671875 C33.140560536359715 -0.39115903055020773 33.140560536359715 -0.39115903055020773 40 3 C41.85225207365875 6.30218189329322 42 8.142447096397298 42 12 C41.071875000000006 11.835 40.14375 11.670000000000002 39.1875 11.5 C25.05843850449935 9.595277424147799 15.442644942239014 13.105680530281681 3.53125 20.70703125 C2.6959374999999994 21.1337109375 1.8606249999999989 21.560390624999997 1 22 C0.00999999999999801 21.67 -0.9799999999999969 21.340000000000003 -2 21 C-3.88939075831599 15.114803110921144 -4.368508849966567 10.979630067568639 -2.046875 5.14453125 C-1.6688574218750034 4.174914550781249 -1.2908398437499997 3.2052978515625004 -0.9013671875 2.206298828125 C-0.455190429687498 1.1141809082031244 -0.455190429687498 1.1141809082031244 0 0 Z " fill="#578F97" transform="translate(51,11)"/>
<path d="M0 0 C6.2700000000000005 0 12.540000000000001 0 19 0 C18.37670030541746 9.349495418738075 17.642074223122343 19.660342845905745 13 28 C12.34 28 11.68 28 11 28 C10.814375 28.7425 10.62875 29.485 10.4375 30.25 C8.361901755897597 34.220709684369815 6.03673479299525 35.12580170325221 2 37 C1.3399999999999999 36.67 0.6799999999999999 36.34 0 36 C0 24.119999999999997 0 12.239999999999998 0 0 Z " fill="#8B9BB0" transform="translate(0,0)"/>
</svg>
