<?xml version="1.0" encoding="UTF-8"?>
<!-- Generator: visioncortex VTracer 0.6.0 -->
<svg version="1.1" xmlns="http://www.w3.org/2000/svg" width="128" height="128">
<path d="M0 0 C42.24 0 84.48 0 128 0 C128 42.24 128 84.48 128 128 C85.75999999999999 128 43.519999999999996 128 0 128 C0 85.75999999999999 0 43.519999999999996 0 0 Z " fill="#82808D" transform="translate(0,0)"/>
<path d="M0 0 C38.28 0 76.56 0 116 0 C115.00976845010581 4.951157749470937 114.61584362103432 5.932586266831437 110.80517578125 8.84375 C107.07028070340677 11.2360225302496 102.95235598567982 12.71800389785129 98.833984375 14.31640625 C94.2404045781828 16.192227059716423 91.32439716589447 18.18787508801309 88 22 C87.110546875 22.8443359375 86.22109375 23.688671875 85.3046875 24.55859375 C81.69491314400445 28.989542303659377 81.65632741852417 34.56900474995712 81.125 40.0625 C80.99826904296874 41.1812451171875 80.8715380859375 42.299990234375 80.740966796875 43.45263671875 C80.12946287123381 49.37633859462303 79.95198330637213 54.73906581558535 80.8125 60.625 C81.43528359891091 65.41465530708803 81.43528359891091 65.41465530708803 79.40234375 68.1484375 C77.34608203849119 69.91734503403843 75.22811126016093 71.45712992043015 73 73 C70.7987915179887 75.53472491867967 69.99025269069263 76.8829583533748 70.01953125 80.23828125 C70.44561851931118 84.7711383784254 70.44561851931118 84.7711383784254 72 89 C77.3243319168981 89.10394574241232 82.46162677000314 88.97989415248246 87.75 88.3125 C92.40924471300237 87.86626247819132 95.1123510739246 88.13054484027768 99 91 C102.13060438054441 94.06103539431008 103.7672198661948 96.24688780239491 105.0625 100.4375 C104.97891002536083 105.20212855443235 103.73744755410519 107.12194929835098 101 111 C97.74080508902792 113.17279660731472 96.64269397451574 113.27520863447015 92.8515625 113.37890625 C91.84609375 113.41306640625 90.840625 113.4472265625 89.8046875 113.482421875 C88.2307421875 113.522060546875 88.2307421875 113.522060546875 86.625 113.5625 C84.55458010629845 113.62271642017572 82.48425752581663 113.6863998904625 80.4140625 113.75390625 C79.03661865234375 113.78979858398438 79.03661865234375 113.78979858398438 77.63134765625 113.826416015625 C75.00630893084903 113.99958381426669 72.57106452761789 114.4593074289746 70 115 C61.23456593178114 115.61107597504154 52.63628764347557 115.94276072923147 45 111 C39.554068722494314 106.24795185823828 34.83115828686688 99.97838107906865 33.62109375 92.73046875 C33.30374638292787 86.39375842039847 35.13118102723131 81.0717838604944 37.09765625 75.109375 C38.88586030690638 68.9474250896213 38.77827155347124 62.89582062276259 36.3203125 56.91796875 C34.02650944978638 53.585846567589094 30.76206578309665 51.66492514089835 27.375 49.54296875 C25.257517511314 48.16730167264643 23.61151965543184 46.934883796817836 22 45 C22 44.34 22 43.68 22 43 C21.34 43 20.68 43 20 43 C18.798339843749996 41.610595703125 18.798339843749996 41.610595703125 17.4609375 39.67578125 C16.9620703125 38.97646484375 16.463203125 38.2771484375 15.94921875 37.556640625 C14.916641301510762 36.08464125984599 13.890361070031823 34.60820004852677 12.87109375 33.126953125 C12.3644921875 32.42119140625 11.857890625 31.7154296875 11.3359375 30.98828125 C10.8878271484375 30.34415283203125 10.439716796875 29.7000244140625 9.97802734375 29.036376953125 C7.305702679668377 26.122923724464073 7.305702679668377 26.122923724464073 0 22 C0 14.739999999999998 0 7.479999999999999 0 0 Z " fill="#5D5E4E" transform="translate(0,0)"/>
<path d="M0 0 C9.14951324181559 3.659805296726237 13.722366191242187 9.863123053800606 19 18 C19.33 18.989999999999995 19.66 19.980000000000004 20 21 C20.66 21 21.32 21 22 21 C23.124733305346265 22.431478752258883 24.249025051636107 23.863306633135082 25.37109375 25.296875 C27.2718821225589 27.284270037016014 29.261906754728535 28.476356193042577 31.625 29.875 C35.553050809523484 32.39130542706579 37.38988147044693 34.370802598197756 38.6328125 38.8828125 C39.75494196667852 45.3529632546783 39.06490329663484 50.17665441732072 37 56.4375 C34.752483774476744 63.398332626530674 33.3235355975125 69.02168165303124 36.24609375 75.95703125 C38.9082992412885 81.15779984466681 38.9082992412885 81.15779984466681 42.69921875 85.5234375 C44 87 44 87 44.1875 89.19921875 C44.0946875 90.43091796875 44.0946875 90.43091796875 44 91.6875 C43.81794634115707 96.85327256966819 44.91145931207609 100.3007834521712 47 105 C46.67 105.33 46.34 105.66 46 106 C30.82 106 15.639999999999997 106 0 106 C0 71.02 0 36.03999999999999 0 0 Z " fill="#9BA292" transform="translate(0,22)"/>
<path d="M0 0 C18.150000000000006 0 36.30000000000001 0 55 0 C54.00976845010581 4.951157749470945 53.61584362103433 5.932586266831425 49.80517578125 8.84375 C46.07028070340675 11.236022530249615 41.95235598567983 12.718003897851284 37.833984375 14.31640625 C33.24040457818283 16.192227059716416 30.324397165894467 18.187875088013087 27 22 C26.104101562500006 22.8340234375 25.208203124999997 23.668046875 24.28515625 24.52734375 C20.590841147679214 29.04165532677105 20.852343456092314 34.97658462610574 20.4375 40.5625 C19.55334357277883 51.97794187145557 19.55334357277883 51.97794187145557 17.33984375 56.06640625 C14.428725152798904 58.47208856321292 11.602893684675081 59.90156977229894 8.125 61.375 C6.334492187500004 62.1600390625 6.334492187500004 62.1600390625 4.5078125 62.9609375 C0.1415858133248591 64.25427413547392 -2.9301167704950117 64.0349416147525 -7 62 C-9.399358319884072 57.10131009690335 -10.78908526511438 52.30939537603696 -12 47 C-12.605859375000001 47.0928125 -13.211718750000003 47.185625 -13.8359375 47.28125 C-19.5878837995606 47.77680229657753 -22.74143960217421 46.990605668054684 -27.3125 43.375 C-37.61147604728328 34.24194576939029 -37.61147604728328 34.24194576939029 -38.23828125 29.01171875 C-38.36166752928081 25.147780004101083 -38.28482327763404 22.582030176034777 -36.5625 19.0625 C-30.56912883815436 14.238567113636435 -22.39975197434393 14.717865110150557 -15.015625 14.44140625 C-10.147634750747173 13.728863635795895 -7.625154257852756 11.668769671191317 -4.3125 8.125 C-1.7067472483447048 4.880117777557693 -1.7067472483447048 4.880117777557693 0 0 Z " fill="#5D4836" transform="translate(61,0)"/>
<path d="M0 0 C0 35.64 0 71.28 0 108 C-6.269999999999996 108 -12.540000000000006 108 -19 108 C-19 101.71043540639945 -18.958586322223354 101.24175795253191 -15.125 96.9375 C-10.391476147740889 91.56774982351251 -8.348926904540306 87.12060775865679 -8.48828125 79.94921875 C-10.017855042710323 71.13373620422678 -15.878596928099157 61.4072927758083 -22 55 C-24.668173593229312 53.025012301775575 -24.668173593229312 53.025012301775575 -27 52 C-26.795039062499995 51.46632812499999 -26.590078125000005 50.93265625000001 -26.37890625 50.3828125 C-22.931270276090814 40.848202007562165 -22.813805188080877 33.21037280338166 -24.49609375 23.2578125 C-24.97869875044111 20.137715055287742 -25.336059993255205 17.090192437399892 -25.5 13.9375 C-25.551562500000003 13.080273437499997 -25.603125000000006 12.223046875000001 -25.65625 11.33984375 C-25 9 -25 9 -22.4453125 6.86328125 C-18.807743844477656 4.896024732217505 -15.303164861233427 3.494179707044051 -11.375 2.25 C-10.720156250000002 2.029570312499999 -10.065312500000005 1.8091406250000013 -9.390625 1.58203125 C-6.052253775459519 0.494019575605229 -3.5535899739146117 0 0 0 Z " fill="#D0BDA9" transform="translate(128,20)"/>
<path d="M0 0 C20.130000000000003 0 40.260000000000005 0 61 0 C60.04677971750857 4.76610141245716 59.71529591267835 5.835528936071294 56.6875 9.1875 C56.0932421875 9.8616796875 55.498984375 10.535859375 54.88671875 11.23046875 C51.82963556534384 14.09767099150981 48.99247992202228 15.20444056273857 44.84765625 15.5625 C44.07099609375 15.637265625 43.2943359375 15.71203125 42.494140625 15.7890625 C41.69169921875 15.858671875 40.8892578125 15.92828125 40.0625 16 C32.77973081687381 16.50925298573157 32.77973081687381 16.50925298573157 26 19 C23.294849113903055 23.057726329145417 23.360551096266125 26.236925473469462 24 31 C27.476804527866754 38.24334276638907 34.78807419624946 43.14693296581989 41 48 C37.37500000000001 52.875 37.37500000000001 52.875 34 54 C31.84374999999999 52.89062499999999 31.84374999999999 52.89062499999999 29.5 51.25 C28.7265625 50.71890625 27.953125 50.1878125 27.15625 49.640625 C25.248276583038916 48.18890609579048 23.559325485096 46.819213065945334 22 45 C22 44.34 22 43.68 22 43 C21.34 43 20.68 43 20 43 C18.798339843749996 41.610595703125 18.798339843749996 41.610595703125 17.4609375 39.67578125 C16.9620703125 38.97646484375 16.463203125 38.2771484375 15.94921875 37.556640625 C14.916641301510762 36.08464125984599 13.890361070031823 34.60820004852677 12.87109375 33.126953125 C12.3644921875 32.42119140625 11.857890625 31.7154296875 11.3359375 30.98828125 C10.8878271484375 30.34415283203125 10.439716796875 29.7000244140625 9.97802734375 29.036376953125 C7.305702679668377 26.122923724464073 7.305702679668377 26.122923724464073 0 22 C0 14.739999999999998 0 7.479999999999999 0 0 Z " fill="#83764C" transform="translate(0,0)"/>
<path d="M0 0 C2.8744879017325218 0.3384635925248176 4.579991177879634 0.6271727856508562 6.7734375 2.57421875 C12.97036373465096 10.751138488893105 20.385226826985757 21.015958994347145 19.48828125 31.76171875 C18.100463057946314 38.12347734237407 14.820900631596999 42.624215572533615 10.26953125 47.1640625 C8.484559658576899 49.466893657837716 8.484559658576899 49.466893657837716 8 55 C-12.790000000000006 55 -33.58000000000001 55 -55 55 C-58.375 43.75 -58.375 43.75 -57 37 C-56.06994140625 37.433125000000004 -56.06994140625 37.433125000000004 -55.12109375 37.875 C-46.63323227965041 41.43323013604174 -37.68631719881246 42.40528294331094 -28.60009765625 40.49560546875 C-24.176496521830828 39.652421402752736 -19.740556999996187 39.815493704666665 -15.25 39.8125 C-14.298671874999997 39.80025390624999 -13.347343749999993 39.7880078125 -12.3671875 39.775390625 C-6.266644039392418 39.76285526172478 -0.9060383843931561 40.462728692128124 5 42 C8.34737569109646 34.76966850723166 8.719450489607453 29.064987641332365 6.13671875 21.45703125 C5.463527696912223 19.780551600418477 4.769485683988933 18.112291587653132 4.0546875 16.453125 C-0.5547103569338674 5.732007021650077 -0.5547103569338674 5.732007021650077 0 0 Z " fill="#AB898B" transform="translate(101,73)"/>
<path d="M0 0 C2.4545214309254817 1.7966846703091335 4.095157222724751 3.3015817959988354 5.77197265625 5.85546875 C6.431790930149646 10.692368496095504 5.757234792671994 15.179058959808103 5.02197265625 19.98046875 C4.876308593749997 21.2424609375 4.730644531249993 22.504453124999998 4.58056640625 23.8046875 C3.224857635460893 34.19845474271656 3.224857635460893 34.19845474271656 -1.22802734375 38.85546875 C-4.47021484375 40.69140625000001 -4.47021484375 40.69140625000001 -8.10302734375 42.23046875 C-9.893535156249996 43.0155078125 -9.893535156249996 43.0155078125 -11.72021484375 43.81640625 C-16.08644153042512 45.10974288547392 -19.15814411424502 44.89041036475248 -23.22802734375 42.85546875 C-28.274591942329337 32.55206602790052 -29.438153423707774 23.22255568319259 -26.10302734375 12.10546875 C-20.302312861138738 2.050896980140479 -11.859459364763467 -6.092170228140601 0 0 Z " fill="#303034" transform="translate(77.22802734375,19.14453125)"/>
<path d="M0 0 C3.1306043805443693 3.0610353943100534 4.767219866194779 5.246887802394909 6.0625 9.4375 C5.978910025360847 14.202128554432335 4.737447554105188 16.121949298350998 2 20 C-1.2591949109720701 22.172796607314723 -2.3573060254842915 22.275208634470147 -6.1484375 22.37890625 C-7.656640624999994 22.430146484375 -7.656640624999994 22.430146484375 -9.1953125 22.482421875 C-10.769257812500001 22.522060546874997 -10.769257812500001 22.522060546874997 -12.375 22.5625 C-14.445419893701555 22.62271642017572 -16.51574247418337 22.686399890462496 -18.5859375 22.75390625 C-19.963381347656252 22.78979858398438 -19.963381347656252 22.78979858398438 -21.36865234375 22.826416015625 C-23.99353230482646 22.99957334094745 -26.428002325645707 23.464955140659754 -29 24 C-31.53913368877538 24.140762208759398 -34.08214563862032 24.21990704897776 -36.625 24.25 C-37.937265625 24.275781249999994 -39.249531250000004 24.301562500000003 -40.6015625 24.328125 C-44 24 -44 24 -45.9375 22.6875 C-47.764538758448545 19.785732560111143 -47.33392780410562 17.339278041056218 -47 14 C-45.74669634610942 9.891949134469755 -44.71600213210932 7.611221332288437 -41.4375 4.8125 C-30.20236370217195 -1.1114809570366049 -11.689730188906907 -7.461529907812917 0 0 Z " fill="#614645" transform="translate(99,91)"/>
<path d="M0 0 C16.439292239042942 1.6439292239042942 26.073358700390248 5.563689337617703 37.3671875 17.3828125 C38.93125000090172 18.931907895629934 40.54525365683956 20.193774442011858 42.3125 21.5 C45.685533140282246 24.637705246774175 46.13012979615417 26.563661960386284 47 31 C46 32 46 32 44.13340759277344 32.12025451660156 C43.31844314575196 32.11803390502931 42.50347869873047 32.11581329345702 41.663818359375 32.113525390625 C40.28249977111817 32.1134120941162 40.28249977111817 32.1134120941162 38.87327575683594 32.11329650878906 C37.87224319458008 32.10813522338867 36.87121063232422 32.10297393798828 35.83984375 32.09765625 C34.820240631103516 32.09624130249023 33.80063751220703 32.094826354980455 32.75013732910156 32.09336853027344 C29.479228926365124 32.08775096693853 26.208387868299535 32.075195500331006 22.9375 32.0625 C20.725912443741183 32.057487262247264 18.51432381941282 32.052923964403675 16.302734375 32.048828125 C10.86844248259193 32.03862479812727 5.434297019856417 32.019052852816 0 32 C0 21.439999999999998 0 10.879999999999995 0 0 Z " fill="#DCC7A8" transform="translate(0,96)"/>
<path d="M0 0 C0.3299999999999983 0.6599999999999966 0.6599999999999966 1.3199999999999932 1 2 C6.928199859331002 5.451529695877156 14.153506874305691 7.540512615186387 21 7 C20.814375 8.577812499999993 20.814375 8.577812499999993 20.625 10.1875 C20.58572381757314 15.71562267658041 23.15586622431053 20.022630612117837 25.52734375 24.89453125 C28.874363015375735 31.952569223405078 29.65878327422709 38.32483612004452 28 46 C26.4375 49.125000000000014 26.4375 49.125000000000014 25 51 C22.03 50.34 19.060000000000002 49.68000000000001 16 49 C17.52994791666667 47.30729166666666 19.05989583333333 45.61458333333334 20.58984375 43.921875 C22.100331960991227 41.86325948806736 22.66241738424364 40.51697626747756 23 38 C22.004382494196832 33.02191247098415 20.60686584084108 29.60686584084108 17 26 C13.327179926744876 24.157385875410853 10.859194088585042 23.8370347592723 6.8125 24.375 C1.5111894216972814 24.987243748852904 -3.668805158945233 25.10407972574727 -9 25 C-11.396626754897596 20.8059031789292 -12.706680436070073 17.845808704480476 -12 13 C-9.175753961588839 7.4691848414448145 -4.7235758143333015 3.8751665661278025 0 0 Z " fill="#826C5B" transform="translate(81,65)"/>
<path d="M0 0 C0.19601608364078515 1.7490665924870115 0.3814740294332779 3.499318461861101 0.5625 5.25 C0.6669140624999983 6.224531249999998 0.7713281249999966 7.1990625 0.87890625 8.203125 C0.9914980460855389 10.803632290233715 0.6910139234622648 12.52988306463864 0 15 C0.020624999999995453 16.216875 0.041250000000005116 17.43375 0.0625 18.6875 C0.14087603323373799 23.311685960790328 -0.8447612462575051 27.544079092707534 -2 32 C-6.664819082526158 33.27041881396457 -10.362399425642167 33.907160030399666 -14.71484375 31.49609375 C-27.47457995743264 21.384242650275183 -27.47457995743264 21.384242650275183 -28.23828125 15.01171875 C-28.361667529280805 11.14778000410109 -28.28482327763404 8.582030176034777 -26.5625 5.0625 C-19.723804233370977 -0.4418161048477529 -8.421613751059851 0 0 0 Z " fill="#6C4A19" transform="translate(51,14)"/>
<path d="M0 0 C6.269999999999996 0 12.540000000000006 0 19 0 C19 17.49000000000001 19 34.980000000000004 19 53 C12.730000000000004 53 6.459999999999994 53 0 53 C0 46.710435406399455 0.04141367777666005 46.2417579525319 3.875 41.9375 C8.611163905964588 36.564754923878894 10.63761996584283 32.1243306530009 10.51953125 24.953125 C9.436115179147137 18.794759965678494 6.042642837247939 13.388149092942285 3 8 C2.3290429687500023 6.787636718749994 2.3290429687500023 6.787636718749994 1.64453125 5.55078125 C0.7851243358378497 4.0212230959135695 -0.10262224615263449 2.507594626463586 -1 1 C-0.6700000000000017 0.6700000000000017 -0.3400000000000034 0.3400000000000034 0 0 Z " fill="#C7B188" transform="translate(109,75)"/>
<path d="M0 0 C3.960000000000008 0 7.920000000000002 0 12 0 C12 6.6000000000000005 12 13.200000000000001 12 20 C4.5000000000014495 22.24999999999957 4.5000000000014495 22.24999999999957 2.048828125 22.981201171875 C-1.6836568442112139 24.136085497416275 -4.771448657944092 25.309851677247355 -8 27.5625 C-14.375031587773591 30.406075391868555 -21.7448034903163 27.218662377576596 -28 25 C-28.659999999999997 24.34 -29.319999999999993 23.68 -30 23 C-26.522241424244342 17.46720226584327 -21.721625688678486 15.63116936431745 -16 13 C-13.848596850964924 11.990957939820728 -11.702741956173298 10.97000460431148 -9.5625 9.9375 C-8.573789062499998 9.4721484375 -7.5850781249999955 9.006796875 -6.56640625 8.52734375 C-2.8001400354721113 6.285928088081574 -1.371976143434381 4.115928430303168 0 0 Z " fill="#8E6F63" transform="translate(116,0)"/>
<path d="M0 0 C9.14951324181559 3.659805296726237 13.722366191242187 9.863123053800606 19 18 C19.33 18.989999999999995 19.66 19.980000000000004 20 21 C20.66 21 21.32 21 22 21 C23.389380773527236 22.961478739097274 24.726041097251315 24.961665755602105 26 27 C23.019448127217213 29.030230985808565 20.01632725715506 31.02332400159809 17 33 C16.14921875 33.5607421875 15.2984375 34.121484375 14.421875 34.69921875 C13.58140625 35.2316015625 12.7409375 35.763984375 11.875 36.3125 C10.726445312500001 37.04919921875 10.726445312500001 37.04919921875 9.5546875 37.80078125 C6.999999999999993 39 6.999999999999993 39 0 40 C0 26.799999999999997 0 13.599999999999994 0 0 Z " fill="#B5B88B" transform="translate(0,22)"/>
<path d="M0 0 C2.8744879017325076 0.3384635925248176 4.579991177879634 0.6271727856508562 6.7734375 2.57421875 C12.970363734650974 10.751138488893105 20.385226826985757 21.015958994347145 19.48828125 31.76171875 C17.953233787265944 38.79837631917292 13.835947547426088 43.84165594941217 9 49 C7.107866307401437 46.61426621368007 5.976082172587368 44.92824651776209 5 42 C5.4950000000000045 40.824375 5.989999999999995 39.64875000000001 6.5 38.4375 C9.549318780380261 30.75096832779724 7.192881658763994 23.737400492605474 4.0546875 16.453125 C-0.5547103569338816 5.732007021650091 -0.5547103569338816 5.732007021650091 0 0 Z " fill="#9F8562" transform="translate(101,73)"/>
<path d="M0 0 C0.6599999999999966 0.6599999999999966 1.3200000000000003 1.3200000000000003 2 2 C1.7578125 4.1640625 1.7578125 4.1640625 1.125 6.625 C0.9213281250000023 7.442265624999997 0.7176562499999974 8.259531250000002 0.5078125 9.1015625 C0.3402343750000014 9.728046875000004 0.17265625000000284 10.35453125 0 11 C-0.990000000000002 11 -1.9799999999999969 11 -3 11 C-2.690624999999997 10.298749999999998 -2.3812500000000014 9.597499999999997 -2.0625 8.875 C-0.9669732238829667 5.910633429330382 -0.43577008162763065 3.123018918331354 0 0 Z " fill="#5D4836" transform="translate(49,35)"/>
</svg>
