<?xml version="1.0" encoding="UTF-8"?>
<!-- Generator: visioncortex VTracer 0.6.0 -->
<svg version="1.1" xmlns="http://www.w3.org/2000/svg" width="128" height="128">
<path d="M0 0 C42.24 0 84.48 0 128 0 C128 42.24 128 84.48 128 128 C85.75999999999999 128 43.519999999999996 128 0 128 C0 85.75999999999999 0 43.519999999999996 0 0 Z " fill="#63726B" transform="translate(0,0)"/>
<path d="M0 0 C2.3100000000000023 0.990000000000002 4.6200000000000045 1.9800000000000004 7 3 C6.670000000000002 10.260000000000002 6.340000000000003 17.520000000000003 6 25 C10.507010678617632 27.05662977050433 10.507010678617632 27.05662977050433 15.03466796875 29.06689453125 C18.27683851100082 30.616127295362418 19.832674975367695 31.665799749188707 21.453125 34.90234375 C24.327673424615043 51.184607326569534 16.32356999935334 70.94388587054146 7.3828125 84.44140625 C5.3574902995611495 86.72418466235905 4.045197701610547 86.7408342381608 1 87 C-4.463576898470876 87.31134353649375 -9.552199617609446 86.98613942067152 -14.9375 86 C-21.77604719529903 84.75902811513879 -28.568166506022713 84.17381786256102 -35.375 85.8125 C-38 86 -38 86 -40.4375 84.0625 C-41.283125 83.051875 -42.12875 82.04125 -43 81 C-43.5465625 80.41734375 -44.093125 79.8346875 -44.65625 79.234375 C-50.34102796075304 73.10079877918751 -56.24657691287484 66.44068193190866 -56.625 57.75 C-56.21308009484994 52.14087788731837 -54.23889663499472 49.13756726142816 -50.1875 45.26953125 C-45.40787739409768 41.43001823753802 -42.066062610939305 40.651004416800994 -35.9375 41.125 C-33.953799306452204 41.38403995310934 -31.972241445088045 41.6646884714688 -30 42 C-29.571898889630233 31.725573351125504 -31.858153039193716 24.76166096275221 -36.85546875 15.83203125 C-38.17521729005921 12.566441859068519 -38.30855169189552 11.25253177738638 -37 8 C-27.581139102797565 -1.3219590361201057 -12.03601453176023 -7.2216087190561336 0 0 Z " fill="#25554E" transform="translate(85,18)"/>
<path d="M0 0 C0.22042968750000114 0.9448828124999995 0.4408593750000023 1.8897656250000008 0.66796875 2.86328125 C1.685209079347942 6.149237038419237 1.685209079347942 6.149237038419237 4.42578125 7.35546875 C5.378398437499996 7.6300390625 6.331015625000006 7.904609375 7.3125 8.1875 C15.578983881552418 10.657295320682099 19.348719865246224 14.307538561401124 24.07421875 21.349609375 C27.57454719952706 26.233400973625848 28.577326673524922 26.164950478149976 35 28 C35 48.13 35 68.26 35 89 C5.707547169811335 89 5.707547169811335 89 1 88 C0.6700000000000017 87.34 0.3400000000000034 86.68 0 86 C0.6650390624999858 84.25097656250004 0.6650390624999858 84.25097656250004 1.765625 82.140625 C2.1600781249999983 81.36130615234374 2.5545312499999966 80.5819873046875 2.9609375 79.779052734375 C3.3863281250000057 78.94446533203126 3.811718749999997 78.1098779296875 4.25 77.25 C8.214473793823814 69.18804188437707 10.767063294453976 61.94727462465052 12 53 C12.150820312500002 52.0525390625 12.301640625000005 51.105078125000006 12.45703125 50.12890625 C13.12722930369344 45.17238657817924 13.273218741280942 41.61957052517681 11 37 C8.56570589202903 35.418000711606396 6.493814409624889 34.26586964379698 3.875 33.125 C2.886933593750001 32.664804687499995 2.886933593750001 32.664804687499995 1.87890625 32.1953125 C0.2610696204889251 31.445011454429647 -1.3684250997048792 30.719937749738577 -3 30 C-2.8581101479293096 27.458058394818607 -2.71160844538052 24.91652006902313 -2.5625 22.375 C-2.523183593750005 21.6621484375 -2.483867187499996 20.949296875 -2.443359375 20.21484375 C-2.1969031943102664 16.08196318151066 -1.7652994662871038 12.077309761563193 -1 8 C-1.9074999999999989 7.896875000000001 -2.8149999999999977 7.793749999999999 -3.75 7.6875 C-7.079299736232045 6.983225055797067 -8.437190587220172 6.120945720921235 -11 4 C-18.96530674556584 1.3448977514780545 -25.706413975531262 3.1635025307272286 -33.15234375 6.57421875 C-40.26306971361024 9.601755737942803 -40.26306971361024 9.601755737942803 -44.91796875 15.23828125 C-45.030162284668 19.015463583822665 -43.453118739977825 21.51314973561579 -41.625 24.6875 C-37.723882271320626 31.9325689848789 -35.556387447044585 38.854624823481956 -38 47 C-42.275214463407494 48.4250714878025 -45.870003780184675 47.76085110147165 -50 46 C-51.3125 43.18749999999999 -51.3125 43.18749999999999 -52 40 C-54.16420280155519 36.3375029512143 -55.900472683173604 34.77468438099091 -59.9375 33.6875 C-62.26808685969774 33.182462290840846 -64.01577246599297 33.001641362314714 -66.40234375 33.25 C-70.24671279682687 32.88001561053095 -71.85517797318556 30.925899570754666 -74.625 28.3125 C-75.566015625 27.4423828125 -76.50703125 26.572265625 -77.4765625 25.67578125 C-80.97515064552009 21.965978030679167 -83 19.614985331059493 -83 14.4375 C-81.77727384078136 10.234378827685923 -80.58779303406683 9.40817758903258 -77 7 C-66.84650192377413 3.026892057129004 -56.415885378719025 2.5679348077644963 -45.637451171875 2.29443359375 C-40.48421060545105 2.1615571858836553 -35.57566944569202 1.9227370409977826 -30.5 0.9375 C-20.523363205322738 -0.9049705434766491 -10.104388636977774 -0.16060282709464602 0 0 Z " fill="#5C6D73" transform="translate(93,13)"/>
<path d="M0 0 C42.24 0 84.48 0 128 0 C128 13.530000000000001 128 27.060000000000002 128 41 C120.91614197726759 39.9880202824668 119.48512709377682 39.26647831701363 115.5625 34.0625 C115.11712890625 33.51142578125 114.6717578125 32.9603515625 114.212890625 32.392578125 C111 28.330813172043012 111 28.330813172043012 111 26 C108.32443972978159 24.909956926948055 105.64915497038089 23.87711519267148 102.921875 22.921875 C101.351796875 22.341796875 101.351796875 22.341796875 99.75 21.75 C98.69296875 21.37359375 97.6359375 20.9971875 96.546875 20.609375 C94 19 94 19 93.140625 15.828125 C93.09421875 14.89484375 93.0478125 13.9615625 93 13 C76.2008069484778 13.417275927558608 76.2008069484778 13.417275927558608 59.5625 15.54296875 C55.56437037556674 16.055886695239792 51.644422655309455 16.15318626868154 47.617919921875 16.242431640625 C37.39734038979064 16.47211657725551 28.064576577416382 17.443629960139784 18.21484375 20.272705078125 C11.583280061887677 22.127673720051025 7.4204571489555455 22 0 22 C0 14.739999999999998 0 7.479999999999999 0 0 Z " fill="#ACAE95" transform="translate(0,0)"/>
<path d="M0 0 C-0.3299999999999983 7.260000000000002 -0.6599999999999966 14.520000000000003 -1 22 C3.5070106786176325 24.05662977050433 3.5070106786176325 24.05662977050433 8.03466796875 26.06689453125 C11.276838511000818 27.616127295362418 12.832674975367695 28.665799749188714 14.453125 31.90234375 C17.309655802167782 48.08255036513606 9.485294256629658 64.17400745316708 2 78 C-13.098690316592737 75.08982159430752 -13.098690316592737 75.08982159430752 -18 70 C-19.40055430528821 64.98134707271724 -18.585175844705347 62.061323800570676 -16.625 57.3125 C-14.37452397732902 51.33230247908216 -12.20024399775886 45.47580207370255 -13 39 C-15.209135427118596 35.955246984998126 -15.209135427118596 35.955246984998126 -18 34 C-20.405292958563138 26.784121124310573 -20.184233948669117 16.036129854317252 -17 9 C-9.417670682730929 -1.3453815261044184 -9.417670682730929 -1.3453815261044184 0 0 Z " fill="#185421" transform="translate(92,21)"/>
<path d="M0 0 C1.7015624999999943 0.038671875000005684 1.7015624999999943 0.038671875000005684 3.4375 0.078125 C4.854277139757386 0.13261642845220933 6.270934242593555 0.19026529938648196 7.6875 0.25 C8.598867187499991 0.28673828124999545 9.51023437500001 0.3234765625000051 10.44921875 0.361328125 C16.864042248977796 0.625467916134383 23.274566860239332 0.9352548152264717 29.6875 1.25 C29.6875 9.829999999999998 29.6875 18.409999999999997 29.6875 27.25 C1.9675000000000011 27.25 -25.752499999999998 27.25 -54.3125 27.25 C-52.40521157504236 21.528134725127074 -51.18231574612728 19.28919656281724 -46.3125 16.25 C-39.7864985456811 13.301593513351435 -33.79278534481341 12.590770633143293 -26.6875 12.125 C-24.67432747831812 11.978634140643024 -22.661300065059194 11.830255959591042 -20.6484375 11.6796875 C-19.71999023437499 11.611044921874992 -18.791542968750008 11.542402343749998 -17.8349609375 11.4716796875 C-14.961109811784112 11.219119019463804 -12.144161322071483 10.800869267433711 -9.3125 10.25 C-9.209374999999994 9.156875 -9.106250000000003 8.063749999999999 -9 6.9375 C-7.891311860502356 0.9908999790581277 -5.89599856092056 -0.15618539234226603 0 0 Z " fill="#98C6C1" transform="translate(98.3125,100.75)"/>
<path d="M0 0 C0 20.130000000000003 0 40.260000000000005 0 61 C-29.292452830188665 61 -29.292452830188665 61 -34 60 C-34.33 59.34 -34.66 58.68000000000001 -35 58 C-34.3349609375 56.2509765625 -34.3349609375 56.2509765625 -33.234375 54.140625 C-32.839921875 53.36130615234376 -32.44546875 52.5819873046875 -32.0390625 51.779052734375 C-31.613671874999994 50.94446533203126 -31.188281250000003 50.1098779296875 -30.75 49.25 C-24.971600041068825 37.499331218484855 -21.42330289414103 24.996083168222043 -22.1875 11.75 C-21.87975899433961 7.236465250314268 -19.608538752989602 4.588177502951751 -16.45703125 1.4765625 C-10.871999883192217 -3.149939456028413 -6.716813480599896 -2.238937826866632 0 0 Z " fill="#64A35E" transform="translate(128,41)"/>
<path d="M0 0 C-0.4949999999999992 0.5568750000000016 -0.9900000000000002 1.1137499999999996 -1.5 1.6875 C-3.312101070160427 4.481155816497324 -3.337654380234108 5.721327032509393 -3 9 C-1.8411553870106943 11.219929167975309 -1.8411553870106943 11.219929167975309 -0.1875 13.1875 C0.33457031250000036 13.8616796875 0.8566406250000007 14.535859375000001 1.39453125 15.23046875 C3.072448976374794 17.224157341909773 3.072448976374794 17.224157341909773 6 19 C6 19.659999999999997 6 20.32 6 21 C6.556875000000002 21.185625 7.11375 21.371250000000003 7.6875 21.5625 C11.487100098012458 23.92441357444018 14.310949532832261 27.73223896881504 15.6171875 32.03125 C16.970961531773906 38.99351644912294 15.388277797701715 42.86415705295843 11.63671875 48.64453125 C6.311461437132287 56.30832638045163 -0.2010214471199987 62.480408578848 -9 66 C-10.65 66 -12.3 66 -14 66 C-14 44.22 -14 22.439999999999998 -14 0 C-3 -1 -3 -1 0 0 Z " fill="#599EA1" transform="translate(14,22)"/>
<path d="M0 0 C0.7837499999999977 0.495000000000001 1.5674999999999955 0.990000000000002 2.375 1.5 C2.375 4.5 2.375 4.5 0.94921875 5.9296875 C0.3266015625000023 6.406640625000001 -0.29601562499999545 6.883593749999999 -0.9375 7.375 C-6.3937048156355445 11.861212848411455 -7.861726029767638 15.4807328344987 -8.625 22.5 C-8.588400782288517 25.88376403750638 -8.510821605394696 29.248924798267993 -8.322265625 32.626953125 C-8.18839309201131 37.78848300800827 -9.392864566932687 40.527906821267095 -12.625 44.5 C-15.649653046604485 46.95242138913877 -17.346241414672946 47.471162904966164 -21.25 47.875 C-24.625 47.5 -24.625 47.5 -26.33203125 46.26953125 C-28.030229346759654 43.945411196126514 -27.8706278480767 42.65768144450877 -27.6875 39.8125 C-27.469581178761857 30.929103345998215 -30.199538751157867 24.98156190366872 -34.48046875 17.33203125 C-35.80021729005921 14.066441859068515 -35.93355169189552 12.752531777386384 -34.625 9.5 C-25.946290769227105 0.9105779012309441 -11.74972392918417 -4.86195472931759 0 0 Z " fill="#1F394C" transform="translate(82.625,16.5)"/>
<path d="M0 0 C19.14 0 38.28 0 58 0 C55.570350547412254 7.288948357763246 53.35782167543025 8.442045739663834 47 12 C46.3644921875 12.37125 45.728984375 12.7425 45.07421875 13.125 C37.71904016526023 16.898398231850464 29.297573400031382 17.98160842193665 21.25341796875 19.5244140625 C19.163299114536624 19.965535571493245 17.14831461716409 20.523232493170593 15.09765625 21.1171875 C11.000000000000002 22 11.000000000000002 22 0 22 C0 14.739999999999998 0 7.479999999999999 0 0 Z " fill="#B4CCD7" transform="translate(0,0)"/>
<path d="M0 0 C9.513303307858608 0.40655142341276473 17.927286326467062 0.9614968357507649 27 4 C28.322578125 4.427324218750002 28.322578125 4.427324218750002 29.671875 4.86328125 C31.78838588524901 5.556734350601772 33.89667111896738 6.267729945121985 36 7 C36.17130344090224 8.520318038007375 36.3367707310005 10.041293895851894 36.5 11.5625 C36.5928125 12.409414062500005 36.685625 13.256328124999996 36.78125 14.12890625 C37.03128132991856 17.410567455181194 37 20.708827574931377 37 24 C24.79 24 12.579999999999998 24 0 24 C0 16.08 0 8.159999999999997 0 0 Z " fill="#8AA0AD" transform="translate(0,104)"/>
<path d="M0 0 C1.125 1.6875 1.125 1.6875 1.125 3.6875 C1.7849999999999966 3.6875 2.444999999999993 3.6875 3.125 3.6875 C3.80167998381296 4.93210782737026 4.465947192355031 6.183468963231093 5.125 7.4375 C5.496250000000003 8.133593750000003 5.867500000000007 8.829687500000006 6.25 9.546875 C7.125 11.6875 7.125 11.6875 7.125 15.6875 C-10.694999999999993 15.6875 -28.515 15.6875 -46.875 15.6875 C-44.96771157504236 9.965634725127074 -43.74481574612728 7.726696562817239 -38.875 4.6875 C-32.3489985456811 1.7390935133514347 -26.35528534481341 1.0282706331432934 -19.25 0.5625 C-17.23682747831812 0.4161341406430239 -15.223800065059194 0.26775595959104237 -13.2109375 0.1171875 C-11.814641113281255 0.01676147460938182 -11.814641113281255 0.01676147460938182 -10.39013671875 -0.085693359375 C-7.683607691188598 -0.2937043322784092 -7.683607691188598 -0.2937043322784092 -4.28125 -0.94921875 C-1.875 -1.3125 -1.875 -1.3125 0 0 Z " fill="#60A5D8" transform="translate(90.875,112.3125)"/>
<path d="M0 0 C6.740232939022718 1.2577044380305153 13.353286881938317 1.181976088942477 20.1875 1 C20.1875 3.3100000000000023 20.1875 5.6200000000000045 20.1875 8 C13.166105931874284 10.379800230373135 6.175869243459147 10.642059714867415 -1.1875 11.03515625 C-9.169405686032633 11.593257834907291 -15.575900434477923 13.245447178279079 -21.75 18.5 C-23.51314762058942 20.63714863101748 -24.77267667798749 22.44770639142385 -25.8125 25 C-28.122500000000002 25 -30.432499999999997 25 -32.8125 25 C-32.981080984037 22.916820697257037 -33.14729254621318 20.833449556089334 -33.3125 18.75 C-33.4053125 17.58984375 -33.498125 16.4296875 -33.59375 15.234375 C-33.75654643542388 12.827313419089819 -33.8125 10.412560493268629 -33.8125 8 C-24.0168638712163 -1.3423169517977271 -12.764574706284456 -2.3827206118397726 0 0 Z " fill="#4F7D97" transform="translate(69.8125,103)"/>
<path d="M0 0 C13.530000000000001 0 27.060000000000002 0 41 0 C39.76329240261312 8.656953181708197 39.76329240261312 8.656953181708197 36.79296875 11.861328125 C32.85230102984977 14.363952613940727 28.014710412487247 13.794600830388333 23.5 13.75 C21.320230512624306 13.779640200341042 19.140528042258325 13.814742497184277 16.9609375 13.85546875 C15.921630859375 13.8714208984375 14.88232421875 13.887373046875 13.8115234375 13.90380859375 C10.514489051572667 14.016610916436296 7.364992038933707 14.450316414237463 4.125 15.0625 C-3.856950972652413 16.524594140173782 -11.918659726558055 16.163259399463474 -20 16 C-17.58852788861553 13.588527888615529 -15.188143267078047 12.497869568253325 -12.125 11 C-11.075703125000004 10.484375 -10.02640625 9.96875 -8.9453125 9.4375 C-6 7.999999999999998 -6 7.999999999999998 -3.7421875 7.1875 C-1.2401200089406998 5.739680223042142 -1.2401200089406998 5.739680223042142 0 0 Z " fill="#6EA5BE" transform="translate(58,0)"/>
<path d="M0 0 C9.16478140385766 3.267203038233248 13.223250023070776 9.187931155721124 18.5859375 16.921875 C16.29818526435497 18.672202680288763 14.0577122488817 20.24101108921731 11.5859375 21.734375 C7.958085179241351 24.115093998479807 7.958085179241351 24.115093998479807 4.5859375 29.921875 C-0.6940625000000011 27.281875 -5.974062500000002 24.641875 -11.4140625 21.921875 C-11.269687500000003 19.426249999999996 -11.125312500000007 16.930625 -10.9765625 14.359375 C-10.933459472656253 13.58779052734375 -10.890356445312506 12.816206054687498 -10.845947265625 12.021240234375 C-10.58049460992845 7.6174199611174025 -10.25704230174 3.259592257960122 -9.4140625 -1.078125 C-6.1377872321624665 -2.716262633918763 -3.3519374127642436 -1.0949021921350237 0 0 Z " fill="#6B7435" transform="translate(101.4140625,21.078125)"/>
<path d="M0 0 C-0.11503268769953934 2.521637601413552 -0.2417477658562035 5.041811904113086 -0.375 7.5625 C-0.421406250000004 8.619208984375 -0.421406250000004 8.619208984375 -0.46875 9.697265625 C-0.829422222789276 16.21942165377287 -2.1181730302173065 21.954253556766822 -5.5 27.625 C-7.273908081875703 30.686168813856312 -8.81252006716467 33.653465643827694 -10 37 C-10.659999999999997 37 -11.319999999999993 37 -12 37 C-12.329999999999998 37.66 -12.659999999999997 38.32 -13 39 C-18.854330560469762 33.44589151955433 -18.854330560469762 33.44589151955433 -19.16796875 28.1796875 C-19.235155913619764 16.81161941553669 -18.872266944507075 10.217694411831015 -10.875 1.75 C-7.187594351437127 -1.691578605325347 -4.812575032465446 -0.8020958387442398 0 0 Z " fill="#272B14" transform="translate(92,21)"/>
</svg>
