<?xml version="1.0" encoding="UTF-8"?>
<!-- Generator: visioncortex VTracer 0.6.0 -->
<svg version="1.1" xmlns="http://www.w3.org/2000/svg" width="128" height="128">
<path d="M0 0 C42.24 0 84.48 0 128 0 C128 42.24 128 84.48 128 128 C85.75999999999999 128 43.519999999999996 128 0 128 C0 85.75999999999999 0 43.519999999999996 0 0 Z " fill="#85A2B8" transform="translate(0,0)"/>
<path d="M0 0 C3.6839660787383934 3.2992949219223355 4.8631591673158425 7.44474710419847 5.165771484375 12.223876953125 C5.0917309570312455 13.42230224609375 5.017690429687505 14.6207275390625 4.94140625 15.85546875 C4.902256011962891 16.50992477416992 4.863105773925781 17.164380798339845 4.8227691650390625 17.838668823242188 C4.735894693485193 19.214862477149737 4.640473730417469 20.590541108172623 4.536865234375 21.965576171875 C4.384033626245326 24.03812778957014 4.2672939883166805 26.11048659581428 4.154296875 28.185546875 C3.1718616939199933 43.846084560890105 3.1718616939199933 43.846084560890105 -1.0546875 49.7421875 C-2.7003458670489664 50.45914688600729 -4.367200332313772 51.13013416807824 -6.0546875 51.7421875 C-10.02426686286256 58.70062661842968 -10.403693486930635 66.64082999300656 -10.79296875 74.4609375 C-11.143221358690624 78.85216423582281 -11.884038849030688 82.87045908990372 -14.0546875 86.7421875 C-16.617187499999986 88.7421875 -16.617187499999986 88.7421875 -19.0546875 89.7421875 C-20.044687499999995 90.2371875 -20.044687499999995 90.2371875 -21.0546875 90.7421875 C-27.61162314483493 91.86392075846382 -32.286712565938394 91.16031826380168 -37.8046875 87.3671875 C-46.38193171187086 80.38826333329996 -50.46475541776459 72.25270261094145 -54.578125 62.15625 C-56.96438832598005 56.63880516691384 -59.916791977061784 51.38669333643068 -63.703125 46.703125 C-65.87106951013678 43.55772573962814 -65.65351231354619 40.36803884355986 -65.0546875 36.7421875 C-62.81045289665656 30.49285729684364 -59.43098534615302 24.80084441195509 -53.4296875 21.6796875 C-51.210985359760244 20.65202133249163 -49.02869597941045 19.733515547593562 -46.7080078125 18.959228515625 C-39.82880862963296 16.60607080390892 -36.04424135016792 13.25568041188895 -31.4296875 7.7421875 C-21.783801439092485 -3.635011443634502 -13.754476045208548 -7.148383607724875 0 0 Z " fill="#AFC7C3" transform="translate(84.0546875,14.2578125)"/>
<path d="M0 0 C0 19.14 0 38.28 0 58 C-28.710000000000008 58 -57.42 58 -87 58 C-86 53 -86 53 -84.558837890625 51.490478515625 C-78.71544974702658 47.8771502936159 -73.19047786045758 46.823504375456096 -66.4375 45.9375 C-64.30394341038358 45.615570414657014 -62.17111964177671 45.288746072119324 -60.0390625 44.95703125 C-59.008134765625 44.79799316406249 -57.97720703125 44.63895507812501 -56.9150390625 44.47509765625 C-45.29786167510754 42.97367349780825 -45.29786167510754 42.97367349780825 -35.6875 37.125 C-32.14967213347714 30.573466913846545 -31.761571401052095 25.225208932175306 -31.9375 17.9375 C-32.14713262214366 7.277292955434888 -32.14713262214366 7.277292955434888 -31 3 C-29.545937500000008 3.5259374999999977 -29.545937500000008 3.5259374999999977 -28.0625 4.0625 C-20.38820226893671 6.200230229694981 -13.635441023605537 3.741066273640925 -6.48046875 0.83984375 C-4 0 -4 0 0 0 Z " fill="#325074" transform="translate(128,70)"/>
<path d="M0 0 C17.16 0 34.32 0 52 0 C48.82724218056172 9.51827345831484 42.268279994412396 13.447779464001222 33.75 18 C27.911697545766348 21.188363544699065 24.570818863607606 23.81427491821618 22 30 C21.4676171875 31.13953125 20.935234375 32.2790625 20.38671875 33.453125 C17.129250716576898 40.68832860633348 14.288016795191636 47.95766029369094 16 56 C16.979848564401568 57.67859303245842 17.98105488157829 59.34484785490205 19 61 C22.119090878939577 70.07488580827277 24.019525379003216 79.18430633013807 20 88.1875 C16.65583650961606 94.23748238288833 11.519177762970727 99.43669380964478 5 102 C3.3499999999999996 102 1.6999999999999997 102 0 102 C0 68.34 0 34.67999999999999 0 0 Z " fill="#536876" transform="translate(0,0)"/>
<path d="M0 0 C12.870000000000005 0 25.74000000000001 0 39 0 C39 23.1 39 46.2 39 70 C35.7 70.99 32.400000000000006 71.98 29 73 C27.597499999999997 73.556875 26.194999999999993 74.11375 24.75 74.6875 C19.6429927175638 76.47495254885267 16.737660840738926 76.83254020625084 11.8203125 74.4765625 C10.889609374999992 73.989296875 9.958906249999998 73.50203125 9 73 C10.245858423287174 41.951896661764295 10.245858423287174 41.951896661764295 16.5625 34.29296875 C18 33 18 33 20 33 C21.698454784288344 27.132610745185726 20.20094005441132 22.493102488740867 18 17 C14.632656033538098 11.20816837768552 7.933904132509994 6.966952066254994 2 4 C2 3.34 2 2.6799999999999997 2 2 C1.3400000000000034 2 0.6800000000000068 2 0 2 C0 1.3399999999999999 0 0.6799999999999999 0 0 Z " fill="#445E9C" transform="translate(89,0)"/>
<path d="M0 0 C2.7159396328881087 1.0714257267356828 4.829337968359567 2.5636863692020313 7.19140625 4.27734375 C8.048632812500003 4.894804687499999 8.905859375000006 5.512265624999998 9.7890625 6.1484375 C10.561210937499993 6.706601562499998 11.333359375 7.2647656249999955 12.12890625 7.83984375 C13.118906249999995 8.499843749999997 14.108906250000004 9.159843749999993 15.12890625 9.83984375 C15.80373234812528 13.839870349763714 15.5916045828087 17.91478444038438 15.56640625 21.96484375 C15.586386718750006 23.081171874999995 15.606367187499998 24.197500000000005 15.626953125 25.34765625 C15.622114949084676 33.55320260240012 14.186256740778148 38.590764993674924 9.4453125 45.1796875 C5.938539118296177 47.69297365046228 2.2333460881597063 48.44990035842065 -1.93359375 49.40234375 C-2.811767578125 49.6150390625 -3.68994140625 49.827734375000006 -4.5947265625 50.046875 C-11.475685521667998 51.65956134412798 -18.398459158669738 52.8311138083219 -25.426025390625 53.588134765625 C-30.936689074498297 54.29347537408543 -35.73170906774177 55.99181715254244 -39.87109375 59.83984375 C-40.20109375 61.15984374999999 -40.53109375 62.47984375 -40.87109375 63.83984375 C-45.82109375 63.83984375 -50.77109375 63.83984375 -55.87109375 63.83984375 C-51.9514532136521 52.08092214095632 -42.16169728874648 47.63841841633115 -31.87109375 41.83984375 C-29.3726050644252 40.59059940721261 -27.408377968318042 40.624769893673985 -24.62109375 40.46484375 C-18.30468934861394 39.91471641620453 -18.30468934861394 39.91471641620453 -12.87109375 36.83984375 C-10.011723358917578 31.90093125631219 -9.718152716538299 26.619546048926452 -9.43359375 21.02734375 C-9.073197022601022 14.253356281949635 -7.857661525473077 7.977755454075677 -4.87109375 1.83984375 C-1.87109375 -0.16015625 -1.87109375 -0.16015625 0 0 Z " fill="#728B99" transform="translate(81.87109375,64.16015625)"/>
<path d="M0 0 C-0.27714843750000284 0.7760156249999994 -0.5542968750000057 1.5520312499999989 -0.83984375 2.3515625 C-2.861703429269511 8.38116538693184 -4.243361132703541 13.881098256996921 -4.5625 20.25 C-4.841751915983309 25.816421525267145 -5.227574569116371 31.05489831307696 -8 36 C-10.5625 38 -10.5625 38 -13 39 C-13.990000000000009 39.495000000000005 -13.990000000000009 39.495000000000005 -15 40 C-20.16635175684582 40.88383795487485 -24.38438731717857 40.86646234327111 -29.06640625 38.35546875 C-39.413114762610704 30.929535476634925 -39.413114762610704 30.929535476634925 -40.46875 25.66015625 C-40.594108616692246 15.239721237456934 -37.09263013337448 4.752409680665124 -30 -3 C-19.899807539344437 -10.767636802701475 -9.891389627773805 -5.557533347563634 0 0 Z " fill="#C2BBB4" transform="translate(78,65)"/>
<path d="M0 0 C4.950000000000003 0 9.900000000000006 0 15 0 C15 0.66 15 1.32 15 2 C15.659999999999997 2 16.319999999999993 2 17 2 C17 2.66 17 3.3200000000000003 17 4 C17.720585937500005 4.255234375 18.441171874999995 4.51046875 19.18359375 4.7734375 C26.07222038535538 7.7734773938995705 32.518144783086 12.918884121068102 35.3671875 20 C35.576015625 20.66 35.78484374999999 21.32 36 22 C36.3441796875 22.990000000000002 36.3441796875 22.990000000000002 36.6953125 24 C37.247476514469156 26.243714090541353 37.423164645255156 27.721082066698816 37 30 C34.99772049060907 33.03062414872486 32.5584728788364 35.4415271211636 30 38 C27.884348795122747 41.17347680731589 27.535490276979985 42.789817366638665 27 46.5 C26.835000000000008 47.63953125 26.67 48.7790625 26.5 49.953125 C26.10672577478286 52.97949306124134 25.79256898648663 56.00918606999439 25.5 59.046875 C25.416210937499997 59.90732421875 25.332421874999994 60.7677734375 25.24609375 61.654296875 C25.083100425659694 63.373488367446534 24.929326805884727 65.09358094430327 24.78515625 66.814453125 C24.59225835096612 68.88387532253006 24.30458572436396 70.94404636054324 24 73 C23.00999999999999 73.495 23.00999999999999 73.495 22 74 C20.58235005605357 73.06398753700972 19.16592432238886 72.12612080080939 17.75 71.1875 C16.961093750000003 70.6654296875 16.172187500000007 70.143359375 15.359375 69.60546875 C13.189075194897072 68.1286587832826 11.085862324074213 66.59310127045119 9 65 C9.574021426917383 62.03422262759354 10.221401382570079 59.1224945203015 10.9609375 56.19140625 C12.376752658593574 49.81765678717925 12.786184562952371 43.37523693391761 13.25 36.875 C13.353125000000006 35.6387890625 13.456249999999997 34.402578125 13.5625 33.12890625 C14.244984300995839 24.355403279658077 14.244984300995839 24.355403279658077 12 16 C9.89483819076358 14.587544542756383 9.89483819076358 14.587544542756383 7 14 C5.434546325571034 13.488112898845891 3.8722197406240753 12.96660106956862 2.3125 12.4375 C1.1620117187499943 12.06431640625 1.1620117187499943 12.06431640625 -0.01171875 11.68359375 C-2 10.999999999999998 -2 10.999999999999998 -4 10 C-2.6666666666666714 6.666666666666669 -1.3333333333333286 3.333333333333331 0 0 Z " fill="#7C9BC3" transform="translate(74,0)"/>
<path d="M0 0 C6.738205990393027 0.3208669519234775 12.818625866419453 1.3596528843836868 18 6 C20.57010567694732 11.014472328603684 21.349634041117184 14.390852707706138 20.99609375 20.11328125 C20.95694351196289 20.76773727416992 20.91779327392578 21.422193298339845 20.877456665039063 22.096481323242188 C20.790582193485193 23.472674977149737 20.695161230417455 24.848353608172623 20.591552734375 26.223388671875 C20.438721126245326 28.29594028957014 20.32198148831668 30.36829909581428 20.208984375 32.443359375 C19.205174298637516 48.44654218065371 19.205174298637516 48.44654218065371 15 54 C12.361083984374972 54.755126953125 12.361083984374972 54.755126953125 10 55 C9.147285156250007 53.93072265625 9.147285156250007 53.93072265625 8.27734375 52.83984375 C2.978180182326753 46.26163358573235 2.978180182326753 46.26163358573235 -2.9375 40.25 C-7.002804881675942 36.29762025392617 -7.892596215920392 32.391911299502674 -8.14453125 26.78125 C-7.986169591138065 22.63816660058511 -7.276227533235577 18.997692330962465 -6.25 15 C-6.092734374999999 14.327109375 -5.935468749999998 13.654218749999998 -5.7734375 12.9609375 C-4.552522827387257 8.09606211220462 -2.6420068603940052 4.262733757946622 0 0 Z " fill="#A4D0E6" transform="translate(68,10)"/>
<path d="M0 0 C17.16 0 34.32 0 52 0 C48.79812943034325 9.605611708970233 41.727124365880705 14.08206667024075 32.953125 18.640625 C29.847216060721145 20.07032911490614 26.711503526481092 21.265529518772304 23.5 22.4375 C17.936016625671428 24.468585488607456 13.353737807713461 27.120990121254724 8.53515625 30.546875 C6.000000000000002 32 6.000000000000002 32 0 33 C0 22.11 0 11.219999999999999 0 0 Z " fill="#84572D" transform="translate(0,0)"/>
<path d="M0 0 C7.259999999999998 0 14.52000000000001 0 22 0 C21.113028294644863 4.434858526775653 20.608086289741806 6.503317938974471 18 10 C15.546874999999986 11.554687500000007 15.546874999999986 11.554687500000007 12.75 12.875 C6.77135970092489 15.958719733207161 2.489256707700342 19.553851600898717 -1.453125 25.01171875 C-5.581099988449601 30.48441286347485 -10.190988754325708 32.722218589097906 -16.58203125 34.834228515625 C-23.46049517459891 37.18052928990507 -27.55918511697852 41.71161417930556 -31 48 C-31.877279137621166 51.305904998832304 -32.49218716953202 54.61903562872637 -33 58 C-34.32 57.34 -35.64 56.68 -37 56 C-38.27975758923547 44.60067776995808 -33.848734112318205 33.05567942457192 -27.46484375 23.6328125 C-23.347743170332492 19.04361772053062 -17.683768170579626 16.353203159751402 -12.3125 13.5 C-6.141303248267697 10.13389268087329 -2.6706586760213327 6.676646690053327 0 0 Z " fill="#8F8F7C" transform="translate(52,0)"/>
<path d="M0 0 C0 9.900000000000006 0 19.799999999999997 0 30 C-12.870000000000005 30 -25.74000000000001 30 -39 30 C-38 24 -38 24 -35.5625 21.625 C-33 20 -33 20 -31 20 C-31 19.340000000000003 -31 18.680000000000007 -31 18 C-30.010000000000005 17.340000000000003 -29.019999999999996 16.680000000000007 -28 16 C-24.607546923722595 13.710950853582517 -22.40258879649639 11.133286925619501 -19.9375 7.875 C-13.683436582925992 -0.16081379784652938 -10.771226327104884 0 0 0 Z " fill="#0A2951" transform="translate(128,98)"/>
<path d="M0 0 C12.870000000000005 0 25.74000000000001 0 39 0 C39 10.56 39 21.12 39 32 C32.87678085993127 32 27.88623674291712 31.856179889878852 22 31 C21.762167968749992 29.82244140625 21.762167968749992 29.82244140625 21.51953125 28.62109375 C19.043197949864833 17.470753199667634 15.675026696986052 12.713735992287521 6.20703125 6.3828125 C4.0724381139160215 4.996253682863207 4.0724381139160215 4.996253682863207 2 4 C2 3.34 2 2.6799999999999997 2 2 C1.3400000000000034 2 0.6800000000000068 2 0 2 C0 1.3399999999999999 0 0.6799999999999999 0 0 Z " fill="#806F8E" transform="translate(89,0)"/>
<path d="M0 0 C0.6600000000000001 0.3299999999999983 1.3200000000000003 0.6600000000000001 2 1 C1.4160546875000009 1.6574218750000007 0.8321093750000017 2.3148437500000014 0.23046875 2.9921875 C-2.3918127868858576 6.528364003331191 -3.998175494057527 10.083870789706243 -5.6875 14.125 C-5.99494140625 14.840429687499999 -6.302382812499999 15.555859374999997 -6.619140625 16.29296875 C-8.875680069951922 21.576332439493555 -10.124249595260165 25.44478764080462 -10.0625 31.1875 C-10.0534765625 32.2741796875 -10.044453125 33.360859375 -10.03515625 34.48046875 C-10.0235546875 35.3119140625 -10.011953125 36.143359375 -10 37 C-10.66 37 -11.32 37 -12 37 C-12 37.66 -12 38.32 -12 39 C-13.5390625 40.69140625 -13.5390625 40.69140625 -15.625 42.5625 C-16.6343359375 43.49255859375 -16.6343359375 43.49255859375 -17.6640625 44.44140625 C-20 46 -20 46 -26 47 C-26 35.78 -26 24.560000000000002 -26 13 C-23.03 11.68 -20.06 10.36 -17 9 C-15.268430510158808 8.019097061848964 -13.554557718869914 7.0050154992817255 -11.875 5.9375 C-7.996646635261875 3.557326751235479 -4.294258673552637 1.5208832802165588 0 0 Z " fill="#726757" transform="translate(26,20)"/>
<path d="M0 0 C1.4286805320892597 5.536137061845906 1.815961960178356 11.552114119464932 0 17 C-15.840000000000003 17 -31.68 17 -48 17 C-47 12 -47 12 -45.5654296875 10.49267578125 C-39.67804375897491 6.84759748976245 -34.05494479963763 5.780266934766729 -27.25 4.875 C-25.115335986285444 4.558369772440614 -22.981208913833655 4.238096731371527 -20.84765625 3.9140625 C-19.835903320312497 3.762275390625007 -18.824150390624993 3.6104882812499994 -17.78173828125 3.4541015625 C-13.460471964064254 2.7486815739125348 -9.289376566641266 1.7001536540038273 -5.07421875 0.515625 C-3 0 -3 0 0 0 Z " fill="#4D5058" transform="translate(89,111)"/>
<path d="M0 0 C0.6898095703124909 0.16588623046874318 1.3796191406250102 0.33177246093750057 2.09033203125 0.502685546875 C5.509594690743427 1.3547821993570324 8.514656020356654 2.3607300464136074 11.625 4 C8.542354025803945 4.628420707499316 5.45875673936041 5.252054828602354 2.375 5.875 C1.460732421875008 6.061350097656245 0.5464648437500017 6.247700195312504 -0.3955078125 6.439697265625 C-5.295590931890942 7.427253812237311 -10.16782413232815 8.279524337151798 -15.125 8.9375 C-20.173656728016695 9.746717319526084 -24.67924945441274 11.334625486294271 -28.375 15 C-28.705 16.319999999999993 -29.034999999999997 17.64 -29.375 19 C-34.325 19 -39.275 19 -44.375 19 C-40.4553594636521 7.241078390956318 -30.66560353874648 2.798574666331149 -20.375 -3 C-15.064156721257461 -5.655421639371269 -5.660581770595954 -1.380739498008353 0 0 Z " fill="#737A86" transform="translate(70.375,109)"/>
</svg>
