<?xml version="1.0" encoding="UTF-8"?>
<!-- Generator: visioncortex VTracer 0.6.0 -->
<svg version="1.1" xmlns="http://www.w3.org/2000/svg" width="128" height="128">
<path d="M0 0 C42.24 0 84.48 0 128 0 C128 42.24 128 84.48 128 128 C85.75999999999999 128 43.519999999999996 128 0 128 C0 85.75999999999999 0 43.519999999999996 0 0 Z " fill="#C0A587" transform="translate(0,0)"/>
<path d="M0 0 C3.758802157589429 3.3578632607798866 7.302970814035092 6.79970049591725 8.84765625 11.67578125 C9.81688158777861 14.274372358641429 9.81688158777861 14.274372358641429 12.71484375 15.109375 C13.7783203125 15.320781249999996 14.841796875 15.5321875 15.9375 15.75 C17.528847656250008 16.082578124999998 17.528847656250008 16.082578124999998 19.15234375 16.421875 C20.56193359375 16.708046875 20.56193359375 16.708046875 22 17 C22.99000000000001 17.33 23.97999999999999 17.659999999999997 25 18 C25 34.5 25 51 25 68 C22.03 68.99 19.060000000000002 69.98 16 71 C15.030625 71.556875 14.061250000000001 72.11375 13.0625 72.6875 C8.659710371751402 74.57440984067797 4.718932798240232 74.66755634706813 0 74 C-4.330098817480035 72.11050233419053 -5.634589230219234 70.81852012430892 -7.5625 66.5 C-7.780351562500002 65.8155078125 -7.998203125000003 65.131015625 -8.22265625 64.42578125 C-9.176356739949313 61.44966062558534 -10.320717438183195 58.58146640540801 -11.5 55.6875 C-11.902187499999997 54.6807421875 -12.304374999999993 53.673984375 -12.71875 52.63671875 C-13.783801678713814 50.03184473093731 -13.783801678713814 50.03184473093731 -15.466064453125 48.661376953125 C-17.45144219750371 46.51105138405018 -17.988164551997954 44.57893731337231 -18.82421875 41.78125 C-19.13037109375 40.7667578125 -19.4365234375 39.75226562500001 -19.751953125 38.70703125 C-20.215048828124992 37.11955078125 -20.215048828124992 37.11955078125 -20.6875 35.5 C-21.007832031250004 34.4416796875 -21.328164062500008 33.383359375 -21.658203125 32.29296875 C-24 24.43371868336888 -24 24.43371868336888 -24 21 C-27.45007331593463 19.583005439690766 -27.45007331593463 19.583005439690766 -31.0078125 18.48046875 C-36.37250598321302 16.94628518930255 -36.37250598321302 16.94628518930255 -38.21484375 14.16796875 C-39.69494061339282 10.491599121572662 -40.51910227761731 7.801650828088441 -39 4 C-29.413883477300004 -5.50533464189073 -11.203396333187698 -6.66531174252939 0 0 Z " fill="#E5BB9A" transform="translate(103,29)"/>
<path d="M0 0 C6.088727967908312 5.193326796157095 8.479359742851045 11.667708880281708 10.8671875 19.1328125 C11.893933781508025 22.259197244816576 12.805525482729479 24.502706528707378 15.1875 26.8125 C20.532698855891 28.63214216370757 25.546801000273206 28.88861784336423 30.8203125 26.6875 C32.50361476400484 25.80313821353775 34.16671711445933 24.87858568395808 35.80078125 23.90625 C38.125 22.8125 38.125 22.8125 43.125 22.8125 C43.125 33.042500000000004 43.125 43.27250000000001 43.125 53.8125 C21.674999999999997 53.8125 0.22499999999999432 53.8125 -21.875 53.8125 C-20.705188679245282 47.96344339622641 -20.705188679245282 47.96344339622641 -17.875 45.8125 C-17.215000000000003 45.8125 -16.555000000000007 45.8125 -15.875 45.8125 C-15.627499999999998 45.25562500000001 -15.379999999999995 44.69874999999999 -15.125 44.125 C-13.875 41.8125 -13.875 41.8125 -11.875 39.4375 C-9.734694262292422 36.62834871925881 -8.818298445742187 34.192652763909535 -7.875 30.8125 C-8.532421874999997 30.728710937499997 -9.189843749999994 30.644921874999994 -9.8671875 30.55859375 C-13.896043208491037 29.559228243088583 -17.322129410868342 27.767529037212554 -21 25.875 C-21.7154296875 25.514707031249998 -22.430859374999997 25.154414062499995 -23.16796875 24.783203125 C-26.202670910385898 23.243162682860245 -29.03616361486074 21.705057590092835 -31.875 19.8125 C-31.875 19.152500000000003 -31.875 18.492500000000007 -31.875 17.8125 C-32.865 17.4825 -33.855 17.152500000000003 -34.875 16.8125 C-35.8125 15.0625 -35.8125 15.0625 -35.875 12.8125 C-31.94197702280566 5.69560127936262 -22.717266568896278 1.5288134460542153 -15.171875 -0.71875 C-9.941076035622814 -1.786259992730038 -4.9782709315174145 -2.0562423412789315 0 0 Z " fill="#AC8363" transform="translate(84.875,74.1875)"/>
<path d="M0 0 C42.24 0 84.48 0 128 0 C128 7.590000000000001 128 15.180000000000001 128 23 C122.63127424015906 22.23303917716558 120.1704473151087 21.869874983286604 115.6875 19.625 C108.32690486151782 16.18004118688725 102.2595420233152 13.592560167787806 94.01171875 14.34765625 C92.86767578125 14.449814453125 91.7236328125 14.55197265625 90.544921875 14.6572265625 C89.37509765625 14.770341796875 88.2052734375 14.88345703125 87 15 C85.90236328125 15.100224609375 84.8047265625 15.20044921875 83.673828125 15.3037109375 C71.44737467094599 16.45516243629237 59.71860911462395 17.816994654797902 47.890625 21.1640625 C42.35025839127192 22.354462554485753 36.89056556817373 22.41725944568834 31.2421875 22.569091796875 C23.077735427363884 22.865561873110714 15.994012538708919 24.719953201126575 8.52734375 28.12890625 C6.000000000000002 29 6.000000000000002 29 0 29 C0 19.43 0 9.86 0 0 Z " fill="#643517" transform="translate(0,0)"/>
<path d="M0 0 C4.819534063832052 1.9393135983532446 9.719261420487186 3.67383653926807 14.6015625 5.44921875 C14.6015625 13.369218750000002 14.6015625 21.289218750000003 14.6015625 29.44921875 C0.5635440668202847 26.641615063364057 0.5635440668202847 26.641615063364057 -2.35546875 23.0234375 C-2.9677734375 22.070820312500004 -3.580078125 21.118203125 -4.2109375 20.13671875 C-8.480284723383363 13.978851204741954 -12.93663754751212 9.950409272985727 -20.3984375 8.44921875 C-29.881992424347672 7.759505664592897 -39.86065389400042 9.49917561779614 -47.51953125 15.36328125 C-52.00351896904327 17.954858351650785 -56.33029498350902 17.494604027963263 -61.2109375 16.44921875 C-71.0573122400435 14.71732257801203 -76.2879312551819 15.993622103720767 -84.8046875 21.26171875 C-89.19925048118657 23.977802814761148 -93.72489868012997 26.439885499035235 -98.2734375 28.88671875 C-99.48652587890625 29.560455322265625 -99.48652587890625 29.560455322265625 -100.72412109375 30.247802734375 C-101.5009423828125 30.66360595703125 -102.277763671875 31.079409179687502 -103.078125 31.5078125 C-103.7663232421875 31.882204589843752 -104.454521484375 32.2565966796875 -105.16357421875 32.642333984375 C-107.3984375 33.44921875 -107.3984375 33.44921875 -113.3984375 33.44921875 C-113.3984375 26.189218749999995 -113.3984375 18.929218749999997 -113.3984375 11.44921875 C-110.7584375 10.78921875 -108.1184375 10.12921875 -105.3984375 9.44921875 C-102.63934652510679 8.478223918198275 -99.92825549053264 7.42306981610869 -97.20703125 6.3515625 C-91.9493307824863 4.662370833802971 -86.67425417344722 4.373085672800634 -81.199462890625 4.20947265625 C-73.81637372767625 3.9695162192820916 -67.2269138945241 3.0819248976687845 -60.090087890625 1.03857421875 C-50.07611786586929 -1.6577296839243676 -39.60572166807631 -2.2453885096422876 -29.315673828125 -3.2509765625 C-26.818629117594014 -3.507598112799778 -24.335366835313877 -3.8075858064131047 -21.84765625 -4.140625 C-13.757446622359865 -5.102654457420401 -7.482936563102655 -3.0647169127952747 0 0 Z " fill="#A47340" transform="translate(113.3984375,17.55078125)"/>
<path d="M0 0 C5.59096969892088 0.6409537085779462 11.214082504393595 0.9488844721998575 16.828125 1.32421875 C17.818125000000002 4.954218750000003 18.808125000000004 8.584218750000005 19.828125 12.32421875 C13.552224153206488 15.365032080882457 7.637693232509861 16.270446229541363 0.767578125 17.140625 C-4.116838650785226 17.819992321332236 -7.816548445878688 18.86165817203066 -12.171875 21.32421875 C-13.161875000000002 21.65421875 -14.151874999999997 21.984218749999997 -15.171875 22.32421875 C-16.338541666666668 24.24088541666667 -16.338541666666668 24.24088541666667 -17.171875 26.32421875 C-17.501875 26.984218749999997 -17.831875 27.64421875 -18.171875 28.32421875 C-18.188023835256185 29.993899446937263 -18.137032782907994 31.664501613778782 -18.05078125 33.33203125 C-18.00244140625 34.3181640625 -17.9541015625 35.304296875000006 -17.904296875 36.3203125 C-17.84822265625 37.35285156250001 -17.7921484375 38.385390625 -17.734375 39.44921875 C-17.656064453125 41.00962890625 -17.656064453125 41.00962890625 -17.576171875 42.6015625 C-17.44626553803119 45.17606990538181 -17.31129247783887 47.75021171017215 -17.171875 50.32421875 C-17.831875 50.32421875 -18.491875 50.32421875 -19.171875 50.32421875 C-19.501875 51.31421875000001 -19.831875 52.30421874999999 -20.171875 53.32421875 C-21.674804687499993 54.551025390625 -21.674804687499993 54.551025390625 -23.59375 55.734375 C-24.28984375 56.16685546875 -24.9859375 56.5993359375 -25.703125 57.044921875 C-26.80140625 57.709111328125005 -26.80140625 57.709111328125005 -27.921875 58.38671875 C-28.63859375 58.833378906250005 -29.3553125 59.28003906250001 -30.09375 59.740234375 C-35.63161280204662 63.14540920456727 -39.50072302883075 65.32421875 -46.171875 65.32421875 C-46.171875 49.814218749999995 -46.171875 34.30421874999999 -46.171875 18.32421875 C-43.531875 17.664218750000003 -40.891875 17.00421875 -38.171875 16.32421875 C-35.71092437433062 15.334000473749882 -35.71092437433062 15.334000473749882 -33.5859375 14.15234375 C-32.414179687499995 13.530572509765626 -32.414179687499995 13.530572509765626 -31.21875 12.896240234375 C-30.41953125 12.459973144531247 -29.6203125 12.023706054687501 -28.796875 11.57421875 C-27.964140625 11.128283691406253 -27.13140625 10.682348632812499 -26.2734375 10.222900390625 C-21.084620877156635 7.425297209500172 -15.97262810872115 4.527193477461722 -10.984375 1.3828125 C-7.113146557758547 -0.8781851462229184 -4.3321095031438475 -0.5522722379835727 0 0 Z " fill="#B88C66" transform="translate(46.171875,32.67578125)"/>
<path d="M0 0 C3.5073587925842773 1.3050637367755513 6.4886172575606125 3.0555810781250727 9.6875 5 C9.6875 5.659999999999997 9.6875 6.319999999999993 9.6875 7 C10.677500000000002 7.329999999999998 11.667499999999997 7.659999999999997 12.6875 8 C13.930764697971327 10.858843957901982 14.26133405608796 13.926164787528066 14.6875 17 C14.808671875000002 17.853359374999997 14.929843750000003 18.706718749999993 15.0546875 19.5859375 C15.599954906380773 27.023384923033746 13.108172523864262 31.848053561332748 9.31640625 38.15234375 C7.478908097201227 41.06604675124012 7.478908097201227 41.06604675124012 6.6875 45 C-5.192500000000003 45 -17.0725 45 -29.3125 45 C-29.3125 35.099999999999994 -29.3125 25.200000000000003 -29.3125 15 C-24.3625 13.515 -24.3625 13.515 -19.3125 12 C-15.65424441083428 10.17857502544608 -15.65424441083428 10.17857502544608 -12.4375 8.0625 C-11.367578125000001 7.393476562499998 -10.29765625 6.724453124999997 -9.1953125 6.03515625 C-6.294427883027453 4.111991374159317 -6.294427883027453 4.111991374159317 -4.07421875 1.74609375 C-2.3125 0 -2.3125 0 0 0 Z " fill="#CAAE89" transform="translate(29.3125,83)"/>
<path d="M0 0 C2.125 2.25 2.125 2.25 2.125 4.25 C2.782421874999997 4.4962109374999955 3.4398437500000014 4.742421875000005 4.1171875 4.99609375 C7.927445877531582 6.5845261385553755 11.57274806191323 8.440383576147084 15.25 10.3125 C16.668314147438508 11.034434678651138 18.087550500025543 11.754561164031614 19.5078125 12.47265625 C20.441979980468744 12.948441162109376 20.441979980468744 12.948441162109376 21.39501953125 13.433837890625 C23.29921669978731 14.374062425408184 23.29921669978731 14.374062425408184 26.125 15.25 C25.96354450375776 21.54676435344699 22.341521713973577 25.86793355360713 18.125 30.25 C17.465000000000003 30.25 16.805000000000007 30.25 16.125 30.25 C15.795000000000002 31.24000000000001 15.465000000000003 32.22999999999999 15.125 33.25 C14.465000000000003 33.25 13.805000000000007 33.25 13.125 33.25 C12.795000000000002 34.900000000000006 12.465000000000003 36.55 12.125 38.25 C3.2150000000000034 38.25 -5.695 38.25 -14.875 38.25 C-13.992491915956933 32.95495149574161 -13.499919551147407 31.26199012602467 -10.8125 27.0625 C-7.500810730539733 21.215546218034262 -7.205450626461342 16.832330460985645 -7.875 10.25 C-7.956210937500003 9.288359374999999 -8.037421875 8.326718749999998 -8.12109375 7.3359375 C-8.337853604959179 4.968252930445914 -8.588309914722501 2.6100737377308576 -8.875 0.25 C-3.6113465160075293 -2.1982109227871973 -3.6113465160075293 -2.1982109227871973 0 0 Z " fill="#BA9A6D" transform="translate(50.875,89.75)"/>
<path d="M0 0 C4.5887513324818485 4.099284523683778 7.942692262448858 8.167532564042503 10 14 C1.219027695951496 21.555720354646382 -9.261636358957873 22.582409475950087 -20.451904296875 21.79052734375 C-25.634107017741 21.268816304368265 -28.83803280540951 20.026885232429436 -33 17 C-33.6793359375 16.8723828125 -34.358671875 16.744765625 -35.05859375 16.61328125 C-37 16 -37 16 -38.08203125 14.29296875 C-38.3230859375 13.598164062500004 -38.56414062499999 12.903359375 -38.8125 12.1875 C-39.0664453125 11.500429687500002 -39.320390625 10.813359374999997 -39.58203125 10.10546875 C-40.071588828246014 7.639379640891562 -39.951545594908545 6.323875171485184 -39 4 C-29.413883477300004 -5.50533464189073 -11.203396333187698 -6.66531174252939 0 0 Z " fill="#E1B27C" transform="translate(103,29)"/>
<path d="M0 0 C13.530000000000001 0 27.060000000000002 0 41 0 C41 7.590000000000001 41 15.180000000000001 41 23 C35.631274240159115 22.233039177165587 33.17044731510869 21.869874983286596 28.6875 19.625 C14.49842279904533 12.984125772614414 3.9085985659532554 14.445640387950478 -11.38671875 16.58984375 C-16.276646092920743 17.144916583520732 -21.087332909277805 17.183842011711018 -26 17 C-22.861769608105888 12.900838596634443 -17.668556127032133 11.921934720518143 -12.98046875 10.337890625 C-6.842470210949102 8.171874380772541 -3.019890419027675 6.039780838055348 0 0 Z " fill="#7A4A2C" transform="translate(87,0)"/>
<path d="M0 0 C0 10.230000000000004 0 20.460000000000008 0 31 C-12.539999999999992 31 -25.08 31 -38 31 C-36.88706564553583 23.209459518750833 -35.69442792942846 20.940620085500925 -30 16 C-26.415108995166676 13.44871274764688 -22.678179351298255 11.15712614402949 -18.9140625 8.8828125 C-15.94556953498531 7.314938787936143 -15.94556953498531 7.314938787936143 -15 5 C-12.890625 3.7109375 -12.890625 3.7109375 -10.25 2.375 C-9.388906250000005 1.9289843749999989 -8.527812499999996 1.4829687499999977 -7.640625 1.0234375 C-5 0 -5 0 0 0 Z " fill="#89887B" transform="translate(128,97)"/>
<path d="M0 0 C-1.4322916666666643 1.1067708333333321 -2.8645833333333357 2.213541666666668 -4.296875 3.3203125 C-6.2043403973767255 5.063641113633707 -6.2043403973767255 5.063641113633707 -7.7890625 7.9609375 C-10.414495873508706 11.56974874485826 -12.585708253005023 12.672914597811584 -16.625 14.5 C-20.919891320565817 16.505134997835995 -25.094433188860563 18.556481998918173 -29.125 21.0625 C-32.772005635884966 23.295237773784365 -36.46251264872872 25.388197667084967 -40.25 27.375 C-41.20390625 27.877734375000003 -42.1578125 28.38046875 -43.140625 28.8984375 C-46 30 -46 30 -52 30 C-52 22.739999999999995 -52 15.479999999999997 -52 8 C-49.36 7.34 -46.72 6.68 -44 6 C-41.24090902510679 5.029005168198275 -38.529817990532635 3.97385106610869 -35.80859375 2.90234375 C-28.900223523454628 0.6828256382726252 -21.599137020482864 0.7099743290869824 -14.408203125 0.39453125 C-13.640566406250002 0.35714843750000114 -12.872929687499997 0.3197656249999987 -12.08203125 0.28125 C-11.049129638671872 0.23581054687500114 -11.049129638671872 0.23581054687500114 -9.995361328125 0.189453125 C-7.9611846664367505 0.04896536089857051 -7.9611846664367505 0.04896536089857051 -5.885498046875 -0.544921875 C-3.6140399116503588 -1.0931541634965356 -2.1982314483922067 -0.7065743941260649 0 0 Z " fill="#9D623D" transform="translate(52,21)"/>
<path d="M0 0 C0.5994140625000028 0.33386718750000455 1.1988281250000057 0.6677343749999949 1.81640625 1.01171875 C4.358679615273601 2.1623362122794703 6.4751652101871855 2.405934095541099 9.25 2.625 C10.142031250000002 2.6997656249999977 11.034062500000005 2.7745312499999955 11.953125 2.8515625 C12.966328125000004 2.925039062500005 12.966328125000004 2.925039062500005 14 3 C11.421935466671727 5.870422367004679 8.440794329555928 7.703902937386204 5.1875 9.75 C-2.988777691969574 15.158009549585671 -6.274380206433165 18.46033072251609 -9 28 C-17.909999999999997 28 -26.819999999999993 28 -36 28 C-34.83018867924528 22.15094339622641 -34.83018867924528 22.15094339622641 -32 20 C-31.340000000000003 20 -30.680000000000007 20 -30 20 C-29.752499999999998 19.443124999999995 -29.504999999999995 18.886250000000004 -29.25 18.3125 C-28 16 -28 16 -26 13.625 C-23.785968409058682 11.116842987101009 -23.785968409058682 11.116842987101009 -23.375 7.875 C-22 5 -22 5 -19.90234375 4.05859375 C-18.146376245662708 3.552726791736916 -16.378229159790862 3.0876826652522738 -14.6015625 2.66015625 C-12.26028015728437 2.0660470669385234 -10.34473279323798 1.3096099402908976 -8.1875 0.25 C-4.736350122880793 -1.1033921086741998 -3.4384727020349004 -1.2081120304446955 0 0 Z " fill="#A08A66" transform="translate(99,100)"/>
<path d="M0 0 C22.439999999999998 0 44.88 0 68 0 C65.72253761040606 5.693655973984839 64.15022186064394 7.501918103370002 58.68359375 10.1015625 C45.089763599886766 15.60241371067173 28.23218832057485 15.770454962722233 14.61328125 10.2421875 C3.216630196936542 4.824945295404813 3.216630196936542 4.824945295404813 0 0 Z " fill="#452008" transform="translate(19,0)"/>
<path d="M0 0 C1.9008557082174775 0.8585321807975603 3.7880153727746233 1.748403599544691 5.65625 2.67578125 C8.317057300091832 4.011737611327362 8.317057300091832 4.011737611327362 12.13671875 4.83203125 C12.13671875 12.752031250000002 12.13671875 20.672031250000003 12.13671875 28.83203125 C-1.9012996831797295 26.024427563364057 -1.9012996831797295 26.024427563364057 -4.8203125 22.40625 C-5.4326171875 21.453632812500004 -6.044921875 20.501015625 -6.67578125 19.51953125 C-12.146874521587605 11.677288736880062 -17.603109718119015 8.650993515190908 -26.86328125 6.83203125 C-17.965958219397507 -0.05354275037301903 -10.91471514637324 -4.4522507895847205 0 0 Z " fill="#C18A63" transform="translate(115.86328125,18.16796875)"/>
</svg>
