<?xml version="1.0" encoding="UTF-8"?>
<!-- Generator: visioncortex VTracer 0.6.0 -->
<svg version="1.1" xmlns="http://www.w3.org/2000/svg" width="128" height="128">
<path d="M0 0 C42.24 0 84.48 0 128 0 C128 42.24 128 84.48 128 128 C85.75999999999999 128 43.519999999999996 128 0 128 C0 85.75999999999999 0 43.519999999999996 0 0 Z " fill="#827266" transform="translate(0,0)"/>
<path d="M0 0 C7.700123139290355 4.528693713683861 11.971223879357467 9.594733308165061 14.23828125 18.31640625 C14.528660385599537 21.394425087355103 14.500223182230158 23.49228484918232 13.5703125 26.41796875 C13.078322111374177 30.712755436592495 14.371130273373709 34.28575449457453 15.61328125 38.37890625 C16.079610149684527 39.9739048217232 16.545762079259333 41.56895514703835 17.01171875 43.1640625 C17.32761962890625 44.21605834960937 17.32761962890625 44.21605834960937 17.64990234375 45.289306640625 C20.44122557420809 54.90605219352691 17.528195912155354 63.029107373262434 12.8671875 71.7109375 C9.370921760177424 77.30328581765386 4.901375345464118 80.06925952458393 -1.39453125 81.9453125 C-7.44662874917681 82.89407365911188 -13.72010230097029 80.56544796159692 -18.76171875 77.31640625 C-25.695713517205434 70.61520747018275 -26.975858929932038 64.66967901041676 -27.76171875 55.31640625 C-27.874819600584352 52.47622237633489 -27.874819600584352 52.47622237633489 -28.76171875 50.31640625 C-30.030156249999997 49.697656249999994 -30.030156249999997 49.697656249999994 -31.32421875 49.06640625 C-32.12859375 48.48890625 -32.93296875 47.91140625 -33.76171875 47.31640625 C-33.94921875 43.37890625 -33.94921875 43.37890625 -33.796875 40.96875 C-33.757184456151194 37.974318969628946 -34.27361386764741 35.36983888682694 -34.88671875 32.44140625 C-36.37215521396432 24.041743942978727 -35.311927073307345 16.328204578795432 -30.3828125 9.234375 C-21.90346433634481 -0.7978176466378297 -12.57261257594152 -6.232020396019372 0 0 Z " fill="#733C14" transform="translate(66.76171875,8.68359375)"/>
<path d="M0 0 C12.540000000000006 0 25.08 0 38 0 C38 42.24 38 84.48 38 128 C28.75999999999999 128 19.519999999999996 128 10 128 C10 121.04195072337208 10.011043687552203 114.13237089620291 10.3125 107.1875 C10.335058593750006 106.38119140625 10.357617187499997 105.5748828125 10.380859375 104.744140625 C10.607893423201418 99.69572897135747 11.615460455308948 96.52325027034178 14 92 C14.638595317511303 88.49348449742496 14.638595317511303 88.49348449742496 14.9375 84.8125 C16.47614725605341 71.54389206425446 22.346701375363608 61.330510691955574 29 50 C28.053828124999995 49.6919140625 27.107656250000005 49.383828125 26.1328125 49.06640625 C22.948433755552088 47.982446901827586 21.32328453303772 47.40072735080565 19 45 C18.00268104142978 42.88184092744031 17.137116719109372 40.72288261240183 16.25390625 38.5546875 C14.866053343707748 35.7270993357784 13.166112745708304 33.572532529373284 11.1875 31.125 C7.403418368648843 26.119788836580558 5.153333008836583 21.026763559315977 3 15.1875 C2.6973120117187506 14.3749072265625 2.394624023437501 13.562314453125 2.082763671875 12.72509765625 C0.4196945948467601 7.992834841346418 0 5.284140799201448 0 0 Z " fill="#E4CAAE" transform="translate(90,0)"/>
<path d="M0 0 C13.607142857142856 2.2678571428571423 13.607142857142856 2.2678571428571423 17 6 C20.52787188044052 11.291807820660786 20.074353986911472 17.799361470150764 20.239013671875 24.003662109375 C20.29102226088021 35.19343277723707 20.29102226088021 35.19343277723707 25 45 C26.0196484375 45.57234375 27.039296875 46.1446875 28.08984375 46.734375 C31 49 31 49 31.8046875 52.64453125 C31.85753299326499 54.03304658553757 31.88013208168877 55.42298888276525 31.875 56.8125 C31.895625 57.498925781249994 31.91625 58.1853515625 31.9375 58.892578125 C31.973867184076834 60.26543932390052 31.993078468840878 61.63886540477321 31.994873046875 63.01220703125 C31.999683325677925 64.87722084141303 32.06604830511693 66.74178816065508 32.13671875 68.60546875 C31.9886181284803 72.28259561001768 31.174426442592903 75.04499190272355 29.9375 78.5 C28.289890576416155 83.57579324177759 27.828309756011098 86.72739390204995 29 92 C30.14510206756338 102.06301816949636 27.03564374626027 110.51361329293667 24 120 C16.08 120 8.16 120 0 120 C0 80.4 0 40.8 0 0 Z " fill="#B9967C" transform="translate(0,8)"/>
<path d="M0 0 C4.754816455917521 0.5763413885960631 7.970482121938545 2.5506852113744145 12 5 C10.695946422588932 9.37928440175358 8.973368578485292 12.939556283594598 6.5625 16.8125 C1.3573130353049123 25.6246007535087 -0.36706756122558204 33.33839647354411 -1.375 43.44921875 C-2 47 -2 47 -5 53 C-5.659999999999997 62.900000000000006 -6.319999999999993 72.8 -7 83 C-32.08 83 -57.160000000000004 83 -83 83 C-81.90233362143474 74.21866897147795 -81.90233362143474 74.21866897147795 -80.4375 70.6875 C-78.23026025228278 64.45339359059378 -78.3239807030912 58.04208683608965 -79.75 51.625 C-80.15558895437455 45.74396016156905 -77.92838611889668 40.503762957366064 -76 35 C-73.94713089829808 37.665128307472656 -72.1362923626015 40.38661241635546 -70.375 43.25 C-64.79436411741526 51.63476727903203 -57.2452280612597 57.712033243812726 -47.625 60.75 C-46.75875 60.83250000000001 -45.8925 60.91499999999999 -45 61 C-44.2819921875 61.0863671875 -43.563984375 61.172734375000005 -42.82421875 61.26171875 C-34.226946778490856 61.86339408237623 -29.119163543454647 58.440795353785546 -22.69921875 53.078125 C-16.667287975580862 46.85873019785669 -15.96016832402799 40.50897151210903 -15.001220703125 32.259765625 C-14.236136407930346 25.840051223713473 -12.942076725923059 21.224565687423365 -9 16 C-7.767895802690774 14.272925218026586 -6.5388489409319135 12.543666176492238 -5.3125 10.8125 C-4.719531250000003 9.986210937499997 -4.126562500000006 9.159921875000002 -3.515625 8.30859375 C-1.772219189270345 5.653045208398893 -0.7319136345656432 3.0903020126104934 0 0 Z " fill="#897C6A" transform="translate(107,45)"/>
<path d="M0 0 C7.257096580421745 0.12959101036467757 11.244035946198096 2.819813177657174 17 7 C18.010625000000005 7.577500000000001 19.021249999999995 8.155000000000001 20.0625 8.75 C20.701875 9.162500000000001 21.341250000000002 9.575000000000003 22 10 C22 10.659999999999997 22 11.32 22 12 C23.319999999999993 12.329999999999998 24.64 12.659999999999997 26 13 C25.619021154225692 18.877959334803712 23.066078529909078 22.005249358678086 19.625 26.5 C13.819206798118472 34.48643801694229 11.290660464734742 41.50096000984348 10.90234375 51.51953125 C10.611975829176188 58.72823050175637 7.050495826829319 63.017069334733606 2 68 C-5.101327075796803 73.56834218324384 -9.976014359278452 75.70013681695254 -19 75 C-29.844148568812912 72.86731744813346 -38.94348401328672 65.66778921564004 -45.5078125 57.01171875 C-51.69220772538559 47.34639249775452 -50.162544886808334 35.03499175998775 -50 24 C-45.79846504499985 24 -44.117837252933384 25.228589108503655 -41 28 C-40.75 31.6875 -40.75 31.6875 -40.91015625 33.78125 C-41.14357236246687 39.545613125268716 -39.48322031455584 45.402149184786296 -36 50 C-35.01 50.66 -34.019999999999996 51.31999999999999 -33 52 C-33 52.66 -33 53.31999999999999 -33 54 C-22.26001174847263 57.80361294686968 -22.26001174847263 57.80361294686968 -11.24609375 56.08203125 C-3.7593003587601004 52.4753499119592 -0.8943120861912917 46.46108594673865 2 39 C3.825810618514808 32.33348980046483 4.970207652327545 26.485134962304684 1.94140625 20.1015625 C0.7308180430845539 17.399087581657646 -0.0009856882473116002 14.676173322142816 -0.75 11.8125 C-1.1444531249999983 10.337167968750002 -1.1444531249999983 10.337167968750002 -1.546875 8.83203125 C-2.02207821628015 5.862011148249067 -1.8366011592453049 3.8719905649701616 -1 1 C-0.6700000000000017 0.6700000000000017 -0.3400000000000034 0.3400000000000034 0 0 Z " fill="#7B5A37" transform="translate(81,32)"/>
<path d="M0 0 C12.540000000000006 0 25.08 0 38 0 C38 16.17 38 32.34 38 49 C25.319987775061122 50.15272838408536 25.319987775061122 50.15272838408536 20.62890625 46.703125 C18.27419629718308 44.241126104488785 17.28711367266422 41.649068580046254 16.11328125 38.484375 C14.829789067003759 35.62016086531364 13.164533623811963 33.559435284387966 11.1875 31.125 C7.403418368648843 26.119788836580558 5.153333008836583 21.026763559315977 3 15.1875 C2.6973120117187506 14.3749072265625 2.394624023437501 13.562314453125 2.082763671875 12.72509765625 C0.4196945948467601 7.992834841346418 0 5.284140799201448 0 0 Z " fill="#9EAAB0" transform="translate(90,0)"/>
<path d="M0 0 C7.727129409660051 4.544576982644742 11.920875644670616 9.593749126834716 14.23828125 18.31640625 C14.80078125 21.753906249999996 14.80078125 21.753906249999996 14.23828125 24.31640625 C9.707778618208977 28.052415727155434 4.227275319384518 28.354916055630724 -1.38671875 29.19140625 C-12.061991441184425 30.899995537847104 -22.37049050429892 33.357876854491174 -32.76171875 36.31640625 C-35.98241430764083 27.92509401992927 -36.356191748698635 21.549600715753147 -32.8203125 13.0546875 C-25.77895717233867 0.5667088875274704 -13.538956610248349 -6.711019943249181 0 0 Z " fill="#513A3D" transform="translate(66.76171875,8.68359375)"/>
<path d="M0 0 C10.963939593482209 0 13.98707052113664 0.9518823739659723 21.25 7.9375 C25.780313263652214 12.678117941268567 28.38438153510917 16.351320579179045 29 23 C29.0760546875 23.7360546875 29.152109375 24.472109375000002 29.23046875 25.23046875 C29.745391453238152 34.429493259200484 26.777068774140965 42.32166008080948 24 51 C16.08 51 8.16 51 0 51 C0 34.17 0 17.340000000000003 0 0 Z " fill="#C4B093" transform="translate(0,77)"/>
<path d="M0 0 C2.0528691017019156 2.6651283074726706 3.8637076373985053 5.386612416355462 5.625 8.25 C10.487421698490486 15.55566824500923 17.45312075979284 22.350885716738404 26 25 C30.64814618415302 25.874353984910954 35.29803287860801 26.498104633109847 40 27 C39.662265625 27.640664062500008 39.32453125000001 28.281328125 38.9765625 28.94140625 C36.408125638033596 33.92239218751287 34.307778326717624 38.55092363867655 33 44 C32.67 45.31999999999999 32.34 46.64 32 48 C19.129999999999995 48 6.259999999999998 48 -7 48 C-5.902333621434746 39.21866897147797 -5.902333621434746 39.21866897147797 -4.4375 35.6875 C-2.230260252282772 29.453393590593777 -2.3239807030911876 23.042086836089652 -3.75 16.625 C-4.155588954374551 10.743960161569035 -1.9283861188966824 5.503762957366064 0 0 Z " fill="#8C7B5F" transform="translate(31,80)"/>
<path d="M0 0 C13.86 0 27.72 0 42 0 C42.99000000000001 3.96 43.97999999999999 7.92 45 12 C48.037036494725825 21.497641401688036 51.69231335061026 28.696952951725684 58.14453125 36.31640625 C60.202633232142105 39.29307164311921 60.68020074188149 41.42978205280803 61 45 C58.03 44.505 58.03 44.505 55 44 C55 43.34 55 42.68 55 42 C54.2639453125 41.731875 53.527890625 41.46375 52.76953125 41.1875 C50.08227720903457 40.03527823913471 48.03894576694201 38.719521584601104 45.6875 37 C42.55049590252983 34.78841211128353 40.49400614789599 33.77127945699834 36.6875 33.4375 C35.470625 32.963125 34.25375 32.48875 33 32 C31.641205851429504 28.812928010329667 30.828601922138148 25.62973191937894 29.9765625 22.2734375 C28.16510874843499 16.20144452475409 24.630795687213393 12.687530177895406 19.1875 9.625 C12.545112083654843 6.671419113533547 6.030248746231763 6.653782154976896 -1 8 C-0.6700000000000017 5.359999999999999 -0.3400000000000034 2.7199999999999998 0 0 Z " fill="#756C71" transform="translate(48,0)"/>
<path d="M0 0 C13.607142857142856 2.2678571428571423 13.607142857142856 2.2678571428571423 17 6 C21.190588532987654 12.285882799481485 20.261962158380925 21.459797902988548 20.4296875 28.845703125 C20.65683174515774 34.66154223539289 21.89431261385176 39.580164914867865 24 45 C18.082241739953695 44.41792541704463 12.31429775023562 43.55564039218222 6.48046875 42.40234375 C3.7607487614626 41.893258603288345 3.7607487614626 41.893258603288345 0 42 C0 28.14 0 14.279999999999998 0 0 Z " fill="#A79581" transform="translate(0,8)"/>
<path d="M0 0 C0.6806250000000063 0.6806250000000063 1.3612499999999983 1.3612499999999983 2.0625 2.0625 C2.5252734375000045 2.5162499999999994 2.988046874999995 2.969999999999999 3.46484375 3.4375 C4.51502398389745 4.506385734246763 5.5272570580031015 5.613535485676323 6.50390625 6.75 C11.330019823906554 12.145943851307564 16.113346889325783 13.874489780656106 23 16 C23 22.930000000000007 23 29.86 23 37 C13.759999999999991 37 4.519999999999996 37 -5 37 C-5 22.84782608695653 -5 22.84782608695653 -4.75 16.25 C-4.728730468750001 15.053105468750005 -4.728730468750001 15.053105468750005 -4.70703125 13.83203125 C-4.473769233954272 8.149768539126015 -3.1638576507511402 4.73313104552372 0 0 Z " fill="#C4ADA2" transform="translate(105,91)"/>
<path d="M0 0 C0.6728621240433768 2.415094409512797 1.3384601226814823 4.83180355655869 2 7.25 C2.1907812500000006 7.931914062499999 2.381562500000001 8.613828124999998 2.578125 9.31640625 C3.499570441223227 12.706009123071134 4 15.457789758478327 4 19 C2.9068749999999994 18.67 1.8137499999999989 18.340000000000003 0.6875 18 C-12.591812436070057 14.726930033363011 -24.919874709066633 18.03035703297178 -36.73828125 24.1484375 C-40 25 -40 25 -43.39453125 23.5546875 C-46 21 -46 21 -46.5859375 17.984375 C-46.516328125 16.91703125 -46.44671875 15.849687500000002 -46.375 14.75 C-46.320859375 13.672343749999996 -46.26671875 12.5946875 -46.2109375 11.484375 C-46.141328125 10.664531249999996 -46.07171875 9.8446875 -46 9 C-12.154255319148945 0 -12.154255319148945 0 0 0 Z " fill="#6F3E33" transform="translate(79,35)"/>
<path d="M0 0 C4.754816455917492 0.5763413885960631 7.9704821219385735 2.5506852113744287 12 5 C10.695946422588932 9.379284401753566 8.973368578485278 12.939556283594612 6.5625 16.8125 C2.0351459900889637 24.47706612466267 0.07110617668790553 30.8021127419441 -0.9375 39.625 C-1.6208390681571387 45.436302331763656 -2.5523847092256773 49.28825910260842 -6 54 C-7.666666666666671 52.33333333333334 -9.333333333333329 50.66666666666666 -11 49 C-11.928124999999994 48.236875 -12.856250000000003 47.473749999999995 -13.8125 46.6875 C-16.18703989217377 43.77020813247222 -16.6270003055904 42.21040640424624 -16.33984375 38.484375 C-16.227695312500003 37.66453125000001 -16.115546875000007 36.84468749999999 -16 36 C-15.877539062500006 34.95328125 -15.755078124999997 33.90656250000001 -15.62890625 32.828125 C-14.015020147620874 22.810900916267457 -9.994075014917073 16.894370535950564 -4 9 C-2.0780626553807195 5.985365693158968 -0.6534712450791744 3.528744723427508 0 0 Z " fill="#B19174" transform="translate(107,45)"/>
<path d="M0 0 C7.257096580421745 0.12959101036467047 11.24403594619811 2.8198131776571884 17 7 C18.010625000000005 7.577500000000001 19.02125000000001 8.155000000000001 20.0625 8.75 C20.701875 9.162500000000001 21.341250000000002 9.575000000000003 22 10 C22 10.659999999999997 22 11.32 22 12 C23.319999999999993 12.329999999999998 24.64 12.659999999999997 26 13 C25.615555130186436 18.954207130039237 22.925563677886515 22.61617600762736 19.5625 27.3125 C19.059121093750008 28.04017578125 18.5557421875 28.7678515625 18.037109375 29.517578125 C14.292253679109848 34.853873160445076 14.292253679109848 34.853873160445076 12 36 C5.992504519425339 29.325005021583706 2.2447162497648065 23.244688123439445 -0.125 14.5625 C-0.4424719238281227 13.409353027343748 -0.4424719238281227 13.409353027343748 -0.766357421875 12.23291015625 C-1.768192796435926 8.201725947461426 -2.3597362793411776 5.0557651090693625 -1 1 C-0.6700000000000017 0.6700000000000017 -0.3400000000000034 0.3400000000000034 0 0 Z " fill="#866151" transform="translate(81,32)"/>
</svg>
