<?xml version="1.0" encoding="UTF-8"?>
<!-- Generator: visioncortex VTracer 0.6.0 -->
<svg version="1.1" xmlns="http://www.w3.org/2000/svg" width="128" height="128">
<path d="M0 0 C42.24 0 84.48 0 128 0 C128 42.24 128 84.48 128 128 C85.75999999999999 128 43.519999999999996 128 0 128 C0 85.75999999999999 0 43.519999999999996 0 0 Z " fill="#8B7B5F" transform="translate(0,0)"/>
<path d="M0 0 C8.544457087116768 3.014064150471615 13.931279203280184 7.965497177019568 18.59765625 15.62109375 C20.445628911670582 20.073729828955578 20.94129899471966 24.361606930664614 21.5 29.125 C22.263349550330076 35.12629280625357 23.09180890163985 40.91618222667839 24.75 46.75 C26.77879587373114 54.409518111519716 26.0874735324209 59.51851142344616 22.1875 66.4375 C19.54579907099364 70.77695216872765 19.54579907099364 70.77695216872765 16.92578125 71.84765625 C16.29027343749999 72.2279296875 15.65476562500001 72.608203125 15 73 C14.746699218749995 74.64162109374999 14.746699218749995 74.64162109374999 14.48828125 76.31640625 C13 80 13 80 10.71630859375 81.41357421875 C7.578019769026639 82.74342869483537 4.422407083634397 83.86417537617439 1.1875 84.9375 C0.11306640624999886 85.33517578125 -0.9613671875000023 85.7328515625 -2.068359375 86.142578125 C-10.047844447254398 88.91701309027816 -19.357460840168763 91.2247756845083 -27.5380859375 87.999267578125 C-32.889843062575295 85.02714486213709 -36.063355230374036 80.8099343088779 -38 75 C-38.358102422682435 70.4873561150493 -38.466847386867975 65.96112989032038 -38.625 61.4375 C-38.70234375 59.551279296874995 -38.70234375 59.551279296874995 -38.78125 57.626953125 C-38.825078125000005 56.42876953125 -38.868906249999995 55.230585937499995 -38.9140625 53.99609375 C-38.954829101562495 52.89450927734376 -38.995595703125005 51.7929248046875 -39.03759765625 50.657958984375 C-39 48 -39 48 -38 46 C-37.9510307746764 44.40178957943851 -37.963266668721715 42.80146482692538 -38.0078125 41.203125 C-38.0245703125 40.2440625 -38.041328125 39.285 -38.05859375 38.296875 C-38.10252826845908 36.28105591775976 -38.15448689183485 34.26539422047116 -38.21484375 32.25 C-38.29562535960167 26.756850547086096 -38.27478964089219 22.66253682055278 -35 18 C-33.125 16.34765625 -33.125 16.34765625 -31 15.0625 C-30.207226562499997 14.570078125000002 -29.414453125 14.07765625 -28.59765625 13.5703125 C-27.311816406250003 12.7930078125 -27.311816406250003 12.7930078125 -26 12 C-24.14402190542134 10.815333131120003 -22.289889756846406 9.627769913300469 -20.4375 8.4375 C-19.513242187499998 7.857421875 -18.588984374999995 7.27734375 -17.63671875 6.6796875 C-15.993806931235383 5.633091822861061 -14.367588717637666 4.559194938038164 -12.76953125 3.4453125 C-8.36866837185083 0.43195571302745606 -5.489478043093115 -0.9464617315677799 0 0 Z " fill="#EDC9A3" transform="translate(70,17)"/>
<path d="M0 0 C14.850000000000001 0 29.700000000000003 0 45 0 C45 9.841237113402064 45 9.841237113402064 42 15 C39.07421875000001 17.2578125 39.07421875000001 17.2578125 35.6875 19.125 C26.734809471518183 23.95175303138904 26.734809471518183 23.95175303138904 21 32 C19.921318014003905 39.5131454606007 21.674657228919965 45.970396370654456 24.04296875 53.05859375 C26.457944972921645 60.48094924330612 27.147780814693164 68.06867603458035 24.5 75.4375 C20.789495378257758 87.03060774161571 22.715490311839062 98.9395353808241 26.125 110.31640625 C27.70086610917322 116.9505211649569 27.20817309620489 121.37548071138532 25 128 C16.75 128 8.5 128 0 128 C0 85.75999999999999 0 43.519999999999996 0 0 Z " fill="#7D552F" transform="translate(0,0)"/>
<path d="M0 0 C13.530000000000001 0 27.060000000000002 0 41 0 C41 42.24 41 84.48 41 128 C32.42 128 23.840000000000003 128 15 128 C11.508058326937842 113.05448963929393 11.508058326937842 113.05448963929393 13 109 C14.785156250000014 107 14.785156250000014 107 17.0625 105 C23.404497188478985 98.96193238924364 29.66224247471267 90.53345369886304 32 82 C31.73885561470594 76.27223314921697 30.373905602593425 71.82261251277669 27.8125 66.6875 C27.501513671875003 66.0408740234375 27.190527343750006 65.394248046875 26.8701171875 64.72802734375 C24.954081848612276 60.78777766159177 22.894500937567983 56.946403926342946 20.75 53.125 C17.801636512850266 47.83045867161705 15.861264039958598 42.5586951651067 14.4375 36.67578125 C12.728028976395308 30.040896839634282 9.626051247369205 25.00140958843779 5.94140625 19.25390625 C2.215285926657117 13.008718665805592 0 7.281775378651104 0 0 Z " fill="#65402A" transform="translate(87,0)"/>
<path d="M0 0 C3.7598523320769317 1.3262265721611755 6.523758642632728 2.9210334219213365 9.5625 5.5 C10.678183593749992 6.412656249999998 10.678183593749992 6.412656249999998 11.81640625 7.34375 C20.355173308337513 17.730801162199484 24.242082329571176 38.68584412048377 23.6875 51.83984375 C21.52236662007381 61.79207616113803 15.57337377653485 73.27235390270721 6.9921875 79.01171875 C5.449179687499992 79.84123046875 5.449179687499992 79.84123046875 3.875 80.6875 C0.42915250582802855 82.55650705731273 -2.278144982434682 84.20206828939715 -5 87 C-5.659999999999997 87 -6.319999999999993 87 -7 87 C-9.547329756605706 92.09465951321141 -11.198765855185826 97.59629756555748 -13 103 C-27.85 103 -42.7 103 -58 103 C-57.67 101.02 -57.34 99.04 -57 97 C-56.727926477744276 91.32613342129206 -57.35463571572801 87.05276068467147 -59 81.5625 C-62.30830575247912 69.38257468392595 -63.37446537315976 54.41558985164713 -57 43 C-54.355468749999986 41.65234375 -54.355468749999986 41.65234375 -52 41 C-50.73636433493631 43.52727133012738 -50.85775007827775 45.33729915641223 -50.82421875 48.1640625 C-50.80037109375 49.20433593749999 -50.7765234375 50.24460937500001 -50.751953125 51.31640625 C-50.70944465620855 53.498507647961105 -50.67794763123638 55.680855160672735 -50.658203125 57.86328125 C-50.45875416595625 65.4052349105845 -49.45619798282438 71.15086999592644 -44.31640625 76.875 C-38.24766455564453 80.76764500662445 -32.01447923961558 81.48128926491881 -25 80 C-18.24345381272559 77.97377161691499 -11.683073221253593 75.39259978473429 -5.15380859375 72.734375 C-3 72 -3 72 0 72 C0.22687500000000682 70.948125 0.45374999999999943 69.89625 0.6875 68.8125 C1.8240807075561065 64.79013281510287 3.9757162679557467 62.88027022099453 7 60 C10.595604529156788 54.80634901344018 12.407301763833345 50.38106096672243 12 44 C11.298238618251787 40.776172332578014 10.499382505369141 37.61469606703061 9.61083984375 34.43896484375 C8.219690362165963 29.347522932778723 7.559367754870621 24.439294167481677 7.125 19.1875 C6.465992606825182 11.757381984269024 4.267225861032173 6.212973502068859 0 0 Z " fill="#A3A49C" transform="translate(83,25)"/>
<path d="M0 0 C6.5779187263452314 0.41044484663566294 12.740518856131345 0.8660859736811375 19 3 C19 3.6599999999999966 19 4.319999999999993 19 5 C19.57234375 5.104414062499998 20.144687500000003 5.208828124999997 20.734375 5.31640625 C23.369857678295972 6.111594989141025 25.0603130788338 7.2790149060055995 27.25 8.9375 C27.95640625 9.462148437500005 28.6628125 9.986796874999996 29.390625 10.52734375 C29.921718749999997 11.0133203125 30.4528125 11.499296874999999 31 12 C31 12.659999999999997 31 13.319999999999993 31 14 C32.09828125 14.406054687500003 32.09828125 14.406054687500003 33.21875 14.8203125 C40.110246957616226 17.74339126573048 47.83567604067291 22.753514061009355 52 29 C51.69814573051596 31.95817184094348 51.33281170935872 34.334376581282555 50 37 C46.198686770342206 38.818056016933895 42.204023210867476 40.17564441296955 38.25 41.625 C37.1710546875 42.04523437500001 36.09210937500001 42.46546875 34.98046875 42.8984375 C26.93901582391787 45.850484581326924 17.781564891824075 48.28259185339547 9.462158203125 44.998046875 C4.109226282744245 42.028857578756 0.9363049362244169 37.80891480867325 -1 32 C-1.384993878128114 27.550565087174334 -1.513561472034663 23.087103037404134 -1.6875 18.625 C-1.7774121093749997 16.776484374999995 -1.7774121093749997 16.776484374999995 -1.869140625 14.890625 C-1.9161914062500003 13.702109374999992 -1.9632421875000006 12.513593749999998 -2.01171875 11.2890625 C-2.0577221679687483 10.203188476562502 -2.1037255859375 9.117314453125005 -2.151123046875 7.99853515625 C-1.9949848111240946 4.900490226536576 -1.3211013582274376 2.7855130030546746 0 0 Z " fill="#E7CFBB" transform="translate(33,60)"/>
<path d="M0 0 C8.817643473324395 3.1104308692309353 14.082887031704757 8.294979083394772 18.9375 16.125 C20.101330702713952 19.27418896028481 20.23792743527102 21.669015906205644 20 25 C19.4469921875 24.820820312500004 18.893984375000002 24.641640625 18.32421875 24.45703125 C15.570802798361882 23.91560323934175 13.571144666677156 24.18990897065708 10.8125 24.6875 C9.491855468750003 24.909863281249997 9.491855468750003 24.909863281249997 8.14453125 25.13671875 C5.481046674399607 25.867936254605823 3.300701704096042 26.728395248194026 0.8125 27.8828125 C-4.257643826923783 30.210847796875704 -9.44020285047845 31.719555072699933 -14.8125 33.1875 C-15.739980468750005 33.44724609375 -16.667460937499996 33.7069921875 -17.623046875 33.974609375 C-21.4047650520245 35.02978236310994 -25.187565425198002 36.06119411570904 -29 37 C-29 37.66 -29 38.32 -29 39 C-30.980000000000004 39.66 -32.96 40.32 -35 41 C-35 41.66 -35 42.32 -35 43 C-35.66 43 -36.32 43 -37 43 C-38.33657702940165 35.64882633829092 -39.07946884351987 27.886087836671535 -37.0625 20.625 C-33.99800656335834 16.724735626092425 -30.210635986280053 14.545376942082079 -26 12 C-24.14402190542134 10.815333131120003 -22.2898897568464 9.627769913300469 -20.4375 8.4375 C-19.513242187499998 7.857421875 -18.588984374999995 7.27734375 -17.63671875 6.6796875 C-15.993806931235383 5.633091822861061 -14.367588717637666 4.559194938038164 -12.76953125 3.4453125 C-8.36866837185083 0.4319557130274525 -5.489478043093115 -0.9464617315677799 0 0 Z " fill="#DAC18A" transform="translate(70,17)"/>
<path d="M0 0 C5.702196886608675 7.324229432066275 9.537713544865056 15.871666245894481 13.4375 24.25 C13.803835449218752 25.0061962890625 14.170170898437505 25.762392578125002 14.547607421875 26.54150390625 C17.28767499131402 32.56952022056768 17.221640172165337 36.554228674693974 14.9765625 42.88671875 C11.427236739723611 50.24182444398315 7.056549465489923 55.6499646641351 1.390625 61.40625 C-1.3941819081152573 64.38123528479217 -1.3941819081152573 64.38123528479217 -3 68 C-2.809722354786004 70.67211881857222 -2.809722354786004 70.67211881857222 -2.125 73.4375 C-1.2955095572373239 77.2122065085213 -1 80.04429564363434 -1 84 C-11.560000000000002 84 -22.120000000000005 84 -33 84 C-30.89273784364177 73.46368921820883 -29.435713386832134 69.31298334017983 -21.09765625 63.390625 C-12.966292134831463 58 -12.966292134831463 58 -10 58 C-9.729296875000003 57.426367187500006 -9.458593750000006 56.852734375 -9.1796875 56.26171875 C-7.980752819876855 53.963098949366554 -6.615281992546997 51.93209796349301 -5.125 49.8125 C1.51437244943385 39.80462241077987 3.7164506199078176 31.64110283507881 1.31640625 19.55859375 C0.7829281714823537 17.355763215259636 0.23533141101326294 15.156291252344133 -0.328125 12.9609375 C-1.304612501448048 8.65757979013015 -2.0372945893354313 4.0745891786708555 0 0 Z " fill="#6C5E49" transform="translate(103,44)"/>
<path d="M0 0 C10.000000000000002 1 10.000000000000002 1 13.8125 1.625 C16.917262586068453 1.990266186596287 18.990845735196828 1.684595367544361 22 1 C22.02578125 2.113749999999996 22.0515625 3.2275000000000063 22.078125 4.375 C22.395368020194883 13.804918757661667 23.492153421139108 22.293645422657335 26.16015625 31.3515625 C27.68299380418936 37.9670521540133 27.198847300375245 42.40345809887427 25 49 C16.75 49 8.5 49 0 49 C0 32.83 0 16.659999999999997 0 0 Z " fill="#51575A" transform="translate(0,79)"/>
<path d="M0 0 C0.6599999999999966 0.3299999999999983 1.3199999999999932 0.6599999999999966 2 1 C2 18.159999999999997 2 35.31999999999999 2 53 C-6.579999999999998 53 -15.159999999999997 53 -24 53 C-27.491941673062172 38.054489639293934 -27.491941673062172 38.054489639293934 -26 34 C-24.214843749999986 31.999999999999986 -24.214843749999986 31.999999999999986 -21.9375 30 C-14.3144854279073 22.716324709335908 -9.408411540302254 13.513206907181626 -5.203125 3.92578125 C-3.7483968966669323 1.5972716560285676 -2.5839436565720035 0.8697920576256166 0 0 Z " fill="#1E3D45" transform="translate(126,75)"/>
<path d="M0 0 C3.7598523320769317 1.3262265721611755 6.523758642632714 2.9210334219213365 9.5625 5.5 C10.3062890625 6.108437500000001 11.050078124999999 6.716875000000002 11.81640625 7.34375 C20.355173308337527 17.73080116219949 24.242082329571176 38.685844120483765 23.6875 51.83984375 C21.642076952147377 61.2418167370044 16.39775622879803 69.92208364056563 10 77 C8.0625 78.1875 8.0625 78.1875 6 78 C2.687499999999986 75.93749999999999 2.687499999999986 75.93749999999999 0 73 C-0.3125 70.1875 -0.3125 70.1875 1 67 C2.067996075021469 65.71895807581622 3.176957951525168 64.47156796123808 4.3125 63.25 C8.670965083360969 58.53207387883606 11.762791484826224 53.338620261404174 12.12109375 46.78515625 C11.67529366736133 41.539891447889744 10.101212908208424 36.50862955774853 8.7421875 31.44140625 C8.032251250061023 28.14954395423031 7.670716651654175 24.995844823409826 7.380126953125 21.650146484375 C6.649118556988057 13.253278177417911 4.874028613218442 7.096463043774023 0 0 Z " fill="#B69975" transform="translate(83,25)"/>
<path d="M0 0 C0.5658984375000102 0.32089599609374986 1.131796874999992 0.6417919921874997 1.71484375 0.972412109375 C0.8060546874999943 1.3920019531249999 0.8060546874999943 1.3920019531249999 -0.12109375 1.820068359375 C-5.734912996467472 4.506064952684824 -10.734206870039486 7.548081756228463 -15.7578125 11.214599609375 C-19.078801672700763 13.524406607389444 -22.58151207039635 15.432285407786555 -26.15625 17.320068359375 C-29.145880637042325 19.640460578583998 -30.045579829001092 21.370018497539988 -31.28515625 24.972412109375 C-31.568518096963643 29.65599851278875 -31.25677173208642 34.32616619945123 -30.9921875 39.005615234375 C-30.76509307693746 46.277573607660294 -30.76509307693746 46.277573607660294 -33.66796875 50.156005859375 C-36.28515625 51.972412109375 -36.28515625 51.972412109375 -38.28515625 51.972412109375 C-38.466914062499995 51.005615234375 -38.648671875 50.038818359375 -38.8359375 49.042724609375 C-39.08853860986566 47.72736913184517 -39.342543770086316 46.41228281616156 -39.59765625 45.097412109375 C-39.73083251953125 44.4106640625 -39.864008789062495 43.723916015625 -40.001220703125 43.016357421875 C-40.774344784253444 39.1520957580274 -41.702611105683914 35.45997353407662 -42.97265625 31.722412109375 C-45.01827460146724 25.193842902564654 -45.66139456427574 18.775860527344108 -42.59765625 12.534912109375 C-40.31055437354219 10.000555976002829 -37.976491730240774 8.06479738025033 -35.28515625 5.972412109375 C-34.50140625 5.338193359374998 -33.71765625 4.703974609374999 -32.91015625 4.050537109375 C-24.228472700139918 -1.9956353628489882 -10.02167059476119 -4.506539693733956 0 0 Z " fill="#AC8B56" transform="translate(64.28515625,16.027587890625)"/>
<path d="M0 0 C14.850000000000001 0 29.700000000000003 0 45 0 C45 7.428014383589775 44.952978939035944 9.094042121928105 42 15 C40.816640625 14.9651953125 39.63328125 14.930390625 38.4140625 14.89453125 C26.24672116517643 14.639569499095664 17.128520931880733 15.13571216769971 7.10546875 22.6953125 C5.0000000000000036 23.999999999999996 5.0000000000000036 23.999999999999996 0 25 C0 16.75 0 8.5 0 0 Z " fill="#664C2F" transform="translate(0,0)"/>
<path d="M0 0 C10.14861460957179 3.382871536523929 10.14861460957179 3.382871536523929 13.75 6.375 C14.489921875 6.986015625 15.22984375 7.597031250000001 15.9921875 8.2265625 C18.438873248028074 10.387642907791331 20.758559038033564 12.626709569682596 23 15 C23.5426953125 15.4524609375 24.085390625 15.904921875 24.64453125 16.37109375 C26 18 26 18 26.14453125 20.05078125 C25.482497852147628 24.560396983606154 24.64677608287495 28.718382184525126 23 33 C17.4342909150245 34.104365403194876 13.076793668878063 33.746889900478465 7.5625 32.5625 C5.066875 32.046875 2.57125 31.53125 0 31 C0 20.769999999999996 0 10.54 0 0 Z " fill="#644641" transform="translate(0,48)"/>
<path d="M0 0 C0 14.520000000000003 0 29.040000000000006 0 44 C-2.969999999999999 44.495000000000005 -2.969999999999999 44.495000000000005 -6 45 C-6.329999999999998 45.99000000000001 -6.659999999999997 46.97999999999999 -7 48 C-13.971877183879684 37.54218422418049 -19.27202909965601 25.716580781656745 -17 13 C-15.269650515943525 7.542743934898823 -11.472800056449572 4.305982650419253 -7 1 C-5 0 -5 0 0 0 Z " fill="#392A28" transform="translate(128,32)"/>
<path d="M0 0 C2.499999999999986 2.312499999999986 2.499999999999986 2.312499999999986 5 5 C5.866250000000008 5.649687499999999 5.866250000000008 5.649687499999999 6.75 6.3125 C8.895571698745442 9.209021793306349 8.698102995771777 12.47786828400406 9 16 C9.329999999999998 18.97 9.659999999999997 21.939999999999998 10 25 C-0.5600000000000023 25 -11.120000000000005 25 -22 25 C-19.35932474966279 11.796623748313976 -15.678903660777536 8.119269107185033 -5.1875 1.125 C-3 0 -3 0 0 0 Z " fill="#6F8586" transform="translate(92,103)"/>
</svg>
