<?xml version="1.0" encoding="UTF-8"?>
<!-- Generator: visioncortex VTracer 0.6.0 -->
<svg version="1.1" xmlns="http://www.w3.org/2000/svg" width="128" height="128">
<path d="M0 0 C42.24 0 84.48 0 128 0 C128 42.24 128 84.48 128 128 C85.75999999999999 128 43.519999999999996 128 0 128 C0 85.75999999999999 0 43.519999999999996 0 0 Z " fill="#9F7662" transform="translate(0,0)"/>
<path d="M0 0 C30.36 0 60.72 0 92 0 C92 9.24 92 18.48 92 28 C89.36 29.65 86.72 31.3 84 33 C82.04526356672363 35.00318503590594 82.04526356672363 35.00318503590594 80.76953125 37.1875 C80.27880126953124 37.96262939453125 79.7880712890625 38.7377587890625 79.282470703125 39.536376953125 C78.79738037109375 40.34937255859375 78.3122900390625 41.1623681640625 77.8125 42 C77.29711669921875 42.84071044921875 76.7817333984375 43.6814208984375 76.250732421875 44.547607421875 C69.83478165207595 55.25994466732275 66.17707571949703 65.31388582547625 65.6875 77.875 C65.1592754227841 85.58707882735196 63.21298014257192 89.9018278003993 58.8125 96.0625 C55.5542804945499 98.30705121486562 53.65131756741829 98.46524393129982 49.78515625 97.76171875 C34.39376107046178 93.5522908958486 24.92458698807542 86.74597808615401 15.76171875 73.45703125 C14.280952570580823 71.39183850752846 12.834429103367604 69.6794368796684 11 67.9375 C10.009999999999998 66.9784375 10.009999999999998 66.9784375 9 66 C9 65.34 9 64.68 9 64 C8.009999999999998 63.67 7.019999999999996 63.34 6 63 C4.210937499999993 60.82031249999999 4.210937499999993 60.82031249999999 2.375 58.125 C1.7639843749999997 57.240703125 1.1529687499999994 56.35640625 0.5234375 55.4453125 C-1.9811647306057978 51.425104817027616 -2.1282105834454086 48.35529567846123 -2.1328125 43.70703125 C-2.135833740234375 41.81186767578125 -2.135833740234375 41.81186767578125 -2.138916015625 39.87841796875 C-2.1348316613997014 38.523110195317045 -2.1301833853992065 37.16780401578134 -2.125 35.8125 C-2.1237814331054707 35.134151000976566 -2.1225628662109344 34.455802001953124 -2.121307373046875 33.75689697265625 C-2.067238603040188 8.268954412160745 -2.067238603040188 8.268954412160745 0 0 Z " fill="#D2BFA4" transform="translate(36,0)"/>
<path d="M0 0 C7.685719523189634 1.0979599318842332 13.284988553625016 3.521186746713582 20.25 6.75 C21.433359375 7.275937499999998 22.61671875 7.8018749999999955 23.8359375 8.34375 C24.967734375 8.864531249999999 26.09953125 9.385312499999998 27.265625 9.921875 C28.294619140625 10.392060546875001 29.32361328125 10.862246093750002 30.3837890625 11.3466796875 C33.425723926269406 13.269037180729413 34.55682574378129 14.721358864984353 36 18 C36.32470703125 20.523681640625 36.32470703125 20.523681640625 36.2578125 23.16015625 C36.2436328125 24.11857421875 36.229453125 25.076992187499997 36.21484375 26.064453125 C36.17037109375 27.548486328124994 36.17037109375 27.548486328124994 36.125 29.0625 C36.08153560286619 31.03245988185904 36.042306487614454 33.00251888048214 36.0078125 34.97265625 C35.9834814453125 35.84156494140625 35.959150390625 36.710473632812494 35.93408203125 37.605712890625 C35.99813322902541 39.93219472982294 36.21635763455697 41.809655355605955 37 44 C37.989999999999995 44.495000000000005 37.989999999999995 44.495000000000005 39 45 C39 45.66 39 46.31999999999999 39 47 C50.86515804676968 51.76404073089995 63.73998785644419 51.20826099431038 76.34765625 51.60546875 C77.4085546875 51.6428515625 78.469453125 51.680234375 79.5625 51.71875 C80.5125390625 51.74904296874999 81.462578125 51.77933593750001 82.44140625 51.810546875 C84.76046248875272 51.982263252983984 86.7665130581571 52.38616187585616 89 53 C92.36217120682764 53.30195665415377 95.6335422988756 53.21687282408415 99 53 C100.24330078125 52.945859375 100.24330078125 52.945859375 101.51171875 52.890625 C104.39490541180102 52.414065221189915 105.79575760246848 51.950777152640825 108 50 C109.78565290017058 45.442587374191504 110.6911975353783 40.849603421083486 111.58935546875 36.05078125 C113.20408604846743 27.986728414312452 116.02441387174753 18.922469807112464 122 13 C123.98 12.340000000000003 125.96 11.680000000000007 128 11 C128 30.799999999999997 128 50.599999999999994 128 71 C85.75999999999999 71 43.519999999999996 71 0 71 C0 47.56999999999999 0 24.14 0 0 Z " fill="#6C5046" transform="translate(0,57)"/>
<path d="M0 0 C11.88 0 23.76 0 36 0 C36 12.532195284697504 36 12.532195284697504 35.2490234375 17.70751953125 C34.70021626658418 22.759773781151516 34.69579743281358 27.848904291286722 34.64990234375 32.926513671875 C34.62509410345715 34.92990068454359 34.56846459131015 36.93281002738132 34.51171875 38.935546875 C34.43312522575801 47.66379437276274 35.351774971257136 54.01812112500276 41.435302734375 60.538330078125 C42.11701538085937 61.199981689453125 42.11701538085937 61.199981689453125 42.8125 61.875 C43.534375 62.57625 44.25625 63.2775 45 64 C45 64.99 45 65.98 45 67 C43.463994197950136 67.53729847225856 41.92080232829643 68.05407239054557 40.375 68.5625 C39.516484375 68.8525390625 38.65796875 69.142578125 37.7734375 69.44140625 C32.40581931408829 70.5224899127963 27.949488819134924 68.73713597327935 23.0859375 66.53125 C21.995390625 66.0426953125 20.90484375 65.554140625 19.78125 65.05078125 C18.6571875 64.5390234375 17.533125 64.027265625 16.375 63.5 C14.13409453843529 62.48674320245878 11.89195641319018 61.47620695272403 9.6484375 60.46875 C8.6602099609375 60.01951171875 7.671982421875 59.5702734375 6.65380859375 59.107421875 C3.8307748737645833 57.85159799333948 3.8307748737645833 57.85159799333948 0 57 C0 38.19 0 19.379999999999995 0 0 Z " fill="#D19579" transform="translate(0,0)"/>
<path d="M0 0 C5.939999999999998 0 11.879999999999995 0 18 0 C18.21581161691239 4.565015174410887 18.374429509635974 9.119873413008772 18.5 13.6875 C18.600546874999992 15.627861328125 18.600546874999992 15.627861328125 18.703125 17.607421875 C18.898286445348532 27.048356793735216 18.898286445348532 27.048356793735216 16.401123046875 29.69384765625 C14.35546875 30.832031250000004 14.35546875 30.832031250000004 12.15185546875 31.831298828125 C8.083862502985156 34.040679623123445 6.127350630469934 38.120385698044835 3.8125 42 C3.2971166992187477 42.84071044921875 2.7817333984374955 43.6814208984375 2.250732421875 44.547607421875 C-4.165218347924039 55.25994466732274 -7.822924280502974 65.31388582547626 -8.3125 77.875 C-8.840724577215894 85.58707882735196 -10.787019857428078 89.90182780039932 -15.1875 96.0625 C-18.4457195054501 98.30705121486562 -20.348682432581697 98.46524393129982 -24.21484375 97.76171875 C-39.560104647408366 93.56490826613656 -49.074730625721145 86.76542453242708 -58.23828125 73.53125 C-60.33171265596878 70.52339290228876 -62.604683786960535 67.76958437132689 -65 65 C-62.34743226211343 66.0396510914061 -59.73174467135594 67.12060525674733 -57.1328125 68.2890625 C-49.231585066048694 71.79843884079395 -44.15151826721831 73.32770840138578 -35.875 70.1875 C-29.800476244569182 67.55918866255186 -25.64022598156106 64.7507075525506 -21 60 C-15.10312265699406 54.50880463636548 -15.10312265699406 54.50880463636548 -11.984375 53.0703125 C-7.28081180155678 50.898056213696066 -5.422740674187295 48.432931472985295 -3.45751953125 43.59765625 C-2.1741583692118525 40.10157536723789 -1.0508545246464962 36.572228504877195 0 33 C0.3532031249999932 31.816640625 0.7064062500000006 30.63328125 1.0703125 29.4140625 C2.865564195446538 22.605044808261333 3.308675544184325 16.909363254464708 2 10 C1.8272656249999955 9.0628515625 1.6545312500000051 8.125703125 1.4765625 7.16015625 C1.013490578830286 4.767617990623151 0.5106097471236382 2.382845486576952 0 0 Z " fill="#D5AF92" transform="translate(110,0)"/>
<path d="M0 0 C0.7824609374999909 0.1211718750000017 1.5649218750000102 0.24234374999999986 2.37109375 0.3671875 C6.713273166209433 1.180009262640187 10.51970265255187 2.152483988451536 14 5 C16.654216013877814 9.297302117706941 16.599330920720774 14.111950412822708 16 19 C13.144927565729176 31.033459655852823 3.121245913260978 40.49472197324305 -7.0625 46.9375 C-10.799575943626266 48.28920832003503 -12.23021342578052 48.33051290854806 -16 47 C-19.162496965413382 44.8524178408629 -22.070383595052725 42.45131168577221 -25 40 C-25.9075 39.34 -26.814999999999998 38.68 -27.75 38 C-32.0923812985023 34.140105512442396 -35.078442982475735 30.334762316027692 -36.0625 24.5 C-36.26228303009724 20.704122428152516 -35.66389062240324 17.839248043058817 -33.46875 14.61328125 C-30.455917596765744 11.303973317724079 -26.873209525119208 9.183480723792414 -23 7 C-21.883671874999997 6.363203124999998 -20.767343749999995 5.72640625 -19.6171875 5.0703125 C-13.155654636002296 1.528480853862078 -7.525197759736301 -1.3221842792807692 0 0 Z " fill="#E9E2C1" transform="translate(85,23)"/>
<path d="M0 0 C4.780810280380166 3.9198112725391923 8.15259659578922 9.579395054497098 11.796875 14.515625 C18.551291317848026 23.367080319057152 28.90360190727303 28.430510363523 39.9296875 30.01953125 C40.93000000000001 30.129101562499997 41.9303125 30.238671874999994 42.9609375 30.3515625 C43.6015625 32.121093750000014 43.6015625 32.121093750000014 43.9609375 34.3515625 C43.0703125 36.238281250000014 43.0703125 36.238281250000014 41.7109375 38.0390625 C41.27265625 38.6410546875 40.834374999999994 39.243046875000005 40.3828125 39.86328125 C38.231696267595936 42.114861702049325 36.24388061547012 42.3366284847685 33.208740234375 42.496826171875 C29.60520920037193 42.52151334580961 26.002059786647237 42.53722672705723 22.3984375 42.5390625 C21.16029296875 42.55130859375001 19.9221484375 42.5635546875 18.646484375 42.576171875 C9.122492940633173 42.5912973246046 0.3659161647354665 42.2176027795837 -8.0390625 37.3515625 C-8.0390625 36.6915625 -8.0390625 36.03156250000001 -8.0390625 35.3515625 C-9.029062500000002 35.0215625 -10.019062500000004 34.6915625 -11.0390625 34.3515625 C-12.20798871681145 31.371612112464646 -12.131910231027874 28.49220276518227 -12.06640625 25.32421875 C-12.05416015625 24.367089843749994 -12.041914062499998 23.409960937500003 -12.029296875 22.423828125 C-11.994207777882558 20.421150396926805 -11.95516034504871 18.41853801968996 -11.912109375 16.416015625 C-11.901152343749999 15.457597656250002 -11.890195312499998 14.499179687500003 -11.87890625 13.51171875 C-11.86206787109375 12.641682128906254 -11.8452294921875 11.771645507812508 -11.827880859375 10.875244140625 C-12.064250872319072 8.050554170910686 -12.87120727781214 5.920267981305429 -14.0390625 3.3515625 C-3.9471897084805647 -1.2552365739612554 -3.9471897084805647 -1.2552365739612554 0 0 Z " fill="#B18177" transform="translate(47.0390625,66.6484375)"/>
<path d="M0 0 C3.756355693750442 0.7512711387500843 5.832103073489204 1.2400572630495645 9 3 C9 3.6599999999999966 9 4.319999999999993 9 5 C9.721875 5.206249999999997 10.44375 5.412499999999994 11.1875 5.625 C18.03615986984129 8.973233714144627 21.383083464187738 16.749286699320564 25.1328125 23.07421875 C26.6445889520761 25.443090219884937 28.025834049542667 27.06875070063957 30 29 C30 29.659999999999997 30 30.319999999999993 30 31 C30.99 31.33 31.98 31.659999999999997 33 32 C33 32.66 33 33.31999999999999 33 34 C33.99 34.33 34.98 34.66 36 35 C36 35.66 36 36.31999999999999 36 37 C36.99 37.33 37.98 37.66 39 38 C43 43.37142857142857 43 43.37142857142857 43 46 C28.81 46 14.619999999999997 46 0 46 C0 30.819999999999993 0 15.64 0 0 Z " fill="#411719" transform="translate(0,82)"/>
<path d="M0 0 C10.230000000000004 0 20.460000000000008 0 31 0 C32.0209375 3.3721875 32.0209375 3.3721875 33.0625 6.8125 C33.38939819335937 7.8369421386718745 33.38939819335937 7.8369421386718745 33.722900390625 8.882080078125 C36.4494186511788 18.497485707308133 33.86969312874936 27.695340156899114 30.6875 36.875 C30.391660156249998 37.785078125 30.095820312499995 38.69515625 29.791015625 39.6328125 C27.95445648919835 45.05919024897767 26.248296412635938 50.06554705507657 21.078125 53.14453125 C19.38541666666667 53.763020833333336 17.69270833333333 54.381510416666664 16 55 C17.02941055917526 51.753397467216466 18.12201055627378 48.75128617374961 19.625 45.6875 C21.62497943193172 40.32391879618312 21.583352037658784 35.68341937323044 20.375 30.125 C18.414377789329976 27.094947492600866 16.31175201299115 26.394823057255188 13 25 C9.12468890195953 24.356126920367107 5.273116540256922 23.996260324297392 1.36328125 23.625 C-2 23 -2 23 -3.99609375 21.79296875 C-5.5037060001110945 19.10038500369263 -4.949579877687498 17.30414589649294 -4.375 14.3125 C-4.197109374999997 13.3186328125 -4.019218749999993 12.324765625 -3.8359375 11.30078125 C-2.8593177013065656 7.444502138336677 -1.3967774720261303 3.724739925403003 0 0 Z " fill="#EACA9D" transform="translate(79,0)"/>
<path d="M0 0 C7.685719523189634 1.0979599318842332 13.284988553625016 3.521186746713582 20.25 6.75 C21.433359375 7.275937499999998 22.61671875 7.8018749999999955 23.8359375 8.34375 C24.967734375 8.864531249999999 26.09953125 9.385312499999998 27.265625 9.921875 C28.294619140625 10.392060546875001 29.32361328125 10.862246093750002 30.3837890625 11.3466796875 C33.44441780814244 13.280850820897783 34.56697158089918 14.689043789419117 36 18 C36.340576171875 20.862548828125 36.340576171875 20.862548828125 36.29296875 23.95703125 C36.278466796874994 25.624755859375 36.278466796874994 25.624755859375 36.263671875 27.326171875 C36.23853515625 28.476660156250006 36.2133984375 29.627148437499997 36.1875 30.8125 C36.167197265625 32.567236328125006 36.167197265625 32.567236328125006 36.146484375 34.357421875 C36.11120278162888 37.238752000307656 36.06190279748556 40.11913904009509 36 43 C32.50786908155464 41.88886743504011 29.233857554106937 40.724724028857025 26 39 C23.60637229545728 37.76003726121411 21.53604934311943 36.85797428871004 18.9375 36.0625 C15.177214201389614 34.70239662603454 11.947031964335547 32.720337197848195 9 30 C9 29.340000000000003 9 28.680000000000007 9 28 C6.029999999999999 27.010000000000005 3.0599999999999996 26.019999999999996 0 25 C0 16.75 0 8.5 0 0 Z " fill="#8A4E42" transform="translate(0,57)"/>
<path d="M0 0 C14.189999999999998 0 28.379999999999995 0 43 0 C42.00999999999999 4.29 41.02000000000001 8.58 40 13 C39.62892854677757 15.327630024758864 39.27223813349366 17.658752051954462 39 20 C35.25580905712073 20.960048959712633 31.77461906727227 21.038467390694642 27.92138671875 20.93359375 C16.643645723595327 20.426194605346925 16.643645723595327 20.426194605346925 7.08203125 25.8046875 C3.9024835907061615 29.279244735929353 1.3116698249163647 32.89036475570424 -1 37 C-1.3299999999999983 37 -1.6599999999999966 37 -2 37 C-2.3092417061611386 9.23696682464455 -2.3092417061611386 9.23696682464455 0 0 Z " fill="#CDAC89" transform="translate(36,0)"/>
<path d="M0 0 C11.88 0 23.76 0 36 0 C36 13.499999999999986 36 13.499999999999986 35 18.25 C34.7215625 19.618984375 34.7215625 19.618984375 34.4375 21.015625 C34.293125 21.67046875 34.14875 22.3253125 34 23 C33.12859375 23.074765625 32.2571875 23.14953125 31.359375 23.2265625 C22.433750551595935 24.211858705343307 15.7664243922186 26.575783008767115 8 31 C4.796381594153533 32.823782762878885 3.93394119149827 33 0 33 C0 22.11 0 11.219999999999999 0 0 Z " fill="#B5826A" transform="translate(0,0)"/>
<path d="M0 0 C5.3902622809084555 0.5289509714910139 9.242294889654104 2.4633369584396547 13.875 5.0625 C14.563359374999997 5.439550781250006 15.251718750000002 5.816601562499997 15.9609375 6.205078125 C17.64492129590861 7.128930346366531 19.32307467324773 8.063396668645993 21 9 C21 9.659999999999997 21 10.319999999999993 21 11 C27.44642144634014 13.5325227110622 33.4603242791925 14.58717329511498 40.326171875 15.08935546875 C46.2272290533399 15.643479130618502 49.07019268781936 17.697626850977542 52.80078125 22.1484375 C53.2996484375 22.883203124999994 53.79851562499999 23.617968750000003 54.3125 24.375 C54.82425781250001 25.104609374999995 55.336015625 25.834218750000005 55.86328125 26.5859375 C57.254091443496336 29.539616880002526 57.08053006205334 31.770495449613477 57 35 C52.53450816791768 35.19834763412342 48.07136975084529 35.343178503698255 43.602783203125 35.439453125 C42.08442521310103 35.479593065467526 40.56637477522456 35.53412329795111 39.049072265625 35.603515625 C26.37311554725337 36.168553354825804 26.37311554725337 36.168553354825804 22.9482421875 33.25390625 C21.697612925207622 31.206243830909898 20.869154218778064 29.227472155622067 20 27 C18.367392855950968 25.62517293132713 16.697749375254332 24.293523333527105 15 23 C8.783989393969321 16.90617142062348 4.149625614217488 9.609443334123497 0 2 C0 1.3400000000000034 0 0.6800000000000068 0 0 Z " fill="#674142" transform="translate(18,93)"/>
<path d="M0 0 C0.3299999999999983 0 0.6599999999999966 0 1 0 C0.6700000000000017 7.920000000000002 0.3400000000000034 15.840000000000003 0 24 C-11.219999999999999 24 -22.439999999999998 24 -34 24 C-34.66 21.36 -35.31999999999999 18.72 -36 16 C-37.05287611327935 13.856940190522238 -37.05287611327935 13.856940190522238 -38.375 12.25 C-38.9744140625 11.453359375000005 -38.9744140625 11.453359375000005 -39.5859375 10.640625 C-41.29513778259218 8.657574948373721 -43.12962378195871 6.830580979359567 -45 5 C-41.5833512693212 4.970916426467511 -38.16673449848089 4.953173094029722 -34.75 4.9375 C-33.297871093750004 4.9249316406250045 -33.297871093750004 4.9249316406250045 -31.81640625 4.912109375 C-30.8818359375 4.908886718749997 -29.947265625 4.905664062499994 -28.984375 4.90234375 C-28.125537109375003 4.897106933593747 -27.266699218750006 4.891870117187494 -26.3818359375 4.886474609375 C-24.104714474677763 4.995008996440632 -22.188565743451264 5.394092872893751 -20 6 C-13.471970062081851 6.586282481471059 -6.848268657472644 6.237196546163673 -1 3 C-0.6700000000000017 2.010000000000005 -0.3400000000000034 1.019999999999996 0 0 Z " fill="#815744" transform="translate(109,104)"/>
<path d="M0 0 C0 8.909999999999997 0 17.82 0 27 C-3.960000000000008 28.980000000000004 -3.960000000000008 28.980000000000004 -8 31 C-8.989999999999995 31.989999999999995 -9.980000000000004 32.98 -11 34 C-11.659999999999997 34 -12.319999999999993 34 -13 34 C-13.2578125 34.556875 -13.515625 35.11375 -13.78125 35.6875 C-15.638476712473661 39.2114686339244 -18.020711727774653 42.33387053690714 -20.34375 45.5625 C-21.770721364244835 47.662571064360336 -22.935605642940388 49.70090818875124 -24 52 C-24.659999999999997 52 -25.319999999999993 52 -26 52 C-26.33 52.99000000000001 -26.659999999999997 53.97999999999999 -27 55 C-28.005874127318464 36.1119191647977 -20.57035690364522 19.802922897919885 -9 5 C-3.255136986301366 0 -3.255136986301366 0 0 0 Z " fill="#BB8C6C" transform="translate(128,28)"/>
<path d="M0 0 C5.939999999999998 0 11.879999999999995 0 18 0 C18.21581161691239 4.5650151744108936 18.374429509635974 9.119873413008765 18.5 13.6875 C18.600546874999992 15.627861328125 18.600546874999992 15.627861328125 18.703125 17.607421875 C18.89848017744484 27.057728583894335 18.89848017744484 27.057728583894335 16.412109375 29.665283203125 C14.375000000000028 30.78124999999999 14.375000000000028 30.78124999999999 12.173828125 31.774169921875 C7.928589847587759 34.16807618769787 5.8995036523713935 38.708246941543315 3.5 42.8125 C2.695625000000007 44.137978515625 2.695625000000007 44.137978515625 1.875 45.490234375 C0.566867030914807 47.650989725721075 -0.7239080670609184 49.820222722767625 -2 52 C-3.319999999999993 51.34 -4.640000000000001 50.68 -6 50 C-5.762893066406249 49.33057373046875 -5.525786132812499 48.6611474609375 -5.281494140625 47.971435546875 C-4.1953586510188785 44.881232368777326 -3.128884337452277 41.78457177663492 -2.0625 38.6875 C-1.6893164062500006 37.63498046875 -1.3161328125000011 36.5824609375 -0.931640625 35.498046875 C2.1381984612385594 26.509779280157375 4.387284063811279 17.840619304335945 1.5625 8.5 C0 3.174887892376683 0 3.174887892376683 0 0 Z " fill="#CFAD84" transform="translate(110,0)"/>
</svg>
