<?xml version="1.0" encoding="UTF-8"?>
<!-- Generator: visioncortex VTracer 0.6.0 -->
<svg version="1.1" xmlns="http://www.w3.org/2000/svg" width="128" height="128">
<path d="M0 0 C42.24 0 84.48 0 128 0 C128 42.24 128 84.48 128 128 C85.75999999999999 128 43.519999999999996 128 0 128 C0 85.75999999999999 0 43.519999999999996 0 0 Z " fill="#C6BA9A" transform="translate(0,0)"/>
<path d="M0 0 C42.24 0 84.48 0 128 0 C128 24.09 128 48.18 128 73 C116.25190839694658 70.38931297709925 116.25190839694658 70.38931297709925 112.84765625 65.265625 C109.65840479697144 59.22761157291391 109.556358923537 53.3243144211888 109.2734375 46.6015625 C108.9245345901879 42.006012745046306 107.75827561294005 38.221693008152926 106 34 C105.690625 33.030625 105.38125 32.06125 105.0625 31.0625 C103.71876998042984 28.454082903187324 102.63381075807474 28.213121242335657 100 27 C99.24203125 26.5978125 98.4840625 26.195625 97.703125 25.78125 C96.89359375 25.3584375 96.0840625 24.935625 95.25 24.5 C94.45078125 24.0771875 93.6515625 23.654375 92.828125 23.21875 C85.8479641227701 20.21072487058601 79.18649686426639 19.664639597606623 71.6875 19.4375 C69.82154380915982 19.366417496721724 67.95565582203082 19.293519915548764 66.08984375 19.21875 C65.2066748046875 19.1839453125 64.323505859375 19.149140625 63.41357421875 19.11328125 C60.51494486143169 18.977233908123033 57.636576914656196 18.73229934447553 54.75 18.4375 C53.16699358751205 18.288159772406797 51.58368303604553 18.14198537564546 50 18 C48.878515625000006 17.899453125 48.878515625000006 17.899453125 47.734375 17.796875 C38.43953794364235 17.341882976262212 30.530900514545458 21.31651621306818 22.875 26.2421875 C19.079103793984373 29.80084019313965 17.82842744455102 33.67254657990559 17.61181640625 38.760986328125 C17.59211835542329 40.61789997253862 17.589654415081696 42.4750513110859 17.6015625 44.33203125 C17.598692321777342 45.323214569091796 17.595822143554688 46.31439788818359 17.592864990234375 47.33561706542969 C17.59082866907138 49.4276079579956 17.59632823135829 51.51961807741317 17.60888671875 53.611572265625 C17.624894884893056 56.791618724740275 17.60904936272486 59.97038436421049 17.58984375 63.150390625 C17.591827256936746 65.19010694266471 17.59567315125149 67.22982247019374 17.6015625 69.26953125 C17.595489807128907 70.21045120239258 17.589417114257813 71.15137115478515 17.583160400390625 72.12080383300781 C17.640373897708066 77.57147096429115 18.372582681901957 82.04592401854491 20.333343505859375 87.14413452148438 C21.667133696217356 90.85719393307696 21.192767489761426 94.31057012483733 20 98 C16.571500376431345 102.05186319149023 12.12666284179148 103.3259059239167 7 104 C4.6899999999999995 104 2.38 104 0 104 C0 69.68 0 35.36 0 0 Z " fill="#B8C2BF" transform="translate(0,0)"/>
<path d="M0 0 C3.051855181499441 0.10215161926587513 6.10371481661366 0.15423719130606983 9.15673828125 0.21142578125 C11.592976788613527 0.2709859140111206 14.029175361390898 0.3322011097769284 16.46533203125 0.39501953125 C17.64732177734375 0.4172558593750004 18.829311523437497 0.43949218750000085 20.047119140625 0.46240234375 C30.816089781102647 0.8039081622181143 30.816089781102647 0.8039081622181143 35.46533203125 4.08251953125 C39.17990994463099 8.90143141887939 40.59912683102711 12.372897420688211 40.50439453125 18.39501953125 C40.4566532814375 22.929074227728286 40.54852675826305 27.427443299319094 40.73876953125 31.95751953125 C41.212308870231254 51.8503014720003 41.212308870231254 51.8503014720003 36.59814453125 57.25048828125 C33.7321444756287 59.88256981175316 30.566487407235428 61.9362307609118 27.23193359375 63.92529296875 C23.718421187297793 66.22684753019051 21.11701242885715 69.52918710356732 18.33251953125 72.63330078125 C16.46533203125 74.08251953125 16.46533203125 74.08251953125 14.46923828125 73.98486328125 C8.70321905904612 71.38846866072545 3.637551007718386 66.77626587977693 -0.53466796875 62.08251953125 C-0.53466796875 61.42251953125 -0.53466796875 60.76251953125001 -0.53466796875 60.08251953125 C-2.0196679687499994 59.587519531249995 -2.0196679687499994 59.587519531249995 -3.53466796875 59.08251953125 C-3.53466796875 58.42251953125 -3.53466796875 57.76251953125001 -3.53466796875 57.08251953125 C-4.090253906249998 56.83501953125 -4.645839843749997 56.587519531249995 -5.21826171875 56.33251953125 C-13.806555092485539 51.69802732282611 -19.58307811114178 44.17682734593008 -24.65966796875 36.08251953125 C-25.369417724609377 34.980371093749994 -25.369417724609377 34.980371093749994 -26.093505859375 33.85595703125 C-29.749353379586083 27.750968068861738 -31.363739239363994 21.61972978866958 -30.066162109375 14.5185546875 C-28.901105534628087 10.108291204795904 -27.21578375093734 6.792861734311472 -23.37451171875 4.07861328125 C-15.848082358100818 0.0037948375864296224 -8.405299482397318 -0.3152730874501479 0 0 Z " fill="#735740" transform="translate(59.53466796875,27.91748046875)"/>
<path d="M0 0 C2.765541753982909 0.21615728651820376 5.463876008381334 0.3118440615168687 8.234375 0.34375 C21.561354078294585 0.565825644776563 34.08386488458258 1.80467218723782 44.3984375 11.265625 C45.945312500000014 13.449218750000025 45.945312500000014 13.449218750000025 47.1484375 15.703125 C47.555781249999995 16.4443359375 47.963125000000005 17.185546875 48.3828125 17.94921875 C50.47276875250641 22.71592666437038 50.52542746738362 27.363746379910914 50.7109375 32.515625 C51.050727741276674 38.67610458411781 51.764338667579366 44.12696295670458 55.3984375 49.265625 C59.4222263804447 52.752908696385404 63.328282674298265 54.04878784183158 68.3984375 55.265625 C68.3984375 59.885625000000005 68.3984375 64.505625 68.3984375 69.265625 C66.696875 69.45125 66.696875 69.45125 64.9609375 69.640625 C63.197500000000005 69.94999999999999 63.197500000000005 69.94999999999999 61.3984375 70.265625 C61.0684375 70.925625 60.7384375 71.585625 60.3984375 72.265625 C59.7384375 72.265625 59.07843750000001 72.265625 58.3984375 72.265625 C58.3984375 72.925625 58.3984375 73.585625 58.3984375 74.265625 C56.82478202994882 75.5401064263152 55.18606617764574 76.73461447897762 53.5234375 77.890625 C48.718363049489184 81.28827764371603 44.12395375843205 84.8517713562885 39.58984375 88.6015625 C37.585074298512055 90.12390080006035 35.68621362988614 91.23378064073472 33.3984375 92.265625 C33.3984375 92.925625 33.3984375 93.585625 33.3984375 94.265625 C31.640625 95.73828125 31.640625 95.73828125 29.2734375 97.328125 C28.507734375 97.8553515625 27.742031249999997 98.382578125 26.953125 98.92578125 C23.97229266782348 100.48912297773172 21.76463538199617 101.11181700278085 18.3984375 101.265625 C15.9765625 100.1484375 15.9765625 100.1484375 13.6484375 98.390625 C12.784765625000006 97.7448046875 11.921093749999997 97.098984375 11.03125 96.43359375 C8.421812172761491 94.28487269047868 5.977311524592494 92.0268095666961 3.5234375 89.703125 C-2.6137604703233706 84.0534614478799 -9.644521104107127 80.79038109594329 -17.37109375 77.80078125 C-26.589293992102462 74.04753064663406 -26.589293992102462 74.04753064663406 -29.1171875 69.59765625 C-30.997880236689095 62.323800518393654 -30.928111318280177 54.5663081417066 -31.1884765625 47.07861328125 C-31.395738168352768 41.87718439497523 -32.22230858936673 37.562793731649066 -33.95703125 32.640625 C-36.30198919419915 23.999810272284343 -35.043059144713865 13.455351977834127 -31.6015625 5.265625 C-23.12735168422597 -2.823394415057031 -10.74844271599617 -1.170317545008178 0 0 Z M-27.6015625 18.265625 C-30.941888046285147 24.467332356154408 -31.10433038121989 30.48597181635256 -29.6015625 37.265625 C-28.16963093249143 40.655090443781376 -26.321065435436665 43.642448299149734 -24.2890625 46.703125 C-23.759418945312504 47.52208251953125 -23.229775390625 48.341040039062506 -22.68408203125 49.184814453125 C-17.939205516165778 56.26297315666133 -12.526238796164755 62.24692638144411 -5.6015625 67.265625 C-4.941562500000003 67.265625 -4.2815625 67.265625 -3.6015625 67.265625 C-3.2715625000000017 68.25562500000001 -2.9415625000000034 69.24562499999999 -2.6015625 70.265625 C-1.9415625000000034 70.265625 -1.2815624999999997 70.265625 -0.6015625 70.265625 C-0.36308593750000284 70.840546875 -0.12460937499999858 71.41546875 0.12109375 72.0078125 C1.6619009016663568 74.73131871915338 3.4715127528698275 76.34844533334898 5.8359375 78.390625 C6.618398437499991 79.073828125 7.40085937500001 79.75703125 8.20703125 80.4609375 C11.326973074509368 83.29778352233916 11.326973074509368 83.29778352233916 15.234375 84.23828125 C18.48741114180558 82.77617655810543 20.625395973099927 80.26708846022345 23.0234375 77.703125 C23.98893983453135 76.6754601863961 24.960503234183108 75.6534621034026 25.9375 74.63671875 C26.45908691406251 74.0822607421875 26.980673828124992 73.527802734375 27.51806640625 72.95654296875 C29.3984375 71.265625 29.3984375 71.265625 31.97802734375 69.78173828125 C35.6356043320846 67.54876694497355 38.719493189406165 65.57029867193515 39.98504638671875 61.274383544921875 C40.81669762898932 56.20947324251664 40.85308367018952 51.13384991339282 40.7998046875 46.01171875 C40.77348114080486 43.27017010900981 40.82186077509755 40.53773643593637 40.8828125 37.796875 C40.90021522546395 36.03649619771769 40.913377928727556 34.27606931384757 40.921875 32.515625 C40.93859756469726 31.3027783203125 40.93859756469726 31.3027783203125 40.955657958984375 30.0654296875 C40.867644350689744 24.363749465576063 39.53777129493531 20.05471859215838 36.3984375 15.265625 C32.52410368057521 11.626099290843381 28.870657067078128 11.134206513699706 23.69140625 10.94921875 C21.98488891601562 10.885893554687499 21.98488891601562 10.885893554687499 20.243896484375 10.8212890625 C18.43320678710937 10.7627978515625 18.43320678710937 10.7627978515625 16.5859375 10.703125 C15.360119628906247 10.662841796875 14.134301757812494 10.62255859375 12.871337890625 10.5810546875 C10.454032198259597 10.504635911544234 8.036631808035082 10.431146455162683 5.619140625 10.36083984375 C3.0293090347891365 10.284275689703438 0.44070513259293165 10.193618335296762 -2.1484375 10.09765625 C-11.782694381755647 9.872856922759034 -20.894107495927585 10.740187678357785 -27.6015625 18.265625 Z " fill="#AB8967" transform="translate(59.6015625,17.734375)"/>
<path d="M0 0 C7.260000000000001 0 14.520000000000001 0 22 0 C23.785508371848138 10.713050231088836 24.45734445285545 22.053796678951272 18.963943481445313 31.847000122070313 C17.88411129614321 34.25884128069728 17.7408638511891 35.90226029888665 17.725341796875 38.533935546875 C17.715809783935548 39.425538787841795 17.706277770996095 40.3171420288086 17.696456909179688 41.23576354980469 C17.69782402038574 42.67173637390137 17.69782402038574 42.67173637390137 17.69921875 44.13671875 C17.694933624267577 45.13073196411133 17.690648498535158 46.12474517822265 17.686233520507813 47.14888000488281 C17.68049265294223 49.25281005341054 17.679988164846698 51.35675995064902 17.684326171875 53.460693359375 C17.6874713696249 56.65839171787164 17.664074964124868 59.855151360398764 17.638671875 63.052734375 C17.636397193172076 65.10156134072182 17.635696169428037 67.15039077674913 17.63671875 69.19921875 C17.627509002685546 70.14641281127929 17.618299255371095 71.0936068725586 17.608810424804688 72.06950378417969 C17.646398779790655 77.54509699631102 18.35865270489065 82.02596763009467 20.332107543945313 87.1466064453125 C21.669303891482965 90.85731027107188 21.192266854357367 94.31211867409958 20 98 C16.571500376431345 102.05186319149023 12.12666284179148 103.3259059239167 7 104 C4.6899999999999995 104 2.38 104 0 104 C0 69.68 0 35.36 0 0 Z " fill="#DEE9E2" transform="translate(0,0)"/>
<path d="M0 0 C2.765541753982909 0.21615728651820376 5.463876008381334 0.3118440615168687 8.234375 0.34375 C21.561354078294585 0.565825644776563 34.08386488458258 1.80467218723782 44.3984375 11.265625 C45.945312500000014 13.449218750000025 45.945312500000014 13.449218750000025 47.1484375 15.703125 C47.555781249999995 16.4443359375 47.963125000000005 17.185546875 48.3828125 17.94921875 C50.47276875250641 22.71592666437038 50.52542746738362 27.363746379910914 50.7109375 32.515625 C51.050727741276674 38.67610458411781 51.764338667579366 44.12696295670458 55.3984375 49.265625 C59.4222263804447 52.752908696385404 63.328282674298265 54.04878784183158 68.3984375 55.265625 C68.3984375 59.885625000000005 68.3984375 64.505625 68.3984375 69.265625 C61.60885716951195 69.93127013044 56.80293239674941 68.08420672124859 50.54296875 65.51171875 C46.85553088599124 64.05048560885864 43.26852819771703 63.10035044460564 39.3984375 62.265625 C38.361767568843604 56.57545893343041 38.45796395205913 51.33470042478962 38.8359375 45.578125 C38.93389804395149 43.79826476860295 39.03025833370141 42.01831572386476 39.125 40.23828125 C39.28294680018779 37.350033383117825 39.444354566342966 34.462076338998166 39.609375 31.57421875 C39.80855140622772 25.575944670142086 39.60458039696138 19.932869123633623 35.3984375 15.265625 C29.69096383954505 11.180677296530565 23.140113074051257 11.70495360462396 16.3984375 11.578125 C15.186154785156248 11.546865234374998 13.973872070312495 11.51560546875 12.724853515625 11.4833984375 C10.340323671957535 11.425102456366616 7.955624759560223 11.373285299714254 5.57080078125 11.32861328125 C2.9997950888413243 11.277565146061342 0.4328343747481185 11.201849723539738 -2.13671875 11.10546875 C-10.40765538215534 10.894802589934027 -17.24504965820804 11.855639172625722 -24.5390625 15.890625 C-29.634073112991736 21.757606917990486 -29.92231365645728 28.495007763048037 -29.51171875 35.98046875 C-29.6015625 38.265625 -29.6015625 38.265625 -31.6015625 40.265625 C-35.86719400989013 29.01756095903972 -36.32796059151219 16.513030984688776 -31.6015625 5.265625 C-23.12735168422597 -2.823394415057031 -10.74844271599617 -1.170317545008178 0 0 Z " fill="#988B7A" transform="translate(59.6015625,17.734375)"/>
<path d="M0 0 C1.7943750000000023 0.7115624999999994 1.7943750000000023 0.7115624999999994 3.625 1.4375 C8.634382566585955 3.756658595641646 8.634382566585955 3.756658595641646 10 7 C10.053812226482023 12.542659327648195 8.649996641938088 17.74063570382235 7 23 C6.658640732015499 24.331301145139577 6.320740444405999 25.663581481641643 6 27 C-0.6174847053503214 28.516311912682824 -6.248151748800495 27.289484948246084 -12.8125 25.875 C-13.841816406250004 25.67390625 -14.8711328125 25.472812500000003 -15.931640625 25.265625 C-23.869944484479028 23.598631400160002 -31.312952409198793 21.147479650683962 -37.5625 15.8125 C-40.08587272530197 10.875466407017882 -40.521060329569586 5.605301647847931 -39.4375 0.1875 C-37.13787140661999 -3.311934816013057 -34.13634067295341 -6.312542105241064 -30.08203125 -7.6171875 C-18.929580072789484 -9.667731994121255 -9.463161602125837 -5.750568986934567 0 0 Z " fill="#6B3A17" transform="translate(74,43)"/>
<path d="M0 0 C2.3100000000000023 0 4.6200000000000045 0 7 0 C7 13.530000000000001 7 27.060000000000002 7 41 C-8.840000000000003 41 -24.680000000000007 41 -41 41 C-41.33 38.03 -41.66 35.06 -42 32 C-40.7625 31.401875000000004 -39.525000000000006 30.803750000000008 -38.25 30.1875 C-35.241210610605435 28.693737069929554 -32.66524994327081 27.05019226405446 -30 25 C-29.340000000000003 25 -28.680000000000007 25 -28 25 C-28 24.340000000000003 -28 23.680000000000007 -28 23 C-26.26953125 21.40625 -26.26953125 21.40625 -23.8125 19.5 C-22.911445312500007 18.79875 -22.010390625 18.097499999999997 -21.08203125 17.375 C-20.064960937500004 16.591250000000002 -19.047890625000008 15.807500000000005 -18 15 C-16.83649357422614 14.084280413266399 -15.67375596123702 13.16758328452795 -14.51171875 12.25 C-13.341519611573702 11.332856223137497 -12.170951446699434 10.41618308240426 -11 9.5 C-10.436437988281256 9.054628906250002 -9.872875976562497 8.609257812500005 -9.292236328125 8.150390625 C-5.228751717032964 5 -5.228751717032964 5 -3 5 C-3 4.340000000000003 -3 3.680000000000007 -3 3 C-2.3400000000000034 3 -1.6800000000000068 3 -1 3 C-0.6700000000000017 2.010000000000005 -0.3400000000000034 1.019999999999996 0 0 Z " fill="#E2C19E" transform="translate(121,87)"/>
<path d="M0 0 C0.8353125000000006 0.4891992187500023 0.8353125000000006 0.4891992187500023 1.6875 0.98828125 C2.4506250000000023 1.4252734375000031 3.2137499999999974 1.8622656249999991 4 2.3125 C5.113749999999996 2.9563867187499966 5.113749999999996 2.9563867187499966 6.25 3.61328125 C13.14186400015928 7.088581988716683 20.024211906747624 8.829508881785415 27.5625 10.25 C28.922783203124993 10.528437499999995 28.922783203124993 10.528437499999995 30.310546875 10.8125 C35.56268430647752 11.817985338585984 39.759647851777345 12.121392229249295 45 11 C45 11.659999999999997 45 12.319999999999993 45 13 C49.716813977261566 14.974073997890955 54.547100965236424 16.38074393869057 59.453125 17.8046875 C60.29359375 18.199140625 61.1340625 18.593593749999997 62 19 C62.6591796875 21.07470703125 62.6591796875 21.07470703125 63 23 C62.093789062499994 23.761835937499995 61.187578125 24.523671875000005 60.25390625 25.30859375 C59.02272140403389 26.35071707920173 57.7923050861378 27.393748780449698 56.5625 28.4375 C55.9252197265625 28.977214355468746 55.287939453125006 29.516928710937492 54.63134765625 30.072998046875 C50.07273109994348 33.97437660839434 45.877749639144895 38.07986275636182 41.8671875 42.55078125 C40 44 40 44 38.00390625 43.90234375 C32.23788702779612 41.30594912947545 27.172218976468386 36.69374634852693 23 32 C23 31.340000000000003 23 30.680000000000007 23 30 C22.010000000000005 29.67 21.019999999999996 29.340000000000003 20 29 C20 28.340000000000003 20 27.680000000000007 20 27 C19.17435546875 26.6403515625 19.17435546875 26.6403515625 18.33203125 26.2734375 C8.650410727990149 20.98665644443014 2.8251004193727454 12.58432916066532 -2 3 C-1.3400000000000034 2.009999999999998 -0.6799999999999997 1.0200000000000031 0 0 Z " fill="#8F6037" transform="translate(36,58)"/>
<path d="M0 0 C6.956576884033183 3.987306262799507 12.947947470944627 9.393277900346035 18.9453125 14.66796875 C22.611992652402137 17.61812834059855 22.611992652402137 17.61812834059855 30 21 C30 33.870000000000005 30 46.74 30 60 C18.25190839694656 57.38931297709924 18.25190839694656 57.38931297709924 14.84765625 52.265625 C11.658404796971453 46.22761157291393 11.556358923537005 40.324314421188774 11.2734375 33.6015625 C10.924534590187903 29.00601274504629 9.758275612940054 25.221693008152954 8 21 C7.535937500000003 19.5459375 7.535937500000003 19.5459375 7.0625 18.0625 C5.720326515433584 15.457104412312265 4.628370142812372 15.21238200249444 2 14 C1.276835937499996 13.6094140625 0.553671874999992 13.218828125000002 -0.19140625 12.81640625 C-6.293222741560555 9.589580724809004 -12.286653113242238 7.569851078082138 -19 6 C-13.189120850550665 0.8934698383627051 -7.740671386761122 -2.361560762062714 0 0 Z " fill="#B6BCAA" transform="translate(98,13)"/>
<path d="M0 0 C6.6410726045009625 1.660268151125237 10.672954248873538 5.137818346436575 15.480712890625 9.813232421875 C19.12898803985742 13.330362321588325 22.78286036640185 15.937844577286668 27.35546875 18.1953125 C29 20 29 20 30 29 C11.849999999999994 29 -6.300000000000004 29 -25 29 C-23.843069387078234 22.058416322469412 -22.486320970393813 16.49271805789988 -16.625 12.1875 C-13.537707793954922 10.208466534586492 -10.278141946518595 8.639070973259294 -7 7 C-3.9510501993314406 4.782581963150136 -2.1014244550511876 3.1521366825767814 0 0 Z " fill="#AAAC96" transform="translate(50,99)"/>
<path d="M0 0 C0.3299999999999983 0 0.6600000000000001 0 1 0 C1.1726691051973361 4.124771018304465 1.3377456667017427 8.249806495841291 1.5 12.375 C1.5491455078125007 13.603315429687498 1.5982910156250014 14.831630859374997 1.64892578125 16.09716796875 C1.9126847020513296 23.11940460234917 2.010308953928096 30.10040125624147 1.875 37.125 C1.7821157081262093 42.572390529304 2.297211819493441 46.98706270001277 4.37890625 52.046875 C5.559845809211861 55.760521412615915 5.187116603780275 59.328049262841134 4 63 C0.5715003764313558 67.05186319149021 -3.8733371582085248 68.3259059239167 -9 69 C-11.31 69 -13.620000000000001 69 -16 69 C-16 53.16 -16 37.31999999999999 -16 21 C-13.69 20.010000000000005 -11.379999999999999 19.019999999999996 -9 18 C-7.417112332602832 16.305316625414072 -7.417112332602832 16.305316625414072 -6.6015625 14.27734375 C-6.267695312500001 13.574160156250002 -5.933828125 12.870976562499997 -5.58984375 12.146484375 C-5.271445312499999 11.41751953125 -4.953046875 10.688554687500002 -4.625 9.9375 C-4.283398437500001 9.204667968750002 -3.9417968749999996 8.471835937500003 -3.58984375 7.716796875 C-2.7083060300297177 5.819574390716134 -1.8523507593678392 3.9105130435586446 -1 2 C-0.6699999999999999 1.3400000000000034 -0.33999999999999986 0.6799999999999997 0 0 Z " fill="#DAD1C3" transform="translate(16,35)"/>
<path d="M0 0 C0.755390625000004 0.2732812499999966 1.510781250000008 0.5465624999999932 2.2890625 0.828125 C3.3950781249999977 1.2045312500000023 4.5010937499999955 1.5809375000000045 5.640625 1.96875 C15.063248005319139 5.3764960106382915 15.063248005319139 5.3764960106382915 16.2890625 7.828125 C15.959062500000002 8.488124999999997 15.629062500000003 9.148124999999993 15.2890625 9.828125 C14.629062500000003 9.828125 13.969062500000007 9.828125 13.2890625 9.828125 C13.2890625 10.488124999999997 13.2890625 11.148124999999993 13.2890625 11.828125 C11.715407029948821 13.10260642631522 10.076691177645728 14.297114478977619 8.4140625 15.453125 C3.6089880494891986 18.85077764371603 -0.9854212415679484 22.41427135628848 -5.51953125 26.1640625 C-7.5243007014879595 27.686400800060383 -9.42316137011386 28.79628064073472 -11.7109375 29.828125 C-11.7109375 30.488124999999997 -11.7109375 31.148124999999993 -11.7109375 31.828125 C-16.212004541098693 35.59901894332046 -20.72578052887934 38.52119387327586 -26.7109375 38.828125 C-27.503789482865713 36.15224955782824 -28.145969417217515 33.555096927131245 -28.7109375 30.828125 C-28.905585937500007 30.068867187500004 -29.100234375 29.309609375000008 -29.30078125 28.52734375 C-29.824375128341273 24.93278352902793 -29.750309753753243 22.294809792671344 -27.58740234375 19.24267578125 C-24.483980723762897 15.631749702024507 -21.010352408520617 12.450667524635804 -17.42529296875 9.326171875 C-15.886452757645529 7.981494641257896 -14.391202088066578 6.587316740657869 -12.90234375 5.1875 C-5.512837837365311 -1.406567678669333 -5.512837837365311 -1.406567678669333 0 0 Z " fill="#CD9672" transform="translate(104.7109375,80.171875)"/>
<path d="M0 0 C13.86 0 27.72 0 42 0 C42 11.22 42 22.44 42 34 C35.25587467362925 31.751958224543078 35.25587467362925 31.751958224543078 31.75 28.875 C30.98171875 28.25625 30.213437499999998 27.6375 29.421875 27 C27.784675130305175 25.64798978502621 26.149304336790166 24.29376209092014 24.515625 22.9375 C20.583369601564172 19.713539052214106 16.83767417724202 16.780756577349432 12.3125 14.4375 C7.836929517986263 12.076497454426148 3.95757045698484 9.154682308621554 1 5 C0.5049999999999955 2.5249999999999995 0.5049999999999955 2.5249999999999995 0 0 Z " fill="#BDE2DD" transform="translate(86,0)"/>
<path d="M0 0 C-0.14437500000000014 0.6432421875000003 -0.2887500000000003 1.2864843750000006 -0.4375 1.94921875 C-2.240083138341003 10.72429361095169 -3.6216912853056513 20.002279465437496 -0.5625 28.625 C1.4102226486517466 34.275836372072526 1.4393035777803505 39.87515105784959 1.651611328125 45.798828125 C1.8858034329852345 51.90355668786839 2.5893365638775947 57.711871450128854 3.6953125 63.7265625 C3.795859374999999 64.476796875 3.8964062499999983 65.22703125 4 66 C2.4211316004202743 67.57886839957973 0.8070766303698811 67.28319742331777 -1.375 67.375 C-3.8398437499999964 67.34375 -3.8398437499999964 67.34375 -6 67 C-7.9375000000000036 64.875 -7.9375000000000036 64.875 -9 62 C-9.516390380859374 60.746789550781244 -9.516390380859374 60.746789550781244 -10.043212890625 59.46826171875 C-11.32573137710489 54.819254926473064 -11.343988027001004 50.43523397669554 -11.37109375 45.6328125 C-11.38012222290039 44.63925750732422 -11.38915069580078 43.645702514648434 -11.398452758789063 42.622039794921875 C-11.412921523649885 40.52588905455181 -11.421833580393155 38.42969349747505 -11.425537109375 36.33349609375 C-11.437436154791648 33.142123545473076 -11.486658358752184 29.95268400204482 -11.537109375 26.76171875 C-11.546574475800526 24.718759374038534 -11.553809094174966 22.67578819907982 -11.55859375 20.6328125 C-11.578126068115235 19.686731262207033 -11.597658386230467 18.740650024414066 -11.617782592773438 17.765899658203125 C-11.574573109424616 11.360371194570419 -10.257944940079373 6.894642989728826 -6 2 C-3 0 -3 0 0 0 Z " fill="#BEA699" transform="translate(28,24)"/>
</svg>
