<?xml version="1.0" encoding="UTF-8"?>
<!-- Generator: visioncortex VTracer 0.6.0 -->
<svg version="1.1" xmlns="http://www.w3.org/2000/svg" width="128" height="128">
<path d="M0 0 C42.24 0 84.48 0 128 0 C128 42.24 128 84.48 128 128 C85.75999999999999 128 43.519999999999996 128 0 128 C0 85.75999999999999 0 43.519999999999996 0 0 Z " fill="#555F81" transform="translate(0,0)"/>
<path d="M0 0 C42.24 0 84.48 0 128 0 C128 42.24 128 84.48 128 128 C117.44 128 106.88 128 96 128 C96.70869759570465 123.03911683006743 97.25713920027141 119.82185806989574 99 115.375 C103.76529794064021 103.14640454938653 103.5988550564422 88.3032100218472 99 76 C97.51787290416256 72.9132233017359 95.94292789114012 69.88543825219254 94.36328125 66.84765625 C90.68666176853114 59.167840771516346 90.78621618644931 51.404531219767364 91.16064453125 43.063720703125 C91.33621826612108 37.08799260091821 90.01741728884458 33.36864492724215 86.16015625 28.83984375 C77.83010055614136 21.285398455941976 68.0226747464961 16.842191968895815 56.6875 16.875 C55.36298828125 16.8711328125 55.36298828125 16.8711328125 54.01171875 16.8671875 C51.065291526355665 16.997120736840348 48.19434606145289 17.35815801777389 45.272705078125 17.74609375 C40.86341700727176 18.23869871226097 36.43091390286035 18.376096035810704 32 18.5625 C31.0344921875 18.60568359375 30.068984375 18.6488671875 29.07421875 18.693359375 C26.716255745249583 18.798417132637393 24.358205836010143 18.90056914113352 22 19 C21.75765625 20.01578125 21.5153125 21.0315625 21.265625 22.078125 C19.410243375442004 29.735774008801982 17.397930784997683 37.21730838798723 14.734375 44.64453125 C13.851178051626984 47.06612281700242 13.851178051626984 47.06612281700242 14 50 C14.99 50.66 15.98 51.32 17 52 C17.14318352802048 54.77418085539679 17.131643902788742 57.36310508162508 17 60.125 C16.812100321716674 68.3668461625098 17.365748403908015 73.84484711183401 22.8125 80.4375 C24.34183750017623 82.47969690355859 24.98823591030774 83.51676739264107 25.05078125 86.0859375 C23.708137707880624 93.10710097713802 20.282735657628812 99.61816939610546 16.3125 105.5 C11.508290203973992 108.61624419201686 5.611621070940565 109 0 109 C0 73.03 0 37.06 0 0 Z " fill="#7B8DA7" transform="translate(0,0)"/>
<path d="M0 0 C14.849999999999994 0 29.700000000000003 0 45 0 C45 42.24 45 84.48 45 128 C34.44 128 23.879999999999995 128 13 128 C13.708697595704649 123.03911683006741 14.25713920027141 119.82185806989574 16 115.375 C20.765863353439556 103.14495360036466 20.597391560012866 88.30478329297561 16 76 C14.507673187753838 72.8598956658987 12.926978740196859 69.78541044873715 11.296875 66.71484375 C9.692478201327745 63.35624201783971 9.167731478393904 60.690092524665964 9 57 C10.196249999999992 56.484375 11.392499999999998 55.96875 12.625 55.4375 C19.57038667166077 51.95253566298294 23.688296590198206 45.86871818329259 27 39 C28.046374080155744 35.61467209361379 28.545825835223113 33.378210233938354 27.21875 30.02734375 C23.049871879791183 22.717722991931158 16.584395798013603 18.035272834286154 9.75 13.375 C4.07343018480168 9.468543352981797 1.3888223218883553 6.944111609441763 0 0 Z " fill="#9797AD" transform="translate(83,0)"/>
<path d="M0 0 C4.956914999267852 -0.5507683332519839 8.811510561546157 2.4234820177328444 12.74609375 5.1796875 C17.101325694264148 8.697084529509695 21.20874913039286 12.62624739117858 23 18 C23.09455661375779 19.977345658287952 23.12989394107592 21.957900834790962 23.125 23.9375 C23.128867187499992 25.49791015625 23.128867187499992 25.49791015625 23.1328125 27.08984375 C23.01932022818164 29.576659706019917 22.719285705070547 31.630924066632744 22 34 C20.143749999999997 33.814375 20.143749999999997 33.814375 18.25 33.625 C16.052555585892065 33.54254278194864 16.052555585892065 33.54254278194864 14 34 C11.58967433127954 36.740478593572206 11.58967433127954 36.740478593572206 10 40 C7.67997278080972 42.82438096249252 5.519146641005321 43.98335763704291 2 45 C-3.1397356506393095 45.25698678253197 -7.861426435009598 44.826832343406565 -12.921875 43.92578125 C-15.717130150912965 44.02561179110403 -16.93887860122007 45.19419769341127 -19 47 C-19.692226562499997 46.14728515625001 -19.692226562499997 46.14728515625001 -20.3984375 45.27734375 C-25.341234637440508 39.42608785014453 -30.54990346796469 35.11061479807988 -37 31 C-33.27930170369498 17.41021544257387 -33.27930170369498 17.41021544257387 -29.37109375 14.9921875 C-25.709108181073532 13.227207738126523 -21.972759346904056 11.96948818344034 -18.0625 10.88671875 C-9.19445225860916 8.767575915777272 -9.19445225860916 8.767575915777272 -2.375 3.125 C-1.5912500000000023 2.09375 -0.8075000000000045 1.0625 0 0 Z " fill="#2E446E" transform="translate(69,19)"/>
<path d="M0 0 C0.708984375 0.3003515624999977 1.41796875 0.6007031249999955 2.1484375 0.91015625 C5.84262818677405 2.7104896859595016 8.197862131852105 4.751965378464348 9.5703125 8.69140625 C11.251455180497416 17.723727378854306 9.786330620249885 26.068346898750576 8 35 C-2.230000000000004 35 -12.46 35 -23 35 C-24.32 32.36 -25.64 29.72 -27 27 C-27.87006499307102 25.670278029457492 -28.759995641314994 24.3528136346375 -29.6875 23.0625 C-33.16492358133319 17.588777696049604 -33.424273591546374 12.54564154927823 -32.375 6.25 C-30.364939019733534 1.4989467739156197 -27.907461034987207 -1.0896208696651968 -23.25 -3.3125 C-14.58197504177297 -5.146120664240328 -8.057356893736511 -3.5174866197731944 0 0 Z " fill="#1F3F71" transform="translate(64,93)"/>
<path d="M0 0 C2.6533595719697303 2.5467233716777997 2.996824653412986 3.970612478645691 3.3984375 7.6875 C3.4109691744649524 9.124966605626497 3.4021241990413245 10.562734692903703 3.375 12 C3.3670239257812398 12.75385986328125 3.359047851562508 13.507719726562499 3.350830078125 14.284423828125 C3.1258778260146727 23.217021484708567 1.2375795962723686 31.102692570583315 -3 39 C-3.3299999999999983 40.650000000000006 -3.6599999999999966 42.3 -4 44 C-11.920000000000002 44 -19.840000000000003 44 -28 44 C-27.67 40.7 -27.340000000000003 37.400000000000006 -27 34 C-26.438572645618834 24.838555344874152 -26.438572645618834 24.838555344874152 -28.1875 15.9375 C-29 13 -29 13 -27.9765625 10.578125 C-25.5194296764667 7.3731691432174244 -22.680061631098667 5.68860902277865 -19.1875 3.8125 C-18.58357421875 3.4702539062499937 -17.979648437500003 3.1280078125000017 -17.357421875 2.775390625 C-6.563021275193179 -3.2085881789833337 -6.563021275193179 -3.2085881789833337 0 0 Z " fill="#544D56" transform="translate(100,84)"/>
<path d="M0 0 C-0.03480468749999943 1.1343749999999986 -0.06960937499999886 2.268749999999997 -0.10546875 3.4375 C-0.4850107872591636 16.864238668955352 -0.4850107872591636 16.864238668955352 5.8125 28.4375 C7.341837500176236 30.47969690355859 7.98823591030774 31.516767392641057 8.05078125 34.0859375 C6.708137707880621 41.10710097713803 3.282735657628809 47.61816939610546 -0.6875 53.5 C-5.491709796025994 56.616244192016865 -11.388378929059446 57 -17 57 C-17 38.19 -17 19.379999999999995 -17 0 C-4.857142857142858 -2.4285714285714306 -4.857142857142858 -2.4285714285714306 0 0 Z " fill="#90A0BC" transform="translate(17,52)"/>
<path d="M0 0 C4.6200000000000045 0 9.239999999999995 0 14 0 C14.474374999999995 1.1756250000000001 14.948750000000004 2.3512500000000003 15.4375 3.5625 C18.096298385482058 8.889491818262636 22.20284001342185 11.664906895657367 27 15 C33.42844760047487 19.55008087873902 40.008484873400434 24.42727571817308 43 32 C43.014328704355194 39.364954038575 38.72239785493903 45.665026951613676 34 51 C33.34 51 32.68000000000001 51 32 51 C31.67 51.99 31.340000000000003 52.98 31 54 C28.079201954719963 56.07530387427793 26.624532691613553 57 23 57 C22.262098699536182 52.203641546985175 21.991793508046854 47.73098211574652 22.125 42.875 C22.13258673576871 36.82078485657057 21.38256677662841 33.469733853822135 17.078125 29.0078125 C13.46988370246622 25.61108879576992 10.256392318544513 22.939889411333525 5.625 21.125 C3.083493271184892 19.97345902706381 2.179008531647412 19.320116234118654 0.80078125 16.85546875 C-1.2049987401978228 10.947039910096 -1.0806917807232281 6.091171854985432 0 0 Z " fill="#708182" transform="translate(69,0)"/>
<path d="M0 0 C14.849999999999994 0 29.700000000000003 0 45 0 C45 12.540000000000001 45 25.080000000000002 45 38 C40.31929396076269 39.56023534641243 36.47629078852994 37.77278843110096 32 36 C29.022326287777744 33.82710296675673 27.58699381430175 31.30737801904362 25.75 28.1875 C21.781918197045485 21.674538986032108 15.96778128579406 17.614812570431006 9.75 13.375 C4.07343018480168 9.468543352981797 1.3888223218883553 6.944111609441763 0 0 Z " fill="#9AB4C4" transform="translate(83,0)"/>
<path d="M0 0 C1.4790689190060462 -0.026892162163747457 2.9582748275584905 -0.04634621496553848 4.4375 -0.0625 C5.2612109375 -0.07410156250000455 6.084921874999999 -0.08570312499999488 6.93359375 -0.09765625 C9 0 9 0 10 1 C10.16796875 2.960937500000014 10.16796875 2.960937500000014 10.1875 5.375 C10.201679687499997 6.166484374999996 10.215859375 6.957968750000006 10.23046875 7.7734375 C10 10 10 10 8 13 C6.441955226166858 19.595332388481637 6.748744504238811 25.050894199245477 10 31 C11.53843259109103 33.38964656281145 13.121109392670661 35.7212331067127 14.79296875 38.01953125 C16 40 16 40 16 43 C2.469999999999999 43 -11.060000000000002 43 -25 43 C-25 36.72999999999999 -25 30.460000000000008 -25 24 C-20.5078125 23.267578125 -20.5078125 23.267578125 -16.015625 22.53515625 C-15.02046875 22.358554687500003 -14.0253125 22.181953125000007 -13 22 C-12.25234375 21.8955859375 -11.5046875 21.791171875000003 -10.734375 21.68359375 C-8.85639424422898 21.137807469814575 -8.85639424422898 21.137807469814575 -7.90625 19.30859375 C-7.607187499999998 18.546757812500005 -7.308125 17.784921874999995 -7 17 C-6.5978125 16.0628515625 -6.195625 15.125703125000001 -5.78125 14.16015625 C-5.358437500000001 13.137929687500005 -4.935625000000002 12.115703124999996 -4.5 11.0625 C-4.077187500000001 10.042851562500005 -3.6543750000000017 9.023203124999995 -3.21875 7.97265625 C-2.1314472587457693 5.320613345851058 -1.059426895709013 2.6632815017129303 0 0 Z " fill="#65799F" transform="translate(25,85)"/>
<path d="M0 0 C-3.1937588928313545 6.210086736060969 -7.3050868639890325 9.657897392750698 -13.85546875 11.765625 C-15.628518367227315 12.275590345799998 -17.406068050093886 12.77013563695505 -19.1875 13.25 C-20.089199218749997 13.505234375 -20.9908984375 13.760468750000001 -21.919921875 14.0234375 C-23.584205837672542 14.494344354665351 -25.250289229288363 14.958973317224036 -26.918701171875 15.4150390625 C-28.626772011322174 15.89510213948715 -30.316797725937093 16.438932575312364 -32 17 C-33.21578555541181 19.488018297324892 -33.98305248232129 21.938565248414676 -34.71875 24.60546875 C-35.55749525338083 27.377521812423645 -36.380648219512096 29.590404550634005 -38 32 C-41.289927156936415 33.50301240672222 -44.42460750153194 33.74107327052697 -48 34 C-48.87140625 34.213984375 -49.7428125 34.42796875 -50.640625 34.6484375 C-53 35 -53 35 -55.8125 33.0625 C-56.534375 32.381875 -57.25625 31.70125 -58 31 C-57.75765625 30.463749999999997 -57.5153125 29.927499999999995 -57.265625 29.375 C-54.63092565698949 23.21385692096004 -52.889604485108975 17.04710508784767 -51.3955078125 10.53515625 C-49.7969055485198 3.6849612236362397 -49.7969055485198 3.6849612236362397 -48 1 C-45.97216796875 0.378173828125 -45.97216796875 0.378173828125 -43.4921875 0.20703125 C-42.587265625 0.1341992187499983 -41.68234375 0.06136718750000014 -40.75 -0.013671875 C-39.801249999999996 -0.07103515625000156 -38.8525 -0.12839843749999957 -37.875 -0.1875 C-36.01815702194843 -0.3258580770553756 -34.16138466341299 -0.4651674812957687 -32.3046875 -0.60546875 C-31.403955078125 -0.6680688476562509 -30.503222656250003 -0.7306689453125017 -29.5751953125 -0.795166015625 C-27.25750542256337 -0.9795177237835908 -24.968423149781643 -1.2337210947511572 -22.6640625 -1.5390625 C-14.746377245757294 -2.5351039285721093 -7.645416005904252 -2.308050114989962 0 0 Z " fill="#436B8B" transform="translate(70,18)"/>
<path d="M0 0 C2.8941235848044187 2.020795358266689 5.585976747189903 4.152068330916741 8.26171875 6.453125 C8.933320312500001 7.026757812500001 9.604921875000002 7.600390625000003 10.296875 8.19140625 C13.57589143447067 11.439415436863385 14.660507027512878 13.944212139354775 14.88671875 18.578125 C14.605189298340115 22.988753076004897 13.648000014843511 25.443097209027997 10.26171875 28.453125 C7.577635874598371 30.16117773889195 6.5000234249680915 30.453125 3.26171875 30.453125 C3.26171875 31.113124999999997 3.26171875 31.773124999999993 3.26171875 32.453125 C1.703719694394934 32.8464063150071 0.13997726218851625 33.21697194171418 -1.42578125 33.578125 C-2.2958984375 33.786953125 -3.166015625 33.99578124999999 -4.0625 34.2109375 C-7.340950008563915 34.50767312121309 -8.890281928269562 34.101722981359416 -11.73828125 32.453125 C-13.72265625 29.9921875 -13.72265625 29.9921875 -15.48828125 27.078125 C-16.08125 26.121640624999998 -16.67421875 25.165156249999995 -17.28515625 24.1796875 C-19.52040165789219 19.98559799809476 -19.87639216016673 16.7421081151071 -19.86328125 12.015625 C-19.865859375 11.088789062499998 -19.8684375 10.161953124999997 -19.87109375 9.20703125 C-19.738566754259733 6.459045014797383 -19.56736088085984 4.080809075949219 -18.73828125 1.453125 C-12.486102864700083 -1.7278078626964515 -6.391602394014775 -3.610662693337879 0 0 Z " fill="#626C74" transform="translate(35.73828125,51.546875)"/>
<path d="M0 0 C4.956914999267852 -0.5507683332519839 8.811510561546157 2.4234820177328444 12.74609375 5.1796875 C17.101325694264148 8.697084529509695 21.20874913039286 12.62624739117858 23 18 C23.09455661375779 19.977345658287952 23.12989394107592 21.957900834790962 23.125 23.9375 C23.128867187499992 25.49791015625 23.128867187499992 25.49791015625 23.1328125 27.08984375 C23.01932022818164 29.576659706019917 22.719285705070547 31.630924066632744 22 34 C16.250000000000014 34.125 16.250000000000014 34.125 14 33 C14.0348046875 32.4315234375 14.069609374999999 31.863046874999995 14.10546875 31.27734375 C14.3405924934695 24.57071887675079 13.427940656194494 20.097717388937802 9.1875 14.6875 C5.414466415453859 11.776874091921556 2.3109922821715685 10.952327553375579 -2.4375 11.125 C-7.741252525151367 12.427676058809105 -11.418308993224564 14.50155588831801 -15.375 18.25 C-17.492678359864342 21.833763378231964 -18.33244182736238 24.886032386390546 -18 29 C-17.094730934439156 31.917876184530925 -16.02928051476637 34.68257776205113 -14.8125 37.484375 C-13.912608864441253 40.27057640047995 -13.760006034484391 41.36501282327933 -15 44 C-17.062500000000007 45.75 -17.062500000000007 45.75 -19 47 C-19.692226562499997 46.14728515625001 -19.692226562499997 46.14728515625001 -20.3984375 45.27734375 C-25.341234637440508 39.42608785014453 -30.54990346796469 35.11061479807988 -37 31 C-33.27930170369498 17.41021544257387 -33.27930170369498 17.41021544257387 -29.37109375 14.9921875 C-25.709108181073532 13.227207738126523 -21.972759346904056 11.96948818344034 -18.0625 10.88671875 C-9.19445225860916 8.767575915777272 -9.19445225860916 8.767575915777272 -2.375 3.125 C-1.5912500000000023 2.09375 -0.8075000000000045 1.0625 0 0 Z " fill="#38546B" transform="translate(69,19)"/>
<path d="M0 0 C3.3000000000000003 0 6.6000000000000005 0 10 0 C10.794238612160505 1.561194218559774 11.585271234025498 3.1240196396169537 12.375 4.6875 C12.815859375 5.5576171875 13.25671875 6.427734375 13.7109375 7.32421875 C14.926642680344079 9.847727987986953 15.992609582475463 12.38737531903683 17 15 C17.66 15 18.32 15 19 15 C19 15.66 19 16.32 19 17 C19.99 17.33 20.98 17.66 22 18 C20.884275157805064 24.39006045984373 19.356997464682514 30.58493164604588 17.5625 36.8125 C17.35729736328125 37.54138427734375 17.1520947265625 38.2702685546875 16.940673828125 39.021240234375 C15.757868139284861 43.04425981820085 14.50834121554752 46.57365761793766 12 50 C7.618264641781835 52.044809833835146 5.023939753238711 52 0 52 C0 34.84 0 17.68 0 0 Z " fill="#5F80BA" transform="translate(0,0)"/>
<path d="M0 0 C0 20.790000000000006 0 41.58000000000001 0 63 C-7.905172413793096 59.61206896551724 -7.905172413793096 59.61206896551724 -10.75 55.25 C-11.301718750000006 54.43015625000001 -11.853437499999998 53.61031249999999 -12.421875 52.765625 C-16.440582565345977 45.72293946469071 -17.47913083927766 40.74606995076515 -17.375 32.6875 C-17.392402343750007 31.358154296875 -17.392402343750007 31.358154296875 -17.41015625 30.001953125 C-17.368091763852178 20.390218040224028 -15.304438256241355 11.268023348303771 -8.29296875 4.3046875 C-3.53779069767441 0 -3.53779069767441 0 0 0 Z " fill="#C9C2E2" transform="translate(128,49)"/>
<path d="M0 0 C2.87808071435785 1.6069283988498029 3.5441407250543904 3.8313733547407622 4.875 6.796875 C8.215556070348029 14.167884590007063 10.435915584881968 17.327332792440984 17.875 21.046875 C17.875 26.326875 17.875 31.606875000000002 17.875 37.046875 C7.314999999999998 37.046875 -3.2450000000000045 37.046875 -14.125 37.046875 C-13.40988989299332 32.04110425095321 -13.032155963358193 29.404290959969813 -11.1875 25.109375 C-9.043240284370555 19.603222373080087 -8.392536453246677 14.300652784174375 -8.072509765625 8.441650390625 C-7.784627598421153 4.9156349742711 -7.517315747814763 3.3908955545761756 -4.80859375 1.015625 C-2.125 0.046875 -2.125 0.046875 0 0 Z " fill="#919FAA" transform="translate(110.125,90.953125)"/>
</svg>
