<?xml version="1.0" encoding="UTF-8"?>
<!-- Generator: visioncortex VTracer 0.6.0 -->
<svg version="1.1" xmlns="http://www.w3.org/2000/svg" width="128" height="128">
<path d="M0 0 C42.24 0 84.48 0 128 0 C128 42.24 128 84.48 128 128 C85.75999999999999 128 43.519999999999996 128 0 128 C0 85.75999999999999 0 43.519999999999996 0 0 Z " fill="#AC905D" transform="translate(0,0)"/>
<path d="M0 0 C42.24 0 84.48 0 128 0 C128 23.76 128 47.52 128 72 C121.10992356949322 70.85165392824887 118.35139345463013 69.310755791084 114 64 C112.88361110213467 61.71302856845062 111.82465602759532 59.397473806234764 110.8125 57.0625 C107.14888553003698 48.7188213346043 101.81650964018867 46.047321556024066 94 42 C88.18367346938777 38.36734693877553 88.18367346938777 38.36734693877553 87 36 C87.085078125 35.04609375 87.17015625 34.0921875 87.2578125 33.109375 C87.34059035765254 29.870343884547985 87.34059035765254 29.870343884547985 84.8671875 28.015625 C83.879765625 27.43296875 82.89234375 26.8503125 81.875 26.25 C80.7857421875 25.5796875 79.696484375 24.909375 78.57421875 24.21875 C77.9920458984375 23.8642578125 77.409873046875 23.509765625 76.81005859375 23.14453125 C73.07459281194888 20.782531845483724 69.54712197894631 18.114967868621136 65.98583984375 15.5009765625 C56.86484574922504 8.637603306364399 56.86484574922504 8.637603306364399 46 7 C33.77681500958346 11.57362916637457 22.491583187037676 20.663257064398962 16.9375 32.75 C13.423860779601448 44.590482852301975 16.75064359389023 56.57484360432371 20 68 C22.086004655098286 75.37520474292072 23.143808543013655 81.93329428692363 22.9375 89.5625 C22.666704278125298 101.48807940041371 27.07978066300636 110.6530361948522 32.609375 120.96875 C34 124 34 124 34 128 C22.78 128 11.559999999999999 128 0 128 C0 85.75999999999999 0 43.519999999999996 0 0 Z " fill="#5C4E28" transform="translate(0,0)"/>
<path d="M0 0 C5.684803002739983 4.541047816929748 10.381027857336548 10.193433061981374 15.1875 15.625 C15.517499999999998 15.954999999999998 15.847499999999997 16.284999999999997 16.1875 16.625 C16.485246887056917 18.850731680475015 16.750483905077346 21.080846702420658 17 23.3125 C17.91958881009205 29.79560111114897 18.765464111631644 33.97945016662287 24.1328125 38.12890625 C27.923776500378764 40.76408854294621 31.81196986453645 42.940678613516525 35.9375 45 C40.712397609572136 47.6037333654984 42.883768606989946 50.781722189498566 45.1875 55.625 C45.494296875 56.230859374999994 45.80109375000001 56.83671875 46.1171875 57.4609375 C49.044175377741865 64.06756728118877 49.1875 71.48401794686204 49.1875 78.625 C48.197500000000005 79.1096875 47.207499999999996 79.594375 46.1875 80.09375 C36.8340672375227 84.79532993668322 27.868043153111955 89.71326155811586 23.1875 99.625 C22.692499999999995 101.60499999999999 22.692499999999995 101.60499999999999 22.1875 103.625 C17.237499999999997 103.625 12.287499999999994 103.625 7.1875 103.625 C6.6924999999999955 102.284375 6.197499999999991 100.94375 5.6875 99.5625 C2.155968243553893 91.66921674085555 -4.235007145579914 87.73366229262618 -11.64453125 83.79296875 C-19.48680564099287 79.5680317357534 -23.550632577732785 74.79498267946792 -27.125 66.625 C-28.61103279165633 60.140493272772375 -27.690706018181196 54.43686071385196 -26.2373046875 48.064208984375 C-24.361525297777135 39.82588762161687 -23.218323656297663 33.50204534991193 -25.9921875 25.3203125 C-28.317259026247307 17.680791770901713 -27.554570676621985 8.703374653369295 -23.8125 1.625 C-16.94708468056519 -5.812533262721043 -7.887797247244734 -5.440970346058613 0 0 Z " fill="#D09C6A" transform="translate(57.8125,24.375)"/>
<path d="M0 0 C1.9873528946707353 1.1369033535816548 3.892105601976553 2.3499310297203113 5.796142578125 3.621337890625 C6.4849853515625 4.066225585937499 7.173828125 4.511113281250001 7.883544921875 4.969482421875 C13.22593743187727 8.46301359068121 18.355811427680308 12.19847330102468 23.397705078125 16.113525390625 C26.084845487459972 18.225060035166138 26.084845487459972 18.225060035166138 29.358642578125 20.113525390625 C32.046142578125 22.121337890625 32.046142578125 22.121337890625 32.632080078125 24.261962890625 C32.436767578125 26.215087890625 32.241455078125 28.168212890625 32.046142578125 30.121337890625 C30.486480400808475 30.63012089215738 28.923250170215596 31.12797257691468 27.358642578125 31.621337890625 C26.488525390625 31.899775390625003 25.618408203125 32.178212890625 24.721923828125 32.465087890625 C21.918804392910673 33.15256827765567 19.90885594986483 33.53225368561158 17.046142578125 33.121337890625 C14.764892578125014 31.363525390625007 14.764892578125014 31.363525390625007 12.546142578125 28.996337890625 C11.374384765624995 27.764638671874998 11.374384765624995 27.764638671874998 10.178955078125 26.508056640625 C8.516656526510857 24.64786540429489 6.949223873756594 22.77712803632265 5.421142578125 20.808837890625 C1.892215595788727 16.815578410612904 -1.7217310967841257 14.849205170545936 -6.828857421875 13.183837890625 C-11.298289788280599 13.094449243296886 -14.993879638721339 14.035950350827349 -18.953857421875 16.121337890625 C-24.141030086301544 22.086586454715526 -24.203857421875 28.255157699698927 -24.203857421875 35.840087890625 C-23.94900645503563 39.18500683039179 -23.1924727595622 41.92481496543639 -22.203857421875 45.121337890625 C-20.149458681476986 52.950774564860765 -22.115180114390512 59.75128775554127 -23.973388671875 67.422119140625 C-25.354424015776026 73.42744682113913 -25.956942400471902 79.10385109878634 -23.141357421875 84.808837890625 C-22.771396484375003 85.559072265625 -22.401435546875 86.309306640625 -22.020263671875 87.082275390625 C-21.668349609375 87.755166015625 -21.316435546875 88.428056640625 -20.953857421875 89.121337890625 C-20.500107421875 90.049462890625 -20.046357421875 90.977587890625 -19.578857421875 91.933837890625 C-17.00904319995184 95.39320318936771 -13.667662705888304 97.23054644356723 -9.879638671875 99.199462890625 C-2.0956391248377813 103.27485532362878 6.027607169495084 108.46820305255258 9.046142578125 117.121337890625 C9.046142578125 118.111337890625 9.046142578125 119.101337890625 9.046142578125 120.121337890625 C-1.183857421875004 120.121337890625 -11.413857421875 120.121337890625 -21.953857421875 120.121337890625 C-23.273857421875 116.491337890625 -24.593857421875 112.861337890625 -25.953857421875 109.121337890625 C-27.866244806144127 105.76296046916664 -27.866244806144127 105.76296046916664 -29.781982421875 102.406494140625 C-33.66233163893625 94.83981316735557 -34.100127540597775 87.5094920697043 -33.9052734375 79.166015625 C-33.790294145870355 71.11651496884521 -35.86123948805182 63.96703972221769 -38.043701171875 56.285400390625 C-41.04996962009556 45.396293114552726 -44.07002599961798 32.825876403847104 -38.399169921875 22.297119140625 C-30.625542501742068 10.594658402749207 -15.856459503947129 -7.130750687830278 0 0 Z " fill="#9D6F48" transform="translate(55.953857421875,7.878662109375)"/>
<path d="M0 0 C0.3299999999999983 0.6600000000000001 0.6600000000000001 1.3200000000000003 1 2 C0.698359374999999 2.7257421875000034 0.39671875000000156 3.4514843749999997 0.0859375 4.19921875 C-4.065079020373549 14.905257761179264 0.012001794754393558 27.493812762200932 3 38 C5.086004655098289 45.37520474292073 6.143808543013655 51.93329428692361 5.9375 59.5625 C5.666704278125298 71.48807940041371 10.079780663006364 80.6530361948522 15.609375 90.96875 C17 94 17 94 17 98 C5.780000000000001 98 -5.440000000000001 98 -17 98 C-17 67.97 -17 37.94 -17 7 C-12.05 5.515000000000001 -12.05 5.515000000000001 -7 4 C-4.625766940757032 2.7409370140378186 -2.273356748003639 1.433203167219684 0 0 Z " fill="#64602A" transform="translate(17,30)"/>
<path d="M0 0 C9.75467666811663 -0.5697421770758382 17.458734367094735 3.2185346999129862 24.75390625 9.3984375 C27.321530038955217 11.367236277772705 29.930331128775947 12.69739863704649 32.83203125 14.12109375 C38.02132772853338 16.84310901363463 40.91427686307543 19.71313503535265 43.08203125 25.18359375 C43.70703125 27.87109375 43.70703125 27.87109375 43.08203125 30.18359375 C39.72668912057023 34.352352153230925 35.67575602025528 36.62457824375559 31.08203125 39.18359375 C29.89114795488348 39.86061049903637 28.701031848809095 40.53897867516753 27.51171875 41.21875 C25.726797859914257 42.236743342807145 23.941873916452337 43.25472455272508 22.15625 44.271484375 C19.54606117704043 45.76096298589415 16.960013979619404 47.26099677614451 14.421875 48.87109375 C10.141990142635791 51.27183049803736 5.724236143978658 51.77929085336973 0.93359375 50.69921875 C-5.374684684267024 48.137235937615685 -8.206948110955189 43.19867079288068 -10.91796875 37.18359375 C-13.573895629432812 29.983541975287608 -14.477887387874624 22.803949967855246 -14.91796875 15.18359375 C-15.084257812499999 14.065976562499998 -15.084257812499999 14.065976562499998 -15.25390625 12.92578125 C-15.48046875 10.87109375 -15.48046875 10.87109375 -14.91796875 7.18359375 C-11.982465337807731 3.920339956834809 -8.596967935338036 1.786311406275189 -4.48046875 0.30859375 C-2.9852188853573978 0.23565473221255928 -1.4902160295126237 0.1426479702384782 0 0 Z " fill="#EFC092" transform="translate(59.91796875,54.81640625)"/>
<path d="M0 0 C5.684803002739983 4.541047816929744 10.381027857336562 10.19343306198138 15.1875 15.625 C15.517499999999998 15.954999999999998 15.847499999999997 16.284999999999997 16.1875 16.625 C16.56244795846291 18.88933415540494 16.887539434502003 21.16201789766761 17.1875 23.4375 C17.919258583507514 29.084153716148897 17.919258583507514 29.084153716148897 19.1875 34.625 C18.402460937499995 34.4084375 17.61742187499999 34.191875 16.80859375 33.96875 C8.348578079297397 31.726586337580663 1.6109607468960334 30.46620221991399 -6.8125 33.625 C-7.93021766380884 34.56749351698845 -9.03408545178911 35.52660786213501 -10.125 36.5 C-12.45412473648259 38.25872684183379 -13.417517419207726 38.647311993113455 -16.37109375 38.48046875 C-19.41105409782366 37.5848055415701 -21.372798053141018 36.658084955715815 -23.8125 34.625 C-28.12692974341844 26.24157214527375 -28.18871427816691 14.57602527977133 -25.625 5.625 C-24.126347397328324 1.770326096384018 -22.482394636957153 -0.2898325926379819 -18.8125 -2.375 C-11.753260255978631 -5.305250459782457 -6.116229840288568 -4.218950379627628 0 0 Z " fill="#D09E81" transform="translate(57.8125,24.375)"/>
<path d="M0 0 C15.510000000000005 0 31.02000000000001 0 47 0 C47 9.57 47 19.14 47 29 C21.841934532586265 31.79534060749042 21.841934532586265 31.79534060749042 15.35546875 26.7109375 C13.778109982126665 24.71991980452875 12.844390909376912 22.758323236613055 11.8125 20.4375 C9.4147613678456 15.42204671439264 6.331411970057545 11.485910229106802 2.671875 7.32421875 C1 5 1 5 0 0 Z " fill="#463609" transform="translate(81,0)"/>
<path d="M0 0 C8.850422209496799 1.5371785942810234 16.137250478685758 1.1875 25.625 1.1875 C25.625 15.377499999999998 25.625 29.567500000000003 25.625 44.1875 C18.734923569493247 43.03915392824888 15.976393454630113 41.498255791084006 11.625 36.1875 C10.508611102134665 33.90052856845062 9.449656027595324 31.584973806234764 8.4375 29.25 C4.773885530036978 20.906321334604314 -0.5584903598113442 18.234821556024066 -8.375 14.1875 C-14.191326530612244 10.554846938775512 -14.191326530612244 10.554846938775512 -15.375 8.1875 C-15.375 5.25 -15.375 5.25 -14.375 2.1875 C-9.132750948038904 -0.7571386362401142 -6.021186478292549 -1.0614668946268324 0 0 Z " fill="#7C5B27" transform="translate(102.375,27.8125)"/>
<path d="M0 0 C0.3299999999999983 0.6600000000000001 0.6600000000000001 1.3200000000000003 1 2 C0.698359374999999 2.7257421875000034 0.39671875000000156 3.4514843749999997 0.0859375 4.19921875 C-4.065924865149654 14.907439310475908 0.014416331253748638 27.491601567351907 3 38 C5.768651940264029 47.89300735140368 6.353112610730236 56.81204726819064 6 67 C4.514446169081637 66.0726542752449 3.036724940335514 65.13275187282044 1.5625 64.1875 C0.7387890625000004 63.665429687499994 -0.08492187499999915 63.143359375 -0.93359375 62.60546875 C-3 61 -3 61 -4 58 C-5.79932579190919 56.932832964208785 -5.79932579190919 56.932832964208785 -8 56 C-8.825 55.484375 -9.65 54.96875 -10.5 54.4375 C-13.129438641955666 52.77402991736416 -13.129438641955666 52.77402991736416 -17 52 C-17 37.150000000000006 -17 22.299999999999997 -17 7 C-12.05 5.515000000000001 -12.05 5.515000000000001 -7 4 C-4.625766940757032 2.7409370140378186 -2.273356748003639 1.433203167219684 0 0 Z " fill="#6F5C2F" transform="translate(17,30)"/>
<path d="M0 0 C5.506875000000008 0.340312499999996 5.506875000000008 0.340312499999996 11.125 0.6875 C11.125 8.607500000000002 11.125 16.527500000000003 11.125 24.6875 C-4.715000000000003 24.6875 -20.555000000000007 24.6875 -36.875 24.6875 C-35.493480346452245 16.398382078713453 -31.02175190956801 11.93839061322926 -24.48828125 6.81640625 C-22.32007949805589 5.34026210309068 -20.163177176323615 3.9693584181498807 -17.875 2.6875 C-17.040976562499992 2.1332031249999943 -16.206953125 1.5789062500000028 -15.34765625 1.0078125 C-10.188110594166332 -0.9538595266274257 -5.438014222119435 -0.37728947260170287 0 0 Z " fill="#A6783D" transform="translate(116.875,103.3125)"/>
<path d="M0 0 C1.9879725186211061 1.1363116483870392 3.892637717638422 2.3493089954514144 5.796875 3.620849609375 C6.4857177734375 4.065737304687499 7.174560546875 4.510625000000001 7.88427734375 4.968994140625 C13.22666985375227 8.462525309431207 18.356543849555308 12.197985019774684 23.3984375 16.113037109375 C26.085577909334972 18.224571753916138 26.085577909334972 18.224571753916138 29.359375 20.113037109375 C32.046875 22.120849609375004 32.046875 22.120849609375004 32.6328125 24.261474609375 C32.4375 26.214599609375 32.2421875 28.167724609375 32.046875 30.120849609375 C30.48721282268349 30.62963261090738 28.923982592090596 31.12748429566468 27.359375 31.620849609375 C26.4892578125 31.899287109375003 25.619140625 32.177724609375 24.72265625 32.464599609375 C21.91953681478566 33.15207999640567 19.909588371739858 33.53176540436158 17.046875 33.120849609375 C14.765625000000014 31.363037109375007 14.765625000000014 31.363037109375007 12.546875 28.995849609375 C11.375117187499995 27.764150390624998 11.375117187499995 27.764150390624998 10.1796875 26.507568359375 C8.517388948385857 24.64737712304489 6.949956295631594 22.77663975507265 5.421875 20.808349609375 C1.892948017663727 16.815090129362904 -1.7209986749091328 14.848716889295936 -6.828125 13.183349609375 C-12.415497148632788 13.071602166402343 -17.26316007956145 14.678196628512822 -21.515625 18.308349609375 C-22.2271875 19.205537109375 -22.2271875 19.205537109375 -22.953125 20.120849609375 C-23.076875 19.192724609375 -23.076875 19.192724609375 -23.203125 18.245849609375 C-23.75260582782854 15.957323323066362 -23.75260582782854 15.957323323066362 -25.890625 14.995849609375 C-26.9115625 14.562724609375 -26.9115625 14.562724609375 -27.953125 14.120849609375 C-28.613125 13.460849609375 -29.273125 12.800849609375 -29.953125 12.120849609375 C-22.117346207213842 3.7953346420397054 -12.021921177709203 -5.411367270116355 0 0 Z " fill="#967457" transform="translate(55.953125,7.879150390625)"/>
<path d="M0 0 C0.7463671874999989 0.4183007812499966 1.4927343749999977 0.8366015625000003 2.26171875 1.267578125 C8.692693622488036 5.05217838181818 13.490109193249623 10.000904015023615 15.5 17.4375 C15.42578125 19.343749999999986 15.42578125 19.343749999999986 14.5 21.4375 C11.769531250000028 23.394531249999986 11.769531250000028 23.394531249999986 8.3125 25.25 C7.1845703125 25.875195312499997 6.056640625 26.500390624999994 4.89453125 27.14453125 C0.3281273350382321 28.88386346617071 -2.395753645475253 28.331181615881064 -6.80859375 26.45703125 C-14.372165333717803 22.16869433372696 -20.635587311654476 18.58551622406808 -23.078125 9.828125 C-23.75872837737775 5.971372528192731 -23.68611528834046 2.3459210551495175 -23.5 -1.5625 C-21.940337822683475 -2.071283001532379 -20.377107592090596 -2.5691346862896793 -18.8125 -3.0625 C-17.9423828125 -3.3409375000000026 -17.072265625 -3.619374999999998 -16.17578125 -3.90625 C-9.39264105886403 -5.569852265855246 -5.781430665553586 -3.4498865197733437 0 0 Z " fill="#B78854" transform="translate(97.5,42.5625)"/>
<path d="M0 0 C0.24234374999999986 0.7966406249999949 0.4846874999999997 1.593281250000004 0.734375 2.4140625 C3.5062466049864085 11.177441189610875 5.793043430871705 17.199704648245714 14 22 C14.683203124999999 22.3544921875 15.366406249999997 22.708984375 16.0703125 23.07421875 C23.854318269709083 27.156075434115735 31.979956177587482 32.34254104241744 35 41 C35 41.99000000000001 35 42.97999999999999 35 44 C24.769999999999996 44 14.54 44 4 44 C2.6799999999999997 40.370000000000005 1.3599999999999994 36.74000000000001 0 33 C-1.9076648010108634 29.64980107252765 -1.9076648010108634 29.64980107252765 -3.82421875 26.3046875 C-7.933793435044919 18.249374994430227 -8.415357512655099 10.816142578827538 -7 2 C-2.25 0 -2.25 0 0 0 Z " fill="#9B7A4F" transform="translate(30,84)"/>
</svg>
