<?xml version="1.0" encoding="UTF-8"?>
<!-- Generator: visioncortex VTracer 0.6.0 -->
<svg version="1.1" xmlns="http://www.w3.org/2000/svg" width="128" height="128">
<path d="M0 0 C42.24 0 84.48 0 128 0 C128 42.24 128 84.48 128 128 C85.75999999999999 128 43.519999999999996 128 0 128 C0 85.75999999999999 0 43.519999999999996 0 0 Z " fill="#8E9DB0" transform="translate(0,0)"/>
<path d="M0 0 C26.07 0 52.14 0 79 0 C77.7172457587876 14.110296653336375 74.00477684058822 19.92399415950917 63.60546875 28.6015625 C58.30331135294186 33.21998670473677 56.31693833177428 37.83061668225713 55.625 44.75 C55.89233848094101 53.00604132317809 60.02414016393473 59.50294192340341 65.125 65.703125 C67.12563066179699 68.15389756070131 68.98098929661816 70.67062242607058 70.8125 73.25 C71.65748046875 74.433359375 71.65748046875 74.433359375 72.51953125 75.640625 C77.07074094469142 82.89374018626285 77.5566362764977 90.09701757902768 75.84765625 98.34765625 C73.97180099257864 104.21726786193136 70.23165198722235 107.56675520819127 64.875 110.375 C53.14046296556336 115.79456529702897 41.00115174109531 114.06661504342942 29.0498046875 110.55859375 C26.993360183587598 109.99819057885284 24.943637138483467 109.56186635343774 22.8515625 109.15625 C12.060564679486774 106.99575067316033 3.4814943158328333 103.1350111840884 -3.265625 93.8984375 C-6.653981423408155 88.23591392754763 -7.024758356119978 82.27245406936176 -5.4921875 75.8828125 C-3.115059233323599 70.13616261259783 1.3971988610112334 66.86471797361176 6.24609375 63.17578125 C11.743044845468404 58.92125352116834 11.743044845468404 58.92125352116834 15 53 C15.623710374952744 38.155693076124706 9.906726561220566 25.737080151861306 3 13 C1 8.999999999999998 1 8.999999999999998 0 0 Z " fill="#5E6F87" transform="translate(30,0)"/>
<path d="M0 0 C6.269999999999996 0 12.539999999999992 0 19 0 C19 30.69 19 61.38 19 93 C11.740000000000009 94.32 4.47999999999999 95.64 -3 97 C-3 94.36 -3 91.72 -3 89 C-3.8554020707400696 78.43840300412775 -10.525964406888846 70.46119176144973 -17.42578125 62.91015625 C-22.6736778713734 56.54236109404072 -24.7894417689552 49.188523446613715 -24 41 C-21.35031656987087 31.461139651535127 -12.553449578593117 23.9363996254161 -5.3125 17.5 C-2.302583853655989 14.060095832749704 -1.6151387134739252 9.57546522988112 -0.875 5.1875 C-0.5862500000000068 3.475625 -0.29749999999999943 1.76375 0 0 Z " fill="#98ADC4" transform="translate(109,0)"/>
<path d="M0 0 C6.250949371860514 4.3787337662132515 11.209501557706346 10.194244302190612 15.9375 16.125 C16.397937011718753 16.698310546875007 16.858374023437506 17.27162109375 17.332763671875 17.8623046875 C21.08587089992102 22.720165588038384 23.63328112366257 27.387128006095793 24.5 33.5625 C23.87237708874963 37.87740751484631 22.316198521962974 40.306100459936246 19 43 C7.273739186328868 49.416255916914395 -9.371509225161354 47.73218619707893 -21.75 44.1875 C-27.854885942208696 42.183660967204446 -32.14147522283679 40.63790613532842 -35.9375 35.25 C-37.25772518942725 31.21166412645782 -37.269686288282045 28.005825976599937 -36 24 C-33.06533666413819 18.646691251600146 -28.970478120107018 15.019706742795364 -24.125 11.4375 C-22.87927017687396 10.490816574497273 -21.63446735491516 9.542911996956434 -20.390625 8.59375 C-19.80216796875 8.147734374999999 -19.213710937499997 7.701718749999998 -18.607421875 7.2421875 C-16.629457939505016 5.713651579009955 -14.744824963697525 4.095953446062154 -12.875 2.4375 C-7.994696598297367 -1.700148536226152 -6.0896531080776555 -2.7204098608613947 0 0 Z " fill="#364A7A" transform="translate(72,55)"/>
<path d="M0 0 C0 11.549999999999997 0 23.099999999999994 0 35 C-24.75 35 -49.5 35 -75 35 C-75.99 32.69 -76.98 30.379999999999995 -78 28 C-82.00389571350732 23.289534454697275 -87.08700276699149 19.714183093363744 -92 16 C-90.5625 14.4375 -90.5625 14.4375 -88 13 C-81.65974023498956 12.788149781298216 -75.35820761006588 14.80312937969282 -69.3125 16.5 C-56.86845587299288 19.943016161622523 -45.12517423268305 21.743503583902495 -33 16 C-28.43050006249274 13.32727362145802 -25.10990716485054 10.90283412345525 -23.1875 5.875 C-21.317053088152775 2.921662770767526 -19.384303367433304 2.8169008128287345 -16 2 C-10.643838296409044 0.9688672656188544 -5.464632854739818 0 0 0 Z " fill="#B2A69A" transform="translate(128,93)"/>
<path d="M0 0 C2.8168189003555995 3.1186209253936994 4.511758287908407 6.934105016734563 5.75 10.9375 C5.420000000000002 11.597499999999997 5.090000000000003 12.2575 4.75 12.9375 C4.242109374999998 12.455390625 3.7342187499999966 11.97328125 3.2109375 11.4765625 C-2.255395723321655 6.18802677067373 -2.255395723321655 6.18802677067373 -9.25 3.9375 C-15.356548076998124 6.287193499192753 -20.154335555360056 11.371751398130456 -24.85546875 15.75390625 C-31.636404293381034 21.9375 -31.636404293381034 21.9375 -34.25 21.9375 C-34.518125 22.473749999999995 -34.786249999999995 23.010000000000005 -35.0625 23.5625 C-36.25 25.9375 -36.25 25.9375 -37.9375 28.6875 C-39.60907191192087 32.826630448565965 -39.633006426796214 35.70970187251535 -38.25 39.9375 C-33.87937692526097 46.34774717628392 -26.209088444546452 48.1052450656951 -18.9609375 49.62890625 C-7.628152630070062 51.526550554918 4.708030452921761 52.39671311084544 15.3125 47.1875 C18.043313686343325 44.666748904913845 19.35008520174378 42.359513951292996 20.75 38.9375 C24.049999999999997 40.587500000000006 27.349999999999994 42.2375 30.75 43.9375 C30.52723436586058 49.39525803641584 29.30196848005724 52.35767837680609 25.56640625 56.36328125 C17.80988065273533 63.08560343429605 7.652829693205732 64.09314368869478 -2.25 63.9375 C-7.01371527784174 63.10075959191602 -11.56491098226001 61.85666641671793 -16.2001953125 60.49609375 C-18.256639816412395 59.93569057885284 -20.306362861516547 59.499366353437736 -22.3984375 59.09375 C-33.189435320513226 56.93325067316033 -41.76850568416717 53.0725111840884 -48.515625 43.8359375 C-51.903981423408155 38.17341392754764 -52.274758356119975 32.20995406936174 -50.7421875 25.8203125 C-48.37700563324995 20.102542744458617 -43.91880667890351 16.863536918892763 -39.11328125 13.171875 C-36.497427416640406 11.130581149138216 -34.142662403624584 8.981007024735632 -31.75 6.6875 C-22.56483915737148 -1.5741976340339079 -11.47265794559818 -5.417644029865805 0 0 Z " fill="#556A8F" transform="translate(75.25,50.0625)"/>
<path d="M0 0 C14.519999999999996 0 29.040000000000006 0 44 0 C42.71724575878761 14.110296653336379 39.00477684058822 19.923994159509167 28.60546875 28.6015625 C23.30331135294186 33.21998670473677 21.31693833177428 37.83061668225713 20.625 44.75 C20.892338480941007 53.00604132317809 25.02414016393473 59.50294192340341 30.125 65.703125 C32.12563066179699 68.15389756070131 33.98098929661816 70.67062242607058 35.8125 73.25 C36.3758203125 74.03890625 36.93914062499999 74.8278125 37.51953125 75.640625 C40.69483642889816 80.70100581280869 42.641292164960205 86.42708650950743 41.5625 92.4375 C41.284062500000005 93.2109375 41.284062500000005 93.2109375 41 94 C37.39329801452374 92.66036783396595 34.13806693478888 91.24147638199206 31 89 C29.953125 86.68750000000001 29.953125 86.68750000000001 29.25 84 C27.352194693966013 78.12914700043957 24.267823484166513 74.44930716993382 20.2578125 69.84375 C16.259130809752662 64.80734814792376 11.627986225892215 57.57463130372864 11 51 C11.99609375 48.33593750000001 11.99609375 48.33593750000001 13.4375 45.375 C16.215190715351184 38.99717383235006 17.416999892660925 33.691061756448875 15.37109375 26.91796875 C13.161045863532792 21.893330730094714 9.604562974293131 18.289800067475998 5.90625 14.30859375 C2.4741019724731075 10.15203742977788 0 5.441853975406474 0 0 Z " fill="#6983A6" transform="translate(65,0)"/>
<path d="M0 0 C24.228915662650603 0 24.228915662650603 0 33.1953125 7.9453125 C37.364609002165935 12.234158722658151 39.88742145923633 15.993109460761893 41.13671875 21.859375 C40.94173334695303 24.91228931056399 39.800570075955605 26.55580509426202 38 29 C32.81028335022522 33.301862884843864 26.34832636880929 35.860525781988926 20.125 38.3125 C19.50214111328125 38.56700927734374 18.8792822265625 38.8215185546875 18.237548828125 39.083740234375 C11.888182181187187 41.45838557272421 7.312142661774324 41.39065477818548 0 42 C0 28.14 0 14.280000000000001 0 0 Z " fill="#ADBACB" transform="translate(0,27)"/>
<path d="M0 0 C4.254217139678781 -0.022913198238844423 8.508221565289888 -0.04283889017990304 12.762451171875 -0.054931640625 C14.210700725114682 -0.05997100937013752 15.658945167666799 -0.06680253110007206 17.107177734375 -0.075439453125 C19.184745880302057 -0.08752247005307388 21.262246971606714 -0.09323211299738166 23.33984375 -0.09765625 C24.59144287109375 -0.10289306640625 25.8430419921875 -0.1081298828125 27.132568359375 -0.113525390625 C30 0.000000000000000013877787807814457 30 0.000000000000000013877787807814457 31 1 C31.199344217124732 2.352473842338564 31.383747777996714 3.7071508736712895 31.5625 5.0625 C32.51726103290646 10.164276511713926 34.483359030398155 14.266755191110512 36.875 18.8125 C42.25463795417531 29.060698191857607 47.40886669451532 41.15596812746447 46 53 C44.5625 56 44.5625 56 43 58 C42.67 58 42.34 58 42 58 C41.8040625 56.9494140625 41.608125 55.898828125 41.40625 54.81640625 C39.581238117109095 45.91297814497267 37.673752775134936 38.661178020234914 30 33 C22.62465918930559 28.730697026654944 14.711391470012018 28.436846600727293 6.40625 28.17578125 C3.0000000000000018 28 3.0000000000000018 28 0 27 C0 18.09 0 9.18 0 0 Z " fill="#7F97B4" transform="translate(0,0)"/>
<path d="M0 0 C0 12.870000000000005 0 25.740000000000002 0 39 C-13.400868269548525 39 -20.811369817002557 37.96985327387847 -30 29 C-34.0650966905246 23.506626093885686 -35.94250643873954 18.898623516885216 -35 12 C-32.73773343839926 7.64304217765784 -30.110439890549586 4.6765655101253145 -26 2 C-19 0 -19 0 0 0 Z " fill="#DAE1E6" transform="translate(128,35)"/>
<path d="M0 0 C31.26317708708492 -1.0780405892098202 31.26317708708492 -1.0780405892098202 42.4375 7.4375 C43.66020635366438 8.588717474115455 44.85314744193713 9.773198585726021 46 11 C46.515625 11.4808203125 47.03125 11.961640625000001 47.5625 12.45703125 C49.732714264620114 14.497772504514941 51.34023687624561 16.510355314368425 53 19 C53 20.319999999999993 53 21.64 53 23 C35.51 23 18.019999999999996 23 0 23 C0 15.409999999999997 0 7.819999999999993 0 0 Z " fill="#C1C0B9" transform="translate(0,105)"/>
<path d="M0 0 C7.4855721530305175 4.933114763144701 11.371311842761116 10.808556498801039 14 19.1875 C14 22 14 22 12.375 24.75 C7.401192769982984 29.462027902121378 2.2583080351107014 29.33796286398713 -4.25 29.3125 C-5.462363281249992 29.336669921875 -5.462363281249992 29.336669921875 -6.69921875 29.361328125 C-12.926755916674871 29.36631015473334 -19.655721482944443 28.702977197555683 -24.665283203125 24.654052734375 C-26.70327977855434 22.423758736137373 -27.919623372768733 20.58722218247783 -28.33203125 17.57421875 C-27.91288566242961 14.324607665189546 -26.829410307177454 13.076360965533127 -24.625 10.6875 C-23.998515624999996 9.990117187500005 -23.37203125 9.292734374999995 -22.7265625 8.57421875 C-21 7 -21 7 -19 7 C-19 6.340000000000003 -19 5.680000000000007 -19 5 C-17.35546875 3.74609375 -17.35546875 3.74609375 -15.1875 2.4375 C-14.4798046875 2.0030859375000034 -13.772109375 1.5686718750000068 -13.04296875 1.12109375 C-8.63558926314986 -1.2974873450783733 -4.729713531221634 -1.5874817042508624 0 0 Z " fill="#123378" transform="translate(72,64)"/>
<path d="M0 0 C0.49500000000000455 0.9899999999999949 0.49500000000000455 0.9899999999999949 1 2 C-0.8490921872295019 6.694498886299556 -3.376040159348946 11.072973951032722 -6.1875 15.25 C-8.40649441320204 18.359362814316256 -8.40649441320204 18.359362814316256 -10 24 C-22.870000000000005 24 -35.74000000000001 24 -49 24 C-50.485 20.534999999999997 -50.485 20.534999999999997 -52 17 C-56.003895713507305 12.28953445469729 -61.08700276699149 8.71418309336373 -66 5 C-64.5625 3.4375 -64.5625 3.4375 -62 2 C-55.659740234989556 1.7881497812982161 -49.358207610065875 3.8031293796928196 -43.3125 5.5 C-30.868455872992882 8.943016161622523 -19.12517423268305 10.743503583902495 -7 5 C-4.5170950327721755 3.535303868016925 -2.0503262045297674 2.0503262045297674 0 0 Z " fill="#9C9083" transform="translate(102,104)"/>
<path d="M0 0 C4.949999999999989 2.4749999999999943 4.949999999999989 2.4749999999999943 10 5 C9.77723436586058 10.457758036415854 8.55196848005724 13.420178376806092 4.81640625 17.42578125 C-2.940119347264684 24.14810343429606 -13.097170306794254 25.15564368869478 -23 25 C-27.75050335710803 24.16558024865168 -32.29608949659564 22.93107934522058 -36.91943359375 21.576171875 C-39.066370280947716 20.981620058315343 -41.217483204844115 20.487326765255972 -43.39453125 20.015625 C-44.1133447265625 19.85537841796875 -44.832158203125005 19.695131835937502 -45.57275390625 19.530029296875 C-47.57188628477594 19.088059947431788 -49.57299999042209 18.655080404079655 -51.57421875 18.22265625 C-55.460538860038696 16.835634363520967 -57.33154342900252 15.097042330010453 -60 12 C-58.458259648078936 10.458259648078936 -57.02265036105632 10.87033180775849 -54.87890625 10.8671875 C-54.031025390625004 10.865334472656258 -53.18314453125 10.863481445312502 -52.3095703125 10.861572265625 C-51.403037109375 10.866003417968756 -50.49650390625 10.870434570312497 -49.5625 10.875 C-48.1814306640625 10.876812744140622 -48.1814306640625 10.876812744140622 -46.7724609375 10.878662109375 C-41.63362161115363 10.908284719894027 -36.656276700696445 11.205679550982111 -31.5546875 11.83203125 C-22.78611828378334 12.408557972167145 -12.83822788958986 12.220584248240698 -5 8 C-2.3855985860520548 5.318562652361081 -1.181034694576951 3.5431040837308387 0 0 Z " fill="#6B6572" transform="translate(96,89)"/>
<path d="M0 0 C0.4124999999999943 0.37511718750000256 0.8250000000000028 0.750234374999998 1.25 1.13671875 C8.76827393932065 7.79911775426406 14.997868152204646 11.908119973077362 25.1875 12.5625 C28.559687499999995 12.779062499999995 28.559687499999995 12.779062499999995 32 13 C32 19.269999999999996 32 25.539999999999992 32 32 C24.739999999999995 33.31999999999999 17.47999999999999 34.64 10 36 C10 33.36 10 30.72 10 28 C9.403296776958854 21.59058434560967 7.128993547666411 17.50154962921752 3.3984375 12.3515625 C1.1066992000955196 8.497857314127117 0.5329987897853101 4.401834832882074 0 0 Z " fill="#B4B4BC" transform="translate(96,61)"/>
<path d="M0 0 C0.3299999999999983 0.6599999999999966 0.6599999999999966 1.3200000000000003 1 2 C0.6700000000000017 2.990000000000002 0.3400000000000034 3.979999999999997 0 5 C-0.8712183167088341 14.931888810480672 2.920163925678537 22.161039771729953 9.125 29.703125 C11.125630661796976 32.153897560701296 12.980989296618162 34.67062242607058 14.8125 37.25 C15.375820312499997 38.03890625 15.939140624999993 38.82781249999999 16.51953125 39.640625 C19.69483642889817 44.70100581280869 21.641292164960205 50.42708650950743 20.5625 56.4375 C20.376875 56.953125 20.191249999999997 57.46875 20 58 C16.393298014523722 56.66036783396595 13.138066934788881 55.24147638199206 10 53 C8.953125 50.687499999999986 8.953125 50.687499999999986 8.25 48 C6.352194693965998 42.12914700043956 3.2678234841665414 38.449307169933846 -0.7421875 33.84375 C-4.766829784854821 28.774650374784926 -9.314336362052671 21.60268688393728 -10 15 C-9.1796875 12.08984375 -9.1796875 12.08984375 -7.875 8.9375 C-7.459921875000006 7.894648437500003 -7.044843749999998 6.851796874999998 -6.6171875 5.77734375 C-4.794534337777904 2.647135058357712 -3.2181597752583 1.565737668433755 0 0 Z " fill="#7586A8" transform="translate(86,36)"/>
</svg>
