<?xml version="1.0" encoding="UTF-8"?>
<!-- Generator: visioncortex VTracer 0.6.0 -->
<svg version="1.1" xmlns="http://www.w3.org/2000/svg" width="128" height="128">
<path d="M0 0 C42.24 0 84.48 0 128 0 C128 42.24 128 84.48 128 128 C85.75999999999999 128 43.519999999999996 128 0 128 C0 85.75999999999999 0 43.519999999999996 0 0 Z " fill="#47515D" transform="translate(0,0)"/>
<path d="M0 0 C42.24 0 84.48 0 128 0 C128 13.530000000000001 128 27.060000000000002 128 41 C122.92004281305803 42.015991437388394 119.24078824750143 41.86748541446548 114.1875 41.3125 C113.41857421875 41.24611328125 112.6496484375 41.1797265625 111.857421875 41.111328125 C103.85982231385026 40.25420142097804 97.90088208957354 37.56560603905952 92.5 31.5 C88.63543822843772 27.449514294410665 85.16062183445322 25.06842737494279 80 23 C78.66655032907757 22.416932653398934 77.33321041912227 21.833614199535447 76 21.25 C75.01 20.8375 74.02 20.425 73 20 C73 19.34 73 18.68 73 18 C72.2678125 17.72671875 71.535625 17.4534375 70.78125 17.171875 C63.84944174829938 14.25116927596884 58.446999714037936 10.024967354503008 54 4 C47.79496865333836 5.696041901420849 43.76816658921559 7.697020395098128 39 12 C38.34 12 37.68 12 37 12 C37 12.66 37 13.32 37 14 C36.34 14 35.68 14 35 14 C35 14.66 35 15.32 35 16 C34.34 16 33.68 16 33 16 C32.324382524173224 17.66305840203514 31.660667188561767 19.33094604994922 31 21 C30.724140625 21.6045703125 30.44828125 22.209140625 30.1640625 22.83203125 C28.078428493857636 27.682565383551278 27.326437509631923 31.849810669522046 29 37 C30.162443834893356 39.18743654066081 31.426663243142976 41.20739819438805 32.84375 43.23828125 C33.99999999999999 44.999999999999986 33.99999999999999 44.999999999999986 35 48 C34.010000000000005 48.495 34.010000000000005 48.495 33 49 C31.936909784953553 52.073134739293934 31.07391913847468 55.182002397367526 30.1953125 58.3125 C29.800859375 59.199375 29.40640625 60.08625 29 61 C26.92968749999998 61.68750000000001 26.92968749999998 61.68750000000001 25 62 C22.627338798979316 69.11798360306204 23.608760615431795 77.54056080548392 25 84.8125 C26.346981931146797 92.45167724587448 26.13250723030606 100.0671792709239 26.013671875 107.803955078125 C25.993369140625 109.34345825195312 25.993369140625 109.34345825195312 25.97265625 110.9140625 C25.95468994140625 111.8210791015625 25.9367236328125 112.728095703125 25.918212890625 113.66259765625 C26.0356290467576 118.45387781843688 26.566087640617027 123.22696404678729 27 128 C18.09 128 9.18 128 0 128 C0 85.75999999999999 0 43.519999999999996 0 0 Z " fill="#8988A6" transform="translate(0,0)"/>
<path d="M0 0 C0.7985742187500051 0.0019335937499995737 1.597148437499996 0.0038671874999991473 2.419921875 0.005859375 C6.907618543776067 0.18060812680818117 8.53410254704724 0.4295660721961667 11.88671875 3.65234375 C12.604726562500005 4.736445312499999 13.322734374999996 5.820546874999998 14.0625 6.9375 C14.719921874999997 7.855312499999997 15.377343749999994 8.773125 16.0546875 9.71875 C17.3082099753384 11.528815649036375 18.5582241960214 13.341315984165057 19.8046875 15.15625 C25.05943493452034 21.62922607850949 29.758314622995528 24.700497476823514 37.875 26.5 C44.011374324856575 28.0147536458674 49.4218564853208 29.703345646965502 54.921875 32.921875 C57.58891432179652 34.307146458582004 57.58891432179652 34.307146458582004 63.0625 34.9375 C63.0625 44.17750000000001 63.0625 53.417500000000004 63.0625 62.9375 C58.88593750000001 63.927499999999995 58.88593750000001 63.927499999999995 54.625 64.9375 C53.33831420898437 65.2507421875 53.33831420898437 65.2507421875 52.025634765625 65.5703125 C46.89192660795585 66.74733463645639 41.3078340265191 67.97998123834118 36.0625 66.9375 C35.4025 65.9475 34.74250000000001 64.9575 34.0625 63.9375 C31.747069573296784 63.21109045436762 29.409800653076957 62.553185417200524 27.0625 61.9375 C25.866250000000008 61.421875 24.67 60.90625 23.4375 60.375 C18.206074637662837 58.14680030863417 13.91375469980855 57.856376672441456 8.25 58 C0.36713593139847944 58.03291383744718 -6.188086512595142 57.46497290245915 -12.5703125 52.40625 C-13.9375 50.9375 -13.9375 50.9375 -15.25 47.75 C-14.545861234078124 39.15950705575315 -8.251623919176836 32.80656793907572 -2.4765625 26.84765625 C-0.6237949939904581 24.95699563318928 -0.6237949939904581 24.95699563318928 -0.9375 21.9375 C-1.7418750000000003 21.669375000000002 -2.5462500000000006 21.401250000000005 -3.375 21.125 C-9.65625 19.03125 -9.65625 19.03125 -15.9375 16.9375 C-16.402652701644477 7.100381754111197 -16.402652701644477 7.100381754111197 -14.6875 2.8125 C-10.90651954664974 -1.238550485732425 -5.1356137550197545 -0.18562459355493033 0 0 Z " fill="#1A3B71" transform="translate(64.9375,26.0625)"/>
<path d="M0 0 C0 12.870000000000005 0 25.74000000000001 0 39 C-28.049999999999997 39 -56.099999999999994 39 -85 39 C-84.34 32.400000000000006 -83.68 25.799999999999997 -83 19 C-73.03139013452915 20.10762331838565 -73.03139013452915 20.10762331838565 -69.5 22.0625 C-64.91057870417734 24.24527354313517 -61.02961644213249 24.896824990600834 -56 24 C-50.78840477415679 21.753622747481373 -47.634799311213825 18.735091896304397 -43.75390625 14.671875 C-40.24874238759226 11.330649759219355 -36.00916108064004 9.495060152766811 -31.6875 7.375 C-28.936104477970275 6.1410581333591665 -28.936104477970275 6.1410581333591665 -27 4 C-24.80549258683763 3.5852899376701117 -22.59246283621158 3.265905607768417 -20.375 3 C-16.321029789653835 2.4771747732818596 -12.383058647916172 1.9503729904109406 -8.4375 0.875 C-5 0 -5 0 0 0 Z " fill="#747B8B" transform="translate(128,89)"/>
<path d="M0 0 C24.090000000000003 0 48.18000000000001 0 73 0 C73 13.530000000000001 73 27.060000000000002 73 41 C67.92004281305807 42.01599143738839 64.24078824750138 41.86748541446547 59.1875 41.3125 C58.418574218749995 41.24611328125 57.64964843749999 41.1797265625 56.857421875 41.111328125 C48.85982231385026 40.25420142097804 42.90088208957354 37.56560603905952 37.5 31.5 C33.63543822843772 27.449514294410665 30.160621834453224 25.068427374942786 25 23 C23.666550329077566 22.416932653398934 22.333210419122253 21.833614199535447 21 21.25 C20.010000000000005 20.8375 19.019999999999996 20.425 18 20 C18 19.34 18 18.68 18 18 C17.269101562499998 17.7280078125 16.538203124999995 17.456015625 15.78515625 17.17578125 C9.709653853672648 14.610947840049747 3.405243510225006 10.77410856081632 0 5 C0 3.3499999999999996 0 1.6999999999999997 0 0 Z " fill="#8AADEA" transform="translate(55,0)"/>
<path d="M0 0 C0.6599999999999966 0.7012499999999999 1.3200000000000003 1.4024999999999999 2 2.125 C6.4022786022782086 6.514842787017534 11.378165668299488 10.177361321552777 16.8125 13.1875 C20 15 20 15 21.40625 16.50390625 C23.37570069507467 18.352679819150975 25.13261193061065 18.89970758130213 27.6875 19.75 C33.197995933478666 21.8435071887015 36.801038818490085 24.95521233919347 41 29 C47.92793908502718 35.256436715083645 53.58350255153205 36.37199139748265 62.6875 37.125 C63.649785156250005 37.2113671875 64.6120703125 37.297734375 65.603515625 37.38671875 C70.29494860204589 37.83186727608778 70.29494860204589 37.83186727608778 75 38 C75 44.6 75 51.2 75 58 C69.27994322631692 58 67.8108499861933 57.71889754751878 63.0625 55.25 C58.11203368120319 52.82008003345099 53.51759215592044 51.270307419215705 48.1875 50.0625 C37.513270760219854 47.36654477106168 32.97433731148408 41.467122816974964 26.859375 32.6484375 C26.245781249999993 31.774453125 25.6321875 30.90046875 25 30 C24.172421874999998 28.623281249999998 24.172421874999998 28.623281249999998 23.328125 27.21875 C19.85964772274454 23.91322131966259 16.635994938432447 24.184245941705207 12 24.125 C11.193046874999993 24.091484375 10.38609375 24.05796875 9.5546875 24.0234375 C5.848039191490166 23.90110587265644 2.5618064971692647 23.834753089501344 -1 25 C-3.1712544537914624 27.714068067239324 -3 29.46774189093515 -3 33 C-3 38.249283667621775 -3 38.249283667621775 -5 41 C-8.868006843487905 42.73688933592367 -12.789562567438736 43.56599239316303 -17 44 C-21.309946757013787 42.29397940868204 -22.51202850671434 39.294773678375236 -24.375 35.25 C-26.086851918828437 30.477776079347663 -26.658718653549794 26.836376298833386 -25 22 C-23.507241060139354 18.882768096173354 -21.836040555963727 15.92682479769864 -20 13 C-19.340000000000003 13 -18.68 13 -18 13 C-18 12.34 -18 11.68 -18 11 C-17.340000000000003 11 -16.68 11 -16 11 C-16 10.34 -16 9.68 -16 9 C-11.219099287894217 4.993869759025984 -6.132003016956304 1.4523165040159665 0 0 Z " fill="#5B6F9D" transform="translate(53,3)"/>
<path d="M0 0 C-0.023203124999998437 1.0763671874999972 -0.046406250000000426 2.1527343749999943 -0.0703125 3.26171875 C-0.22430908211947553 13.178174963382475 -0.22430908211947553 13.178174963382475 1 23 C2.370757358599697 30.572715477578754 2.1314002775496697 38.13821392596556 2.013671875 45.8046875 C1.9933691406249991 47.343828125 1.9933691406249991 47.343828125 1.97265625 48.9140625 C1.9546899414062509 49.8210791015625 1.9367236328125017 50.72809570312501 1.918212890625 51.66259765625 C2.035629046757599 56.453877818436865 2.5660876406170274 61.22696404678729 3 66 C-5.91 66 -14.82 66 -24 66 C-24 44.55 -24 23.099999999999994 -24 1 C-8.400567510049656 -3.6798297469850993 -8.400567510049656 -3.6798297469850993 0 0 Z " fill="#BE9172" transform="translate(24,62)"/>
<path d="M0 0 C3.000000000000014 2.625000000000014 3.000000000000014 2.625000000000014 5 5 C5 5.659999999999997 5 6.32 5 7 C5.659999999999997 7.329999999999998 6.319999999999993 7.659999999999997 7 8 C13.202935629061372 14.680084523604549 15.33856073051686 20.514490125094426 15.30078125 29.64453125 C15 32 15 32 13 34 C9.280416377194499 33.01317169190875 5.919812331197164 31.96543634965394 2.375 30.4375 C-2.856425362337177 28.20930030863417 -7.14874530019145 27.918876672441456 -12.8125 28.0625 C-20.695364068601535 28.095413837447182 -27.250586512595135 27.527472902459152 -33.6328125 22.46875 C-35 21 -35 21 -36.3125 17.8125 C-35.54940999135773 8.502801894564243 -27.712388106960034 0.041149296264030966 -21 -6 C-14.568179919086134 -8.727892563500433 -5.514857203928926 -3.404824882425686 0 0 Z " fill="#212C46" transform="translate(86,56)"/>
<path d="M0 0 C3.0639301318868277 -0.2553275109905684 4.6323321234925 -0.21861333197742994 7.3125 1.375 C7.869374999999998 1.9112500000000026 8.426249999999996 2.447499999999998 9 3 C9 3.6599999999999966 9 4.319999999999993 9 5 C9.659999999999997 5 10.32 5 11 5 C14.084852391114559 13.513503246986545 15.99369719217328 22.19591208965842 17.75 31.0625 C17.972604980468745 32.149663085937505 18.195209960937504 33.23682617187501 18.424560546875 34.35693359375 C20.43347113807502 44.81840051708818 20.790673531035793 55.45492253945589 19 66 C17.17883997406023 67.82116002593978 14.693282359643455 67.13235079898982 12.2734375 67.13671875 C11.1480859375 67.13091796875 11.1480859375 67.13091796875 10 67.125 C8.8746484375 67.13080078125 8.8746484375 67.13080078125 7.7265625 67.13671875 C2.126610533453899 67.12661053345391 2.126610533453899 67.12661053345391 1 66 C-0.15924651241689958 58.40848988880089 -0.06066072495498531 50.77943905595224 0.0625 43.125 C0.13196808018337336 35.54950585600304 -0.14396704432793328 28.430318228397766 -1.546875 20.96484375 C-2.569116924130636 14.276209091248688 -3.686596271729698 5.983404266418447 0 0 Z " fill="#856458" transform="translate(25,61)"/>
<path d="M0 0 C1.2950565050406908 0.648177403650692 2.5919312521303937 1.29273507049572 3.890625 1.93359375 C4.5074414062499955 2.240229492187499 5.124257812499991 2.546865234374998 5.759765625 2.86279296875 C9.23191098537066 4.508262529262353 12.826457423891554 5.585437227167468 16.5 6.6875 C17.49000000000001 7.017499999999998 18.47999999999999 7.3475 19.5 7.6875 C19.5 13.9575 19.5 20.2275 19.5 26.6875 C14.420042813058075 27.703491437388386 10.7407882475014 27.55498541446547 5.6875 27 C4.534111328124993 26.900419921875 4.534111328124993 26.900419921875 3.357421875 26.798828125 C-4.640177686149741 25.94170142097805 -10.599117910426457 23.253106039059524 -16 17.1875 C-19.86456177156228 13.137014294410662 -23.339378165546776 10.75592737494279 -28.5 8.6875 C-29.833449670922434 8.104432653398938 -31.166789580877733 7.521114199535447 -32.5 6.9375 C-33.489999999999995 6.524999999999999 -34.480000000000004 6.112500000000001 -35.5 5.6875 C-35.5 5.0275 -35.5 4.3675 -35.5 3.6875 C-36.16 3.3575000000000017 -36.81999999999999 3.0275 -37.5 2.6875 C-34.19342496376879 1.667169910855204 -30.878982637792276 0.6751044877127903 -27.5625 -0.3125 C-26.63630859375 -0.5986718750000009 -25.710117187500003 -0.8848437499999999 -24.755859375 -1.1796875 C-15.4930605795672 -3.909775566022301 -8.639893784150559 -4.601031436519648 0 0 Z " fill="#5290E0" transform="translate(108.5,14.3125)"/>
<path d="M0 0 C0 12.870000000000005 0 25.74000000000001 0 39 C-6.930000000000007 39 -13.86 39 -21 39 C-21.556875000000005 37.39125 -22.113749999999996 35.7825 -22.6875 34.125 C-24.092759848545015 30.1862430051534 -25.697027436422317 26.638031152550766 -27.75 23 C-30.421607537703835 17.846436076960202 -31.14298915810221 12.72447070016193 -30 7 C-28.88671875 5.25 -28.88671875 5.25 -27 4 C-23.92578125 3.33984375 -23.92578125 3.33984375 -20.3125 2.9375 C-16.272963198307338 2.441927959379967 -12.36489066926707 1.9508943787455735 -8.4375 0.875 C-5 0 -5 0 0 0 Z " fill="#6A83B3" transform="translate(128,89)"/>
<path d="M0 0 C9.622278386150981 2.025742818137047 15.03192115904794 5.6192709837974455 21.59375 12.87890625 C27.594229563118816 18.16829002073623 34.13435342394624 18.60991685521749 41.8125 19.1875 C42.76576171875 19.26935546875 43.7190234375 19.3512109375 44.701171875 19.435546875 C49.34449275522668 19.848524535018335 49.34449275522668 19.848524535018335 54 20 C54 26.6 54 33.2 54 40 C48.2799432263169 40 46.810849986193304 39.718897547518786 42.0625 37.25 C37.11203368120316 34.82008003345098 32.517592155920454 33.27030741921571 27.1875 32.0625 C16.529345814334448 29.37060479499617 11.94068517840877 23.4556821743842 5.8359375 14.6484375 C4.275912857534536 12.398018973209396 2.6339569541701735 10.271346091187674 0.9375 8.125 C-1 5 -1 5 -0.8125 2.0625 C-0.5443750000000023 1.3818750000000009 -0.27625000000000455 0.7012500000000017 0 0 Z " fill="#3566AE" transform="translate(74,21)"/>
<path d="M0 0 C1.56640625 1.1328125 1.56640625 1.1328125 2.56640625 4.1328125 C0.962465360288391 6.189380648361286 -0.6579079133979207 8.047077736517352 -2.43359375 9.9453125 C-7.461730885373711 15.568992110072188 -10.768087774033688 21.123016479542528 -13.9296875 27.94140625 C-15.800309552621123 31.911012008419362 -18.019395561954852 35.474936457507354 -20.43359375 39.1328125 C-22.497248263560365 36.03733072965946 -23.142054260708235 33.84388407283767 -23.99609375 30.2578125 C-24.244882812500002 29.229140625 -24.493671875000004 28.20046875 -24.75 27.140625 C-25.355132586544592 24.478041619203793 -25.914312382804752 21.813293462093554 -26.43359375 19.1328125 C-27.093593749999997 19.1328125 -27.75359375 19.1328125 -28.43359375 19.1328125 C-31.24609375 17.3828125 -31.24609375 17.3828125 -33.43359375 14.1328125 C-33.094965716020916 9.91384027337535 -32.14475901878311 6.006700539050655 -30.43359375 2.1328125 C-29.443593749999998 1.8028125000000017 -28.453593749999996 1.4728125000000034 -27.43359375 1.1328125 C-27.10359375 0.4728125000000034 -26.773593750000003 -0.18718750000000028 -26.43359375 -0.8671875 C-16.67587605020526 -4.411190568565452 -9.303043433650124 -4.62421337015094 0 0 Z " fill="#5E4F60" transform="translate(62.43359375,46.8671875)"/>
<path d="M0 0 C0.7985742187500051 0.0019335937499995737 1.597148437499996 0.0038671874999991473 2.419921875 0.005859375 C6.899553819406023 0.18029409031655774 8.53132105110737 0.42624026169084317 11.875 3.64453125 C12.596874999999997 4.731210937500002 13.318749999999994 5.817890625 14.0625 6.9375 C14.754726562499997 7.878515624999999 15.446953124999993 8.819531249999997 16.16015625 9.7890625 C17.473379220230328 11.642717189589519 18.785875764084466 13.496886723873885 20.09765625 15.3515625 C21.989030575585872 17.97587334298244 21.989030575585872 17.97587334298244 24.30859375 20.11328125 C26.0625 21.9375 26.0625 21.9375 26.0625 24.5 C24.845941847389184 27.465360496988872 23.966738117383215 28.566054222346807 21.0625 29.9375 C18.76171875 29.13671875 18.76171875 29.13671875 16.0625 27.9375 C7.842383281414499 24.47509543732116 7.842383281414499 24.47509543732116 -0.9375 23.9375 C-0.9375 23.277500000000003 -0.9375 22.6175 -0.9375 21.9375 C-1.7418750000000003 21.669375000000002 -2.5462500000000006 21.401250000000005 -3.375 21.125 C-9.65625 19.03125 -9.65625 19.03125 -15.9375 16.9375 C-16.402652701644477 7.100381754111197 -16.402652701644477 7.100381754111197 -14.6875 2.8125 C-10.90651954664974 -1.238550485732425 -5.1356137550197545 -0.18562459355493033 0 0 Z " fill="#3A517C" transform="translate(64.9375,26.0625)"/>
<path d="M0 0 C0 7.590000000000003 0 15.180000000000007 0 23 C-1.9800000000000004 23 -3.960000000000001 23 -6 23 C-9.660544724951171 24.178059493887403 -13.184219017633243 25.585996577964153 -16.7578125 27.00390625 C-20.000000000000004 28 -20.000000000000004 28 -24 27 C-24 18.42 -24 9.840000000000003 -24 1 C-8.857142857142852 -3.5428571428571445 -8.857142857142852 -3.5428571428571445 0 0 Z " fill="#B59086" transform="translate(24,62)"/>
<path d="M0 0 C7.3741129268994685 1.0844283716028613 14.466514963805285 2.8328086592441295 21.625 4.875 C22.526376953125 5.1194384765625 23.42775390625 5.363876953125001 24.3564453125 5.61572265625 C25.200458984375 5.863706054687498 26.04447265625 6.111689453125003 26.9140625 6.3671875 C28.05802490234375 6.693723144531248 28.05802490234375 6.693723144531248 29.22509765625 7.02685546875 C31 8 31 8 31.777099609375 9.970458984375 C32.18594260468368 13.693034909896411 30.96338704482298 16.861446986742827 29 20 C24.901465323297927 21.620350918696168 21.294142809491944 20.830300074270156 17.00390625 20.1953125 C13.902541463122235 19.893035230323804 11.054268393226565 20.454594929780967 8 21 C4.039999999999999 21.494999999999997 4.039999999999999 21.494999999999997 0 22 C0 14.739999999999995 0 7.479999999999997 0 0 Z " fill="#9D8B9A" transform="translate(0,41)"/>
</svg>
