<?xml version="1.0" encoding="UTF-8"?>
<!-- Generator: visioncortex VTracer 0.6.0 -->
<svg version="1.1" xmlns="http://www.w3.org/2000/svg" width="128" height="128">
<path d="M0 0 C42.24 0 84.48 0 128 0 C128 42.24 128 84.48 128 128 C85.75999999999999 128 43.519999999999996 128 0 128 C0 85.75999999999999 0 43.519999999999996 0 0 Z " fill="#607990" transform="translate(0,0)"/>
<path d="M0 0 C3.7144235907830137 0.6176308993976409 7.41915791861156 1.2477652500740408 11.109375 1.99609375 C12.142397460937502 2.2039550781250004 12.142397460937502 2.2039550781250004 13.1962890625 2.416015625 C25.514598463715956 4.983518742437324 33.436159806464445 7.7382850898540525 40.6640625 18.49609375 C44.328514067088406 24.834604568747515 45.20197726133709 30.235469611316944 43.5625 37.37890625 C41.22327040569316 44.24211760688141 37.0310020412314 49.03036417861873 32.25390625 54.33203125 C28.96203147206151 58.42139117450647 28.97744538180919 61.71610948552578 28.5859375 66.8984375 C28.976195974422367 69.26478550469028 28.976195974422367 69.26478550469028 31.4296875 71.1875 C34.89169122061516 74.81604325819576 35.9321004074358 78.26920585204542 37.359375 82.99609375 C37.614609375 83.79015625 37.86984375 84.58421875 38.1328125 85.40234375 C40.123999337097345 91.69030218293899 41.2489047162389 97.23101342882342 41.234375 103.87109375 C41.23824218749999 105.63066406249999 41.23824218749999 105.63066406249999 41.2421875 107.42578125 C41.109375 110.99609375 41.109375 110.99609375 40.109375 117.99609375 C13.379374999999996 117.99609375 -13.350625 117.99609375 -40.890625 117.99609375 C-37.89062500000001 96.99609375000003 -37.89062500000001 96.99609375000003 -35.890625 87.99609375 C-31.828047173432573 85.26886759164343 -26.51925743216824 85.32155585419144 -21.73046875 84.75390625 C-17.186393780533223 83.54131953187544 -15.445729524069826 80.94770150554827 -13.140625 76.99609375 C-10.216574035032238 69.60650843092385 -11.711793315164066 60.658499701433584 -12.890625 52.99609375 C-13.857421875 53.0425 -14.82421875 53.08890625 -15.8203125 53.13671875 C-25.516781906306363 53.405531763244134 -33.262051483711744 52.5497320117196 -41.328125 46.74609375 C-48.16397106604355 39.41006382546546 -47.87136234791754 29.511843878735185 -47.890625 19.99609375 C-47.571512214714346 14.918038123280397 -46.77007014026766 12.033388018008011 -43.453125 8.12109375 C-34.72744277432195 2.1595756336384007 -24.62733060789165 2.727893590089593 -14.5078125 3.106201171875 C-13.121425781249997 3.144510498046875 -13.121425781249997 3.144510498046875 -11.70703125 3.18359375 C-10.876311035156249 3.2183984374999994 -10.045590820312498 3.2532031250000006 -9.189697265625 3.2890625 C-5.310353911249038 2.7947211996653767 -4.018458773148922 -0.0054303496934444695 0 0 Z " fill="#435B51" transform="translate(68.890625,10.00390625)"/>
<path d="M0 0 C22.439999999999998 0 44.879999999999995 0 68 0 C68 42.24 68 84.48 68 128 C61.72999999999999 128 55.46000000000001 128 49 128 C49.04640624999999 126.646484375 49.09281250000001 125.29296875 49.140625 123.8984375 C49.37549364424443 113.99754069844039 49.22249068065787 105.41046213899513 46.0078125 95.96875 C45.07407345569655 93.21820087724566 44.49697183617576 90.60532909511889 44 87.75 C43.67 86.5125 43.34 85.275 43 84 C41.68849139749602 83.29136228735672 40.353205734626854 82.62534507433514 39 82 C36.5008795175751 78.25131927636265 36.50943391057626 75.33467413441632 37 71 C38.428593998267274 66.08920813095624 40.44233470592704 63.39745198812214 43.9375 59.6875 C49.08237215520302 54.106782321520114 52.03771436015296 48.14303188290038 52.5625 40.5 C52.29011608677072 34.61231695250569 49.50458999630945 28.4987244459668 45.33203125 24.3359375 C44 23.000000000000004 44 23.000000000000004 44 21 C34.5281804204823 16.07969887525126 24.625236909691395 13.894269207713343 14.166015625 12.197265625 C8.114504193029148 11.041720860545151 4.727657419407251 9.663448761561149 0.919189453125 4.729736328125 C0 3 0 3 0 0 Z " fill="#B4A59A" transform="translate(60,0)"/>
<path d="M0 0 C13.558126540294783 1.5064585044771945 22.977552389897873 5.489155420204156 32 16 C35.70105592539309 21.79412881523919 36.46960658368632 26.925463620363118 35.5546875 33.67578125 C35.00000000000001 36 35.00000000000001 36 34.030029296875 38.291015625 C32.9585231067948 41.109084524059 32.428931286263236 43.69220275718865 31.96484375 46.66796875 C31.79533203125 47.72564453125 31.6258203125 48.783320312499995 31.451171875 49.873046875 C31.28166015625 50.96681640624999 31.1121484375 52.06058593750001 30.9375 53.1875 C30.595337523781904 55.36894478332354 30.250424876312056 57.54996054494171 29.90234375 59.73046875 C29.75273193359375 60.693640136718756 29.6031201171875 61.6568115234375 29.448974609375 62.649169921875 C29.000000000000004 64.99999999999999 29.000000000000004 64.99999999999999 28 67 C18.759999999999998 67 9.52 67 0 67 C0 44.89 0 22.78 0 0 Z " fill="#9E836B" transform="translate(0,61)"/>
<path d="M0 0 C6.1132134471826305 -0.7232813316763895 10.228301072747882 1.7481478039630822 15.4375 4.5625 C16.257988281249993 4.98080078125 17.0784765625 5.3991015625 17.923828125 5.830078125 C24.303378381703652 9.215872953976803 29.830982923562274 13.137366850179397 33.42578125 19.5390625 C35.10561009836579 26.73832899299623 34.34418123343801 34.7750258702707 33 42 C15.255138199858266 45.71481218993621 15.255138199858266 45.71481218993621 7 42 C6.670000000000002 41.34 6.340000000000003 40.68 6 40 C4.334931659805662 39.01097444454622 2.665353423614377 38.02844093972799 0.9697265625 37.0927734375 C-2.12789136306651 35.374263542255115 -5.1265476066548885 33.50974150438836 -8.125 31.625 C-8.719257812500004 31.2640625 -9.313515625 30.903125000000003 -9.92578125 30.53125 C-15.100611760145355 27.264138463793437 -18.67926750898043 23.586434461579984 -21.5 18.0625 C-22.211365939434707 13.70538362096243 -21.34199075645536 11.71963237789969 -19 8 C-13.706119826551266 3.805326449677853 -7.546841316888447 3.268313168724937 -1 3 C-0.6700000000000017 2.009999999999998 -0.3400000000000034 1.0199999999999996 0 0 Z " fill="#3F3532" transform="translate(57,14)"/>
<path d="M0 0 C0 0.6599999999999966 0 1.3199999999999932 0 2 C0.7218749999999972 2.0618750000000006 1.4437499999999943 2.123750000000001 2.1875 2.1875 C8.131487315695722 3.9046518912009844 10.400733404899512 8.48407984273041 13.25 13.625 C14.738060371365876 16.424701214167754 15.99666224700269 18.98998674100804 17 22 C15.680000000000007 25.299999999999997 14.36 28.599999999999994 13 32 C-2.8400000000000034 32 -18.68 32 -35 32 C-32 11 -32 11 -30 2 C-27.71875 0.515625 -27.71875 0.515625 -25 0 C-24.1234375 -0.23203125000000568 -23.246875000000003 -0.46406249999999716 -22.34375 -0.703125 C-14.480492444438553 -2.2152899145310414 -7.810239437451855 -1.6376308497882945 0 0 Z " fill="#5D584E" transform="translate(63,96)"/>
<path d="M0 0 C0 23.099999999999994 0 46.2 0 70 C-6.269999999999996 70 -12.540000000000006 70 -19 70 C-18.953593749999996 68.646484375 -18.907187500000006 67.29296875 -18.859375 65.8984375 C-18.570737921711014 53.73093027724397 -19.514357283153046 43.977308385022155 -23.95703125 32.53515625 C-25.16835043584574 28.849377550822325 -25.41935807090647 26.93875908029716 -23.8046875 23.32421875 C-22.010255901968208 20.41530833435654 -20.074540697182485 17.71555046316584 -18 15 C-17.352890625 14.109257812500005 -16.70578125 13.218515624999995 -16.0390625 12.30078125 C-12.711431814045653 7.828838745879935 -12.711431814045653 7.828838745879935 -11 6 C-10.340000000000003 6 -9.680000000000007 6 -9 6 C-9 5.340000000000003 -9 4.68 -9 4 C-7.688727387806182 3.330922402889719 -6.3759454979451675 2.6648019392059865 -5.0625 2 C-4.331601562499998 1.6287499999999966 -3.6007031249999955 1.2575000000000003 -2.84765625 0.875 C-1 0 -1 0 0 0 Z " fill="#9EC9D1" transform="translate(128,58)"/>
<path d="M0 0 C3.71370978631505 0.6563766133952189 7.4192310765587735 1.316177625935138 11.109375 2.09375 C11.798056640624992 2.2337744140625 12.486738281249998 2.3737988281250004 13.1962890625 2.51806640625 C25.51649067547109 5.083110697602709 33.43490493797688 7.834073628616743 40.6640625 18.59375 C44.328514067088406 24.932260818747523 45.201977261337106 30.333125861316937 43.5625 37.4765625 C40.892729207252174 45.30956925985446 35.554473707398785 51.045949527278445 30.109375 57.09375 C26.26228392087384 55.81138630695796 25.55344094410458 54.26534682764772 23.359375 50.90625 C22.408046874999997 49.49279296875 22.408046874999997 49.49279296875 21.4375 48.05078125 C19.81959572550639 44.4485649682598 20.21460484147711 42.88193452983332 21.109375 39.09375 C21.863025995991947 27.96723411043581 21.863025995991947 27.96723411043581 16.7265625 18.50390625 C10.121311726853918 11.97270537341386 1.3213364002967722 8.209062474466904 -6.890625 4.09375 C-4.648854388418982 1.2643307814996838 -3.695111789870836 0.1198414634552698 0 0 Z " fill="#6E5F4E" transform="translate(68.890625,9.90625)"/>
<path d="M0 0 C-0.3299999999999983 0.6600000000000001 -0.6599999999999966 1.3200000000000003 -1 2 C-4.209020551484457 2.8657103465162876 -7.443202507408564 3.4757471027109723 -10.703125 4.12109375 C-13.995824968171576 4.998886987960432 -16.263910535353965 5.986002368932002 -19 8 C-20.564187891876678 11.190943299428419 -21.359270025263356 13.450267433397894 -20.5390625 16.98828125 C-16.553046294931555 26.40478742252408 -6.431866578258322 31.141904686698844 2 36 C3.6683091469893156 36.99725742306065 5.335420279031936 37.996529955444785 7 39 C6.381444994154613 42.36609003180976 5.901719810036859 43.102960199009004 3.375 45.75 C-2.3792626930302703 49.582220308966555 -9.414692276773039 48.743946897603045 -16 48 C-22.30697764863114 46.44802120688134 -27.569470798340667 43.75471426519538 -32 39 C-36.5199066303439 30.73948098592323 -36.9511861805325 19.018183302013966 -35.4375 9.8125 C-34.43955485744016 6.4104142867277965 -32.926313199873405 4.074739794610636 -29.94140625 1.99609375 C-21.79153051885565 -2.185432027548911 -7.978072825392907 -5.318715216928606 0 0 Z " fill="#31526F" transform="translate(57,15)"/>
<path d="M0 0 C19.8 0 39.6 0 60 0 C60.99 1.98 61.98 3.96 63 6 C64.56102491250228 7.81554159233175 64.56102491250228 7.81554159233175 66 9 C65 12.000000000000004 65 12.000000000000004 62 14 C59.90966796875 14.16357421875 59.90966796875 14.16357421875 57.4921875 14.0546875 C56.5962890625 14.02737548828125 55.700390625 14.0000634765625 54.77734375 13.971923828125 C53.34068359375 13.923946533203125 53.34068359375 13.923946533203125 51.875 13.875 C42.34340015359311 13.709131473261056 34.07708849152796 14.888622645778396 24.94189453125 17.46533203125 C17.08852191498361 19.627625975130236 9.17645439650465 21.641290540902325 1 21 C0.6699999999999999 20.67 0.33999999999999997 20.34 0 20 C0 13.399999999999999 0 6.799999999999999 0 0 Z " fill="#7B7E8C" transform="translate(0,0)"/>
<path d="M0 0 C13.558126540294783 1.5064585044771945 22.977552389897873 5.489155420204156 32 16 C36.21111309167094 22.59264064108679 36.47747847393463 28.452012144029624 35 36 C31.305408505122855 37.231530498292386 30.451018367616555 36.591072412386765 26.9375 35.125 C17.862457894561615 31.66670537374884 9.826390312922042 32 0 32 C0 21.439999999999998 0 10.879999999999995 0 0 Z " fill="#8D8E8A" transform="translate(0,61)"/>
<path d="M0 0 C7.778422047165847 1.5556844094331694 13.75195883211748 4.751356114542865 20.25 9.25 C23.184257406513822 11.349713036852783 23.184257406513822 11.349713036852783 28 12 C28 21.240000000000002 28 30.480000000000004 28 40 C21 44 21 44 19 44 C19 44.66 19 45.32 19 46 C17.33481021918699 47.66814224496338 15.66783094613318 49.33449842669661 14 51 C12.314898108506256 53.162105143455946 10.779649345954368 55.413627319061106 9.25 57.6875 C8.851679687499995 58.26822265625 8.453359375000005 58.84894531250001 8.04296875 59.447265625 C6.5827886770386215 61.58803810485017 5.160309284489486 63.67938143102103 4 66 C1.4609600442194335 65.64978759230613 0.17906701837182482 65.15988126640342 -1.75 63.4375 C-4.153897192360304 58.749900474897416 -3.411576793647825 54.414795228164394 -2 49.5625 C-0.5191148855670065 46.43067597808907 1.5718812695211284 44.198491948553 3.9375 41.6875 C9.082372155203018 36.106782321520114 12.037714360152961 30.14303188290038 12.5625 22.5 C12.290116086770723 16.612316952505694 9.504589996309448 10.498724445966808 5.33203125 6.3359375 C4 5 4 5 4 3 C2.680000000000007 2.34 1.3599999999999994 1.6799999999999997 0 1 C0 0.6700000000000017 0 0.33999999999999986 0 0 Z " fill="#919484" transform="translate(100,18)"/>
<path d="M0 0 C2 0 2 0 4.421875 1.9375 C7.747872675053102 5.40513340570881 8.885811439347506 9.482042186226167 10.25 14 C10.632851562500008 15.191093749999993 10.632851562500008 15.191093749999993 11.0234375 16.40625 C13.01462433709736 22.694208432939035 14.139529716238897 28.234919678823417 14.125 34.875 C14.128867187499992 36.6345703125 14.128867187499992 36.6345703125 14.1328125 38.4296875 C14 42 14 42 13 49 C2.1099999999999994 49 -8.780000000000001 49 -20 49 C-17 39 -17 39 -14.125 36.5625 C-12.207880488278775 35.60394024413938 -10.273043634479308 34.67878672221178 -8.3125 33.8125 C-4.598601095588876 30.9016062641102 -3.664387652354833 27.600571102155214 -3 23 C-3.1556327198150314 19.141946787743166 -3.5044337416006783 15.328021206018349 -3.8671875 11.484375 C-4.036912008772418 7.031602593382473 -3.314831394391973 4.739343021710113 -1 1 C-0.6700000000000017 0.6700000000000017 -0.3400000000000034 0.3400000000000034 0 0 Z " fill="#53727B" transform="translate(96,79)"/>
<path d="M0 0 C6.826812357084663 5.405617219550315 9.66863212612796 12.307332196708586 10.9765625 20.7890625 C10.941463498799706 26.404902692047315 10.486698771984635 31.21062388436787 6.9765625 35.7890625 C1.4626860495011798 34.28607240572774 -2.849914840573817 31.62471569120693 -7.5859375 28.5390625 C-8.327792968750003 28.073710937499996 -9.0696484375 27.608359375 -9.833984375 27.12890625 C-15.442003942384495 23.503418978476276 -19.438234592967213 19.893418192939208 -22.5234375 13.8515625 C-23.234803439434707 9.49444612096243 -22.36542825645536 7.508694877899686 -20.0234375 3.7890625 C-14.652784755429103 0.019386577806475458 -6.102188875693805 -3.6518890954924323 0 0 Z " fill="#12243E" transform="translate(58.0234375,18.2109375)"/>
<path d="M0 0 C1.1524218750000017 0.027070312500001137 2.3048437500000034 0.054140625000002274 3.4921875 0.08203125 C4.361015625 0.11683593749999943 5.229843750000001 0.15164062499999886 6.125 0.1875 C10.008162498093093 18.424495303544305 10.008162498093093 18.424495303544305 5.5625 26.6875 C3.4097408803166047 29.894057290157775 2.420868337230658 31.045255607100643 -1.125 32.75 C-2.362499999999997 32.894375 -3.6000000000000014 33.03874999999999 -4.875 33.1875 C-6.195644531249997 33.344121093750005 -6.195644531249997 33.344121093750005 -7.54296875 33.50390625 C-9.985637448044216 33.77607948997954 -12.424582498157037 34.00014413466795 -14.875 34.1875 C-14.816992187499999 33.50945312499999 -14.758984374999997 32.83140625 -14.69921875 32.1328125 C-14.338021877516908 24.681837016206018 -15.466030775824365 19.287580707421085 -19.875 13.1875 C-22.17614128131077 10.855574219942596 -24.537967418730155 8.746236040605396 -27.08203125 6.68359375 C-27.6737109375 6.189882812500002 -28.265390625 5.6961718750000045 -28.875 5.1875 C-28.875 4.857500000000002 -28.875 4.527500000000003 -28.875 4.1875 C-27.2469140625 4.131425781250002 -27.2469140625 4.131425781250002 -25.5859375 4.07421875 C-24.14059260972488 4.0085212549875 -22.695281607418945 3.9420752409747877 -21.25 3.875 C-20.5371484375 3.8524414062499943 -19.824296875 3.829882812500003 -19.08984375 3.806640625 C-12.122500027993588 3.4550774096694 -7.077189002786383 -0.21664864294243813 0 0 Z " fill="#5E7475" transform="translate(49.875,62.8125)"/>
<path d="M0 0 C0.8546484375000034 0.09023437499999432 1.7092968750000068 0.18046875000000284 2.58984375 0.2734375 C5.0625 0.625 5.0625 0.625 7.12890625 1.1640625 C9.379699502343698 1.7795907944839229 9.379699502343698 1.7795907944839229 13.0625 1.625 C13.0625 12.185000000000002 13.0625 22.745000000000005 13.0625 33.625 C6.792500000000004 33.625 0.5224999999999937 33.625 -5.9375 33.625 C-5.914296875000005 32.201875 -5.891093749999996 30.778750000000002 -5.8671875 29.3125 C-5.848416925245829 27.416671949828114 -5.830218113816969 25.52083817841553 -5.8125 23.625 C-5.795742187499997 22.6904296875 -5.778984374999993 21.755859375 -5.76171875 20.79296875 C-5.721230469341847 15.003144615884494 -6.386651530981695 10.193400802144453 -7.9375 4.625 C-7.9375 3.305000000000007 -7.9375 1.9849999999999994 -7.9375 0.625 C-4.805488652239973 -0.41900378258667104 -3.2249906102167785 -0.358871135572997 0 0 Z " fill="#96BEDA" transform="translate(114.9375,94.375)"/>
</svg>
