<?xml version="1.0" encoding="UTF-8"?>
<!-- Generator: visioncortex VTracer 0.6.0 -->
<svg version="1.1" xmlns="http://www.w3.org/2000/svg" width="128" height="128">
<path d="M0 0 C42.24 0 84.48 0 128 0 C128 42.24 128 84.48 128 128 C85.75999999999999 128 43.519999999999996 128 0 128 C0 85.75999999999999 0 43.519999999999996 0 0 Z " fill="#8095B1" transform="translate(0,0)"/>
<path d="M0 0 C10.560000000000002 0 21.120000000000005 0 32 0 C32 35.64 32 71.28 32 108 C15.032044198895022 112.24198895027625 15.032044198895022 112.24198895027625 9.3203125 109.90234375 C7 108 7 108 6.36328125 104.85546875 C6.338144531250009 103.03982421875 6.338144531250009 103.03982421875 6.3125 101.1875 C6.142842196696961 92.85640892201394 4.0961615084032275 86.57610740099507 -1 80 C-2.2591520757414827 78.83872319065019 -3.552834358615655 77.71399301858207 -4.875 76.625 C-10.78264547085793 71.73552827506644 -16.655631796522542 64.73011716999537 -18 57 C-17.539327092481244 51.2139482815645 -16.263876100727046 46.39245586847293 -14.1875 41 C-12.031653380774088 35.21864410188585 -10.329840243837452 29.522930921362878 -9 23.5 C-7.737564609557239 17.874756406094928 -5.997071772264405 13.553455565268507 -2.26953125 9.08984375 C-0.4457674360833579 6.396215016253093 -0.4457674360833579 6.396215016253093 0 0 Z " fill="#6275AF" transform="translate(96,0)"/>
<path d="M0 0 C20.46 0 40.92 0 62 0 C62 7.771198051453797 62 7.771198051453797 59.19140625 11.234375 C55.54548447724429 16.28965367757499 54.28087479159217 21.229079239471123 52.9375 27.25 C48.46041326306981 45.72297129024546 48.46041326306981 45.72297129024546 45 52 C42 53 42 53 39.5 52.25 C35.540943179847716 51.96721022713198 34.22825878351233 52.68363222356794 30.75 54.4375 C24.342019397590036 57.5417720644963 19.325347314763214 58.17844318012575 12.43359375 56.30078125 C6.773392115010097 54.25273882634716 1.203744236810195 51.39033340659028 -3 47 C-7.2029476319425925 36.058248064328225 -3.079882903901691 20.765995456618604 -1.388916015625 9.592041015625 C-0.9095412612544607 6.397112097136593 -0.4568888475181083 3.1982219326267676 0 0 Z " fill="#787B92" transform="translate(34,0)"/>
<path d="M0 0 C2.4464716238355066 2.530832714312595 3 3.425292701707235 3 7 C3.640664062500001 6.855625000000003 4.281328125000002 6.711250000000007 4.94140625 6.5625 C15.669628904777298 4.260169057693105 22.021692424649387 5.412272379149144 32 10 C29.034188604788568 13.25282540119963 26.215819011340997 15.536779803400222 22.4375 17.8125 C17.8229872081196 20.881151006600476 15.19519452403285 23.490644420040354 14 29 C13.703053471024333 33.23202991113132 13.80355587616664 37.44767343219931 13.95703125 41.68359375 C13.971210937499997 42.77800781249999 13.985390625 43.872421875 14 45 C13 46 13 46 11.019515991210938 46.12025451660156 C10.151256866455078 46.11803390502931 9.28299774169922 46.11581329345702 8.388427734375 46.113525390625 C7.407486419677731 46.11344985961915 6.42654510498047 46.113374328613276 5.4158782958984375 46.11329650878906 C4.349224395751953 46.10813522338867 3.2825704956054693 46.10297393798828 2.18359375 46.09765625 C0.5543068695068385 46.09553382873537 0.5543068695068385 46.09553382873537 -1.1078948974609375 46.09336853027344 C-4.592790749811737 46.08775048173493 -8.077623417681377 46.075194924658945 -11.5625 46.0625 C-13.91861886684051 46.0574873251752 -16.27473873605484 46.0529240165217 -18.630859375 46.048828125 C-24.420617114137336 46.03862411065538 -30.21023745082468 46.019052235079556 -36 46 C-36 34.45 -36 22.900000000000006 -36 11 C-33.03 10.010000000000005 -30.06 9.019999999999996 -27 8 C-25.01035401892325 7.213510448620212 -23.029537459436114 6.403939586434802 -21.0625 5.5625 C-20.051875 5.138398437500001 -19.041249999999998 4.714296875000002 -18 4.27734375 C-16.056614478938723 3.4498866336106317 -14.118656352936785 2.6095158008150463 -12.1875 1.75390625 C-10.888124999999999 1.1950976562499989 -10.888124999999999 1.1950976562499989 -9.5625 0.625 C-8.800664062500001 0.2872656250000034 -8.038828124999998 -0.05046874999999318 -7.25390625 -0.3984375 C-4.470146122115548 -1.141416806229131 -2.73565508945763 -0.8445646584902704 0 0 Z " fill="#3F5C8B" transform="translate(36,82)"/>
<path d="M0 0 C11.22 0 22.44 0 34 0 C33.19642857142857 16.60714285714286 33.19642857142857 16.60714285714286 31.9375 22.875 C30.372488609479802 31.152171354306816 30.842098654709883 39.6136841057027 31 48 C28.093997388368017 49.256649778003016 26.203954156232903 50 23 50 C23 53.96 23 57.92 23 62 C17.624434145809676 61.61603101041498 13.827473323917195 60.72565751463944 9.15234375 58.03515625 C6.255769356619631 56.64206693194955 3.0904942883592574 55.88299836810265 0 55 C0 36.849999999999994 0 18.699999999999996 0 0 Z " fill="#88BFF0" transform="translate(0,0)"/>
<path d="M0 0 C0.6599999999999966 0.3299999999999983 1.3199999999999932 0.6600000000000001 2 1 C2 1.6600000000000001 2 2.3200000000000003 2 3 C2.556875000000005 3.041249999999998 3.113749999999996 3.0824999999999996 3.6875 3.125 C6.536885736030911 4.203145954173856 7.658634220153033 5.866946883418336 9.36328125 8.33203125 C11.60295717980074 10.765852657234205 11.60295717980074 10.765852657234205 18 14 C18 27.200000000000003 18 40.400000000000006 18 54 C3.7892683830045257 55.57897017966616 -7.1515227453959795 53.03125443770273 -18.47265625 44.03515625 C-20.95094470624612 40.73288441955441 -20.260809767644133 38.274746428587505 -19.73828125 34.33203125 C-17.503183147943602 24.244525001036465 -13.489153354569652 13.130987335846307 -7 5 C-6.340000000000003 5 -5.680000000000007 5 -5 5 C-5 4.34 -5 3.6799999999999997 -5 3 C-2.625 1.3125 -2.625 1.3125 0 0 Z " fill="#297FD2" transform="translate(110,24)"/>
<path d="M0 0 C3.9470902494217768 5.131217324248311 4.180519400860504 10.341881550256375 4.5 16.625 C4.823979624005233 22.780612856099594 5.38544703136742 28.854470313674256 6 35 C-9.180000000000007 35 -24.36 35 -40 35 C-40 14.495774647887316 -40 14.495774647887316 -36 10 C-33.5013780077868 7.704426296093061 -30.838310375676095 5.850638223859107 -28 4 C-27.214960937500003 3.4495703125000006 -26.429921874999998 2.899140625000001 -25.62109375 2.33203125 C-17.261763058461028 -3.465791190095402 -9.339795963091163 -5.310864371169487 0 0 Z " fill="#A3ACA9" transform="translate(89,93)"/>
<path d="M0 0 C1.75 0.26953125 1.75 0.26953125 4 0.8125 C4.825000000000003 1.0032812500000006 5.649999999999999 1.1940625000000011 6.5 1.390625 C8.004669645764402 1.7573882261550722 9.506116778590695 2.138391306645893 11 2.546875 C16.957904198995635 4.082897176303561 22.843735078134614 4.358121813428703 28.97265625 4.482666015625 C33.45865416671613 4.642074762437012 36.48131289755639 5.139437707457876 40 8 C42.24087363021283 11.344587507780357 42.29872615351985 14.104657372576817 41.7265625 18.08984375 C39.94366424138633 25.231022258963364 37.368881240893586 33.58239527008523 32.109375 38.91796875 C26.435115447362193 42.11262301032657 19.56324002918766 41.96099503817486 13.421875 40.3046875 C7.768824521825508 38.241150669009926 2.2033914296735304 35.38996493960683 -2 31 C-5.4306572434011 22.309001650050547 -3.114892581144634 9.814625283456827 -1 1 C-0.6700000000000017 0.6700000000000017 -0.3400000000000034 0.33999999999999986 0 0 Z " fill="#AA978B" transform="translate(33,16)"/>
<path d="M0 0 C0.8868750000000034 0.7012500000000017 1.7737500000000068 1.4025000000000034 2.6875 2.125 C14.240629487501565 10.327018905934167 24.092693067576903 12 38 12 C38 21.900000000000006 38 31.799999999999997 38 42 C21.032044198895022 46.24198895027624 21.032044198895022 46.24198895027624 15.3203125 43.90234375 C13 42 13 42 12.36328125 38.85546875 C12.338144531250009 37.03982421875 12.338144531250009 37.03982421875 12.3125 35.1875 C12.142897673906404 26.859133144982934 10.097542056909646 20.572142751676523 5 14 C2.9938852393241575 12.101699468304815 0.9386739158161532 10.349395130623819 -1.23046875 8.640625 C-3.116228176960945 6.892238776327602 -4.003341417025979 5.351092041887441 -5 3 C-3.3499999999999943 2.010000000000005 -1.7000000000000028 1.019999999999996 0 0 Z " fill="#3D78B1" transform="translate(90,66)"/>
<path d="M0 0 C7.805309734513275 1.1150442477876084 7.805309734513275 1.1150442477876084 10.875 2.875 C14.488022027634138 4.818848108434743 18.096084102892817 6.108556278746512 22.01953125 7.2890625 C23.999999999999996 8 23.999999999999996 8 27 10 C27 10.659999999999997 27 11.319999999999993 27 12 C27.99 12.329999999999998 28.98 12.659999999999997 30 13 C30 13.659999999999997 30 14.319999999999993 30 15 C30.99 15.329999999999998 31.98 15.659999999999997 33 16 C34.23133600916278 18.770506020616267 35.04772248012042 20.997827917471184 34.90234375 24.05078125 C34 26 34 26 31.55078125 27.2734375 C30.4821484375 27.636953125000005 29.413515625 28.000468749999996 28.3125 28.375 C27.1407421875 28.790078125000008 25.968984374999998 29.20515625 24.76171875 29.6328125 C23.836252441406252 29.96007324218749 23.836252441406252 29.96007324218749 22.89208984375 30.2939453125 C18.600176193109483 31.895521348326113 14.457697412502796 33.87167845895658 10.2890625 35.765625 C6.999999999999989 37 6.999999999999989 37 0 38 C0 25.460000000000008 0 12.920000000000002 0 0 Z " fill="#5A89CC" transform="translate(0,55)"/>
<path d="M0 0 C9.24 0 18.48 0 28 0 C27.19642857142857 16.60714285714286 27.19642857142857 16.60714285714286 25.9375 22.875 C24.372488609479802 31.152171354306816 24.842098654709883 39.6136841057027 25 48 C21.629026166868208 49.49821059250302 19.795578808562745 50 16 50 C11.82930106055796 41.81307245220636 9.844354510693817 33.202651854446316 7.6025390625 24.34765625 C6.740325911826854 20.98823904705309 5.817384136008947 17.650410222199625 4.875 14.3125 C4.4380078125 12.759824218750001 4.4380078125 12.759824218750001 3.9921875 11.17578125 C2.8125337823746506 7.399960492403904 1.3889764023706714 3.7039370729884564 0 0 Z " fill="#97BCCE" transform="translate(6,0)"/>
<path d="M0 0 C5.596429448643249 0.6872808094825018 10.470213804262883 3.0962189904656867 15.5625 5.4375 C12.596688604788568 8.69032540119963 9.77831901134099 10.974279803400222 6 13.25 C1.3854872081195992 16.318651006600476 -1.2423054759671501 18.92814442004037 -2.4375 24.4375 C-2.734446528975667 28.66952991113132 -2.633944123833359 32.88517343219931 -2.48046875 37.12109375 C-2.466289062499996 38.21550781249999 -2.452109374999999 39.309921875 -2.4375 40.4375 C-3.4375 41.4375 -3.4375 41.4375 -5.203369140625 41.551025390625 C-5.952233886718751 41.54578857421876 -6.701098632812503 41.540551757812494 -7.47265625 41.53515625 C-8.281542968750003 41.53193359375001 -9.090429687499999 41.528710937499994 -9.923828125 41.525390625 C-10.77396484375 41.517011718749984 -11.624101562500002 41.5086328125 -12.5 41.5 C-13.35400390625 41.495488281250005 -14.2080078125 41.49097656250001 -15.087890625 41.486328125 C-17.204456634545018 41.47450373388523 -19.32098685042216 41.45656768603223 -21.4375 41.4375 C-21.992558754237777 13.684562288111238 -21.992558754237777 13.684562288111238 -16.18359375 4.15234375 C-11.921526959073304 -0.0334444406416452 -5.574610341297493 0.7094958616196863 0 0 Z " fill="#6E7C80" transform="translate(52.4375,86.5625)"/>
<path d="M0 0 C10.560000000000002 0 21.120000000000005 0 32 0 C32 12.540000000000001 32 25.080000000000002 32 38 C28.063275058242127 36.42531002329685 26.185547540312356 35.61267759504344 23.1875 33 C22.5829296875 32.484375 21.978359374999997 31.96875 21.35546875 31.4375 C20 30 20 30 20 28 C19.410898437499995 27.94328125 18.821796875000004 27.8865625 18.21484375 27.828125 C15.00537578892181 26.628112287921383 14.2570319070025 24.677274518332258 12.5625 21.75 C9.490607554527301 16.676126366772657 6.303955689586189 12.868072180745564 1.6875 9.125 C0 7 0 7 0 0 Z " fill="#5999CF" transform="translate(96,0)"/>
<path d="M0 0 C3.113629525031257 0.26498974681117105 5.4936909770384545 1.2331119300420355 8.37109375 2.390625 C14.856528936485532 4.562308015261518 21.90341736570285 5.624919763982652 28.66015625 6.671875 C34.30100319167465 7.639430221556545 38.474189248184416 9.534418693855624 41.9375 14.25 C45.50705440927479 22.53962635542326 43.7587324002628 31.497294426941806 40.63671875 39.64453125 C37.85899035091336 45.69524194878563 37.85899035091336 45.69524194878563 35.9375 48.25 C33.238281250000014 49.08203125 33.238281250000014 49.08203125 30.9375 49.25 C32.04409357375792 45.65357088528675 33.36894664769687 42.31822876659195 35 38.9375 C37.012179405810215 34.45170155020505 38.1965042487261 30.199858975654323 37.9375 25.25 C36.87383509508368 22.248793947604632 36.87383509508368 22.248793947604632 34.9375 20.25 C31.97552423445123 19.262674744817076 29.48595085771842 19.10647165116367 26.38916015625 19.009765625 C15.973843958104801 18.66790117671313 6.824104402659103 16.545534800886365 -3.0625 13.25 C-3.0893655290850432 11.270906024068285 -3.108833754918585 9.291710290682168 -3.125 7.3125 C-3.1366015624999974 6.2103515625 -3.148203125000002 5.108203124999999 -3.16015625 3.97265625 C-3.030841993799399 0.36737478712719884 -3.030841993799399 0.36737478712719884 0 0 Z " fill="#887E82" transform="translate(36.0625,2.75)"/>
<path d="M0 0 C0.7463671874999989 0.32484374999999943 1.4927343749999977 0.6496874999999989 2.26171875 0.984375 C8.72495114419165 3.3815795969897664 14.612083758468671 1.7034443310750191 21 0 C22.319999999999993 0 23.64 0 25 0 C25 6.599999999999994 25 13.200000000000003 25 20 C14.11 20 3.219999999999999 20 -8 20 C-7.1234651330891126 13.864255931623788 -6.351645938323401 11.201993745770352 -3.4375 6.0625 C-2.7968359375000063 4.919101562500003 -2.1561718749999983 3.775703125000007 -1.49609375 2.59765625 C-0.7555273437500034 1.3118164062500028 -0.7555273437500034 1.3118164062500028 0 0 Z " fill="#5FA4D7" transform="translate(103,108)"/>
</svg>
