<?xml version="1.0" encoding="UTF-8"?>
<!-- Generator: visioncortex VTracer 0.6.0 -->
<svg version="1.1" xmlns="http://www.w3.org/2000/svg" width="128" height="128">
<path d="M0 0 C42.24 0 84.48 0 128 0 C128 42.24 128 84.48 128 128 C85.75999999999999 128 43.519999999999996 128 0 128 C0 85.75999999999999 0 43.519999999999996 0 0 Z " fill="#808389" transform="translate(0,0)"/>
<path d="M0 0 C31.68 0 63.36 0 96 0 C97.32 3.6300000000000003 98.64 7.260000000000001 100 11 C104.09576407401241 18.98225553110447 109.83047783885397 25.550680915445987 116 32 C115.01 32.495 115.01 32.495 114 33 C112.11157226562499 32.13549804687499 112.11157226562499 32.13549804687499 109.81640625 30.76171875 C108.97013671875 30.27123046875 108.1238671875 29.7807421875 107.251953125 29.275390625 C105.49017103365017 28.235209913113714 103.73218869886254 27.1885601024911 101.978515625 26.134765625 C95.5457137329769 22.427809162804877 88.48013749161302 19.23091287862185 80.865478515625 20.299560546875 C78.63295806440024 21.00950320406789 78.63295806440024 21.00950320406789 76.0625 23.625 C73 26 73 26 70.5625 25.9375 C69.716875 25.628125 68.87125 25.31875 68 25 C57.152201334620166 21.516035465133484 46.88024909695605 21.66840852647721 36.578125 26.66796875 C35.72734375 27.1075390625 34.8765625 27.547109375 34 28 C33.33484375 28.2642578125 32.6696875 28.528515625 31.984375 28.80078125 C24.856775541093086 31.931145877222633 20.88701868270895 39.79391795301911 17.83984375 46.5859375 C15.940011266476994 53.001765231241635 17.959106960182453 57.31404894870759 21.03125 63.04296875 C22.650854438001296 65.475588907871 24.15487440045027 67.19370267211828 26.16796875 69.25390625 C29.85670196973531 73.4481581008777 29.85845252668456 77.34431186092546 29.8125 82.75 C29.836752232485335 84.43233907450896 29.86396929547906 86.11463872071697 29.89453125 87.796875 C29.89300048828125 88.532607421875 29.8914697265625 89.26833984375 29.889892578125 90.0263671875 C29.92517651147137 92.21368398554989 29.92517651147137 92.21368398554989 31 95 C33.32891095547987 96.02700444045135 33.32891095547987 96.02700444045135 36.0625 96.6875 C36.9816015625 96.9388671875 37.900703125 97.190234375 38.84765625 97.44921875 C39.5579296875 97.6309765625 40.268203125 97.812734375 41 98 C41 99.32 41 100.64 41 102 C41.845625 102.04125 42.69125 102.0825 43.5625 102.125 C49.40972682018163 103.6133850087735 52.593019731586914 106.72233239059585 55.7421875 111.8203125 C58.73479075832903 117.53346417499178 60.06241800712294 121.43692604986059 61 128 C40.87 128 20.739999999999995 128 0 128 C0 85.75999999999999 0 43.519999999999996 0 0 Z " fill="#A8A8AF" transform="translate(0,0)"/>
<path d="M0 0 C3.7427185359271675 3.0901696269254586 6.7702450762899815 6.390054561556504 9.7109375 10.23828125 C10.352890625 11.056835937499997 10.994843750000001 11.875390625000001 11.65625 12.71875 C18.136308131247063 21.389435070352853 18.136308131247063 21.389435070352853 17.7109375 27.23828125 C14.526478554828785 35.49984926813288 7.849568796029487 44.428709153986205 -0.2890625 48.23828125 C-3.289062499999986 47.61328125 -3.289062499999986 47.61328125 -6.2890625 46.23828125 C-11.210631203787443 44.31908754571657 -15.77204072855244 43.79530096514807 -20.9765625 43.36328125 C-31.224005603323064 42.34570153156281 -41.3798801405331 40.583137865979495 -48.2890625 32.23828125 C-52.88852439310868 25.57900945056275 -54.55328861430948 19.26912713804211 -53.2890625 11.23828125 C-51.41504505327383 4.498802357736324 -47.177467065723945 0.7345214608985913 -41.2890625 -2.76171875 C-36.784500427285664 -4.916074523906854 -32.95635750757954 -4.820673387108702 -28.08203125 -4.6953125 C-23.97892121768816 -4.792868962306716 -20.06390966795942 -5.602103774435523 -16.05078125 -6.421875 C-9.165185933509548 -7.269183051675629 -5.299719264037208 -3.999654082644696 0 0 Z " fill="#4B5A40" transform="translate(84.2890625,35.76171875)"/>
<path d="M0 0 C0 24.75 0 49.5 0 75 C-14.52000000000001 75 -29.040000000000006 75 -44 75 C-41.641141963694665 64.385138836626 -38.028022308686005 58.13601982994311 -30 51 C-28.515 50.504999999999995 -28.515 50.504999999999995 -27 50 C-23.404598808826123 43.98688201553193 -21.84898372419758 38.06424164977783 -20.4375 31.25 C-20.222629394531253 30.27861083984375 -20.007758789062507 29.3072216796875 -19.786376953125 28.306396484375 C-18.891646654545553 24.260997754427365 -18.04027011078739 20.220814440817477 -17.296875 16.14453125 C-16.022914230182366 9.701229664191558 -14.232430183044869 6.322791532237844 -9.03515625 2.20703125 C-5.936353984661935 0.36916196019296876 -3.5864099389989548 0 0 0 Z " fill="#D7C8AD" transform="translate(128,53)"/>
<path d="M0 0 C3.589019103217172 3.2388708980252545 5.776123075327913 7.3189376492192295 8.28125 11.40625 C9.80458323711791 13.94926508981348 9.80458323711791 13.94926508981348 11.57763671875 15.390625 C13.402409939171015 17.45531862667616 13.405573811157964 18.617322633416407 13.4765625 21.34375 C13.5075 22.177773437500008 13.5384375 23.011796875 13.5703125 23.87109375 C13.597382812500001 25.172402343750008 13.597382812500001 25.172402343750008 13.625 26.5 C13.676080563977404 28.218860977839682 13.73062388474769 29.937623451443386 13.7890625 31.65625 C13.8066259765625 32.41744140624999 13.824189453125001 33.1786328125 13.84228515625 33.962890625 C13.932996270713325 36.202414635612996 13.932996270713325 36.202414635612996 15 39 C17.32891095547987 40.027004440451364 17.32891095547987 40.027004440451364 20.0625 40.6875 C21.441152343750005 41.064550781250006 21.441152343750005 41.064550781250006 22.84765625 41.44921875 C23.5579296875 41.630976562499995 24.268203125 41.81273437499999 25 42 C25 43.31999999999999 25 44.64 25 46 C25.845625 46.04124999999999 26.691249999999997 46.08250000000001 27.5625 46.125 C33.40972682018163 47.613385008773506 36.593019731586914 50.72233239059585 39.7421875 55.8203125 C42.73479075832901 61.533464174991735 44.06241800712295 65.43692604986065 45 72 C24.869999999999997 72 4.739999999999995 72 -16 72 C-16 67.05 -16 62.099999999999994 -16 57 C-14.02 56.34 -12.04 55.68000000000001 -10 55 C-3.210856465914471 51.853811532984764 -0.23028859639540933 46.152610729917456 2.3125 39.4375 C5.559548256884348 28.808386930525515 4.671989877364009 19.27375022171313 0.875 8.9375 C-0.05549390085187156 5.8136990471401475 -0.15432577158888172 3.2408412033665144 0 0 Z " fill="#AA9F9B" transform="translate(16,56)"/>
<path d="M0 0 C1.1524974060058568 0.002220611572265621 2.3049948120117207 0.004441223144531256 3.4924163818359375 0.0067291259765625 C5.444326400756836 0.006842422485351551 5.444326400756836 0.006842422485351551 7.4356689453125 0.0069580078125 C8.866613134543975 0.012065428231617714 10.29755693974397 0.0172814358140031 11.728500366210938 0.0225982666015625 C13.184386715032872 0.02446248611677089 14.640273689480935 0.025886370188047597 16.096160888671875 0.026885986328125 C19.934887907363844 0.03071086228766183 23.77357731016665 0.040540877417698254 27.612289428710938 0.0515899658203125 C31.52667227223995 0.061804741223279364 35.4410611719226 0.06638374756600367 39.35545349121094 0.0714263916015625 C47.041017546921495 0.08216318087732202 54.726550568546074 0.09923922816028866 62.41209411621094 0.1202545166015625 C62.68221817016601 0.8780168151855469 62.9523422241211 1.6357791137695312 63.23065185546875 2.41650390625 C63.58741500854492 3.4092079162597657 63.944178161621096 4.401911926269531 64.31175231933594 5.4246978759765625 C64.66437637329102 6.409335174560547 65.01700042724609 7.393972473144531 65.38031005859375 8.408447265625 C68.91301153720629 17.69334114871259 75.63805522682941 25.039002979175525 82.41209411621094 32.12025451660156 C81.42209411621094 32.61525451660156 81.42209411621094 32.61525451660156 80.41209411621094 33.12025451660156 C78.52366638183598 32.25575256347658 78.52366638183598 32.25575256347658 76.22850036621094 30.881973266601563 C75.38223083496094 30.391484985351564 74.53596130371093 29.900996704101562 73.66404724121094 29.395645141601563 C71.90226514986111 28.355464429715276 70.14428281507348 27.30881461909266 68.39060974121094 26.255020141601563 C61.957807849187844 22.548063679406436 54.89223160782396 19.351167395223413 47.27757263183594 20.419815063476563 C45.04505218061118 21.129757720669453 45.04505218061118 21.129757720669453 42.47459411621094 23.745254516601563 C39.41209411621094 26.120254516601563 39.41209411621094 26.120254516601563 36.97459411621094 26.057754516601563 C36.12896911621094 25.748379516601563 35.28334411621094 25.439004516601564 34.41209411621094 25.120254516601563 C23.55676954335904 21.633872901963 13.434961326156518 21.849878940840032 3.0956878662109375 26.733535766601563 C2.210101928710941 27.19115295410156 1.3245159912109372 27.648770141601563 0.4120941162109375 28.120254516601563 C-1.241128540039064 28.94589904785156 -1.241128540039064 28.94589904785156 -2.9277496337890625 29.788223266601563 C-3.805601196289061 30.22779357910156 -4.683452758789063 30.667363891601564 -5.5879058837890625 31.120254516601563 C-5.443530883789062 30.295254516601563 -5.299155883789062 29.470254516601564 -5.1504058837890625 28.620254516601563 C-3.932155212185574 21.0400281155132 -3.3976360129170153 13.852966912448405 -3.5742340087890625 6.1886138916015625 C-3.609528438486553 4.499523327507402 -3.6027810491893284 2.809648301346231 -3.5879058837890625 1.1202545166015625 C-2.5879058837890625 0.1202545166015625 -2.5879058837890625 0.1202545166015625 0 0 Z " fill="#A3B5A6" transform="translate(33.58790588378906,-0.1202545166015625)"/>
<path d="M0 0 C4.6385541964390455 3.7307941278886076 8.254487782837316 8.12916992248065 9.35546875 14.0703125 C9.614676973362407 18.13578884536833 9.230328748066995 20.347758106714373 7.12890625 23.8984375 C0.547481466500173 30.61074288998988 -9.023042095704639 38.419692558324456 -18.68359375 39.0859375 C-24.228941466573744 37.0321050123801 -26.751396380116404 32.61540494517911 -29.203125 27.40234375 C-31.126248263737953 21.632973958786145 -30.99200397011535 15.122434466637081 -28.55859375 9.5234375 C-25.459067366473462 4.170709312846014 -20.605372407585236 1.109326828792618 -15.18359375 -1.6015625 C-9.938327061383774 -2.5457105039509216 -4.755267008160075 -2.688936562489001 0 0 Z " fill="#62561D" transform="translate(61.05859375,33.1640625)"/>
<path d="M0 0 C2.8572001455143834 1.4626881439075703 3.465485394791827 4.0843713076826305 4.80078125 6.921875 C7.9154958520907 10.815268252613379 11.250066999505776 12.17160028827145 15.80078125 13.921875 C15.425664062500005 14.334374999999994 15.050546875000009 14.746875000000003 14.6640625 15.171875 C8.299893054044787 22.353607775284473 4.915029741000481 28.579129526998543 1.80078125 37.921875 C-5.789218750000003 37.921875 -13.379218750000007 37.921875 -21.19921875 37.921875 C-22.189218750000002 34.456875 -22.189218750000002 34.456875 -23.19921875 30.921875 C-26.06259064125809 24.00493446750305 -28.731200563137627 17.964386366788986 -35.19921875 13.921875 C-38.411877905969526 12.59836841997162 -38.411877905969526 12.59836841997162 -41.19921875 11.921875 C-40.82421875 9.484375 -40.82421875 9.484375 -40.19921875 6.921875 C-34.376676072037604 4.010603661018806 -27.061631360579327 6.2164458769223785 -21.19921875 7.921875 C-18.00381365510674 8.558553458756933 -15.375484554875271 8.721097726876081 -12.19921875 7.921875 C-9.388811434988469 5.991786446896484 -6.941672243851144 3.911142784062676 -4.4609375 1.57421875 C-2.19921875 -0.078125 -2.19921875 -0.078125 0 0 Z " fill="#7B9584" transform="translate(82.19921875,90.078125)"/>
<path d="M0 0 C1.3802121026443164 0.3772579747227809 2.754004725565103 0.7780113124212633 4.125 1.1875 C5.2735546875 1.5181445312500017 5.2735546875 1.5181445312500017 6.4453125 1.85546875 C10.470394706321123 3.658754814911454 13.849042582440628 5.83935254817343 15.94482421875 9.773681640625 C16.715857078895034 11.810386714051305 17.322220319047165 13.831140983666188 17.875 15.9375 C18.07988037109375 16.686042480468757 18.2847607421875 17.4345849609375 18.495849609375 18.205810546875 C21.610685039747775 30.438123446910367 21.07561748657001 42.303014980877236 14.609375 53.3828125 C11.679231998987365 57.56212172776013 8.606027860889997 60.64798577316256 4 63 C1.3164062500000249 63.09375 1.3164062500000249 63.09375 -1 63 C-1.0231273678588615 54.933478260293015 -1.0409170937660004 46.86697027557564 -1.0518121719360352 38.80042362213135 C-1.0570401409018995 35.05516962715899 -1.064136216261468 31.309938244037994 -1.075439453125 27.564697265625 C-1.086271406805265 23.95318312564396 -1.0922774860817481 20.34169079196684 -1.0948772430419922 16.730161666870117 C-1.0967309364660387 15.349396707669115 -1.1003504939587139 13.968632997444388 -1.1057300567626953 12.58787727355957 C-1.1129444664270434 10.660240478259695 -1.1134080879625694 8.732581932701045 -1.113525390625 6.804931640625 C-1.1157460021972656 5.705728912353514 -1.1179666137695312 4.606526184082028 -1.1202545166015625 3.4740142822265625 C-1 1 -1 1 0 0 Z " fill="#C9C4CD" transform="translate(1,50)"/>
<path d="M0 0 C5.144725885484576 2.3259348961266397 10.699282612805384 2.877025702656411 16.26953125 3.47265625 C16.96876708984375 3.5485498046874966 17.668002929687503 3.624443359374993 18.388427734375 3.70263671875 C20.421312484269407 3.9162801200841955 22.456749289424906 4.105205068160885 24.4921875 4.29296875 C28.922733028208597 5.169141871786408 31.55112584864574 6.633261284670539 35.32421875 9.05078125 C35.32421875 11.030781250000004 35.32421875 13.010781250000008 35.32421875 15.05078125 C34.49921875 15.422031250000003 33.674218749999994 15.793281250000007 32.82421875 16.17578125 C29.933777072678225 17.724232148565235 27.924243273215936 19.16923901023648 25.44921875 21.23828125 C21.13510109499356 24.54988013565257 18.694409656489114 24.73271025399862 13.32421875 24.05078125 C12.210468750000004 23.72078125 11.09671875 23.390781250000003 9.94921875 23.05078125 C5.136780061742243 21.72321195668752 -1.0464128210573378 20.736097035528672 -5.67578125 23.05078125 C-7.734375 23 -7.734375 23 -10.11328125 22.73828125 C-11.28697265625 22.62033203125 -11.28697265625 22.62033203125 -12.484375 22.5 C-14.675781250000007 22.05078125 -14.675781250000007 22.05078125 -17.67578125 20.05078125 C-18.597665858025902 17.285127425922298 -18.79363346974195 15.667944233614577 -18.7734375 12.8203125 C-18.768603515625 11.616650390624997 -18.768603515625 11.616650390624997 -18.763671875 10.388671875 C-18.75529296875 9.555292968749995 -18.7469140625 8.721914062500005 -18.73828125 7.86328125 C-18.73376953125 7.018300781250005 -18.7292578125 6.173320312499996 -18.724609375 5.302734375 C-18.712835280804697 3.2187197024311303 -18.69490015121945 1.1347414829201625 -18.67578125 -0.94921875 C-11.098727263458485 -2.8727534264950805 -7.043504993064495 -3.4798980526006176 0 0 Z " fill="#65756D" transform="translate(47.67578125,74.94921875)"/>
<path d="M0 0 C1.9765625 1.16796875 1.9765625 1.16796875 2.9765625 4.16796875 C-3.7687627872033147 6.416410512401107 -10.542321924808377 7.0474006179320625 -17.63671875 7.23828125 C-24.388208381621467 7.553280766249834 -29.048306163886224 9.527214876394893 -34.0234375 14.16796875 C-37.94157628504068 19.004916360643207 -38.71026839084044 24.23668802320607 -38.48046875 30.34765625 C-37.38051589969565 37.13539948008323 -34.50242575021895 42.14067824129205 -29.0234375 46.16796875 C-29.0234375 46.82796875 -29.0234375 47.48796874999999 -29.0234375 48.16796875 C-39.15137155210943 50.296664248637114 -39.15137155210943 50.296664248637114 -43.16796875 47.875 C-45.10262406894116 45.75692363501926 -46.54805537880286 43.62942904840233 -48.0234375 41.16796875 C-48.6254296875 40.2256640625 -49.227421875000005 39.283359375 -49.84765625 38.3125 C-52.5005666369682 33.7041860019631 -54.64667617151591 29.637254429260032 -53.9609375 24.23046875 C-51.37377342321626 15.818799160038203 -46.65111085454518 8.075068844241144 -38.9765625 3.59765625 C-26.077598209446606 -3.1831299113386606 -13.92190716639513 -5.359318245470689 0 0 Z " fill="#848769" transform="translate(70.0234375,24.83203125)"/>
<path d="M0 0 C4.424578284471252 0.7603093949449402 8.868580331690083 1.137156091087931 13.3359375 1.5625 C22.117729595149058 2.406792095149058 22.117729595149058 2.406792095149058 23.2734375 3.5625 C23.2734375 10.162499999999994 23.2734375 16.762500000000003 23.2734375 23.5625 C8.75343749999999 23.5625 -5.766562500000006 23.5625 -20.7265625 23.5625 C-18.88514680380773 15.276129367134786 -17.59828022002924 11.827810048595296 -12.7265625 5.5625 C-12.2728125 4.924414062500006 -11.819062500000001 4.286328124999997 -11.3515625 3.62890625 C-7.8585732638897525 -0.667867441010614 -5.3101743370259555 -0.914983885764471 0 0 Z " fill="#AAC3B8" transform="translate(104.7265625,104.4375)"/>
<path d="M0 0 C10.560000000000002 0 21.120000000000005 0 32 0 C32 13.200000000000001 32 26.400000000000002 32 40 C30.515 40.495 30.515 40.495 29 41 C29 40.34 29 39.68 29 39 C28.278125000000003 38.773125 27.556250000000006 38.54625 26.8125 38.3125 C23.387615890243566 36.714220748780335 21.579838414869783 34.76411258736049 19 32 C18.498554687500004 31.564296875 17.997109375000008 31.12859375 17.48046875 30.6796875 C13.046899431762597 26.713356166120175 9.875831330969419 22.1011914345966 6.6875 17.125 C6.254777832031252 16.46524169921875 5.822055664062503 15.8054833984375 5.376220703125 15.125732421875 C4.967185058593756 14.46806884765625 4.558149414062498 13.8104052734375 4.13671875 13.1328125 C3.7728002929687534 12.5541845703125 3.408881835937507 11.975556640625 3.033935546875 11.37939453125 C1.4694259619586774 7.778990655312703 0.8515894705828089 3.8321526176226133 0 0 Z " fill="#C2877F" transform="translate(96,0)"/>
<path d="M0 0 C5.444999999999993 0.49499999999999744 5.444999999999993 0.49499999999999744 11 1 C9.837389972297743 8.821194731815169 8.316437740998452 16.52746316500361 6.625 24.25 C6.329764404296867 25.651130371093757 6.329764404296867 25.651130371093757 6.028564453125 27.08056640625 C3.1791518827972993 39.8208481172027 3.1791518827972993 39.8208481172027 -1 44 C-7.510812329892104 43.49916828231599 -11.489333028418088 41.90585368442146 -15.75 37 C-18.14072683604992 33.81236421860011 -18.85575134500671 31.668789218605227 -19.6875 27.8125 C-18.72215783835324 22.459238921777086 -15.864102697695643 21.213919511610527 -11.61328125 18.10546875 C-5.7946171854181046 13.417486790643295 -2.6286915756397775 6.863805780837197 0 0 Z " fill="#918566" transform="translate(102,60)"/>
<path d="M0 0 C6.884505432943854 3.931783012493895 10.289278445344422 10.786569822678288 13 18 C13.494999999999997 21.465000000000003 13.494999999999997 21.465000000000003 14 25 C3.1099999999999994 25 -7.780000000000001 25 -19 25 C-20.867741259866374 21.264517480267244 -19.075574921593827 16.874322230662585 -18 13 C-16.82151828648105 10.203906504806753 -15.477168838350469 7.65890390903084 -14 5 C-13.340000000000003 5 -12.68 5 -12 5 C-11.628749999999997 4.071875000000006 -11.628749999999997 4.071875000000006 -11.25 3.125 C-8.4984688952771 -1.5526028780289352 -4.882387353741876 -1.5317293658798121 0 0 Z " fill="#B5B290" transform="translate(47,103)"/>
<path d="M0 0 C6.269999999999996 0 12.540000000000006 0 19 0 C19.515625 1.588125 20.03125 3.17625 20.5625 4.8125 C24.508594954493944 15.574577148619845 31.144942745651335 23.788704321417832 39 32 C38.010000000000005 32.495 38.010000000000005 32.495 37 33 C35.111572265625 32.135498046875 35.111572265625 32.135498046875 32.81640625 30.76171875 C31.97013671875 30.27123046875 31.123867187499997 29.7807421875 30.251953125 29.275390625 C28.49017103365017 28.235209913113714 26.732188698862544 27.1885601024911 24.978515625 26.134765625 C19.478665702440082 22.965430620790045 14.738504374281618 21.230587146718076 8.425537109375 20.432861328125 C5.896248707460899 19.98148454537777 4.147789622016944 19.40778228504236 2 18 C0.91796875 14.882812500000002 0.91796875 14.882812500000002 0.1875 11.125 C-0.06644531249999375 9.890078125 -0.3203906250000017 8.65515625 -0.58203125 7.3828125 C-1 4 -1 4 0 0 Z " fill="#B19C9E" transform="translate(77,0)"/>
<path d="M0 0 C0.6599999999999966 0.3299999999999983 1.3199999999999932 0.6599999999999966 2 1 C2 2.979999999999997 2 4.960000000000001 2 7 C-0.3100000000000023 7.329999999999998 -2.6200000000000045 7.659999999999997 -5 8 C-3.8141762978707163 4.624963309324329 -2.7242631099849035 2.3527726858960563 0 0 Z " fill="#B19C9E" transform="translate(126,46)"/>
</svg>
