<?xml version="1.0" encoding="UTF-8"?>
<!-- Generator: visioncortex VTracer 0.6.0 -->
<svg version="1.1" xmlns="http://www.w3.org/2000/svg" width="128" height="128">
<path d="M0 0 C42.24 0 84.48 0 128 0 C128 42.24 128 84.48 128 128 C85.75999999999999 128 43.519999999999996 128 0 128 C0 85.75999999999999 0 43.519999999999996 0 0 Z " fill="#646360" transform="translate(0,0)"/>
<path d="M0 0 C8.279123778063308 5.7422901263526995 12.032077162432003 18.23096252741368 14.27734375 27.5078125 C15.315325501292833 31.087446863917975 16.98784746083114 33.87769433577246 19 37 C20.010624999999997 36.64937499999999 21.021250000000002 36.29875 22.0625 35.9375 C25.961312701246953 34.80786412680169 28.993993594808458 35.35617754202278 33 36 C35.34260642832909 35.73971039685233 37.68175709713506 35.42579971685274 40 35 C43.86568983937845 42.57743627807369 47.47013630812394 50.260986132587874 51 58 C50.010000000000005 58.495000000000005 50.010000000000005 58.495000000000005 49 59 C48.362706712339104 60.76240170773727 48.362706712339104 60.76240170773727 47.96484375 62.89453125 C47.710576171875005 64.080791015625 47.710576171875005 64.080791015625 47.451171875 65.291015625 C47.196904296875005 66.539150390625 47.196904296875005 66.539150390625 46.9375 67.8125 C46.59272989971504 69.44407002848607 46.24768693181025 71.07558242558605 45.90234375 72.70703125 C45.75273193359375 73.43382080078125 45.6031201171875 74.1606103515625 45.448974609375 74.909423828125 C45.01079046614511 76.94975597520362 44.50613649715447 78.97545401138211 44 81 C20.239999999999995 81 -3.520000000000003 81 -28 81 C-28 64.5 -28 48 -28 31 C-25.03 30.010000000000005 -22.06 29.019999999999996 -19 28 C-19.226875 26.721249999999998 -19.45375 25.442499999999995 -19.6875 24.125 C-20.590884330003718 15.662414438053418 -17.59682582591217 9.092766759058193 -12.5 2.49609375 C-9.251629294205365 -0.7438176570816282 -4.307302327733929 -0.951708704794541 0 0 Z " fill="#925279" transform="translate(28,47)"/>
<path d="M0 0 C6.269999999999996 0 12.539999999999992 0 19 0 C19 42.24 19 84.48 19 128 C11.079999999999998 128 3.1599999999999966 128 -5 128 C-5.659999999999997 125.69 -6.319999999999993 123.38 -7 121 C-7.7650280047782445 118.47430945790914 -8.538896266550239 115.95155925979043 -9.31640625 113.4296875 C-10.910281631854645 107.76459899992237 -10.81422296511316 104.35175552840465 -9.27734375 98.6953125 C-8.839667281452606 94.44183696059575 -9.587054366408097 90.81246442025298 -12.261474609375 87.3818359375 C-13.789066149187704 85.79135683388658 -15.366506279627245 84.29381682897011 -17 82.8125 C-23.917780061664956 76.39234326824256 -23.917780061664956 76.39234326824256 -25 73 C-25.113306856963476 67.80676905584045 -23.85537858053536 62.82398430939192 -22 58 C-20.927499999999995 58.20625 -19.855000000000004 58.4125 -18.75 58.625 C-14.46479529705401 59.09059496156162 -14.46479529705401 59.09059496156162 -11 57 C-9.85790182650723 55.217710636444224 -9.85790182650723 55.217710636444224 -9 53 C-8.503791503906257 52.09419189453125 -8.0075830078125 51.1883837890625 -7.496337890625 50.255126953125 C-5.94461303842877 46.87951144417864 -5.4540192315762255 44.349457070296516 -5.12109375 40.66796875 C-5.005561523437507 39.464306640625 -4.890029296874999 38.26064453125 -4.77099609375 37.0205078125 C-4.660942382812493 35.755615234375 -4.550888671875001 34.49072265625 -4.4375 33.1875 C-4.1895544564714555 30.58195954389013 -3.9408591138700615 27.9764903281984 -3.69140625 25.37109375 C-3.5742626953124983 24.1102294921875 -3.4571191406249966 22.849365234375 -3.33642578125 21.55029296875 C-2.8999260897571446 16.943922494374824 -2.40774343329808 12.346127545100881 -1.875 7.75 C-1.728046875000004 6.44546875 -1.581093750000008 5.1409375 -1.4296875 3.796875 C-1 1.0000000000000013 -1 1.0000000000000013 0 0 Z " fill="#81805A" transform="translate(109,0)"/>
<path d="M0 0 C2.3359375 0.19140625 2.3359375 0.19140625 5 1 C6.4765625 3.21484375 6.4765625 3.21484375 7.625 5.9375 C9.402308616098011 10.157552874686587 9.402308616098011 10.157552874686587 13 13 C13 13.659999999999997 13 14.319999999999993 13 15 C15.447933842030665 15.738813030793963 17.89670416352473 16.474370662927413 20.34765625 17.203125 C22.40530720055085 17.821329409296567 24.454555142647706 18.46753558156533 26.5 19.125 C30.335149565143922 20.08378739128598 34.02653121411785 20.462688866301775 37.9609375 20.75390625 C40 21 40 21 41 22 C41.09311889438848 23.504187393747742 41.11746027791065 25.01271356021995 41.113525390625 26.519775390625 C41.11344985961915 27.480695953369136 41.113374328613276 28.441616516113285 41.11329650878906 29.431655883789063 C41.10813522338867 30.47643600463867 41.10297393798828 31.52121612548828 41.09765625 32.59765625 C41.09624130249023 33.66165145874024 41.094826354980455 34.725646667480476 41.09336853027344 35.82188415527344 C41.087750636761115 39.23545083242897 41.07519510849596 42.64895299668126 41.0625 46.0625 C41.057487305073295 48.370441764158244 41.0529239998728 50.67838455167214 41.048828125 52.986328125 C41.03862433032032 58.65759720795998 41.01905243223183 64.3287260056559 41 70 C33.08 70 25.159999999999997 70 17 70 C16.340000000000003 67.69 15.680000000000007 65.38 15 63 C14.234971995221741 60.47430945790913 13.461103733449761 57.95155925979044 12.68359375 55.4296875 C11.089718368145355 49.76459899992237 11.18577703488684 46.35175552840465 12.72265625 40.6953125 C13.16033271854738 36.44183696059581 12.412945633591903 32.81246442025298 9.738525390625 29.3818359375 C8.210933850812296 27.791356833886567 6.633493720372769 26.293816828970108 5 24.8125 C-1.9177800616649563 18.392343268242556 -1.9177800616649563 18.392343268242556 -3 15 C-3.113306856963476 9.806769055840476 -1.8553785805353442 4.8239843093919035 0 0 Z " fill="#757570" transform="translate(87,58)"/>
<path d="M0 0 C14.519999999999996 0 29.040000000000006 0 44 0 C43.34 5.94 42.68000000000001 11.88 42 18 C41.76539062500001 20.5923046875 41.53078124999999 23.184609375 41.2890625 25.85546875 C41.17820312500001 27.07427734375 41.06734374999999 28.2930859375 40.953125 29.548828125 C40.73059201915041 32.01655993049274 40.52003797800512 34.48539577197525 40.3203125 36.955078125 C39.42717697682599 46.439568425069524 37.604546324805 52.69379085260073 30 59 C27.187499999999986 59.8125 27.187499999999986 59.8125 25 60 C25 59.34 25 58.68 25 58 C24.340000000000003 58 23.680000000000007 58 23 58 C20.890296298203992 51.38959506770585 19.240971322145953 44.82534227180273 18 38 C17.690624999999997 36.515 17.690624999999997 36.515 17.375 35 C17 32.00000000000001 17 32.00000000000001 17.15234375 29.73046875 C17.534350699984245 23.664943763664848 16.622327993172433 20.13892203393106 12.99609375 15.234375 C9.965884323772372 11.842438029741288 6.58645110716968 8.925204271802924 3.07421875 6.04296875 C1 4 1 4 0 0 Z " fill="#536945" transform="translate(65,0)"/>
<path d="M0 0 C0.4357031250000034 0.37511718750000256 0.8714062500000068 0.750234374999998 1.3203125 1.13671875 C1.9158593749999966 1.6484765624999937 2.511406249999993 2.1602343750000017 3.125 2.6875 C4.0801953124999955 3.511210937499996 4.0801953124999955 3.511210937499996 5.0546875 4.3515625 C6.251840422731675 5.366017386330853 7.462826366850919 6.36471570844013 8.6953125 7.3359375 C11.043550984726451 9.188567862321875 12.856030904022816 10.74940249576305 14.35546875 13.359375 C16.23809353350731 16.382306956415533 18.408456103348897 18.32270389179098 21.0625 20.6875 C25.208406777012712 24.772882590486972 27.350762496332052 27.69203211246557 28.05078125 33.4921875 C27.97947208384977 37.01376324372667 27.15657649129767 40.22776315984454 26.32421875 43.63671875 C25.771666487008616 47.66435873927455 27.40010885111306 50.285966975798175 29 54 C29.659999999999997 57.629999999999995 30.319999999999993 61.25999999999999 31 65 C20.439999999999998 65 9.879999999999995 65 -1 65 C-0.34380469338798036 59.7504375471038 0.3597336972294869 54.773707415307854 1.4375 49.625 C1.6837109374999955 48.421015624999995 1.9299218750000051 47.21703124999999 2.18359375 45.9765625 C3 43 3 43 5 41 C4.484375 39.96875 3.96875 38.9375 3.4375 37.875 C3.0855859374999994 37.145390625000005 2.733671874999999 36.41578125000001 2.37109375 35.6640625 C1.338469340327464 33.65765267835707 0.20880981587454528 31.700749319905327 -0.96484375 29.7734375 C-6.211335919474209 20.893124920763768 -6.211335919474209 20.893124920763768 -5.62890625 15.67578125 C-4.597532152126561 12.66477335254531 -3.376406780651152 9.867161201541023 -2 7 C-1.5488208068648532 5.593944207637023 -1.1249573300184608 4.178272577703908 -0.75 2.75 C-0.5024999999999977 1.8425000000000011 -0.25499999999999545 0.9350000000000023 0 0 Z " fill="#655976" transform="translate(73,63)"/>
<path d="M0 0 C4.712923531070508 -0.34023779502380663 9.29578190724235 -0.515981914491504 14 0 C16.3125 2.5 16.3125 2.5 18 6 C19.437261030476904 7.338139580099186 20.922045095104266 8.626107195639669 22.4375 9.875 C27.27165643411935 14.086938279232701 31.445295638633525 18.04035503747972 32.3671875 24.62109375 C32.481846963267074 29.010003205056343 32.487779699713116 31.26833045043032 30 35 C18.351848044121283 38.88271731862624 6.062701375875427 34.48561383398334 -4.5625 29.5625 C-8.284314099117168 27.568238047867187 -11.056746639026343 25.88650672194731 -13 22 C-13.249588348499657 15.510702939009011 -9.937019079815826 10.871707062793682 -6 6 C-3.1875 3.562500000000001 -3.1875 3.562500000000001 -1 2 C-0.6700000000000017 1.3399999999999999 -0.3400000000000034 0.6799999999999999 0 0 Z " fill="#72A093" transform="translate(51,0)"/>
<path d="M0 0 C6.615712727050969 4.5885703475032855 11.527176063054817 15.292221396653538 13 23 C13.572512947920693 28.95413465837524 12.471645057719329 33.19944630000829 9 38 C6.8635828336766735 40.27808939220684 5.124639861054092 41.54938779992389 2 42 C-4.219672133051688 40.225767061887 -9.322853406777593 36.34306469370652 -14 32 C-15.11375 31.133749999999992 -15.11375 31.133749999999992 -16.25 30.25 C-18.955017946257712 26.772119783382948 -19.774074526060673 23.374738722643315 -20 19 C-19.06268347982627 12.029381740776955 -15.984588995872965 5.971608295362877 -11 1 C-7.230264290948931 -0.25657856968368975 -3.8909274501918283 -0.8597096842328611 0 0 Z " fill="#CF7B76" transform="translate(28,47)"/>
<path d="M0 0 C6.269999999999996 0 12.540000000000006 0 19 0 C19 15.84 19 31.68 19 48 C10.039769050094293 47.00441878334381 6.214160484207966 46.06673630471247 0.6484375 39.375 C-5.469298955462534 30.5725015029316 -3.2429454943637097 18.802234599298103 -2.0625 8.6875 C-1.9757299804687563 7.9403271484375 -1.8889599609374983 7.193154296875 -1.799560546875 6.42333984375 C-1.1332194985029957 1.133219498502994 -1.1332194985029957 1.133219498502994 0 0 Z " fill="#9CB293" transform="translate(109,0)"/>
<path d="M0 0 C10.682541515264091 1.7804235858773438 17.293623579260338 10.860104455868026 24 19 C26.301711130052432 22.696687572508452 26.252477529482864 25.311062064831063 25.68359375 29.5390625 C24.471003013377437 33.90438915184123 22.002052263894242 37.63164958189054 19 41 C18.34 41 17.68 41 17 41 C16.67 41.99000000000001 16.34 42.97999999999999 16 44 C15.34 44 14.68 44 14 44 C14.33 44.99000000000001 14.66 45.97999999999999 15 47 C14.504999999999999 47.495000000000005 14.504999999999999 47.495000000000005 14 48 C9.379999999999999 48 4.76 48 0 48 C0 32.16 0 16.319999999999993 0 0 Z " fill="#5C3773" transform="translate(0,80)"/>
<path d="M0 0 C9.223793125182205 -0.4637661347857005 20.539829583820946 -0.23008520808953392 29 4 C28.909969746792655 5.605022100282838 28.801873474834196 7.209028735167593 28.6875 8.8125 C28.600488281249994 10.15248046875 28.600488281249994 10.15248046875 28.51171875 11.51953125 C27.789247372561164 16.43343962632059 26.306834530749853 21.2082733872505 25 26 C13.780000000000001 26 2.5600000000000023 26 -9 26 C-9 17.151554012897464 -8.905293396059228 11.764681169537141 -4.4375 4.4375 C-3.963124999999998 3.963125000000005 -3.488749999999996 3.488749999999996 -3 3 C-2.3400000000000034 3 -1.6799999999999997 3 -1 3 C-0.6700000000000017 2.010000000000005 -0.3400000000000034 1.019999999999996 0 0 Z " fill="#B25967" transform="translate(47,102)"/>
<path d="M0 0 C4.935638419767827 2.927232011723916 7.928501736382742 5.93127282503157 9.91015625 11.3671875 C11.654161049681278 19.41043351644055 8.784745582113331 27.49723696114235 5.43359375 34.78125 C2.5905593565225047 37.624284393477495 -0.6952760724285412 37.68629775036146 -4.56640625 37.78125 C-6.824218749999943 37.300781250000014 -6.824218749999943 37.300781250000014 -8.56640625 36.78125 C-8.605078124999999 35.114492187500005 -8.605078124999999 35.114492187500005 -8.64453125 33.4140625 C-8.940541443609483 24.75381690143834 -9.644888800920718 17.65696421023422 -13.56640625 9.78125 C-13.896406249999998 8.791249999999998 -14.226406249999997 7.801249999999996 -14.56640625 6.78125 C-15.556406250000002 6.451250000000002 -16.546406250000004 6.121250000000003 -17.56640625 5.78125 C-17.56640625 5.121250000000003 -17.56640625 4.46125 -17.56640625 3.78125 C-18.226406249999997 3.78125 -18.88640625 3.78125 -19.56640625 3.78125 C-23.56640625 -0.689338235294116 -23.56640625 -0.689338235294116 -23.56640625 -3.21875 C-15.632945265324508 -5.863236994891828 -7.347576481488844 -3.4892600642686773 0 0 Z " fill="#3C1A32" transform="translate(62.56640625,46.21875)"/>
<path d="M0 0 C0 10.560000000000002 0 21.120000000000005 0 32 C-7.590000000000003 32 -15.180000000000007 32 -23 32 C-22.752499999999998 28.864999999999995 -22.504999999999995 25.730000000000004 -22.25 22.5 C-22.148002929687493 21.043037109375007 -22.148002929687493 21.043037109375007 -22.0439453125 19.556640625 C-21.441389979696197 12.85491660675683 -19.874047878875146 7.072258077418269 -15.1875 2.0625 C-10.344561186221853 -0.28978456669224784 -5.29310457802444 0 0 0 Z " fill="#959391" transform="translate(128,96)"/>
<path d="M0 0 C15.945071277553325 0.09491113855686706 15.945071277553325 0.09491113855686706 22 4 C25.704350370757012 9.145633450164183 25.95186595158924 17.235262733740882 27 23 C16.439999999999998 23 5.8799999999999955 23 -5 23 C-4.33855674748763 17.708453979901094 -3.6148958343839723 12.741191150713561 -2.5 7.5625 C-2.11328125 5.739121093750001 -2.11328125 5.739121093750001 -1.71875 3.87890625 C-1 1 -1 1 0 0 Z " fill="#734743" transform="translate(77,105)"/>
<path d="M0 0 C1.8125 1.4375 1.8125 1.4375 3 3 C3 3.6599999999999966 3 4.32 3 5 C3.6599999999999966 5 4.32 5 5 5 C11.892242691527628 12.21861630087573 14.240406669121704 19.522122949732818 14.5 29.3125 C14.54616455078125 30.372109375000008 14.54616455078125 30.372109375000008 14.59326171875 31.453125 C14.59375 33.48828125 14.59375 33.48828125 14 37 C11.718749999999993 39.10546875 11.718749999999993 39.10546875 9 40 C6.472069649849111 39.308097775361205 5.397731307541413 38.53432589801018 3.83984375 36.44140625 C1.9738808319660137 32.55600294448334 0.618945397522026 28.809235984567565 -0.4375 24.625 C-2.628538134864371 16.07402954934011 -6.686092743335571 8.983992394473248 -12 2 C-4.416356877323423 -1.7174721189591082 -4.416356877323423 -1.7174721189591082 0 0 Z " fill="#7B3539" transform="translate(40,45)"/>
<path d="M0 0 C10.726027397260273 2.3835616438356197 10.726027397260273 2.3835616438356197 15 6 C15 9.435925171220447 14.194722154691949 10.772234935916103 12.5625 13.75 C9.713762271371138 19.310284121884663 8.63794553467981 23.546075290607604 9.5625 29.8125 C9.706875 30.864374999999995 9.85125 31.916250000000005 10 33 C8 35 8 35 0 36 C0 24.120000000000005 0 12.239999999999995 0 0 Z " fill="#7B3539" transform="translate(0,42)"/>
<path d="M0 0 C4.68176605504587 6.2247706422018325 4.68176605504587 6.2247706422018325 6 9 C5.313757413447576 11.668721169926087 4.5449393442063695 12.648387252407872 2.23828125 14.13671875 C-0.5217251475239237 15.20122383525792 -2.332610576119393 15.008867029457974 -5.25 14.625 C-6.142031250000002 14.514140624999996 -7.034062499999997 14.403281249999992 -7.953125 14.2890625 C-8.62859375 14.193671875000007 -9.3040625 14.09828125 -10 14 C-9.278125 13.54625 -8.556249999999999 13.092500000000001 -7.8125 12.625 C-3.9386002030346177 9.009360189498977 -2.1465605648371167 4.786373344572979 0 0 Z " fill="#B25967" transform="translate(41,75)"/>
<path d="M0 0 C2.6400000000000006 0 5.280000000000001 0 8 0 C6.611226464135491 3.3562027116725663 5.083220347311183 5.072987282930509 2 7 C1.3400000000000034 7 0.6799999999999997 7 0 7 C0 4.6899999999999995 0 2.38 0 0 Z " fill="#536945" transform="translate(43,0)"/>
</svg>
