<?xml version="1.0" encoding="UTF-8"?>
<!-- Generator: visioncortex VTracer 0.6.0 -->
<svg version="1.1" xmlns="http://www.w3.org/2000/svg" width="128" height="128">
<path d="M0 0 C42.24 0 84.48 0 128 0 C128 42.24 128 84.48 128 128 C85.75999999999999 128 43.519999999999996 128 0 128 C0 85.75999999999999 0 43.519999999999996 0 0 Z " fill="#5C6E90" transform="translate(0,0)"/>
<path d="M0 0 C5.590049519286623 3.8294040014010733 10.905688104094395 7.81137620818879 14 14 C13.92251647977946 18.51192498515028 13.534677621925084 23.004822787629024 13.1826171875 27.50244140625 C12.989019766277409 30.150170843558996 12.842132437586642 32.79851102331633 12.6953125 35.44921875 C12.569257790767367 37.299585373973336 12.441671723352556 39.14984835791216 12.3125 41 C12.271491699218757 41.87116455078126 12.2304833984375 42.74232910156249 12.188232421875 43.639892578125 C11.666794499355888 50.283610186778176 9.452345660218711 54.110107380434314 5 59 C4.359335937500006 59.705117187499994 3.7186718749999983 60.410234375 3.05859375 61.13671875 C2.523632812499997 61.648476562499994 1.9886718749999943 62.160234375 1.4375 62.6875 C0.8999609374999977 63.206992187500006 0.36242187499999545 63.726484375 -0.19140625 64.26171875 C-0.7882421875000034 64.8353515625 -1.3850781250000068 65.408984375 -2 66 C-2.7940624999999955 66.7940625 -3.588125000000005 67.588125 -4.40625 68.40625 C-10.874452974801997 74.874452974802 -17.23413669405086 80.9175102954155 -25.0625 85.6875 C-26.688652343749993 86.68330078125001 -26.688652343749993 86.68330078125001 -28.34765625 87.69921875 C-36.885781117551716 90.74006963865745 -45.193982611435715 87.24512343205667 -53.3125 84.1875 C-54.274785156250005 83.84396484375 -55.237070312499995 83.5004296875 -56.228515625 83.146484375 C-65.96062341522124 79.55671728006025 -65.96062341522124 79.55671728006025 -69 76 C-72.17157125074228 68.90386400295645 -72.64185701915551 61.27193083443737 -73.3125 53.625 C-74.2449515672355 44.20045892554411 -75.86384475426404 35.52016622624643 -79.018798828125 26.58251953125 C-81.30793420340041 19.951173723214737 -82.20518542341935 13.646421714606774 -79.6875 6.9375 C-74.21656172882403 -2.684464861543745 -61.05581661268939 -8.547583503517068 -50.8828125 -11.64453125 C-34.570368463408755 -14.724266534916605 -13.855798352564449 -8.231840919772331 0 0 Z " fill="#DEEEE3" transform="translate(102,24)"/>
<path d="M0 0 C-2.5227570848435263 1.274382444920958 -5.061509257051121 2.511295129536311 -7.609375 3.734375 C-20.48405368968337 9.451379173155416 -20.48405368968337 9.451379173155416 -30 19.3125 C-32.09729722844659 27.04628352989681 -30.890570526196637 33.22951471930271 -28.25 40.625 C-24.78778088833642 51.039175708854415 -23.51812414997513 61.6038036929034 -22.3818359375 72.46337890625 C-22.241650390625 73.7413232421875 -22.10146484375 75.019267578125 -21.95703125 76.3359375 C-21.84335205078125 77.4759521484375 -21.7296728515625 78.615966796875 -21.612548828125 79.79052734375 C-20.823096707827574 83.92689146229523 -19.717728238684664 87.63018834665874 -16.33056640625 90.331298828125 C-15.718745117187503 90.59966552734375 -15.106923828124998 90.8680322265625 -14.4765625 91.14453125 C-13.771767578125 91.4560009765625 -13.066972656250002 91.767470703125 -12.3408203125 92.08837890625 C-8.05944036256787 93.75574151920856 -3.743035873993996 95.2635451234636 0.625 96.6875 C1.5402343749999972 96.99494140625 2.4554687500000014 97.3023828125 3.3984375 97.619140625 C7.915728054698349 99.11076041076383 12.258819445275279 100.4093213594612 17 101 C16.69257096846546 103.31317960620652 16.378922984486493 105.62553352210966 16.0625 107.9375 C15.801464843750011 109.86916015624999 15.801464843750011 109.86916015624999 15.53515625 111.83984375 C15 115 15 115 14 116 C11.913809775753421 116.09417772763473 9.824395230263896 116.11742877613133 7.736083984375 116.113525390625 C7.071847009658811 116.11364592552184 6.407610034942628 116.1137664604187 5.723244667053223 116.11389064788818 C3.5641607877100085 116.11314176099313 1.4051622703965236 116.10551467616457 -0.75390625 116.09765625 C-2.069998779296874 116.09664916992188 -3.3860913085937483 116.09564208984375 -4.7420654296875 116.0946044921875 C-9.682219085630038 116.08935248272655 -14.622360372414633 116.07539138807743 -19.5625 116.0625 C-30.596875 116.041875 -41.63125 116.02125000000001 -53 116 C-53 82.67 -53 49.34 -53 15 C-46.565 13.02 -46.565 13.02 -40 11 C-37.003333977915695 9.520601273006399 -34.180920030776235 8.050801542044404 -31.3125 6.375 C-20.68590669982207 0.5067064392447254 -12.131964167624325 -0.3422811207166738 0 0 Z " fill="#7E7A8E" transform="translate(53,12)"/>
<path d="M0 0 C5.590049519286623 3.8294040014010733 10.905688104094395 7.81137620818879 14 14 C13.92251647977946 18.51192498515028 13.534677621925084 23.004822787629024 13.1826171875 27.50244140625 C12.989019766277409 30.150170843558996 12.842132437586642 32.79851102331633 12.6953125 35.44921875 C12.569257790767367 37.299585373973336 12.441671723352556 39.14984835791216 12.3125 41 C12.271491699218757 41.87116455078126 12.2304833984375 42.74232910156249 12.188232421875 43.639892578125 C11.519243171897088 52.163583449333245 7.148181211157308 57.21774603728899 1.125 63 C0.5294531250000034 63.5775 -0.06609374999999318 64.155 -0.6796875 64.75 C-1.1153906250000034 65.1625 -1.5510937500000068 65.575 -2 66 C-2.3299999999999983 65.34 -2.6599999999999966 64.68 -3 64 C-2.0908417405977815 61.66542778615813 -1.0050231088163173 59.4442339900051 0.08984375 57.19140625 C2.5674135950224724 48.50396177195985 0.6966901996847383 39.068431109883164 -0.6875 30.3125 C-0.8363867187500063 29.23677734375 -0.9852734374999983 28.1610546875 -1.138671875 27.052734375 C-2.347464925030181 19.311718489904806 -4.277910518003608 13.335463990028451 -10.21875 8.01171875 C-23.846328697217587 0.1011893350055395 -40.76868636794582 -1.8697830629624548 -56 2 C-61.65398354792692 4.092658782880086 -67.10734105097517 6.46621766273509 -70 12 C-71.83150415861176 18.603733304290294 -70.59673075008166 23.79425363116077 -68 30 C-67.34 30 -66.68 30 -66 30 C-61.599314318761 34.08931641134001 -58.44223479447622 38.11087458922209 -57 44 C-54.77696596179681 52.66159928959168 -50.476721565504945 58.523278434495055 -44.1875 64.8125 C-42.171810533670595 66.8281894663294 -41.0653008677849 68.38517059725525 -40 71 C-39.34 71 -38.68 71 -38 71 C-36.77970427094061 72.87013996067897 -35.64795936375906 74.79850746644608 -34.5625 76.75 C-32.54985783123357 80.34928232340951 -30.566086825826204 83.76688754666546 -28 87 C-32.76082130613412 89.79797308516717 -36.735056359485355 88.99781027946871 -42 88 C-45.85252113224158 86.92921880721849 -49.57203448252828 85.5962467533335 -53.3125 84.1875 C-54.274785156250005 83.84396484375 -55.237070312499995 83.5004296875 -56.228515625 83.146484375 C-65.96062341522124 79.55671728006025 -65.96062341522124 79.55671728006025 -69 76 C-72.17157125074228 68.90386400295645 -72.64185701915551 61.27193083443737 -73.3125 53.625 C-74.2449515672355 44.20045892554411 -75.86384475426404 35.52016622624643 -79.018798828125 26.58251953125 C-81.30793420340041 19.951173723214737 -82.20518542341935 13.646421714606774 -79.6875 6.9375 C-74.21656172882403 -2.684464861543745 -61.05581661268939 -8.547583503517068 -50.8828125 -11.64453125 C-34.570368463408755 -14.724266534916605 -13.855798352564449 -8.231840919772331 0 0 Z " fill="#B8B7C3" transform="translate(102,24)"/>
<path d="M0 0 C42.24 0 84.48 0 128 0 C128 11.55 128 23.1 128 35 C120.00000000000001 38 120.00000000000001 38 116 39 C115.54173828125 38.272968750000004 115.54173828125 38.272968750000004 115.07421875 37.53125 C105.40419251037589 23.366704522240745 89.37445997506286 17.71641178081592 73.21875 14.54296875 C72.1565625 14.3637890625 71.094375 14.184609375 70 14 C68.9442578125 13.814375 67.888515625 13.62875 66.80078125 13.4375 C61.75197156371085 12.85634205049909 56.765508669154734 12.815795268442022 51.6875 12.8125 C50.70587890625 12.80025390625 49.7242578125 12.7880078125 48.712890625 12.775390625 C37.847426744624244 12.7538178972428 29.70565881722043 14.636174090717745 20.25 20 C7.669999999999995 27 7.669999999999995 27 0 27 C0 18.09 0 9.18 0 0 Z " fill="#616272" transform="translate(0,0)"/>
<path d="M0 0 C2.5590531951534388 2.090855492782012 4.481300746291083 4.7167691877428695 6.55859375 7.2734375 C8.919782364280877 9.29159629138293 10.564227269162828 10.086016309323185 13.55859375 11.2734375 C17.416199051222762 10.679759127597265 17.416199051222762 10.679759127597265 20.55859375 8.2734375 C22.004527958798434 5.953811596132539 22.712858575243985 3.910141280121678 23.55859375 1.2734375 C24.218593749999997 1.6034374999999983 24.878593749999993 1.9334374999999966 25.55859375 2.2734375 C26.41515669879243 11.943081455256788 24.466736246004018 19.77950769408747 18.796875 27.75 C13.020773913675754 34.568845501502466 5.615647046170153 41.28988642852832 -2.44140625 45.2734375 C-4.5234375 45.26171875 -4.5234375 45.26171875 -6.44140625 44.2734375 C-8.328125 42.12890625 -8.328125 42.12890625 -10.12890625 39.4609375 C-10.730898437500002 38.5882421875 -11.332890625000005 37.715546875 -11.953125 36.81640625 C-13.278724527911876 34.5514054818356 -13.99372547589411 32.834171527885715 -14.44140625 30.2734375 C-15.101406249999997 30.2734375 -15.76140625 30.2734375 -16.44140625 30.2734375 C-20.44140625 25.802849264705884 -20.44140625 25.802849264705884 -20.44140625 23.2734375 C-21.0279296875 23.027226562500005 -21.614453124999997 22.781015624999995 -22.21875 22.52734375 C-28.402168736162253 19.0389827406712 -32.16952993881815 11.924900370817184 -34.0859375 5.29296875 C-34.53711048859282 2.7297112214012174 -34.31029395537466 0.722121033328591 -33.44140625 -1.7265625 C-32.38953125 -1.7059374999999974 -31.337656250000002 -1.685312500000002 -30.25390625 -1.6640625 C-26.67441763483628 -1.6009407041375567 -26.67441763483628 -1.6009407041375567 -24.16015625 -2.2109375 C-16.40732871673775 -3.6813013425152548 -6.94322521522777 -4.210730130525228 0 0 Z " fill="#B3C9DF" transform="translate(78.44140625,64.7265625)"/>
<path d="M0 0 C7.131328135535128 1.2966051155518414 13.682264426559627 3.810342828194454 18.3154296875 9.6611328125 C21.796242840109713 14.753951471869797 23.077223876520222 19.4388472569768 23.875 25.5 C24.00390625 26.3030859375 24.1328125 27.106171875 24.265625 27.93359375 C25.223634092130553 34.501278303828386 25.349611536020433 40.300776927959134 22.3125 46.375 C19.55885245951201 49.50076207298636 18.146166729828707 50.51221567884369 14 51 C9.522484646301194 49.16102047973085 7.0004026164505575 47.1880032705632 4 43.4375 C1.1231519918790411 39.95539306030034 -1.4916148156100064 37.83431915975978 -6 37 C-13.961906016018588 36.514406192348694 -21.834061659992372 36.88489331704964 -29.73046875 37.9765625 C-32.46645353756654 38.00481707611945 -33.738081998174444 37.526677574731124 -36 36 C-37.75000000000001 33.87499999999999 -37.75000000000001 33.87499999999999 -39 32 C-38.1608203125 31.780859375 -37.321640625 31.561718749999997 -36.45703125 31.3359375 C-32.3002519448207 30.239937811817676 -28.14907911656786 29.124750362925028 -24 28 C-23.127949218750004 27.764423828125004 -22.2558984375 27.52884765625 -21.357421875 27.2861328125 C-18.589702513753522 26.533714436041734 -15.825844801885943 25.768314869353347 -13.0625 25 C-12.187629394531257 24.763295898437505 -11.3127587890625 24.526591796874996 -10.411376953125 24.28271484375 C-4.89154772395014 22.732053361408717 0.03644600328965453 20.900559300455882 5 18 C6.346886282996195 14.498095664209892 6.523840388992568 12.417757072696311 5.21484375 8.875 C3.6966199004834124 5.734643444345913 1.9357194276535807 2.9035791414803747 0 0 Z " fill="#CDE0E5" transform="translate(78,26)"/>
<path d="M0 0 C9.499999999999998 0 9.499999999999998 0 14 4 C18.132262588535802 9.14677017015238 20.396527806875405 15.135361477189662 22.69140625 21.265625 C24.186229293090847 24.389135836309237 25.202116178416954 25.93863776226867 28 28 C31.881966885778787 29.347084576216915 35.901113547710736 30.123448809781436 39.9140625 30.978515625 C45.51835042767737 32.28706398547183 48.998253427170084 33.78317584263689 53 38 C53 38.99000000000001 53 39.97999999999999 53 41 C35.51 41 18.019999999999996 41 0 41 C0 27.47 0 13.939999999999998 0 0 Z " fill="#424764" transform="translate(0,87)"/>
<path d="M0 0 C0 13.530000000000001 0 27.060000000000002 0 41 C-14.189999999999998 41 -28.379999999999995 41 -43 41 C-41.92649526285244 35.63247631426225 -41.21533560601273 34.7355726555175 -37.4375 31.125 C-36.526132812499995 30.2471484375 -35.614765625000004 29.369296875000003 -34.67578125 28.46484375 C-32.527642090207976 26.486046947330266 -30.355848911279352 24.570806133522154 -28.125 22.6875 C-23.24408171378427 18.523777870126167 -19.03532092864765 13.733539774582312 -14.734375 8.98828125 C-6.560647930385699 0 -6.560647930385699 0 0 0 Z " fill="#183C70" transform="translate(128,87)"/>
<path d="M0 0 C-2.5227570848435263 1.274382444920958 -5.061509257051121 2.511295129536311 -7.609375 3.734375 C-20.48405368968337 9.451379173155416 -20.48405368968337 9.451379173155416 -30 19.3125 C-32.19185779663066 27.39497562507556 -30.712909038231622 33.97607297534121 -28.0625 41.75 C-25.52547275154285 49.611417382697574 -24.030325819432655 56.69072547545274 -24 65 C-26.97 65.495 -26.97 65.495 -30 66 C-30.291328125 64.9726171875 -30.58265625 63.945234375 -30.8828125 62.88671875 C-33.127581653629555 55.21515752922468 -35.54301283777407 48.24323706599859 -39.66796875 41.33203125 C-41 39 -41 39 -41.98828125 36.26171875 C-42.3221484375 35.5153515625 -42.656015625 34.768984375 -43 34 C-43.99 33.67 -44.980000000000004 33.34 -46 33 C-46 32.34 -46 31.68 -46 31 C-48.31 30.340000000000003 -50.62 29.68 -53 29 C-53 24.379999999999995 -53 19.759999999999998 -53 15 C-51.205625 14.525624999999998 -49.41125 14.05125 -47.5625 13.5625 C-41.70419429929202 11.790938123257522 -36.65090214053142 9.34545259489785 -31.3125 6.375 C-20.66829732324124 0.526382184227181 -12.146939899778204 -0.3427036335360629 0 0 Z " fill="#857E93" transform="translate(53,12)"/>
<path d="M0 0 C5.794530709391985 1.158906141878397 8.329940676551939 2.7347791465974467 11.80859375 7.453125 C15.179851270025242 13.241663091937824 17.999471614970123 19.060266542863445 20.375 25.3125 C20.62564208984375 25.969599609374995 20.8762841796875 26.626699218750005 21.134521484375 27.3037109375 C24.113571026129684 35.520205392377875 23.990662473520626 41.99614818842491 22.5625 50.4375 C22.41490234375 51.35982421874999 22.2673046875 52.2821484375 22.115234375 53.232421875 C21.752628651802446 55.48993492587509 21.380699511825515 57.745480258971284 21 60 C20.34 60 19.68 60 19 60 C18.708671875 59.39671874999999 18.41734375 58.79343750000001 18.1171875 58.171875 C15.481859306770861 53.0338137427608 13.409629353764414 49.545707931183244 8 47 C4.039999999999999 46.504999999999995 4.039999999999999 46.504999999999995 0 46 C0 30.819999999999993 0 15.64 0 0 Z " fill="#686892" transform="translate(0,41)"/>
<path d="M0 0 C15.832928458614674 1.0555285639076448 31.848297161159508 7.829334306304453 42.5 19.8125 C46.24112360693675 25.2683052601161 44.67748250724932 31.180471488076776 44.1826171875 37.50244140625 C43.98901976627741 40.150170843558996 43.84213243758664 42.79851102331633 43.6953125 45.44921875 C43.56925779076735 47.299585373973336 43.441671723352556 49.14984835791216 43.3125 51 C43.27149169921876 51.87116455078126 43.2304833984375 52.74232910156249 43.188232421875 53.639892578125 C42.519243171897074 62.16358344933326 38.14818121115729 67.217746037289 32.125 73 C31.529453125000003 73.5775 30.933906250000007 74.155 30.3203125 74.75 C29.884609374999997 75.1625 29.448906249999993 75.575 29 76 C28.504999999999995 75.01 28.504999999999995 75.01 28 74 C28.909158259402204 71.66542778615816 29.994976891183683 69.4442339900051 31.08984375 67.19140625 C33.56741359502246 58.50396177195985 31.69669019968474 49.06843110988315 30.3125 40.3125 C30.089169921874998 38.698916015625 30.089169921874998 38.698916015625 29.861328125 37.052734375 C28.802491619468213 30.272028439574875 27.05702646856622 25.512626277074794 23 20 C22.401875000000004 18.989374999999995 21.803750000000008 17.978749999999998 21.1875 16.9375 C15.588050083193224 9.418238683145184 8.274714514850615 5.152568129695251 0 1 C0 0.6699999999999999 0 0.33999999999999986 0 0 Z " fill="#959BA6" transform="translate(71,14)"/>
<path d="M0 0 C14.850000000000001 0 29.700000000000003 0 45 0 C43.41147492462676 6.354100301492951 38.31127469855509 9.844547601883953 32.9296875 13.34765625 C30.648367698882883 14.62710366697633 28.330591511459602 15.812459244527927 26 17 C24.767841038139235 17.667462114280355 23.537515812534664 18.338315493764224 22.30859375 19.01171875 C20.976685858381618 19.73720568386218 19.644654051357943 20.462465168829326 18.3125 21.1875 C17.6826318359375 21.53296875 17.052763671875 21.8784375 16.40380859375 22.234375 C10.729269044967467 25.28472037009654 6.484134492490664 27 0 27 C0 18.09 0 9.18 0 0 Z " fill="#453848" transform="translate(0,0)"/>
<path d="M0 0 C1.83995787753949 3.679915755078966 -0.7286060672203121 8.40782991026245 -1.916748046875 12.20654296875 C-2.1582055664062523 12.978852539062501 -2.3996630859375045 13.751162109375002 -2.6484375 14.546875 C-2.8878808593750023 15.310644531250006 -3.1273242187500045 16.074414062499997 -3.3740234375 16.861328125 C-4.082010187778707 19.169094790329723 -4.082010187778707 19.169094790329723 -4.6640625 22.265625 C-6.597551498733992 30.791612632971578 -11.91837245796495 35.32279941040889 -18.337158203125 40.83837890625 C-19.380694580078128 41.736291503906244 -19.380694580078128 41.736291503906244 -20.4453125 42.65234375 C-21.079692382812496 43.17820068359376 -21.714072265624992 43.7040576171875 -22.36767578125 44.245849609375 C-24.463103372562102 46.28625914611179 -24.463103372562102 46.28625914611179 -26 51 C-31.939999999999998 51 -37.879999999999995 51 -44 51 C-43.72827462195663 47.648720337465164 -43.40069200931225 44.33576097752447 -43 41 C-42.87625 39.92750000000001 -42.7525 38.85499999999999 -42.625 37.75 C-40.334556722881544 33.87386522333799 -37.25599831971152 32.87534481072723 -33.2890625 30.90234375 C-29.344474217139265 28.620853852430898 -26.051351017301585 25.923527688369077 -22.625 22.9375 C-22.042666015625002 22.430737304687497 -21.460332031250005 21.923974609374994 -20.8603515625 21.40185546875 C-17.447777678534862 18.385155872418125 -14.195369440834753 15.24783856137391 -11 12 C-10.21238281250001 11.223984375 -9.424765624999992 10.447968750000001 -8.61328125 9.6484375 C-7.85402343749999 8.898203124999995 -7.094765625000008 8.147968750000004 -6.3125 7.375 C-5.162011718749994 6.241914062500001 -5.162011718749994 6.241914062500001 -3.98828125 5.0859375 C-1.851802306711562 2.9646464066138094 -1.851802306711562 2.9646464066138094 0 0 Z " fill="#657F9A" transform="translate(111,77)"/>
<path d="M0 0 C0.8108203124999989 -0.0025781249999994316 1.6216406249999977 -0.0051562500000006395 2.45703125 -0.0078125 C9.280743986043007 0.32409913522955947 13.903336787020322 1.6207776591860217 19.625 5.1875 C20.277346191406252 5.586545410156251 20.929692382812505 5.985590820312499 21.601806640625 6.396728515625 C26.734273088023983 9.632399991553406 31.51269538562586 13.229174044108582 35.1875 18.125 C35.1875 18.785 35.1875 19.445 35.1875 20.125 C34.5275 19.856875 33.86750000000001 19.58875 33.1875 19.3125 C32.197500000000005 18.920625 31.207499999999996 18.52875 30.1875 18.125 C29.29804687500001 17.763417968749998 29.29804687500001 17.763417968749998 28.390625 17.39453125 C14.738597841709577 12.015632549633573 -0.6900775310778826 10.008356421327615 -14.71484375 15.19921875 C-19.38693235900243 17.37403826402903 -23.356762800410152 19.42706796600203 -25.8125 24.125 C-26.70923037792185 28.46829409132583 -26.8125 32.699348104226004 -26.8125 37.125 C-29.4525 37.125 -32.0925 37.125 -34.8125 37.125 C-37.49130069754119 31.93482364851394 -37.68228217522269 26.65724516960664 -36.30078125 21.046875 C-32.27228067091279 11.064054052798525 -20.865511817442297 6.358846095991886 -11.66015625 2.25390625 C-7.60893007350311 0.6478645970403267 -4.356871665089955 -0.013722430441228894 0 0 Z " fill="#ADB1B0" transform="translate(57.8125,11.875)"/>
<path d="M0 0 C13.86 0 27.72 0 42 0 C42 9.9 42 19.8 42 30 C35.25474410580793 27.751581368602647 35.25474410580793 27.751581368602647 32.22265625 25.53125 C31.551296386718747 25.04728759765625 30.879936523437493 24.5633251953125 30.188232421875 24.064697265625 C29.135994873046883 23.290172119140625 29.135994873046883 23.290172119140625 28.0625 22.5 C26.561294109097616 21.41343010262032 25.05865978050346 20.328831321274272 23.5546875 19.24609375 C22.798974609374994 18.7019482421875 22.043261718750003 18.157802734375 21.2646484375 17.59716796875 C17.203302344236235 14.732859415264492 13.026264339473002 12.03697166630475 8.822509765625 9.38671875 C5.152566888278983 7.008763862290811 2.4980312836732566 4.595931452793847 0 1 C0 0.6699999999999999 0 0.33999999999999997 0 0 Z " fill="#3A2737" transform="translate(86,0)"/>
</svg>
