<?xml version="1.0" encoding="UTF-8"?>
<!-- Generator: visioncortex VTracer 0.6.0 -->
<svg version="1.1" xmlns="http://www.w3.org/2000/svg" width="128" height="128">
<path d="M0 0 C42.24 0 84.48 0 128 0 C128 42.24 128 84.48 128 128 C85.75999999999999 128 43.519999999999996 128 0 128 C0 85.75999999999999 0 43.519999999999996 0 0 Z " fill="#C38F3C" transform="translate(0,0)"/>
<path d="M0 0 C4.674103595723672 1.8436413677190728 9.28158441538556 3.845498272887994 13.8671875 5.8984375 C20.328568943087745 8.494738043495257 25.67500991524055 7.281686295473765 32.328125 5.76171875 C46.80636613761283 2.647453206154509 46.80636613761283 2.647453206154509 52.015625 4.94921875 C57.83945115470581 9.513839249634287 59.878124168842746 14.670473809303964 61.328125 21.76171875 C61.88838699605358 26.985084436284218 61.275344999083046 31.30545254629697 59.82421875 36.359375 C59.172254337392104 39.51652550199889 59.09050287906629 42.604215291885126 58.953125 45.82421875 C58.455097315281265 54.402316285069304 57.70366084617871 64.7396819705701 52.0234375 71.5078125 C45.50563201960222 76.95820925679641 37.191147972724565 79.9199389713143 29.390625 83.13671875 C28.76430175781249 83.39960693359374 28.137978515625008 83.6624951171875 27.49267578125 83.933349609375 C23.974670334838123 85.34064633256341 21.11892854325407 86.0638321253637 17.328125 85.76171875 C16.8125 84.73046875 16.296875 83.69921875 15.765625 82.63671875 C15.385351562500006 81.9096875 15.005078124999997 81.18265625 14.61328125 80.43359375 C13.328125 77.76171875000001 13.328125 77.76171875000001 12.13671875 74.46484375 C7.691704802848356 63.370476514057486 0.7657169426796031 59.72821380366872 -9.76708984375 54.71337890625 C-11.966147671071852 53.61469556724711 -13.87242437079204 52.44476286950179 -15.671875 50.76171875 C-15.671875 50.10171875 -15.671875 49.44171875 -15.671875 48.76171875 C-16.331874999999997 48.76171875 -16.991875 48.76171875 -17.671875 48.76171875 C-17.671875 48.10171875 -17.671875 47.44171875 -17.671875 46.76171875 C-18.331874999999997 46.76171875 -18.991875 46.76171875 -19.671875 46.76171875 C-20.001875 45.44171875 -20.331874999999997 44.12171875 -20.671875 42.76171875 C-23.311875 42.76171875 -25.951875 42.76171875 -28.671875 42.76171875 C-31.39845639156244 28.812333594952875 -31.825732780242795 18.90565997301141 -24.734375 6.32421875 C-22.553674711958152 3.614863846675277 -20.76276958362176 2.3071660418108806 -17.671875 0.76171875 C-17.049257812500002 0.4162499999999998 -16.426640624999997 0.07078124999999957 -15.78515625 -0.28515625 C-10.536660757756891 -2.6523150302353393 -5.3193024064939465 -1.7938498541048755 0 0 Z " fill="#B5781D" transform="translate(54.671875,14.23828125)"/>
<path d="M0 0 C9.36248535759025 1.5604142262650385 15.447833547636735 8.45252372881869 21 16 C21 16.659999999999997 21 17.319999999999993 21 18 C21.66 18 22.32 18 23 18 C23.3029296875 18.796640624999995 23.605859375 19.593281250000004 23.91796875 20.4140625 C26.928961324657354 28.02955756574876 29.755337312282823 34.5777642480721 37 39 C39.51624791110838 39.06104082015614 39.51624791110838 39.06104082015614 42.25 38.6875 C49.72812244228132 38.43975852031707 54.893851659503326 41.527780338700424 61.23828125 45.0546875 C64.74422044862949 46.981796159368415 68.14327422095276 47.97345856129837 72 49 C73.9375 50.5 73.9375 50.5 75 52 C75 52.66 75 53.31999999999999 75 54 C83.45550237942447 57.18190569300681 92.64262648398574 57.24505895725656 101.0859375 53.8984375 C107.06890041167341 51.09010797003086 110.84071021320669 47.17876553310701 115.0703125 42.21875 C115.707109375 41.48656249999999 116.34390625 40.75437500000001 117 40 C117.595546875 39.2884375 118.19109375 38.576875 118.8046875 37.84375 C121 36 121 36 128 34 C128 45.879999999999995 128 57.760000000000005 128 70 C85.75999999999999 70 43.519999999999996 70 0 70 C0 46.900000000000006 0 23.799999999999997 0 0 Z " fill="#E2AF7E" transform="translate(0,58)"/>
<path d="M0 0 C14.520000000000001 0 29.040000000000003 0 44 0 C47.99999999999999 9.999999999999991 47.99999999999999 9.999999999999991 49 13 C48.347734375 13.1095703125 47.69546875 13.219140625 47.0234375 13.33203125 C37.517546588610045 15.047608860870596 37.517546588610045 15.047608860870596 30.3125 21.125 C23.04202504355598 32.33560331993626 24.757109881133232 44.28257074802395 26 57 C28.64 57 31.28 57 34 57 C34.495 58.980000000000004 34.495 58.980000000000004 35 61 C35.66 61 36.32 61 37 61 C37 61.66 37 62.32 37 63 C37.66 63 38.32 63 39 63 C39 63.66 39 64.32 39 65 C41.015000815338574 66.01431167803099 43.03316580138005 67.01573850970722 45.0712890625 67.98291015625 C58.29378021590691 74.34700636560005 65.07199324599216 80.10513080368433 70 94 C70.3983203125 94.9036328125 70.796640625 95.807265625 71.20703125 96.73828125 C72.35183503710408 100.00350978563182 71.65432272595103 102.66295409764972 71 106 C65.30322986325368 106.56438589590056 62.134306883325834 104.72717209914472 57.375 102 C52.234038759250474 99.19788325052482 48.5647125919732 97.5068785547031 42.5625 98 C37.85892327193166 98.33870865025492 35.7328202524052 97.69981875978651 32.0625 94.6875 C27.2175186893988 89.75442812011514 23 83.08184066018333 23 76 C22.34 76 21.68 76 21 76 C19.572359560495492 74.33540679045325 18.207796828534978 72.61645927073386 16.875 70.875 C12.058920390132279 64.856839328088 7.619630705365575 59.904907676341395 0 58 C0 38.86 0 19.72 0 0 Z " fill="#B9804D" transform="translate(0,0)"/>
<path d="M0 0 C2.7457935690367066 2.403826604394773 4.831859367790443 5.079767224368162 7 8 C7.825000000000003 8.825000000000003 8.650000000000006 9.649999999999999 9.5 10.5 C11.678078183141693 12.678078183141693 13.757841826380812 14.894023842272773 15.8125 17.1875 C16.4170703125 17.8616796875 17.021640625000003 18.535859375 17.64453125 19.23046875 C19 21 19 21 19 23 C19.659999999999997 23 20.319999999999993 23 21 23 C24.284360189573462 29.93364928909955 24.284360189573462 29.93364928909955 23 34.75 C20.330569489528372 39.08782457951639 17.83630559049793 41.387898136500695 13 43 C11.311465800909843 43.214324793522394 9.61755752452271 43.387699020120436 7.921875 43.53515625 C6.427207031249992 43.665673828124994 6.427207031249992 43.665673828124994 4.90234375 43.798828125 C3.862070312500009 43.885839843750006 2.8217968749999898 43.9728515625 1.75 44.0625 C0.7251953125000057 44.15337890625 -0.29960937500000284 44.244257812499995 -1.35546875 44.337890625 C-16.918777357097454 45.66988550578762 -16.918777357097454 45.66988550578762 -20.625 43 C-21.281132812500005 42.55011718750001 -21.937265624999995 42.100234375 -22.61328125 41.63671875 C-23.79470703125 40.826542968750005 -23.79470703125 40.826542968750005 -25 40 C-27.265564137749266 38.59443648393491 -29.534988787653177 37.19831729629084 -31.8125 35.8125 C-34.907903548458805 33.91461482316066 -37.97885224321611 32.01409850452259 -41 30 C-41 29.340000000000003 -41 28.68 -41 28 C-41.66 28 -42.32 28 -43 28 C-43 27.340000000000003 -43 26.68 -43 26 C-43.66 26 -44.32 26 -45 26 C-47.24790161041918 20.87977966515632 -46.93761247951067 18.196324376869512 -45 13 C-44.7408984375 12.26265625 -44.481796875 11.525312499999998 -44.21484375 10.765625 C-41.63971085770239 4.121559182643395 -38.234995594707094 0.0037327510485880566 -31.74609375 -3.06640625 C-21.46461533145215 -6.7466144158686525 -9.623727143196362 -4.881600724809747 0 0 Z " fill="#98500C" transform="translate(80,35)"/>
<path d="M0 0 C0 17.490000000000002 0 34.980000000000004 0 53 C-2.969999999999999 54.31999999999999 -5.939999999999998 55.64 -9 57 C-11.200228285782785 59.03621233261025 -11.200228285782785 59.03621233261025 -12.625 61.375 C-18.185601443034955 69.16496699853745 -24.45825829548042 74.07804489730711 -34 76 C-47.72542289776905 76.92212143499223 -47.72542289776905 76.92212143499223 -53 73 C-55.437500000000014 70.74999999999999 -55.437500000000014 70.74999999999999 -57 68 C-56.75 64.1875 -56.75 64.1875 -56 61 C-54.90558593750001 60.70609375000001 -54.90558593750001 60.70609375000001 -53.7890625 60.40625 C-46.80446315723104 58.405722780836555 -40.1597661891459 55.95533169024341 -33.5 53.0625 C-32.735102539062495 52.73894531249999 -31.970205078125005 52.415390625 -31.18212890625 52.08203125 C-25.37088153730801 49.49754532549369 -21.18178938411684 46.884956437696985 -18.671875 40.7578125 C-16.997598164808053 34.16002666640463 -15.791403294107639 28.02269107247102 -15.4375 21.1875 C-14.756930299996554 8.202230123934143 -14.756930299996554 8.202230123934143 -12 4 C-8.353478943221688 1.6800372678636322 -4.372547436178934 0 0 0 Z " fill="#D89E4B" transform="translate(128,39)"/>
<path d="M0 0 C-1.0151567305193794 8.628832209414682 -4.170295105504124 14.041028463837556 -9.1875 20.9375 C-14.150745386352419 27.819286439205605 -16.316766564388757 32.159750986251225 -15.421875 40.7890625 C-15.282656250000002 41.518671874999995 -15.143437500000005 42.24828124999999 -15 43 C-30.6224556795798 35.481286933683506 -30.6224556795798 35.481286933683506 -36 31 C-36 30.340000000000003 -36 29.68 -36 29 C-36.66 29 -37.32 29 -38 29 C-38 28.340000000000003 -38 27.68 -38 27 C-38.66 27 -39.32 27 -40 27 C-42.24790161041918 21.87977966515632 -41.93761247951067 19.196324376869512 -40 14 C-39.7408984375 13.26265625 -39.481796875 12.525312499999998 -39.21484375 11.765625 C-36.63971085770239 5.121559182643395 -33.234995594707094 1.003732751048588 -26.74609375 -2.06640625 C-17.73370244748535 -5.292350488299785 -8.426787897647245 -4.404911855588331 0 0 Z " fill="#8E5827" transform="translate(75,34)"/>
<path d="M0 0 C14.520000000000001 0 29.040000000000003 0 44 0 C47.99999999999999 9.999999999999991 47.99999999999999 9.999999999999991 49 13 C48.347734375 13.1095703125 47.69546875 13.219140625 47.0234375 13.33203125 C40.261782024578835 14.558703261027734 35.168142617030725 15.625367609918726 30.375 20.875 C26.94942831213394 26.00781453554041 25.587096476068112 32.10380359449556 24 38 C23.360625 37.319375 22.72125 36.63875 22.0625 35.9375 C19.73344877804845 33.641160171615184 17.32314135491726 31.471652620861754 14.8125 29.375 C14.1383203125 28.805234375 13.464140625 28.23546875 12.76953125 27.6484375 C9.01927480045283 25.264382147005993 9.01927480045283 25.264382147005993 0 23 C0 15.41 0 7.8199999999999985 0 0 Z " fill="#B4843D" transform="translate(0,0)"/>
<path d="M0 0 C3.8352033450729195 1.4897595277030096 7.593406802451099 3.1500775967880585 11.36328125 4.796875 C14.105462948208896 5.858364689629248 16.85338088862889 6.902061002652452 19.60546875 7.9375 C21.36328125 8.796875 21.36328125 8.796875 22.36328125 10.796875 C22.432786663386963 12.337114960655093 22.447804823182793 13.880224877205222 22.42578125 15.421875 C22.41675781250001 16.239140625 22.40773437499999 17.05640625 22.3984375 17.8984375 C22.386835937499995 18.524921875000004 22.37523437499999 19.15140625 22.36328125 19.796875 C19.405335364487954 19.320632604843702 16.468937659473582 18.819526097466678 13.5390625 18.19140625 C5.2407073721523005 16.504564621010495 -1.9358335738964598 16.590337060196298 -9.69921875 20.234375 C-11.874375083361613 21.828939743390066 -11.874375083361613 21.828939743390066 -13.63671875 24.796875 C-14.296718749999997 24.796875 -14.95671875 24.796875 -15.63671875 24.796875 C-19.088312205253587 33.61470669900457 -19.088312205253587 33.61470669900457 -20.63671875 42.796875 C-23.27671875 42.796875 -25.91671875 42.796875 -28.63671875 42.796875 C-31.36330014156244 28.847489844952875 -31.790576530242795 18.94081622301141 -24.69921875 6.359375 C-22.518518461958152 3.650020096675277 -20.72761333362176 2.3423222918108806 -17.63671875 0.796875 C-17.014101562500002 0.4514062499999998 -16.391484374999997 0.10593749999999957 -15.75 -0.25 C-10.521405995569467 -2.6081828781535137 -5.3099358746704866 -1.756670514928583 0 0 Z " fill="#A37131" transform="translate(54.63671875,14.203125)"/>
<path d="M0 0 C0 11.879999999999995 0 23.760000000000005 0 36 C-16.17 36 -32.34 36 -49 36 C-49 31.379999999999995 -49 26.75999999999999 -49 22 C-46.71062499999999 22.061875 -44.42125 22.12375 -42.0625 22.1875 C-33.116568350380476 22.271458581824902 -26.064049464453007 20.711359141472656 -19 15 C-16.909395522594735 12.791213203209267 -14.902992256244886 10.532826260335383 -12.9296875 8.21875 C-5.781690140845058 0 -5.781690140845058 0 0 0 Z " fill="#F5C080" transform="translate(128,92)"/>
<path d="M0 0 C9.36248535759025 1.5604142262650385 15.447833547636735 8.45252372881869 21 16 C21 16.659999999999997 21 17.319999999999993 21 18 C21.66 18 22.32 18 23 18 C23.3029296875 18.796640624999995 23.605859375 19.593281250000004 23.91796875 20.4140625 C26.315744523328384 26.478590763618243 28.438902711581594 31.324875279371128 33 36 C33.4705078125 36.4833984375 33.941015625 36.966796875 34.42578125 37.46484375 C35.6007242713761 38.65964496328668 36.79803984162064 39.832381560431486 38 41 C36.35 43.97 34.7 46.94 33 50 C32.34 50 31.68 50 31 50 C30.67 50.99000000000001 30.34 51.97999999999999 30 53 C22.742239435805534 53.615064454592755 22.742239435805534 53.615064454592755 19.4921875 50.921875 C16.788625810561427 47.75218198479615 14.794739646214612 44.581266055322374 12.8125 40.9375 C12.47025390625 40.32583984375 12.1280078125 39.71417968750001 11.775390625 39.083984375 C10.411176836666098 36.63369747362357 9.087370692960981 34.19051226912791 7.91796875 31.640625 C6.53547533959601 29.169785713320522 4.611622246037295 28.848777229962124 2 28 C1.3399999999999999 27.67 0.6799999999999999 27.340000000000003 0 27 C0 18.090000000000003 0 9.180000000000007 0 0 Z " fill="#E0AB67" transform="translate(0,58)"/>
<path d="M0 0 C7.380601271098591 2.9522405084394308 10.581013429134504 7.422043764764965 14.25 14.125 C14.600625 14.745039062499998 14.95125 15.365078124999997 15.3125 16.00390625 C16.787966917911564 18.642722083957224 18.04173622043668 21.12520866131004 19 24 C19.652265625 24.063164062499993 20.30453125 24.126328125 20.9765625 24.19140625 C25.81160857147883 24.868883206918127 29.112510878979766 25.448996074358774 32.3125 29.3125 C32.76625 29.935117187499998 33.22 30.557734374999995 33.6875 31.19921875 C35.10616223336322 33.264764121190694 35.10616223336322 33.264764121190694 37.8125 35.625 C40 38 40 38 41 43 C27.47 43 13.939999999999998 43 0 43 C0 28.810000000000002 0 14.620000000000005 0 0 Z " fill="#F4C48A" transform="translate(0,85)"/>
<path d="M0 0 C10.196085814218991 1.456583687745571 15.585320746559685 5.507036227232838 22.62109375 12.64453125 C24.76048219890595 16.299067325609883 25.248879796694332 20.097464636679753 25.875 24.25 C26.009384765625 25.131557617187497 26.14376953125 26.013115234375 26.2822265625 26.92138671875 C27.39899226383632 35.55843398827728 26.974014031526853 45.0519719369463 23 53 C22.34 53 21.68 53 21 53 C19.572359560495492 51.33540679045325 18.207796828534978 49.616459270733856 16.875 47.875 C12.058920390132279 41.856839328088 7.619630705365575 36.904907676341395 0 35 C0 23.450000000000003 0 11.899999999999999 0 0 Z " fill="#C8924A" transform="translate(0,23)"/>
<path d="M0 0 C16.83 0 33.66 0 51 0 C49.98355375461293 5.082231226935335 48.92815706355037 6.884752235010273 46 11 C45.313574218750006 12.12728515625 45.313574218750006 12.12728515625 44.61328125 13.27734375 C41.706774373696504 17.984206591677847 39.56487943158254 21.376910165788427 34 23 C28.14847817020629 22.519921583623734 22.814809876987297 20.257482902085634 17.375 18.1875 C16.433984375 17.84396484375 15.492968750000003 17.5004296875 14.5234375 17.146484375 C8.065998464923474 14.702013490272877 4.386126689617171 12.821757903863528 1.25 6.4375 C0 3 0 3 0 0 Z " fill="#C3964D" transform="translate(44,0)"/>
<path d="M0 0 C4.382838831693704 3.005375198875683 8.24150103226927 6.895600293668082 10 12 C8.344919689671599 18.528372335184258 2.706391935841708 22.970206048118712 -2.5 26.875 C-10.82948902715438 30.623270062219476 -20.82624747792886 31.724584174023718 -29.5625 28.8125 C-32.399427951266674 26.70298947213503 -34.243295056627744 25.09180070033517 -36 22 C-35.75 18.1875 -35.75 18.1875 -35 15 C-34.270390625000005 14.8040625 -33.540781249999995 14.608125000000001 -32.7890625 14.40625 C-25.75378634369153 12.391207940415356 -19.12285082439996 9.90092727836199 -12.4375 6.9375 C-11.277585449218748 6.427031249999999 -11.277585449218748 6.427031249999999 -10.09423828125 5.90625 C-6.419119867713377 4.2466753331361105 -3.0975521787950697 2.6374383273029594 0 0 Z " fill="#EB9E53" transform="translate(107,85)"/>
<path d="M0 0 C2.894336515176846 1.0336916125631603 4.2585366757223255 2.2789474659109317 6.375 4.5625 C8.327603225491572 8.693006823155258 8.137915123444941 10.618442125310295 6.87109375 14.8984375 C3.179722819133474 23.804076786126416 -8.658209867655671 27.085537231836256 -16.95361328125 30.556884765625 C-17.608295898437504 30.826862792968754 -18.262978515625008 31.096840820312508 -18.9375 31.375 C-19.563823242187496 31.637888183593745 -20.190146484374992 31.900776367187504 -20.83544921875 32.171630859375 C-24.353454665161905 33.57892758256342 -27.20919645674593 34.3021133753637 -31 34 C-34.38508950372807 27.480568363190386 -37.233453426268355 20.802983378028657 -40 14 C-31.15189519992289 12.576008133737588 -22.54132513276295 11.718781079115644 -13.59375 11.44140625 C-8.91691246047948 10.866968595689329 -5.433274095802062 9.532120585167732 -2.1875 6.0625 C-1.0114196106160023 4.019834060543602 -0.41273584122942 2.3113207108847575 0 0 Z " fill="#C1712A" transform="translate(103,66)"/>
</svg>
