<?xml version="1.0" encoding="UTF-8"?>
<!-- Generator: visioncortex VTracer 0.6.0 -->
<svg version="1.1" xmlns="http://www.w3.org/2000/svg" width="128" height="128">
<path d="M0 0 C42.24 0 84.48 0 128 0 C128 42.24 128 84.48 128 128 C85.75999999999999 128 43.519999999999996 128 0 128 C0 85.75999999999999 0 43.519999999999996 0 0 Z " fill="#5C809A" transform="translate(0,0)"/>
<path d="M0 0 C0 20.46 0 40.92 0 62 C-3.9599999999999937 63.31999999999999 -7.920000000000002 64.64 -12 66 C-14.571716932523842 67.18694627654946 -17.120510112650507 68.42708660577928 -19.625 69.75 C-25.810924369747937 73 -25.810924369747937 73 -28 73 C-28.46406250000001 71.576875 -28.46406250000001 71.576875 -28.9375 70.125 C-30.586305181938243 66.9196994314848 -30.586305181938243 66.9196994314848 -32.86474609375 66.395751953125 C-33.597739257812506 66.28191162109376 -34.330732421875 66.1680712890625 -35.0859375 66.05078125 C-40.04307495168061 65.09578651113613 -44.18408688107549 63.295766742323806 -48.6875 61.0625 C-49.40744140625 60.715097656249995 -50.1273828125 60.367695312500004 -50.869140625 60.009765625 C-52.91851669368339 59.01777046322162 -54.95990309183628 58.0109098496352 -57 57 C-58.11375000000001 56.45601562499999 -59.22749999999999 55.91203125 -60.375 55.3515625 C-63 54 -63 54 -65.3125 52.3125 C-69.26609184872078 50.381676073880556 -72.6771697593424 50.34502572111248 -77 51 C-78.64558398855992 51.61410323321057 -80.27131770094597 52.28356959295043 -81.875 53 C-87.22045520104439 55.35534119796017 -92.2175335161439 55.79439635401218 -98 55 C-99.34691409988712 54.36121628875847 -100.68284872905213 53.69809365536625 -102 53 C-102.04960109547797 48.67669220876313 -102.08581440009345 44.353537151199035 -102.10986328125 40.030029296875 C-102.11989352297005 38.56059888488941 -102.1335210120219 37.0911882936561 -102.15087890625 35.621826171875 C-102.17525898492977 33.504344632423184 -102.18651286246978 31.38712800889411 -102.1953125 29.26953125 C-102.21102294921874 27.360711669921876 -102.21102294921874 27.360711669921876 -102.22705078125 25.413330078125 C-102.00942228119183 22.141648293917086 -101.41502625137768 19.93042633719564 -100 17 C-98.91332031249999 17.216562500000002 -98.91332031249999 17.216562500000002 -97.8046875 17.4375 C-87.0114711530901 19.688191736911122 -87.0114711530901 19.688191736911122 -77.19140625 15.6953125 C-74.68945455288487 13.759756285119487 -72.46861101095854 11.6282341880204 -70.1875 9.4375 C-61.92355979083709 1.8412256918822685 -51.69052506834562 0.297848491701874 -41 -2 C-39.81664062499999 -2.2926171874999994 -38.63328125000001 -2.585234374999999 -37.4140625 -2.88671875 C-23.1802181970684 -6.298518740182086 -15.082328065530788 -3.5487830742425395 0 0 Z " fill="#899DA8" transform="translate(128,20)"/>
<path d="M0 0 C0 15.180000000000007 0 30.36 0 46 C-24.090000000000003 46 -48.18000000000001 46 -73 46 C-73 39.88578317529566 -72.96660966688847 36.19096166279512 -71.578125 30.6171875 C-70.3688538233879 25.14278420047222 -69.74260006016333 19.55370044994487 -69 14 C-61.16466554929464 11.16618307330397 -54.918593484935315 11.337425434254214 -46.9375 13.625 C-36.40607255205677 16.38799807569613 -29.22703114380397 11.793325223236579 -20.02734375 7.04296875 C-6.310370305980527 0 -6.310370305980527 0 0 0 Z " fill="#3E5A89" transform="translate(128,82)"/>
<path d="M0 0 C42.24 0 84.48 0 128 0 C128 6.6000000000000005 128 13.200000000000001 128 20 C122.48004830379813 19.38667203375535 117.77282925166011 18.821975303923764 112.5 17.5625 C90.07299024374353 12.664095299490024 68.61344573624226 11.323055371075043 47.40234375 21.2109375 C44.28761610724392 22.233986254206062 41.76252540411104 21.97448569294342 38.5 21.75 C32.96381151235037 21.63514131768362 29.604772568001056 22.36314383362379 24.75 25 C16.495883318033506 29.35719170572209 9.16250461657064 28.419656699995603 0 28 C0 18.759999999999998 0 9.52 0 0 Z " fill="#1F2651" transform="translate(0,0)"/>
<path d="M0 0 C0.7334765625000017 0.35062500000000085 1.4669531250000034 0.7012500000000017 2.22265625 1.0625 C3.898893495904531 1.913211390242033 5.573150248240225 2.7678295303938256 7.24609375 3.625 C8.13425781250001 4.078749999999999 9.022421874999992 4.532499999999999 9.9375 5 C11.155664062499994 5.641953125000001 11.155664062499994 5.641953125000001 12.3984375 6.296875 C14.62597452232869 7.451535372555327 14.62597452232869 7.451535372555327 17.5625 7.25 C17.5625 17.810000000000002 17.5625 28.370000000000005 17.5625 39.25 C14.262500000000003 40.56999999999999 10.962500000000006 41.89 7.5625 43.25 C4.823369263150283 45.0230032288911 2.346258826016552 46.93709604133872 -0.2109375 48.95703125 C-2.4375 50.25 -2.4375 50.25 -4.4375 50.01171875 C-5.097499999999997 49.760351562500006 -5.757499999999993 49.508984375 -6.4375 49.25 C-7.172265624999994 49.105625 -7.907031250000003 48.96125000000001 -8.6640625 48.8125 C-16.49782852417698 46.97526497152853 -20.806723718106213 42.77605512071406 -26.4375 37.25 C-27.582425594478707 36.205635422135856 -28.732428778069163 35.16681764945027 -29.88671875 34.1328125 C-30.47541748046875 33.60292724609375 -31.0641162109375 33.0730419921875 -31.670654296875 32.527099609375 C-32.82743731025984 31.486362535981513 -33.98637683870908 30.448016258184786 -35.147705078125 29.412353515625 C-38.65840913866181 26.206555948232484 -41.08097507736582 23.838278334448177 -41.73828125 19.06640625 C-41.763010634696144 14.310121260109106 -41.66286313318625 11.012923655383965 -38.4375 7.25 C-33.652813348494334 3.6080351219664166 -28.833005353028213 1.737890621231827 -23.125 -0.0625 C-21.919404296875 -0.47725585937499915 -21.919404296875 -0.47725585937499915 -20.689453125 -0.900390625 C-13.569231899922656 -3.174507943065734 -6.846835523142161 -3.36142428097925 0 0 Z " fill="#BFDCD2" transform="translate(110.4375,26.75)"/>
<path d="M0 0 C0.9869384765625 -0.0006445312499998579 1.973876953125 -0.0012890624999997158 2.99072265625 -0.001953125 C9.636775515117435 0.04631000848575084 15.987179651660298 0.4591844999663959 22.4375 2.1875 C22.4375 2.5175 22.4375 2.8475 22.4375 3.1875 C21.864189453124993 3.3232543945312507 21.29087890625 3.4590087890625014 20.7001953125 3.598876953125 C15.145357368733485 4.915170781957759 9.592414814770365 6.239189841035397 4.04052734375 7.56787109375 C1.8894272862720527 8.079922486160338 -0.2639799591572398 8.582270932773056 -2.41796875 9.08203125 C-3.435039062499996 9.3230859375 -4.452109375000006 9.564140625 -5.5 9.8125 C-6.781972656250005 10.110273437499998 -6.781972656250005 10.110273437499998 -8.08984375 10.4140625 C-13.53984468054044 12.118802127562411 -17.407361950525733 14.69155694758794 -21.5 18.625 C-30.838458241817108 27.14356384260995 -30.838458241817108 27.14356384260995 -36.2265625 27.23046875 C-39.03889730754843 27.00684644050491 -41.77969240290178 26.647122876397603 -44.5625 26.1875 C-45.779375 26.001875 -46.99625 25.816249999999997 -48.25 25.625 C-49.3946875 25.408437499999998 -49.3946875 25.408437499999998 -50.5625 25.1875 C-51.752294161271756 28.914389683314326 -51.66050364121313 32.43336484733013 -51.625 36.32421875 C-51.62121337890625 37.00426467895508 -51.617426757812495 37.684310607910156 -51.613525390625 38.38496398925781 C-51.601345125464924 40.54837483594872 -51.58270248935716 42.711650098004526 -51.5625 44.875 C-51.536004271500644 47.733068999197805 -51.515982131163014 50.59107387606991 -51.5 53.44921875 C-51.488398437499995 54.71725341796875 -51.476796875000005 55.9852880859375 -51.46484375 57.291748046875 C-51.5625 60.1875 -51.5625 60.1875 -52.5625 61.1875 C-61.21410811086793 60.965225483317624 -70.06657628459956 59.320289828720064 -78.5625 58.1875 C-78.5625 43.9975 -78.5625 29.807499999999997 -78.5625 15.1875 C-72.6225 14.857500000000002 -66.6825 14.5275 -60.5625 14.1875 C-55.57086397784614 11.926344198132288 -55.57086397784614 11.926344198132288 -50.6796875 9.4609375 C-47.10752389216827 8.001632567477262 -44.766803740002445 8.011221244849732 -40.9375 8.25 C-32.043347272277984 8.730765012309298 -24.59604498260461 5.326908422928295 -16.53857421875 1.943603515625 C-11.05198772939707 -0.15572417865793042 -5.812174258009179 -0.003856144805446604 0 0 Z " fill="#938F97" transform="translate(78.5625,12.8125)"/>
<path d="M0 0 C1.2499604054708655 0.8323912150718087 2.485904360367698 1.6860276373516427 3.7109375 2.5546875 C7.718980085909962 5.062058914898429 12.060072058944385 6.779677584405306 16.404541015625 8.621337890625 C17.066394042968753 8.902272949218755 17.728247070312506 9.183208007812496 18.41015625 9.47265625 C19.055493164062497 9.745856933593757 19.700830078124994 10.0190576171875 20.36572265625 10.300537109375 C22.085922446670452 11.063884283338979 23.76265742689776 11.923176808295324 25.43359375 12.7890625 C27.99051876781465 14.013657206565725 29.798734592446635 14.567980891590224 32.58984375 14.80859375 C34.38421875 14.963281249999994 34.38421875 14.963281249999994 36.21484375 15.12109375 C37.47149352800301 18.027096361631976 38.21484375 19.917139593767104 38.21484375 23.12109375 C28.543929523764533 27.82531716276172 22.470537968827813 26.901548418975437 12.3515625 24.53515625 C8.68137681911719 23.823931968147022 5.01745576599626 23.63962686538561 1.38671875 24.609375 C-3.267583654882941 25.705982221294363 -8.056437711380873 25.71056414317033 -12.78515625 25.12109375 C-15.84765625 22.80859375 -15.84765625 22.80859375 -17.78515625 20.12109375 C-18.342031249999998 19.626093749999995 -18.898906250000003 19.131093750000005 -19.47265625 18.62109375 C-21.99793262035795 15.735063612448045 -22.70076407823685 12.810296486065724 -23.16015625 9.05859375 C-22.78515625 6.12109375 -22.78515625 6.12109375 -21.28515625 3.93359375 C-15.45047257322014 -0.29655191566538974 -6.927326777180937 -3.4106094636011193 0 0 Z " fill="#5A7380" transform="translate(61.78515625,70.87890625)"/>
<path d="M0 0 C16.5 3 16.5 3 33 6 C33.10062250375282 12.474126426644204 32.96469061447216 18.71088570440959 32.0625 25.125 C31.8884765625 26.406328125 31.714453125 27.687656250000003 31.53515625 29.0078125 C31 32 31 32 30 33 C27.781447356886254 33.08783541754346 25.56011503742222 33.10694608802268 23.33984375 33.09765625 C22.12417724609375 33.095158691406255 20.9085107421875 33.09266113281251 19.656005859375 33.090087890625 C18.09889892578125 33.08098388671874 16.5417919921875 33.07187988281251 14.9375 33.0625 C10.008125 33.041875000000005 5.078749999999999 33.02125000000001 0 33 C0 22.11 0 11.219999999999999 0 0 Z " fill="#6690B1" transform="translate(0,95)"/>
<path d="M0 0 C17.819999999999993 0 35.64 0 54 0 C54 6.6000000000000005 54 13.200000000000001 54 20 C48.480048303798085 19.386672033755342 43.77282925166011 18.821975303923768 38.5 17.5625 C22.462022695918478 14.059558490329088 1.422975252022809 10.075642980641712 -14.22265625 16.44140625 C-16 17 -16 17 -19 16 C-18.2639453125 15.54109375 -17.527890624999998 15.0821875 -16.76953125 14.609375 C-15.793710937500002 13.99578125 -14.817890625000004 13.3821875 -13.8125 12.75 C-12.8495703125 12.14671875 -11.886640624999998 11.5434375 -10.89453125 10.921875 C-7.957949086708254 9.040281046476201 -7.957949086708254 9.040281046476201 -5.26171875 6.765625 C-3 5 -3 5 -1 5 C-0.6700000000000017 3.3499999999999996 -0.3400000000000034 1.6999999999999997 0 0 Z " fill="#384B73" transform="translate(74,0)"/>
<path d="M0 0 C0.9869384765625 -0.0006445312499998579 1.973876953125 -0.0012890624999997158 2.99072265625 -0.001953125 C9.63677551511742 0.04631000848575084 15.987179651660298 0.45918449996639765 22.4375 2.1875 C22.4375 2.5175 22.4375 2.8475 22.4375 3.1875 C21.864189453124993 3.3232543945312507 21.29087890625 3.4590087890625014 20.7001953125 3.598876953125 C15.145357368733471 4.915170781957762 9.59241481477035 6.239189841035401 4.04052734375 7.56787109375 C1.8894272862720527 8.079922486160338 -0.2639799591572398 8.582270932773056 -2.41796875 9.08203125 C-3.4350390625000102 9.3230859375 -4.452109374999992 9.564140625 -5.5 9.8125 C-6.781972656250005 10.110273437499998 -6.781972656250005 10.110273437499998 -8.08984375 10.4140625 C-13.539844680540412 12.118802127562404 -17.407361950525747 14.691556947587955 -21.5 18.625 C-30.753952948778945 27.066477913097458 -30.753952948778945 27.066477913097458 -36.19140625 27.30078125 C-46.83970733539186 26.64884444885356 -53.02154234168371 22.386464113721445 -60.5625 15.1875 C-54.067508656497445 10.857505770998298 -49.15248364102768 7.8237070850896515 -41.125 8.3125 C-32.17125796500583 8.716354151193357 -24.685348906959504 5.364406840777569 -16.53857421875 1.943603515625 C-11.051987729397055 -0.15572417865793398 -5.812174258009193 -0.003856144805446604 0 0 Z " fill="#636C8C" transform="translate(78.5625,12.8125)"/>
<path d="M0 0 C1.676237245904531 0.8507113902420329 3.350493998240225 1.7053295303938256 5.0234375 2.5625 C5.911601562499996 3.0162499999999994 6.799765624999992 3.469999999999999 7.71484375 3.9375 C8.526953125000006 4.365468749999998 9.339062499999997 4.793437499999996 10.17578125 5.234375 C12.403318272328676 6.389035372555327 12.403318272328676 6.389035372555327 15.33984375 6.1875 C15.33984375 16.747500000000002 15.33984375 27.307500000000005 15.33984375 38.1875 C12.039843750000003 39.50749999999999 8.739843750000006 40.8275 5.33984375 42.1875 C2.600713013150255 43.96050322889111 0.12360257601656599 45.874596041338705 -2.43359375 47.89453125 C-4.66015625 49.1875 -4.66015625 49.1875 -6.82421875 48.94921875 C-8.123849368594506 48.41001030185973 -9.401653808100363 47.81675122094981 -10.66015625 47.1875 C-9.663622841478812 44.50750238679254 -8.594962846482673 42.0756916240195 -7.15234375 39.6015625 C-1.4596796756345327 29.7837795311668 -1.0747154921166668 20.218728658700698 -3.97265625 9.3125 C-4.613703673702275 6.991099903768017 -4.613703673702275 6.991099903768017 -5.66015625 5.1875 C-6.650156249999995 4.857500000000002 -7.640156250000004 4.527500000000003 -8.66015625 4.1875 C-8.66015625 3.5275 -8.66015625 2.8674999999999997 -8.66015625 2.1875 C-12.290156249999995 1.197499999999998 -15.920156250000005 0.20749999999999957 -19.66015625 -0.8125 C-16.371818740931943 -7.389175018136111 -4.87944090404423 -2.3325271105448664 0 0 Z " fill="#B8CBDC" transform="translate(112.66015625,27.8125)"/>
<path d="M0 0 C0 11.549999999999997 0 23.099999999999994 0 35 C-11.549999999999997 35 -23.099999999999994 35 -35 35 C-34.06724763456518 28.47073344195624 -33.49421532057558 25.494215320575577 -29 21 C-28.340000000000003 20.67 -27.680000000000007 20.340000000000003 -27 20 C-27 19.340000000000003 -27 18.680000000000007 -27 18 C-25.38025441097939 16.287697520178213 -23.70410540149706 14.628367383652744 -22 13 C-21.113124999999997 12.071875000000006 -20.226249999999993 11.143749999999997 -19.3125 10.1875 C-17 8 -17 8 -15 8 C-15 7.340000000000003 -15 6.680000000000007 -15 6 C-13.680000000000007 5.670000000000002 -12.36 5.340000000000003 -11 5 C-11 4.340000000000003 -11 3.680000000000007 -11 3 C-9.735817538888881 2.300345573779353 -8.46334598383396 1.6156523697856215 -7.1875 0.9375 C-6.479804687500007 0.5546484375000063 -5.772109374999999 0.1717968749999983 -5.04296875 -0.22265625 C-3 -1 -3 -1 0 0 Z " fill="#14458E" transform="translate(128,93)"/>
<path d="M0 0 C1.7557031249999966 0.013535156250000568 1.7557031249999966 0.013535156250000568 3.546875 0.02734375 C4.438906250000002 0.03894531250000455 5.3309375000000045 0.050546874999994884 6.25 0.0625 C5.823058349644548 7.960920531575866 5.085885520809413 15.374729381610592 3.25 23.0625 C2.9200000000000017 26.0325 2.5900000000000034 29.002499999999998 2.25 32.0625 C-6 32.0625 -14.25 32.0625 -22.75 32.0625 C-22.440625 28.906875 -22.13125 25.75125 -21.8125 22.5 C-21.71718994140625 21.519587402343745 -21.6218798828125 20.539174804687505 -21.523681640625 19.529052734375 C-21.357744735052492 17.85388825160973 -21.183633123631655 16.179521689690276 -21.003173828125 14.505859375 C-20.84545268091939 12.983705815468895 -20.71091656106531 11.458747336244329 -20.612060546875 9.931640625 C-20.453125 8.05859375 -20.453125 8.05859375 -19.75 5.0625 C-17.82421875 3.5390625 -17.82421875 3.5390625 -15.4375 2.6875 C-14.267675781249999 2.2427734375000057 -14.267675781249999 2.2427734375000057 -13.07421875 1.7890625 C-12.307226562499999 1.549296874999996 -11.540234374999997 1.3095312500000063 -10.75 1.0625 C-9.823808593750002 0.7666601562499977 -9.823808593750002 0.7666601562499977 -8.87890625 0.46484375 C-5.901253294573479 -0.0979053406585848 -3.0268473558771944 -0.030268473558777487 0 0 Z " fill="#5771A2" transform="translate(52.75,95.9375)"/>
<path d="M0 0 C7.260000000000001 0 14.520000000000001 0 22 0 C24.312499999999968 6.749999999999901 24.312499999999968 6.749999999999901 25.020751953125 8.8544921875 C26.259227059063885 12.391826111838016 27.67623142909208 15.083363787834047 30 18 C30 18.66 30 19.32 30 20 C30.66 20.33 31.32 20.66 32 21 C20.826836266580106 28.041608012058838 13.132002968430616 28.707107852146265 0 28 C0 18.759999999999998 0 9.52 0 0 Z " fill="#38404C" transform="translate(0,0)"/>
<path d="M0 0 C0 4.620000000000001 0 9.240000000000002 0 14 C-3 15 -3 15 -5.1640625 14.14453125 C-5.976171875000006 13.704960937500005 -6.788281249999997 13.265390624999995 -7.625 12.8125 C-8.522187500000001 12.345859375000003 -9.419375000000002 11.87921875 -10.34375 11.3984375 C-11.220312500000006 10.936953125000002 -12.096874999999997 10.475468749999997 -13 10 C-19.232064545634017 6.767697866256981 -25.52037385377085 4.96880242916669 -32.32861328125 3.394287109375 C-36.03752465340624 2.532497324123071 -39.50967550303483 1.528708016112649 -43 0 C-32.65298249902838 -10.34701750097162 -12.114768259276048 -3.0216649370584143 0 0 Z " fill="#7690AE" transform="translate(128,20)"/>
<path d="M0 0 C0 5.280000000000001 0 10.560000000000002 0 16 C-1.6912499999999966 16.515625 -3.382499999999993 17.03125 -5.125 17.5625 C-11.499757541031158 19.664652189125746 -17.2407481468521 22.497346708500658 -23.1640625 25.609375 C-26 27 -26 27 -28 27 C-28.659999999999997 24.689999999999998 -29.319999999999993 22.379999999999995 -30 20 C-27.66666666666667 17.66666666666667 -25.33333333333333 15.333333333333329 -23 13 C-22.376093749999995 12.337421875000004 -21.752187500000005 11.674843750000008 -21.109375 10.9921875 C-18.734791408295465 8.74952521894572 -16.27001404624825 7.102453814555915 -13.5 5.375 C-12.561562500000008 4.784609375000002 -11.623125000000002 4.1942187500000045 -10.65625 3.5859375 C-4.650246305418719 0 -4.650246305418719 0 0 0 Z " fill="#7690AE" transform="translate(128,66)"/>
<path d="M0 0 C-2.5502060265970528 1.7001373510647042 -4.248745994377373 2.5282459776332615 -7.08984375 3.4375 C-8.266435546875002 3.820351562500001 -8.266435546875002 3.820351562500001 -9.466796875 4.2109375 C-10.282128906249994 4.471328124999999 -11.097460937500003 4.731718749999999 -11.9375 5 C-13.55169967669589 5.517979880369452 -15.165015250014221 6.03872470386024 -16.77734375 6.5625 C-17.848433837890624 6.904746093749999 -17.848433837890624 6.904746093749999 -18.941162109375 7.25390625 C-21.05740360796493 8.020802256129585 -23.007944720204506 8.955648701578177 -25 10 C-24 7 -24 7 -22.328125 5.90234375 C-21.642343749999995 5.583945312499999 -20.956562500000004 5.265546874999998 -20.25 4.9375 C-19.525546875000003 4.599765625 -18.801093750000007 4.26203125 -18.0546875 3.9140625 C-17.376640624999993 3.612421874999999 -16.69859375 3.310781249999998 -16 3 C-15.133749999999992 2.608125000000001 -14.267499999999998 2.2162499999999987 -13.375 1.8125 C-8.947839372676881 0.29794504854735493 -4.65900136812769 -0.13702945200375538 0 0 Z " fill="#8AA09C" transform="translate(97,24)"/>
</svg>
