<?xml version="1.0" encoding="UTF-8"?>
<!-- Generator: visioncortex VTracer 0.6.0 -->
<svg version="1.1" xmlns="http://www.w3.org/2000/svg" width="128" height="128">
<path d="M0 0 C42.24 0 84.48 0 128 0 C128 42.24 128 84.48 128 128 C85.75999999999999 128 43.519999999999996 128 0 128 C0 85.75999999999999 0 43.519999999999996 0 0 Z " fill="#8C99B4" transform="translate(0,0)"/>
<path d="M0 0 C14.464197151349694 1.0273635359837172 24.96792901958844 4.187326638694216 36.89453125 12.66796875 C41.50994410669779 15.587923822604722 45.93137438033034 16.420927489015185 51.3125 17.125 C52.5667578125 17.292578125 53.821015625 17.460156249999997 55.11328125 17.6328125 C56.065898437499996 17.753984375 57.018515625000006 17.875156250000003 58 18 C58.505599082759844 19.435540252835985 59.00427490016794 20.87352019632084 59.5 22.3125 C59.778437499999995 23.1130078125 60.056875000000005 23.913515625000002 60.34375 24.73828125 C61 26.999999999999986 61 26.999999999999986 61 30 C67.1332608899261 28.089640050678753 72.83137958916555 25.782282506086716 78.6171875 22.98828125 C81 22 81 22 84 22 C84 47.41 84 72.82 84 99 C54.959999999999994 99 25.919999999999987 99 -4 99 C-2.6000374440361185 89.20026210825284 0.6664404549695604 86.04452532571392 8 80 C7.502421874999996 79.388984375 7.004843749999999 78.77796875 6.4921875 78.1484375 C5 75.99999999999999 5 75.99999999999999 5.125 73.625 C6 70.99999999999999 6 70.99999999999999 7.625 68.125 C9.37087557736018 64.15710096054505 9.114461684015595 62.16065695365822 8 58 C6.287036077836859 54.916664940106344 4.374534088792423 52.44221170647975 2.09765625 49.75390625 C-2.636951081979582 44.10235448128694 -5.7127653302354275 39.006925258167655 -8 32 C-8.391874999999999 30.865625 -8.783749999999998 29.731250000000003 -9.1875 28.5625 C-9.455624999999998 27.716875 -9.723750000000003 26.871250000000003 -10 26 C-10.329999999999998 25.010000000000005 -10.659999999999997 24.019999999999996 -11 23 C-11.990000000000002 22.67 -12.98 22.340000000000003 -14 22 C-14.125 14.25 -14.125 14.25 -13 12 C-10.71484375 11.5859375 -10.71484375 11.5859375 -7.9375 11.375 C-6.558847656250002 11.262851562500003 -6.558847656250002 11.262851562500003 -5.15234375 11.1484375 C-4.086933593750004 11.074960937500002 -4.086933593750004 11.074960937500002 -3 11 C-2.876249999999999 9.741875 -2.7524999999999977 8.48375 -2.625 7.1875 C-2.3013194132982733 3.8967473685324094 -1.9339500140778654 2.900925021116805 0 0 Z " fill="#587D98" transform="translate(44,29)"/>
<path d="M0 0 C6.440787904802789 0.4860972003624724 6.440787904802789 0.4860972003624724 8.83203125 2.68359375 C10.218235837501581 5.432822246282406 10.943240756345482 8.074571426694291 11.6875 11.0625 C13.771373341156554 18.215254441267092 17.318355875638865 23.294246223434868 22 29 C28.13204129686651 36.53522912515848 28.13204129686651 36.53522912515848 27.8125 42.5 C27.000000000000007 46 27.000000000000007 46 25.375 48.6875 C23.77887922644966 50.858936162386385 23.77887922644966 50.858936162386385 24.1875 53.125 C25.05001320304521 55.268003612784625 25.05001320304521 55.268003612784625 27 58 C26.301328124999998 58.5452734375 25.602656250000003 59.090546875 24.8828125 59.65234375 C18.705859956905755 64.77064012069424 15.836900942881798 68.02273143806288 15 76 C14.000000000000007 77 14.000000000000007 77 10.214599609375 77.113525390625 C8.52717271720563 77.11327424806029 6.839740703626411 77.10771111853614 5.15234375 77.09765625 C3.9743621826171847 77.09614562988281 3.9743621826171847 77.09614562988281 2.7725830078125 77.0946044921875 C-0.17245942857568863 77.089356379191 -3.1174811192578744 77.07539522740046 -6.0625 77.0625 C-12.641875 77.041875 -19.22125 77.02125000000001 -26 77 C-26 63.14 -26 49.28 -26 35 C-22.04 33.02000000000001 -18.08 31.039999999999992 -14 29 C-5.706626747064039 23.469066921892832 -5.706626747064039 23.469066921892832 -1 15 C-0.39979034491992493 9.996528133944551 -0.12961000427505454 5.035348666085895 0 0 Z " fill="#787D88" transform="translate(26,51)"/>
<path d="M0 0 C8.734281861532168 2.4997633807473747 14.126178491522964 3.374262248116885 22.4345703125 -0.30322265625 C26.8895703125 -0.798222656250001 26.8895703125 -0.798222656250001 31.4345703125 -1.30322265625 C31.4345703125 9.916777343749999 31.4345703125 21.136777343749998 31.4345703125 32.69677734375 C27.474570312500006 34.34677734375 23.5145703125 35.99677734375 19.4345703125 37.69677734375 C18.300195312499994 38.29490234375 17.165820312500003 38.89302734375 15.9970703125 39.50927734375 C13.4345703125 40.69677734375 13.4345703125 40.69677734375 8.4345703125 40.69677734375 C7.444570312499991 36.73677734375 6.45457031250001 32.77677734375 5.4345703125 28.69677734375 C3.7330078125000057 28.75865234375 3.7330078125000057 28.75865234375 1.9970703125 28.82177734375 C-8.316542695944676 28.74927391311067 -15.163876363432593 24.912139815635896 -23.6357421875 19.33349609375 C-32.28293186703014 14.02352980765069 -42.651088301424764 12.238665584197161 -52.5654296875 10.69677734375 C-52.05565738511264 6.236269697860578 -50.69307818252692 3.9046219540340203 -47.5654296875 0.69677734375 C-32.692076928925 -10.175735145064582 -16.239802384525163 -4.772040063559665 0 0 Z " fill="#4B82D9" transform="translate(96.5654296875,18.30322265625)"/>
<path d="M0 0 C28.710000000000008 0 57.42 0 87 0 C87 5.61 87 11.22 87 17 C84.90200729149664 19.09799270850336 80.89148051204789 18.934783682917313 78.0546875 19.40234375 C74.93758012069948 19.91321926334193 74.93758012069948 19.91321926334193 71.9140625 21.23828125 C66.06007671397843 22.37752998081258 61.188574104879535 20.766953094634545 55.5 19.25 C54.397851562499994 18.9715625 53.295703125 18.693125 52.16015625 18.40625 C47.81061901385365 17.299284941100808 43.499077587645814 16.156058316879957 39.21484375 14.81640625 C35.466758832527944 13.864583956255576 31.90493545213039 13.656204562133805 28.0625 13.6875 C27.008087158203125 13.693784179687501 27.008087158203125 13.693784179687501 25.932373046875 13.7001953125 C18.35296649167833 13.865519414179658 12.497205187035263 15.50279481296474 7 21 C5.283224469377934 23.766056386100036 5.283224469377934 23.766056386100036 4 27 C3.7202734374999977 27.64453125 3.4405468749999955 28.2890625 3.15234375 28.953125 C1.4161397782539353 33.18461747067413 0.8617334486471719 36.36477846893374 1 41 C-12.664520232757205 41.937352759869015 -12.664520232757205 41.937352759869015 -18.4609375 37.546875 C-21.284315446534873 34.709165185716216 -22.184133043705717 33.01134586844688 -23 29 C-21.099737047942398 22.42495223575714 -16.536961921740605 18.255594540676654 -11.5 13.9375 C-10.169270412024883 12.78893824882536 -8.846168664998956 11.631473184315437 -7.53125 10.46484375 C-6.949238281250004 9.96589599609375 -6.367226562500001 9.4669482421875 -5.767578125 8.952880859375 C-3.316101796908576 6.384927376267678 -3.316101796908576 6.384927376267678 0 0 Z " fill="#7494CE" transform="translate(41,0)"/>
<path d="M0 0 C14.464197151349694 1.0273635359837172 24.96792901958844 4.187326638694216 36.89453125 12.66796875 C41.50994410669779 15.587923822604722 45.93137438033034 16.420927489015185 51.3125 17.125 C52.5667578125 17.292578125 53.821015625 17.460156249999997 55.11328125 17.6328125 C56.06589843750001 17.753984375 57.01851562499999 17.875156250000003 58 18 C58.505599082759844 19.435540252835985 59.00427490016796 20.87352019632084 59.5 22.3125 C59.778437499999995 23.1130078125 60.05687499999999 23.913515625000002 60.34375 24.73828125 C61 27.000000000000014 61 27.000000000000014 61 30 C61.66 30 62.31999999999999 30 63 30 C64.51578428275634 33.031568565512686 64.24971927115485 35.87966613568085 64.3125 39.25 C64.36857421875 41.206796874999995 64.36857421875 41.206796874999995 64.42578125 43.203125 C63.93423960485377 47.58641379891867 62.813510231427614 49.643706378792544 60 53 C55.63926804661318 56.02775712047381 49.928114768601546 56.63308597064531 44.73046875 56.49609375 C38.236219870120834 55.31616584192467 32.42952754283276 51.61968502855518 27 48 C27 47.34 27 46.68000000000001 27 46 C26.340000000000003 46 25.680000000000007 46 25 46 C20.326106228792938 39.360009856521955 17.03064057197703 32.12433214548386 14.3359375 24.49609375 C12.711005520141633 21.460036629738312 10.970399852334708 20.623358058834086 8 19 C8 18.340000000000003 8 17.68 8 17 C7.463749999999997 16.896875 6.927500000000002 16.793750000000003 6.375 16.6875 C3.2011025212130377 15.76874020350904 0.7674142642358959 14.844942842823926 -2 13 C-3.3673793345009386 8.736993839497075 -3.293945927552862 6.702914174582929 -1.5625 2.5625 C-1.046875 1.7168750000000017 -0.53125 0.8712499999999999 0 0 Z " fill="#1D4B6C" transform="translate(44,29)"/>
<path d="M0 0 C11.40517844646606 -0.5479356193142024 11.40517844646606 -0.5479356193142024 17 3 C17.783749999999998 3.391874999999999 18.567499999999995 3.7837499999999977 19.375 4.1875 C19.911249999999995 4.455624999999998 20.447500000000005 4.723750000000003 21 5 C21 5.659999999999997 21 6.32 21 7 C21.783749999999998 7.28875 22.567499999999995 7.577500000000001 23.375 7.875 C26.754773415681825 9.3234743210065 27.735061685445302 10.34369666640135 29.11328125 13.7578125 C29.509023437500005 14.868984374999997 29.904765624999996 15.98015625 30.3125 17.125 C32.354948895543814 22.614081406773998 34.784626527963354 27.13100588520166 38 32 C38 32.66 38 33.31999999999999 38 34 C38.66 34 39.31999999999999 34 40 34 C40 34.66 40 35.31999999999999 40 36 C42.31727176534339 37.167052123950185 44.643409691871 38.31032079503083 46.98046875 39.4375 C48.0387890625 39.953125 49.097109375 40.46875 50.1875 41 C51.2535546875 41.515625 52.319609375 42.03125 53.41796875 42.5625 C56 44 56 44 57 46 C55.3323114739099 50.651973256988185 53.539202541781975 54.460797458218025 50 58 C45.10115456339159 60.3060567559626 40.10575827196655 62.031740551743894 34.9375 63.625 C33.91559570312501 63.94984375 33.91559570312501 63.94984375 32.873046875 64.28125 C28.9429004466336 65.50446560306504 25.09844629371206 66.56088075424513 21 67 C19.0625 65.875 19.0625 65.875 18 64 C18.171916357550657 60.819547385312774 19.053612102825937 58.9051478180772 20.625 56.125 C22.370875577360174 52.15710096054505 22.114461684015595 50.16065695365822 21 46 C19.28703607783686 42.91666494010636 17.374534088792423 40.44221170647975 15.09765625 37.75390625 C10.363048918020425 32.10235448128695 7.2872346697645725 27.00692525816764 5 20 C4.608125000000001 18.865625 4.216250000000002 17.731250000000003 3.8125 16.5625 C3.5443750000000023 15.716875000000002 3.2762499999999974 14.871250000000003 3 14 C2.6700000000000017 13.009999999999998 2.3400000000000034 12.019999999999996 2 11 C1.009999999999998 10.670000000000002 0.019999999999999574 10.340000000000003 -1 10 C-1.125 2.25 -1.125 2.25 0 0 Z " fill="#4C7A7E" transform="translate(31,41)"/>
<path d="M0 0 C0 9.239999999999995 0 18.480000000000004 0 28 C-6.105596554425446 28.022905531050355 -12.211045164400588 28.04283366720378 -18.316650390625 28.054931640625 C-20.395431559317927 28.059972884169497 -22.47420916322025 28.066805742939493 -24.552978515625 28.075439453125 C-27.534025857492168 28.087514221962692 -30.515026492268035 28.09323024016487 -33.49609375 28.09765625 C-34.89921058654785 28.105398178100586 -34.89921058654785 28.105398178100586 -36.33067321777344 28.113296508789063 C-37.621898422241216 28.113409805297863 -37.621898422241216 28.113409805297863 -38.939208984375 28.113525390625 C-39.70087875366211 28.115746002197255 -40.46254852294922 28.11796661376954 -41.24729919433594 28.120254516601563 C-43 28 -43 28 -44 27 C-45.529082837478185 19.69438199871537 -46.827806860620285 10.103943705921026 -43.7578125 3.2109375 C-41.82564305241479 0.7806977059261726 -40.48141948866525 -0.0996331069539309 -37.625 -1.25 C-36.874765624999995 -1.5645312500000017 -36.124531250000004 -1.8790625000000034 -35.3515625 -2.203125 C-23.225157725690153 -6.312405023188049 -11.883603151009595 -3.2782353520026533 0 0 Z " fill="#5A81AA" transform="translate(128,100)"/>
<path d="M0 0 C6.440787904802789 0.4860972003624724 6.440787904802789 0.4860972003624724 8.83203125 2.68359375 C10.218235837501581 5.432822246282406 10.943240756345482 8.074571426694291 11.6875 11.0625 C13.771373341156554 18.215254441267092 17.318355875638865 23.294246223434868 22 29 C28.0914421900969 36.48533977233528 28.0914421900969 36.48533977233528 27.875 42.4375 C26.87314095023553 46.51649755975535 25.506821704219867 48.68452613312857 23 52 C18.516659888402096 51.448715215907214 15.172179778951225 50.29452612139991 11.1875 48.1875 C10.145937500000002 47.651250000000005 9.104374999999997 47.11500000000001 8.03125 46.5625 C6.530781250000004 45.7890625 6.530781250000004 45.7890625 5 45 C-4.304879030885033 40.40499800943948 -10.883119413160651 39.62529812591873 -21 42 C-22.665587411037063 42.33868490530837 -24.331977555643913 42.673518738649165 -26 43 C-26 40.36 -26 37.72 -26 35 C-25.2381640625 34.6480859375 -24.476328125 34.296171875 -23.69140625 33.93359375 C-10.778269146802582 27.888187273140346 -10.778269146802582 27.888187273140346 -1.640625 17.30859375 C-0.09439825845278449 11.736520553326798 -0.14809778981361177 5.753599134258749 0 0 Z " fill="#738981" transform="translate(26,51)"/>
<path d="M0 0 C19.799999999999997 0 39.599999999999994 0 60 0 C60 5.61 60 11.22 60 17 C57.90200729149663 19.097992708503376 53.89148051204788 18.934783682917317 51.0546875 19.40234375 C47.93751885037078 19.91402414059877 47.93751885037078 19.91402414059877 44.91015625 21.234375 C39.07903715922065 22.376132584208545 34.23520865696213 20.8081231279953 28.5625 19.3125 C26.921845703125 18.907412109375 26.921845703125 18.907412109375 25.248046875 18.494140625 C8.267594928120445 14.21069127777391 8.267594928120445 14.21069127777391 4.0625 9.125 C3.496601562500004 8.467578125 2.9307031249999937 7.81015625 2.34765625 7.1328125 C1 5 1 5 0 0 Z " fill="#96B0F1" transform="translate(68,0)"/>
<path d="M0 0 C14.464197151349694 1.0273635359837172 24.96792901958844 4.187326638694216 36.89453125 12.66796875 C41.50994410669779 15.587923822604722 45.93137438033034 16.420927489015185 51.3125 17.125 C52.5667578125 17.292578125 53.821015625 17.460156249999997 55.11328125 17.6328125 C56.06589843750001 17.753984375 57.01851562499999 17.875156250000003 58 18 C58.50367757295358 19.45706726461571 59.00282556336484 20.91570095913565 59.5 22.375 C59.778437499999995 23.187109375 60.05687499999999 23.999218749999997 60.34375 24.8359375 C61 27 61 27 61 29 C44.369842748213614 29.497798498667663 21.65442290481687 30.13913447498218 8 19 C8 18.340000000000003 8 17.68 8 17 C7.463749999999997 16.896875 6.927500000000002 16.793750000000003 6.375 16.6875 C3.2011025212130377 15.76874020350904 0.7674142642358959 14.844942842823926 -2 13 C-3.3673793345009386 8.736993839497075 -3.293945927552862 6.702914174582929 -1.5625 2.5625 C-1.046875 1.7168750000000017 -0.53125 0.8712499999999999 0 0 Z " fill="#2064A6" transform="translate(44,29)"/>
<path d="M0 0 C0.9487499999999898 0.35062499999999375 1.897500000000008 0.7012500000000017 2.875 1.0625 C2.712578124999993 1.7469921874999983 2.5501562500000006 2.4314843749999966 2.3828125 3.13671875 C1.8105139624132391 6.434038785788388 1.7426213801924746 9.528795917291546 1.75 12.875 C1.7474218750000006 14.036445312500007 1.7448437500000011 15.197890625 1.7421875 16.39453125 C1.883584453592107 20.29958240949938 2.390320603081989 24.185064824655896 2.875 28.0625 C-11.974999999999994 28.0625 -26.825000000000003 28.0625 -42.125 28.0625 C-40.85404193658136 19.16579355606953 -38.31787103831873 15.604516553909491 -31.703125 9.91796875 C-27.495754412219327 6.889936887582095 -23.062011243626138 5.501654911540697 -18.125 4.0625 C-15.770781059066408 3.333502125948428 -13.416614728522461 2.6043343315488556 -11.0625 1.875 C-9.436347656250007 1.389667968750004 -9.436347656250007 1.389667968750004 -7.77734375 0.89453125 C-2.5178485721142323 -0.7553545716342711 -2.5178485721142323 -0.7553545716342711 0 0 Z " fill="#4A7598" transform="translate(82.125,99.9375)"/>
<path d="M0 0 C19.65258215962442 2.8075117370892 19.65258215962442 2.8075117370892 25 6 C27.760776939136562 11.028557996284448 27.42510138240309 16.5355384078716 26 22 C22.037683553546493 31.5770787651948 12.226264694682657 37.979720002517794 3 42 C2.01 42 1.02 42 0 42 C0 28.14 0 14.280000000000001 0 0 Z " fill="#98ADAB" transform="translate(0,44)"/>
<path d="M0 0 C0 11.219999999999999 0 22.439999999999998 0 34 C-5.939999999999998 36.474999999999994 -5.939999999999998 36.474999999999994 -12 39 C-13.134375000000006 39.598125 -14.268749999999997 40.19625 -15.4375 40.8125 C-18.232488827285692 42.107738724839706 -19.967329069631944 42.09619490430216 -23 42 C-24.509791695146703 38.01964007643143 -25.706221698093458 34.2624560894804 -26 30 C-24.236515270702185 26.934503180846775 -21.774477665426872 25.13466101302236 -19 23 C-15.387391295056602 18.571640942327434 -15.564322280631416 14.475676791155237 -16 9 C-16.424506275564596 6.109130264146138 -16.424506275564596 6.109130264146138 -17 4 C-11.366467571302039 1.6862277524990503 -6.17270942660771 0 0 0 Z " fill="#6382BD" transform="translate(128,17)"/>
<path d="M0 0 C11.40517844646606 -0.5479356193142024 11.40517844646606 -0.5479356193142024 17 3 C17.783749999999998 3.391874999999999 18.567499999999995 3.7837499999999977 19.375 4.1875 C19.911249999999995 4.455624999999998 20.447500000000005 4.723750000000003 21 5 C21 5.659999999999997 21 6.32 21 7 C21.783749999999998 7.28875 22.567499999999995 7.577500000000001 23.375 7.875 C26.754773415681825 9.3234743210065 27.735061685445302 10.34369666640135 29.11328125 13.7578125 C29.509023437500005 14.868984374999997 29.904765624999996 15.98015625 30.3125 17.125 C32.354948895543814 22.614081406773998 34.784626527963354 27.13100588520166 38 32 C38 32.66 38 33.31999999999999 38 34 C38.66 34 39.31999999999999 34 40 34 C40 34.66 40 35.31999999999999 40 36 C36.87281524224598 35.35762118971644 34.45142466754778 34.27319745580451 31.6875 32.6875 C30.90890625 32.2440625 30.130312500000002 31.800624999999997 29.328125 31.34375 C28.55984375 30.9003125 27.791562499999998 30.456874999999997 27 30 C25.645898712924065 29.229051821956773 24.291739483800683 28.458205397284942 22.9375 27.6875 C21.968125 27.130624999999995 20.99875 26.573750000000004 20 26 C20 25.340000000000003 20 24.680000000000007 20 24 C19.2923046875 23.739609375 18.584609375 23.47921875 17.85546875 23.2109375 C14.80517376240958 21.917378750132656 12.12156004826516 20.380183495368954 9.3125 18.625 C8.359882812500004 18.039765625 7.407265625000001 17.454531250000002 6.42578125 16.8515625 C3.944753608203122 14.957831256502871 3.2799684653304553 13.746964286325635 2 11 C1.009999999999998 10.670000000000002 0.019999999999999574 10.340000000000003 -1 10 C-1.125 2.25 -1.125 2.25 0 0 Z " fill="#346D86" transform="translate(31,41)"/>
<path d="M0 0 C4.564032265806862 1.1410080664517182 5.349255285393712 2.140687387088164 8.3125 5.625 C11.653204308711256 9.485615244172948 15.07246327662897 13.12277714983594 18.78515625 16.625 C20 18 20 18 20 20 C20.59296875 20.248789062499995 21.1859375 20.497578125000004 21.796875 20.75390625 C24.317788817220418 22.179742256548423 25.538179113892877 23.61616713171837 27.25 25.9375 C27.77078125 26.627148437499997 28.2915625 27.316796874999994 28.828125 28.02734375 C30 30 30 30 30 33 C20.1 33 10.2 33 0 33 C0 22.11 0 11.219999999999999 0 0 Z " fill="#9AA7B4" transform="translate(0,95)"/>
</svg>
