<?xml version="1.0" encoding="UTF-8"?>
<!-- Generator: visioncortex VTracer 0.6.0 -->
<svg version="1.1" xmlns="http://www.w3.org/2000/svg" width="128" height="128">
<path d="M0 0 C42.24 0 84.48 0 128 0 C128 42.24 128 84.48 128 128 C85.75999999999999 128 43.519999999999996 128 0 128 C0 85.75999999999999 0 43.519999999999996 0 0 Z " fill="#DF91CB" transform="translate(0,0)"/>
<path d="M0 0 C3.5578092564761477 5.617593562857081 2.7575334398700164 14.495310679810906 2.1875 20.875 C1.2530019403917834 23.86248861543143 -0.06928690952013028 26.28695326157424 -1.8125 28.875 C-2.4931250000000063 29.90625 -3.1737499999999983 30.9375 -3.875 32 C-4.514375000000001 32.94874999999999 -5.153750000000002 33.89750000000001 -5.8125 34.875 C-6.3487499999999955 35.94749999999999 -6.885000000000005 37.02000000000001 -7.4375 38.125 C-8.8125 40.875 -8.8125 40.875 -10.8125 42.875 C-10.593871186122328 47.79414831224777 -9.314660179652236 50.45825836131489 -5.8125 53.875 C3.1045687430869293 60.04958896778501 11.613415459954524 63.52520343554545 22.1875 65.875 C22.1875 72.475 22.1875 79.075 22.1875 85.875 C-20.05250000000001 85.875 -62.292500000000004 85.875 -105.8125 85.875 C-105.8125 70.035 -105.8125 54.19499999999999 -105.8125 37.875 C-98.02083333333334 37.875 -98.02083333333334 37.875 -94.75 39.375 C-91.31394060289793 40.80166793680846 -88.56896724321896 41.156735043241426 -84.8125 40.875 C-84.541796875 40.14796874999999 -84.27109375 39.42093750000001 -83.9921875 38.671875 C-79.65594710504666 28.391252076865612 -71.53037721266148 20.700265494582652 -61.57421875 15.765625 C-58.25874772819828 14.696420766660829 -54.91998186734008 13.962989186392441 -51.516845703125 13.2265625 C-43.33944726267532 11.44864758274349 -36.2702196840868 9.462380660977637 -28.91796875 5.3671875 C-24.871257383092527 3.4227299626935093 -20.755244997086677 2.1995902993010077 -16.4375 1 C-15.675422363281257 0.7847265624999977 -14.9133447265625 0.5694531250000026 -14.128173828125 0.34765625 C-3.850918663418426 -2.3902253772942004 -3.850918663418426 -2.3902253772942004 0 0 Z " fill="#92556B" transform="translate(105.8125,42.125)"/>
<path d="M0 0 C19.14 0 38.28 0 58 0 C59.83428810703599 5.502864321107965 58.266198493678196 12.2017463894158 55.90234375 17.42578125 C55.5220703125 18.1102734375 55.141796875 18.794765625 54.75 19.5 C52.66202266647508 22.68015446194328 52.66202266647508 22.68015446194328 53.58203125 24.96484375 C55.383778219865135 27.550822183332606 57.43665419762226 29.14291247593674 59.9375 31.0625 C66.09931753352797 35.95283137581584 71.53495932295361 41.34468711369474 77 47 C70.75435240389739 52.660118133968 63.536406935768326 54.2407433421426 55.5 55.9375 C46.68349855191741 57.92525491116425 40.15971576249411 60.519708911517164 33.4453125 66.828125 C32.00000000000001 68 32.00000000000001 68 30 68 C29.73703125 68.5426953125 29.4740625 69.085390625 29.203125 69.64453125 C27.803834655139106 72.38405098360754 26.31885967542142 75.04093266466072 24.75 77.6875 C24.18796875 78.6607421875 23.6259375 79.633984375 23.046875 80.63671875 C21.000000000000007 83 21.000000000000007 83 18.01171875 83.91796875 C15.129005656749428 83.99648622724807 13.634191195560362 83.81026148125193 11.0625 82.625 C7.139195549053423 80.84243704351897 4.719461645949884 80.67420880656427 0 80 C0 53.599999999999994 0 27.199999999999996 0 0 Z " fill="#C58BBC" transform="translate(0,0)"/>
<path d="M0 0 C1.9375 2.0625 1.9375 2.0625 1.9375 4.0625 C2.927499999999995 4.392499999999998 3.917500000000004 4.722499999999997 4.9375 5.0625 C5.340976562500003 5.692851562499996 5.744453125000007 6.323203124999992 6.16015625 6.97265625 C8.690172541998109 9.947510571360425 11.736077707137184 10.520860745892477 15.375 11.5 C16.834435142153353 11.929870581684767 18.292768604282188 12.363498377611322 19.75 12.80078125 C20.825078125000005 13.12103271484375 20.825078125000005 13.12103271484375 21.921875 13.44775390625 C34.11229055242153 17.165712525556856 48.41116507855163 24.27053723864914 56.9375 34.0625 C56.9375 34.3925 56.9375 34.7225 56.9375 35.0625 C16.0175 35.0625 -24.902500000000003 35.0625 -67.0625 35.0625 C-67.0625 26.8125 -67.0625 18.5625 -67.0625 10.0625 C-58.21709882583171 11.168175146771034 -58.21709882583171 11.168175146771034 -54.1875 12.5625 C-49.87376531645437 13.933841581497532 -45.79707418772905 14.543196879666738 -41.2890625 14.8515625 C-39.12410193401152 15.05666402730418 -37.15422300318845 15.479873958016 -35.0625 16.0625 C-34.771171875 15.398632812499997 -34.47984375 14.734765624999994 -34.1796875 14.05078125 C-30.397618390913998 5.903871376654365 -26.547119354696633 1.5977580644569258 -18.0625 -1.9375 C-11.842572211964807 -3.59614741014272 -5.484854492243812 -3.4700099848889465 0 0 Z " fill="#431C3E" transform="translate(67.0625,92.9375)"/>
<path d="M0 0 C3.126283390148501 1.8684248748758279 5.493378863557439 2.176024293559749 9.09765625 2.52734375 C12.17578125 2.88671875 12.17578125 2.88671875 14.66015625 3.58984375 C15.958835848806999 5.510426255277963 16.327114528620328 7.19193343478976 16.8671875 9.4375 C19.22782984356226 15.844957789668996 27.42491172453998 19.128741889326704 33.16015625 21.90234375 C38.46934045995262 24.349126877061508 42.683586919530796 25.261717232117945 48.66015625 26.58984375 C48.66015625 33.189843749999994 48.66015625 39.78984375 48.66015625 46.58984375 C47.010156249999994 46.25984375 45.36015625 45.92984375 43.66015625 45.58984375 C43.66015625 44.92984375 43.66015625 44.26984375000001 43.66015625 43.58984375 C43.08684570312499 43.314387207031245 42.51353515625 43.03893066406249 41.9228515625 42.755126953125 C39.67295824046536 41.59643674746344 37.58426409895756 40.314976282310994 35.45703125 38.9453125 C25.036397003170975 32.368891485346154 15.518090084257054 27.780804280085135 3.66015625 24.58984375 C-3.3744388281922397 22.356638963272303 -6.7417842264466685 19.223938612835482 -11.44921875 13.58984375 C-14.224188171486588 10.654338907435687 -16.34956129919385 10.00263158973857 -20.33984375 9.58984375 C-27.63103958566431 9.43186784022727 -33.52627799869329 11.111671319785529 -39.33984375 15.58984375 C-42.891729876720134 19.38974187559336 -45.16247418557536 23.89130942676789 -47.33984375 28.58984375 C-49.508586265778305 28.08380382965173 -51.33952001644729 27.590005616776352 -53.33984375 26.58984375 C-49.23498043143889 13.382892203325127 -42.69723158068896 3.8623284005546736 -30.83984375 -3.28515625 C-19.138783843180242 -9.267500569777866 -10.247432533720342 -7.941354213929088 0 0 Z " fill="#7E5B7A" transform="translate(79.33984375,81.41015625)"/>
<path d="M0 0 C0 21.120000000000005 0 42.24000000000001 0 64 C-7.045529006014135 63.2171634437762 -11.1900543179798 62.45905072806836 -17.125 59.3125 C-18.166481933593758 58.7744775390625 -18.166481933593758 58.7744775390625 -19.22900390625 58.2255859375 C-25.33782776969302 54.98581772090188 -31.230222821810557 51.66846827734709 -34 45 C-33.70220622297933 41.02941630639111 -32.378555685600176 39.083312925778 -30 36 C-28.967401447094602 34.05427710692206 -28.009656742370638 32.07876483526266 -27.046875 30.09765625 C-25.494345871835122 26.98680497453529 -23.744105850978812 24.007079053411744 -22 21 C-18.88602271005587 14.772045420111752 -20.94222460311923 4.743318155114906 -22 -2 C-15.55304855412004 -6.3839269831983785 -6.532261881441784 -1.7815259676659423 0 0 Z " fill="#D28791" transform="translate(128,44)"/>
<path d="M0 0 C-0.216562500000002 0.7012500000000017 -0.4331249999999969 1.4025000000000034 -0.65625 2.125 C-2.3817149400843647 8.004362018065251 -3.2180850908321474 12.893617456699928 -3 19 C-4.289671419254155 22.869014257762473 -5.709029332948397 23.24084285357884 -9.1875 25.25 C-19.851516136396775 31.915010085247985 -23.760010361888565 40.92154474988115 -29 52 C-35.318087680645746 52.28982053580944 -40.470165610761015 51.31567503913888 -46.5 49.5 C-49.305 48.675 -52.11 47.849999999999994 -55 47 C-55 39.41 -55 31.819999999999993 -55 24 C-47.208333333333336 24 -47.208333333333336 24 -43.9375 25.5 C-40.50144060289792 26.926667936808457 -37.75646724321897 27.281735043241426 -34 27 C-33.5939453125 25.909453125 -33.5939453125 25.909453125 -33.1796875 24.796875 C-28.826547408074823 14.476185245634355 -20.526334289615782 6.4160521665898855 -10.33203125 1.7890625 C-6.953080216041556 0.6457658352435445 -3.5717498560744545 0 0 0 Z " fill="#A47386" transform="translate(55,56)"/>
<path d="M0 0 C1.3097268392436376 3.4926049046497027 0.6584887357813436 6.367241410301972 0.12890625 9.98046875 C-0.061360113767158 12.961308449018802 0.9029438461737769 15.257359615434446 2 18 C2.361060967236522 19.660880449288 2.704621730407176 21.326189805640666 3 23 C3.9899999999999984 23 4.98 23 6 23 C6 23.659999999999997 6 24.32 6 25 C7.072499999999998 24.958749999999995 8.145000000000003 24.917500000000004 9.25 24.875 C12.777234874923145 24.992574495830773 14.061072997582528 25.348479073862748 17 27 C15.566584802516836 28.15093924661646 14.128110907963475 29.295580348871056 12.6875 30.4375 C11.886992187499999 31.075585937499994 11.086484374999998 31.713671875000003 10.26171875 32.37109375 C8 34 8 34 5 35 C3.93983128775114 36.76883078951049 3.93983128775114 36.76883078951049 3 39 C1.9494841976858162 40.91421307277352 0.8634428150911262 42.80919218805573 -0.25 44.6875 C-1.0930468749999989 46.147363281249994 -1.0930468749999989 46.147363281249994 -1.953125 47.63671875 C-4 50 -4 50 -6.98828125 50.91796875 C-9.870994343250565 50.99648622724807 -11.365808804439645 50.81026148125193 -13.9375 49.625 C-17.860804450946585 47.84243704351897 -20.2805383540501 47.67420880656428 -25 47 C-25 35.45 -25 23.9 -25 12 C-22.69 11.009999999999998 -20.38 10.019999999999996 -18 9 C-16.621619232774005 8.345868529895377 -15.24905849991307 7.679102287616736 -13.88671875 6.9921875 C-12.851279296875 6.472050781249997 -12.851279296875 6.472050781249997 -11.794921875 5.94140625 C-11.09947265625 5.589492187499999 -10.4040234375 5.237578124999999 -9.6875 4.875 C-8.972714843750001 4.515351562500001 -8.257929687499999 4.155703125000002 -7.521484375 3.78515625 C-5.680158931227918 2.858419410250434 -3.8399953933176434 1.9293747966247636 -2 1 C-1.3399999999999999 0.6700000000000017 -0.6799999999999997 0.3400000000000034 0 0 Z " fill="#BC90B0" transform="translate(25,33)"/>
<path d="M0 0 C7.92 0 15.84 0 24 0 C25.32 2.97 26.64 5.94 28 9 C28.41765625 9.858515625 28.8353125 10.71703125 29.265625 11.6015625 C31.516353948558244 16.228060894258615 32.69296399230456 19.753272629694 32 25 C29.185469928622968 32.974501868901584 21.955151636947075 35.66229515112059 14.8125 39.125 C13.401442037179498 39.81325855303484 11.991250528561363 40.503297012315116 10.58203125 41.1953125 C9.657410888671874 41.64414794921875 9.657410888671874 41.64414794921875 8.714111328125 42.10205078125 C6.736037615928378 43.09995617838941 6.736037615928378 43.09995617838941 4 45 C2.6799999999999997 45 1.3599999999999999 45 0 45 C0 30.15 0 15.299999999999997 0 0 Z " fill="#E6A2B5" transform="translate(0,0)"/>
<path d="M0 0 C9.239999999999995 0 18.480000000000004 0 28 0 C28 14.520000000000001 28 29.040000000000003 28 44 C13.739919706755103 42.21748996334439 13.739919706755103 42.21748996334439 9.56640625 36.8984375 C1.222274291686091 24.568160506341833 0 15.098727266545538 0 0 Z " fill="#DCB4E7" transform="translate(100,0)"/>
<path d="M0 0 C1.9375 2.0625 1.9375 2.0625 1.9375 4.0625 C2.927500000000009 4.392499999999998 3.9174999999999898 4.722499999999997 4.9375 5.0625 C5.340976562500003 5.692851562499996 5.744453125000007 6.323203124999992 6.16015625 6.97265625 C8.689594494959834 9.94683088967804 11.735962228623663 10.522626887211729 15.375 11.5 C16.81637215015317 11.91883789163829 18.256474109464023 12.342070210103898 19.6953125 12.76953125 C20.767006835937508 13.087849121093754 20.767006835937508 13.087849121093754 21.8603515625 13.41259765625 C34.98496311095511 17.519052280366992 34.98496311095511 17.519052280366992 38.9375 22.0625 C37.765742187499995 22.039296875000005 36.593984375000005 22.016093749999996 35.38671875 21.9921875 C27.504537117713625 21.88467266102593 20.124191433373497 21.969731423197643 12.37890625 23.6015625 C2.9002798862955643 25.391127157467395 -3.94486423060615 23.06054666844466 -12.421875 18.90625 C-19.63633688372989 15.605515804829466 -26.212783532624243 15.655310096793187 -34.0625 16.0625 C-32.839512801476324 10.069862727233982 -30.667661186119823 6.150341317194474 -26.0625 2.0625 C-18.28662671039831 -3.0646196391596874 -8.223073563711168 -5.2023526627560415 0 0 Z " fill="#4C3B5E" transform="translate(67.0625,92.9375)"/>
<path d="M0 0 C-0.16371093749999943 0.837890625 -0.32742187499999886 1.67578125 -0.49609375 2.5390625 C-1.0298728289055106 6.205173072947929 -1.0974302467165273 9.672393848049126 -1.0625 13.375 C-1.053476562500009 14.620234374999995 -1.0444531249999898 15.865468750000005 -1.03515625 17.1484375 C-1.0235546874999955 18.089453125000006 -1.011953124999991 19.030468749999997 -1 20 C-4 21 -4 21 -6.25 20.0625 C-8.803748072757486 18.14718894543188 -10.38338156697138 16.393531699923187 -12.375 13.9375 C-15.640147125023788 10.117628954810868 -17.86036646433601 8.609787029655052 -23 8 C-30.28685102574211 7.830256382095854 -36.1924088366852 9.526429777169398 -42 14 C-45.551886126720134 17.79989812559336 -47.82263043557536 22.30146567676789 -50 27 C-52.168742515778305 26.49396007965173 -53.99967626644729 26.000161866776352 -56 25 C-51.89513668143889 11.793048453325127 -45.35738783068896 2.2724846505546736 -33.5 -4.875 C-20.63237983476032 -11.453765942366914 -11.020550238092952 -8.769544232014397 0 0 Z " fill="#6F536A" transform="translate(82,83)"/>
<path d="M0 0 C11.219999999999999 0 22.439999999999998 0 34 0 C36.19114424202241 6.573432726067237 33.57544355648486 14.363164971899963 30.8125 20.5 C28.246586980261384 25.209205071520287 25.91588073232633 26.930155481125755 21 29 C20.071875 29.4125 19.143749999999997 29.825 18.1875 30.25 C13.771585539139885 31.289038696672968 9.514449914074156 31.1605930799473 5 31 C5.495000000000001 29.731562500000003 5.495000000000001 29.731562500000003 6 28.4375 C7.900737580981023 21.903714565377737 7.156588014381612 17.532998434673082 4.16796875 11.6015625 C2.484983806139148 7.852840183574161 1.2994366982247136 3.898310094674137 0 0 Z " fill="#DA88B5" transform="translate(24,0)"/>
<path d="M0 0 C3.555563044957424 5.614046913090668 2.7636030778823937 14.49894025965299 2.1875 20.875 C0.746174781827321 25.40589858187947 -1.776355172005367 29.231626206406446 -4.8125 32.875 C-6.462500000000006 32.215 -8.112499999999997 31.555000000000007 -9.8125 30.875 C-9.8125 30.215000000000003 -9.8125 29.555000000000007 -9.8125 28.875 C-10.802499999999995 28.545 -11.792500000000004 28.215000000000003 -12.8125 27.875 C-12.8125 27.215000000000003 -12.8125 26.555000000000007 -12.8125 25.875 C-13.39 25.600429687499997 -13.967500000000001 25.325859374999993 -14.5625 25.04296875 C-16.779719462243477 23.892016286092357 -18.758753304598685 22.60723019663159 -20.8125 21.1875 C-26.314942715454706 17.46715058470926 -32.04912573322861 14.171142981672979 -37.8125 10.875 C-30.515284863453303 4.729976727118576 -9.168225408773708 -5.690622667514717 0 0 Z " fill="#B85C7D" transform="translate(105.8125,42.125)"/>
<path d="M0 0 C0 9.900000000000006 0 19.799999999999997 0 30 C-7.045529006014135 29.2171634437762 -11.1900543179798 28.459050728068362 -17.125 25.3125 C-18.166481933593758 24.774477539062502 -18.166481933593758 24.774477539062502 -19.22900390625 24.2255859375 C-25.335323934610102 20.987145610771123 -31.235562260052845 17.66871473759764 -34 11 C-33.798325062561474 8.243775855006746 -33.46434066478621 6.59210921198553 -31.750732421875 4.406982421875 C-29.53557891591511 2.6267663216313935 -27.98350685849364 2.411899261457066 -25.17578125 2.05078125 C-24.228964843749992 1.9250976562500028 -23.2821484375 1.7994140625000057 -22.306640625 1.669921875 C-21.31857421875 1.5519726562500011 -20.330507812500002 1.4340234375000023 -19.3125 1.3125 C-18.343769531250004 1.1829492187499966 -17.375039062500008 1.0533984374999932 -16.376953125 0.919921875 C-10.791497910645376 0.2061618780337966 -5.706398982295738 0 0 0 Z " fill="#BD95A0" transform="translate(128,78)"/>
<path d="M0 0 C8.845401174168298 1.1056751467710342 8.845401174168298 1.1056751467710342 12.875 2.5 C17.219994423830244 3.901394806451421 21.21871083637676 4.384821925970115 25.7734375 4.49609375 C28.886861949764466 5.20071086231512 30.017182136971563 6.531935571335907 32 9 C33.265625 11.62109375 33.265625 11.62109375 34.25 14.4375 C34.58515625 15.364335937500002 34.9203125 16.291171875000003 35.265625 17.24609375 C36 20 36 20 36 25 C24.119999999999997 25 12.239999999999998 25 0 25 C0 16.75 0 8.5 0 0 Z " fill="#6E282C" transform="translate(0,103)"/>
</svg>
