<?xml version="1.0" encoding="UTF-8"?>
<!-- Generator: visioncortex VTracer 0.6.0 -->
<svg version="1.1" xmlns="http://www.w3.org/2000/svg" width="128" height="128">
<path d="M0 0 C42.24 0 84.48 0 128 0 C128 42.24 128 84.48 128 128 C85.75999999999999 128 43.519999999999996 128 0 128 C0 85.75999999999999 0 43.519999999999996 0 0 Z " fill="#B36659" transform="translate(0,0)"/>
<path d="M0 0 C2.000679534454463 0.35283385053026706 4.007110854631321 0.6727201574657222 6.01416015625 0.9873046875 C13.924000273509506 2.392282055502264 20.54808965288109 5.1220734171832305 27.5927734375 8.884521484375 C31.40793903074558 11.017473034241238 31.40793903074558 11.017473034241238 35.58056640625 10.7568359375 C36.140019531250005 10.30953125 36.699472656249995 9.862226562499998 37.27587890625 9.4013671875 C40.27587890625 7.4013671875 40.27587890625 7.4013671875 42.71337890625 7.4638671875 C46.10241919328956 8.703759975441304 47.29740805922482 10.43366091696224 49.27587890625 13.4013671875 C50.181083040160374 16.116979589231107 50.38736941077579 17.652888174338976 50.38134765625 20.4365234375 C50.530651830464805 31.35219552733711 52.03374715740415 40.462415317657296 55.90087890625 50.6787109375 C57.465373094121475 54.91440116773157 58.41481638323987 58.89802059469136 58.65087890625 63.4013671875 C58.69986328125 64.0407421875 58.74884765625001 64.6801171875 58.79931640625 65.3388671875 C58.27587890625 67.4013671875 58.27587890625 67.4013671875 55.91259765625 69.6865234375 C52.8703827897191 72.81887800377996 51.84507870520352 75.74105166998959 50.71337890625 79.8388671875 C48.52531898817547 87.54733269393218 45.68363568343452 93.38282349207073 38.58056640625 97.4287109375 C34.19564467130715 99.27929655106063 29.99018219657883 99.39004833206104 25.27587890625 99.4013671875 C24.623452148437494 99.414580078125 23.971025390625 99.42779296875 23.298828125 99.44140625 C12.675922081969048 99.59305722275337 5.796293200105524 98.21498942885029 -2.72412109375 91.4013671875 C-8.332741247222742 87.1091504419498 -13.661766033250288 83.84173595370538 -20.28662109375 81.3388671875 C-34.584159944237484 75.87441888916786 -34.584159944237484 75.87441888916786 -38.15380859375 70.0810546875 C-41.911695323999766 61.606372199281566 -41.27661006887804 54.85752454831844 -38.07568359375 46.3798828125 C-37.71216796875 45.45884765625 -37.348652343750004 44.5378125 -36.97412109375 43.5888671875 C-36.62607421875 42.64849609375 -36.27802734375 41.708125 -35.91943359375 40.7392578125 C-33.00150032969284 33.179649226544505 -33.00150032969284 33.179649226544505 -28.72412109375 30.4013671875 C-29.229433593750002 29.194804687499996 -29.73474609375 27.9882421875 -30.25537109375 26.7451171875 C-30.912348550925714 25.130829721296813 -31.56855786985342 23.516229491924776 -32.22412109375 21.9013671875 C-32.55798828125 21.109882812500004 -32.89185546875 20.3183984375 -33.23583984375 19.5029296875 C-35.36311468850056 14.20644946179452 -36.29729606537019 10.114627388488362 -35.72412109375 4.4013671875 C-34.426345475702995 1.6980954455601882 -32.95564588182374 0.5291001249656588 -30.72412109375 -1.5986328125 C-21.078151827790165 -4.813955901153278 -9.742741470522411 -1.7415223757310585 0 0 Z " fill="#CFBBAB" transform="translate(60.72412109375,20.5986328125)"/>
<path d="M0 0 C3.116107525488218 1.4760509331259968 4.47618712832255 3.2767806924838254 6.375 6.125 C7.28020413391036 8.840612401731093 7.48649050452579 10.376520986838983 7.48046875 13.16015625 C7.629772924214805 24.075828339837116 9.13286825115415 33.186048130157296 13 43.40234375 C14.564494187871475 47.6380339802316 15.513937476989867 51.62165340719136 15.75 56.125 C15.798984375000003 56.764375 15.847968750000007 57.40375 15.8984375 58.0625 C15.375 60.125 15.375 60.125 13.01171875 62.41015625 C9.969503883469088 65.54251081627997 8.94419979895352 68.46468448248957 7.8125 72.5625 C5.624440081925471 80.27096550643219 2.7827567771845167 86.10645630457071 -4.3203125 90.15234375 C-8.705234234942878 92.00292936356064 -12.910696709671157 92.11368114456104 -17.625 92.125 C-18.277426757812506 92.138212890625 -18.929853515625 92.15142578125 -19.60205078125 92.1650390625 C-30.22495682428095 92.31669003525337 -37.10458570614446 90.93862224135029 -45.625 84.125 C-51.23362015347275 79.83278325444978 -56.56264493950028 76.56536876620538 -63.1875 74.0625 C-77.48503885048748 68.59805170166786 -77.48503885048748 68.59805170166786 -81.0546875 62.8046875 C-84.83101528956335 54.28841724353643 -84.16559537185171 47.56083067540261 -80.927734375 39.0546875 C-80.55970703125 38.12914062499999 -80.1916796875 37.20359375000001 -79.8125 36.25 C-79.45607421875 35.30125 -79.09964843750001 34.3525 -78.732421875 33.375 C-76.02048716768098 26.388658111787315 -76.02048716768098 26.388658111787315 -72.625 24.125 C-68.94377753280209 23.644840547756793 -67.18177299310882 23.78033100426596 -64 25.75 C-61.30375911601038 28.446240883989617 -59.43818206785297 30.754290602711507 -57.625 34.125 C-57.686320549343606 36.995385714512764 -57.89535546119565 39.29415807963187 -58.4375 42.0625 C-59.8971583496358 50.17943611358322 -59.52862197234984 56.59658619618244 -55.625 64.125 C-51.5710815382952 69.05817524898434 -47.28769906364263 70.82213707129456 -41.4375 72.875 C-40.237705078125 73.32939453124999 -40.237705078125 73.32939453124999 -39.013671875 73.79296875 C-32.24777319415418 76.23847429729366 -24.994873591151347 78.50905522493716 -18.125 75.6875 C-16.88749999999999 74.9140625 -16.88749999999999 74.9140625 -15.625 74.125 C-14.965000000000003 74.125 -14.305000000000007 74.125 -13.625 74.125 C-12.036363372000054 71.13585476573695 -10.95381397892129 68.14082045495486 -9.875 64.9375 C-8.843750000000014 62.27734375000003 -8.843750000000014 62.27734375000003 -7.625 60.125 C-4.374999999999986 59 -4.374999999999986 59 -1.625 59.125 C-2.0604085763330175 57.790982234213715 -2.498475860388183 56.45783225974459 -2.9375 55.125 C-3.181132812499996 54.38249999999999 -3.4247656250000063 53.64 -3.67578125 52.875 C-4.6271585455526605 49.96703146775518 -4.6271585455526605 49.96703146775518 -6.22265625 46.68359375 C-8.47253543385763 40.71424089205115 -7.901691515918046 34.469507343997385 -7.75 28.1875 C-7.7061968582339375 25.740965699595236 -7.667031900187581 23.29434336341201 -7.6328125 20.84765625 C-7.615571289062501 19.6939453125 -7.598330078125002 18.540234374999997 -7.58056640625 17.3515625 C-7.62014452697386 14.4775820412831 -7.868770904829148 11.781011290116197 -8.28125 8.94140625 C-8.625 5.125000000000007 -8.625 5.125000000000007 -7.544921875 3.441162109375 C-5.171874678307788 1.227493082498551 -3.249248202689671 0.15472610488998484 0 0 Z " fill="#A9AA92" transform="translate(103.625,27.875)"/>
<path d="M0 0 C4.839429283976045 3.912395752305315 7.246831904255828 8.752267458810849 10 14.25 C10.832279078612316 15.880746819655997 11.665610087863712 17.51095720285879 12.5 19.140625 C12.906054687500003 19.942019042968752 13.312109375000006 20.743413085937505 13.73046875 21.569091796875 C15.413891383254011 24.79252240443465 17.23485795115866 27.930719722185728 19.08203125 31.062744140625 C20.50208540166959 34.059587144214944 20.090229087758402 35.93373069067948 19 39 C16.78222362230538 44.433552125351824 13.809978468222809 48.233727819974234 8.8125 51.375 C0.7094522353405921 53.17567728103543 -7.3135717224611625 50.21165369693186 -14.8125 47.3125 C-15.72708984375 46.985722656250005 -16.6416796875 46.65894531250001 -17.583984375 46.322265625 C-24.35514787677139 43.746761253053506 -28.079883643498185 41.18356477674898 -31.1796875 34.4296875 C-33.46301593884277 26.04037964043161 -33.332638991673974 18.714715220543525 -30.96875 10.3515625 C-28.27904292599701 5.772656409733003 -25.555701254491545 5.065897494978103 -20.625 3.625 C-19.869609374999996 3.3787890624999974 -19.11421875 3.132578125000002 -18.3359375 2.87890625 C-12.275818130208918 0.9400918362381674 -6.408039058561542 -0.6865756134173111 0 0 Z " fill="#B9C6CD" transform="translate(76,54)"/>
<path d="M0 0 C30.689999999999998 0 61.379999999999995 0 93 0 C93 6.2700000000000005 93 12.540000000000001 93 19 C85.74999999999919 18.499999999999943 85.74999999999919 18.499999999999943 83.5498046875 18.341796875 C79.55786356203996 18.080234429962058 75.64015930467063 18.030385401953556 71.640625 18.1328125 C62.98924313708571 18.162861505523225 54.52467257074714 16.715732983486568 46 15.375 C45.137153930664056 15.241612243652344 44.274307861328126 15.108224487304687 43.38531494140625 14.970794677734375 C10.33916812735633 9.819354840163964 10.33916812735633 9.819354840163964 1 3 C0.6700000000000017 2.01 0.3400000000000034 1.02 0 0 Z " fill="#573E3F" transform="translate(35,0)"/>
<path d="M0 0 C0 13.86 0 27.72 0 42 C-20.129999999999995 42 -40.260000000000005 42 -61 42 C-60.67 38.7 -60.34 35.400000000000006 -60 32 C-58.116679687499996 32.12568359375 -58.116679687499996 32.12568359375 -56.1953125 32.25390625 C-39.78304590268516 34.02144646151662 -39.78304590268516 34.02144646151662 -24.75 28.703125 C-20.06333216605887 24.141992911610856 -18.183607768528404 17.92697960077203 -16.5625 11.75 C-15.163246477680673 6.672708647584187 -13.071671986352271 4.3082334889112275 -9 1 C-6 0 -6 0 0 0 Z " fill="#77674F" transform="translate(128,86)"/>
<path d="M0 0 C0 22.11 0 44.22 0 67 C-4.454999999999998 67.495 -4.454999999999998 67.495 -9 68 C-9.1585546875 67.0912109375 -9.317109375000001 66.182421875 -9.48046875 65.24609375 C-10.735334987190527 58.48645517949855 -12.178181517777503 52.26642701107963 -14.625 45.8125 C-17.111221771531504 38.825995496616216 -17.591507533462433 32.35969758184409 -17.54736328125 24.964111328125 C-17.593036498720963 19.129065019174945 -18.588743431767597 15.786862743125411 -22 11 C-22.989999999999995 10.34 -23.980000000000004 9.68 -25 9 C-25.29296875 6.6171875 -25.29296875 6.6171875 -25.1875 3.875 C-25.1604296875 2.9649218750000017 -25.133359374999998 2.05484375 -25.10546875 1.1171875 C-25.0706640625 0.4185156250000013 -25.035859375 -0.280156250000001 -25 -1 C-15.863916179866962 -2.631443539309469 -10.055852102932562 -1.2569815128665702 0 0 Z " fill="#BE7850" transform="translate(128,19)"/>
<path d="M0 0 C1.230732421875004 0.16387207031250028 1.230732421875004 0.16387207031250028 2.486328125 0.3310546875 C7.360775165810949 1.09281199781541 10.635504965206962 2.000503374379253 14.125 5.75 C15.222630401581043 8.139777583189105 15.339422270205986 9.131424238678488 14.48046875 11.609375 C8.431949080397068 21.400289782902405 -2.7942278147929684 29.524595226704093 -13.6875 33.25 C-17.459028972091836 33.84161238777911 -18.6371306469147 33.7524976614466 -21.875 31.75 C-23.545379545694626 29.02149465473316 -24.600260206064153 26.125109806666245 -25.6875 23.125 C-25.99880859375 22.342539062499995 -26.3101171875 21.560078125000004 -26.630859375 20.75390625 C-28.598717208203816 15.538001751442188 -29.402819201958135 11.32209134794439 -28.875 5.75 C-27.577224381952995 3.0467282580601847 -26.10652478807374 1.8777329374656588 -23.875 -0.25 C-16.24684687012244 -2.792717709959188 -7.799597358248015 -1.1291242928861713 0 0 Z " fill="#ECBB90" transform="translate(53.875,19.25)"/>
<path d="M0 0 C4.1713371137000905 2.582256308481007 6.687108030885632 5.700328812297151 9 10 C8.938679450656394 12.870385714512736 8.72964453880435 15.169158079631885 8.1875 17.9375 C6.71280556195299 26.138049494113247 7.240899018110355 32.33721722922496 11 40 C11.86625 41.051874999999995 11.86625 41.051874999999995 12.75 42.125 C14 44 14 44 13.75 46.5625 C13.190043706124264 48.382357955096154 12.60211577190585 50.193652684282455 12 52 C3.6225242537164206 50.85478786232082 -7.169635332645022 47.52870918182924 -13 41 C-16.316929196497853 35.27705947589325 -17.847212378771395 29.625271698425692 -17 23 C-15.97566093194375 19.271179653260575 -14.615346772744356 15.715872093977055 -13.1875 12.125 C-12.83107421875 11.176249999999996 -12.4746484375 10.2275 -12.107421875 9.25 C-9.552939466764755 2.6692783464912253 -7.862676846566224 -0.9435212215879503 0 0 Z " fill="#B89596" transform="translate(37,52)"/>
<path d="M0 0 C9.003446295232623 0 9.003446295232623 0 11.7734375 1.4609375 C12.66869140625 1.9211328125000051 12.66869140625 1.9211328125000051 13.58203125 2.390625 C14.1737109375 2.7154687499999994 14.765390625 3.040312499999999 15.375 3.375 C16.29732421875 3.8506640625000017 16.29732421875 3.8506640625000017 17.23828125 4.3359375 C23.446382209111373 7.596209338482993 23.446382209111373 7.596209338482993 24.74609375 10.891845703125 C25.08833984375 12.02239379882812 25.08833984375 12.02239379882812 25.4375 13.17578125 C25.692734375 14.004003906250006 25.94796875 14.832226562499997 26.2109375 15.685546875 C26.6015234375 16.985888671875003 26.6015234375 16.985888671875003 27 18.3125 C27.51906995703534 20.01746493313341 28.03985585942329 21.7219085593825 28.5625 23.42578125 C28.807421875 24.229672851562498 29.05234375 25.033564453124995 29.3046875 25.86181640625 C30.004013615999853 28.128286822024805 30.004013615999853 28.128286822024805 31.1875 30.73046875 C32 33 32 33 32 39 C21.439999999999998 39 10.879999999999999 39 0 39 C0 26.129999999999995 0 13.259999999999991 0 0 Z " fill="#994C44" transform="translate(0,89)"/>
<path d="M0 0 C3.116107525488218 1.4760509331259968 4.47618712832255 3.2767806924838325 6.375 6.125 C7.28020413391036 8.840612401731057 7.48649050452579 10.376520986839012 7.48046875 13.16015625 C7.629772924214805 24.07582833983711 9.13286825115415 33.1860481301573 13 43.40234375 C14.969565831402164 48.734719424222334 16.454604164386325 54.42836526025937 15.375 60.125 C12.875 63.125 12.875 63.125 10.375 65.125 C8.064999999999998 64.465 5.7549999999999955 63.80500000000001 3.375 63.125 C3.375 62.465 3.375 61.80500000000001 3.375 61.125 C2.7923437500000006 60.936796875 2.209687500000001 60.74859375 1.609375 60.5546875 C-3.3675865935550604 57.37012815866932 -5.347818772324857 50.501234366799636 -7.0068359375 45.0478515625 C-8.92255931752193 35.98977877196979 -8.000004811248132 26.39701738512752 -7.64501953125 17.20654296875 C-7.626650027987921 14.378983576384101 -7.85842895341176 11.769328727987343 -8.265625 8.9765625 C-8.625 5.125 -8.625 5.125 -7.5458984375 3.43896484375 C-5.1710704449644425 1.228409539264124 -3.2486605571821485 0.15469812177057918 0 0 Z " fill="#DDA987" transform="translate(103.625,27.875)"/>
<path d="M0 0 C3.5513786109915806 0.6984938974225088 6.425180695422128 2.145047987719977 9.625 3.8125 C13.315106855837485 5.708743088765701 16.886555819932582 7.359123577263617 20.8125 8.6875 C27.80531699747616 11.341125994156258 33.57778875035275 16.289106070339017 39.441162109375 20.82666015625 C40.9204564128689 21.94012741115864 42.459443440308036 22.972962293538686 44 24 C43.67 27.299999999999997 43.34 30.599999999999994 43 34 C31.450000000000003 34 19.9 34 8 34 C7.34 31.36 6.68 28.72 6 26 C5.5243811291975256 24.511936941569658 5.026899570586966 23.030365108822025 4.4921875 21.5625 C4.227929687500001 20.812265624999995 3.9636718749999993 20.062031250000004 3.69140625 19.2890625 C3.146248184627865 17.76053318752119 2.5941309098597927 16.234468433385288 2.03515625 14.7109375 C0.24643081903325026 9.582670500873661 -0.283922108807662 5.431553385885707 0 0 Z " fill="#9D7051" transform="translate(24,94)"/>
<path d="M0 0 C0.7710003662109415 0.12612670898437628 1.5420007324218687 0.252253417968749 2.33636474609375 0.3822021484375 C5.3499352516999465 0.8890434489992991 8.181571173576572 1.4420341411921882 11.0859375 2.41015625 C12.133538645203743 10.973879897300378 12.133538645203743 10.973879897300378 9.73828125 14.2578125 C7.782418460964621 15.801009733546593 6.511430338260993 16.783645184766534 4.0859375 17.41015625 C0.11366112488597935 16.44617286189702 -3.396717190968019 14.732426429154106 -7.06103515625 12.947998046875 C-21.78013295249157 5.933633190878666 -37.6907985804388 4.1892849141826645 -53.80712890625 3.092529296875 C-54.6790185546875 3.0297680664062483 -55.550908203125005 2.9670068359375 -56.44921875 2.90234375 C-57.21629150390625 2.854487304687499 -57.9833642578125 2.806630859374998 -58.773681640625 2.75732421875 C-61.13259666424905 2.37471019301789 -62.84156012845202 1.5773905264995705 -64.9140625 0.41015625 C-64.9140625 -0.24984375000000014 -64.9140625 -0.9098437500000003 -64.9140625 -1.58984375 C-43.488209115329596 -8.268031817949215 -21.579211283513217 -3.5422835382717626 0 0 Z " fill="#A78473" transform="translate(91.9140625,15.58984375)"/>
<path d="M0 0 C4.911235891953307 -0.09898614976029922 9.821889381045441 -0.1715224669386206 14.73388671875 -0.2197265625 C16.404237023295504 -0.2398239269249605 18.07451712746114 -0.26710683411839514 19.74462890625 -0.3017578125 C22.147637204346434 -0.35036119271134963 24.549714335550245 -0.37298655562405963 26.953125 -0.390625 C27.698062133789062 -0.4112701416015625 28.442999267578124 -0.431915283203125 29.21051025390625 -0.45318603515625 C32.7181036828813 -0.45469901578700844 34.561841075433456 -0.3709801699565123 37.28662109375 1.93603515625 C37.8520361328125 2.6171435546875 38.417451171875 3.298251953125 39 4 C41.48024416742918 5.013372899107633 43.82378390253783 5.861644002334155 46.375 6.625 C47.022109375 6.828671875 47.66921875 7.03234375 48.3359375 7.2421875 C50.22171794517391 7.835295865820825 52.11082305469102 8.417800815596603 54 9 C56.00179207880647 9.661266147381014 58.002487467955774 10.325916823551639 60 11 C55.06354602184956 12.632923707785134 49.75125135121543 11.915136589812636 44.62890625 11.7421875 C40.85178126072544 11.78921620149293 37.51272557947556 12.556009699618482 33.859375 13.49609375 C26.73236454382438 15.247984588389537 19.993445669128658 15.343285610221988 12.6875 15.1875 C11.45837890625 15.17396484375 10.2292578125 15.1604296875 8.962890625 15.146484375 C5.975064991106713 15.111607032970117 2.9874696759261434 15.057821993727602 0 15 C0 10.05 0 5.1 0 0 Z " fill="#8B5757" transform="translate(0,0)"/>
<path d="M0 0 C11.219999999999999 0 22.439999999999998 0 34 0 C34 6.2700000000000005 34 12.540000000000001 34 19 C31.6075 18.835 29.215000000000003 18.67 26.75 18.5 C20.605086077620854 18.091976204354783 14.516477338501389 17.926532913908936 8.35546875 18.0625 C6 18 6 18 3 17 C2.05078125 14.453125000000002 2.05078125 14.453125000000002 1.3125 11.25 C1.0611328125000057 10.20328125 0.8097656249999972 9.1565625 0.55078125 8.078125 C0 5 0 5 0 0 Z " fill="#642816" transform="translate(94,0)"/>
</svg>
