<?xml version="1.0" encoding="UTF-8"?>
<!-- Generator: visioncortex VTracer 0.6.0 -->
<svg version="1.1" xmlns="http://www.w3.org/2000/svg" width="128" height="128">
<path d="M0 0 C42.24 0 84.48 0 128 0 C128 42.24 128 84.48 128 128 C85.75999999999999 128 43.519999999999996 128 0 128 C0 85.75999999999999 0 43.519999999999996 0 0 Z " fill="#8C847F" transform="translate(0,0)"/>
<path d="M0 0 C19.14 0 38.28 0 58 0 C59.32 6.6000000000000005 60.64 13.200000000000001 62 20 C62.66 21.98 63.32 23.96 64 26 C59.11199132814361 30.319635570477743 55.58866083046371 32.86719937666396 48.9375 33.25 C41.29877785124411 33.99087940573217 33.60909976241106 37.738448520527115 28.4375 43.4375 C24.268112755444882 49.07047745724556 22.377379310281032 54.42659386741745 22.5703125 61.42578125 C23.302532885846738 65.81244701611818 25.34395812295239 69.46665944235181 28 73 C28.66 73.33 29.32 73.66 30 74 C30.6328125 76.28515625 30.6328125 76.28515625 31.125 79.0625 C31.292578125 79.9816015625 31.46015625 80.900703125 31.6328125 81.84765625 C31.753984375 82.5579296875 31.87515625 83.268203125 32 84 C31.009999999999998 84.495 31.009999999999998 84.495 30 85 C30.05220703125 86.6667578125 30.05220703125 86.6667578125 30.10546875 88.3671875 C30.356313314727768 99.74222061887963 28.9551490529185 108.37790456926494 23.96484375 118.69921875 C22.70644712050078 121.70001071265199 21.89393404341778 124.87123084803777 21 128 C14.07 128 7.139999999999999 128 0 128 C0 85.75999999999999 0 43.519999999999996 0 0 Z " fill="#458FC3" transform="translate(0,0)"/>
<path d="M0 0 C2.5848801908228864 2.081910892608583 3.77199955898773 4.287399775926701 5.0625 7.3125 C5.405390625000003 8.106562500000003 5.748281249999998 8.900624999999998 6.1015625 9.71875 C6.999999999999993 11.999999999999986 6.999999999999993 11.999999999999986 7.9375 15.3125 C9.287341989387357 18.72680620845035 11.10836506408829 19.780838304997985 14 22 C18.271034615824135 26.759510715581143 20.29819158752987 31.898394228460745 22 38 C17.455140350449682 42.14087212514585 12.983292285812666 44.661635506405204 7.375 47.125 C1.8328942170226696 49.50078506249238 1.8328942170226696 49.50078506249238 -3.2265625 52.71484375 C-6.703658117161893 55.234589252304545 -10.915816611016545 54.55026422905465 -15 54 C-19.205048359194137 52.70506788938724 -22.202916866946296 51.32847188842284 -24.5 47.5 C-25 45 -25 45 -25 41 C-25.990000000000002 40.67 -26.98 40.34 -28 40 C-31.99230311060881 35.06303925195135 -33.84975282257906 29.871468887918837 -33.4765625 23.546875 C-32.05714602056153 15.961141027918984 -28.143167403584794 10.251331399848397 -22.1875 5.46875 C-15.175138288480241 0.7604499936938751 -8.377234394603889 -1.8277602315499415 0 0 Z " fill="#1E476D" transform="translate(55,33)"/>
<path d="M0 0 C12.539999999999992 0 25.08 0 38 0 C38 12.540000000000001 38 25.080000000000002 38 38 C23.701442750269365 41.89960652265381 13.375796735385933 42.89808945924903 0 36 C-2.6614388760334435 34.43667513176084 -3.3162105607378436 33.74395316027908 -5 31 C-6.321039820285051 20.927071370326445 -3.1688279783767683 9.50648393513031 0 0 Z " fill="#96A39C" transform="translate(90,0)"/>
<path d="M0 0 C3.0746499351180887 2.9842190546734315 4.4576626216201305 5.913680909291429 4.8125 10.1875 C4.6643222866511 15.818253107257945 1.6517687161187382 18.837735447548027 -2.1796875 22.69921875 C-10.153661476610495 29.690891584564284 -18.678772242642566 34.548483731617324 -29.375 35.3125 C-35.864415031210534 32.994851774567664 -41.117772928158956 27.991211786401735 -44.64453125 22.11328125 C-45.90177905066555 18.996104956921286 -46.30779165012441 16.780428411670215 -46.3125 13.4375 C-46.3318359375 12.517109375000004 -46.351171875 11.596718750000008 -46.37109375 10.6484375 C-45.70295860345011 7.165717287275356 -44.66748350684688 6.251911951377593 -41.875 4.0625 C-39.14964951421417 2.365397972205585 -36.34589280217408 0.8590695282814949 -33.5 -0.625 C-32.7575 -1.02783203125 -32.015 -1.4306640625 -31.25 -1.845703125 C-20.678846842347667 -7.420772413973893 -9.921647749004322 -6.686327830850743 0 0 Z " fill="#A2826C" transform="translate(92.875,80.9375)"/>
<path d="M0 0 C2.069802602061042 12.16009028710863 0.3410743817873758 21.579705595901615 -5.03515625 32.69921875 C-6.29355287949922 35.70001071265199 -7.106065956582221 38.87123084803777 -8 42 C-14.93 42 -21.86 42 -29 42 C-29 26.489999999999995 -29 10.97999999999999 -29 -5 C-17.935213721946134 -6.383098284756727 -10.253806681129507 -4.015749384624868 0 0 Z " fill="#88A4B0" transform="translate(29,86)"/>
<path d="M0 0 C12.21 0 24.42 0 37 0 C38.36397748592871 15.003752345215755 38.36397748592871 15.003752345215755 36 19 C33.1548937532749 21.86158369603046 30.018732488326037 24.23612742523585 26.783203125 26.638671875 C24.774170084156033 28.17240246587431 22.832472689053773 29.772718538035825 20.890625 31.390625 C20.1850244140625 31.97690673828125 19.479423828125 32.5631884765625 18.75244140625 33.167236328125 C17.356765289932735 34.328591333795934 15.963135846620757 35.492411313374205 14.57177734375 36.658935546875 C9.780593838506526 40.594592976399035 6.405373308578735 43 0 43 C0 28.81 0 14.619999999999997 0 0 Z " fill="#83C2E8" transform="translate(0,0)"/>
<path d="M0 0 C1.9454383584864487 0.6924441614951746 3.888600207560991 1.396820309663795 5.79296875 2.1953125 C9.16663038984052 3.425355504968394 12.433326213138926 3.6815469833159824 16 4 C15.930390625000001 5.285839843749997 15.930390625000001 5.285839843749997 15.859375 6.59765625 C15.441849771601774 16.093626039517474 15.441849771601774 16.093626039517474 20 24 C21.43021725952113 25.113583794936716 22.868191720928415 26.21725396700876 24.3125 27.3125 C27.90261683862027 30.251077116055853 27.90261683862027 30.251077116055853 28.328125 33.5234375 C28.07086151946511 36.10363887830577 27.643337663915823 38.48972166432844 27 41 C26.67 42.31999999999999 26.340000000000003 43.64 26 45 C13.79 45 1.5799999999999983 45 -11 45 C-8.766951942067152 34.95128373930217 -8.766951942067152 34.95128373930217 -6.4375 29.75 C-3.0768579673715664 22.21099294757539 -2.903284839029709 16.081914080031325 -3.21484375 7.974609375 C-3.2578125 5.73828125 -3.2578125 5.73828125 -3 2 C-2.009999999999998 1.3400000000000034 -1.0199999999999996 0.6800000000000068 0 0 Z " fill="#8B8883" transform="translate(32,83)"/>
<path d="M0 0 C0 13.530000000000001 0 27.060000000000002 0 41 C-12.210000000000008 41 -24.42 41 -37 41 C-37 35.267427055077746 -35.42832799061459 33.42990136071033 -31.9375 29.3125 C-30.91694700694468 28.06961282989191 -29.898721176603374 26.824811203523353 -28.8828125 25.578125 C-28.385556640624998 24.970332031249995 -27.888300781249995 24.362539062500005 -27.3759765625 23.736328125 C-25.55050395505461 21.432786396087366 -23.930056183801796 19.015166585671565 -22.3125 16.5625 C-19.115339388508175 11.907922498782796 -15.446875042944697 8.44895426559097 -11 5 C-10.365781249999998 4.492109374999998 -9.731562499999995 3.9842187499999966 -9.078125 3.4609375 C-5.7169206512573965 0.8897598144233996 -4.350017991659513 0 0 0 Z " fill="#5C5E68" transform="translate(128,87)"/>
<path d="M0 0 C0 16.17 0 32.34 0 49 C-2.3100000000000023 49.99000000000001 -4.6200000000000045 50.97999999999999 -7 52 C-9.788195055932164 54.17647815147093 -9.788195055932164 54.17647815147093 -12.25 56.625 C-16.707438016528926 60.902479338842966 -16.707438016528926 60.902479338842966 -20 62 C-19.58895251411296 58.57460428427464 -19.184895151076418 55.478552155727215 -17.9375 52.25 C-15.809480772937988 44.87286667951835 -16.675297242851002 38.4418638377111 -19.125 31.25 C-20.339042821621803 27.53799856698369 -21.020610276566458 25.298849010213686 -20.75 21.375 C-18.05281379163 16.173283741000716 -14.577112688857824 11.625454625394383 -11 7 C-10.193691406249997 5.845644531250002 -10.193691406249997 5.845644531250002 -9.37109375 4.66796875 C-8.918632812499993 4.117539062500001 -8.466171875 3.567109375000001 -8 3 C-7.340000000000003 3 -6.680000000000007 3 -6 3 C-6 2.3400000000000034 -6 1.6799999999999997 -6 1 C-3 0 -3 0 0 0 Z " fill="#697375" transform="translate(128,38)"/>
<path d="M0 0 C10.560000000000002 0 21.120000000000005 0 32 0 C31.340000000000003 2.97 30.680000000000007 5.94 30 9 C29.581241121677095 11.879613521306927 29.197754993907324 14.73607825125581 28.875 17.625 C28.788632812499998 18.3365625 28.702265624999995 19.048125 28.61328125 19.78125 C28.10130452824265 24.218381588563677 27.917946557027392 28.533948318205265 28 33 C26.680000000000007 33.66 25.36 34.32 24 35 C24 35.66 24 36.32 24 37 C22.515 36.505 22.515 36.505 21 36 C21 35.34 21 34.68 21 34 C20.4225 33.7215625 19.845 33.443125 19.25 33.15625 C16.381271983714996 31.68204254718687 13.713791946130371 29.95727296548977 11 28.21875 C9.044635987338609 26.9409005968979 9.044635987338609 26.9409005968979 6.88671875 26.2109375 C4.049330040470629 24.389839156409717 3.748396734204391 22.310868882965163 2.8125 19.125 C2.4889453125000003 18.075703125 2.1653906250000006 17.02640625 1.83203125 15.9453125 C0.7280321154794436 10.710387026451812 0.44429920644279264 5.331590477313517 0 0 Z " fill="#778D8F" transform="translate(58,0)"/>
<path d="M0 0 C1.6951361360796966 0.29202883636365584 3.3866988249748715 0.6121111204281817 5.0625 1 C4.664912725572094 6.994392752912944 2.9467717317857876 10.294353364624186 -0.6875 15 C-1.1180468750000045 15.5775 -1.548593750000009 16.155 -1.9921875 16.75 C-3.7647404879361375 19.12755610357901 -5.552854985316486 21.49318618037539 -7.345703125 23.85546875 C-9.673695330927757 26.99742082073415 -10.974952332438505 29.149809329754035 -11.9375 33 C-22.8275 33 -33.7175 33 -44.9375 33 C-43.8125 24 -43.8125 24 -42.9375 20 C-42.03 20.082499999999996 -41.1225 20.164999999999992 -40.1875 20.25 C-29.712683463040094 20.165525673089036 -20.563832865172316 14.774908143382731 -12.9375 8 C-11.744084495032965 6.500065144283539 -10.57499275884777 4.980275214494242 -9.4375 3.4375 C-6.508837275183339 -0.23585935899986055 -4.626261948154934 -0.41842623989681726 0 0 Z " fill="#897975" transform="translate(102.9375,95)"/>
<path d="M0 0 C7.861213597921136 4.492122055954937 12.019162157457345 10.685885041464061 14.5546875 19.3125 C14.70164062500001 19.869375000000005 14.848593749999992 20.426249999999996 15 21 C10.455140350449668 25.14087212514586 5.9832922858126665 27.661635506405204 0.375 30.125 C-5.16710578297733 32.50078506249238 -5.16710578297733 32.50078506249238 -10.2265625 35.71484375 C-13.703658117161908 38.234589252304545 -17.915816611016538 37.55026422905465 -22 37 C-26.243085680991946 35.69335440949587 -29.22326527369681 34.32692182410128 -31.5 30.4375 C-32 28 -32 28 -32 25 C-31.3335546875 24.936835937500007 -30.667109375 24.873671875 -29.98046875 24.80859375 C-22.087246602757148 23.759843954212485 -16.21922415582805 20.979581503146107 -10 16 C-8.993301343732426 14.671717050758062 -7.991481276139844 13.339680057641331 -7 12 C-6.340000000000003 12 -5.68 12 -5 12 C-4.731875000000002 11.319375 -4.4637500000000045 10.638750000000002 -4.1875 9.9375 C-2.83946694052743 6.6028919055152215 -1.4246370168302036 3.302567629924553 0 0 Z " fill="#585359" transform="translate(62,50)"/>
<path d="M0 0 C3.7070957102780113 0.3992256918760937 5.52471215416206 1.8752936501499917 8.48046875 4.11328125 C9.909394531250001 5.17482421875 9.909394531250001 5.17482421875 11.3671875 6.2578125 C18.17238521912431 11.989082076653801 19.39521443688905 23.972066826818875 20.79296875 32.48828125 C20.79296875 36.30078125 20.79296875 36.30078125 18.98046875 39.36328125 C16.79296875 41.30078125 16.79296875 41.30078125 14.79296875 41.30078125 C14.79296875 41.96078125 14.79296875 42.62078124999999 14.79296875 43.30078125 C12.812968749999996 43.795781250000005 12.812968749999996 43.795781250000005 10.79296875 44.30078125 C10.573828125000006 43.74390625000001 10.354687499999997 43.18703124999999 10.12890625 42.61328125 C7.53729446799305 36.37655696159302 4.4337628843282175 29.78933903844532 -1.29296875 25.875 C-3.693324103301805 23.900830189019132 -4.071366839425501 22.471368787855404 -4.83203125 19.48828125 C-5.067929687499998 18.607851562500002 -5.303828125000003 17.727421875000005 -5.546875 16.8203125 C-5.764726562500002 15.988867187499999 -5.982578125000003 15.157421874999997 -6.20703125 14.30078125 C-6.863326412857731 12.29735391075009 -7.524637705751573 10.295470071649262 -8.20703125 8.30078125 C-8.867031249999997 8.30078125 -9.52703125 8.30078125 -10.20703125 8.30078125 C-8.870689852485924 4.291757057457765 -6.712760930029766 3.491862300018603 -3.20703125 1.30078125 C-2.20703125 0.30078125 -2.20703125 0.30078125 0 0 Z " fill="#696D7B" transform="translate(65.20703125,25.69921875)"/>
<path d="M0 0 C6.93 0 13.86 0 21 0 C22.87500000000037 9.62500000000193 22.87500000000037 9.62500000000193 23.45263671875 12.62353515625 C24.358393684385405 17.20979893209273 25.377558668178608 21.600406838934774 27 26 C20.38461538461538 31.846153846153847 20.38461538461538 31.846153846153847 16 33 C13.687499999999986 32.62499999999999 13.687499999999986 32.62499999999999 12 32 C12 31.34 12 30.68 12 30 C11.340000000000003 30 10.68 30 10 30 C8.917187499999997 28.6078125 8.917187499999997 28.6078125 7.8125 27.1875 C5.002585703777619 23.628836085921954 2.231529547322623 22.493481016702102 -2 21 C-1.783437499999998 19.85724609375 -1.783437499999998 19.85724609375 -1.5625 18.69140625 C-1.3768749999999983 17.6588671875 -1.1912499999999966 16.626328125 -1 15.5625 C-0.7215624999999974 14.04849609375 -0.7215624999999974 14.04849609375 -0.4375 12.50390625 C0.07922141837478591 8.365521318909078 0 4.170519255690792 0 0 Z " fill="#6595AF" transform="translate(37,0)"/>
<path d="M0 0 C2.495625 0.2681249999999977 4.99125 0.5362500000000026 7.5625 0.8125 C8.33408447265625 0.8896020507812494 9.1056689453125 0.9667041015624989 9.900634765625 1.046142578125 C14.768381392392332 1.6137465240268867 18.675357158956295 2.6445183533273138 23 5 C24.70703125 7.2265625 24.70703125 7.2265625 25.8125 9.625 C27.209642501664106 12.976788556225927 27.209642501664106 12.976788556225927 30 15 C30.6328125 17.28515625 30.6328125 17.28515625 31.125 20.0625 C31.292578125 20.981601562500003 31.46015625 21.900703125000007 31.6328125 22.84765625 C31.753984375 23.557929687500007 31.87515625 24.268203125 32 25 C28.978340271494524 26.57723996817593 27.511485703962467 27.114979756340333 24.1328125 26.35546875 C23.140234375 25.970039062500007 22.14765625 25.584609375 21.125 25.1875 C13.711016344669607 22.495625738834804 7.996574850414831 22 0 22 C0 14.739999999999995 0 7.480000000000004 0 0 Z " fill="#5E91A9" transform="translate(0,59)"/>
</svg>
