<?xml version="1.0" encoding="UTF-8"?>
<!-- Generator: visioncortex VTracer 0.6.0 -->
<svg version="1.1" xmlns="http://www.w3.org/2000/svg" width="128" height="128">
<path d="M0 0 C42.24 0 84.48 0 128 0 C128 42.24 128 84.48 128 128 C85.75999999999999 128 43.519999999999996 128 0 128 C0 85.75999999999999 0 43.519999999999996 0 0 Z " fill="#709D96" transform="translate(0,0)"/>
<path d="M0 0 C4 7.999999999999993 4 7.999999999999993 4.90625 10.09765625 C6.195684734497306 12.340351663214957 7.5103547056689735 13.21735815194915 9.625 14.6875 C16.091013462446924 20.105289057787957 18.872833626013545 28.36971404747306 22 36 C22.289877929687506 36.6862646484375 22.579755859375 37.372529296875 22.87841796875 38.07958984375 C27.08635841614374 48.5055695959183 25.341596941304672 58.94317859936869 22.75 69.5625 C22.54568359375 70.407158203125 22.341367187499998 71.25181640625 22.130859375 72.1220703125 C20.219143476452345 79.35020459356463 17.451957338943984 84.79220173547131 11 89 C2.9646376332164266 93.37584656020579 -5.02165657022033 93.70929887823071 -14 94 C-16.631429025032787 94.0994332155208 -19.262297340940506 94.20589762249466 -21.89306640625 94.321533203125 C-23.63584494991465 94.39724381298788 -25.37904717697164 94.46389800619811 -27.12255859375 94.520263671875 C-30.852866143084306 94.67417146586851 -33.65661277392858 94.86636654748945 -37.171875 96.234375 C-40 97 -40 97 -43.32421875 95.76953125 C-44.434101562500004 95.1237109375 -45.543984375 94.477890625 -46.6875 93.8125 C-47.8051171875 93.1795703125 -48.922734375000005 92.546640625 -50.07421875 91.89453125 C-54.46331294604194 89.05246090943879 -54.46331294604194 89.05246090943879 -56 87 C-56.5095729195849 81.64948434435861 -55.94766330649295 77.46893882503203 -54.5 72.3125 C-51.53067818058097 61.08874766822473 -52.91508596112009 51.42806119100082 -56.09375 40.484375 C-57.74383378802959 34.14008733223104 -58.25898239668649 28.71788986834507 -55 22.875 C-54.34 21.926249999999996 -53.68 20.9775 -53 20 C-52.34 20 -51.68 20 -51 20 C-50.731875 19.154375 -50.46375 18.30875 -50.1875 17.4375 C-49.795625 16.303125 -49.40375 15.16875 -49 14 C-48.62963623046875 12.809309082031248 -48.2592724609375 11.6186181640625 -47.877685546875 10.391845703125 C-46 7 -46 7 -42.757080078125 5.778076171875 C-41.432282383472135 5.5836898207248 -40.10209164422611 5.423956463206249 -38.76953125 5.29296875 C-38.06027999877929 5.196636505126953 -37.351028747558594 5.100304260253907 -36.62028503417969 5.0010528564453125 C-34.35372629066595 4.69938727655293 -32.084761104421816 4.442276703869084 -29.8125 4.1875 C-27.560142598462697 3.9053811755292447 -25.309132394742008 3.61420288225459 -23.058273315429688 3.3203887939453125 C-21.660226972944884 3.141140960311919 -20.261077811936822 2.9702097433501713 -18.860794067382813 2.8093719482421875 C-15.39878959037381 2.397598056086501 -12.065118366784972 1.8113461756756806 -8.694091796875 0.942626953125 C-5.56983872105539 0.14540660247140558 -3.185628004836275 -0.19910175030226718 0 0 Z " fill="#446177" transform="translate(84,12)"/>
<path d="M0 0 C42.24 0 84.48 0 128 0 C128 17.490000000000002 128 34.980000000000004 128 53 C121.36727066825658 50.78909022275219 118.22201034142122 48.55781284760178 114.9375 42.5 C113.2480408898934 38.931862359454854 112.15869973020126 35.288466267575565 111.0625 31.5 C109.03737852997558 24.72604717584857 106.89379593368277 18.563771254731037 100.75 14.5625 C93.01325579023896 10.826947538205504 85.39795401253888 12.147770020998994 77.22705078125 13.60693359375 C72.47085045554353 14.446385745075084 67.70406359390928 15.22198355090368 62.9375 16 C61.85984375 16.17893798828125 60.7821875 16.3578759765625 59.671875 16.542236328125 C53.6389347846613 17.516642666668726 47.66479847698458 18.245471157496794 41.570556640625 18.686279296875 C30.15385040129693 19.49513112061959 30.15385040129693 19.49513112061959 21 26 C16.39519069455571 32.05689405801337 15.187235625576323 38.511730896976516 16 46 C17.124194663037386 50.40620372669156 18.540792101031162 54.69477974846217 20 59 C23.304426432959993 69.11299737999296 23.304426432959993 69.11299737999296 20.9375 74.3515625 C16.213743558065794 82.8491895776099 10.239661259090344 88.79440323664213 1 92 C0.6699999999999999 92 0.33999999999999997 92 0 92 C0 61.64 0 31.279999999999994 0 0 Z " fill="#9BC6C8" transform="translate(0,0)"/>
<path d="M0 0 C1.6323745854231362 2.4440021725888315 2.8482584209388477 4.608661744353022 4.0625 7.25 C4.4053906249999955 7.969296874999998 4.748281250000005 8.688593750000003 5.1015625 9.4296875 C9.789270643523892 19.518063200511506 14.256809353527146 29.754454180781266 10.8125 40.8125 C8.757726259724464 44.4260676122087 7.893172356293647 45.59183127538316 4 47 C1.4578560865317343 47.14878768724313 -1.0332911007892562 47.12174083532818 -3.578125 47.03515625 C-6.141856154186158 46.92201485745282 -6.141856154186158 46.92201485745282 -9.1875 47.5625 C-12 48 -12 48 -15.0234375 47.484375 C-20.71691168244962 46.596702824152715 -26.47032111039769 47.405819206054886 -32.173828125 47.947265625 C-39.597462366106924 48.46869395330367 -44.33887823601146 46.931574648312576 -50.13671875 42.2890625 C-51.77030024011243 40.53615137962747 -53.40178515195256 38.78532292781885 -55 37 C-55.7308984375 36.2381640625 -55.7308984375 36.2381640625 -56.4765625 35.4609375 C-61.56617914093307 29.895099418979626 -62.47597027341209 23.73117852559477 -62.3203125 16.4375 C-61.79714288862422 12.456306859774607 -60.40920089807411 10.212267864098813 -58 7 C-52.1825906171743 3.4454206839208545 -45.114980098041954 3.901157851374631 -38.51806640625 4.165771484375 C-29.181813245969494 4.51248917439618 -20.935143629599423 3.1947842652506537 -11.9423828125 0.6904296875 C-3.2848428358014417 -1.687133434721968 -3.2848428358014417 -1.687133434721968 0 0 Z " fill="#1D4B59" transform="translate(89,25)"/>
<path d="M0 0 C7.407949830856126 5.222237900563929 9.585267243005035 12.73380537716585 11.875732421875 21.126220703125 C13.16147691268236 25.687089917603075 14.98002331061096 29.02894393521793 17.75 32.9375 C18.08 33.9275 18.409999999999997 34.9175 18.75 35.9375 C21.679141649716826 37.108328777743154 21.679141649716826 37.108328777743154 24.75 37.9375 C25.739999999999995 38.4325 25.739999999999995 38.4325 26.75 38.9375 C26.75 54.7775 26.75 70.6175 26.75 86.9375 C23.120000000000005 88.2575 19.49000000000001 89.5775 15.75 90.9375 C12.640684724489375 92.76940491648834 9.705693223869986 94.58519343325243 6.75 96.625 C5.293542932511116 97.6108505369255 3.8352842722514993 98.59404615560167 2.375 99.57421875 C1.4352734375000011 100.21943481445312 1.4352734375000011 100.21943481445312 0.4765625 100.877685546875 C-1.25 101.9375 -1.25 101.9375 -4.25 102.9375 C-4.470429687500001 101.8894921875 -4.470429687500001 101.8894921875 -4.6953125 100.8203125 C-5.3758643661514185 98.05899285917872 -6.077711943235485 95.53113364939843 -7.25 92.9375 C-10.267735850254766 91.17652514482798 -10.267735850254766 91.17652514482798 -13.25 90.9375 C-10.58425240917164 88.05583515882417 -7.699704390236519 86.38675963625704 -4.28515625 84.51171875 C4.563986109039064 77.66679673331528 5.7088119342547685 63.364586825587864 7.3828125 53.03125 C8.290498112954964 39.79660815949529 1.638886669305478 25.39187826907962 -6.25 14.9375 C-7.974496450119489 13.421051032008684 -7.974496450119489 13.421051032008684 -9.75 12.25 C-14.382488072400463 8.534047202138986 -15.661321273903084 3.483074186748258 -17.25 -2.0625 C-11.222582973307965 -3.8272842645719916 -5.475713952712425 -3.0800890984007374 0 0 Z " fill="#647C98" transform="translate(101.25,14.0625)"/>
<path d="M0 0 C10.89 0 21.78 0 33 0 C33 12.956521739130432 33 12.956521739130432 31 18 C27.75 20 27.75 20 25.87890625 20.88671875 C21.215934298822116 23.64960233853575 18.582833477526826 28.542916306182935 16.625 33.4375 C14.969141069137116 42.87589590591844 16.940996235966573 49.97477133741283 20 59 C23.304426432959993 69.11299737999296 23.304426432959993 69.11299737999296 20.9375 74.3515625 C16.213743558065794 82.8491895776099 10.239661259090344 88.79440323664213 1 92 C0.6699999999999999 92 0.33999999999999997 92 0 92 C0 61.64 0 31.279999999999994 0 0 Z " fill="#B0ECEA" transform="translate(0,0)"/>
<path d="M0 0 C0 8.909999999999997 0 17.819999999999993 0 27 C-25.08 27 -50.16 27 -76 27 C-76.99000000000001 24.03 -77.98 21.060000000000002 -79 18 C-79.70918291120898 16.138098376926237 -80.4341273514232 14.281964070653572 -81.1875 12.4375 C-81.5316796875 11.590585937499995 -81.875859375 10.743671875000004 -82.23046875 9.87109375 C-82.48441406250001 9.253632812500001 -82.738359375 8.636171875000002 -83 8 C-78.0759688107035 3.9702676919105215 -72.61536521606186 4.48117427829375 -66.5625 4.375 C-64.39968292344301 4.317186298298978 -62.23692023547862 4.257299720129879 -60.07421875 4.1953125 C-58.508732910156255 4.153256835937498 -58.508732910156255 4.153256835937498 -56.91162109375 4.1103515625 C-52.18483319727682 3.931204478045373 -47.502393283330036 3.440483692196395 -42.8046875 2.890625 C-39.157979479671354 3.0328364548317523 -37.048599731127155 4.017553826528271 -34 6 C-32.5390625 8.261718750000014 -32.5390625 8.261718750000014 -31.625 10.6875 C-31.307890625 11.4957421875 -30.990781249999998 12.303984374999999 -30.6640625 13.13671875 C-30.444921875000006 13.7516015625 -30.225781249999997 14.366484374999999 -30 15 C-28.926210937500002 14.324531250000007 -27.852421875000005 13.6490625 -26.74609375 12.953125 C-25.30994180847547 12.052010056298343 -23.873741298648298 11.150972515099198 -22.4375 10.25 C-21.733027343749995 9.806562499999998 -21.02855468749999 9.363124999999997 -20.302734375 8.90625 C-6.092026654411782 0 -6.092026654411782 0 0 0 Z " fill="#4C82B1" transform="translate(128,101)"/>
<path d="M0 0 C0.6393750000000011 0.6599999999999966 1.2787499999999987 1.3200000000000003 1.9375 2 C4.405601378159574 4.4540381224435635 6.934166129121451 6.835842579111308 9.5 9.1875 C10.232187500000002 9.8616796875 10.964375000000004 10.535859375000001 11.71875 11.23046875 C15.780856337182165 14.381383425930693 19.182349816331566 15.2774464310056 24.2734375 14.90625 C25.263437499999995 14.845664062499992 26.253437500000004 14.785078124999998 27.2734375 14.72265625 C29.333373464785176 14.57477671600408 31.393269754958773 14.426343431430652 33.453125 14.27734375 C39.144366349347294 13.929956291013866 43.674168170958424 13.851350915532166 49 16 C53.31526827000192 19.84621737108867 54.85277888294266 23.03960156855382 55.203125 28.8203125 C54.80482520038498 33.09437573433027 52.38007578307358 35.660714634160115 49.4140625 38.5390625 C45.850901447994104 40.695409156068294 42.12177698216641 41.23053062828009 38.0625 42 C32.75034857299801 43.011838367048 28.56972555567024 43.94773549222785 24 47 C23.340000000000003 47 22.68 47 22 47 C22 47.66 22 48.31999999999999 22 49 C16.89641434262949 52.15936254980079 16.89641434262949 52.15936254980079 13.1875 51.5 C0.9626211352099574 45.74711582833409 0.9626211352099574 45.74711582833409 -2 42 C-2.5095729195848975 36.64948434435857 -1.9476633064929594 32.46893882503207 -0.5 27.3125 C1.917210861956427 18.396184462028643 1.723858309981022 9.05025612740036 0 0 Z " fill="#416865" transform="translate(30,57)"/>
<path d="M0 0 C5.772330037241318 3.146721582801696 8.018745518314162 11.813129316397749 10.125 17.65234375 C11.84742563018932 23.621027010169932 11.909581387413382 29.108959098304396 10.0625 35.0390625 C8.058173173787011 38.563913125409044 7.0067559264367105 39.77508861933127 3.25 41.2265625 C-7.179782741087777 42.658101307600276 -17.38419609919235 35.71463172564398 -25.75 30.2265625 C-27.99015379894817 28.2811657798608 -28.700472067862506 27.351839034230125 -29.8125 24.5390625 C-29.698850636075527 18.51564621200275 -25.183355017995012 14.767419144344629 -21.25 10.5390625 C-8.518584280303031 -1.2374970407196955 -8.518584280303031 -1.2374970407196955 0 0 Z " fill="#12344A" transform="translate(89.75,30.7734375)"/>
<path d="M0 0 C0.6600000000000001 0.3299999999999983 1.3200000000000003 0.6600000000000001 2 1 C1.2162499999999987 1.8456249999999983 0.432500000000001 2.69125 -0.375 3.5625 C-4.463579196813626 8.51975749641992 -5.457550327848031 14.107550711395803 -5.328125 20.40625 C-4.6471239659651395 25.789401030942223 -2.7353082083354643 30.88017845403315 -1 36 C2.304426432959996 46.11299737999295 2.304426432959996 46.11299737999295 -0.0625 51.3515625 C-4.786256441934203 59.849189577609906 -10.760338740909651 65.79440323664213 -20 69 C-20.33 69 -20.66 69 -21 69 C-21 52.5 -21 36 -21 19 C-19.35 18.340000000000003 -17.7 17.68 -16 17 C-14.189844108771402 15.586282158080046 -14.189844108771402 15.586282158080046 -12.625 13.875 C-11.74134765625 12.95267578125 -11.74134765625 12.95267578125 -10.83984375 12.01171875 C-8.341076042539608 9.27952051360488 -5.892294488942458 6.508416235404372 -3.48046875 3.69921875 C-2.3682882832024745 2.4227055493220995 -1.1971698589237256 1.1971698589237256 0 0 Z " fill="#96CEC7" transform="translate(21,23)"/>
<path d="M0 0 C17.490000000000002 0 34.980000000000004 0 53 0 C51 8.999999999999996 51 8.999999999999996 49 12 C46.53296890252068 12.825378177754459 44.21818360588978 13.45380723531446 41.6875 14 C40.94201904296875 14.16733642578125 40.196538085937505 14.3346728515625 39.428466796875 14.507080078125 C26.40473757034252 17.31864108259807 13.135640209254262 19.201892935021935 -0.1875 19.59375 C-3.3997829759312914 20.057746429856742 -5.2774711080379575 21.298419442523723 -8 23 C-8.66 22.67 -9.32 22.34 -10 22 C-4.2500000000000036 18 -4.2500000000000036 18 -2 18 C-1.3399999999999999 12.059999999999999 -0.6799999999999997 6.119999999999999 0 0 Z " fill="#BDC5AA" transform="translate(33,0)"/>
<path d="M0 0 C7.407949830856126 5.222237900563929 9.585267243005035 12.73380537716585 11.875732421875 21.126220703125 C13.16147691268236 25.687089917603075 14.98002331061096 29.02894393521793 17.75 32.9375 C18.08 33.9275 18.409999999999997 34.9175 18.75 35.9375 C21.679141649716826 37.108328777743154 21.679141649716826 37.108328777743154 24.75 37.9375 C25.739999999999995 38.4325 25.739999999999995 38.4325 26.75 38.9375 C26.75 43.2275 26.75 47.5175 26.75 51.9375 C20.693413051957947 52.46415973461235 14.789217800018719 51.516441955122176 9.75 47.9375 C6.472392880007504 42.90170627921684 4.509389500177733 37.00341528471063 2.3125 31.4375 C-1.9837673956602089 20.550801090740556 -1.9837673956602089 20.550801090740556 -9.8125 12.125 C-14.442233230772104 8.496016965399164 -15.678981555676728 3.4214277373272033 -17.25 -2.0625 C-11.222582973307965 -3.8272842645719916 -5.475713952712425 -3.0800890984007374 0 0 Z " fill="#6F929E" transform="translate(101.25,14.0625)"/>
<path d="M0 0 C0 8.909999999999997 0 17.819999999999993 0 27 C-11.879999999999995 27 -23.760000000000005 27 -36 27 C-34.41173656361185 19.05868281805928 -31.46187064252709 16.252914975062097 -24.9609375 11.90625 C-23.983828125000002 11.277187499999997 -23.006718750000005 10.648124999999993 -22 10 C-20.899140625 9.2884375 -19.798281250000002 8.576875000000001 -18.6640625 7.84375 C-6.290674408499655 0 -6.290674408499655 0 0 0 Z " fill="#9AB2BE" transform="translate(128,101)"/>
<path d="M0 0 C-0.4544596395195484 1.4179140753009882 -0.9137494408146551 2.834280461906353 -1.375 4.25 C-1.7578515625000009 5.433359375000002 -1.7578515625000009 5.433359375000002 -2.1484375 6.640625 C-3.565603355166161 10.567084525322755 -5.072240086821282 13.072240086821282 -8 16 C-11.301990432760348 21.62784500766088 -10.655164120358293 27.39928329614294 -9.1015625 33.56640625 C-8.5562890625 35.45166015625 -8.5562890625 35.45166015625 -8 37.375 C-6.05919053954613 44.092660914176605 -5.533711496843836 50.044529827920556 -6 57 C-8.999999999999996 55.5 -8.999999999999996 55.5 -12 54 C-12 53.34 -12 52.68000000000001 -12 52 C-12.62559814453125 51.75161376953125 -13.251196289062499 51.50322753906249 -13.895751953125 51.247314453125 C-16.456041473805257 49.72967677344576 -16.788233569156464 48.83781244750185 -17.66796875 46.04296875 C-17.92126953125 45.259863281250006 -18.174570312500002 44.4767578125 -18.435546875 43.669921875 C-18.68369140625 42.85072265625 -18.9318359375 42.0315234375 -19.1875 41.1875 C-19.44724609375 40.37990234375 -19.7069921875 39.5723046875 -19.974609375 38.740234375 C-22.85035138348575 29.667156875358906 -24.85683784770557 20.934834592539083 -20.97265625 11.84765625 C-16.22161269820829 2.8225815512149453 -9.81596527537868 -0.6888396684476277 0 0 Z " fill="#60969B" transform="translate(38,19)"/>
<path d="M0 0 C0.6509258966077027 1.2473556716389638 1.2955166930758821 2.498018319592811 1.9375 3.75 C2.4769726562499983 4.794140625000001 2.4769726562499983 4.794140625000001 3.02734375 5.859375 C3.957862405724626 7.90726344713692 4.486526865604219 9.81823866630274 5 12 C3.7934375000000102 12.265546874999998 2.586874999999992 12.53109375 1.34375 12.8046875 C-0.2708460916603741 13.16140059001799 -1.885428706796759 13.518174682850066 -3.5 13.875 C-4.29148437500001 14.0490234375 -5.082968749999992 14.223046875000001 -5.8984375 14.40234375 C-6.684765624999997 14.5763671875 -7.471093749999994 14.750390625000001 -8.28125 14.9296875 C-9.076440429687494 15.10475830078125 -9.871630859375003 15.279829101562498 -10.69091796875 15.460205078125 C-12.145747129276657 15.800301004739978 -13.594501601465822 16.168806450884855 -15.03173828125 16.576904296875 C-20.384414304781757 18.096161199863364 -25.333226522117556 18.19751084986086 -30.875 18.0625 C-37.672999001307915 17.97262560997169 -44.24710600645184 18.09961413419358 -51 19 C-50.05485989439067 14.430861863919596 -48.796263200729875 10.768068762129005 -46 7 C-40.705598395923005 4.763446365893742 -35.373219529294815 4.358112312756305 -29.6875 3.875 C-27.448196205075156 3.6301404170217246 -25.211054990200573 3.3697076853767634 -22.973587036132813 3.108673095703125 C-20.9377009472923 2.8799374396876907 -18.897916692591593 2.686711554701409 -16.858154296875 2.49560546875 C-11.15897784597766 1.763508512771919 -5.777564982266938 -0.3610978113916836 0 0 Z " fill="#687B75" transform="translate(84,12)"/>
<path d="M0 0 C1.44921875 2.00390625 1.44921875 2.00390625 2.6875 4.5625 C3.1038671875000006 5.3887890624999955 3.520234375000001 6.215078125000005 3.94921875 7.06640625 C5 10 5 10 6 18 C-5.549999999999997 18 -17.1 18 -29 18 C-26.33617886736562 10.008536602096854 -22.614907022366054 6.94146180144854 -15.41015625 3.140625 C-4.5034957981982515 -2.0210360241914316 -4.5034957981982515 -2.0210360241914316 0 0 Z " fill="#83B7C7" transform="translate(46,110)"/>
</svg>
