<?xml version="1.0" encoding="UTF-8"?>
<!-- Generator: visioncortex VTracer 0.6.0 -->
<svg version="1.1" xmlns="http://www.w3.org/2000/svg" width="128" height="128">
<path d="M0 0 C42.24 0 84.48 0 128 0 C128 42.24 128 84.48 128 128 C85.75999999999999 128 43.519999999999996 128 0 128 C0 85.75999999999999 0 43.519999999999996 0 0 Z " fill="#546B6C" transform="translate(0,0)"/>
<path d="M0 0 C42.24 0 84.48 0 128 0 C128 8.58 128 17.16 128 26 C126.02 25.773125 124.04 25.54625 122 25.3125 C114.85215637338085 24.76864233275724 110.12829578910612 25.340948579259802 104.5 30.125 C100.99646327870722 32.75265254096958 98.34314482328143 32.64974638521924 94 33 C92.515 33.495 92.515 33.495 91 34 C87.81250000000001 32.06250000000001 87.81250000000001 32.06250000000001 85 30 C85.495 28.515 85.495 28.515 86 27 C85.34 27 84.68 27 84 27 C84 25.68 84 24.36 84 23 C83.360625 22.731875 82.72125 22.46375 82.0625 22.1875 C80 21.000000000000004 80 21.000000000000004 79 18 C77.15274947781879 17.308405988863527 77.15274947781879 17.308405988863527 75 17 C74.4341015625 16.81953125 73.868203125 16.6390625 73.28515625 16.453125 C70.1863913180917 15.838669047689976 67.39541674946106 16.12089428006537 64.25 16.375 C63.0034765625 16.470390625 61.756953125 16.56578125 60.47265625 16.6640625 C57.82871046181306 16.919832283784114 55.29471889271678 17.27596020132422 52.6875 17.75 C47.88959869966321 18.07528144409063 44.40283368101025 16.75418620032361 40 15 C33.283087044823695 12.761029014941231 27.774127887404806 13.931846271548764 21.44140625 16.66796875 C18.19737633452172 18.43791147188495 15.697341573238324 20.658489514441253 13.01953125 23.18359375 C4.329032258064522 31 4.329032258064522 31 0 31 C0 20.77 0 10.54 0 0 Z " fill="#648679" transform="translate(0,0)"/>
<path d="M0 0 C2.9537180415783553 2.054760376750167 4.624524939419302 3.5841461257269813 5.5625 7.12109375 C6.175161151372663 11.662444534549834 5.775936315213727 15.487017460778972 5 20 C4.171950430744658 28.8956182297145 5.665390491564793 35.497888264683596 8.86328125 43.78125 C10.375336220275443 48.062807716518805 11.162901499567027 51.55836232804262 10 56 C8.698664332479723 58.627071378806576 7.25663987058752 61.02359485647162 5.60546875 63.4453125 C3.5227119214892895 66.61247630053694 3.5227119214892895 66.61247630053694 1 73 C-7.909999999999997 73 -16.82 73 -26 73 C-26.659999999999997 70.36 -27.32 67.72 -28 65 C-28.529352940472776 63.32938154566389 -29.06913350992326 61.66198465719913 -29.625 60 C-32.020048733246895 51.95947925267113 -30.92409304891614 45.94247005639737 -28.78125 37.99609375 C-28.102635831567014 35.3936084140595 -27.583142430753483 32.83503462387348 -27.125 30.1875 C-25.500004144709003 21.775756749081893 -23.01603054810213 12.02244276734298 -18 5 C-17.340000000000003 5 -16.68 5 -16 5 C-16 4.340000000000003 -16 3.6799999999999997 -16 3 C-10.457926488286745 0.07187499267757858 -6.285603652254579 -2.0549088863139957 0 0 Z " fill="#1D3743" transform="translate(66,55)"/>
<path d="M0 0 C24.42096246690547 2.570627628095309 24.42096246690547 2.570627628095309 31.5 8.0625 C32.1703125 8.569101562499995 32.840625 9.075703125000004 33.53125 9.59765625 C34.0159375 10.060429687500005 34.500625 10.523203124999995 35 11 C35 11.659999999999997 35 12.319999999999993 35 13 C35.99 13.329999999999998 36.98 13.659999999999997 38 14 C40.52683243402766 19.053664868055336 38.88865946990375 24.825278390453008 37.5 30 C35.14583403395398 39.01116159252064 35.78105965977607 44.31569091483041 39.125 53.0703125 C40 56 40 56 40 62 C26.799999999999997 62 13.599999999999998 62 0 62 C0 41.53999999999999 0 21.08 0 0 Z " fill="#2D6D89" transform="translate(0,66)"/>
<path d="M0 0 C1.9799999999999898 0.3299999999999983 3.960000000000008 0.6600000000000001 6 1 C6 21.46 6 41.92 6 63 C-1.9200000000000017 63.495000000000005 -1.9200000000000017 63.495000000000005 -10 64 C-10.659999999999997 62.68000000000001 -11.319999999999993 61.36 -12 60 C-13.916863097246392 59.27291399759619 -15.837049406047925 58.55264920447004 -17.77734375 57.890625 C-24.428317247398823 55.225560048493975 -28.98967873325033 50.735309037104074 -32.15625 44.359375 C-34.27175077485629 38.44380801845742 -33.478196632710876 32.68235114553647 -31.12109375 26.953125 C-29.829471683226444 24.702912340115745 -28.296575237470165 23.056242107474247 -26.5 21.1875 C-23.468989312466746 17.99927921456564 -22.475162977785857 15.678222195779135 -21.625 11.375 C-20.623327550527407 6.839124757105235 -19.425523959773983 4.9880373451479265 -15.5625 2.375 C-9.94777610289644 -0.9121310801993765 -6.410817344037127 -1.1053133351788134 0 0 Z " fill="#30404A" transform="translate(122,25)"/>
<path d="M0 0 C0 13.200000000000003 0 26.400000000000006 0 40 C-17.819999999999993 40 -35.64 40 -54 40 C-50.67701552328492 32.246369554331494 -50.67701552328492 32.246369554331494 -47.25 28.8125 C-44.02150866404605 25.365628080078423 -41.70762220128749 21.953038913409245 -39.4375 17.8125 C-34.301655980057404 8.718016656820765 -27.836890313168283 4.445690392183238 -18 1 C-12.048287701487396 -0.32260273300279607 -6.089687274402223 0 0 0 Z " fill="#7C8386" transform="translate(128,88)"/>
<path d="M0 0 C1.083690359842052 3.2510710795261346 0.8744613146470357 3.8718934180746984 0 7 C-0.7503268569242891 13.654538190099018 0.36529883866438695 17.434363846704855 4 23 C4 23.659999999999997 4 24.319999999999993 4 25 C4.556875000000005 25.247500000000002 5.113749999999996 25.495000000000005 5.6875 25.75 C8 27 8 27 10.25 28.9375 C13.22476528246574 31.168573961849305 15.792518315110414 32.083576661460114 19.328125 33.09375 C21 34 21 34 21.734375 36.09375 C21.82203125000001 36.7228125 21.90968749999999 37.35187500000001 22 38 C21.359335937499992 38.31453125 20.718671875 38.6290625 20.05859375 38.953125 C17.36414921058349 40.28629278999446 14.680177790423784 41.638391429098576 12 43 C11.312929687500002 43.34546875000001 10.625859375000005 43.69093749999999 9.91796875 44.046875 C4.119238902148481 47.12942420016509 1.5177796750475494 51.09020012396161 -1.6875 56.625 C-4.66195295851162 61.70667410814772 -8.22080292126904 66.09093674148053 -12.046875 70.5546875 C-13.733150480232737 72.6659044012514 -14.923748934136384 74.53836192382258 -16 77 C-18.310000000000002 77 -20.620000000000005 77 -23 77 C-22.721124770654683 71.56193302776637 -20.423039050360032 68.26141096541275 -17.375 63.953125 C-14.450438679649139 59.79891857904708 -14.354584884935676 55.94360513666294 -15 51 C-15.779984479622641 48.73095424109776 -16.618353661903214 46.48151163540882 -17.5 44.25 C-20.909154403868428 35.30337728476334 -20.3964027069255 27.483602302204844 -19.375 18.125 C-18.882744961379316 13.519380940028455 -19.36838852040914 10.318971563622867 -21 6 C-18.2107904556121 5.070263485204038 -16.211113852842075 4.8467644974089055 -13.3125 4.6875 C-8.07360596839105 4.225923433338416 -4.5366763790106575 2.60438829165426 0 0 Z " fill="#455D6A" transform="translate(90,51)"/>
<path d="M0 0 C5.0730898992039 4.9193599022583285 7.449777159293841 12.219732423982151 9 19 C9.659999999999997 19 10.32 19 11 19 C11 19.659999999999997 11 20.32 11 21 C11.990000000000002 21.33 12.979999999999997 21.659999999999997 14 22 C14 22.659999999999997 14 23.32 14 24 C17.630000000000003 24 21.259999999999998 24 25 24 C24.6738671875 24.8340234375 24.347734375 25.668046875 24.01171875 26.52734375 C21.508564879909642 32.97351876058667 19.119726855645567 39.41769029036375 17 46 C15 46 15 46 13.375 44.625 C12 43 12 43 12 41 C11.413476562500001 40.721562500000005 10.826953125000003 40.44312500000001 10.22265625 40.15625 C8.140815768173656 39.0732538969761 6.348648220183954 37.853901978877616 4.4375 36.5 C-2.8069248403027025 31.93869547092052 -11.539875555933914 31.825136115806288 -19.8828125 31.24609375 C-21.999999999999996 31 -21.999999999999996 31 -23 30 C-23.08758002888061 28.000350179300142 -23.10696576233996 25.9976389030914 -23.09765625 23.99609375 C-23.09443359375 22.78115234375 -23.0912109375 21.566210937500003 -23.087890625 20.314453125 C-23.07951171875 19.03505859375 -23.0711328125 17.755664062500003 -23.0625 16.4375 C-23.055732421875 14.512607421875003 -23.055732421875 14.512607421875003 -23.048828125 12.548828125 C-23.0369954545616 9.365839777069894 -23.020510682512498 6.182942376977941 -23 3 C-21.961015625 2.880117187499998 -20.92203125 2.760234374999996 -19.8515625 2.63671875 C-15.417325261399656 1.9036754742476134 -11.755947858900072 0.4040521630531799 -7.6484375 -1.35546875 C-4.34741620616451 -2.1588146400927073 -2.950208096262763 -1.5932128901453098 0 0 Z " fill="#3A5964" transform="translate(23,36)"/>
<path d="M0 0 C3.6299999999999955 1.6499999999999986 7.260000000000005 3.299999999999997 11 5 C11 14.240000000000002 11 23.480000000000004 11 33 C8.793125000000003 34.175625 6.586250000000007 35.35124999999999 4.3125 36.5625 C3.6271215820312506 36.93705322265626 2.941743164062501 37.31160644531249 2.235595703125 37.697509765625 C-0.5297144284926674 39.12364203028625 -2.627981306531396 40.00421550927443 -5.7578125 39.96875 C-10.070126043525292 38.105590141473385 -11.894520407601448 34.02013021871866 -14 30 C-17.60468747647738 20.843068780133308 -16.379436131615563 11.03964397345728 -13 2 C-8.365974754630116 -1.0893501635799225 -5.621310393246034 -0.4471496903718446 0 0 Z " fill="#231A12" transform="translate(117,41)"/>
<path d="M0 0 C9.393843261566738 4.025932826385741 12.659872551187998 9.207409783300378 16.6328125 18.38671875 C18.512948579019646 23.3556498159805 20.18159780143674 28.38190832938453 21.8125 33.4375 C22.12695068359375 34.40961425781251 22.4414013671875 35.381728515625 22.765380859375 36.38330078125 C23.05550048828125 37.307397460937494 23.3456201171875 38.231494140625 23.64453125 39.18359375 C23.90596923828125 40.01431396484375 24.1674072265625 40.8450341796875 24.436767578125 41.700927734375 C25 44 25 44 25 48 C16.75 48 8.5 48 0 48 C0 32.16 0 16.319999999999993 0 0 Z " fill="#64AED0" transform="translate(0,80)"/>
<path d="M0 0 C2.9537180415783553 2.054760376750167 4.624524939419302 3.5841461257269813 5.5625 7.12109375 C6.175598405219915 11.665685678692654 5.761319245008508 15.483217912076384 5 20 C4.4577514361563715 28.21715131363048 5.07324381692861 35.282422683924835 8 43 C7.360624999999999 42.360625 6.721249999999998 41.72125 6.0625 41.0625 C5.379941406249998 40.387675781249996 5.379941406249998 40.387675781249996 4.68359375 39.69921875 C3.4054203929465814 38.40918299520129 2.1518192155103293 37.09474536832971 0.91015625 35.76953125 C-7.13339711914638 27.340987292244904 -13.53268682742437 25.546062532027406 -25 25 C-23.93787671390222 17.549284410955863 -21.658758889400268 11.563422435183682 -18 5 C-17.340000000000003 5 -16.68 5 -16 5 C-16 4.340000000000003 -16 3.6799999999999997 -16 3 C-10.457926488286745 0.07187499267757858 -6.285603652254579 -2.0549088863139957 0 0 Z " fill="#30404A" transform="translate(66,55)"/>
<path d="M0 0 C12.21 0 24.42 0 37 0 C37 9.904899135446689 37 9.904899135446689 35 13 C32.42578125000001 14.003906249999998 32.42578125000001 14.003906249999998 29.3125 14.5625 C21.14176055609034 16.327301717598626 16.523550636201833 19.276634208049998 10.76953125 25.31640625 C7.872521273049836 28.072722585685476 4.123344245878982 31 0 31 C0 20.77 0 10.54 0 0 Z " fill="#769192" transform="translate(0,0)"/>
<path d="M0 0 C0 10.560000000000002 0 21.120000000000005 0 32 C-10.560000000000002 32 -21.120000000000005 32 -32 32 C-28.592589549867043 18.3703581994682 -21.72904756928969 10.45538176153886 -10 3 C-6.050115743519882 0.7324738527614159 -4.587723625178839 0 0 0 Z " fill="#CEC4B5" transform="translate(128,96)"/>
<path d="M0 0 C10.560000000000002 0 21.120000000000005 0 32 0 C32 8.58 32 17.16 32 26 C21.891759381482174 24.876862153498017 21.891759381482174 24.876862153498017 17.4375 20.375 C16.517109375000004 19.4713671875 15.596718750000008 18.567734375 14.6484375 17.63671875 C13.774453125000008 16.7666015625 12.900468750000002 15.896484375 12 15 C10.532084262090763 13.716187406477378 9.054237265293523 12.443553868360537 7.5625 11.1875 C4.685080816644302 8.67640523013106 2.1331718367281667 6.199757755092252 0 3 C0 2.01 0 1.02 0 0 Z " fill="#98A78A" transform="translate(96,0)"/>
<path d="M0 0 C2.969999999999999 0.495000000000001 2.969999999999999 0.495000000000001 6 1 C6 7.600000000000001 6 14.200000000000003 6 21 C-3.000000000000014 17.999999999999993 -3.000000000000014 17.999999999999993 -5 17 C-6.622689906711557 16.90388247939339 -8.249473056284273 16.870176477911826 -9.875 16.875 C-10.738671874999994 16.872421875 -11.602343750000003 16.86984375 -12.4921875 16.8671875 C-14.963094740737944 16.911337199928163 -14.963094740737944 16.911337199928163 -17.1328125 17.5703125 C-19 18 -19 18 -22 17 C-21.885750446013347 12.232677701829417 -21.756659370452553 8.966842528911592 -18.75 5.125 C-12.042589944867473 -0.05799867896605093 -8.39339213366793 -1.447136574770333 0 0 Z " fill="#4F4D3A" transform="translate(122,25)"/>
<path d="M0 0 C0 4.6200000000000045 0 9.239999999999995 0 14 C-7.920000000000002 14.495000000000005 -7.920000000000002 14.495000000000005 -16 15 C-16.659999999999997 13.019999999999996 -17.319999999999993 11.039999999999992 -18 9 C-16.41024293585889 5.8204858717177785 -13.200461618239189 4.885106902368946 -10.125 3.375 C-9.486914062500006 3.0501562500000006 -8.848828124999997 2.725312500000001 -8.19140625 2.390625 C-5.27625689678807 0.9421791835815441 -3.297537327171298 0 0 0 Z " fill="#4F4D3A" transform="translate(128,74)"/>
</svg>
