<?xml version="1.0" encoding="UTF-8"?>
<!-- Generator: visioncortex VTracer 0.6.0 -->
<svg version="1.1" xmlns="http://www.w3.org/2000/svg" width="128" height="128">
<path d="M0 0 C42.24 0 84.48 0 128 0 C128 42.24 128 84.48 128 128 C85.75999999999999 128 43.519999999999996 128 0 128 C0 85.75999999999999 0 43.519999999999996 0 0 Z " fill="#B67A54" transform="translate(0,0)"/>
<path d="M0 0 C3.527719937556448 3.1969961934105307 6.1199859099721365 6.564787099190049 8.8125 10.5 C13.074378523845866 16.477909006982294 17.655698470221694 20.590345195819907 25 22 C30.42385985081252 22.340871044228514 35.65495495462791 21.909794901339936 41 21 C41.81604998569475 22.915157900006868 42.62770632109513 24.832188341177158 43.4375 26.75 C43.88996093750001 27.81734375 44.342421875 28.8846875 44.80859375 29.984375 C49.437053971718115 41.69969070874223 47.83955900927245 55.6188963971544 43 67 C41.14664048009655 70.75994868659264 39.12267645749341 74.38667996280614 37 78 C34.68995171571191 82.16506468950992 34.68995171571191 82.16506468950992 33.7265625 86.734375 C32.784941429945434 90.96660733637434 30.795888659173556 93.54547526296314 28.1875 96.9375 C24.761457222831822 101.48040253712608 21.737044406924667 106.00441545309553 19 111 C8.589311646819624 112.21289573046761 8.589311646819624 112.21289573046761 5.21875 109.640625 C3.8750000000000284 107.75000000000004 3.8750000000000284 107.75000000000004 2.5703125 105.55859375 C0.6092315074258394 102.36330009294508 -1.7939926091383995 99.62858231185054 -4.25 96.8125 C-8.765296575812393 91.59254350402294 -8.765296575812393 91.59254350402294 -10.109375 88.19921875 C-10.550234375000002 87.11060546875 -10.550234375000002 87.11060546875 -11 86 C-12.485 85.505 -12.485 85.505 -14 85 C-18.2970358022038 81.17223363229812 -20.71657059516648 76.8304247049245 -21.2861328125 71.142578125 C-21.452023180813097 65.66987163095382 -21.2734549693919 60.23392123516075 -21.05078125 54.765625 C-20.851242115043746 48.12801436366098 -21.568237914527984 43.1558998556433 -26 37.9375 C-30.910462685980242 31.673665890810568 -31.74974922579454 25.811903223601192 -31 18 C-29.86111693228156 12.13992894246693 -27.324398364974613 8.835645175319481 -22.71875 5.12890625 C-19.187330755253086 2.809405882427594 -16.26692551870648 2.971059414388435 -12.1875 3.125 C-7.168002201441226 3.1858423975582895 -4.161277640756936 2.774185093837957 0 0 Z " fill="#604749" transform="translate(53,17)"/>
<path d="M0 0 C10.56 0 21.12 0 32 0 C31.312031885608988 4.815776800737074 30.77594292044621 8.077192541085907 29.1875 12.4375 C22.14437700890683 32.157854097847974 22.14437700890683 32.157854097847974 25.78125 51.9921875 C27.073029345446628 54.27473433895245 27.073029345446628 54.27473433895245 29.6875 56.875 C33.868060760100505 62.52440643256825 33.10558498941747 68.97724582547771 32.80078125 75.7734375 C32.400288407548125 86.35004398769416 32.43986861529026 93.76375930446255 40 102 C41.02287109375 103.01900390624999 41.02287109375 103.01900390624999 42.06640625 104.05859375 C43.81750639902813 105.81676905114543 45.24215815070081 107.55291058190534 46.6875 109.5625 C49.985676448258985 114.06155094993277 53.552324582894045 118.31590976427451 57.14453125 122.58203125 C59 125 59 125 60 128 C40.2 128 20.4 128 0 128 C0 85.75999999999999 0 43.519999999999996 0 0 Z " fill="#E0CBA1" transform="translate(0,0)"/>
<path d="M0 0 C0.7502343750000051 -0.04898437499999986 1.500468749999996 -0.09796874999999972 2.2734375 -0.1484375 C5.915731554709886 0.6623056949022015 7.3141252271100825 2.504489985570018 9.625 5.375 C10.645551712693596 7.919464974737423 11.469032211631564 10.255316006310036 12.1875 12.875 C14.331403865060565 20.526388352336284 17.97291591209995 24.879918247874954 23.625 30.375 C21.15905552130848 32.84094447869152 20.080007148499917 32.651284140389144 16.6875 33 C13.042780980109164 33.62666132447147 13.042780980109164 33.62666132447147 10.30078125 35.89453125 C7.779818432164639 41.93254463320567 7.763756924633384 49.387133268374726 9.131591796875 55.720703125 C9.624362676869652 58.371571510602124 9.739174942178977 60.76448442482619 9.72265625 63.45703125 C9.719433593749997 64.38837890625 9.716210937500001 65.3197265625 9.712890625 66.279296875 C9.704511718749998 67.23900390625 9.696132812499997 68.1987109375 9.6875 69.1875 C9.682988281250005 70.16654296875 9.678476562499995 71.1455859375 9.673828125 72.154296875 C9.662086836064972 74.5612611066799 9.645664191387866 76.96809856926821 9.625 79.375 C21.10581463567459 81.97893661089066 21.10581463567459 81.97893661089066 32.5 80.3125 C37.255609152430736 78.88581725427078 41.758230168998196 79.73417977314212 46.625 80.375 C47.34765625 82.51562499999997 47.34765625 82.51562499999997 47.625 85.375 C46.18359374999997 88.17187500000004 46.18359374999997 88.17187500000004 44.0625 91.125 C42.960351562499994 92.69121093749999 42.960351562499994 92.69121093749999 41.8359375 94.2890625 C41.106328125000005 95.307421875 40.37671875000001 96.32578125 39.625 97.375 C38.47154046376474 99.07819344286652 37.32468686427896 100.78589882408683 36.1875 102.5 C35.7144140625 103.203828125 35.241328124999995 103.90765625 34.75390625 104.6328125 C33.577072292642356 106.37829039711013 33.577072292642356 106.37829039711013 32.625 108.375 C22.214311646819624 109.58789573046761 22.214311646819624 109.58789573046761 18.84375 107.015625 C17.50000000000003 105.12500000000004 17.50000000000003 105.12500000000004 16.1953125 102.93359375 C14.234231507425825 99.73830009294507 11.831007390861615 97.00358231185055 9.375 94.1875 C4.859703424187607 88.96754350402294 4.859703424187607 88.96754350402294 3.515625 85.57421875 C3.0747656249999977 84.48560546875 3.0747656249999977 84.48560546875 2.625 83.375 C1.1400000000000006 82.88 1.1400000000000006 82.88 -0.375 82.375 C-4.672035802203794 78.54723363229812 -7.0915705951664805 74.20542470492451 -7.6611328125 68.517578125 C-7.827023180813097 63.04487163095379 -7.648454969391899 57.60892123516075 -7.42578125 52.140625 C-7.226242115043746 45.50301436366098 -7.943237914527984 40.5308998556433 -12.375 35.3125 C-17.285462685980242 29.048665890810568 -18.12474922579454 23.186903223601192 -17.375 15.375 C-16.23611693228156 9.51492894246693 -13.699398364974613 6.210645175319481 -9.09375 2.50390625 C-6.174942286396018 0.5867802744737496 -3.4131238117550566 0.15143552748401135 0 0 Z " fill="#4C5967" transform="translate(39.375,19.625)"/>
<path d="M0 0 C2.6400000000000006 0.6599999999999966 5.280000000000001 1.3199999999999932 8 2 C17.900000000000006 1.5049999999999955 17.900000000000006 1.5049999999999955 28 1 C28 20.799999999999997 28 40.599999999999994 28 61 C9.519999999999996 61 -8.960000000000008 61 -28 61 C-26.22878980786318 55.686369423589525 -24.89927589776228 53.183807587464315 -21.5625 48.9375 C-16.14637783599889 42.426926056871054 -16.14637783599889 42.426926056871054 -13.55078125 34.6015625 C-12.907798843685214 30.397095984948663 -11.448802970695354 27.957843667854974 -9.1875 24.375 C-4.499363580650112 16.657172390511107 -2.1824210271425812 8.729684108570325 0 0 Z " fill="#B09498" transform="translate(100,67)"/>
<path d="M0 0 C10.56 0 21.12 0 32 0 C31.312031885608988 4.815776800737074 30.77594292044621 8.077192541085907 29.1875 12.4375 C22.14437700890683 32.157854097847974 22.14437700890683 32.157854097847974 25.78125 51.9921875 C27.073029345446628 54.27473433895245 27.073029345446628 54.27473433895245 29.6875 56.875 C32.91682263993379 61.238949513424046 33.32892196496247 65.62760790561306 33 71 C32.34 71.99 31.68 72.98 31 74 C30.4805078125 73.2768359375 29.961015625 72.553671875 29.42578125 71.80859375 C26.639543772514102 68.582660181059 23.691686770456442 66.4388115652471 20.1875 64.0625 C16.3087688855897 61.37365254234044 12.516256406247372 58.723179915727975 9 55.5625 C5.738026142524537 52.567927623797566 5.738026142524537 52.567927623797566 0 50 C0 33.5 0 17 0 0 Z " fill="#CBBBC3" transform="translate(0,0)"/>
<path d="M0 0 C13.530000000000001 0 27.060000000000002 0 41 0 C41 21.12 41 42.24 41 64 C36.21740589970612 64 34.91833931113625 63.943331490546385 31.529052734375 60.850830078125 C24.48555412300098 52.32508155939174 21.586049620978287 40.42371167349029 18.2578125 30.095703125 C17.891718749999995 28.99291015625 17.525625000000005 27.8901171875 17.1484375 26.75390625 C16.8305224609375 25.76720947265625 16.512607421875003 24.7805126953125 16.18505859375 23.763916015625 C14.421445558291566 19.650635592381313 11.805790604020189 16.784585588124912 8.625 13.6875 C0 4.857142857142858 0 4.857142857142858 0 0 Z " fill="#E3B4A8" transform="translate(87,0)"/>
<path d="M0 0 C0 0.6599999999999966 0 1.3200000000000003 0 2 C0.9899999999999949 2.3299999999999983 1.980000000000004 2.6599999999999966 3 3 C5.862955093083087 7.347095693176328 5.50281604629842 11.986413915169464 5 17 C4.545390960322365 18.555656366989354 4.044127124753857 20.098349488842246 3.5 21.625 C1.134616377537668 28.554574555946004 1.7580696615763571 35.77793137890899 2 43 C-6.94205185032223 47.18399710033596 -15.567769909545966 47.00515237765629 -25 44 C-26 43 -26 43 -26.09765625 41.0380859375 C-26.086054687500003 40.195361328125 -26.074453124999998 39.352636718750006 -26.0625 38.484375 C-26.054765625 37.5626953125 -26.047031250000003 36.641015624999994 -26.0390625 35.69140625 C-26.013228299916797 33.74609098373463 -25.987189992122516 31.80077841627846 -25.9609375 29.85546875 C-25.953203125 28.9286328125 -25.945468750000003 28.001796874999997 -25.9375 27.046875 C-25.925898437500003 26.199638671874993 -25.914296874999998 25.35240234375 -25.90234375 24.4794921875 C-26.004376794777258 21.888873180605486 -26.451742149731857 19.530036346462936 -27 17 C-27.543051982475085 10.013427379310912 -27.204249550735817 4.294061617516789 -24 -2 C-16.672863237766038 -8.01871948326361 -6.988089385289811 -4.3326154188796835 0 0 Z " fill="#1B2331" transform="translate(74,56)"/>
<path d="M0 0 C6.279928937673521 1.0466548229455839 6.951991537491355 1.3833813279483849 10.9375 5.75 C15.581522038348954 10.630748798924458 19.811341643196045 14.538531586464856 26 17.375 C33.021790863155296 21.178470050875788 36.59428126325283 26.290245197345385 39.37109375 33.66796875 C40 36 40 36 40 40 C26.799999999999997 40 13.599999999999998 40 0 40 C0 26.799999999999997 0 13.599999999999994 0 0 Z " fill="#E2ECCD" transform="translate(0,88)"/>
<path d="M0 0 C0 11.879999999999995 0 23.760000000000005 0 36 C-11.549999999999997 36 -23.099999999999994 36 -35 36 C-33.84436475530249 26.754918042419988 -31.44647305790025 18.6033716117864 -24.25 12.25 C-21 10 -21 10 -19 10 C-19 9.340000000000003 -19 8.680000000000007 -19 8 C-17.680000000000007 7.670000000000002 -16.36 7.340000000000003 -15 7 C-15 6.340000000000003 -15 5.680000000000007 -15 5 C-10.151479548533558 2.3542337637936868 -5.687546866783549 0 0 0 Z " fill="#E9E3DF" transform="translate(128,92)"/>
<path d="M0 0 C9.430447771157148 1.7184999470010922 9.430447771157148 1.7184999470010922 18.6875 0.0625 C23.443109152430736 -1.3641827457292237 27.945730168998182 -0.5158202268578975 32.8125 0.125 C33.53515625 2.265625 33.53515625 2.265625 33.8125 5.125 C32.37109375 7.921875 32.37109375 7.921875 30.25 10.875 C29.147851562499994 12.441210937500003 29.147851562499994 12.441210937500003 28.0234375 14.0390625 C27.293828125000005 15.057421875000003 26.56421875000001 16.075781250000006 25.8125 17.125 C24.65904046376474 18.82819344286652 23.51218686427896 20.53589882408683 22.375 22.25 C21.901914062499998 22.953828125 21.428828124999995 23.657656250000002 20.94140625 24.3828125 C19.76457229264234 26.128290397110177 19.76457229264234 26.128290397110177 18.8125 28.125 C8.401811646819631 29.337895730467608 8.401811646819631 29.337895730467608 5.03125 26.765625 C3.687500000000007 24.875000000000014 3.687500000000007 24.875000000000014 2.3828125 22.69140625 C0.4101094113795156 19.467361649941154 -1.9849746437269786 16.67334427430356 -4.4375 13.8125 C-11.227085296889726 5.7781573986804915 -11.227085296889726 5.7781573986804915 -11.0625 3.0625 C-10.1875 1.125 -10.1875 1.125 -8.51953125 -0.05078125 C-5.3678774295860805 -1.1646823490072649 -3.266409914364864 -0.6322083705222354 0 0 Z " fill="#506497" transform="translate(53.1875,99.875)"/>
<path d="M0 0 C3.527719937556448 3.196996193410534 6.1199859099721365 6.564787099190042 8.8125 10.5 C13.074378523845866 16.4779090069823 17.655698470221694 20.5903451958199 25 22 C30.423859850812505 22.340871044228514 35.654954954627925 21.90979490133993 41 21 C41.81604998569475 22.915157900006868 42.62770632109513 24.832188341177158 43.4375 26.75 C43.88996093750001 27.81734375 44.342421875 28.8846875 44.80859375 29.984375 C46.58453472863346 34.47954364100009 47.12017920972983 37.90494638269408 47.0625 42.75 C47.05347656250001 43.73484375 47.04445312499999 44.7196875 47.03515625 45.734375 C47.023554687499995 46.48203125 47.01195312499999 47.2296875 47 48 C45.32767579131033 45.82875033678413 43.900859627976104 43.8107320170453 42.625 41.375 C40.04170775934324 37.59941903288629 36.805946580319784 37.16860437770107 32.43359375 36.25390625 C31.10219107547333 36.01983358186817 29.770124031550864 35.78951604841124 28.4375 35.5625 C6.148901899186058 31.526546480079965 6.148901899186058 31.526546480079965 1 24.125 C-2.2275798593040292 18.066673870650632 -6 9.881911084350804 -6 3 C-4.020000000000003 2.009999999999998 -2.039999999999999 1.0199999999999996 0 0 Z " fill="#795F47" transform="translate(53,17)"/>
<path d="M0 0 C6.851640942748517 5.481312754198818 8.962723769513204 13.86952085916504 11.66015625 21.9140625 C16.03976163537044 36.77387869391699 16.03976163537044 36.77387869391699 26 48 C27.655495312089627 48.38499890978829 29.322243302330236 48.72793134632382 31 49 C31 50.31999999999999 31 51.64 31 53 C9.32664325137982 56.21776216758656 9.32664325137982 56.21776216758656 3 52 C2.6640625 49.48828125 2.6640625 49.48828125 2.625 46.3125 C2.3616135034722703 40.77525830555661 1.2614193169195715 36.419318250101576 -0.6875 31.3125 C-3.1057750995007183 24.795579877407143 -2.9857540255848534 20.577810209749828 -1 14 C-0.28342099204724036 9.349700812973254 0.15188798431978512 4.7085275139133635 0 0 Z " fill="#B69082" transform="translate(97,15)"/>
<path d="M0 0 C3.502921124715648 1.3451072444829606 6.233630953781372 2.7371137295725703 9.1875 5.0625 C11.963099074308836 7.237682487393769 11.963099074308836 7.237682487393769 15 9 C17.100744794025452 15.331411393104489 17.270191903356846 21.125639886664942 17 27.75 C16.9935546875 28.6819921875 16.987109375000003 29.613984375 16.98046875 30.57421875 C16.71900009710545 37.32398360435195 16.71900009710545 37.32398360435195 13.125 40.703125 C10 42 10 42 7 41 C0.6025281455838893 34.09480599004378 -0.7727427429199025 27.57212955060578 -0.615234375 18.369140625 C-0.5567826791236499 17.016892568297564 -0.49752852700168404 15.664678976153795 -0.4375 14.3125 C-0.40229389365607204 12.917397196076294 -0.37037142354997243 11.522207509911524 -0.341796875 10.126953125 C-0.2599786824757402 6.749030605069777 -0.14537961961307388 3.3756828158508227 0 0 Z " fill="#795F47" transform="translate(32,61)"/>
<path d="M0 0 C7.590000000000003 0 15.18 0 23 0 C22.793750000000003 2.908125 22.5875 5.81625 22.375 8.8125 C22.30031494140625 10.181121826171875 22.30031494140625 10.181121826171875 22.22412109375 11.577392578125 C22.01638123970863 13.846609304934585 21.7357862239749 15.840058662509236 21 18 C17.055683996158848 21.01791325365944 13.85263682500517 21.303289801562823 9 21 C2.0638522764421623 20.81972883391743 -1.5859747622366989 22.905069894318856 -7 27 C-6.085139049362379 19.99409114116979 -4.801218180953672 13.718943188466493 -1.90234375 7.25390625 C-0.7634987111798495 4.607820028527725 -0.7634987111798495 4.607820028527725 0 0 Z " fill="#AE8989" transform="translate(32,0)"/>
<path d="M0 0 C1.223095585525293 1.8346433782879359 2.424259646001346 3.6844582958888736 3.5859375 5.55859375 C4.176328124999998 6.508632812499997 4.766718750000003 7.458671874999993 5.375 8.4375 C5.960234374999999 9.384960937499997 6.545468749999998 10.332421874999994 7.1484375 11.30859375 C8.911730129898984 13.87169210865062 10.770211210196166 15.846481651698511 13 18 C13.92256686306198 19.166852173281214 14.818961812454575 20.354892850349742 15.6875 21.5625 C18.985676448258978 26.061550949932766 22.55232458289405 30.315909764274508 26.14453125 34.58203125 C28 37 28 37 29 40 C22.4 40 15.799999999999997 40 9 40 C8.587499999999999 38.473749999999995 8.174999999999997 36.94749999999999 7.75 35.375 C6.189974681040653 30.21603254986003 4.164137517166566 26.275800632302932 0.41015625 22.328125 C-2.348365482481203 19.39435600451411 -3.8632010405024353 17.72503448533709 -4.625 13.6875 C-3.7951599433304395 8.79144366564961 -2.0334305456247215 4.5116740231048595 0 0 Z " fill="#9FADCF" transform="translate(31,88)"/>
<path d="M0 0 C2.1075472943323597 2.107547294332356 2.7213916662874738 3.5199076586256766 3.8125 6.25 C5.194587184529482 9.523364384411934 6.197367970385347 11.211137828784324 8.6875 13.875 C11.916822639933791 18.238949513424046 12.328921964962461 22.627607905613075 12 28 C11.340000000000003 28.989999999999995 10.68 29.980000000000004 10 31 C9.220761718750001 29.91525390625 9.220761718750001 29.91525390625 8.42578125 28.80859375 C5.639543772514109 25.582660181059012 2.6916867704564353 23.438811565247093 -0.8125 21.0625 C-4.691231114410304 18.373652542340437 -8.483743593752626 15.723179915727975 -12 12.5625 C-14.883585341404702 10.099437520883484 -17.541249304341807 8.51847591516701 -21 7 C-20.67 6.009999999999998 -20.34 5.019999999999996 -20 4 C-17.2902600084897 3.1308381159306578 -14.783599719936973 2.527554338293143 -12 2 C-10.9674609375 1.7898828124999966 -9.934921875 1.5797656250000003 -8.87109375 1.36328125 C-2.5794635494609537 0.1746098402712022 -2.5794635494609537 0.1746098402712022 0 0 Z " fill="#B2AC9E" transform="translate(21,43)"/>
<path d="M0 0 C1.419106522056353 0.2577437059290304 2.8352489905409755 0.5318316545750719 4.25 0.8125 C5.038906249999997 0.9633203125000023 5.827812499999993 1.1141406250000045 6.640625 1.26953125 C9.259041088263515 2.08019980712794 10.911045120729284 3.251218965748137 13 5 C12.493398437499991 6.0518749999999955 12.493398437499991 6.0518749999999955 11.9765625 7.125 C11.530546874999999 8.073750000000004 11.084531249999998 9.022500000000008 10.625 10 C10.184140624999998 10.928124999999994 9.743281249999995 11.856250000000003 9.2890625 12.8125 C7.623714857914791 16.718183087252413 7.623714857914791 16.718183087252413 6 24 C-0.9300000000000068 24 -7.859999999999999 24 -15 24 C-13.23742551551743 18.71227654655229 -11.93677161162114 16.224984381603065 -8.625 12 C-5.576049623996937 8.08429115590242 -2.707561708588443 4.1540672789302135 0 0 Z " fill="#9FADCF" transform="translate(87,104)"/>
<path d="M0 0 C0.6600000000000001 0.9899999999999949 1.3200000000000003 1.980000000000004 2 3 C2.9068554687500026 4.092480468749997 2.9068554687500026 4.092480468749997 3.83203125 5.20703125 C7.091944483301717 9.495713945487665 9.092641205171908 12.315302528170122 8.7890625 17.8359375 C8.02278817456233 21.3017470636768 7.133858018151265 24.63769375569862 6 28 C4.331932185134427 26.334735660453532 2.6654505659723498 24.667881880667196 1 23 C0.4779296875000014 22.486953125 -0.04414062500000071 21.97390625 -0.58203125 21.4453125 C-2.9411442422446292 18.91394681308354 -3.9719709080360985 17.16194586468032 -4.5625 13.75 C-3.8198510999305633 8.799007332870417 -2.048463843713197 4.545029153238659 0 0 Z " fill="#B2AC9E" transform="translate(31,88)"/>
<path d="M0 0 C0.990000000000002 0.3299999999999983 1.980000000000004 0.6599999999999966 3 1 C5.199122535326808 7.279073554814687 5.26900274916332 13.15479466706472 5 19.75 C4.990332031249999 21.147988281250008 4.990332031249999 21.147988281250008 4.98046875 22.57421875 C4.71900009710545 29.323983604351938 4.71900009710545 29.323983604351938 1.125 32.703125 C-2 34 -2 34 -5 33 C-5.467532229455159 27.506496303901912 -4.414575476091898 24.040881695482938 -1.97265625 19.11328125 C0.026670622894968687 14.769362220939044 0.11022737101295377 11.022737101295462 0.0625 6.25 C0.05347656250000199 5.079531250000002 0.04445312500000398 3.9090625000000045 0.03515625 2.703125 C0.017753906250000284 1.3650781249999966 0.017753906250000284 1.3650781249999966 0 0 Z " fill="#604749" transform="translate(44,69)"/>
</svg>
