<?xml version="1.0" encoding="UTF-8"?>
<!-- Generator: visioncortex VTracer 0.6.0 -->
<svg version="1.1" xmlns="http://www.w3.org/2000/svg" width="128" height="128">
<path d="M0 0 C42.24 0 84.48 0 128 0 C128 42.24 128 84.48 128 128 C85.75999999999999 128 43.519999999999996 128 0 128 C0 85.75999999999999 0 43.519999999999996 0 0 Z " fill="#97A679" transform="translate(0,0)"/>
<path d="M0 0 C33.33 0 66.66 0 101 0 C101 12.540000000000001 101 25.080000000000002 101 38 C95.68477344251639 38.66440331968545 90.90991138698264 39.06918108835114 85.625 39.1875 C78.7243318511426 39.6700642062138 72.75655939534825 40.60649312622498 68 46 C67.06347794575323 48.94895549174447 66.74498927993906 51.67930537147128 66.4609375 54.7578125 C65.57106060392384 61.01711609104416 62.89073014697615 67.33879134538032 58.1796875 71.67578125 C51.74142992832205 75.4683580786605 45.06460058542399 73.75359030789114 38.1875 72.0625 C37.24970703125 71.80533203125 37.24970703125 71.80533203125 36.29296875 71.54296875 C31.264548931116956 70.35225264297318 26.11179371942731 69.73248263662525 21 69 C20.67 68.01 20.340000000000003 67.02 20 66 C19.340000000000003 66 18.68 66 18 66 C18 65.34 18 64.68 18 64 C16.515 63.505 16.515 63.505 15 63 C8.61057464189988 55.77782963077309 5.01493191548424 47.044795746452735 2 38 C1.3399999999999999 38 0.6799999999999997 38 0 38 C-4.378513635144294 32.11570484642803 -3.3630262138600386 27.200019908224117 -3 20 C-2.0100000000000016 13.399999999999999 -1.0199999999999996 6.799999999999999 0 0 Z " fill="#9ACBA8" transform="translate(27,0)"/>
<path d="M0 0 C0 20.129999999999995 0 40.260000000000005 0 61 C-42.24000000000001 61 -84.48 61 -128 61 C-128 48.46000000000001 -128 35.92 -128 23 C-119.406164083838 24.227690845165995 -115.89355464865535 26.306600976919583 -110.59765625 33.06640625 C-109.01025861535955 35.21190818739311 -107.49328590357385 37.38498935798637 -105.98046875 39.5859375 C-105.00013671875 40.7808984375 -105.00013671875 40.7808984375 -104 42 C-103.01 42 -102.02 42 -101 42 C-100.360625 41.19562500000001 -99.72125 40.39125 -99.0625 39.5625 C-97 37 -97 37 -95.0625 35.875 C-91.66593535084075 36.080852402979346 -90.24126094827362 38.594744348194155 -88 41 C-84.08783313038059 43.882649272351145 -80.86562542586529 44.83781248580449 -76 45 C-71.31957222329237 43.979582412645726 -67.14366220544571 42.12653388644446 -62.9375 39.875 C-58.9106297206429 37.765686996527236 -55.51415374835513 37.42991940460524 -51 37 C-45.97440112407499 35.89266465445721 -42.61736541302815 34.7125592396868 -39 31 C-38.206237312374554 29.675845293113667 -37.452297967925006 28.32747096337542 -36.7265625 26.96484375 C-33.9758390520027 21.915076415377698 -31.034823554880504 17.008447040086907 -28 12.125 C-27.492109375 11.28453125 -26.984218749999997 10.444062500000001 -26.4609375 9.578125 C-25.958203124999997 8.771171874999993 -25.455468749999994 7.964218750000001 -24.9375 7.1328125 C-24.492773437500006 6.409809570312504 -24.048046874999997 5.686806640624994 -23.58984375 4.94189453125 C-17.112529687134085 -2.9697387697382425 -10.6146411985126 0 0 0 Z " fill="#81995D" transform="translate(128,67)"/>
<path d="M0 0 C10.89 0 21.78 0 33 0 C33.99000000000001 2.97 34.97999999999999 5.94 36 9 C36.31324218750001 9.9191015625 36.62648437499999 10.838203125 36.94921875 11.78515625 C39.41873283466877 19.402757897417438 39.95238227271089 26.023647707555295 37.19140625 33.6796875 C34.94407811423015 38.056451148023896 31.648344875900534 41.72346097132499 28 45 C27.340000000000003 45 26.680000000000007 45 26 45 C26 45.66 26 46.32 26 47 C22.20735635638475 49.5284290957435 19.37769241329336 49.55187263813238 15 49 C5.083964109133788 46.966796002208945 -2.5720673793482405 39.28256408479909 -8.259033203125 31.213623046875 C-9.856485854039086 28.642274170593073 -10.985117714661818 26.62009522242428 -11.05859375 23.55859375 C-10.853632812500003 22.8586328125 -10.648671874999998 22.158671875 -10.4375 21.4375 C-10.21578125 20.6756640625 -9.994062499999998 19.913828125 -9.765625 19.12890625 C-7.937528246554095 14.045678032510109 -5.368988701075523 9.949058141388406 -2.0859375 5.7109375 C-0.7136686161332051 3.747473402232682 -0.7136686161332051 3.747473402232682 0 0 Z " fill="#C4F1E1" transform="translate(52,0)"/>
<path d="M0 0 C8.593835916162012 1.227690845165995 12.106445351344643 3.306600976919583 17.40234375 10.06640625 C18.989741384640467 12.21190818739312 20.506714096426137 14.384989357986342 22.01953125 16.5859375 C22.6730859375 17.382578124999995 23.326640625 18.179218750000004 24 19 C24.99 19 25.98 19 27 19 C27.639375 18.195625000000007 28.27875 17.39125 28.9375 16.5625 C31 14 31 14 32.9375 12.875 C36.33406464915925 13.080852402979346 37.75873905172637 15.594744348194155 40 18 C43.91216686961941 20.882649272351145 47.13437457413471 21.83781248580449 52 22 C56.68042777670764 20.979582412645726 60.856337794554285 19.126533886444463 65.0625 16.875 C69.04466411063352 14.775750509082542 72.529708663633 14.319306524026217 77 14 C76.835 14.928124999999994 76.67 15.856250000000003 76.5 16.8125 C75.65111217199123 22.742587827089793 75.09307195173723 29.279215855211675 77 35 C76.67 35.99000000000001 76.34 36.97999999999999 76 38 C50.92 38 25.839999999999996 38 0 38 C0 25.460000000000008 0 12.920000000000002 0 0 Z " fill="#587D5B" transform="translate(0,90)"/>
<path d="M0 0 C0 9.57 0 19.14 0 29 C-8.187500000000583 29.37500000000003 -8.187500000000583 29.37500000000003 -10.739013671875 29.47802734375 C-16.62676888086108 29.760529899003586 -16.62676888086108 29.760529899003586 -22 32 C-23.126179206485503 34.26612208366113 -23.126179206485503 34.26612208366113 -24 37 C-25.3819583313593 39.26364774676654 -26.785268133507998 41.4794804216386 -28.25 43.6875 C-31.041491459521154 47.939655595317106 -33.727902387008555 52.204761214731136 -36.25 56.625 C-39.25859911346234 61.65306975126583 -42.1302332144699 64.56129420831635 -47.8125 66.25 C-49.39031249999999 66.62125 -49.39031249999999 66.62125 -51 67 C-52.13097765311072 63.60706704066784 -51.7381008125293 62.41620984177412 -51 59 C-50.47505569624073 51.6810649956641 -50.69132363664632 45.61735272670737 -54 39 C-54.989999999999995 38.34 -55.980000000000004 37.68000000000001 -57 37 C-57 36.34 -57 35.68000000000001 -57 35 C-55.236562500000005 35.09281250000001 -55.236562500000005 35.09281250000001 -53.4375 35.1875 C-49.13193827833548 35.11915775044977 -45.3781703475712 34.87184036573382 -42 32 C-37.99683112621689 26.229915209512626 -35.882962211999796 20.588315397647904 -35.1875 13.625 C-34.753557586436386 10.064805789795344 -34.51202351903861 8.513981543968015 -31.95703125 5.94921875 C-29.689949008174068 4.439032010214518 -27.461257985411763 3.1617505043081664 -25 2 C-24.340000000000003 1.6700000000000017 -23.680000000000007 1.3400000000000034 -23 1 C-21.381185215741937 0.7650107571238323 -19.754005544451374 0.586235288841209 -18.125 0.4375 C-16.829492187499994 0.31181640625000284 -16.829492187499994 0.31181640625000284 -15.5078125 0.18359375 C-10.345245554803583 -0.08660741528311178 -5.169633075311538 0 0 0 Z " fill="#93B78B" transform="translate(128,38)"/>
<path d="M0 0 C8.25 0 16.5 0 25 0 C24.097906573448668 4.5104671327566495 23.586068458292964 5.995386590928112 21.0625 9.5 C17.432993315282516 14.565257486288775 14.167455979517278 20.570910064050096 15 27 C16.87284505216259 30.433549262298072 19.343335293857066 33.14930921981292 22 36 C22.626484375000004 36.7283203125 23.25296875 37.456640625 23.8984375 38.20703125 C30.269035079124038 45.21468858703644 37.65777853785423 48.18763291633515 47 49 C46.416611464894174 52.93787261196431 44.7572839465946 55.17201646503118 42 58 C35.22092354979113 62.36482988421467 26.107609078379213 66.4090325300804 18 66 C18 65.34 18 64.68 18 64 C16.515 63.505 16.515 63.505 15 63 C8.61057464189988 55.77782963077309 5.01493191548424 47.044795746452735 2 38 C1.3399999999999999 38 0.6799999999999997 38 0 38 C-5.528238374050563 30.57058696560522 -3.189712792839959 20.79484133758611 -1.96142578125 12.1884765625 C-1.3360439433614957 8.121178387195515 -0.6630732679005824 4.061323765891071 0 0 Z " fill="#C6D5C1" transform="translate(27,0)"/>
<path d="M0 0 C1.0598510742187486 0.13015502929687273 1.0598510742187486 0.13015502929687273 2.14111328125 0.262939453125 C2.9209960937499986 0.3538183593749977 3.700878906249997 0.44469726562499545 4.50439453125 0.538330078125 C5.720624999999998 0.705585937500004 5.720624999999998 0.705585937500004 6.96142578125 0.876220703125 C8.1660546875 1.0144726562500068 8.1660546875 1.0144726562500068 9.39501953125 1.155517578125 C15.231767167777633 1.881505134233464 19.530747808157713 2.5968641725189343 23.77392578125 6.938720703125 C28.62069464219516 13.750395859047941 28.543477751117877 20.070607143090655 28.08642578125 28.188720703125 C28.052910156249993 28.923486328124994 28.01939453125 29.658251953125003 27.98486328125 30.415283203125 C27.71142578125 32.251220703125 27.71142578125 32.251220703125 26.08642578125 35.188720703125 C23.693057263770925 36.25498239446844 21.361808512961602 36.85104266416981 18.80908203125 37.438720703125 C15.99423327334057 38.21411663069833 13.942727235197424 39.29473268262153 11.46142578125 40.813720703125 C6.651711816044177 43.60318574445702 2.633312316846329 44.94029145602087 -3.01513671875 43.743408203125 C-7.687305523508634 42.22101612067556 -10.78803386299743 40.07196781178729 -13.91357421875 36.188720703125 C-15.50519482568842 31.641400380324825 -14.31971893100377 27.65002933613232 -13.35107421875 23.063720703125 C-13.17197509765625 22.212939453125003 -12.992875976562502 21.362158203125006 -12.808349609375 20.485595703125 C-11.385304180272392 14.242095757577957 -7.797127430816666 0.768969061497998 0 0 Z " fill="#6B9484" transform="translate(49.91357421875,68.811279296875)"/>
<path d="M0 0 C8.91 0 17.82 0 27 0 C27 8.890510948905101 27 8.890510948905101 26.0625 13.6875 C25.056102861756337 19.21916538922741 24.615871734697006 24.67264547187426 24.34375 30.28515625 C24 33.00000000000001 24 33.00000000000001 22 36 C21.34 36 20.68 36 20 36 C19.7525 36.5775 19.505 37.155 19.25 37.75 C17.817000115224825 40.32939979259531 16.21575323515683 42.061215919237775 14 44 C13.34 44 12.68 44 12 44 C12 44.66 12 45.32 12 46 C10.565709989306482 46.67354499453951 9.127429433882927 47.33859700644612 7.6875 48 C6.8869921875 48.37125 6.0864843749999995 48.7425 5.26171875 49.125 C3 50 3 50 0 50 C0 33.5 0 17 0 0 Z " fill="#70986E" transform="translate(0,0)"/>
<path d="M0 0 C20.351294365702238 6.78376478856741 20.351294365702238 6.78376478856741 27 17 C28.269243978316602 21.018759564866627 28.648468320983685 24.932738709763385 28.9375 29.125 C29.085419921875 30.69314453125 29.085419921875 30.69314453125 29.236328125 32.29296875 C29.425746808523417 34.30411208781237 29.599664591641815 36.316795561844856 29.755615234375 38.330810546875 C29.963964586953047 40.60641841074691 30.29723502468183 42.78469450324393 30.71875 45.02734375 C31 48 31 48 30.00390625 49.99609375 C28.669270833333332 51.33072916666666 27.334635416666668 52.66536458333334 26 54 C22.285233036499854 51.5234886909999 20.13471785892982 48.81603183759768 17.75 45.125 C13.143733681056903 38.31617402199896 8.06598449909476 34.613196899818945 0 33 C0 22.11 0 11.219999999999999 0 0 Z " fill="#818C4D" transform="translate(0,57)"/>
<path d="M0 0 C0 13.530000000000001 0 27.060000000000002 0 41 C-11.549999999999997 41 -23.099999999999994 41 -35 41 C-33.89856801909308 34.39140811455847 -33.89856801909308 34.39140811455847 -30.5625 31.25 C-25.797170308517067 26.25408983957435 -22.832552460206713 20.598656071777867 -19.765869140625 14.4716796875 C-16.798695123368347 8.757852370897822 -13.200100940046028 3.763828920819833 -7.07861328125 1.193115234375 C-4.709391629497929 0.4813699744179729 -2.4799116596064152 0 0 0 Z " fill="#656B2B" transform="translate(128,87)"/>
<path d="M0 0 C9.89906919853331 1.414152742647616 13.662535279067708 4.969257816760205 19.625 12.8125 C21.09967913910201 14.863344654723619 22.558983581828972 16.925364117809437 24 19 C24.87205078125 20.252968750000008 24.87205078125 20.252968750000008 25.76171875 21.53125 C34 33.650031486146105 34 33.650031486146105 34 38 C22.78 38 11.559999999999999 38 0 38 C0 25.460000000000008 0 12.920000000000002 0 0 Z " fill="#474E14" transform="translate(0,90)"/>
<path d="M0 0 C2.3318024972729177 2.8617576102895015 3.6973661664111006 5.557324868372206 5 9 C5.4950000000000045 9.495000000000005 5.4950000000000045 9.495000000000005 6 10 C6.640498187534575 18.806850078600363 4.434263731234921 27.03682853640936 -0.56640625 34.3671875 C-3.0891421013432705 37.24049427346455 -5.319333988502791 38.09491819389413 -9 39 C-14.417737331448762 39.03541004791796 -19.49546506137223 37.97211989038658 -24.70703125 36.54296875 C-29.735451068883037 35.352252642973184 -34.88820628057268 34.732482636625264 -40 34 C-40.495 32.515 -40.495 32.515 -41 31 C-40.45061767578125 30.808896484374998 -39.9012353515625 30.617792968749995 -39.335205078125 30.4208984375 C-36.82391887699643 29.540823020256838 -34.318296588062125 28.64558010806013 -31.8125 27.75 C-30.948183593750002 27.449648437500002 -30.083867187499997 27.149296875000005 -29.193359375 26.83984375 C-22.61283332748492 24.46984586315549 -17.8289947090052 22.05866160419538 -14.3125 15.75 C-13.11328125 13.609375000000014 -13.11328125 13.609375000000014 -12 12 C-11.340000000000003 12 -10.680000000000007 12 -10 12 C-10 11.340000000000003 -10 10.68 -10 10 C-8.38025441097939 8.287697520178213 -6.70410540149706 6.628367383652744 -5 5 C-4.071875000000006 4.071874999999999 -3.143749999999997 3.143749999999997 -2.1875 2.1875 C-1.4656250000000028 1.4656250000000028 -0.7437500000000057 0.7437499999999986 0 0 Z " fill="#A6C7B0" transform="translate(88,35)"/>
<path d="M0 0 C6.17083254461798 2.197972127096378 8.647600699879504 5.797289762677991 11.95703125 11.1875 C13 15 13 15 12.3037109375 16.997314453125 C11.005267906368204 19.208084561394145 9.585492721524943 21.250045997481607 8.0625 23.3125 C7.018132324751917 24.81152634145417 5.975155051024458 26.311522362030402 4.93359375 27.8125 C4.424252929687498 28.530507812500005 3.9149121093749955 29.248515624999996 3.39013671875 29.98828125 C1.6455004836606264 32.51300948623752 0.12592873118016712 35.137104489779645 -1.375 37.8125 C-4.328688381497884 42.76897423561897 -7.2260744093900655 45.58977713371431 -12.8125 47.25 C-13.864374999999995 47.4975 -14.916250000000005 47.745000000000005 -16 48 C-17.130977653110733 44.607067040667815 -16.738100812529296 43.41620984177413 -16 40 C-15.47505569624073 32.68106499566409 -15.691323636646317 26.617352726707367 -19 20 C-19.989999999999995 19.340000000000003 -20.980000000000004 18.680000000000007 -22 18 C-22 17.340000000000003 -22 16.680000000000007 -22 16 C-20.236562500000005 16.092812500000008 -20.236562500000005 16.092812500000008 -18.4375 16.1875 C-14.111700975189777 16.111341566464603 -10.352387305070977 15.946492877999603 -7 13 C-4.307360889451175 8.818489851853599 -2.1144052752353844 4.505161391914889 0 0 Z " fill="#86AB88" transform="translate(93,57)"/>
<path d="M0 0 C8.25 0 16.5 0 25 0 C24.097906573448668 4.5104671327566495 23.586068458292964 5.995386590928112 21.0625 9.5 C17.882402102232234 13.938072741847886 16.074095429013255 17.902205199087668 15.3125 23.3125 C14.326112628754814 28.13216512291348 11.972292778646647 30.71955012614694 8.62109375 34.203125 C6.734114654881807 36.29471628615511 5.761518358407585 38.29237917010635 5 41 C4.009999999999998 40.67 3.0199999999999996 40.34 2 40 C2 39.34 2 38.68 2 38 C1.3399999999999999 38 0.6799999999999997 38 0 38 C-5.528238374050563 30.57058696560522 -3.189712792839959 20.79484133758611 -1.96142578125 12.1884765625 C-1.3360439433614957 8.121178387195515 -0.6630732679005824 4.061323765891071 0 0 Z " fill="#A0CCAD" transform="translate(27,0)"/>
<path d="M0 0 C1.0725000000000051 0.6806250000000063 2.144999999999996 1.3612499999999983 3.25 2.0625 C8.77548646901002 4.894808711632834 14.047452616505055 3.91272393213589 20 3 C16.518778978278448 10.822508413515507 12.54988956100253 17.215199690127804 6.85546875 23.625 C4.698767417023845 26.054204678086577 4.698767417023845 26.054204678086577 4 30 C-1.6099999999999994 30 -7.219999999999999 30 -13 30 C-15.152542372881356 12.779661016949149 -15.152542372881356 12.779661016949149 -12 7 C-10.055615066725423 5.73657807199119 -8.102310146570957 4.802640227328112 -5.9765625 3.87890625 C-3.7179927013775256 2.874601497648115 -1.8951481049897438 1.5792900874914437 0 0 Z " fill="#7E8F57" transform="translate(89,98)"/>
</svg>
