<?xml version="1.0" encoding="UTF-8"?>
<!-- Generator: visioncortex VTracer 0.6.0 -->
<svg version="1.1" xmlns="http://www.w3.org/2000/svg" width="128" height="128">
<path d="M0 0 C42.24 0 84.48 0 128 0 C128 42.24 128 84.48 128 128 C85.75999999999999 128 43.519999999999996 128 0 128 C0 85.75999999999999 0 43.519999999999996 0 0 Z " fill="#818A9E" transform="translate(0,0)"/>
<path d="M0 0 C9.57 0 19.14 0 29 0 C30.319999999999993 3.96 31.64 7.92 33 12 C36.206389330410786 15.206389330410797 37.54204920241895 16.45518505550316 41.3125 18.25 C50.02473144565448 22.93569026764641 54.93464740618214 30.803942218546396 58 40 C58.61921891582915 48.82386955056539 56.64735349399626 57.02385744859286 51 64 C47.87791454056382 67.02747680915024 44.464596894276525 68.7960601304092 40.625 70.75 C32.78642362936847 74.99106016284506 28.564255241104178 79.46848975680149 26 88.0625 C25.697070312500003 89.0834375 25.394140625000006 90.104375 25.08203125 91.15625 C22.94997323670941 96.75963712518248 18.81417835392454 100.33414970526843 13.5 102.9375 C6.273913453243708 105.13113341597959 -0.16650613391912827 103.92864022832038 -7 101 C-11.821568903568593 97.94483764801916 -15.077719678469073 94.4464609110043 -17 89 C-19.52741477423816 73.4275504763312 -18.517216567386892 58.98993542421651 -12.94921875 44.2109375 C-10.211558579199917 36.70615479240132 -9.06152267947089 29.398421331827024 -8.302490234375 21.472412109375 C-7.703953714892023 16.22653070926212 -6.795528071513786 12.833594212385133 -3.234130859375 8.856689453125 C-1.4304128093494768 6.346787118181691 -1.4304128093494768 6.346787118181691 0 0 Z " fill="#BBBEBC" transform="translate(43,0)"/>
<path d="M0 0 C14.190000000000001 0 28.380000000000003 0 43 0 C41.87377499019993 7.883575068600544 41.87377499019993 7.883575068600544 38.9375 11.375 C38.3097265625 12.1445703125 37.681953125 12.914140625 37.03515625 13.70703125 C35 15.999999999999995 35 15.999999999999995 32.93359375 18.01171875 C26.24875355857118 24.671189528937628 24.25390666544496 32.12926733814162 22 41 C21.615229614877492 42.44808854400836 21.229815045628285 43.896006078893926 20.84375 45.34375 C17.961596105379616 56.37817426932543 16.818439428856415 66.48317545339896 16.8125 77.875 C16.794130859375 79.71771484375 16.794130859375 79.71771484375 16.775390625 81.59765625 C16.53169476215607 94.00774043237244 16.53169476215607 94.00774043237244 21.5625 105 C22.085859375 105.6458203125 22.60921875 106.291640625 23.1484375 106.95703125 C25.95110454371087 110.0494254775544 28.916103385960472 112.95873670487111 31.94921875 115.82421875 C35.88798667658395 120.00306395972811 37 122.12910246531311 37 128 C24.79 128 12.579999999999998 128 0 128 C0 85.75999999999999 0 43.519999999999996 0 0 Z " fill="#3C6793" transform="translate(0,0)"/>
<path d="M0 0 C-0.29227906684059946 3.3381346054952523 -0.6391687390460916 6.668604404681343 -1 10 C-1.110859375000004 11.085390625000002 -1.2217187500000009 12.170781250000001 -1.3359375 13.2890625 C-2.242082162613329 20.863064113918952 -4.000710109663274 27.544497170420193 -6.78125 34.6484375 C-9.314923834891786 41.61604054595241 -10.339019506243616 47.83573129354011 -10.25 55.25 C-10.2417822265625 56.080478515625 -10.233564453124998 56.91095703125001 -10.22509765625 57.7666015625 C-10.25541255149636 71.33384407312647 -10.25541255149636 71.33384407312647 -3.7109375 82.66796875 C2.234900429082927 87.29703435232256 9.622585721756074 88.62520459985117 17 88 C23.082062365658565 86.04336753352845 27.745769005983426 82.51247007774323 31 77 C31.674931400240794 75.03729948809976 32.29685123593684 73.05585639087863 32.875 71.0625 C35.55788757390013 62.29110021757546 40.787243889976864 58.03019266338181 48.6875 53.75 C50.45811010470776 52.832902224771544 52.22891261037161 51.91617570941469 54 51 C59.9849229793183 47.30717518297382 62.0587414381978 41.82353054201009 63.69140625 35.19140625 C64.17660885861322 32.79932345928446 64.61755038705864 30.410439007880413 65 28 C68.61802924659074 32.09787397425529 68.49106835386654 35.22078332521123 68.35546875 40.515625 C67.50105775114434 48.89073061515658 64.88229978029777 56.88368663909651 61.8125 64.6875 C60.28016169793217 68.64211154110582 59.751393917032146 72.01562802652928 59.5625 76.25 C59.26686325299785 80.82054410865324 58.797749909889006 84.01529284261113 55.81640625 87.57421875 C52.73117094083938 89.995962594825 49.1244496791317 91.06556876780515 45.47265625 92.4140625 C39.22944809752616 95.26529142002742 34.01300129579339 99.63388149292734 28.61376953125 103.8212890625 C26.999999999999986 105.00000000000001 26.999999999999986 105.00000000000001 24.24609375 106.5234375 C21.778969562835698 107.86293001197828 21.778969562835698 107.86293001197828 20.76171875 110.66796875 C18.999999999999993 113 18.999999999999993 113 17.08447265625 113.40087890625 C14.642713484685842 113.49306934955521 12.25281631407178 113.43517638083114 9.8125 113.3125 C8.545029296875 113.278662109375 8.545029296875 113.278662109375 7.251953125 113.244140625 C5.167212022450045 113.18524963340255 3.0833819560562787 113.0955679796356 1 113 C0.6345507812499989 111.42025390625 0.6345507812499989 111.42025390625 0.26171875 109.80859375 C-0.8075658692984149 106.08156050639809 -2.4716544959133557 103.87183416171442 -5.1875 101.0625 C-5.986718750000001 100.214296875 -6.785937499999999 99.36609375 -7.609375 98.4921875 C-8.792734375000002 97.2585546875 -8.792734375000002 97.2585546875 -10 96 C-21.982272280207674 83.0717588555654 -20.53055626361614 69.00336463820459 -20.13623046875 52.0498046875 C-19.85778973645136 45.816325067653025 -18.622058896039096 40.02479018528807 -17 34 C-16.606656883753935 32.38607669828935 -16.21622335953365 30.771442525437777 -15.828125 29.15625 C-15.408566551676294 27.457759425693027 -14.98671102950297 25.75983453538702 -14.5625 24.0625 C-14.369543457031249 23.280764160156252 -14.1765869140625 22.499028320312505 -13.977783203125 21.693603515625 C-12.135220034125982 14.668127233665025 -9.717653802557944 8.065133281355816 -4.3125 3 C-3.7105078124999977 2.4224999999999994 -3.1085156249999955 1.8449999999999989 -2.48828125 1.25 C-1 0 -1 0 0 0 Z " fill="#7291AC" transform="translate(36,15)"/>
<path d="M0 0 C10.230000000000004 0 20.460000000000008 0 31 0 C31 42.24 31 84.48 31 128 C23.08 128 15.159999999999997 128 7 128 C5.745518411863202 124.23655523558962 6.435466438982672 122.3270908357036 7.375 118.5 C7.650859374999996 117.3553125 7.926718750000006 116.210625 8.2109375 115.03125 C8.739201831777763 113.00187811158645 9.336870037947932 110.98938988615622 10 109 C9.95827272202851 106.99917702126734 9.911857193161552 104.99825846112259 9.83349609375 102.99853515625 C9.557907867476942 94.95812778270441 10.201618599717264 87.87706084709141 12.375 80.125 C15.827147943836025 67.72948256858027 18.910919762231657 53.54500488074064 15.6953125 40.8046875 C15.118576876242727 38.47830447832741 14.711946389918737 36.24916067012336 14.3671875 33.8828125 C12.67953540064157 22.46934848683518 9.576499504418635 14.850490370122905 2.234375 5.82421875 C1 4 1 4 0 0 Z " fill="#456BB2" transform="translate(97,0)"/>
<path d="M0 0 C1.80078125 0.7890624999999964 1.80078125 0.7890624999999964 3.05078125 2.7890625 C4.863949706358596 10.041736325434417 3.6315221309709216 16.53739532351949 1.42578125 23.5390625 C-0.1911154761591547 28.951494076585384 -1.5359156723952623 34.16908270643671 -2.26171875 39.7890625 C-4.122155965906252 53.04677275028682 -4.122155965906252 53.04677275028682 -8.88671875 57.29296875 C-14.020651925564792 60.26361153505462 -19.406058135890227 60.55823844708348 -25.19921875 59.7890625 C-30.528130067208707 58.18033455518227 -32.51970615179794 55.33852092022876 -35.21875 50.7265625 C-39.56110371714754 42.14565634978017 -37.723413633416584 31.002715020460165 -35.13671875 22.1015625 C-34.9573779296875 21.43100830078125 -34.778037109375 20.7604541015625 -34.59326171875 20.069580078125 C-33.42896346423699 16.449930754019434 -32.120349964076475 14.389448555079355 -28.91015625 12.48046875 C-25.656541518659594 10.890125411008214 -22.303091382839817 9.613834707298665 -18.88671875 8.4140625 C-13.548484117873173 6.446049732395643 -9.008490511809867 4.037906235741659 -4.3203125 0.828125 C-2.19921875 -0.2109375 -2.19921875 -0.2109375 0 0 Z " fill="#E4DCD7" transform="translate(67.19921875,20.2109375)"/>
<path d="M0 0 C9.666477421427686 5.147311984334237 15.355378461528517 12.788791634585557 18.7890625 23.08984375 C19.40828141582915 31.913713300565384 17.436415993996263 40.11370119859286 11.7890625 47.08984375 C8.672556951031424 50.111909736878616 5.234815998756332 51.9214058894957 1.4140625 53.90234375 C-3.7804515775709575 56.65072670579195 -7.291832621111823 59.735282773457584 -11.2109375 64.08984375 C-13.8509375 63.099843750000005 -16.4909375 62.109843749999996 -19.2109375 61.08984375 C-19.2109375 60.42984375 -19.2109375 59.76984375000001 -19.2109375 59.08984375 C-19.870937499999997 59.08984375 -20.5309375 59.08984375 -21.2109375 59.08984375 C-19.772050879435156 48.42594571160822 -17.266318444099 38.00135587586516 -14.569091796875 27.595947265625 C-12.25562425615395 18.584812881503694 -11.298597930524949 11.008883681517343 -14.2109375 2.08984375 C-8.661033387314106 -1.5012706758555776 -6.352467265851658 -2.6150616129742676 0 0 Z " fill="#CBB9B8" transform="translate(82.2109375,16.91015625)"/>
<path d="M0 0 C3.618029246590737 4.0978739742553 3.4910683538665523 7.220783325211215 3.35546875 12.515625 C2.5010577511443444 20.890730615156578 -0.11770021970222899 28.88368663909651 -3.1875 36.6875 C-4.719838302067814 40.64211154110578 -5.248606082967854 44.01562802652933 -5.4375 48.25 C-5.724506031923326 52.86601368010021 -6.2434677043473386 56.053055840489336 -9.32421875 59.59375 C-16.12402974446087 65.2998851002469 -23.29138903527361 65.3546849662823 -31.721435546875 64.703369140625 C-37.22391411721475 64.18040884663435 -42.63646651515506 63.35735613989934 -48 62 C-48 61.34 -48 60.68000000000001 -48 60 C-46.80375 59.484375 -45.6075 58.96875 -44.375 58.4375 C-38.793226050362556 55.58744227659855 -35.09481196742723 52.18371320127838 -33.0234375 46.16015625 C-32.726953124999994 45.13792968749999 -32.43046875 44.11570312500001 -32.125 43.0625 C-29.442112426099868 34.29110021757546 -24.212756110023136 30.030192663381797 -16.3125 25.75 C-14.541889895292243 24.83290222477153 -12.771087389628391 23.916175709414688 -11 23 C-5.0150770206817015 19.307175182973822 -2.941258561802215 13.82353054201009 -1.30859375 7.19140625 C-0.8233911413867787 4.799323459284466 -0.3824496129413575 2.41043900788042 0 0 Z " fill="#9EA2B3" transform="translate(101,43)"/>
<path d="M0 0 C6.6000000000000005 0 13.200000000000001 0 20 0 C19.65204871926044 5.741196132202788 18.871731618724734 10.56112768761871 17 16 C14.546717066139973 24.057004743216563 14.499276238654113 31.997695044909513 14.28857421875 40.372802734375 C13.573047072955575 68.58706027468608 13.573047072955575 68.58706027468608 6 79 C2.9999999999999942 81 2.9999999999999942 81 0 81 C0 54.269999999999996 0 27.54 0 0 Z " fill="#1C4178" transform="translate(0,0)"/>
<path d="M0 0 C5.939999999999998 0.9899999999999949 5.939999999999998 0.9899999999999949 12 2 C14.122040993071593 14.732245958429544 14.122040993071593 14.732245958429544 11.5625 21 C9.52990408489319 25.694437425218666 9.52990408489319 25.694437425218666 9 34 C-7.170000000000002 34 -23.340000000000003 34 -40 34 C-37.52704580977149 27.817614524428706 -35.97387306730679 26.474385309440066 -30.27734375 23.3671875 C-27.88447530554592 21.930645552214543 -25.635717004537085 20.33691172561184 -23.370361328125 18.708740234375 C-18.89729589806126 15.495894311809266 -14.684801806119069 12.652160544452983 -9.4375 10.8125 C-4.967378534433777 9.230541429393767 -3.131750702771967 7.356186218707933 -1 3 C-0.6700000000000017 2.010000000000005 -0.3400000000000034 1.019999999999996 0 0 Z " fill="#6582A9" transform="translate(95,94)"/>
<path d="M0 0 C9.57 0 19.14 0 29 0 C30.666666666666657 5 32.33333333333334 10 34 15 C32.961015625 15.507890625 31.922031250000003 16.01578125 30.8515625 16.5390625 C21.61706839844345 21.059194707571873 21.61706839844345 21.059194707571873 12.75 26.25 C8.278762144307862 29.038839882872388 3.6961478735601787 30.627016206897466 -1.3359375 32.140625 C-3.715858865853022 32.908341569630004 -5.804953627850004 33.814050775236495 -8 35 C-8 35.66 -8 36.32 -8 37 C-8.659999999999997 37 -9.32 37 -10 37 C-9.715730318157213 34.311534604699574 -9.422811556063927 31.62447142747231 -9.125 28.9375 C-9.046367187500003 28.18533203125 -8.967734375 27.4331640625 -8.88671875 26.658203125 C-8.028844110394836 19.03631690389259 -6.281364507996152 13.422046761994231 -2 7 C-1.3400000000000034 4.6899999999999995 -0.6799999999999997 2.38 0 0 Z " fill="#9EBBD8" transform="translate(43,0)"/>
<path d="M0 0 C10.230000000000004 0 20.460000000000008 0 31 0 C31 11.55 31 23.1 31 35 C25 38 25 38 23 38 C22.340000000000003 39.32 21.680000000000007 40.64 21 42 C20.340000000000003 42 19.680000000000007 42 19 42 C18.67 42.99 18.340000000000003 43.98 18 45 C14.448960529678743 39.673440794518115 13.909574186091774 34.38072682716887 13.1875 28.125 C11.92765156978379 18.90564404554959 8.010116552481577 12.92480823591162 2.234375 5.82421875 C1 4 1 4 0 0 Z " fill="#3E6597" transform="translate(97,0)"/>
<path d="M0 0 C7.59 0 15.18 0 23 0 C21.87377499019992 7.883575068600549 21.87377499019992 7.883575068600549 18.9375 11.375 C18.309726562500003 12.1445703125 17.681953125 12.914140625 17.03515625 13.70703125 C14.999999999999986 16.000000000000014 14.999999999999986 16.000000000000014 12.93359375 18.01171875 C6.248536464923514 24.671405798700484 4.254328060033437 32.1287828276632 2 41 C1.6270084209575941 42.40122987643733 1.2533168105782408 43.80227361002867 0.87890625 45.203125 C-1.0974509133823958 52.73798668539538 -2.7611734900417524 60.30623535920667 -4 68 C-6.71661788630815 64.58231943335426 -7.660377306534759 62.41509501504814 -8 58 C-7.8453125 56.8669140625 -7.690625000000001 55.733828125 -7.53125 54.56640625 C-7.066386565301185 51.097382700617885 -6.91026376914804 47.69866977508022 -6.859375 44.19921875 C-6.646665927012734 30.325269464405523 -5.100707087175467 18.230321852204632 -1 5 C-0.6700000000000017 3.3499999999999996 -0.33999999999999986 1.6999999999999997 0 0 Z " fill="#526D92" transform="translate(20,0)"/>
<path d="M0 0 C0 12.210000000000008 0 24.42 0 37 C-7.920000000000002 37 -15.840000000000003 37 -24 37 C-25.234277398408892 33.29716780477334 -24.638370852810866 31.46307612444616 -23.75 27.6875 C-23.49734375 26.577617187499996 -23.244687499999998 25.467734374999992 -22.984375 24.32421875 C-21.133357672170433 18.073362615146948 -18.13003857846995 13.572624570816515 -13.75 8.8125 C-13.297539062499993 8.292363281250005 -12.845078125 7.772226562499995 -12.37890625 7.236328125 C-9.257798198265277 3.8136003875934392 -4.966909838607606 0 0 0 Z " fill="#1F4B8F" transform="translate(128,91)"/>
<path d="M0 0 C4.586542842389093 4.586542842389086 4.955909275488835 12.688717809835921 5.07421875 18.890625 C4.45100440280703 31.354911943859378 1.789107623762689 43.35794170233031 -1.3515625 55.4140625 C-1.9827690324577816 57.9312837318497 -2.5123745361681955 60.45146691544508 -3 63 C-4.237499999999997 63.04124999999999 -5.474999999999994 63.08250000000001 -6.75 63.125 C-7.446093750000003 63.14820312500001 -8.142187500000006 63.17140624999999 -8.859375 63.1953125 C-11.307244577406522 62.97196673563809 -12.84545328603555 62.14041025702514 -15 61 C-15.3914848482747 53.81552806221805 -14.147859704174834 48.62148857132753 -11.625 41.9375 C-8.809093805053493 34.07841717342612 -7.340514162096127 27.13690567680036 -6.59765625 18.8203125 C-5.551158416120316 12.130934189318069 -2.7987595177108773 6.125586868952112 0 0 Z " fill="#7F8EBB" transform="translate(110,33)"/>
<path d="M0 0 C-0.29227906684059946 3.3381346054952523 -0.6391687390460916 6.668604404681343 -1 10 C-1.110859375000004 11.085390625000002 -1.2217187500000009 12.170781250000001 -1.3359375 13.2890625 C-2.242082162613329 20.863064113918952 -4.000710109663274 27.544497170420193 -6.78125 34.6484375 C-9.995281105984606 43.48702304145766 -10.248850016297137 51.12550645873979 -10.125 60.5 C-10.115976562500002 61.799375 -10.106953125 63.098749999999995 -10.09765625 64.4375 C-10.074217330981426 67.62519298652593 -10.041404399937107 70.81249819561108 -10 74 C-14.493475703846073 70.54061887038341 -17.911179188564287 67.26646243430714 -19.75 61.75 C-20.933536514706702 48.73109833822626 -17.73937437204426 36.59738119281741 -14.5625 24.0625 C-14.369543457031249 23.282053222656245 -14.1765869140625 22.501606445312504 -13.977783203125 21.697509765625 C-12.137978550845048 14.670551026444048 -9.71796953900379 8.065429155856044 -4.3125 3 C-3.7105078124999977 2.4224999999999994 -3.1085156249999955 1.8449999999999989 -2.48828125 1.25 C-1 0 -1 0 0 0 Z " fill="#8F99AF" transform="translate(36,15)"/>
</svg>
