<?xml version="1.0" encoding="UTF-8"?>
<!-- Generator: visioncortex VTracer 0.6.0 -->
<svg version="1.1" xmlns="http://www.w3.org/2000/svg" width="128" height="128">
<path d="M0 0 C42.24 0 84.48 0 128 0 C128 42.24 128 84.48 128 128 C85.75999999999999 128 43.519999999999996 128 0 128 C0 85.75999999999999 0 43.519999999999996 0 0 Z " fill="#C39991" transform="translate(0,0)"/>
<path d="M0 0 C42.24 0 84.48 0 128 0 C128 42.24 128 84.48 128 128 C114.8 128 101.6 128 88 128 C89.21848621126286 124.34454136621142 90.59664587549882 123.97938077120105 93.84765625 122.2109375 C105.93719065432526 115.40920308014368 115.54443098500931 106.36670704497205 120 93 C121.06542939350349 84.26013499261167 118.84387152588985 78.21091121924331 114.8125 70.5625 C113.79377202222346 68.53345526306306 112.77682157888596 66.50351702415068 111.76171875 64.47265625 C111.2775146484375 63.5189111328125 110.793310546875 62.565166015625 110.29443359375 61.58251953125 C107.00087584312251 55.011555011043 104.39714265513314 48.41257046639177 102.39453125 41.347900390625 C99.16825058743088 30.411837456807433 93.12299713937816 24.126798391662607 83.28466796875 18.566162109375 C72.59754919550653 12.788661777268754 63.58461328670566 10.36236146035518 51.79296875 13.828369140625 C50.9537890625 14.09125732421875 50.114609375 14.3541455078125 49.25 14.625 C48.3747265625 14.89497802734375 47.499453125 15.1649560546875 46.59765625 15.443115234375 C33.143960212761584 19.67397794739065 33.143960212761584 19.67397794739065 23 29 C20.337869021811983 34.324261956376034 21.855623422481116 40.98075016853756 23.625 46.375 C26.59440576781976 56.49087036692666 22.899130725171208 64.68802800074945 18.46484375 73.7734375 C14.81210563108562 81.81920199659541 12.462757641973297 91.17007989549462 14 100 C16.88591942481169 107.60238968219002 20.87908842089872 113.87908842089873 26.625 119.625 C31 124 31 124 31 128 C20.77 128 10.54 128 0 128 C0 85.75999999999999 0 43.519999999999996 0 0 Z " fill="#664645" transform="translate(0,0)"/>
<path d="M0 0 C10.565370632401795 7.213305251037369 13.974846918779946 13.621074484104248 17.723876953125 25.5888671875 C21.228949627675007 36.600027889152436 26.43479175265807 46.62489599572879 31.829833984375 56.8134765625 C34.72609775024527 62.612502330197174 34.88912359195088 69.06819698995524 33.33984375 75.328125 C28.573492055067874 87.33066517723819 18.396033250608255 97.02626531674684 7.03125 102.71875 C4.799814715063576 103.91478886916235 4.799814715063576 103.91478886916235 3.14129638671875 106.04339599609375 C0.32023324589597735 108.5161147218557 -1.0603014834021423 108.47910546253627 -4.7685546875 108.4462890625 C-5.909435424804684 108.44598693847655 -7.050316162109368 108.44568481445313 -8.22576904296875 108.44537353515625 C-9.451929321289057 108.42472839355469 -10.678089599609365 108.40408325195313 -11.94140625 108.3828125 C-13.20092102050782 108.37715270996094 -14.460435791015627 108.37149291992188 -15.75811767578125 108.36566162109375 C-19.099121493070157 108.34706797435143 -22.439025922990027 108.31116078184863 -25.77972412109375 108.266845703125 C-29.191594643501183 108.22585252272194 -32.60357894416748 108.20764208518213 -36.015625 108.1875 C-42.70473045377858 108.14338414490999 -49.39331739286595 108.07643400304161 -56.08203125 107.9921875 C-58.96484375000001 102.27343749999997 -58.96484375000001 102.27343749999997 -60.01953125 99.7421875 C-60.94909635730906 97.83959874548563 -60.94909635730906 97.83959874548563 -62.95703125 97.14453125 C-68.5189350142823 94.12842534841309 -72.28963178313754 85.76769689322352 -74.08203125 79.9921875 C-75.50577799553979 69.41076107018581 -72.49468703615634 58.10267533082862 -67.45703125 48.8046875 C-63.59633247176569 41.562879853871046 -62.09942569094318 34.326912935101355 -64.45703125 26.3671875 C-64.88822265625001 25.02720703125 -64.88822265625001 25.02720703125 -65.328125 23.66015625 C-66.94259552145678 17.94677093313478 -67.06135112121122 12.950827242422442 -64.39453125 7.6171875 C-48.0543646996594 -10.931109665251487 -19.739002204069394 -12.308148851696567 0 0 Z M-51.08203125 17.9921875 C-53.41080162377786 22.64972824755572 -52.62407691881154 28.937022458257637 -52.08203125 33.9921875 C-49.852269616325515 36.97338291359593 -49.852269616325515 36.97338291359593 -47.08203125 38.9921875 C-45.58332577007059 42.16944311745035 -44.69930075650346 44.40612638712028 -45.54296875 47.90234375 C-47.85867497557994 53.24546407782894 -51.74638577112127 56.7267656044432 -55.88671875 60.703125 C-60.113718435536 65.11063712762295 -63.28612623479054 69.95384597999295 -63.58203125 76.1796875 C-62.85283814263471 81.73978494366031 -61.09412105588634 85.2589971317177 -57.14453125 89.1796875 C-46.8725333503331 97.03096573495499 -32.431430119671525 95.45519716881769 -20.21826171875 95.38330078125 C-16.957584420461842 95.36719023313748 -13.698140118967814 95.3832240740656 -10.4375 95.40234375 C-8.337236886014466 95.4003616708575 -6.23697452979863 95.39651872788022 -4.13671875 95.390625 C-2.6956929016113236 95.39973403930665 -2.6956929016113236 95.39973403930665 -1.225555419921875 95.40902709960938 C6.297116737523382 95.33182974918545 13.615966044714952 94.4327981952107 19.79296875 89.8671875 C24.248093213401688 83.83966616716242 26.645941651144014 78.1172581323014 26.3046875 70.5390625 C25.1723556971736 63.081685374314986 21.671260640444146 56.746172420011334 16.91796875 50.9921875 C16.257968750000003 50.9921875 15.597968750000007 50.9921875 14.91796875 50.9921875 C14.91796875 50.3321875 14.91796875 49.67218750000001 14.91796875 48.9921875 C14.175468749999993 48.43531250000001 13.43296875 47.87843749999999 12.66796875 47.3046875 C7.831269380354755 43.23746303007104 5.848882851332007 39.211285832876925 5.16796875 33.0546875 C4.955114757830643 29.99144091704109 4.933029458714685 26.995772179179305 5.04296875 23.9296875 C4.852283036891194 17.923087537072448 3.706560222395453 13.054478023331413 -0.27734375 8.4609375 C-6.160027000221021 3.2828653354600483 -14.402550738912666 -1.36962050425036 -22.39453125 -1.6953125 C-34.96776251328056 -0.645828384734358 -44.24641680601238 8.085499900017936 -51.08203125 17.9921875 Z " fill="#926C65" transform="translate(87.08203125,20.0078125)"/>
<path d="M0 0 C15.180000000000001 0 30.360000000000003 0 46 0 C43.77003017152178 5.574924571195546 42.18394788018302 7.506994244461249 36.80078125 10.03125 C32.51088123096053 11.809167747294223 28.232963508776912 13.233929103224298 23.75 14.4375 C18.012162030637707 16.10390506174572 14.683033521452423 18.620538814498296 11.1875 23.5625 C6.051949865738792 34.10389238085195 10.077568238183453 46.06710535177415 12.521484375 56.84033203125 C13.274709154888793 60.23983529803381 13.898164122845001 63.66212685395506 14.5078125 67.08984375 C14.9411000631816 69.07840424347049 14.9411000631816 69.07840424347049 16.0703125 71.01953125 C18.052967458087668 75.24308613970777 16.133717600373085 80.52018978689658 14.9375 84.8125 C12.596710436468749 94.12122128753126 13.791235907220967 100.83105313928777 18.296875 109.2734375 C20.710361697223547 113.13723042353678 23.406706981052555 116.40670698105255 26.625 119.625 C31 124 31 124 31 128 C20.77 128 10.54 128 0 128 C0 85.75999999999999 0 43.519999999999996 0 0 Z " fill="#3A1B23" transform="translate(0,0)"/>
<path d="M0 0 C8.589472750775457 -0.7310189575128021 15.160223424361355 3.0256170358991668 22 8 C22.928125 8.639375000000001 23.856250000000003 9.278750000000002 24.8125 9.9375 C27.415008197601864 12.39129344345318 27.879539540364647 13.454272557689649 28 17 C26.2265625 19.2109375 26.2265625 19.2109375 23.625 21.375 C22.705898437499997 22.149726562500007 21.786796875 22.924453125 20.83984375 23.72265625 C10.606779661017 31.928813559321995 10.606779661017 31.928813559321995 6 35 C3.224976389236815 37.775023610763185 3.220593624730327 40.17637717134107 3 44 C7.234189319508687 45.77456277523268 11.559709117628614 47.19266199873802 15.9375 48.5625 C16.62779296875 48.783574218750005 17.3180859375 49.00464843750001 18.029296875 49.232421875 C27.933569898275834 52.339828861449575 36.97527536931277 53.6117761593849 46.69921875 49.33203125 C51.43983124717755 46.5874661200551 54.12187510518656 42.91590886141114 56.375 38 C57.37514422514613 33.19930771929859 57.46161306697208 29.35919403052891 55.875 24.6875 C54.69958520621154 19.733966226177202 55.73052361492134 15.853305872185345 57 11 C60 11 60 11 62 12 C62 12.659999999999997 62 13.319999999999993 62 14 C62.989999999999995 14.329999999999998 63.980000000000004 14.659999999999997 65 15 C70.91795071614564 22.996009746242578 74.21925889545177 31.005087573086655 73 41 C71.33725108114233 46.68030982009756 68.82007499709854 51.43733587170978 64 55 C57.04020255078389 57.843870569717836 50.39088713356807 58.44550260440013 42.9453125 58.3984375 C41.41111160278321 58.40274276733399 41.41111160278321 58.40274276733399 39.845916748046875 58.407135009765625 C37.696263040672875 58.409163700241876 35.546590365072674 58.40371816632654 33.39697265625 58.39111328125 C30.140521920041706 58.375076439839034 26.885318434869333 58.39098642732681 23.62890625 58.41015625 C-3.7664412921324057 58.44087058312982 -3.7664412921324057 58.44087058312982 -12.5078125 49.75390625 C-15.742138243539191 45.95230347814373 -16.588328252152195 42.24389386830099 -16.4375 37.23828125 C-15.148184485621243 30.642050984472974 -10.607573711927955 25.39487376981883 -5.875 20.875 C-2.2269773248558593 17.37430131750591 0.8539731290108605 14.0443969649276 2 9 C1.7341647663393687 5.8444373189543555 1.0245309089672574 2.9905226532017295 0 0 Z " fill="#AF99A2" transform="translate(40,57)"/>
<path d="M0 0 C7.905463390331434 0.9098044959323914 16.12895035249889 2.3246870797213575 22.51171875 7.2890625 C25.29767273861549 12.739842042943366 25.24710956398866 18.489498360347568 23.51171875 24.2890625 C20.95946921354394 30.459994477816295 15.618054687618468 34.63980071869929 9.57421875 37.2265625 C-2.6300086162396497 40.9817093819199 -17.764660698511314 36.15087277574435 -28.80078125 30.6328125 C-30.48828125 29.2890625 -30.48828125 29.2890625 -31.42578125 27.4453125 C-31.51871638997732 24.239050170782477 -30.417743295083554 22.823691866759447 -28.48828125 20.2890625 C-25.851562499999986 18.113281249999986 -25.851562499999986 18.113281249999986 -22.80078125 15.9765625 C-16.897612352107153 11.695693044990534 -11.805155716598705 7.045315142693596 -6.984375 1.5859375 C-4.818170598923828 -0.2918167066769968 -2.7690197008052593 -0.11260338894217625 0 0 Z " fill="#DBC1C2" transform="translate(73.48828125,71.7109375)"/>
<path d="M0 0 C16.83 0 33.66 0 51 0 C51 19.470000000000002 51 38.940000000000005 51 59 C44.993378007128385 56.59735120285136 42.33488401758825 54.898830973105845 39.6796875 49.1328125 C37.65724014166065 43.98586562997473 35.92545674258025 38.841458692702446 34.5 33.5 C33.181100270140774 29.079903608039377 31.819464302534783 26.806137038596987 28 24 C26.136061806866692 23.061044628346636 24.259432212585267 22.147116499652498 22.375 21.25 C15.743377071687888 18.085464767870793 10.420676021590083 13.9239948063417 5 9 C4.070585937499999 8.1659765625 3.1411718749999977 7.331953125 2.18359375 6.47265625 C0 4 0 4 0 0 Z " fill="#3D1A21" transform="translate(77,0)"/>
<path d="M0 0 C1.28302001953125 0.02618408203125 2.5660400390625 0.0523681640625 3.887939453125 0.079345703125 C4.571772003173827 0.08642044067382815 5.255604553222653 0.09349517822265624 5.9601593017578125 0.1007843017578125 C8.141632294911794 0.1287469112676593 10.32052564350569 0.19147630979433405 12.501220703125 0.255126953125 C13.981001299923626 0.2802079801893835 15.460822192330056 0.30302151404441957 16.940673828125 0.323486328125 C20.56585933678207 0.378575604968012 24.189538234814975 0.46485587711062454 27.813720703125 0.567626953125 C28.092963867187507 1.3403393554687502 28.37220703125 2.1130517578125003 28.659912109375 2.9091796875 C30.177926113931463 6.406779030626381 32.319715151743836 8.141860744353396 35.188720703125 10.630126953125 C38.500066028921964 13.526438430809941 41.74238425543501 16.416231972438357 44.813720703125 19.567626953125 C39.10601727452652 21.932779877132468 39.10601727452652 21.932779877132468 35.800537109375 20.998779296875 C33.68033571359828 20.005747755480417 31.656917556160224 18.92015585190859 29.626220703125 17.755126953125 C28.238670695314013 16.995369654295903 26.84939851474678 16.238747362081035 25.458251953125 15.485595703125 C24.85343994140625 15.14294677734375 24.2486279296875 14.8002978515625 23.62548828125 14.447265625 C15.867370552359617 10.68059022044643 7.8562676677899645 12.751470967554553 0.063720703125 15.192626953125 C-0.8115527343749989 15.46260498046875 -1.6868261718749977 15.7325830078125 -2.588623046875 16.0107421875 C-16.042319084113416 20.24160490051565 -16.042319084113416 20.24160490051565 -26.186279296875 29.567626953125 C-28.848410275063017 34.891888909501034 -27.330655874393884 41.54837712166256 -25.561279296875 46.942626953125 C-23.08505846071942 55.302820157097884 -25.026321401994263 62.65038367463802 -28.811279296875 70.317626953125 C-29.586819236100617 71.74318591655705 -30.372432081608423 73.1635851924361 -31.186279296875 74.567626953125 C-34.330803568393755 72.99536481736563 -34.845452205098994 70.77565357588882 -36.186279296875 67.567626953125 C-36.89355947632876 64.46576882345266 -37.32996029588598 61.344921445776045 -37.748779296875 58.192626953125 C-38.40113952990048 53.49563327534152 -39.049627753763374 48.87367782915523 -40.256591796875 44.282470703125 C-42.12767609631827 36.80599520408907 -42.0057063260266 30.416254729534764 -38.186279296875 23.567626953125 C-33.42479456420315 16.425399854117224 -27.178166299374336 14.360572584586354 -19.123779296875 12.130126953125 C-14.327009885917384 10.747880316011045 -9.97714803067953 8.87697656369801 -6.186279296875 5.567626953125 C-5.8022998046875 4.72224365234375 -5.418320312500001 3.8768603515624998 -5.022705078125 3.005859375 C-3.186279296875 0.567626953125 -3.186279296875 0.567626953125 0 0 Z " fill="#6A4040" transform="translate(49.186279296875,-0.567626953125)"/>
<path d="M0 0 C3.082762547829322 4.93242007652691 3.2385781125399724 8.468384192300292 2 14 C1.6493749999999991 15.258125000000007 1.29875 16.51625 0.9375 17.8125 C-1.4032895635312528 27.121221287531256 -0.20876409277903107 33.831053139287775 4.296875 42.2734375 C6.710361697223554 46.13723042353679 9.406706981052547 49.40670698105255 12.625 52.625 C17 57 17 57 17 61 C6.77 61 -3.460000000000001 61 -14 61 C-14 42.19 -14 23.379999999999995 -14 4 C-9.05 2.5150000000000006 -9.05 2.5150000000000006 -4 1 C-2 0 -2 0 0 0 Z " fill="#3A2E35" transform="translate(14,67)"/>
<path d="M0 0 C4.750371026080373 2.6473810270934592 6.624877489231466 4.893712798931524 8.625 9.9375 C10.140055891144698 15.593708660273563 9.423929657657197 18.822214763592022 6.625 23.9375 C3.5196303677956706 27.744082129798855 1.2064508496327733 28.656807483373264 -3.56640625 29.17578125 C-10.549947089076099 29.394376432771736 -16.002190255652792 27.69031180412466 -22.375 24.9375 C-23.447499999999998 24.48375 -24.519999999999996 24.03 -25.625 23.5625 C-29.18207632000899 21.46059126544924 -32.814577965046546 19.225142494585207 -35.375 15.9375 C-35.8203125 13.49609375 -35.8203125 13.49609375 -35.375 10.9375 C-26.899445240245527 0.4019145694718773 -12.829784910042989 -5.7971620704638696 0 0 Z " fill="#E4AD90" transform="translate(75.375,21.0625)"/>
<path d="M0 0 C2.5835997258742722 0.6030440118450571 5.166876000551518 1.207424105750988 7.75 1.8125 C8.4602734375 1.9781445312499955 9.170546875 2.143789062500005 9.90234375 2.314453125 C10.6306640625 2.4852539062499943 11.358984374999999 2.656054687500003 12.109375 2.83203125 C12.9016650390625 3.012500000000003 13.693955078125 3.1929687500000057 14.51025390625 3.37890625 C16.999999999999993 4 16.999999999999993 4 19.40771484375 4.79296875 C29.360424702535752 7.859272172475713 39.553107325510325 7.451810009706435 49.86376953125 7.39111328125 C53.12444682953817 7.375002733137478 56.38389113103217 7.391036574065595 59.64453125 7.41015625 C61.744794363985534 7.408174170857507 63.84505672020137 7.4043312278802205 65.9453125 7.3984375 C66.90599639892578 7.404510192871101 67.86668029785156 7.410582885742187 68.85647583007813 7.416839599609375 C77.98587179801734 7.323154115921469 85.75941500925383 4.762006191427602 94 1 C90.85148345067206 8.230512879612405 83.9163420144489 12.379507097170062 77.078125 15.76171875 C74.87585224065617 16.926471777334456 74.87585224065617 16.926471777334456 73.22552490234375 19.04901123046875 C70.40283648241748 21.523498665483515 69.02396176949668 21.486937714774314 65.3134765625 21.4541015625 C64.17259582519532 21.45379943847655 63.03171508789063 21.45349731445313 61.85626220703125 21.45318603515625 C60.63010192871093 21.432540893554688 59.403941650390635 21.411895751953125 58.140625 21.390625 C56.88111022949218 21.38496520996094 55.62159545898437 21.379305419921877 54.32391357421875 21.37347412109375 C50.98290975692984 21.354880474351432 47.64300532700997 21.318973281848628 44.30230712890625 21.274658203125 C40.89043660649879 21.233665022721937 37.47845230583253 21.21545458518213 34.06640625 21.1953125 C27.377300796221398 21.151196644909987 20.68871385713406 21.084246503041612 14 21 C11.1171875 15.28125 11.1171875 15.28125 10.0625 12.75 C9.139556162895406 10.856601464798587 9.139556162895406 10.856601464798587 7.1875 10.1875 C3.815422428578927 8.3569436040857 1.893966323482676 5.291154594904327 0 2 C0 1.3400000000000034 0 0.6800000000000068 0 0 Z " fill="#71615F" transform="translate(17,107)"/>
<path d="M0 0 C5.67761116929616 0.6095961465981148 10.764103765333964 2.066667782095827 15 6 C17.092684684997174 9.536637117645228 18.40423646086147 12.923334259888115 17.6015625 17.046875 C15.311024523666276 22.30040246865532 11.265082751758591 25.80234626811304 7.1953125 29.7109375 C2.968312814464003 34.11844962762294 -0.20409498479054022 38.96165847999295 -0.5 45.1875 C0.3137051563048239 51.392001816824276 2.9969473890778815 55.30676590443613 7 60 C1.4506846429573237 59.50452541454976 -4.171447688293931 58.9970324693348 -9 56 C-13.414219717267303 49.378670424099056 -12.762404315431388 41.87350579614335 -11.2734375 34.30859375 C-9.596970782422297 27.555022542197136 -7.458942129157453 21.60962154821941 -4.1015625 15.4921875 C-2.375337439288856 11.586756334277624 -1.8958460974459612 7.582391864950807 -1.359375 3.37109375 C-1 1 -1 1 0 0 Z " fill="#846A72" transform="translate(25,51)"/>
<path d="M0 0 C2.6727722526944717 2.261576521510708 3.574850446670382 3.698166742014511 4.4375 7.0625 C4.4375 8.052500000000002 4.4375 9.0425 4.4375 10.0625 C0.5355760169798032 8.932995689125732 -2.7839594472301314 7.402129045942843 -6.3125 5.4375 C-12.298870327413837 2.412902098443084 -17.45107198460748 1.8379648672957387 -23.91015625 3.76171875 C-33.28967313751935 7.574661292610784 -40.993290630258976 13.924081260517948 -45.5625 23.0625 C-45.7927995551713 25.433732456948896 -45.97369941804444 27.809919426412662 -46.125 30.1875 C-46.2087890625 31.468828125 -46.292578125 32.75015625 -46.37890625 34.0703125 C-46.4394921875 35.057734375 -46.500078125 36.04515625 -46.5625 37.0625 C-55.28735436893204 35.76376213592233 -55.28735436893204 35.76376213592233 -58.1171875 31.98828125 C-60.59105763781739 26.236984615731096 -61.625350480190534 20.267829066162896 -60.5625 14.0625 C-55.453742203806726 3.8449844076134596 -44.7490321309655 0.8533632264655111 -34.62890625 -2.5966796875 C-21.71323040940363 -6.819112173848815 -12.007125034103709 -7.192532110893422 0 0 Z " fill="#A87264" transform="translate(81.5625,16.9375)"/>
<path d="M0 0 C1.3199999999999932 0.6599999999999966 2.6400000000000006 1.3199999999999932 4 2 C4 2.6599999999999966 4 3.319999999999993 4 4 C4.989999999999995 4.329999999999998 5.980000000000004 4.659999999999997 7 5 C12.91795071614564 12.996009746242578 16.219258895451787 21.005087573086655 15 31 C13.337251081142327 36.68030982009756 10.820074997098544 41.43733587170976 6 45 C-1.0123632772187818 47.89379495372768 -7.62043721254453 48.393032267353064 -15.125 48.1875 C-16.081484375000002 48.17396484375 -17.037968750000005 48.1604296875 -18.0234375 48.146484375 C-20.349581100722332 48.111592220989166 -22.67446530396937 48.06258339300662 -25 48 C-24.67 47.00999999999999 -24.340000000000003 46.02000000000001 -24 45 C-23.340000000000003 45 -22.680000000000007 45 -22 45 C-22 44.34 -22 43.68000000000001 -22 43 C-21.131171875000007 42.7202734375 -20.26234375 42.440546874999995 -19.3671875 42.15234375 C-12.283519253620966 39.68811463968245 -6.8496834979093535 37.673775639232815 -3 31 C-0.48362612396086035 25.509729725005514 -0.17703323474248123 20.423179919924934 -2.125 14.6875 C-3.289885278280991 9.778340612958658 -2.4225474998309977 5.790772870398584 -1 1 C-0.6700000000000017 0.6700000000000017 -0.3400000000000034 0.3400000000000034 0 0 Z " fill="#B09184" transform="translate(98,67)"/>
<path d="M0 0 C0 10.89 0 21.78 0 33 C-13.200000000000003 33 -26.400000000000006 33 -40 33 C-38.78151378873716 29.344541366211473 -37.40335412450115 28.979380771201036 -34.15234375 27.2109375 C-25.58113609554536 22.388660961196123 -19.352957449404713 16.441312709661304 -13 9 C-4.5869565217391255 0 -4.5869565217391255 0 0 0 Z " fill="#3D322E" transform="translate(128,95)"/>
<path d="M0 0 C1.2777832031249972 0.031420898437499956 2.5555664062500014 0.06284179687500002 3.8720703125 0.09521484375 C4.554487915039061 0.10370452880859371 5.236905517578123 0.11219421386718753 5.94000244140625 0.120941162109375 C8.111699112044029 0.15443177344241565 10.279629146867336 0.22967992621496913 12.4501953125 0.30615234375 C13.925401939008921 0.3362586014338556 15.400667015230155 0.36363329065587124 16.8759765625 0.38818359375 C20.485265750193904 0.4542014934187476 24.092362732085064 0.5576831697975759 27.7001953125 0.68115234375 C27.979438476562507 1.4538647460937502 28.258681640625 2.2265771484375003 28.54638671875 3.022705078125 C30.06440072330645 6.520304421251381 32.20618976111882 8.255386134978396 35.0751953125 10.74365234375 C38.386540638296964 13.63996382143494 41.62885886481001 16.529757363063354 44.7001953125 19.68115234375 C38.992491883901536 22.046305267757468 38.992491883901536 22.046305267757468 35.68701171875 21.1123046875 C33.56681032297331 20.119273146105435 31.54339216553521 19.03368124253358 29.5126953125 17.86865234375 C28.125145304689013 17.108895044920903 26.73587312412178 16.352272752706035 25.3447265625 15.59912109375 C24.73991455078125 15.25647216796875 24.1351025390625 14.9138232421875 23.511962890625 14.560791015625 C17.00450306296071 11.401327633456233 10.177317544307847 12.240063258933974 3.5537109375 14.45849609375 C2.880175781250003 14.69697265625 2.2066406249999986 14.93544921875 1.5126953125 15.18115234375 C-7.157373665874346 18.19895622145321 -7.157373665874346 18.19895622145321 -11.2998046875 17.68115234375 C-14.1123046875 15.806152343749998 -14.1123046875 15.806152343749998 -16.2998046875 13.68115234375 C-16.2998046875 13.02115234375 -16.2998046875 12.36115234375 -16.2998046875 11.68115234375 C-15.696523437499998 11.38982421875 -15.093242187500003 11.09849609375 -14.4716796875 10.79833984375 C-13.672460937499999 10.38841796875 -12.873242187499997 9.97849609375 -12.0498046875 9.55615234375 C-11.260898437500003 9.16169921875 -10.4719921875 8.76724609375 -9.6591796875 8.36083984375 C-7.057434355307009 6.7643946682953615 -7.057434355307009 6.7643946682953615 -5.6005859375 3.61279296875 C-3.2998046875 0.6811523437500009 -3.2998046875 0.6811523437500009 0 0 Z " fill="#683532" transform="translate(49.2998046875,-0.68115234375)"/>
</svg>
