<?xml version="1.0" encoding="UTF-8"?>
<!-- Generator: visioncortex VTracer 0.6.0 -->
<svg version="1.1" xmlns="http://www.w3.org/2000/svg" width="128" height="128">
<path d="M0 0 C42.24 0 84.48 0 128 0 C128 42.24 128 84.48 128 128 C85.75999999999999 128 43.519999999999996 128 0 128 C0 85.75999999999999 0 43.519999999999996 0 0 Z " fill="#917B62" transform="translate(0,0)"/>
<path d="M0 0 C35.31 0 70.62 0 107 0 C110.62665657992609 7.253313159852183 107.74197608250888 19.43824018729096 106 27 C103.82179170903021 33.492736251929195 100.21189445659934 37.89405277170033 94 41 C92.56193678352534 41.127887798238085 91.11884592404233 41.20198649383137 89.67578125 41.24609375 C88.81146484375 41.27896484375 87.9471484375 41.3118359375 87.056640625 41.345703125 C85.24685056879909 41.40624414467362 83.43695102839848 41.46360727842594 81.626953125 41.517578125 C76.38732605220514 41.72312974221549 71.99771916796871 42.44898370649247 67 44 C63.83680553864567 43.75667734912659 60.86730077716398 43.20308275239931 57.78125 42.48046875 C51.60968883021082 41.156630783023616 45.898011457753945 40.97615725496517 39.625 41.125 C27.597031127200545 41.323721941490184 18.250755195805084 37.984603716457094 7.65625 32.3671875 C4.664272682116875 30.77417104729786 4.664272682116875 30.77417104729786 0 29 C0 19.43 0 9.86 0 0 Z " fill="#632D08" transform="translate(0,0)"/>
<path d="M0 0 C0 18.150000000000006 0 36.30000000000001 0 55 C-13.839185520647305 55 -23.606946281257535 54.17458032851022 -35.09765625 47.05078125 C-43.35035287139648 42.49231022093295 -55.29865068088776 44.64229906173756 -64 47 C-67.32064135509438 47.99540552469061 -70.62629809282305 49.02212930369225 -73.921875 50.09765625 C-80.20188435727843 51.938623460065116 -88.67166935298496 53.97790519320564 -94.90625 51.12890625 C-98.95907590398696 48.09922021883328 -100.17826884853525 44.84821379364196 -101 40 C-101.48452625203747 32.61097465642858 -100.62248175822083 25.515377142811815 -97.5 18.75 C-93.59636379253686 14.45600017179055 -88.63560674869186 10.28892239062452 -82.640625 9.8125 C-79.8884908890381 10.133917122448103 -77.48150332704577 10.759248336477114 -75 12 C-66.22707250542796 12.762863260397566 -57.781942683060535 11.541805174067463 -49.15673828125 10.0673828125 C-42.51508738072641 8.956262196914693 -36.31771652410944 8.329772145456431 -29.6875 9.9375 C-24.21946607790018 10.644573351995668 -20.970424359451044 7.822618860453872 -16.640625 4.79296875 C-11.132311212457807 1.052856281831552 -6.762627498589495 0 0 0 Z " fill="#EBA17A" transform="translate(128,47)"/>
<path d="M0 0 C6.930000000000007 0 13.86 0 21 0 C21 15.510000000000002 21 31.020000000000003 21 47 C18.03 47.66 15.060000000000002 48.32 12 49 C6.878507497928695 51.251742678412214 6.878507497928695 51.251742678412214 2.3203125 54.40625 C-2.938729106918558 58.613483285534855 -7.581624442764991 58.04855700492638 -13.946044921875 57.40185546875 C-19.931058426217334 56.868225518314496 -25.340626782561912 57.41900939146107 -31.25 58.4375 C-44.398742799160296 60.64397568579094 -55.43182270614741 61.71211819590172 -67 54 C-69.23717638398342 53.69793542933206 -69.23717638398342 53.69793542933206 -71.7265625 53.7265625 C-72.66878662109374 53.70843505859375 -73.6110107421875 53.6903076171875 -74.581787109375 53.671630859375 C-76.08817749023437 53.64854858398438 -76.08817749023437 53.64854858398438 -77.625 53.625 C-87.98487191761274 53.34513577477033 -97.01322274569631 51.73973535295057 -107 49 C-107 42.4 -107 35.8 -107 29 C-101.6952393428196 30.439863606948965 -96.87067680434626 31.940961869462523 -92 34.5 C-82.7758657252658 39.204450608531616 -75.30063539816322 40.20826155619416 -65.048095703125 40.01513671875 C-58.80400052352753 39.9174664842805 -53.08890829103937 40.57425210790804 -47 42 C-43.05787853063932 42.78842429387213 -40.76881197618523 43.24031479814685 -36.92578125 42.0390625 C-31.510938219078753 40.39448059342966 -25.909286370190372 40.64257153803512 -20.294921875 40.609375 C-14.714996275595439 40.45731041137126 -11.413037673033386 39.74937154236015 -7 36 C1.2571537216812914 25.44919246674057 0.12496713560635442 12.746647831847612 0 0 Z " fill="#B56941" transform="translate(107,0)"/>
<path d="M0 0 C2.766106549780158 0.7665884202623943 5.105374145683655 1.207328362844791 7.9453125 1.375 C13.115668571046186 1.7533187369058112 17.619491607616794 3.8087773104108464 22.3671875 5.78125 C26.778823249500498 7.472758007580495 30.20998116295703 8.1308322305008 34.8828125 7.5 C40.58947536582276 6.93244361143725 46.276787757816365 6.682314110687713 52.0078125 6.5625 C53.331357421875 6.5055798339843705 53.331357421875 6.5055798339843705 54.681640625 6.447509765625 C63.489166919164646 6.334866832251166 69.70353364257342 10.048017477513511 76.2578125 15.75 C76.977109375 16.3545703125 77.69640625 16.959140625000003 78.4375 17.58203125 C80.3828125 19.937499999999986 80.3828125 19.937499999999986 83.3828125 27.9375 C48.402812499999996 27.9375 13.422812499999992 27.9375 -22.6171875 27.9375 C-22.6171875 18.037499999999994 -22.6171875 8.137500000000003 -22.6171875 -2.0625 C-14.17118976575314 -4.173999433561718 -8.190654618246025 -2.5041491826484616 0 0 Z " fill="#80604B" transform="translate(22.6171875,100.0625)"/>
<path d="M0 0 C10.230000000000004 0 20.460000000000008 0 31 0 C34.62665657992609 7.25331315985218 31.7419760825089 19.438240187290962 30 27 C27.821791709030208 33.492736251929195 24.21189445659934 37.89405277170033 18 41 C16.56193678352534 41.127887798238085 15.118845924042333 41.20198649383137 13.67578125 41.24609375 C12.811464843750002 41.27896484375 11.947148437500005 41.3118359375 11.056640625 41.345703125 C9.24685056879909 41.40624414467362 7.436951028398482 41.46360727842594 5.626953125 41.517578125 C1.6254726255519358 41.67455700469707 -2.066861437812335 41.87696953375531 -5.91015625 43.0546875 C-10.606069308223084 44.491363808584055 -14.429229400954775 43.52359019968174 -19 42 C-18.853046874999997 40.9906640625 -18.70609375 39.981328125 -18.5546875 38.94140625 C-18.204378681498305 36.452240067829514 -17.87361232666862 33.96017414213729 -17.5703125 31.46484375 C-17.423359374999997 30.3008203125 -17.27640625 29.136796875 -17.125 27.9375 C-16.912304687499997 26.18759765625 -16.912304687499997 26.18759765625 -16.6953125 24.40234375 C-15.397757115475898 18.053069930221938 -12.770547362340928 14.353026705788675 -7.9375 10.125 C-7.059648437500002 9.343828125 -6.181796875000003 8.56265625 -5.27734375 7.7578125 C-3 6 -3 6 -1 6 C-0.6700000000000017 4.02 -0.3400000000000034 2.04 0 0 Z " fill="#78350E" transform="translate(76,0)"/>
<path d="M0 0 C0 18.150000000000006 0 36.30000000000001 0 55 C-15.652163928708262 55 -25.436256820936933 53.508178225099144 -38 45 C-36.35517095953752 36.86984502857115 -33.718670566449475 29.456738940676075 -30.425537109375 21.877197265625 C-28.603740376018195 17.69564051618984 -28.603740376018195 17.69564051618984 -27.66796875 13.25390625 C-26.600625269472516 9.652402225062218 -24.095191145787084 8.723935114065917 -20.9375 6.875 C-20.34767333984375 6.529531249999998 -19.757846679687503 6.184062499999996 -19.150146484375 5.828125 C-12.520281343463296 2.0225115985619837 -7.791777091504301 0 0 0 Z " fill="#DAAD87" transform="translate(128,47)"/>
<path d="M0 0 C2.7351339334803413 -0.11872201734436771 5.46863095977173 -0.19212613252751964 8.20556640625 -0.255859375 C9.08784912109374 -0.294047851562496 9.970131835937508 -0.33223632812500625 10.879150390625 -0.37158203125 C19.6871453305302 -0.48175390859036327 25.900498832838423 3.2289719484972466 32.45556640625 8.931640625 C33.17486328125 9.536210937500002 33.894160156249995 10.140781250000003 34.63525390625 10.763671875 C36.58056640625 13.119140625000014 36.58056640625 13.119140625000014 39.58056640625 21.119140625 C18.130566406249997 21.119140625 -3.3194335937499986 21.119140625 -25.41943359375 21.119140625 C-24.4369856664881 12.2771092796429 -23.82687409585636 8.74992167230559 -17.41943359375 3.119140625 C-11.992274131537542 -0.029527839363765906 -6.1309468117476555 0.3019073707500297 0 0 Z " fill="#704134" transform="translate(66.41943359375,106.880859375)"/>
<path d="M0 0 C0.09796874999999972 0.966796875 0.19593749999999943 1.93359375 0.296875 2.9296875 C1.8608384817335732 16.546955746128532 5.19549834670206 25.253685300134094 15 35 C5.523356751567576 39.23468223248824 -5.492381284679752 42.76660489784719 -16 41 C-19.906348207307786 39.18836025168335 -21.723916477435672 36.665110304359516 -23.375 32.6875 C-24.82870973301958 24.11061257518449 -24.170017093731772 15.701703703085514 -20.5 7.75 C-14.595089234198646 1.25459815761851 -8.690507894902154 -2.253094639419075 0 0 Z " fill="#C6A085" transform="translate(51,58)"/>
<path d="M0 0 C5.3047606571804025 1.4398636069489648 10.129323195653743 2.940961869462523 15 5.5 C24.224758406744428 10.204768925473658 31.695703515060007 11.201808661580962 41.947509765625 11.017333984375 C50.13608141309054 10.89475300700142 57.41180822372983 11.809205578176147 65 15 C63.89972725598622 16.10027274401378 62.796403981892624 17.19756551344772 61.68359375 18.28515625 C60.384772318505945 19.60808573590694 59.1360025661652 20.980273723995744 57.91015625 22.37109375 C51.91514104621746 28.93999075106771 51.91514104621746 28.93999075106771 47.1875 29.25 C44 28 44 28 42.102294921875 26.445068359375 C39.5759297173092 24.708504006126248 38.213556741135505 24.63154600856138 35.17578125 24.62890625 C34.23677978515625 24.614001464843753 33.2977783203125 24.5990966796875 32.330322265625 24.583740234375 C31.33444091796875 24.576730957031245 30.3385595703125 24.569721679687504 29.3125 24.5625 C18.95397358158405 24.327321051966983 9.985170512502737 22.739294565376852 0 20 C0 13.399999999999999 0 6.799999999999997 0 0 Z " fill="#795C42" transform="translate(0,29)"/>
<path d="M0 0 C6.2700000000000005 0 12.540000000000001 0 19 0 C19.37125 2.5987500000000003 19.7425 5.197500000000001 20.125 7.875 C22.046925103656225 19.361803927303683 26.157523419693106 26.21240713749289 35.53515625 33.30859375 C38.01097807937075 35.05836058145507 38.01097807937075 35.05836058145507 40.80859375 36.59765625 C41.5317578125 37.0604296875 42.254921875 37.523203125 43 38 C43 38.66 43 39.32 43 40 C33.05466921623962 43.31511026125346 22.813251098566766 39.680934624280205 13.6796875 35.46875 C11.660746827043436 34.45679939242472 9.65148944388574 33.42510291942293 7.65625 32.3671875 C4.664272682116875 30.77417104729786 4.664272682116875 30.77417104729786 0 29 C0 19.43 0 9.86 0 0 Z " fill="#5E381E" transform="translate(0,0)"/>
<path d="M0 0 C3.7283726781104463 0.9016326084319388 7.355754268277778 1.1399518319039856 11.17578125 1.34765625 C14.547968749999995 1.5332812500000017 14.547968749999995 1.5332812500000017 17.98828125 1.72265625 C17.98828125 10.302656249999998 17.98828125 18.882656249999997 17.98828125 27.72265625 C10.728281250000009 27.72265625 3.4682812499999898 27.72265625 -4.01171875 27.72265625 C-5.661718750000006 24.75265625 -7.311718749999997 21.782656250000002 -9.01171875 18.72265625 C-13.567092390370206 14.253233055674514 -18.521567671128963 10.945446233960666 -24.01171875 7.72265625 C-17.93560040285132 0.739339677408978 -8.789130882291701 -2.3828310391990755 0 0 Z " fill="#896446" transform="translate(110.01171875,100.27734375)"/>
<path d="M0 0 C9.354459633973192 -0.3391675422844145 17.312391179584452 1.5796076983619258 24.96484375 7.19140625 C24.96484375 7.851406249999997 24.96484375 8.511406249999993 24.96484375 9.19140625 C12.736481858183609 16.371361856204118 3.3194010006377397 18.006545992159857 -10.74560546875 17.2509765625 C-13.695295731167349 17.174230516005025 -16.498066115179725 17.55709834236943 -19.41015625 18.00390625 C-27.155447816334565 18.843352590281924 -35.17357546287911 15.622196643560443 -42.03515625 12.19140625 C-42.03515625 11.531406250000003 -42.03515625 10.871406250000007 -42.03515625 10.19140625 C-41.37515625 10.19140625 -40.71515625 10.19140625 -40.03515625 10.19140625 C-40.03515625 9.531406250000003 -40.03515625 8.871406250000007 -40.03515625 8.19140625 C-38.779609375 8.021249999999995 -37.5240625 7.851093750000004 -36.23046875 7.67578125 C-28.119674562596742 6.5204528601051805 -20.59832159985291 5.430107833610762 -13.07421875 2.04296875 C-8.825326189601697 0.2685270293738995 -4.515201778555564 0.2847424545035011 0 0 Z " fill="#A8755F" transform="translate(77.03515625,90.80859375)"/>
<path d="M0 0 C6.930000000000007 0 13.86 0 21 0 C21.243811979743697 3.545808791828009 21.42147929040152 7.074859596457195 21.5625 10.625 C21.63791015625 11.6240234375 21.713320312500002 12.623046875 21.791015625 13.65234375 C21.880879874389677 16.66778856285407 21.826286020094017 19.0939845806192 21 22 C18.94004663800716 24.032574928154553 16.890745959834064 25.257046813309515 14.354248046875 26.64013671875 C10.800914972595677 28.692616779284673 8.613232456611769 31.54768899814757 6.125 34.75 C1.3141891891892072 40.79054054054052 1.3141891891892072 40.79054054054052 -2 43 C-4.699218749999972 42.75781250000001 -4.699218749999972 42.75781250000001 -7.6875 42.125 C-8.681367187500001 41.921328125 -9.675234375000002 41.71765625 -10.69921875 41.5078125 C-11.458476562499996 41.340234375 -12.217734375000006 41.17265625 -13 41 C-12.278125000000003 40.484375 -11.556250000000006 39.96875 -10.8125 39.4375 C-3.635494960426499 33.21742896570297 -0.9667223453030118 26.289235330318753 -0.15234375 16.9453125 C0.13985462805541715 11.296143857595329 0.055443479503964 5.655234909404353 0 0 Z " fill="#965B33" transform="translate(107,0)"/>
<path d="M0 0 C0 8.25 0 16.5 0 25 C-2.969999999999999 25.659999999999997 -5.939999999999998 26.32 -9 27 C-12.575193051956077 28.595086130872716 -15.787750499160182 30.130657728481403 -18.9609375 32.40625 C-23.60094387251634 35.70744030455708 -26.454617945081324 36.46783798412502 -32.1171875 35.58984375 C-34 35 -34 35 -36 33 C-33.77506434569757 30.745782949153813 -31.54430627192653 28.497413308793156 -29.3125 26.25 C-28.68666015625 25.615781249999998 -28.0608203125 24.981562499999995 -27.416015625 24.328125 C-24.79741988253572 21.69581933218251 -22.24132261890692 19.189962411384457 -19.3203125 16.890625 C-16.6164342734494 14.687464963551363 -14.689286157192186 12.259893622880405 -12.5625 9.5 C-4.952353137516695 0 -4.952353137516695 0 0 0 Z " fill="#BE8861" transform="translate(128,22)"/>
<path d="M0 0 C-1.100272744013779 1.100272744013779 -2.203596018107376 2.1975655134477208 -3.31640625 3.28515625 C-4.615227681494062 4.60808573590694 -5.863997433834797 5.980273723995744 -7.08984375 7.37109375 C-13.084858953782543 13.939990751067711 -13.084858953782543 13.939990751067711 -17.8125 14.25 C-20.813145707909513 13.073276192976664 -22.639981993549057 12.147229497672583 -25 10 C-26.01171875 7.625 -26.01171875 7.625 -26.6875 5 C-26.9182421875 4.133749999999999 -27.148984374999998 3.2674999999999983 -27.38671875 2.375 C-27.589101562499998 1.5912500000000023 -27.791484375000003 0.8074999999999974 -28 0 C-28.33 -0.990000000000002 -28.659999999999997 -1.9799999999999969 -29 -3 C-19.54908215544917 -5.6428741176036965 -8.88595606561038 -3.8037006180130746 0 0 Z " fill="#8D5839" transform="translate(65,44)"/>
</svg>
