<?xml version="1.0" encoding="UTF-8"?>
<!-- Generator: visioncortex VTracer 0.6.0 -->
<svg version="1.1" xmlns="http://www.w3.org/2000/svg" width="128" height="128">
<path d="M0 0 C42.24 0 84.48 0 128 0 C128 42.24 128 84.48 128 128 C85.75999999999999 128 43.519999999999996 128 0 128 C0 85.75999999999999 0 43.519999999999996 0 0 Z " fill="#568B8E" transform="translate(0,0)"/>
<path d="M0 0 C4.504052303129356 3.6519342998346076 5.819025896825622 9.49773429202844 7 15 C7 16.319999999999993 7 17.64 7 19 C7.659999999999997 19 8.319999999999993 19 9 19 C9.618750000000006 19.783749999999998 10.237499999999997 20.567499999999995 10.875 21.375 C13.415424813130045 24.51317182798418 15.284612829363525 25.725751991964685 19.270751953125 26.363037109375 C20.08503662109375 26.417258300781242 20.8993212890625 26.4714794921875 21.73828125 26.52734375 C22.641269531250003 26.597597656250002 23.544257812500007 26.667851562500005 24.474609375 26.740234375 C26.354606353725572 26.87091551392035 28.234817121001527 26.9985593215994 30.115234375 27.123046875 C35.72423806780658 27.56554823242824 39.97016970872899 28.45518493849829 45 31 C45.66 31.33 46.31999999999999 31.659999999999997 47 32 C47 42.230000000000004 47 52.46000000000001 47 63 C14.329999999999998 63 -18.340000000000003 63 -52 63 C-55.21376354928157 43.71741870431056 -55.21376354928157 43.71741870431056 -51.91015625 39.04296875 C-49.0050765825707 35.770046460855724 -45.69888079718164 33.48349331534459 -42 31.1875 C-41.39671875 30.793691406250005 -40.793437499999996 30.399882812499996 -40.171875 29.994140625 C-36.7546043381017 27.828631064253585 -33.932298152529064 26.74413281011401 -30 26 C-26.881878544774878 23.628028515168793 -24.966119181909903 20.099711199815545 -22.8125 16.875 C-10.201815235951571 -1.7036828624650724 -10.201815235951571 -1.7036828624650724 0 0 Z " fill="#7CB0A4" transform="translate(81,65)"/>
<path d="M0 0 C0.6599999999999966 0.3299999999999983 1.3200000000000003 0.6600000000000001 2 1 C2 1.6600000000000001 2 2.3200000000000003 2 3 C2.6599999999999966 3 3.3200000000000003 3 4 3 C5.375000000000014 4.652343750000021 5.375000000000014 4.652343750000021 7 6.9375 C9.773732595878016 10.661061194886663 12.67819651527568 13.539162900820628 16.25 16.5 C19.91311978973802 19.77545833959703 22.84550066246048 22.449047784130386 24.0625 27.30859375 C23.926674362184762 33.15758527841878 21.13420104333661 38.58562386963782 18.86962890625 43.89501953125 C17.490257599413987 47.23385709653358 16.329216036578217 50.636486953874 15.1875 54.0625 C14.789179687500003 55.229101562500006 14.390859374999998 56.395703125 13.98046875 57.59765625 C12.88108292600461 61.00434577523306 12.88108292600461 61.00434577523306 12.67578125 64.68359375 C12 68 12 68 9.8203125 70.19140625 C8.889609375 70.7882421875 7.958906249999998 71.385078125 7 72 C6.007421874999999 72.6483984375 5.014843749999997 73.296796875 3.9921875 73.96484375 C1.9115160048268365 75.28155942050432 -0.17183235699009458 76.59405445831175 -2.2578125 77.90234375 C-5.117833963298395 80.09013794628382 -6.490623315055135 81.75535352079879 -8 85 C-8.47195447140405 91.72535121750774 -7.562327469181607 98.25207036982073 -7 105 C-16.57 105 -26.14 105 -36 105 C-36 84.87 -36 64.74 -36 44 C-32.7 42.68000000000001 -29.4 41.36 -26 40 C-21.163540953348615 37.19173345678307 -17.902139889724076 34.640226147983554 -15.55859375 29.49609375 C-14.82582745575376 26.22170450508149 -15.19022346139677 23.453802835471613 -15.5625 20.125 C-16.296998684694174 13.139767610867665 -15.27613927147177 8.610382215511557 -11 3 C-7.624604908639391 -0.46352551150057053 -4.707952750432778 -1.7000940487673901 0 0 Z " fill="#1B6287" transform="translate(36,23)"/>
<path d="M0 0 C22.769999999999996 0 45.53999999999999 0 69 0 C69 24.42 69 48.84 69 74 C61.3229384628614 72.46458769257228 56.45541067909275 68.25107537437009 52.0078125 61.90625 C48.94342841814583 56.110050651376625 48.60684179219449 50.53928958404743 48.375 44.125 C48.316992187500006 42.8062890625 48.316992187500006 42.8062890625 48.2578125 41.4609375 C48.16418965537065 39.30761207352499 48.08103540842026 37.15383585538045 48 35 C47.34 35 46.68000000000001 35 46 35 C46 34.34 46 33.68 46 33 C40.25816970077591 30.675925831266444 36.60088530084623 30.948578282636632 30.87890625 33.26171875 C29.784492187500007 33.7322265625 28.690078125 34.202734375 27.5625 34.6875 C18.312958539206434 38.07410459834347 9.208215575259317 37.21034007003584 0.25 33.125 C-3.5474870449489586 30.64202770137953 -5.382189155080695 29.37584611685879 -6.53125 24.95703125 C-7.282234563461849 20.646091015512287 -7.339671982718443 18.62077983048543 -5.1875 14.6875 C-4.465625000000003 13.800625 -3.7437499999999986 12.91375 -3 12 C-0.366024555123289 7.841091402826244 -0.7040533546359526 5.632426837087615 0 0 Z " fill="#6FAA8E" transform="translate(59,0)"/>
<path d="M0 0 C19.470000000000002 0 38.940000000000005 0 59 0 C60.13116179129962 3.39348537389886 59.96678184439666 4.616263544611698 59 8 C57.575090721068506 10.590744143511808 56.06547132379457 12.915822583692698 54.25 15.25 C52.408520172625146 19.301255620224673 52.960534231648616 22.74204022297544 54 27 C55.403810348877784 29.960481019391057 55.403810348877784 29.960481019391057 57 32 C56.67 32.33 56.34 32.66 56 33 C50.66216233947061 32.78648649357883 47.68225777503902 31.44557678905351 43.67578125 28.15625 C41.8039451039338 26.864726691758516 40.21864182442194 26.42536052407218 38 26 C38 25.34 38 24.68 38 24 C34.47671382908261 23.240075531762916 31.856359800254516 22.734936252302173 28.375 23.8125 C23.7954498013861 28.030506761881224 21.25157309463667 33.52619790273942 20.625 39.6875 C20.935040227617655 43.03472139389853 20.935040227617655 43.03472139389853 21.8125 46.375 C22.08509993830043 51.6452654738083 20.26856104425201 54.93278603090813 17 59 C12.210638194992459 63.06317698258762 6.443561257149606 67 0 67 C0 44.89 0 22.78 0 0 Z " fill="#528C7F" transform="translate(0,0)"/>
<path d="M0 0 C0.6393750000000011 1.03125 1.2787500000000023 2.0625 1.9375 3.125 C5.1048933395856295 8.042001089071022 10.046738625835843 9.796796175964317 15.234375 12.12890625 C18 14 18 14 18.97265625 17.02734375 C19.001660368522693 20.180505777967923 18.47947791046741 21.945888555786354 16.578125 24.4765625 C12.698906037917098 28.221353082208736 7.478620439096659 32 2 32 C2 32.66 2 33.31999999999999 2 34 C0.5302734375 36.1005859375 0.5302734375 36.1005859375 -2 38 C-4.959282791202867 38.348989728102794 -7.534535208548164 38.46784199277877 -10.484375 38.390625 C-11.299968872070309 38.38496520996094 -12.115562744140618 38.37930541992188 -12.95587158203125 38.37347412109375 C-15.5545177184692 38.35112727070975 -18.151772416572612 38.30093621672708 -20.75 38.25 C-22.514302967397114 38.229932712533724 -24.278627602377476 38.21168233807407 -26.04296875 38.1953125 C-30.362513275629013 38.151268297044396 -34.68102093034658 38.08225421609359 -39 38 C-39.8397971597546 30.440373881724966 -40.37879088927206 23.76903934817466 -38.1875 16.4375 C-38.00896484375 15.766542968750002 -37.8304296875 15.095585937500005 -37.646484375 14.404296875 C-37.14794157217397 12.588305221384601 -36.577128769473944 10.79256603663461 -36 9 C-35.7744140625 8.195625000000007 -35.548828125 7.391249999999999 -35.31640625 6.5625 C-34 5 -34 5 -30.796875 4.56640625 C-29.44798696606992 4.552573231142787 -28.0989190534944 4.552123699588506 -26.75 4.5625 C-19.34509876451679 4.402694089647682 -13.75203868305563 2.8491139572862068 -6.890625 -0.0390625 C-3.950469603651655 -1.0164655101374223 -2.762234071789848 -1.3468229334234962 0 0 Z " fill="#70CFE5" transform="translate(86,90)"/>
<path d="M0 0 C3 1 3 1 4.9375 3.4375 C7.438742573721598 6.54510440977532 9.331131756365878 7.7331892185481195 13.270751953125 8.363037109375 C14.08503662109375 8.417258300781242 14.899321289062499 8.471479492187498 15.73828125 8.52734375 C16.641269531250003 8.597597656250002 17.544257812500007 8.667851562500005 18.474609375 8.740234375 C20.354606353725572 8.870915513920366 22.234817121001527 8.998559321599402 24.115234375 9.123046875 C29.72423806780661 9.565548232428242 33.970169708728974 10.455184938498277 39 13 C39.66 13.329999999999998 40.31999999999999 13.659999999999997 41 14 C41 24.230000000000004 41 34.46000000000001 41 45 C26.47999999999999 45 11.959999999999994 45 -3 45 C-2.3400000000000034 43.68000000000001 -1.6800000000000068 42.36 -1 41 C-0.3400000000000034 41 0.3199999999999932 41 1 41 C1 40.34 1 39.68000000000001 1 39 C1.6638671875000028 38.6970703125 2.3277343750000057 38.394140625000006 3.01171875 38.08203125 C10.312585007619262 34.62841044435319 10.312585007619262 34.62841044435319 16 29 C17.192390424219468 24.901778031086224 17.192390424219468 24.901778031086224 16 21 C14.143284403180274 20.10678508354887 12.264041421377044 19.260147070599686 10.375 18.4375 C4.119088253297406 15.428988742337538 0.6689997555807281 11.813555950744103 -3 6 C-2.010000000000005 4.019999999999996 -1.019999999999996 2.0400000000000063 0 0 Z " fill="#6CABBD" transform="translate(87,83)"/>
<path d="M0 0 C0.6599999999999966 0.3299999999999983 1.3200000000000003 0.6600000000000001 2 1 C2 1.6600000000000001 2 2.3200000000000003 2 3 C2.6599999999999966 3 3.3200000000000003 3 4 3 C5.375000000000007 4.652343750000007 5.375000000000007 4.652343750000007 7 6.9375 C9.773732595878016 10.66106119488667 12.678196515275673 13.539162900820621 16.25 16.5 C19.911594853055092 19.77409478425018 22.844023779760555 22.44770589987887 24.0625 27.3046875 C23.92657909566993 33.16627649923437 21.16279689483528 38.59972829781715 18.8740234375 43.91162109375 C17.486906653766958 47.225977788736714 16.30770635258113 50.60849302232762 15.125 54 C14.715078125000005 55.155 14.305156249999996 56.31 13.8828125 57.5 C13.591484375 58.325 13.30015625 59.150000000000006 13 60 C8.431514619704146 56.0544898988354 7.732890378437176 51.20575123185952 6.9375 45.4375 C6.637089976764592 43.289940742986545 6.3258215494544885 41.143851035486264 6 39 C5.898164062500001 38.2484765625 5.796328125000002 37.496953125 5.69140625 36.72265625 C5.130310647401991 34.83788916926337 5.130310647401991 34.83788916926337 3.2109375 33.87109375 C2.4813281250000045 33.5836328125 1.7517187499999949 33.296171875 1 33 C-0.0634765625 32.52240234375 -0.0634765625 32.52240234375 -1.1484375 32.03515625 C-2.2505859374999986 31.553691406249996 -2.2505859374999986 31.553691406249996 -3.375 31.0625 C-4.548691406250001 30.53462890625 -4.548691406250001 30.53462890625 -5.74609375 29.99609375 C-7.625890938173569 29.165334160772517 -9.529305564613438 28.388277774154624 -11.4375 27.625 C-14 26 -14 26 -15.375 23.25 C-16.926825867940327 15.180505486710302 -15.510406786665815 9.801032222825938 -11 3 C-7.664841789777071 -0.49231226201353806 -4.681384592500528 -1.6904999917363028 0 0 Z " fill="#205869" transform="translate(36,23)"/>
<path d="M0 0 C1.314772336234114 1.0071652236057531 2.6010679013571405 2.05356340427943 3.84375 3.1484375 C6.041524164445619 4.991249942713779 6.041524164445619 4.991249942713779 10.6953125 6.5859375 C10.6953125 14.175937500000003 10.6953125 21.765937500000007 10.6953125 29.5859375 C5.6953125 28.5859375 5.6953125 28.5859375 3.68115234375 27.55419921875 C1.3341131868122318 26.409822860695513 -0.47793844192831614 26.245380749606767 -3.078125 26.09375 C-3.985624999999999 26.028007812499993 -4.893124999999998 25.962265625 -5.828125 25.89453125 C-7.720899495208812 25.77266768660985 -9.614153050550414 25.658018870756123 -11.5078125 25.55078125 C-18.553177715656375 25.02187989528359 -22.24742065603563 23.64320434396437 -27.3046875 18.5859375 C-27.15780894470548 11.682645401157416 -24.618295565843752 3.7868378085021277 -19.58203125 -1.078125 C-13.37104182129518 -4.827675086322827 -6.022050818534552 -3.694885417473742 0 0 Z " fill="#508497" transform="translate(117.3046875,67.4140625)"/>
<path d="M0 0 C12.584641664551839 0.08145399135632303 28.993196628682142 1.172858253587723 38.4375 10.375 C40.18412258062078 13.30932593544291 40.524590030510296 15.649052059713384 41 19 C38.6062703024304 19.98459070579278 36.21024929734844 20.962787029822074 33.8125 21.9375 C33.13896484375 22.21529296875 32.465429687500006 22.4930859375 31.771484375 22.779296875 C22.450171005762442 26.55329204400838 14.077052017154543 26.42672327476447 4.4140625 23.11328125 C0.7386092867956009 21.38486180215481 -2.284071094773658 19.73466879372792 -4 16 C-5.279623235468193 11.07909594007451 -5.5731658122106325 8.069909516126518 -3.125 3.5 C-1 1.0000000000000018 -1 1.0000000000000018 0 0 Z " fill="#6AB6B0" transform="translate(57,11)"/>
<path d="M0 0 C1.875 1.5 1.875 1.5 3 3 C1.948125000000001 3.4537499999999994 0.8962499999999984 3.907499999999999 -0.1875 4.375 C-5.1802675175402335 7.226560309814644 -7.173009938262759 11.70746376734413 -9 17 C-9.392453376464466 20.85912486856725 -9.09258706363277 23.61540758183311 -8.1875 27.375 C-7.914900061699569 32.645265473808294 -9.73143895574799 35.93278603090813 -13 40 C-17.789361805007537 44.06317698258762 -23.556438742850396 48 -30 48 C-30 36.78 -30 25.560000000000002 -30 14 C-26.04 12.02 -22.08 10.04 -18 8 C-16.0861330230288 6.788490381560987 -14.19507715698553 5.5358180276665365 -12.375 4.1875 C-7.938503630124924 0.9355050881012801 -5.663582882315431 -0.46233329651554556 0 0 Z " fill="#3C7E94" transform="translate(30,19)"/>
<path d="M0 0 C8.29961634820576 4.074012591014242 15.230644926633076 8.779580729746755 21.96875 15.14453125 C23.86504509550712 17.046290627754914 23.86504509550712 17.046290627754914 26 18 C26 18.659999999999997 26 19.32 26 20 C26.989999999999995 20.33 27.980000000000004 20.659999999999997 29 21 C32.415246162920894 25.586187704493774 33.946556260584956 29.57573925829189 33.703125 35.33984375 C32.52136539535415 39.81083425424346 29.637105940331082 42.67626440045359 26.5859375 46.0546875 C22.98234614008048 50.159080076101674 20.069739620416982 54.61494406629659 17.04296875 59.15234375 C15.198737066679534 61.722984088701 13.308026346197764 63.84757093556837 11 66 C10.009999999999998 65.67 9.019999999999996 65.34 8 65 C7.5992758069539335 58.326400938886636 8.91799969233854 53.34662537688371 11.25 47.125 C11.724455566406249 45.79891723632812 11.724455566406249 45.79891723632812 12.20849609375 44.446044921875 C13.828397253645008 39.9617247717824 15.598523721367101 35.6306625400399 17.625 31.3125 C19.215502819659775 27.26201948593311 19.329442909132254 24.487575636464058 17.66015625 20.43359375 C14.51634544654506 15.825136972229572 10.244719049785388 12.310074259236274 6.03125 8.69921875 C3.6709154970890268 6.655357668635503 1.6564123570769596 4.679838563413803 0 2 C0 1.3399999999999999 0 0.6799999999999997 0 0 Z " fill="#477474" transform="translate(40,26)"/>
<path d="M0 0 C7.260000000000001 0 14.520000000000001 0 22 0 C26.428571428571427 12.714285714285706 26.428571428571427 12.714285714285706 27 19 C26.394140625 19.2797265625 25.78828125 19.559453125 25.1640625 19.84765625 C19.491446975580168 22.56178460091472 14.507625344725739 25.616798925943257 9.51953125 29.44921875 C7.000000000000004 30.999999999999996 7.000000000000004 30.999999999999996 0 33 C0 22.11 0 11.219999999999999 0 0 Z " fill="#629DA3" transform="translate(0,0)"/>
<path d="M0 0 C1.6754297563122549 0.2860489827850188 3.343853426426705 0.6178123291753934 5 1 C4.4661958688540295 5.349098921126142 3.675049427500582 9.415511026377246 2.4892578125 13.646484375 C0.2643184333034867 21.624762573676364 -0.37940094114370027 28.653179294838623 0 37 C-5.939999999999998 37 -11.880000000000003 37 -18 37 C-20.142857142857142 25.348214285714278 -20.142857142857142 25.348214285714278 -20.4375 20.125 C-20.49744140625 19.138867187499997 -20.49744140625 19.138867187499997 -20.55859375 18.1328125 C-18.90727940739677 11.827794100969498 -12.98570722719289 8.343045538380778 -7.75 5.1875 C-3.6552010225998686 2.8715190739267626 -3.6552010225998686 2.8715190739267626 0 0 Z " fill="#379CCA" transform="translate(47,91)"/>
<path d="M0 0 C0.7798828125000057 0.17402343749999716 1.5597656249999972 0.3480468750000014 2.36328125 0.52734375 C4.928181928788092 1.153161118150507 4.928181928788092 1.153161118150507 7.1875 0.5625 C11.37943061946116 -0.275886123892235 15.725052794348088 0 20 0 C20 12.21 20 24.42 20 37 C12.322938462861416 35.46458769257228 7.455410679092765 31.251075374370103 3.0078125 24.90625 C0.03962718418721067 19.292008007299835 -0.2614617007198916 14.318261801902636 -0.125 8.125 C-0.11597656249999488 7.341250000000002 -0.10695312500000398 6.557499999999997 -0.09765625 5.75 C-0.07428063359601822 3.8331994548732524 -0.038416531907287776 1.916558091818942 0 0 Z " fill="#82ADA5" transform="translate(108,37)"/>
<path d="M0 0 C0 3.6299999999999955 0 7.260000000000005 0 11 C-2.6400000000000006 11 -5.280000000000001 11 -8 11 C-7.632653061224488 4.632653061224488 -7.632653061224488 4.632653061224488 -4.5625 1.5625 C-2 0 -2 0 0 0 Z " fill="#508497" transform="translate(128,117)"/>
</svg>
