<?xml version="1.0" encoding="UTF-8"?>
<!-- Generator: visioncortex VTracer 0.6.0 -->
<svg version="1.1" xmlns="http://www.w3.org/2000/svg" width="128" height="128">
<path d="M0 0 C42.24 0 84.48 0 128 0 C128 42.24 128 84.48 128 128 C85.75999999999999 128 43.519999999999996 128 0 128 C0 85.75999999999999 0 43.519999999999996 0 0 Z " fill="#5B618A" transform="translate(0,0)"/>
<path d="M0 0 C4.689310051107327 2.6304301533219707 4.689310051107327 2.6304301533219707 5.875 6.1875 C6.864999999999995 6.517499999999998 7.855000000000004 6.8475 8.875 7.1875 C13.7478744063486 12.373975234479946 17.496787935425417 18.56531133133887 21.19921875 24.609375 C22.851869371854463 27.26212231346316 22.851869371854463 27.26212231346316 25.01953125 29.765625 C28.74406987134337 34.62712804259556 28.416877399588145 40.28263010154679 27.875 46.1875 C25.888209384085386 56.671847777225125 20.934332291257178 64.65075757262404 14.875 73.1875 C13.972011718749997 74.49267578125 13.972011718749997 74.49267578125 13.05078125 75.82421875 C6.466682264409883 84.86392574886383 0.3943737888714054 89.23143695630976 -10.64453125 91.109375 C-17.88545963477347 92.61726208884329 -24.725585400725464 95.79229897844944 -31.534912109375 98.608642578125 C-38.43781246880138 101.39626183546171 -45.58391139046411 104.14783987958921 -53.125 104.1875 C-60.05530675209317 100.9598108243364 -63.03475141678275 94.40020530098847 -65.87890625 87.6328125 C-69.11106813548312 78.69623951255137 -70.35458926378176 69.75308936788602 -71.279541015625 60.35791015625 C-71.75466692917257 56.021342097334895 -72.61894487062152 52.37239243344156 -74.3125 48.3125 C-77.07640767096493 41.526487882481625 -76.35384450920178 35.52239494497222 -73.85546875 28.7421875 C-69.53087603947156 19.858712631871626 -62.55234024628862 11.648535820066023 -53.125 8.1875 C-49.62210340675439 7.170795583394046 -46.10464189723831 6.228119721781546 -42.578125 5.296875 C-38.303224201317406 3.923490580513736 -34.837604115500746 1.929480883399652 -31.11328125 -0.54296875 C-22.846372056139245 -5.82144711543172 -8.40938866269424 -4.098182170963177 0 0 Z " fill="#EBC4C1" transform="translate(90.125,14.8125)"/>
<path d="M0 0 C4.689310051107327 2.6304301533219707 4.689310051107327 2.6304301533219707 5.875 6.1875 C6.864999999999995 6.517499999999998 7.855000000000004 6.8475 8.875 7.1875 C13.7478744063486 12.373975234479946 17.496787935425417 18.56531133133887 21.19921875 24.609375 C22.851869371854463 27.26212231346316 22.851869371854463 27.26212231346316 25.01953125 29.765625 C28.74406987134337 34.62712804259556 28.416877399588145 40.28263010154679 27.875 46.1875 C25.888209384085386 56.671847777225125 20.934332291257178 64.65075757262404 14.875 73.1875 C13.972011718749997 74.49267578125 13.972011718749997 74.49267578125 13.05078125 75.82421875 C6.466682264409883 84.86392574886383 0.3943737888714054 89.23143695630976 -10.64453125 91.109375 C-17.88545963477347 92.61726208884329 -24.725585400725464 95.79229897844944 -31.534912109375 98.608642578125 C-38.43781246880138 101.39626183546171 -45.58391139046411 104.14783987958921 -53.125 104.1875 C-60.05530675209317 100.9598108243364 -63.03475141678275 94.40020530098847 -65.87890625 87.6328125 C-69.11106813548312 78.69623951255137 -70.35458926378176 69.75308936788602 -71.279541015625 60.35791015625 C-71.75466692917257 56.021342097334895 -72.61894487062152 52.37239243344156 -74.3125 48.3125 C-77.07640767096493 41.526487882481625 -76.35384450920178 35.52239494497222 -73.85546875 28.7421875 C-69.53087603947156 19.858712631871626 -62.55234024628862 11.648535820066023 -53.125 8.1875 C-49.62210340675439 7.170795583394046 -46.10464189723831 6.228119721781546 -42.578125 5.296875 C-38.303224201317406 3.923490580513736 -34.837604115500746 1.929480883399652 -31.11328125 -0.54296875 C-22.846372056139245 -5.82144711543172 -8.40938866269424 -4.098182170963177 0 0 Z M-55.125 19.1875 C-57.85980215783064 22.676192486510196 -60.06934225812189 26.264619809249282 -62.125 30.1875 C-62.4859375 30.8565234375 -62.846875 31.525546875000003 -63.21875 32.21484375 C-66.98975607971792 40.472648730123026 -65.89492324774315 50.79161865321379 -63.125 59.1875 C-62.7833984375 60.34378906250001 -62.441796875 61.500078125 -62.08984375 62.69140625 C-59.37583300435796 71.63942425792558 -56.48720894636112 79.55232587803239 -49.125 85.6875 C-40.81313780350873 89.66035043312468 -30.212097965784388 88.76012350995022 -21.56640625 86.46875 C-7.004033903037055 81.0471176165677 6.003073215130527 72.11233761447807 13.015625 57.87109375 C14.359500599195599 54.399415118744685 15.42462168546409 50.88060217919451 15.875 47.1875 C15.9742578125 46.519765625 16.073515625 45.85203125 16.17578125 45.1640625 C16.48667516316378 41.59183047815737 16.492472503479206 39.15297001266546 14.5234375 36.07421875 C12.715586025608388 34.023462121560186 10.82146477064606 32.10649450170549 8.875 30.1875 C7.821039601892849 28.968858289688598 6.778555196795807 27.74015900030328 5.75 26.5 C-1.3744401210078792 18.18500357229849 -9.717752627798376 10.357474089456577 -21.125 9.1875 C-33.41304895077883 8.91210082394199 -46.11829636999367 10.031238560639324 -55.125 19.1875 Z " fill="#8A8EAC" transform="translate(90.125,14.8125)"/>
<path d="M0 0 C8.91 0 17.82 0 27 0 C27 11.25182101977107 27 11.25182101977107 25.79296875 15.25390625 C25.53580078125 16.12853515625 25.2786328125 17.0031640625 25.013671875 17.904296875 C24.74103515625 18.78150390625 24.4683984375 19.6587109375 24.1875 20.5625 C23.92646484375 21.44357421875 23.6654296875 22.3246484375 23.396484375 23.232421875 C21.915993395389346 28.185669473450456 20.31360300560183 33.092286061292874 18.667236328125 37.992431640625 C15.594643773744684 47.23719145572538 13.194002509953847 55.9378449947666 17.4609375 65.15625 C19.474825830677226 69.68111027650953 19.91917582676068 74.30646964620198 20.5 79.1875 C22.561262463515718 98.85893901235559 22.561262463515718 98.85893901235559 33.16796875 114.703125 C35.31417462012898 116.13686699623017 35.31417462012898 116.13686699623017 37.4609375 117.1953125 C39 119 39 119 39 128 C26.13 128 13.259999999999998 128 0 128 C0 85.75999999999999 0 43.519999999999996 0 0 Z " fill="#40628A" transform="translate(0,0)"/>
<path d="M0 0 C33.33 0 66.66 0 101 0 C101 14.190000000000001 101 28.380000000000003 101 43 C99.02 43.66 97.04 44.32 95 45 C94.030625 45.37125 93.06125 45.7425 92.0625 46.125 C88.99999999999999 46 88.99999999999999 46 87.3125 44.6640625 C75 31.197265624999986 75 31.197265624999986 75 25 C73.515 24.505000000000003 73.515 24.505000000000003 72 24 C71.3825390625 23.2226953125 70.765078125 22.445390625 70.12890625 21.64453125 C66.00674065186593 16.523969580391253 60.232667066185996 13.604666723740856 53.71337890625 12.67333984375 C51.21821986369109 12.476419200031565 48.75269634609896 12.393744053948994 46.25 12.375 C45.062652587890625 12.358927001953125 45.062652587890625 12.358927001953125 43.851318359375 12.342529296875 C36.70912486703933 12.513488041491376 31.81815564983573 15.159571820515444 25.9375 19 C22.37416632310599 21.11829513511211 18.55348795169526 21.92263279826026 14.5625 22.875 C4.4559827224329 25.373005062271123 -0.5989123031790875 29.848699664480293 -6.5546875 38.2421875 C-7.031640625000001 38.822265625 -7.508593749999999 39.40234375 -8 40 C-8.66 40 -9.32 40 -10 40 C-9.819692382812502 39.47140380859375 -9.639384765625 38.9428076171875 -9.45361328125 38.398193359375 C-7.458851776111942 32.490334027190514 -5.618020518152473 26.549206151543796 -3.875 20.5625 C-3.6107421875000014 19.68529296875 -3.3464843749999993 18.8080859375 -3.07421875 17.904296875 C-2.820273437499999 17.02966796875 -2.5663281249999983 16.1550390625 -2.3046875 15.25390625 C-2.0776513671874994 14.48377197265625 -1.8506152343749989 13.7136376953125 -1.61669921875 12.920166015625 C-0.7198666107793024 8.673525151041659 -0.43187671690958496 4.318767169095837 0 0 Z " fill="#646379" transform="translate(27,0)"/>
<path d="M0 0 C4.689310051107327 2.6304301533219707 4.689310051107327 2.6304301533219707 5.875 6.1875 C6.864999999999995 6.517499999999998 7.855000000000004 6.8475 8.875 7.1875 C11.440303499052803 10.009333848958079 13.625861800234006 13.11084868899934 15.875 16.1875 C16.864999999999995 17.424999999999997 16.864999999999995 17.424999999999997 17.875 18.6875 C20.226469916213446 24.56617479053363 17.72240046455468 31.39897854439534 15.875 37.1875 C10.627786962903329 32.90406078604354 6.273870527275037 28.32129078485852 1.875 23.1875 C-4.419262633993043 16.247671967648692 -11.850321578099624 11.845618380659516 -21.125 10.1875 C-32.17791896037395 9.7806440873482 -44.09268759588528 10.898082917480743 -53.00390625 17.9609375 C-61.07140704265287 26.42958474090633 -64.48714821322412 36.12465925449861 -64.25 47.5625 C-64.24097656250001 48.3939453125 -64.231953125 49.225390625 -64.22265625 50.08203125 C-64.19926220261375 52.11731337260372 -64.16339725208901 54.152445639282476 -64.125 56.1875 C-70.67411642411642 55.63029079375232 -70.67411642411642 55.63029079375232 -72.6484375 53.69140625 C-76.22248134915148 45.54324206179686 -77.19184393340214 37.7339049778977 -74.5234375 29.12890625 C-70.2555644257432 20.15206707425874 -62.59574641794595 11.580446536024251 -53.125 8.1875 C-49.62148206416509 7.17354069151131 -46.104491799310296 6.228080085532156 -42.578125 5.296875 C-38.303224201317406 3.923490580513736 -34.837604115500746 1.929480883399652 -31.11328125 -0.54296875 C-22.846372056139245 -5.82144711543172 -8.40938866269424 -4.098182170963177 0 0 Z " fill="#9E8F96" transform="translate(90.125,14.8125)"/>
<path d="M0 0 C16.5 0 33 0 50 0 C50.99000000000001 2.97 51.97999999999999 5.94 53 9 C53.989999999999995 10.485 53.989999999999995 10.485 55 12 C53.79343750000001 12.02578125 52.58687499999999 12.0515625 51.34375 12.078125 C49.729132615636445 12.13444886224524 48.114550673110614 12.191795195169993 46.5 12.25 C45.70851562499999 12.2641796875 44.91703125000001 12.278359375 44.1015625 12.29296875 C36.831327964785515 12.590929181771086 31.94648368979992 15.07576575360005 25.9375 19 C22.37416632310599 21.11829513511211 18.55348795169526 21.92263279826026 14.5625 22.875 C4.4559827224329 25.373005062271123 -0.5989123031790875 29.848699664480293 -6.5546875 38.2421875 C-7.031640625000001 38.822265625 -7.508593749999999 39.40234375 -8 40 C-8.66 40 -9.32 40 -10 40 C-9.819692382812502 39.47140380859375 -9.639384765625 38.9428076171875 -9.45361328125 38.398193359375 C-7.458851776111942 32.490334027190514 -5.618020518152473 26.549206151543796 -3.875 20.5625 C-3.6107421875000014 19.68529296875 -3.3464843749999993 18.8080859375 -3.07421875 17.904296875 C-2.820273437499999 17.02966796875 -2.5663281249999983 16.1550390625 -2.3046875 15.25390625 C-2.0776513671874994 14.48377197265625 -1.8506152343749989 13.7136376953125 -1.61669921875 12.920166015625 C-0.7198666107793024 8.673525151041659 -0.43187671690958496 4.318767169095837 0 0 Z " fill="#6D6873" transform="translate(27,0)"/>
<path d="M0 0 C8.91 0 17.82 0 27 0 C27 11.261055634807414 27 11.261055634807414 25.828125 15.2890625 C25.57546875 16.168203125 25.3228125 17.04734375 25.0625 17.953125 C24.794375 18.83484375 24.52625 19.7165625 24.25 20.625 C23.99734375 21.514453125 23.7446875 22.40390625 23.484375 23.3203125 C19.127323800047286 38.13428657983921 19.127323800047286 38.13428657983921 13.3125 42.4375 C12.7105078125 42.9105859375 12.108515624999999 43.383671875 11.48828125 43.87109375 C8.999999999999993 45 8.999999999999993 45 0 46 C0 30.82 0 15.639999999999997 0 0 Z " fill="#353E50" transform="translate(0,0)"/>
<path d="M0 0 C0 12.210000000000008 0 24.42 0 37 C-14.52000000000001 37 -29.040000000000006 37 -44 37 C-41.96114895582028 31.90287238955068 -41.33682905788652 31.150425872368203 -37.1875 28.125 C-31.45708907660611 23.65876163170094 -26.93216148768262 18.569997638911175 -22.328857421875 12.96533203125 C-21.807834472656253 12.337397460937495 -21.286811523437507 11.709462890625005 -20.75 11.0625 C-20.29109375 10.496601562500004 -19.832187500000003 9.930703125000008 -19.359375 9.34765625 C-18 8 -18 8 -15 7 C-15 6.340000000000003 -15 5.680000000000007 -15 5 C-13.634873958850847 4.150588241062749 -12.257299665764222 3.3211681182757786 -10.875 2.5 C-10.109296874999998 2.035937500000003 -9.343593749999997 1.5718750000000057 -8.5546875 1.09375 C-6 0 -6 0 0 0 Z " fill="#1D3C6B" transform="translate(128,91)"/>
<path d="M0 0 C1.128948762740123 0.9327410900713815 2.2530087590898376 1.8714012244610672 3.375 2.8125 C4.00148437499999 3.3345703124999986 4.627968750000008 3.856640624999997 5.2734375 4.39453125 C7.3445668509087625 6.320400397564484 8.842644683780975 8.019083743050196 9.30078125 10.875 C9.36627512864564 22.751223327742636 5.4908118862715725 31.946027920264683 -2.4375 40.6875 C-3.2831249999999983 41.450625 -4.128749999999997 42.213750000000005 -5 43 C-5.928124999999994 43.928124999999994 -6.856250000000003 44.85625 -7.8125 45.8125 C-17.639606584890245 54.10950884908496 -31.10403926597084 59.67873477547522 -44 59 C-44.33 58.34 -44.66 57.68000000000001 -45 57 C-44.22076171875 56.41605468750001 -44.22076171875 56.41605468750001 -43.42578125 55.8203125 C-39.358067980094816 52.55711922987274 -36.63558743929367 49.799567647072365 -34.5 45 C-30.44270214691734 36.27747041356821 -24.42939784392513 32.856444638250565 -15.6875 29.625 C-13.134112654051904 28.717258417572822 -10.572738363394848 27.852809824573598 -8 27 C-4.896983158934262 26.353429913940445 -4.896983158934262 26.353429913940445 -4 24.0625 C-3.6700000000000017 23.051874999999995 -3.3400000000000034 22.04124999999999 -3 21 C-2.609414062500008 19.92685546875 -2.609414062500008 19.92685546875 -2.2109375 18.83203125 C-0.036331081596415515 12.44031425385117 0.3449145242142606 6.719445916174244 0 0 Z " fill="#C2A9B5" transform="translate(97,44)"/>
<path d="M0 0 C2.0625 1.875 2.0625 1.875 3.0625 4.875 C2.217519531250005 4.447675781249998 2.217519531250005 4.447675781249998 1.35546875 4.01171875 C-8.871811464431346 -1.1437194914874453 -8.871811464431346 -1.1437194914874453 -19.9375 -0.125 C-23.145825857698426 1.6177284974541308 -26.02940839572542 3.674432598297969 -28.9375 5.875 C-33.75859847168765 9.303336690977886 -38.788086216954696 11.810134513790494 -44.1328125 14.3125 C-48.14169118358397 16.54585859809692 -50.474531583468845 18.486094750406536 -51.9375 22.875 C-56.394642857142856 26.875 -56.394642857142856 26.875 -58.9375 26.875 C-58.9375 27.534999999999997 -58.9375 28.195 -58.9375 28.875 C-59.5975 28.875 -60.2575 28.875 -60.9375 28.875 C-61.5975 30.194999999999993 -62.2575 31.515 -62.9375 32.875 C-63.5975 32.545 -64.2575 32.215 -64.9375 31.875 C-65.84999246167283 19.302881639174288 -63.022942968273696 9.465292471181598 -54.7890625 -0.22265625 C-39.765756160155725 -15.65799419832102 -15.686394986426052 -11.347604883797572 0 0 Z " fill="#C1ACA9" transform="translate(89.9375,34.125)"/>
<path d="M0 0 C0 15.840000000000003 0 31.680000000000007 0 48 C-2.6400000000000006 48.66 -5.280000000000001 49.31999999999999 -8 50 C-9.692070011339027 50.95638739771337 -11.368168933766029 51.9441093100839 -13 53 C-13.659999999999997 53 -14.319999999999993 53 -15 53 C-15 53.66 -15 54.31999999999999 -15 55 C-16.476954914706795 56.28430862148417 -17.958061375920096 57.5658070804391 -19.4921875 58.78125 C-21.138130953752267 60.06784670707927 -21.138130953752267 60.06784670707927 -23 62 C-25.7448559259812 62.14507695169033 -28.384805429412864 62.18652423042769 -31.125 62.125 C-31.879101562499997 62.11597656250001 -32.633203124999994 62.10695312499999 -33.41015625 62.09765625 C-35.27357254334656 62.07406870198295 -37.136825926177934 62.038197190579496 -39 62 C-37.85957378299426 58.57872134898278 -37.33499160644098 58.359838056580514 -34.4375 56.5 C-29.016366461361926 52.5670207660861 -25.657797448055163 47.539758997731525 -22 42 C-21.281992187499995 40.9391015625 -20.563984375000004 39.878203125 -19.82421875 38.78515625 C-12.75599853392032 27.91792919017732 -9.427064748997253 17.830845318767118 -11.5 4.875 C-11.747500000000002 3.9468749999999986 -11.747500000000002 3.9468749999999986 -12 3 C-10.564459747164022 2.4944009172401564 -9.12647980367916 1.9957250998320504 -7.6875 1.5 C-6.886992187499999 1.2215624999999974 -6.086484374999998 0.943125000000002 -5.26171875 0.65625 C-3 0 -3 0 0 0 Z " fill="#616C8E" transform="translate(128,43)"/>
<path d="M0 0 C2.5961320396954477 2.2685444006171593 4.269688332341573 4.910009445214655 6.056640625 7.8369140625 C12.429365833530944 18.843567546240706 12.429365833530944 18.843567546240706 22.5 25.921875 C24.67706574748425 26.425321454105728 26.776913152212522 26.794158625204858 29 27 C26.677105551380905 34.170674167476335 23.923711980340755 39.22893148381422 18 44 C14.829129850009366 45.58543507499532 12.520095161973515 45.34065437051356 9 45 C2.4527995910107165 42.6409894480135 -0.6090494097100176 38.24967283573622 -3.61328125 32.18359375 C-10.602065674766958 16.138919648070214 -10.602065674766958 16.138919648070214 -10 10 C-8.625 7.6875 -8.625 7.6875 -7 6 C-6.34 6 -5.68 6 -5 6 C-5 5.340000000000003 -5 4.68 -5 4 C-3.3737359623337824 2.617675567983717 -1.7074997966487615 1.2806248474865711 0 0 Z " fill="#D3C1C7" transform="translate(36,57)"/>
<path d="M0 0 C5.725002624934348 5.67822972767182 9.049549879222184 9.230688335723777 9.3125 17.4375 C9.088584944483557 30.18199857647741 3.126578219039004 39.95965896568097 -4 50 C-4.601992187500002 50.8701171875 -5.2039843750000045 51.740234375 -5.82421875 52.63671875 C-10.08590909375937 58.48785071380948 -15.286750252112341 64.70587838435534 -22.50390625 66.6875 C-28.16985951468709 67.41507024265645 -28.16985951468709 67.41507024265645 -31 66 C-31 65.34 -31 64.68 -31 64 C-32.31999999999999 63.34 -33.64 62.68000000000001 -35 62 C-35 61.34 -35 60.68000000000001 -35 60 C-34.03578125 59.46890625 -33.0715625 58.93781250000001 -32.078125 58.390625 C-30.801887586538925 57.677433504242344 -29.52585676165262 56.96387223568658 -28.25 56.25 C-27.615781249999998 55.901953125000006 -26.981562499999995 55.55390625 -26.328125 55.1953125 C-22.67309911371494 53.13936043896466 -19.932012568310114 51.041620514789 -17 48 C-16.340000000000003 48 -15.680000000000007 48 -15 48 C-14.730585937499995 47.42378906249999 -14.461171875000005 46.847578125 -14.18359375 46.25390625 C-12.981840651114965 43.965419325720575 -11.591335023854867 42.01873851847927 -10.0625 39.9375 C-5.787101267389829 33.56098844280635 -3.7473817507318756 26.876385282142266 -4.0625 19.1875 C-4.3330298971874015 12.489179745640008 -2.034388508840493 6.3029715407826075 0 0 Z " fill="#8F8BA2" transform="translate(109,38)"/>
<path d="M0 0 C0.6600000000000001 0.6599999999999966 1.3200000000000003 1.3200000000000003 2 2 C1.7718359375000006 2.6780468749999997 1.5436718750000011 3.3560937499999994 1.30859375 4.0546875 C-1.3889014694012225 12.788281887478398 -1.8222358310534936 19.556910252560527 2.30078125 27.86328125 C3.974297109228953 32.977321333789035 3.7851656345567335 38.65877319018634 4 44 C3.3941406249999986 43.855625 2.7882812500000007 43.71125000000001 2.1640625 43.5625 C0.9072265625 43.284062500000005 0.9072265625 43.284062500000005 -0.375 43 C-1.5931640625000014 42.721562500000005 -1.5931640625000014 42.721562500000005 -2.8359375 42.4375 C-7.1850028784990325 41.83614775013348 -11.609556492234699 42 -16 42 C-16 30.450000000000003 -16 18.9 -16 7 C-13.03 6.340000000000003 -10.059999999999999 5.68 -7 5 C-4.631802843805721 3.83032211315259 -4.631802843805721 3.83032211315259 -2.9375 2.375 C-1.9681250000000006 1.5912500000000023 -0.9987499999999994 0.8074999999999974 0 0 Z " fill="#4B5E7A" transform="translate(16,39)"/>
<path d="M0 0 C-1.3804763858337807 4.81075104154197 -3.5643468028877265 6.377535747426265 -7.6875 9.0625 C-15.694509288096292 14.622323610198038 -20.569888056098705 22.543196444723726 -23 32 C-23.222977566568254 35.131242113379884 -23.190041441971196 38.23800122185073 -23.125 41.375 C-23.115976562500002 42.2064453125 -23.106953125 43.037890625 -23.09765625 43.89453125 C-23.074262202613752 45.92981337260372 -23.03839725208901 47.964945639282476 -23 50 C-29.549116424116427 49.44279079375232 -29.549116424116427 49.44279079375232 -31.5234375 47.50390625 C-35.09748134915148 39.35574206179687 -36.066843933402126 31.546404977897694 -33.3984375 22.94140625 C-29.076031322203594 13.849864764299738 -21.479346784997045 5.626568277593567 -12 2 C-7.857512332149753 0.5501293162524128 -4.387039753631484 -0.2658811971897883 0 0 Z " fill="#888086" transform="translate(49,21)"/>
</svg>
