<?xml version="1.0" encoding="UTF-8"?>
<!-- Generator: visioncortex VTracer 0.6.0 -->
<svg version="1.1" xmlns="http://www.w3.org/2000/svg" width="128" height="128">
<path d="M0 0 C42.24 0 84.48 0 128 0 C128 42.24 128 84.48 128 128 C85.75999999999999 128 43.519999999999996 128 0 128 C0 85.75999999999999 0 43.519999999999996 0 0 Z " fill="#6B96AA" transform="translate(0,0)"/>
<path d="M0 0 C23.1 0 46.2 0 70 0 C72.54423979776092 17.809678584326473 72.54423979776092 17.809678584326473 67.802001953125 24.75439453125 C63.874367704068725 29.58015199248182 59.703945649529885 32.17208456330024 54.1875 34.9375 C43.21272340338214 40.75308005432478 33.49011511121998 47.408764577718905 29.625 59.8125 C28.21010941814469 66.56660032470555 29.104935111674813 73.77187147640744 32 80 C32.556875 80.5775 33.11375 81.155 33.6875 81.75 C35.87864563351148 85.50624965744827 35.04358027086094 88.9844846099481 34 93 C32.601830450078 96.59297058759026 31.08801796681392 100.06970062228531 29.47265625 103.5703125 C26.91421952274069 109.52868768974449 25.744368166383918 114.97355708828141 25.375 121.4375 C25.189375 124.6859375 25.189375 124.6859375 25 128 C16.75 128 8.5 128 0 128 C0 85.75999999999999 0 43.519999999999996 0 0 Z " fill="#365F86" transform="translate(0,0)"/>
<path d="M0 0 C1.2935742187500026 0.025136718750005116 1.2935742187500026 0.025136718750005116 2.61328125 0.05078125 C13.908152613973243 0.6228803784212147 22.892021917575974 5.731737199735221 32.4375 11.375 C33.20715087890625 11.820854492187493 33.976801757812495 12.266708984375 34.769775390625 12.72607421875 C38.554960536601826 15.03811295798576 41.30033066282296 17.077454932116026 43.78515625 20.7890625 C45.5837696517564 24.068853466981565 45.5837696517564 24.068853466981565 47.9609375 24.6923828125 C50.638358333102545 25.09630405887323 53.23011162237219 25.131828217850256 55.9375 25.125 C57.46697265624999 25.128867187499992 57.46697265624999 25.128867187499992 59.02734375 25.1328125 C61.910409237966206 25.08855865843161 61.910409237966206 25.08855865843161 64.31640625 24.4921875 C68.1504407441766 23.789002134255824 72.10201460224224 24 76 24 C76 32.58 76 41.16 76 50 C42.00999999999999 50 8.019999999999996 50 -27 50 C-27 34.225903614457835 -27 34.225903614457835 -24.75 28.1875 C-24.52401123046875 27.564963378906242 -24.2980224609375 26.9424267578125 -24.065185546875 26.301025390625 C-22.503569199662007 22.073181203323415 -20.751819888646168 17.93215139700561 -18.83203125 13.85546875 C-17.867783682981667 11.806809726297942 -17.867783682981667 11.806809726297942 -17 8.75 C-15.832052669356614 5.538144840730681 -14.33791109354378 3.4796026749706783 -12 1 C-7.920732206864713 -0.3597559310451004 -4.2677318204907735 -0.13558603363132704 0 0 Z " fill="#B69989" transform="translate(52,78)"/>
<path d="M0 0 C4.068721427513012 3.012518806304385 7.9812222954391245 6.169176909985403 11.8203125 9.46875 C17.203102167846126 14.030579608441926 22.020005267877366 17.37403503511129 29.1796875 18.19921875 C32.790252736138484 17.691473860134806 32.790252736138484 17.691473860134806 36.1796875 16.19921875 C37.658617034606024 15.760917815198582 39.13779859476881 15.323466669121153 40.6171875 14.88671875 C44.50652585514811 13.596853576380667 47.585735345534786 11.821113753665117 50.8671875 9.3828125 C53.1796875 8.19921875 53.1796875 8.19921875 62.1796875 6.19921875 C62.1796875 22.69921875 62.1796875 39.19921875 62.1796875 56.19921875 C38.123499193242225 59.63581707953682 38.123499193242225 59.63581707953682 31.1796875 56.19921875 C27.1796875 51.87489442567568 27.1796875 51.87489442567568 27.1796875 49.19921875 C26.19935546875 48.85697265625001 26.19935546875 48.85697265625001 25.19921875 48.5078125 C20.429981017288412 46.44093715658683 16.105244985713043 43.635754042837235 11.681640625 40.919921875 C5.433282888683408 37.15969941664267 -0.7221206331578145 34.03035192886142 -8.1328125 33.51171875 C-9.053203124999996 33.447265625 -9.97359375 33.3828125 -10.921875 33.31640625 C-15.556802810961727 33.129010246861384 -20.18283572403398 33.118488980205626 -24.8203125 33.19921875 C-27.849447039021335 26.368084069408667 -28.87316555752708 18.64113541198992 -26.7578125 11.38671875 C-24.37273998959779 5.467011753461172 -20.890997774420192 0.7924252940496714 -14.9453125 -1.80078125 C-9.117863831889522 -3.516030291934406 -5.1115448819335825 -3.2637426462207486 0 0 Z " fill="#C2B6C3" transform="translate(65.8203125,45.80078125)"/>
<path d="M0 0 C0.5104687500000011 0.2964843749999986 1.0209375000000023 0.5929687500000007 1.546875 0.8984375 C4.7158612669352635 2.3214536262352645 7.848673920466354 2.9321372800949987 11.25 3.625 C13.477500000000006 4.078749999999999 15.704999999999998 4.532499999999999 18 5 C18 10.939999999999998 18 16.880000000000003 18 23 C15.525000000000006 23.8353125 15.525000000000006 23.8353125 13 24.6875 C8.501669031947955 26.30805256669567 4.790445588433059 28.268850188175584 0.828125 30.90234375 C-1.9713537681265336 32.583227369323836 -4.83608087288755 33.26551877406318 -8 34 C-8.939726562499999 34.328710937500006 -8.939726562499999 34.328710937500006 -9.8984375 34.6640625 C-15.637352637301703 36.54678960037961 -19.580413384533955 35.45495381170798 -25 33 C-27.73272866220276 31.24853032443059 -30.169283819194163 29.24253492709316 -32.625 27.125 C-33.86569996204652 26.084161747320806 -35.10788018799411 25.045085352660372 -36.3515625 24.0078125 C-36.95379638671875 23.505400390625 -37.5560302734375 23.002988281249998 -38.176513671875 22.4853515625 C-45.68314103305991 16.36778246613551 -45.68314103305991 16.36778246613551 -55 15 C-60.07289738750559 15.986396714237202 -63.882790430167894 17.914217509045372 -66.9609375 22.23828125 C-71.36137799802944 29.69917848538074 -71.12587865746698 35.57443357890793 -69.425537109375 43.884033203125 C-68.9108073093277 46.83720647989412 -68.53322830443311 49.18325708383986 -70.0595703125 51.85400390625 C-71.4453125 53.51953125 -71.4453125 53.51953125 -74 56 C-79.95167640045057 50.51819278905869 -81.4566435508296 45.81463310626333 -82.01953125 37.90234375 C-81.95175954461808 27.831468330246118 -76.87691389722745 21.129168064325427 -70.1875 14.09375 C-64.11880029751428 8.328485282638567 -55.95401741765171 2.815338947100706 -47.375 2.375 C-36.92210530582312 3.2912644722981526 -29.780375089888366 9.18834127161692 -22.00390625 15.63671875 C-19.190108728484915 18.124439096452072 -19.190108728484915 18.124439096452072 -16 19 C-15.597812500000003 17.855312499999997 -15.597812500000003 17.855312499999997 -15.1875 16.6875 C-14.009907863246411 14.02242305892608 -13.023665874082909 12.993461905813021 -11 11 C-10.209292021431779 9.867790236668085 -9.43857750791743 8.721379041425855 -8.6875 7.5625 C-6.231009531907802 4.02755030201368 -3.70292713946219 2.1528646159663865 0 0 Z " fill="#949FAD" transform="translate(110,29)"/>
<path d="M0 0 C23.1 0 46.2 0 70 0 C72.54423979776092 17.809678584326473 72.54423979776092 17.809678584326473 67.802001953125 24.75439453125 C63.87485632160484 29.579551643882365 59.704412686828164 32.173863997272186 54.1875 34.9375 C47.28941214655405 38.57107787394317 41.45288776343449 42.34972263426924 36 48 C34.666666666666664 49.333333333333336 33.333333333333336 50.666666666666664 32 52 C33.13273480570889 45.20359116574666 35.352344594987706 39.93593786685619 38.66015625 33.89453125 C40.35755966409252 30.227546031800124 41.41567378335304 26.818572802169548 40.5 22.8125 C37.6254626208621 19.33910066687504 33.957742914204424 18.239064316255984 29.6328125 17.7109375 C20.65939911384934 17.403437352811036 13.284808769738246 20.788819140444268 5.1640625 24.23046875 C2.999999999999997 25 2.999999999999997 25 0 25 C0 16.75 0 8.5 0 0 Z " fill="#3F7882" transform="translate(0,0)"/>
<path d="M0 0 C8.210015721082414 1.1483738064979576 15.740475401461055 3.211903844941233 21.3125 9.6875 C27.97859078565547 15.423438583005876 39.61582739126962 14.523250249891731 48 14 C48.7541015625 13.831132812500002 49.508203124999994 13.662265625000003 50.28515625 13.48828125 C54.131774205614875 12.796443488198761 58.09166158257594 13 62 13 C62 21.58 62 30.159999999999997 62 39 C42.2 39 22.400000000000006 39 2 39 C-2.1513819095477373 11.324120603015075 -2.1513819095477373 11.324120603015075 -2.1875 7.25 C-2.201679687499997 6.512656250000006 -2.215859375000001 5.775312499999998 -2.23046875 5.015625 C-2 3 -2 3 0 0 Z " fill="#736E66" transform="translate(66,89)"/>
<path d="M0 0 C0 16.5 0 33 0 50 C-24.302745664739888 53.471820809248555 -24.302745664739888 53.471820809248555 -31 50 C-32.58203125 48.2734375 -32.58203125 48.2734375 -33.8125 46.375 C-34.2314453125 45.743359375 -34.650390625 45.111718749999994 -35.08203125 44.4609375 C-35.3849609375 43.97882812500001 -35.687890624999994 43.49671875 -36 43 C-35.050654874794276 41.32819726378867 -34.09026687396178 39.662660644144694 -33.125 38 C-32.591328125000004 37.071875000000006 -32.057656249999994 36.14375 -31.5078125 35.1875 C-31.010234374999996 34.465625 -30.512656250000006 33.743750000000006 -30 33 C-29.340000000000003 33 -28.680000000000007 33 -28 33 C-27.829843749999995 32.4547265625 -27.659687500000004 31.909453125 -27.484375 31.34765625 C-25.907180138101452 26.439895642496538 -24.076308752202124 21.791291632901164 -21.87890625 17.12890625 C-20.826275750546458 14.802290987757203 -20.826275750546458 14.802290987757203 -20.375 11.3125 C-18.213242442794126 6.10462952127677 -13.930709217736165 4.3706789326442745 -9 2 C-5.651556538746917 0.6606226154987667 -3.578734707123715 0 0 0 Z " fill="#BCB5AD" transform="translate(128,52)"/>
<path d="M0 0 C1.574218750000007 1.1875000000000036 1.574218750000007 1.1875000000000036 3.26171875 3.375 C3.9461001036835697 9.534432183152152 1.181458850931051 14.666298264752385 -2.42578125 19.5 C-3.41943418765635 20.73430325849499 -4.419379821187306 21.963569095688726 -5.42578125 23.1875 C-5.94140625 23.9235546875 -6.45703125 24.659609375000002 -6.98828125 25.41796875 C-7.462656249999998 26.0019140625 -7.93703125 26.585859375 -8.42578125 27.1875 C-9.08578125 27.1875 -9.74578125 27.1875 -10.42578125 27.1875 C-10.671992187499999 27.779179687500005 -10.918203125000002 28.370859374999995 -11.171875 28.98046875 C-13.481032743890815 33.04487412476109 -17.23672297060489 35.28278756358753 -21.42578125 37.1875 C-24.631781236524144 37.50701689054886 -27.323600881836143 36.98420763869377 -30.42578125 36.1875 C-33.06578125 35.5275 -35.70578125 34.8675 -38.42578125 34.1875 C-38.42578125 24.6175 -38.42578125 15.0475 -38.42578125 5.1875 C-36.09515625 4.23875 -33.76453125 3.289999999999999 -31.36328125 2.3125 C-30.64390380859375 2.017465820312502 -29.9245263671875 1.7224316406250004 -29.183349609375 1.41845703125 C-19.47496608893364 -2.4976851432763922 -9.646573930019226 -5.635321078794194 0 0 Z " fill="#12436B" transform="translate(38.42578125,19.8125)"/>
<path d="M0 0 C3.1611577555191204 1.3698350273916162 3.992709197315321 1.9890637959729816 6 5 C6 12.304999848971931 3.4827861062942063 18.047131828620422 0.47265625 24.5703125 C-2.0857804772593163 30.528687689744515 -3.2556318336160786 35.97355708828141 -3.625 42.4375 C-3.748750000000001 44.603125000000006 -3.8724999999999987 46.76875 -4 49 C-12.25 49 -20.5 49 -29 49 C-29 40.09 -29 31.180000000000007 -29 22 C-26.29120664641445 20.645603323207226 -23.990667323211277 20.934985492973667 -21 21 C-21 20.340000000000003 -21 19.680000000000007 -21 19 C-13.571428571428564 14.714285714285708 -13.571428571428564 14.714285714285708 -10 13 C-10 12.340000000000003 -10 11.680000000000007 -10 11 C-6.5384615384615365 8 -6.5384615384615365 8 -4 8 C-3.5668749999999996 7.133750000000006 -3.5668749999999996 7.133750000000006 -3.125 6.25 C-1.5625 3.125 -1.5625 3.125 0 0 Z " fill="#54666E" transform="translate(29,79)"/>
<path d="M0 0 C4.2434257911082085 4.950663422959579 5.95260365829381 11.033403307988884 6.6875 17.4375 C5.976048898427791 22.620929454311835 4.208262712972314 26.00752276657579 0.25 29.375 C-5.75659340659341 33.879945054945054 -5.75659340659341 33.879945054945054 -10.19921875 33.8203125 C-11.470556640624999 33.810644531250006 -11.470556640624999 33.810644531250006 -12.767578125 33.80078125 C-14.089189453125002 33.775644531249995 -14.089189453125002 33.775644531249995 -15.4375 33.75 C-16.33017578125 33.74097656250001 -17.222851562499997 33.73195312499999 -18.142578125 33.72265625 C-20.345323138660305 33.69909747980043 -22.54752588003649 33.66620328616999 -24.75 33.625 C-27.779134539021335 26.793865319408667 -28.80285305752708 19.06691666198992 -26.6875 11.8125 C-24.30242748959779 5.892793003461172 -20.820685274420192 1.2182065440496714 -14.875 -1.375 C-9.521576765575531 -3.0229945329681414 -5.061422423937572 -2.530711211968786 0 0 Z " fill="#DFD6D3" transform="translate(65.75,45.375)"/>
<path d="M0 0 C0.787617187500004 0.07863281250000398 1.5752343750000009 0.15726562499999375 2.38671875 0.23828125 C3.022226562499995 0.38652343750000284 3.657734375000004 0.5347656250000057 4.3125 0.6875 C4.642499999999998 1.3474999999999966 4.972499999999997 2.007499999999993 5.3125 2.6875 C4.982500000000002 3.3474999999999966 4.652500000000003 4.007499999999993 4.3125 4.6875 C3.981619832241563 11.305103355168711 4.796727804532665 17.486408684829655 5.80078125 24.0234375 C6.574679743019814 29.56478701490522 6.940394358184804 35.10591537277213 7.3125 40.6875 C0.052499999999994884 40.6875 -7.207500000000003 40.6875 -14.6875 40.6875 C-15.120624999999997 37.903125 -15.120624999999997 37.903125 -15.5625 35.0625 C-16.109280905485875 31.719325320743536 -16.66370792774842 28.75358908958772 -17.8125 25.5625 C-19.4970911067754 20.027414934880824 -19.80315423816814 14.105081837837531 -17.0625 8.875 C-12.386217654805058 2.5989368525015237 -8.047333222632119 -0.8911922742419023 0 0 Z " fill="#D19166" transform="translate(60.6875,87.3125)"/>
<path d="M0 0 C9.286064944615248 1.298885910833448 18.185449194252016 4.2778481413972145 24.16796875 11.94140625 C25.61631715551769 15.524878596046136 24.313480771721885 18.34740399168129 23.078125 21.8671875 C21.849560968067635 25.437145302933885 21.074194189743594 28.991042902714923 20.3125 32.6875 C19.879374999999996 34.770624999999995 19.446249999999992 36.85374999999999 19 39 C13.39 39 7.780000000000001 39 2 39 C1.520524913193043 35.812546121038054 1.0414104303827258 32.6250387250125 0.5625 29.4375 C0.3604394531249966 28.094619140625 0.3604394531249966 28.094619140625 0.154296875 26.724609375 C-0.11052835096151625 24.96126091920746 -0.3742988576808699 23.197753707795556 -0.636962890625 21.43408203125 C-0.9497325726883332 19.337031775586667 -1.2673695277007369 17.240708507729124 -1.5859375 15.14453125 C-1.9365862549135073 12.481585516930423 -2.163719900253554 9.932395251399157 -2.1875 7.25 C-2.201679687499997 6.512656250000006 -2.215859375000001 5.775312499999998 -2.23046875 5.015625 C-2 3 -2 3 0 0 Z " fill="#A3644B" transform="translate(66,89)"/>
<path d="M0 0 C4.823870673874345 -0.022910203728163117 9.647553885657743 -0.04283686161282154 14.471435546875 -0.054931640625 C16.113694644381763 -0.05997173883534647 17.75594923285125 -0.06680378106370834 19.398193359375 -0.075439453125 C21.753754787801505 -0.087519255322059 24.1092570873331 -0.0932313858557039 26.46484375 -0.09765625 C27.20339096069336 -0.10281753540039063 27.94193817138672 -0.10797882080078125 28.702865600585938 -0.1132965087890625 C30.468980879277563 -0.11349249846998323 32.23497145571733 -0.061947186436066295 34 0 C35 1.0000000000000013 35 1.0000000000000013 35.0625 4.0625 C35.041875 5.031875 35.02125 6.001250000000001 35 7 C35.66 7 36.32 7 37 7 C37.84212256387346 8.912821252226863 38.673388639958524 10.830424730570344 39.5 12.75 C39.9640625 13.81734375 40.428125 14.8846875 40.90625 15.984375 C42 19 42 19 42 23 C41.34 23 40.68 23 40 23 C39.566875 22.54625 39.13375 22.0925 38.6875 21.625 C35.29777816924777 18.360823422238596 31.816036002676114 17.843240762881976 27.25 17.6875 C19.27977746380768 17.864354050359296 12.405793252828921 21.16135428808679 5.1640625 24.23046875 C2.999999999999997 25 2.999999999999997 25 0 25 C0 16.75 0 8.5 0 0 Z " fill="#2C688F" transform="translate(0,0)"/>
<path d="M0 0 C0.5104687500000011 0.2964843749999986 1.0209375000000023 0.5929687500000007 1.546875 0.8984375 C4.715861266935292 2.3214536262352716 7.848673920466368 2.9321372800949987 11.25 3.625 C13.477499999999992 4.078749999999999 15.704999999999998 4.532499999999999 18 5 C18 10.939999999999998 18 16.880000000000003 18 23 C16.349999999999994 23.556875000000005 14.700000000000003 24.113749999999996 13 24.6875 C9.224656888234676 26.039644708835077 5.999437988054083 27.492737410083528 2.6875 29.75 C0.23522456004823766 31.348224319316827 -1.20802383950209 32.049925721480506 -4.125 32.75 C-8.434278282711432 31.625840447988324 -10.647493823062433 28.687261454632647 -13 25 C-13 24.340000000000003 -13 23.68 -13 23 C-13.659999999999997 23 -14.319999999999993 23 -15 23 C-16.1875 21.3125 -16.1875 21.3125 -17 19 C-15.810382327144069 16.43293028488982 -14.553211018999505 14.541440571786751 -12.53125 12.5625 C-10.989426843344944 10.989211064637693 -9.883087373595174 9.407237906337578 -8.6875 7.5625 C-6.231009531907816 4.02755030201368 -3.702927139462176 2.1528646159663793 0 0 Z " fill="#8B8E99" transform="translate(110,29)"/>
<path d="M0 0 C7.920000000000002 0 15.840000000000003 0 24 0 C24 11.22 24 22.44 24 34 C16.06153846153846 34 16.06153846153846 34 12.75 32.6875 C12.10546875 32.4438671875 11.4609375 32.200234375 10.796875 31.94921875 C7.640410702800736 30.28178217560995 6.29420342107872 28.699387492101742 4.90234375 25.390625 C2.2916251539484023 16.89257742418831 0.9880923369627226 8.810490004584219 0 0 Z " fill="#4B6481" transform="translate(104,0)"/>
<path d="M0 0 C2.3867266897294 2.9628331320778756 4.735337101337876 5.942705086806129 7 9 C5.350000000000001 9.329999999999998 3.700000000000003 9.659999999999997 2 10 C0.3964489852242892 6.4922321551781295 -0.22036864061225003 3.856451210714411 0 0 Z " fill="#C2B6C3" transform="translate(39,69)"/>
</svg>
