<?xml version="1.0" encoding="UTF-8"?>
<!-- Generator: visioncortex VTracer 0.6.0 -->
<svg version="1.1" xmlns="http://www.w3.org/2000/svg" width="128" height="128">
<path d="M0 0 C42.24 0 84.48 0 128 0 C128 42.24 128 84.48 128 128 C85.75999999999999 128 43.519999999999996 128 0 128 C0 85.75999999999999 0 43.519999999999996 0 0 Z " fill="#667EB6" transform="translate(0,0)"/>
<path d="M0 0 C24.0124211094369 12.625978926690706 24.0124211094369 12.625978926690706 26.8125 21.27734375 C26.999414062499994 22.224804687499997 27.186328125000003 23.172265625 27.37890625 24.1484375 C28.624347468420495 29.721958974699426 30.519720194955468 34.692182195582625 32.85546875 39.89453125 C33.90683456668546 42.50025444315209 34.602429941540535 44.7987989637777 34.94140625 47.5859375 C32.59921288096581 52.92093350724454 28.524790767351817 55.56139457700765 23.75390625 58.6484375 C20.762281502681148 60.453232920374745 20.762281502681148 60.453232920374745 18.94140625 63.5859375 C18.40344426297233 74.20172071067955 22.714397132027045 83.89993401919257 27.890625 92.90625 C28.94140625 95.5859375 28.94140625 95.5859375 29.94140625 104.5859375 C16.41140625 104.5859375 2.8814062499999977 104.5859375 -11.05859375 104.5859375 C-13.533593750000001 96.6659375 -13.533593750000001 96.6659375 -16.05859375 88.5859375 C-20.769078950479212 84.29728679508608 -24.150095611697658 82.74456640273439 -30.18359375 81.2109375 C-34.802157029744265 79.9016251683591 -37.737106752690345 78.27744085655635 -40.71875 74.4609375 C-43.867829617756016 67.70372875752645 -43.78246070816488 59.92903098287468 -44.05859375 52.5859375 C-44.090336914062505 51.830224609374994 -44.122080078124995 51.07451171875 -44.15478515625 50.2958984375 C-44.88459087754171 30.246389112688313 -44.88459087754171 30.246389112688313 -38.55859375 22 C-37.05859375 20.5859375 -37.05859375 20.5859375 -33.37109375 19.0859375 C-29.677822431033903 17.87849597209963 -29.677822431033903 17.87849597209963 -28.62109375 13.8984375 C-28.43546875 12.8053125 -28.249843749999997 11.712187499999999 -28.05859375 10.5859375 C-26.078593749999996 10.255937500000002 -24.09859375 9.925937500000003 -22.05859375 9.5859375 C-21.83171875 8.7196875 -21.60484375 7.853437499999998 -21.37109375 6.9609375 C-19.79146933337605 2.8990461429669807 -18.05862073254147 0.7323072621776419 -15.05859375 -2.4140625 C-9.711058418579675 -4.196574277140108 -4.931574605325281 -2.279987237711051 0 0 Z " fill="#1A464E" transform="translate(72.05859375,23.4140625)"/>
<path d="M0 0 C17.819999999999993 0 35.64 0 54 0 C54 42.24 54 84.48 54 128 C51.36 128 48.72 128 46 128 C45.690625 126.96875 45.381249999999994 125.9375 45.0625 124.875 C43.20098215508865 119.81456314004681 40.250250314177975 115.52679057435418 37.224853515625 111.10107421875 C33.643225330230734 105.77624202853227 31.000277876404255 100.49819380337233 32 94 C34.89003718029841 88.08040660311289 38.75790996856665 82.77202082766266 42.80078125 77.59375 C45.90869042617322 73.46336907531376 45.42786606153372 68.9767578736291 45 64 C43.76075515110277 60.35838542964677 43.76075515110277 60.35838542964677 42 57 C39.02230864289041 50.157959809718434 38.555665648121135 44.4542426827806 38.47265625 37.06640625 C38.31624833748279 31.389719072169328 37.19542753946108 27.242143308509107 35 22 C34.64507991721311 20.672249788656227 34.30580213776848 19.33991564713049 34 18 C33.4573046875 18.3493359375 32.914609375 18.698671875 32.35546875 19.05859375 C31.640039062499994 19.5136328125 30.924609375000003 19.968671875 30.1875 20.4375 C29.125957031249996 21.11619140625 29.125957031249996 21.11619140625 28.04296875 21.80859375 C23.958146406788956 24.19075591955902 20.657317538258667 24.369628376052276 16 24 C11.214480804157233 22.64532995071528 7.175018127294919 21.0868917677478 3.5 17.6875 C0.08808216077559905 11.574480538056275 0 7.123029852706699 0 0 Z " fill="#909CE3" transform="translate(74,0)"/>
<path d="M0 0 C0.7966406249999949 0.4157226562500007 0.7966406249999949 0.4157226562500007 1.609375 0.83984375 C2.3157812500000006 1.2020703124999983 3.022187500000001 1.5642968750000001 3.75 1.9375 C4.794140624999997 2.4769726562499983 4.794140624999997 2.4769726562499983 5.859375 3.02734375 C10.250804018396948 5.022719344125619 14.181834019142798 5.4015138317381 19 5 C21.1656350411331 4.124191711306466 23.16407501607401 3.1104461410306996 25.203125 1.97265625 C27 1 27 1 30 0 C35.156796298330676 8.250874077329065 36.11318214853959 18.076800893094564 35.9296875 27.6796875 C36.00044829957038 31.021169701934575 36.527953700952395 33.039020168196075 37.875 36.0625 C38.23851562499999 36.9184375 38.60203125000001 37.774375 38.9765625 38.65625 C39.314296875 39.4296875 39.65203124999999 40.203125 40 41 C42.03954245450231 45.99687901353065 43.01059510505222 50.65448378643433 42 56 C40.35615668968988 59.28201819541226 38.21558161156196 62.08423458342975 36 65 C34.884713006694 66.63831813499434 33.780138739400826 68.28399101180264 32.6875 69.9375 C32.1963671875 70.6683984375 31.705234375000003 71.399296875 31.19921875 72.15234375 C28.764629936222008 75.90335517969704 28.8821002723993 78.14082493986783 29.43359375 82.50390625 C30.984889172009844 89.3403046959606 35.65209476079134 95.12988006477599 39.765625 100.6640625 C41 103 41 103 42 110 C36.06 110 30.120000000000005 110 24 110 C23.649374999999992 108.30875 23.29875 106.6175 22.9375 104.875 C21.700440062168923 99.83160179191945 19.868402734176513 95.43936116162098 17.4375 90.875 C13.729700141141237 83.79576187285406 11.464160602113765 77.06372947550759 12 69 C14.622300150441504 65.06654977433774 17.06767738157663 62.8254813935001 21.125 60.4375 C24.550491907955518 58.37700486751062 26.816729290316175 57.00491624816064 28 53 C27.378014674661443 49.846965479471834 26.198979518105133 46.97307929286234 25 44 C24.487714412981035 42.545936869168415 23.98751780594263 41.08755341782788 23.5 39.625 C23.251210937500005 38.890234375 23.002421874999996 38.15546875 22.74609375 37.3984375 C21.637869677570563 33.83587425145719 20.785982126890616 30.21139481002004 19.94140625 26.578125 C17.690742428878906 20.41448134049824 13.167379597122931 17.505679099990807 7.8125 14.25 C1.0494031830238697 10.049403183023873 1.0494031830238697 10.049403183023873 0 9 C-0.07179963979679371 7.480719621899695 -0.08392007299435988 5.958325182599392 -0.0625 4.4375 C-0.053476562499994884 3.611210937500001 -0.04445312500000398 2.784921875000002 -0.03515625 1.93359375 C-0.023554687499995453 1.2955078124999986 -0.011953125000005116 0.6574218750000007 0 0 Z " fill="#7F7DAE" transform="translate(78,18)"/>
<path d="M0 0 C8.25 0 16.5 0 25 0 C23.873733963538157 10.136394328156623 23.873733963538157 10.136394328156623 22.84375 15.05859375 C22.6258984375 16.10337890625 22.408046875 17.1481640625 22.18359375 18.224609375 C21.9580078125 19.28486328125 21.732421875 20.3451171875 21.5 21.4375 C21.16162109375 23.068486328124997 21.16162109375 23.068486328124997 20.81640625 24.732421875 C19.133752349624064 32.73249530075188 19.133752349624064 32.73249530075188 18 35 C20.64 35 23.28 35 26 35 C25.2768359375 36.35931640625 25.2768359375 36.35931640625 24.5390625 37.74609375 C16.54751950197737 53.02868387388376 16.512255860825125 65.32502684079218 17.77734375 82.51953125 C18.04453904097907 86.69621553530445 18.07338734230232 90.81692148876795 18 95 C15.070312499999991 94.51171875 12.140625000000007 94.0234375 9.2109375 93.53515625 C8.151328125 93.3585546875 7.09171875 93.181953125 6 93 C4.02 92.67 2.04 92.34 0 92 C0 61.64 0 31.279999999999994 0 0 Z " fill="#8BAEDE" transform="translate(0,0)"/>
<path d="M0 0 C8.999999999999998 1 8.999999999999998 1 12.09765625 1.58984375 C15.624389276192366 2.088238053836065 18.886896264753783 1.798722357002049 22.4375 1.5625 C29.129145128123373 1.3320324638652323 29.129145128123373 1.3320324638652323 32.1796875 3.671875 C33.27009802505348 5.101408415620341 34.3240214993878 6.5595045425842216 35.33984375 8.04296875 C37.878588030601215 11.035700243132254 40.73647418089756 11.347310775828674 44.4375 12.25 C49.690557416674515 13.787480219514492 54.332547389515355 16.51263975231572 57.4140625 21.109375 C59.87566644737475 26.245095465745862 60.256986047546356 30.05588838037086 61 36 C40.87 36 20.739999999999995 36 0 36 C0 24.120000000000005 0 12.239999999999995 0 0 Z " fill="#597185" transform="translate(0,92)"/>
<path d="M0 0 C24.0124211094369 12.625978926690706 24.0124211094369 12.625978926690706 26.8125 21.27734375 C26.999414062499994 22.224804687499997 27.186328125000003 23.172265625 27.37890625 24.1484375 C28.624347468420495 29.72195897469942 30.519720194955482 34.692182195582646 32.85546875 39.89453125 C33.90683456668546 42.5002544431521 34.60242994154052 44.798798963777685 34.94140625 47.5859375 C32.74493005121302 52.58902217501479 29.17871556897525 55.3238655764755 24.50390625 57.9609375 C21.017489139749685 58.81128313664641 19.198996295182496 58.01113314476734 15.94140625 56.5859375 C15.124140624999995 56.253359375 14.306874999999991 55.920781250000005 13.46484375 55.578125 C9.67747373315406 52.58809603933216 8.971879616077985 48.89928338425884 7.56640625 44.3984375 C3.7766750450529827 33.333083801781356 -0.24072300557844528 28.02414459940686 -10.4765625 22.28515625 C-15.076619633570594 19.25788718327805 -19.163398219815626 15.28225724176437 -22.05859375 10.5859375 C-21.93417630796325 6.728996796860642 -20.4962267171139 4.350414302904685 -18.18359375 1.3359375 C-17.670546875 0.650156250000002 -17.1575 -0.035624999999999574 -16.62890625 -0.7421875 C-12.051138478378377 -5.616029804114568 -5.178717270488178 -2.394247320455584 0 0 Z " fill="#324E89" transform="translate(72.05859375,23.4140625)"/>
<path d="M0 0 C0.2681249999999977 0.8108203124999989 0.5362500000000026 1.6216406249999977 0.8125 2.45703125 C3.379457484234848 9.71037493078201 6.347418060404706 15.410425855713584 11.23046875 21.3671875 C16.521800197761422 29.23994113309314 14.643698093347972 37.279268449181586 13 46 C12.185602430709793 49.41594536007837 11.199188051856993 52.700741329965595 10 56 C9.751210937500005 56.702539062499994 9.502421874999996 57.405078125 9.24609375 58.12890625 C8.499999999999993 60.062500000000014 8.499999999999993 60.062500000000014 7 63 C2.4164483856683603 64.52785053811054 -0.7637304598443535 63.08652081828561 -5 61 C-8.937534575771451 58.5010373784652 -11.348956701660889 55.630214925290005 -12.48828125 51.02734375 C-13.472933589643326 45.38797125931549 -13.785158015995709 39.713205352410384 -14 34 C-14.031743164062501 33.244287109374994 -14.063486328124998 32.48857421875 -14.09619140625 31.7099609375 C-14.825636199445551 11.670367171060228 -14.825636199445551 11.670367171060228 -8.296875 3.375 C-5.663596043221908 0.5830897807653983 -3.781581107444893 0 0 0 Z " fill="#497162" transform="translate(42,42)"/>
<path d="M0 0 C0 29.370000000000005 0 58.74000000000001 0 89 C-2.6400000000000006 89 -5.280000000000001 89 -8 89 C-8.309375000000003 87.96875 -8.618750000000006 86.9375 -8.9375 85.875 C-10.799017844911361 80.81456314004679 -13.74974968582201 76.5267905743542 -16.775146484375 72.10107421875 C-20.35677466976928 66.77624202853227 -22.999722123595745 61.498193803372345 -22 55 C-19.10996281970158 49.08040660311289 -15.24209003143335 43.77202082766267 -11.19921875 38.59375 C-8.091309573826777 34.463369075313764 -8.57213393846628 29.976757873629083 -9 25 C-10.23924484889723 21.358385429646788 -10.23924484889723 21.358385429646788 -12 18 C-16.140327168602397 8.301936361832219 -16.140327168602397 8.301936361832219 -14.2890625 2.94140625 C-13 1 -13 1 -10.72265625 0.13671875 C-9.844804687500002 -0.011523437500002842 -8.966953125000003 -0.15976562499999858 -8.0625 -0.3125 C-7.187226562500001 -0.4736328125 -6.311953125000002 -0.634765625 -5.41015625 -0.80078125 C-3 -1 -3 -1 0 0 Z " fill="#A6B0C6" transform="translate(128,39)"/>
<path d="M0 0 C0.20753906249998977 0.9925781249999943 0.41507812500000796 1.9851562500000028 0.62890625 3.0078125 C2.550723972364466 11.649033022119028 5.105473860853337 18.931394425257963 9.51171875 26.62109375 C11 29.999999999999986 11 29.999999999999986 12 39 C-1.5300000000000011 39 -15.060000000000002 39 -29 39 C-30.65 33.39 -32.3 27.78 -34 22 C-32.329375 21.917500000000004 -30.658749999999998 21.835000000000008 -28.9375 21.75 C-23.50194458798717 21.239980019181317 -20.359859426648143 20.29213875073431 -16 17 C-13.798792898578313 14.203872060356247 -12.282942777548698 11.773376925299758 -11.0625 8.4375 C-9.646576963401614 5.189205974862517 -7.644621362325367 3.322106562041796 -5 1 C-2 0 -2 0 0 0 Z " fill="#535666" transform="translate(90,89)"/>
<path d="M0 0 C0.9938927564567166 6.460302916968686 -2.403764795636974 10.048073420628782 -6 15 C-7.1117178250442805 16.6407421693757 -8.216201107496104 18.286415469400907 -9.3125 19.9375 C-9.803632812499998 20.668398437500002 -10.294765624999997 21.399296875000005 -10.80078125 22.15234375 C-13.235370063777992 25.903355179697044 -13.117899727600701 28.140824939867812 -12.56640625 32.50390625 C-11.01511082799017 39.34030469596058 -6.347905239208643 45.12988006477599 -2.234375 50.6640625 C-1 53 -1 53 0 60 C-5.939999999999998 60 -11.879999999999995 60 -18 60 C-18.350625000000008 58.30875 -18.70125 56.61750000000001 -19.0625 54.875 C-20.299559937831077 49.831601791919425 -22.131597265823487 45.43936116162098 -24.5625 40.875 C-28.270299858858763 33.79576187285406 -30.535839397886235 27.063729475507586 -30 19 C-26.96639029302338 14.449585439535056 -23.674835287221143 11.88985558134921 -18.96484375 9.17578125 C-16.959289376816585 8.034127312025362 -16.959289376816585 8.034127312025362 -15.140625 6.5234375 C-12.501995206726264 4.645580530334385 -9.811042720284746 3.528717692880406 -6.8125 2.3125 C-5.746445312500001 1.875507812500004 -4.680390625000001 1.4385156249999937 -3.58203125 0.98828125 C-1 0 -1 0 0 0 Z " fill="#6C7E9C" transform="translate(120,68)"/>
<path d="M0 0 C8.25 0 16.5 0 25 0 C24.19746406897959 7.222823379183714 23.130661685639613 14.094513842920199 21.6875 21.1875 C21.48705078125 22.24130859375 21.2866015625 23.2951171875 21.080078125 24.380859375 C19.382739645923852 32.7204140694082 17.228659366838286 38.008782818135465 10 43 C6.1946162498812845 45.17450500006784 4.444946112248924 46 0 46 C0 30.82 0 15.639999999999997 0 0 Z " fill="#8A8EE3" transform="translate(0,0)"/>
<path d="M0 0 C2.7604811140978285 1.401855062416569 3.866535503422014 2.5543211868496307 6 5 C6.4375 8.5 6.4375 8.5 5 12 C2.823255572142614 13.42359085581873 0.5711816477873128 14.493717454805491 -1.76953125 15.625 C-5.407605844027643 17.867736001922466 -6.785603029750668 21.002609972929278 -8 25 C-8.977254355181614 29.612640556457222 -9.156284805686802 34.11475123178042 -9.125 38.8125 C-9.122099609374999 39.87416381835938 -9.122099609374999 39.87416381835938 -9.119140625 40.957275390625 C-9.082888700994214 45.34728268793668 -8.818193035923699 49.61603531537358 -8.22265625 53.9609375 C-7.821051492944044 57.63879159093348 -7.941343139025683 61.30461775861812 -8 65 C-12.05849177370047 65.98387679362436 -15.835312550378326 66.03924322685155 -20 66 C-20.34057018223546 61.8964010355911 -20.67110267708272 57.792049698839264 -21 53.6875 C-21.095390625 52.53958984375001 -21.19078125 51.3916796875 -21.2890625 50.208984375 C-22.678678397787266 32.68989823503914 -22.13482940095527 17.417674637309055 -10.421875 3.06640625 C-7.118364470655916 -0.002381162785425772 -4.385289624708314 -0.9136020051475668 0 0 Z " fill="#6E94A2" transform="translate(38,29)"/>
<path d="M0 0 C1.75390625 1.820312500000007 1.75390625 1.820312500000007 3.5625 4.125 C6.612124166725977 7.7265151073461595 9.508399052598932 10.151200947493592 13.5625 12.5625 C23.58875061447405 18.71654348060821 26.98411067255435 25.357161752345966 30.4287109375 36.3857421875 C32.00171816209388 41.34125520368109 32.00171816209388 41.34125520368109 35.53515625 45.03125 C38.026307162640364 46.01033942366848 40.3520423913216 46.62172034161736 43 47 C40.945189137887525 53.1644325863374 37.5000754000576 55.83745664496688 32 59 C30.65368175356798 59.98244845009904 29.31558702896055 60.97676564414181 28 62 C28 61.00999999999999 28 60.02000000000001 28 59 C27.391562499999992 58.767968749999994 26.783125 58.5359375 26.15625 58.296875 C19.45637233377255 54.267238432631316 17.783627110683582 42.18713991179493 15.9921875 35.1640625 C15.02064446601382 32.065834714453516 13.711899307992468 29.7371045432874 12 27 C12 26.340000000000003 12 25.68 12 25 C11.340000000000003 25 10.68 25 10 25 C8.484375 23.20703125 8.484375 23.20703125 6.75 20.8125 C4.541615899802551 17.86798786640341 2.4549197611054154 15.34345810139429 -0.4375 13.0625 C-1.2831249999999983 12.381875 -2.1287499999999966 11.701250000000002 -3 11 C-3 10.340000000000003 -3 9.68 -3 9 C-3.639375000000001 8.855625000000003 -4.278750000000002 8.71125 -4.9375 8.5625 C-7 8 -7 8 -8 7 C-7.712699447079586 4.660552640505202 -7.3806322053169 2.326085699158817 -7 0 C-3.8196083866084294 -1.0601305377971926 -3.0100642777523916 -1.2132696704952082 0 0 Z " fill="#264B6A" transform="translate(51,34)"/>
<path d="M0 0 C11.219999999999999 0 22.439999999999998 0 34 0 C33.938125 2.8875 33.87625 5.775 33.8125 8.75 C33.80581298828125 9.653310546875 33.79912597656249 10.55662109375 33.792236328125 11.4873046875 C33.56099066985374 17.416204831371715 33.56099066985374 17.416204831371715 30.59765625 20.5 C25.530711596161694 23.425874807629942 21.934392743915666 24.583710761696622 16 24 C10.11187032541197 22.31897532438459 5.108318403398215 20.56907047275513 2 15 C-0.07045389396468238 9.513297180993582 0 6.181888612303407 0 0 Z " fill="#B5B1DD" transform="translate(74,0)"/>
<path d="M0 0 C10.125 1.125 10.125 1.125 14.0625 2.0625 C14.8166015625 2.2391015624999966 15.570703125 2.415703124999993 16.34765625 2.59765625 C16.8929296875 2.7304296875000063 17.438203125 2.8632031249999983 18 3 C18.675457645139527 7.186130791453138 19.338790773497585 11.374096960499898 20 15.5625 C20.19078125 16.74392578125 20.3815625 17.925351562499998 20.578125 19.142578125 C20.75859375 20.293066406250006 20.9390625 21.443554687499997 21.125 22.62890625 C21.292578125 23.681506347656253 21.46015625 24.734106445312506 21.6328125 25.818603515625 C22 29 22 29 22 36 C14.739999999999998 36 7.479999999999999 36 0 36 C0 24.120000000000005 0 12.239999999999995 0 0 Z " fill="#6881BC" transform="translate(0,92)"/>
<path d="M0 0 C0 6.270000000000003 0 12.54 0 19 C-3.299999999999997 19.659999999999997 -6.599999999999994 20.32 -10 21 C-13.388082733554711 15.863229403965434 -15.347477203898762 11.266172243641108 -15 5 C-14.31640625 2.8125 -14.31640625 2.8125 -13 1 C-10.72265625 0.13671875 -10.72265625 0.13671875 -8.0625 -0.3125 C-7.187226562500001 -0.4736328125 -6.311953125000002 -0.634765625 -5.41015625 -0.80078125 C-3 -1 -3 -1 0 0 Z " fill="#B5B1DD" transform="translate(128,39)"/>
</svg>
