<?xml version="1.0" encoding="UTF-8"?>
<!-- Generator: visioncortex VTracer 0.6.0 -->
<svg version="1.1" xmlns="http://www.w3.org/2000/svg" width="128" height="128">
<path d="M0 0 C42.24 0 84.48 0 128 0 C128 42.24 128 84.48 128 128 C85.75999999999999 128 43.519999999999996 128 0 128 C0 85.75999999999999 0 43.519999999999996 0 0 Z " fill="#88C9AE" transform="translate(0,0)"/>
<path d="M0 0 C1.3593164062500023 0.5588085937500011 1.3593164062500023 0.5588085937500011 2.74609375 1.12890625 C9.844526616682487 3.885652135790977 15.419064611962554 5.891756353712097 23 4 C30.657845736361537 2.267109783452298 36.83834285215272 2 45 2 C45 21.47 45 40.940000000000005 45 61 C42.03 61.99000000000001 39.06 62.97999999999999 36 64 C33.51533826784305 65.39494870969119 33.51533826784305 65.39494870969119 31.625 67 C30.998515624999996 67.495 30.372031250000006 67.99 29.7265625 68.5 C27.969696184065086 69.97781286369175 27.969696184065086 69.97781286369175 26.3984375 71.6875 C25 73 25 73 23 73 C22.69062500000001 73.804375 22.69062500000001 73.804375 22.375 74.625 C20.46749573961283 77.91978008612328 17.951806160021036 80.59363628259155 15 83 C14.340000000000003 83 13.680000000000007 83 13 83 C13 83.66 13 84.32 13 85 C11.84239067907717 85.6619308616979 10.673161702747322 86.30354146447692 9.5 86.9375 C8.525468750000002 87.47697265625 8.525468750000002 87.47697265625 7.53125 88.02734375 C0.9636187199377133 90.55101688076468 -5.649633199581615 90.04804691442004 -12.5 89.3125 C-13.366411132812502 89.2214599609375 -14.232822265625003 89.130419921875 -15.12548828125 89.03662109375 C-39.50877047685495 86.23399635742658 -39.50877047685495 86.23399635742658 -46.584716796875 78.200927734375 C-48.211534526987364 75.67103954445557 -48.77470604074468 73.60842898095436 -49.38671875 70.66796875 C-49.60328125 69.62922607421875 -49.81984375 68.5904833984375 -50.04296875 67.520263671875 C-50.36201171875 65.87054565429688 -50.36201171875 65.87054565429688 -50.6875 64.1875 C-50.906640625 63.06126220703125 -51.12578125 61.9350244140625 -51.3515625 60.774658203125 C-54.112757907482624 45.84855337036275 -54.79019110760515 30.533422702112723 -46.6328125 17.02734375 C-40.78918543499284 9.771739810433687 -30.715171587438945 4.905057195812983 -22 2 C-14.5000642730392 1.3311460828295196 -9.164166699126582 1.516969673362489 -3 6 C-2.009999999999991 4.02 -1.0200000000000102 2.039999999999999 0 0 Z " fill="#3F8470" transform="translate(83,23)"/>
<path d="M0 0 C-0.75 5.7499999999999964 -0.75 5.7499999999999964 -3 8 C-4.361249999999998 7.009999999999998 -4.361249999999998 7.009999999999998 -5.75 6 C-11.598882922121092 2.6915409733456457 -18.142979986096407 3.1039845813854754 -24.5390625 4.58984375 C-33.31355944050106 7.690928173597278 -43.704129977908195 13.514600698141138 -48.1875 21.9375 C-53.910612899069626 36.17975042058548 -52.58296651065674 50.387850979916976 -49.75 65.125 C-49.54560302734375 66.21627197265624 -49.341206054687504 67.3075439453125 -49.130615234375 68.431884765625 C-47.62447669604937 75.99153849418482 -47.62447669604937 75.99153849418482 -43 82 C-31.454995403472672 89.46484232948153 -11.43518593007326 90.53291969242461 2 90 C5.340844025400045 89.06665715217284 8.022697576098977 87.72995377747866 11 86 C11.659999999999997 86 12.319999999999993 86 13 86 C13 85.34 13 84.68 13 84 C14.574218750000014 82.44921874999999 14.574218750000014 82.44921874999999 16.6875 80.6875 C19.07484271311212 78.66035285412936 21.345319607534634 76.65468039246537 23.5625 74.4375 C28.743602309034742 69.25639769096526 33.962653438211646 64.46669879485364 41 62 C42.31999999999999 62 43.64 62 45 62 C45 76.52 45 91.04 45 106 C15.629999999999995 106 -13.740000000000009 106 -44 106 C-47.00000000000001 99.99999999999999 -47.00000000000001 99.99999999999999 -48 97 C-49.33276692216431 96.33220171203656 -50.66618462317921 95.66570170705702 -52 95 C-53.81640625 93.046875 -53.81640625 93.046875 -55.5625 90.75 C-56.1412890625 90.00234375 -56.720078125 89.2546875 -57.31640625 88.484375 C-57.8719921875 87.66453125 -58.427578125 86.8446875 -59 86 C-59.5710546875 85.18015625 -60.142109375000004 84.3603125 -60.73046875 83.515625 C-62.710412388705286 78.03270415435459 -62.08831279430794 72.75770076350484 -61.75 67 C-61.697148437500005 65.837265625 -61.644296874999995 64.67453125 -61.58984375 63.4765625 C-61.33167189994555 58.229069547730475 -60.87131927372724 53.18184277252402 -60 48 C-60.02990255663148 45.999247119930374 -60.09505366643049 43.99883964474631 -60.1875 42 C-60.24463207075796 35.3226892301639 -59.3619642693226 29.00541983470235 -58.1875 22.4375 C-58.02209716796875 21.48552734375 -57.856694335937505 20.5335546875 -57.686279296875 19.552734375 C-56.02455098216517 10.754888752136807 -56.02455098216517 10.754888752136807 -53 7 C-52.34 7 -51.68 7 -51 7 C-51 6.34 -51 5.68 -51 5 C-45.400296863217584 2.516322146134602 -39.717446013394834 0.40034114203590576 -33.9375 -1.625 C-33.065449218750004 -1.9369531249999987 -32.1933984375 -2.248906250000001 -31.294921875 -2.5703125 C-20.529870133791967 -6.351526737638553 -9.385073509647327 -7.820894591372777 0 0 Z " fill="#50A4A2" transform="translate(83,22)"/>
<path d="M0 0 C3.022868835885589 1.3854815497808985 4.668714247414556 2.668714247414563 7 5 C8.175624999999997 4.958750000000002 9.351249999999993 4.917500000000004 10.5625 4.875 C14.122776473404059 5.174401677836542 14.98696043124744 5.985695862576691 17.45703125 8.6953125 C19.089231141461838 10.850064104266579 20.60923004715613 13.069688309193388 22.1171875 15.3125 C23.724672440752443 18.060644598649347 23.724672440752443 18.060644598649347 26 19 C26 19.659999999999997 26 20.32 26 21 C26.928124999999994 21.268124999999998 27.856250000000003 21.536249999999995 28.8125 21.8125 C32.57247842979126 23.213276277765374 34.22573087924691 24.451461758493814 36 28 C37.9096073672638 37.173990032421955 33.32149817697095 44.21172702952401 29.09033203125 51.94970703125 C28.036941286778585 53.93053449924619 27.066436791725437 55.930554831976764 26.12109375 57.96484375 C25.82597900390624 58.59229492187501 25.53086425781251 59.21974609374999 25.226806640625 59.8662109375 C24.425565761652393 61.57938289426001 23.63054011932161 63.295457762582004 22.8359375 65.01171875 C20.038091997595004 69.56565876987197 16.95754774707983 72.52873850533264 11.625 73.8125 C10.325625000000002 73.90531250000001 10.325625000000002 73.90531250000001 9 74 C8.720273437499998 73.466328125 8.440546874999995 72.93265625 8.15234375 72.3828125 C3.750273779789893 64.20147345568667 -1.092518305613126 56.2979980154704 -8 50 C-8.494999999999997 49.504999999999995 -8.494999999999997 49.504999999999995 -9 49 C-10.744672826510438 48.67799662597962 -12.49611338919214 48.392303574374466 -14.25 48.125 C-21.250087199891915 46.88436358811748 -24.847037159250675 44.87143022312836 -29 39 C-32.18921509887744 33.646674655455726 -31.688541222827062 27.45346457074197 -30.5 21.4921875 C-27.498115319645684 11.429051355630428 -20.411258200466293 6.675228962955522 -12 1 C-8.31859601979049 -0.8407019901047548 -4.027304030236806 -0.3678482421318634 0 0 Z " fill="#245C5E" transform="translate(72,33)"/>
<path d="M0 0 C4.625752292041369 2.942962006398414 7.812089649284275 6.012971774717748 10.3515625 10.87109375 C10.3515625 11.531093749999997 10.3515625 12.19109375 10.3515625 12.87109375 C7.1015625 13.12109375 7.1015625 13.12109375 3.3515625 12.87109375 C1.1015625 10.933593750000007 1.1015625 10.933593750000007 -0.6484375 8.87109375 C-5.830394004245576 7.14377491525147 -11.10360488840891 6.6407573535299775 -16.12890625 9.0703125 C-18.394101129769616 10.576648123565391 -20.524071945392336 12.17329066261972 -22.6484375 13.87109375 C-23.5559375 14.489843749999999 -24.463437499999998 15.108593749999997 -25.3984375 15.74609375 C-31.550110283261965 21.556006934191856 -33.710202354726846 27.858767389086466 -34.0234375 36.18359375 C-33.969120672299724 41.93341793941457 -32.44008346637822 45.583048450976165 -28.6484375 49.87109375 C-25.384935721176312 52.750654143079714 -22.272819975027282 53.14692175195452 -18.0859375 53.80859375 C-14.517169665707058 54.380943308330004 -12.906624459190446 54.678954617579194 -9.9609375 56.87109375 C-8.6484375 58.87109375 -8.6484375 58.87109375 -8.6484375 60.87109375 C-7.658437499999991 61.20109375 -6.66843750000001 61.53109375 -5.6484375 61.87109375 C-4.038114240715217 63.883997824105975 -2.5834014148350377 65.86495922301727 -1.1484375 67.99609375 C-0.757851562500008 68.55296875 -0.3672656250000017 69.10984375 0.03515625 69.68359375 C2.704219968912014 73.5838417432923 4.608144251359107 77.47902085438545 6.3515625 81.87109375 C4.737441892432287 84.21890554282578 3.354327882452793 85.67096200350207 0.4921875 86.2421875 C-11.50358753649708 86.59378780279388 -29.168012950946554 84.86206025154186 -38.234375 76.48046875 C-41.80113454976862 71.96184181798203 -42.45945350155982 66.46934596670695 -43.4609375 60.93359375 C-43.6710546875 59.81637939453125 -43.881171875 58.69916503906251 -44.09765625 57.548095703125 C-46.75378421154518 42.65804069792064 -47.40563105024716 27.349882771816404 -39.28125 13.8984375 C-31.122853458516232 3.7687537559089073 -12.785639187619893 -5.449925848410249 0 0 Z " fill="#1D6B7B" transform="translate(75.6484375,26.12890625)"/>
<path d="M0 0 C35.64 0 71.28 0 108 0 C105.06209284482487 7.344767887937806 100.0056173753373 11.550264171235424 93 15 C88.69503911103017 16.21287593741411 84.37658621746031 16.149412939784384 79.9375 16.125 C79.23044921875 16.1288671875 78.5233984375 16.132734375 77.794921875 16.13671875 C72.49569123711663 16.126767143168294 72.49569123711663 16.126767143168294 70.053466796875 15.502197265625 C59.65229722528294 12.958480013364287 46.70114310482016 14.697798942546683 36.125 15.75 C35.4197216796875 15.81163330078125 34.714443359375 15.8732666015625 33.98779296875 15.936767578125 C25.577908459188386 16.904819070201004 19.76781243233771 20.480980196676448 14.46875 26.984375 C11.864781128014215 30.557906749852833 10.283804577309327 34.01614413199433 9.0625 38.25 C8.000000000000002 41 8.000000000000002 41 6.125 42.375 C3.9999999999999942 43 3.9999999999999942 43 0 43 C0 28.81 0 14.619999999999997 0 0 Z " fill="#A8DCB6" transform="translate(0,0)"/>
<path d="M0 0 C6.599999999999994 0 13.200000000000003 0 20 0 C20 8.25 20 16.5 20 25 C17.9375 25.103125 15.875 25.20625 13.75 25.3125 C8.85260497181254 25.64360541562922 4.4085180821351315 26.29093166453214 -0.3125 27.625 C-10.05751873394982 30.23227653544088 -16.41325958329176 27.883454265426487 -25 23 C-25.764414062499995 22.5359375 -26.528828125000004 22.071875 -27.31640625 21.59375 C-34.68059503763588 17.18804401226653 -40.27084081056401 16.18269403320708 -48.6875 18.125 C-54.45581130615338 19.725669505671718 -60.06870863458325 21.725964543206995 -65.67578125 23.81640625 C-69.09331087197201 25.03322349495596 -72.50366536380108 26.038397191311574 -76 27 C-76 27.66 -76 28.32 -76 29 C-76.4627734375 29.42796875 -76.925546875 29.8559375 -77.40234375 30.296875 C-84.4889346051974 37.851284811408476 -84.14188835303261 56.451776084224335 -84 66.1875 C-83.95875000000001 67.2123046875 -83.9175 68.237109375 -83.875 69.29296875 C-84.00427097956471 72.0924934011982 -84.55339543752511 73.63231518876181 -86 76 C-88.5572851754526 69.37845802784594 -90.699238576132 62.68377221656272 -92.75 55.890625 C-94.82547535446533 48.38076297428098 -94.82547535446533 48.38076297428098 -99 42 C-99.88997641029735 36.02444410228925 -98.0773476521684 32.44619399485217 -94.84765625 27.4375 C-89.86259707547948 20.861016015008882 -84.54269078462553 16.787075836480575 -76.34765625 15.3671875 C-74.92061804352066 15.191792632057748 -73.49206691952224 15.028426937204406 -72.0625 14.875 C-71.2934130859375 14.79080810546875 -70.524326171875 14.7066162109375 -69.73193359375 14.619873046875 C-63.19667707710933 13.978307681654755 -56.68910469796034 13.81793791293013 -50.125 13.8125 C-49.18019775390625 13.8116943359375 -48.2353955078125 13.810888671875 -47.261962890625 13.81005859375 C-43.298084406463374 13.842416785457441 -39.8410867029277 14.004521185848274 -36 15 C-24.723774969988668 15.640834646514305 -14.910134387453056 15.830118098064808 -6 8 C-5.340000000000003 8 -4.680000000000007 8 -4 8 C-3.711250000000007 7.4225 -3.4224999999999994 6.845 -3.125 6.25 C-2.0833333333333286 4.166666666666667 -1.0416666666666714 2.083333333333333 0 0 Z " fill="#81C7A0" transform="translate(108,0)"/>
<path d="M0 0 C0 14.519999999999996 0 29.040000000000006 0 44 C-16.5 44 -33 44 -50 44 C-50 33.5 -50 33.5 -47 29 C-43.76533956142954 27.517447298988543 -40.45902828953997 26.782136969927834 -37 26 C-35.32201211984281 25.362364605540265 -33.647062754002434 24.713727193401056 -32 24 C-32 23.340000000000003 -32 22.680000000000007 -32 22 C-30.425781250000014 20.44921875 -30.425781250000014 20.44921875 -28.3125 18.6875 C-25.925157286887895 16.66035285412937 -23.654680392465366 14.654680392465366 -21.4375 12.4375 C-9 0 -9 0 0 0 Z " fill="#78A999" transform="translate(128,84)"/>
<path d="M0 0 C2.9375 1.3125 2.9375 1.3125 5 3 C5.556874999999991 3.4537499999999994 6.11375000000001 3.907499999999999 6.6875 4.375 C9.765917241098052 8.186373727073779 10.396379769576413 12.028740147182596 10.25 16.88671875 C9.363211479720775 24.382852960485366 5.64549243901088 29.48952579947101 0.3125 34.625 C-1.2476193672468696 36.25941076568719 -2.0803387488325313 37.94844797816489 -3 40 C-3.6599999999999966 40 -4.319999999999993 40 -5 40 C-5.990000000000009 42.474999999999994 -5.990000000000009 42.474999999999994 -7 45 C-7.659999999999997 45 -8.32 45 -9 45 C-9.329999999999998 45.99000000000001 -9.659999999999997 46.97999999999999 -10 48 C-15.48961547424004 48.33609890658613 -19.172976261233593 47.681679854870225 -24 45 C-27.6564678191927 41.55578097242271 -30.68719651791951 37.57961313144301 -31.30078125 32.51953125 C-31.33599995153169 24.384011196180168 -30.44639384522617 16.808011412001584 -24.73046875 10.546875 C-16.804998305938938 3.462255822013141 -10.726289722456649 -0.9643509687382164 0 0 Z " fill="#0E4357" transform="translate(72,33)"/>
<path d="M0 0 C0 9.239999999999995 0 18.480000000000004 0 28 C-2.969999999999999 28.989999999999995 -5.939999999999998 29.980000000000004 -9 31 C-11.484661732156923 32.39494870969119 -11.484661732156923 32.39494870969119 -13.375 34 C-14.00148437499999 34.495000000000005 -14.627968750000008 34.99000000000001 -15.2734375 35.5 C-17.030303815934914 36.97781286369175 -17.030303815934914 36.97781286369175 -18.6015625 38.6875 C-20 40 -20 40 -22 40 C-22.206249999999997 40.536249999999995 -22.412499999999994 41.07249999999999 -22.625 41.625 C-24.532504260387157 44.91978008612327 -27.04819383997898 47.59363628259156 -30 50 C-30.659999999999997 50 -31.319999999999993 50 -32 50 C-32 50.66 -32 51.31999999999999 -32 52 C-37.3528090386766 55.06078176413689 -41.793181840997065 56.78597178762058 -48 57 C-48.66 56.34 -49.31999999999999 55.68000000000001 -50 55 C-47.58936318315429 52.18759038034668 -45.32245322192907 50.581158655545934 -42 49.0625 C-35.391509581036004 45.8620850466385 -33.30346998529046 40.791160780924585 -30.50390625 34.296875 C-29.374138307152023 31.820188912302115 -28.19830613025485 29.465149946927653 -26.90234375 27.078125 C-21.99002889971956 17.95772717953878 -19.21628655540735 11.386292179824665 -22 1 C-19.64717187516645 0.6336007682048148 -17.293593636274622 0.28169841057734857 -14.9375 -0.0625 C-13.952333984375002 -0.21815429687499943 -13.952333984375002 -0.21815429687499943 -12.947265625 -0.376953125 C-8.129926055921104 -1.065144492011271 -5.0460881508404185 -0.7208697358343485 0 0 Z " fill="#487C78" transform="translate(128,56)"/>
<path d="M0 0 C0.9280444335937474 -0.00918457031250064 1.856088867187502 -0.018369140624999503 2.812255859375 -0.02783203125 C7.691050755064509 -0.0055442519183888095 11.67385096928723 0.3407457686430124 16.25 2.25 C16.25 2.5799999999999983 16.25 2.91 16.25 3.25 C15.012500000000003 3.1881249999999994 13.775000000000006 3.126249999999999 12.5 3.0625 C2.7418976228553475 3.092946497276582 -6.391407647298379 6.698190307529359 -15.42578125 10.06640625 C-18.843310871972008 11.283223494955955 -22.253665363801076 12.288397191311574 -25.75 13.25 C-25.75 13.91 -25.75 14.57 -25.75 15.25 C-26.2127734375 15.677968749999998 -26.675546875 16.1059375 -27.15234375 16.546875 C-34.2389346051974 24.101284811408476 -33.891888353032606 42.70177608422435 -33.75 52.4375 C-33.70875 53.462304687499994 -33.667500000000004 54.487109375 -33.625 55.54296875 C-33.75427097956471 58.3424934011982 -34.30339543752511 59.88231518876181 -35.75 62.25 C-38.307285175452606 55.62845802784592 -40.449238576132004 48.93377221656274 -42.5 42.140625 C-44.575475354465325 34.63076297428098 -44.575475354465325 34.63076297428098 -48.75 28.25 C-49.63997641029735 22.27444410228925 -47.8273476521684 18.69619399485218 -44.59765625 13.6875 C-39.612597075479485 7.111016015008882 -34.29269078462554 3.037075836480575 -26.09765625 1.6171875 C-24.67064343023678 1.4415862053473827 -23.242087224612888 1.2782376248702825 -21.8125 1.125 C-21.041962890625 1.0415332031250006 -20.271425781250002 0.9580664062499995 -19.4775390625 0.8720703125 C-12.987607045722413 0.24035265492729074 -6.51854195346467 0.03597489496853079 0 0 Z " fill="#7AB29D" transform="translate(57.75,13.75)"/>
<path d="M0 0 C21.78 0 43.56 0 66 0 C63.062092844824875 7.344767887937814 58.005617375337295 11.55026417123542 51 15 C46.6950391110302 16.2128759374141 42.3765862174603 16.149412939784384 37.9375 16.125 C37.23044921875001 16.1288671875 36.52339843749999 16.132734375 35.794921875 16.13671875 C30.490933616937696 16.126758208670307 30.490933616937696 16.126758208670307 28.056884765625 15.498291015625 C25.761955497511337 14.942332483135983 23.73453547799734 14.889967816156153 21.375 14.89453125 C20.067890625000004 14.872294921875 20.067890625000004 14.872294921875 18.734375 14.849609375 C16.911618746115067 14.824871968697275 15.088492840901985 14.819661841964342 13.265625 14.833984375 C6.659343464819855 14.672736378949006 6.659343464819855 14.672736378949006 3.5 11.44921875 C2 8.000000000000002 2 8.000000000000002 0 0 Z " fill="#A7E4BF" transform="translate(42,0)"/>
<path d="M0 0 C-0.75 5.749999999999993 -0.75 5.749999999999993 -3 8 C-4.361249999999998 7.009999999999998 -4.361249999999998 7.009999999999998 -5.75 6 C-11.598882922121078 2.6915409733456492 -18.14297998609642 3.1039845813854754 -24.5390625 4.58984375 C-33.31355944050106 7.690928173597278 -43.704129977908195 13.514600698141138 -48.1875 21.9375 C-49.234574622555975 24.4672025566855 -49.234574622555975 24.4672025566855 -50 27 C-50.239765625000004 27.721874999999997 -50.47953125 28.44375 -50.7265625 29.1875 C-52.97272347467161 37.812758142739 -52.163315687755414 47.16280667367923 -52 56 C-58.821534214158945 51.847761782685865 -58.821534214158945 51.847761782685865 -60 48 C-61.07902024689628 39.392931518943655 -59.684730074192416 30.903198844478453 -58.1875 22.4375 C-57.93975830078125 21.00978271484375 -57.93975830078125 21.00978271484375 -57.68701171875 19.55322265625 C-56.0227057011387 10.752597891439905 -56.0227057011387 10.752597891439905 -53 7 C-52.34 7 -51.68 7 -51 7 C-51 6.34 -51 5.68 -51 5 C-45.400296863217584 2.516322146134602 -39.717446013394834 0.40034114203590576 -33.9375 -1.625 C-33.065449218750004 -1.9369531249999987 -32.1933984375 -2.248906250000001 -31.294921875 -2.5703125 C-20.529870133791967 -6.351526737638553 -9.385073509647327 -7.820894591372777 0 0 Z " fill="#59938B" transform="translate(83,22)"/>
<path d="M0 0 C4.625752292041369 2.942962006398414 7.812089649284275 6.012971774717748 10.3515625 10.87109375 C10.3515625 11.531093749999997 10.3515625 12.19109375 10.3515625 12.87109375 C7.1015625 13.12109375 7.1015625 13.12109375 3.3515625 12.87109375 C1.1015625 10.933593750000007 1.1015625 10.933593750000007 -0.6484375 8.87109375 C-5.830394004245576 7.14377491525147 -11.10360488840891 6.6407573535299775 -16.12890625 9.0703125 C-18.394101129769616 10.576648123565391 -20.524071945392336 12.17329066261972 -22.6484375 13.87109375 C-23.5559375 14.489843749999999 -24.463437499999998 15.108593749999997 -25.3984375 15.74609375 C-31.88311360091859 21.87051006753422 -33.32097102789763 27.73343334584969 -33.840576171875 36.4111328125 C-33.99609375 38.45703125 -33.99609375 38.45703125 -34.6484375 41.87109375 C-36.64453125000001 43.16015625 -36.64453125000001 43.16015625 -38.6484375 43.87109375 C-38.9784375 44.86109375000001 -39.3084375 45.85109374999999 -39.6484375 46.87109375 C-40.3084375 46.87109375 -40.9684375 46.87109375 -41.6484375 46.87109375 C-42.3084375 48.19109374999999 -42.9684375 49.51109375 -43.6484375 50.87109375 C-47.52326488014285 45.05885267978573 -46.1609226189713 36.29433419312859 -45.1484375 29.53125 C-42.80902152172523 19.20326014136647 -39.38053955350787 12.25347231737782 -30.3515625 6.44140625 C-21.08372838054332 1.057491053437019 -10.817808602567766 -4.611130805519302 0 0 Z " fill="#326B72" transform="translate(75.6484375,26.12890625)"/>
<path d="M0 0 C0 10.230000000000004 0 20.460000000000008 0 31 C-10.89 31 -21.78 31 -33 31 C-30.7510358493965 25.37758962349126 -30.7510358493965 25.37758962349126 -28.35546875 22.87890625 C-27.843066406250003 22.335566406249995 -27.330664062500006 21.792226562500005 -26.802734375 21.232421875 C-26.269707031249993 20.681347656249997 -25.7366796875 20.130273437499994 -25.1875 19.5625 C-24.13789285470466 18.46099633330563 -23.08970365731426 17.35813970403315 -22.04296875 16.25390625 C-21.531130371093752 15.7155615234375 -21.019291992187505 15.177216796875001 -20.491943359375 14.62255859375 C-19.041752121581638 13.045407396503279 -17.679381206617165 11.423899290792463 -16.328125 9.76171875 C-12.419552190494983 5.125207044765034 -6.482384375807015 0 0 0 Z " fill="#AEDCBF" transform="translate(128,97)"/>
</svg>
