<?xml version="1.0" encoding="UTF-8"?>
<!-- Generator: visioncortex VTracer 0.6.0 -->
<svg version="1.1" xmlns="http://www.w3.org/2000/svg" width="128" height="128">
<path d="M0 0 C42.24 0 84.48 0 128 0 C128 42.24 128 84.48 128 128 C85.75999999999999 128 43.519999999999996 128 0 128 C0 85.75999999999999 0 43.519999999999996 0 0 Z " fill="#48718B" transform="translate(0,0)"/>
<path d="M0 0 C5.6735604487731734 2.576484682802125 10.3188005328889 6.233287074663526 15.0546875 10.23828125 C17.26475409823189 11.994076410422398 19.400367924311652 13.264495404709443 21.88671875 14.578125 C25.630372315046046 16.88482063098797 26.950257181057722 19.127150201091904 28.06640625 23.3515625 C28.717467418541403 28.095008156515945 28.592363983009136 32.80759384821724 28.48828125 37.5859375 C28.45805319528084 40.336690479443966 28.5595362439157 42.808911376657754 28.94921875 45.515625 C30.437637487192617 57.09940560684694 29.525786325298938 68.84102237956759 27.985107421875 80.364501953125 C27.39734284951595 85.19316136179037 27.4489969319593 88.55493127641779 29.44921875 93.140625 C22.645212843856342 101.68880500898761 22.645212843856342 101.68880500898761 18.63671875 103.203125 C17.584843750000005 103.1825 16.53296875000001 103.161875 15.44921875 103.140625 C14.659023437499997 103.1857421875 13.868828124999993 103.230859375 13.0546875 103.27734375 C1.6372309580171986 103.7510293576073 -8.390078983286529 99.94391102671392 -18.98828125 96.140625 C-20.428446044921877 95.62435546875 -20.428446044921877 95.62435546875 -21.897705078125 95.09765625 C-26.381665891532442 93.4497621765344 -30.572079588619182 91.84377687185109 -34.55078125 89.140625 C-34.40640625 88.150625 -34.26203125 87.160625 -34.11328125 86.140625 C-34.023046875 85.4909375 -33.9328125 84.84125 -33.83984375 84.171875 C-33.57702061826154 82.32500974994595 -33.284290856371285 80.48246255075466 -32.98828125 78.640625 C-31.61673212892765 66.89102086281352 -32.09198456242356 57.440614779914256 -37.70703125 46.98828125 C-42.264834514806665 37.98661980200683 -41.51956733871839 29.23554943892882 -38.55078125 19.765625 C-34.45497566558102 9.5204381780323 -26.856571610436845 4.889613897279489 -17.078125 0.47265625 C-11.028049528968275 -1.8120344871227232 -6.134831972756558 -2.0668652894432498 0 0 Z " fill="#ADD2E3" transform="translate(66.55078125,12.859375)"/>
<path d="M0 0 C16.5 0 33 0 50 0 C50 33.660000000000004 50 67.32000000000001 50 102 C46.35279446334094 103.21573517888635 44.746270366667815 102.64828559625082 41.0625 101.6875 C40.02222656250001 101.4232421875 38.98195312499999 101.158984375 37.91015625 100.88671875 C35.4110734277228 100.12525324576252 33.27920977461159 99.25768442984591 31 98 C31.84644549763034 86.87014218009475 31.84644549763034 86.87014218009475 32.5625 82.8125 C34.828134208006475 68.24770866281554 29.184534926983872 49.020512286758695 21.45703125 36.5 C20.48738408718316 35.223754891099695 19.489545831922342 33.968128296477715 18.45703125 32.7421875 C16.82936553845876 30.795970590221465 15.479501948800461 28.769310127396793 14.125 26.625 C13.715078125000005 25.977890625 13.305156249999996 25.33078125 12.8828125 24.6640625 C12 23 12 23 12 21 C11.340000000000003 21 10.680000000000007 21 10 21 C8.372923417996944 18.653427167973568 6.8903265940652005 16.326214537854074 5.4375 13.875 C5.025644531249995 13.20984375 4.613789062500004 12.5446875 4.189453125 11.859375 C3.795644531250005 11.201953125 3.401835937499996 10.54453125 2.99609375 9.8671875 C2.6370092773437506 9.2701904296875 2.277924804687501 8.673193359375 1.907958984375 8.05810546875 C1 6.000000000000001 1 6.000000000000001 0 0 Z " fill="#1F4968" transform="translate(78,0)"/>
<path d="M0 0 C5.6735604487731734 2.576484682802125 10.3188005328889 6.233287074663526 15.0546875 10.23828125 C17.26475409823189 11.994076410422398 19.400367924311652 13.264495404709443 21.88671875 14.578125 C25.708444207756074 16.902042904615314 26.930796292963407 19.307507057180274 28.0625 23.58203125 C28.746235695579927 28.10573711469543 28.679306827256383 32.58147235806808 28.44921875 37.140625 C27.459218750000005 37.635625 27.459218750000005 37.635625 26.44921875 38.140625 C21.32817123527849 36.080986171700424 16.58879359167355 33.763655835110804 13.38671875 29.203125 C12.44921875 26.140624999999986 12.44921875 26.140624999999986 11.82421875 22.640625 C9.618213706988968 17.025339435971905 4.683631985232211 14.757831617616105 -0.55078125 12.140625 C-8.685153907692609 11.091583283045985 -14.802411782280842 13.26523823218632 -21.234375 18.19921875 C-26.405669184936585 22.649984282173293 -30.445084240206732 26.533554125861386 -32.08984375 33.38671875 C-32.35182379180585 40.0672098160491 -30.150633275638896 44.935728756054466 -27.04150390625 50.698974609375 C-23.86184658397987 56.758123130108075 -24.041152123573546 61.744865856685735 -25.55078125 68.265625 C-26.3280087215675 71.64440553611983 -26.649580904938915 74.67028712027063 -26.55078125 78.140625 C-7.357565510792412 87.77596898880368 -7.357565510792412 87.77596898880368 13.44921875 87.203125 C14.439218750000009 86.8525 15.42921874999999 86.501875 16.44921875 86.140625 C19.773653285543134 85.68364079647368 23.10347406011934 85.39188645892385 26.44921875 85.140625 C27.439218749999995 87.780625 28.429218750000004 90.420625 29.44921875 93.140625 C22.645212843856342 101.68880500898761 22.645212843856342 101.68880500898761 18.63671875 103.203125 C17.584843750000005 103.1825 16.53296875000001 103.161875 15.44921875 103.140625 C14.659023437499997 103.1857421875 13.868828124999993 103.230859375 13.0546875 103.27734375 C1.6372309580171986 103.7510293576073 -8.390078983286529 99.94391102671392 -18.98828125 96.140625 C-20.428446044921877 95.62435546875 -20.428446044921877 95.62435546875 -21.897705078125 95.09765625 C-26.381665891532442 93.4497621765344 -30.572079588619182 91.84377687185109 -34.55078125 89.140625 C-34.40640625 88.150625 -34.26203125 87.160625 -34.11328125 86.140625 C-34.023046875 85.4909375 -33.9328125 84.84125 -33.83984375 84.171875 C-33.57702061826154 82.32500974994595 -33.284290856371285 80.48246255075466 -32.98828125 78.640625 C-31.61673212892765 66.89102086281352 -32.09198456242356 57.440614779914256 -37.70703125 46.98828125 C-42.264834514806665 37.98661980200683 -41.51956733871839 29.23554943892882 -38.55078125 19.765625 C-34.45497566558102 9.5204381780323 -26.856571610436845 4.889613897279489 -17.078125 0.47265625 C-11.028049528968275 -1.8120344871227232 -6.134831972756558 -2.0668652894432498 0 0 Z " fill="#7BA096" transform="translate(66.55078125,12.859375)"/>
<path d="M0 0 C7.048660730205428 1.7621651825513567 11.003135076685487 5.692003589744466 15.1875 11.3125 C15.61224609375 11.855839843749997 16.0369921875 12.399179687500002 16.474609375 12.958984375 C23.25659808598015 21.892646020723475 24.128291370149768 30.917575103181377 24.517578125 41.72265625 C24.68269455513176 45.205678304477544 24.980132285630965 47.940608967722454 26.09765625 51.28125 C27.036136276347396 54.10887813133242 27.050450692540082 55.268828199395784 26 58 C31.037520209096655 62.91465386253333 36.4149130388969 66.00582214575633 42.668212890625 69.107421875 C46.36676409276057 70.9758842730047 49.4047304269156 72.72798924709866 52 76 C52 76.99 52 77.98 52 79 C34.84 79 17.68 79 0 79 C0 52.93000000000001 0 26.86 0 0 Z " fill="#22405D" transform="translate(0,49)"/>
<path d="M0 0 C0 0.6599999999999966 0 1.3199999999999932 0 2 C0.8701171875 2.0908789062499977 0.8701171875 2.0908789062499977 1.7578125 2.18359375 C2.5389843749999983 2.267382812500003 3.3201562499999966 2.3511718750000057 4.125 2.4375 C4.890703125000002 2.5187109375000034 5.656406250000003 2.599921875000007 6.4453125 2.68359375 C9.308562178954872 3.0382164166595516 12.15412857334556 3.525688095557598 15 4 C15 12.579999999999998 15 21.159999999999997 15 30 C5.142666533070027 30.112879510121275 -4.7142390155033524 30.204645426947707 -14.57207202911377 30.259060859680176 C-19.149284742528337 30.285175211150772 -23.72603309587086 30.32060616557456 -28.302978515625 30.377197265625 C-32.71854411593375 30.43145245994188 -37.13366260269143 30.461406682997108 -41.54953575134277 30.47438621520996 C-43.235735368838476 30.483637881149946 -44.92191000837674 30.50170428698732 -46.607919692993164 30.528650283813477 C-48.96677491724648 30.564856565505522 -51.32377377171468 30.569949220728176 -53.682861328125 30.567626953125 C-54.73266677856445 30.594591522216803 -54.73266677856445 30.594591522216803 -55.803680419921875 30.622100830078125 C-57.7539825439453 30.601272583007813 -57.7539825439453 30.601272583007813 -61 30 C-62.85380554199219 27.550216674804688 -62.85380554199219 27.550216674804688 -64 25 C-65.61949435743483 23.581956057336015 -65.61949435743483 23.581956057336015 -67.5 22.5625 C-68.1973828125 22.1512890625 -68.894765625 21.740078124999997 -69.61328125 21.31640625 C-71.33037094302532 20.369337139444298 -73.05837026324485 19.441950224834528 -74.79296875 18.52734375 C-79.94502859198886 15.808780459557838 -84.20029102042496 13.454831217432812 -88 9 C-87.3125 6.5625 -87.3125 6.5625 -86 4 C-83.14554449780897 3.01047161451055 -81.58920362475432 2.7795254455494245 -78.7373046875 3.8466796875 C-77.973212890625 4.283994140624998 -77.20912109375 4.7213085937499955 -76.421875 5.171875 C-70.871991591235 8.146349206476714 -65.20244115726564 10.22694810341298 -59.25 12.25 C-58.2483984375 12.600625000000008 -57.246796875 12.951250000000002 -56.21484375 13.3125 C-46.110819328253825 16.792031588945704 -34.21167606741808 19.605265677463052 -24 15 C-22.649807555978498 13.577493525467816 -22.649807555978498 13.577493525467816 -21.375 11.875 C-16.72798544440961 5.893070694023223 -7.83612288734183 -0.8317672338519202 0 0 Z " fill="#415558" transform="translate(113,98)"/>
<path d="M0 0 C16.5 0 33 0 50 0 C50 12.540000000000001 50 25.080000000000002 50 38 C43.91074524303016 37.130106463290026 41.50046495884395 36.458347568467566 36.4375 33.625 C30.30374693628241 30.31566119232001 24.790034111655785 28.828419556768864 17.86328125 27.80078125 C15 27 15 27 13.10546875 25.04296875 C12 23 12 23 12 21 C11.340000000000003 21 10.680000000000007 21 10 21 C8.372923417996944 18.653427167973568 6.8903265940652005 16.326214537854074 5.4375 13.875 C5.025644531249995 13.20984375 4.613789062500004 12.5446875 4.189453125 11.859375 C3.795644531250005 11.201953125 3.401835937499996 10.54453125 2.99609375 9.8671875 C2.6370092773437506 9.2701904296875 2.277924804687501 8.673193359375 1.907958984375 8.05810546875 C1 6.000000000000001 1 6.000000000000001 0 0 Z " fill="#21353C" transform="translate(78,0)"/>
<path d="M0 0 C4.237026004942692 2.422914725613097 7.711369851637102 4.569065842215863 10.31640625 8.7890625 C11.00390625 12.5390625 11.00390625 12.5390625 11.31640625 15.7890625 C10.656406250000003 15.7890625 9.996406250000007 15.7890625 9.31640625 15.7890625 C9.31640625 16.449062499999997 9.31640625 17.1090625 9.31640625 17.7890625 C4.931790865384613 20.7890625 4.931790865384613 20.7890625 2.31640625 20.7890625 C1.8214062499999955 22.2740625 1.8214062499999955 22.2740625 1.31640625 23.7890625 C-8.068807269610595 31.313992625544927 -17.751065760366465 34.066876520937136 -29.68359375 32.7890625 C-33.41907762096774 31.318094758064518 -33.41907762096774 31.318094758064518 -34.68359375 28.7890625 C-35.48770661915315 22.60888073422293 -35.03273777206419 17.84604037859073 -31.359375 12.734375 C-23.67209469193255 3.8106789780475765 -12.257688905899109 -5.531125998295089 0 0 Z " fill="#A9D2C8" transform="translate(68.68359375,25.2109375)"/>
<path d="M0 0 C11.224165800645645 1.2471295334050723 22.654047498060855 2.716834278903079 30.80078125 11.1015625 C34.35629386991405 14.17079719498797 38.527026612420215 16.092380948403033 42.722900390625 18.159423828125 C46.411244092876004 20.009084996265628 49.41479118709513 21.742375763536543 52 25 C52 25.989999999999995 52 26.980000000000004 52 28 C34.84 28 17.68 28 0 28 C0 18.75999999999999 0 9.519999999999996 0 0 Z " fill="#2A2519" transform="translate(0,100)"/>
<path d="M0 0 C12.892116380715123 9.282323794114888 15.824088841750708 25.94639566255092 19.66796875 40.53515625 C20.900348176557785 49.68376116950546 20.695142003656684 61.432373067922214 17 70 C13.832217077119978 73.83579486000234 9.489741593770091 76.00919985144458 5 78 C2.7336561807755544 76.22633961973739 2.030751966008282 75.11125449482579 1.25390625 72.30078125 C0.9601970810013398 68.4825620530175 1.376471875264997 64.95097271223017 1.9375 61.1875 C3.545213064349113 49.06271919813217 3.332186145048695 37.155344249650085 2.2109375 24.98828125 C2.0048065326818545 22.068092546326206 2.0350219098517925 19.236787929816835 2.125 16.3125 C2.205753725533171 10.821246663744674 0.8689227705077656 6.12841307859572 -1 1 C-0.6700000000000017 0.6700000000000017 -0.3400000000000034 0.33999999999999986 0 0 Z " fill="#4B799E" transform="translate(92,28)"/>
<path d="M0 0 C8.980477223427329 3.1431670281995636 8.980477223427329 3.1431670281995636 12 6 C16.141300884257532 17.603456251174407 14.460629828983528 32.366552037864096 13.125 44.4375 C13.046689453124998 45.16541748046875 12.968378906249995 45.893334960937494 12.8876953125 46.643310546875 C12.249704080062912 51.75029591993709 12.249704080062912 51.75029591993709 10 54 C6.374999999999986 54.125 6.374999999999986 54.125 3 54 C2.529492187499997 53.03578125 2.0589843749999943 52.0715625 1.57421875 51.078125 C0.9455282114150663 49.80197704108133 0.31660992795305276 48.52594126232731 -0.3125 47.25 C-0.6212304687499994 46.61578125 -0.9299609374999989 45.981562499999995 -1.248046875 45.328125 C-2.916425107344395 41.95624478305132 -4.689807300550811 38.96161331528225 -7 36 C-9.227044294098349 30.72542140871444 -10.19120477786845 25.999368205628926 -8.01953125 20.53125 C-7.15510510786882 18.680048169466758 -6.274189021186601 16.83647747935712 -5.37890625 15 C-3.149610988469007 10.149861867264008 -1.5897256603005019 5.088898342749658 0 0 Z " fill="#88B8E0" transform="translate(82,45)"/>
<path d="M0 0 C12.540000000000001 0 25.080000000000002 0 38 0 C34.62054146970348 15.20756338633433 34.62054146970348 15.20756338633433 30 20 C20.747550886479765 25.62609929384954 10.482432006476458 28.670570665227455 0 31 C0 20.77 0 10.54 0 0 Z " fill="#273E4B" transform="translate(0,0)"/>
<path d="M0 0 C10.695715620253381 5.32623839229818 23.126724131186506 10.68696120900421 35.125 6.9375 C36.11500000000001 6.586874999999992 37.10499999999999 6.236249999999998 38.125 5.875 C41.449434535543105 5.418015796473682 44.77925531011934 5.1262614589238495 48.125 4.875 C49.11500000000001 7.515000000000001 50.10499999999999 10.155000000000001 51.125 12.875 C44.320994093856314 21.423180008987615 44.320994093856314 21.423180008987615 40.3125 22.9375 C39.260625000000005 22.916875000000005 38.20875000000001 22.896249999999995 37.125 22.875 C35.939707031249995 22.942675781250003 35.939707031249995 22.942675781250003 34.73046875 23.01171875 C23.3130122080172 23.485404357607294 13.285702266713471 19.678286026713906 2.6875 15.875 C1.7273901367187534 15.530820312499998 0.7672802734374997 15.186640624999995 -0.221923828125 14.83203125 C-4.705884641532435 13.18413717653442 -8.896298338619175 11.578151871851091 -12.875 8.875 C-11.639789591380364 -0.47730737954869085 -11.639789591380364 -0.47730737954869085 -9.2421875 -2.5078125 C-5.608277048256966 -3.45526770028944 -3.1470649999726135 -1.6784077237557824 0 0 Z " fill="#8CA09B" transform="translate(44.875,93.125)"/>
<path d="M0 0 C13.200000000000003 0 26.400000000000006 0 40 0 C41.31999999999999 3.3000000000000003 42.64 6.6000000000000005 44 10 C45.59862684906332 12.801628991736585 45.59862684906332 12.801628991736585 47.25 15 C50 18.811881188118804 50 18.811881188118804 50 21 C50.66 21 51.31999999999999 21 52 21 C53.6875 23.31249999999999 53.6875 23.31249999999999 55 26 C54.504999999999995 27.485 54.504999999999995 27.485 54 29 C47.44631360277988 27.127518172222825 42.807368299493234 23.65117385416914 37.5625 19.4375 C31.39633502288882 14.656413678313127 25.979911100132824 12.249636188118245 18.109375 12.4453125 C9.60885082328786 13.961737667202417 2.024204008415815 19.196762160659688 -5 24 C-6.5625 22.8125 -6.5625 22.8125 -8 21 C-7.499233662719735 16.45516612074426 -5.589050550259984 13.310381500426844 -3.25390625 9.4765625 C-1.5790156659284875 6.3623406178107285 -1.5790156659284875 6.3623406178107285 0 0 Z " fill="#51695E" transform="translate(38,0)"/>
<path d="M0 0 C5.811769919352045 2.7924304048456747 11.706036239574658 4.9889572970196525 17.80078125 7.078125 C18.797871093750004 7.428750000000008 19.7949609375 7.779375000000002 20.822265625 8.140625 C28.523497997259 10.805056692331789 35.2447865537885 11.986050344530511 43.36328125 11.890625 C44.0993359375 11.886113281250005 44.835390625 11.881601562499995 45.59375 11.876953125 C47.39196283141851 11.865276418302471 49.19013322496227 11.84734510953129 50.98828125 11.828125 C51.83212799773804 13.238554564076424 52.662976212653646 14.656766324570171 53.48828125 16.078125 C54.18437499999999 17.26148437500001 54.18437499999999 17.26148437500001 54.89453125 18.46875 C55.98828125 20.828125 55.98828125 20.828125 55.98828125 24.828125 C50.346679892760406 24.951635976160503 44.70586349425352 25.04242129606061 39.063232421875 25.102783203125 C37.1434966526667 25.12794250338942 35.22385680855601 25.162073854432663 33.304443359375 25.205322265625 C30.546471790943514 25.265913525205434 27.78976515526432 25.294319516165103 25.03125 25.31640625 C24.171782684326175 25.342212677001953 23.312315368652342 25.368019104003906 22.426803588867188 25.394607543945313 C20.170251685145807 25.39567198869375 18.18117624050855 25.361807517284717 15.98828125 24.828125 C14.026611328125 22.38330078125 14.026611328125 22.38330078125 12.98828125 19.828125 C11.368786892565169 18.41008105733603 11.368786892565169 18.41008105733603 9.48828125 17.390625 C8.790898437500005 16.9794140625 8.093515624999995 16.568203124999997 7.375 16.14453125 C5.657910306974692 15.197462139444298 3.9299109867551465 14.270075224834528 2.1953125 13.35546875 C-2.9567473419888657 10.636905459557838 -7.212009770424952 8.282956217432812 -11.01171875 3.828125 C-10.26171875 1.390625 -10.26171875 1.390625 -9.01171875 -1.171875 C-5.4124862677387 -2.794989938742816 -3.387816800985611 -1.706959026803105 0 0 Z " fill="#615F4E" transform="translate(36.01171875,103.171875)"/>
<path d="M0 0 C1.5460455532747517 2.8121487018413163 2.308275570991391 5.21667115895707 2.8125 8.375 C3.617039978041877 12.229307801782014 4.832253770299332 14.239148047751826 7.55859375 17.14453125 C12.509879797847688 23.51813795115895 15.52554396317953 30.950879300776705 15 39 C14.321840442751764 43.97797972873704 13.541021881408973 49.623795648684535 11 54 C8.929687500000028 54.62109375 8.929687500000028 54.62109375 7 55 C7.020947265624997 54.446508789062506 7.041894531250001 53.893017578125 7.0634765625 53.32275390625 C7.731472726605773 38.647809116774184 7.731472726605773 38.647809116774184 3 25 C-1.0056552428943277 17.611189991147626 -1.7104525849628267 11.408963382674784 -1 3 C-0.6700000000000017 2.009999999999998 -0.33999999999999986 1.0200000000000031 0 0 Z " fill="#76A0B3" transform="translate(27,37)"/>
<path d="M0 0 C3.8335830710229857 0.5324420931976377 6.319993220198057 1.1413261015445926 9 4 C12.264428754922974 10.473055308907085 12.358983627137661 16.88680590671659 12 24 C11.340000000000003 24.33 10.680000000000007 24.659999999999997 10 25 C4.831648951109912 22.92133611961698 0.123429789497564 20.586018526349505 -3.125 16 C-3.413749999999993 15.009999999999998 -3.7025000000000006 14.019999999999996 -4 13 C-4.329999999999998 12.030625 -4.659999999999997 11.061250000000001 -5 10.0625 C-5 5.634057014159627 -2.7994999151226097 3.274155610074196 0 0 Z " fill="#76A0B3" transform="translate(83,26)"/>
</svg>
