<?xml version="1.0" encoding="UTF-8"?>
<!-- Generator: visioncortex VTracer 0.6.0 -->
<svg version="1.1" xmlns="http://www.w3.org/2000/svg" width="128" height="128">
<path d="M0 0 C42.24 0 84.48 0 128 0 C128 42.24 128 84.48 128 128 C85.75999999999999 128 43.519999999999996 128 0 128 C0 85.75999999999999 0 43.519999999999996 0 0 Z " fill="#4D7F83" transform="translate(0,0)"/>
<path d="M0 0 C42.24 0 84.48 0 128 0 C128 13.530000000000001 128 27.060000000000002 128 41 C121.38689320531807 40.05527045790258 119.99764490963852 39.77377152164057 115.1875 35.9375 C114.15109375 35.1266796875 113.1146875 34.315859375 112.046875 33.48046875 C110.14917176829009 31.935543683159242 108.2617497547953 30.37779208375712 106.390625 28.80078125 C100.59752351672674 23.957822207454683 95.01332313136439 20.773852907496156 88 18 C87.0912109375 17.595234375 86.182421875 17.19046875 85.24609375 16.7734375 C77.36329539631957 13.476790677834929 70.94779182496106 13.059812596557148 62.921875 16.20703125 C56.729558442842524 19.15538297759131 51.33844051107104 22.729247591143167 46 27 C41.716722510810875 30.16590075287892 37.53915805824553 32.08850736370673 32.5625 33.875 C26.909072545787893 36.356992540873605 23.963532673013923 38.4371539613621 21.4453125 44.1484375 C20.642963313839097 46.21295392751369 19.870692912061823 48.28935037053016 19.125 50.375 C18.7344140625 51.45974609375 18.343828125 52.5444921875 17.94140625 53.662109375 C13.575515285415634 66.38708425958126 13.478448040887438 75.2771986649548 19.33203125 87.498046875 C19.6426953125 88.12775390625 19.953359375 88.7574609375 20.2734375 89.40625 C26.023982114564255 101.37570937873103 26.15605309173864 115.06368144956815 24 128 C16.08 128 8.16 128 0 128 C0 85.75999999999999 0 43.519999999999996 0 0 Z " fill="#ACD2B9" transform="translate(0,0)"/>
<path d="M0 0 C9.021210328504509 6.52538861474514 13.46367402548195 14.217821297753673 16 25 C16.270297419732756 28.08906354396521 16.28725842687875 31.15071985746937 16.25 34.25 C16.240332031250006 35.0890185546875 16.230664062499997 35.928037109375 16.220703125 36.79248046875 C16.02011942255146 47.17669874451063 15.724609551764587 54.48600476800689 8.078125 62.1875 C2.299088186803573 67.22786293481794 -3.7809593785676725 68.20102787038188 -11.23828125 67.845703125 C-14.999409480369025 67.53397364545154 -18.747725794884303 67.15432360518366 -22.5 66.75 C-23.780039062499995 66.6275390625 -25.060078125000004 66.505078125 -26.37890625 66.37890625 C-33.932986510717875 65.58990717416494 -40.18387674949382 64.4080616252531 -47 61 C-47.77069097705276 58.967120781283484 -48.44318976279039 56.89649072216922 -49.0625 54.8125 C-49.4041015625 53.6845703125 -49.745703125 52.556640625 -50.09765625 51.39453125 C-53.26986117853738 39.46099842359746 -52.76283464200612 29.482512417175172 -46.64453125 18.5859375 C-43.313814923614984 13.38894848671292 -39.494325585947855 8.251076005265112 -35 4 C-34.34 4 -33.68 4 -33 4 C-32.67 3.009999999999998 -32.34 2.019999999999996 -32 1 C-30.07421875 -0.5703125 -30.07421875 -0.5703125 -27.6875 -2.125 C-26.9076171875 -2.6432031249999994 -26.127734375000003 -3.161406249999999 -25.32421875 -3.6953125 C-16.058023378171484 -8.896840658303738 -8.169822665344753 -5.438800863984845 0 0 Z " fill="#255A68" transform="translate(86,37)"/>
<path d="M0 0 C0.7965600585937409 0.3165454101562517 1.5931201171875102 0.6330908203124999 2.413818359375 0.959228515625 C11.980700307463081 4.8793498698228035 19.59836631431665 10.08603962767992 27.18359375 17.07421875 C31.97870944358725 21.271044779066273 36.04139521316144 23.683279042632286 42.3125 24.9375 C42.3125 53.64750000000001 42.3125 82.3575 42.3125 111.9375 C32.412499999999994 111.9375 22.512500000000003 111.9375 12.3125 111.9375 C13.434170503123966 105.20747698125618 13.434170503123966 105.20747698125618 15.0546875 101.87109375 C15.397336425781248 101.145029296875 15.739985351562495 100.41896484375 16.093017578125 99.6708984375 C16.454196777343753 98.913251953125 16.815375976562507 98.15560546875 17.1875 97.375 C20.585967020617332 89.98657246982775 22.834071099980775 82.95475202158079 24.3125 74.9375 C24.85114676087572 72.52015843899675 25.392867520533997 70.10350000369749 25.9375 67.6875 C28.976361729790383 53.12025805719533 28.437654514659997 40.49886279126126 21.3125 26.9375 C13.940188581322474 17.54560215705225 2.063938474502905 15.456633304281652 -8.953125 12.8671875 C-12.6875 11.9375 -12.6875 11.9375 -15.5546875 10.828125 C-19.92220203783225 9.586487450591331 -24.04875616712063 9.724128509296037 -28.5625 9.8125 C-29.441640624999998 9.821523437499998 -30.320781249999996 9.830546875 -31.2265625 9.83984375 C-33.38032710244948 9.863254234809233 -35.533950144120055 9.899119903558578 -37.6875 9.9375 C-26.900997704290575 -1.1646142389573768 -14.75237928167968 -5.91804241010194 0 0 Z " fill="#80ACAB" transform="translate(85.6875,16.0625)"/>
<path d="M0 0 C-0.37511718749999545 0.4756640625000017 -0.7502343750000051 0.9513281250000034 -1.13671875 1.44140625 C-10.244291235716865 13.89836307555229 -13.755067927040109 29.952499822860254 -11.5390625 45.1640625 C-9.412411286198257 55.04673578766693 -4.838287667594294 60.90355403631554 3 67 C4.874999999999993 68.68749999999999 4.874999999999993 68.68749999999999 6 70 C6 70.66 6 71.32 6 72 C6.763125000000002 72.28875 7.526249999999997 72.5775 8.3125 72.875 C11.000000000000014 74.00000000000001 11.000000000000014 74.00000000000001 14 76 C14 76.66 14 77.32 14 78 C14.763125000000002 78.268125 15.526249999999997 78.53625 16.3125 78.8125 C18.889886176228707 79.95134505461269 20.269548642066873 80.81416670576868 22 83 C22 83.66 22 84.32 22 85 C22.659999999999997 85 23.32 85 24 85 C25.2890625 86.64453125 25.2890625 86.64453125 26.625 88.8125 C27.071015625 89.5201953125 27.517031250000002 90.227890625 27.9765625 90.95703125 C29 92.99999999999999 29 92.99999999999999 29 96 C14.479999999999997 96 -0.04000000000000625 96 -15 96 C-15 89.07 -15 82.14 -15 75 C-16.037905098424616 64.39030343832616 -20.248454763436314 54.50309047312737 -25 45 C-26.305947216827548 33.59362557454418 -23.434485901499446 25.277443751862236 -19 15 C-18.6558203125 14.064140625 -18.311640625 13.12828125 -17.95703125 12.1640625 C-15.397990062447558 5.436801386870876 -11.537926647656448 2.768963323828224 -5.25 -0.375 C-3 -1 -3 -1 0 0 Z " fill="#71A7AA" transform="translate(39,32)"/>
<path d="M0 0 C18.150000000000006 0 36.30000000000001 0 55 0 C55 13.530000000000001 55 27.060000000000002 55 41 C48.386893205318074 40.05527045790258 46.997644909638495 39.773771521640555 42.1875 35.9375 C41.15109375 35.1266796875 40.1146875 34.315859375 39.046875 33.48046875 C37.1491717682901 31.935543683159242 35.26174975479532 30.37779208375712 33.390625 28.80078125 C25.15719693019591 21.917740268077797 16.44435083938818 18.320382688519956 6.3125 14.9921875 C4 14 4 14 1 11 C0.6700000000000017 7.369999999999999 0.3400000000000034 3.7399999999999993 0 0 Z " fill="#92D3D5" transform="translate(73,0)"/>
<path d="M0 0 C9.707105121176951 2.103206109588342 17.968833771000206 6.635697941928001 25.75 12.8125 C25.75 13.472499999999997 25.75 14.1325 25.75 14.8125 C26.74000000000001 15.142499999999998 27.72999999999999 15.472499999999997 28.75 15.8125 C28.75 16.472499999999997 28.75 17.132499999999993 28.75 17.8125 C29.74000000000001 18.1425 30.72999999999999 18.472499999999997 31.75 18.8125 C33.4375 21.375 33.4375 21.375 34.75 23.8125 C33.099999999999994 24.472499999999997 31.450000000000003 25.132499999999993 29.75 25.8125 C29.75 26.472499999999997 29.75 27.132499999999993 29.75 27.8125 C29.028125000000003 28.204375 28.306250000000006 28.596249999999998 27.5625 29 C24.84109481487141 30.75379445263843 24.13000536217119 31.569268390380074 22.5 34.1875 C19.08033177797512 39.23151062748671 14.270406495920142 41.911793990174274 8.4140625 43.41015625 C3.462154221560084 44.14533717188442 -0.6398889777048424 43.946810658469985 -5.25 41.8125 C-9.310417632431161 38.04443243710389 -12.840105829902 34.41419303561521 -13.48828125 28.71875 C-13.787664447011466 19.012431612680842 -10.526635370545108 10.315118545546568 -4.87109375 2.4453125 C-3.25 0.8125 -3.25 0.8125 0 0 Z " fill="#0E505C" transform="translate(47.25,48.1875)"/>
<path d="M0 0 C1.5155545828821033 3.9384477647265044 0.507982971814485 7.37976043892813 -0.5 11.3125 C-0.6757958984374994 12.011655273437498 -0.8515917968749989 12.710810546874995 -1.03271484375 13.43115234375 C-2.7714588022947027 19.89951228309802 -5.420286268191603 25.72083329503738 -8.4140625 31.6953125 C-10.262874825198452 35.37075160045103 -10.262874825198452 35.37075160045103 -12 41 C-21.900000000000006 41 -31.799999999999997 41 -42 41 C-46 33 -46 33 -47 30 C-47.66 30 -48.32 30 -49 30 C-50.688169328879056 28.35511706416912 -52.353533149980976 26.686624578068276 -54 25 C-54.99 24.340000000000003 -55.980000000000004 23.680000000000007 -57 23 C-57 22.340000000000003 -57 21.680000000000007 -57 21 C-58.1446875 20.566874999999996 -58.1446875 20.566874999999996 -59.3125 20.125 C-61.99999999999999 19 -61.99999999999999 19 -65 17 C-65 16.340000000000003 -65 15.680000000000007 -65 15 C-65.99000000000001 14.670000000000002 -66.97999999999999 14.340000000000003 -68 14 C-64.93300253014833 12.977667510049443 -63.89532048752592 13.00163034688262 -60.82421875 13.5234375 C-60.0029248046875 13.657258300781251 -59.181630859375 13.791079101562502 -58.33544921875 13.928955078125 C-57.4616259765625 14.076149902343758 -56.587802734375 14.223344726562502 -55.6875 14.375 C-36.86710042757521 18.228566858950217 -36.86710042757521 18.228566858950217 -19.0078125 13.73828125 C-16.066746364830934 11.33367567596693 -13.90312129550773 8.869978580813012 -11.625 5.8125 C-8.189089006974768 2.1311667931872478 -4.793448851170524 1.19052978002928 0 0 Z " fill="#4E93A0" transform="translate(110,87)"/>
<path d="M0 0 C0.6599999999999966 0 1.3199999999999932 0 2 0 C2.6761679525727544 19.421046193339777 2.6761679525727544 19.421046193339777 -3.75 27 C-9.217299898536083 32.5066329913313 -14.263329558226133 34.666421924976476 -22 35 C-26.85462347127519 34.76868802519256 -31.66885970817188 34.270576043530326 -36.5 33.75 C-38.42005859375 33.566308593749994 -38.42005859375 33.566308593749994 -40.37890625 33.37890625 C-47.932986510717875 32.589907174164935 -54.18387674949382 31.408061625253083 -61 28 C-62.10546875 25.1640625 -62.10546875 25.1640625 -63.1875 21.625 C-63.5523046875 20.462265625 -63.917109375 19.29953125 -64.29296875 18.1015625 C-65 15 -65 15 -64 12 C-63.5243359375 12.723164062500004 -63.5243359375 12.723164062500004 -63.0390625 13.4609375 C-60.16831011550314 17.346762550838292 -57.90831706491831 19.462632341554283 -53.125 20.5625 C-46.13832275857166 21.529077904077297 -40.91857377579265 19.829665384336423 -35 16 C-34.34 16 -33.68000000000001 16 -33 16 C-32.7525 15.443124999999995 -32.504999999999995 14.886250000000004 -32.25 14.3125 C-30.358612827690706 10.813433731227818 -28.609908937524096 7.581356005217032 -24.75 6.1875 C-23.883749999999992 6.094687500000006 -23.883749999999992 6.094687500000006 -23 6 C-23 5.340000000000003 -23 4.680000000000007 -23 4 C-20.547928659569294 2.4322822577574073 -19.379510294867146 1.9482750134101394 -16.44921875 2.34765625 C-15.537851562500009 2.5835546874999977 -14.62648437499999 2.8194531249999955 -13.6875 3.0625 C-8.289636979031457 4.204216676456525 -5.7251387810068195 3.7734510236344363 -1 1 C-0.6700000000000017 0.6700000000000017 -0.3400000000000034 0.3400000000000034 0 0 Z " fill="#206670" transform="translate(100,70)"/>
<path d="M0 0 C1.4521289062499996 0.23976562500000398 1.4521289062499996 0.23976562500000398 2.93359375 0.484375 C5.817488122892975 1.3242610283611072 6.63972751331276 2.022572007820756 8.5625 4.25 C16.340354395154343 20.013580177261588 19.483510266018953 35.72393840388628 16.5625 53.25 C8.642499999999998 53.25 0.7225000000000001 53.25 -7.4375 53.25 C-7.4375 35.75999999999999 -7.4375 18.269999999999996 -7.4375 0.25 C-4.681142610659117 -1.1281786946704386 -3.0129300836042052 -0.5281630425441648 0 0 Z " fill="#B8DFD5" transform="translate(7.4375,74.75)"/>
<path d="M0 0 C16.830000000000002 0 33.660000000000004 0 51 0 C46.63996307554692 13.08011077335923 27.692574716362508 22.053789191134598 15.7265625 28.16015625 C14.8719140625 28.575878906249997 14.8719140625 28.575878906249997 14 29 C14 29.66 14 30.32 14 31 C13.34 31 12.68 31 12 31 C12 31.66 12 32.32 12 33 C11.34 33 10.68 33 10 33 C10 33.66 10 34.32 10 35 C8.712119920820506 35.5301273814297 7.419533218496626 36.048832904404364 6.125 36.5625 C5.0460546875 36.99755859375 5.0460546875 36.99755859375 3.9453125 37.44140625 C1.9999999999999978 38 1.9999999999999978 38 0 37 C0 24.79 0 12.579999999999998 0 0 Z " fill="#CCEFCA" transform="translate(0,0)"/>
<path d="M0 0 C0 14.189999999999998 0 28.379999999999995 0 43 C-9.900000000000006 43 -19.799999999999997 43 -30 43 C-28.878299415675997 36.26979649405601 -28.878299415675997 36.26979649405601 -27.29296875 33.00390625 C-26.955798339843753 32.287268066406256 -26.618627929687506 31.570629882812497 -26.271240234375 30.832275390625 C-25.91360595703125 30.083249511718748 -25.555971679687502 29.334223632812495 -25.1875 28.5625 C-21.849427777314517 21.431531274232313 -19.688025564123052 14.679288153503336 -18.27734375 6.94140625 C-17 4 -17 4 -13.578125 2.1328125 C-8.896260393367427 0.6505627882931861 -4.907813676423601 0 0 0 Z " fill="#87B8BC" transform="translate(128,85)"/>
<path d="M0 0 C7.259999999999998 0 14.52000000000001 0 22 0 C23.434451144781946 2.868902289563907 23.430731176405118 5.738042940456242 23.71875 8.90625 C23.89215500202178 11.054439328052915 23.89215500202178 11.054439328052915 25 13 C24.165976562499992 13.1585546875 23.331953125 13.317109375 22.47265625 13.48046875 C11.328845254932801 15.790926699721837 3.8840396296417197 20.132466153531773 -5 27 C-9.324012716114048 30.196009398866906 -13.601060630542122 32.14568480291111 -18.5859375 34.05078125 C-21.50048782469069 35.19679375631042 -24.230649024761743 36.54244685513776 -27 38 C-26.19746412553105 24.49525838824659 -26.19746412553105 24.49525838824659 -23 20 C-20.418289540169134 17.998741220735134 -17.75036074349358 16.3647662163623 -14.9296875 14.71875 C-12.152998290560305 13.089758997128712 -9.577243775190126 11.364095346699505 -7 9.4375 C-6.298749999999998 8.9205859375 -5.597499999999997 8.403671875 -4.875 7.87109375 C-2.4060432303358112 5.605128550136847 -2.4060432303358112 5.605128550136847 0 0 Z " fill="#9BC0AE" transform="translate(51,0)"/>
<path d="M0 0 C0.7922094726562534 0.31364501953125057 1.5844189453125068 0.6272900390625011 2.400634765625 0.950439453125 C19.47562629366439 7.928309144308496 19.47562629366439 7.928309144308496 23.3125 14.9375 C23.38671875 17.953124999999986 23.38671875 17.953124999999986 23 21.1875 C22.88011718749999 22.265156250000004 22.76023437500001 23.3428125 22.63671875 24.453125 C22.529726562500002 25.272968750000004 22.422734375000005 26.0928125 22.3125 26.9375 C21.585468750000004 26.357421875 21.585468750000004 26.357421875 20.84375 25.765625 C12.761228574081898 19.486127584479007 5.6152896203897456 16.522245777989284 -4.345458984375 14.41943359375 C-7.935159754955407 13.650890091988387 -11.211453555418103 12.766704649935747 -14.59375 11.328125 C-19.278996320893725 9.490377520683928 -23.714806522605514 9.601048352059614 -28.6875 9.75 C-29.99267578125 9.770302734375 -29.99267578125 9.770302734375 -31.32421875 9.791015625 C-33.44558626867228 9.82598322146163 -35.566629737141255 9.879774700506871 -37.6875 9.9375 C-26.899829782006826 -1.1658163345265375 -14.753566918998828 -5.916041956664616 0 0 Z " fill="#70A2A4" transform="translate(85.6875,16.0625)"/>
<path d="M0 0 C-0.37511718749999545 0.4756640625000017 -0.7502343750000051 0.9513281250000034 -1.13671875 1.44140625 C-9.745659097684495 13.21635488675738 -12.819466815306107 27.58483374893349 -12 42 C-11.690595175715046 43.57197612338322 -11.340142013467869 45.136784137319694 -10.9375 46.6875 C-9.068512225055422 54.07000171103108 -10.721253614134568 60.29995303757934 -14 67 C-14.66 67 -15.32 67 -16 67 C-16.398320312499997 65.914609375 -16.796640625000002 64.82921875 -17.20703125 63.7109375 C-17.74200903198488 62.26555893112857 -18.27717530615181 60.82025011908897 -18.8125 59.375 C-19.07353515625 58.66214843750001 -19.3345703125 57.949296875 -19.603515625 57.21484375 C-20.80970582536274 53.96855407494965 -22.032049347691157 50.93981343156591 -23.6640625 47.875 C-27.074131251275784 40.53637251187433 -25.68171408081303 32.15913119510546 -23.05078125 24.760498046875 C-21.77991460417233 21.470580763422944 -20.397305871237943 18.238421051454687 -19 15 C-18.6558203125 14.064140625 -18.311640625 13.12828125 -17.95703125 12.1640625 C-15.397990062447558 5.436801386870876 -11.537926647656448 2.768963323828224 -5.25 -0.375 C-3 -1 -3 -1 0 0 Z " fill="#7BAEA5" transform="translate(39,32)"/>
</svg>
