<?xml version="1.0" encoding="UTF-8"?>
<!-- Generator: visioncortex VTracer 0.6.0 -->
<svg version="1.1" xmlns="http://www.w3.org/2000/svg" width="128" height="128">
<path d="M0 0 C42.24 0 84.48 0 128 0 C128 42.24 128 84.48 128 128 C85.75999999999999 128 43.519999999999996 128 0 128 C0 85.75999999999999 0 43.519999999999996 0 0 Z " fill="#88A89E" transform="translate(0,0)"/>
<path d="M0 0 C11.880000000000003 0 23.760000000000005 0 36 0 C38.474999999999994 4.455 38.474999999999994 4.455 41 9 C42.690203359105624 11.104130712355985 44.463719249210925 12.960800140599353 46.3515625 14.8828125 C51.269708224922695 21.19948307561161 51.278128871295095 26.62881735193292 50.9375 34.3125 C50.708837598303944 45.69949505098453 52.38221989176439 52.77746210944351 60.21875 61.30859375 C61.97314567856894 63.075933853111096 61.97314567856894 63.075933853111096 64.1875 64.4296875 C66 66 66 66 66.53125 68.13671875 C66.37765833896115 80.6736380822959 63.33685674738793 97.79441901946394 54.03515625 106.9296875 C45.644946196089506 113.02889987192047 33.39511639902969 117.11947407374166 23 116 C20.567368564493037 114.76897925629785 18.622000496266473 113.31012013780557 16.48828125 111.6171875 C13.36837854516321 109.58949563217828 10.412090244141751 108.84964747547885 6.8125 107.9375 C-2.407354149548084 105.49080731306489 -2.407354149548084 105.49080731306489 -6 101 C-8.11185290117838 96.0130998323659 -8.029641154148557 91.08511981812525 -7.875 85.75 C-7.740935756315366 78.6027000085631 -9.599452241802979 72.66721475908004 -12 66 C-15.904876437901848 54.98768659239191 -15.832192649238564 43.646920152944126 -11.75 32.625 C-9.854971399873172 29.782457099809758 -7.707205106973383 27.350629074438 -5.4296875 24.8125 C-3.271457349832289 22.07638308831197 -2.1970914693721966 19.258748999957657 -1 16 C-2.980000000000004 15.34 -4.960000000000001 14.68 -7 14 C-6.578476562500001 13.32453125 -6.156953125000001 12.6490625 -5.72265625 11.953125 C-5.1748046875 11.06109375 -4.626953125 10.169062499999999 -4.0625 9.25 C-3.5172265624999994 8.36828125 -2.971953124999999 7.4865625 -2.41015625 6.578125 C-0.7890217295643112 3.8722490744128013 -0.7890217295643112 3.8722490744128013 0 0 Z " fill="#3C7980" transform="translate(40,0)"/>
<path d="M0 0 C8.276988738315751 4.228771513835259 14.446889022754945 8.545593757413947 17.46484375 17.55078125 C19.95011904212045 28.28407172728238 21.65495323737659 38.10116126311388 17.46484375 48.55078125 C15.626712265016394 54.29750459152868 14.855711819172697 59.803292046159356 14.25390625 65.765625 C13.741029277242035 70.3903604612486 13.276399986259747 74.56358936756547 10.0546875 78.09765625 C5.370652980702786 81.50825348863721 1.2865259479481495 82.8731545313196 -4.53515625 82.55078125 C-10.985913318832203 81.4399258031014 -16.20280543168917 79.53298469105745 -20.53515625 74.55078125 C-22.67392579071171 69.58800532543593 -22.564288691661332 64.61835048731591 -22.41015625 59.30078125 C-22.276092006315366 52.15348125856309 -24.134608491802982 46.21799600908004 -26.53515625 39.55078125 C-30.439085410670145 28.541139300484197 -30.419219469620728 17.10428015853047 -26.22265625 6.11328125 C-19.12292532505245 -4.667791636031474 -11.890755493291493 -4.874552804432206 0 0 Z " fill="#297B9C" transform="translate(54.53515625,26.44921875)"/>
<path d="M0 0 C13.200000000000001 0 26.400000000000002 0 40 0 C38.91785492389402 6.492870456635878 37.835140026573576 8.08315381208516 34 13 C35.98 13.66 37.96 14.32 40 15 C38.18624730498891 19.70508787352876 36.42762364491422 23.800991149405128 32.9375 27.5 C27.10759316586021 33.91878631233573 26 42.57311505083569 26 51 C26.59594833950193 58.635588099868485 28.266041492399157 65.55440600922807 31.09765625 72.66015625 C33.36864151287716 78.54898816542605 32.99854260269788 83.89765463727177 32.83984375 90.17578125 C33.06008085065753 95.4346134827737 33.49225522908501 99.41205603914273 37.203125 103.3203125 C40.37325143965298 105.22415938414913 43.15332702476517 106.03577630577854 46.75 106.875 C53.1163919731313 108.55036630871876 57.861430102099774 110.92176992230141 63 115 C60.68994131402401 117.31005868597599 59.169163434132855 117.72174102796137 56.0625 118.625 C54.74958984375 119.01558593749999 54.74958984375 119.01558593749999 53.41015625 119.4140625 C50.99999999999998 120 50.99999999999998 120 48 120 C48 120.66 48 121.32 48 122 C44.152434559633775 123.92378272018311 42.23123693065496 124.4027410520834 38.07421875 123.04296875 C30.251301967927034 119.35070790267042 24.772758017597024 115.3034603487497 21.125 107.375 C19.037710126253685 101.12540855448897 18.923170449296524 93.23048865211042 21 87 C21.825614205450766 79.62361078736612 20.565986028911272 73.50676671509135 17 67 C12.032228381145902 61.01319830548352 7.4800329552430895 59.1371522729266 0 57 C0 38.19 0 19.379999999999995 0 0 Z " fill="#7CA9B6" transform="translate(0,0)"/>
<path d="M0 0 C17.159999999999997 0 34.31999999999999 0 52 0 C52 20.130000000000003 52 40.260000000000005 52 61 C34.000000000000014 66 34.000000000000014 66 29 66 C21.81057036006591 61.21443204244757 16.9336912184269 55.31975226393167 14.407470703125 47.0634765625 C13.947312221928414 44.73318328324681 13.952814045300713 42.66976575780685 14.04296875 40.296875 C14.064238281249999 39.3983984375 14.085507812499998 38.499921875 14.107421875 37.57421875 C14.160375149830543 35.70664715475704 14.225282722954347 33.839372338286864 14.302734375 31.97265625 C14.500742455921767 21.690903307321626 10.393220098626742 16.075215585211904 3.8046875 8.4921875 C2 6.000000000000002 2 6.000000000000002 0 0 Z " fill="#93C1AD" transform="translate(76,0)"/>
<path d="M0 0 C11.880000000000003 0 23.760000000000005 0 36 0 C38.474999999999994 4.455 38.474999999999994 4.455 41 9 C42.690203359105624 11.104130712355975 44.463719249210925 12.960800140599357 46.3515625 14.8828125 C51.26970822492268 21.199483075611596 51.278128871295095 26.62881735193293 50.9375 34.3125 C50.708837598303944 45.69949505098453 52.38221989176441 52.77746210944351 60.21875 61.30859375 C61.97314567856894 63.075933853111096 61.97314567856894 63.075933853111096 64.1875 64.4296875 C66 66 66 66 66.53125 68.13671875 C66.45805121404793 74.1115696533383 65.59023991953666 79.65053864961826 64.1875 85.4375 C64.0225 86.12352294921875 63.8575 86.8095458984375 63.6875 87.516357421875 C62.70343179651715 91.2662676953912 61.59366712804227 94.09420101127643 59 97 C58.71125000000001 96.13375 58.4225 95.2675 58.125 94.375 C55.89763271906985 90.83741667146387 54.66293493895978 89.99008840316488 51.125 88 C42.959548654551824 83.3594600638514 40.11799735151237 78.52577889791287 37.59375 69.55859375 C36.57512965374386 63.45357312210963 37.680927012576134 57.98504758472918 39 52 C39.269414062500005 50.7625 39.53882812500001 49.525 39.81640625 48.25 C40.32876436403579 45.9134489871991 40.859144285945206 43.58071678120994 41.4140625 41.25390625 C42.591798050287025 34.713548160739364 42.41767681899162 30.37352283790563 38.68359375 24.92578125 C32.506843449887214 17.86049610393131 24.296481775438735 15.111571594913658 15.171875 14.0859375 C11.87317142768579 13.955413257930013 8.671616323914378 14.351664860588473 5.3984375 14.734375 C-3.0027932960893864 15.664804469273742 -3.0027932960893864 15.664804469273742 -7 13 C-6.578476562500001 12.39671875 -6.156953125000001 11.7934375 -5.72265625 11.171875 C-5.1748046875 10.37265625 -4.626953125 9.5734375 -4.0625 8.75 C-3.5172265624999994 7.96109375 -2.971953124999999 7.1721875 -2.41015625 6.359375 C-0.758560863939131 3.8545757443380833 -0.758560863939131 3.8545757443380833 0 0 Z " fill="#56968C" transform="translate(40,0)"/>
<path d="M0 0 C12.638888888888886 2.5277777777777786 12.638888888888886 2.5277777777777786 16.59375 8.34375 C20.186594415623482 14.10585896845275 22.145591915229673 18.236280101363434 22.125 25.0625 C22.1288671875 26.348339843749997 22.1288671875 26.348339843749997 22.1328125 27.66015625 C22 30 22 30 21 33 C20.183152856014708 42.668256359957056 21.318521028878514 49.49903719557598 26.69140625 57.52734375 C29.951687783207277 61.01932041754688 33.83655459176977 62.544150782967606 38.130859375 64.404296875 C39.980468750000014 65.25390625000001 39.980468750000014 65.25390625000001 43 67 C43.33 68.32 43.66 69.64 44 71 C29.479999999999997 71 14.959999999999997 71 0 71 C0 47.56999999999999 0 24.14 0 0 Z " fill="#9ED6EA" transform="translate(0,57)"/>
<path d="M0 0 C8.503531027816265 7.262139636894176 17.483767868666035 19.405489506567022 21 30 C21.1072585408547 32.77737740886238 20.760091393114834 35.38770697158668 20.3125 38.125 C20.220332031249995 38.8146484375 20.12816406249999 39.504296874999994 20.033203125 40.21484375 C19.37930768219404 44.744477082285016 18.74900736417912 49.08142128472318 15.58984375 52.546875 C10.905809230702786 55.95747223863722 6.8216821979481495 57.322373281319614 1 57 C-5.450757068832203 55.8891445531014 -10.667649181689164 53.982203441057464 -15 49 C-18.376842344978275 42.065413041562465 -16.602480765119246 34.39166180775288 -15.357421875 27.10595703125 C-14.982224103358618 24.89526305708432 -14.638611659612849 22.680939905914826 -14.296875 20.46484375 C-14.053743191565893 18.95546085973446 -13.80898533998107 17.446338879030236 -13.5625 15.9375 C-13.452687988281248 15.235605468749995 -13.342875976562503 14.533710937500004 -13.229736328125 13.810546875 C-12.317527051558116 8.5239227586124 -10.908094064598423 3.971697200085032 -7.125 0.0625 C-4.259299347206095 -1.3703503263969523 -3.030142552152782 -0.9575969786476861 0 0 Z " fill="#14678D" transform="translate(49,52)"/>
<path d="M0 0 C17.159999999999997 0 34.31999999999999 0 52 0 C52 5.94 52 11.88 52 18 C49.36 18.99 46.72 19.98 44 21 C41.45740436303382 22.46513172095316 41.45740436303382 22.46513172095316 39.3125 24.0625 C36.30974171228638 26.2198747844085 33.57846458086256 27.97439644411416 30 29 C24.043475492598475 27.663666675730788 19.476742606371232 23.943797057993702 15 20 C14.010000000000005 19.67 13.019999999999996 19.34 12 19 C9.440159473744544 16.1788300464702 7.243439317696627 13.07642475911929 5 10 C4.568164062500003 9.409609375 4.136328125000006 8.81921875 3.69140625 8.2109375 C1.7074004575386539 5.376643510769508 0.8595611594167991 3.4382446376672067 0 0 Z " fill="#B6D7BC" transform="translate(76,0)"/>
<path d="M0 0 C11.880000000000003 0 23.760000000000005 0 36 0 C38.474999999999994 4.455 38.474999999999994 4.455 41 9 C42.812006314532 11.336653530567073 42.812006314532 11.336653530567073 44.625 13.125 C50.964375895015124 20.196373547380702 51.33085380296393 25.548085212539043 51.30078125 34.890625 C51 38 51 38 49 41 C47.93477618925375 39.50193308459894 46.87299143795576 38.001420713864874 45.8125 36.5 C45.16667968749999 35.58734375 44.520859375 34.6746875 43.85546875 33.734375 C42.30451081663982 31.44875278241658 40.95799972319767 29.16343107778947 39.625 26.75 C36.10342552737596 21.02744148198593 30.618476012056973 17.964701688652568 24.4375 15.6875 C17.6942186283651 14.33884372567302 12.201951160248953 13.938887248955508 5.3984375 14.734375 C-3.0027932960893864 15.664804469273742 -3.0027932960893864 15.664804469273742 -7 13 C-6.578476562500001 12.39671875 -6.156953125000001 11.7934375 -5.72265625 11.171875 C-5.1748046875 10.37265625 -4.626953125 9.5734375 -4.0625 8.75 C-3.5172265624999994 7.96109375 -2.971953124999999 7.1721875 -2.41015625 6.359375 C-0.758560863939131 3.8545757443380833 -0.758560863939131 3.8545757443380833 0 0 Z " fill="#79A18D" transform="translate(40,0)"/>
<path d="M0 0 C4.656328596017772 4.656328596017772 5.885726927690122 12.593123414473212 6.1875 18.94921875 C6.1474554251969025 21.464518604819446 6.070124529739914 23.97966707523564 5.9453125 26.4921875 C6.025724165379955 31.65002146508546 6.576749287745741 35.50104446262584 10.203125 39.3203125 C13.373251439653004 41.22415938414915 16.15332702476516 42.03577630577854 19.75 42.875 C26.116391973131293 44.550366308718765 30.861430102099774 46.92176992230141 36 51 C33.68994131402398 53.31005868597602 32.16916343413286 53.72174102796137 29.0625 54.625 C27.74958984375 55.01558593749999 27.74958984375 55.01558593749999 26.41015625 55.4140625 C23.999999999999993 56 23.999999999999993 56 21 56 C21 56.66 21 57.31999999999999 21 58 C17.15243455963379 59.92378272018311 15.231236930654944 60.4027410520834 11.07421875 59.04296875 C3.2513019679270343 55.35070790267042 -2.227241982402983 51.30346034874968 -5.875 43.375 C-9.153551282985884 33.06533873663474 -6.613463825891646 23.594328647895622 -3.24609375 13.76953125 C-1.7457813607417734 9.230968693153017 -0.7589472710106158 4.712269622991286 0 0 Z " fill="#5E9BB4" transform="translate(27,64)"/>
<path d="M0 0 C3.8255081580525427 3.536790561218389 5.9292105976534515 6.857671136184141 6.25 12.1640625 C6.028318351283957 16.77319344622086 5.15475184708248 21.0139876281078 4.125 25.5 C2.803639630764451 31.350404744353845 1.713193654250972 37.096666601551675 1.0625 43.0625 C0.0724999999999909 43.0625 -0.9174999999999898 43.0625 -1.9375 43.0625 C-3.4837923224003475 38.42362303279895 -4.227768698974941 33.985578939770825 -4.8125 29.125 C-5.83412582894087 21.722142070289955 -7.315803313523645 16.74661803615436 -12.5625 11.375 C-13.661626057265707 10.567701456698138 -14.78994018314468 9.799327995204283 -15.9375 9.0625 C-16.624570312499998 8.619062499999998 -17.311640624999995 8.175625 -18.01953125 7.71875 C-25.3542960396407 3.534406571083913 -32.64887551172577 2.8029504542858312 -40.9375 2.0625 C-40.19035490067859 -0.7556788834053023 -39.32968555542318 -3.368523635464392 -37.9375 -5.9375 C-35.25 -7.375 -35.25 -7.375 -31.9375 -7.9375 C-30.700000000000003 -8.164375 -29.4625 -8.39125 -28.1875 -8.625 C-17.271289705245074 -9.724922330079869 -8.568511527704999 -6.840408362453575 0 0 Z " fill="#438187" transform="translate(76.9375,21.9375)"/>
<path d="M0 0 C13.200000000000001 0 26.400000000000002 0 40 0 C38.89884617210526 6.606922967368437 37.84591377084089 9.52747321987717 33 14 C28.56370978199764 17.019194392336924 23.8081209212479 19.53136684917969 19.0283203125 21.958984375 C17.67966523172956 22.651168446305384 16.34502967378088 23.37139831462005 15.0263671875 24.119140625 C9.547238080874237 27.131440431020106 6.79359070477245 27.24515658835862 0 28 C0 18.759999999999998 0 9.52 0 0 Z " fill="#A9C4B3" transform="translate(0,0)"/>
<path d="M0 0 C0 9.239999999999995 0 18.480000000000004 0 28 C-13.86 28 -27.72 28 -42 28 C-40.62389921881817 21.119496094090835 -37.51382144504062 19.080502188804942 -32 15 C-9.397115722828005 0 -9.397115722828005 0 0 0 Z " fill="#BAD7CF" transform="translate(128,100)"/>
<path d="M0 0 C12.638888888888886 2.5277777777777786 12.638888888888886 2.5277777777777786 16.59375 8.34375 C20.09087507857394 13.952346824128014 22.124422715775836 18.167368709804563 22.25 24.8125 C22.27578125 25.6233203125 22.3015625 26.434140624999998 22.328125 27.26953125 C22 30 22 30 19 37 C9.594999999999999 37.495000000000005 9.594999999999999 37.495000000000005 0 38 C0 25.460000000000008 0 12.920000000000002 0 0 Z " fill="#A6CED5" transform="translate(0,57)"/>
<path d="M0 0 C1.9375 0.625 1.9375 0.625 4 2 C5.3125 4.625 5.3125 4.625 5 8 C2.884483439871744 10.242798676816463 0.6439284717690725 12.095948159034421 -1.80078125 13.97265625 C-4.47476606125386 16.145475468144753 -4.47476606125386 16.145475468144753 -6 21 C-19.86 21 -33.72 21 -48 21 C-48.495 18.525000000000006 -48.495 18.525000000000006 -49 16 C-47.35 15.670000000000002 -45.7 15.340000000000003 -44 15 C-44 14.340000000000003 -44 13.680000000000007 -44 13 C-36.82203035957133 10.540765184061826 -29.853136907918184 8.692759913381792 -22.375 7.5 C-14.435654275194452 6.218343742133129 -6.781556488698101 4.5210376591320625 0 0 Z " fill="#7AAAAF" transform="translate(92,107)"/>
</svg>
