<?xml version="1.0" encoding="UTF-8"?>
<!-- Generator: visioncortex VTracer 0.6.0 -->
<svg version="1.1" xmlns="http://www.w3.org/2000/svg" width="128" height="128">
<path d="M0 0 C42.24 0 84.48 0 128 0 C128 42.24 128 84.48 128 128 C85.75999999999999 128 43.519999999999996 128 0 128 C0 85.75999999999999 0 43.519999999999996 0 0 Z " fill="#A2928B" transform="translate(0,0)"/>
<path d="M0 0 C14.520000000000001 0 29.040000000000003 0 44 0 C43.129797125537095 4.351014372314519 42.411082759692555 6.346210591860013 40.25 10 C36.817027250737894 16.118575833014997 34.35632237049632 22.40387349797517 32 29 C31.6042578125 30.0480078125 31.208515625 31.096015625 30.80078125 32.17578125 C28.825792929750325 37.62952092732104 27.54906890102402 42.24076702001845 27.95703125 48.0625 C28 50 28 50 27.53125 51.80078125 C25.203582754940843 61.43663903653165 27.028084383288167 71.6551492091807 29.510986328125 81.04345703125 C30.539757252327608 84.93515047023358 31.221078541295512 88.54207149863875 31.375 92.5625 C31.79099337755156 97.92924469650708 34.32754910638749 101.19231772244255 38 105 C40.97490303976144 107.15638828402865 44.10234549920766 108.8401847986412 47.375 110.5 C48.622167968750006 111.1612890625 48.622167968750006 111.1612890625 49.89453125 111.8359375 C51.92153433111384 112.90768625553146 53.95579584741632 113.96155198269503 56 115 C56 115.66 56 116.32 56 117 C56.66 117 57.32 117 58 117 C62 123.5 62 123.5 62 128 C41.54 128 21.08 128 0 128 C0 85.75999999999999 0 43.519999999999996 0 0 Z " fill="#856A69" transform="translate(0,0)"/>
<path d="M0 0 C1.7511950604283015 2.344671850523369 3.35992770156102 4.668394102876583 4.9375 7.125 C5.367402343750001 7.777265624999998 5.797304687500002 8.429531249999997 6.240234375 9.1015625 C8.3267915709352 12.293140122917578 10.282933105764641 15.49530434853692 12.0859375 18.85546875 C13.891641959767583 21.821983219618176 14.585420693704293 22.90634774981079 17.6875 24.1875 C18.37843749999999 24.491718750000004 19.069375000000008 24.7959375 19.78125 25.109375 C20.51343750000001 25.40328125 21.24562499999999 25.6971875 22 26 C29.17430758796978 28.917551752441042 33.95578457715919 31.320412238886554 37.875 38.375 C39.20909897267104 42.673763356384484 39.35802895335513 44.69957498104209 38 49 C31.52489942909351 58.95208383566978 19.107699783991677 68.88484638972233 8 73 C-0.6053201341158214 74.6513957678663 -10.033136794538464 72.25248704153479 -18 69 C-21.784485983054793 66.36217882065361 -24.87120342778021 63.37341157695698 -28 60 C-28.8675390625 59.24203125 -29.735078125 58.48406249999999 -30.62890625 57.703125 C-33.50465934762272 54.424671715725 -34.437576672075046 51.353484732531314 -35.3125 47.1875 C-35.47564697265625 46.4477392578125 -35.6387939453125 45.707978515625 -35.806884765625 44.94580078125 C-37.86856774274818 34.776557587967375 -38.77290385010154 24.476299391706462 -34 15 C-31.8125 12.5 -31.8125 12.5 -29 10 C-28.434101562500004 9.431523437499997 -27.868203125 8.863046875000002 -27.28515625 8.27734375 C-19.9774119361766 1.2385961593848194 -10.080150401431396 -3.3600501338104642 0 0 Z " fill="#D3BFB0" transform="translate(63,32)"/>
<path d="M0 0 C11.219999999999999 0 22.439999999999998 0 34 0 C34 42.24 34 84.48 34 128 C28.39 128 22.78 128 17 128 C16.28385416666667 125.55859375 15.567708333333329 123.1171875 14.8515625 120.67578125 C14.048444300990894 118.00019034275854 14.048444300990894 118.00019034275854 12.9296875 115.515625 C10.798732561678591 109.74951163748325 11.03373594195341 103.59178519917515 13.16796875 97.8671875 C15.103182798368437 93.97686003001513 17.194533898895713 90.25091326307862 19.546875 86.59765625 C22.539093076182965 81.8151503922806 23.68286197967643 78.5335123729777 22.78125 72.8984375 C21.635017662477765 68.6459155277925 20.003625463099354 64.59965226590683 18.3681640625 60.517333984375 C16.31613013491436 55.2524395643418 15.009341903688338 50.042056436600966 13.9375 44.5 C11.48785386871073 31.960596935183375 8.002709222157321 20.3146548996421 2.234375 8.8671875 C1 5.999999999999999 1 5.999999999999999 0 0 Z " fill="#293D2C" transform="translate(94,0)"/>
<path d="M0 0 C4.62 0 9.24 0 14 0 C22.064047636314992 15.956519791006263 22.432928297425885 26.805630833693545 17 44 C16.780859375 44.7004443359375 16.56171875 45.400888671875 16.3359375 46.12255859375 C14.468424616973465 52.08598874105815 14.468424616973465 52.08598874105815 13.663330078125 54.54638671875 C10.043469637861559 65.74501435419234 11.38634047241327 73.37547498257817 15.875 83.9375 C22.81499565618304 100.55027348467259 24.59868327284548 110.0381387347185 18 127 C17.67 127.33 17.34 127.66 17 128 C11.39 128 5.779999999999999 128 0 128 C0 85.75999999999999 0 43.519999999999996 0 0 Z " fill="#413A3C" transform="translate(0,0)"/>
<path d="M0 0 C10.230000000000004 0 20.460000000000008 0 31 0 C32.650000000000006 4.29 34.3 8.58 36 13 C36.6896484375 14.31484375 37.379296874999994 15.6296875 38.08984375 16.984375 C40.91214749788824 22.39934251227175 42.11306565473174 28.35454794396507 43.5625 34.25 C43.85318359375 35.4011328125 44.14386718750001 36.552265625 44.443359375 37.73828125 C45.58563009482792 42.27158831258329 46.71289040260467 46.807991774296454 47.8076171875 51.35302734375 C48.063173828125 52.4044189453125 48.318730468750005 53.455810546875 48.58203125 54.5390625 C48.80479736328125 55.4692822265625 49.027563476562506 56.399501953125 49.257080078125 57.35791015625 C50.017345862321676 60.061688111089445 51.002260112232904 62.55288094027445 52.125 65.125 C54.54629630375547 71.05528430646359 56.40999785573919 76.53954751602036 53.890625 82.72265625 C52.34956959514223 85.54660056147905 50.70948817881384 88.27501310945958 49 91 C44.53665692030032 98.35071192764974 42.71138038591829 104.34458153019446 44 113 C44.875214700730965 115.7007698275775 45.88199252788645 118.195338833267 47.125 120.74609375 C48 123 48 123 48 128 C40.74000000000001 128 33.47999999999999 128 26 128 C26 111.77863955848525 29.80536732681503 99.86190931097417 38.625 86.4375 C45.19587384109107 76.21614069163611 46.2689135003953 66.85803268992123 44.3125 54.875 C43.10065714201099 49.46965775573246 40.643304336454236 44.82911369159908 38 40 C37.70093750000001 39.285859375 37.40187499999999 38.57171875 37.09375 37.8359375 C35.706843439968225 35.50791577423236 34.448636465327866 35.09520830994665 32 34 C30.51816752278704 32.906138207730066 29.060771809813048 31.778655243674336 27.625 30.625 C25.081447775775203 28.600964161442032 22.643152511817803 26.77875455732704 19.875 25.0625 C16.686380094704248 22.77501180707044 14.44642587022257 20.283334095232828 11.94140625 17.28515625 C9.035558084195145 13.86479170876089 5.916392612007044 10.642791570902306 2.8203125 7.39453125 C1 5 1 5 0 0 Z " fill="#5C595A" transform="translate(63,0)"/>
<path d="M0 0 C1.7989573362260671 2.364593840647224 3.445437397691393 4.704237925130144 5.0625 7.1875 C5.5091601562500045 7.84814453125 5.955820312500009 8.5087890625 6.416015625 9.189453125 C8.943549731515333 13.01664602470111 10.76999668668357 16.531682878743148 12 21 C10.914609374999998 20.976796875000005 9.829218749999995 20.953593749999996 8.7109375 20.9296875 C7.26563192515421 20.91091729772927 5.820318851288135 20.892718444761854 4.375 20.875 C3.662148437500008 20.858242187499997 2.9492968750000017 20.841484375 2.21484375 20.82421875 C-2.214983371945628 20.78357813420233 -5.921353794558101 21.052538298302522 -10 23 C-11.313420487124475 24.814224418699112 -11.313420487124475 24.814224418699112 -12 27 C-12.378984375000002 27.7115625 -12.757968750000003 28.423125 -13.1484375 29.15625 C-17.132309147762626 36.76874359445088 -19.862614037541405 44.64284801040202 -22.0625 52.9375 C-22.99941402836297 55.99808582598571 -24.23053148893728 58.34579723340593 -26 61 C-29.63923960314905 59.83024441327352 -31.310372543426226 57.691825361416136 -33.05078125 54.35546875 C-37.14950983437466 44.184549670255464 -39.92394326467638 28.69827107300941 -35.61328125 18.18359375 C-33.80535084933918 14.615886058623317 -31.986107956280534 12.654318183360473 -29 10 C-28.434101562500004 9.431523437499997 -27.868203125 8.863046875000002 -27.28515625 8.27734375 C-19.9774119361766 1.2385961593848194 -10.080150401431396 -3.3600501338104642 0 0 Z " fill="#B8C1C2" transform="translate(63,32)"/>
<path d="M0 0 C6.269999999999996 0 12.54 0 19 0 C19.990000000000002 1.98 20.97999999999999 3.96 22 6 C23.58130976220464 8.038431155167594 23.58130976220464 8.038431155167594 25.35546875 9.796875 C25.977441406249994 10.4452734375 26.599414062500003 11.093671875 27.240234375 11.76171875 C27.88283203124999 12.4178515625 28.525429687500008 13.073984375 29.1875 13.75 C30.477052990010066 15.073856370039884 31.762448616621896 16.401779491020488 33.04296875 17.734375 C33.61039794921875 18.314130859375 34.1778271484375 18.89388671875 34.762451171875 19.4912109375 C36 21 36 21 36 23 C36.66 23.33 37.31999999999999 23.66 38 24 C36.948125000000005 24.363515624999998 36.948125000000005 24.363515624999998 35.875 24.734375 C31.375147995513245 26.323996632019778 27.081647563497825 27.867327889570046 22.9375 30.25 C19.83851264922272 31.887676242280676 17.680270036330406 32.153769750027124 14.1875 32 C3.465339198527218 31.605923645887678 -4.344580945538311 37.01323608576759 -12 44 C-13.343628880214673 45.322957666672906 -14.680263348740766 46.65320724427304 -16 48 C-16.9205066305616 44.40624123684855 -17.046812642008046 42.140437926024134 -15.875 38.625 C-15.591406249999999 37.761328125 -15.3078125 36.89765625 -15.015625 36.0078125 C-14.68046875 35.015234375 -14.345312499999999 34.02265625 -14 33 C-13.435390625 31.2017578125 -13.435390625 31.2017578125 -12.859375 29.3671875 C-7.5121980906905605 12.47242958839167 -7.5121980906905605 12.47242958839167 -2.4140625 5.98046875 C-0.6990542421843742 3.8342111739513807 -0.6990542421843742 3.8342111739513807 0 0 Z " fill="#999584" transform="translate(44,0)"/>
<path d="M0 0 C3.4375 1.937500000000007 3.4375 1.937500000000007 6 4 C6 4.659999999999997 6 5.32 6 6 C6.990000000000009 6.329999999999998 7.97999999999999 6.659999999999997 9 7 C9 7.659999999999997 9 8.32 9 9 C9.659999999999997 9 10.319999999999993 9 11 9 C11 9.659999999999997 11 10.32 11 11 C11.659999999999997 11 12.319999999999993 11 13 11 C14.399350132952648 13.798700265905296 14.252654047262595 15.904987921033197 14 19 C11.756217576727252 21.937583567311037 9.149173581779593 22.901200707441333 5.75 24.1875 C2.131261373716171 25.607125502007847 -1.2730101388138166 27.096561692445505 -4.59765625 29.1015625 C-13.564171677883095 34.480997275162025 -20.423853648160012 36.60284454027885 -31 35 C-32.349740649737264 34.36721061902948 -33.68720306718435 33.70624814011228 -35 33 C-34.51643933079548 26.475154703533647 -33.27120991080537 21.240740380190232 -30.6875 15.25 C-30.391660156249998 14.521679687499997 -30.095820312500003 13.793359374999994 -29.791015625 13.04296875 C-27.573109817988893 7.764065511714378 -25.19418644419109 3.515033497179566 -20.375 0.1875 C-13.956070935991065 -2.071012078077217 -6.575541477392278 -1.5174326486289829 0 0 Z " fill="#E8DBD4" transform="translate(76,53)"/>
<path d="M0 0 C2.71875 1.609375 2.71875 1.609375 5.5 3.75 C6.417812499999997 4.446093749999999 7.335624999999993 5.142187499999999 8.28125 5.859375 C9.178437500000001 6.565781250000001 10.075625000000002 7.272187500000001 11 8 C12.310976562500002 8.990000000000002 12.310976562500002 8.990000000000002 13.6484375 10 C21.25825478637435 16.47213696116888 25.185303255753468 26.22363906904164 26 36 C26.53136531365314 48.304428044280456 26.53136531365314 48.304428044280456 24 54 C21.525000000000006 54.495000000000005 21.525000000000006 54.495000000000005 19 55 C18.795039062499995 54.24074218749999 18.59007812499999 53.48148437500001 18.37890625 52.69921875 C18.109492187499995 51.7053515625 17.84007812499999 50.711484375 17.5625 49.6875 C17.29566406250001 48.7013671875 17.02882812499999 47.715234374999994 16.75390625 46.69921875 C15.918954958655107 42.66196995890536 15.918954958655107 42.66196995890536 13.203125 39.9296875 C12.47609374999999 39.622890625 11.749062500000008 39.31609375 11 39 C10.314218749999995 38.693203125 9.628437500000004 38.38640625 8.921875 38.0703125 C8.205156250000002 37.758359375 7.488437500000003 37.44640625 6.75 37.125 C5.166129595166126 36.41786840245473 3.582797481845631 35.70952990565493 2 35 C1.2665234374999983 34.6790234375 0.5330468749999966 34.358046875 -0.22265625 34.02734375 C-7.308627948273923 30.7558764425726 -10.097512036505691 26.006098959688728 -13.69140625 19.27734375 C-14.946586121748993 17.09295609259803 -16.33212897461314 15.174854644888882 -17.875 13.1875 C-20 10 -20 10 -20.0546875 8.00390625 C-18.383615149095945 4.828868783282299 -15.43169144961358 4.0123715063244205 -12.25 2.75 C-11.628671874999995 2.4818749999999987 -11.007343750000004 2.213750000000001 -10.3671875 1.9375 C-6.809087857951383 0.46621829147356664 -3.8339366773396932 -0.651518651051191 0 0 Z " fill="#AC9998" transform="translate(83,24)"/>
<path d="M0 0 C11.219999999999999 0 22.439999999999998 0 34 0 C34 16.5 34 33 34 50 C29.603906532879336 47.80195326643967 28.81206171300616 46.56637293352785 26.3125 42.5 C21.976555407226044 35.75788876170159 16.921838335405383 29.985239878933875 11.30859375 24.28125 C4.9911111036424956 17.551399034689652 1.5004260215734178 9.002556129440546 0 0 Z " fill="#201416" transform="translate(94,0)"/>
<path d="M0 0 C6.427175183379589 3.9330475002770626 7.832631583288972 11.810849796281772 9.75 18.69140625 C11.08515777063485 26.118221349156315 7.8580824673542224 30.850074966029396 4 37 C-0.46334307969968336 44.35071192764974 -2.2886196140817106 50.344581530194475 -1 59 C-0.12478529926904969 61.700769827577474 0.8819925278864389 64.19533883326699 2.125 66.74609375 C3 69 3 69 3 74 C-4.260000000000005 74 -11.519999999999996 74 -19 74 C-19 57.77863955848524 -15.19463267318497 45.86190931097417 -6.375 32.4375 C0.4971462838928744 21.657662691932757 0.36359661537277077 12.483483794465073 0 0 Z " fill="#6A6C5E" transform="translate(108,54)"/>
<path d="M0 0 C9.899999999999999 0 19.799999999999997 0 30 0 C29.129797125537095 4.351014372314522 28.411082759692555 6.346210591860011 26.25 10 C22.28996640665109 17.057954610155353 19.285282644521175 24.455021797459153 17.08203125 32.24609375 C14.931336401487016 39.76882987951484 12.317746658701584 43.449285931663226 6 48 C4.826265610340904 48.97068329271385 3.6587576435234155 49.94898637045396 2.5 50.9375 C1.2624999999999993 51.9584375 1.2624999999999993 51.9584375 0 53 C0.5188220352816018 47.29295761190239 2.156610565876676 42.26253626571677 4.0625 36.8671875 C7.304881883407717 26.950902906578065 7.346241117543368 16.456035685171088 3.0703125 6.890625 C2.0238018019197455 4.8458097486153076 2.0238018019197455 4.8458097486153076 0 3 C0 2.01 0 1.02 0 0 Z " fill="#686660" transform="translate(14,0)"/>
<path d="M0 0 C2.2041329716425615 3.3061994574638405 2.1901166506199523 3.539358066553419 1.625 7.1875 C0.2694634730645227 18.734663007228136 0.6153550999151278 28.840608320091007 3.568115234375 40.02734375 C5.002399272045327 45.554868701671296 5.360443034639385 50.32302220442969 5 56 C1.6999999999999993 56.66 -1.6000000000000014 57.31999999999999 -5 58 C-6.66474550541464 54.02848940995128 -8.303262516251632 50.04665059134834 -9.9375 46.0625 C-10.40607421875 44.94552734375 -10.8746484375 43.8285546875 -11.357421875 42.677734375 C-15.061239397923504 33.59139066768407 -17.3978812220535 25.639523002645973 -14.56640625 15.99609375 C-11.196163118226176 9.549768358302934 -5.355999828526041 4.805882870389269 0 0 Z " fill="#73787D" transform="translate(26,41)"/>
<path d="M0 0 C8.447921975400362 6.863936605012793 14.90328868640664 14.335482793432597 20.45703125 23.71484375 C21.953906027355004 26.243114433222487 21.953906027355004 26.243114433222487 25 28 C25.340576171875 30.613769531249986 25.340576171875 30.613769531249986 25.29296875 33.8828125 C25.283300781250006 35.0494140625 25.27363281250001 36.216015625 25.263671875 37.41796875 C25.23853515625001 38.6412890625 25.21339843749999 39.864609375 25.1875 41.125 C25.167197265624992 42.971582031249994 25.167197265624992 42.971582031249994 25.146484375 44.85546875 C25.111035425214965 47.9040784315135 25.061620788310023 50.95182500493064 25 54 C18.375 56 18.375 56 15 56 C14.673867187500008 54.93781250000001 14.347734375000002 53.875625 14.01171875 52.78125 C13.570437598714108 51.35412797882009 13.129024241589406 49.927046832415016 12.6875 48.5 C12.474160156250008 47.80390625 12.260820312500002 47.107812499999994 12.041015625 46.390625 C10.95572576412853 42.89178007539945 9.806463444254206 39.4609634793289 8.45703125 36.0546875 C6.783916199383896 31.6713091568989 5.884236007974664 27.222285743767657 5 22.625 C3.7896747606905308 16.575714858074164 2.4823605874403825 10.670861324290506 0.515625 4.8125 C0 3 0 3 0 0 Z " fill="#47362D" transform="translate(103,22)"/>
<path d="M0 0 C1.3199999999999932 0.33 2.6400000000000006 0.66 4 1 C4.329999999999998 3.31 4.659999999999997 5.62 5 8 C2.2161102517853237 6.293744993029712 1.1461579368637445 5.523732607095058 0.25 2.3125 C0.16749999999999687 1.549375 0.08500000000000085 0.7862499999999999 0 0 Z " fill="#686660" transform="translate(63,0)"/>
</svg>
