<?xml version="1.0" encoding="UTF-8"?>
<!-- Generator: visioncortex VTracer 0.6.0 -->
<svg version="1.1" xmlns="http://www.w3.org/2000/svg" width="128" height="128">
<path d="M0 0 C42.24 0 84.48 0 128 0 C128 42.24 128 84.48 128 128 C85.75999999999999 128 43.519999999999996 128 0 128 C0 85.75999999999999 0 43.519999999999996 0 0 Z " fill="#94A4A7" transform="translate(0,0)"/>
<path d="M0 0 C24.430025445292625 0 24.430025445292625 0 32 7 C35.65269980899208 11.646068595573496 36.73606380846352 16.60704143492967 36.42578125 22.44921875 C34.929871338758 31.41095427331218 28.7514756484605 38.144386830689655 23.1025390625 44.910888671875 C22.589169921875 45.526818847656244 22.07580078125 46.1427490234375 21.546875 46.77734375 C21.081201171875 47.32640380859375 20.61552734375 47.875463867187506 20.1357421875 48.441162109375 C17.77444981725019 51.68210187378709 17.791343487790712 55.079059649538635 17.57421875 58.96484375 C18.201476664807227 61.96302148958317 19.673761471489218 63.056263779868516 22 65 C29.14038844258855 69.53038018571368 36.420412057837524 72.6652992265328 45 72 C48.470968572257036 70.72746143644231 48.470968572257036 70.72746143644231 51 69 C51.66 69 52.32 69 53 69 C55.68169415581266 62.8704133581425 56.90837486913278 56.7073689434165 57.8125 50.125 C59.023959742746975 42.70598297077433 61.19202057118321 36.34953380778548 67.0625 31.4375 C71.70718887139924 29.16456714803867 75.386444423134 28.863222854205084 80.5625 28.875 C81.6981640625 28.872421875 82.833828125 28.86984375 84.00390625 28.8671875 C87 29 87 29 90 30 C91.35562165860266 29.916885775688215 92.70979382940611 29.80917198359839 94.0625 29.6875 C100.2313550041633 29.578797709177735 105.5306105688561 31.627873006092706 111.226806640625 33.778076171875 C117.17285006284445 35.9614659431483 121.30572115321634 36.330572115321644 128 37 C128 56.47 128 75.94 128 96 C85.75999999999999 96 43.519999999999996 96 0 96 C0 64.32 0 32.64 0 0 Z " fill="#6E7F89" transform="translate(0,32)"/>
<path d="M0 0 C18.48 0 36.96 0 56 0 C56.99 2.97 57.98 5.94 59 9 C65.68452037415014 18.327237731372286 73.45549040504659 21.602148670301318 84.5 23.8125 C85.513203125 24.02841796875 86.52640625 24.2443359375 87.5703125 24.466796875 C90.04429337449888 24.991934324775706 92.52032254142921 25.50259307945336 95 26 C95 26.66 95 27.32 95 28 C96.88803947113604 29.511025300012967 98.77530689062688 30.92332635910379 100.75 32.3125 C107.15928501802271 36.87176192707171 111.70224360295241 41.29575796284041 114 49 C112.90319807962693 53.57000800155444 110.67257475434094 55.49339408570992 106.8125 57.875 C102.52640083219369 60.0042234575554 98.74569380708459 61.09380303360314 94 60 C84.87037039569174 56.60158898009976 77.76166692287892 51.65698800085993 73.62890625 42.734375 C73 41.00000000000001 73 41.00000000000001 73 39 C70.83295483673496 39.45654041360921 68.66638270675882 39.91532635843983 66.5 40.375 C65.218671875 40.645703125 63.93734375 40.91640625 62.6171875 41.1953125 C59.908640705586386 41.797861786878194 57.28351968381035 42.47059463085078 54.625 43.25 C47.636363921993095 44.69592470579453 42.80922964344011 43.08018492750864 36.57421875 40.1796875 C24.208330836341922 34.51277073228416 13.502463390954565 33.01730888561986 0 32 C0 21.439999999999998 0 10.879999999999999 0 0 Z " fill="#A7A6A2" transform="translate(0,0)"/>
<path d="M0 0 C5.931736094985396 2.9789913574373514 8.633465166471453 8.150024084742427 10.8359375 14.1171875 C15.25967451813699 29.201732196980657 10.722652935991619 45.23049526206708 8.828125 60.38671875 C-23.841875 60.38671875 -56.511875 60.38671875 -90.171875 60.38671875 C-90.171875 52.79671875 -90.171875 45.20671874999999 -90.171875 37.38671875 C-82.31393353337718 37.38671875 -82.31393353337718 37.38671875 -78.31640625 38.6640625 C-77.02126098632813 39.063349609374995 -77.02126098632813 39.063349609374995 -75.699951171875 39.470703125 C-74.80381103515626 39.75236328125 -73.9076708984375 40.0340234375 -72.984375 40.32421875 C-59.04693784235338 44.46307701540053 -43.06298274364114 46.95683331972127 -29.296875 40.44921875 C-26.01649472071594 38.57494011252193 -26.01649472071594 38.57494011252193 -24.171875 35.38671875 C-23.83734487299118 32.98595366977666 -23.83734487299118 32.98595366977666 -23.828125 30.30859375 C-23.783652343749992 28.813925781249992 -23.783652343749992 28.813925781249992 -23.73828125 27.2890625 C-23.705410156249997 25.72865234375 -23.705410156249997 25.72865234375 -23.671875 24.13671875 C-23.32385127184216 7.861491462618488 -23.32385127184216 7.861491462618488 -18.671875 2.51171875 C-13.491834942508461 -1.8913152988678092 -6.446759553222549 -1.8203979313955756 0 0 Z " fill="#6D5D58" transform="translate(90.171875,67.61328125)"/>
<path d="M0 0 C23.760000000000005 0 47.52000000000001 0 72 0 C72 10.23 72 20.46 72 31 C65.77123866977534 31 64.23263906983108 30.93866056384508 59.125 28.5 C53.85798788796781 26.339020173463364 49.44524148711284 25.71312415904432 43.8125 25.9375 C32.25467414812688 26.350749523740397 19.17551896904483 24.949936135113372 9.76171875 17.64453125 C5.788261537409909 13.93538382982167 2.0436436174269303 10.113861703142735 0 5 C0 3.3499999999999996 0 1.6999999999999997 0 0 Z " fill="#7A777E" transform="translate(56,0)"/>
<path d="M0 0 C4.865711889504169 2.44362079406514 7.8409438126857935 6.445144293050532 9.828125 11.38671875 C11.392277859027203 18.87818770639346 8.653005275618995 26.89903269341464 4.66015625 33.2421875 C1.285171027758878 37.49095530405111 -2.9936467073332267 41.66064265244441 -8.171875 43.38671875 C-10.002438932860343 43.505264305893064 -11.837518058256606 43.561891082380754 -13.671875 43.57421875 C-14.630937500000002 43.58839843749999 -15.590000000000003 43.60257812500001 -16.578125 43.6171875 C-19.171875 43.38671875 -19.171875 43.38671875 -22.171875 41.38671875 C-22.171875 40.72671875 -22.171875 40.06671875000001 -22.171875 39.38671875 C-22.831874999999997 39.38671875 -23.491874999999993 39.38671875 -24.171875 39.38671875 C-24.061403021870163 35.032057075508106 -23.930912814460584 30.678213756394484 -23.796875 26.32421875 C-23.765937500000007 25.095097656250005 -23.735 23.865976562499995 -23.703125 22.599609375 C-23.22265625 7.7451171875 -23.22265625 7.7451171875 -18.671875 2.51171875 C-13.491834942508461 -1.8913152988678092 -6.446759553222549 -1.8203979313955756 0 0 Z " fill="#615238" transform="translate(90.171875,67.61328125)"/>
<path d="M0 0 C5.665800383240317 4.1077052778492344 8.20082708435222 10.373971112416115 10 17 C10.514721630445742 24.15375825365267 9.560308888871681 30.387312136773318 5 36 C0.9055988123410188 39.32187266168559 -3.0174070078873427 40.32131662019469 -8.25 40.125 C-15.199498342502977 39.183517682649736 -23.130557156392406 36.34559493119313 -27.7890625 30.9140625 C-29.162931073718877 28.742463786702416 -29.852529779861655 27.58072885242106 -30 25 C-26.727067276624574 14.362968649029867 -16.909215829642402 5.75007927650384 -7.75 -0.0625 C-4.510744538124399 -1.1667916347303162 -3.1660957583089413 -1.2989110803318766 0 0 Z " fill="#C7D6D4" transform="translate(48,65)"/>
<path d="M0 0 C13.860000000000001 0 27.720000000000002 0 42 0 C44.78378378378379 19.486486486486484 44.78378378378379 19.486486486486484 41.625 23.9375 C37.571674509346906 26.587751282350098 33.253358628941875 26.12782427289468 28.61328125 26.09765625 C27.796272430419922 26.096241302490235 26.979263610839844 26.09482635498047 26.137496948242188 26.093368530273438 C23.529127322537967 26.087772943285753 20.920843664480465 26.075221285931487 18.3125 26.0625 C16.543621031732574 26.05748442806034 14.77474071744048 26.052921620655006 13.005859375 26.048828125 C8.670513181913023 26.038656031632833 4.335352780003483 26.019079792185835 0 26 C0 17.42 0 8.84 0 0 Z " fill="#CDCCC4" transform="translate(0,0)"/>
<path d="M0 0 C8.25 0 16.5 0 25 0 C25 10.89 25 21.78 25 33 C15.430000000000007 33 5.859999999999999 33 -4 33 C-4 21.740715732613097 -4 21.740715732613097 -3.37890625 17.5 C-3.182646484374999 16.140683593749998 -3.182646484374999 16.140683593749998 -2.982421875 14.75390625 C-2.8438476562500057 13.845117187499994 -2.705273437499997 12.936328125000003 -2.5625 12 C-2.4277929687499977 11.060273437500001 -2.2930859374999955 10.120546875000002 -2.154296875 9.15234375 C-1.1410634566326507 2.2821269132653015 -1.1410634566326507 2.2821269132653015 0 0 Z " fill="#868995" transform="translate(103,95)"/>
<path d="M0 0 C0.9964453125000006 0.7901953124999999 1.9928906250000011 1.5803906249999997 3.01953125 2.39453125 C4.023710937499999 3.171835937499999 5.027890624999998 3.9491406249999983 6.0625 4.75 C10.75829351500144 8.915943753083077 14.020996198783081 13.13473725474325 15.83203125 19.20703125 C14.735229329626932 23.77703925155445 12.504606004340957 25.700425335709923 8.64453125 28.08203125 C4.358432082193701 30.211254707555383 0.5777250570845922 31.300834283603137 -4.16796875 30.20703125 C-12.173690163317715 27.22698353147795 -19.414340640796638 22.735161673029125 -23.73046875 15.20703125 C-24.93661453097731 12.42443177283306 -25.167360144150038 11.196887819167188 -24.98046875 8.08203125 C-22.07185155712449 3.468362599231952 -17.44789543428564 0.39029593990051836 -12.31640625 -1.4609375 C-7.532212126193571 -2.200312955497356 -4.306556130238235 -2.4373727050300253 0 0 Z " fill="#B9D2D6" transform="translate(98.16796875,29.79296875)"/>
<path d="M0 0 C3.813038303272677 1.5113446613094936 3.813038303272677 1.5113446613094936 10.28125 2.19140625 C10.28125 14.73140625 10.28125 27.27140625 10.28125 40.19140625 C2.5938436221391044 40.19140625 -2.312756750765601 39.837858391772855 -9.21875 37.37890625 C-10.015390624999995 37.11787109375 -10.812031250000004 36.856835937499994 -11.6328125 36.587890625 C-17.452781593406584 34.59035885989012 -17.452781593406584 34.59035885989012 -19.71875 31.19140625 C-18.501875 30.758281250000003 -17.284999999999997 30.32515625 -16.03125 29.87890625 C-9.60279865103034 27.519768125845154 -9.60279865103034 27.519768125845154 -5.09375 22.56640625 C-4.511812782397001 17.32897129157299 -6.48678330280265 14.233023741977789 -9.71875 10.19140625 C-12.444705748115666 7.679717765928366 -15.250984088041236 5.387314988182169 -18.1953125 3.13671875 C-20.21379753740979 1.580673009086567 -21.98164590126764 0.04509451643251694 -23.71875 -1.80859375 C-14.621150969693275 -4.779238331324645 -8.810083989009826 -3.752839174930152 0 0 Z " fill="#7DB0C6" transform="translate(117.71875,28.80859375)"/>
<path d="M0 0 C5.683099057716987 1.8559299338244841 10.055429580355394 2.1897226455355394 16.322265625 2.81640625 C16.322265625 11.396406249999998 16.322265625 19.976406249999997 16.322265625 28.81640625 C8.072265625 28.81640625 -0.177734375 28.81640625 -8.677734375 28.81640625 C-9.234609375000005 26.341406250000006 -9.791484374999996 23.866406249999997 -10.365234375 21.31640625 C-12.14270685421424 13.906035283250674 -13.993890026257318 7.272302482495121 -20.677734375 2.81640625 C-20.865234375 -0.30859375 -20.865234375 -0.30859375 -20.677734375 -3.18359375 C-13.07347917275034 -4.775182048145275 -7.166123952338111 -2.4613772162103444 0 0 Z " fill="#5C838C" transform="translate(111.677734375,66.18359375)"/>
<path d="M0 0 C19.53846153846154 0 19.53846153846154 0 25 4.4375 C28.2243070079149 8.568643353890963 28.42093435401132 11.864600881061918 28 17 C25.675466838278876 25.61865372268909 17.85867406440449 31.809961472865737 10.6796875 36.5234375 C6.77265156155352 38.6180841438059 4.537086972935454 39 0 39 C0 26.129999999999995 0 13.259999999999998 0 0 Z " fill="#273E50" transform="translate(0,39)"/>
<path d="M0 0 C7.866306549628629 0 7.866306549628629 0 11.890625 1.2421875 C13.19507568359375 1.6331359863281278 13.19507568359375 1.6331359863281278 14.52587890625 2.031982421875 C15.4248388671875 2.3101782226562477 16.323798828125 2.5883740234374955 17.25 2.875 C23.817467612927565 4.847063630777569 30.210105654716727 6.6517118513005755 37.0390625 7.48046875 C39.4627680560316 8.122605879386853 40.4709861078437 9.03760318936628 42 11 C42 11.659999999999997 42 12.319999999999993 42 13 C42.66 13 43.32 13 44 13 C45.73734146895278 16.8004344633342 46 18.597145768073915 46 23 C30.82 23 15.639999999999997 23 0 23 C0 15.409999999999997 0 7.819999999999993 0 0 Z " fill="#464D59" transform="translate(0,105)"/>
<path d="M0 0 C1.124062500000008 -0.014179687499996874 2.2481250000000017 -0.028359375000000853 3.40625 -0.04296875 C6.369760556858068 0.17779781926088845 8.006741504575842 0.6414352957296288 10.5 2.1875 C10.5 3.8375000000000057 10.5 5.487499999999997 10.5 7.1875 C9.463593750000001 7.164296875000005 8.427187500000002 7.141093749999996 7.359375 7.1171875 C5.989590557653543 7.098423329556894 4.619798298544396 7.080223822716846 3.25 7.0625 C2.2271289062500017 7.037363281249995 2.2271289062500017 7.037363281249995 1.18359375 7.01171875 C-2.5436582037561095 6.975531837827617 -5.395393404670614 7.010534893395544 -8.5 9.1875 C-12.04353070422627 14.043449483569333 -12.602987451543584 18.64490255647368 -12.67578125 24.53125 C-12.699628906249998 25.5302734375 -12.723476562499997 26.529296875 -12.748046875 27.55859375 C-12.79101133208276 29.64432284838115 -12.822264289545132 31.73032612342007 -12.841796875 33.81640625 C-13.053304112798685 41.44050435669698 -13.053304112798685 41.44050435669698 -15.359375 45.296875 C-21.02769151926293 50.30319834913003 -27.227595693283803 50.74078929089923 -34.51171875 51.5625 C-37.5 51.1875 -37.5 51.1875 -39.4765625 48.85546875 C-40.144296875 47.9750390625 -40.812031250000004 47.094609375000005 -41.5 46.1875 C-44.6950847604723 44.60203319964657 -44.6950847604723 44.60203319964657 -48.1875 43.5 C-54.40543259557344 41.376634808853126 -54.40543259557344 41.376634808853126 -55.5 39.1875 C-54.9779296875 39.392460937500005 -54.455859375 39.59742187500001 -53.91796875 39.80859375 C-46.79305033708886 42.416488580645236 -39.20604378518413 44.682921176477805 -31.9375 41.75 C-31.133125 41.234375 -30.32875 40.71875 -29.5 40.1875 C-28.840000000000003 40.1875 -28.18 40.1875 -27.5 40.1875 C-24.81830584418735 34.057913358142514 -23.591625130867214 27.89486894341647 -22.6875 21.3125 C-21.476040257253025 13.893482970774329 -19.307979428816793 7.537033807785477 -13.4375 2.625 C-8.836310746289229 0.3733541949926007 -5.126713537298457 0.02939629321845416 0 0 Z " fill="#90887A" transform="translate(80.5,60.8125)"/>
<path d="M0 0 C7.920000000000002 0 15.840000000000003 0 24 0 C24 10.23 24 20.46 24 31 C17.67155380803854 31 14.73878636165135 30.56191244680902 9.25 28.3125 C8.591289062499996 28.06822265625 7.932578124999992 27.8239453125 7.25390625 27.572265625 C4.159854705120964 26.332762217061642 2.179058330392337 25.219851861308324 0.0625 22.62109375 C-1.0950638932677634 19.765485763299008 -1.3397247330279924 17.818585869557484 -1.25 14.75 C-1.2345312500000034 13.87859375 -1.2190625000000068 13.0071875 -1.203125 12.109375 C-0.9387021001800946 8.061670610449088 -0.44794694665093004 4.031522519858347 0 0 Z " fill="#46607D" transform="translate(104,0)"/>
</svg>
