<?xml version="1.0" encoding="UTF-8"?>
<!-- Generator: visioncortex VTracer 0.6.0 -->
<svg version="1.1" xmlns="http://www.w3.org/2000/svg" width="128" height="128">
<path d="M0 0 C42.24 0 84.48 0 128 0 C128 42.24 128 84.48 128 128 C85.75999999999999 128 43.519999999999996 128 0 128 C0 85.75999999999999 0 43.519999999999996 0 0 Z " fill="#B2A05F" transform="translate(0,0)"/>
<path d="M0 0 C42.24 0 84.48 0 128 0 C128 7.260000000000001 128 14.520000000000001 128 22 C111.7602874063945 24.706618765600915 98.47815432515468 23.903137468544223 84 16 C82.02257440418408 15.058833193606727 80.04365360935056 14.120793801866126 78.0625 13.1875 C74.13259668508289 11.26519337016575 74.13259668508289 11.26519337016575 73 9 C72.0422265625 9.121171875 71.084453125 9.24234375 70.09765625 9.3671875 C61.99049169700695 10.388554462842183 53.881200771570605 11.381033892815445 45.761962890625 12.30224609375 C41.818029288086215 12.757040322786867 37.909977343641415 13.31179526506 34 14 C32.38694564864355 19.408476354548103 31.447451518208226 23.41082546554961 33 29 C35.19381991595799 32.199325996209865 35.19381991595799 32.199325996209865 38 35 C38.680625 35.845625 39.36125 36.69125 40.0625 37.5625 C47.27089651348214 43.54393540480433 56.52101467449675 46.02153441179621 65.74609375 46.24609375 C66.83083984375 46.27896484375 67.9155859375 46.3118359375 69.033203125 46.345703125 C71.29872889151383 46.40679303379297 73.56435994202569 46.464098306058176 75.830078125 46.517578125 C83.46637257077742 46.75777017581674 89.68428523094893 47.093298433361525 95.609375 52.47265625 C100.75781406275738 58.127262074545314 101.5229454268143 63.752390718599685 101.26953125 71.2421875 C100.96074379201944 74.40166496861262 100.14201397377082 77.04419912671084 99 80 C98.87612786389063 81.3733649872995 98.77320206043031 82.7487257354428 98.6875 84.125 C98 88 98 88 96.125 90.1875 C78.82199788875252 100.22324122452353 59.982480287267194 100.85921619252358 40.83984375 95.9375 C32.1902771072175 93.0820722224652 26.617807277062372 87.53753261357478 22.125 79.75 C21 77 21 77 21 74 C20.195625 73.5978125 20.195625 73.5978125 19.375 73.1875 C16.999999999999957 71.99999999999997 16.999999999999957 71.99999999999997 14.4375 70.4375 C9.920072510408609 68.34599416584118 9.920072510408609 68.34599416584118 0 68 C0 45.56 0 23.119999999999997 0 0 Z " fill="#B37319" transform="translate(0,0)"/>
<path d="M0 0 C0 0.6600000000000001 0 1.3200000000000003 0 2 C1.1756249999999966 2.350625000000001 2.351249999999993 2.70125 3.5625 3.0625 C11.320944238599182 5.627991944712511 18.701493493013245 9.350746746506623 26 13 C35.239999999999995 13 44.480000000000004 13 54 13 C54 41.38 54 69.76 54 99 C47.213197969543145 97.86886632825718 47.213197969543145 97.86886632825718 43.625 94.5625 C42.936640624999995 93.9450390625 42.248281250000005 93.327578125 41.5390625 92.69140625 C40 91 40 91 40 89 C39.34 89 38.68000000000001 89 38 89 C37.443124999999995 88.113125 36.886250000000004 87.22625 36.3125 86.3125 C33.3878084590813 81.6725758260613 29.164660345906967 78.72155344863566 24 77 C23.84755638713243 73.79868412978098 23.850578086793575 71.39223252216686 25 68.375 C26.907282874490917 61.937920298593156 27.20209572748759 54.770331034941485 24.375 48.5625 C21.848602499274207 44.277444168380285 18.611227769124767 40.687293831494884 13.65234375 39.382080078125 C10.904932231055483 38.98630513085436 8.275115547802784 38.85733525593618 5.5 38.82421875 C-24.188841538389525 38.225321576989685 -24.188841538389525 38.225321576989685 -34.5 28.6875 C-35.325 27.800624999999997 -36.15 26.91375 -37 26 C-37.9075 25.051249999999996 -38.815 24.1025 -39.75 23.125 C-42.77074078419712 18.929526688615105 -43.281104919517134 15.987428752515452 -42.80078125 10.8828125 C-42.23307552377345 8.403073887842428 -41.63305150738985 6.961436864854113 -40 5 C-32.75716559076815 1.549866041548345 -23.67984234094117 1.3278627133007888 -15.76171875 0.4296875 C-13.23614096220112 0.14119990222442702 -10.715775508221533 -0.19686157332818155 -8.203125 -0.58203125 C-5.110229253084526 -0.985616426731653 -2.984803075726134 -0.8140372024707645 0 0 Z " fill="#CD9138" transform="translate(74,9)"/>
<path d="M0 0 C4.680207021033947 2.5376732252885716 7.134140760813914 5.390827398656668 9.05078125 10.34765625 C9.834370301833975 13.593953750455029 9.999524364626339 16.66874788640581 10.14453125 20.00390625 C10.512709479789702 28.130125750358445 13.19635302312103 33.52191934146498 17.83203125 40.06640625 C21.371909046795345 45.73021072487255 22.70703125 51.42988724991524 22.70703125 58.06640625 C10.16703125 58.06640625 -2.372968750000002 58.06640625 -15.29296875 58.06640625 C-15.29296875 38.26640625 -15.29296875 18.466406250000006 -15.29296875 -1.93359375 C-10.104774539165042 -3.6629918202783216 -4.970877406473047 -2.023917717456655 0 0 Z " fill="#DF9E41" transform="translate(15.29296875,69.93359375)"/>
<path d="M0 0 C3.570340482156766 2.56580400751605 6.297322166095896 5.354992573926509 9.046875 8.76171875 C12.078101891892622 12.414517448376223 14.93251786475836 15.024367649149355 19.625 16.3125 C22.918602910042864 16.420486980657145 25.751004119346035 16.168231177048952 29 15.75 C33.00401321378203 15.320998584237643 34.22783466719764 15.338184842356775 38 17.125 C41.6727484542846 20.609402379705898 42.392158217199906 22.07724651599699 42.5625 27.1875 C42.521249999999995 28.260000000000005 42.480000000000004 29.332499999999996 42.4375 30.4375 C36.374591123712875 32.74371966576922 30.852333307499322 33.998650936153666 24.375 34.25 C23.55717041015626 34.28496582031249 22.739340820312492 34.319931640625 21.896728515625 34.35595703125 C8.290890126609568 34.77484139640703 -4.756455199255214 33.564227027656074 -15.5625 24.4375 C-15.5625 23.777500000000003 -15.5625 23.117500000000007 -15.5625 22.4375 C-16.552500000000002 22.1075 -17.5425 21.777500000000003 -18.5625 21.4375 C-20.421874999999993 19.36328125 -20.421874999999993 19.36328125 -22.3125 16.75 C-22.94671875 15.900507812499995 -23.5809375 15.051015625000005 -24.234375 14.17578125 C-25.911629274967567 10.717677583081574 -25.70404847944005 9.069699707309248 -24.5625 5.4375 C-18.54897278452509 -2.3154772364800493 -8.495229583166001 -5.345152841757134 0 0 Z " fill="#7D4811" transform="translate(47.5625,46.5625)"/>
<path d="M0 0 C3.2622240900363373 3.0292080836051696 5.538425983683915 6.307638975525876 8 10 C8.66 10.329999999999998 9.32 10.659999999999997 10 11 C10 11.659999999999997 10 12.319999999999993 10 13 C10.574921875000001 13.278437499999995 11.149843750000002 13.556875000000005 11.7421875 13.84375 C13.999999999999986 14.999999999999986 13.999999999999986 14.999999999999986 15.9453125 16.21875 C29.600451145375914 24.24542647971917 49.6592009656746 23.36711154908167 64.625 19.75 C69.33590358796944 18.636807028870237 71.83409573092723 19.645358456611035 76 22 C76.60574412532637 29.268929503916453 76.60574412532637 29.268929503916453 74.1875 32.1875 C56.740539415970204 42.10832072425224 38.09210740177098 42.88740215026992 18.83984375 37.9375 C10.379774663513153 35.144629875162536 4.960567184834105 29.794299105464205 0.34765625 22.32421875 C-1.3508689829728944 18.134523175333527 -1.3725369294236494 14.71493936587423 -1.25 10.25 C-1.2448437500000011 9.483007812500006 -1.2396874999999987 8.716015624999997 -1.234375 7.92578125 C-1.15543060578662 2.31086121157324 -1.15543060578662 2.31086121157324 0 0 Z " fill="#937445" transform="translate(22,58)"/>
<path d="M0 0 C4.040152310977817 0.5297402505652684 6.217178708712623 1.6095848415434943 9.25 4.3125 C9.935781250000005 4.906757812500004 10.621562499999996 5.501015624999994 11.328125 6.11328125 C13.104509692013409 8.117939675800187 13.60727844770635 9.383781423690834 14 12 C14.659999999999997 12 15.319999999999993 12 16 12 C17.426768240143105 13.658504482968908 18.692275452600114 15.40524679448049 19.9765625 17.17578125 C22.632490954208734 19.794077868534117 22.632490954208734 19.794077868534117 30 22 C30 28.599999999999994 30 35.2 30 42 C16.799999999999997 42 3.5999999999999943 42 -10 42 C-10 31.896551724137936 -10 31.896551724137936 -8.3203125 28.7109375 C-7.969042968750003 28.003725585937502 -7.617773437500006 27.296513671875005 -7.255859375 26.56787109375 C-6.696083984374994 25.482399902343758 -6.696083984374994 25.482399902343758 -6.125 24.375 C-2.184415234660321 16.22826932209125 -0.5327122986625312 9.029473462329975 0 0 Z " fill="#D2A450" transform="translate(98,86)"/>
<path d="M0 0 C0.703125 1.6992187500000018 0.703125 1.6992187500000018 1 4 C-0.3281250000000142 6.332031250000021 -0.3281250000000142 6.332031250000021 -2.25 8.8125 C-6.890130352442327 15.12900479114904 -9.688025999347204 19.881293207703035 -9 28 C-8.424363223947978 31.355421207414366 -7.7483765136489495 34.67907922068279 -7 38 C-15.671315803847861 38.80663402826492 -24.816101211818435 35.79755178587904 -32 31 C-34.499999999999986 28.687500000000014 -34.499999999999986 28.687500000000014 -37 26 C-37.9075 25.051249999999996 -38.815 24.1025 -39.75 23.125 C-42.77074078419712 18.929526688615105 -43.281104919517134 15.987428752515452 -42.80078125 10.8828125 C-42.23307552377345 8.403073887842428 -41.63305150738985 6.961436864854113 -40 5 C-32.75716559076815 1.549866041548345 -23.67984234094117 1.3278627133007888 -15.76171875 0.4296875 C-13.23614096220112 0.14119990222442702 -10.715775508221533 -0.19686157332818155 -8.203125 -0.58203125 C-5.110229253084526 -0.985616426731653 -2.984803075726134 -0.8140372024707645 0 0 Z " fill="#C57A24" transform="translate(74,9)"/>
<path d="M0 0 C3.0240363512190243 1.2423459251233187 6.043583453327443 2.4952697624736047 9.0625 3.75 C9.910058593749994 4.098046875 10.757617187500003 4.446093749999999 11.630859375 4.8046875 C16.652013091154316 6.8984504395546935 21.33919445257409 9.192133428687786 26 12 C25.76603515625 13.181425781249999 25.76603515625 13.181425781249999 25.52734375 14.38671875 C23.547203748748828 25.467634651041337 24.14070886740359 35.1755407123136 27 46 C26.504999999999995 46.989999999999995 26.504999999999995 46.989999999999995 26 48 C25.340000000000003 48 24.680000000000007 48 24 48 C22.59765625000003 46.32031250000004 22.59765625000003 46.32031250000004 21.0625 44.125 C18.7644815415471 40.84547493653014 16.93035570764458 38.584956275043815 12.9375 37.375 C9.458669021144019 36.930893917592854 6.084478962096668 36.98924163163902 2.58203125 37.03125 C-1.0091378880749744 36.987786530855374 -4.449696699975121 36.52597085926295 -8 36 C-12.787080701129995 22.094670344336684 -12.787080701129995 22.094670344336684 -9.79296875 15.234375 C-7.272930378333683 10.46225170378126 -4.554136583255243 6.080675336330092 -1 2 C-0.6700000000000017 1.3399999999999999 -0.3400000000000034 0.6799999999999997 0 0 Z " fill="#C98634" transform="translate(75,11)"/>
<path d="M0 0 C17.819999999999993 0 35.64 0 54 0 C54 7.260000000000001 54 14.520000000000001 54 22 C37.732886780087284 24.71118553665212 24.509695141544483 23.871057726840096 10 16 C8.021241970240695 15.124076285223689 6.042133769749057 14.24894269383844 4.0625 13.375 C1.72265625 12.3359375 1.72265625 12.3359375 0 11 C-1.498433281354579 6.827329331347543 -0.7747192409676416 4.6483154458058324 0 0 Z " fill="#A17324" transform="translate(74,0)"/>
<path d="M0 0 C24.42 0 48.84 0 74 0 C74 6 74 6 73 8 C70.6519117942941 8.611481303569247 68.38519577981481 9.089682728089397 66 9.5 C64.92890991210938 9.692271728515625 64.92890991210938 9.692271728515625 63.836181640625 9.888427734375 C56.601926166786676 11.14528987526544 49.32906709487955 11.96924749699423 42.033203125 12.7705078125 C34.59560204559209 13.610006493412996 27.182584328950792 14.641921954459324 19.79296875 15.828125 C18.446824951171877 16.040941162109373 18.446824951171877 16.040941162109373 17.073486328125 16.258056640625 C15.310368382807631 16.538643310833383 13.548400140345535 16.826579697061803 11.787841796875 17.122802734375 C10.97871337890625 17.25114501953125 10.1695849609375 17.3794873046875 9.3359375 17.51171875 C8.6197021484375 17.62990966796875 7.903466796875 17.7481005859375 7.16552734375 17.869873046875 C5 18 5 18 0 17 C0 11.39 0 5.779999999999999 0 0 Z " fill="#985E10" transform="translate(0,0)"/>
<path d="M0 0 C8.853609521320749 3.2443428178799536 17.21032587953124 3.5422960511745245 26.590087890625 3.676025390625 C34.126016607706276 3.8058648485489073 40.105393268073556 4.163891174303622 45.95703125 9.4765625 C51.09731313024878 15.122209171846265 51.867228125636245 20.736145413360248 51.62109375 28.21484375 C51.311840978028044 31.369222024113924 50.6364065133711 34.10421815741503 49.34765625 37.00390625 C46.01400194208675 36.44829719868113 43.19563889674029 35.86333293671473 40.34765625 34.00390625 C39.66015625 31.98046875 39.66015625 31.98046875 39.34765625 29.62890625 C38.78248855787096 26.624339544835394 38.40003088789216 25.081498306136524 36.66015625 22.50390625 C31.878966636723106 19.40259406841499 27.198766326176496 19.98528319658567 21.78515625 20.69140625 C18.10252976684083 21.09720531150515 15.818262210954629 21.226962698766968 12.66015625 19.19140625 C11.897031249999998 18.469531250000003 11.133906250000003 17.74765625 10.34765625 17.00390625 C10.34765625 16.343906250000003 10.34765625 15.68390625 10.34765625 15.00390625 C9.357656249999998 14.673906250000002 8.367656250000003 14.343906250000003 7.34765625 14.00390625 C5.769531249999986 12.296874999999986 5.769531249999986 12.296874999999986 4.09765625 10.19140625 C-0.03600730563633192 5.354325156534799 -3.5544460296325653 2.3981841416831315 -10.08984375 1.56640625 C-16.7192669017467 2.380545935302223 -21.65995533978913 4.479554253246398 -26.65234375 9.00390625 C-25.250170597287152 4.54244621864094 -23.262751248937914 1.9724635269045052 -19.65234375 -0.99609375 C-12.839480191314692 -4.0685616294071 -6.75777469232262 -2.537897712138836 0 0 Z " fill="#A26120" transform="translate(49.65234375,42.99609375)"/>
<path d="M0 0 C4.2488644800346265 3.7949798471525895 6.398158196287831 9.021082831116246 9 14 C9.409921875000002 14.766992187499994 9.819843749999997 15.533984375000003 10.2421875 16.32421875 C13.169713008869216 21.933528575388095 14 25.702191838805774 14 32 C1.4600000000000009 32 -11.080000000000002 32 -24 32 C-24 26.39 -24 20.78 -24 15 C-22.164375 14.298749999999998 -20.32875 13.597499999999997 -18.4375 12.875 C-12.942397981482213 10.610784410315574 -9.309139817895657 8.028108960206808 -5 4 C-4.34 4 -3.6799999999999997 4 -3 4 C-3 3.3400000000000034 -3 2.680000000000007 -3 2 C-2.0100000000000016 1.3400000000000034 -1.0199999999999996 0.6800000000000068 0 0 Z " fill="#F1B963" transform="translate(24,96)"/>
<path d="M0 0 C0.4125000000000014 0.37511718749999545 0.8249999999999993 0.7502343750000051 1.25 1.13671875 C4.400606178329511 3.9286621714214647 7.484369025501785 6.375145039598948 11.125 8.5 C15.018950573550796 10.833369226154716 17.201648931405757 13.445337831785693 20 17 C20.845625 17.659999999999997 21.691249999999997 18.319999999999993 22.5625 19 C27.080864185702012 22.707375742114465 29.128912806897347 26.23710037207134 29.8125 32 C30.156678997741054 36.05222065264937 29.702370725119266 38.78577564928443 29 43 C23.72 43 18.439999999999998 43 13 43 C12.659687500000004 40.834374999999994 12.659687500000004 40.834374999999994 12.3125 38.625 C11.15329503436287 32.837138587065326 8.852684110748406 28.128329555220077 6 23 C5.537226562499999 22.155664062499994 5.074453124999998 21.311328125000003 4.59765625 20.44140625 C3.7438369349967644 18.89463212861733 2.8838960632680894 17.351208213386485 2.015625 15.8125 C0.013967912828107387 12.240311967508617 -0.10645308649893792 10.006590130900321 -0.0625 5.875 C-0.05347656249999844 4.779296875 -0.044453125000000426 3.68359375 -0.03515625 2.5546875 C-0.023554687499999005 1.7116406250000011 -0.011953125000001563 0.8685937500000023 0 0 Z " fill="#CCAD62" transform="translate(25,85)"/>
<path d="M0 0 C3.2622240900363373 3.0292080836051696 5.538425983683915 6.307638975525876 8 10 C8.66 10.329999999999998 9.32 10.659999999999997 10 11 C10 11.659999999999997 10 12.319999999999993 10 13 C10.572343750000002 13.278437499999995 11.144687500000003 13.556875000000005 11.734375 13.84375 C13.999999999999993 15 13.999999999999993 15 16.015625 16.21875 C23.68747349587928 20.617991794839867 31.35193460177419 21.281116151760386 40 22 C40 22.659999999999997 40 23.319999999999993 40 24 C38.8798046875 24.31453125 37.759609375 24.629062500000003 36.60546875 24.953125 C35.13259300131784 25.38466821298968 33.659948541149745 25.817001374829573 32.1875 26.25 C31.449511718750003 26.454960937500005 30.7115234375 26.659921874999995 29.951171875 26.87109375 C25.559876378725136 28.17344957683612 25.559876378725136 28.17344957683612 22.0625 31.03125 C20.997806730678327 33.004063999037214 19.944196371235122 34.966346277339724 19 37 C12.049136616188129 36.18225136661036 7.7722355577359075 32.06579450513651 3.39453125 26.9765625 C-0.6066051811860014 21.30548397288483 -1.4352498454508655 17.000041243615883 -1.25 10.25 C-1.2448437500000011 9.483007812500006 -1.2396874999999987 8.716015624999997 -1.234375 7.92578125 C-1.15543060578662 2.31086121157324 -1.15543060578662 2.31086121157324 0 0 Z " fill="#936D34" transform="translate(22,58)"/>
<path d="M0 0 C-1.300781249999993 1.499999999999993 -1.300781249999993 1.499999999999993 -3 3 C-5.333333333333329 3 -7.666666666666664 3 -10 3 C-15.14314553019608 4.288226204906799 -19.0488169726969 6.419240381506569 -23 10 C-21.597826847287152 5.53853996864094 -19.610407498937914 2.968557276904505 -16 0 C-10.157172865012583 -2.584327386629049 -5.892105307891484 -1.7369017914419302 0 0 Z " fill="#985E10" transform="translate(46,42)"/>
</svg>
