<?xml version="1.0" encoding="UTF-8"?>
<!-- Generator: visioncortex VTracer 0.6.0 -->
<svg version="1.1" xmlns="http://www.w3.org/2000/svg" width="128" height="128">
<path d="M0 0 C42.24 0 84.48 0 128 0 C128 42.24 128 84.48 128 128 C85.75999999999999 128 43.519999999999996 128 0 128 C0 85.75999999999999 0 43.519999999999996 0 0 Z " fill="#897C4A" transform="translate(0,0)"/>
<path d="M0 0 C0.9539062500000028 0.5426953125000011 1.9078125000000057 1.0853906250000023 2.890625 1.64453125 C9.653267512381959 5.64967915506044 14.436436990588987 9.30931097176694 17 17 C17.40151764016659 21.192770742508806 17.644557398098044 24.798779394453646 15.625 28.5625 C14 30 14 30 12 30 C12.179179687499996 31.1253515625 12.358359375000006 32.250703125 12.54296875 33.41015625 C13.952861884282882 43.1606690868653 13.914204043571502 51.07854078562819 11.51611328125 60.728515625 C10.411319460387944 65.59086269657078 9.645207849431372 70.52272161546162 8.8125 75.4375 C8.465018273809818 77.45706128598627 8.117376152575389 79.47659498504792 7.76953125 81.49609375 C7.512750320901986 82.9973495888666 7.256130500720161 84.49863305422014 7 86 C7.957773437499995 86.02578125 8.915546875000004 86.0515625 9.90234375 86.078125 C20.394025774746837 86.48379982473983 29.82567275403636 88.37163212812607 40 91 C40 96.28 40 101.56 40 107 C12.61 107 -14.780000000000001 107 -43 107 C-42.172396273950675 101.20677391765473 -41.608421521076416 98.65939864373094 -39 93.8125 C-35.633625534499 87.50864012349692 -34.7831237034388 83.12077173709281 -35 76 C-34.981953125 75.2072265625 -34.96390625 74.414453125 -34.9453125 73.59765625 C-35.12901119080482 64.87196843677123 -39.04306629507437 58.22434542261021 -43.10107421875 50.7353515625 C-44.23334547696596 48.549532957557304 -45.14883381647964 46.308398340646846 -46 44 C-46.66 44 -47.32 44 -48 44 C-48.33 43.34 -48.66 42.68 -49 42 C-50.35066665939861 41.362346212301084 -51.73178949009818 40.78839321399596 -53.125 40.25 C-61.22380735350315 36.76443734153029 -66.46936992015932 30.692314936793522 -72 24 C-72.585234375 23.337421875000004 -73.17046875 22.67484375 -73.7734375 21.9921875 C-76.49193300923456 18.737650622747367 -78.38667883837536 16.1976527936056 -78.625 11.875 C-77.9096589961115 7.4398857758912875 -77.01488483165556 5.324103788748435 -74 2 C-68.42256881939981 -1.390203266639329 -64.14276580908195 -1.3484120068716479 -58 0 C-55.42782798136879 0.7321681901021755 -52.89018921166917 1.5146249260802982 -50.359375 2.37890625 C-45.047266248724696 3.7772924941271064 -42.213691369167464 2.6782586153512966 -37.421875 0.15625 C-24.42994215745535 -6.046350195795512 -12.459607167064732 -7.680844790876861 0 0 Z " fill="#673F23" transform="translate(88,21)"/>
<path d="M0 0 C8.832414048468653 1.2617734354955203 13.133638315544433 4.9656203912484855 18.443359375 11.87939453125 C19.953127935122545 13.953082589885952 21.447222504267334 16.03726783281759 22.9375 18.125 C29.405903504347975 27.097368224556718 35.77428797277382 31.917564044979713 46.5625 34.875 C51.6405317069777 36.41220494105147 51.6405317069777 36.41220494105147 53.19921875 38.9609375 C53.77803612057068 41.3665189124427 53.96323324105522 43.528456759823 54 46 C54.0631640625 46.6870703125 54.126328125 47.374140624999995 54.19140625 48.08203125 C54.643326308633895 55.473110918625295 51.40252557294385 61.53833659905487 47.96484375 67.84765625 C46.65305777641753 70.77394803722243 45.88099283891691 73.91652506379081 45 77 C30.15 77 15.299999999999997 77 0 77 C0 51.59 0 26.180000000000007 0 0 Z " fill="#CB9B7A" transform="translate(0,51)"/>
<path d="M0 0 C1.2859712722215875 3.711987998540323 0.7837613339861775 6.72326335311061 0.1875 10.5625 C-0.09673828124999773 12.409082031249994 -0.09673828124999773 12.409082031249994 -0.38671875 14.29296875 C-1.199646124639429 19.20677816740644 -2.061647606685355 24.108588588040703 -3 29 C-1.5633398437500006 29.038671875000006 -1.5633398437500006 29.038671875000006 -0.09765625 29.078125 C10.394025774746837 29.483799824739833 19.825672754036333 31.371632128126052 30 34 C30 39.28 30 44.56 30 50 C2.6099999999999994 50 -24.78 50 -53 50 C-52.172396273950675 44.20677391765473 -51.608421521076416 41.659398643730924 -49 36.8125 C-44.15091321347225 27.73211873388192 -44.70578685707702 19.98392995969155 -46 10 C-41.154973528436614 10.206171339215459 -38.507848576466785 11.136882456661255 -34.5625 14 C-29.560192003662664 17.512618982199655 -25.82892822342467 18.653883869141183 -19.78125 17.62109375 C-10.942243827270005 15.214583507767003 -5.285625039090974 9.258303932897832 -0.8125 1.50390625 C-0.5443750000000023 1.0076171875000028 -0.27625000000000455 0.5113281250000057 0 0 Z " fill="#74524D" transform="translate(98,78)"/>
<path d="M0 0 C3.4276206950841868 1.1425402316947313 3.8554564958187996 2.169377897982592 5.69140625 5.10546875 C8.605060853269677 9.323744817420284 12.360397405230145 14.680198702615073 17 17 C17 17.659999999999997 17 18.319999999999993 17 19 C19.64 19.659999999999997 22.28 20.319999999999993 25 21 C25 34.86 25 48.72 25 63 C19.441191975304037 62.38235466392267 15.49488425710345 61.87144396492691 10.38671875 60.47265625 C5.9681810153151815 59.59762668224735 1.4671342003834411 59.48168048802867 -3.0234375 59.24609375 C-6 59 -6 59 -8 58 C-8.125223664337753 52.609419401841635 -7.757925926791543 47.81370408786775 -6.6875 42.5 C-6.5550488281249955 41.820744628906255 -6.422597656250005 41.14148925781251 -6.2861328125 40.441650390625 C-5.72415504457453 37.563993643688974 -5.143383027876098 34.69062051722415 -4.54736328125 31.81982421875 C-4.249603201159516 30.384691758900175 -3.9561641701884014 28.948655402984627 -3.667236328125 27.51171875 C-3.2718801931132475 25.546273622404968 -2.8628977496974244 23.583583830658725 -2.453125 21.62109375 C-1.9749807276532891 17.800061504608564 -2.3279887449180876 14.775642183157615 -3 11 C-3.1259786195358856 9.398617932438128 -3.216249209799315 7.793475100382857 -3.25 6.1875 C-3.2886718750000057 5.064082031250003 -3.2886718750000057 5.064082031250003 -3.328125 3.91796875 C-3.165703124999993 2.9685742187499997 -3.165703124999993 2.9685742187499997 -3 2 C-2.010000000000005 1.3400000000000034 -1.019999999999996 0.6799999999999997 0 0 Z " fill="#886952" transform="translate(103,49)"/>
<path d="M0 0 C5.844619294600534 1.1460037832550043 8.825897732920424 4.667865926245447 12.15234375 9.44921875 C18.22061573541916 19.33963341744186 18.22061573541916 19.33963341744186 18.1875 25.625 C16.814719266714306 28.978816982109464 14.945820534159765 31.950979588525612 13 35 C9.242215891170503 41.0593657931711 5.903699081442284 47.021877515154145 3.1875 53.625 C-0.012447169740227082 53.37275772915419 -2.847531043203432 52.883365839908095 -5.8125 51.625 C-7.960179404528141 49.10557892707483 -9.02708070558176 46.32741152088008 -10.1875 43.25 C-10.816528045221368 41.71979300019618 -11.44923483788007 40.191092121183885 -12.0859375 38.6640625 C-12.374365234374999 37.952822265625 -12.662792968749997 37.241582031250005 -12.9599609375 36.5087890625 C-13.961614588729539 34.29551312524711 -15.295960188176736 32.51369682085965 -16.8125 30.625 C-16.8125 29.965000000000003 -16.8125 29.305000000000007 -16.8125 28.625 C-17.472499999999997 28.625 -18.1325 28.625 -18.8125 28.625 C-19.1425 27.305 -19.472499999999997 25.985 -19.8125 24.625 C-18.822499999999998 24.295 -17.832500000000003 23.965000000000003 -16.8125 23.625 C-16.08177856035187 21.98540602591349 -15.429985594627034 20.310506974963417 -14.8125 18.625 C-13.552706606559802 16.244481314992875 -12.271201820368077 13.9001966851433 -10.9375 11.5625 C-10.598476562499997 10.950839843750003 -10.259453125 10.3391796875 -9.91015625 9.708984375 C-5.0240229272652215 1.1164495393922707 -5.0240229272652215 1.1164495393922707 0 0 Z " fill="#7E3D26" transform="translate(58.8125,36.375)"/>
<path d="M0 0 C1.7325000000000017 0.4640625000000007 1.7325000000000017 0.4640625000000007 3.5 0.9375 C6 2 6 2 7.146728515625 3.774658203125 C8.695147641444372 7.812953004796984 8.129913117974894 11.927769588217402 7.9375 16.1875 C7.915263671874996 17.549716796875003 7.915263671874996 17.549716796875003 7.892578125 18.939453125 C7.612747478769222 25.5652736806677 6.0456627741472175 30.66877224694432 2 36 C-1 38 -1 38 -3.6875 38 C-12.870288102598728 35.22783755393246 -18.988049294776374 27.05347218245791 -25 20 C-25.5762109375 19.345156250000002 -26.152421875 18.690312500000005 -26.74609375 18.015625 C-29.1084272881969 15.097841932991933 -30.331717587825864 12.644005407645224 -30.5625 8.9375 C-29.91876178886519 4.431332522056319 -29.051972642797693 2.3649954779564304 -26 -1 C-17.340960137223995 -6.263337955805024 -8.95277732709264 -2.9183926091711143 0 0 Z " fill="#614B3D" transform="translate(40,24)"/>
<path d="M0 0 C1.5981506327683235 0.1348904695346107 3.195702229099112 0.27689036288889923 4.79296875 0.421875 C6.127510986328133 0.5393408203125034 6.127510986328133 0.5393408203125034 7.489013671875 0.6591796875 C12.133995545479692 1.2896507322790143 15.140455227244246 3.350566171695654 18.8125 6.125 C21.778749941429112 10.02349992302112 22.651132357171974 13.124447959712313 22 18 C18.890700633004627 25.20682566458619 12.754128263832612 31.585469007860837 5.76953125 35.1328125 C0.7751859709993738 37.041150971494204 -3.8651843178815284 37.75664747019843 -9 36 C-11.565412298347695 34.51245104373375 -13.684936500056011 32.8809890937045 -16 31 C-11.998367672495917 19.923658585195895 -6.028761289370408 10.067446036618549 0 0 Z " fill="#582417" transform="translate(77,60)"/>
<path d="M0 0 C9.283867367389401 1.326266766769912 11.68206910280338 4.442574419080358 17.05078125 11.48828125 C22.64179428055307 18.692732910612477 27.445462577678505 24.52018816719125 36 28 C37.33845034378668 28.656332918144088 38.67317270392084 29.32047696977844 40 30 C40 30.659999999999997 40 31.319999999999993 40 32 C40.66 32 41.32 32 42 32 C46.48261840006857 39.48522739963943 50.662226119549096 46.52556968336546 53 55 C46.368690708562156 53.96725511034984 40.753764710003644 52.50127669979938 35 49 C34.3541796875 48.61328125 33.708359375 48.2265625 33.04296875 47.828125 C27.548374015825242 44.14338691396566 24.075836275400487 39.371935112796535 20.234375 34.046875 C14.548416224837162 26.29329485205068 9.760440409938576 19.95208808198771 0 18 C0 12.060000000000002 0 6.119999999999997 0 0 Z " fill="#A06F4F" transform="translate(0,33)"/>
<path d="M0 0 C11.179268857783846 1.5970384082548321 16.62315729910716 9.096368937820543 23.1875 17.6875 C23.9285498046875 18.631335449218753 23.9285498046875 18.631335449218753 24.6845703125 19.59423828125 C26.965068959037627 22.70840591539681 27.994878627456313 24.29239702688055 28.0234375 28.23828125 C26.896133835811575 31.280280069012278 25.95075689412087 32.49332913346123 23.4375 34.5 C22.7220703125 35.07878906249999 22.006640625 35.657578125 21.26953125 36.25390625 C20.5205859375 36.83011718750001 19.771640625 37.406328125 19 38 C17.89205078125 38.879785156249994 17.89205078125 38.879785156249994 16.76171875 39.77734375 C11.326911764705873 44 11.326911764705873 44 9 44 C9 44.66 9 45.31999999999999 9 46 C2.2499999999999947 50 2.2499999999999947 50 0 50 C0 33.5 0 17 0 0 Z " fill="#E1A56D" transform="translate(0,51)"/>
<path d="M0 0 C0 5.280000000000001 0 10.560000000000002 0 16 C-15.180000000000007 16 -30.36 16 -46 16 C-44.97973071207514 7.837845696601164 -44.06293605483654 3.442853689397907 -37.9375 -1.875 C-27.961629693024562 -9.09158703057797 -10.824962751956022 -2.7733375645507152 0 0 Z " fill="#7A5138" transform="translate(128,112)"/>
<path d="M0 0 C0.9539062500000028 0.5426953125000011 1.9078125000000057 1.0853906250000023 2.890625 1.64453125 C9.653267512381944 5.649679155060433 14.436436990588987 9.309310971766948 17 17 C17.406887204404796 21.248841384457847 17.69189113699882 24.81801930762701 15.5 28.5625 C15.004999999999995 29.036875000000002 14.509999999999991 29.511249999999997 14 30 C11.259513095641637 29.91939744398946 9.526817784856519 29.536948896103752 7.578125 27.55078125 C6.582183252892278 26.316563117159518 5.591551396060112 25.078046745679828 4.60546875 23.8359375 C2.5453527623711807 21.4800871005218 0.24080418477518606 19.911122048919978 -2.34765625 18.18359375 C-4 17 -4 17 -6.5 14.4375 C-11.525939908901506 9.537208588821034 -17.039664544365962 6.861500951123503 -24.10546875 6.90234375 C-25.579833984375 6.907177734375001 -25.579833984375 6.907177734375001 -27.083984375 6.912109375 C-28.620224609375 6.924677734374999 -28.620224609375 6.924677734374999 -30.1875 6.9375 C-31.223261718750003 6.942011718750003 -32.2590234375 6.946523437499998 -33.326171875 6.951171875 C-35.88417266179484 6.962959897058962 -38.44205733171641 6.979414847909069 -41 7 C-41.66 5.68 -42.32 4.359999999999999 -43 3 C-28.77078760109186 -4.812116611165251 -14.47297786772576 -8.922006542681872 0 0 Z " fill="#735B29" transform="translate(88,21)"/>
<path d="M0 0 C1.655882540595094 0.2277933653728752 3.3015283067367065 0.532314394237531 4.9375 0.875 C6.281347656249999 1.1495703125000034 6.281347656249999 1.1495703125000034 7.65234375 1.4296875 C10 2 10 2 12 3 C15.05364835316555 11.614304304917638 14.80979809384862 19.753475012049194 11 28 C9.988069864571507 30.019983143901314 8.955275227811711 32.02810731783558 7.91796875 34.03515625 C6.5563821427513105 36.949530988068474 5.779137368407618 39.883450526369515 5 43 C1.7000000000000028 43 -1.6000000000000014 43 -5 43 C-5.268124999999998 41.5975 -5.536250000000003 40.19499999999999 -5.8125 38.75 C-6.598262048112723 34.730086913278384 -7.593051503049892 30.821039076159565 -8.6875 26.875 C-10.10144614945445 21.21196439628757 -11.007787281300494 16.452238562811644 -7.9140625 11.1328125 C-6.665762790673007 9.370062001374606 -5.341931619651639 7.691821765879823 -4 6 C-2.9894047882597405 4.339736437855294 -1.9854699892365062 2.6752989817020705 -1 1 C-0.6700000000000017 0.6700000000000017 -0.3400000000000034 0.3400000000000034 0 0 Z " fill="#A8857D" transform="translate(40,85)"/>
<path d="M0 0 C0 13.530000000000001 0 27.060000000000002 0 41 C-6 40 -6 40 -8 39 C-8 38.34 -8 37.68000000000001 -8 37 C-8.563320312499997 36.77054687500001 -9.126640624999993 36.54109375 -9.70703125 36.3046875 C-12.613922479433853 34.650681246795735 -14.45597129434347 32.61103363241736 -16.6875 30.125 C-17.475117187500004 29.261328125 -18.262734374999994 28.397656249999997 -19.07421875 27.5078125 C-20.856232127003167 25.18721901513989 -21.60896815385881 23.849893115944226 -22 21 C-22.659999999999997 21 -23.319999999999993 21 -24 21 C-24.143948375247845 16.951451946154407 -24.19446536936249 13.367230934008447 -21.43359375 10.20703125 C-16.056212441367748 6.113486574739838 -7.007420132610235 0 0 0 Z " fill="#9F8C5F" transform="translate(128,29)"/>
</svg>
