<?xml version="1.0" encoding="UTF-8"?>
<!-- Generator: visioncortex VTracer 0.6.0 -->
<svg version="1.1" xmlns="http://www.w3.org/2000/svg" width="128" height="128">
<path d="M0 0 C42.24 0 84.48 0 128 0 C128 42.24 128 84.48 128 128 C85.75999999999999 128 43.519999999999996 128 0 128 C0 85.75999999999999 0 43.519999999999996 0 0 Z " fill="#9E8581" transform="translate(0,0)"/>
<path d="M0 0 C12.540000000000001 0 25.080000000000002 0 38 0 C38.99 2.31 39.98 4.62 41 7 C43.1500123312058 10.281597768682543 46.05370291343161 10.716111553315045 49.755615234375 11.609619140625 C53.3442324393148 12.233811342376196 56.815992174030214 11.994667572445504 60.4375 11.8125 C67.38055802404446 11.648176186164184 72.58557528474346 12.209826604855387 78 17 C87.17387764206946 27.13954897281361 86.3921640074892 44.41851036999647 85.8125 57.3125 C84.91057163275032 67.325046557949 82.03895548900691 75.53498684066831 74.47412109375 82.380859375 C72.86617999336067 83.71367373063339 71.2269003909725 84.988559703684 69.5625 86.25 C69.01529296875 86.683125 68.4680859375 87.11625 67.904296875 87.5625 C64.41734282781415 90.23651919831529 61.35783799073008 92.25776178738533 57 93 C50.492075895017166 91.13541081941963 47.04966264753658 87.37479599692831 42.626953125 82.470703125 C38.81674447987515 78.41696583145172 35.08428652524512 76.27613690180877 30 74 C30.1922314453125 74.7049560546875 30.384462890625 75.409912109375 30.58251953125 76.13623046875 C31.452540166717693 79.37691135925047 32.28887136333813 82.62541708895607 33.125 85.875 C33.4279296875 86.98359375 33.730859375 88.0921875 34.04296875 89.234375 C36.097712232512364 97.35777946574656 36.68072017369413 104.04178775673287 32.59765625 111.59375 C31.83775390625 112.53734375 31.83775390625 112.53734375 31.0625 113.5 C27.237254955167415 118.27421887948414 27.025001281115777 121.24999572961408 25 128 C16.75 128 8.5 128 0 128 C0 85.75999999999999 0 43.519999999999996 0 0 Z " fill="#68556D" transform="translate(0,0)"/>
<path d="M0 0 C0.9900000000000091 0 1.9799999999999898 0 3 0 C4.761718749999986 2.2304687499999787 4.761718749999986 2.2304687499999787 6.6875 5.1875 C11.200077340267896 11.644723928891636 15.356139580250044 15.089034895062511 23 17 C23 44.39 23 71.78 23 100 C5.509999999999991 100 -11.980000000000004 100 -30 100 C-37.24904402497708 78.25286792506876 -37.24904402497708 78.25286792506876 -32.9541015625 68.7978515625 C-31.330338386853 65.73812995925933 -29.27818078504896 63.07779149594735 -27.125 60.375 C-26.7034765625 59.82843750000001 -26.281953125 59.281875 -25.84765625 58.71875 C-23.116596898207334 55.22767107324361 -20.173061199859134 52.10361709952551 -17 49 C-13.453347988512263 44.763721208500755 -11.897065085461847 42.598471033258136 -11.7890625 37.08984375 C-11.746523437500002 35.603876953125 -11.746523437500002 35.603876953125 -11.703125 34.087890625 C-11.651723831598488 32.01513850920915 -11.607260738845241 29.942200740210055 -11.5703125 27.869140625 C-11.301499688190404 19.18312664340238 -10.100468445508682 11.821834743584809 -4.375 5 C-3.458476562499996 3.8862500000000004 -3.458476562499996 3.8862500000000004 -2.5234375 2.75 C-1.7065620354812125 1.811640492039956 -0.8797170257280982 0.8797170257281053 0 0 Z " fill="#DCA181" transform="translate(105,28)"/>
<path d="M0 0 C4.62 0 9.24 0 14 0 C15.46484375 2.9947916666666674 16.9296875 5.989583333333333 18.39453125 8.984375 C19.870170996133766 11.95845190749008 19.870170996133766 11.95845190749008 21.69921875 14.203125 C23 16 23 16 23 19 C23.598125 19.103125 24.19625 19.20625 24.8125 19.3125 C27.312582855222836 20.098240325927176 28.375350822136618 20.969188527670774 30 23 C30 23.66 30 24.32 30 25 C35.69218975385044 27.944236079577816 38.93358218263649 27.86436088973114 45 26 C45.99515625 25.6377734375 46.9903125 25.275546875 48.015625 24.90234375 C49.06234375 24.5220703125 50.1090625 24.141796875 51.1875 23.75 C52.1710546875 23.37359375 53.154609375 22.9971875 54.16796875 22.609375 C57.60071855726692 21.870741938022565 58.91092935246355 22.435535188183152 62 24 C62.7644140625 24.306796875 63.528828125 24.61359375 64.31640625 24.9296875 C72.37122557726465 28.319715808170525 72.37122557726465 28.319715808170525 75 32 C79.16550115893727 43.34948141855374 78.80727479888193 60.208812262037696 75.30859375 71.67578125 C72.74683948846022 76.2257626996005 68.68187228045275 78.88184694778931 64 81 C59.51120216391225 82.01288533169428 57.081261104857056 82.24469360767138 53 80 C47.33468635570881 76.05891224744961 43.53234319599447 70.90465652584875 40 65 C40 64.34 40 63.68 40 63 C39.34 63 38.68 63 38 63 C34 58.52941176470587 34 58.52941176470587 34 56 C26.326916313951678 55.39102510428188 22.3893810369107 56.915648830835565 16 61 C13.902499481056967 62.28180587268741 11.798059223469487 63.55231172579249 9.6875 64.8125 C8.7013671875 65.4170703125 7.715234375 66.021640625 6.69921875 66.64453125 C3.9999999999999947 68 3.9999999999999947 68 0 68 C0 45.56 0 23.119999999999997 0 0 Z " fill="#484D79" transform="translate(0,0)"/>
<path d="M0 0 C4.498739937975486 0.49542073917314156 6.569922330691128 2.034336308736286 9.8125 5.125 C10.67875 5.931953125000007 11.545000000000002 6.738906249999999 12.4375 7.5703125 C13.283124999999998 8.372109375000008 14.128749999999997 9.173906250000002 15 10 C16.427897474612564 11.343611859791679 17.864462969582704 12.67811771086906 19.3125 14 C19.906757812500004 14.556875000000005 20.501015625 15.113749999999996 21.11328125 15.6875 C23.443617531010325 17.308603499833268 25.181305988041508 17.744156099071063 28 18 C34.57362399199897 15.506556416827976 39.149246387648475 11.470856337491355 44.2890625 6.73046875 C47 5 47 5 50.3359375 5.23828125 C51.6546484375 5.615332031250006 51.6546484375 5.615332031250006 53 6 C53 9.366296606829977 52.60679968656568 9.877865109842716 50.62890625 12.43359375 C49.891240234375005 13.407158203124993 49.891240234375005 13.407158203124993 49.138671875 14.400390625 C48.618535156250005 15.072636718750005 48.09839843750001 15.744882812499995 47.5625 16.4375 C46.53709835265053 17.765017488516108 45.517341659400316 19.0969188113269 44.50390625 20.43359375 C44.048303222656244 21.021970214843748 43.5927001953125 21.610346679687495 43.123291015625 22.216552734375 C40.02928507896053 27.128900782045946 40.458203874237626 33.42723984930126 41 39 C41.88259049472936 42.23744984966228 42.9362864897396 45.33186712570172 44.125 48.46875 C45 51 45 51 45 54 C28.5 54 12 54 -5 54 C-3.8709175738724717 46.09642301710731 -3.8709175738724717 46.09642301710731 -2.1875 42.9375 C-1.8342968749999997 42.26460937499999 -1.4810937499999994 41.59171875 -1.1171875 40.8984375 C0 39 0 39 2.1875 36.0625 C6.060665872913312 29.518185249215435 5.112712636994452 23.018063675606243 3.310546875 15.890625 C3.063691406250001 14.977968750000002 2.8168359375000023 14.065312500000005 2.5625 13.125 C2.081938133874509 11.274135730466284 1.6039540430579144 9.422599693099755 1.12890625 7.5703125 C0.9130688476562483 6.763520507812501 0.6972314453125001 5.956728515625002 0.474853515625 5.12548828125 C0 3 0 3 0 0 Z " fill="#988587" transform="translate(30,74)"/>
<path d="M0 0 C4.963553618863543 3.3090357459090285 5.028880645829474 8.899865920229786 6.3125 14.5 C6.601894531249997 15.647265625000003 6.8912890625 16.794531250000006 7.189453125 17.9765625 C9.093729700442573 26.152380755445392 9.688853779733776 33.02674398400214 5.59765625 40.59375 C5.091054687499998 41.2228125 4.584453125 41.85187500000001 4.0625 42.5 C0.23725495516739414 47.27421887948418 0.02500128111579869 50.249995729614 -2 57 C-10.25 57 -18.5 57 -27 57 C-27.299511627779598 50.30322719426127 -27.557634929344577 43.629793424486905 -27.714111328125 36.931640625 C-27.77931610783044 34.65740145988917 -27.867912682206878 32.383703876587134 -27.980712890625 30.111328125 C-28.86812459910199 11.768809191412288 -28.86812459910199 11.768809191412288 -25.77874755859375 7.18994140625 C-22.363406715412353 3.962139062069568 -18.458183634152274 2.420884023805627 -14 1 C-12.372880859375 0.4262060546874977 -12.372880859375 0.4262060546874977 -10.712890625 -0.1591796875 C-6.689892781791357 -1.406048349487989 -4.114799324246977 -0.8094687195239914 0 0 Z " fill="#9B6868" transform="translate(27,71)"/>
<path d="M0 0 C4.3638378298348925 3.3940960898715886 6.04499695458469 6.670736601475397 7 12 C7.3011388299512845 15.837276795004968 7.324816348291463 19.65237279374604 7.3125 23.5 C7.32861328125 24.5067578125 7.3447265625 25.513515624999997 7.361328125 26.55078125 C7.365922605496436 33.561958487560496 6.767558016268154 38.57583731024917 2.23828125 44.1796875 C-1.0329653294357968 47.05944615207939 -3.840660773514486 49.37733909468284 -8.1875 50.25 C-12 50 -12 50 -14.9375 47.75 C-17.546265276720213 44.27164629770638 -18.127148129501464 41.91041416150212 -18.0625 37.68359375 C-18.0542822265625 36.84143310546875 -18.046064453125 35.9992724609375 -18.03759765625 35.131591796875 C-18.018986816406247 33.79801635742187 -18.018986816406247 33.79801635742187 -18 32.4375 C-17.94842215850641 26.970735385089625 -17.89981012368326 21.617991631953267 -18.625 16.1875 C-19.114100982065423 11.970856684920847 -18.817423558919103 8.937751044324713 -17 5 C-11.615839554266067 -0.8471717862761601 -7.795120529693158 -2.9567698560905065 0 0 Z " fill="#1C2455" transform="translate(70,27)"/>
<path d="M0 0 C0.9899999999999949 0 1.980000000000004 0 3 0 C4.76171875 2.2304687500000036 4.76171875 2.2304687500000036 6.6875 5.1875 C11.200077340267896 11.644723928891636 15.356139580250044 15.089034895062511 23 17 C23 22.28 23 27.560000000000002 23 33 C20.689999999999998 33.66 18.379999999999995 34.32 16 35 C14.033460620774974 36.478123174226994 14.033460620774974 36.478123174226994 12.5625 38.3125 C8.381360323799399 42.78425700795445 4.151473443341601 46.68485265566585 -2.125 47.3125 C-6.8096489713143455 45.17385590439997 -9.141329044036922 42.860648101333 -11 38 C-11.460645337276972 34.84895079492672 -11.553255941115012 31.744305068212654 -11.5625 28.5625 C-11.564916992187506 27.764086914062503 -11.567333984374997 26.965673828125 -11.56982421875 26.14306640625 C-11.350966067560009 18.2106743042306 -9.552802044017312 11.169296052446157 -4.375 5 C-3.458476562499996 3.8862500000000004 -3.458476562499996 3.8862500000000004 -2.5234375 2.75 C-1.7065620354812125 1.811640492039956 -0.8797170257280982 0.8797170257281053 0 0 Z " fill="#D98B81" transform="translate(105,28)"/>
<path d="M0 0 C0.6599999999999966 0.3299999999999983 1.3199999999999932 0.6599999999999966 2 1 C2 12.219999999999999 2 23.439999999999998 2 35 C-1.960000000000008 35.99000000000001 -5.920000000000002 36.97999999999999 -10 38 C-14.717041770790956 40.555351354100054 -14.717041770790956 40.555351354100054 -17 43 C-18.171920469394223 41.04480615565352 -19.337392898517535 39.08574610369067 -20.5 37.125 C-21.1496875 36.034453125 -21.799374999999998 34.94390625 -22.46875 33.8203125 C-24 31 -24 31 -24 29 C-31.380374472707985 26.827272935604654 -39.502327469278555 27.8682758444194 -47 29 C-45.58542919701077 24.499092899579693 -43.3816945287663 22.227981141095114 -40 19 C-36.10306459128651 14.930718553554712 -33.368864283312135 11.612343561579763 -32 6 C-31.4225 6.763125000000002 -30.845 7.5262500000000045 -30.25 8.3125 C-27.502172256633486 11.633901876738378 -27.502172256633486 11.633901876738378 -24 14 C-17.051729070410104 14.32317539207395 -12.150235116217218 8.686564146730703 -7.1953125 4.4609375 C-4.769121272762845 2.3968643663803206 -3.06290142821058 1.0209671427368647 0 0 Z " fill="#D8A1A9" transform="translate(126,60)"/>
<path d="M0 0 C4.62 0 9.24 0 14 0 C14.9075 1.835625 15.815 3.67125 16.75 5.5625 C18.475120938842295 9.045368278419195 20.213021300358292 12.418201065502583 22.3125 15.6875 C24.50444250068743 19.990201945793842 25.648438225219422 23.154527547810897 25 28 C21.991372994876826 36.122361450363485 17.69179823654845 44.314619967892874 11 50 C10.34 50 9.68 50 9 50 C9 50.66 9 51.32 9 52 C6.029999999999999 52.99 3.0599999999999996 53.98 0 55 C0 36.849999999999994 0 18.699999999999996 0 0 Z " fill="#281958" transform="translate(0,0)"/>
<path d="M0 0 C3.159543053192067 2.541371586263182 4.715408864957588 4.146226594872765 6 8 C6.659999999999997 8 7.32 8 8 8 C9.367187500000007 9.79296875 9.367187500000007 9.79296875 10.875 12.1875 C16.121538237774416 20.64471994707864 16.121538237774416 20.64471994707864 24.3125 25.8125 C31.5882262211272 26.32010880612515 35.998541015585914 22.750021788554463 41.62109375 18.62109375 C44.299325798714776 16.79602593355233 46.8474139385487 15.746665119817408 50 15 C49.51975174580528 20.44281354754017 46.36696687159963 23.853014267590964 42.468505859375 27.38916015625 C40.86144269357992 28.717560395584826 39.22412904986243 29.990660088525317 37.5625 31.25 C37.01529296875 31.683125000000004 36.46808593750001 32.11625000000001 35.904296875 32.5625 C32.41734282781415 35.23651919831529 29.357837990730076 37.257761787385334 25 38 C19.344096415668027 36.37235663517558 16.1610503697827 33.532888441307165 12.25 29.1875 C6.234086259509837 22.86622441404853 -0.30607508071123846 17.717534301653956 -9.0625 15.875 C-16.82178468896107 16.12132649806226 -23.161682854917437 19.810218728033377 -29.50390625 24.046875 C-31 25 -31 25 -32 25 C-32 21.039999999999992 -32 17.08 -32 13 C-30.576875 12.484375 -29.15375 11.96875 -27.6875 11.4375 C-22.51980750962933 9.386595014490155 -18.05906982935442 6.666259448752662 -13.4453125 3.5859375 C-8.757367916744574 0.5455133773135756 -5.727571055369921 -0.7033859190805174 0 0 Z " fill="#6A637C" transform="translate(32,55)"/>
<path d="M0 0 C7.260000000000005 0 14.519999999999996 0 22 0 C22 14.850000000000001 22 29.700000000000003 22 45 C13.753733770607738 43.62562229510129 9.383261577477569 40.09361493638639 4.125 33.6875 C-2.2387511361593795 24.069227734845867 -1.545066218863397 10.969970153930118 0 0 Z " fill="#925D51" transform="translate(106,0)"/>
<path d="M0 0 C5.470449643441776 0.9117416072403017 6.8623644862904465 1.2280781444046056 10.9375 4.3125 C13.830550051754516 6.44970814634118 16.61547790000462 8.415126166814616 19.8125 10.0625 C24.208566738110513 12.734618997675014 27.006331902066467 15.577934011287013 29 20.4375 C29 24.09101041969558 27.525858448803017 26.713535648731963 26 30 C25.67 31.650000000000006 25.34 33.3 25 35 C16.75 35 8.5 35 0 35 C0 23.450000000000003 0 11.900000000000006 0 0 Z " fill="#744B5F" transform="translate(0,93)"/>
<path d="M0 0 C0 10.89 0 21.78 0 33 C-6.269999999999996 33 -12.540000000000006 33 -19 33 C-19.13495382924593 28.936390252705777 -19.234116193185002 24.877260267692037 -19.3125 20.8125 C-19.354394531249994 19.662011718749994 -19.396289062500003 18.511523437500003 -19.439453125 17.326171875 C-19.562995432495725 8.801752657794964 -19.562995432495725 8.801752657794964 -16.76171875 4.8125 C-14.305632786670827 3.200585025481274 -12.299616371665948 2.030342252737455 -9.5 1.1875 C-8.767812500000005 0.9541796875000017 -8.035624999999996 0.7208593750000034 -7.28125 0.48046875 C-5 0 -5 0 0 0 Z " fill="#B27D82" transform="translate(128,95)"/>
<path d="M0 0 C3.698143260702949 1.9965856936262654 5.97033247739212 4.083890356213807 7.54296875 8.01171875 C10.472666101644606 19.39028523832291 12.113556491058034 37.65882493322447 6.60546875 48.19921875 C4.0258921783722315 50.32250229598607 1.0128268406364356 52.19921875 -2.39453125 52.19921875 C-2.2537817382812477 51.53929931640624 -2.1130322265624955 50.8793798828125 -1.968017578125 50.199462890625 C-0.5886429978301635 43.28313649132379 -0.05837827451027522 36.680574850839214 -0.08203125 29.63671875 C-0.057861328125 28.191357421874997 -0.057861328125 28.191357421874997 -0.033203125 26.716796875 C-0.028830480831260274 20.23216557276396 -0.7364399429924902 14.182777853063286 -3.39453125 8.19921875 C-5.5190066923827175 6.647442832977045 -5.5190066923827175 6.647442832977045 -8.39453125 6.19921875 C-10.009270243579195 5.515329293895871 -11.612941452331498 4.804947511254639 -13.20703125 4.07421875 C-14.392324218749998 3.5444140624999996 -14.392324218749998 3.5444140624999996 -15.6015625 3.00390625 C-16.193242187499997 2.7383593750000017 -16.784921875000002 2.4728125 -17.39453125 2.19921875 C-14.786973124605439 -3.0158975007891264 -4.700520109348346 -1.571952075720084 0 0 Z " fill="#584460" transform="translate(76.39453125,20.80078125)"/>
<path d="M0 0 C0.6599999999999966 0 1.3199999999999932 0 2 0 C6.017025045844605 4.284826715567576 10 9.982583080909855 10 16 C10.659999999999997 16 11.319999999999993 16 12 16 C13.311721924143939 21.847676364122634 13.034192689572421 27.55562991688879 12.8125 33.5 C12.79380859375 34.5196484375 12.775117187500001 35.539296875 12.755859375 36.58984375 C12.495695232847652 43.60971130491782 11.177032177251988 47.34890804760832 6.5078125 52.71484375 C3.6766892098981856 55.21806857994878 2.4502715179421557 56.02501508433012 -1.375 55.8125 C-2.2412499999999937 55.544375 -3.1075000000000017 55.276250000000005 -4 55 C-3.044521922546096 52.570600583334695 -2.0801178840117984 50.169608048794785 -0.96484375 47.80859375 C5.280260606753927 33.39498787718769 4.02091877806383 14.913953285909471 0 0 Z " fill="#99737D" transform="translate(82,25)"/>
</svg>
