<?xml version="1.0" encoding="UTF-8"?>
<!-- Generator: visioncortex VTracer 0.6.0 -->
<svg version="1.1" xmlns="http://www.w3.org/2000/svg" width="128" height="128">
<path d="M0 0 C42.24 0 84.48 0 128 0 C128 42.24 128 84.48 128 128 C85.75999999999999 128 43.519999999999996 128 0 128 C0 85.75999999999999 0 43.519999999999996 0 0 Z " fill="#929F9F" transform="translate(0,0)"/>
<path d="M0 0 C42.24 0 84.48 0 128 0 C128 22.11 128 44.22 128 67 C123.85028387630574 65.96257096907644 123.42593162562984 65.76144494930745 120.9375 62.6875 C117.86189531453547 59.016616988316535 114.72398745390743 55.41612791191157 111.5 51.875 C111.0232080078125 51.34704833984375 110.546416015625 50.8190966796875 110.05517578125 50.275146484375 C107.63025627914439 47.6277687904239 105.23681360917338 45.32445587836098 102.3125 43.25 C96.73378955620663 38.23695420237765 93.9268358862278 30.781136650688843 91 24 C91 23.34 91 22.68 91 22 C90.34 22 89.68 22 89 22 C87.91718750000001 20.88625 87.91718750000001 20.88625 86.8125 19.75 C79.86667000767227 12.95852178527955 72.66737821088994 11.617842676632215 63.19921875 11.72265625 C54.93157922728869 12.439386904594022 47.43679180183024 15.659378249532688 42 22 C37.079620326968566 29.94902246419661 35.83212489318891 39.809614324284134 33.9375 48.8125 C33.42845624716614 51.190056566662875 32.916618079018875 53.56699388089619 32.40380859375 55.94374084472656 C32.07158461961469 57.484593291465444 31.740996879483664 59.02579950753005 31.412109375 60.56736755371094 C30.46283887232043 64.98719730241994 29.418008176407128 69.36681822305414 28.27734375 73.7421875 C26.442490712842122 80.93568070997429 26.182180676604148 87.4950600425892 27.875 94.75 C32.30222399757836 101.52104846688455 39.0460994330549 105.55228845743584 46 109.4375 C54.348274145876886 114.16171715231792 60.91061605291197 118.7318481587359 64 128 C42.879999999999995 128 21.759999999999998 128 0 128 C0 85.75999999999999 0 43.519999999999996 0 0 Z " fill="#4B4C4C" transform="translate(0,0)"/>
<path d="M0 0 C7.387167123029357 4.407980382054554 11.10106794601802 11.756517199223218 15.3984375 18.94921875 C18.373436938051654 23.760921662772347 21.95010556370039 28.089448143787934 25.5234375 32.46484375 C29.80686027312295 38.52373730083005 31.122816414759257 45.3915214918096 30.2265625 52.67578125 C28.759884573690357 60.56995950043128 26.531568581692312 67.95938989214217 21.625 74.4375 C19.433593750000014 75.73437499999999 19.433593750000014 75.73437499999999 17.625 76.4375 C17.625 77.0975 17.625 77.7575 17.625 78.4375 C-2.0889565781911443 89.20103249670582 -2.0889565781911443 89.20103249670582 -13.28466796875 85.977783203125 C-16.04437645675975 85.099459723818 -18.7634552605712 84.13071352356381 -21.478515625 83.12353515625 C-23.20124902184388 82.50035276115071 -24.95148737362399 81.95456196653068 -26.703125 81.41796875 C-30.972618208161016 80.07661727417401 -33.79540050914061 78.99014137500546 -37.0625 75.875 C-40.22049280700195 67.60406645785204 -38.14034843643388 59.49332590489968 -35.5 51.375 C-32.563051088437916 41.66635148882352 -31.47858695088634 32.29853079621642 -31.04541015625 22.181396484375 C-30.68949104414584 14.759503931484588 -29.978449219100625 9.5334936659575 -25.0625 3.6875 C-17.870086025440955 -2.334055885677344 -8.791792508793904 -3.922492042384974 0 0 Z " fill="#BBCFC3" transform="translate(75.375,22.5625)"/>
<path d="M0 0 C14.520000000000001 0 29.040000000000003 0 44 0 C42.904157043879906 6.575057736720552 42.904157043879906 6.575057736720552 39.4375 9.75 C33.21675924023215 16.372078873301255 30.26815343501864 24.655545774949616 27 33 C26.7458935546875 33.637119140625 26.491787109375 34.27423828125 26.22998046875 34.9306640625 C22.107773653300107 45.466784053622106 20.318853193992243 56.300439964029316 18.45849609375 67.4072265625 C17.92049290465815 70.44960881391398 17.272865964083817 73.45845658207486 16.604736328125 76.474365234375 C15.297441015367081 82.42948168248523 14.642290686301196 87.04696685532063 16 93 C16.126328125 93.662578125 16.25265625 94.32515625 16.3828125 95.0078125 C17.42145337794508 99.9744043345374 19.371812797129586 103.67620815011642 22 108 C22.33 108.99 22.66 109.98 23 111 C24.304423734315016 111.72159610834447 25.647021658496907 112.37416309660922 27 113 C29.21300083189913 114.43112912724563 31.392913479663694 115.88142637745128 33.5625 117.375 C34.13935546875 117.76171875 34.7162109375 118.1484375 35.310546875 118.546875 C38.457393485165845 120.71010519568495 41.026454723305875 122.69905238417708 43 126 C43 126.66 43 127.32 43 128 C28.81 128 14.619999999999997 128 0 128 C0 85.75999999999999 0 43.519999999999996 0 0 Z " fill="#223A36" transform="translate(0,0)"/>
<path d="M0 0 C6.625 0.75 6.625 0.75 10 3 C10 3.6599999999999966 10 4.32 10 5 C10.659999999999997 5 11.319999999999993 5 12 5 C12 5.659999999999997 12 6.32 12 7 C12.659999999999997 7 13.319999999999993 7 14 7 C14 7.659999999999997 14 8.32 14 9 C14.877851562499998 9.425390624999999 14.877851562499998 9.425390624999999 15.7734375 9.859375 C17.805701152104362 10.900464449849956 19.701619365380964 12.022310233221887 21.625 13.25 C24.769743685711774 15.248528697461694 27.962043791559793 17.134907587369895 31.1875 19 C35.78851541139517 21.767687732085392 39.713495403983146 24.355518330409794 42.125 29.3125 C41.92010281369667 33.71778950552152 39.76814066765459 36.66707496438565 37 40 C31.860052923148587 44.454620799937885 26.674976756416584 44.41364601726406 20.12353515625 44.634033203125 C15.856937026555414 44.79729840323239 12.168295573322283 45.33361436833445 8.0625 46.625 C3.198591098504302 48.09514389353478 -1.1213615323168113 48.78654366422202 -6 47 C-9.973935415171432 43.832511136073634 -12.515636399193049 39.29561058692306 -13.5546875 34.37109375 C-14.876445202165577 22.265727477727474 -10.527402701878756 12.466014534613194 -3 3 C-2.009999999999998 2.6700000000000017 -1.019999999999996 2.3400000000000034 0 2 C0 1.3400000000000034 0 0.6799999999999997 0 0 Z " fill="#DCF0DC" transform="translate(60,40)"/>
<path d="M0 0 C7.387167123029357 4.407980382054554 11.10106794601802 11.756517199223211 15.3984375 18.94921875 C18.373436938051654 23.760921662772347 21.95010556370039 28.089448143787934 25.5234375 32.46484375 C28.69985595703747 36.95788175335597 29.947484099377945 40.95527031057496 29.625 46.4375 C27.644999999999996 46.932500000000005 27.644999999999996 46.932500000000005 25.625 47.4375 C25.129999999999995 46.385625000000005 25.129999999999995 46.385625000000005 24.625 45.3125 C20.096608192620124 38.802936776891435 12.984322916990479 35.45956438095884 6.125 31.8203125 C3.3450781941155583 30.282668251120164 0.9144733527976285 28.64802599580461 -1.375 26.4375 C-1.375 25.777500000000003 -1.375 25.1175 -1.375 24.4375 C-2.0349999999999966 24.4375 -2.694999999999993 24.4375 -3.375 24.4375 C-3.375 23.777500000000003 -3.375 23.1175 -3.375 22.4375 C-4.034999999999997 22.4375 -4.694999999999993 22.4375 -5.375 22.4375 C-5.766874999999999 21.98375 -6.158749999999998 21.53 -6.5625 21.0625 C-9.176386043961202 18.719015960586503 -12.015836287830709 18.26144581619247 -15.375 17.4375 C-15.375 18.097499999999997 -15.375 18.7575 -15.375 19.4375 C-15.960234374999999 20.0162890625 -16.545468749999998 20.595078125 -17.1484375 21.19140625 C-19.658717983640663 23.723706737883127 -21.230400576742227 26.284047703428598 -23 29.375 C-23.885585937499997 30.90447265625 -23.885585937499997 30.90447265625 -24.7890625 32.46484375 C-26.18627251060648 35.08375216889539 -27.341315779141958 37.65883400036675 -28.375 40.4375 C-29.365000000000002 39.7775 -30.354999999999997 39.1175 -31.375 38.4375 C-31.939909633269494 34.80593807183897 -31.553766492302813 31.100033013033283 -31.375 27.4375 C-31.332460937500002 26.2515625 -31.289921874999997 25.065624999999997 -31.24609375 23.84375 C-30.83991548723165 15.754753107421834 -30.390678582871963 10.023712368820718 -25.0625 3.6875 C-17.870086025440955 -2.3340558856773406 -8.791792508793918 -3.922492042384974 0 0 Z " fill="#C4D4CD" transform="translate(75.375,22.5625)"/>
<path d="M0 0 C0 16.17 0 32.34 0 49 C-12.870000000000005 49 -25.74000000000001 49 -39 49 C-38.34 47.349999999999994 -37.68000000000001 45.7 -37 44 C-35.515 43.504999999999995 -35.515 43.504999999999995 -34 43 C-33.67 42.00999999999999 -33.34 41.02000000000001 -33 40 C-31.989374999999995 39.236875 -30.978750000000005 38.473749999999995 -29.9375 37.6875 C-25.8954208069362 34.35052995623333 -23.753309266720606 30.396714677618064 -21.276611328125 25.830322265625 C-18.489688002347677 20.737992920057764 -15.400858876904891 15.916506746278372 -12.125 11.125 C-11.410053710937504 10.062731933593753 -11.410053710937504 10.062731933593753 -10.6806640625 8.97900390625 C-9.508379641138077 7.28032759288385 -8.260647425702928 5.634172588874165 -7 4 C-6.340000000000003 4 -5.680000000000007 4 -5 4 C-4.670000000000002 3.010000000000005 -4.340000000000003 2.019999999999996 -4 1 C-1 0 -1 0 0 0 Z " fill="#6E7278" transform="translate(128,79)"/>
<path d="M0 0 C14.520000000000001 0 29.040000000000003 0 44 0 C42.78655846569936 7.280649205803865 40.25677447285414 10.094309742841897 35 15 C33.37009247510762 15.97167563983969 31.736247013006462 16.94429817352528 30.03515625 17.78515625 C27.15869998226866 19.502196363751338 24.715510454088015 21.69410390992879 22.1875 23.875 C9.131714876033062 35 9.131714876033062 35 0 35 C0 23.45 0 11.899999999999999 0 0 Z " fill="#121E16" transform="translate(0,0)"/>
<path d="M0 0 C1.5321389713506264 2.626523950886792 2.1844698328789853 4.803761414687017 2.875 7.8125 C3.8729182778769875 12.091573575536515 5.724474558754128 15.25639362891809 8 19 C8.329999999999998 19.989999999999995 8.66 20.980000000000004 9 22 C10.304423734315016 22.72159610834447 11.647021658496907 23.374163096609223 13 24 C15.213000831899116 25.43112912724561 17.392913479663708 26.881426377451277 19.5625 28.375 C20.139355468749997 28.76171875 20.7162109375 29.1484375 21.310546875 29.546875 C24.457393485165845 31.710105195684946 27.026454723305868 33.699052384177065 29 37 C29 37.66 29 38.31999999999999 29 39 C14.809999999999999 39 0.6199999999999974 39 -14 39 C-14 26.789999999999992 -14 14.579999999999998 -14 2 C-3.8750000000000018 -0.25 -3.8750000000000018 -0.25 0 0 Z " fill="#24425E" transform="translate(14,89)"/>
<path d="M0 0 C9.391470391803182 -1.1219898255694076 16.459364809666255 1.6958829275712137 23.8837890625 7.46337890625 C27.76818380753052 10.658606841678335 31.506281780082958 14.00558851067479 35.22509765625 17.390625 C37.03823805549365 19.03467197549024 38.859352947772265 20.667143616145168 40.69921875 22.28125 C41.23764404296875 22.75626953125 41.77606933593751 23.231289062499997 42.330810546875 23.720703125 C44.27808699187722 25.296653805805548 44.27808699187722 25.296653805805548 48 27 C48 35.91 48 44.82 48 54 C43.850283876305724 52.96257096907644 43.42593162562984 52.761444949307446 40.9375 49.6875 C37.861895314535474 46.01661698831652 34.72398745390744 42.41612791191159 31.5 38.875 C31.0232080078125 38.34704833984375 30.546416015625 37.8190966796875 30.05517578125 37.275146484375 C27.630256279144362 34.62776879042386 25.23681360917341 32.32445587836099 22.3125 30.25 C16.73378955620663 25.23695420237766 13.926835886227806 17.78113665068885 11 11 C11 10.34 11 9.68 11 9 C10.340000000000003 9 9.680000000000007 9 9 9 C7.288913114632052 7.378970319125102 5.627466942413463 5.704965368242682 4 4 C3.2368749999999977 3.2368750000000013 2.4737499999999955 2.473749999999999 1.6875 1.6875 C1.1306249999999949 1.1306250000000002 0.573750000000004 0.5737500000000004 0 0 Z " fill="#667479" transform="translate(80,13)"/>
<path d="M0 0 C-0.5616051449454744 15.281244966057827 -1.1191298828417473 30.090933367955174 -5.96728515625 44.73095703125 C-8.348074281310502 52.07037551375586 -9.470577861620292 59.38482942351678 -6.5 66.6875 C-6.005000000000003 67.450625 -5.509999999999998 68.21375 -5 69 C-5.999999999999993 70 -5.999999999999993 70 -9.1875 70.5 C-13.906637616595312 69.88109670602029 -14.977702972983995 68.49848932792378 -17.8359375 64.921875 C-22.905751793220922 56.55157757629297 -19.776774429784435 44.720057145308886 -17.658203125 35.916015625 C-17.33787109375 34.64435546875001 -17.0175390625 33.3726953125 -16.6875 32.0625 C-16.066342509346068 29.511734271155987 -15.44524823543603 26.960953147022515 -14.82421875 24.41015625 C-14.5159716796875 23.17950439453125 -14.207724609375 21.9488525390625 -13.89013671875 20.680908203125 C-13.294406497303449 18.217434657115767 -12.738917064908591 15.743897343395844 -12.22314453125 13.262451171875 C-11.859387207031247 11.516053466796876 -11.859387207031247 11.516053466796876 -11.48828125 9.734375 C-11.181444091796877 8.177348632812496 -11.181444091796877 8.177348632812496 -10.868408203125 6.5888671875 C-9.885274460423055 3.6579843627568422 -9.121602261248007 2.755752504581004 -6.5 1.1875 C-3 0 -3 0 0 0 Z " fill="#8DABA4" transform="translate(46,32)"/>
<path d="M0 0 C0.3299999999999983 0 0.6600000000000001 0 1 0 C1.0863671875000023 0.8688281249999932 1.1727343749999974 1.7376562500000006 1.26171875 2.6328125 C2.025065461753165 10.860070517659523 2.025065461753165 10.860070517659523 6.2734375 17.6875 C10.320691182536208 20.76414533333069 14.659034460046975 23.364214762005417 19 26 C36.6136431751735 36.901594841919334 36.6136431751735 36.901594841919334 38.575439453125 44.1162109375 C38.78559692382812 45.048686523437496 38.78559692382812 45.048686523437496 39 46 C35.58397984697067 46.17446933730767 32.16910363115815 46.28089623033509 28.75 46.375 C27.7819140625 46.42527343750001 26.813828125 46.47554687499999 25.81640625 46.52734375 C23.092761490611686 46.58369502088391 20.66726127735039 46.56172448100406 18 46 C15.69921875 43.23046875 15.69921875 43.23046875 14 40 C11.184691943412538 37.78425034479855 11.184691943412538 37.78425034479855 8.0625 35.9375 C0.832626230812398 31.467957303245583 -6.573898639481737 25.49135476181391 -9 17 C-9.528152127609312 13.434973138637147 -9.697560042072405 11.097694176635414 -7.7265625 7.99609375 C-6.2285363547182975 6.18750120874526 -4.787809740481972 4.523806747716492 -3 3 C-2.34 3 -1.6799999999999997 3 -1 3 C-0.6700000000000017 2.010000000000005 -0.33999999999999986 1.019999999999996 0 0 Z " fill="#667782" transform="translate(25,82)"/>
<path d="M0 0 C-0.41378906250000114 1.1214843750000014 -0.8275781250000023 2.2429687499999993 -1.25390625 3.3984375 C-3.776420601813811 10.97041899711617 -5.2643293476111666 18.831735838040416 -6.9375 26.625 C-13.707252696809732 58.06087904521459 -13.707252696809732 58.06087904521459 -17 63 C-17.66 63 -18.32 63 -19 63 C-19.226875 63.5775 -19.45375 64.155 -19.6875 64.75 C-21.330380227491432 67.56636610427103 -23.395332265144493 69.08077114273804 -26 71 C-27.184186024597373 64.44495736061585 -26.621461708515405 59.12273184955147 -25.3125 52.625 C-25.12751953125 51.6654541015625 -24.9425390625 50.705908203125006 -24.751953125 49.71728515625 C-24.184058273352214 46.80802720861368 -23.59566668150117 43.903687204357254 -23 41 C-22.827749023437498 40.14857421875 -22.655498046875 39.2971484375 -22.47802734375 38.419921875 C-20.568452116594628 29.072560507923463 -18.42207000785399 19.930103008543284 -15 11 C-14.592011718750001 9.81083984375 -14.592011718750001 9.81083984375 -14.17578125 8.59765625 C-12.876785196240359 5.347227210501892 -11.975288046215155 3.5146868937986966 -8.81640625 1.84765625 C-5.860632839956544 0.8214117220329129 -3.140878025847286 0 0 0 Z " fill="#4F6C67" transform="translate(41,22)"/>
<path d="M0 0 C2.002858692821391 1.4346220759438673 3.9064949251220185 2.812079674710642 5.66796875 4.53515625 C5.66796875 5.19515625 5.66796875 5.85515625 5.66796875 6.53515625 C6.327968749999997 6.53515625 6.987968749999993 6.53515625 7.66796875 6.53515625 C9.977968750000002 11.815156250000001 12.287968750000005 17.095156250000002 14.66796875 22.53515625 C11.504256362324469 24.117012443837766 9.152876126153274 23.936831806696432 5.66796875 23.53515625 C3.2265625 21.050781249999993 3.2265625 21.050781249999993 1.10546875 17.78515625 C-2.545822468837997 12.237873444132362 -5.9205643198287135 8.672311893390429 -12.33203125 6.53515625 C-19.619348560969634 5.876598685601262 -26.399235923265934 5.79182111102191 -32.33203125 10.53515625 C-33.67473945713694 12.52887449696091 -35.00856619127937 14.528612451294528 -36.33203125 16.53515625 C-39.629193527966414 18.21265986510572 -42.8321978867314 19.36854512891047 -46.33203125 20.53515625 C-45.93528430370053 13.129213252409897 -43.942182268381735 8.019463224167993 -38.5390625 2.8046875 C-27.52897665140604 -6.095681299761585 -12.168555473098593 -7.643564995664944 0 0 Z " fill="#909994" transform="translate(83.33203125,15.46484375)"/>
<path d="M0 0 C12.21 0 24.42 0 37 0 C37.66 1.98 38.31999999999999 3.96 39 6 C40.62746694241346 7.704965368242682 42.28891311463205 9.378970319125102 44 11 C44 11.66 44 12.32 44 13 C42.2709226042237 13.027253409040258 40.541718235117756 13.04650987100948 38.8125 13.0625 C37.36810546875 13.07990234375 37.36810546875 13.07990234375 35.89453125 13.09765625 C33.13032220112737 13.00439683539566 30.700592961694838 12.559620519534878 28 12 C19.295143531118093 11.2392603945533 10.219156269369464 11.791711892276837 3.14453125 17.49609375 C2.0602648194533373 18.528851086458932 0.9794428753012099 19.565238543413255 -0.09765625 20.60546875 C-3.8480751960626947 23.35474916836629 -8.512120458143826 24.074831342185163 -13 25 C-11.596744142875941 17.03445939926637 -8.06247512416806 11.63648385459816 -2.48828125 5.859375 C-0.6668544473930069 3.848599185590313 -0.6668544473930069 3.848599185590313 0 0 Z " fill="#595852" transform="translate(44,0)"/>
</svg>
