<?xml version="1.0" encoding="UTF-8"?>
<!-- Generator: visioncortex VTracer 0.6.0 -->
<svg version="1.1" xmlns="http://www.w3.org/2000/svg" width="128" height="128">
<path d="M0 0 C42.24 0 84.48 0 128 0 C128 42.24 128 84.48 128 128 C85.75999999999999 128 43.519999999999996 128 0 128 C0 85.75999999999999 0 43.519999999999996 0 0 Z " fill="#755555" transform="translate(0,0)"/>
<path d="M0 0 C8.909999999999997 0 17.819999999999993 0 27 0 C27 42.24 27 84.48 27 128 C7.530000000000001 128 -11.939999999999998 128 -32 128 C-32 121.39077809798272 -32 121.39077809798272 -30.4921875 118.2421875 C-28.55836427189503 113.46997425831073 -28.861897898100068 109.19188388549031 -29.125 104.125 C-29.37827184199773 93.99874806903212 -27.62755197542593 87.8058850578156 -20.625 80.3125 C-18.313191111913795 77.74315799743786 -18.019940512755426 77.26919692219823 -17.75 73.625 C-19.137153177470978 69.60225578533417 -21.02092638138322 66.62262109266265 -23.52734375 63.2109375 C-27.26053155217781 57.60620461927681 -27.59424364231792 52.55717122557706 -27 46 C-26.1875 42.125 -26.1875 42.125 -24 39 C-21.307272656836346 37.68128676717104 -18.665930664053178 36.761952204930125 -15.7890625 35.921875 C-11.95058646427782 34.653135021806115 -8.991412823212315 33.3166381937899 -6.5234375 30.0390625 C-1.9658865002985664 20.4589042761378 -1.2636210212837966 10.441500017976582 0 0 Z " fill="#8E6961" transform="translate(101,0)"/>
<path d="M0 0 C25.740000000000002 0 51.480000000000004 0 78 0 C78 10.664576788493862 77.86364019450373 24.60410468316087 70 33 C64.88580969548599 36.36976100886471 60.19096750190414 39 54 39 C54 39.66 54 40.32 54 41 C53.3361328125 41.2307421875 52.672265624999994 41.461484375 51.98828125 41.69921875 C38.906935950563096 46.53072292628838 33.78413216625477 57.476598199872214 27 69 C25 66 25 66 24.203125 63.2578125 C23.138929532041423 59.75992411761156 22.07800088860877 57.022163564163264 20 54 C16.933120011939387 52.88664940528207 16.933120011939387 52.88664940528207 13.4375 52.3125 C7.4736461380779495 50.7175158276255 5.484632209751091 48.75600537296428 2.3828125 43.39453125 C1.2387868644920772 41.156678197777126 0.13254824852275604 38.899154278820134 -0.9375 36.625 C-1.4635180664062517 35.51165283203125 -1.9895361328124999 34.3983056640625 -2.531494140625 33.251220703125 C-5.055420644154324 27.485009462818606 -6.885670809721656 23.267312525257452 -5 17 C-4.690625000000001 15.8823828125 -4.381250000000001 14.764765624999999 -4.0625 13.61328125 C-3.5365624999999987 11.979394531250001 -3.5365624999999987 11.979394531250001 -3 10.3125 C-1.9021877190068182 6.877800547333825 -0.8751100614725544 3.5004402458902093 0 0 Z " fill="#4B1C17" transform="translate(23,0)"/>
<path d="M0 0 C0 30.03 0 60.06 0 91 C-10.89 91 -21.78 91 -33 91 C-31.88660160706567 85.43300803532834 -30.922503538812634 84.74006151375158 -27 81 C-23.83413798287853 77.1496272764739 -22.359666811333014 74.30440358238012 -22.59765625 69.23046875 C-23.060055445983096 66.66707126547233 -23.933001797943206 64.52770082763035 -24.9375 62.125 C-27.28568821275792 56.27498406926165 -27.507254336556088 50.77507466234212 -27.495849609375 44.54541015625 C-27.604587744246118 37.74665201320505 -29.608295056182342 32.76174231248379 -34.0703125 27.609375 C-35.087382812499996 26.688984375000004 -35.087382812499996 26.688984375000004 -36.125 25.75 C-39.72651588662998 22.46106851107752 -41.733969355664144 20.039568273241564 -42.375 15.125 C-41.481264177322814 7.67720147769009 -35.97266603348673 4.066539127409349 -30.4375 -0.36328125 C-21.557581538141335 -6.32591880692112 -9.325420460392252 -1.8650840920784475 0 0 Z " fill="#C9A578" transform="translate(128,37)"/>
<path d="M0 0 C7.590000000000001 0 15.180000000000001 0 23 0 C22.207132428214194 7.1358081460722405 21.409736000690113 11.115269653566116 18.7421875 17.32421875 C16.787234320112148 24.372339424858833 20.999096912685236 30.589483750131798 24.0625 36.75 C24.99426832676762 38.638960073092335 25.922825564387804 40.52950860433176 26.84765625 42.421875 C27.26023681640625 43.252998046875 27.6728173828125 44.08412109375 28.097900390625 44.9404296875 C29 47 29 47 29 49 C29.580078125 49.1095703125 30.16015625 49.219140625 30.7578125 49.33203125 C31.929570312499997 49.56986328125 31.929570312499997 49.56986328125 33.125 49.8125 C33.890703125 49.9633203125 34.65640625 50.114140625 35.4453125 50.26953125 C40.188013236572836 51.62562457987633 43.21834491459586 52.61748080132601 45.72265625 57.046875 C46.1648046875 58.26890625 46.606953125 59.4909375 47.0625 60.75 C47.30363525390625 61.4117724609375 47.5447705078125 62.073544921875 47.793212890625 62.75537109375 C48.293757402254364 64.14116666800898 48.78478495484151 65.53043390305206 49.2666015625 66.9228515625 C49.97358549625307 68.92518821641848 50.738529113169875 70.89430966283238 51.5234375 72.8671875 C54.61194097772765 80.89356044917528 56.37588630491726 88.51300314959906 54 97 C50.82428115015976 101.58785942492011 50.82428115015976 101.58785942492011 48 103 C38.97712519674822 103.72765119381063 30.96983111302426 101.20261878168975 23 97 C23.852994555353906 87.65335753176042 23.852994555353906 87.65335753176042 24.5625 84.5 C25.783620050000224 77.52217114285585 25.904006728567765 69.18245434148615 22 63 C19.67943112642793 61.90882891158353 19.67943112642793 61.90882891158353 17 61 C14.222945044351656 59.28606797497103 11.525557005490995 57.47519616869381 8.81640625 55.65625 C5.607983691865591 53.637866317762985 5.607983691865591 53.637866317762985 0 52 C0 34.84 0 17.68 0 0 Z " fill="#744731" transform="translate(0,0)"/>
<path d="M0 0 C5.427470794597958 0.9045784657663276 7.266248711172759 1.4782388180595873 11.5625 4.375 C12.4712890625 4.980859375000001 13.380078125 5.586718750000003 14.31640625 6.2109375 C15.2019921875 6.801328124999998 16.087578125 7.391718750000003 17 8 C17.889453125 8.4859765625 18.77890625 8.971953124999999 19.6953125 9.47265625 C23.599256010593788 12.059845932444361 24.71437471563207 15.620624031324212 26 20 C27.339700956174404 27.42925075696715 25.103571223557044 34.940870790471934 23.3359375 42.13623046875 C22.180213259251538 47.05108923731754 21.449051976968928 51.05994333404918 23 56 C25.060506088578148 58.64198509166167 27.44536255735181 60.832172833784625 29.9375 63.0625 C31.226639490992568 64.23082282882577 32.506911953726785 65.40901757041313 33.77734375 66.59765625 C34.34702880859375 67.10820556640626 34.9167138671875 67.6187548828125 35.503662109375 68.144775390625 C37.00000000000001 70 37.00000000000001 70 39 76 C26.13 76 13.259999999999998 76 0 76 C0 50.92 0 25.840000000000003 0 0 Z " fill="#AF8B72" transform="translate(0,52)"/>
<path d="M0 0 C7.590000000000001 0 15.180000000000001 0 23 0 C22.207132428214194 7.1358081460722405 21.409736000690113 11.115269653566116 18.7421875 17.32421875 C16.570073813009742 25.155260200464877 22.102690859351114 32.63987087597997 25.58203125 39.388671875 C26.0319140625 40.29294921875 26.481796875 41.1972265625 26.9453125 42.12890625 C27.3631298828125 42.94431884765625 27.780947265625 43.7597314453125 28.21142578125 44.599853515625 C29.79442838465186 49.41796453545276 27.493638147694323 53.43661624977875 25.4375 57.8125 C24.75494140625 59.27623046875 24.75494140625 59.27623046875 24.05859375 60.76953125 C23.7092578125 61.5055859375 23.359921875 62.241640625 23 63 C17.802980809665534 62.3169104438992 14.866320468279806 59.912186982204744 10.79296875 56.7890625 C7.318518477246114 54.42601467071107 7.318518477246114 54.42601467071107 0 52 C0 34.84 0 17.68 0 0 Z " fill="#785956" transform="translate(0,0)"/>
<path d="M0 0 C16.83 0 33.66 0 51 0 C51 10.652896726959792 50.868121966422635 24.61762169590268 43 33 C38.398288465436636 35.99516001099455 33.59255860452171 39 28 39 C28.106992187499998 38.2639453125 28.213984374999995 37.527890625 28.32421875 36.76953125 C29.094448354532787 30.918642875486604 29.094448354532787 30.918642875486604 28.125 25.1875 C23.01959665985909 19.931937738090237 16.8308377606769 16.805824955792595 10.1484375 14.00390625 C6.304707089392977 12.207835858134537 1.9370406170235484 9.874081234047093 0 6 C0 4.02 0 2.04 0 0 Z " fill="#784426" transform="translate(50,0)"/>
<path d="M0 0 C4.3353591579535475 0.9645440689770979 7.988783422454844 2.829142812919436 11.9375 4.8125 C12.640683593749998 5.156035156249999 13.343867187499995 5.499570312500001 14.068359375 5.853515625 C19.832560004134763 8.732914814624017 25.502740537078523 11.756851342696287 28 18 C28.057569463376808 22.589108652036664 27.62151902821371 27.13325943338478 25 31 C22.792968750000014 32.08984374999999 22.792968750000014 32.08984374999999 20.1875 32.9375 C8.94825375713748 37.13004522689276 3.803243304818835 49.14271793259495 -2 59 C-5.228608642414585 54.15708703637813 -8 48.7796149167355 -8 42.875 C-7 40 -7 40 -5 36.6875 C-2.145230366819746 31.306567310120684 -2.428634528245766 25.439354751265256 -2.21484375 19.5 C-1.9628526994754196 12.939690616851621 -0.9725741831840367 6.486975377159567 0 0 Z " fill="#402B1B" transform="translate(52,10)"/>
<path d="M0 0 C8.909999999999997 0 17.819999999999993 0 27 0 C27 12.21 27 24.42 27 37 C17.999999999999943 35.99999999999999 17.999999999999943 35.99999999999999 15 35.4375 C9.311370456966216 34.6079081916409 3.5936397079759956 34.55648007536103 -2 36 C-2 35.34 -2 34.68 -2 34 C-3.980000000000004 33.67 -5.959999999999994 33.34 -8 33 C-7.673867187499994 32.3773828125 -7.347734375000002 31.754765625 -7.01171875 31.11328125 C-2.2375943678282084 21.01579693726496 -1.3456777270954206 11.048722390888749 0 0 Z " fill="#9D7162" transform="translate(101,0)"/>
<path d="M0 0 C-0.16499999999999204 0.6187499999999986 -0.3299999999999983 1.2374999999999972 -0.5 1.875 C-1.860908103995996 10.380675649974961 -1.2934275751419193 16.092629060920387 3.5703125 23.33984375 C7.9023035547240426 30.03931828811973 7.9023035547240426 30.03931828811973 8.375 34.6875 C5.361002524289162 41.94849391875792 -1.7582126606997974 46.03625717640435 -8.67578125 49.24609375 C-11 50 -11 50 -14.3125 49.625 C-20.959267638201965 45.606024218761604 -22.974412833701294 41.20545822092174 -25.3984375 34.03515625 C-26.645867069931086 27.7413070562568 -24.41291047411105 23.325783077731103 -21.25 18 C-20.914843750000003 17.409609375000002 -20.5796875 16.819218750000005 -20.234375 16.2109375 C-16.903963091462813 10.483638233045895 -13.38233308055068 5.283494712454477 -7.375 2.125 C-6.619609374999996 1.715078124999998 -5.864218749999992 1.3051562500000031 -5.0859375 0.8828125 C-3 0 -3 0 0 0 Z " fill="#524C46" transform="translate(76,41)"/>
<path d="M0 0 C0 17.159999999999997 0 34.31999999999999 0 52 C-10.161520190023737 49.741884402216954 -10.161520190023737 49.741884402216954 -13.375 47.125 C-14.001484375000004 46.63257812500001 -14.627968749999994 46.14015624999999 -15.2734375 45.6328125 C-18.532430100006664 42.550778774201845 -19.893459375698328 40.937557493854754 -20.419921875 36.3046875 C-20.45312218105431 34.82840857458771 -20.46835567930212 33.35165214944135 -20.46875 31.875 C-20.476363525390624 31.091088867187494 -20.48397705078125 30.307177734375003 -20.4918212890625 29.49951171875 C-20.50260604578648 27.845409947009045 -20.505481977113874 26.19124016894989 -20.5009765625 24.537109375 C-20.50000306426297 22.007960955199593 -20.54166045279102 19.481836362824154 -20.5859375 16.953125 C-20.591143998334346 15.343756314867804 -20.593832701803947 13.734377104804665 -20.59375 12.125 C-20.610145263671882 11.370737304687502 -20.62654052734375 10.616474609375004 -20.6434326171875 9.83935546875 C-20.615234375 7.6953125 -20.615234375 7.6953125 -20 4 C-15 0 -15 0 0 0 Z " fill="#E1C49A" transform="translate(128,52)"/>
<path d="M0 0 C10.124155871354137 3.1762057635620806 19.773423704598468 8.57517772336304 26.375 16.9921875 C28.74833222191949 19.924622024198598 31.522079664816438 22.40135387780836 34.30078125 24.9453125 C36.00000000000001 27 36.00000000000001 27 38 33 C25.13 33 12.259999999999998 33 -1 33 C-1.020625 27.740624999999994 -1.04125 22.481250000000003 -1.0625 17.0625 C-1.07160400390625 15.400979003906258 -1.0807080078125 13.739458007812502 -1.090087890625 12.027587890625 C-1.09258544921875 10.730710449218748 -1.0950830078125 9.433833007812495 -1.09765625 8.09765625 C-1.1053302001953125 7.0689239501953125 -1.1053302001953125 7.0689239501953125 -1.1131591796875 6.0194091796875 C-1.1134705399652853 4.345847686591227 -1.0622283709355045 2.672404196948378 -1 1 C-0.6699999999999999 0.6700000000000017 -0.33999999999999997 0.3400000000000034 0 0 Z " fill="#AB9D89" transform="translate(1,95)"/>
<path d="M0 0 C5.319959455496004 2.3629596588927626 8.90144377785768 4.796352592674538 13 9 C17.115661857681417 11.838051186221065 21.221587866668784 13.407195955556261 26 15 C26 22.92 26 30.840000000000003 26 39 C15.11 39 4.219999999999999 39 -7 39 C-5.886601607065671 33.43300803532834 -4.922503538812634 32.740061513751584 -1 29 C2.149156121107268 25.16994525811279 3.63398212451591 22.335835766250213 3.41015625 17.28515625 C2.7310143601585395 13.501365720883314 1.274217423690743 10.043610089506814 -0.22265625 6.515625 C-1.0558356100262358 3.8193058650407465 -0.9678687512558639 2.605332236084948 0 0 Z " fill="#BD9E8F" transform="translate(102,89)"/>
<path d="M0 0 C0 0.990000000000002 0 1.9799999999999969 0 3 C-1.86328125 4.6484375 -1.86328125 4.6484375 -4.3125 6.375 C-8.844204364640248 9.773778273480183 -11.575880067870742 12.152337598560663 -12.4375 17.9375 C-11.4859600121614 24.598279914870197 -6.2551077217957385 29.04317843032564 -1.8046875 33.75390625 C2.088718071852284 38.599595002846456 2.3684271293893318 43.33114495388877 2.625 49.3125 C2.6636718750000057 50.05306640625 2.702343749999997 50.79363281249999 2.7421875 51.556640625 C2.8358170465304795 53.3707130890281 2.91896851240287 55.18532115933802 3 57 C0 57 0 57 -2.375 54.8125 C-3.241250000000008 53.884375000000006 -4.107500000000002 52.95625 -5 52 C-5.825000000000003 51.175 -6.650000000000006 50.349999999999994 -7.5 49.5 C-8.325000000000003 48.675 -9.150000000000006 47.849999999999994 -10 47 C-10.845624999999998 46.278125 -11.691249999999997 45.556250000000006 -12.5625 44.8125 C-15.420297638864568 41.5150411859255 -16.543163575146224 38.41923921771779 -18.02734375 34.36328125 C-19.22388619574089 31.456019484244024 -20.964076084361764 29.37524456824461 -23 27 C-26.320788873525956 21.18861947132958 -25.510839545135923 14.436311676802077 -24.1875 8.125 C-21.279340790696168 3.970486843851667 -18.350230244370536 3.237097962373504 -13.59375 1.82421875 C-5.180513556455338 -0.8492645174516937 -5.180513556455338 -0.8492645174516937 0 0 Z " fill="#907654" transform="translate(99,34)"/>
<path d="M0 0 C7.590000000000001 0 15.180000000000001 0 23 0 C22.269127958112815 6.577848376984658 21.802255752954228 10.302197524855089 19.4375 16.0625 C18.9824609375 17.1878515625 18.527421875 18.313203125 18.05859375 19.47265625 C17.7092578125 20.3066796875 17.359921875 21.140703125 17 22 C15.478976769418155 21.856160781011376 13.958191025088615 21.709809860850612 12.4375 21.5625 C11.5905859375 21.4812890625 10.743671875 21.400078125 9.87109375 21.31640625 C6.571574616988238 20.95278577411707 3.2861322907637445 20.469447470109106 0 20 C0 13.399999999999999 0 6.799999999999999 0 0 Z " fill="#784A2F" transform="translate(0,0)"/>
</svg>
