<?xml version="1.0" encoding="UTF-8"?>
<!-- Generator: visioncortex VTracer 0.6.0 -->
<svg version="1.1" xmlns="http://www.w3.org/2000/svg" width="128" height="128">
<path d="M0 0 C42.24 0 84.48 0 128 0 C128 42.24 128 84.48 128 128 C85.75999999999999 128 43.519999999999996 128 0 128 C0 85.75999999999999 0 43.519999999999996 0 0 Z " fill="#84C0DD" transform="translate(0,0)"/>
<path d="M0 0 C12.540000000000001 0 25.080000000000002 0 38 0 C38.66 4.29 39.32 8.58 40 13 C41.1270263551129 15.924658889851804 42.17924598241825 18.463487857117315 43.625 21.1875 C47 27.837053571428577 47 27.837053571428577 47 30 C47.66 30 48.32 30 49 30 C49 30.66 49 31.32 49 32 C49.99 32.33 50.98 32.66 52 33 C58.56475602895133 45.88637294571927 50.68924186856156 64.13054327905753 46.6015625 76.91015625 C45.960783611867534 79.13623875097967 45.57999043428229 81.34316835755493 45.1875 83.625 C44.148676394745934 88.69265254389158 41.33332584532464 92.15304847410647 38 96 C42.676385708730365 101.57569065271697 47.43253209253216 106.16701077936378 53.125 110.6875 C57.27373667698144 115.80427523494377 59 121.49405435581228 59 128 C39.53 128 20.059999999999995 128 0 128 C0 85.75999999999999 0 43.519999999999996 0 0 Z " fill="#728890" transform="translate(0,0)"/>
<path d="M0 0 C17.819999999999993 0 35.64 0 54 0 C54 32.01 54 64.02 54 97 C44.486702197856346 95.94296691087293 35.60322278380326 93.7716333734546 28.7578125 86.67578125 C27.000000000000014 84.31250000000001 27.000000000000014 84.31250000000001 25.625 82.11328125 C24.062098295257258 79.76160930155734 24.062098295257258 79.76160930155734 21.04296875 78.52734375 C16.192197332345273 74.49852589733939 15.677926876993808 69.23183160863104 14.3125 63.25 C14.013437499999995 62.0287744140625 13.714375000000004 60.807548828125 13.40625 59.54931640625 C11.873636497125332 53.18508819855293 10.559012895663102 46.83302956005597 9.5 40.375 C8.240384042921917 32.92891579803211 5.563369820563565 26.409802467736505 2.5234375 19.546875 C-0.588502630224113 12.30164003014489 0 8.844941877680082 0 0 Z " fill="#708C98" transform="translate(74,0)"/>
<path d="M0 0 C11.880000000000003 0 23.760000000000005 0 36 0 C36.66 5.28 37.31999999999999 10.56 38 16 C39.03724545020043 19.017209055878595 39.980715956451576 21.521696289102707 41.375 24.3125 C44.76146226691631 31.787814803295976 46.503718548998364 39.08925965291067 48.0234375 47.125 C49.16431016964437 53.09338695966819 50.776499231790226 58.92592543710804 52.42626953125 64.77099609375 C53.484969015939654 68.61346715816651 54.28901541884065 71.9698405483887 54 76 C53.113125 76.4125 52.22624999999999 76.825 51.3125 77.25 C48.00166084177043 78.86459351856087 48.00166084177043 78.86459351856087 45.4375 81.0625 C41.15999096468471 84.46257128448138 37.558113606761395 85.41594598438452 32.05078125 85.25 C25.99205341793988 84.51141222618696 21.79280983151915 81.61287682211788 18 77 C16.868143340639833 74.9563699205997 15.851916980340015 72.90022374773544 14.89453125 70.76953125 C14.020999296326124 68.81296895193205 14.020999296326124 68.81296895193205 12 67 C11.953125 65.15234375 11.953125 65.15234375 12.25 62.9375 C12.356992187499998 62.1292578125 12.463984375000003 61.321015625 12.57421875 60.48828125 C12.972097678858702 58.163062188688116 13.489639544406323 55.91232052413303 14.0625 53.625 C15.67070507086705 46.732692553426936 16.210555663456333 39.466330420764166 13 33 C12.340000000000003 32.67 11.68 32.34 11 32 C11 31.34 11 30.68 11 30 C10.340000000000003 30 9.68 30 9 30 C7.685434511442992 27.230129665341163 6.373271303900509 24.45916513320501 5.0625 21.6875 C4.689316406250001 20.90181640625 4.316132812500001 20.1161328125 3.931640625 19.306640625 C3.573925781249997 18.54931640625 3.2162109375000014 17.7919921875 2.84765625 17.01171875 C2.5177368164062486 16.31522216796875 2.187817382812497 15.6187255859375 1.847900390625 14.901123046875 C-0.647712680514239 9.30557482200853 0 7.319983143603487 0 0 Z " fill="#A7C1CF" transform="translate(38,0)"/>
<path d="M0 0 C4.794638189134297 1.6040244123649288 9.57615814035777 5.146470640357769 13.1484375 8.71875 C13.933300089464723 16.644575493610944 13.144316727395044 22.827897046635073 9.1484375 29.71875 C8.790078125 30.341367187499998 8.431718750000002 30.963984374999995 8.0625 31.60546875 C7.0234375 33.28125 7.0234375 33.28125 5.1484375 35.71875 C4.488437500000003 35.71875 3.8284374999999997 35.71875 3.1484375 35.71875 C2.8828906250000017 36.2743359375 2.6173437500000034 36.829921875 2.34375 37.40234375 C1.1484375000000142 39.718749999999986 1.1484375000000142 39.718749999999986 -0.359375 42.12890625 C-4.453181315870371 48.84314414486951 -5.813929155333131 53.897998193368736 -4.8515625 61.71875 C-4.629843749999999 62.4754296875 -4.408124999999998 63.23210937499999 -4.1796875 64.01171875 C-3.691510653094923 68.03917773696689 -4.963750002101776 71.32967158111825 -6.1640625 75.15625 C-8.506767143815836 83.0265126596166 -9.894736351465337 90.54223563979468 -10.8515625 98.71875 C-18.1115625 98.71875 -25.371562500000003 98.71875 -32.8515625 98.71875 C-32.8515625 78.58875 -32.8515625 58.458749999999995 -32.8515625 37.71875 C-29.8815625 36.39875000000001 -26.9115625 35.07875 -23.8515625 33.71875 C-20.18882702090923 30.87061640505766 -18.9080532959425 27.983925422502296 -17.3515625 23.65625 C-16.9300390625 22.510273437500004 -16.508515625 21.364296875 -16.07421875 20.18359375 C-15.30082952419749 17.991912461543684 -14.536606654236387 15.796956151043489 -13.78515625 13.59765625 C-8.62699879554689 -1.3104301967919305 -8.62699879554689 -1.3104301967919305 0 0 Z " fill="#437B6E" transform="translate(32.8515625,29.28125)"/>
<path d="M0 0 C4.794638189134297 1.6040244123649288 9.57615814035777 5.146470640357769 13.1484375 8.71875 C13.933300089464723 16.644575493610944 13.144316727395044 22.827897046635073 9.1484375 29.71875 C8.790078125 30.341367187499998 8.431718750000002 30.963984374999995 8.0625 31.60546875 C7.0234375 33.28125 7.0234375 33.28125 5.1484375 35.71875 C4.488437500000003 35.71875 3.8284374999999997 35.71875 3.1484375 35.71875 C2.8932031249999994 36.24984375 2.637968749999999 36.78093749999999 2.375 37.328125 C0.8633826078577016 40.27433469423913 -0.8004041536342115 43.113072817302736 -2.4765625 45.96875 C-3.1082031249999993 47.04640624999999 -3.7398437499999986 48.12406250000001 -4.390625 49.234375 C-4.872734375 50.05421874999999 -5.354843750000001 50.87406250000001 -5.8515625 51.71875 C-6.5940625 50.955625 -7.336562499999999 50.192499999999995 -8.1015625 49.40625 C-10.675116501566222 46.76303800844774 -10.675116501566222 46.76303800844774 -13.1640625 45.03125 C-13.720937500000002 44.59812500000001 -14.2778125 44.16499999999999 -14.8515625 43.71875 C-14.8515625 43.05875 -14.8515625 42.39875000000001 -14.8515625 41.71875 C-15.648203124999998 41.74195312500001 -16.44484375 41.76515624999999 -17.265625 41.7890625 C-27.790051076449913 41.968310632688926 -27.790051076449913 41.968310632688926 -32.8515625 39.71875 C-32.8515625 39.05875 -32.8515625 38.39875000000001 -32.8515625 37.71875 C-32.24828125 37.47640625 -31.645 37.23406249999999 -31.0234375 36.984375 C-30.22421875 36.64921875 -29.425 36.314062500000006 -28.6015625 35.96875 C-27.418203124999998 35.48148437500001 -27.418203124999998 35.48148437500001 -26.2109375 34.984375 C-21.158760219696767 32.274266657585684 -19.257258219309357 28.95485667902568 -17.3515625 23.65625 C-16.9300390625 22.510273437500004 -16.508515625 21.364296875 -16.07421875 20.18359375 C-15.30082952419749 17.991912461543684 -14.536606654236387 15.796956151043489 -13.78515625 13.59765625 C-8.62699879554689 -1.3104301967919305 -8.62699879554689 -1.3104301967919305 0 0 Z " fill="#516F85" transform="translate(32.8515625,29.28125)"/>
<path d="M0 0 C3.1144176245244495 0.4611057461654795 6.20677783493268 0.9800993571638017 9.30078125 1.5625 C12.202337658331373 2.1066639456823495 12.202337658331373 2.1066639456823495 16 2 C16 16.189999999999998 16 30.379999999999995 16 45 C5.6937377690802435 43.854859752120035 5.6937377690802435 43.854859752120035 -0.1875 40.9375 C-1.3360546874999955 40.3896484375 -2.484609375000005 39.841796875 -3.66796875 39.27734375 C-7.894829829190172 36.68123135235487 -10.892818854258863 33.51165031868061 -13 29 C-13.780635943763187 24.717051443677633 -13.751342942796498 20.59114351448744 -13.625 16.25 C-13.631445312500006 15.127226562499999 -13.637890624999997 14.004453124999998 -13.64453125 12.84765625 C-13.536793053429449 4.649758929132062 -13.536793053429449 4.649758929132062 -11.08349609375 1.68017578125 C-7.574892125851051 -1.1492374490148904 -4.313501601493684 -0.44600459690481387 0 0 Z " fill="#3F6782" transform="translate(112,52)"/>
<path d="M0 0 C7.9420384024254105 -0.32541002417107734 13.763026021148306 -0.24348504399522142 20.0234375 5.234375 C20.0234375 5.894374999999997 20.0234375 6.554374999999993 20.0234375 7.234375 C21.01343750000001 7.564374999999998 22.00343749999999 7.894374999999997 23.0234375 8.234375 C26.413155348517222 13.44932553618034 26.277658597551095 16.5223648779599 27.0234375 23.234375 C9.863437500000003 23.234375 -7.296562499999993 23.234375 -24.9765625 23.234375 C-28.9765625 10.234375 -28.9765625 10.234375 -29.9765625 6.234375 C-20.643577007778212 0.9696139531056502 -10.476170883081139 0.6174560441894528 0 0 Z " fill="#96CEDB" transform="translate(83.9765625,104.765625)"/>
<path d="M0 0 C3.9608966941955828 1.7628166606035336 6.371448002115315 2.949014289491643 8.5 6.75 C14.432505276576535 15.233952136951146 25.477741997873977 17.883942666194216 35 20 C35 30.230000000000004 35 40.46000000000001 35 51 C29.39 51 23.78 51 18 51 C17.34895833333333 48.00520833333334 16.69791666666667 45.01041666666666 16.046875 42.015625 C14.900476541748702 38.71331302324627 13.536844561802042 37.32718798644652 11 35 C11 34.34 11 33.68000000000001 11 33 C10.298749999999998 32.7525 9.597499999999997 32.504999999999995 8.875 32.25 C3.3457375050819422 29.845972828296496 -0.5859275407544118 27.25812780731789 -3.3046875 21.83203125 C-6.051026157004088 14.595891754860006 -2.3308788789639294 6.919796671924161 0 0 Z " fill="#5DAACC" transform="translate(93,77)"/>
<path d="M0 0 C14.519999999999996 0 29.040000000000006 0 44 0 C44 7.92 44 15.84 44 24 C35.426448340115826 23.571322417005792 26.85498216836669 23.11355110934957 18.3125 22.25 C17.0505078125 22.13140625 15.788515625000002 22.0128125 14.48828125 21.890625 C9.207479440211017 20.542335176224093 6.166380734520914 17.88790928192222 3.3203125 13.28125 C2.7286328124999955 11.90453125 2.7286328124999955 11.90453125 2.125 10.5 C1.7150781250000051 9.5821875 1.305156249999996 8.664375 0.8828125 7.71875 C0 5 0 5 0 0 Z " fill="#4A728D" transform="translate(84,0)"/>
<path d="M0 0 C11.880000000000003 0 23.760000000000005 0 36 0 C37 14.000000000000002 37 14.000000000000002 33.375 19.0625 C31.942655103621746 20.403313357231454 30.48654369821972 21.719539069555665 29 23 C27.793437499999996 24.330312499999998 27.793437499999996 24.330312499999998 26.5625 25.6875 C22.9963452696988 28.90573719563767 19.050011095546274 31.432345906745173 15 34 C13.68 33.34 12.36 32.68 11 32 C11 31.34 11 30.68 11 30 C10.340000000000003 30 9.68 30 9 30 C7.685434511442992 27.230129665341163 6.373271303900509 24.45916513320501 5.0625 21.6875 C4.689316406250001 20.90181640625 4.316132812500001 20.1161328125 3.931640625 19.306640625 C3.573925781249997 18.54931640625 3.2162109375000014 17.7919921875 2.84765625 17.01171875 C2.5177368164062486 16.31522216796875 2.187817382812497 15.6187255859375 1.847900390625 14.901123046875 C-0.647712680514239 9.30557482200853 0 7.319983143603487 0 0 Z " fill="#B4BAC5" transform="translate(38,0)"/>
<path d="M0 0 C6.662003250742316 1.4502320001615914 10.15696439722187 3.6766841687109775 14.375 9.0078125 C17.16883163927683 12.432942634690349 20.6737286343878 14.946784503778545 24.125 17.6875 C28.27373667698145 22.804275234943788 30 28.494054355812295 30 35 C17.79 35 5.579999999999998 35 -7 35 C-7 29.0745887491222 -6.701293933658057 24.70807463373677 -5.1875 19.1875 C-5.007353515624999 18.500429687500002 -4.827207031250001 17.813359375000005 -4.6416015625 17.10546875 C-4.104527126578784 15.067437616167979 -3.5540328797383225 13.033477756774715 -3 11 C-2.6919140625000004 9.851445312500005 -2.383828125000001 8.702890624999995 -2.06640625 7.51953125 C-1.387890428369392 5.009996656122198 -0.7001504850669811 2.5035684011485984 0 0 Z " fill="#87ABA7" transform="translate(29,93)"/>
<path d="M0 0 C6.455492209759939 2.010727081728504 10.047435985420549 6.929300600538205 13.20703125 12.76171875 C15.281017128283708 17.54727627126948 16.75746642688128 21.93768651732624 15.8125 27.1875 C11.777144095952863 31.453447669992684 7.709046611640034 33.03455269260968 1.9375 33.5 C-3.6717529271555094 33.330982962646914 -7.767052445015537 31.4185545476532 -12 27.75 C-15.05302230595283 24.17360244159812 -16.27714108299584 22.73567620424059 -16 17.94921875 C-15.063466336811693 13.61324799206568 -13.538288235020893 11.346189872105896 -10.8125 7.875 C-10.021015625000004 6.847617187499999 -9.22953125 5.820234374999998 -8.4140625 4.76171875 C-5.675740764787307 1.595834498236556 -4.236930458488317 0.24923120344048755 0 0 Z " fill="#C1E0ED" transform="translate(70.1875,51.8125)"/>
<path d="M0 0 C0.3299999999999983 0.6600000000000001 0.6599999999999966 1.3200000000000003 1 2 C1.9899999999999949 2.3299999999999983 2.980000000000004 2.6599999999999966 4 3 C10.562401394539592 15.881750885577716 2.694672591173358 34.13214817699743 -1.3984375 46.90625 C-2.0442263833519547 49.15393078880939 -2.420754201137264 51.383112947866266 -2.8125 53.6875 C-3.846213549962471 58.48871500065215 -6.0604858088314515 62.02202600241051 -10 65 C-13.606679889004823 65.57706878224077 -16.52983082324942 65.06774436207711 -20 64 C-22.28834764174041 55.13265288825593 -21.21692300453238 49.37117936331096 -16.60546875 41.48046875 C-13.71784838430466 37.01906015579918 -13.71784838430466 37.01906015579918 -12 35 C-11.340000000000003 35 -10.68 35 -10 35 C-9.56880859375 34.13568359375 -9.56880859375 34.13568359375 -9.12890625 33.25390625 C-8.411763268357696 31.82210175031969 -7.690839929531926 30.392179635042012 -6.96484375 28.96484375 C-6.625820312499997 28.2958203125 -6.286796875 27.626796874999997 -5.9375 26.9375 C-5.595898437499997 26.2658984375 -5.254296875000001 25.594296874999998 -4.90234375 24.90234375 C-2.6860111005869953 20.229815610328416 -2.6226960932529977 15.70229538880357 -2.28125 10.6171875 C-2 8 -2 8 -1 7 C-0.6323926889530966 4.671820363369605 -0.2975841910374939 2.3381615010088836 0 0 Z " fill="#6392AE" transform="translate(48,30)"/>
<path d="M0 0 C12.999999999999998 1 12.999999999999998 1 18 2 C18 2.6599999999999966 18 3.319999999999993 18 4 C18.556875 4.206249999999997 19.11375 4.412499999999994 19.6875 4.625 C22.939476483160156 6.558607638635763 25.259717233999407 8.656825212683074 27 12 C27.6959476205673 15.666332754727733 27.92704838879878 19.272835864083163 28 23 C27.2381640625 23.279726562500002 26.476328125 23.559453125000005 25.69140625 23.84765625 C19.274838626150107 26.33898275563959 14.13705996503678 29.016955333490685 8.9375 33.546875 C6.877578030779639 35.09181647691527 5.543812588274093 35.692280735289415 3 36 C2.01 35.67 1.02 35.34 0 35 C0 23.450000000000003 0 11.900000000000006 0 0 Z " fill="#1F626D" transform="translate(0,69)"/>
<path d="M0 0 C3.299999999999997 0 6.599999999999994 0 10 0 C10.412499999999994 1.505625 10.825000000000003 3.01125 11.25 4.5625 C12.25048962898893 7.978457447547894 13.150538745451342 10.230235728337359 15.125 13.25 C21.80578763977134 24.488224169227756 16.64416089427948 40.22682727378176 14 52 C13.340000000000003 52 12.680000000000007 52 12 52 C11.879956054687497 51.4068701171875 11.759912109374994 50.813740234375 11.63623046875 50.20263671875 C9.380323056230779 39.2371864831086 7.0462362927351165 28.82428166870444 2.234375 18.6796875 C0.16844123189142124 14.194780648979474 -0.11620453400044539 10.690817128040347 -0.0625 5.75 C-0.04896484374999943 4.133515624999999 -0.04896484374999943 4.133515624999999 -0.03515625 2.484375 C-0.023554687499995453 1.66453125 -0.011953125000005116 0.8446874999999998 0 0 Z " fill="#83A6BA" transform="translate(74,0)"/>
<path d="M0 0 C0.3299999999999983 0.6600000000000001 0.6599999999999966 1.3200000000000003 1 2 C1.990000000000002 2.3299999999999983 2.979999999999997 2.6599999999999966 4 3 C5.959592922269152 6.65314839482626 6.223760600848458 9.713935064789105 6.125 13.8125 C6.106953125000004 14.788320312499998 6.088906250000001 15.764140624999996 6.0703125 16.76953125 C6.047109374999998 17.5055859375 6.023906249999996 18.241640625000002 6 19 C1.9340758457037879 12.901113768555682 -0.6292754650907497 7.393986714816336 0 0 Z " fill="#83A6BA" transform="translate(48,30)"/>
</svg>
