<?xml version="1.0" encoding="UTF-8"?>
<!-- Generator: visioncortex VTracer 0.6.0 -->
<svg version="1.1" xmlns="http://www.w3.org/2000/svg" width="128" height="128">
<path d="M0 0 C42.24 0 84.48 0 128 0 C128 42.24 128 84.48 128 128 C85.75999999999999 128 43.519999999999996 128 0 128 C0 85.75999999999999 0 43.519999999999996 0 0 Z " fill="#719069" transform="translate(0,0)"/>
<path d="M0 0 C42.24 0 84.48 0 128 0 C128 14.190000000000001 128 28.380000000000003 128 43 C119.0103181427343 41.8762897678418 119.0103181427343 41.8762897678418 116.4375 39.6015625 C115.867734375 39.12203125 115.29796875 38.6425 114.7109375 38.1484375 C113.8640234375 37.3943359375 113.8640234375 37.3943359375 113 36.625 C107.4305762381105 31.742217523822905 102.21376925957154 27.852148447032576 94.4375 28.125 C90.90857302923004 28.83964947904236 90.90857302923004 28.83964947904236 87.875 30.9375 C86.11718749999999 31.7578125 86.11718749999999 31.7578125 84 32 C81.19531249999999 30.92968749999999 81.19531249999999 30.92968749999999 78 29.3125 C69.97304883309005 25.257553371480622 61.650001880212585 22.656966766178975 52.6640625 24.79296875 C49.60172006279787 25.98473677656859 46.844045929153786 27.35855509430145 44 29 C43.296171875 29.3673828125 42.59234375 29.734765625 41.8671875 30.11328125 C33.60307676651994 35.24907476250684 24.861295254476158 47.92707803299061 22.375 57.375 C21.050475330352512 66.6466726875324 24.466563723093564 72.98966676240907 29.73828125 80.46484375 C30.766323598693603 81.82166336534024 31.816855417974683 83.16202427723077 32.8984375 84.4765625 C34 86 34 86 34 88 C34.66 88 35.32 88 36 88 C36.33 88.66 36.66 89.32 37 90 C39.69537765356914 90.85141636228447 39.69537765356914 90.85141636228447 42.9375 91.5 C44.10796875 91.7565234375 45.2784375 92.013046875 46.484375 92.27734375 C50.337458648037384 93.06936649987435 54.19739221076385 93.80642583000034 58.07421875 94.47265625 C60.00000000000001 95 60.00000000000001 95 62 97 C62.316002363810355 99.6114912329988 62.51404034164447 102.12857807135052 62.625 104.75 C62.683007812499994 105.77673828125 62.683007812499994 105.77673828125 62.7421875 106.82421875 C63.100265059748445 113.89625055503176 63 120.89844785240892 63 128 C42.209999999999994 128 21.419999999999995 128 0 128 C0 85.75999999999999 0 43.519999999999996 0 0 Z " fill="#749D85" transform="translate(0,0)"/>
<path d="M0 0 C42.24 0 84.48 0 128 0 C128 14.190000000000001 128 28.380000000000003 128 43 C119.0103181427343 41.8762897678418 119.0103181427343 41.8762897678418 116.4375 39.6015625 C115.867734375 39.12203125 115.29796875 38.6425 114.7109375 38.1484375 C113.8640234375 37.3943359375 113.8640234375 37.3943359375 113 36.625 C107.4305762381105 31.742217523822905 102.21376925957154 27.852148447032576 94.4375 28.125 C90.90857302923004 28.83964947904236 90.90857302923004 28.83964947904236 87.875 30.9375 C86.12109375 31.7578125 86.12109375 31.7578125 84 32 C80.70693949802381 30.758874033643085 77.67290145282135 29.177463500060547 74.5390625 27.578125 C64.76441912885758 23.219454004479537 53.39295622713536 22.711417599289163 43.35546875 26.3046875 C41.31149954163315 27.091061118833995 39.27299784912849 27.890531632998368 37.23486328125 28.69189453125 C24.771570679802192 33.51010271984989 13.594497427412797 34 0 34 C0 22.78 0 11.559999999999999 0 0 Z " fill="#61B3CF" transform="translate(0,0)"/>
<path d="M0 0 C2 2 2 2 2 5 C2.989999999999995 5.4950000000000045 2.989999999999995 5.4950000000000045 4 6 C7 10.500000000000014 7 10.500000000000014 7 13 C7.659999999999997 13 8.319999999999993 13 9 13 C11.68106315360609 19.19995854271407 12.410282914485194 26.165429100284065 10.0546875 32.5703125 C6.760625929124501 38.84767511619671 2.8328645013964433 42.775346441405816 -4 45 C-6.007452628884778 45.524769774355775 -8.018803735362695 46.01904139527082 -10.0390625 46.4921875 C-12.175279836977367 47.001182470729006 -12.175279836977367 47.001182470729006 -14.8125 48.125 C-19.523141169274794 49.4181171837225 -24.14527585549527 49.15548938541119 -29 49 C-28.752499999999998 50.268437500000005 -28.752499999999998 50.268437500000005 -28.5 51.5625 C-27.986707118499545 55.09138856031562 -27.92878653780737 58.439326890368505 -28 62 C-35.562187216125324 61.66569599197007 -42.06194817934458 61.12892533088382 -49 58 C-49 57.34 -49 56.68000000000001 -49 56 C-49.66 56 -50.32 56 -51 56 C-53.765081720910004 52.87813354090807 -55.892081693819165 49.582938063855764 -58 46 C-58.54140625 45.100234375 -59.0828125 44.20046875 -59.640625 43.2734375 C-63.002057368948584 37.21959570932074 -64.94949500541281 32.59006042054787 -63.796875 25.64453125 C-62.349572637984906 20.841473901547943 -59.88884093108561 17.062622614663553 -57 13 C-56.3361328125 11.994531250000001 -55.672265625 10.989062500000003 -54.98828125 9.953125 C-49.94239533852825 2.669655928503971 -44.86569063142205 -1.9433319682021235 -37 -6 C-36.3567578125 -6.381562500000001 -35.713515625 -6.763124999999999 -35.05078125 -7.15625 C-23.791915048462556 -12.822317155654417 -9.736009840267997 -5.905676927430083 0 0 Z " fill="#437487" transform="translate(85,32)"/>
<path d="M0 0 C4.094410707997156 2.1973581617158224 7.706853509981272 4.936353910940227 11.2890625 7.8828125 C12.039296874999991 8.498984375 12.78953125000001 9.115156249999998 13.5625 9.75 C14.223789062500003 10.322343750000002 14.885078125000007 10.894687500000003 15.56640625 11.484375 C18.70305690509042 13.610671153004702 18.70305690509042 13.610671153004702 26 15 C26 22.92 26 30.840000000000003 26 39 C23.855000000000004 38.896874999999994 21.709999999999994 38.79375 19.5 38.6875 C12.694418468329872 38.666877025661606 9.234652009166425 39.90655174638644 4 44 C2.9365234375 44.4833984375 2.9365234375 44.4833984375 1.8515625 44.9765625 C-0.3497698871510124 45.920460536465384 -0.3497698871510124 45.920460536465384 -1 49 C-1.7837499999999977 49.08250000000001 -2.5674999999999955 49.16499999999999 -3.375 49.25 C-4.241250000000008 49.4975 -5.107500000000002 49.745000000000005 -6 50 C-6.7052134741325915 51.31335302874896 -7.366065805427326 52.65079665758873 -8 54 C-14.097107572753146 62.23672579749237 -21.00851052408487 66.89564358634595 -31.2890625 68.51953125 C-32.389921875 68.6162109375 -33.49078125 68.712890625 -34.625 68.8125 C-36.2840234375 68.97685546874999 -36.2840234375 68.97685546874999 -37.9765625 69.14453125 C-41 69 -41 69 -43.3515625 67.9296875 C-45.72737548745823 65.14852253363894 -45.607077981196156 62.9212809747971 -45.75 59.3125 C-45.80671875 58.1330078125 -45.8634375 56.953515624999994 -45.921875 55.73828125 C-45.960546875 54.382832031250004 -45.960546875 54.382832031250004 -46 53 C-44.96359375 52.878828125 -43.9271875 52.75765625 -42.859375 52.6328125 C-41.48953562399252 52.46392819336894 -40.11974650584909 52.29463588889443 -38.75 52.125 C-38.0680859375 52.04636718750001 -37.386171875 51.96773437499999 -36.68359375 51.88671875 C-33.040042294214274 51.42685303227947 -30.20588490943723 50.76393667506153 -27 49 C-25.55034051730722 48.667896191237645 -24.090708715346153 48.37699904228759 -22.625 48.125 C-17.47449252736024 47.002020501867065 -13.87502539441249 45.38098462782537 -10.5234375 41.125 C-5.653766805071072 33.507638019105585 -6.136575338485855 25.618339059502908 -8 17 C-8.659999999999997 17 -9.319999999999993 17 -10 17 C-13.326084253430267 12.799752577398955 -15.58163643123784 8.157685704589667 -17 3 C-11.216203903487383 -0.11950113538759055 -6.437626807324818 -2.3319341806879876 0 0 Z " fill="#5A8C7D" transform="translate(102,28)"/>
<path d="M0 0 C5.832885751798983 5.832885751798983 7.701615548112585 15.537190419951365 10.25 23.25 C10.549062499999991 24.139453125000003 10.84812500000001 25.02890625 11.15625 25.9453125 C12.880139082742375 31.132235403826627 14.372355697739167 36.304362320100026 15.625 41.625 C8.762489712009113 46.00938157288307 2.6720390385286947 46.19824337236831 -5.375 45.625 C-10.210691731992071 44.10265260289138 -12.664862159236037 41.484542651035184 -15.73828125 37.63671875 C-17.53897884063452 35.42345082833705 -19.479846305184942 33.387686374428725 -21.4375 31.3125 C-26.25958592849741 25.869106846100046 -29.989523215696494 20.35127558160056 -30.75 13 C-28.162910989359382 6.649872428427571 -22.729326359079025 2.9947898816459784 -16.9375 -0.375 C-10.956568018245832 -2.053858100141518 -5.80812899565025 -2.3662747760056604 0 0 Z " fill="#1A5063" transform="translate(60.375,35.375)"/>
<path d="M0 0 C-0.16499999999999204 0.8868750000000034 -0.3299999999999983 1.7737500000000068 -0.5 2.6875 C-1.707795728491135 11.538659741629047 -2.509409453058481 19.601650163035742 3 27 C3.9281249999999943 27.99000000000001 3.9281249999999943 27.99000000000001 4.875 29 C6 31 6 31 5.5 34.3125 C3.778745196372313 38.54391805891808 1.8846731312067107 41.46627541427179 -1 45 C-1.6599999999999966 45 -2.319999999999993 45 -3 45 C-3.6599999999999966 46.97999999999999 -4.319999999999993 48.96000000000001 -5 51 C-15.560000000000002 51 -26.120000000000005 51 -37 51 C-37.68015770302706 40.62759502883745 -38.148285778093665 30.396480664122407 -38 20 C-36.9378125 19.829843749999995 -35.875625 19.659687500000004 -34.78125 19.484375 C-20.819006417428 17.144398754405145 -14.347483910343584 14.043674284607121 -5 3 C-2.2850971922246117 0 -2.2850971922246117 0 0 0 Z " fill="#8F9581" transform="translate(100,77)"/>
<path d="M0 0 C9.569999999999993 0 19.14 0 29 0 C29 14.190000000000001 29 28.380000000000003 29 43 C20.01031814273429 41.87628976784178 20.01031814273429 41.87628976784178 17.4375 39.6015625 C16.867734374999998 39.12203125 16.297968749999995 38.6425 15.7109375 38.1484375 C14.864023437499995 37.3943359375 14.864023437499995 37.3943359375 14 36.625 C8.43057623811049 31.7422175238229 3.213769259571535 27.852148447032576 -4.5625 28.125 C-8.097299183418187 28.846287648636455 -8.097299183418187 28.846287648636455 -11.1875 30.9375 C-16.74051717323502 32.485062163032715 -19.74552540042785 30.12794723141863 -24.62109375 27.41796875 C-25.406132812500005 26.9500390625 -26.191171874999995 26.482109375 -27 26 C-26.437968749999996 25.7254296875 -25.875937500000006 25.450859375 -25.296875 25.16796875 C-12.645343235837956 18.734621815502635 -6.115356704541497 13.453784749991295 0 0 Z " fill="#6DABAC" transform="translate(99,0)"/>
<path d="M0 0 C0.8946093750000017 0.193359375 1.7892187500000034 0.38671875 2.7109375 0.5859375 C4.524648437499998 0.9765234375000063 4.524648437499998 0.9765234375000063 6.375 1.375 C7.646015625000004 1.6495703125000034 8.91703125 1.9241406250000068 10.2265625 2.20703125 C14.175566879837376 3.0368944892411918 18.133938883409286 3.7815622231092334 22.109375 4.47265625 C24 5 24 5 26 7 C26.316002363810355 9.611491232998816 26.514040341644467 12.12857807135049 26.625 14.75 C26.683007812499994 15.776738281250005 26.683007812499994 15.776738281250005 26.7421875 16.82421875 C27.100265059748445 23.8962505550318 27 30.898447852408765 27 38 C14.79 38 2.5799999999999983 38 -10 38 C-8.922866314199396 28.305796827794566 -8.922866314199396 28.305796827794566 -6.9609375 23.5078125 C-5.612831432254886 19.989584469543246 -4.498219872684242 16.407857117722685 -3.375 12.8125 C-3.1568261718749966 12.122770996093749 -2.9386523437500003 11.433041992187498 -2.7138671875 10.722412109375 C-1.6077018934083895 7.172103204738036 -0.640386419225436 3.664433398901096 0 0 Z " fill="#74A19F" transform="translate(36,90)"/>
<path d="M0 0 C-3.8128576491778787 2.5419050994519203 -7.863472025293348 4.390784854213109 -11.9921875 6.3671875 C-18.33944184183612 9.812839856996753 -21.764142613232437 14.106957068038923 -25.6875 20 C-26.17283203125 20.7115625 -26.6581640625 21.423125 -27.158203125 22.15625 C-30.507890057286012 27.109166401945657 -33.029209421051334 31.301422571421533 -34.125 37.25 C-34.292578125 38.14203125 -34.46015625 39.0340625 -34.6328125 39.953125 C-34.753984375 40.62859375 -34.87515625 41.3040625 -35 42 C-36.2375 41.690625 -37.475 41.381249999999994 -38.75 41.0625 C-45.07739775000496 39.676043837489146 -45.07739775000496 39.676043837489146 -56 39 C-56 29.759999999999998 -56 20.519999999999996 -56 11 C-52.44627144888667 10.11156786222167 -50.25925558846713 9.976794373922523 -46.6875 10.125 C-34.33566407846432 10.169699044348135 -23.21793003221552 6.646131006291217 -11.7890625 2.337646484375 C-4.26051935444243 -0.4608316852764247 -4.26051935444243 -0.4608316852764247 0 0 Z " fill="#33A3B9" transform="translate(56,23)"/>
<path d="M0 0 C13.200000000000003 0 26.400000000000006 0 40 0 C35.787251712808356 12.638244861574941 30.04892669150334 17.646627338996115 18.953125 24.2109375 C13.628874548683598 26.62542316978302 8.671155791036242 25.877429538395628 3.0625 25 C2.3038061523437534 24.8880126953125 1.5451123046874997 24.776025390625 0.763427734375 24.66064453125 C-2.6330940862009555 24.01664163392064 -4.573669357109004 23.57207623476303 -6.6796875 20.74609375 C-7.113645838893497 17.025694820217975 -6.029811834796767 15.293823466449405 -4.1875 12.0625 C-1.6858723610772302 7.625975011063739 -0.8758612354517652 5.255167412710594 0 0 Z " fill="#7BBEC5" transform="translate(59,0)"/>
<path d="M0 0 C0.6600000000000001 0.3299999999999983 1.3200000000000003 0.6599999999999966 2 1 C1.8556249999999999 2.072499999999998 1.7112499999999997 3.145000000000003 1.5625 4.25 C1.608882475188956 13.000826985649411 8.12940583117257 20.414297483614504 13.9375 26.375 C16.99206701949891 29.298790449856753 20.088455374850533 31.846807839950372 23.5625 34.25 C26.270027134013695 36.19484343429153 26.886489236395192 36.66656213191088 28 39.9375 C28 40.948125000000005 28 41.95875000000001 28 43 C28.020625000000003 44.27875 28.041249999999998 45.557500000000005 28.0625 46.875 C28.041874999999997 47.90625 28.021250000000002 48.9375 28 50 C20.437812783874676 49.66569599197007 13.938051820655417 49.12892533088382 7 46 C7 45.34 7 44.68000000000001 7 44 C6.340000000000003 44 5.68 44 5 44 C2.2349182790899995 40.87813354090807 0.10791830618083864 37.58293806385578 -2 34 C-2.5414062500000014 33.100234375 -3.0828124999999993 32.20046875 -3.640625 31.2734375 C-6.995246128698646 25.231862554625252 -8.916358995668578 20.619953602036873 -7.828125 13.6875 C-6.31206669961103 8.767461742133918 -3.678654676023992 3.6786546760239887 0 0 Z " fill="#357878" transform="translate(29,44)"/>
<path d="M0 0 C2.504778859259474 1.628106258518656 3.564711395815422 2.4344841325899367 5 5 C6.051159265558283 13.092905801822454 5.028615861476453 21.13911353677878 3 29 C2.3400000000000034 29 1.6800000000000068 29 1 29 C0.7357421874999943 29.5775 0.47148437500000284 30.155 0.19921875 30.75 C-3.8497228186219417 38.34671121669784 -9.844785809513837 43.06589593132388 -17.80078125 46.05078125 C-21.12180045456637 47.0361385964098 -24.176810054785904 47.5096730141791 -27.625 47.8125 C-28.731015624999998 47.9220703125 -29.837031249999995 48.031640624999994 -30.9765625 48.14453125 C-34 48 -34 48 -36.3515625 46.9296875 C-38.727375487458225 44.14852253363895 -38.607077981196156 41.9212809747971 -38.75 38.3125 C-38.80671875 37.1330078125 -38.8634375 35.953515624999994 -38.921875 34.73828125 C-38.960546875 33.382832031250004 -38.960546875 33.382832031250004 -39 32 C-37.96359375 31.878828125 -36.9271875 31.757656249999997 -35.859375 31.6328125 C-34.48953562399252 31.463928193368943 -33.11974650584909 31.294635888894433 -31.75 31.125 C-31.0680859375 31.046367187499996 -30.386171875000002 30.967734374999992 -29.68359375 30.88671875 C-26.040042294214274 30.426853032279467 -23.20588490943723 29.76393667506153 -20 28 C-18.55034051730722 27.667896191237645 -17.090708715346153 27.376999042287594 -15.625 27.125 C-9.47740634321579 25.78462302237328 -5.602369847164056 23.36597468310495 -2.125 18.0625 C0.9062762249804024 12.27111603022913 0.44304562717839246 6.370011572987067 0 0 Z " fill="#597070" transform="translate(95,49)"/>
<path d="M0 0 C11.549999999999997 0 23.1 0 35 0 C33.4974642692485 13.522821576763487 33.4974642692485 13.522821576763487 28 19 C20.6756493715543 22.31292153766209 10.943739721878686 23.286129288304167 3 22 C1.2265625 20.8515625 1.2265625 20.8515625 0 19 C-1 13 -1 13 0 0 Z " fill="#6ACCEE" transform="translate(24,0)"/>
<path d="M0 0 C0 8.579999999999998 0 17.159999999999997 0 26 C-10.89 26 -21.78 26 -33 26 C-32 22 -32 22 -31 20 C-30.340000000000003 20 -29.680000000000007 20 -29 20 C-28.597812500000003 18.917187499999997 -28.597812500000003 18.917187499999997 -28.1875 17.8125 C-27.002152576679208 15.005098207924448 -25.643170568947625 12.563346087558301 -24 10 C-23.628749999999997 9.278125000000003 -23.257499999999993 8.556250000000006 -22.875 7.8125 C-20.299542465912808 5.322891050382381 -17.875469780309814 5.190434325462675 -14.4140625 4.5703125 C-11.23148049540066 3.8184403759360777 -8.64523518022473 2.425145575223425 -5.82421875 0.8046875 C-4 0 -4 0 0 0 Z " fill="#698574" transform="translate(128,102)"/>
<path d="M0 0 C16.073211314475873 -0.4592346089850281 16.073211314475873 -0.4592346089850281 21 3 C23.13357929514437 5.8233831274090875 24.87989690315741 8.633856839176175 26 12 C25.625 14.28515625 25.625 14.28515625 25 16 C24.34 16 23.68 16 23 16 C22.7486328125 16.6148828125 22.497265625 17.229765625 22.23828125 17.86328125 C19.84578186523482 21.991663469137393 14.910252089629868 23.426924373111035 10.5 24.75 C7.016382834056548 25.09836171659434 3.500991922933334 25 0 25 C0 16.75 0 8.5 0 0 Z " fill="#6BBDAB" transform="translate(0,62)"/>
</svg>
