<?xml version="1.0" encoding="UTF-8"?>
<!-- Generator: visioncortex VTracer 0.6.0 -->
<svg version="1.1" xmlns="http://www.w3.org/2000/svg" width="128" height="128">
<path d="M0 0 C42.24 0 84.48 0 128 0 C128 42.24 128 84.48 128 128 C85.75999999999999 128 43.519999999999996 128 0 128 C0 85.75999999999999 0 43.519999999999996 0 0 Z " fill="#675AAA" transform="translate(0,0)"/>
<path d="M0 0 C7.6865632542485685 3.6593136582647077 15.178886579506809 6.739162556162508 23.37890625 9.01953125 C28.07685595598869 10.94893693107749 30.604061004017467 14.093591506026208 33.375 18.25 C34.96359868190275 27.363539806705234 31.194455857568585 34.27515720474516 26.125 41.5625 C24.264878564305803 44.419115061958934 23.375 45.8452164686728 23.375 49.25 C24.241305458857738 51.3863260830084 25.246520973697358 53.36874748419734 26.3671875 55.3828125 C27.375 57.25 27.375 57.25 28.375 60.25 C21.625 63.25 21.625 63.25 19.375 63.25 C20.20155804004274 69.27350625497942 20.20155804004274 69.27350625497942 24.3125 73.375 C25.323125000000005 73.99375 26.333749999999995 74.6125 27.375 75.25 C29.381437418126907 78.52718111627395 30.375 80.4024046182229 30.375 84.25 C23.537562050415715 87.10684618032398 17.124783365306655 88.15135021103735 9.796875 88.978515625 C2.1184343749627033 89.97365095140438 -3.5080965261164465 92.54468963547419 -9.625 97.25 C-10.284999999999997 97.25 -10.945 97.25 -11.625 97.25 C-11.625 97.91 -11.625 98.57 -11.625 99.25 C-13.6015625 100.90625 -13.6015625 100.90625 -16.25 102.75 C-17.108515625000003 103.3584375 -17.967031249999998 103.966875 -18.8515625 104.59375 C-21.715974125336558 106.30432821006015 -24.432055203540443 107.3136525523579 -27.625 108.25 C-28.80231985771156 106.33985859820267 -29.96651105015642 104.42162055966118 -31.125 102.5 C-31.7746875 101.43265625 -32.424375 100.3653125 -33.09375 99.265625 C-34.625 96.25 -34.625 96.25 -34.625 92.25 C-35.854765625 92.1765234375 -35.854765625 92.1765234375 -37.109375 92.1015625 C-38.187031250000004 92.026796875 -39.2646875 91.95203125 -40.375 91.875 C-41.44234375 91.805390625 -42.5096875 91.73578125 -43.609375 91.6640625 C-46.45517850271707 91.27331745947149 -48.221646346504926 90.77637934113429 -50.625 89.25 C-52.249917023501986 87.00606696754488 -52.61466355758472 85.64278481178059 -52.6875 82.875 C-50.57190973313051 77.64824757596949 -45.465360913567544 74.7913512311449 -40.875 71.8125 C-37.18581138656801 69.18926204688245 -35.741359621505225 66.71543848602089 -34.625 62.25 C-34.306796779120084 54.27900931695817 -39.8505160616577 48.277306207407854 -44.41015625 42.2890625 C-48.155701094818696 37.149672924569764 -48.26667549626854 32.41721449191431 -47.625 26.25 C-46.342754789859725 21.76214176450904 -44.953470354446075 18.3092745495089 -41.25390625 15.359375 C-38.28913015820402 12.980505624710506 -36.43631407536569 10.4768824246163 -34.25 7.375 C-23.669523312755025 -7.067350678089392 -15.450946372905534 -7.583228107079265 0 0 Z " fill="#38565A" transform="translate(74.625,12.75)"/>
<path d="M0 0 C42.24 0 84.48 0 128 0 C128 11.22 128 22.44 128 34 C123.50614499960294 34 123.11291682380568 33.64403985963184 120 30.75 C119.3000390625 30.11578125 118.600078125 29.4815625 117.87890625 28.828125 C115.99999999999999 26.999999999999986 115.99999999999999 26.999999999999986 113.9375 24.5 C111.92946843261873 22.608555977178415 111.92946843261873 22.608555977178415 108.375 23.1875 C105.15516290751282 23.82848208331695 105.15516290751282 23.82848208331695 103 25 C95.41508604982616 22.889415248647282 88.12369107407918 19.685362218173978 80.9375 16.5 C66.92762118569206 9.081747729342528 66.92762118569206 9.081747729342528 52 9 C45.54865826935654 13.054758959219686 41.365246397762704 19.28039320320706 37.078125 25.42578125 C35.03331466415267 27.958732399104118 33.83010176502632 28.644908900644175 31 30 C28.033210382782883 34.837638293745826 27.87346123121204 40.15775580396621 28 45.6875 C28.103235415016915 50.60838811580629 28.11188733731209 53.95454646149428 25 58 C20.80370179996167 61.15488112849597 16.987035647149117 62.865361280651165 11.9375 64.25 C10.15666015625 64.75273437499999 10.15666015625 64.75273437499999 8.33984375 65.265625 C5.000000000000005 66 5.000000000000005 66 0 66 C0 44.22 0 22.439999999999998 0 0 Z " fill="#7E959D" transform="translate(0,0)"/>
<path d="M0 0 C5.731221630225797 1.9104072100752632 8.997645544022838 8.975067065091665 12 14 C13.73864273831719 17.830809500092215 14.395274149827777 20.857198029880976 13.62890625 25.01171875 C11.294240571159257 31.16894585119138 5.865246687276752 34.478421028732456 0.6796875 38.1171875 C-1.9997496165155724 39.88504762448633 -1.9997496165155724 39.88504762448633 -4 42 C-4.023759262517199 43.99315669683091 -4.023759262517199 43.99315669683091 -3.625 46.125 C-3.315624999999997 48.043125 -3.315624999999997 48.043125 -3 50 C-2.3477343750000017 50.048984375 -1.6954687499999999 50.09796875000001 -1.0234375 50.1484375 C9.525423728813578 51.05084745762713 9.525423728813578 51.05084745762713 13 53 C14.562500000000007 56.562500000000014 14.562500000000007 56.562500000000014 15.2109375 58.71484375 C16.346225698023915 62.0026833333861 18.163704971953145 64.7937264746631 20.01171875 67.7265625 C21 70 21 70 21 76 C5.159999999999997 76 -10.68 76 -27 76 C-27 55.53999999999999 -27 35.08 -27 14 C-21.72 12.680000000000007 -16.439999999999998 11.36 -11 10 C-9.02 9.009999999999998 -7.039999999999999 8.019999999999996 -5 7 C-4.010000000000002 6.670000000000002 -3.0199999999999996 6.340000000000003 -2 6 C-0.7747973614420403 2.9915258162691245 -0.7747973614420403 2.9915258162691245 0 0 Z " fill="#5E8B97" transform="translate(27,52)"/>
<path d="M0 0 C31.02000000000001 0 62.040000000000006 0 94 0 C94 11.22 94 22.44 94 34 C89.50614499960294 34 89.11291682380568 33.64403985963184 86 30.75 C85.3000390625 30.11578125 84.600078125 29.4815625 83.87890625 28.828125 C82.00000000000004 27.00000000000004 82.00000000000004 27.00000000000004 79.9375 24.5 C77.92946843261873 22.608555977178415 77.92946843261873 22.608555977178415 74.375 23.1875 C71.15516290751279 23.828482083316956 71.15516290751279 23.828482083316956 69 25 C61.415086049826186 22.889415248647285 54.12369107407915 19.68536221817397 46.9375 16.5 C32.92762118569206 9.081747729342524 32.92762118569206 9.081747729342524 18 9 C11.545038140008671 13.057034261400176 7.318231309885981 19.306848931010393 2.98046875 25.42578125 C1 28 1 28 -2 30 C-2.0585092401487906 26.312567657392048 -2.0937667343019903 22.625256299915065 -2.125 18.9375 C-2.1417578125 17.89916015625 -2.1585156249999997 16.8608203125 -2.17578125 15.791015625 C-2.1822265624999986 14.77587890625 -2.1886718750000007 13.7607421875 -2.1953125 12.71484375 C-2.2057861328124986 11.78792724609375 -2.2162597656250007 10.8610107421875 -2.22705078125 9.906005859375 C-2 7 -2 7 0 0 Z " fill="#7B768D" transform="translate(34,0)"/>
<path d="M0 0 C7.6865632542485685 3.6593136582647077 15.178886579506809 6.739162556162508 23.37890625 9.01953125 C28.076855955988663 10.948936931077483 30.60406100401748 14.093591506026215 33.375 18.25 C34.96359868190275 27.363539806705248 31.194455857568585 34.27515720474515 26.125 41.5625 C24.264878564305803 44.41911506195895 23.375 45.84521646867279 23.375 49.25 C24.241305458857738 51.38632608300841 25.246520973697343 53.36874748419733 26.3671875 55.3828125 C27.375 57.25 27.375 57.25 28.375 60.25 C23.02860296487684 63.800120782581786 18.895444028795268 64.6183375103636 12.5625 63.4375 C3.625500485492779 61.1233690314548 -5.416839334456569 57.19735837407217 -10.625 49.25 C-10.8671875 47.15234375 -10.8671875 47.15234375 -10.5 45.1875 C-10.394296874999995 44.5365234375 -10.288593750000004 43.885546875 -10.1796875 43.21484375 C-9.038401228114026 39.17211843479827 -8.088528705997618 37.55592894595843 -4.5 35.1875 C0.27766738893026854 32.93918593462105 5.381540337099352 32.15729871607959 10.56298828125 31.376708984375 C16.125998811333076 30.49509833967806 20.72156539581121 29.265123423855073 24.375 24.8125 C25.613114169366725 22.348528637191436 25.613114169366725 22.348528637191436 24.875 20.0625 C21.85639746475971 16.415021936584655 17.010377777174767 15.88770193667036 12.5625 14.9375 C7.763968294900764 13.781863391314733 4.336715891214624 12.209344123664248 0.2890625 9.4609375 C-6.875119413185232 4.928495881454239 -13.443984101400275 4.9807956643293885 -21.625 6.25 C-21.625 6.91 -21.625 7.57 -21.625 8.25 C-23.29166666666667 9.916666666666664 -24.958333333333336 11.583333333333332 -26.625 13.25 C-27.3984375 14.580312499999998 -27.3984375 14.580312499999998 -28.1875 15.9375 C-29.797256277972593 18.527107925434166 -30.72482327333251 19.371158567676517 -33.625 20.25 C-35.75 20.1875 -35.75 20.1875 -37.625 19.25 C-39.01953125 17.093749999999996 -39.01953125 17.093749999999996 -39.625 14.25 C-38.243301724254856 11.780252970200511 -36.98150320759675 9.944836396790887 -35.1875 7.8125 C-34.72464599609375 7.239189453125 -34.2617919921875 6.665878906250001 -33.784912109375 6.0751953125 C-22.92087386295873 -7.115910520204922 -14.87613681202518 -7.301115159879505 0 0 Z " fill="#496467" transform="translate(74.625,12.75)"/>
<path d="M0 0 C2.060102132811295 1.9659026317085946 3.9694719189753584 4.034577979965391 5.90234375 6.125 C8.16717251566024 8.149427946958873 10.820603897059613 10 14 10 C14 27.490000000000002 14 44.980000000000004 14 63 C10.700000000000003 63.989999999999995 7.400000000000006 64.98 4 66 C0.6393597612883326 67.93716266402083 0.6393597612883326 67.93716266402083 -2.125 70.1875 C-3.055703125000008 70.9029296875 -3.9864062500000017 71.618359375 -4.9453125 72.35546875 C-5.623359375000007 72.8981640625 -6.301406249999999 73.440859375 -7 74 C-9.669678419410175 72.66516079029492 -9.721230135526866 71.44442275084685 -10.75 68.6875 C-12.261886386230074 65.05897267304782 -12.751285121401523 64.1609331567402 -16.1875 61.9375 C-19 60 -19 60 -19.60546875 57.98828125 C-19.875 55.75 -19.875 55.75 -20 52 C-17.03 51.00999999999999 -14.060000000000002 50.02000000000001 -11 49 C-11.804374999999993 47.7625 -12.60875 46.525000000000006 -13.4375 45.25 C-15.20425278637181 42.53191879019721 -16.54128346681729 40.23722810560368 -17 37 C-15.17701320939284 31.638274145273044 -12.295319191173093 27.025337211730033 -9.3046875 22.234375 C-6.464603280733456 17.3705181933519 -6.464070419382324 12.49108176862373 -7 7 C-8.442190804364373 4.147512271669431 -8.442190804364373 4.147512271669431 -10 2 C-9.670000000000002 1.009999999999998 -9.340000000000003 0.019999999999999574 -9 -1 C-5.13093238720397 -2.074741003554454 -3.4149931095413564 -2.096587106799401 0 0 Z " fill="#747F85" transform="translate(114,24)"/>
<path d="M0 0 C0.24750000000000227 1.0931250000000006 0.49500000000000455 2.186250000000001 0.75 3.3125 C2.296284519986031 7.874039333958791 4.029399760811472 8.487987603778691 8 11 C10.006437418126865 14.27718111627388 11 16.152404618222903 11 20 C4.1625620504157155 22.856846180323984 -2.250216634693345 23.901350211037354 -9.578125 24.728515625 C-17.256565625037297 25.72365095140438 -22.883096526116447 28.294689635474185 -29 33 C-29.659999999999997 33 -30.32 33 -31 33 C-31 33.66 -31 34.31999999999999 -31 35 C-32.9765625 36.65625 -32.9765625 36.65625 -35.625 38.5 C-36.483515624999995 39.10843750000001 -37.342031250000005 39.716875 -38.2265625 40.34375 C-41.09097412533657 42.05432821006016 -43.80705520354043 43.063652552357894 -47 44 C-48.17731985771156 42.08985859820268 -49.34151105015642 40.17162055966118 -50.5 38.25 C-51.47453125 36.648984375 -51.47453125 36.648984375 -52.46875 35.015625 C-54 32 -54 32 -54 28 C-55.65 27.67 -57.3 27.340000000000003 -59 27 C-59 26.010000000000005 -59 25.019999999999996 -59 24 C-57.24218750000001 22.53515625 -57.24218750000001 22.53515625 -54.875 21.0625 C-53.64716796875 20.287128906250004 -53.64716796875 20.287128906250004 -52.39453125 19.49609375 C-51.6043359375 19.002382812500002 -50.814140625 18.508671875000005 -50 18 C-48.85128702970984 17.212517523511764 -47.704924059736584 16.421578562744372 -46.5625 15.625 C-44 14 -44 14 -42 14 C-42 13.340000000000003 -42 12.680000000000007 -42 12 C-41.34 12 -40.68 12 -40 12 C-39.7228515625 11.412187500000002 -39.445703125 10.824375000000003 -39.16015625 10.21875 C-36.03352970048111 4.239208316071625 -31.864856257913686 0.1275446264206863 -25.5546875 -2.34765625 C-17.536064008470888 -4.395225245543372 -7.485020142436966 -3.742510071218476 0 0 Z " fill="#34386F" transform="translate(94,77)"/>
<path d="M0 0 C3.795961402059845 1.8794818637879196 7.464785174200159 3.1382469053882076 11.625 3.9375 C15.621562521134152 4.736812504226833 18.026090096652922 6.122022674180251 21 9 C19.895122114287645 12.824577296696617 19.105084445420587 15.456246609930048 16 18 C13.906250000000014 18.87890625 13.906250000000014 18.87890625 11.5 19.5625 C10.16001953125 19.943417968749998 10.16001953125 19.943417968749998 8.79296875 20.33203125 C6.131516917047492 20.968546303755076 3.520997027836586 21.373482475950965 0.8125 21.75 C-4.179674253704036 22.557245198471293 -8.154315844216171 24.382986918642608 -12.625 26.625 C-18.404561792525676 29.482905649475285 -22.52924393862635 31.12981455039857 -29 30 C-34.2302024434346 27.335557245797467 -37.52919657033848 23.794526516356896 -40.25 18.625 C-41.18679507661215 15.346217231857466 -41.13301664958745 12.391924564479929 -41 9 C-40.13375 8.690624999999997 -39.2675 8.381250000000001 -38.375 8.0625 C-34.301540707176656 5.573163765496847 -32.6947757815073 2.9049043414114983 -30.296875 -1.13671875 C-29.868906250000002 -1.7516015624999994 -29.440937500000004 -2.366484374999999 -29 -3 C-28.340000000000003 -3 -27.68 -3 -27 -3 C-27 -3.66 -27 -4.32 -27 -5 C-16.810964111279745 -9.441374618160111 -9.112129046728086 -4.881954131627108 0 0 Z " fill="#142C53" transform="translate(80,24)"/>
<path d="M0 0 C0.6600000000000001 2.3100000000000023 1.3200000000000003 4.6200000000000045 2 7 C2.6522656249999983 7.048984375000003 3.30453125 7.097968750000007 3.9765625 7.1484375 C14.525423728813557 8.050847457627114 14.525423728813557 8.050847457627114 18 10 C19.562499999999993 13.562499999999986 19.562499999999993 13.562499999999986 20.2109375 15.71484375 C21.346225698023915 19.002683333386088 23.163704971953145 21.793726474663103 25.01171875 24.7265625 C26 27 26 27 26 33 C10.159999999999997 33 -5.68 33 -22 33 C-22 24.75 -22 16.5 -22 8 C-13.000000000000002 5 -13.000000000000002 5 -8 5 C-7.67 4.340000000000003 -7.34 3.680000000000007 -7 3 C-2.5 0 -2.5 0 0 0 Z " fill="#626E8A" transform="translate(22,95)"/>
<path d="M0 0 C14.519999999999996 0 29.040000000000006 0 44 0 C44 11.22 44 22.44 44 34 C39.64468834766771 34 39.35276163747106 33.8746777673669 36.375 31.125 C35.313457031249996 30.16400390625 35.313457031249996 30.16400390625 34.23046875 29.18359375 C32.74311702472812 27.727499854331043 31.306520443634014 26.217713268807493 29.92578125 24.66015625 C23.888886934509742 17.99112640409192 17.58102414205274 14.277801313283563 9.512451171875 10.399169921875 C8.715568847656243 10.01220947265625 7.918686523437501 9.6252490234375 7.09765625 9.2265625 C6.381018066406256 8.8922119140625 5.664379882812497 8.557861328125 4.926025390625 8.21337890625 C2.618780218580625 6.759834920312549 1.4116746449469844 5.324622231816534 0 3 C0 2.01 0 1.02 0 0 Z " fill="#9CA6C9" transform="translate(84,0)"/>
<path d="M0 0 C11.22 0 22.44 0 34 0 C32.876332622601275 7.8656716417910495 32.876332622601275 7.8656716417910495 29.75 10.625 C29.16734375 11.153515625 28.5846875 11.68203125 27.984375 12.2265625 C27.32953125 12.811796875 26.6746875 13.39703125 26 14 C22.580311150440565 17.289621444821833 19.594502485327467 20.6908148955103 16.6875 24.4375 C13.02135292780631 28.959081389038886 9.267347200661032 33.32684949345468 4 36 C2.6799999999999997 36 1.3599999999999999 36 0 36 C0 24.119999999999997 0 12.239999999999998 0 0 Z " fill="#8AACD8" transform="translate(0,0)"/>
<path d="M0 0 C0 13.530000000000001 0 27.060000000000002 0 41 C-5.609999999999999 41 -11.219999999999999 41 -17 41 C-17.193359375 39.672265624999994 -17.38671875 38.34453125 -17.5859375 36.9765625 C-19.500713726506433 23.93736398900181 -19.500713726506433 23.93736398900181 -22 11 C-6.018547140649147 -3.0092735703245808 -6.018547140649147 -3.0092735703245808 0 0 Z " fill="#9383B1" transform="translate(128,87)"/>
<path d="M0 0 C7.716575672847782 3.664691309187937 15.286778625398995 6.794716605033635 23.4765625 9.21484375 C26.27744872776968 10.215160259917745 28.130125933603438 11.328168787060498 30.375 13.25 C29.762223883222887 16.211751231089405 29.121274781959258 17.630587827061117 27.375 20.25 C26.818124999999995 19.96125 26.261250000000004 19.6725 25.6875 19.375 C21.379801121887652 17.279362707945346 17.246053772883357 15.938049495386615 12.5625 14.9375 C7.763968294900764 13.781863391314733 4.336715891214624 12.209344123664248 0.2890625 9.4609375 C-6.875119413185232 4.928495881454239 -13.443984101400275 4.9807956643293885 -21.625 6.25 C-21.625 6.91 -21.625 7.57 -21.625 8.25 C-23.29166666666667 9.916666666666664 -24.958333333333336 11.583333333333332 -26.625 13.25 C-27.3984375 14.580312499999998 -27.3984375 14.580312499999998 -28.1875 15.9375 C-29.797256277972593 18.527107925434166 -30.72482327333251 19.371158567676517 -33.625 20.25 C-35.75 20.1875 -35.75 20.1875 -37.625 19.25 C-39.01953125 17.093749999999996 -39.01953125 17.093749999999996 -39.625 14.25 C-38.243301724254856 11.780252970200511 -36.98150320759675 9.944836396790887 -35.1875 7.8125 C-34.72464599609375 7.239189453125 -34.2617919921875 6.665878906250001 -33.784912109375 6.0751953125 C-22.920023234682304 -7.1169433523216785 -14.877006322761943 -7.299563719071475 0 0 Z " fill="#4D4F68" transform="translate(74.625,12.75)"/>
<path d="M0 0 C12.854214123006841 1.5580865603644654 12.854214123006841 1.5580865603644654 17 6 C15.895122114287645 9.82457729669661 15.105084445420587 12.456246609930048 12 15 C9.90625 15.87890625 9.90625 15.87890625 7.5 16.5625 C6.160019531250001 16.943417968749998 6.160019531250001 16.943417968749998 4.79296875 17.33203125 C2.1315169170474917 17.968546303755076 -0.47900297216341414 18.373482475950965 -3.1875 18.75 C-8.179674253704036 19.557245198471293 -12.154315844216171 21.382986918642608 -16.625 23.625 C-22.404561792525683 26.482905649475285 -26.529243938626344 28.129814550398578 -33 27 C-38.2302024434346 24.335557245797467 -41.52919657033848 20.794526516356896 -44.25 15.625 C-45.18679507661215 12.346217231857487 -45.13301664958745 9.391924564479922 -45 6 C-43.02 5.340000000000003 -41.04 4.68 -39 4 C-38.566874999999996 5.237499999999997 -38.13375 6.475000000000001 -37.6875 7.75 C-36.498018909107294 10.905196320912573 -35.36861525347561 13.532692444296245 -33 16 C-24.985360761525513 18.671546412824824 -18.443446838430432 16.215653379208618 -11 13 C-9.696757812499996 12.456660156249995 -9.696757812499996 12.456660156249995 -8.3671875 11.90234375 C-3.842846504200864 9.809332206531408 -3.842846504200864 9.809332206531408 -1 5.90234375 C-0.33002890587638944 3.465855882596273 -0.33002890587638944 3.465855882596273 0 0 Z " fill="#263C50" transform="translate(84,27)"/>
<path d="M0 0 C0.40729227561681114 2.3215659710157865 0.7443867671738928 4.656878699093937 1 7 C0.09121093749999432 7.086367187500002 -0.8175781249999972 7.1727343750000045 -1.75390625 7.26171875 C-14.76934165228414 8.716777682152795 -26.383750454692517 11.701358844684393 -37.359375 19.2265625 C-40.99574840723058 21.6687422734951 -44.821253225264805 23.687147423287286 -48.6875 25.73828125 C-51.16220242419706 27.044274680231766 -51.16220242419706 27.044274680231766 -54 29 C-56.687499999999986 28.125 -56.687499999999986 28.125 -59 27 C-59 26.010000000000005 -59 25.019999999999996 -59 24 C-57.24218750000001 22.53515625 -57.24218750000001 22.53515625 -54.875 21.0625 C-53.64716796875 20.287128906250004 -53.64716796875 20.287128906250004 -52.39453125 19.49609375 C-51.6043359375 19.002382812500002 -50.814140625 18.508671875000005 -50 18 C-48.85128702970984 17.212517523511764 -47.704924059736584 16.421578562744372 -46.5625 15.625 C-44 14 -44 14 -42 14 C-42 13.340000000000003 -42 12.680000000000007 -42 12 C-41.34 12 -40.68 12 -40 12 C-39.7228515625 11.412187500000002 -39.445703125 10.824375000000003 -39.16015625 10.21875 C-36.03352970048111 4.239208316071625 -31.864856257913686 0.1275446264206863 -25.5546875 -2.34765625 C-17.536064008470888 -4.395225245543372 -7.485020142436966 -3.742510071218476 0 0 Z " fill="#263C50" transform="translate(94,77)"/>
<path d="M0 0 C1.228476562499992 0.07863281250000398 2.4569531249999983 0.15726562499999375 3.72265625 0.23828125 C6.9375 0.6875 6.9375 0.6875 9.9375 2.6875 C10.23046875 5.945312500000043 10.23046875 5.945312500000043 10.125 9.8125 C10.084394531249984 11.734492187499995 10.084394531249984 11.734492187499995 10.04296875 13.6953125 C10.008164062499986 14.682734374999995 9.973359375000001 15.670156250000005 9.9375 16.6875 C9.34324218750001 16.81125 8.748984374999992 16.935000000000002 8.13671875 17.0625 C0.466740100617713 18.971048341992486 -4.941509562427058 22.788380277151703 -11.0625 27.6875 C-13.732178419410175 26.35266079029492 -13.783730135526866 25.13192275084687 -14.8125 22.375 C-16.324386386230074 18.746472673047833 -16.81378512140151 17.8484331567402 -20.25 15.625 C-23.0625 13.6875 -23.0625 13.6875 -23.66796875 11.67578125 C-23.9375 9.4375 -23.9375 9.4375 -24.0625 5.6875 C-21.980309513090532 4.8720756908201395 -19.896702393248546 4.060268111031647 -17.8125 3.25 C-16.65234375 2.797539062499993 -15.4921875 2.3450781250000006 -14.296875 1.87890625 C-9.107926371489313 -0.03248183175816166 -5.586763387139214 -0.39359952359446027 0 0 Z " fill="#656986" transform="translate(118.0625,70.3125)"/>
</svg>
