<?xml version="1.0" encoding="UTF-8"?>
<!-- Generator: visioncortex VTracer 0.6.0 -->
<svg version="1.1" xmlns="http://www.w3.org/2000/svg" width="128" height="128">
<path d="M0 0 C42.24 0 84.48 0 128 0 C128 42.24 128 84.48 128 128 C85.75999999999999 128 43.519999999999996 128 0 128 C0 85.75999999999999 0 43.519999999999996 0 0 Z " fill="#955A1B" transform="translate(0,0)"/>
<path d="M0 0 C0 20.460000000000008 0 40.92 0 62 C-42.24000000000001 62 -84.48 62 -128 62 C-128 55.400000000000006 -128 48.8 -128 42 C-125.579140625 41.80083984375 -125.579140625 41.80083984375 -123.109375 41.59765625 C-120.98956889732649 41.419442462607094 -118.86977801144624 41.241047610283104 -116.75 41.0625 C-115.15478515625 40.931982421875006 -115.15478515625 40.931982421875006 -113.52734375 40.798828125 C-112.5025390625 40.711816406249994 -111.477734375 40.6248046875 -110.421875 40.53515625 C-109.0079345703125 40.417327880859375 -109.0079345703125 40.417327880859375 -107.5654296875 40.297119140625 C-105.28792321514285 40.03334626501987 -103.21198493412619 39.57918186283709 -101 39 C-92.49880792665618 38.362103913688486 -84.81195829935558 39.51661323766662 -76.5234375 41.328125 C-69.89389370159032 42.59229521433089 -63.600847007819624 42.38965200164624 -57 41 C-56.67 40.00999999999999 -56.34 39.02000000000001 -56 38 C-53.9609375 36.82421875 -53.9609375 36.82421875 -51.375 35.6875 C-47.071436011721886 33.66519485937647 -43.805231171925115 31.410280709745848 -40.375 28.13671875 C-39 27 -39 27 -37 27 C-35.57767726330415 24.213101778988047 -34.284591435655074 21.39666441711688 -33.046875 18.5234375 C-32.281454468918284 16.80720046144998 -31.51582272400185 15.091057608967361 -30.75 13.375 C-30.380039062500003 12.503593749999993 -30.010078125000007 11.6321875 -29.62890625 10.734375 C-26.756621317786852 4.401623920786022 -26.756621317786852 4.401623920786022 -23.2109375 2.51953125 C-22.151328125000006 2.3480859375000023 -21.09171875 2.1766406250000045 -20 2 C-18.684313964222724 1.707028032891273 -17.36924023841688 1.4112970485267908 -16.0546875 1.11328125 C-14.662321452303686 0.8418878678219102 -13.269066478649464 0.5750190122132182 -11.875 0.3125 C-11.172460937500006 0.17005859374999943 -10.469921874999997 0.027617187499998863 -9.74609375 -0.119140625 C-5.970375219583389 -0.83645577113775 -3.804433352538169 -0.9511083381345458 0 0 Z " fill="#E5B19C" transform="translate(128,66)"/>
<path d="M0 0 C2.6347894744864107 1.3866465388342313 5.218656156472932 2.8511891034427883 7.796875 4.33984375 C11.418663003454782 6.4803565370160925 11.418663003454782 6.4803565370160925 16.25 8.28515625 C16.25 18.18515625 16.25 28.085156249999997 16.25 38.28515625 C7.250000000000057 39.28515625 7.250000000000057 39.28515625 3.1875 39.37109375 C-3.0854272822674176 39.798156898524994 -3.0854272822674176 39.798156898524994 -8.75 42.28515625 C-12.155600325446557 46.58834818610197 -13.960926402412312 51.64929822056203 -15.85546875 56.74609375 C-17.431747353893826 60.90327035149696 -19.295235209364435 63.390191309698906 -22.75 66.28515625 C-23.468007812500005 66.9051953125 -24.186015624999996 67.525234375 -24.92578125 68.1640625 C-29.112963963391238 71.46328690488414 -33.12729794286807 74.2275166695227 -38.0234375 76.36328125 C-39.839162026046495 77.21706117920307 -39.839162026046495 77.21706117920307 -41.2265625 78.83203125 C-44.566817239578896 82.01812038621371 -49.356088077523395 81.54519396719104 -53.71875 81.51953125 C-57.26251067747383 81.24552913576234 -60.590948540444806 80.54545471015052 -64.0625 79.78515625 C-74.00224686958695 77.67308516290751 -82.79848769391253 77.75475603121006 -92.6953125 79.83984375 C-98.99327244196581 80.75796067248606 -105.40132731440036 80.42853907100476 -111.75 80.28515625 C-111.75 76.98515625 -111.75 73.68515625 -111.75 70.28515625 C-110.9623828125 70.1008203125 -110.174765625 69.916484375 -109.36328125 69.7265625 C-100.99683790084975 67.49881131235645 -95.57928639876994 64.43602448392794 -88.91796875 59.015625 C-85.51649507113152 57.15760670192512 -83.57261938353996 56.946308147474014 -79.773681640625 57.674072265625 C-76.35923141785139 58.70512171762191 -73.43098578934256 60.34936641662716 -70.375 62.16015625 C-63.61864091096016 65.94846218673844 -57.278544875195465 69.20129430786675 -49.375 69.34765625 C-45.634348180790894 67.83358289460584 -44.70092208830667 65.7783884081179 -42.75 62.28515625 C-41.95774026293583 58.58266225276006 -41.95774026293583 58.58266225276006 -41.6875 54.72265625 C-41.24600769570631 49.79679267512773 -40.81555497635108 46.268084286605784 -37.75 42.28515625 C-37.09 42.28515625 -36.43000000000001 42.28515625 -35.75 42.28515625 C-35.530859375000006 41.6921875 -35.31171875 41.099218750000006 -35.0859375 40.48828125 C-33.32280042796178 37.580651692603624 -31.336506814230745 36.670733739896875 -28.375 35.03515625 C-24.193153608387888 32.42150225524243 -20.967003000354794 30.37466353657593 -19.0546875 25.73046875 C-18.48761791677147 21.179371838447963 -19.77545945915891 16.93232129320846 -20.953125 12.5546875 C-21.678356730152913 9.579104371872589 -22.134651104040074 7.314942343466299 -21.75 4.28515625 C-15.277997059078587 -2.0430244033453846 -8.279231646214924 -4.075194090920547 0 0 Z " fill="#967C7A" transform="translate(111.75,27.71484375)"/>
<path d="M0 0 C1.6041443822544892 6.416577529017957 1.1202642665916613 9.554082018297265 -2.25 15.3125 C-3.972010895331522 18.034273419273987 -5.712547624586492 20.63790167744039 -7.71484375 23.16015625 C-9.773661761595307 26.10758264349967 -9.284747951704887 28.469125398859333 -9 32 C-8.682499321254241 33.565793945609414 -8.347906058349551 35.12818004063476 -8 36.6875 C-6.148309454959886 45.439735166124876 -5.82274215667627 53.93357106116798 -10 62 C-12.187500000000014 64.5625 -12.187500000000014 64.5625 -15 66 C-22.059662598842458 66 -27.54915022852093 63.258325169963854 -33.75048828125 60.11181640625 C-35.04299828888949 59.45713414464585 -36.33911598091939 58.80953421134572 -37.638427734375 58.16845703125 C-38.936198124270675 57.527626082915134 -40.22660676900005 56.87160379690779 -41.508056640625 56.19873046875 C-46.09041173740472 53.9473018620684 -49.09326794343261 53.63292205129163 -54 55 C-56.86028296796614 56.69255228089011 -56.86028296796614 56.69255228089011 -59.4375 58.875 C-65.59145605587504 63.585435499558685 -70.06194086953822 66 -78 66 C-78 48.84 -78 31.68 -78 14 C-70.52428760048551 15.66126942211433 -65.76202636403141 17.4725928468513 -59.5078125 21.25390625 C-55.193393166500506 23.728352632448235 -52.10176775596963 24.650400801638234 -47 24 C-44.38774655433298 22.803838466438087 -44.38774655433298 22.803838466438087 -42.1875 21.0625 C-41.4385546875 20.5172265625 -40.689609375 19.971953125 -39.91796875 19.41015625 C-39.2850390625 18.944804687499996 -38.652109375 18.479453125 -38 18 C-35.09389009618449 16.54694504809224 -32.227331618108 16.575335848599593 -29 16.25 C-22.95978625450921 15.561222775391158 -18.127162120762677 14.07872377518239 -12.85546875 11.0234375 C-11 10 -11 10 -9 10 C-8.793750000000003 9.463749999999997 -8.587500000000006 8.927500000000002 -8.375 8.375 C-6.937506209726848 5.892056180437287 -3.1897792602425596 0 0 0 Z " fill="#702F21" transform="translate(78,32)"/>
<path d="M0 0 C-0.3299999999999983 1.9800000000000004 -0.6599999999999966 3.960000000000001 -1 6 C-0.443125000000002 5.965195312500001 0.11375000000000313 5.930390625000001 0.6875 5.89453125 C7.539765139320174 5.65146103390925 12.70698588527081 6.804657256847207 18.4375 10.625 C20.855166300154394 14.29985277623468 21.510486547386236 17.62850956604463 21 22 C18.338334917375967 28.236537432089783 13.48673407833909 31.393745453335782 7.48046875 34.1015625 C4.2610611189303 35.267647153773275 1.4107114672660757 35.77756229561308 -2 36 C-2 36.99 -2 37.98 -2 39 C-4.152343750000021 40.570312500000014 -4.152343750000021 40.570312500000014 -6.9375 42.125 C-10.161734182115495 43.799322049396004 -10.161734182115495 43.799322049396004 -13 46 C-19.40608920383977 46.70995318496163 -23.158176334503505 44.740267468607975 -28.5 41.625 C-29.944245222985504 40.798240659471624 -31.392132582554666 39.97780824938165 -32.84375 39.1640625 C-33.790244140625 38.61419677734375 -33.790244140625 38.61419677734375 -34.755859375 38.05322265625 C-37.69352273394138 36.67451511377033 -40.87975471328942 35.89149865334588 -44 35 C-44 26.75 -44 18.5 -44 10 C-41.9375 9.463749999999997 -39.875 8.927500000000002 -37.75 8.375 C-31.19227979162553 6.643546833289264 -24.68472860184728 4.75791159979417 -18.1875 2.8125 C-17.309970703125 2.5506591796875 -16.43244140625 2.288818359375 -15.5283203125 2.01904296875 C-14.708154296875001 1.7717041015625004 -13.88798828125 1.5243652343750007 -13.04296875 1.26953125 C-12.31102294921875 1.0488598632812494 -11.579077148437499 0.8281884765625005 -10.824951171875 0.600830078125 C-6.665628094569023 -0.7685470580957361 -4.510341139501172 -0.7517235232501953 0 0 Z " fill="#A06843" transform="translate(44,11)"/>
<path d="M0 0 C11.219999999999999 0 22.439999999999998 0 34 0 C34 11.88 34 23.76 34 36 C28.500593006680248 34.4287408590515 25.324998727964214 33.194999236778536 20.625 30.375 C15.23094629262171 27.402387164705416 11.125400567577344 25.616845033127696 5 27 C1.6446237255462108 28.34215050978152 -0.4578920234363011 29.457892023436298 -3 32 C-2.7321782003274677 35.68254974549734 -2.2192091062749455 39.106301335956005 -1.33984375 42.69140625 C0.004039801393062703 48.47734800719528 0.43195747775777704 52.17323792806976 -2.734375 57.35546875 C-5.469840526762681 60.90988537582436 -8.58214088820499 62.77614690439553 -12.5 64.875 C-16.303010450403733 66.962927306104 -18.385044572032058 69.56320143752785 -21 73 C-21.989999999999995 73.99 -21.989999999999995 73.99 -23 75 C-23.672586666154814 72.66836622399666 -24.33847443880653 70.3347960983299 -25 68 C-25.206249999999997 67.34 -25.412499999999994 66.68 -25.625 66 C-26.486325735396903 61.406262744549814 -26.537545247191616 58.0138353383079 -24.3203125 53.83203125 C-23.595859375000003 52.8355859375 -22.871406250000007 51.839140625 -22.125 50.8125 C-16.91463567106608 43.83737970668516 -16.91463567106608 43.83737970668516 -16.3125 35.5 C-16.451425294349278 27.89615555594957 -13.216069061887069 23.103987537390722 -9 17 C-7.915143785092411 15.417709714201612 -6.8316764331627695 13.834465729984661 -5.75 12.25 C-5.291093750000002 11.61578125 -4.832187500000003 10.981562499999999 -4.359375 10.328125 C-2.4751539713771393 7.101125767071183 -1.3120845926112423 3.4988922469633117 0 0 Z " fill="#936C49" transform="translate(94,0)"/>
<path d="M0 0 C6.669433973650118 1.4820964385889184 10.768120047878625 2.6378662898839735 16.3125 5.9375 C22.66783105316999 9.541847101046898 28.765023264787537 11.706596337839116 36 13 C36.99134418843286 15.61739044872823 37.098322868297025 16.734786999988287 36.109375 19.40234375 C35.436484375 20.657246093750004 35.436484375 20.657246093750004 34.75 21.9375 C34.283359375 22.820507812499997 33.81671875 23.703515624999994 33.3359375 24.61328125 C32.38821556336958 26.306433598775413 31.39630995516886 27.97519161088107 30.375 29.625 C28.782372234235424 32.109999823290195 28.782372234235424 32.109999823290195 28.125 35.75 C25.62407757021026 42.798054120316536 16.885134498258047 47.04816772424556 10.54296875 50.234375 C6.767833344132706 51.76464021232097 4.152726237999289 52 0 52 C0 34.84 0 17.68 0 0 Z " fill="#74443F" transform="translate(0,46)"/>
<path d="M0 0 C0 7.260000000000005 0 14.519999999999996 0 22 C-2.6400000000000006 22.659999999999997 -5.280000000000001 23.319999999999993 -8 24 C-12.734806872902752 25.790401882047462 -16.780360701944602 28.494478004522676 -20.875 31.4375 C-32.31005850994691 39.57297674142788 -42.944364000063274 43.256219227755565 -57 41 C-56 38 -56 38 -53.9609375 36.82421875 C-53.107578125 36.449101562500005 -52.25421875000001 36.07398437500001 -51.375 35.6875 C-47.07143601172186 33.66519485937647 -43.80523117192513 31.410280709745862 -40.375 28.13671875 C-39 27 -39 27 -37 27 C-35.57767726330414 24.213101778988047 -34.284591435655074 21.396664417116853 -33.046875 18.5234375 C-32.281454468918284 16.80720046144998 -31.51582272400185 15.091057608967361 -30.75 13.375 C-30.19505859374999 12.067890625000004 -30.19505859374999 12.067890625000004 -29.62890625 10.734375 C-26.756621317786852 4.401623920786022 -26.756621317786852 4.401623920786022 -23.2109375 2.51953125 C-22.151328124999992 2.3480859375000023 -21.09171875 2.1766406250000045 -20 2 C-18.684313964222724 1.707028032891273 -17.36924023841688 1.4112970485267908 -16.0546875 1.11328125 C-14.662321452303672 0.8418878678219102 -13.269066478649478 0.5750190122132182 -11.875 0.3125 C-10.821191406249994 0.09883789062500625 -10.821191406249994 0.09883789062500625 -9.74609375 -0.119140625 C-5.970375219583417 -0.83645577113775 -3.8044333525381546 -0.9511083381345316 0 0 Z " fill="#C49196" transform="translate(128,66)"/>
<path d="M0 0 C3.3879838161071874 2.2586558774047916 4.3440683438205525 4.365365607722758 5.125 8.25 C5.428909520181804 12.98787149411649 4.054775568715769 15.653785266289972 1.0078125 19.2109375 C-2.5731472333246828 22.40175376043328 -6.574431356657293 24.241120154568925 -11 26 C-12.134374999999999 26.45375 -13.268749999999997 26.9075 -14.4375 27.375 C-22.46837022438222 28.783924600768813 -30.244655833986094 27.72079345248501 -37 23 C-40.04929244124867 20.179404491844977 -40.87212901523331 18.639354923833437 -41.6875 14.5625 C-40.72059270995289 9.55216222430133 -38.02239912960145 7.908063275774772 -34 5 C-31.28711860478181 3.3494919922686286 -28.502140424593883 1.9645382049286724 -25.625 0.625 C-24.921171875 0.2705078125 -24.217343749999998 -0.083984375 -23.4921875 -0.44921875 C-15.504789709446001 -4.224284494075704 -7.86376329006368 -4.092003521978839 0 0 Z " fill="#CB843A" transform="translate(60,20)"/>
<path d="M0 0 C3.4143163600193915 1.0310090299346797 6.343051818970984 2.674861226898159 9.398681640625 4.486083984375 C16.685399646756906 8.58452223464515 23.488758033855056 11.85066078737205 32.023681640625 11.611083984375 C32.271181640625 12.394833984374998 32.518681640625005 13.178583984374995 32.773681640625 13.986083984375 C34.218624491586695 17.020463971394562 35.07933983174509 17.28138123197762 38.023681640625 18.611083984375 C38.518681640625005 20.096083984375 38.518681640625005 20.096083984375 39.023681640625 21.611083984375 C31.115191990277964 24.940974363468484 23.893410775614328 23.89092970342938 15.711181640625 22.111083984375 C5.771434771038045 19.999012897282512 -3.0248060532875307 20.080683765585064 -12.921630859375 22.165771484375 C-19.219590801340814 23.083888406861064 -25.62764567377537 22.754466805379764 -31.976318359375 22.611083984375 C-31.976318359375 19.311083984375003 -31.976318359375 16.011083984375006 -31.976318359375 12.611083984375 C-31.188701171875 12.426748046875005 -30.401083984375 12.242412109374996 -29.589599609375 12.052490234375 C-21.223156260224762 9.824739046731452 -15.805604758144945 6.7619522183029375 -9.144287109375 1.341552734375 C-5.7428134305065015 -0.5164655636998958 -3.7989377429149727 -0.7277641181509864 0 0 Z " fill="#BB7863" transform="translate(31.976318359375,85.388916015625)"/>
<path d="M0 0 C0 0.6599999999999966 0 1.3200000000000003 0 2 C0.7012500000000017 2.082500000000003 1.4025000000000034 2.164999999999999 2.125 2.25 C5.652729468009866 3.170277252524315 8.061116137512997 4.881269773555886 11 7 C9.492251052390174 11.940777320629081 7.47460496038758 16.449525588370832 5.1875 21.0625 C4.6915332031250045 22.103740234374996 4.6915332031250045 22.103740234374996 4.185546875 23.166015625 C-0.5445159466312504 32.72600823762515 -8.97019164877075 38.52919544478405 -18.140625 43.53125 C-20 44 -20 44 -22.09375 43.2265625 C-24.39016379762495 41.74895198267575 -26.141405874888946 39.99135084833327 -28 38 C-26.946346708174104 35.81164316313084 -25.877393379659594 33.82353517434211 -24.48828125 31.82421875 C-22.64736891976888 28.330833934364563 -22.376366936456833 25.420488921425317 -22 21.5 C-21.526686279473424 16.56964874451478 -21.067869226342467 12.988229994245216 -18 9 C-17.340000000000003 9 -16.680000000000007 9 -16 9 C-15.747343749999999 8.396718750000005 -15.494687499999998 7.793437499999996 -15.234375 7.171875 C-12.139285659606855 1.7260848947513097 -6.0680578748790595 -0.7585072343598824 0 0 Z " fill="#9F6A71" transform="translate(92,61)"/>
<path d="M0 0 C16.17 0 32.34 0 49 0 C49 6.000000000000002 49 6.000000000000002 47.5 8.875 C44.45690514762977 11.461630624514694 43.04291021804727 11.004503983984916 39.21630859375 10.90478515625 C35.41813674650371 11.067958434552054 32.0957769803225 12.432093973309424 28.5625 13.75 C22.270353517466237 15.977366979636425 16.006196730020058 17.877069822243904 9.5 19.375 C8.77627197265625 19.542255859375 8.0525439453125 19.70951171875 7.306884765625 19.8818359375 C2.3190314180107636 21 2.3190314180107636 21 0 21 C0 14.07 0 7.139999999999999 0 0 Z " fill="#63392A" transform="translate(0,0)"/>
<path d="M0 0 C0 11.219999999999999 0 22.439999999999998 0 34 C-7.920000000000002 34 -15.840000000000003 34 -24 34 C-24 22.226602129910802 -21.60510188178958 14.553862451436046 -13.3125 6.0703125 C-9.075160908789599 2.276748786585273 -5.875766964427612 0 0 0 Z " fill="#F8AD86" transform="translate(128,94)"/>
<path d="M0 0 C0.7590462656317243 2.6611980627725487 1.4819213026916032 5.324588031026217 2.1875 8 C2.4034179687500057 8.7437890625 2.619335937499997 9.487578124999999 2.841796875 10.25390625 C4.284285295151463 15.877166192963344 3.949563022951452 19.92112783501667 1 25 C-1.9422793838348866 27.942279383834887 -4.925681490756531 29.996278791362414 -8.5625 31.9375 C-12.349249329158297 33.99005218062783 -14.4038735320636 36.58794807071216 -17 40 C-17.659999999999997 40.66 -18.319999999999993 41.31999999999999 -19 42 C-19.672586666154814 39.66836622399666 -20.33847443880653 37.3347960983299 -21 35 C-21.206249999999997 34.34 -21.412499999999994 33.68000000000001 -21.625 33 C-22.471231870017675 28.486763359905737 -22.55367150284343 25.0535884908477 -20.390625 20.9375 C-19.68421875 19.968125 -18.9778125 18.99875 -18.25 18 C-15.92707316833716 14.747090223493124 -13.733759121176803 11.66399053808091 -12 8.0625 C-9.420337175884328 4.112391300572888 -5.02203228504095 0 0 0 Z " fill="#75594C" transform="translate(90,33)"/>
<path d="M0 0 C1.592053826522502 6.368215306090008 1.1416985389338663 9.526611873492413 -2.1875 15.25 C-3.410966598668466 17.197243681249176 -4.6815608616553845 19.115763626637225 -6 21 C-6.661289062500003 21.948750000000004 -7.322578125000007 22.8975 -8.00390625 23.875 C-8.66261718749999 24.57625 -9.321328125000008 25.277500000000003 -10 26 C-13.75 25.75 -13.75 25.75 -16.109375 25.3359375 C-19.776151353782026 24.909798626452357 -23.33177481726439 25.11620144389643 -27 25.375 C-27.69544921875 25.422131347656247 -28.3908984375 25.4692626953125 -29.107421875 25.517822265625 C-32.84231377443898 25.789458798046354 -36.540976238750396 26.177816271219015 -40.25 26.6875 C-44.018743272076186 27.00156193933968 -44.90567288289064 26.786768534437044 -48 25 C-46.75312407892423 24.037605478392976 -45.50235030671944 23.08025990549038 -44.25 22.125 C-43.205859375 21.3244921875 -43.205859375 21.3244921875 -42.140625 20.5078125 C-37.680073474106194 17.365891169717138 -34.34814042076407 16.69885090173463 -28.875 16.1875 C-22.865835242364298 15.53386898730669 -18.09718349721703 14.06134922954287 -12.85546875 11.0234375 C-11 10 -11 10 -9 10 C-8.793750000000003 9.463749999999997 -8.587500000000006 8.927500000000002 -8.375 8.375 C-6.937506209726848 5.892056180437287 -3.1897792602425454 0 0 0 Z " fill="#794D23" transform="translate(78,32)"/>
<path d="M0 0 C1.3200000000000003 0 2.6400000000000006 0 4 0 C4.366301559854094 3.937741768431544 4.302332026134181 5.56539771243212 2 8.875 C1.3400000000000034 9.57625 0.6799999999999997 10.2775 0 11 C-2.969999999999999 10.504999999999999 -2.969999999999999 10.504999999999999 -6 10 C-5.101778819886569 8.323320463788265 -4.180784392852274 6.658823670429795 -3.25 5 C-2.739531249999999 4.071875 -2.2290624999999977 3.14375 -1.703125 2.1875 C-0.8600781250000011 1.1046874999999998 -0.8600781250000011 1.1046874999999998 0 0 Z " fill="#794D23" transform="translate(45,0)"/>
</svg>
