<?xml version="1.0" encoding="UTF-8"?>
<!-- Generator: visioncortex VTracer 0.6.0 -->
<svg version="1.1" xmlns="http://www.w3.org/2000/svg" width="128" height="128">
<path d="M0 0 C42.24 0 84.48 0 128 0 C128 42.24 128 84.48 128 128 C85.75999999999999 128 43.519999999999996 128 0 128 C0 85.75999999999999 0 43.519999999999996 0 0 Z " fill="#8A6977" transform="translate(0,0)"/>
<path d="M0 0 C4.059129020026603 3.044346765019956 6.42838085786812 6.3231342990513895 7.75390625 11.23828125 C8.588392522653507 19.861306067419576 4.246261096860678 27.902059437969925 0.3046875 35.28515625 C-1.0957005759144067 37.80301029331953 -1.0957005759144067 37.80301029331953 -2 40.78125 C-0.6351176381232477 43.22777314389302 -0.6351176381232477 43.22777314389302 1.3125 45.71875 C7.571915395454255 54.13658449733505 7.571915395454255 54.13658449733505 7.37109375 60.515625 C5.462245551997938 72.16964557727576 -4.773781261012317 82.01775606508038 -13 89.78125 C-14.651615809777581 89.02288557191702 -16.296171384236942 88.24912924367977 -17.9375 87.46875 C-18.854023437500004 87.0394921875 -19.770546875000008 86.610234375 -20.71484375 86.16796875 C-23 84.78125 -23 84.78125 -24 81.78125 C-24.659999999999997 81.78125 -25.32 81.78125 -26 81.78125 C-30 77.4283088235294 -30 77.4283088235294 -30 73.78125 C-30.589101562500005 73.515703125 -31.178203124999996 73.25015625 -31.78515625 72.9765625 C-39.145469383140345 69.00433001544806 -44.410780574371444 61.24390656893675 -47.16015625 53.5234375 C-48.06507063689416 49.49130734816461 -48.01700481980306 45.97115890547349 -47.625 41.90625 C-47.27048406292558 37.56156520595192 -46.93005982267509 33.26898525305593 -47.0625 28.90625 C-47.082723353218505 18.16764944097352 -43.29431829810571 9.354354887578076 -37 0.78125 C-27.388311856783957 -7.102097889940499 -10.203126085362271 -6.21752995826764 0 0 Z " fill="#A3B3D5" transform="translate(87,28.21875)"/>
<path d="M0 0 C17.15625 0 17.15625 0 23.5625 5 C27.974049395000907 11.137807853914303 26.007528912290173 19.991730373327712 25.375 27.0625 C24.91866240184949 33.37517010774871 25.299923659027346 39.1862326685967 26.171875 45.442626953125 C26.79343521225822 49.954561158390874 27.144397368913143 54.39074936828101 27.296142578125 58.942626953125 C27.884895817169806 76.16958318288488 33.26207267835174 86.19492976475745 44.94921875 98.5078125 C48.833527317964865 103.22817224545064 49.986949645095265 106.92169787057158 51 113 C34.17 113 17.339999999999996 113 0 113 C0 75.71000000000001 0 38.42 0 0 Z " fill="#722619" transform="translate(0,15)"/>
<path d="M0 0 C13.530000000000001 0 27.060000000000002 0 41 0 C41 42.24 41 84.48 41 128 C30.439999999999998 128 19.879999999999995 128 9 128 C10.076571255787314 118.31085869791424 11.876734807929921 113.22693173400631 17.4375 105.5 C23.48641546795014 96.96894755496186 29.130418487345693 88.84336566217078 29 78 C26.644286292038657 70.14762097346218 21.115851795600207 65.97801890339552 15 61 C15.277148437500003 60.05640625 15.554296875000006 59.1128125 15.83984375 58.140625 C19.32769963524339 45.945905430531795 22.35888929470444 34.81923988472238 16 23 C12.799729655425665 18.332939080829096 9.23024525493571 14.202906471492689 5.1875 10.25 C2.3963331396992373 7.379085515119213 0 4.1338990343915425 0 0 Z " fill="#1F122D" transform="translate(87,0)"/>
<path d="M0 0 C10.560000000000002 0 21.120000000000005 0 32 0 C34 4 36 8 38 12 C38.99000000000001 12.33 39.97999999999999 12.66 41 13 C47.60175743338898 19.588201463299885 52.64246683946563 27.34438270389854 53.15234375 36.8359375 C52.71879641586838 45.12891984005593 50.32815198473125 53.07345463803129 48 61 C48.60328125000001 61.4241015625 49.20656249999999 61.848203125 49.828125 62.28515625 C56.02733590681285 66.8345771574191 60.64527904070313 71.09017762475054 62 79 C61.08076447345212 90.6076015509184 56.07966935672093 98.21452323916009 49.12109375 107.16796875 C45.571765383553085 111.90694308825785 43.67651293751369 115.33337722489894 42.875 121.25 C42.08781869688386 126.91218130311614 42.08781869688386 126.91218130311614 41 128 C39.313910340943636 128.0720551136349 37.624993407186196 128.08386067604033 35.9375 128.0625 C35.0183984375 128.0534765625 34.09929687499999 128.044453125 33.15234375 128.03515625 C32.44207031249999 128.0235546875 31.731796875 128.011953125 31 128 C31.20636800578461 117.68159971076965 37.20677694501353 108.58489322372418 42.75 100.1875 C46.903364435502894 93.7984281318728 50.1334877622659 87.34873143728059 48.90234375 79.546875 C47.66762604113134 76.06187090397248 45.84425971396897 73.06355195123598 43.8125 70 C43.438349609374995 69.423466796875 43.06419921874999 68.84693359375 42.6787109375 68.2529296875 C40.53292263657832 65.23942581417528 39.319402971434045 64.08467013680618 35.69921875 63.125 C34.808476562500005 63.08375 33.91773437500001 63.0425 33 63 C33.43312499999999 61.7625 33.86625000000001 60.525 34.3125 59.25 C34.88140155749436 57.50207057697386 35.443269877160006 55.75184411986985 36 54 C36.32097656249999 53.02546875 36.641953125 52.0509375 36.97265625 51.046875 C38.69380711264327 45.23519676250326 39.69424005559388 40.68814923018123 37.27734375 34.97265625 C34.22840127136685 30.26404477688153 29.86051453146861 27.802574895927638 24.8125 25.625 C14.733532221216848 23.972710200199483 5.723626247277728 25.056632054878094 -4 28 C-3.430939760043188 22.878457840388712 -2.6216452343952454 17.912690347991166 -1.5 12.8828125 C-0.7611926542271448 8.623126397028393 -0.4301825768276899 4.301825768276913 0 0 Z " fill="#414A77" transform="translate(55,0)"/>
<path d="M0 0 C3.73828125 0.41015625 3.73828125 0.41015625 6.3203125 2.7890625 C7.056367187500001 3.839648437500003 7.792421875000002 4.890234375000006 8.55078125 5.97265625 C9.674199218750005 7.521464843749996 9.674199218750005 7.521464843749996 10.8203125 9.1015625 C14.03130062543103 14.640680508635597 15.318959204497872 19.676435399375066 14.40234375 25.96484375 C12.509295208719536 32.935716613773934 8.051431964353327 38.95200581578442 4.11328125 44.91015625 C-0.05347213066792733 51.33543745868485 -2.4128684675020224 58.01475512000809 -4.26171875 65.41015625 C-15.811718749999997 65.41015625 -27.36171875 65.41015625 -39.26171875 65.41015625 C-40.58171875 62.11015625 -41.90171875 58.810156250000006 -43.26171875 55.41015625 C-45.05260348840611 52.55327963776533 -45.05260348840611 52.55327963776533 -47.07421875 50.28515625 C-47.7664453125 49.457578125 -48.458671875 48.629999999999995 -49.171875 47.77734375 C-50.49075781553914 46.283431626230424 -51.8296083520309 44.80670184460959 -53.1953125 43.35546875 C-60.847952487989005 35.159738182218234 -63.42783972182329 26.185100235091625 -63.32421875 15.09765625 C-63.315195312499995 13.8433984375 -63.306171875000004 12.589140624999999 -63.296875 11.296875 C-63.285273437499995 10.344257812500004 -63.273671875000005 9.391640625000008 -63.26171875 8.41015625 C-62.563046875 8.626718749999995 -61.864374999999995 8.843281250000004 -61.14453125 9.06640625 C-60.234453125 9.344843749999995 -59.324375 9.623281250000005 -58.38671875 9.91015625 C-57.481796875 10.188593749999995 -56.576875 10.467031250000005 -55.64453125 10.75390625 C-53.352272279599966 11.498664186026446 -53.352272279599966 11.498664186026446 -51.26171875 11.41015625 C-51.054179687499996 12.244179687500008 -50.846640625 13.078203125000002 -50.6328125 13.9375 C-47.717870389448564 24.584966370340595 -43.2808148391258 31.181134527635834 -34.76953125 38.0703125 C-31.807510396792964 40.70236729961144 -30.491253395047032 43.72155231485891 -29.26171875 47.41015625 C-28.601718750000003 47.41015625 -27.94171875 47.41015625 -27.26171875 47.41015625 C-26.704843750000002 48.00828125000001 -26.14796874999999 48.60640624999999 -25.57421875 49.22265625 C-22.65168768169687 51.98721266596243 -20.001173479580245 52.97190443093068 -16.26171875 54.41015625 C-7.9185807489793945 46.954586121428406 1.7576836372117413 36.39502252556156 3.17578125 24.84765625 C3.1283178469440003 18.42823098667654 -1.0720409650856482 13.079897620868735 -5.0078125 8.28125 C-5.421601562500001 7.663789062500001 -5.835390625000002 7.046328125000002 -6.26171875 6.41015625 C-5.036529327582798 2.0198941530050547 -4.571942433995275 0.574914916849707 0 0 Z " fill="#AA725F" transform="translate(90.26171875,62.58984375)"/>
<path d="M0 0 C4.058190328203651 3.0436427461527344 6.415568572808539 6.3209600137930835 7.76171875 11.2265625 C8.522483297684971 19.382956175179793 4.558061083584704 27.629005385281523 1 34.78125 C-6.685116533293169 33.218175450855625 -13.277405688494667 30.37214956753344 -20.1640625 26.73828125 C-23.49674899845938 24.988117917811067 -26.755598368102817 23.458743523014277 -30.30859375 22.203125 C-35.94571812418387 20.03178820401807 -38.063475515489586 16.726339313983175 -40.625 11.40625 C-41.08644667796484 6.945598779673226 -40.17267572143042 5.095176016292996 -37.62890625 1.51171875 C-28.96458713949969 -7.6928216959271865 -9.927605196489509 -6.049634416610797 0 0 Z " fill="#6191CE" transform="translate(87,28.21875)"/>
<path d="M0 0 C6.435000000000002 2.969999999999999 6.435000000000002 2.969999999999999 13 6 C13 22.5 13 39 13 56 C2.4399999999999977 56 -8.120000000000005 56 -19 56 C-17.923428744212686 46.31085869791423 -16.123265192070093 41.22693173400633 -10.5625 33.5 C-2.7984595243056845 22.55003106185032 2.2834294246070215 13.700576547642186 0 0 Z " fill="#281026" transform="translate(115,72)"/>
<path d="M0 0 C1.5858955397002958 0.1006528128911981 3.1669821225035406 0.27870150314825537 4.7421875 0.48828125 C5.727031249999996 0.6178320312500034 6.711874999999999 0.7473828125000068 7.7265625 0.880859375 C8.765546874999998 1.0233007812500006 9.804531249999997 1.1657421875000011 10.875 1.3125 C12.375468749999996 1.5087597656250011 12.375468749999996 1.5087597656250011 13.90625 1.708984375 C16.94146180392032 2.1148557208730665 19.970158732433454 2.555990445628069 23 3 C24.022951660156252 3.130034179687499 25.045903320312505 3.2600683593749977 26.099853515625 3.39404296875 C27.076237792968755 3.536000976562505 28.052622070312495 3.677958984374996 29.05859375 3.82421875 C29.933142089843756 3.9424096679687466 30.807690429687497 4.060600585937493 31.708740234375 4.182373046875 C34.74954131209341 5.267470842216397 35.59962867263576 6.744669006083512 37.1875 9.5 C39.480914903896064 15.300498278832038 40.41586125061197 21.061194499627334 38.265625 27.04296875 C36.23496808482753 30.94615765662249 33.742993759688886 33.7367944708858 30 36 C24.709661058935183 37.62779659725072 21.14980559833485 36.87447717323738 16.3359375 34.4921875 C8.138628831389724 29.255779621389422 2.1510056096007304 21.475287006256394 -1.375 12.5 C-2.1331374803833967 8.254430109852962 -1.8017539222606445 5.227429771919773 -1 1 C-0.6700000000000017 0.6700000000000017 -0.3400000000000034 0.3400000000000034 0 0 Z " fill="#E4C8C1" transform="translate(41,69)"/>
<path d="M0 0 C12.21 0 24.42 0 37 0 C39.33613174039393 18.68905392315144 39.33613174039393 18.68905392315144 36 28 C35.7771533203125 28.6240673828125 35.554306640625 29.248134765625 35.32470703125 29.89111328125 C33.850753849282164 33.98432779262475 32.304567351016686 38.04666162176008 30.72998046875 42.10205078125 C29.65839094123254 44.8881835527954 28.640178754372144 47.6929042984087 27.625 50.5 C27.307890625 51.3765625 26.99078125 52.253125 26.6640625 53.15625 C26.444921875 53.7646875 26.22578125 54.373125 26 55 C25.67 55 25.34 55 25 55 C24.102178270363392 51.26547086817821 23.970465994836033 48.04461993116001 24.2265625 44.21875 C24.319375 42.584863281249994 24.319375 42.584863281249994 24.4140625 40.91796875 C24.55471796230037 38.63882931457735 24.70316065277245 36.36015714706844 24.859375 34.08203125 C24.918671875 32.9927734375 24.97796875 31.903515625 25.0390625 30.78125 C25.1030322265625 29.79189453125 25.167001953125 28.8025390625 25.23291015625 27.783203125 C24.95237043402198 24.430841664413585 23.98904311868746 22.686200397229765 22 20 C17.38591614145977 16.98934410989677 12.975881561676118 16.339847278682367 7.625 15.8125 C6.8889453125 15.73064453125 6.1528906249999995 15.6487890625 5.39453125 15.564453125 C3.5974537517012086 15.36607444012286 1.7988510703858276 15.181594229195719 0 15 C0 10.05 0 5.1 0 0 Z " fill="#885B46" transform="translate(0,0)"/>
<path d="M0 0 C13.530000000000001 0 27.060000000000002 0 41 0 C41 10.89 41 21.78 41 33 C30.422077922077918 30.649350649350644 30.422077922077918 30.649350649350644 27 28 C27 27.34 27 26.68 27 26 C26.347734375 26.020625 25.695468750000003 26.04125 25.0234375 26.0625 C18.00674046131965 25.89691422917569 18.00674046131965 25.89691422917569 15.28125 23.46875 C14.314009334811374 22.114613068735927 13.389960160147552 20.728911023824317 12.50390625 19.3203125 C10.829023727568568 16.736208036820074 8.91283563452734 14.623998229348695 6.8125 12.375 C0 4.833054493307839 0 4.833054493307839 0 0 Z " fill="#382239" transform="translate(87,0)"/>
<path d="M0 0 C17.15625 0 17.15625 0 23.5625 5 C27.373498618048522 10.302258946850117 26.38307263718871 17.165262484803527 25.55078125 23.32421875 C25.066984394724354 26.22356869828313 24.555460562370644 29.1135888633954 24 32 C22.062845052349726 32.05543527672131 20.125190643961496 32.09341947728119 18.1875 32.125 C17.1085546875 32.148203125 16.029609375 32.17140625 14.91796875 32.1953125 C9.897991199745945 31.94506436688664 4.945137932729441 30.899115987768994 0 30 C0 20.1 0 10.2 0 0 Z " fill="#853B1B" transform="translate(0,15)"/>
<path d="M0 0 C3.73828125 0.41015625 3.73828125 0.41015625 6.3203125 2.7890625 C7.056367187500001 3.839648437500003 7.792421875000002 4.890234375000006 8.55078125 5.97265625 C9.299726562499998 7.005195312500007 10.048671874999997 8.037734375 10.8203125 9.1015625 C14.031300625431015 14.640680508635597 15.318959204497872 19.676435399375066 14.40234375 25.96484375 C12.509295208719536 32.935716613773934 8.051431964353327 38.95200581578442 4.11328125 44.91015625 C-0.05347213066792733 51.33543745868485 -2.4128684675020224 58.014755120008104 -4.26171875 65.41015625 C-8.221718750000008 65.41015625 -12.181718750000002 65.41015625 -16.26171875 65.41015625 C-17.38833485234069 60.678368620169095 -17.453297314581008 57.793313379162 -15.26171875 53.41015625 C-14.107329521326506 52.2107176855734 -12.914443026530705 51.0479160308156 -11.69921875 49.91015625 C-7.8943889309307025 46.321351567178226 -5.11265924521993 42.48439728346531 -2.32421875 38.09765625 C-1.9348413085937466 37.48664062500001 -1.5454638671874932 36.875625 -1.144287109375 36.24609375 C2.0739001879715744 31.07981131670681 3.8502061355100494 26.536038721097043 2.73828125 20.41015625 C0.6610689867412418 16.02566074495698 -1.9325775327379802 12.030697555162874 -5.0078125 8.28125 C-5.421601562500001 7.663789062500001 -5.835390625000002 7.046328125000002 -6.26171875 6.41015625 C-5.036529327582798 2.0198941530050547 -4.571942433995275 0.574914916849707 0 0 Z " fill="#7D6963" transform="translate(90.26171875,62.58984375)"/>
<path d="M0 0 C5.285319148460189 3.7752279631858414 8.49737246850151 7.627897001724278 10.6484375 13.88671875 C11.842356138276912 21.06349634230898 8.86029982852169 29.037981375949826 5 35 C2.7582762263954095 38.10267565767012 0.4700526292996159 41.14561525100234 -1.87890625 44.16796875 C-5.428234616446915 48.90694308825785 -7.323487062486308 52.33337722489894 -8.125 58.25 C-8.912181303116142 63.91218130311614 -8.912181303116142 63.91218130311614 -10 65 C-11.686089659056378 65.07205511363489 -13.375006592813804 65.08386067604033 -15.0625 65.0625 C-16.441152343750005 65.04896484375001 -16.441152343750005 65.04896484375001 -17.84765625 65.03515625 C-18.557929687500007 65.0235546875 -19.268203125 65.01195312499999 -20 65 C-19.79363199421539 54.68159971076963 -13.79322305498647 45.584893223724194 -8.25 37.1875 C-4.027916126801344 30.69271782568765 -0.967358357232257 24.382144878649342 -2.140625 16.4765625 C-3.695505889451681 11.995678482216533 -6.515484109863834 8.315247701189122 -9.28515625 4.50390625 C-11 2 -11 2 -11 0 C-6.512218687822568 -1.878606130678925 -4.282635761194456 -2.4625155626868107 0 0 Z " fill="#4F383D" transform="translate(106,63)"/>
<path d="M0 0 C1.75390625 2.046875 1.75390625 2.046875 3.5625 4.75 C4.161914062500003 5.6317187500000045 4.761328125000006 6.513437499999995 5.37890625 7.421875 C8.470288214810012 12.338289691023164 9.966583115288557 16.098755717185597 9 22 C5.229122710414202 32.73384605221632 -2.86379055358222 41.32145233494322 -11 49 C-12.651615809777581 48.241635571917016 -14.296171384236942 47.46787924367976 -15.9375 46.6875 C-16.854023437500004 46.2582421875 -17.770546875000008 45.828984375000005 -18.71484375 45.38671875 C-21 44 -21 44 -22 41 C-22.659999999999997 41 -23.32 41 -24 41 C-25.382324432016283 39.37373596233378 -26.71937515251343 37.70749979664876 -28 36 C-27.67 35.34 -27.340000000000003 34.68000000000001 -27 34 C-25.731562500000003 34.5259375 -25.731562500000003 34.5259375 -24.4375 35.0625 C-20.42241084227217 36.157524315743956 -18.022273182710293 36.02385135559899 -14 35 C-9.74783826212196 32.390718933574846 -7.652848231006502 29.697568656544803 -6 25 C-5.130903373816622 18.68315135115499 -5.8318808464441645 14.14711111820668 -9.3203125 8.7890625 C-10 7 -10 7 -9.26953125 4.8828125 C-6.923730597734746 1.4038096864866105 -4.137911504718744 0 0 0 Z " fill="#AF9E92" transform="translate(85,69)"/>
</svg>
