<?xml version="1.0" encoding="UTF-8"?>
<!-- Generator: visioncortex VTracer 0.6.0 -->
<svg version="1.1" xmlns="http://www.w3.org/2000/svg" width="128" height="128">
<path d="M0 0 C42.24 0 84.48 0 128 0 C128 42.24 128 84.48 128 128 C85.75999999999999 128 43.519999999999996 128 0 128 C0 85.75999999999999 0 43.519999999999996 0 0 Z " fill="#BDA775" transform="translate(0,0)"/>
<path d="M0 0 C42.24 0 84.48 0 128 0 C128 9.57 128 19.14 128 29 C120 29 120 29 116.8125 28.5 C106.39356164305657 27.133581854827092 94.61296224041106 27.193518879794464 85 32 C82.20806599481048 32.36994570669178 79.42465136087611 32.702362646019814 76.625 33 C75.09608496489103 33.164178795716396 73.56742661107394 33.3307693717842 72.0390625 33.5 C71.02126708984375 33.60828125 71.02126708984375 33.60828125 69.98291015625 33.71875 C67.93915631441045 34.008629884978966 65.99252259387335 34.46554297565845 64 35 C64.81140826723544 46.80812557318933 67.3553951056649 56.634637955428786 74.69140625 66.20703125 C76 68.00000000000001 76 68.00000000000001 76 70 C76.66 70 77.32 70 78 70 C79.68762851351948 71.64543780068149 81.35403489577742 73.31288576817185 83 75 C83.66 75.33 84.32 75.66 85 76 C85 76.66 85 77.32 85 78 C85.58265625 78.2539453125 86.1653125 78.507890625 86.765625 78.76953125 C90.74093604777178 80.95873226407012 93.51013620587976 84.24479558919572 96 88 C96.67607763467403 91.98885804457679 96.43452478349737 94.01660180576913 94.8125 97.6875 C90.2354556777263 103.52717723876299 83.82269918527555 107.06235680361166 76.6875 108.8125 C61.42315039605759 109.58865336969198 47.55429866746066 104.7253006224399 36.21875 94.48828125 C28.88355186841108 87.53278749228156 21.939973724965274 80.22895236799872 20 70 C19.8440234375 69.223984375 19.688046875 68.44796875 19.52734375 67.6484375 C18.134755032083472 58.481688463617424 20.96245687211604 50.52967037473924 23.66796875 41.859375 C24.508778635695293 37.150839640106355 23.12783500663591 32.07883177181322 20.87890625 27.93359375 C15.660238044423313 21.08871165599998 8.153312375737393 19.358885395956232 0 18 C0 12.059999999999999 0 6.119999999999999 0 0 Z " fill="#977D65" transform="translate(0,0)"/>
<path d="M0 0 C0 32.67 0 65.34 0 99 C-13.530000000000001 99 -27.060000000000002 99 -41 99 C-39.93966906922705 94.7586762769082 -39.56436146069332 94.26731168345657 -36.375 91.6875 C-24.903159405837698 82.44712220180904 -24.903159405837698 82.44712220180904 -19.0625 69.5 C-18.736733841180623 63.49368644676778 -19.987674314006867 58.9701881309835 -23.75 54.25 C-29.32366287992528 48.30387277487685 -35.11516127918432 47.504597339391964 -42.9765625 46.625 C-46.130596681321975 45.97300327001096 -47.709551782224906 45.23458362709766 -50 43 C-50 42.34 -50 41.68000000000001 -50 41 C-50.66 41 -51.31999999999999 41 -52 41 C-54.60423798584205 37.51057767414267 -56.77658622090054 33.74050819213153 -59 30 C-59.4215234375 29.29875 -59.843046875 28.597499999999997 -60.27734375 27.875 C-63.99519409569123 21.140780505917775 -65.165091965594 13.635503408722329 -65 6 C-60.67964513552488 3.950382830042315 -56.44952691101061 3.4916074456707875 -51.75 3.0625 C-46.22031397495651 2.4934666503972487 -41.1475300660064 1.7925753741878658 -35.95703125 -0.31640625 C-24.6121090008796 -4.279203442806526 -11.348897823553528 -1.5131863764738043 0 0 Z " fill="#C5AA77" transform="translate(128,29)"/>
<path d="M0 0 C39.6 0 79.2 0 120 0 C120 5.28 120 10.56 120 16 C118.2919921875 15.9883984375 116.583984375 15.976796875 114.82421875 15.96484375 C101.12499163079929 15.903078108512156 87.48303543426607 16.04716711366115 73.797607421875 16.732177734375 C69.4497130331071 16.932031235533664 65.55950765685891 17.098118252977347 61.2578125 16.34375 C56.799127662880025 15.87328924980029 53.763431991188014 17.258578979785252 49.6875 18.9375 C42.37107816556266 21.701341556361356 36.20324174588097 23.874153425056654 28.52734375 21.109375 C23.155799868343287 18.618705503095804 18.38000762762373 15.312469782912032 13.60546875 11.8359375 C9.88033277122673 9.21102908917026 5.973442369381155 6.901154202347832 2.0546875 4.578125 C1.3766406250000003 4.05734375 0.6985937500000006 3.5365625 0 3 C0 2.01 0 1.02 0 0 Z " fill="#7F4F14" transform="translate(8,0)"/>
<path d="M0 0 C0 11.880000000000003 0 23.760000000000005 0 36 C-23.97315436241611 41.993288590604024 -23.97315436241611 41.993288590604024 -35 37 C-35 36.34 -35 35.68000000000001 -35 35 C-35.66 35 -36.31999999999999 35 -37 35 C-41.57297303462667 25.98057887636873 -46.170531226474495 15.337342036214537 -45 5 C-41.54604726489225 0.19594103989809497 -37.08550543472322 -0.3372798276986053 -31.55859375 -1.46484375 C-20.772554508816626 -3.0868935590473363 -10.881052503023199 -1.450807000403092 0 0 Z " fill="#E6C989" transform="translate(128,29)"/>
<path d="M0 0 C5.570813025104478 2.4359459168814794 8.29337437947789 5.953248483168174 10.5625 11.5 C10.946640625 12.537695312499999 11.330781250000001 13.575390624999997 11.7265625 14.64453125 C15.02526292694553 23.336505687871806 19.323538336036506 31.682109335965407 25.03125 39.03515625 C26 41 26 41 25.84375 43.55859375 C24.928349269780355 46.207322714755904 24.239964082123635 47.34346842298763 22 49 C11.083267797566968 51.465068561839715 0.2742130758375083 47.983543225714484 -9.39453125 42.78515625 C-15.259008218948566 38.76706633274438 -17.907560204693546 33.48352495824071 -19.5625 26.6875 C-20.581261036811032 19.360652947379236 -18.96315889216436 11.792484395222957 -15.125 5.4375 C-10.88227113853214 0.5708404236103917 -6.4807527470108965 -1.3989816815503247 0 0 Z " fill="#796A67" transform="translate(51,48)"/>
<path d="M0 0 C12.560340393075474 1.7943343418679234 25.093557034012314 10.686922867163233 33 20.625 C38.49569259333715 28.30556550239558 41 33.38407801616211 41 43 C27.47 43 13.939999999999998 43 0 43 C0 28.810000000000002 0 14.620000000000005 0 0 Z " fill="#F0D891" transform="translate(0,85)"/>
<path d="M0 0 C2.712669632502596 1.02517026451266 3.837586177104612 1.7359050018641469 5.37890625 4.2421875 C5.964785156250002 5.545429687500004 5.964785156250002 5.545429687500004 6.5625 6.875 C7.776390235342532 9.541578549768836 8.887616742839185 11.85068702003693 10.65234375 14.1953125 C12 16 12 16 12 18 C12.659999999999997 18 13.319999999999993 18 14 18 C15.687628513519485 19.645437800681492 17.354034895777417 21.312885768171853 19 23 C19.659999999999997 23.33 20.319999999999993 23.659999999999997 21 24 C21 24.659999999999997 21 25.319999999999993 21 26 C21.873984374999992 26.380917968749998 21.873984374999992 26.380917968749998 22.765625 26.76953125 C26.74093604777181 28.958732264070136 29.51013620587976 32.244795589195704 32 36 C32.676077634674044 39.988858044576816 32.434524783497366 42.01660180576911 30.8125 45.6875 C26.23545567772632 51.52717723876296 19.82269918527554 55.062356803611664 12.6875 56.8125 C-1.9571712732783766 57.557144302031105 -15.594572754429066 53.088667431191 -26.7578125 43.48828125 C-27.167734375000002 42.9971484375 -27.577656249999997 42.506015625 -28 42 C-27.6875 39.3125 -27.6875 39.3125 -27 37 C-23.294293483495068 37 -21.475307430349524 38.18042107782232 -18.1875 39.875 C-10.421628242854126 43.53667361063191 -1.3902653020083662 46.34684477846665 7.25 44.375 C10.00843912036082 43.2073789723959 10.00843912036082 43.2073789723959 11.5625 41.25 C12.232206566409275 37.805794801323685 11.490070108716736 36.21855143482814 10 33 C8.953307317248516 31.550949646190816 7.888512801112341 30.114913378052194 6.8125 28.6875 C3.472798270042091 24.082227088163293 1.179332413011167 19.347968878905704 -1 14.125 C-1.4721594238281241 13.018380126953133 -1.4721594238281241 13.018380126953133 -1.953857421875 11.889404296875 C-4.469067932334184 5.645360234657453 -4.469067932334184 5.645360234657453 -3 2 C-2.010000000000005 1.3400000000000034 -1.019999999999996 0.6799999999999997 0 0 Z " fill="#948571" transform="translate(64,52)"/>
<path d="M0 0 C2.64 0 5.28 0 8 0 C8 0.99 8 1.98 8 3 C8.7437890625 3.2771484375 9.487578125 3.554296875 10.25390625 3.83984375 C12.75238767438198 4.89538995631785 14.720478381040358 6.021560221277556 16.9375 7.5625 C21.050917003020867 10.36489539497543 25.196783324695556 13.108060178041235 29.375 15.8125 C29.98206787109375 16.20961181640625 30.5891357421875 16.6067236328125 31.214599609375 17.015869140625 C37.24592580037273 20.913928833199094 41.91491196367525 21.96185437584045 49 21 C52.68975293715633 19.884763461959047 56.28415381689163 18.516646145912965 59.84619140625 17.046630859375 C64.74820742314664 15.107790765392316 67.8403152200867 14.81658605965291 73 16 C71.58226538328529 19.544336541786784 70.32387762458099 20.338061187709503 67 22 C65.86698079323851 23.98191164583167 65.02613412182998 25.924553542634385 64.279052734375 28.081298828125 C63.40837919035207 30.375674294460445 62.5629176717839 32.099326419532936 61 34 C57.755924869837415 35.317263441311624 54.534552060649936 35.47349239474935 51.0625 35.6875 C43.10559309101701 36.46874350599342 36.65180640091401 37.77955594045415 29.30078125 41.01171875 C26.999999999999996 42 26.999999999999996 42 25 42 C24.853046875 41.2149609375 24.70609375 40.429921875 24.5546875 39.62109375 C23.10606279567775 32.83586884182394 21.73491553186227 27.28622079416846 16 23 C10.724858599768636 20.203746184592806 5.909228486646461 18.984871414441077 0 18 C0 12.059999999999999 0 6.119999999999999 0 0 Z " fill="#9A703B" transform="translate(0,0)"/>
<path d="M0 0 C9.459666013794077 0.310662266462856 15.499743088778587 1.1978802629307381 22.3125 8.125 C26.42362438849291 13.247417018817373 27.029007061677078 18.921625579520367 26.96875 25.31640625 C25.614205934506884 30.466950821612926 22.747185547527337 33.21629626072314 19.0625 36.9375 C18.092802734375 37.963271484375 18.092802734375 37.963271484375 17.103515625 39.009765625 C13.626333566646451 42.624157359591806 13.626333566646451 42.624157359591806 12 44 C11.340000000000003 44 10.680000000000007 44 10 44 C9.731875000000002 44.639375 9.463750000000005 45.27875 9.1875 45.9375 C8 48 8 48 5 49 C4.266762039113715 51.01508358183348 4.266762039113715 51.01508358183348 4 53 C0.8764014183471147 53.49977577306447 -1.8900167854026506 53.650926719334336 -5 53 C-6.745182202863049 51.310220406751654 -7.8413558543974915 49.48078092648487 -9.140625 47.4296875 C-11.546182212652297 44.28629131035771 -14.348674485888239 42.113935992778735 -17.5 39.75 C-18.046240234375006 39.3383056640625 -18.592480468749997 38.926611328125006 -19.1552734375 38.50244140625 C-22.693422374539608 35.879111158336855 -26.319782307555997 33.41652848479757 -30 31 C-27.09801808160927 29.549009040804634 -25.456646528248413 30.559815862207728 -22.375 31.4375 C-13.303040140110141 33.78108963047154 -6.830582993165905 33.06491024848714 2 30 C3.0106250000000045 29.67 4.021250000000009 29.340000000000003 5.0625 29 C7.353429913940431 28.103016841065738 7.353429913940431 28.103016841065738 8 25 C8.659999999999997 25 9.319999999999993 25 10 25 C11.75779784300002 19.93340621723526 12.609592756112875 16.302187902489493 11 11 C8.453127433410259 7.80367492892988 5.681934351744587 4.840967175872294 2 3 C2 2.3400000000000034 2 1.6800000000000068 2 1 C1.3400000000000034 0.6700000000000017 0.6800000000000068 0.3400000000000034 0 0 Z " fill="#B0A17B" transform="translate(83,75)"/>
<path d="M0 0 C18.150000000000006 0 36.30000000000001 0 55 0 C55 5.28 55 10.56 55 16 C53.2919921875 15.9883984375 51.583984375 15.976796875 49.82421875 15.96484375 C35.9978768166001 15.903512047927252 22.255761930955003 16.04851644760275 8.446044921875 16.820068359375 C7.379748535156253 16.87171142578125 6.313452148437506 16.9233544921875 5.21484375 16.9765625 C4.277614746093747 17.0289306640625 3.340385742187493 17.081298828125 2.374755859375 17.13525390625 C0 17 0 17 -3 15 C-2 10 -1 5.000000000000001 0 0 Z " fill="#795A27" transform="translate(73,0)"/>
<path d="M0 0 C0 4.289999999999999 0 8.579999999999998 0 13 C-3.8390644417336546 13.067352007749712 -7.3913846115914765 13.09546908053467 -11.1875 12.5 C-21.60643835694343 11.133581854827092 -33.387037759588935 11.193518879794464 -43 16 C-45.75037494815383 16.371358642788707 -48.491542918371835 16.703292011387894 -51.25 17 C-56.1950618166684 17.542854127387272 -61.09931449600376 18.125992394191755 -66 19 C-67 16 -67 16 -65.99609375 13.6953125 C-62.845420069208785 8.499464675537283 -60.17917726644707 4.276622352242029 -55 1 C-49.51785007343369 -0.0382859709405885 -43.99996802451085 -0.3034086199049 -38.4375 -0.5625 C-37.5556201171875 -0.6042333984375006 -36.673740234375 -0.6459667968749994 -35.76513671875 -0.68896484375 C-23.752802147804843 -1.2245466399067908 -11.98859805052389 -0.9786610653488896 0 0 Z " fill="#AF9057" transform="translate(128,16)"/>
<path d="M0 0 C1.4637304687500006 0.013535156250000568 1.4637304687500006 0.013535156250000568 2.95703125 0.02734375 C4.061113281250002 0.044746093749999716 4.061113281250002 0.044746093749999716 5.1875 0.0625 C5.150117187500001 1.2149218750000017 5.112734375000002 2.3673437500000034 5.07421875 3.5546875 C5.077142104774481 7.980646628567477 5.870944944178177 11.925830371116191 7 16.1875 C7.1656445312499955 16.8642578125 7.331289062500005 17.541015625 7.501953125 18.23828125 C8.593727535501102 22.49826140267224 10.171671797074367 26.169467883175145 12.1875 30.0625 C12.1875 30.722499999999997 12.1875 31.3825 12.1875 32.0625 C12.847499999999997 32.0625 13.507499999999993 32.0625 14.1875 32.0625 C14.668582745136078 33.47851713662696 15.147281407883796 34.895344367884945 15.625 36.3125 C15.891835937500005 37.10140625 16.158671874999996 37.89031249999999 16.43359375 38.703125 C17.10704708004151 40.810719877435616 17.679005945088818 42.91003972872549 18.1875 45.0625 C15.76836871583454 44.806746070703895 13.35339461082279 44.53356618814648 10.9375 44.25 C10.255585937500001 44.17974609375 9.573671875000002 44.109492187499995 8.87109375 44.037109375 C4.870611753153142 43.55161398703315 2.054129609040814 42.99562359481753 -0.8125 40.0625 C-0.8125 39.4025 -0.8125 38.74250000000001 -0.8125 38.0625 C-1.4724999999999966 38.0625 -2.132499999999993 38.0625 -2.8125 38.0625 C-5.4167379858420475 34.57307767414267 -7.5890862209005405 30.80300819213153 -9.8125 27.0625 C-10.2340234375 26.36125 -10.655546874999999 25.659999999999997 -11.08984375 24.9375 C-14.807694095691232 18.203280505917775 -15.977591965593994 10.698003408722329 -15.8125 3.0625 C-10.456323144342278 0.7669956332895467 -5.8232546386592645 -0.0701596944416778 0 0 Z " fill="#C3AB85" transform="translate(78.8125,31.9375)"/>
<path d="M0 0 C19.005208704958974 -0.9921512665001728 19.005208704958974 -0.9921512665001728 27 5 C27.6045703125 5.617460937499999 28.209140625000003 6.234921874999998 28.83203125 6.87109375 C31.58754153063539 9.576955196750063 34.69628929579752 11.646342150860434 37.875 13.8125 C43.060523375468904 17.419123676910374 47.18013018223493 20.90684024297991 51 26 C51.66 26.659999999999997 52.31999999999999 27.319999999999993 53 28 C52 29 52 29 48.489990234375 29.113525390625 C46.92951578210629 29.113366263540257 45.369036071198934 29.107671424287446 43.80859375 29.09765625 C42.98875503540039 29.096241302490228 42.168916320800776 29.094826354980455 41.32423400878906 29.093368530273438 C38.695286176461565 29.087752891848993 36.066422265120295 29.075197792768734 33.4375 29.0625 C31.659506434754405 29.05748701223078 29.881511540039398 29.05292375734828 28.103515625 29.048828125 C23.735644548604895 29.03777838537377 19.367836521068966 29.020503312910336 15 29 C14.888979492187502 28.269020996093758 14.777958984374997 27.5380419921875 14.66357421875 26.784912109375 C13.804374442159997 21.55558471028054 13.062098537331352 17.074674695952055 10.125 12.5625 C9.632578125000002 11.780039062499995 9.140156250000004 10.997578125000004 8.6328125 10.19140625 C7.017960389107124 7.907839196730762 7.017960389107124 7.907839196730762 4.8046875 5.83984375 C3 4 3 4 3 2 C2.009999999999998 1.6700000000000017 1.0199999999999996 1.3400000000000034 0 1 C0 0.6700000000000017 0 0.3400000000000034 0 0 Z " fill="#D0B17F" transform="translate(26,99)"/>
<path d="M0 0 C0 8.909999999999997 0 17.819999999999993 0 27 C-13.530000000000001 27 -27.060000000000002 27 -41 27 C-39.939669069227065 22.758676276908233 -39.564361460693306 22.267311683456555 -36.375 19.6875 C-31.073744092176526 15.247698177197833 -26.265221674965403 10.637505473566904 -22 5.1875 C-16.095343438571206 -1.7064183937100523 -8.806554521025248 0 0 0 Z " fill="#D3C08C" transform="translate(128,101)"/>
<path d="M0 0 C8.590768265575088 0.9545298072861215 14.324633047728494 1.9935824444762282 20.375 8 C23.970766877491293 12.541502823352019 25.137172184265037 18.27911302094641 25 24 C23.65234375 26.36328125 23.65234375 26.36328125 22 28 C21.34 28 20.68 28 20 28 C20 28.659999999999997 20 29.32 20 30 C17.769531250000004 31.62109375 17.769531250000004 31.62109375 14.8125 33.4375 C13.8495703125 34.0343359375 12.886640625 34.631171875 11.89453125 35.24609375 C10.46173828125 36.114277343750004 10.46173828125 36.114277343750004 9 37 C8.1376171875 37.5684765625 7.275234375 38.136953125 6.38671875 38.72265625 C3.9999999999999982 40 3.9999999999999982 40 0 40 C0 26.799999999999997 0 13.599999999999998 0 0 Z " fill="#C9A86B" transform="translate(0,18)"/>
</svg>
