<?xml version="1.0" encoding="UTF-8"?>
<!-- Generator: visioncortex VTracer 0.6.0 -->
<svg version="1.1" xmlns="http://www.w3.org/2000/svg" width="128" height="128">
<path d="M0 0 C42.24 0 84.48 0 128 0 C128 42.24 128 84.48 128 128 C85.75999999999999 128 43.519999999999996 128 0 128 C0 85.75999999999999 0 43.519999999999996 0 0 Z " fill="#2E3536" transform="translate(0,0)"/>
<path d="M0 0 C42.24 0 84.48 0 128 0 C128 42.24 128 84.48 128 128 C117.77 128 107.53999999999999 128 97 128 C98.82164156484592 123.4458960878852 100.7747053534985 120.62691936351756 103.9375 117.0625 C109.72586217732422 110.84613130145866 109.72586217732422 110.84613130145866 112 103 C110.35 102.34 108.7 101.68 107 101 C107.0116015625 99.9004296875 107.023203125 98.800859375 107.03515625 97.66796875 C107.04514214717662 96.17448473836409 107.05419235963791 94.68099429000118 107.0625 93.1875 C107.06870361328124 92.41083984375 107.0749072265625 91.6341796875 107.081298828125 90.833984375 C107.08990417500036 86.4679031182392 106.84171253203488 82.32644325430608 106.1875 78 C105.56684330425554 72.12149443887755 107.77309316722989 68.74641232870744 111 64 C112.09251063395655 62.21391459603763 113.17584923101238 60.4221868798316 114.25 58.625 C115.000234375 57.406835937500006 115.000234375 57.406835937500006 115.765625 56.1640625 C118.68491502488658 51.04606669687605 118.58728455804017 46.57398432009606 117.31640625 41.00390625 C114.82079194789527 32.212302339265904 111.39229564455972 21.795597511176986 103 17 C91.76137004856585 12.837544462431794 79.8130875452358 14.882186830236895 68.375 17.0625 C59.92758114929824 18.668309410075132 52.56081321630389 19.330882726904388 44 18 C34.90581085716864 16.712857282295253 34.90581085716864 16.712857282295253 26 18 C19.196229613839783 23.920163842503047 13.528643813566783 32.05834136300997 12.72265625 41.1171875 C13.084623870261352 46.18473418365891 14.653724524002449 50.39851860175992 16.4375 55.125 C17.085017591774786 56.87650303042447 17.729644809063412 58.62907786972801 18.37109375 60.3828125 C18.65911865234375 61.1499658203125 18.9471435546875 61.917119140625 19.243896484375 62.70751953125 C20.817292741665135 67.47800414731535 21.440209443091433 71.98161234875764 21 77 C18.1447724315463 82.39320762930143 14.685142498505577 85.85738617084868 9.0625 88.25 C5.999999999999997 89 5.999999999999997 89 0 89 C0 59.629999999999995 0 30.259999999999998 0 0 Z " fill="#507F9F" transform="translate(0,0)"/>
<path d="M0 0 C7.723497223344651 5.609803430704289 11.91466997069567 14.312370106771574 14.4375 23.4375 C15.897303497800138 32.68292215273418 13.657154981261527 38.008496968774224 9 46 C8.08529599671678 47.24622370817687 7.151142880964301 48.47871989493075 6.1875 49.6875 C3.480507961672501 53.78665937232449 2.879745208070915 57.13827055486723 3 62 C3.159843749999993 62.779882812500006 3.3196875000000006 63.559765625 3.484375 64.36328125 C4.093134714432864 67.47625706244081 4.132347685668378 70.39197363409764 4.125 73.5625 C4.128867187499992 75.23505859375001 4.128867187499992 75.23505859375001 4.1328125 76.94140625 C4.0220614719969205 79.49193727724744 3.7467861987417876 81.57590829138579 3 84 C4.650000000000006 84.33 6.299999999999997 84.66 8 85 C9 88 9 88 8.06640625 90.1640625 C4.734500284474805 95.61627226176849 1.1433137203613626 100.36109295264367 -3.265625 104.9921875 C-5.28948021507847 107.16854038904259 -5.28948021507847 107.16854038904259 -7 111 C-26.14 111 -45.28 111 -65 111 C-65 108 -65 108 -63.0625 105.6875 C-53.453176469061745 96.75109828495378 -42.92573317979824 92.49302079939757 -29.826171875 92.794921875 C-28.666660156250003 92.84197265625 -27.507148437500007 92.8890234375 -26.3125 92.9375 C-13.318705990128905 93.43550997776684 -13.318705990128905 93.43550997776684 -1.9375 87.6875 C0.22631653093313275 85.1682748290867 0.22631653093313275 85.1682748290867 0.25 82.1875 C-1.9774291482713267 76.50755567190811 -6.343120542777669 72.54391040332081 -10.75 68.4375 C-14.07705845566116 64.83318667303374 -15.937413570575572 61.49954552513795 -16.0625 56.50390625 C-15.707843014822572 51.531319770324785 -14.984285490303023 48.10505048555015 -12 44 C-9.625 42.12109375 -9.625 42.12109375 -7 40.4375 C-3.087235471893379 37.916328808526536 -0.006174177569207018 35.65264101359154 1.6875 31.1875 C2.714224102723392 24.00043128093629 1.548752904472238 18.306452529929004 -2 12 C-6.0467408220205385 8.31296947327018 -9.540241976271844 7 -15 7 C-22.51604910141222 8.575778570227115 -28.04912388121194 11.159035796322534 -33.4765625 16.609375 C-35 18 -35 18 -37 18 C-37 18.659999999999997 -37 19.32 -37 20 C-42.64876940233341 23.716295659429875 -46.66164095320716 22.96207235531677 -53 22 C-55.07132811952562 21.7105318952963 -57.143568233195886 21.430779018433306 -59.21728515625 21.158935546875 C-60.63478722142029 20.97240523438427 -62.05121798655127 20.77750651256236 -63.46630859375 20.573486328125 C-68.33231390146109 19.857008570589315 -68.33231390146109 19.857008570589315 -73 21 C-78.06014068050436 27.65047060866288 -78.46947847726834 32.89590723762992 -78 41 C-77.60529995522445 43.01445966248652 -77.080124184352 44.9388778287367 -76.51171875 46.91015625 C-75.67322252963449 50.33454921103473 -75.41928457463753 53.77775021458366 -75.18359375 57.2890625 C-75.04361013417503 59.92436423435663 -75.04361013417503 59.92436423435663 -74.66015625 62.2109375 C-74.00175374945213 68.42533303148683 -76.78510670671884 72.77272512965368 -80.154052734375 77.776611328125 C-83.22414215343608 82.52776107065503 -83.51005272803437 85.5239393924223 -83 91 C-82.39447670875367 93.22794015385617 -82.39447670875367 93.22794015385617 -81.3125 95 C-80.77302734375 95.982265625 -80.77302734375 95.982265625 -80.22265625 96.984375 C-78.54246201945165 99.75427986569633 -76.78566758255701 102.46908701820001 -74.953125 105.140625 C-74 107 -74 107 -74 111 C-83.9 111 -93.8 111 -104 111 C-104 98.13 -104 85.25999999999999 -104 72 C-100.04 71.01 -96.08 70.02 -92 69 C-88.3508636539846 66.54627038802413 -85.27001364448519 64.31804639124965 -84 60 C-82.9708776803903 51.93854182972407 -86.50213443966192 44.225397780007775 -89.15625 36.73828125 C-91.7205238066399 29.43925902181428 -93.68918207837991 23.4386543965729 -90.1875 16.03125 C-86.99388575622491 10.568488793542606 -83.05671447519546 3.908028717867115 -78 0 C-71.67707284706134 -1.5170952428145874 -65.4176506662917 -1.0449744384170945 -59.0625 0 C-49.51182923641926 1.5394173270245268 -41.02286379402503 0.4911434929711298 -31.625 -1.5625 C-21.557014463586484 -3.6738647354255622 -9.387233745313594 -5.299536584541201 0 0 Z " fill="#2F5A78" transform="translate(104,17)"/>
<path d="M0 0 C0.5684765624999955 0.16499999999999915 1.1369531250000051 0.3299999999999983 1.72265625 0.5 C1.0626562500000034 0.8299999999999983 0.4026562500000068 1.1599999999999966 -0.27734375 1.5 C-2.475873449235067 6.290374344663547 -3.891756035673751 11.216054343205698 -3.27734375 16.5 C-2.327554780069903 18.65028303532904 -2.327554780069903 18.65028303532904 -1.27734375 20.5 C-1.27734375 21.489999999999995 -1.27734375 22.480000000000004 -1.27734375 23.5 C0.20765624999999943 23.995000000000005 0.20765624999999943 23.995000000000005 1.72265625 24.5 C3.328125 26.05859375 3.328125 26.05859375 4.91015625 27.9375 C5.439960937500004 28.5549609375 5.969765624999994 29.172421874999998 6.515625 29.80859375 C7.72265625 31.5 7.72265625 31.5 7.72265625 33.5 C9.20765625 33.995000000000005 9.20765625 33.995000000000005 10.72265625 34.5 C12.307564214160834 36.718871149825176 12.713389715885384 38.14787170364478 12.78515625 40.875 C11.17735723345261 44.847209334999434 8.29683769680247 47.21332856780555 4.72265625 49.5 C0.514264127735288 51.15409665536336 -2.8073517803215395 51.70690373002307 -7.3125 51.51953125 C-9.012370605468746 51.47046630859376 -9.012370605468746 51.47046630859376 -10.74658203125 51.42041015625 C-11.9323583984375 51.3847998046875 -13.118134765625001 51.34918945312501 -14.33984375 51.3125 C-24.422484907178756 51.16664626594127 -32.41200693325785 51.27382922222917 -41.27734375 56.5 C-42.15390625 56.99242187499999 -43.03046875 57.48484375000001 -43.93359375 57.9921875 C-48.138033037731375 60.56008871054479 -51.27784298916933 62.834498224728435 -53.27734375 67.5 C-53.27734375 67.83 -53.27734375 68.16 -53.27734375 68.5 C-56.24734375 68.5 -59.21734375 68.5 -62.27734375 68.5 C-62.66921875 67.324375 -63.06109375 66.14875 -63.46484375 64.9375 C-64.86477156375479 61.16436122578473 -66.7409974767943 58.282041401516054 -69.13671875 55.078125 C-72.37804133215704 50.59355540002929 -72.98943348687212 45.92595893002199 -72.27734375 40.5 C-70.52734375 37.25390625 -70.52734375 37.25390625 -68.27734375 34.0625 C-63.11211426614514 26.121956389528435 -63.47743378281189 18.676744901352436 -64.27734375 9.5 C-59.03246607707506 15.711810428268649 -58.25302459349399 24.056922155926713 -57.90234375 31.9375 C-57.625515043852175 35.84386063119703 -57.35506042062222 37.371281764281946 -55.27734375 40.8125 C-51.58574575412711 42.88902387267851 -49.46570606687884 42.74755799547833 -45.36328125 42.1875 C-42.96656928487483 41.39757246093254 -41.9811891323785 40.31218237200952 -40.27734375 38.5 C-39.61734375 38.5 -38.95734375 38.5 -38.27734375 38.5 C-38.00921875 37.79875 -37.74109375 37.0975 -37.46484375 36.375 C-36.2091988468757 33.33501760296224 -34.774992520480666 30.42722259684858 -33.27734375 27.5 C-32.20484375 27.871250000000003 -31.132343749999997 28.242500000000007 -30.02734375 28.625 C-26.520928876750162 29.79560317705169 -26.520928876750162 29.79560317705169 -24.16796875 28.765625 C-19.391659479468274 25.568260942867184 -18.02030889170362 18.729010476365374 -16.46484375 13.5 C-13.617360970987733 4.814073848516841 -9.999634072216395 -2.136816629789152 0 0 Z " fill="#1B4553" transform="translate(92.27734375,59.5)"/>
<path d="M0 0 C0 0.9899999999999984 0 1.9800000000000004 0 3 C-1.6499999999999986 3.66 -3.299999999999997 4.32 -5 5 C-5 5.66 -5 6.32 -5 7 C-5.659999999999997 7 -6.32 7 -7 7 C-7.247500000000002 7.824999999999999 -7.494999999999997 8.649999999999999 -7.75 9.5 C-10.038310192527199 15.90726853907615 -13.199604704243004 21.3649311131879 -17 27 C-19.159437195742164 33.478311587226486 -18.37680282577849 40.44188594464056 -16.51171875 46.91015625 C-15.673222529634494 50.3345492110347 -15.419284574637533 53.77775021458369 -15.18359375 57.2890625 C-15.043610134175033 59.92436423435663 -15.043610134175033 59.92436423435663 -14.66015625 62.2109375 C-14.001753749452138 68.42533303148684 -16.78510670671884 72.77272512965368 -20.154052734375 77.776611328125 C-23.22414215343607 82.52776107065502 -23.51005272803436 85.52393939242229 -23 91 C-22.394476708753672 93.22794015385617 -22.394476708753672 93.22794015385617 -21.3125 95 C-20.77302734375 95.982265625 -20.77302734375 95.982265625 -20.22265625 96.984375 C-18.54246201945163 99.75427986569636 -16.785667582557018 102.46908701820001 -14.953125 105.140625 C-14 107 -14 107 -14 111 C-23.9 111 -33.8 111 -44 111 C-44 98.13 -44 85.25999999999999 -44 72 C-40.04 71.01 -36.08 70.02 -32 69 C-28.350863653984604 66.54627038802413 -25.27001364448519 64.31804639124964 -24 60 C-22.97087768039031 51.93854182972407 -26.502134439661916 44.22539778000777 -29.15625 36.73828125 C-31.7205238066399 29.439259021814287 -33.689182078379915 23.438654396572908 -30.1875 16.03125 C-26.912440572941993 10.429174664242886 -22.98783380222023 4.228815614925846 -18 0 C-11.948723795903575 -1.5128190510241062 -6.139847983836887 -0.7216819510839017 0 0 Z " fill="#5A7997" transform="translate(44,17)"/>
<path d="M0 0 C12.540000000000001 0 25.080000000000002 0 38 0 C36.87658547536199 6.740487147828041 36.87658547536199 6.740487147828041 33.90234375 9.6640625 C33.2689306640625 10.305693359375 32.635517578125 10.94732421875 31.98291015625 11.6083984375 C31.3079248046875 12.273876953125 30.632939453125 12.93935546875 29.9375 13.625 C18.00510241513336 25.588920238234202 18.00510241513336 25.588920238234202 12.72265625 41.1171875 C13.084623870261352 46.18473418365891 14.653724524002449 50.39851860175992 16.4375 55.125 C17.085017591774786 56.87650303042447 17.729644809063412 58.62907786972801 18.37109375 60.3828125 C18.65911865234375 61.1499658203125 18.9471435546875 61.917119140625 19.243896484375 62.70751953125 C20.817292741665135 67.47800414731535 21.440209443091433 71.98161234875764 21 77 C18.1447724315463 82.39320762930143 14.685142498505577 85.85738617084868 9.0625 88.25 C5.999999999999997 89 5.999999999999997 89 0 89 C0 59.629999999999995 0 30.259999999999998 0 0 Z " fill="#9DC5DE" transform="translate(0,0)"/>
<path d="M0 0 C1.3921874999999986 0.3403125000000031 1.3921874999999986 0.3403125000000031 2.8125 0.6875 C3.0548437500000034 1.4983203124999989 3.2971874999999997 2.3091406249999977 3.546875 3.14453125 C7.6316963052933176 16.640152408642166 12.396773822323638 28.587685413904325 19.6328125 40.74609375 C20.187109375 41.6961328125 20.741406249999997 42.64617187499999 21.3125 43.625 C21.817812500000002 44.45902343750001 22.323124999999997 45.293046875 22.84375 46.15234375 C24.095821634748646 49.42893443932206 23.713606535700734 51.32964529731419 22.8125 54.6875 C21.666771097381464 57.18141592457529 20.264536568500183 59.34550553467713 18.8125 61.6875 C18.152500000000003 61.6875 17.4925 61.6875 16.8125 61.6875 C16.4825 62.67750000000001 16.152500000000003 63.66749999999999 15.8125 64.6875 C12.13670430745433 66.68293194738193 8.950218766004824 67.29091732004237 4.8125 66.6875 C0.8322295267508366 63.59173407636176 -0.417985853073084 61.54292997131762 -1.1875 56.6875 C-2.800949857597274 47.02860423087036 -4.83277817834092 38.02871435692808 -8.1015625 28.796875 C-10.41146476231539 22.18291024890989 -11.652813302383393 15.126964064646714 -9.3984375 8.296875 C-5.128947140381282 -0.5028379549393378 -5.128947140381282 -0.5028379549393378 0 0 Z " fill="#12384F" transform="translate(35.1875,36.3125)"/>
<path d="M0 0 C2.3100000000000023 0.9899999999999949 4.6200000000000045 1.980000000000004 7 3 C5.57360878078039 9.181028616618306 1.9026730302456798 13.198578616316013 -2 18 C-3.1330714627482052 19.472992901572653 -4.258680915612302 20.951770977058885 -5.375 22.4375 C-5.857109374999993 23.075585937499994 -6.339218750000001 23.713671875000003 -6.8359375 24.37109375 C-8.067456247531695 26.00475699273946 -8.067456247531695 26.00475699273946 -9 28 C-28.14 28 -47.28 28 -67 28 C-67 25 -67 25 -65.0625 22.6875 C-55.45317646906176 13.751098284953784 -44.92573317979823 9.49302079939757 -31.826171875 9.794921875 C-30.086904296875005 9.865498046875004 -30.086904296875005 9.865498046875004 -28.3125 9.9375 C-15.727242561261178 10.585385149160516 -15.727242561261178 10.585385149160516 -4.6875 5.17578125 C-4.130625000000009 4.560898437500001 -3.573750000000004 3.946015625000001 -3 3.3125 C-2.133749999999992 2.3785742187500034 -2.133749999999992 2.3785742187500034 -1.25 1.42578125 C-0.8375000000000057 0.9552734374999972 -0.42499999999999716 0.4847656249999943 0 0 Z " fill="#437C80" transform="translate(106,100)"/>
<path d="M0 0 C17.490000000000002 0 34.980000000000004 0 53 0 C54.31999999999999 4.62 55.64 9.24 57 14 C55.6812890625 14.1095703125 54.362578125 14.219140625 53.00390625 14.33203125 C44.24311582864328 15.095729366318643 35.6269727922101 15.954890410299539 27 17.6875 C19.769901724650992 19.099094633523038 13.28196978381024 18.956409555480928 6 18 C4.021662123575631 17.80394849873272 2.0424945181971523 17.61604593905681 0.0625 17.4375 C-0.8192187499999974 17.355 -1.700937500000002 17.2725 -2.609375 17.1875 C-5.412789675572363 16.967624339170793 -8.18934618920671 16.924036383492073 -11 17 C-10.084397400487838 15.77004050798866 -9.167457971242676 14.54107614465913 -8.25 13.3125 C-7.704726562499999 12.5816015625 -7.159453124999999 11.850703124999999 -6.59765625 11.09765625 C-5.339770554495587 9.446104615560216 -4.0236325676725215 7.838914404799759 -2.6875 6.25 C-0.7013780116740165 3.905006880194102 -0.7013780116740165 3.905006880194102 0 0 Z " fill="#80929A" transform="translate(38,0)"/>
<path d="M0 0 C0.49500000000000455 0.9900000000000002 0.49500000000000455 0.9900000000000002 1 2 C-1.1947860562378878 6.305157264158943 -2.6345153013840843 8.425856618707734 -7.16796875 10.33203125 C-9.62128415536992 11.118249155900973 -12.077082100336838 11.8967576579231 -14.53515625 12.66796875 C-18.758935116293486 14.291766487774613 -21.41135762762444 16.447666798599705 -24.546875 19.64453125 C-26 21 -26 21 -28 21 C-28 21.659999999999997 -28 22.32 -28 23 C-33.659018605604984 26.723038556319068 -37.65366413695317 25.945887001243925 -44 25 C-45.36538495418557 24.83309328479705 -46.731318701731155 24.670638946598373 -48.09765625 24.51171875 C-59.483659273316505 23.17211357556117 -59.483659273316505 23.17211357556117 -63 22 C-61.689384089637336 17.765702443443693 -60.05643740720997 13.925925959219036 -58 10 C-57.34 10 -56.68 10 -56 10 C-56 9.34 -56 8.68 -56 8 C-53.318068495827205 5.467064690503474 -51.47643360681202 4.0764991506120225 -47.73828125 3.8828125 C-46.8552734375 3.9214843749999986 -45.972265625 3.9601562500000007 -45.0625 4 C-38.7084894561781 4.253526605239777 -32.89558814275553 3.1896822608198825 -26.6875 2 C-17.634200051431904 0.28856229895745855 -9.206441525671295 -0.5235890915073718 0 0 Z " fill="#4A5D61" transform="translate(95,14)"/>
<path d="M0 0 C5.244877672924943 6.211810428268649 6.02431915650601 14.556922155926713 6.375 22.4375 C6.648792483158729 26.37907857830392 6.887582445923016 27.822857187515055 9.0625 31.25 C12.325855327641008 33.19412657816912 13.968219513194697 32.963474430331075 17.643798828125 32.8828125 C22.195217055725323 33.109180829628855 26.47135029966342 34.56870582845016 30.8125 35.875 C31.752871093750002 36.144414062500005 32.6932421875 36.41382812500001 33.662109375 36.69140625 C37.546846241312906 37.82989239380865 40.60495276187723 38.73663517458482 44 41 C43.296171875 41.06316406249999 42.59234375 41.126328125 41.8671875 41.19140625 C30.95222582439876 42.54508948653017 20.41302956890027 46.567188585642555 13 55 C12.340000000000003 56.31999999999999 11.68 57.64 11 59 C8.030000000000001 59 5.060000000000002 59 2 59 C1.6081250000000011 57.824375 1.2162500000000023 56.64875000000001 0.8125 55.4375 C-0.5874278137547755 51.664361225784745 -2.4636537267943055 48.782041401516054 -4.859375 45.578125 C-8.10069758215704 41.0935554000293 -8.712089736872116 36.42595893002198 -8 31 C-6.2499999999999964 27.75390625 -6.2499999999999964 27.75390625 -4 24.5625 C1.165229483854862 16.621956389528435 0.7999099671881069 9.176744901352436 0 0 Z " fill="#2A5B6C" transform="translate(28,69)"/>
<path d="M0 0 C5.93932705350241 3.027892223354172 8.443145494610704 6.848387985628534 10.75 13 C11.517145584087004 19.137164672696024 11.070243609218949 23.55279359654704 8 29 C4.819141717456347 32.6575760613228 2.1012933562130627 34.71518275270352 -2.625 35.9375 C-7.375812802668477 36.025478014864234 -9.75775329995875 36.02485352753403 -13.5 32.9375 C-18.872644151583813 26.624643121889022 -21.865410253543217 22.192794817321 -21.4140625 13.6171875 C-20.67901898233363 8.97115771852387 -19.196170415765295 5.632153922625566 -15.28125 2.72265625 C-9.78686285622291 -0.548366604663908 -6.2333427554397645 -1.3734484037409622 0 0 Z " fill="#112841" transform="translate(96,24)"/>
<path d="M0 0 C1 3 1 3 0.84765625 6.0546875 C1.046376128813085 11.20102282310809 2.6320594786671876 15.341112591223819 4.4375 20.125 C5.085017591774786 21.876503030424473 5.729644809063412 23.629077869728007 6.37109375 25.3828125 C6.65911865234375 26.149965820312502 6.9471435546875 26.917119140625005 7.243896484375 27.70751953125 C8.817292741665131 32.47800414731533 9.440209443091433 36.981612348757636 9 42 C6.144772431546301 47.39320762930143 2.6851424985055807 50.857386170848685 -2.9375 53.25 C-6.000000000000008 54 -6.000000000000008 54 -12 54 C-12 37.83 -12 21.659999999999997 -12 5 C-8.37 3.6799999999999997 -4.739999999999999 2.3599999999999994 -1 1 C-0.6699999999999999 0.6700000000000017 -0.33999999999999986 0.3400000000000034 0 0 Z " fill="#8E9EAD" transform="translate(12,35)"/>
<path d="M0 0 C12.210000000000008 0 24.42 0 37 0 C37 11.22 37 22.44 37 34 C30.181959363356313 31.72731978778544 27.161163656203968 29.46631085756479 22.8125 24 C18.50968889265897 18.943961565334504 12.940091498979115 16.393430575522142 6.33984375 15.734375 C4 15 4 15 2.63671875 12.63671875 C2.323476562500005 11.6634765625 2.010234374999996 10.690234375 1.6875 9.6875 C1.3613671874999937 8.7219921875 1.0352343750000017 7.756484374999999 0.69921875 6.76171875 C0 4 0 4 0 0 Z " fill="#6CA4BA" transform="translate(91,0)"/>
<path d="M0 0 C0 0.9899999999999984 0 1.9800000000000004 0 3 C-1.6499999999999986 3.66 -3.299999999999997 4.32 -5 5 C-5 5.66 -5 6.32 -5 7 C-5.659999999999997 7 -6.32 7 -7 7 C-7.247500000000002 7.824999999999999 -7.4950000000000045 8.649999999999999 -7.75 9.5 C-10.038310192527192 15.90726853907615 -13.199604704243 21.3649311131879 -17 27 C-19.172831178071796 33.51849353421539 -18.36101698515725 40.45229457844623 -16.4453125 46.94140625 C-15.587421466069621 50.907270941941306 -15.8511653854193 54.96492822692329 -16 59 C-18.310000000000002 58.67 -20.62 58.34 -23 58 C-23.2307421875 57.007421875000006 -23.461484374999998 56.01484375 -23.69921875 54.9921875 C-25.652409886776 46.79670306798719 -27.922553377508418 39.022629628118935 -31.046875 31.18359375 C-32.640773075433216 25.859712883286605 -32.58349720175133 21.09970561908934 -30.1875 16.03125 C-26.912440572941993 10.429174664242883 -22.987833802220234 4.22881561492585 -18 0 C-11.948723795903575 -1.512819051024108 -6.139847983836887 -0.7216819510839017 0 0 Z " fill="#4E768B" transform="translate(44,17)"/>
<path d="M0 0 C0 13.200000000000003 0 26.400000000000006 0 40 C-10.230000000000004 40 -20.460000000000008 40 -31 40 C-29.113161098036812 35.28290274509203 -27.546105836178725 33.080622015825185 -24.25 29.375 C-20.257506227406253 24.77298693556743 -17.34228116339777 20.202785556602493 -14.57421875 14.75390625 C-6.1404255319149 0 -6.1404255319149 0 0 0 Z " fill="#79A7AC" transform="translate(128,88)"/>
</svg>
