<?xml version="1.0" encoding="UTF-8"?>
<!-- Generator: visioncortex VTracer 0.6.0 -->
<svg version="1.1" xmlns="http://www.w3.org/2000/svg" width="128" height="128">
<path d="M0 0 C42.24 0 84.48 0 128 0 C128 42.24 128 84.48 128 128 C85.75999999999999 128 43.519999999999996 128 0 128 C0 85.75999999999999 0 43.519999999999996 0 0 Z " fill="#703F6C" transform="translate(0,0)"/>
<path d="M0 0 C6.539481705275762 4.898993167526164 14.25101931181706 11.009553963349834 17.7109375 18.578125 C17.7109375 19.568125 17.7109375 20.558125 17.7109375 21.578125 C18.370937499999997 21.578125 19.030937499999993 21.578125 19.7109375 21.578125 C21.40234375000003 23.29296875000002 21.40234375000003 23.29296875000002 23.2734375 25.515625 C24.203496093750005 26.611972656250003 24.203496093750005 26.611972656250003 25.15234375 27.73046875 C25.666679687499993 28.3401953125 26.181015625 28.949921875 26.7109375 29.578125 C27.0409375 29.908125 27.370937499999997 30.238124999999997 27.7109375 30.578125 C27.84444422266037 32.93081013488171 27.942228176991037 35.28555463274018 28.0234375 37.640625 C28.39489650658915 44.592566408085766 29.26766159802247 49.99964192909665 34.203125 55.12890625 C41.054948571698915 61.1796459712764 45.57144465481301 59.85387551105808 55.7109375 60.578125 C55.7109375 79.058125 55.7109375 97.53812500000001 55.7109375 116.578125 C33.2709375 116.578125 10.830937500000005 116.578125 -12.2890625 116.578125 C-12.2890625 110.24535341856223 -12.022348506413081 106.787226667188 -10.2890625 101.015625 C-6.877541512472604 89.63204281592422 -9.177708031785357 82.03106978664931 -14.265625 71.5703125 C-15.210420829878736 69.86968000621827 -16.252498961266326 68.22443179681231 -17.2890625 66.578125 C-18.112773437499996 65.2478125 -18.112773437499996 65.2478125 -18.953125 63.890625 C-22.48982223797185 58.22720757621666 -22.48982223797185 58.22720757621666 -26.4765625 52.87890625 C-28.2890625 50.578125 -28.2890625 50.578125 -28.7890625 48.390625 C-28.9540625 47.7925 -29.1190625 47.194375 -29.2890625 46.578125 C-29.8665625 46.289375 -30.4440625 46.000625 -31.0390625 45.703125 C-35.06169556694831 43.69180846652585 -37.457445765675196 40.5710083453189 -39.15625 36.5 C-40.50018528799052 31.754747007835945 -40.59289341949906 27.782049403597128 -38.80078125 23.16796875 C-35.58331700347478 17.655878839286252 -31.138533181820165 13.0070503044 -26.845947265625 8.315185546875 C-24.738374325786054 5.963706565072574 -22.744227060033097 3.5222121122665975 -20.75634765625 1.069091796875 C-14.826725276415772 -4.956233306893327 -6.740258412679339 -4.186781676135286 0 0 Z " fill="#9B7A78" transform="translate(72.2890625,11.421875)"/>
<path d="M0 0 C13.530000000000001 0 27.060000000000002 0 41 0 C41 23.76 41 47.52 41 72 C24.076712328767115 72 24.076712328767115 72 18.546875 66.57421875 C12.742777246855866 60.119661765900055 12.567845817968305 53.92121983664853 12.73046875 45.58984375 C12.954913138835565 42.600504716088686 13.179542629172147 40.797124282631366 14.5 38.1875 C16.807789870863203 33.283446524415695 17.080214583046143 28.155203047654545 15.30859375 22.98046875 C13.037069794955002 18.61800224219392 9.742747932713257 16.055304434867963 6 13 C2.076852299740125 8.562857012807676 1.0180683877276522 6.108410326365902 0 0 Z " fill="#512637" transform="translate(87,0)"/>
<path d="M0 0 C7.590000000000001 0 15.180000000000001 0 23 0 C23.532961727070763 3.998718494632622 24.051710050232536 7.998440306188511 24.5625 12 C24.71396484375 13.1253515625 24.8654296875 14.250703125000001 25.021484375 15.41015625 C25.79055500523409 21.526950564885077 26.25777544857393 26.939809202325613 25 33 C24.484375 33.66 23.96875 34.32 23.4375 35 C21.21087305289778 38.097915752490046 21.622525648932463 41.348320227603715 22 45 C22.77087998522165 48.02010389610499 23.83999374909872 50.897641436035926 24.9375 53.8125 C28.172785196118568 62.96756892648749 30.825923211229593 71.6264881324875 27 81 C25.562499999999993 83.43750000000001 25.562499999999993 83.43750000000001 24 85 C23.01 85 22.02 85 21 85 C19.333333333333332 83.33333333333333 17.666666666666668 81.66666666666667 16 80 C10.152936105491914 77.46850892893606 10.152936105491914 77.46850892893606 0 76 C0 50.92 0 25.839999999999996 0 0 Z " fill="#4B2340" transform="translate(0,0)"/>
<path d="M0 0 C5.507052113262532 5.0138832672987235 8.173890826094365 11.518539909969107 9.875 18.6875 C10.135150209215837 25.581480544219815 8.691836962332374 31.543101285056537 6.71875 38.09375 C5.8351919190251635 41.66639789263738 5.456483007472471 45.34813594022023 5 49 C-14.799999999999997 49 -34.6 49 -55 49 C-55 40.09 -55 31.180000000000007 -55 22 C-48.90677068878836 22 -47.28127915485891 22.57861210363032 -42.25 25.5 C-38.3568670744221 28.04418472249877 -38.3568670744221 28.04418472249877 -34 29 C-32.68 25.700000000000003 -31.36 22.400000000000006 -30 19 C-28.9494140625 19.0348046875 -27.898828125 19.069609375 -26.81640625 19.10546875 C-14.47272213571297 19.563073530892353 -14.47272213571297 19.563073530892353 -3.34375 14.8125 C-1.3589078780854535 12.13527109137108 -1.2341349300595823 9.588279072001356 -0.8125 6.3125 C-0.6539453124999994 5.133007812499997 -0.49539062499999886 3.9535156249999943 -0.33203125 2.73828125 C-0.22246093750000284 1.8346484374999932 -0.11289062499999858 0.9310156250000006 0 0 Z " fill="#7A4C77" transform="translate(55,79)"/>
<path d="M0 0 C2.3481626097418484 1.7591046354767101 4.533000492543621 3.612575466675004 6.7109375 5.578125 C7.43796875000001 6.2239453125 8.164999999999992 6.869765624999999 8.9140625 7.53515625 C13.485245848295676 11.82698950478872 16.241945858166815 15.817144502389226 18.7109375 21.578125 C16.181161390354447 24.64689120860784 13.661723281974915 25.41267457584886 9.8984375 26.515625 C5.154819909159372 28.001231960130255 1.6834170777835453 29.651034784791072 -2.2890625 32.578125 C-2.9490624999999966 32.578125 -3.609062499999993 32.578125 -4.2890625 32.578125 C-4.619062499999998 33.568125 -4.949062499999997 34.558125 -5.2890625 35.578125 C-5.949062499999997 35.578125 -6.609062499999993 35.578125 -7.2890625 35.578125 C-7.536562500000002 36.135 -7.7840625000000045 36.691875 -8.0390625 37.265625 C-10.12217844088623 41.11938949063953 -11.92463806333518 43.9435089829466 -15.9765625 45.828125 C-26.595570547585737 48.23242870888733 -26.595570547585737 48.23242870888733 -31.0390625 46.515625 C-36.08247901671512 42.172682999495315 -39.09077504591263 38.55510507510812 -40.171875 31.9140625 C-40.641316619964826 22.5565262087011 -34.26776674337896 16.52130708318399 -28.39453125 10.0078125 C-27.88349853515625 9.44924560546875 -27.3724658203125 8.8906787109375 -26.845947265625 8.315185546875 C-24.738374325786054 5.963706565072574 -22.744227060033097 3.5222121122665975 -20.75634765625 1.069091796875 C-14.826725276415772 -4.956233306893327 -6.740258412679339 -4.186781676135286 0 0 Z " fill="#CA8096" transform="translate(72.2890625,11.421875)"/>
<path d="M0 0 C0 12.540000000000006 0 25.08 0 38 C-21.450000000000003 38 -42.900000000000006 38 -65 38 C-63.637524309637314 27.100194477098498 -59.177591979170856 18.47043879250198 -51 11 C-47.875 8.75 -47.875 8.75 -44 8 C-38.60929177294943 9.103279663049207 -33.453016909677416 10.891461060664867 -28.44140625 13.15625 C-26.201533972578687 14.118968067245206 -24.43330604551386 14.81460525367514 -22 15 C-18.76348490163589 13.59123545437059 -16.488103172340942 11.46779212603613 -14 9 C-13.368359374999997 8.373515624999996 -12.736718749999994 7.747031250000006 -12.0859375 7.1015625 C-10.918805191137949 5.924497150211451 -9.768129609653641 4.730702783218959 -8.640625 3.515625 C-5.847722285647109 0.9355148734073282 -3.8117743849522867 0 0 0 Z " fill="#B8A0E0" transform="translate(128,90)"/>
<path d="M0 0 C0 5.939999999999998 0 11.879999999999995 0 18 C-3.960000000000008 19.980000000000004 -3.960000000000008 19.980000000000004 -8 22 C-10.581633070948413 24.17690063981874 -10.581633070948413 24.17690063981874 -12.6875 26.5625 C-15.562636667912997 29.679421469967835 -18.122769691650802 32.192661147604156 -22 34 C-24 33.77734375 -24 33.77734375 -26 32.9375 C-26.770859375 32.6448828125 -27.54171875 32.352265625 -28.3359375 32.05078125 C-29.21507812499999 31.7040234375 -30.09421875000001 31.357265624999997 -31 31 C-39.29737336797862 27.405550757089543 -39.29737336797862 27.405550757089543 -47.9375 27.8125 C-57.18215371538619 34.41582408241871 -62.91310929238949 44.93947924966429 -65 56 C-65.99000000000001 56 -66.97999999999999 56 -68 56 C-68.65720454605045 47.949244310882094 -66.22928845736345 40.64327471096041 -64 33 C-63.34 33 -62.68000000000001 33 -62 33 C-61.738320312499994 32.311640624999995 -61.476640625 31.623281250000005 -61.20703125 30.9140625 C-59.851204724496654 27.640772571114894 -58.31816186966577 24.52062267540849 -56.6875 21.375 C-56.113867187500006 20.248359375000007 -55.540234375 19.12171875 -54.94921875 17.9609375 C-52.805563367011686 14.704643351091903 -51.57537649587604 13.492681865697193 -48 12 C-45.299935202521226 11.600615415372928 -42.71188909325791 11.318271557151377 -40 11.125 C-30.74634345837383 10.244316800360437 -21.696552301302347 8.265769835043443 -14.375 2.1875 C-10.093198041115429 -1.2813015869444655 -5.249930245571065 -0.3240697682451241 0 0 Z " fill="#B57B8E" transform="translate(128,72)"/>
<path d="M0 0 C13.530000000000001 0 27.060000000000002 0 41 0 C41 13.530000000000001 41 27.060000000000002 41 41 C36 40 36 40 33 38 C33 37.34 33 36.68 33 36 C32.00999999999999 35.67 31.019999999999996 35.34 30 35 C30 34.34 30 33.68 30 33 C29.340000000000003 33 28.680000000000007 33 28 33 C26.84375 31.49609374999999 26.84375 31.49609374999999 25.5 29.4375 C21.832071886382437 24.34914874434427 17.17269456282341 21.41752250888007 12 18 C5.070961472322722 12.994859371547648 1.4097274370033688 8.458364622020175 0 0 Z " fill="#381440" transform="translate(87,0)"/>
<path d="M0 0 C7.590000000000001 0 15.180000000000001 0 23 0 C23.532961727070763 3.998718494632622 24.051710050232536 7.998440306188511 24.5625 12 C24.71396484375 13.1253515625 24.8654296875 14.250703125000001 25.021484375 15.41015625 C26.89644842791411 30.322661042944787 26.89644842791411 30.322661042944787 22.875 36 C19.186881103057303 38.56564792830796 17.47538156298161 38.13985567384317 13 38 C8.71 38.99 4.42 39.98 0 41 C0 27.47 0 13.939999999999998 0 0 Z " fill="#44405C" transform="translate(0,0)"/>
<path d="M0 0 C9.900000000000006 0 19.799999999999997 0 30 0 C31.319999999999993 2.97 32.64 5.94 34 9 C36.76690256851144 12.532216044908218 39.54989617502832 15.56012580741405 42.75 18.6875 C46.17263932114176 22.205212635617926 47.28934813724797 24.912022384155183 47.3125 29.8125 C47.23491425074859 34.573443704063706 46.1897163523882 37.80304365792261 44 42 C40.18063471880069 40.44396229284472 37.73955561926445 38.043950688071604 35 35 C35 34.34 35 33.68 35 33 C34.34 33 33.68000000000001 33 33 33 C32.54625 31.88625 32.0925 30.7725 31.625 29.625 C27.493588772267742 21.37682793896007 19.4518283536961 13.783872944960176 11 10 C5.6052802202601555 8.580336900068463 2.12196358257453 9.222992226453734 -3 11 C-2.009999999999998 7.369999999999999 -1.0200000000000031 3.7399999999999993 0 0 Z " fill="#8F4F6F" transform="translate(57,0)"/>
<path d="M0 0 C11.219999999999999 0 22.439999999999998 0 34 0 C32.71822635078139 8.972415544530271 28.789685223733557 13.450559719176105 23.0625 20 C22.03215961436794 21.187159488350904 21.002207897551536 22.37465642188463 19.97265625 23.5625 C19.221092529296875 24.41690673828125 19.221092529296875 24.41690673828125 18.454345703125 25.28857421875 C17.491657089368587 26.421434246017494 16.564255955508486 27.58533261980949 15.676513671875 28.77783203125 C12.5629927115045 32.91586436425847 12.5629927115045 32.91586436425847 9.54296875 33.3671875 C8.377011718750001 33.123554687500004 8.377011718750001 33.123554687500004 7.1875 32.875 C6.3973046875 32.728046875 5.607109375 32.58109375 4.79296875 32.4296875 C4.201289062499999 32.287890625 3.609609374999998 32.14609375 3 32 C2.277484843306567 28.62448177971796 1.7774462707087153 25.31202463794607 1.46484375 21.875 C1.3778320312500014 20.92109375 1.2908203124999993 19.9671875 1.201171875 18.984375 C1.1141601562500014 17.99953125 1.0271484374999993 17.0146875 0.9375 16 C0.8466210937499987 15.01515625 0.755742187500001 14.0303125 0.662109375 13.015625 C0.26859626781322987 8.636682153109643 0 4.406598947902038 0 0 Z " fill="#6C5A9B" transform="translate(23,0)"/>
<path d="M0 0 C0 0.6599999999999966 0 1.3200000000000003 0 2 C0.9899999999999949 2.3299999999999983 1.980000000000004 2.6599999999999966 3 3 C3 3.989999999999995 3 4.980000000000004 3 6 C3.6599999999999966 6.329999999999998 4.319999999999993 6.659999999999997 5 7 C5.6328125 8.71484375 5.6328125 8.71484375 6.125 10.9375 C6.376367187499994 12.002910156249996 6.376367187499994 12.002910156249996 6.6328125 13.08984375 C7.779751849262368 22.17994816702614 6.834754235971346 27.771791092381676 2 35.625 C1.5230468750000057 36.4383984375 1.0460937499999972 37.251796875 0.5546875 38.08984375 C-0.611406969648101 40.072204348401755 -1.795811962426697 42.04063233673578 -3 44 C-4.43138441159951 41.23795689563684 -5.297191118390323 38.9442023498071 -5.8125 35.875 C-6.973082301608201 30.402408070109033 -9.29971856769528 25.86761258191771 -12 21 C-12.55171875 20.0035546875 -13.103437499999998 19.007109375 -13.671875 17.98046875 C-16.73554755812537 12.591929626748524 -19.901734076208392 7.515532784088165 -23.8359375 2.71875 C-25.117519483608746 0.8264812993696395 -25.579055245183916 -0.7680138581844957 -26 -3 C-15.931785449504403 -4.990728054792157 -8.721312104560106 -5.814208069706737 0 0 Z " fill="#8B7089" transform="translate(69,61)"/>
<path d="M0 0 C1.7690042210600438 0.5888569759237043 3.539582637299546 1.1730316323597236 5.3125 1.75 C6.529375000000002 2.1624999999999943 7.746250000000003 2.575000000000003 9 3 C7.719375152513436 4.7074997966487615 6.382324432016276 6.373735962333782 5 8 C4.340000000000003 8 3.680000000000007 8 3 8 C3 8.659999999999997 3 9.319999999999993 3 10 C1.35546875 11.62109375 1.35546875 11.62109375 -0.8125 13.4375 C-2.2134332110846913 14.618979192590544 -3.609507701674403 15.806250397804604 -5 17 C-5.540117187500002 17.444726562499994 -6.080234375000003 17.889453125000003 -6.63671875 18.34765625 C-8.5579342893718 20.47437272820474 -8.5579342893718 20.47437272820474 -10 26 C-17.92 26 -25.840000000000003 26 -34 26 C-32.637524309637314 15.100194477098498 -28.177591979170856 6.47043879250198 -20 -1 C-13.167702937580486 -5.9192538849420515 -7.206619752430555 -2.6537011362740657 0 0 Z " fill="#E4A3C4" transform="translate(97,102)"/>
<path d="M0 0 C14.58590308370044 1.325991189427313 14.58590308370044 1.325991189427313 21 7 C21 7.659999999999997 21 8.319999999999993 21 9 C21.66 9 22.32 9 23 9 C25.379412554737122 18.59630848522079 25.01720752377538 24.958576058349223 21 34 C19.986796875 33.43410156249999 18.97359375 32.86820312500001 17.9296875 32.28515625 C16.578376583276647 31.54381206651982 15.226799892358622 30.802952188230137 13.875 30.0625 C13.20984375 29.68931640625 12.5446875 29.3161328125 11.859375 28.931640625 C11.201953125 28.573925781249997 10.54453125 28.216210937499994 9.8671875 27.84765625 C9.2701904296875 27.517736816406256 8.673193359375 27.187817382812497 8.05810546875 26.847900390625 C5.4285780086174 25.674814776448343 5.4285780086174 25.674814776448343 0 25 C0 16.75 0 8.5 0 0 Z " fill="#763D53" transform="translate(0,76)"/>
<path d="M0 0 C5.925722300038261 0 7.6703106074878855 0.46648205493187334 12.625 3.1875 C14.2840234375 4.075019531250007 14.2840234375 4.075019531250007 15.9765625 4.98046875 C20.48042822134839 7.988864845525995 23.093639774231548 11.268970597363577 24.6875 16.4375 C24.9182421875 17.158085937500005 25.148984375 17.878671874999995 25.38671875 18.62109375 C26.096754898646378 21.375310403029587 26.532405213996597 24.194431283979583 27 27 C18.09 27 9.18 27 0 27 C0 18.090000000000003 0 9.180000000000007 0 0 Z " fill="#8B6D7D" transform="translate(0,101)"/>
</svg>
