<?xml version="1.0" encoding="UTF-8"?>
<!-- Generator: visioncortex VTracer 0.6.0 -->
<svg version="1.1" xmlns="http://www.w3.org/2000/svg" width="128" height="128">
<path d="M0 0 C42.24 0 84.48 0 128 0 C128 42.24 128 84.48 128 128 C85.75999999999999 128 43.519999999999996 128 0 128 C0 85.75999999999999 0 43.519999999999996 0 0 Z " fill="#3C7E6B" transform="translate(0,0)"/>
<path d="M0 0 C3.346250240896026 2.526760385982712 4.679778472943795 4.039335418831392 6 8 C6.659999999999997 8 7.319999999999993 8 8 8 C9.456599768524697 9.613829478772779 10.840489513737651 11.29363215509624 12.1875 13 C15.49929977662461 17.13974972078077 18.855318093791396 21.198798647531973 22.38671875 25.15234375 C23.464593726955044 26.386810733292336 24.509444397093915 27.65088397263669 25.51953125 28.94140625 C29.480041145910846 33.94690556435697 33.06888673710584 36.535466674990346 39.64453125 37.3125 C44.18192541365987 37.51112737788935 47.77321548226044 37.51676534979552 51.6875 35.0625 C55 33 55 33 63 32 C63 53.45 63 74.9 63 97 C33.629999999999995 97 4.259999999999991 97 -26 97 C-27.980000000000004 90.565 -27.980000000000004 90.565 -30 84 C-30.61875 82.39125 -31.237499999999997 80.7825 -31.875 79.125 C-33.37532262253995 74.78449444495128 -32.70014181486178 72.20561396307914 -31 68 C-30.340000000000003 68 -29.68 68 -29 68 C-29 67.34 -29 66.68 -29 66 C-22.772549620769553 63.11122073663074 -16.57200418943612 60.371956021278635 -10.09375 58.08984375 C-7.5473450759350555 56.76438297795873 -6.447167391191513 55.4643457492175 -5 53 C-4.873503275769437 46.42217034001088 -7.782468051293463 42.66687647408274 -12 38 C-14.575813886899546 35.38800647303094 -17.186377827832736 32.811308451807825 -19.860595703125 30.300048828125 C-22.867761356195075 27.41476287441344 -24.900705139625387 25.05578352212747 -26 21 C-25.535016155234494 13.715253098673735 -22.022775452764023 8.136929440326838 -17 3 C-11.623160533685933 -0.16284674489062567 -6.129840550905747 -1.130545888407319 0 0 Z " fill="#8EB899" transform="translate(65,31)"/>
<path d="M0 0 C33.33 0 66.66 0 101 0 C101 20.790000000000003 101 41.580000000000005 101 63 C97.7 63.99 94.4 64.98 91 66 C90.01 66.556875 89.02 67.11375 88 67.6875 C83.03335316097417 69.8604079920738 78.07797224342507 69.84251065057255 72.859375 68.4140625 C66.79360621778201 65.81103573912692 63.06353819155959 61.031773370411486 59 56 C58.220117187499994 55.04609375 57.440234375 54.0921875 56.63671875 53.109375 C55.109306721907416 51.23948269719599 53.58905881603198 49.363701006313235 52.078125 47.48046875 C50.04903382982762 44.9722599268668 50.04903382982762 44.9722599268668 47.734375 42.80078125 C46 41 46 41 46 39 C45.34 39 44.68000000000001 39 44 39 C42.64721884984152 37.013102685704744 41.31431694612613 35.01254782375562 40 33 C35.73770478119757 30.868852390598786 30.16496197656152 31.322528905293673 25.703125 32.71875 C19.698372223359797 35.51795806129092 16.614236608443818 39.134978539227454 14.25 45.3125 C13.837499999999999 46.529375 13.424999999999997 47.74625 13 49 C12.340000000000003 49 11.68 49 11 49 C10.12720440822595 46.38161322467786 9.840484821397439 44.66108574960596 9.7109375 41.96484375 C9.070552756019218 31.908881103603505 7.591209884005799 23.33663757327764 3.47607421875 14.089599609375 C3.021921386718752 13.062982177734376 3.021921386718752 13.062982177734376 2.55859375 12.015625 C2.145650634765623 11.1382568359375 2.145650634765623 11.1382568359375 1.724365234375 10.2431640625 C0.6603730540462145 6.948266808418143 0.42946168943058183 3.4356935154446466 0 0 Z " fill="#59A1A5" transform="translate(27,0)"/>
<path d="M0 0 C3.346250240896026 2.526760385982712 4.679778472943795 4.039335418831392 6 8 C6.659999999999997 8 7.319999999999993 8 8 8 C9.456599768524697 9.613829478772779 10.840489513737651 11.29363215509624 12.1875 13 C15.568702341551358 17.238793242397193 19.027170673149428 21.344501291033637 22.6875 25.34375 C24 27 24 27 25 30 C22.6875 33.1875 22.6875 33.1875 20 36 C19.340000000000003 36 18.680000000000007 36 18 36 C18 37.31999999999999 18 38.64 18 40 C18.783749999999998 40.763125 19.567499999999995 41.526250000000005 20.375 42.3125 C24.08975438793513 46.11570092098121 25.003913961101475 49.346334373200506 24.99609375 54.6484375 C24.551314452920508 61.5567116886815 23.556342747105788 67.15150379608212 18.8125 72.4375 C18.21437499999999 72.953125 17.616250000000008 73.46875 17 74 C16.440546874999995 73.7834375 15.881093749999991 73.566875 15.3046875 73.34375 C3.7016010843033342 69.31438237011177 -8.420273666267803 70.12947249092582 -20 74 C-23.504484694160013 75.7673046022125 -25.525630399017885 77.1799411536277 -27.3125 80.6875 C-27.869374999999998 81.780625 -28.426249999999996 82.87375 -29 84 C-32.060914922498455 80.93908507750155 -32.54771796307346 77.23102550673217 -33 73 C-32.125 69.9375 -32.125 69.9375 -31 68 C-30.340000000000003 68 -29.68 68 -29 68 C-29 67.34 -29 66.68 -29 66 C-22.772549620769553 63.11122073663074 -16.57200418943612 60.371956021278635 -10.09375 58.08984375 C-7.5473450759350555 56.76438297795873 -6.447167391191513 55.4643457492175 -5 53 C-4.873503275769437 46.42217034001088 -7.782468051293463 42.66687647408274 -12 38 C-14.575813886899546 35.38800647303094 -17.186377827832736 32.811308451807825 -19.860595703125 30.300048828125 C-22.867761356195075 27.41476287441344 -24.900705139625387 25.05578352212747 -26 21 C-25.535016155234494 13.715253098673735 -22.022775452764023 8.136929440326838 -17 3 C-11.623160533685933 -0.16284674489062567 -6.129840550905747 -1.130545888407319 0 0 Z " fill="#8DC1B1" transform="translate(65,31)"/>
<path d="M0 0 C4.1493965162798006 4.525929775470345 7.720247562191574 8.70786945261274 7.58984375 15.09765625 C6.366778495196435 18.929927381717846 4.963479794024892 19.7598337066583 1.65234375 22.03515625 C-1.1854170072691161 23.439093643603712 -4.091862984512723 24.621818962708176 -7.03515625 25.78515625 C-7.806660156249997 26.100976562499994 -8.5781640625 26.416796875000003 -9.373046875 26.7421875 C-15.05583739177488 29.03515625 -15.05583739177488 29.03515625 -17.34765625 29.03515625 C-17.34765625 29.695156249999997 -17.34765625 30.355156249999993 -17.34765625 31.03515625 C-18.337656249999995 31.530156250000005 -18.337656249999995 31.530156250000005 -19.34765625 32.03515625 C-21.17774274465586 37.67571269246588 -19.38503154763582 41.862131928552486 -17.41015625 47.16015625 C-16.83311935750121 48.74412891721397 -16.261302590966537 50.3300152863515 -15.6953125 51.91796875 C-15.437580566406247 52.61293457031249 -15.1798486328125 53.30790039062501 -14.914306640625 54.02392578125 C-14.34765625 56.03515625 -14.34765625 56.03515625 -14.34765625 60.03515625 C-27.21765625 60.03515625 -40.08765625 60.03515625 -53.34765625 60.03515625 C-53.34765625 54.75515625 -53.34765625 49.47515625 -53.34765625 44.03515625 C-49.84765624999999 41.09765625 -49.84765624999999 41.09765625 -47.6328125 40.13671875 C-39.58598138644202 36.25773349525923 -33.922942933176 25.832324016500863 -30.34765625 18.03515625 C-29.354664495886944 14.649957088250943 -28.586590583679207 11.3168368961895 -27.953125 7.84765625 C-27.035474404714012 3.5850212267360604 -26.062323751961042 1.616862356247367 -22.66015625 -1.15234375 C-15.578689182077923 -5.027108749429061 -6.413755599656525 -5.3679185800785945 0 0 Z " fill="#62856C" transform="translate(53.34765625,67.96484375)"/>
<path d="M0 0 C1.2581249999999997 0.30937500000000284 2.5162499999999994 0.6187500000000057 3.8125 0.9375 C10.390726156860687 2.398176989161186 17.013157169983714 3.0995614276672114 23.75 2.875 C27.85562244393364 3.0329085555359114 30.426713695412303 3.97738511061074 34 6 C38.33219201969692 11.244232444896255 39.322639756652904 15.713290830937908 38.75 22.375 C38.01737145136909 29.265417868769276 36.42422172238685 34.32394679104583 31 39 C30.440546874999995 38.78343749999999 29.88109374999999 38.56687500000001 29.3046875 38.34375 C17.701601084303334 34.31438237011176 5.5797263337321965 35.12947249092582 -6 39 C-9.504484694160013 40.767304602212505 -11.525630399017885 42.17994115362771 -13.3125 45.6875 C-13.869374999999998 46.780625 -14.426249999999996 47.87375 -15 49 C-18.060914922498448 45.939085077501545 -18.54771796307346 42.23102550673218 -19 38 C-18.125 34.9375 -18.125 34.9375 -17 33 C-16.340000000000003 33 -15.68 33 -15 33 C-15 32.34 -15 31.680000000000007 -15 31 C-8.772549620769553 28.11122073663074 -2.5720041894361145 25.371956021278635 3.90625 23.08984375 C6.452654924064937 21.764382977958732 7.552832608808487 20.464345749217486 9 18 C9.126853677163453 11.40360878750053 5.963612206637826 7.8362377057119375 2 3 C1.3400000000000034 2.010000000000005 0.6799999999999997 1.019999999999996 0 0 Z " fill="#7BBD90" transform="translate(51,66)"/>
<path d="M0 0 C4.308048247891051 2.81341926392885 7.43362660950946 4.33204220316982 12.4375 6 C12.4375 10.950000000000003 12.4375 15.899999999999999 12.4375 21 C11.096874999999997 21.4125 9.756249999999994 21.825000000000003 8.375 22.25 C5.269756847780911 23.270502444391255 2.5833714816872373 24.395572241498172 -0.1875 26.125 C-4.348396166944838 28.43660898163602 -7.7296799292651315 29.593978401928283 -12.5 28.59375 C-21.599515241072424 25.607971561523115 -27.960767795438215 18.80581864528147 -34.4609375 12.07421875 C-36.387567618864566 9.958295784469605 -36.387567618864566 9.958295784469605 -38.5625 9 C-38.5625 8.34 -38.5625 7.68 -38.5625 7 C-39.552499999999995 6.670000000000002 -40.542500000000004 6.34 -41.5625 6 C-41.4375 3.6875 -41.4375 3.6875 -40.5625 1 C-36.212918328235716 -1.6347163902983084 -32.03292890943395 -2.7056727017103874 -27.0625 -3.625 C-25.159843749999993 -3.984648437499999 -25.159843749999993 -3.984648437499999 -23.21875 -4.3515625 C-21.40890625 -4.6725390625 -21.40890625 -4.6725390625 -19.5625 -5 C-18.562187499999993 -5.234609375000002 -17.561875 -5.46921875 -16.53125 -5.7109375 C-10.055665576419699 -6.341454930717029 -5.263747640542078 -3.4458227634836227 0 0 Z " fill="#337678" transform="translate(115.5625,22)"/>
<path d="M0 0 C19.47 0 38.94 0 59 0 C59 9.24 59 18.48 59 28 C52.25894757685262 26.87649126280877 52.25894757685262 26.87649126280877 49.30859375 24.96875 C48.673730468749994 24.5704296875 48.0388671875 24.172109375 47.384765625 23.76171875 C46.74216796875001 23.3453515625 46.09957031249999 22.928984375 45.4375 22.5 C36.60982583379433 16.814379350579397 31.292298588558836 16.831220882069818 21 19 C18.140049506423708 19.721395963168412 15.304507689816958 20.492051305980883 12.47265625 21.31640625 C9.996540545534813 22.000956405262887 7.524039395285143 22.525895999096708 5 23 C-0.10749717960574401 14.858159477528842 -1.6196542955570123 9.717925773342108 0 0 Z " fill="#378CA7" transform="translate(69,0)"/>
<path d="M0 0 C1 1 1 1 1.1328125 4.09765625 C1.1302343750000006 5.406054687500003 1.1276562500000011 6.714453125000006 1.125 8.0625 C1.128867187499992 9.998027343749996 1.128867187499992 9.998027343749996 1.1328125 11.97265625 C1.000088172902096 15.99732628641 0.4994702524287504 20.004237980570068 0 24 C-14.189999999999998 24 -28.380000000000003 24 -43 24 C-46.733695652173914 10.309782608695656 -46.733695652173914 10.309782608695656 -43.625 4.375 C-32.86600115609518 -5.359332287342454 -12.709815431299432 -5.344214331679282 0 0 Z " fill="#A2E7C9" transform="translate(82,104)"/>
<path d="M0 0 C8.91 0 17.82 0 27 0 C29.437499999998963 7.874999999996636 29.437499999998963 7.874999999996636 30.200927734375 10.35107421875 C31.392831943431254 14.255947325450487 31.392831943431254 14.255947325450487 33 18 C33.60464160305956 24.046416030595655 32.18415136347761 28.000991033448116 29 33 C26.611493375412444 35.82278055633075 25.519438709803957 36.82685376339868 22 38 C20.554320141286844 38.09182769955872 19.10484172052162 38.1306659839027 17.65625 38.1328125 C16.8222265625 38.1341015625 15.988203125 38.135390625 15.12890625 38.13671875 C14.2613671875 38.1328515625 13.393828125 38.128984375 12.5 38.125 C11.19869140625 38.13080078125 11.19869140625 38.13080078125 9.87109375 38.13671875 C9.0370703125 38.1354296875 8.203046875 38.134140625 7.34375 38.1328125 C6.58255859375 38.1316845703125 5.8213671875 38.130556640625 5.037109375 38.12939453125 C3.000000000000003 38 3.000000000000003 38 0 37 C0 24.79 0 12.579999999999998 0 0 Z " fill="#0D6555" transform="translate(0,0)"/>
<path d="M0 0 C0 0.6600000000000001 0 1.3200000000000003 0 2 C0.5530078124999989 2.220429687500001 1.1060156249999977 2.4408593749999987 1.67578125 2.66796875 C4.747954010550089 4.428659357306856 6.767657860631346 6.732033418479887 9.1875 9.3125 C14.912855910234725 15.234285880918875 20.658757610187067 19.842225031066974 29 21 C34.74526885575068 20.042455190708225 38.91534879937464 18.12849966255279 43.82421875 15.0234375 C46 14 46 14 51 14 C51 20.6 51 27.200000000000003 51 34 C49.473749999999995 34.433125 47.94749999999999 34.86625 46.375 35.3125 C43.280013879660544 36.222790035393956 40.82720485497535 37.09719726907636 38 38.6875 C33.03335316097417 40.8604079920738 28.07797224342505 40.84251065057255 22.859375 39.4140625 C16.793606217782028 36.811035739126936 13.063538191559573 32.03177337041148 9 27 C8.220117187499994 26.046093749999997 7.440234375000003 25.0921875 6.63671875 24.109375 C5.109306721907416 22.23948269719599 3.5890588160319794 20.363701006313235 2.078125 18.48046875 C0.04903382982762139 15.97225992686679 0.04903382982762139 15.97225992686679 -2.265625 13.80078125 C-4 12 -4 12 -4 10 C-4.659999999999997 10 -5.319999999999993 10 -6 10 C-8.1875 7.1875 -8.1875 7.1875 -10 4 C-9 1 -9 1 -7.25 -0.25 C-4.472751016528278 -1.1757496611572407 -2.784283345524713 -0.7734120404235334 0 0 Z " fill="#709A8E" transform="translate(77,29)"/>
<path d="M0 0 C3.730692829171161 0.7461385658342294 6.574046068717774 1.531734029450476 10 3 C10 3.6599999999999966 10 4.32 10 5 C10.53625 5.226875 11.0725 5.453749999999999 11.625 5.6875 C14.824601614191065 7.45570089205296 17.290372230931972 9.536702028119976 20 12 C20 12.659999999999997 20 13.319999999999993 20 14 C20.804375 14.247500000000002 21.60875 14.495000000000005 22.4375 14.75 C24.999999999999996 16 24.999999999999996 16 25.6875 17.734375 C26.916892964292412 26.647473991119995 23.457405314363037 33.981280666179 18.3515625 41.02734375 C7.763236168947062 54.412254610350985 7.763236168947062 54.412254610350985 0 57 C0 38.19 0 19.379999999999995 0 0 Z " fill="#2D6355" transform="translate(0,55)"/>
<path d="M0 0 C4.149396516279808 4.525929775470345 7.720247562191574 8.70786945261274 7.58984375 15.09765625 C6.366778495196435 18.929927381717846 4.963479794024892 19.759833706658284 1.65234375 22.03515625 C-1.1854170072691232 23.439093643603712 -4.0918629845127015 24.62181896270816 -7.03515625 25.78515625 C-7.806660156250004 26.100976562499994 -8.5781640625 26.416796875000003 -9.373046875 26.7421875 C-15.055837391774894 29.03515625 -15.055837391774894 29.03515625 -17.34765625 29.03515625 C-17.34765625 29.695156249999997 -17.34765625 30.355156249999993 -17.34765625 31.03515625 C-18.99765625 31.695156249999997 -20.647656249999997 32.35515624999999 -22.34765625 33.03515625 C-23.506935999471295 31.50357517106403 -24.649531720590694 29.959358324324967 -25.78515625 28.41015625 C-26.4232421875 27.551640625000005 -27.061328125 26.693124999999995 -27.71875 25.80859375 C-30.114216866001968 21.729981100452278 -30.600384118318885 18.624309085989154 -29.859375 13.96484375 C-29.5873828125 12.956796874999995 -29.315390625 11.948750000000004 -29.03515625 10.91015625 C-28.7708984375 9.896953124999996 -28.506640625 8.883749999999992 -28.234375 7.83984375 C-26.452234694007178 2.202941812983056 -24.657728092690906 -0.059332741735161676 -19.34765625 -2.96484375 C-12.694488431166384 -4.756081239685976 -5.433034577938727 -4.547115462068518 0 0 Z " fill="#578759" transform="translate(53.34765625,67.96484375)"/>
<path d="M0 0 C0 13.200000000000003 0 26.400000000000006 0 40 C-7.260000000000005 40 -14.519999999999996 40 -22 40 C-27.727544910179645 22.817365269461078 -27.727544910179645 22.817365269461078 -24 14 C-18.20426971998583 5.140192863718994 -10.6216741211867 0 0 0 Z " fill="#D4D9B3" transform="translate(128,88)"/>
<path d="M0 0 C-0.680624999999992 0.5362499999999955 -1.3612499999999983 1.0725000000000051 -2.0625 1.625 C-3.0318749999999994 2.4087499999999977 -4.001249999999999 3.1924999999999955 -5 4 C-5.589101562500005 4.458906249999998 -6.178203124999996 4.917812499999997 -6.78515625 5.390625 C-11.86093837650202 9.48573584516086 -14.239412278025384 13.011976806528267 -15.875 19.4375 C-16.549425652899288 25.939981294934583 -14.40111603607339 32.723000158391216 -13 39 C-20.92 39 -28.840000000000003 39 -37 39 C-36.96700240582054 34.93529635334727 -36.899816854831755 30.87609209024714 -36.8125 26.8125 C-36.803798828125 25.086767578125006 -36.803798828125 25.086767578125006 -36.794921875 23.326171875 C-36.57306705812134 14.821737227984713 -36.57306705812134 14.821737227984713 -33.8125 10.86328125 C-30.979215340737994 8.986230163238929 -28.357814007301272 7.596588883547284 -25.1875 6.375 C-24.139492187499997 5.965078125000005 -23.091484374999993 5.555156249999996 -22.01171875 5.1328125 C-21.0178515625 4.758984374999997 -20.023984374999998 4.385156249999994 -19 4 C-18.2020703125 3.6880468749999977 -17.404140624999997 3.3760937499999955 -16.58203125 3.0546875 C-10.712683235600053 0.7862340460292785 -6.313269957451027 -0.12140903764328925 0 0 Z " fill="#A9C3A5" transform="translate(119,89)"/>
<path d="M0 0 C8.25 0 16.5 0 25 0 C25 9.24 25 18.48 25 28 C18.253704535249213 26.875617422541534 18.253704535249213 26.875617422541534 15.23828125 24.96875 C14.594394531250003 24.5704296875 13.950507812500007 24.172109375 13.287109375 23.76171875 C12.635488281250005 23.3453515625 11.983867187499996 22.928984375 11.3125 22.5 C6.37132033967211 19.325011934353633 6.37132033967211 19.325011934353633 1 17 C-0.27730340279484267 11.092471762073826 0 6.396456240175481 0 0 Z " fill="#47A4AE" transform="translate(103,0)"/>
</svg>
