<?xml version="1.0" encoding="UTF-8"?>
<!-- Generator: visioncortex VTracer 0.6.0 -->
<svg version="1.1" xmlns="http://www.w3.org/2000/svg" width="128" height="128">
<path d="M0 0 C42.24 0 84.48 0 128 0 C128 42.24 128 84.48 128 128 C85.75999999999999 128 43.519999999999996 128 0 128 C0 85.75999999999999 0 43.519999999999996 0 0 Z " fill="#BADDD6" transform="translate(0,0)"/>
<path d="M0 0 C8.03757773138264 6.717778432305032 11.33859433365393 13.987770790337223 12.50390625 24.30078125 C13.372023078209978 38.8417381225172 10.458428926101803 49.44861084169523 3.6435546875 62.12451171875 C2.4684844975366786 64.3684225313749 1.3757384032145836 66.6399509658549 0.29296875 68.9296875 C-6.456375274980829 82.93327697317255 -6.456375274980829 82.93327697317255 -13.375 85.703125 C-14.074960937500009 85.9003515625 -14.77492187499999 86.097578125 -15.49609375 86.30078125 C-16.671718749999997 86.65140625 -17.847343749999993 87.00203125 -19.05859375 87.36328125 C-25.10253686533639 87.2533913751757 -28.694419746083184 85.04352199210645 -33.00390625 80.875 C-39.49609375 73.84349284874608 -39.49609375 73.84349284874608 -39.49609375 71.30078125 C-40.33140625 70.92953125 -40.33140625 70.92953125 -41.18359375 70.55078125 C-43.49609374999999 69.30078125 -43.49609374999999 69.30078125 -45.87109375 67.30078125 C-48.38089833234975 65.15655505158949 -48.38089833234975 65.15655505158949 -51.43359375 64.36328125 C-58.403710146080165 61.94507760238035 -62.311319103924525 56.70624905319693 -65.49609375 50.30078125 C-69.13646087169987 40.37250728172762 -67.13888170281865 30.929802833072067 -63.43359375 21.28515625 C-57.7836735818985 12.582456636230752 -49.49011942289504 8.41973200942654 -40.18359375 4.48828125 C-38.06066734533715 3.569326352376528 -35.939494628184065 2.646306861365474 -33.8203125 1.71875 C-32.89307373046876 1.3245385742187494 -31.9658349609375 0.9303271484374989 -31.010498046875 0.524169921875 C-28.571510433677076 -0.6625246047523206 -26.624064835304864 -2.0321082432907716 -24.49609375 -3.69921875 C-16.689345326480066 -6.766155630668546 -6.715369728478549 -4.571495824551121 0 0 Z " fill="#53645B" transform="translate(97.49609375,27.69921875)"/>
<path d="M0 0 C5.419955483307376 3.1951274639388885 9.863797678981868 7.46730992439533 14.375 11.8125 C15.170351562500002 12.567890625 15.965703125000005 13.32328125 16.78515625 14.1015625 C20.89291585523148 18.086161764333887 20.89291585523148 18.086161764333887 22.375 19.8125 C22.375 20.472499999999997 22.375 21.1325 22.375 21.8125 C23.034999999999997 21.8125 23.694999999999993 21.8125 24.375 21.8125 C29.84972682900724 31.119535609312294 31.432103617149636 41.05266936107275 29.26953125 51.65625 C27.87084934704997 56.59133723835643 25.955017296170595 61.27627038277569 23.9609375 65.9921875 C22.38761013521622 69.72049658866945 21.025488449896002 73.49315115211503 19.6875 77.3125 C18.463462665054635 80.79690020906172 17.247975217630753 84.24873461311205 15.75 87.625 C12.32829216261463 95.557140895757 11.187918397570115 101.87039762672869 10.375 110.8125 C-3.8149999999999977 110.8125 -18.004999999999995 110.8125 -32.625 110.8125 C-34.275 106.8525 -35.925 102.8925 -37.625 98.8125 C-41.67931712296992 92.2875833802203 -45.967491099368345 88.59942001851014 -53.375 86.4375 C-54.44234375 86.202890625 -55.5096875 85.96828125 -56.609375 85.7265625 C-63.862158460135205 83.52817994861186 -66.62447002832141 78.04212357939468 -70.109375 71.76171875 C-74.66724956767882 62.89265870206826 -75.05358830301684 53.72050565574318 -72.08642578125 44.226806640625 C-71.01134215296372 41.055350384269595 -69.831078337088 37.937038109543934 -68.625 34.8125 C-68.013984375 33.159277343750006 -68.013984375 33.159277343750006 -67.390625 31.47265625 C-60.659071973035694 14.141092774731515 -46.871210806245486 3.9293871545365278 -30.625 -4.1875 C-19.66788881930418 -8.390762365041269 -10.125802815544745 -5.161471169693602 0 0 Z M-29.990478515625 12.980712890625 C-33.10256615928775 14.56104757101572 -36.22034506087596 16.099206756226508 -39.3984375 17.54296875 C-48.692491903362416 21.822625053725943 -54.708383730984906 26.117921943188612 -59 35.5625 C-61.90866277515622 43.77223216191281 -62.682164618681256 52.12238680376785 -59.77734375 60.421875 C-57.006229971831004 66.1707618889472 -52.99352225626841 71.30717076208356 -47.625 74.8125 C-46.490625 75.10125 -45.35625 75.39 -44.1875 75.6875 C-40.1176482477136 76.97271634282728 -38.47312065710467 78.7202547151435 -35.625 81.8125 C-34.965 81.8125 -34.305 81.8125 -33.625 81.8125 C-33.359453125 82.39 -33.09390625 82.9675 -32.8203125 83.5625 C-29.68042919472404 89.4728685746371 -24.909606440838814 94.61918074346312 -18.73046875 97.3203125 C-14.767917549951449 98.24662317014122 -11.328074983363337 97.3254532057234 -7.625 95.8125 C-6.538320312499991 95.40515625 -5.45164062500001 94.9978125 -4.33203125 94.578125 C1.5746607612649797 91.10089419868596 4.126524003717165 83.96364447196552 7.125 78.0625 C7.788718743980979 76.7986135007143 8.45407141543194 75.53558363233799 9.12109375 74.2734375 C17.47139826774196 58.339188176390024 21.360027393340303 43.28937025959432 16.27734375 25.46484375 C13.818135179827635 18.236260983129696 9.75956851364225 13.057908960102324 3.375 8.8125 C-9.3327372314601 3.1041037515822083 -18.297959293898444 7.025998632952209 -29.990478515625 12.980712890625 Z " fill="#81978E" transform="translate(91.625,17.1875)"/>
<path d="M0 0 C17.49000000000001 0 34.980000000000004 0 53 0 C53 42.24 53 84.48 53 128 C44.42 128 35.84 128 27 128 C27 115.6367041198502 27 115.6367041198502 28.8125 111.3125 C29.18117187499999 110.3985546875 29.549843750000008 109.484609375 29.9296875 108.54296875 C30.282890624999993 107.7037890625 30.63609375 106.864609375 31 106 C31.485655772623318 104.71075916030406 31.96538034448463 103.41925905563696 32.4375 102.125 C33.734879397432735 98.68168495059746 35.054646861468086 95.24706346004409 36.375 91.8125 C36.8016796875 90.6948828125 37.228359375 89.577265625 37.66796875 88.42578125 C38.539827420693626 86.18349370103132 39.43739907996813 83.95099418357213 40.36328125 81.73046875 C45.2385452286787 69.83712565157143 47.521493281720836 58.64301978217826 44 46 C43.030786608009464 44.31524388157693 42.03628420418269 42.64435179506675 41 41 C41 40.34 41 39.68 41 39 C40.34 39 39.68000000000001 39 39 39 C37.55468750000003 37.53125000000003 37.55468750000003 37.53125000000003 35.875 35.5 C24.71366106156391 22.47460239349521 12.867673641615909 14.748371920359093 -4 11 C-2.019999999999996 5.555 -2.019999999999996 5.555 0 0 Z " fill="#B0C8C0" transform="translate(75,0)"/>
<path d="M0 0 C7.5387154698644 3.846283402992043 12.242140218018918 10.161872198580078 15 18 C16.87055109979157 25.953112368344577 17.16528992880974 33.8184656399832 13 41 C9.795071998585087 44.811265731412334 6.813297440223863 47.59976801738942 2 49 C-0.4970703125 48.496337890625 -0.4970703125 48.496337890625 -3.390625 47.66015625 C-11.059476031127886 45.62015489442284 -18.733907796116384 44.88209705401006 -26.611328125 44.095703125 C-27.681894531249995 43.98033203125 -28.752460937500004 43.8649609375 -29.85546875 43.74609375 C-30.821218261718755 43.64997802734375 -31.786967773437496 43.5538623046875 -32.781982421875 43.454833984375 C-33.51392822265625 43.30473876953124 -34.2458740234375 43.15464355468751 -35 43 C-35.33 42.34 -35.66 41.68000000000001 -36 41 C-37.093125 40.731875 -38.18625 40.463750000000005 -39.3125 40.1875 C-43.62146400473749 38.79986752389809 -44.82434240521275 37.93291949826926 -47 34 C-48.02885964935343 29.83160539122251 -48.31568423826365 26.23642993319929 -47.25 22.0625 C-46 20 -46 20 -43 18 C-42.21625 17.896875 -41.4325 17.793750000000003 -40.625 17.6875 C-37.038865096180444 16.74827419185678 -35.56493980385393 14.627499311265005 -33 12 C-27.25566008673394 7.835353562882105 -20.781002412162337 8.728357470135933 -14 9 C-13.746054687499992 8.434101562500004 -13.492109374999998 7.868203125000001 -13.23046875 7.28515625 C-12.886289062499998 6.551679687499998 -12.542109374999995 5.818203124999997 -12.1875 5.0625 C-11.85105468750001 4.331601562499998 -11.514609374999992 3.6007031250000026 -11.16796875 2.84765625 C-8.711864216454103 -1.037753262933819 -4.115379983031261 -0.3487610155111227 0 0 Z " fill="#4A3624" transform="translate(86,37)"/>
<path d="M0 0 C6.280893508018281 3.685862552237417 12.328660211193267 8.742990316789896 16.375 14.8125 C10.512641357027462 15.545294830371574 10.512641357027462 15.545294830371574 7.41015625 13.546875 C6.076454061192635 12.458785293487857 4.7431307266513585 11.370231075337522 3.41015625 10.28125 C-1.835370542330665 6.495610702655796 -8.377871091259195 6.316696118353903 -14.625 6.8125 C-19.9019695310198 8.894863854746689 -24.93256775660562 11.406791516104164 -29.98828125 13.978515625 C-33.114869686885534 15.564799464302219 -36.247925059516355 17.113487402009575 -39.43359375 18.578125 C-48.441086856148345 22.76653266995747 -53.79107038397124 26.392403720582436 -57.9375 35.5 C-60.90720395912997 43.72283575238088 -61.70236614722727 52.09189444366555 -58.7734375 60.421875 C-56.22105612505993 65.73499541314054 -52.89210549943054 70.55835653222991 -47.6875 73.4375 C-47.006875 73.89125 -46.32625 74.345 -45.625 74.8125 C-44.99071868937085 79.61491563762068 -45.87919603294415 83.3388773344194 -47.625 87.8125 C-54.99799711550372 86.70509331862 -60.69825047252092 85.6727817043474 -65.4375 79.421875 C-71.80393421127206 69.92527730151917 -75.08493164327439 61.355510936543226 -73.625 49.8125 C-72.29563444658123 44.659156990450725 -70.54037045159254 39.77457235124112 -68.625 34.8125 C-68.013984375 33.159277343750006 -68.013984375 33.159277343750006 -67.390625 31.47265625 C-60.659071973035694 14.141092774731515 -46.871210806245486 3.9293871545365278 -30.625 -4.1875 C-19.66788881930418 -8.390762365041269 -10.125802815544745 -5.161471169693602 0 0 Z " fill="#7AA1A3" transform="translate(91.625,17.1875)"/>
<path d="M0 0 C8 1 8 1 11.3125 2.0625 C17.083503037837154 3.529704162161991 23.3028915511563 3.899036149614574 29 2 C30.761718749999993 2.70703125 30.761718749999993 2.70703125 32.6875 3.8125 C35.52203351758656 5.349170185358275 37.890183410942534 6.26937965012246 41.0625 6.8125 C48.01547047696115 8.404471713903035 51.74771966172448 14.336578894579361 55.375 20.0625 C57.79434865097312 24.053778389439614 58.1759268392882 26.0555610357292 59 31 C39.53 31 20.059999999999995 31 0 31 C0 20.769999999999996 0 10.539999999999992 0 0 Z " fill="#99C7BD" transform="translate(0,97)"/>
<path d="M0 0 C7.898286965317567 5.3767681219298 12.067829997445514 11.49863447903926 14.25 20.6875 C17.019555524529537 36.81026966065407 13.732927094875365 49.70916954167441 6.166015625 63.810546875 C4.943720391283364 66.10567745623342 3.7584073805150524 68.41738406682198 2.578125 70.734375 C1.7819856097241882 72.28162872919287 0.9851285449976501 73.82851342215494 0.1875 75.375 C-0.371429443359375 76.47255615234374 -0.371429443359375 76.47255615234374 -0.941650390625 77.59228515625 C-2.7031952508855 80.95258658617387 -3.7878222078865633 82.85854813859105 -7 85 C-9.701666045823714 84.79737504656322 -11.46849313755321 84.3416829830015 -13.75 82.875 C-17.211719520159846 77.68242071976022 -15.868384344714357 70.903910125973 -15.0625 65.0625 C-14.962597656249997 64.28326171875 -14.862695312499994 63.504023437499995 -14.759765625 62.701171875 C-14.514790229888888 60.79969618913756 -14.258561075135745 58.89967599831142 -14 57 C-12.931367187500001 57.3596484375 -11.862734375000002 57.719296875 -10.76171875 58.08984375 C-6.146224008433961 59.20657300730518 -4.736332858747389 58.65863732649561 -0.796875 56.4140625 C2.9711734832603867 53.448772171868995 4.504802342344149 49.48559297296757 6 45 C6.888067811957455 34.735985481030134 5.233062751480361 25.764182264116492 -1.3984375 17.6953125 C-4.892001486660547 13.997247206803223 -7.512243795039325 12.128254845255228 -12.625 11.6875 C-15.250166569897303 11.930570978694192 -17.47863117932303 12.322863832001602 -20 13 C-21.036122713387385 11.594477014883196 -22.05344925262486 10.175083060074236 -23.0625 8.75 C-23.915214843749993 7.566640624999998 -23.915214843749993 7.566640624999998 -24.78515625 6.359375 C-26 4 -26 4 -25.875 1.8125 C-24.61477246927015 -0.797971313654692 -22.64790558124284 -1.4872076914914665 -20.015625 -2.4609375 C-13.224494558631108 -4.277170059900982 -6.281549727314257 -2.90291092498758 0 0 Z " fill="#426B7E" transform="translate(95,26)"/>
<path d="M0 0 C2.3100000000000023 0 4.6200000000000045 0 7 0 C7 20.790000000000006 7 41.58000000000001 7 63 C-1.5799999999999983 63 -10.159999999999997 63 -19 63 C-19 50.63670411985018 -19 50.63670411985018 -17.1875 46.3125 C-16.818828124999996 45.398554687499995 -16.450156250000006 44.48460937499999 -16.0703125 43.54296875 C-15.717109375000007 42.70378906249999 -15.36390625 41.864609375 -15 41 C-14.514344227376682 39.710759160304065 -14.034619655515371 38.41925905563696 -13.5625 37.125 C-10.967878419576067 30.238734075739714 -8.320581000659715 23.3714546463834 -5.63671875 16.51953125 C-3.5066711305794627 11.0593206857627 -1.453337269264182 5.681227507123623 0 0 Z " fill="#A2B6A3" transform="translate(121,65)"/>
<path d="M0 0 C18.480000000000004 0 36.96 0 56 0 C54 8.999999999999996 54 8.999999999999996 52 11 C50.28444652439228 11.564057616341207 48.55181158761589 12.076619435038477 46.8125 12.5625 C34.46888946634377 16.563430184978614 24.135581473656615 23.907409497984123 15 33 C14.340000000000003 32.67 13.68 32.34 13 32 C13 31.01 13 30.02 13 29 C12.009999999999998 28.67 11.02 28.34 10 28 C8.691658683722537 25.862051349082968 7.5767301246863035 23.813073642851514 6.5 21.5625 C6.19247802734375 20.9323095703125 5.8849560546875 20.302119140625 5.568115234375 19.65283203125 C2.541049931605354 13.29849660229554 0 7.110283939549111 0 0 Z " fill="#A9DBE5" transform="translate(19,0)"/>
<path d="M0 0 C1.1468984609968658 3.4406953829905973 0.8613973076033439 4.053383514910173 -0.3984375 7.30859375 C-0.7129687500000017 8.138105468749998 -1.0274999999999999 8.967617187499997 -1.3515625 9.822265625 C-1.6892968750000001 10.685292968749998 -2.0270312500000003 11.548320312499996 -2.375 12.4375 C-3.0304048135061876 14.143856672663574 -3.684112882101399 15.850866244977041 -4.3359375 17.55859375 C-4.630327148437502 18.314548339843753 -4.924716796875 19.0705029296875 -5.22802734375 19.849365234375 C-8.439563319254823 28.796367261010673 -7.751583749241533 37.70911515868853 -4.22265625 46.44921875 C-2.7013179715350084 49.623128960343905 -0.9512986775763039 52.54646185568012 1.046875 55.44140625 C2 57 2 57 2 59 C-6.302092586852645 63.15104629342633 -18.46445935027871 58.00947750659235 -26 56 C-26 43.46000000000001 -26 30.92 -26 18 C-23.36 16.68 -20.72 15.36 -18 14 C-15.308088198981086 11.879842163434994 -15.308088198981086 11.879842163434994 -13 9.5625 C-8.902523340150637 5.718737065218711 -4.86558136323605 2.7932041159318075 0 0 Z " fill="#9DD6DA" transform="translate(26,41)"/>
<path d="M0 0 C7.5387154698644 3.846283402992036 12.242140218018918 10.161872198580078 15 18 C16.87055109979157 25.95311236834459 17.16528992880974 33.8184656399832 13 41 C9.810832833806373 44.79252311655458 6.710259346256649 47.36582839007423 2 49 C-3.170731707317074 47.829268292682926 -3.170731707317074 47.829268292682926 -5 46 C-5.296142193892138 44.0250085342589 -5.587007957738422 42.04908291983554 -5.851318359375 40.069580078125 C-7.02952907898468 31.2830543848267 -8.861626979939302 23.312078558114663 -12.369873046875 15.140869140625 C-13.57906696737416 12.034985806273575 -14.282478677379686 10.016001396729266 -13.37158203125 6.73974609375 C-12.386004286002347 4.625242385657877 -11.46766526835448 2.814573146649799 -10 1 C-6.38069301689184 -0.20643566103605338 -3.807689951810417 -0.3226855891364764 0 0 Z " fill="#193141" transform="translate(86,37)"/>
<path d="M0 0 C4.499966827087917 -0.44117321834195167 6.34611116529085 -0.5286760791265444 9.9375 2.375 C12 5 12 5 12 7 C12.659999999999997 7 13.319999999999993 7 14 7 C19.474726829007224 16.307035609312287 21.057103617149636 26.24016936107276 18.89453125 36.84375 C17.495849347049983 41.77883723835642 15.580017296170581 46.46377038277571 13.5859375 51.1796875 C12.012610135216235 54.90799658866942 10.650488449895988 58.680651152115075 9.3125 62.5 C4.266837431693986 76.7371243169399 4.266837431693986 76.7371243169399 0 80 C-4.135875228373493 81.4531453505096 -7.7451320509266 80.75085904983648 -12 80 C-12.329999999999998 79.01 -12.659999999999997 78.02 -13 77 C-12.340000000000003 77 -11.680000000000007 77 -11 77 C-10.731230468749999 76.29351318359375 -10.462460937499998 75.5870263671875 -10.185546875 74.859130859375 C-8.953091419238206 71.88687265459195 -7.538902467679179 69.09612932758864 -6.03125 66.25390625 C-5.174667968750001 64.626787109375 -5.174667968750001 64.626787109375 -4.30078125 62.966796875 C-3.1018746466075555 60.700317254920805 -1.9013575535012563 58.43468879656365 -0.69921875 56.169921875 C0.15736328124999943 54.540869140625006 0.15736328124999943 54.540869140625006 1.03125 52.87890625 C1.5526757812500023 51.89478759765625 2.0741015625000045 50.910668945312494 2.611328125 49.896728515625 C8.831408917715976 36.921823697485905 8.574265336623384 21.454847412745778 4 8 C2.799978282267247 5.217153937730856 1.478794063175144 2.6516307339692133 0 0 Z " fill="#79989D" transform="translate(102,32)"/>
<path d="M0 0 C5.835893350819688 -0.2084247625292761 11.463319168007978 0.17874867615073242 17.25 0.875 C17.93513671875 0.953471679687496 18.620273437500003 1.0319433593750063 19.326171875 1.11279296875 C23.164096224458618 1.6004901848641282 26.483926022460338 2.378244948344104 30 4 C30.173262102948684 14.47273155600925 30.173262102948684 14.47273155600925 29.375 19.375 C28.87777475977839 24.18151065547562 29.90677981605043 26.444263584379456 32.625 30.3125 C33.07875 30.869375000000005 33.5325 31.426249999999996 34 32 C30.381273168877613 34.4124845540816 28.34529655475039 34.8575312605 24 35 C16.524230591540075 33.12725124798254 11.466020051924815 26.934017383807515 7 21 C7 20.340000000000003 7 19.680000000000007 7 19 C6.463749999999997 18.773124999999993 5.927500000000002 18.54625 5.375 18.3125 C2.0545440774312596 16.477511200685697 -0.3927102130151354 14.78919372561171 -3 12 C-3.523544539056495 7.536560963636973 -2.0760377762831865 3.8839206731297935 0 0 Z " fill="#797064" transform="translate(51,80)"/>
<path d="M0 0 C2.969999999999999 0.3299999999999983 5.940000000000001 0.6599999999999966 9 1 C8.547472818395981 3.3380571049541032 8.096723154084557 5.65525104365576 7.453125 7.94921875 C5.222053259690284 16.34588739427373 5.480397191968116 24.552333320146005 9.83203125 32.21875 C12.348337786194584 36.05632786121984 14.623995583752347 39.29670885391786 18.8125 41.4375 C19.534374999999997 41.953125 20.25625 42.46875 21 43 C21.63428131062915 47.802415637620726 20.745803967055863 51.52637733441935 19 56 C11.627002884496292 54.89259331861999 5.926749527479071 53.860281704347386 1.1875 47.609375 C-5.168844422629178 38.12782790291148 -8.483254504855982 29.52893274228967 -7 18 C-5.494279693954589 11.766692024973501 -3.565848101791662 5.348772152687495 0 0 Z " fill="#589FB5" transform="translate(25,49)"/>
<path d="M0 0 C3.1574133552843193 5.311752419803327 2.778772132453909 11.029960733822804 2 17 C0.36962912906075474 21.531660767256326 -1.8675904073725604 25.548561656689145 -4.3125 29.6875 C-4.907402343749993 30.756777343750002 -5.502304687500001 31.826054687500005 -6.115234375 32.927734375 C-10.502849826094334 40.668566550729565 -10.502849826094334 40.668566550729565 -14 43 C-16.701666045823714 42.79737504656322 -18.46849313755321 42.341682983001505 -20.75 40.875 C-24.211719520159846 35.68242071976023 -22.868384344714357 28.903910125973 -22.0625 23.0625 C-21.912646484375003 21.893642578124997 -21.912646484375003 21.893642578124997 -21.759765625 20.701171875 C-21.514790229888888 18.799696189137563 -21.258561075135745 16.899675998311423 -21 15 C-19.9313671875 15.359648437499999 -18.862734375000002 15.719296874999998 -17.76171875 16.08984375 C-13.144398284966897 17.20701474517415 -11.728411399555185 16.66312995293596 -7.79296875 14.40234375 C-3.2375652868093425 10.839402914955457 -1.5819366774732373 5.404950314700244 0 0 Z " fill="#3F6073" transform="translate(102,68)"/>
<path d="M0 0 C5.75 0.875 5.75 0.875 8 2 C7.649374999999999 2.9693749999999994 7.298749999999998 3.938749999999999 6.9375 4.9375 C5.683741352205601 9.416507343207542 5.706375895524701 13.522716573471854 7 18 C10.100965719645899 22.164153966381633 13.0124073251854 23.72410419946604 18 25 C17.28547412316474 29.763505845568417 16.204651561676762 34.34201396151653 15 39 C10.209392969650544 38.577299379675054 7.21287318511574 36.4157914915441 4 33 C-2.2352374606616507 24.983266122006455 -3.36751977740812 17.741435149446986 -2.484375 7.83203125 C-1.9979807028844832 4.988193625735889 -1.1722565711018085 2.6279686245602036 0 0 Z " fill="#3F6072" transform="translate(33,53)"/>
<path d="M0 0 C2.0167028837157446 7.436591883701809 2.213773103028295 14.316044574482987 2 22 C-1.9393063487990005 21.77273232603082 -4.310829622845972 21.580354001813916 -7.375 19 C-10.000629487708444 14.1526840226921 -10.616603023715683 9.415028509553096 -9.25 4.0625 C-6.834634481235277 0.07714689403820785 -4.3347034542529315 -0.2343082948244799 0 0 Z " fill="#193141" transform="translate(48,55)"/>
</svg>
