<?xml version="1.0" encoding="UTF-8"?>
<!-- Generator: visioncortex VTracer 0.6.0 -->
<svg version="1.1" xmlns="http://www.w3.org/2000/svg" width="128" height="128">
<path d="M0 0 C42.24 0 84.48 0 128 0 C128 42.24 128 84.48 128 128 C85.75999999999999 128 43.519999999999996 128 0 128 C0 85.75999999999999 0 43.519999999999996 0 0 Z " fill="#5E4E85" transform="translate(0,0)"/>
<path d="M0 0 C42.24 0 84.48 0 128 0 C128 30.69 128 61.38 128 93 C118.07767752059631 90.51941938014907 118.07767752059631 90.51941938014907 115 86 C114.31684863163028 82.66182264099825 114.30677724755934 79.39871255476253 114.3125 76 C114.26488978010276 74.09884104847195 114.21282092247402 72.19778841800313 114.15625 70.296875 C114.133046875 69.38099609375 114.10984375 68.4651171875 114.0859375 67.521484375 C113.68220525752999 55.675613351618296 110.3096481159061 43.6192962318122 105 33 C102.47266764948925 32.34444880823454 102.47266764948925 32.34444880823454 100 32 C99.814375 30.948125 99.62875 29.89625 99.4375 28.8125 C98.29501192502673 24.908999077174645 96.47169364082262 23.025756714196326 93.05859375 20.8828125 C88.72400024558364 19.02395456451974 84.510999712753 19.130611097417493 80.08203125 20.6640625 C75.85330660318698 22.81109708888961 73.12235545111426 25.87879124731401 70.26171875 29.609375 C69.8453515625 30.06828125 69.428984375 30.5271875 69 31 C68.34 31 67.68 31 67 31 C67 31.66 67 32.32 67 33 C66.34 33 65.68 33 65 33 C65 33.66 65 34.32 65 35 C64.4057421875 35.291328125 63.811484375 35.58265625 63.19921875 35.8828125 C58.66536708712283 38.12505951212277 54.20884060917173 40.435678542228096 49.8125 42.9375 C46.63090116062011 44.721744270439075 43.49936444964733 46.23315367333677 40.07421875 47.46875 C39.06234497070312 47.838187255859374 39.06234497070312 47.838187255859374 38.030029296875 48.215087890625 C36.707592948418906 48.685693922504925 35.37696498648242 49.13406425130891 34.038330078125 49.556396484375 C30.31697265148319 50.88029847351271 29.100158719857365 51.81847566763591 27.16796875 55.3203125 C26.153228879522665 58.517252158828256 25.154197149372614 61.690953852419916 24.3125 64.9375 C24.0611328125 65.8952734375 23.809765625 66.853046875 23.55078125 67.83984375 C23.3690234375 68.5526953125 23.187265625 69.265546875 23 70 C22.34 70 21.68 70 21 70 C21.061875 71.299375 21.12375 72.59875 21.1875 73.9375 C21.139720490814355 80.02460947025097 20.32053457509259 85.36302889194023 16.1953125 90.05078125 C10.928424720959423 94.8506053958049 7.25231915479342 97 0 97 C0 64.99000000000001 0 32.980000000000004 0 0 Z " fill="#6C64AE" transform="translate(0,0)"/>
<path d="M0 0 C0.7792382812500023 0.018046874999999574 1.5584765625000045 0.03609374999999915 2.361328125 0.0546875 C4.262261312136417 0.10133616716899141 6.162551690242296 0.17306171074097065 8.0625 0.25 C10.953220831646377 5.389059256260218 12.965326475583652 10.58842172933015 14.75 16.1875 C15.071339111328129 17.170732421875 15.071339111328129 17.170732421875 15.399169921875 18.173828125 C18.140390007822646 27.027892523772294 18.27081595735308 36.10952118696119 18.625 45.3125 C18.66818359375 46.36888671874999 18.711367187500002 47.42527343750001 18.755859375 48.513671875 C18.860873366973664 51.092348789020065 18.963028767465033 53.671104347493554 19.0625 56.25 C16.35370664641445 57.604396676792774 14.053167323211284 57.31501450702633 11.0625 57.25 C11.149511718750006 58.193593750000005 11.149511718750006 58.193593750000005 11.23828125 59.15625 C11.592849001591105 65.88290677304282 10.606366763979977 70.18434949278787 6.0625 75.25 C3.525873061150321 77.47078233945984 0.8781224587396537 79.40040700409152 -1.9375 81.25 C-2.927500000000009 81.91 -3.9174999999999898 82.57 -4.9375 83.25 C-13.280667923359388 84.11032666835601 -21.860479576784 84.28386389935866 -28.9375 79.25 C-33.37572364561853 75.36895594625565 -36.295757839419664 71.2395934987498 -36.9375 65.25 C-35.95790338068996 63.61733896781661 -34.970445402432105 61.98769822735636 -33.91015625 60.40625 C-31.816831603943157 55.765626688259545 -32.24158409705635 50.202914984914344 -32.9375 45.25 C-34.30724569289457 42.570883080013374 -35.711190552383684 40.508639368704365 -37.6875 38.25 C-38.9375 36.25 -38.9375 36.25 -38.625 33.5 C-38.398125 32.75749999999999 -38.17125 32.015 -37.9375 31.25 C-37.2775 31.25 -36.6175 31.25 -35.9375 31.25 C-35.834052734375 30.508144531249997 -35.73060546875 29.7662890625 -35.6240234375 29.001953125 C-34.87396090675438 25.995301330346834 -33.929940089259695 24.57237734967576 -31.953125 22.21875 C-31.347265625000006 21.490429687499997 -30.741406249999997 20.762109375 -30.1171875 20.01171875 C-29.480390625 19.2653515625 -28.843593749999997 18.518984375000002 -28.1875 17.75 C-27.566171874999995 17.0036328125 -26.944843750000004 16.257265625000002 -26.3046875 15.48828125 C-18.528888079044506 6.219659577342078 -12.617954695078893 -0.5622396265159395 0 0 Z " fill="#4A385F" transform="translate(96.9375,31.75)"/>
<path d="M0 0 C3.616841994768592 1.9689675850917823 7.126805632565535 4.253611265131056 9 8 C9.039992002399202 9.999600119960014 9.043467990818428 12.000472422352168 9 14 C8.249765624999995 13.930390625000001 7.499531250000004 13.860781250000002 6.7265625 13.7890625 C-1.458403115512482 13.356104621093799 -6.8093919938750105 14.491896913804936 -13 20 C-17.027969419338064 24.383948835008596 -20.532996250500872 29.16949343951039 -24 34 C-24.461967773437493 34.6253564453125 -24.923935546875 35.250712890625 -25.39990234375 35.89501953125 C-27.3637217654028 38.57564360376066 -28.94236767988224 40.827103039646715 -30 44 C-30.659999999999997 44 -31.32 44 -32 44 C-32.41890217589123 46.78938211744216 -32.41890217589123 46.78938211744216 -32 50 C-29.624947819720774 52.70848922556695 -29.624947819720774 52.70848922556695 -27 55 C-25.121923334907066 60.63422999527879 -24.811285777104416 67.79721975752585 -26.89453125 73.41015625 C-28.000000000000007 75.3125 -28.000000000000007 75.3125 -30 78 C-53.633708448784716 78.62929992910966 -53.633708448784716 78.62929992910966 -61.445556640625 72.714599609375 C-64.53375510687184 69.30822017974542 -65.12658140749025 65.02263207417496 -66 60.625 C-66.2152734375 59.70460937499999 -66.430546875 58.78421875000001 -66.65234375 57.8359375 C-67.80276919795256 52.57255309760268 -68.1931187051367 48.33903956879604 -67 43 C-66.8208203125 42.1711328125 -66.64164062500001 41.342265625 -66.45703125 40.48828125 C-65.20305519494354 36.2551620823246 -64.1406671445123 33.136439997349676 -60.05859375 30.88671875 C-56.17627575427647 29.214448949185496 -52.213073428174305 27.7572010654373 -48.25 26.2890625 C-44.65524775928233 24.863259327599962 -41.40430801559258 23.146930503555822 -38.0703125 21.203125 C-29.11688311688311 16 -29.11688311688311 16 -26 16 C-26 15.340000000000003 -26 14.68 -26 14 C-25.340000000000003 14 -24.680000000000007 14 -24 14 C-24 13.340000000000003 -24 12.68 -24 12 C-23.340000000000003 12 -22.680000000000007 12 -22 12 C-21.75121093749999 11.4160546875 -21.50242187500001 10.832109375000002 -21.24609375 10.23046875 C-19.825045629437014 7.686837161155285 -18.26807085077013 6.205923020865985 -16.0625 4.3125 C-15.372851562500003 3.7105078125000013 -14.683203125000006 3.108515624999999 -13.97265625 2.48828125 C-9.842378668830179 -0.627829162724165 -4.964055457946031 -0.8713076407666946 0 0 Z " fill="#644A77" transform="translate(91,19)"/>
<path d="M0 0 C10.23 0 20.46 0 31 0 C30.35081647054219 3.8951011767468717 29.84335330292177 6.804538461285423 28.5625 10.375 C24.78677019218239 21.40749831650121 22.94045974111022 30.791609093885775 26.2109375 42.23828125 C27.424493104844117 46.48572586695441 28.339962806640973 49.78166336141552 27.25 54.125 C27.061796875 54.8894140625 26.87359375 55.653828125 26.6796875 56.44140625 C25.477224362268856 60.96791978571207 24.264394247820086 65.49032718277503 23 70 C22.34 70 21.68 70 21 70 C21.061875 71.299375 21.12375 72.59875 21.1875 73.9375 C21.139720490814355 80.02460947025097 20.32053457509259 85.36302889194023 16.1953125 90.05078125 C10.928424720959423 94.8506053958049 7.25231915479342 97 0 97 C0 64.99000000000001 0 32.980000000000004 0 0 Z " fill="#887DA0" transform="translate(0,0)"/>
<path d="M0 0 C-0.05156250000000284 1.2310546874999986 -0.10312500000000568 2.462109374999997 -0.15625 3.73046875 C-0.15625 9.777902228021695 1.209695445920687 15.430807159577583 2.5 21.3125 C4.8696891463932275 32.70489234907541 5.58903864365746 43.40248359376625 5 55 C-0.6155440508570109 57.582330475941546 -4.777219485751118 58.84376684938968 -11 58 C-15.588904101234675 56.164438359506136 -17.570885253142805 53.22845900378846 -20 49 C-20 48.34 -20 47.68000000000001 -20 47 C-21.268437500000005 46.796972656250006 -21.268437500000005 46.796972656250006 -22.5625 46.58984375 C-29.45391280367619 45.28204154748417 -34.66423722072264 43.844526163724595 -39.7421875 38.8515625 C-41 37 -41 37 -41 33.5625 C-40.505 32.294062499999995 -40.505 32.294062499999995 -40 31 C-39.34 31 -38.68 31 -38 31 C-37.896552734375 30.258144531249997 -37.79310546875 29.5162890625 -37.6865234375 28.751953125 C-36.93646090675438 25.745301330346834 -35.992440089259695 24.32237734967576 -34.015625 21.96875 C-33.409765625000006 21.240429687499997 -32.80390625 20.512109375 -32.1796875 19.76171875 C-31.542890625 19.0153515625 -30.906093749999997 18.268984375000002 -30.25 17.5 C-29.628671874999995 16.7536328125 -29.007343750000004 16.007265625000002 -28.3671875 15.23828125 C-19.654616168933416 4.853043270986042 -13.970684505210812 -0.9094839822560381 0 0 Z " fill="#4B1427" transform="translate(99,32)"/>
<path d="M0 0 C9.569999999999993 0 19.14 0 29 0 C29 30.69 29 61.38 29 93 C19.07767752059631 90.51941938014907 19.07767752059631 90.51941938014907 16 86 C15.316848631630279 82.66182264099824 15.306777247559339 79.39871255476253 15.3125 76 C15.264889780102763 74.09884104847195 15.212820922474023 72.19778841800313 15.15625 70.296875 C15.133046875000005 69.38099609375 15.109843749999996 68.4651171875 15.0859375 67.521484375 C14.682205257529986 55.675613351618296 11.3096481159061 43.6192962318122 6 33 C5.979807616792726 31.124992987896263 6.007931144785488 29.249321548672572 6.0625 27.375 C6.11319033128926 18.848886277147265 3.8270133271638684 12.240129813517001 0.8046875 4.3203125 C0 2.0000000000000004 0 2.0000000000000004 0 0 Z " fill="#B2828C" transform="translate(99,0)"/>
<path d="M0 0 C7.590000000000003 0 15.18 0 23 0 C26.06902378668544 6.138047573370883 23.495722225775097 15.536482709447023 22.5 22.0625 C21.302279956357417 29.75620069278016 21.302279956357417 29.75620069278016 21.09375 37.51953125 C21.0628125 38.6680859375 21.031875 39.816640625 21 41 C14.422237306169208 46.75554235710194 5.1528026379876195 49.12079421401165 -3 52 C-3.6500362524042558 49.79290016625532 -4.294847450682148 47.584261077014396 -4.9375 45.375 C-5.297148437499999 44.145234375 -5.656796875000001 42.91546875 -6.02734375 41.6484375 C-9.825668357980106 27.400906641150925 -5.675954451113817 13.243893719265577 0 0 Z " fill="#81608C" transform="translate(31,0)"/>
<path d="M0 0 C0 11.549999999999997 0 23.099999999999994 0 35 C-13.530000000000001 35 -27.060000000000002 35 -41 35 C-41 28.374585853273345 -40.2605258569524 25.834058183849834 -36 21 C-34.18402234429607 19.59503503856041 -32.32626794415796 18.2429719614033 -30.4375 16.9375 C-25.624539585398594 13.601464180996345 -23.085244294403807 11.497462230700933 -21 6 C-20.44208419033447 2.667187136997981 -20.135820550033287 -0.6248593316727522 -20 -4 C-11.900419389844558 -5.656732397531798 -8.154692476094624 -3.2618769904378553 0 0 Z " fill="#7B608A" transform="translate(128,93)"/>
<path d="M0 0 C3.6168419947685777 1.968967585091768 7.126805632565535 4.25361126513107 9 8 C9.039992002399202 9.999600119960014 9.043467990818428 12.000472422352168 9 14 C8.249765625000009 13.930390625000001 7.49953124999999 13.860781250000002 6.7265625 13.7890625 C-1.458403115512482 13.356104621093799 -6.8093919938750105 14.491896913804936 -13 20 C-17.027969419338064 24.383948835008596 -20.532996250500872 29.16949343951039 -24 34 C-24.461967773437493 34.6253564453125 -24.923935546875 35.250712890625 -25.39990234375 35.89501953125 C-27.3637217654028 38.575643603760646 -28.94236767988224 40.82710303964672 -30 44 C-30.659999999999997 44 -31.32 44 -32 44 C-32 45.650000000000006 -32 47.3 -32 49 C-37.485227850420564 43.88045400627414 -38.40061618665782 39.66585130860837 -39.1875 32.4375 C-39.28224609375 31.669863281250002 -39.3769921875 30.902226562500005 -39.474609375 30.111328125 C-39.86393333558031 26.70251451594949 -40.09763664117614 24.2929099235284 -39 21 C-36.8203125 19.8671875 -36.8203125 19.8671875 -34.125 18.875 C-33.240703124999996 18.542421875000002 -32.35640625 18.209843750000005 -31.4453125 17.8671875 C-29.636818948243345 17.225836751613457 -27.82037955885064 16.606793186283547 -26 16 C-26 15.340000000000003 -26 14.68 -26 14 C-25.340000000000003 14 -24.680000000000007 14 -24 14 C-24 13.340000000000003 -24 12.68 -24 12 C-23.340000000000003 12 -22.680000000000007 12 -22 12 C-21.751210937500005 11.4160546875 -21.502421874999996 10.832109375000002 -21.24609375 10.23046875 C-19.825045629437014 7.686837161155282 -18.268070850770144 6.205923020865985 -16.0625 4.3125 C-15.372851562500003 3.7105078125000013 -14.683203125000006 3.108515624999999 -13.97265625 2.48828125 C-9.842378668830179 -0.627829162724165 -4.964055457946031 -0.8713076407666946 0 0 Z " fill="#51347A" transform="translate(91,19)"/>
<path d="M0 0 C9.569999999999993 0 19.14 0 29 0 C29 12.21 29 24.42 29 37 C22.784129795385496 36.11201854219793 19.81221181553849 35.29239770379742 14.6875 32.375 C13.758408203125 31.89740234375 13.758408203125 31.89740234375 12.810546875 31.41015625 C9.331640370629216 29.453507423437493 8.085842937596567 28.22284728212747 6.63671875 24.4609375 C6.426601562499997 23.318828125 6.216484374999993 22.17671875 6 21 C4.656511731475021 15.24219313489293 2.914159402825973 9.848052741711864 0.8046875 4.3203125 C0 2.0000000000000004 0 2.0000000000000004 0 0 Z " fill="#BFACDA" transform="translate(99,0)"/>
<path d="M0 0 C2.001148988037844 3.504195389533521 2.8281746929934926 7.009754572365381 3.6875 10.9375 C3.9594921875000004 12.142773437499997 4.231484375000001 13.348046874999994 4.51171875 14.58984375 C5.293025167447887 20.04648776945605 4.244638046505134 23.10033115238693 1.125 27.5625 C0.35542968749999915 28.678183593749992 0.35542968749999915 28.678183593749992 -0.4296875 29.81640625 C-1.4829067597030665 31.280957409636855 -2.5576003263570257 32.73028506099715 -3.65234375 34.1640625 C-6.535990478156428 38.092508767343546 -6.2372142355755855 42.255715288488304 -6 47 C-5.6984130448288965 48.40303496536123 -5.364455443332066 49.79946756688426 -5 51.1875 C-4 55 -4 55 -4 59 C-10.27 59 -16.54 59 -23 59 C-23 48.769999999999996 -23 38.53999999999999 -23 28 C-19.7 27.010000000000005 -16.4 26.019999999999996 -13 25 C-6.843447241414999 20.89563149427667 -4.4535955665414555 17.220706432169337 -3 10 C-2.691494409337256 7.580275427452463 -2.448110983931123 5.185209901343271 -2.30859375 2.75 C-2.206757812500001 2.1724999999999994 -2.1049218749999987 1.5949999999999989 -2 1 C-1.3399999999999999 0.6700000000000017 -0.6799999999999997 0.3400000000000034 0 0 Z " fill="#6C639B" transform="translate(23,69)"/>
<path d="M0 0 C-0.23046875 2.339843749999986 -0.23046875 2.339843749999986 -1 5 C-2.92578125 6.44140625 -2.92578125 6.44140625 -5.3125 7.5625 C-9.732677474739589 9.673956678016097 -13.081461444229916 11.725698535913288 -14.9765625 16.41796875 C-16.754524257948333 24.011793366779308 -17.77274033545794 31.566327905322254 -18.5703125 39.3125 C-18.883322436620148 41.998694365176505 -19.234490238677807 44.42144080396737 -20 47 C-27.69857796023237 45.767758100877444 -34.05462761997701 44.44393309332804 -39.7421875 38.8515625 C-41 37 -41 37 -41 33.5625 C-40.505 32.294062499999995 -40.505 32.294062499999995 -40 31 C-39.34 31 -38.68 31 -38 31 C-37.896552734375 30.258144531249997 -37.79310546875 29.5162890625 -37.6865234375 28.751953125 C-36.93646090675438 25.745301330346834 -35.992440089259695 24.32237734967576 -34.015625 21.96875 C-33.409765625000006 21.240429687499997 -32.80390625 20.512109375 -32.1796875 19.76171875 C-31.542890625 19.0153515625 -30.906093749999997 18.268984375000002 -30.25 17.5 C-29.628671874999995 16.7536328125 -29.007343750000004 16.007265625000002 -28.3671875 15.23828125 C-19.654616168933416 4.853043270986042 -13.970684505210812 -0.9094839822560381 0 0 Z " fill="#411447" transform="translate(99,32)"/>
<path d="M0 0 C10.23 0 20.46 0 31 0 C29.70137284916234 7.791762905025966 25.81785019341988 12.057984761448813 21 18 C20.332265625 18.8469140625 19.66453125 19.693828125 18.9765625 20.56640625 C14.452117902542508 26.023440448157913 9.49554457364328 30.057968265934218 3 33 C2.01 33 1.02 33 0 33 C0 22.11 0 11.219999999999999 0 0 Z " fill="#BFA7BE" transform="translate(0,0)"/>
<path d="M0 0 C8.553912375406302 2.851304125135435 14.838992455305208 5.422158611522228 21 12 C22.255531844098943 15.613895713419922 21.873799288545737 18.325413587903697 21 22 C20.78537109375 23.18142578125 20.78537109375 23.18142578125 20.56640625 24.38671875 C18.990524322367747 30.78805982155447 15.32360987265069 34.318446610661994 10 38 C6.1250288642700035 40.07265897957652 4.640448574659882 40 0 40 C0 26.799999999999997 0 13.599999999999994 0 0 Z " fill="#8A8BC0" transform="translate(0,57)"/>
<path d="M0 0 C2.625 -0.1875 2.625 -0.1875 5 0 C7.890720831646377 5.139059256260211 9.902826475583652 10.338421729330157 11.6875 15.9375 C12.008839111328129 16.920732421875 12.008839111328129 16.920732421875 12.336669921875 17.923828125 C15.077890007822646 26.777892523772294 15.20831595735308 35.85952118696119 15.5625 45.0625 C15.605683593750001 46.11888671874999 15.648867187500002 47.17527343750001 15.693359375 48.263671875 C15.798373366973664 50.842348789020065 15.900528767465033 53.421104347493554 16 56 C13.754877377145277 57.12256131142736 12.48543350915051 57.134137623195414 10 57.125 C8.948125000000005 57.12886718749999 8.948125000000005 57.12886718749999 7.875 57.1328125 C6.000000000000014 57 6.000000000000014 57 4 56 C3.985820312499996 54.785703125 3.9716406250000063 53.571406249999995 3.95703125 52.3203125 C3.6750223560480038 40.48881072925904 2.1790287647390443 29.290279860655687 -0.272216796875 17.70947265625 C-0.603465576171871 16.138186035156252 -0.603465576171871 16.138186035156252 -0.94140625 14.53515625 C-1.1445141601562483 13.610979003906252 -1.3476220703124966 12.686801757812503 -1.556884765625 11.734619140625 C-2.322658666647172 7.008760482030297 -2.709743138764594 4.064614708146898 0 0 Z " fill="#7E474F" transform="translate(100,32)"/>
<path d="M0 0 C0 2.3099999999999987 0 4.620000000000001 0 7 C-1.6500000000000057 7 -3.299999999999997 7 -5 7 C-5 5.350000000000001 -5 3.6999999999999993 -5 2 C-1.125 0 -1.125 0 0 0 Z " fill="#81608C" transform="translate(105,25)"/>
</svg>
