<?xml version="1.0" encoding="UTF-8"?>
<!-- Generator: visioncortex VTracer 0.6.0 -->
<svg version="1.1" xmlns="http://www.w3.org/2000/svg" width="128" height="128">
<path d="M0 0 C42.24 0 84.48 0 128 0 C128 42.24 128 84.48 128 128 C85.75999999999999 128 43.519999999999996 128 0 128 C0 85.75999999999999 0 43.519999999999996 0 0 Z " fill="#7688A7" transform="translate(0,0)"/>
<path d="M0 0 C2.68359375 2.28515625 2.68359375 2.28515625 5 5 C6.134375000000006 5.598124999999996 7.268749999999997 6.196249999999999 8.4375 6.8125 C16.038397331433913 11.01342605199681 19.678650124643497 19.73395224447186 23.66552734375 27.1005859375 C26.152041402907855 31.66309939732755 28.93292807588756 35.80486941905298 32 40 C34.46928710112486 44.468233802035456 34.67838640897695 49.00901427681248 34 54 C32.537784431121054 58.37285222013796 30.553237065275752 62.17014440208638 28 66 C27.340000000000003 66 26.680000000000007 66 26 66 C25.756367187500004 66.5658984375 25.512734374999994 67.131796875 25.26171875 67.71484375 C23.762181038152733 70.43072474514133 21.986854038371405 72.35072162361877 19.8125 74.5625 C19.0764453125 75.3269140625 18.340390624999998 76.091328125 17.58203125 76.87890625 C11.861637155474 81.57811047591169 6.546377440215082 82.45521897248756 -0.5625 82.25 C-1.3482641601562477 82.23686767578126 -2.1340283203124955 82.2237353515625 -2.943603515625 82.210205078125 C-5.296914609899176 82.16129209279333 -7.647762726582812 82.0855635168333 -10 82 C-11.286484375 81.9574609375 -12.572968750000001 81.914921875 -13.8984375 81.87109375 C-27.59837231758319 81.1603907296618 -35.90023947283103 78.69140723776638 -45.25 68.5625 C-53.49216782064203 56.49361140548845 -51.2581485600721 44.959155588313564 -49 31 C-48.887529296875 30.2966552734375 -48.77505859375 29.593310546875003 -48.6591796875 28.86865234375 C-47.2771018154018 20.410564209132488 -45.835997470662164 13.25399620599324 -41 6 C-38.11169633690351 5.037232112301169 -36.2089663656404 4.863709482497541 -33.203125 4.82421875 C-22.498553464186834 4.579656699342564 -13.048474549094557 4.11419073570346 -2.9609375 0.3515625 C-1.9838281250000023 0.23554687499999716 -1.0067187500000045 0.11953125000000142 0 0 Z " fill="#476999" transform="translate(76,32)"/>
<path d="M0 0 C13.860000000000001 0 27.720000000000002 0 42 0 C41.404012668357254 5.9598733164274815 40.8951391422327 10.702608231558251 39.53125 16.30859375 C38.68883870604948 20.576398025969908 38.27231225775592 24.910698596480906 37.873291015625 29.24072265625 C37.38509734896775 33.79831530602848 36.18813832790243 37.0044898745726 34 41 C30.328187185285127 47.95233825050675 29.09745805237426 54.40052349270441 28.3125 62.1875 C28.080272022788165 64.28524995989696 27.8472245433115 66.3829093913257 27.61328125 68.48046875 C27.5096728515625 69.4438818359375 27.406064453125 70.407294921875 27.29931640625 71.39990234375 C26.9669994599512 74.28666863908622 26.528056737017017 77.14257148847801 26 80 C25.34 80 24.68 80 24 80 C23.941448240886956 83.52076231528194 23.90621940062844 87.04139760054927 23.875 90.5625 C23.8582421875 91.55314453125 23.841484375 92.5437890625 23.82421875 93.564453125 C23.761839538586887 102.95252444267365 26.143542402247505 109.75614304538135 30.609375 117.92578125 C32.631689307703 121.77497612978763 33 123.44842948453625 33 128 C22.11 128 11.219999999999999 128 0 128 C0 85.75999999999999 0 43.519999999999996 0 0 Z " fill="#779FB2" transform="translate(0,0)"/>
<path d="M0 0 C9.24 0 18.48 0 28 0 C28.39271739690058 36.32635921330382 28.39271739690058 36.32635921330382 21.578125 48.5 C19.508090701533444 53.090967156995134 18.504705643115173 57.71867033804948 17.4375 62.625 C15.317196001576532 72.24707306737729 13.184404876607132 81.65708622062948 5 88 C2.5249999999999995 88.495 2.5249999999999995 88.495 0 89 C0 59.629999999999995 0 30.259999999999998 0 0 Z " fill="#C8E1CB" transform="translate(0,0)"/>
<path d="M0 0 C0 0.6599999999999966 0 1.3200000000000003 0 2 C0.9899999999999949 2.3299999999999983 1.980000000000004 2.6599999999999966 3 3 C5.905542611518541 6.6701590882339445 8.240388022598935 10.37423345722759 10.4375 14.5 C12.1088253231284 17.63506565389372 13.88052355526375 20.101384203132568 16.3125 22.6875 C18.426397440954858 25.058789098273195 18.978422958151583 25.90192253705264 19.6875 29.125 C18.52360154208391 33.99221173310366 15.401454029135266 36.06569731390982 11.375 38.75 C3.5693079749924834 41.64099704629908 -3.295765101515464 41.25823956245634 -11.25 39.3125 C-11.911127929687495 39.15193115234375 -12.572255859375005 38.9913623046875 -13.25341796875 38.825927734375 C-18.730117723571368 37.35079861183296 -23.928044570791542 35.21008579115569 -27.875 31 C-31.218005213256802 25.0568796208768 -30.654559605654427 17.575014465787177 -30 11 C-28.028884905932472 5.650998873360322 -24.65920895481102 2.2153221051134864 -20 -1 C-12.788679148853618 -3.1816527638278274 -6.55898142482733 -3.9658957452444312 0 0 Z " fill="#133170" transform="translate(67,59)"/>
<path d="M0 0 C10.230000000000004 0 20.460000000000008 0 31 0 C31 19.470000000000002 31 38.940000000000005 31 59 C17.26600701783491 54.42200233927831 10.557231460600732 47.64608924544426 4 35 C1 28.767241379310345 1 28.767241379310345 1 25 C0.3400000000000034 24.67 -0.3199999999999932 24.34 -1 24 C-3.1875 22.375 -3.1875 22.375 -5 20 C-5 13.161377595944362 -1.9540684020949612 6.350722306808615 0 0 Z " fill="#97BCBA" transform="translate(97,0)"/>
<path d="M0 0 C10.560000000000002 0 21.120000000000005 0 32 0 C32.66 3.1143750000000003 33.31999999999999 6.228750000000001 34 9.4375 C34.208828125 10.39970458984375 34.41765624999999 11.3619091796875 34.6328125 12.353271484375 C37.67810042715426 27.15826502308478 37.67810042715426 27.15826502308478 34 33 C21.8551006774682 38.75284704751506 7.099566068978689 37.81963802207697 -6 38 C-5.573437856079458 34.290326649762825 -5.1316176743292345 30.58260924141518 -4.6875 26.875 C-4.569550781250001 25.8476171875 -4.451601562500002 24.820234375 -4.330078125 23.76171875 C-3.345957083255101 15.636411687388279 -1.733076689030085 8.087691215473715 0 0 Z " fill="#886A66" transform="translate(42,0)"/>
<path d="M0 0 C7.590000000000003 0 15.180000000000007 0 23 0 C20.999999999999986 9.00000000000003 20.999999999999986 9.00000000000003 19.8125 12.75 C18.96919864745864 16.123205410165454 18.778231678331267 17.77104086416122 20 21 C20.94552734375 21.8701171875 20.94552734375 21.8701171875 21.91015625 22.7578125 C24.410660208860506 25.440596186702674 25.172019356451585 27.716291641272655 26.3125 31.1875 C30.031091902518597 41.382162723520196 37.082820931935146 49.77871227809429 46 56 C48.635673201433136 57.15064837525252 51.27130862604854 58.07501987323679 54 59 C54 63.95 54 68.9 54 74 C48.36404507491426 72.38972716426122 45.416936939101305 71.44736541588395 41 68 C41 67.34 41 66.68 41 66 C40.463750000000005 65.773125 39.92750000000001 65.54625 39.375 65.3125 C36.17539838580896 63.544299107947054 33.70962776906802 61.463297971880024 31 59 C31 58.34 31 57.68 31 57 C30.340000000000003 57 29.680000000000007 57 29 57 C27.589843750000014 55.531250000000014 27.589843750000014 55.531250000000014 25.9375 53.5 C20.484226496037422 47.12282478668839 15.181111385475404 41.920252394549365 7.4375 38.5625 C4.8984375 37.1328125 4.8984375 37.1328125 3 35 C2.390370033597023 30.696194416289437 2.567609622859905 26.737023969569996 2.84765625 22.41796875 C3.1536094835404356 17.248143598637252 2.0453341676089423 12.699064710157874 0.65625 7.734375 C0 5 0 5 0 0 Z " fill="#82A0B1" transform="translate(74,0)"/>
<path d="M0 0 C1.9648437500000284 2.2070312500000284 1.9648437500000284 2.2070312500000284 3.9375 4.8125 C6.772426850414675 8.471655582850047 9.678981887063458 11.768739133359048 13 15 C16.58356856585428 18.959183401368747 18.835010744683913 21.813892367061868 19.25 27.3125 C18.896383662612365 32.528340976467646 17.179215301453908 35.53491432243605 13.9375 39.5625 C3.774943660579453 47.99525951568938 -7.289086452632773 49.04509598031359 -20 48 C-27.257963343197574 46.888896692314944 -34.98216841325092 45.375560752960695 -41 41 C-41 40.34 -41 39.68000000000001 -41 39 C-41.66 39 -42.32 39 -43 39 C-46.97135157323331 34.34819878026255 -49.245152032437616 29.17337390774732 -49 23 C-48.50588593799769 19.618709654141057 -47.822182382130904 16.31590911140397 -47 13 C-46.67 13 -46.34 13 -46 13 C-45.9265234375 14.320644531249997 -45.9265234375 14.320644531249997 -45.8515625 15.66796875 C-45.776796875 16.829414062500007 -45.70203125 17.990859375 -45.625 19.1875 C-45.555390625 20.336054687499995 -45.48578125 21.484609375000005 -45.4140625 22.66796875 C-45.02155075073767 25.82657744925254 -44.302650628365285 28.121241550291984 -43 31 C-42.67 31.99000000000001 -42.34 32.97999999999999 -42 34 C-33.90859168659227 39.18385733554018 -19.959108499196184 42.49888490751917 -10.4609375 40.453125 C-8.234098823404565 39.74227747457215 -6.131137473488536 38.957956844518606 -4 38 C-3.2974609375000057 37.6970703125 -2.594921874999997 37.394140625000006 -1.87109375 37.08203125 C0.32038076420656125 35.998908102861975 0.32038076420656125 35.998908102861975 2 33 C2.432779992915812 29.441586724914444 2.401748185200546 27.63219257569628 0.4609375 24.578125 C-0.22742187500000455 23.80984375 -0.9157812500000091 23.041562499999998 -1.625 22.25 C-5.155003258397869 18.121268273746665 -7.949863201228283 13.972894101311269 -10.578125 9.2265625 C-11.963121225209605 6.8801106221785915 -11.963121225209605 6.8801106221785915 -14.171875 4.8359375 C-16 3 -16 3 -16 1 C-16.618750000000006 0.8762499999999989 -17.237499999999997 0.7524999999999977 -17.875 0.625 C-20 0 -20 0 -22 -2 C-14.471154874132509 -4.509615041955833 -6.922609614040482 -4.342238094578498 0 0 Z " fill="#234B8B" transform="translate(83,58)"/>
<path d="M0 0 C0.9900000000000091 1.3200000000000003 1.9799999999999898 2.6400000000000006 3 4 C2.3400000000000034 4.329999999999998 1.6800000000000068 4.659999999999997 1 5 C0.3018649308688168 6.317129320709029 -0.3604983142848255 7.6534266391355885 -1 9 C-1.8437562809369012 10.29849097440134 -2.6981684328725635 11.590113073344881 -3.5625 12.875 C-5.6996705745420115 16.23161496119245 -6.697902331612454 18.972031088165934 -7 23 C-12.238270988152934 24.24297955651086 -17.340423648175125 25.168643329195405 -22.6875 25.8125 C-28.470652273274702 26.69444755273456 -31.156752993819154 27.580265942892026 -35 32 C-35.779020920442235 33.433079440677005 -36.54954804534647 34.870801490370425 -37.3125 36.3125 C-38.5 38.39453125 -38.5 38.39453125 -40 40 C-43.103178637205154 40.686683110597755 -45.87626431811097 40.4899977540218 -49 40 C-49.315598655474716 34.10882509780535 -48.740534996255086 28.609853957877462 -47.6875 22.8125 C-47.56979248046875 22.1357421875 -47.4520849609375 21.458984375 -47.330810546875 20.76171875 C-46.24780444138027 15.107636970833653 -44.172112005701976 10.758168008552971 -41 6 C-38.111696336903506 5.037232112301169 -36.20896636564041 4.863709482497541 -33.203125 4.82421875 C-21.531932118134463 4.562621345475399 -11.100262604504792 3.77023137435787 0 0 Z " fill="#4F5975" transform="translate(76,32)"/>
<path d="M0 0 C4.17443363320595 3.5007498192015305 8.31454939818778 6.979508434386666 12 11 C12 11.659999999999997 12 12.32 12 13 C12.659999999999997 13 13.319999999999993 13 14 13 C15.68933921999357 14.643681403236982 17.352599243384034 16.314287597881332 19 18 C19.928124999999994 18.721874999999997 20.856250000000003 19.44375 21.8125 20.1875 C22.534374999999997 20.785624999999996 23.256249999999994 21.383749999999992 24 22 C24 22.659999999999997 24 23.319999999999993 24 24 C24.659999999999997 24.247500000000002 25.319999999999993 24.495000000000005 26 24.75 C29.750345151768897 26.31264381323703 33.366055097341786 28.183027548670893 37 30 C37 36.599999999999994 37 43.2 37 50 C35.700625 50.55687499999999 34.401250000000005 51.11375000000001 33.0625 51.6875 C26.832315159104738 54.766991364213936 21.569959013708413 58.97282192676445 16.154541015625 63.278076171875 C11.937726830783703 66.61208511249514 7.850554256789863 69.64948480527939 3 72 C0 71 0 71 -1.1875 68.9375 C-1.5896874999999966 67.9784375 -1.5896874999999966 67.9784375 -2 67 C-1.4805078124999937 66.564296875 -0.9610156250000017 66.12859375 -0.42578125 65.6796875 C2.933081687213317 62.81130547228733 6.120565247193028 60.028290274552916 8.875 56.5625 C9.576250000000002 55.716875 10.277500000000003 54.87125 11 54 C11.659999999999997 54 12.319999999999993 54 13 54 C13.268124999999998 53.31937500000001 13.536249999999995 52.63875 13.8125 51.9375 C15 49 15 49 16.625 45.75 C18.6004812295576 40.36232391938837 19.098668865989097 35.98143046967127 17.0859375 30.51953125 C14.69254650893052 25.539733865355444 11.748147124308545 20.98786261064707 8.625 16.44140625 C0 3.48317307692308 0 3.48317307692308 0 0 Z " fill="#6588A4" transform="translate(91,44)"/>
<path d="M0 0 C0 11.219999999999999 0 22.439999999999998 0 34 C-13.200000000000003 34 -26.400000000000006 34 -40 34 C-38.79259539100869 25.548167737060822 -38.79259539100869 25.548167737060822 -36 22 C-33.3203125 20.11328125 -33.3203125 20.11328125 -30.125 18.3125 C-25.180610308152865 15.443956383674362 -20.65649300763978 12.312698325590091 -16.1875 8.75 C-5.141716073781282 0 -5.141716073781282 0 0 0 Z " fill="#849197" transform="translate(128,94)"/>
<path d="M0 0 C7.93846153846154 0 7.93846153846154 0 12.5625 1.75 C13.4506640625 2.0748437499999994 14.338828125 2.399687499999999 15.25390625 2.734375 C21.848884752136378 5.773881450486755 25.110107614458638 8.921011498397547 28.3125 15.25 C28.65861328125 15.880351562499996 29.0047265625 16.510703124999992 29.361328125 17.16015625 C31.967673479273742 22.149300768317374 32.2239610835098 24.79168866807838 33 31 C22.11 31 11.219999999999999 31 0 31 C0 20.769999999999996 0 10.539999999999992 0 0 Z " fill="#A4A6AC" transform="translate(0,97)"/>
<path d="M0 0 C0.3299999999999983 0 0.6600000000000001 0 1 0 C1.2898020496945506 4.630093212561803 0.6801581035832349 7.108451328272835 -1.6875 11.0625 C-4.7294702128305275 16.767979342844114 -6.1918161883587075 22.322504197539807 -7.5625 28.625 C-9.682794076014229 38.24709242234299 -11.815594954658456 47.6570860898603 -20 54 C-22.475 54.495000000000005 -22.475 54.495000000000005 -25 55 C-25 41.14 -25 27.28 -25 13 C-21.04 12.009999999999998 -17.08 11.019999999999996 -13 10 C-9.529787005817182 8.172262479966548 -9.529787005817182 8.172262479966548 -6.875 5.9375 C-5.985546875000001 5.245273437500003 -5.096093750000001 4.553046875 -4.1796875 3.83984375 C-1.9759252258812978 2.0320902421613667 -1.9759252258812978 2.0320902421613667 0 0 Z " fill="#9FD0D3" transform="translate(25,34)"/>
<path d="M0 0 C4.619999999999997 0 9.240000000000002 0 14 0 C13.19642857142857 9.508928571428568 13.19642857142857 9.508928571428568 12.0625 14.125 C10.852571973429853 19.098160050387584 10.342168800324544 24.15264243776854 9.873291015625 29.24072265625 C9.392234424163775 33.73168625351114 8.23455183937358 37.08496775826373 6 41 C2.039999999999999 40.505 2.039999999999999 40.505 -2 40 C-2.027497657402879 38.6251171298561 -2.0466163983544767 37.25006608531246 -2.0625 35.875 C-2.074101562500001 35.109296875 -2.0857031249999984 34.34359375 -2.09765625 33.5546875 C-2 30.999999999999996 -2 30.999999999999996 -1.513671875 28.21875 C-1.0154860599307582 25.097038124585136 -0.7975095619926336 22.102407860938666 -0.68359375 18.9453125 C-0.6416992187499986 17.83671875 -0.5998046875000007 16.728125 -0.556640625 15.5859375 C-0.5173242187500016 14.443828125 -0.4780078124999996 13.30171875 -0.4375 12.125 C-0.39431640624999886 10.9596875 -0.3511328125000013 9.794375 -0.306640625 8.59375 C-0.20098437181637863 5.729291580355136 -0.10002900522689373 2.8646604475617123 0 0 Z " fill="#99978E" transform="translate(28,0)"/>
<path d="M0 0 C7.590000000000003 0 15.180000000000007 0 23 0 C22.340000000000003 2.97 21.680000000000007 5.94 21 9 C20.835000000000008 9.9796875 20.67 10.959375 20.5 11.96875 C18.889732786378715 20.120727768957764 14.584717917089208 24.196558358354377 8 29 C6.348454999207604 30.024781385533235 4.686071750035836 31.03307713259594 3 32 C3.0348046874999994 31.1401953125 3.069609374999999 30.280390625 3.10546875 29.39453125 C3.279235260104116 21.806726975453728 2.6521225660466996 15.16728330960664 0.65625 7.83984375 C0 5 0 5 0 0 Z " fill="#99978E" transform="translate(74,0)"/>
</svg>
