<?xml version="1.0" encoding="UTF-8"?>
<!-- Generator: visioncortex VTracer 0.6.0 -->
<svg version="1.1" xmlns="http://www.w3.org/2000/svg" width="128" height="128">
<path d="M0 0 C42.24 0 84.48 0 128 0 C128 42.24 128 84.48 128 128 C85.75999999999999 128 43.519999999999996 128 0 128 C0 85.75999999999999 0 43.519999999999996 0 0 Z " fill="#718E7D" transform="translate(0,0)"/>
<path d="M0 0 C1.1678906249999983 0.978398437500001 1.1678906249999983 0.978398437500001 2.359375 1.9765625 C5.407840350423555 4.312516718223961 7.491440930985334 4.7485734884975574 11.25 5.375 C17.56301309248991 6.762866463399698 22.555598599409734 8.114551132175585 27 13 C29.3506488778703 16.81476732180095 31.159979486823957 20.89720825123711 33.03125 24.9609375 C35.17373781109828 29.533996642613168 37.98399283383853 33.40279771982043 41.046875 37.40625 C45.70086777779814 43.58675240891592 49.54363738094021 50.08727476188042 53 57 C57.290000000000006 58.31999999999999 61.58 59.64 66 61 C66 71.56 66 82.12 66 93 C50.734153977755895 94.5265846022244 38.79999047338674 94.92424542692363 24.168701171875 90.134521484375 C17.982051846749158 88.1197765111959 13.038518183218855 86.81432524354109 6.7265625 89.27734375 C5.1912890625000045 90.09912109375 5.1912890625000045 90.09912109375 3.625 90.9375 C2.5860156250000017 91.4827734375 1.5470312500000034 92.028046875 0.4765625 92.58984375 C-1.8689621955400355 93.78076443778035 -1.8689621955400355 93.78076443778035 -3 95 C-9.314117004580083 95.42424078418232 -14.2503206393487 94.3202989220712 -20.1875 92.25 C-20.968027343749995 91.99734375 -21.748554687500004 91.7446875 -22.552734375 91.484375 C-27.020041593210628 89.96874914140437 -30.61567290740495 88.42406478839851 -34 85 C-35.170483402310985 79.44020383902281 -34.00163186745217 76.48328626390797 -31.0625 71.6875 C-27.07983065508666 65.8841818116977 -22.852053297392516 60.10898483656197 -18 55 C-17.340000000000003 55 -16.68 55 -16 55 C-14.793719924667656 52.66785852102413 -13.834526204976669 50.50357861493001 -13 48 C-13.734765625000001 47.731875 -14.469531250000003 47.46375 -15.2265625 47.1875 C-17.922345167941913 46.03324939288121 -20.005278586046366 44.71099019058024 -22.375 43 C-28.873842115389017 38.59236945639458 -35.33177631936964 37.660753967945475 -43 37 C-42.41614445718148 32.08029919657837 -40.235292479564556 28.34832430203211 -37.8125 24.125 C-37.40249755859375 23.409731445312502 -36.9924951171875 22.694462890625 -36.570068359375 21.95751953125 C-29.233055454806475 9.377722685634371 -20.89884717781679 3.872537385955763 -6.8828125 -0.43359375 C-3.9503487580379755 -1.0097553253177427 -2.6986736083198792 -1.1854497429259387 0 0 Z " fill="#4A403A" transform="translate(62,9)"/>
<path d="M0 0 C0.3299999999999983 0 0.6600000000000001 0 1 0 C1.0651041666666679 1.953125 1.1302083333333321 3.90625 1.1953125 5.859375 C2.4908203592381355 9.305677460497563 4.8424143168164235 10.248975212052741 8 12 C10.581440443415943 13.08400198960743 13.196735110995363 13.938868347901447 15.875 14.75 C16.5440234375 14.970429687500001 17.213046875000003 15.190859375000002 17.90234375 15.41796875 C23.663823329568615 17.20524854250587 29.152061214687215 18.27049929440284 34.86328125 15.72265625 C35.6715234375 15.1748046875 36.479765625 14.626953125 37.3125 14.0625 C42.42937697197803 10.66463664184191 45.76925663486857 9.599228567468927 52 10 C54.26151111235254 10.614800302397214 56.44919233743474 11.36666094297098 58.663330078125 12.13427734375 C72.87940878958021 17.010011468019286 86.03876961321866 16.442203853796485 101 16 C101 24.58 101 33.16 101 42 C58.75999999999999 42 16.519999999999996 42 -27 42 C-27 30.78 -27 19.560000000000002 -27 8 C-22.05 7.340000000000003 -17.1 6.680000000000007 -12 6 C-5.389593100399672 3.9330147858565425 -5.389593100399672 3.9330147858565425 0 0 Z " fill="#72816A" transform="translate(27,86)"/>
<path d="M0 0 C2.75 2.5625000000000036 2.75 2.5625000000000036 5 5 C2.7928353704811855 6.272899053462218 0.5843251470937574 7.543360504033664 -1.625 8.8125 C-2.242460937499999 9.16892578125 -2.8599218749999977 9.5253515625 -3.49609375 9.892578125 C-6.404491355334116 11.561079909112728 -9.287684723883146 13.138414348283401 -12.3125 14.59375 C-15.937620360685472 16.490615305009843 -17.204782085913322 18.34051732897715 -19 22 C-19.521047450914686 25.874831747647235 -19.24367703572583 29.268968892822507 -18 33 C-15.397690998521199 34.3011545007394 -13.281214357267594 34.183743667715994 -10.375 34.3125 C-3.903899046689176 34.83885749380997 1.1831920542478116 35.86203580390077 5.64453125 40.83203125 C6.672995670068616 42.19377021631871 7.664605296300863 43.584140112534605 8.6171875 45 C9.892746210303343 46.84487587478902 11.237551882838147 48.29105217931151 12.8125 49.875 C15.826147761846173 54.180211088351676 15.811829859272763 57.8566828201224 16 63 C16.400034199096368 72.33413131224852 19.70590062873356 80.75133469612541 24 89 C23.128593749999993 88.858203125 22.2571875 88.71640625 21.359375 88.5703125 C11.891307844784748 87.40217434448643 5.999175715958984 88.81664620857299 -2 94 C-2.3299999999999983 94.33 -2.6599999999999966 94.66 -3 95 C-9.314117004580083 95.42424078418232 -14.2503206393487 94.3202989220712 -20.1875 92.25 C-20.968027343749995 91.99734375 -21.748554687500004 91.7446875 -22.552734375 91.484375 C-27.020041593210628 89.96874914140437 -30.61567290740495 88.42406478839851 -34 85 C-35.170483402310985 79.44020383902281 -34.00163186745217 76.48328626390797 -31.0625 71.6875 C-27.07983065508666 65.8841818116977 -22.852053297392516 60.10898483656197 -18 55 C-17.340000000000003 55 -16.68 55 -16 55 C-14.793719924667656 52.66785852102413 -13.834526204976669 50.50357861493001 -13 48 C-13.734765625000001 47.731875 -14.469531250000003 47.46375 -15.2265625 47.1875 C-17.922345167941913 46.03324939288121 -20.005278586046366 44.71099019058024 -22.375 43 C-28.873842115389017 38.59236945639458 -35.33177631936964 37.660753967945475 -43 37 C-42.41614445718148 32.08029919657837 -40.235292479564556 28.34832430203211 -37.8125 24.125 C-37.40249755859375 23.409731445312502 -36.9924951171875 22.694462890625 -36.570068359375 21.95751953125 C-29.233055454806475 9.377722685634371 -20.89884717781679 3.872537385955763 -6.8828125 -0.43359375 C-2.672967025748818 -1.260731410930111 -2.672967025748818 -1.260731410930111 0 0 Z " fill="#4D6E5D" transform="translate(62,9)"/>
<path d="M0 0 C21.78 0 43.56 0 66 0 C66 23.1 66 46.2 66 70 C53.326086956521735 67.69565217391303 53.326086956521735 67.69565217391303 50 63 C48.81374130998543 60.63630238718287 47.69333794773419 58.24593751120685 46.5703125 55.8515625 C44.76313837152425 52.56987813734503 42.545685737177365 49.76549357869608 40.1875 46.875 C35.76616200406181 41.42352733585627 32.59408734375279 35.76158912130859 29.688232421875 29.38037109375 C26.375005245133565 22.20695987807358 22.22462602008855 18.78316251175161 15 16 C11.825803516571114 15.18186757304435 8.654705297956156 14.456079540639475 5.44140625 13.80859375 C4.6357421875 13.5417578125 3.830078125 13.274921875 3 13 C2.6700000000000017 12.01 2.3400000000000034 11.02 2 10 C1.009999999999998 9.67 0.020000000000003126 9.34 -1 9 C-0.6700000000000017 6.029999999999999 -0.3400000000000034 3.0599999999999996 0 0 Z " fill="#726A56" transform="translate(62,0)"/>
<path d="M0 0 C5.053652922016582 -0.09897181076561878 10.106740242235304 -0.17151602672868194 15.1611328125 -0.2197265625 C16.879982789824282 -0.2398262793227275 18.598764520482874 -0.26711088611091327 20.3173828125 -0.3017578125 C22.78988489399437 -0.35035033895711365 25.26148210430047 -0.3729843484884441 27.734375 -0.390625 C28.884591369628907 -0.42159271240234375 28.884591369628907 -0.42159271240234375 30.05804443359375 -0.45318603515625 C32.2412109375 -0.4541015625 32.2412109375 -0.4541015625 36 0 C37.31999999999999 1.3199999999999932 38.64 2.6400000000000006 40 4 C43.629999999999995 4.989999999999995 47.25999999999999 5.980000000000004 51 7 C51 17.560000000000002 51 28.120000000000005 51 39 C18.358490566037744 42.26415094339623 18.358490566037744 42.26415094339623 8.26953125 34.703125 C6.739944482638265 32.87703372081123 5.922959214857116 31.203428323216187 5 29 C4.539804687499995 27.91203125 4.079609375000004 26.824062499999997 3.60546875 25.703125 C0.20956782759745352 16.85365703089174 -0.26223492296813333 9.491239227808705 0 0 Z " fill="#264242" transform="translate(77,63)"/>
<path d="M0 0 C20.46 0 40.92 0 62 0 C61.67 2.64 61.34 5.28 61 8 C59.816640625 8.3519140625 58.63328125 8.703828125 57.4140625 9.06640625 C40.071585140050274 14.393234075844 31.59439349723238 21.014428095147775 23 37 C21.949444261548027 39.13680997287076 20.9124338127519 41.277045813684836 19.90771484375 43.435791015625 C19 45 19 45 17 46 C15.444585315506497 46.255918321031835 13.879847982244499 46.45698413666598 12.3125 46.625 C11.06919921875 46.768085937500004 11.06919921875 46.768085937500004 9.80078125 46.9140625 C7.000000000000006 47 7.000000000000006 47 0 46 C0 30.82 0 15.639999999999997 0 0 Z " fill="#9AA16E" transform="translate(0,0)"/>
<path d="M0 0 C1.9375 1.875 1.9375 1.875 3.9375 5.875 C-27.742500000000007 5.875 -59.4225 5.875 -92.0625 5.875 C-92.3925 5.215000000000003 -92.7225 4.555000000000007 -93.0625 3.875 C-87.03725658795602 -6.395301270529515 -80.14435496292565 -11.74997542910333 -68.6875 -14.74609375 C-46.23386911489999 -19.833244497405474 -18.63997906519046 -12.933863024826039 0 0 Z " fill="#A3AD8A" transform="translate(117.0625,122.125)"/>
<path d="M0 0 C11.219999999999999 0 22.439999999999998 0 34 0 C34 14.520000000000001 34 29.040000000000003 34 44 C22.534320586789832 42.56679007334873 15.906117050732206 37.75322027654641 8.55859375 29.015625 C5.7055157463698265 25.325930138162477 4.678652035993792 22.895497524868066 4.0625 18.3125 C3.4871598676296003 14.506049684237476 2.808925336045604 11.074715274367204 1.375 7.5 C0 4 0 4 0 0 Z " fill="#A19A7E" transform="translate(94,0)"/>
<path d="M0 0 C14.216078711455197 4.875734124269286 27.375439535093662 4.307926510046485 42.336669921875 3.86572265625 C42.336669921875 12.445722656249998 42.336669921875 21.025722656249997 42.336669921875 29.86572265625 C35.336669921875 29.86572265625 35.336669921875 29.86572265625 32.961669921875 27.74072265625 C32.09541992187499 26.791972656249996 31.229169921875 25.843222656249992 30.336669921875 24.86572265625 C28.973409425053845 23.801780831385585 27.57366943474659 22.783657522377027 26.149169921875 21.80322265625 C25.474990234375 21.337871093749996 24.800810546875 20.872519531249992 24.106201171875 20.39306640625 C16.936718810400123 16.439233397312506 9.278109901836899 14.087200039998635 1.336669921875 12.24072265625 C0.44181884765625057 12.029074707031242 -0.45303222656249886 11.817426757812498 -1.375 11.599365234375 C-10.070847548730583 9.62648667491078 -18.786281388045552 8.59192810464478 -27.663330078125 7.86572265625 C-26.172435649368232 3.70928970335234 -23.84124954650072 2.5363074862083295 -19.975830078125 0.61572265625 C-18.961337890625003 0.09494140625000114 -17.946845703125007 -0.4258398437499977 -16.901611328125 -0.96240234375 C-10.69306274143608 -3.2091629903201806 -5.99752197114455 -2.0792727319881124 0 0 Z " fill="#5F987E" transform="translate(85.663330078125,98.13427734375)"/>
<path d="M0 0 C2.375 1.6875 2.375 1.6875 3.17578125 3.46484375 C3.452540499907599 6.552608714655435 2.3967768246803587 8.232499056690056 0.9375 10.9375 C0.4644140624999977 11.829531250000002 -0.008671875000004547 12.721562500000001 -0.49609375 13.640625 C-0.8686328125000102 14.31609375 -1.241171874999992 14.9915625 -1.625 15.6875 C-2.2849999999999966 15.6875 -2.944999999999993 15.6875 -3.625 15.6875 C-3.717812500000008 16.5228125 -3.717812500000008 16.5228125 -3.8125 17.375 C-4.960939082688782 20.64363431226807 -7.1560443300644465 22.274656958926627 -9.625 24.6875 C-11.379271187667896 26.96947878070621 -12.995256839242998 29.312731394325503 -14.625 31.6875 C-15.697500000000005 31.213124999999998 -16.769999999999996 30.738750000000003 -17.875 30.25 C-22.541077418058777 28.455354839208162 -27.025060738122008 28.24626894018575 -31.98828125 28.09375 C-34.974059892311736 27.633718920295678 -35.83050453756498 27.05693090185595 -37.625 24.6875 C-39.232256912340766 21.47298617531846 -39.09897924484028 18.174169239441483 -38.625 14.6875 C-31.498537983088262 1.198125467988497 -13.812137771372079 -5.000946434462307 0 0 Z " fill="#324323" transform="translate(80.625,16.3125)"/>
<path d="M0 0 C5.939999999999998 1.4849999999999994 5.939999999999998 1.4849999999999994 12 3 C12 13.560000000000002 12 24.120000000000005 12 35 C-17.470977222630424 37.94709772226304 -17.470977222630424 37.94709772226304 -29 32 C-32.665506548062524 28.770681078742413 -34.55546897695328 24.88984125351388 -35 20 C-31.815436295586267 20.985698289461396 -28.987180079403913 22.007091870968054 -26.0625 23.625 C-22.300521015817054 25.31405178881684 -20.088797099333405 25.573866259555558 -16 25 C-9.319591888933616 21.277734098930168 -7.231232827798905 17.287883790048042 -4.625 10.25 C-3.951955111195673 8.525481209440969 -3.2775500380765976 6.801492438969973 -2.6015625 5.078125 C-2.3161962890625034 4.319189453125006 -2.030830078125007 3.560253906249997 -1.73681640625 2.7783203125 C-1 1 -1 1 0 0 Z " fill="#265C48" transform="translate(116,67)"/>
<path d="M0 0 C2.75 2.5625000000000036 2.75 2.5625000000000036 5 5 C2.7928353704811855 6.272899053462218 0.5843251470937574 7.543360504033664 -1.625 8.8125 C-2.242460937499999 9.16892578125 -2.8599218749999977 9.5253515625 -3.49609375 9.892578125 C-6.404491355334116 11.561079909112728 -9.287684723883146 13.138414348283401 -12.3125 14.59375 C-15.937620360685472 16.490615305009843 -17.204782085913322 18.34051732897715 -19 22 C-19.521047450914686 25.874831747647235 -19.24367703572583 29.268968892822507 -18 33 C-16.500143907040957 34.66710346381311 -16.500143907040957 34.66710346381311 -15 36 C-24.893984595643566 39.48538093710171 -32.9259228867154 38.77702629282558 -43 37 C-42.41614445718148 32.08029919657837 -40.235292479564556 28.34832430203211 -37.8125 24.125 C-37.40249755859375 23.409731445312502 -36.9924951171875 22.694462890625 -36.570068359375 21.95751953125 C-29.233055454806475 9.377722685634371 -20.89884717781679 3.872537385955763 -6.8828125 -0.43359375 C-2.672967025748818 -1.260731410930111 -2.672967025748818 -1.260731410930111 0 0 Z " fill="#5E713C" transform="translate(62,9)"/>
<path d="M0 0 C12.21 0 24.42 0 37 0 C35.088474085598676 5.734577743203969 33.47899356609287 8.035234963255288 29.1875 11.8125 C28.612900390625 12.3273193359375 28.03830078125 12.842138671875 27.4462890625 13.37255859375 C18.77685464644971 20.991939031808354 11.55167625190197 26.432960832910673 0 29 C0 19.43 0 9.86 0 0 Z " fill="#DED9B5" transform="translate(0,0)"/>
<path d="M0 0 C6.715187439033187 0.4624230871190491 12.919575298178486 1.826083709975137 19.375 3.6875 C20.756552734374992 4.084611816406252 20.756552734374992 4.084611816406252 22.166015625 4.48974609375 C30.880114663780006 7.096277838035263 39.360491737018435 10.574669422921076 46 17 C46.66 18.319999999999993 47.31999999999999 19.64 48 21 C32.489999999999995 21 16.97999999999999 21 1 21 C-1.3380281690140805 6.9718309859154886 -1.3380281690140805 6.9718309859154886 -1 1 C-0.6700000000000017 0.6700000000000017 -0.3400000000000034 0.3400000000000034 0 0 Z " fill="#A0C5A1" transform="translate(73,107)"/>
<path d="M0 0 C10.560000000000002 0 21.120000000000005 0 32 0 C37.625 16.875000000000018 37.625 16.875000000000018 37 23 C29.74599242670969 22.164916653933933 23.985308540405683 20.772240182566403 17.59765625 17.23046875 C13.681293516232245 15.375349560320537 9.606502257772547 14.604332927002513 5.37109375 13.7734375 C4.588632812499995 13.518203125 3.806171875000004 13.26296875 3 13 C2.6700000000000017 12.01 2.3400000000000034 11.02 2 10 C1.009999999999998 9.67 0.020000000000003126 9.34 -1 9 C-0.6700000000000017 6.029999999999999 -0.3400000000000034 3.0599999999999996 0 0 Z " fill="#6C8571" transform="translate(62,0)"/>
</svg>
