<?xml version="1.0" encoding="UTF-8"?>
<!-- Generator: visioncortex VTracer 0.6.0 -->
<svg version="1.1" xmlns="http://www.w3.org/2000/svg" width="128" height="128">
<path d="M0 0 C42.24 0 84.48 0 128 0 C128 42.24 128 84.48 128 128 C85.75999999999999 128 43.519999999999996 128 0 128 C0 85.75999999999999 0 43.519999999999996 0 0 Z " fill="#C8B192" transform="translate(0,0)"/>
<path d="M0 0 C8.909999999999997 0 17.819999999999993 0 27 0 C27 42.24 27 84.48 27 128 C19.08 128 11.159999999999997 128 3 128 C3 119.62962962962963 3 119.62962962962963 4 115 C5.164186605119767 102.37078581534632 2.528153052645223 93.9260001166252 -5.1875 83.8125 C-10.972953099888656 75.49116588257483 -12.011653938160919 61.86362589706888 -11 52 C-10.694510732666402 50.66001298646857 -10.368915299119408 49.323929904097845 -10 48 C-20.76650858453668 50.859354653756775 -27.14761764652387 53.3210599538664 -33 63 C-35.506440188704005 60.05765716978226 -36.89984451389277 57.91162815185438 -37 54 C-35.29703902484289 51.705609296995995 -33.655940636091884 49.786797671088316 -31.6875 47.75 C-27.05877244319771 42.656662829147194 -24.45753021682107 39.09171836072649 -24 32 C-24.33 31.01 -24.659999999999997 30.02 -25 29 C-23.2675 29.12375 -23.2675 29.12375 -21.5 29.25 C-16.577269612948285 29.21521038595723 -12.961061016467056 27.921691700162683 -9 25 C-1.6879484144268986 17.542354466926543 -1.034175519650944 10.341755196509396 0 0 Z " fill="#87B084" transform="translate(101,0)"/>
<path d="M0 0 C2.263818481640861 1.9997063254494272 4.046436376684348 4.009375515234147 5.90625 6.3828125 C10.120660723476462 10.813168235753771 14.745818921462728 14.471624355192503 19.578125 18.19921875 C21.973390506521675 20.44578488782821 22.590717340577527 21.208925161103338 22.90625 24.3828125 C23.05900390625 25.45015625 23.05900390625 25.45015625 23.21484375 26.5390625 C23.69635259443548 35.29376876246327 19.96662534541403 42.06449146045873 14.99609375 49.078125 C12.824085024869348 51.473424341732866 11.13316825813596 52.5983913404428 8.21875 53.9453125 C7.342187500000001 54.3591015625 6.465625000000003 54.772890625 5.5625 55.19921875 C3.1244985730265142 56.285563503489655 0.6738974533013007 57.33601161665749 -1.78125 58.3828125 C-6.279858596387157 60.34845675348356 -11.825089698599022 62.845491897198045 -14.09375 67.3828125 C-14.75375 67.3828125 -15.41375 67.3828125 -16.09375 67.3828125 C-16.34125 67.8984375 -16.58875 68.4140625 -16.84375 68.9453125 C-18.093749999999993 71.38281249999999 -18.093749999999993 71.38281249999999 -20.09375 74.34765625 C-22.82181831920215 79.11308769293751 -22.996136166463735 83.99479808018788 -23.34375 89.3828125 C-23.42109375 90.341875 -23.4984375 91.3009375 -23.578125 92.2890625 C-23.968098349790864 97.35871604728126 -24.09375 102.27961927690625 -24.09375 107.3828125 C-29.04375 107.3828125 -33.99375 107.3828125 -39.09375 107.3828125 C-39.09375 72.4028125 -39.09375 37.42281249999999 -39.09375 1.3828125 C-8.373749999999998 -4.377187500000002 -8.373749999999998 -4.377187500000002 0 0 Z " fill="#538ABC" transform="translate(39.09375,20.6171875)"/>
<path d="M0 0 C33.33 0 66.66 0 101 0 C101 11.008909304467656 100.34752468176985 17.471728171746914 92.890625 25.3359375 C88.09027176683145 29.561041792003724 83.37208620475363 30.39012772682165 77 30 C77.226875 30.680625 77.45375 31.36125 77.6875 32.0625 C78.24787258418304 37.33000229132059 75.5481241779398 41.51912982668263 72.37109375 45.52734375 C71.40206711271314 46.67160597351687 70.42406807784606 47.808326812347026 69.4375 48.9375 C68.94314453125 49.52595703125 68.4487890625 50.1144140625 67.939453125 50.720703125 C66.67669235193837 52.19193049388507 65.34336007034473 53.60198052147223 64 55 C63.34 55 62.68 55 62 55 C62.018046875 54.1169921875 62.03609375 53.233984375 62.0546875 52.32421875 C61.80123880284583 45.35544779892365 61.80123880284583 45.35544779892365 58.64404296875 39.38623046875 C55.23746405646553 36.318795412621846 51.439269709267485 33.80470998193876 47.66015625 31.22412109375 C44.7406345333515 29.071403169150653 42.56224351344618 26.38902145110188 40.33203125 23.55859375 C38.496421109816396 21.410768395357017 36.82280777342498 20.105526465799212 33.982177734375 19.7412109375 C33.22364501953125 19.738955078125 32.4651123046875 19.73669921875 31.68359375 19.734375 C30.8413525390625 19.7305078125 29.999111328125 19.726640625 29.13134765625 19.72265625 C28.2423779296875 19.7316796875 27.353408203125 19.740703125 26.4375 19.75 C25.08084228515625 19.75580078125 25.08084228515625 19.75580078125 23.69677734375 19.76171875 C18.333988567112243 19.83132769031331 13.269995984623286 20.139012506110735 8.0703125 21.5625 C6 22 6 22 0 22 C0 14.739999999999998 0 7.479999999999999 0 0 Z " fill="#60A8BD" transform="translate(0,0)"/>
<path d="M0 0 C-0.03480468749999943 0.8133984374999983 -0.06960937499999886 1.6267968749999966 -0.10546875 2.46484375 C-0.4596440524983052 17.458264889094778 1.0288962430815616 29.65246331925229 10 42 C18.03213875956945 54.11831408862723 15.129565078984882 66.15782698659828 13 80 C3.430000000000007 80 -6.140000000000001 80 -16 80 C-17.980000000000004 76.04 -19.960000000000008 72.08 -22 68 C-22.9075 66.30875 -23.814999999999998 64.6175 -24.75 62.875 C-27.180679574248103 58.02143149116483 -28.19047243147289 53.33388720151751 -29 48 C-29.28875 46.7625 -29.5775 45.525000000000006 -29.875 44.25 C-30.039769950159084 39.965981295863855 -28.488830821655412 38.41325369827028 -26 35 C-24.195615572364076 30.489038930910198 -24.00792223060904 26.89393205700199 -24.25 22.125 C-24.35680903507202 15.560352382881192 -22.415188802229693 11.766841007717012 -18 7 C-13.025092931855 2.167233133802 -6.942566598133112 0 0 0 Z " fill="#C8CEB0" transform="translate(91,48)"/>
<path d="M0 0 C8.909999999999997 0 17.819999999999993 0 27 0 C27 13.860000000000001 27 27.720000000000002 27 42 C15.062499999999517 41.749999999999986 15.062499999999517 41.749999999999986 11.355712890625 41.6396484375 C3.173360483222936 41.5573002759451 -2.560765577678751 43.079451037946555 -9.375 47.5625 C-12.101114002048774 49.055371953502906 -14.425248520419274 49.6493028063998 -17.4375 50.375 C-25.157956063638267 52.37775271543305 -28.931681925840223 56.27162780042805 -33 63 C-35.506440188704005 60.05765716978226 -36.89984451389277 57.91162815185438 -37 54 C-35.29703902484289 51.705609296995995 -33.655940636091884 49.786797671088316 -31.6875 47.75 C-27.05877244319771 42.656662829147194 -24.45753021682107 39.09171836072649 -24 32 C-24.33 31.01 -24.659999999999997 30.02 -25 29 C-23.2675 29.12375 -23.2675 29.12375 -21.5 29.25 C-16.577269612948285 29.21521038595723 -12.961061016467056 27.921691700162683 -9 25 C-1.6879484144268986 17.542354466926543 -1.034175519650944 10.341755196509396 0 0 Z " fill="#89A8A5" transform="translate(101,0)"/>
<path d="M0 0 C2.7280366224466377 1.6511800609545446 3.6982484739618613 2.9810987432478484 4.6015625 6.03125 C5.685698092986762 12.578578679214154 4.163720559678815 17.830718253509417 2.0078125 24.01953125 C0.7138810812763552 27.84615788754318 0 31.14732526943679 0 35.1875 C0 38 0 38 -1 40 C-2.6542758807065 40.69684541523566 -4.32380913852478 41.35765553000809 -6 42 C-8.885439280714124 43.54049731999399 -11.727270453832983 45.147495331126095 -14.57421875 46.7578125 C-17.000000000000007 48 -17.000000000000007 48 -19 48 C-19 48.66 -19 49.31999999999999 -19 50 C-20.55575978421283 50.8458499797662 -22.11996120403886 51.676183990443775 -23.6875 52.5 C-24.5576171875 52.9640625 -25.427734375 53.428124999999994 -26.32421875 53.90625 C-29 55 -29 55 -34 55 C-34 39.489999999999995 -34 23.979999999999997 -34 8 C-28.72 6.350000000000001 -23.439999999999998 4.699999999999999 -18 3 C-15.323467156630002 2.0267153296836398 -12.65141283155457 1.039769737864539 -10 0 C-6.194268707079942 -1.2685770976400192 -3.8943095183898357 -0.888175855071367 0 0 Z " fill="#2277C5" transform="translate(34,23)"/>
<path d="M0 0 C2.263818481640861 1.9997063254494272 4.046436376684348 4.009375515234147 5.90625 6.3828125 C10.120660723476462 10.813168235753771 14.745818921462728 14.471624355192503 19.578125 18.19921875 C21.973390506521675 20.44578488782821 22.590717340577527 21.208925161103338 22.90625 24.3828125 C23.05900390625 25.45015625 23.05900390625 25.45015625 23.21484375 26.5390625 C23.696175480802403 35.29054851458913 19.96521278763575 42.03819868567676 15.01953125 49.0625 C12.76082758815037 51.54248146975726 10.858767453843292 52.76283814410161 7.84375 54.1953125 C6.986523437499997 54.6142578125 6.129296875000001 55.033203125 5.24609375 55.46484375 C2.90625 56.3828125 2.90625 56.3828125 -0.09375 56.3828125 C-5.207945045934693 45.8195643991706 -8.154787640179723 38.26356186660181 -4.292236328125 26.687255859375 C-3.622945223308882 24.778571439873176 -2.9062178599637676 22.88672100940469 -2.1875 20.99609375 C-0.49181554429404173 15.39427903025711 -0.39251600766269945 10.635211929544745 -3.09375 5.3828125 C-5.34258705875704 3.13397544124296 -6.858366915940195 2.713842484870021 -9.9765625 2.3515625 C-15.879518324360305 2.4386909992525503 -21.460497230598964 5.032807317161236 -26.71875 7.5078125 C-30.88685132688653 9.45441240667428 -34.51827072378175 10.050050370820493 -39.09375 10.3828125 C-39.09375 7.412812500000001 -39.09375 4.442812499999999 -39.09375 1.3828125 C-10.285703059513828 -5.37661750838223 -10.285703059513828 -5.37661750838223 0 0 Z " fill="#4977A2" transform="translate(39.09375,20.6171875)"/>
<path d="M0 0 C1.3200000000000003 0 2.6400000000000006 0 4 0 C7.28216673638147 9.00642181828485 9.003200306246754 18.17312376230916 4.88671875 27.20703125 C4.594101562500001 27.798710937500005 4.301484375000001 28.390390624999995 4 29 C3.525624999999991 30.155 3.0512500000000102 31.310000000000002 2.5625 32.5 C0 35 0 35 -2.5390625 35.26171875 C-4.615284441199385 35.210752061520935 -6.691004054810627 35.13520347063073 -8.765625 35.0390625 C-15.293175332559393 34.96022735105605 -21.661085514892235 36.311005207570304 -26.625 40.75 C-34.77024346093464 49.97996111311721 -40.22119554750051 60.84483624125346 -42 73 C-43.32 73 -44.64 73 -46 73 C-47.685610338613586 62.65855278742475 -48.2782517821574 48.29402651587276 -42.5 39.0625 C-41.675 38.051874999999995 -40.85 37.04124999999999 -40 36 C-39.34 35.00999999999999 -38.68 34.02000000000001 -38 33 C-37.34 33 -36.68 33 -36 33 C-35.7486328125 32.4005859375 -35.497265625 31.801171874999994 -35.23828125 31.18359375 C-31.844556003905687 25.199075098369974 -24.39976761642491 22.65727991149049 -18.25 20.4375 C-9.106265621220892 17.06037162316869 -5.484069669343796 11.372155395293788 -1 3 C-0.6700000000000017 2.009999999999998 -0.3400000000000034 1.0200000000000031 0 0 Z " fill="#96959D" transform="translate(61,55)"/>
<path d="M0 0 C-0.011601562500004547 0.9410156249999986 -0.023203124999994884 1.8820312499999972 -0.03515625 2.8515625 C-0.044179687500005116 4.096796875000003 -0.05320312499999602 5.342031249999998 -0.0625 6.625 C-0.07410156250000455 7.854765624999999 -0.08570312499999488 9.084531249999998 -0.09765625 10.3515625 C-0.008406668099226522 13.685926879813081 0.3733136167416262 16.73094192613729 1 20 C1.4375 23.0625 1.4375 23.0625 1 26 C-0.831684700467278 27.990723192424014 -2.8003154518364965 29.383905229920686 -5 31 C-5.329999999999998 31.659999999999997 -5.659999999999997 32.31999999999999 -6 33 C-6.659999999999997 33 -7.319999999999993 33 -8 33 C-8.247500000000002 33.68062499999999 -8.495000000000005 34.36125 -8.75 35.0625 C-10.241979077103935 38.56865083119425 -12.06835510753207 41.71620368280452 -14 45 C-14.659999999999997 45 -15.319999999999993 45 -16 45 C-16.33 45.99000000000001 -16.659999999999997 46.97999999999999 -17 48 C-20.414820034117454 50.561115025588094 -22.74808535422862 51.3644498267804 -27 51 C-30.037383177570092 44.80373831775701 -30.037383177570092 44.80373831775701 -29.875 41.3125 C-29 39 -29 39 -27.5625 37.125 C-24.02471396816081 32.31361099669871 -23.950107966588362 27.874149713696255 -24.25 22.125 C-24.35680903507202 15.560352382881192 -22.415188802229693 11.766841007717012 -18 7 C-13.025092931855 2.167233133802 -6.942566598133112 0 0 0 Z " fill="#ACBDAE" transform="translate(91,48)"/>
<path d="M0 0 C11.219999999999999 0 22.439999999999998 0 34 0 C34 10.994203195618269 33.35622977330789 17.486695772689192 25.88671875 25.33203125 C22.01362494794941 28.756070698189646 18.251045739356258 30.305322924363296 13 30.0625 C7.070614909346176 29.00327004205796 3.4614317983001683 25.027147333126045 0.0625 20.3125 C-2.1068414323320326 13.549259063906026 -1.150626067177484 6.903756403064887 0 0 Z " fill="#C1E4DA" transform="translate(67,0)"/>
<path d="M0 0 C0 16.83 0 33.66 0 51 C-7.920000000000002 51 -15.840000000000003 51 -24 51 C-22.518497612153652 44.33323925469141 -20.897854404678 37.8074915883757 -19.029052734375 31.253173828125 C-17.87401823756599 27.185371256119794 -16.7699081616625 23.117650301654834 -15.7734375 19.0078125 C-15.570168457031258 18.20013427734375 -15.366899414062502 17.3924560546875 -15.157470703125 16.560302734375 C-14.771209007541017 15.019852418666886 -14.401534116621562 13.475112528554973 -14.051513671875 11.926025390625 C-12.649495681249661 6.464843409308202 -10.661121249189804 4.188866699969964 -6 1 C-3.7784647774710436 0.1977789474201046 -2.3384951400760343 0 0 0 Z " fill="#7E7A52" transform="translate(128,77)"/>
<path d="M0 0 C5.939999999999998 0 11.879999999999995 0 18 0 C18 13.530000000000001 18 27.060000000000002 18 41 C8.858797972483714 39.857349746560466 8.858797972483714 39.857349746560466 4.6875 38.1875 C3.455800781250005 37.713769531249994 3.455800781250005 37.713769531249994 2.19921875 37.23046875 C-0.3772780009408052 35.78891195329245 -1.5319216744845932 34.55399022978552 -3 32 C-4.947363175416854 21.938623593679623 -1.5588014207220198 9.99303053641441 0 0 Z " fill="#385653" transform="translate(110,0)"/>
<path d="M0 0 C4.427849871787359 0.8726941588983124 8.921476093242944 1.1571854514826754 13.41796875 1.4765625 C13.41796875 3.456562500000004 13.41796875 5.436562499999994 13.41796875 7.4765625 C12.79148437500001 7.742109374999998 12.164999999999992 8.007656249999997 11.51953125 8.28125 C10.702265624999995 8.634453124999993 9.884999999999991 8.98765625 9.04296875 9.3515625 C8.230859374999994 9.699609374999994 7.418750000000003 10.047656250000003 6.58203125 10.40625 C4.279945755074522 11.40102316974614 4.279945755074522 11.40102316974614 2.41796875 13.4765625 C1.6131668705590414 16.014551947525433 0.8993826974732428 18.5274506772473 0.23046875 21.1015625 C-0.20277017876435366 22.71659121699905 -0.6377664255984143 24.33114921995275 -1.07421875 25.9453125 C-1.4295166015624972 27.262089843750005 -1.4295166015624972 27.262089843750005 -1.7919921875 28.60546875 C-3.2641222060128428 33.955360288229585 -4.8333430081973034 39.277113949510664 -6.39453125 44.6015625 C-6.708659667968746 45.6748681640625 -7.022788085937492 46.748173828125005 -7.346435546875 47.85400390625 C-8.090615710969828 50.395157254379626 -8.835782138430218 52.93601610976634 -9.58203125 55.4765625 C-9.912031249999998 55.4765625 -10.242031249999997 55.4765625 -10.58203125 55.4765625 C-10.473749999999995 54.65478515625 -10.473749999999995 54.65478515625 -10.36328125 53.81640625 C-8.478671255861016 37.71869588339615 -9.356628989050506 27.160601020798453 -18.89453125 13.7890625 C-21.995946675066435 9.36772353893923 -22.412141738657382 5.8280821072926585 -22.58203125 0.4765625 C-14.640752001769883 -3.74752220650538 -8.419201082049554 -1.9967662743268022 0 0 Z " fill="#9D9E6B" transform="translate(114.58203125,69.5234375)"/>
<path d="M0 0 C6.76300578034682 1.127167630057798 6.76300578034682 1.127167630057798 10.25 4.875 C10.91515625 5.573671875000002 11.5803125 6.2723437500000045 12.265625 6.9921875 C17.01240621345476 12.487335120981413 16.258908437925943 17.36650531181897 15.76953125 24.234375 C15.595783143549907 26.42007581737218 15.412881974840605 28.605077783043185 15.21875 30.7890625 C14.987354604753872 34.1856163373628 15 37.59557320550945 15 41 C10.05 41 5.1 41 0 41 C0 27.47 0 13.939999999999998 0 0 Z " fill="#494E60" transform="translate(0,87)"/>
<path d="M0 0 C9.9 0 19.8 0 30 0 C27.882402862992162 6.352791411023517 25.929884849499853 8.742860274708741 21.375 13.25 C20.7833203125 13.87390625 20.191640625 14.4978125 19.58203125 15.140625 C15.24982797483351 19.48218508569601 12.082595861145872 21.10157266721598 6 22 C4.02 22 2.04 22 0 22 C0 14.739999999999998 0 7.479999999999999 0 0 Z " fill="#81A1A6" transform="translate(0,0)"/>
<path d="M0 0 C1.3199999999999932 0 2.6400000000000006 0 4 0 C3.6700000000000017 3.6300000000000003 3.3400000000000034 7.260000000000001 3 11 C0.6023681482530776 8.602368148253074 0.6571941443458442 7.667265017368162 0.375 4.375 C0.3002343750000023 3.557734375 0.22546874999999744 2.74046875 0.1484375 1.8984375 C0.09945312499999659 1.271953125 0.050468750000000284 0.64546875 0 0 Z " fill="#89A8A5" transform="translate(63,0)"/>
</svg>
