<?xml version="1.0" encoding="UTF-8"?>
<!-- Generator: visioncortex VTracer 0.6.0 -->
<svg version="1.1" xmlns="http://www.w3.org/2000/svg" width="128" height="128">
<path d="M0 0 C42.24 0 84.48 0 128 0 C128 42.24 128 84.48 128 128 C85.75999999999999 128 43.519999999999996 128 0 128 C0 85.75999999999999 0 43.519999999999996 0 0 Z " fill="#45A3A4" transform="translate(0,0)"/>
<path d="M0 0 C3.324433378359089 1.9318287050549259 5.634592550800619 3.984893971420526 8 7 C8.473085937500002 7.595546874999997 8.946171875000005 8.19109375 9.43359375 8.8046875 C15.218410140083705 17.078519844274027 18.236831001543294 27.85391864398524 17.9375 37.875 C17.87887837099018 42.67024925300255 18.670225118128116 46.390113742844136 20 51 C19.648567438076583 57.07658847980318 18.160937826012244 61.4528344558163 15.375 66.8125 C14.146831174862541 69.19149114029489 13.049240637393012 71.52930207451871 12 74 C12.75150022786302 77.27773503944726 12.75150022786302 77.27773503944726 16 79 C16.328125 82.16015624999999 16.328125 82.16015624999999 16.25 86.0625 C16.234531250000003 87.3322265625 16.219062500000007 88.601953125 16.203125 89.91015625 C15.985773998904904 94.28643506051097 15.483874828666586 98.64512654200065 15 103 C-2.819999999999993 103 -20.64 103 -39 103 C-42.13960113960114 87.30199430199431 -42.13960113960114 87.30199430199431 -39.828125 82.6328125 C-37.653593568287654 79.50111552355958 -35.14427744803393 76.85159501784155 -32.4375 74.1875 C-31.94314453125 73.68541015625 -31.448789062499998 73.1833203125 -30.939453125 72.666015625 C-27.253486394557818 69 -27.253486394557818 69 -25 69 C-23.181066733689065 65.13476680908927 -22.2500131490347 62.2499254888034 -23 58 C-26.36194598348871 52.84575831008188 -31.138966195796314 48.99255516645525 -35.75 45 C-42.01280976962333 39.35573934342588 -43.96781832496851 35.304509394096065 -44.5 27 C-44.265567733714036 18.19028220378008 -41.2529078253699 7.109103619430904 -36 0 C-33.80078125 -1.58203125 -33.80078125 -1.58203125 -31.3125 -2.8125 C-30.5042578125 -3.2314453125 -29.696015625 -3.650390625 -28.86328125 -4.08203125 C-19.535787807761665 -7.0724281926002845 -8.790187092679844 -3.468734784186026 0 0 Z " fill="#89C6B7" transform="translate(79,25)"/>
<path d="M0 0 C9.24 0 18.48 0 28 0 C26.806122448979593 5.969387755102041 26.806122448979593 5.969387755102041 24 9 C23.34 9 22.68 9 22 9 C21.744765625 9.58265625 21.48953125 10.1653125 21.2265625 10.765625 C19.8825891260529 13.213882228973702 18.381897043123544 14.817432476992142 16.375 16.75 C15.743359375 17.36359375 15.11171875 17.9771875 14.4609375 18.609375 C13.978828125 19.06828125 13.49671875 19.5271875 13 20 C14.6008962710547 26.047830357317753 19.23767408301252 29.052206084175495 24.1328125 32.50390625 C29.415356272297018 36.236773897213574 31.996963792759527 39.242770450226296 33.70703125 45.6484375 C34.09192595362579 50.05163290947903 33.016911603975764 53.43611612228986 31.75 57.625 C29.47653256897065 65.55941700257245 28.020557034097866 73.39000354466755 27.0771484375 81.58837890625 C26.976923828125 82.3842138671875 26.87669921875 83.180048828125 26.7734375 84 C26.6952880859375 84.70125 26.617138671875 85.4025 26.53662109375 86.125 C25.84928881453859 88.52659777267681 24.97022250525717 89.48035635749461 23 91 C20.81249999999993 91.68750000000001 20.81249999999993 91.68750000000001 19 92 C18.774328101973595 104.23643180409849 19.205231384972574 115.88531184856488 21 128 C14.07 128 7.139999999999999 128 0 128 C0 85.75999999999999 0 43.519999999999996 0 0 Z " fill="#426232" transform="translate(0,0)"/>
<path d="M0 0 C0 26.069999999999993 0 52.14 0 79 C-11.219999999999999 79 -22.439999999999998 79 -34 79 C-33.75 67.18749999999986 -33.75 67.18749999999986 -33.6396484375 63.473388671875 C-33.629658203125004 62.50635009765625 -33.619667968749994 61.539311523437505 -33.609375 60.54296875 C-33.588427734375 59.55321044921875 -33.567480468750006 58.563452148437506 -33.5458984375 57.543701171875 C-33.762072422313864 54.84065084288707 -33.762072422313864 54.84065084288707 -36.0244140625 53.153564453125 C-36.676357421875 52.77288818359375 -37.32830078124999 52.3922119140625 -38 52 C-36.881722152828644 48.23851996860543 -35.44076349870814 44.778313539104744 -33.75 41.25 C-31.405889052162564 36.231815272957974 -29.72057527965056 31.144847474534743 -28.0625 25.875 C-25.060506420794624 16.519300498182474 -21.39762273003805 8.598415153358694 -13 3 C-8.552353513747917 1.0827771691025063 -4.86862976500791 0 0 0 Z " fill="#A2AE6F" transform="translate(128,49)"/>
<path d="M0 0 C8.353172826599405 5.699812046385468 11.956154082725845 16.32461633090336 14.3125 25.75 C15.290540026650802 30.941135526069594 15.845951296907998 35.76071715524356 13.9375 40.8125 C10.821897311856162 44.330115938226896 7.505711028098659 45.601032418827 2.98828125 46.3203125 C-3.0659328369584387 46.637287059526614 -8.90938870515265 45.38436421604257 -14.8125 44.1875 C-15.637177734375001 44.02241943359374 -16.461855468750002 43.85733886718751 -17.3115234375 43.687255859375 C-22.702337698317706 42.51866006516798 -26.907613113176666 41.23432122706737 -30.78515625 37.09375 C-33.493563161119845 32.42588471266805 -32.439793386421165 27.036662229974212 -31.34375 21.9609375 C-28.854428763441852 13.48436949620286 -24.947751484691473 7.135582805916073 -17.25 2.5625 C-11.511257155699198 -0.19651098283692292 -6.306477197237015 -1.2940787682428905 0 0 Z " fill="#A0E9D9" transform="translate(82,27)"/>
<path d="M0 0 C0.3299999999999983 0 0.6599999999999966 0 1 0 C1.146953124999996 1.3032421874999969 1.146953124999996 1.3032421874999969 1.296875 2.6328125 C2.7537095581138047 13.860485732359855 6.151483273909896 18.39132253143535 14.515625 25.765625 C22.655560558307073 33.08644754615038 22.655560558307073 33.08644754615038 23.5625 38.125 C22.34845239828472 44.33013218654477 18.710907104765994 47.30051870648046 14.0703125 51.23046875 C8.468897353522095 55.840450595572506 8.468897353522095 55.840450595572506 5 62 C4.786536495082416 68.08370989015125 5.328117341005381 73.9530560690484 6 80 C-0.269999999999996 80 -6.539999999999999 80 -13 80 C-15.536654995374974 68.0565827301095 -17.8371601587855 56.14945197028307 -15 44 C-13.02 43.34 -11.04 42.68000000000001 -9 42 C-8.899775390624999 41.2554052734375 -8.799550781249998 40.51081054687501 -8.6962890625 39.74365234375 C-3.7931960608773494 3.7931960608773565 -3.7931960608773494 3.7931960608773565 0 0 Z " fill="#6EAD9E" transform="translate(34,48)"/>
<path d="M0 0 C9.24 0 18.48 0 28 0 C26.806122448979593 5.969387755102041 26.806122448979593 5.969387755102041 24 9 C23.34 9 22.68 9 22 9 C21.744765625 9.58265625 21.48953125 10.1653125 21.2265625 10.765625 C19.8825891260529 13.213882228973702 18.381897043123544 14.817432476992142 16.375 16.75 C15.743359375 17.36359375 15.11171875 17.9771875 14.4609375 18.609375 C13.978828125 19.06828125 13.49671875 19.5271875 13 20 C14.6008962710547 26.047830357317753 19.23767408301252 29.052206084175495 24.1328125 32.50390625 C29.415356272297018 36.236773897213574 31.996963792759527 39.242770450226296 33.70703125 45.6484375 C34.09192595362579 50.05163290947903 33.016911603975764 53.43611612228986 31.75 57.625 C29.47653256897065 65.55941700257245 28.020557034097866 73.39000354466755 27.0771484375 81.58837890625 C26.976923828125 82.3842138671875 26.87669921875 83.180048828125 26.7734375 84 C26.6952880859375 84.70125 26.617138671875 85.4025 26.53662109375 86.125 C25.84928881453859 88.52659777267681 24.97022250525717 89.48035635749461 23 91 C20.81249999999993 91.68750000000001 20.81249999999993 91.68750000000001 19 92 C18.9801806640625 91.1738720703125 18.960361328125 90.347744140625 18.93994140625 89.49658203125 C18.861089275069773 86.38388326173217 18.774377903119152 83.2715226484185 18.6826171875 80.1591796875 C18.62624001116833 78.16877869938364 18.57864607375179 76.1781350975753 18.53125 74.1875 C18.400670787525247 61.73787579899164 18.400670787525247 61.73787579899164 14.375 50.1875 C10.082466752620146 46.23385095636066 5.197222225822892 43.59861111291145 0 41 C0 27.47 0 13.939999999999998 0 0 Z " fill="#4B856B" transform="translate(0,0)"/>
<path d="M0 0 C0.9900000000000091 0.6599999999999966 1.9799999999999898 1.3199999999999932 3 2 C3.328125 5.16015625 3.328125 5.16015625 3.25 9.0625 C3.2345312500000034 10.332226562499997 3.219062500000007 11.601953124999994 3.203125 12.91015625 C2.9857739989049037 17.286435060510968 2.483874828666586 21.645126542000654 2 26 C-15.819999999999993 26 -33.64 26 -52 26 C-55.12 10.400000000000006 -55.12 10.400000000000006 -52.6875 5.1875 C-48.80103387197835 0.14948835256451787 -48.80103387197835 0.14948835256451787 -46.1029052734375 -0.354034423828125 C-45.03393005371094 -0.33951736450195824 -45.03393005371094 -0.33951736450195824 -43.943359375 -0.32470703125 C-43.13241821289063 -0.32125274658203296 -42.32147705078125 -0.3177984619140659 -41.4859619140625 -0.314239501953125 C-40.61403198242188 -0.295618591308596 -39.74210205078125 -0.27699768066406705 -38.84375 -0.2578125 C-37.49573303222656 -0.24788772583008267 -37.49573303222656 -0.24788772583008267 -36.1204833984375 -0.237762451171875 C-33.24664224379485 -0.21433880555503038 -30.373567258971867 -0.17062742597397573 -27.5 -0.125 C-24.626524684984446 -0.08994004713419201 -21.753092781784915 -0.05914072087549016 -18.8795166015625 -0.033660888671875 C-17.090952095972497 -0.01668439783594522 -15.302433407689705 0.006457222904515447 -13.5140380859375 0.036346435546875 C-12.297626342773441 0.05098434448241562 -12.297626342773441 0.05098434448241562 -11.056640625 0.06591796875 C-10.343990478515622 0.07718719482421932 -9.631340332031243 0.08845642089843864 -8.8970947265625 0.100067138671875 C-0.931236465618241 -0.3201125350562677 -0.931236465618241 -0.3201125350562677 0 0 Z " fill="#C0E7BA" transform="translate(92,102)"/>
<path d="M0 0 C0 13.200000000000003 0 26.400000000000006 0 40 C-4.6200000000000045 40.66 -9.240000000000009 41.31999999999999 -14 42 C-21.35989114798454 45.331319151193 -26.72278149611644 48.91228718664627 -32 55 C-34.437500000000014 54.1875 -34.437500000000014 54.1875 -37 53 C-38 50 -38 50 -36.77734375 47.05859375 C-36.17050557932933 45.84831040933335 -35.55670584626016 44.64150267858314 -34.9375 43.4375 C-32.06032080792028 37.62270574383888 -29.858753234553134 31.81792779266776 -27.9375 25.625 C-24.995069251189506 16.344200859900326 -21.316372123766115 8.544248082510748 -13 3 C-8.552353513747917 1.0827771691025063 -4.86862976500791 0 0 0 Z " fill="#87AC7E" transform="translate(128,49)"/>
<path d="M0 0 C4.170476377754582 1.4093322505407961 4.170476377754582 1.4093322505407961 11.4921875 2.0859375 C11.4921875 7.695937499999999 11.4921875 13.305937499999999 11.4921875 19.0859375 C9.161562500000002 19.745937499999997 6.8309375000000045 20.4059375 4.4296875 21.0859375 C-2.385738450535598 23.273695060255335 -6.941773734112999 25.596916139123657 -10.5078125 32.0859375 C-12.794013534781868 36.97971411502452 -14.69967557586476 41.99931054858658 -16.5078125 47.0859375 C-18.5078125 46.0859375 -18.5078125 46.0859375 -19.6328125 43.2734375 C-20.530919050758072 39.91410765365302 -20.540852203450356 36.86516388234139 -20.4453125 33.3984375 C-20.252103203612023 19.294158863677715 -25.810349552155827 6.245184397741511 -35.5078125 -3.9140625 C-22.98641607916055 -10.174760710419726 -12.242497606444388 -4.665154977051557 0 0 Z " fill="#6AB8A0" transform="translate(116.5078125,29.9140625)"/>
<path d="M0 0 C6.269999999999996 0 12.54 0 19 0 C19.990000000000002 2.97 20.979999999999997 5.94 22 9 C22.659999999999997 9 23.32 9 24 9 C25.979999999999997 12.63 27.96 16.26 30 20 C27.6796875 20.680625 27.6796875 20.680625 25.3125 21.375 C23.541485416276515 21.916073762495433 21.770636912522917 22.457691604127746 20 23 C19.009999999999998 23.28875 18.020000000000003 23.5775 17 23.875 C12.510158677261607 26.400535744040347 11.438529722597359 34.5732843097348 9.875 39.3125 C9.459277343750003 40.566435546875 9.459277343750003 40.566435546875 9.03515625 41.845703125 C8.355403052239957 43.89668260100013 7.677514991348701 45.94828007336856 7 48 C6.340000000000003 48 5.68 48 5 48 C4.887851562500003 47.3593359375 4.775703125 46.718671875 4.66015625 46.05859375 C2.876195848441675 38.23481970133571 -0.5154515637368817 35.366047537517126 -7 31 C-8.33111854822862 29.982233275742335 -9.64559788954218 28.94210572645782 -10.9375 27.875 C-11.75541015625 27.221445312500002 -11.75541015625 27.221445312500002 -12.58984375 26.5546875 C-14.394733552213964 24.564808992295962 -15.12266184466743 22.51757905443259 -16 20 C-15.4083203125 19.419921875 -14.816640625 18.83984375 -14.20703125 18.2421875 C-5.732581368739073 10.091288286457345 -5.732581368739073 10.091288286457345 0 0 Z " fill="#569B8B" transform="translate(28,0)"/>
<path d="M0 0 C16.17 0 32.34 0 49 0 C45.36263417009717 7.27473165980567 42.735993585738996 12.171297198480506 37.25 17.6875 C36.680234375 18.31849609375 36.110468749999995 18.9494921875 35.5234375 19.599609375 C31.30925593146081 23.88402730301484 31.30925593146081 23.88402730301484 27.723388671875 24.20166015625 C25.416763499406386 23.96178071433889 23.252141279551083 23.54620654002763 21 23 C20.0576953125 22.855625 19.115390625000003 22.71125 18.14453125 22.5625 C12.99376825540567 21.320104905826494 10.402470723055188 19.87541590697267 7.375 15.4375 C5 11.441988950276244 5 11.441988950276244 5 9 C4.340000000000003 9 3.6799999999999997 9 3 9 C2.009999999999998 6.029999999999999 1.0200000000000031 3.0599999999999996 0 0 Z " fill="#45999C" transform="translate(47,0)"/>
<path d="M0 0 C7.862355454524873 2.948383295446824 12.423300329265508 4.963170515849292 16.875 11.9375 C18.8993098886904 17.448121363657194 19.12450758555323 22.9818539349493 19.09765625 28.80859375 C19.09443359375 30.04931640625 19.0912109375 31.2900390625 19.087890625 32.568359375 C19.07951171875 33.84517578124999 19.0711328125 35.1219921875 19.0625 36.4375 C19.05798828125 37.74138671874999 19.0534765625 39.0452734375 19.048828125 40.388671875 C19.037092507239855 43.59249552351977 19.020673628940617 46.79622362586396 19 50 C17.96359375 49.5784765625 16.9271875 49.156953125 15.859375 48.72265625 C14.489639091696432 48.16913283500061 13.119844324467882 47.61575505526105 11.75 47.0625 C11.0680859375 46.78470703125001 10.386171875 46.5069140625 9.68359375 46.220703125 C6.459057690057464 44.921496848421214 3.38090641031911 43.84522660257977 0 43 C0 28.810000000000002 0 14.619999999999997 0 0 Z " fill="#306547" transform="translate(0,41)"/>
<path d="M0 0 C1.8011806610584031 1.075743426972096 3.569923391411507 2.206709600465416 5.3125 3.375 C9.455181305201592 6.079404551787093 13.379505830673189 8.254479980476532 18 10 C16.73046875 11.46484375 15.4609375 12.9296875 14.19140625 14.39453125 C9.797103025140416 20.31603493989276 12.24262138210554 30.183592438949873 13 37 C6.730000000000004 37 0.46000000000000085 37 -6 37 C-11.194070874644154 12.544582965217103 -11.194070874644154 12.544582965217103 -8 1 C-5.060077745017303 -1.230285848607565 -3.387812398926517 -1.1574021007008781 0 0 Z " fill="#89B07E" transform="translate(27,91)"/>
<path d="M0 0 C9.24 0 18.48 0 28 0 C26.806122448979593 5.969387755102041 26.806122448979593 5.969387755102041 24 9 C23.34 9 22.68 9 22 9 C21.73703125 9.5865234375 21.4740625 10.173046875 21.203125 10.77734375 C18.152260942574408 16.41351793401026 12.960294109888142 20.764889708791948 7 23 C4.6899999999999995 23.33 2.38 23.66 0 24 C0 16.08 0 8.16 0 0 Z " fill="#206C6B" transform="translate(0,0)"/>
</svg>
