<?xml version="1.0" encoding="UTF-8"?>
<!-- Generator: visioncortex VTracer 0.6.0 -->
<svg version="1.1" xmlns="http://www.w3.org/2000/svg" width="128" height="128">
<path d="M0 0 C42.24 0 84.48 0 128 0 C128 42.24 128 84.48 128 128 C85.75999999999999 128 43.519999999999996 128 0 128 C0 85.75999999999999 0 43.519999999999996 0 0 Z " fill="#4E6880" transform="translate(0,0)"/>
<path d="M0 0 C4.3848015281297705 3.119954933476947 7.756617077699019 6.081814362647833 10 11 C11.337666507736373 20.075375358521804 9.836712980134465 26.099754642566232 5.390625 33.953125 C3.3701167061999513 38.38008137405632 3.3537199680943672 42.466495476233845 3.19921875 47.27734375 C2.5183862226008102 59.99956725218473 0.20492564712100148 75.33544377641309 -9.5 84.3125 C-14.414968783711856 87.63010392900551 -20.231111109691227 87.87030651362417 -26 87 C-29.64719227655845 85.41259251818465 -32.77537854170227 83.31377059183052 -36 81 C-36.794062499999995 80.450859375 -37.588125000000005 79.90171875 -38.40625 79.3359375 C-42.41198991394462 76.47267974461002 -42.41198991394462 76.47267974461002 -44 75 C-44 74.34 -44 73.68 -44 73 C-44.70125 72.835 -45.4025 72.67 -46.125 72.5 C-52.493037456621025 69.17754567480642 -56.35075812777007 61.647863458102535 -58.6875 55.0625 C-59.847260163128155 47.40808292335416 -58.313290599611705 41.58958886146644 -54.1875 35.1875 C-51.66165602824943 32.66165602824943 -49.290154052123064 31.358976673703005 -46 30 C-45.34 30 -44.68 30 -44 30 C-44 29.340000000000003 -44 28.68 -44 28 C-42.8553125 26.886250000000004 -42.8553125 26.886250000000004 -41.6875 25.75 C-35.31615474799504 19.230483928180973 -34.96819242848573 12.10811104721816 -34.9375 3.4375 C-34.958124999999995 2.3031250000000014 -34.978750000000005 1.1687499999999993 -35 0 C-23.493790826352296 -3.2110351182272687 -11.055627303571725 -5.725235567921068 0 0 Z " fill="#293957" transform="translate(89,27)"/>
<path d="M0 0 C23.430000000000007 0 46.86 0 71 0 C71 42.24 71 84.48 71 128 C54.83 128 38.66 128 22 128 C23.331915024616777 120.00850985229934 27.08683941330962 115.82519665675852 33.61328125 111.11328125 C35.28866517462296 110.0087688848782 36.98384203363892 108.9332925338925 38.703125 107.8984375 C45.77203530345119 102.05576673898423 46.58092916240885 93.20088446065913 48 84.625 C48.1128433227539 83.95393218994141 48.22568664550781 83.28286437988281 48.341949462890625 82.59146118164063 C50.16629974015029 71.3894657687025 50.08751813341941 62.575893145978135 46 52 C45.179072297540756 49.71352351328465 44.36972026790846 47.42317030182829 43.561767578125 45.132080078125 C43.038767593897376 43.67790418212971 42.496965166292256 42.230286283658344 41.932373046875 40.791748046875 C40.21956974237753 36.3164651912394 39.98299966300638 32.74309402121957 40 28 C39.025132770599114 25.672986481050472 39.025132770599114 25.672986481050472 37.4375 23.8125 C36.9618359375 23.1795703125 36.486171875 22.546640625 35.99609375 21.89453125 C31.184484583673452 17.327739771196924 25.275853361469245 15.234584076493308 19.125 13.125 C3.8067750105529754 7.6135500211059535 3.8067750105529754 7.6135500211059535 0 0 Z " fill="#8699BE" transform="translate(57,0)"/>
<path d="M0 0 C11.88 0 23.76 0 36 0 C36 5.94 36 11.88 36 18 C36.680625 20.5059375 36.680625 20.5059375 37.375 23.0625 C38.07572909164313 27.477093277351734 37.83239474773526 27.895394654053863 35.4375 31.375 C34.872890625 32.1187890625 34.30828125 32.862578125 33.7265625 33.62890625 C25.822151727951002 44.484058599850094 23.42305668269386 58.11496580618605 23.5 71.25 C23.503544921875 72.3610107421875 23.50708984375 73.472021484375 23.5107421875 74.61669921875 C23.791535081708282 89.00835241248316 25.811264825253183 104.32359766107965 33 117 C33.48984375 117.884296875 33.9796875 118.76859375 34.484375 119.6796875 C35.33748462319102 121.15946406862146 36.191674654637694 122.63861822819891 37.046875 124.1171875 C38 126 38 126 38 128 C25.46 128 12.919999999999998 128 0 128 C0 85.75999999999999 0 43.519999999999996 0 0 Z " fill="#A3B2D6" transform="translate(0,0)"/>
<path d="M0 0 C0.990000000000002 0 1.9799999999999969 0 3 0 C2.976796874999998 1.1949609375 2.953593750000003 2.389921875 2.9296875 3.62109375 C2.909098442199401 5.2265339701398865 2.8910313464948487 6.832007799560058 2.875 8.4375 C2.860739746093749 9.680679931640626 2.860739746093749 9.680679931640626 2.84619140625 10.948974609375 C2.8419597772533933 15.248732832826793 3.015986159249479 18.941142809028314 4.375 23.0625 C5.075729091643133 27.477093277351734 4.832394747735258 27.895394654053863 2.4375 31.375 C1.8728906249999966 32.1187890625 1.3082812500000003 32.862578125 0.7265625 33.62890625 C-7.177848272048998 44.484058599850094 -9.576943317306139 58.11496580618605 -9.5 71.25 C-9.496455078124999 72.3610107421875 -9.492910156250002 73.472021484375 -9.4892578125 74.61669921875 C-9.208464918291718 89.00835241248316 -7.188735174746817 104.32359766107965 0 117 C0.4898437499999986 117.884296875 0.9796874999999972 118.76859375 1.484375 119.6796875 C2.337484623191017 121.15946406862146 3.191674654637694 122.63861822819891 4.046875 124.1171875 C5 126 5 126 5 128 C-7.539999999999999 128 -20.080000000000002 128 -33 128 C-33 118.43 -33 108.86 -33 99 C-29.7 98.01 -26.4 97.02 -23 96 C-16.89513376345163 90.54458761840358 -14.9672469189562 82.91120478151154 -14 75 C-14.322961801781354 71.75030109574965 -14.322961801781354 71.75030109574965 -15.03125 68.38671875 C-15.264570312499998 67.13826171875 -15.497890625 65.8898046875 -15.73828125 64.603515625 C-16.24389757334379 62.00412914216846 -16.75169128055827 59.405165193668516 -17.26171875 56.806640625 C-19.29697815006842 45.88258257435653 -19.214083378733008 38.48514205956043 -14.5 28.4375 C-14.151228027343748 27.67171630859375 -13.8024560546875 26.9059326171875 -13.443115234375 26.116943359375 C-10.255478440045206 19.255659203932225 -6.599655441746187 12.688753065054915 -2.78515625 6.16015625 C-0.9320673817454193 3.1149862430060065 -0.9320673817454193 3.1149862430060065 0 0 Z " fill="#8296A4" transform="translate(33,0)"/>
<path d="M0 0 C3.6374470388704623 1.6127192372985562 6.766331568461169 3.6952040672288575 10 6 C10.8701171875 6.556874999999998 11.740234375 7.113749999999996 12.63671875 7.6875 C16.515723400992655 10.51302301108413 18.689368782871128 12.468770823800071 19.6640625 17.2734375 C19.838059636471087 24.565499310287905 18.628179982550336 31.210535045078274 16 38 C15.340000000000003 38 14.680000000000007 38 14 38 C14 38.66 14 39.31999999999999 14 40 C12.230845247283952 40.982196271881406 10.459614314334644 41.96065358807752 8.6875 42.9375 C7.701367187499997 43.4827734375 6.715234374999994 44.028046875 5.69921875 44.58984375 C1.9460393699946081 46.550621978917434 0.6447778215069064 47.15836648247537 -3.5625 46.125 C-6.999999999999972 45.000000000000014 -6.999999999999972 45.000000000000014 -9 44 C-9 43.34 -9 42.68000000000001 -9 42 C-9.721874999999997 41.91749999999999 -10.443750000000001 41.83500000000001 -11.1875 41.75 C-14.589268677740861 40.84286168593577 -16.45466083607505 39.39989121170066 -19 37 C-19 36.34 -19 35.68000000000001 -19 35 C-19.556874999999998 34.77312499999999 -20.113749999999996 34.54625 -20.6875 34.3125 C-24.41722078395817 32.195631446942656 -27.229701345753284 30.042632749818395 -28.78515625 25.91796875 C-29.297226434337183 23.39204271465607 -29.450135763325626 21.543485575296245 -29 19 C-27.040644230839156 16.1977304953882 -24.59067982224738 14.202624405834797 -22 12 C-21.236874999999998 11.030625 -20.473749999999995 10.061250000000001 -19.6875 9.0625 C-18.8521875 8.041562499999998 -18.8521875 8.041562499999998 -18 7 C-17.340000000000003 7 -16.68 7 -16 7 C-15.670000000000002 6.009999999999998 -15.340000000000003 5.019999999999996 -15 4 C-10.230856166038151 0.593468690027251 -5.952651800224572 -1.3968316498721904 0 0 Z " fill="#152751" transform="translate(73,50)"/>
<path d="M0 0 C4.384801528129756 3.1199549334769436 7.756617077699019 6.081814362647833 10 11 C11.491789348361706 21.121019113453983 9.293376323425662 28.398263474433293 4 37 C0.583519703302045 35.480689637643536 -2.0140410622584426 33.45554509278383 -4.875 31.0625 C-10.38238858512267 26.625992528651196 -14.607204215022364 23.370690113798155 -22 23.63671875 C-24.73332437971351 24.1332014986589 -26.83045626101456 25.48237079267456 -29.140625 26.9765625 C-33.6983617227009 29.485232712915206 -38.88256646898157 30 -44 30 C-44 29.340000000000003 -44 28.68 -44 28 C-43.236875 27.2575 -42.47375 26.515 -41.6875 25.75 C-35.31615474799504 19.230483928180973 -34.96819242848573 12.10811104721816 -34.9375 3.4375 C-34.958125 2.3031250000000014 -34.97875 1.1687499999999993 -35 0 C-23.493790826352296 -3.211035118227265 -11.055627303571725 -5.725235567921068 0 0 Z " fill="#483D59" transform="translate(89,27)"/>
<path d="M0 0 C3.4162178764390347 -0.14539952983796325 6.831639911486718 -0.23409724567630089 10.25 -0.3125 C11.2180859375 -0.35439453125 12.186171875 -0.3962890625 13.18359375 -0.439453125 C15.872648782787678 -0.48581614280668417 18.35001262492969 -0.4647153547562084 21 0 C23.265625 2.2968749999999996 23.265625 2.2968749999999996 25 5 C28.042722143271448 6.957930729345817 28.042722143271448 6.957930729345817 31.5 8.5625 C32.11439941406249 8.86349609375 32.72879882812501 9.1644921875 33.36181640625 9.474609375 C37.286603705802364 11.346539861420545 41.19867577511904 12.761980223413152 45.375 14 C52.42387860335796 16.202186372744677 56.97830516004436 19.90427977631793 61 26.0625 C62.0765241101369 29.224789573527154 62.23696414309465 31.6825019966749 62 35 C58.27679329566698 33.75893109855566 56.75859974789583 31.75859974789583 54 29 C46.82002542168968 24.096602727007586 39.48125524709209 24.46777548044564 31 25 C28.613936420898966 25.490640779252377 26.237634571700582 26.031716207550744 23.875 26.625 C17.08901430451067 28.260361417606664 11.706383568144773 27.702549388816937 5 26 C3.843710937499999 25.713828125 3.843710937499999 25.713828125 2.6640625 25.421875 C2.1149218750000003 25.28265625 1.5657812500000006 25.1434375 1 25 C-1.0145448190709772 19.27161873966459 -1.1097728802096611 14.578531443401854 -0.625 8.5625 C-0.5399218749999974 7.322099609375 -0.5399218749999974 7.322099609375 -0.453125 6.056640625 C-0.31303231737447845 4.03697111714871 -0.15805018920212177 2.018343632378456 0 0 Z " fill="#606999" transform="translate(36,0)"/>
<path d="M0 0 C0.9281249999999943 0.8043749999999932 1.8562500000000028 1.6087500000000006 2.8125 2.4375 C6.812278347217415 5.317664935623085 10.314505147164596 5.660009035471489 15.15625 5.859375 C18.45542313075603 6.022520924048379 21.72999438219881 6.532856340314112 25 7 C25 14.590000000000003 25 22.180000000000007 25 30 C8.829999999999998 30 -7.340000000000003 30 -24 30 C-22.672750416761346 22.03650250056809 -18.942747482139367 17.831609555354632 -12.421875 13.1484375 C-11.560781250000005 12.583828124999997 -10.699687499999996 12.019218749999993 -9.8125 11.4375 C-5.089902852639582 8.337613428697168 -2.4849639132970793 5.035321613786181 0 0 Z " fill="#7A889C" transform="translate(103,98)"/>
<path d="M0 0 C1.0750781250000045 0.18304687499999872 2.150156250000002 0.366093750000001 3.2578125 0.5546875 C5.875 1.125 5.875 1.125 6.875 2.125 C8.851313854829009 12.365899065932147 7.076269195237124 18.907121591049055 1.3125 27.4375 C0.8381250000000051 27.994375000000005 0.363749999999996 28.551249999999996 -0.125 29.125 C-0.7849999999999966 29.125 -1.4450000000000003 29.125 -2.125 29.125 C-2.125 29.784999999999997 -2.125 30.445 -2.125 31.125 C-2.728281249999995 31.404726562500002 -3.331562500000004 31.684453124999997 -3.953125 31.97265625 C-9.780414185936955 34.895699696494184 -12.50750074078816 37.126564197639524 -15.125 43.125 C-16.04331203211266 46.11103448852526 -16.2333541773085 48.75691594302218 -16.1875 51.875 C-16.178476562500002 52.674218749999994 -16.169453125 53.4734375 -16.16015625 54.296875 C-16.14275390625 55.201796875 -16.14275390625 55.201796875 -16.125 56.125 C-20.695959617948258 53.90128991559274 -22.2066932748149 51.79085266874992 -24.125 47.125 C-26.12193977909913 30.953703357491364 -20.34265208320886 15.289746317562575 -11.05859375 2.21484375 C-7.565457134081498 -1.560566531851304 -4.727019649783216 -0.8314998420100608 0 0 Z " fill="#5F5168" transform="translate(47.125,25.875)"/>
<path d="M0 0 C3.1148821711241546 4.672323256686234 3.507363437464093 9.907755461720086 4.451904296875 15.384521484375 C4.806588912516901 17.403846422041042 5.1946721437759535 19.414844116547897 5.583984375 21.427734375 C7.37931722257278 31.358446884056562 6.945944211845891 39.50090413788767 2.125 48.5 C-2.9444873564237497 54.46410277226323 -4.630201456810431 54.95377518210131 -13 56 C-13 38.84 -13 21.680000000000007 -13 4 C-10.03 3.3400000000000034 -7.06 2.6799999999999997 -4 2 C-2.6799999999999997 1.3400000000000034 -1.3599999999999994 0.6799999999999997 0 0 Z " fill="#9FA7BC" transform="translate(13,43)"/>
<path d="M0 0 C2.177421648575347 3.2661324728630134 3.2419400786574073 6.22085346408241 4.5 9.9375 C5.134218750000002 11.776347656249996 5.134218750000002 11.776347656249996 5.78125 13.65234375 C8.982073624645821 24.457369450037362 9.05449346012432 33.255124211814916 6.875 44.3125 C6.6610156250000045 45.53517578124999 6.447031249999995 46.75785156250001 6.2265625 48.017578125 C4.186145593958955 58.937367439016185 1.267219158589242 65.08020365864738 -8.02734375 71.59765625 C-12.205832159083585 73.56884854810907 -14.89065608490489 73.0588939082722 -19.19921875 71.71875 C-19.793476562500004 71.4815625 -20.387734374999994 71.244375 -21 71 C-20.340000000000003 70.01 -19.680000000000007 69.02 -19 68 C-18.340000000000003 68 -17.680000000000007 68 -17 68 C-16.731875000000002 67.46375 -16.463750000000005 66.9275 -16.1875 66.375 C-15.349894981579212 64.69978996315844 -14.457379985807549 63.05149445795007 -13.52734375 61.42578125 C-11.66289772445495 57.2438908039565 -11.01810116580721 53.31786214454715 -10.375 48.8125 C-10.134858175519284 47.214534987099086 -9.89275103566203 45.61686376848594 -9.6484375 44.01953125 C-9.547084960937497 43.31932861328124 -9.445732421874993 42.6191259765625 -9.34130859375 41.897705078125 C-9 40 -9 40 -8 37 C-7.922869977570372 34.854642709457366 -7.862744437748134 32.7086552695273 -7.8125 30.5625 C-7.409972842287331 23.931035639038768 -5.5856503126187675 19.631012397788858 -2.3671875 13.91015625 C-0.24439268890299104 9.391635866379211 -0.019438807946869474 4.937457218505656 0 0 Z " fill="#545C82" transform="translate(99,41)"/>
<path d="M0 0 C7.590000000000003 0 15.180000000000007 0 23 0 C23 15.180000000000001 23 30.360000000000003 23 46 C13.103782128851094 42.70126070961703 8.456864500094198 36.693349651874215 3 28 C1.5625 24.312499999999996 1.5625 24.312499999999996 1 21 C0.7937500000000028 19.80375 0.5875000000000057 18.6075 0.375 17.375 C-0.27471012662205396 11.60739782332006 -0.0603473281917104 5.793343506404577 0 0 Z " fill="#86B9E9" transform="translate(105,0)"/>
<path d="M0 0 C15.840000000000003 0 31.680000000000007 0 48 0 C48.66 6.930000000000001 49.31999999999999 13.860000000000001 50 21 C50.495000000000005 23.97 50.495000000000005 23.97 51 27 C47.20585039205696 28.214127874541774 43.95103374885062 28.613091443787166 40 28 C38.28584433857989 26.16837681863485 37.02788110353991 24.297049362223603 35.75 22.140625 C31.60906742012247 17.075377112114083 25.121931155077107 15.18179272925397 19.125 13.125 C3.8067750105529754 7.6135500211059535 3.8067750105529754 7.6135500211059535 0 0 Z " fill="#6D8BBD" transform="translate(57,0)"/>
<path d="M0 0 C0.9899999999999949 0 1.980000000000004 0 3 0 C2.976796875000005 1.1949609375 2.953593749999996 2.389921875 2.9296875 3.62109375 C2.909098442199408 5.2265339701398865 2.8910313464948487 6.832007799560058 2.875 8.4375 C2.860739746093749 9.680679931640626 2.860739746093749 9.680679931640626 2.84619140625 10.948974609375 C2.8419597772533933 15.248732832826796 3.015986159249479 18.941142809028307 4.375 23.0625 C5.075729091643133 27.47709327735173 4.8323947477352505 27.895394654053867 2.4375 31.375 C1.8728906249999966 32.1187890625 1.3082812500000003 32.862578125 0.7265625 33.62890625 C-7.137933639856094 44.42924370903314 -9.471474257642157 57.25473647671877 -8.977783203125 70.30126953125 C-8.854709411197767 74.13921687661976 -8.807469442900217 75.71120416435032 -11 79 C-15.133016914139812 74.31710592202394 -15.425509753450552 68.78757732959082 -16.41748046875 62.802490234375 C-16.746503900955158 60.833422689658235 -17.101638181205026 58.86877624146061 -17.45703125 56.904296875 C-19.315623579716366 46.014281338308614 -19.186032754388172 38.42535469257503 -14.5 28.4375 C-14.151228027343748 27.67171630859375 -13.8024560546875 26.9059326171875 -13.443115234375 26.116943359375 C-10.25547844004521 19.255659203932225 -6.599655441746187 12.688753065054915 -2.78515625 6.16015625 C-0.9320673817454121 3.1149862430060065 -0.9320673817454121 3.1149862430060065 0 0 Z " fill="#847F9E" transform="translate(33,0)"/>
<path d="M0 0 C1.8053157815883196 2.0810472916379723 3.337683089057691 4.050728634220661 4.875 6.3125 C8.376158789919117 11.461598350646504 11.383706710073994 14.205130644138478 17 17 C17.659999999999997 17.33 18.319999999999993 17.659999999999997 19 18 C19.825764573304525 22.234690119510375 20.105454468396715 25.80030615510963 19 30 C16.02590678949204 32.61878118978356 12.852989431780415 34.37213234455799 9.359375 36.17578125 C5.106843943761135 38.485004509608785 2.12811939346102 41.36000652397263 -1 45 C-1.6475890470854324 42.50582040280956 -2.215286592354772 40.00747360755412 -2.76171875 37.48828125 C-4.631777251339798 28.977460059561793 -6.902302124247996 20.838141254277332 -10.069091796875 12.710205078125 C-11.608963210598304 8.6463115594374 -12.297310671450347 5.344790039603964 -12 1 C-4.257019438444928 -1.5809935205183585 -4.257019438444928 -1.5809935205183585 0 0 Z " fill="#878EAF" transform="translate(109,28)"/>
</svg>
