<?xml version="1.0" encoding="UTF-8"?>
<!-- Generator: visioncortex VTracer 0.6.0 -->
<svg version="1.1" xmlns="http://www.w3.org/2000/svg" width="128" height="128">
<path d="M0 0 C42.24 0 84.48 0 128 0 C128 42.24 128 84.48 128 128 C85.75999999999999 128 43.519999999999996 128 0 128 C0 85.75999999999999 0 43.519999999999996 0 0 Z " fill="#7C7058" transform="translate(0,0)"/>
<path d="M0 0 C4.356808137217563 2.2195060321674376 7.39707297169582 4.85459769566371 10 9 C11.17941854082786 14.28507010997997 10.77701970635578 17.75943552997417 9.125 22.875 C6.485379256333118 31.98877122878791 3.63338520264859 42.529824531691546 7.54296875 51.56640625 C9.42589438943407 54.73366427434311 9.42589438943407 54.73366427434311 11.53125 57.484375 C13 60 13 60 12.91015625 62.578125 C10.560779195121633 68.82968626190811 4.881911432097581 73.87247901964808 -0.8203125 77.15625 C-5.859004204304114 79.10671130489192 -10.931845292762798 78.85423781385884 -15.875 76.8125 C-18.279364339058343 74.76171865197965 -20.08631888261018 72.50758215382115 -22 70 C-27.399588461684424 67.30020576915778 -33.974833009150885 68.37657293692807 -40 68 C-40 49.19 -40 30.379999999999995 -40 11 C-34.555 10.504999999999995 -34.555 10.504999999999995 -29 10 C-25.969759912007557 8.785234149747524 -23.372131679611044 7.629569989121659 -20.5625 6.0625 C-19.542529296875003 5.522060546875 -19.542529296875003 5.522060546875 -18.501953125 4.970703125 C-15.918543579575129 3.5994505510354777 -13.353192163817702 2.197611956665323 -10.80078125 0.76953125 C-7.304246229973998 -0.7246496587746662 -3.712708750536329 -0.5230076674668567 0 0 Z " fill="#28413D" transform="translate(40,24)"/>
<path d="M0 0 C42.24 0 84.48 0 128 0 C128 9.24 128 18.48 128 28 C125.174375 28.825 122.34875 29.65 119.4375 30.5 C118.56150146484374 30.76103515625 117.6855029296875 31.0220703125 116.782958984375 31.291015625 C110.48985104543173 33.08193962343445 104.70792943412059 34.298883446188114 98.625 31.1875 C95.65374261119847 29.75206146419385 92.77655555410927 28.54173333288395 89.625 27.5625 C86.24150750957384 26.497834915288234 83.16820580973537 25.14036080914791 79.98828125 23.57421875 C73.98291671850343 20.8149836422069 68.03548345247557 19.451837426067115 61.5625 18.25 C59.45957256758237 17.838863003498194 57.35670539516222 17.42741763108041 55.25390625 17.015625 C54.33939697265625 16.843212890625 53.4248876953125 16.67080078125 52.482666015625 16.4931640625 C50.92713120006992 16.18416806216356 49.37744563214637 15.841863026840707 47.84033203125 15.451416015625 C37.739809863330194 12.973853600066002 30.134262496635237 16.034318694865945 21.578125 20.9765625 C20.9675927734375 21.32912109375 20.357060546875 21.6816796875 19.72802734375 22.044921875 C18.524212958934854 22.74659181418606 17.326187109904616 23.45832334947135 16.13525390625 24.181640625 C10.872366982254492 27.30954021109066 6.139310683435602 29 0 29 C0 19.43 0 9.86 0 0 Z " fill="#AA8A68" transform="translate(0,0)"/>
<path d="M0 0 C0 14.189999999999998 0 28.379999999999995 0 43 C-24.090000000000003 43 -48.18000000000001 43 -73 43 C-78.01632462686567 26.27891791044776 -78.01632462686567 26.27891791044776 -74.46484375 18.7421875 C-73.23341425949539 16.643447300577378 -71.9569320399675 14.570239091667275 -70.62890625 12.53125 C-68.87343332077606 10.032728325888655 -68.87343332077606 10.032728325888655 -68 7 C-63.465470941921055 5.21572126615618 -58.72890691272136 4.15515283364185 -54 3 C-53.1994921875 2.773124999999993 -52.398984375 2.5462500000000006 -51.57421875 2.3125 C-48.59997141745298 1.6449334644383384 -46.564460149939805 1.6706433271458252 -43.91796875 3.21484375 C-41.8125 4.8125 -41.8125 4.8125 -39.95703125 6.45703125 C-36.77322516324588 8.967217685664423 -34.17790053320586 10.009537656139315 -30.10546875 9.9765625 C-29.142539062499992 9.860546874999997 -28.179609375 9.744531249999994 -27.1875 9.625 C-26.21167968750001 9.514140624999996 -25.23585937499999 9.403281249999992 -24.23046875 9.2890625 C-23.4944140625 9.193671875000007 -22.758359374999998 9.09828125 -22 9 C-22 8.340000000000003 -22 7.680000000000007 -22 7 C-20.06374901669909 6.01836578055908 -18.125954614020145 5.03977545783934 -16.1875 4.0625 C-15.108554687500003 3.5172265624999994 -14.029609375000007 2.971953124999999 -12.91796875 2.41015625 C-7.90012301881751 -0.01479998689006834 -6.071162692777506 0 0 0 Z " fill="#94D0E2" transform="translate(128,85)"/>
<path d="M0 0 C0.20496093750000455 0.7102734375000068 0.4099218749999949 1.4205468749999994 0.62109375 2.15234375 C0.8905078125000045 3.0714453125000034 1.1599218749999949 3.990546875000007 1.4375 4.9375 C1.7043359375000051 5.854023437500004 1.971171874999996 6.770546874999994 2.24609375 7.71484375 C2.790260513721421 9.940249303829148 2.790260513721421 9.940249303829148 4 11 C5.536773477439496 11.297345059811093 7.07977878710372 11.562743701238816 8.625 11.8125 C14.36453753736285 12.91278330473051 20.463267764532986 15.006966255811278 24 20 C24 21.319999999999993 24 22.64 24 24 C19.215379009138047 25.983867240113497 16.037786579822622 26.237351089780987 11 25 C7.752782896465362 23.49918537231592 4.810821799495599 21.73230010943918 2.14453125 19.32421875 C-0.7876629741516439 17.5136288738845 -2.292459426747868 17.997250831133798 -5.625 18.6875 C-6.674296874999996 18.895039062500004 -7.723593750000006 19.102578125000008 -8.8046875 19.31640625 C-9.859140624999995 19.5419921875 -10.913593750000004 19.767578125 -12 20 C-13.916503348743277 20.375833773584716 -15.833154580718983 20.750914782846863 -17.75 21.125 C-19.167079426743634 21.414654599806084 -20.583918543265824 21.705505183776523 -22 22 C-22.15275390625 22.833378906250005 -22.15275390625 22.833378906250005 -22.30859375 23.68359375 C-23.144949952532983 26.485623287299774 -24.51723868348651 28.582045073492523 -26.0625 31.0625 C-31.256152335710915 40.42851092674965 -29.06208224744399 47.68958876278006 -27 58 C-45.150000000000006 58 -63.300000000000004 58 -82 58 C-82 46.120000000000005 -82 34.239999999999995 -82 22 C-66 22 -66 22 -61 26 C-60.463750000000005 26.721874999999997 -59.927499999999995 27.443749999999994 -59.375 28.1875 C-58.04117486884526 30.299988330158243 -58.04117486884526 30.299988330158243 -55 31 C-48.76145584511349 31.77566268355605 -44.06346313387513 31.335385761477653 -38.8984375 27.625 C-33.86064745191752 23.314634533765613 -33.86064745191752 23.314634533765613 -30 18 C-30.341998741647657 13.957086304093778 -31.926815420665868 11.42526147889987 -34 8 C-34 7.010000000000005 -34 6.019999999999996 -34 5 C-27.147517026820758 3.2234303402868676 -20.325396772564503 2.402710891793504 -13.29736328125 1.69775390625 C-12.16596923828125 1.5824633789062545 -12.16596923828125 1.5824633789062545 -11.01171875 1.46484375 C-10.335847167968751 1.3990209960937534 -9.659975585937502 1.3331982421875068 -8.963623046875 1.265380859375 C-6.968097705899879 1.0344825462997136 -6.968097705899879 1.0344825462997136 -4.936767578125 0.470947265625 C-3 0 -3 0 0 0 Z " fill="#4C90AA" transform="translate(82,70)"/>
<path d="M0 0 C0.6599999999999966 0.3299999999999983 1.3199999999999932 0.6600000000000001 2 1 C7.2452783333813215 1.3131509452764973 11.757218637709983 0.48082493310405283 16.75 -1 C23.655405405405418 -3 23.655405405405418 -3 27 -3 C27 13.5 27 30 27 47 C21.387976083988505 44.7551904335954 21.387976083988505 44.7551904335954 19.1328125 42.06640625 C18.639101562500002 41.49986328125 18.145390625000005 40.9333203125 17.63671875 40.349609375 C16.634088441817326 39.16432935951272 15.634056131586945 37.97684648768049 14.63671875 36.787109375 C10.45827740086591 32.00632128592581 6.442183352682491 29.453035744482086 -0.02734375 28.6015625 C-6.39778233572946 28.65286804565688 -11.199182425837833 29.322699581155923 -17 32 C-17.363515625000005 31.443125000000002 -17.727031249999996 30.886249999999997 -18.1015625 30.3125 C-23.74566594981711 21.37826603391529 -23.74566594981711 21.37826603391529 -30.6484375 13.44921875 C-32 12 -32 12 -32.4375 9.1875 C-31.68472679949909 3.7030095392076348 -29.211157757339222 0.920479895577806 -24.875 -2.375 C-16.51363535687352 -6.609052734178938 -8.052013405257185 -3.480818294980974 0 0 Z " fill="#5E543D" transform="translate(101,31)"/>
<path d="M0 0 C22.11 0 44.22 0 67 0 C65.60396039603961 11.16831683168316 65.60396039603961 11.16831683168316 60.25 15.375 C56.30638419326779 16.470448835203392 52.07682384682187 16.539545989071247 48.10546875 15.5078125 C37.859954796743494 13.036723791422364 30.28144011632697 15.949305138286018 21.578125 20.9765625 C20.9675927734375 21.32912109375 20.357060546875 21.6816796875 19.72802734375 22.044921875 C18.524212958934854 22.74659181418606 17.326187109904616 23.45832334947135 16.13525390625 24.181640625 C10.872366982254492 27.30954021109066 6.139310683435602 29 0 29 C0 19.43 0 9.86 0 0 Z " fill="#C5A984" transform="translate(0,0)"/>
<path d="M0 0 C5.435580093590545 3.1914298059878092 9.471810117653845 7.882912616220793 13.375 12.75 C15.464765768285346 15.178646703682972 16.734746969911896 16.343887766634026 19.6875 17.4375 C19.6875 19.747500000000002 19.6875 22.057500000000005 19.6875 24.4375 C19.081640625000006 24.523867187500002 18.475781249999997 24.610234375000005 17.8515625 24.69921875 C11.852350212348114 25.70524050285239 7.052306449993722 27.494109127060398 1.71875 30.4140625 C-0.3125 31.4375 -0.3125 31.4375 -2.3125 31.4375 C-2.3125 30.777500000000003 -2.3125 30.117500000000007 -2.3125 29.4375 C-3.302499999999995 29.1075 -4.292500000000004 28.777500000000003 -5.3125 28.4375 C-5.3125 27.777500000000003 -5.3125 27.117500000000007 -5.3125 26.4375 C-6.034374999999997 26.148750000000007 -6.756249999999994 25.86 -7.5 25.5625 C-9.24239762200827 24.865540951196692 -10.974487312615253 24.141347781198448 -12.6875 23.375 C-15.436223208723675 22.291322317553806 -15.436223208723675 22.291322317553806 -19 21.9375 C-22.3125 21.4375 -22.3125 21.4375 -24.3125 19.4375 C-26.046457807220307 14.053104703894846 -26.81979491445017 10.036023967957789 -25.3125 4.4375 C-19.631653103774454 -3.0693333985837583 -8.181583948841634 -3.7232598829689465 0 0 Z " fill="#406966" transform="translate(108.3125,60.5625)"/>
<path d="M0 0 C3.904363554476056 3.3595686398980042 6.270347743547639 5.673687563937143 7.5625 10.75 C7.825783482203882 18.253579242810545 4.280564146278323 22.776706697206322 -0.3125 28.3125 C-1.0453320312499983 29.242558593749997 -1.0453320312499983 29.242558593749997 -1.79296875 30.19140625 C-4.302122277136121 33.09072306017605 -5.768871458938001 34.261214288579055 -9.625 34.625 C-14.735805030306704 32.805899904467104 -18.30302696411007 29.904802430999652 -22.3125 26.3125 C-23.17875 25.549374999999998 -24.045 24.786249999999995 -24.9375 24 C-27.163713852043813 19.648763834641642 -26.570340306003544 15.942422828481135 -25.3125 11.3125 C-23.097209595100168 6.0844146444364 -20.822520851445276 2.2811926216818748 -16 -0.8125 C-10.086284220969368 -2.2157545916343864 -5.5270638193776875 -2.8156740211924074 0 0 Z " fill="#412D26" transform="translate(43.3125,25.6875)"/>
<path d="M0 0 C0 14.189999999999998 0 28.379999999999995 0 43 C-7.590000000000003 43 -15.180000000000007 43 -23 43 C-22 34 -22 34 -21 30 C-20.519990097358942 22.33395949605611 -21.330134575003356 14.631681091925998 -22 7 C-20.06374901669909 6.01836578055908 -18.125954614020145 5.03977545783934 -16.1875 4.0625 C-15.108554687500003 3.5172265624999994 -14.029609375000007 2.971953124999999 -12.91796875 2.41015625 C-7.90012301881751 -0.01479998689006834 -6.0711626927774915 0 0 0 Z " fill="#A3B6AC" transform="translate(128,85)"/>
<path d="M0 0 C-1.124517271707667 2.9719385037988317 -2.2229379142094317 5.334406871314144 -4 8 C-4.480433384956285 10.036473211583399 -4.480433384956285 10.036473211583399 -4.7109375 12.28125 C-4.819379882812498 13.118093261718748 -4.927822265625 13.954936523437496 -5.03955078125 14.817138671875 C-5.1502490234375 15.702482910156249 -5.260947265624999 16.587827148437498 -5.375 17.5 C-6.293522575370808 24.28968499225023 -7.580142327665076 30.31633914014128 -10.12890625 36.703125 C-12.656942438557888 43.36897826848448 -12.381203208155174 47.713590290040074 -9.625 54.3125 C-9.163515625 55.2986328125 -8.70203125 56.284765625000006 -8.2265625 57.30078125 C-7 60 -7 60 -6 64 C-11.61 63.67 -17.22 63.34 -23 63 C-23 44.19 -23 25.379999999999995 -23 6 C-17.555 5.505000000000003 -17.555 5.505000000000003 -12 5 C-8.872426704013774 3.9331499553697498 -8.872426704013774 3.9331499553697498 -6.4375 2.4375 C-2.1218130311614694 0 -2.1218130311614694 0 0 0 Z " fill="#52563D" transform="translate(23,29)"/>
<path d="M0 0 C7.920000000000002 0 15.840000000000003 0 24 0 C24 9.24 24 18.48 24 28 C21.174374999999998 28.825 18.348749999999995 29.65 15.4375 30.5 C14.123502197265623 30.891552734374997 14.123502197265623 30.891552734374997 12.782958984375 31.291015625 C6.660799343408968 33.03329030543302 1.6153897411954006 34.141260977976174 -4.4375 31.5 C-5.283124999999998 31.005 -6.128749999999997 30.51 -7 30 C-6.746054687500006 29.007421875 -6.492109374999998 28.01484375 -6.23046875 26.9921875 C-3.9540373783936644 18.028461631296715 -1.8865690490111149 9.05553143525337 0 0 Z " fill="#968D7D" transform="translate(104,0)"/>
<path d="M0 0 C0 0.6599999999999966 0 1.3200000000000003 0 2 C0.9899999999999949 2.3299999999999983 1.980000000000004 2.6599999999999966 3 3 C5.560831770178524 5.822262391728074 7.741910134311794 8.932889275403092 10 12 C10.682558593750002 12.833378906250005 10.682558593750002 12.833378906250005 11.37890625 13.68359375 C13.671893464958913 16.631720169232892 14.002354737912043 17.95290524175931 13.8125 21.75 C13 25.000000000000014 13 25.000000000000014 12 27 C3.4113267220906778 29.583059632453924 -5.619011692925369 30.566469110994547 -14.50390625 31.5703125 C-17.38267070815217 31.9241271261416 -20.169003795128745 32.38054977474985 -23 33 C-25.43888983867449 29.341665241988267 -25.736283881558194 25.251445638674724 -25 21 C-22.75883692879816 16.322450593554358 -19.270552829900467 12.971288602469386 -15.625 9.375 C-15.060390624999997 8.802656249999998 -14.49578125 8.230312499999997 -13.9140625 7.640625 C-6.237899709302326 0 -6.237899709302326 0 0 0 Z " fill="#6A8251" transform="translate(70,43)"/>
<path d="M0 0 C15.999999999999996 0 15.999999999999996 0 21 4 C23.31868051235002 6.398121386434823 23.969124983696886 7.408367930840313 24.14453125 10.76953125 C23.529947263248022 16.402012728585788 22.671473734621337 21.567710362480653 21 27 C20.787284463503237 28.454869224928487 20.600154981860936 29.913686988360496 20.4375 31.375 C20 35 20 35 19 36 C17.584298768452335 36.08651610890652 16.16440499567474 36.10704903970645 14.74609375 36.09765625 C13.97708740234375 36.095158691406255 13.2080810546875 36.09266113281251 12.415771484375 36.090087890625 C11.43294189453125 36.08098388671874 10.4501123046875 36.07187988281251 9.4375 36.0625 C4.7659375 36.03156250000001 4.7659375 36.03156250000001 0 36 C0 24.120000000000005 0 12.239999999999995 0 0 Z " fill="#7D9A89" transform="translate(0,92)"/>
<path d="M0 0 C0.20496093750000455 0.7102734375000068 0.4099218750000091 1.4205468749999994 0.62109375 2.15234375 C0.8905078125000045 3.0714453125000034 1.159921875000009 3.990546875000007 1.4375 4.9375 C1.704335937499991 5.854023437500004 1.9711718750000102 6.770546874999994 2.24609375 7.71484375 C2.7902605137214067 9.940249303829148 2.7902605137214067 9.940249303829148 4 11 C5.53677347743951 11.297345059811093 7.07977878710372 11.562743701238816 8.625 11.8125 C14.364537537362864 12.91278330473051 20.463267764532986 15.006966255811278 24 20 C24 21.319999999999993 24 22.64 24 24 C19.21537900913802 25.983867240113497 16.037786579822637 26.237351089781 11 25 C7.752782896465376 23.499185372315935 4.810821799495585 21.732300109439166 2.14453125 19.32421875 C-0.7876629741516297 17.513628873884514 -2.292459426747854 17.997250831133783 -5.625 18.6875 C-6.683320312500001 18.88859375 -7.741640625000002 19.089687499999997 -8.83203125 19.296875 C-10.819949883255191 19.738089986419155 -12.799435417954442 20.221625660423015 -14.76171875 20.765625 C-20.87845094320791 22.376770386266088 -20.87845094320791 22.376770386266088 -24 21.328125 C-28.937719646231677 18.220766946767995 -31.836444974407968 13.324140016894674 -34 8 C-34 7.010000000000005 -34 6.019999999999996 -34 5 C-27.14751702682075 3.2234303402868676 -20.325396772564503 2.402710891793504 -13.29736328125 1.69775390625 C-12.16596923828125 1.5824633789062545 -12.16596923828125 1.5824633789062545 -11.01171875 1.46484375 C-10.335847167968751 1.3990209960937534 -9.659975585937502 1.3331982421875068 -8.963623046875 1.265380859375 C-6.968097705899851 1.0344825462997136 -6.968097705899851 1.0344825462997136 -4.936767578125 0.470947265625 C-3 0 -3 0 0 0 Z " fill="#55A08C" transform="translate(82,70)"/>
<path d="M0 0 C2.74376640994911 1.554800965637824 3.6345160313116835 3.1898002830375844 4.875 6.0625 C4.23913998516376 12.633053486641174 -0.21036871404147917 16.557362365787725 -5.015625 20.6875 C-10.173854293205906 24.377940469935936 -14.894065879818996 25.021934492553825 -21.125 24.0625 C-26.1189382981246 22.175901087375152 -28.273514539521283 18.380463697296335 -31.125 14.0625 C-26.108867856322487 11.052820713793494 -20.944924429158558 9.99668919194471 -15.24609375 8.80859375 C-12.38246392882553 8.124046446064682 -9.821031328521052 7.2322864051124895 -7.125 6.0625 C-7.125 5.402500000000003 -7.125 4.742500000000007 -7.125 4.0625 C-3.0383448873483587 0.08936308492201306 -3.0383448873483587 0.08936308492201306 0 0 Z " fill="#1F5A67" transform="translate(48.125,77.9375)"/>
<path d="M0 0 C7.909937721437615 1.087080048515844 13.562399726752332 2.5644384981308406 19.9375 7.5 C21 9 21 9 21 13 C16.21537900913802 14.983867240113511 13.037786579822622 15.237351089781 8 14 C4.018755142370921 12.15992884731429 0.4211884856976127 9.73695078855809 -3 7 C-1.125 2.25 -1.125 2.25 0 0 Z " fill="#4C90AA" transform="translate(85,81)"/>
<path d="M0 0 C1 3 1 3 0.09765625 5.640625 C-1.2411160959727283 9.737935382692342 -1.4120070409719858 13.470127067642238 -1.5625 17.75 C-1.8787636861313857 25.75752737226277 -1.8787636861313857 25.75752737226277 -3 28 C-6.397670184860189 24.929378282131694 -9.402579307554028 21.93595908483202 -11.875 18.0625 C-12.027516768841394 14.325839163385808 -11.341235803237765 13.797604196244286 -8.9375 11.0625 C-8.285234375000002 10.393476562499998 -7.632968750000003 9.724453124999997 -6.9609375 9.03515625 C-4.271134737669513 6.243548203836291 -2.1931140561206774 3.1899840816300795 0 0 Z " fill="#52563D" transform="translate(48,46)"/>
</svg>
