<?xml version="1.0" encoding="UTF-8"?>
<!-- Generator: visioncortex VTracer 0.6.0 -->
<svg version="1.1" xmlns="http://www.w3.org/2000/svg" width="128" height="128">
<path d="M0 0 C42.24 0 84.48 0 128 0 C128 42.24 128 84.48 128 128 C85.75999999999999 128 43.519999999999996 128 0 128 C0 85.75999999999999 0 43.519999999999996 0 0 Z " fill="#7B98A3" transform="translate(0,0)"/>
<path d="M0 0 C42.24 0 84.48 0 128 0 C128 42.24 128 84.48 128 128 C85.75999999999999 128 43.519999999999996 128 0 128 C0 101.93 0 75.86 0 49 C11.076923076923082 50.38461538461539 11.076923076923082 50.38461538461539 15.6328125 56.01953125 C21.2607565009434 63.99924895182072 22.350805117837155 71.90976648381637 23.4375 81.4765625 C24.189542352895625 86.18727223827676 25.186884969602207 89.94950797568177 29 93 C30.485 93.495 30.485 93.495 32 94 C33.47265624999998 95.63671874999997 33.47265624999998 95.63671874999997 35.0625 97.6875 C41.6292856763823 105.40174506825542 51.0118057431779 110.28167038730636 61.078125 111.31640625 C75.19472125083678 111.81596616298623 93.1910505380287 108.34754238626547 104.5625 99.5 C109.30954928301676 94.63123150459819 111.34483115078649 90.05227427138217 111.30078125 83.25390625 C110.74142756508368 79.06238577991277 109.19873604942494 75.11095534628869 107.89453125 71.1015625 C106.5119077639912 66.30766272755031 106.40623683844441 62.78128948466676 108 58 C108.69981657545178 49.32227446439799 107.13769651054615 40.24511880838596 101.875 33.125 C100.92625 32.42375 99.9775 31.7225 99 31 C98.3232421875 30.4856640625 97.646484375 29.971328125 96.94921875 29.44140625 C84.76065703792848 20.484509018052186 68.89035529585951 9.664761975101726 53 12 C49.99922111660463 12.698319553981635 47.043917595873644 13.468468860481883 44.08984375 14.34375 C41 15 41 15 37.41015625 14.81640625 C31.390444593094227 14.697770118568638 26.021364814585606 17.28449443028881 20.5 19.4375 C18.325985997800565 20.277518428068777 16.148947951304688 21.10975836936794 13.96875 21.93359375 C12.536923828125001 22.491314697265622 12.536923828125001 22.491314697265622 11.076171875 23.060302734375 C7.999999999999995 24 7.999999999999995 24 0 25 C0 16.75 0 8.5 0 0 Z " fill="#4F4A56" transform="translate(0,0)"/>
<path d="M0 0 C5.945310497531466 2.8270870793674163 10.749060518346568 6.401943151361689 15.49609375 10.93359375 C17.694864910310784 12.977297866455231 19.98856076955593 14.727482202589691 22.40625 16.50390625 C30.014845871722713 22.402556359610813 32.8364507014163 28.515414570617217 34.65625 37.94140625 C35.041876410332435 42.2604220457233 35.08240731751221 43.30217027373169 32.65625 46.94140625 C32.48095089347177 49.68584308171248 32.38806939803831 52.38315811325543 32.34375 55.12890625 C32.07896797565395 61.71250734098548 31.768897414778507 67.21608060906834 26.65625 71.94140625 C21.711392993086093 75.20687785833937 16.26214998932042 76.81631683137442 10.65625 78.62890625 C9.65984497070312 78.95121215820312 9.65984497070312 78.95121215820312 8.643310546875 79.280029296875 C0.5361942620214393 81.77123188053623 -7.178026080950346 82.86247822104215 -15.34375 79.94140625 C-20.04927003406874 77.06436637649941 -22.595455435620757 74.19384605146568 -24.34375 68.94140625 C-24.41552734375 66.424560546875 -24.41552734375 66.424560546875 -24.1796875 63.765625 C-24.107419433593748 62.7809423828125 -24.035151367187503 61.796259765624995 -23.960693359375 60.78173828125 C-23.840931396484372 59.22108642578125 -23.840931396484372 59.22108642578125 -23.71875 57.62890625 C-23.263894484786476 50.243998115998664 -23.09754279761193 43.673564413327824 -25.28125 36.56640625 C-27.05364547005263 30.69112991674595 -27.734363755896126 25.530771049490475 -27.71875 19.44140625 C-27.719958496093753 18.711313476562495 -27.7211669921875 17.981220703125004 -27.722412109375 17.22900390625 C-27.62174323750616 12.207065326735922 -26.85773048835282 7.739158211366348 -25.34375 2.94140625 C-22.84375 1.00390625 -22.84375 1.00390625 -20.34375 -0.05859375 C-14.66956150997796 -2.89568799501102 -5.927716980456097 -1.8766487169434605 0 0 Z " fill="#97D9EB" transform="translate(66.34375,21.05859375)"/>
<path d="M0 0 C42.24 0 84.48 0 128 0 C128 22.11 128 44.22 128 67 C117.28269533004041 65.80918837000449 117.28269533004041 65.80918837000449 111.87109375 60.56640625 C108.46847984484383 55.89935544480666 107.9678102729564 50.583014363721254 107 45 C105.1437139541204 36.66299600447057 102.31520576036726 32.572234589174506 95.125 27.90625 C94.09375 27.2771875 93.0625 26.648125 92 26 C90.948125 25.3090625 89.89625 24.618125 88.8125 23.90625 C77.79667782187447 16.80951840447682 66.40941886957033 10.788305523834007 53 12 C49.992411130419676 12.680664849431336 47.04624205672124 13.467780131341854 44.08984375 14.34375 C41 15 41 15 37.41015625 14.81640625 C31.390444593094227 14.697770118568638 26.021364814585606 17.28449443028881 20.5 19.4375 C18.325985997800565 20.277518428068777 16.148947951304688 21.10975836936794 13.96875 21.93359375 C12.536923828125001 22.491314697265622 12.536923828125001 22.491314697265622 11.076171875 23.060302734375 C7.999999999999995 24 7.999999999999995 24 0 25 C0 16.75 0 8.5 0 0 Z " fill="#214165" transform="translate(0,0)"/>
<path d="M0 0 C0.9338302648966703 15.937369854236763 0.9338302648966703 15.937369854236763 -3.41796875 21.5 C-8.277258309522352 26.107326397176735 -14.778831277435103 27.675972034911823 -21 29.6875 C-21.99640502929688 30.009805908203134 -21.99640502929688 30.009805908203134 -23.012939453125 30.338623046875 C-31.12005573797856 32.82982563053622 -38.834276080950346 33.92107197104215 -47 31 C-50.665655165939825 28.75875227423201 -53.25622003690506 26.26119211133488 -55.4375 22.5625 C-56.40556428394499 18.152429373139483 -56.428692595995635 14.286077787986898 -55 10 C-52.633544921875 9.064453125 -52.633544921875 9.064453125 -49.48046875 8.28125 C-48.32184326171875 7.990002441406247 -47.1632177734375 7.698754882812494 -45.969482421875 7.398681640625 C-44.72142822265625 7.1021166992187545 -43.4733740234375 6.805551757812495 -42.1875 6.5 C-40.92333251953125 6.192478027343753 -39.6591650390625 5.884956054687507 -38.356689453125 5.568115234375 C-25.790683599183467 2.5843152750071 -12.97851640020211 -0.2914594171775917 0 0 Z " fill="#B3D4CD" transform="translate(98,70)"/>
<path d="M0 0 C-2.4308723990047127 4.141087936357579 -4.802801321639102 7.886220256794374 -8.1875 11.3125 C-12.005188347364832 15.713721022221115 -12.92170531460107 20.24889947251497 -13 26 C-12.195763568341018 32.02212240026246 -10.774918836214095 37.87830991547845 -9.3125 43.76953125 C-7.826461355753636 50.487664287530436 -8.11264431879161 56.67948555064895 -8.610107421875 63.487060546875 C-8.98947806859286 68.81582880876998 -8.881697434781927 73.70981539130844 -8 79 C-10.876166683012034 77.71068390071875 -13.046229080795506 76.50453720206629 -15 74 C-15.66015625 71.68750000000001 -15.66015625 71.68750000000001 -16.0625 69 C-16.219765625 68.02546875 -16.37703125 67.0509375 -16.5390625 66.046875 C-16.691171875 65.04140625 -16.84328125 64.0359375 -17 63 C-18.450939078875383 53.80252177119672 -20.314694558600266 44.93690295801155 -27 38 C-31.101889267058603 35.80255932121861 -34.40817777607836 34.91836444478433 -39 34 C-39 26.08 -39 18.159999999999997 -39 10 C-36.525 9.298749999999998 -34.05 8.5975 -31.5 7.875 C-24.61649444669274 5.902725725882142 -17.946700641539906 3.5963852529504834 -11.35546875 0.79248046875 C-7.161435394885743 -0.8998295382953199 -4.3768885682138645 -1.1429662927747426 0 0 Z " fill="#666274" transform="translate(39,15)"/>
<path d="M0 0 C11.076923076923078 1.3846153846153868 11.076923076923078 1.3846153846153868 15.6328125 7.01953125 C21.351917752755043 15.128504156684087 22.362897635467817 22.894859867572535 23.4375 32.5625 C24.487416041524355 41.52323703966795 25.82401134596215 50.23431520926596 28 59 C27.151796875 58.78343749999999 26.30359375 58.56687500000001 25.4296875 58.34375 C24.256640625 58.065312500000005 23.08359375 57.78687500000001 21.875 57.5 C20.738046875 57.221562500000005 19.60109375 56.94312500000001 18.4296875 56.65625 C12.348932548833346 55.755397414641976 6.147122591642696 56 0 56 C0 37.519999999999996 0 19.039999999999992 0 0 Z " fill="#583D4E" transform="translate(0,49)"/>
<path d="M0 0 C4.671047126106387 2.6575569325237183 8.585685047180647 5.789034182970994 12.46484375 9.4921875 C14.663614910310784 11.535891616455231 16.95731076955593 13.286075952589691 19.375 15.0625 C27.926496087374886 21.692144179236628 30.708967894378787 29.302604884404758 32.0625 39.9375 C31.499264398568187 43.23645137981492 30.022516609921524 44.26390034995438 27.625 46.5 C27.2705078125 45.8709375 26.916015625 45.24187499999999 26.55078125 44.59375 C22.317840190944054 37.78824669924177 17.770689129060216 34.32432235946298 10.859375 30.375 C4.409403672440959 26.635886186922292 -0.6281940468050919 22.97175573733665 -4.375 16.5 C-7.351517353872566 13.165198149827958 -10.038726586390794 11.648105023426176 -14.51171875 11.15234375 C-19.92369894783411 11.10914664465811 -25.050365321937072 11.523149728235069 -30.375 12.5 C-29.75653324178043 2.519226108732532 -29.75653324178043 2.519226108732532 -26.375 -0.5 C-18.26060556283224 -4.491404831255494 -8.023113009411233 -3.790122705344462 0 0 Z " fill="#6BB9DD" transform="translate(69.375,22.5)"/>
<path d="M0 0 C0.8454215019950198 2.6842132688341707 1.6764723265173131 5.371567683133577 2.5 8.0625 C2.8577148437499886 9.190751953125002 2.8577148437499886 9.190751953125002 3.22265625 10.341796875 C5.535606561697207 17.97453290360079 5.824874332421189 23.74592799023567 2 31 C-4.505484734705391 41.282862967760124 -17.803954395960005 44.35686574723027 -29 47 C-40.693393591317616 49.26569004565192 -51.3722363752966 48.75292048060868 -62 43 C-64.3671875 40.828124999999986 -64.3671875 40.828124999999986 -66 39 C-60.60012441641055 37.44410364540643 -56.52484427497216 36.921356893052135 -50.9375 37.625 C-42.72819204091289 38.44113003102035 -35.77599964102427 36.3877173923309 -28 34 C-26.915898437500005 33.67515625 -25.83179687500001 33.3503125 -24.71484375 33.015625 C-18.600762651974634 31.00777064210203 -14.59388403137713 28.853770560903172 -10.90625 23.375 C-9.309003799773876 19.18911340630393 -9.600587283609158 14.636515242456625 -9.521484375 10.19921875 C-9.406815596765739 7.005273756255704 -9.179593472065562 4.391840302688507 -7.83984375 1.46875 C-5.23023909313514 -0.6145012759685429 -3.2386212747125 -0.2878774466411116 0 0 Z " fill="#838D8C" transform="translate(107,64)"/>
<path d="M0 0 C1.172513099654438 0.951171341046205 2.337870151263445 1.911170085770081 3.5 2.875 C4.474531249999998 3.675507812500001 4.474531249999998 3.675507812500001 5.46875 4.4921875 C5.974062500000002 4.989765625000004 6.4793750000000045 5.487343750000001 7 6 C7 6.659999999999997 7 7.32 7 8 C12.939999999999998 9.485 12.939999999999998 9.485 19 11 C19 22.549999999999997 19 34.099999999999994 19 46 C15.700000000000003 46.99000000000001 12.400000000000006 47.97999999999999 9 49 C6.231998224278641 50.301527836814984 3.558411247799654 51.613242823082146 0.875 53.0625 C-6.437579175681819 57.00839668390752 -12.703505257845165 60.146162475470206 -21.03515625 57.75390625 C-21.683554687499992 57.54636718750001 -22.331953125 57.33882812499999 -23 57.125 C-23.6793359375 56.925195312499994 -24.358671875 56.725390625 -25.05859375 56.51953125 C-26.71108202548379 56.030767112180854 -28.35641075991913 55.51790181783798 -30 55 C-27.253691477040633 52.25369147704063 -24.07852172068648 51.7675871362236 -20.4375 50.75 C-12.652190617593732 48.43542508878707 -5.403711139784477 45.72983564258604 -0.5 38.875 C2.4722290558075173 33.1782276430356 2.8889982702529267 28.07849619349595 1.10546875 21.90234375 C0.7406640625000023 20.7795703125 0.37585937500000455 19.656796874999998 0 18.5 C-2.2322839750671335 11.597334658657644 -3.287090778835079 6.77962473134734 0 0 Z " fill="#5A5A66" transform="translate(109,56)"/>
<path d="M0 0 C15.840000000000003 0 31.680000000000007 0 48 0 C48 12.21 48 24.42 48 37 C47.00999999999999 37 46.02000000000001 37 45 37 C45 36.34 45 35.68 45 35 C44.34 35 43.68000000000001 35 43 35 C42.34 33.35 41.68000000000001 31.7 41 30 C40.34 30 39.68000000000001 30 39 30 C39 29.34 39 28.68 39 28 C36.60110112688466 26.79757426211092 34.19832327642547 25.60355572500456 31.79296875 24.4140625 C28.18580457655858 22.62792800118289 24.591101181553626 20.81822688985666 21 19 C20.300039062500005 18.6480859375 19.600078124999996 18.296171875 18.87890625 17.93359375 C11.658500043054786 14.072321365950161 4.777824701067644 8.666987571374847 0 2 C0 1.3399999999999999 0 0.6799999999999999 0 0 Z " fill="#161737" transform="translate(80,0)"/>
<path d="M0 0 C1.899452993523937 1.3072561352583918 3.7957640071780077 2.619101270009864 5.6875 3.9375 C6.330742187499993 4.344843749999999 6.973984375000001 4.752187500000002 7.63671875 5.171875 C13.530261787543083 9.269149252800737 15.27701233903683 17.22412122906953 16.6875 23.9375 C17.10954975431126 29.335810810957902 16.767517867383432 33.867456448252874 14.6875 38.9375 C12.707499999999996 38.9375 10.727500000000006 38.9375 8.6875 38.9375 C8.468359375000006 37.8753125 8.249218749999997 36.813125 8.0234375 35.71875 C3.9834440859604 17.219256864097083 -7.053813523136711 9.264583846936489 -22.34765625 -0.94140625 C-27.269007647789962 -3.7494139063930803 -31.126920649888746 -4.335242317400443 -36.8125 -4.3125 C-38.1015625 -4.317656249999999 -39.390625 -4.322812499999998 -40.71875 -4.328125 C-44.10681981830369 -4.077702448212335 -46.23382100826388 -3.3660370601843113 -49.3125 -2.0625 C-53.12500000000001 -2.4375 -53.12500000000001 -2.4375 -56.3125 -3.0625 C-55.99695908387664 -5.981253474141102 -55.81965458918725 -7.593996915300458 -53.62109375 -9.625 C-35.56617069466231 -20.86732095493108 -15.548219593308062 -10.167616507446528 0 0 Z " fill="#3F7FA6" transform="translate(92.3125,25.0625)"/>
<path d="M0 0 C0.5987695312499994 0.469218749999996 1.1975390624999989 0.938437499999992 1.814453125 1.421875 C5.416798878583428 4.2784996720639725 8.882914626954893 7.1719904478620435 11.9375 10.625 C11.9375 11.614999999999995 11.9375 12.605000000000004 11.9375 13.625 C-4.232500000000002 13.625 -20.402500000000003 13.625 -37.0625 13.625 C-37.0625 6.034999999999997 -37.0625 -1.5550000000000068 -37.0625 -9.375 C-22.045958543113596 -10.989681877084564 -11.877215193094166 -9.52236104321743 0 0 Z " fill="#321B2D" transform="translate(37.0625,114.375)"/>
<path d="M0 0 C0 8.579999999999998 0 17.159999999999997 0 26 C-15.510000000000005 26 -31.02000000000001 26 -47 26 C-45.604128534525 20.416514138100013 -42.6479428444126 18.22062181345126 -38 15 C-35.19064576586227 13.634861942522704 -32.350968751227896 12.505545382634864 -29.43359375 11.390625 C-24.65326565937781 9.454564931443116 -20.106911610154583 7.1160244470282805 -15.51953125 4.765869140625 C-6.176979638875281 0 -6.176979638875281 0 0 0 Z " fill="#24294A" transform="translate(128,102)"/>
<path d="M0 0 C12.21 0 24.42 0 37 0 C36.67 2.97 36.34 5.94 36 9 C35.93240478515625 9.956162109375 35.8648095703125 10.91232421875 35.795166015625 11.8974609375 C35 14 35 14 32.534912109375 15.4697265625 C30.922415771484374 16.0493212890625 30.922415771484374 16.0493212890625 29.27734375 16.640625 C28.09849609375 17.071171875 26.9196484375 17.50171875 25.705078125 17.9453125 C24.46177734375 18.375859375 23.2184765625 18.80640625 21.9375 19.25 C20.72126953125 19.696015625 19.5050390625 20.14203125 18.251953125 20.6015625 C11.92259783576922 22.86817915268167 6.802347283408066 24.14970658957399 0 25 C0 16.75 0 8.5 0 0 Z " fill="#453C4A" transform="translate(0,0)"/>
</svg>
