<?xml version="1.0" encoding="UTF-8"?>
<!-- Generator: visioncortex VTracer 0.6.0 -->
<svg version="1.1" xmlns="http://www.w3.org/2000/svg" width="128" height="128">
<path d="M0 0 C42.24 0 84.48 0 128 0 C128 42.24 128 84.48 128 128 C85.75999999999999 128 43.519999999999996 128 0 128 C0 85.75999999999999 0 43.519999999999996 0 0 Z " fill="#6F8FC0" transform="translate(0,0)"/>
<path d="M0 0 C2.3551631752676343 0.9854617508797396 4.4820132096835295 2.0773091625482536 6.66015625 3.4140625 C7.824179687499992 4.096621093750002 7.824179687499992 4.096621093750002 9.01171875 4.79296875 C11.89849900695424 7.7299054206851 12.661151637329397 10.86021787446563 13.03515625 14.8515625 C12.69446449573249 17.687821354277062 12.273563411875415 20.07143964416607 11.53515625 22.7890625 C11.353720703125006 23.5127099609375 11.172285156249998 24.236357421875 10.9853515625 24.98193359375 C9.377758572844243 31.142601935100217 7.299255423436676 37.1321418361815 4.966796875 43.054443359375 C3.010119943504691 48.185690286731415 2.1459836496243128 52.70908293718156 3.6640625 58.07421875 C6.178867229933175 63.03017284120722 9.190840317901348 66.98693876614128 14.03515625 69.8515625 C16.345156250000002 70.5115625 18.655156250000005 71.1715625 21.03515625 71.8515625 C21.03515625 84.3915625 21.03515625 96.9315625 21.03515625 109.8515625 C-21.20484375000001 109.8515625 -63.444843750000004 109.8515625 -106.96484375 109.8515625 C-106.96484375 96.3215625 -106.96484375 82.7915625 -106.96484375 68.8515625 C-89.44780925246411 65.66664713681166 -89.44780925246411 65.66664713681166 -80.96484375 70.8515625 C-79.52408353475548 71.86778931848738 -78.0866882585739 72.8888002042101 -76.65234375 73.9140625 C-64.96639612599284 81.92035187561737 -47.803842701049504 82.53534994935487 -34.17578125 80.203125 C-28.151588376125915 78.58282484771662 -23.64479353067952 76.83222705399619 -19.9765625 71.6328125 C-16.537541842200653 65.5780116507471 -15.80429735846134 59.09795478811546 -17.640625 52.37890625 C-18.168099129840982 50.84148165354405 -18.721836357944 49.31266492947799 -19.30859375 47.796875 C-19.96484375 45.85156249999999 -19.96484375 45.85156249999999 -19.96484375 42.8515625 C-20.624843749999997 42.8515625 -21.284843749999993 42.8515625 -21.96484375 42.8515625 C-21.96484375 42.1915625 -21.96484375 41.5315625 -21.96484375 40.8515625 C-22.541054687499994 40.5976171875 -23.117265625 40.343671875 -23.7109375 40.08203125 C-28.97474405613319 37.20837602438136 -32.983014756403364 32.53908108274422 -35.96484375 27.4140625 C-38.082351105547076 19.870442545863554 -37.30129087896944 13.895173105602154 -33.96484375 6.8515625 C-30.00107274043502 4.209048493623349 -26.690965506496127 3.844444846752264 -21.96484375 3.8515625 C-20.123985680902408 4.256233885879212 -18.290324123703584 4.694873021927307 -16.46484375 5.1640625 C-13.069602030221645 5.906920435884185 -11.569048626729213 6.14305676113959 -8.40625 4.6171875 C-6.027013844509867 2.9638011596798854 -6.027013844509867 2.9638011596798854 -3.9375 1.13671875 C-1.96484375 -0.1484375 -1.96484375 -0.1484375 0 0 Z " fill="#909FB4" transform="translate(106.96484375,18.1484375)"/>
<path d="M0 0 C7.294491211753975 1.2098180546323647 14.23732790489376 0.509848248242541 21.5625 -0.125 C31.821989413072522 -0.7627520445963967 37.95548490753234 1.587784079868257 46.34375 7.390625 C51.106380763877425 10.576892060340526 55.868315790413675 12.710975172441948 61.375 14.25 C64.64077312681755 15.308560944554657 65.41584225317494 15.688344685859022 67.625 18.5 C69.56752113832293 25.493076097962543 69.16721586427256 31.28038037852353 65.8671875 37.80078125 C62.23071908066959 43.58211277893548 58.13769153721654 46.00737254964568 51.5625 47.75 C34.01495898496926 51.126846380899394 17.53756761073322 48.59327445718988 2.75 38.6875 C1.6575195312500028 37.923730468749994 1.6575195312500028 37.923730468749994 0.54296875 37.14453125 C-3.9787861637195263 34.24597040787211 -8.659075903207025 34.311129970536285 -13.82421875 35.359375 C-15.393692551974665 35.73342028613888 -16.95929331518972 36.12428464238215 -18.51953125 36.53515625 C-20.437499999999993 36.875 -20.437499999999993 36.875 -22.4375 35.875 C-22.4375 23.664999999999992 -22.4375 11.454999999999998 -22.4375 -1.125 C-16.475963199736547 -4.10576840013173 -6.354287637968099 -1.1589085394309038 0 0 Z " fill="#3C5B93" transform="translate(22.4375,51.125)"/>
<path d="M0 0 C42.24 0 84.48 0 128 0 C128 29.700000000000003 128 59.400000000000006 128 90 C120.32018186517978 88.9028831235971 117.92328956823745 87.54270560936061 113 82 C109.51669178209866 77.01408823712161 108.48223003395894 73.13497203948646 109 67 C110.0960498390856 63.033660400124106 111.47814437059868 59.181645091127166 112.875 55.3125 C117.99109801055346 41.74224825599844 117.99109801055346 41.74224825599844 118.4609375 27.48828125 C116.6091760133431 24.334345241977413 114.75229239922994 23.07126274441804 111.625 21.1875 C107.0335851364605 18.377991381119877 103.15227995556977 15.374261035974342 99.125 11.8125 C95.74409809995043 9.266931469273471 93.91150567819875 8.039445274962986 89.66015625 7.85546875 C82.39118416271172 9.204603051915146 75.70070821495725 12.219150128738413 69.149169921875 15.572265625 C61.026001301870295 19.712655960557647 51.953423969053894 19.929220217328837 43 19 C40.66796875 17.8125 40.66796875 17.8125 38.8125 16.375 C36.387039953274105 14.51931397287135 35.41705776102107 13.993331925332512 32.3125 14.04296875 C29.17544271051823 14.586235181642026 26.099455913208143 15.273153109053254 23 16 C15.240983058099456 17.40156976636456 7.887268520669978 18.235440851363283 0 18 C0 12.059999999999999 0 6.119999999999999 0 0 Z " fill="#A27D6A" transform="translate(0,0)"/>
<path d="M0 0 C1.4407602152445236 1.0162268184873824 2.8781554914261065 2.0372377042100993 4.3125 3.0625 C10.79336092460408 7.502674612704524 18.300878786976696 8.959578214456315 26 10 C26 10.659999999999997 26 11.319999999999993 26 12 C27.206562500000004 12.092812500000008 27.206562500000004 12.092812500000008 28.4375 12.1875 C38.29000784837024 14.434563193487946 44.287060216330616 20.4634481986877 49.765625 28.6328125 C54 35.41968457943925 54 35.41968457943925 54 39 C27.599999999999994 39 1.1999999999999957 39 -26 39 C-26 25.47 -26 11.939999999999998 -26 -2 C-8.482965502464108 -5.184915363188338 -8.482965502464108 -5.184915363188338 0 0 Z " fill="#9F9E9D" transform="translate(26,89)"/>
<path d="M0 0 C2.334690946751593 0.9888102833300891 4.453947866054321 2.078643067461435 6.6171875 3.40625 C7.781210937499992 4.088808593750002 7.781210937499992 4.088808593750002 8.96875 4.78515625 C11.85553025695424 7.722092920685107 12.618182887329397 10.852405374465626 12.9921875 14.84375 C12.65149574573249 17.680008854277077 12.230594661875415 20.06362714416605 11.4921875 22.78125 C11.220034179687502 23.86672119140625 11.220034179687502 23.86672119140625 10.9423828125 24.97412109375 C9.334789822844243 31.134789435100217 7.256286673436676 37.124329336181496 4.923828125 43.046630859375 C2.967151193504691 48.177877786731415 2.1030148996243128 52.70127043718156 3.62109375 58.06640625 C6.135898479933175 63.02236034120722 9.147871567901348 66.9791262661413 13.9921875 69.84375 C16.302187500000002 70.50375 18.612187500000005 71.16375 20.9921875 71.84375 C20.9921875 84.38375 20.9921875 96.92375 20.9921875 109.84375 C13.402187499999997 109.84375 5.812187499999993 109.84375 -2.0078125 109.84375 C-1.0078125 100.84375 -1.0078125 100.84375 0.0546875 97.28125 C2.880274329815194 86.92076495734429 -1.1531941272692734 80.59233419150988 -6.26171875 71.6484375 C-11.365009430607728 62.345760023172645 -10.198576931093882 52.939202466093434 -8.0078125 42.84375 C-7.661054687499998 41.8833984375 -7.314296874999997 40.923046875 -6.95703125 39.93359375 C-3.7982945134503296 29.65145071044943 -5.8422653067790975 19.41279817077251 -10.0078125 9.84375 C-10.37076788935721 8.518173795391057 -10.71521657126847 7.186611315020514 -11.0078125 5.84375 C-9.602289514883196 4.807627286612615 -8.182895560074243 3.790300747375145 -6.7578125 2.78125 C-5.968906250000003 2.212773437500001 -5.180000000000007 1.6442968749999984 -4.3671875 1.05859375 C-2.0078125 -0.15625 -2.0078125 -0.15625 0 0 Z " fill="#9F989B" transform="translate(107.0078125,18.15625)"/>
<path d="M0 0 C30.69 0 61.38 0 93 0 C92.67 2.31 92.34 4.62 92 7 C91.151796875 7.281015625 90.30359375 7.56203125 89.4296875 7.8515625 C78.22268916696478 11.459322480165845 78.22268916696478 11.459322480165845 67.5 16.25 C60.06467639915984 19.96766180042008 51.15719872657225 19.84658494891993 43 19 C40.66796875 17.8125 40.66796875 17.8125 38.8125 16.375 C36.387039953274105 14.51931397287135 35.41705776102107 13.993331925332512 32.3125 14.04296875 C29.17544271051823 14.586235181642026 26.099455913208143 15.273153109053254 23 16 C15.240983058099456 17.40156976636456 7.887268520669978 18.235440851363283 0 18 C0 12.059999999999999 0 6.119999999999999 0 0 Z " fill="#585E7A" transform="translate(0,0)"/>
<path d="M0 0 C1.4407602152445236 1.0162268184873824 2.8781554914261065 2.0372377042100993 4.3125 3.0625 C10.79336092460408 7.502674612704524 18.300878786976696 8.959578214456315 26 10 C26 10.659999999999997 26 11.319999999999993 26 12 C25.174999999999997 12.1959375 24.35 12.391874999999999 23.5 12.59375 C12.547339611097335 15.429706707840865 -2.1333391176869902 19.531605249866885 -9.09375 29.19140625 C-10.695346861586266 32.38769653842431 -11.38305263256906 35.483400005643645 -12 39 C-16.62 39 -21.240000000000002 39 -26 39 C-26 25.47 -26 11.939999999999998 -26 -2 C-8.482965502464108 -5.184915363188338 -8.482965502464108 -5.184915363188338 0 0 Z " fill="#6F8EAF" transform="translate(26,89)"/>
<path d="M0 0 C3.8459502759232578 3.4368066295484425 6.755952228424377 6.1173457621308955 7.4375 11.375 C6.8825219336113435 15.973389692934575 5.565817152637521 17.14734627788998 2 20 C-4.920943040252297 25.339013202480345 -14.86898564685574 25.755732672002154 -23.25 24.72265625 C-29.536023146590736 23.607736604067526 -34.19894557382578 21.3096032124825 -38.35546875 16.3984375 C-40.838996936438974 12.68585952846324 -41.81315459050612 9.263784681553133 -40.99609375 4.92578125 C-38.505932320753324 0.11146915345642583 -32.79688067393751 -1.8548205114586551 -28.015625 -3.8125 C-18.27817690282705 -6.808637876053211 -8.160973421347954 -6.252770867713359 0 0 Z " fill="#17346F" transform="translate(69,64)"/>
<path d="M0 0 C0.8868750000000034 0.6393750000000011 1.7737499999999997 1.2787500000000023 2.6875 1.9375 C0.1596199282332762 4.736224365170301 -1.5166113353248178 6.395230190760689 -5.3125 6.9375 C-5.3125 7.5975 -5.3125 8.2575 -5.3125 8.9375 C-5.972499999999997 8.9375 -6.6325 8.9375 -7.3125 8.9375 C-7.3125 9.5975 -7.3125 10.2575 -7.3125 10.9375 C-7.972499999999997 10.9375 -8.6325 10.9375 -9.3125 10.9375 C-9.621875 11.576875000000001 -9.931249999999999 12.216250000000002 -10.25 12.875 C-11.3125 14.9375 -11.3125 14.9375 -12.3125 15.9375 C-12.734019630795633 20.768763460657645 -12.901226126237148 25.367563663367605 -11.1875 29.9375 C-8.846738611626943 32.43431214759793 -6.44578880176303 33.61455583925561 -3.3125 34.9375 C-3.3125 35.2675 -3.3125 35.5975 -3.3125 35.9375 C-9.73470388185396 36.84100396816957 -15.10600973407129 36.99655277043347 -21.41015625 35.484375 C-27.62470919692622 34.313395979044856 -34.01175354502708 34.257876938388456 -40.3125 33.9375 C-40.3125 23.377499999999998 -40.3125 12.817499999999999 -40.3125 1.9375 C-37.26 1.6693749999999987 -34.207499999999996 1.401250000000001 -31.0625 1.125 C-24.06610140910972 0.4748846359231109 -17.45990118962542 -0.4806124432828227 -10.72265625 -2.57421875 C-6.315293139494472 -3.4671205146891264 -3.760702963463679 -2.341569769703801 0 0 Z " fill="#6F75A8" transform="translate(40.3125,16.0625)"/>
<path d="M0 0 C6.127842877190204 7.361201083404325 6.2863457043512625 16.307990946519 6.27734375 25.41796875 C5.793455064036749 29.65526427032684 4.700583903286329 32.41252074380094 2.84375 36.21484375 C0.8854912709802534 36.24179226461954 -1.072872261729941 36.2612159333319 -3.03125 36.27734375 C-4.667070312500002 36.29474609375 -4.667070312500002 36.29474609375 -6.3359375 36.3125 C-9.15625 36.21484375 -9.15625 36.21484375 -11.15625 35.21484375 C-11.15625 34.55484375 -11.15625 33.89484375 -11.15625 33.21484375 C-12.020566406249998 32.83392578125 -12.020566406249998 32.83392578125 -12.90234375 32.4453125 C-18.16615030613319 29.57165727438136 -22.174421006403364 24.902362332744225 -25.15625 19.77734375 C-27.273757355547076 12.233723795863568 -26.49269712896944 6.258454355602154 -23.15625 -0.78515625 C-16.72732066702814 -5.071109138647909 -6.105930460234603 -5.055090978853645 0 0 Z " fill="#B3C5E2" transform="translate(96.15625,25.78515625)"/>
<path d="M0 0 C2.275438672498325 0.5651023387446301 4.545284524131688 1.1527598543811948 6.8125 1.75 C8.077070312499998 2.0748437499999994 9.341640624999997 2.399687499999999 10.64453125 2.734375 C14.14583522316019 4.055006533531895 15.246881348904992 4.77672219939025 17 8 C18.898302155142034 13.69490646542613 18.64902155834909 19.10199042314396 16.4375 24.6875 C13.554402044246444 30.384103891885488 10.235376043876556 33.815340810563924 4.18359375 36.03125 C-10.01222302865446 39.79357690084585 -26.175088356805688 39.35238474256592 -39.625 33.0625 C-42.612604190544396 31.236741883556206 -44.608902006414226 29.500733491108264 -47 27 C-45.888828125 27.011601562500005 -44.77765625 27.023203124999995 -43.6328125 27.03515625 C-32.92833514074455 27.12427206716157 -32.92833514074455 27.12427206716157 -22.265625 26.27734375 C-20.65576471087983 26.08027464564219 -19.03965559541625 25.9316118378554 -17.421875 25.81640625 C-11.951623023832909 25.415145251748214 -7.911256990471202 24.4556284952356 -3 22 C-2.2162500000000023 21.67 -1.4325000000000045 21.340000000000003 -0.625 21 C1.3483006916173395 20.02546436283201 1.3483006916173395 20.02546436283201 2 17 C2.118784335152327 15.419892099834044 2.1751978365707174 13.834518649691262 2.1875 12.25 C2.2016796874999898 11.430156249999996 2.215859375000008 10.610312499999992 2.23046875 9.765625 C1.9450833153351539 6.34099978402179 1.0198488104909131 3.2731906486902034 0 0 Z " fill="#566B90" transform="translate(73,62)"/>
<path d="M0 0 C2.334690946751593 0.9888102833300891 4.453947866054321 2.078643067461435 6.6171875 3.40625 C7.781210937499992 4.088808593750002 7.781210937499992 4.088808593750002 8.96875 4.78515625 C11.85429756321767 7.720838809489784 12.608801067035998 10.85589514811491 12.9921875 14.84375 C12.675437924101303 17.64313138699663 12.276512178279162 19.975878665585043 11.5546875 22.65625 C11.375830078125006 23.36966552734375 11.196972656249997 24.083081054687497 11.0126953125 24.818115234375 C8.671793300775605 33.7137350712111 5.3362032531131405 42.28645126099419 1.9921875 50.84375 C-1.9461689087786596 48.58664153715375 -4.880492021211069 46.14977450614829 -8.0078125 42.84375 C-7.685546875 42.0123046875 -7.36328125 41.180859375 -7.03125 40.32421875 C-3.9313154480432075 29.78207491109349 -5.731378369367164 19.66752639647384 -10.0078125 9.84375 C-10.37076788935721 8.518173795391057 -10.71521657126847 7.186611315020514 -11.0078125 5.84375 C-9.602289514883196 4.807627286612615 -8.182895560074243 3.790300747375145 -6.7578125 2.78125 C-5.968906250000003 2.212773437500001 -5.180000000000007 1.6442968749999984 -4.3671875 1.05859375 C-2.0078125 -0.15625 -2.0078125 -0.15625 0 0 Z " fill="#B4A2A0" transform="translate(107.0078125,18.15625)"/>
<path d="M0 0 C11.549999999999997 0 23.099999999999994 0 35 0 C35 8.58 35 17.16 35 26 C24.85467128027682 26 24.85467128027682 26 19.25 22.125 C18.37480712890624 21.529573974609374 18.37480712890624 21.529573974609374 17.48193359375 20.922119140625 C11.13223512954859 16.5414582474471 5.0345949061376984 11.801612890431821 -1 7 C-0.6700000000000017 4.6899999999999995 -0.3400000000000034 2.38 0 0 Z " fill="#7E6163" transform="translate(93,0)"/>
<path d="M0 0 C12.870000000000001 0 25.740000000000002 0 39 0 C40 2.0000000000000018 40 2.0000000000000018 39.46875 4.27734375 C36.85079305840641 11.466169061392058 36.85079305840641 11.466169061392058 32.8125 14 C31.554375 14.33 30.29625 14.66 29 15 C28.3180859375 15.188203125 27.636171875 15.37640625 26.93359375 15.5703125 C18.03428413657432 17.830960022551782 9.14705196842888 18 0 18 C0 12.059999999999999 0 6.119999999999999 0 0 Z " fill="#44477E" transform="translate(0,0)"/>
<path d="M0 0 C0.8830078124999972 0.7244531250000001 1.7660156249999943 1.4489062500000003 2.67578125 2.1953125 C3.339648437500003 2.7496093750000004 4.003515625000006 3.3039062500000007 4.6875 3.875 C3.690462943501956 4.877954190364502 2.6898228709531793 5.8773282792600625 1.6875 6.875 C1.2247265624999955 7.355820312500001 0.7619531249999909 7.836640625000001 0.28515625 8.33203125 C-2.4939942849577648 10.78588681140037 -4.260313311529487 11.936540162949061 -8.05078125 11.71484375 C-10.091760208581888 11.31511894747618 -12.12711242192816 10.885731046586852 -14.15625 10.4296875 C-18.97277902198752 9.583218290690311 -23.50650366010217 10.174913918991262 -28.3125 10.875 C-28.3125 10.215 -28.3125 9.555 -28.3125 8.875 C-29.240624999999994 8.606875000000002 -30.168750000000003 8.338749999999997 -31.125 8.0625 C-34.164342885636884 6.930195787703905 -35.213236167647025 6.175994891317824 -37.3125 3.875 C-11.114668803859317 -9.188126211190369 -11.114668803859317 -9.188126211190369 0 0 Z " fill="#878A9F" transform="translate(101.3125,13.125)"/>
</svg>
