<?xml version="1.0" encoding="UTF-8"?>
<!-- Generator: visioncortex VTracer 0.6.0 -->
<svg version="1.1" xmlns="http://www.w3.org/2000/svg" width="128" height="128">
<path d="M0 0 C42.24 0 84.48 0 128 0 C128 42.24 128 84.48 128 128 C85.75999999999999 128 43.519999999999996 128 0 128 C0 85.75999999999999 0 43.519999999999996 0 0 Z " fill="#C1693A" transform="translate(0,0)"/>
<path d="M0 0 C2.4692708333332973 1.1065104166666586 2.4692708333332973 1.1065104166666586 6.2265625 1.9375 C6.2265625 30.317499999999995 6.2265625 58.697500000000005 6.2265625 87.9375 C-36.01343750000001 87.9375 -78.2534375 87.9375 -121.7734375 87.9375 C-121.7734375 63.8475 -121.7734375 39.75749999999999 -121.7734375 14.9375 C-99.7734375 11.9375 -99.7734375 11.9375 -95.7734375 14.9375 C-95.9526171875 15.629726562499997 -96.13179687499999 16.321953125 -96.31640625 17.03515625 C-98.90683086593151 28.951109483284952 -95.88205997329297 39.44438562126764 -91.8359375 50.625 C-91.59552734375 51.296279296875 -91.3551171875 51.96755859375 -91.107421875 52.6591796875 C-89.31989622478557 57.308168812261954 -87.3053166985319 60.67156040073405 -82.7734375 62.9375 C-71.48518362750303 62.573362778306546 -62.5503412266937 57.62943345481463 -53.30078125 51.51171875 C-48.674631174158336 48.63020641527946 -43.88954065347093 47.16758427632382 -38.5859375 46 C-33.58310032430144 44.60576668873975 -31.029764161840973 42.68738356470706 -28.0234375 38.5 C-25.651611298382562 33.63775628668425 -25.530763777009852 30.346921307047353 -26.95703125 25.05078125 C-27.860033456007898 22.713344917702052 -29.044727841052065 20.87566894604393 -30.4609375 18.8125 C-32.14542794887646 16.222910205458568 -32.75560156290743 15.14707226083771 -33.0234375 12 C-30.546483536733362 5.9314627899967505 -26.257624445942525 0.5607851878382775 -20.7734375 -3.0625 C-13.680995277812599 -5.426647407395805 -6.582742554106844 -2.91613350931118 0 0 Z " fill="#B77E5F" transform="translate(121.7734375,40.0625)"/>
<path d="M0 0 C4.763231197771589 4.512534818941511 4.763231197771589 4.512534818941511 6.0625 7.1875 C7.297971895432774 9.576078997836696 8.591651543892084 9.871764687228726 11 11 C11.590390624999998 11.341601562500003 12.180781249999995 11.683203124999999 12.7890625 12.03515625 C23.080445252048385 17.79395127933772 35.56881232068589 16.112070467444255 47 16 C47.495000000000005 18.97 47.495000000000005 18.97 48 22 C51.3 21.340000000000003 54.599999999999994 20.68 58 20 C66.2317960580213 33.08920052045684 66.2317960580213 33.08920052045684 66 39 C64.23616081070402 44.585490766103916 61.29613719662906 50.0654573099539 56.08984375 53.12109375 C54.01291655160546 53.99456780539958 52.218256634613624 54.39709553540237 50 54.75 C42.77374348171463 56.25497243190736 36.07210055557525 59.84299322693653 30.0625 64.0625 C23.508384256402202 68.20898138880678 15.857530403281828 71.61714123784542 8 71 C3.0158515530892984 68.96565369513849 1.5096645303268303 66.52101956496979 -0.625 61.625 C-10.426580811241323 35.698237854135854 -10.426580811241323 35.698237854135854 -6.1015625 24.21875 C-4.881870858528071 21.762066126396967 -3.4180198285775063 19.659356824382137 -1.8125 17.4375 C1.9779323242308209 12.061466035187479 1.5682518847978173 8.409511308786904 0.5 2 C0.33500000000000085 1.3400000000000034 0.1700000000000017 0.6799999999999997 0 0 Z " fill="#7C4E36" transform="translate(31,33)"/>
<path d="M0 0 C2.46927083333334 1.1065104166666657 2.46927083333334 1.1065104166666657 6.2265625 1.9375 C6.2265625 21.0775 6.2265625 40.2175 6.2265625 59.9375 C1.0496875000000045 59.916875000000005 -4.127187499999991 59.89625000000001 -9.4609375 59.875 C-19.635978020082945 59.859441834067155 -29.795321102050423 59.87725031666642 -39.9609375 60.375 C-40.770710449218754 60.414235839843755 -41.58048339843751 60.453471679687496 -42.414794921875 60.493896484375 C-45.85838997146456 60.68629466355314 -49.135988882329514 60.99754991839826 -52.546875 61.5625 C-57.14701788520162 62.0971413038491 -59.5917181687117 60.771587426003634 -63.7734375 58.9375 C-56.14706766681826 52.5027504532529 -48.34672998211094 48.124300052391874 -38.5859375 46 C-33.583100324301455 44.60576668873975 -31.029764161840973 42.68738356470706 -28.0234375 38.5 C-25.651611298382562 33.63775628668424 -25.530763777009838 30.346921307047353 -26.95703125 25.05078125 C-27.860033456007898 22.713344917702045 -29.044727841052065 20.87566894604393 -30.4609375 18.8125 C-32.14542794887649 16.22291020545854 -32.75560156290743 15.147072260837739 -33.0234375 12 C-30.546483536733376 5.9314627899967505 -26.257624445942554 0.5607851878382917 -20.7734375 -3.0625 C-13.68099527781257 -5.426647407395805 -6.582742554106858 -2.91613350931118 0 0 Z " fill="#7C8687" transform="translate(121.7734375,40.0625)"/>
<path d="M0 0 C0.9224047851562602 -0.004753417968743179 1.844809570312492 -0.009506835937500568 2.795166015625 -0.014404296875 C9.26135880693353 0.0013087087379375362 15.380458533623738 0.5345871394203385 21.875 1.125 C21.875 10.364999999999995 21.875 19.605000000000004 21.875 29.125 C-0.5649999999999977 29.125 -23.004999999999995 29.125 -46.125 29.125 C-47.03000889087826 20.074911091217416 -47.291062160623994 14.623744487449827 -43.5 6.75 C-39.512541644179436 2.34280918567201 -34.327443887245806 1.063023043253466 -28.55859375 0.61328125 C-26.893831263567222 0.5395365096709526 -25.228309723981397 0.4816631797889386 -23.5625 0.4375 C-22.663540039062497 0.40479003906250455 -21.764580078124993 0.3720800781249949 -20.83837890625 0.33837890625 C-13.894399849700136 0.11229586719953488 -6.9473598930532745 0.029058915324014833 0 0 Z " fill="#E5AE83" transform="translate(106.125,98.875)"/>
<path d="M0 0 C0 9.240000000000002 0 18.480000000000004 0 28 C-8.793893129770993 26.900763358778633 -8.793893129770993 26.900763358778633 -12.9375 24.875 C-17.918477800810052 22.786202857724817 -21.81695014167407 22.322249756842474 -27 24 C-31.588895409035075 26.7893285819625 -33.25613799280164 29.393514275764552 -35.6875 34.125 C-37.48492897077308 37.36326345404695 -38.43173900933837 38.73591190475476 -41.82421875 40.3125 C-44.54936844773334 41.03827610387776 -47.20793322383139 41.61248895277375 -50 42 C-50 39.69 -50 37.38 -50 35 C-53.629999999999995 35 -57.260000000000005 35 -61 35 C-60.1169921875 34.0138671875 -59.233984375000006 33.027734375 -58.32421875 32.01171875 C-55.04114289595165 28.18226519741679 -52.440235502522796 24.105024225824508 -49.8125 19.8125 C-35.72673556241156 -2.5538386095641883 -25.279402897711122 -6.4715271418140485 0 0 Z " fill="#B57355" transform="translate(128,14)"/>
<path d="M0 0 C16.83 0 33.66 0 51 0 C49.87491248541424 10.125787631271864 49.87491248541424 10.125787631271864 47.70703125 13.5 C47.2444189453125 14.2378271484375 46.78180664062501 14.975654296875 46.30517578125 15.73583984375 C45.8125927734375 16.4830126953125 45.320009765625 17.230185546875 44.8125 18 C44.3121826171875 18.7845556640625 43.811865234375006 19.569111328125 43.29638671875 20.37744140625 C42.313631910417214 21.91301574301162 41.32367552842666 23.444011105626593 40.32568359375 24.9697265625 C39.23436228962183 26.6410760956731 38.17002874100889 28.330016054780778 37.11328125 30.0234375 C34.56364215503595 34.05200110936578 32.247928537656364 37.61701569838789 28 40 C23.554437353956317 40.64662729396999 21.525648614237596 40.28671742594778 17.5625 38.125 C16.716875 37.42375 15.871250000000003 36.7225 15 36 C15 35.34 15 34.68 15 34 C14.340000000000003 34 13.68 34 13 34 C10.65516839464621 29.362702755665087 8.326889644639493 24.717819859146296 6.02197265625 20.060546875 C5.139786302685465 18.281843381429844 4.248479191464575 16.50766889326457 3.35546875 14.734375 C2.908164062499999 13.81140625 2.4608593749999983 12.8884375 2 11.9375 C1.6081250000000011 11.1421484375 1.2162500000000023 10.346796874999999 0.8125 9.52734375 C0 7 0 7 0 0 Z " fill="#C75117" transform="translate(32,0)"/>
<path d="M0 0 C10.902444520447018 0 18.574805248859622 0.9104326952873407 26.53125 8.28515625 C30.89948125237444 13.38529858987335 33.44606086999112 20.019251944774744 33.43359375 26.7265625 C32.59422398496053 31.12758234912586 29.70256783440538 34.52526992719308 27 38 C26.141484375 37.651953125 25.28296875 37.30390625 24.3984375 36.9453125 C20.618137078884605 35.893780658724225 18.444196347048457 36.125956648641825 14.625 36.875 C9.448236330979903 37.870047031271504 5.477610005557496 38 0 38 C0 25.46 0 12.919999999999998 0 0 Z " fill="#947169" transform="translate(0,17)"/>
<path d="M0 0 C3.9929594342799533 5.615963730892595 8.2778690684939 11.914338753405616 8 19 C6.236160810704035 24.585490766103916 3.2961371966290756 30.0654573099539 -1.91015625 33.12109375 C-3.987083448394543 33.99456780539958 -5.78174336538639 34.39709553540237 -8 34.75 C-15.34230001353093 36.27914016810726 -22.150591045066307 39.93278173857752 -28.1875 44.3125 C-32.030423445597734 46.618254067358635 -35.534938080948265 47.238773364655174 -40 47 C-43.56250000000001 45.5625 -43.56250000000001 45.5625 -46 44 C-46 43.34 -46 42.68000000000001 -46 42 C-44.05078124999998 40.406249999999986 -44.05078124999998 40.406249999999986 -41.3125 38.5 C-40.3160546875 37.78972656249999 -39.319609375 37.079453125 -38.29296875 36.34765625 C-37.7584912109375 35.9675439453125 -37.224013671875 35.587431640625 -36.67333984375 35.19580078125 C-25.23049022550311 27.58319663332651 -25.23049022550311 27.58319663332651 -17 17 C-16.933427142889514 14.75874083065095 -16.933427142889514 14.75874083065095 -17.125 12.4375 C-17.28428244956629 9.692220133945561 -17.311955667023938 8.455339017084619 -15.7421875 6.1640625 C-11.232385593933785 2.0182804787283644 -6.193548503705813 0 0 0 Z " fill="#645A5B" transform="translate(89,53)"/>
<path d="M0 0 C10.56 0 21.12 0 32 0 C32.66 3.3000000000000003 33.32 6.6000000000000005 34 10 C35.001304744032396 12.86282249988805 35.001304744032396 12.86282249988805 36.2421875 15.25390625 C36.88220703125 16.565849609375 36.88220703125 16.565849609375 37.53515625 17.904296875 C37.9773046875 18.78150390625 38.419453125 19.6587109375 38.875 20.5625 C39.748487124282796 22.33409777284063 40.620893628804694 24.106228779324866 41.4921875 25.87890625 C41.913388671875 26.7311376953125 42.33458984375 27.583369140625 42.7685546875 28.46142578125 C45.07473845105065 33.21552942387483 47.32803653944212 37.98410961832635 49 43 C52.60132708753903 45.30484933602498 57.00536651221259 46.53530105447795 61 48 C60.505 48.989999999999995 60.505 48.989999999999995 60 50 C50.00294299980132 49.59028454917218 43.913785873627134 47.32670723514545 37 40 C34.71337086322983 37.27483924795884 32.499647470644305 34.49955809700484 30.28125 31.71875 C21.13780986451097 20.821773400170606 13.908579760150015 18.366021226443305 0 17 C0 11.39 0 5.779999999999999 0 0 Z " fill="#9A503A" transform="translate(0,0)"/>
<path d="M0 0 C11.586891160553215 2.5748647023451525 11.586891160553215 2.5748647023451525 15 7 C23.08882509819627 21.33519559069228 23 35.867786965345914 23 52 C15.41 52 7.8199999999999985 52 0 52 C0 34.84 0 17.680000000000007 0 0 Z " fill="#EAC2A1" transform="translate(0,76)"/>
<path d="M0 0 C1 1 1 1 1.113525390625 2.857666015625 C1.1056701660156136 4.043804931640622 1.1056701660156136 4.043804931640622 1.09765625 5.25390625 C1.0928222656249886 6.534912109375 1.0928222656249886 6.534912109375 1.087890625 7.841796875 C1.0753222656250045 9.188544921875007 1.0753222656250045 9.188544921875007 1.0625 10.5625 C1.0579882812500045 11.464199218749997 1.053476562500009 12.365898437499993 1.048828125 13.294921875 C1.0370022453062688 15.530013137117905 1.0205222017494577 17.764974366394227 1 20 C0.08001220703124545 19.994763183593747 -0.8399755859374949 19.989526367187494 -1.787841796875 19.984130859375 C-23.494022392615918 19.821289379240767 -23.494022392615918 19.821289379240767 -45.1875 20.4375 C-45.997272949218754 20.476735839843755 -46.80704589843751 20.515971679687496 -47.641357421875 20.556396484375 C-51.08495247146456 20.74879466355314 -54.362551382329514 21.060049918398263 -57.7734375 21.625 C-62.373580385201635 22.1596413038491 -64.8182806687117 20.834087426003634 -69 19 C-58.97700864624336 10.543101045267832 -49.52003738119981 6.873439562843231 -36.5625 5.5625 C-28.350804238399604 4.649111502594707 -20.41915806970367 3.4390719741836335 -12.441650390625 1.269775390625 C-8.198024526408332 0.14243331934534353 -4.387494958752399 -0.24897512376274733 0 0 Z " fill="#A5988C" transform="translate(127,80)"/>
<path d="M0 0 C1.4232458496093727 -0.006767578124993179 1.4232458496093727 -0.006767578124993179 2.875244140625 -0.013671875 C4.273111572265634 -0.010771484374998863 4.273111572265634 -0.010771484374998863 5.69921875 -0.0078125 C6.516081542968749 -0.006684570312501137 7.332944335937498 -0.005556640625002274 8.174560546875 -0.00439453125 C12.89820560900651 0.190387378259814 17.60425619868664 0.696977836244244 22.3125 1.125 C22.3125 10.364999999999995 22.3125 19.605000000000004 22.3125 29.125 C13.732500000000002 29.125 5.152500000000003 29.125 -3.6875 29.125 C-4.347499999999997 25.495000000000005 -5.007499999999993 21.864999999999995 -5.6875 18.125 C-9.67015824913085 10.458382870423094 -14.051691395599818 6.9681049906634485 -21.6875 3.125 C-22.448046875000003 2.7421484375000063 -23.208593750000006 2.3592968749999983 -23.9921875 1.96484375 C-24.551640625000005 1.6876953124999972 -25.111093749999995 1.4105468749999943 -25.6875 1.125 C-17.11702968329395 0.2932039207356354 -8.605877611668262 0.016730746268123653 0 0 Z " fill="#E3C0AD" transform="translate(105.6875,98.875)"/>
<path d="M0 0 C0.8894531250000028 0.0006445312500034106 1.7789062499999986 0.0012890624999997158 2.6953125 0.001953125 C11.440132141261486 0.06068698826220498 11.440132141261486 0.06068698826220498 15 1.1875 C16.60745058775629 4.40240117551258 16.403052424507848 6.617607097216293 16 10.1875 C12.4366856107046 17.97096092408303 4.287592076436582 22.98329941134243 -2.36572265625 27.9482421875 C-3.7747498748088333 29.016694855770794 -5.147190751357613 30.133084911694453 -6.51171875 31.2578125 C-11.225543478260867 35.11865942028986 -11.225543478260867 35.11865942028986 -14.8125 35.4375 C-18.377780172869862 33.40019704407436 -19.351253218885738 30.23956428636143 -20.55078125 26.4453125 C-21.761145999536843 20.361914019719165 -22.542276321230972 12.458367902744882 -19.8359375 6.71875 C-14.331846900777599 0.05738906965904533 -8.14623550837078 -0.11215831497032269 0 0 Z " fill="#412925" transform="translate(57,59.8125)"/>
<path d="M0 0 C1.37890625 1.79296875 1.37890625 1.79296875 2 4 C1.65234375 6.050781249999993 1.65234375 6.050781249999993 0.9375 8.3125 C-0.5171769580392898 14.42214322376502 0.897967479623091 19.634052794294064 2.37109375 25.58203125 C3.0036546231554233 29.01986208236643 2.9451683921103005 30.69699217810917 2 34 C1.6790234374999997 35.2439453125 1.3580468749999994 36.487890625000006 1.02734375 37.76953125 C0.6656620302872334 39.11761765983849 0.30234867723021 40.46526725192379 -0.0625 41.8125 C-0.24876953125000156 42.50537109375 -0.4350390624999996 43.1982421875 -0.626953125 43.912109375 C-1.0832119831623785 45.60845641175756 -1.5414095438369806 47.30428180162977 -2 49 C-3.6161962406465378 45.95354159948927 -4.768876586613615 42.88852114528049 -5.875 39.625 C-7.843159610362502 34.17806380895986 -9.573780770333691 29.83605779542316 -14.3125 26.25 C-17.625182503377793 24.62400345750231 -17.625182503377793 24.62400345750231 -24 23 C-24 16.069999999999993 -24 9.14 -24 2 C-20.968125 1.484375 -17.93625 0.96875 -14.8125 0.4375 C-13.86608642578125 0.27177490234375057 -12.919672851562499 0.10604980468750114 -11.944580078125 -0.064697265625 C-3.476965845909451 -1.4515488482922976 -3.476965845909451 -1.4515488482922976 0 0 Z " fill="#AB8A64" transform="translate(24,53)"/>
<path d="M0 0 C2.716755474872116 1.0297928495627673 2.716755474872116 1.0297928495627673 8.1328125 1.75390625 C8.1328125 6.703906249999999 8.1328125 11.653906249999999 8.1328125 16.75390625 C3.297505244420904 16.39573534217932 -0.3792331244091258 15.637328423585842 -4.8046875 13.62890625 C-9.785665300810038 11.540109107724824 -13.68413764167407 11.076156006842474 -18.8671875 12.75390625 C-23.456082909035075 15.543234831962494 -25.123325492801627 18.147420525764545 -27.5546875 22.87890625 C-29.35211647077307 26.11716970404693 -30.298926509338372 27.489818154754758 -33.69140625 29.06640625 C-36.41655594773334 29.792182353877763 -39.07512072383139 30.366395202773752 -41.8671875 30.75390625 C-42.666202628759294 23.925958786056995 -40.20761577229533 20.256058293961573 -36.3671875 14.75390625 C-35.861875 13.985624999999999 -35.356562499999995 13.217343749999998 -34.8359375 12.42578125 C-26.024923927925244 -0.5264087009498866 -15.407787617573533 -6.253749091838671 0 0 Z " fill="#9D7C72" transform="translate(119.8671875,25.24609375)"/>
</svg>
