<?xml version="1.0" encoding="UTF-8"?>
<!-- Generator: visioncortex VTracer 0.6.0 -->
<svg version="1.1" xmlns="http://www.w3.org/2000/svg" width="128" height="128">
<path d="M0 0 C42.24 0 84.48 0 128 0 C128 42.24 128 84.48 128 128 C85.75999999999999 128 43.519999999999996 128 0 128 C0 85.75999999999999 0 43.519999999999996 0 0 Z " fill="#8C6956" transform="translate(0,0)"/>
<path d="M0 0 C19.799999999999997 0 39.6 0 60 0 C59.169075443134886 4.154622784325608 58.44216957388902 6.363682150372819 56.5 9.9375 C53.800596487139245 15.200025861085013 53.800596487139245 15.200025861085013 53 21 C54.93446905907692 26.428158998546948 57.477555975227745 30.130259247093733 61.3125 34.375 C62.302447970259806 35.51565937910048 63.28944041607201 36.65889059750262 64.2734375 37.8046875 C64.744912109375 38.353505859375 65.21638671875 38.90232421875 65.7021484375 39.4677734375 C73.67748034562194 48.88334587079069 77.99797959323365 60.01174363077946 77.58984375 72.484375 C76.89698593410509 75.43934475785645 76.26002497079257 76.13062905110156 73.75 77.75 C73.1041796875 78.098046875 72.458359375 78.44609375 71.79296875 78.8046875 C69.60082859471667 80.2661142701889 69.07384431677755 81.46790900169687 68.0625 83.875 C65.4503037635848 89.84573425466331 60.060793752771104 94.59618894391973 54 97 C44.59616196232686 98.124371939287 37.77641937247982 96.2690510576083 30.3125 90.625 C20.22778708437773 82.3189265198385 12.771456660545226 71.8456530237463 10.6171875 58.65625 C10.264093131393366 51.97099662104767 12.48381430371765 45.20904842424416 16.6171875 39.9375 C19.203210396325687 36.31414588537418 18.216055703709536 31.965078067072458 17.75390625 27.76171875 C16.15354206203122 18.209029421815252 9.702173486123094 12.454620533139767 2.85546875 6.078125 C1 4 1 4 0 0 Z " fill="#8D9286" transform="translate(23,0)"/>
<path d="M0 0 C7.590000000000001 0 15.180000000000001 0 23 0 C24.32 1.98 25.64 3.96 27 6 C28.62604447023895 7.685978801674039 30.29377540936882 9.332712542043542 32 10.9375 C40.541974888408525 19.340888275174756 40.541974888408525 19.340888275174756 41.3515625 25.80859375 C40.90731403057615 29.84138263354761 39.15635926596486 32.19802916376584 36.75 35.3125 C27.82978063088595 47.56736455838699 26.132592007990546 56.71944625051325 28.234375 71.703125 C29.69160095158924 77.97811838337408 32.79114135982358 82.35035013344014 37.125 87 C37.852514648437506 87.786005859375 37.852514648437506 87.786005859375 38.5947265625 88.587890625 C42.62978958714499 92.83170936604772 46.89709002601119 96.10867014607014 52 99 C52.6973828125 99.409921875 53.394765625 99.81984375 54.11328125 100.2421875 C55.730418809833346 101.18200692355045 57.36333673026189 102.09461180822998 59 103 C57.34703747470197 106.8812208314596 55.44977500751941 108.29181348225374 51.5703125 110.05078125 C34.78758990407235 116.24865600807054 17.52101666810617 114.03064803930036 0 113 C0 75.71000000000001 0 38.42 0 0 Z " fill="#31375C" transform="translate(0,0)"/>
<path d="M0 0 C14.849999999999994 0 29.700000000000003 0 45 0 C45 22.44 45 44.88 45 68 C42.03 69.32 39.06 70.64 36 72 C34.659375 72.7425 33.318749999999994 73.485 31.9375 74.25 C27.76374449696432 76.37026779554212 24.643832510714702 76.47225415363201 20 76 C18.515 75.01 18.515 75.01 17 74 C16.57653224049959 71.50094378548346 16.31102564934129 69.14185169809721 16.125 66.625 C14.730486450231695 53.419870635492096 9.770219344244822 44.98189416826447 0.9375 35.32421875 C-8.126005303626272 25.308307610324192 -8.126005303626272 25.308307610324192 -8 18 C-6.955051007937371 14.841931935099606 -5.485053819359322 11.970107638718643 -4 9 C-2.680000000000007 6.029999999999999 -1.3599999999999994 3.0599999999999996 0 0 Z " fill="#594B43" transform="translate(83,0)"/>
<path d="M0 0 C5.370134161100879 3.510820907766565 9.12795866172948 7.797453397296472 11 14 C11.462107278134766 17.947716461779805 11.340432633639125 21.591236009480227 10.40625 25.45703125 C9.510146239101658 31.066296137931005 12.023050155582212 36.60435736511744 15.1875 41.125 C15.78562500000001 41.743750000000006 16.383749999999992 42.3625 17 43 C9.459862385321102 48.881307339449535 9.459862385321102 48.881307339449535 4 49 C-0.1266971949064697 47.73232177672807 -2.5513475669166894 45.79877435388194 -5.625 42.8125 C-9.150848843176007 39.52346190002237 -12.617819714636589 36.85768597526604 -16.75 34.375 C-22.029696737849484 31.166799007737353 -26.18031116773645 27.63937766452711 -29 22 C-29.628316303901798 15.088520657080252 -28.122530615916105 9.206511471141887 -25 3 C-18.10796653126438 -4.7535376523275765 -8.764640409396463 -4.6545685540883 0 0 Z " fill="#B4AF83" transform="translate(67,36)"/>
<path d="M0 0 C0 8.909999999999997 0 17.819999999999993 0 27 C-27.72 27 -55.44 27 -84 27 C-84 26.340000000000003 -84 25.680000000000007 -84 25 C-79.35566227254589 22.651608401299868 -74.70311011157577 20.32120544560827 -70.03857421875 18.01318359375 C-68.32394942775663 17.161004805411977 -66.6162131211648 16.294985951743882 -64.91015625 15.42578125 C-54.016036614418056 10.098700723349793 -44.608689575495475 9.628340408706535 -32.859375 11.4921875 C-24.22852841885856 12.627825208044925 -17.501915998909027 12.296991422730429 -10.34375 7.0546875 C-8.578366099081919 5.639336613919113 -6.8296859738940014 4.2027996002262 -5.1015625 2.7421875 C-1.7937219730941791 0 -1.7937219730941791 0 0 0 Z " fill="#C7ADD2" transform="translate(128,101)"/>
<path d="M0 0 C6.830673561765252 -0.1638924608261476 13.370536793350553 0.23735250224883941 20.125 1.25 C20.966757812500006 1.3595703124999972 21.808515625 1.4691406249999943 22.67578125 1.58203125 C29.805793721236313 2.632188125608451 35.9899043073832 4.623966151631848 41 10 C35.886073039770565 11.368116991205284 31.834360523404044 10.350382703809572 26.7421875 9.27734375 C16.708638554151136 8.53372999722832 8.363017776864353 12.26844486120902 -0.5 16.5625 C-2.6141135475816526 17.564793591534198 -4.728675855125886 18.566141336397692 -6.84375 19.56640625 C-7.76349609375 20.009279785156252 -8.6832421875 20.452153320312505 -9.630859375 20.908447265625 C-12.000000000000007 22 -12.000000000000007 22 -15 23 C-15 23.659999999999997 -15 24.319999999999993 -15 25 C-29.520000000000003 25 -44.040000000000006 25 -59 25 C-59 20.049999999999997 -59 15.099999999999994 -59 10 C-56.635859375 10.0348046875 -54.27171875 10.069609374999999 -51.8359375 10.10546875 C-49.495780455310175 10.128996739494937 -47.15563757464718 10.147137417696328 -44.8154296875 10.164794921875 C-43.213479728987636 10.179699018127664 -41.61156920094594 10.200029469142194 -40.009765625 10.226318359375 C-27.228673391803873 10.430527539792607 -15.630432114628732 9.93145810593461 -4 4 C-3.3400000000000034 4 -2.6799999999999997 4 -2 4 C-1.3400000000000034 2.680000000000007 -0.6799999999999997 1.3599999999999994 0 0 Z " fill="#976D85" transform="translate(59,103)"/>
<path d="M0 0 C19.799999999999997 0 39.6 0 60 0 C59.163511843061286 4.182440784693517 58.49093765928639 6.20798300150212 56.5 9.75 C53.96276166838575 14.61974273445271 53.26413570159198 18.541195500432313 53 24 C52.236875 23.67 51.473749999999995 23.34 50.6875 23 C39.12243627113381 19.86371153115493 28.73717283556146 23.602117399456375 18 28 C17.793750000000003 27.01 17.5875 26.02 17.375 25 C15.067138946550031 17.073691002633907 8.724073659660387 11.543693391576507 2.85546875 6.078125 C1 4 1 4 0 0 Z " fill="#808BA1" transform="translate(23,0)"/>
<path d="M0 0 C7.5626034029405815 1.606036744172866 12.258877690397625 7.222046556741878 16.65234375 13.27734375 C20.371194371914356 19.41075245686745 21.612093808345946 25.097901971794634 20.5 32.1875 C18.031592098948238 36.815764814472054 14.810539106006814 40.07779185584152 9.75 41.73828125 C5.821360435496231 42.39526658257749 3.583308578032245 42.27379790397432 -0.0625 40.5625 C-14.275202041684395 28.16418545299873 -14.275202041684395 28.16418545299873 -15.5 19.4375 C-14.576295826836713 13.087033809502394 -10.562046517926163 9.236186052360004 -6 5 C-5.524335937499998 4.507578125 -5.048671874999997 4.01515625 -4.55859375 3.5078125 C-3.0625 2.062499999999999 -3.0625 2.062499999999999 0 0 Z " fill="#301D38" transform="translate(101,1)"/>
<path d="M0 0 C14.849999999999994 0 29.700000000000003 0 45 0 C45 11.88 45 23.76 45 36 C42.69 36 40.379999999999995 36 38 36 C38.0348046875 35.29875 38.069609375 34.5975 38.10546875 33.875 C38.456455063563965 21.5737653912821 34.15630893241716 14.437966347120597 25.9375 5.5625 C23.23923814199165 2.9755191338945393 23.23923814199165 2.9755191338945393 20.5 1.8125 C16.59232825421185 2.105575380934111 14.861302995423245 4.393035048614372 12 7 C11.340000000000003 7 10.680000000000007 7 10 7 C9.752499999999998 7.53625 9.504999999999995 8.0725 9.25 8.625 C8 11.000000000000007 8 11.000000000000007 5.875 13.8125 C3.5555285995949504 17.755601380688585 3.2350239018585683 19.486641020965536 4 24 C7.16720797457522 30.30084130631043 11.851962493006965 35.26319625835849 17 40 C16.340000000000003 40.66 15.680000000000007 41.32 15 42 C8.47106045449334 41.630437384216606 4.755838074374779 39.922071264848135 0.359375 35.109375 C-0.519310599692858 33.996548626736285 -1.3889770451533394 32.87654799780836 -2.25 31.75 C-2.696015625000001 31.2021484375 -3.1420312500000023 30.654296875 -3.6015625 30.08984375 C-6.631853001135099 26.168831495500953 -7.851731910053417 23.088560846966548 -8 18 C-7.36328125 15.6640625 -7.36328125 15.6640625 -6.3125 13.625 C-5.9786328124999955 12.957265625 -5.644765625000005 12.28953125 -5.30078125 11.6015625 C-4.871523437500002 10.743046875 -4.4422656250000045 9.88453125 -4 9 C-2.680000000000007 6.029999999999999 -1.3599999999999994 3.0599999999999996 0 0 Z " fill="#584D66" transform="translate(83,0)"/>
<path d="M0 0 C0.3299999999999983 0.6599999999999966 0.6599999999999966 1.3200000000000003 1 2 C0.4198386387487574 3.731737932579094 -0.23940473813826202 5.437348828226511 -0.9375 7.125 C-2.8261474253239953 12.159199583180694 -3.724726864344632 15.655139375458361 -3 21 C-0.32297914000666594 26.155743878505675 3.131653889560603 29.161754377635077 7.96875 32.26171875 C12.438920647930445 35.134275592420096 16.281567755707528 38.12701702602092 20.125 41.8125 C23.081964306911743 44.51392418162308 24.817764718022985 45.93401825997384 28.625 47.3125 C33.11643924471258 46.89662599585995 37.72685608585928 45.27314391414072 41 42 C42.686089659056364 41.92794488636511 44.375006592813804 41.91613932395967 46.0625 41.9375 C46.9816015625 41.94652343749999 47.90070312500001 41.95554687500001 48.84765625 41.96484375 C49.55792968750001 41.976445312500005 50.268203125 41.98804687500001 51 42 C48.83043090281507 50.099724629490424 44.14565239083727 54.82633415415427 37.04296875 59.20703125 C31.14825945195645 61.495035050196634 23.688502737732094 60.58975683298044 17.97265625 58.11328125 C5.407352784756739 51.02197137357558 -2.7690032378775697 40.22518779256794 -7.3046875 26.65625 C-9.401284701046919 18.64677754656234 -7.752685131463473 12.277166437364983 -4 5 C-1.75 1.875 -1.75 1.875 0 0 Z " fill="#A18961" transform="translate(42,37)"/>
<path d="M0 0 C1.2878824292038367 1.4714426834811576 2.5057032693551804 3.0045715004662554 3.6875 4.5625 C11.003129059363758 13.874494619549196 18.330961073009476 19.77584990471499 29 25 C27.34703747470197 28.881220831459586 25.449775007519406 30.291813482253744 21.5703125 32.05078125 C10.27406768841265 36.22249475944639 -1.1036541780443265 36.66374461667564 -13 36 C-13.66 35.67 -14.32 35.34 -15 35 C-14.5875 33.824375 -14.175 32.64875000000001 -13.75 31.4375 C-12.325851939637086 27.165055818911256 -11.099350783206102 22.849882464975366 -9.9375 18.5 C-9.763798828125001 17.853212890625002 -9.590097656250002 17.206425781250005 -9.4111328125 16.5400390625 C-8.460465580894166 12.93991152323261 -7.668429860502595 9.349075961514217 -7 5.6875 C-6 2 -6 2 -4.0625 0.76953125 C-2 0 -2 0 0 0 Z " fill="#5F2732" transform="translate(30,78)"/>
<path d="M0 0 C0 0.6599999999999966 0 1.3199999999999932 0 2 C0.6393750000000011 2.2681249999999977 1.2787499999999987 2.5362499999999955 1.9375 2.8125 C4 4 4 4 5 7 C5.989999999999998 7.329999999999998 6.98 7.659999999999997 8 8 C7.41643413062663 14.458128954398632 6.301910014241109 20.491532268278718 4.625 26.75 C4.416171875 27.573710937499996 4.20734375 28.397421874999992 3.9921875 29.24609375 C3.7807812500000004 30.0466015625 3.569375000000001 30.847109375000002 3.3515625 31.671875 C3.1641650390624996 32.384404296875005 2.976767578124999 33.09693359375001 2.78369140625 33.8310546875 C2.0000000000000036 36 2.0000000000000036 36 -1 41 C-5.949999999999999 41 -10.9 41 -16 41 C-16 28.129999999999995 -16 15.259999999999991 -16 2 C-5 -1 -5 -1 0 0 Z " fill="#49284D" transform="translate(16,72)"/>
<path d="M0 0 C1.9375 0.6875 1.9375 0.6875 2.9375 2.6875 C3.5826696589893032 8.056233233732392 1.858609152088107 10.89573879828222 -1.3125 15 C-11.781438101458235 29.38254074196046 -11.45067126269442 40.67424687237529 -9.0625 57.6875 C-12.062500000000007 59.6875 -12.062500000000007 59.6875 -14.51953125 59.51171875 C-19.19028973661114 57.99784771977734 -21.64853944231319 54.86099702556595 -24.0625 50.6875 C-26.464776821727455 42.661069207404736 -27.067438772332135 35.180183464793565 -23.0625 27.6875 C-20.87203069505123 23.917471171130884 -18.504527380106097 20.298360997934658 -16.0625 16.6875 C-15.541718750000001 15.87796875 -15.020937500000002 15.068437500000002 -14.484375 14.234375 C-4.813919921141569 -0.7293818062335724 -4.813919921141569 -0.7293818062335724 0 0 Z " fill="#373841" transform="translate(38.0625,20.3125)"/>
<path d="M0 0 C0.6599999999999966 0.3299999999999983 1.3200000000000003 0.6600000000000001 2 1 C2.5488997873383283 7.147677618189263 1.7116724570122557 10.08070448906144 -1.75390625 15.13671875 C-5.225836650207128 20.328288658773673 -5.762090160491702 25.94138322409095 -5 32 C-3.2143785609061695 38.93957422920559 -0.1207657061319054 44.90027424056392 3.73046875 50.90625 C5 53 5 53 6 56 C7.802607460467044 57.027069238226105 7.802607460467044 57.027069238226105 10 58 C11.724871295163183 59.1633477738406 13.432524302932833 60.352506180753466 15.125 61.5625 C18.450917480641408 63.96731665615064 18.450917480641408 63.96731665615064 22 66 C21.67 68.31 21.340000000000003 70.62 21 73 C17.999999999999993 74 17.999999999999993 74 15.58203125 73.03125 C9.366428217581728 69.59469656035549 4.0340104856072685 66.01415245607825 -1 61 C-1.787617187500004 60.23558593749999 -2.575234375000001 59.47117187500001 -3.38671875 58.68359375 C-11.726340678090736 50.10224365008054 -13.469364845256585 42.165612028095694 -14.0546875 30.3828125 C-13.867704584591188 18.81658358971214 -7.191499881875515 8.677216340988252 0 0 Z " fill="#735C43" transform="translate(40,29)"/>
<path d="M0 0 C0 8.909999999999997 0 17.819999999999993 0 27 C-8.909999999999997 27 -17.819999999999993 27 -27 27 C-27.989999999999995 23.370000000000005 -28.980000000000004 19.739999999999995 -30 16 C-30.33 15.010000000000005 -30.659999999999997 14.019999999999996 -31 13 C-28.653812610479065 12.47021575075334 -26.387915729644746 12.015006411204823 -23.98046875 11.921875 C-15.172013721103184 11.489936749896472 -9.609984501194162 6.408169137340678 -3 1 C-1 0 -1 0 0 0 Z " fill="#C6B3B6" transform="translate(128,101)"/>
</svg>
