<?xml version="1.0" encoding="UTF-8"?>
<!-- Generator: visioncortex VTracer 0.6.0 -->
<svg version="1.1" xmlns="http://www.w3.org/2000/svg" width="128" height="128">
<path d="M0 0 C42.24 0 84.48 0 128 0 C128 42.24 128 84.48 128 128 C85.75999999999999 128 43.519999999999996 128 0 128 C0 85.75999999999999 0 43.519999999999996 0 0 Z " fill="#A97E55" transform="translate(0,0)"/>
<path d="M0 0 C1.484375 1.539062500000007 1.484375 1.539062500000007 2.75 3.625 C6.656437034427398 9.293360954594398 11.611654325216264 12.847962470573528 18.125 15.0625 C24.89062011152042 14.915421301923473 30.518074998620847 10.602407858049155 36 7 C38.61972352717858 14.85917058153575 30.931673984436998 26.569612248597707 27.7890625 33.77734375 C25.002865474060656 40.15937634890634 25.002865474060656 40.15937634890634 25 47 C25.637549805416654 48.246288559901416 26.317890784659156 49.471279876478064 27.03125 50.67578125 C28.00578125 52.321269531249996 28.00578125 52.321269531249996 29 54 C27.564391570457545 56.25122663584436 26.126591380947602 58.501001376751674 24.6875 60.75 C24.283378906249993 61.38421875 23.8792578125 62.018437500000005 23.462890625 62.671875 C22.32012200699421 64.45570894030172 21.1614531765875 66.22830073906461 20 68 C19.515312499999993 68.763125 19.030625 69.52625 18.53125 70.3125 C14.343496152422205 74.9275756687592 6.872669652685957 75.98794521333818 0.8984375 76.3203125 C-6.921822592198964 76.50433984557718 -14.292493323732117 76.47167111751192 -21 72 C-20.583969140686477 65.6555293954688 -19.286768840191996 60.48584517165929 -16.9375 54.578125 C-16.021024284290732 52.05781678179952 -15.455594537394248 49.63865169574167 -15 47 C-15.540600585937497 46.889704589843745 -16.081201171875 46.77940917968749 -16.63818359375 46.665771484375 C-21.88062773203285 45.18798099800976 -26.733699831500942 42.42315551854131 -31.625 40.0625 C-32.782578125 39.51142578125 -33.94015625 38.9603515625 -35.1328125 38.392578125 C-36.23625 37.86212890625 -37.3396875 37.3316796875 -38.4765625 36.78515625 C-39.4879931640625 36.29926025390625 -40.499423828125 35.8133642578125 -41.54150390625 35.312744140625 C-44 34 -44 34 -46 32 C-45.65938823594497 26.86811608823752 -41.40286613204282 22.91677419785246 -38.359375 19.0390625 C-36.05805741832015 16.176142094818033 -36.05805741832015 16.176142094818033 -34.515625 13.6484375 C-29.378074109010633 6.17301232715592 -20.36428943320847 4.82958915819183 -12.0615234375 2.5986328125 C-9.84848280042614 1.9986693747258002 -9.84848280042614 1.9986693747258002 -7.2265625 0.8359375 C-4.591013923156112 -0.15354915867472485 -2.7894118546198 -0.4156408392645403 0 0 Z " fill="#764413" transform="translate(77,23)"/>
<path d="M0 0 C1.0190039062499991 0.006767578125000284 1.0190039062499991 0.006767578125000284 2.05859375 0.013671875 C3.7057687359856324 0.025271698844967716 5.352897263757441 0.04319801480965424 7 0.0625 C7.220429687500001 1.4914257812500011 7.220429687500001 1.4914257812500011 7.4453125 2.94921875 C8.464050354194306 10.762348650253017 8.464050354194306 10.762348650253017 12.5 17.1875 C16.37617331897716 19.264021420880624 20.24125937716496 20.794567161952045 24.4140625 22.16796875 C29.818610250183994 24.037517745154275 32.355574564694145 25.77364912938829 35 31.0625 C34.94842119918668 34.054070447172336 34.67957996266696 36.202600990443216 34 39.0625 C33.7525 40.11179687500001 33.505 41.16109374999999 33.25 42.2421875 C32.52850777690834 45.19059321936493 31.77752467519958 48.12844462188838 31 51.0625 C32.1640234375 50.81693359375001 32.1640234375 50.81693359375001 33.3515625 50.56640625 C38.04920779854722 49.91758800212784 42.64013660594539 49.95609613115356 47.375 50 C48.765253906249995 50.00676757812499 48.765253906249995 50.00676757812499 50.18359375 50.013671875 C52.45579708576031 50.02538426332866 54.72786387866225 50.0417862765937 57 50.0625 C56.958749999999995 51.09761718749999 56.917500000000004 52.132734375 56.875 53.19921875 C56.997072355420485 56.97201748471447 57.60341258909115 59.40777778194503 59 62.875 C61 67.90972222222219 61 67.90972222222219 61 70.0625 C35.59 70.0625 10.18 70.0625 -16 70.0625 C-16 47.292500000000004 -16 24.522500000000008 -16 1.0625 C-10.289049318483253 0.34863116481040635 -5.6157382323990745 -0.05014051993213542 0 0 Z " fill="#B48E53" transform="translate(16,57.9375)"/>
<path d="M0 0 C1.1860572517795305 0.6961164741535626 2.354840872777473 1.4222308331403894 3.5078125 2.171875 C4.805991048365229 2.941904841980758 6.106893124105355 3.707357377458983 7.41015625 4.46875 C8.089331054687499 4.87287109375 8.768505859374997 5.276992187499999 9.46826171875 5.693359375 C13.227829901641911 7.827145422407185 17.146035789843822 9.614740201516454 21.0703125 11.421875 C21.8223193359375 11.771533203125003 22.574326171875 12.121191406250006 23.34912109375 12.4814453125 C25.108652433062502 13.298590555261228 26.870470463552273 14.11080938714278 28.6328125 14.921875 C28.130568875877053 19.808286926362854 27.4728425547176 23.960329495961275 25.6328125 28.546875 C24.174828982074217 32.34502771517623 23.073061344862026 35.84957318502626 22.6328125 39.921875 C31.00256335941748 44.75057741889469 42.79485769946203 43.83672924720945 52.09765625 42.37890625 C59.11299408292403 40.494584738760636 62.482871263686945 37.645531388680354 66.23828125 31.46875 C66.6984765625 30.62828125 67.158671875 29.7878125 67.6328125 28.921875 C68.0414453125 28.20515625 68.450078125 27.488437500000003 68.87109375 26.75 C69.2255859375 26.126093749999995 69.580078125 25.502187500000005 69.9453125 24.859375 C71.6328125 21.921875 71.6328125 21.921875 73.6328125 20.921875 C75.86409448513935 20.95949713463918 78.09434855697346 21.07588447483232 80.3203125 21.234375 C82.12048828125 21.35232421875 82.12048828125 21.35232421875 83.95703125 21.47265625 C87.6328125 21.921875 87.6328125 21.921875 94.6328125 23.921875 C94.6328125 40.091875 94.6328125 56.261875 94.6328125 72.921875 C77.8028125 72.921875 60.9728125 72.921875 43.6328125 72.921875 C38.6328125 59.921875 38.6328125 59.921875 38.6328125 53.921875 C30.3828125 53.921875 22.1328125 53.921875 13.6328125 53.921875 C14.6328125 44.921875 14.6328125 44.921875 15.7578125 41.796875 C17.089184749039262 37.42236618172815 16.277800066378617 33.807223270952875 14.8203125 29.546875 C13.247220291154314 27.394222503684844 12.211746770827247 27.52816619143809 9.6328125 26.921875 C-3.9917269252026557 21.988197770817976 -3.9917269252026557 21.988197770817976 -8.3671875 16.921875 C-10.050373704204649 12.400374804391433 -10.678014633837499 7.73969557448126 -10.3671875 2.921875 C-4.352885206171493 -1.393731226105956 -4.352885206171493 -1.393731226105956 0 0 Z " fill="#A57536" transform="translate(33.3671875,55.078125)"/>
<path d="M0 0 C1.8001757812500045 0.11794921874999886 1.8001757812500045 0.11794921874999886 3.63671875 0.23828125 C7.3125 0.6875 7.3125 0.6875 14.3125 2.6875 C14.3125 18.8575 14.3125 35.0275 14.3125 51.6875 C9.032499999999999 51.6875 3.7524999999999977 51.6875 -1.6875 51.6875 C-2.244374999999991 50.49125000000001 -2.8012500000000102 49.295 -3.375 48.0625 C-7.646001275398106 39.68306151158917 -12.144626450575572 36.35468474316755 -20.6875 32.6875 C-22.110625 32.068749999999994 -22.110625 32.068749999999994 -23.5625 31.4375 C-28.536870814185093 30.243651004595577 -33.59130741416621 30.000858120164537 -38.6875 29.6875 C-37.389556766481675 26.792088171382204 -36.221982842076216 24.632440094028055 -33.6875 22.6875 C-31.455260805503073 21.944355042033052 -29.201765563041647 21.263950475407682 -26.9375 20.625 C-19.488318299484078 18.248819826507216 -16.27254468751211 14.487452017906435 -12.6875 7.6875 C-8.000993816254422 -0.5696775618374517 -8.000993816254422 -0.5696775618374517 0 0 Z " fill="#AE6232" transform="translate(113.6875,76.3125)"/>
<path d="M0 0 C9.018140589569162 0 9.018140589569162 0 12.5859375 0.55078125 C13.3669482421875 0.6708251953125028 14.147958984375 0.7908691406250057 14.95263671875 0.91455078125 C15.7520166015625 1.0458740234375057 16.551396484375 1.1771972656249972 17.375 1.3125 C18.2091845703125 1.4464013671875051 19.043369140625 1.580302734374996 19.90283203125 1.71826171875 C25.060647727658218 2.5804126943345267 30.035921867940765 3.6507038144593764 34.9921875 5.3515625 C39.45999053492767 6.94443791249185 39.45999053492767 6.94443791249185 43.875 6.125 C44.926875 5.568124999999995 44.926875 5.568124999999995 46 5 C51.82568873961638 3.8928900822485275 57.52186028035708 3.8821340415008194 63.4375 3.9375 C64.35982421875 3.9420117187499955 65.2821484375 3.946523437500005 66.232421875 3.951171875 C68.48835047866422 3.9628606242417845 70.7441396685894 3.979245446349367 73 4 C72.95875 5.035117187500006 72.9175 6.070234374999998 72.875 7.13671875 C72.99707235542049 10.909517484714442 73.60341258909115 13.345277781945043 75 16.8125 C77 21.8472222222222 77 21.8472222222222 77 24 C51.59 24 26.18 24 0 24 C0 16.08 0 8.159999999999997 0 0 Z " fill="#C8A35E" transform="translate(0,104)"/>
<path d="M0 0 C33.050847457627114 2.203389830508474 33.050847457627114 2.203389830508474 48 13 C44.32037033552547 17.93845033916319 40.60963001080855 22.853040552875896 36.875 27.75 C36.4555712890625 28.304538574218753 36.036142578125 28.8590771484375 35.60400390625 29.430419921875 C28.81887818257305 38.2982283341263 28.81887818257305 38.2982283341263 24 40 C21.39071448803506 40.29933361933797 18.866307196108725 40.508287411326 16.25 40.625 C15.2329296875 40.683007812499994 15.2329296875 40.683007812499994 14.1953125 40.7421875 C9.446109424952343 40.99499678916604 4.773739887861369 41 0 41 C0 27.47 0 13.939999999999998 0 0 Z " fill="#926650" transform="translate(0,18)"/>
<path d="M0 0 C1.2086604113640647 3.625981234092208 0.6113775289007037 5.784200640869642 -0.13671875 9.453125 C0.07146900228121922 13.33136541392443 1.9421158268530831 15.736044444912054 4 19 C2.5643915704575306 21.251226635844375 1.1265913809476018 23.50100137675166 -0.3125 25.75 C-0.7166210937500068 26.384218750000002 -1.1207421874999994 27.018437500000005 -1.537109375 27.671875 C-2.679877993005775 29.45570894030169 -3.838546823412514 31.228300739064622 -5 33 C-5.484687500000007 33.763125 -5.969374999999999 34.526250000000005 -6.46875 35.3125 C-10.656503847577781 39.92757566875919 -18.12733034731403 40.98794521333818 -24.1015625 41.3203125 C-31.921822592198964 41.50433984557719 -39.292493323732124 41.47167111751192 -46 37 C-45.523645951984484 29.73560076776343 -43.70455617600471 23.735875759106065 -41 17 C-40.7073828125 16.133749999999992 -40.414765625 15.267499999999998 -40.11328125 14.375 C-38.82674710519289 11.630393824411499 -37.572132189260984 10.50454760739467 -35.125 8.75 C-34.44695312499999 8.249843749999997 -33.76890625 7.749687499999993 -33.0703125 7.234375 C-28.57348001896024 4.5532446905498745 -24.902066798893685 5.041111459207848 -19.75 5.5 C-14.32947207474649 5.940069478263169 -9.359717320977367 5.984437875281557 -4 5 C-4 4.340000000000003 -4 3.6799999999999997 -4 3 C-2 1.374999999999993 -2 1.374999999999993 0 0 Z " fill="#7A5C36" transform="translate(102,58)"/>
<path d="M0 0 C0 21.450000000000003 0 42.9 0 65 C-4.950000000000003 64.34 -9.900000000000006 63.68000000000001 -15 63 C-17.310000000000002 63 -19.620000000000005 63 -22 63 C-24.22945649521229 60.77054350478771 -25.599261070480466 58.80147785903907 -27 56 C-27 47.433489361092114 -23.410091582223586 40.52468864868551 -19.8818359375 32.908935546875 C-17.59578500733403 27.960255529442065 -15.679559280436862 23.266580320545103 -14.5 17.9375 C-13.457284651308456 13.62076650982102 -12.46973448740681 9.753996420858353 -10 6 C-7.875 4.8125000000000036 -7.875 4.8125000000000036 -6 4 C-5.670000000000002 3.009999999999998 -5.340000000000003 2.0199999999999996 -5 1 C-2 0 -2 0 0 0 Z " fill="#90755C" transform="translate(128,14)"/>
<path d="M0 0 C1.484375 1.5390625 1.484375 1.5390625 2.75 3.625 C6.656437034427398 9.293360954594405 11.611654325216278 12.847962470573535 18.125 15.0625 C24.890620111520434 14.915421301923473 30.518074998620847 10.602407858049155 36 7 C38.57815593641317 14.734467809239504 31.19635894614639 26.198074547398576 27.97265625 33.24609375 C26.704242537449204 35.533313657370705 25.20054834781405 36.62465728261622 23 38 C22.340000000000003 38 21.680000000000007 38 21 38 C21 38.66 21 39.32 21 40 C13.408824640552226 42.633673083890045 5.871167387216602 42.15779923607931 -2 41 C-2.989999999999995 40.34 -3.980000000000004 39.68 -5 39 C-4.855625000000003 38.4315234375 -4.711250000000007 37.863046875 -4.5625 37.27734375 C-2.471158251497556 28.577943004493328 -2.4518341025563757 21.331041539418912 -6 13 C-7.4818624980122905 10.733843864362882 -9.049624117965209 8.663706643389236 -10.79296875 6.59375 C-12 5 -12 5 -12 3 C-4.395578551269992 -0.5785512699905908 -4.395578551269992 -0.5785512699905908 0 0 Z " fill="#6F591D" transform="translate(77,23)"/>
<path d="M0 0 C16.83 0 33.66 0 51 0 C51 4.62 51 9.24 51 14 C49.349999999999994 14.66 47.7 15.32 46 16 C45.3335546875 16.863671875 44.667109374999995 17.72734375 43.98046875 18.6171875 C39.178298862388345 22.456405889833697 34.24138866776147 21.46966429371 28.3125 21.125 C26.611904296874997 21.0824609375 26.611904296874997 21.0824609375 24.876953125 21.0390625 C16.677498859278288 20.660989680831275 9.662712937651847 18.98894924213206 3.302001953125 13.54736328125 C0.05579353608635529 9.689409231523587 0 4.815584118320792 0 0 Z " fill="#D6A667" transform="translate(77,0)"/>
<path d="M0 0 C15.180000000000001 0 30.360000000000003 0 46 0 C42.784588441331 14.469352014010504 42.784588441331 14.469352014010504 36.25 19 C29.531635508367625 22.359182245816186 22.177765125317688 20.91896398495151 15 20 C14.277158203125 19.91234375 13.554316406249999 19.8246875 12.8095703125 19.734375 C8.528821040301922 19.212004519049852 4.270240906595415 18.615900130758956 0 18 C0 12.059999999999999 0 6.119999999999999 0 0 Z " fill="#D28557" transform="translate(0,0)"/>
<path d="M0 0 C1.8001757812500045 0.11794921874999886 1.8001757812500045 0.11794921874999886 3.63671875 0.23828125 C7.3125 0.6875 7.3125 0.6875 14.3125 2.6875 C14.3125 13.907499999999999 14.3125 25.127499999999998 14.3125 36.6875 C9.842626867984436 35.57003171699611 8.29828721715812 33.90114992583598 5.3125 30.6875 C-2.4503841193449745 22.593273265804925 -7.495795431795216 19.353515566195114 -18.6875 17.6875 C-16.929956785233074 13.980182281351006 -14.824852129773603 10.4964292992492 -12.6875 7 C-12.331718749999993 6.406386718749999 -11.9759375 5.812773437499999 -11.609375 5.201171875 C-8.139194866747772 -0.4767161415339558 -6.511623592456786 -0.46363313570095954 0 0 Z " fill="#9E6047" transform="translate(113.6875,76.3125)"/>
<path d="M0 0 C9.503924812757504 2.5300550696077977 16.37459564992575 6.325136495956883 22.375 14.0625 C24 17 24 17 25 22 C13.450000000000003 22 1.9000000000000057 22 -10 22 C-15 9 -15 9 -15 3 C-11.805149592526604 -2.060299974253155 -5.1984161209022375 -0.6326430640822451 0 0 Z " fill="#D47D2A" transform="translate(87,106)"/>
<path d="M0 0 C0.922324218749992 0.0045117187499954525 1.8446484374999983 0.009023437500005116 2.794921875 0.013671875 C5.050850478664216 0.025360624241784535 7.306639668589369 0.041745446349366944 9.5625 0.0625 C9.521250000000009 1.0976171875000063 9.47999999999999 2.1327343749999983 9.4375 3.19921875 C9.559572355420485 6.972017484714442 10.165912589091164 9.407777781945057 11.5625 12.875 C13.5625 17.90972222222223 13.5625 17.90972222222223 13.5625 20.0625 C1.352499999999992 20.0625 -10.857500000000002 20.0625 -23.4375 20.0625 C-24.4375 9.0625 -24.4375 9.0625 -23.4375 4.0625 C-16.402285441385786 -0.6276430390761476 -8.128676035446304 -0.07607832142606696 0 0 Z " fill="#D09654" transform="translate(63.4375,107.9375)"/>
<path d="M0 0 C1.0306054687499966 0.6322851562499991 1.0306054687499966 0.6322851562499991 2.08203125 1.27734375 C2.983085937499993 1.8251953125 3.8841406250000006 2.373046875 4.8125 2.9375 C5.705820312499995 3.4827734375000006 6.599140625000004 4.028046875000001 7.51953125 4.58984375 C11.020023601563196 6.579887433329624 13.787445285490719 7.138253379512392 17.74609375 7.28125 C19.125712890624996 7.337324218749998 19.125712890624996 7.337324218749998 20.533203125 7.39453125 C21.970830078125005 7.446738281249999 21.970830078125005 7.446738281249999 23.4375 7.5 C25.332174902968575 7.569083352302702 27.22671953881313 7.641861473583738 29.12109375 7.71875 C29.960837402343742 7.74904296875 30.8005810546875 7.779335937500001 31.665771484375 7.810546875 C33.88354853563365 7.990548443013463 35.86399987838905 8.392087535603736 38 9 C37.33106580846409 13.816326179058535 36.064850790983286 17.03633412580699 32.41015625 20.34375 C26.79100570092001 24.25518896985139 21.9651517993519 27.58042931661266 15 27 C12.042973041515012 25.67348323357683 9.567208642738791 23.96413592278506 7 22 C6.113124999999997 21.38125 5.226249999999993 20.762500000000003 4.3125 20.125 C-1.7919419706980761 14.515512783682848 -1.7919419706980761 14.515512783682848 -3 11 C-2.52477393814614 7.125079803345461 -1.399856611813206 3.6343695132990845 0 0 Z " fill="#A17D2F" transform="translate(79,12)"/>
</svg>
