<?xml version="1.0" encoding="UTF-8"?>
<!-- Generator: visioncortex VTracer 0.6.0 -->
<svg version="1.1" xmlns="http://www.w3.org/2000/svg" width="128" height="128">
<path d="M0 0 C42.24 0 84.48 0 128 0 C128 42.24 128 84.48 128 128 C85.75999999999999 128 43.519999999999996 128 0 128 C0 85.75999999999999 0 43.519999999999996 0 0 Z " fill="#3E4A50" transform="translate(0,0)"/>
<path d="M0 0 C42.24 0 84.48 0 128 0 C128 11.22 128 22.44 128 34 C125.195 33.835 122.39 33.67 119.5 33.5 C108.94629885003596 33.20755466757831 101.88927698051788 36.744214985268805 93 42 C89.42365686665119 43.19211437778294 86.75935316829555 43.25926573574452 83 43 C81.33036453741393 42.00496472431739 79.66409268438463 41.00427750923504 78 40 C75.85449099961141 39.229953452830834 73.68533525808924 38.52345228452648 71.5 37.875 C70.3965625 37.542421875 69.293125 37.20984375 68.15625 36.8671875 C61.204259495272034 34.957110900928704 54.565432314175546 33.26682647511123 48 36.96875 C46.6560988920204 37.79556415822964 45.32272369195834 38.63971291128491 44 39.5 C38.368532676580344 43.16265355214598 34.795199896212395 44.66506211750164 28 44 C24.286888565663332 42.31222207530151 21.765621858282525 39.97048273667382 19 37 C17.867691816661154 43.18254161454953 18.23711822982984 47.43964600581923 20.1875 53.375 C20.42017578125 54.115244140625 20.6528515625 54.85548828125 20.892578125 55.6181640625 C21.57403898787123 57.75309693015274 22.281186681699268 59.87739267774773 23 62 C23.3467578125 63.038984375 23.693515625 64.07796875 24.05078125 65.1484375 C25.914718641743473 70.25700664774138 27.93584155819724 73.26536791834341 32 77 C32.81250000000001 79.31250000000001 32.81250000000001 79.31250000000001 33 81 C32.01 81.66 31.02 82.32 30 83 C31.553414035650967 88.26434756526162 33.356406673806596 92.84136803218135 36.0625 97.625 C41.651388815928996 107.70446366056846 41.79254018207636 116.82983927169457 39 128 C26.13 128 13.259999999999998 128 0 128 C0 85.75999999999999 0 43.519999999999996 0 0 Z " fill="#535B50" transform="translate(0,0)"/>
<path d="M0 0 C0 11.549999999999997 0 23.1 0 35 C-5.802457933010231 35.022924548462285 -11.604759466263772 35.042847195656165 -17.4072265625 35.054931640625 C-19.38216686715245 35.05996809582771 -21.357103431142093 35.066797513362815 -23.33203125 35.075439453125 C-26.166676046702776 35.087535076002496 -29.001271655052918 35.09323509893693 -31.8359375 35.09765625 C-32.7224398803711 35.10281753540039 -33.6089422607422 35.10797882080078 -34.522308349609375 35.11329650878906 C-40.77225658639337 35.11387170680331 -40.77225658639337 35.11387170680331 -43 34 C-48.239067444424705 34.921154715503235 -52.66778408046859 37.28645640961446 -57.0625 40.1875 C-76.27005682512527 52.80343394842967 -76.27005682512527 52.80343394842967 -84.125 52.3125 C-88.34092459465415 51.32527773407331 -90.98201881546818 49.01798118453182 -94 46 C-91.89931885685644 33.44534093274203 -87.09066055112058 19.228403394830757 -76.625 11.4375 C-73.09802514188505 9.337829348680735 -70.16451898158023 7.999652198837218 -66.01953125 8.359375 C-61.61741808082199 9.755790009178327 -58.403396181672974 12.994757538298387 -55 16 C-53.06989221697435 17.633773300033944 -51.13225077052269 19.258684532477822 -49.1875 20.875 C-48.29417968749999 21.635546875000003 -47.40085937500001 22.39609375 -46.48046875 23.1796875 C-43.51383840845132 25.416091839358145 -43.51383840845132 25.416091839358145 -40 26 C-35.43342551579917 23.99279650939539 -32.48331921414649 20.486320189834146 -29.25 16.8125 C-13.951632859333628 0 -13.951632859333628 0 0 0 Z " fill="#1B322A" transform="translate(128,35)"/>
<path d="M0 0 C0.8804296874999977 0.07863281250000398 1.7608593749999955 0.15726562499999375 2.66796875 0.23828125 C6.756143370267949 0.8223061957525601 10.781159825948691 1.791646627988598 14.8125 2.6875 C14.8125 17.20750000000001 14.8125 31.727500000000006 14.8125 46.6875 C-3.667500000000004 46.6875 -22.147500000000008 46.6875 -41.1875 46.6875 C-44.334822279397756 26.22990518391461 -44.334822279397756 26.22990518391461 -42.01171875 21.08203125 C-39.81501006509501 18.198557109000518 -37.995302231678465 17.315634919323116 -34.6875 15.875 C-29.17047456096482 13.296390283929213 -24.57801476890006 10.177924565850986 -19.73046875 6.51953125 C-13.557166607882948 2.0720985239586867 -7.666138761676578 -0.7411707027883523 0 0 Z " fill="#989C87" transform="translate(113.1875,81.3125)"/>
<path d="M0 0 C14.52000000000001 0 29.040000000000006 0 44 0 C44 11.22 44 22.44 44 34 C41.19499999999999 33.835 38.39 33.67 35.5 33.5 C24.94629885003596 33.20755466757831 17.889276980517877 36.744214985268805 9 42 C4.569667801410972 43.476777399529674 0.7225136274514483 43.73822012605062 -3.625 41.875 C-7.436669717939381 38.8657870647847 -10.437171067254383 35.68848679823684 -12 31 C-12.983704922566545 21.640750308152647 -11.409488573549012 15.599549410160245 -5.625 8.25390625 C-4.4284989107410695 6.825939176211812 -3.215115452209787 5.412161201216778 -2 4 C-1.3400000000000034 2.6799999999999997 -0.6800000000000068 1.3599999999999999 0 0 Z " fill="#8DA87F" transform="translate(84,0)"/>
<path d="M0 0 C16.17 0 32.34 0 49 0 C46.51256227854064 5.8040213500718405 44.87691054674555 8.444630107573982 41 13 C37.15301567978074 18.571494532731357 37.3104494942943 24.4627029978551 38 31 C39.25494461940616 34.52248005768734 39.25494461940616 34.52248005768734 41 37 C41.33 37.66 41.66 38.32 42 39 C37.33639998932179 38.12184497056699 32.802623749004454 36.88341923849661 28.23046875 35.62109375 C20.02568871920498 34.04363301856541 15.839399223113155 35.05171886465492 9 39.5 C3.364079849743433 43.16554962897546 -0.20134442803145447 44.65093510795443 -7 44 C-11.56139760171067 42.13397370839109 -13.747941451367016 39.33729794551538 -16 35 C-16.660191732601266 29.718466139189886 -15.919721326401469 26.423820191517375 -13 22 C-11.540136073021813 20.54290096682291 -10.058624661422172 19.107341989540448 -8.5625 17.6875 C-4.339545808034671 13.615856870287498 -1.557439124931804 9.696088547827497 0 4 C0 2.6799999999999997 0 1.3599999999999999 0 0 Z " fill="#6E8060" transform="translate(35,0)"/>
<path d="M0 0 C-3.222650782890639 2.1484338552604214 -4.176269852461388 2.1445153320524923 -7.875 2.375 C-19.285998789483884 4.289394777099673 -27.756162742685746 16.509516707426947 -34.78125 24.91796875 C-37.27430453349277 27.257401965407823 -38.61299062277121 27.839241780786196 -42 28 C-46.25462512241408 25.82321505364861 -49.47287339889132 22.70455580250654 -53 19.5 C-59.538798644663416 13.098543694928857 -59.538798644663416 13.098543694928857 -68 10.5 C-73.45553280183908 10.801353240482541 -76.64980505365367 13.81054254726633 -80.625 17.3125 C-85.33619672827015 22.643591034621487 -87.34025164118812 27.753435478982553 -89.20703125 34.48828125 C-90.39167295493276 38.24061926119094 -92.1408177299639 41.53807439372588 -94 45 C-96.64425104271467 44.64743319430471 -97.75110855495595 44.28644795465429 -99.52734375 42.2421875 C-106.0654670474865 31.26683370975951 -112.75432415661068 15.94532353607017 -110 3 C-107 3 -107 3 -104.4375 5.4375 C-103.633125 6.283124999999998 -102.82875 7.128749999999997 -102 8 C-98.75911477753421 9.620442611232896 -95.50845121799138 9.50209284215071 -92 9 C-89.13481325048379 7.799719064391859 -86.59970644053415 6.190824696675534 -84 4.5 C-77.16989669796368 0.05776484457403086 -73.0332205242899 -0.8772362100431081 -64.83984375 0.55078125 C-58.56307709645239 2.198115701469426 -52.617832396110984 3.851912014809102 -47 7.1875 C-41.496800776295046 9.42317468463014 -37.26940138066972 7.890694310897075 -32 5.75 C-28.616893277468037 4.280358342068411 -25.53980188885609 2.766188056350124 -22.5 0.6875 C-15.588006765466744 -2.6450681666499634 -7.389730818469303 -1.3435874215398727 0 0 Z " fill="#43593D" transform="translate(128,34)"/>
<path d="M0 0 C1.342108554593949 0.10825106259206052 2.688060192439181 0.17472864073725702 4.0341796875 0.205322265625 C5.204940490722663 0.23524009704590298 5.204940490722663 0.23524009704590298 6.39935302734375 0.2657623291015625 C7.231785278320302 0.28247482299804005 8.064217529296883 0.2991873168945318 8.921875 0.31640625 C10.211853942871102 0.3475778961181675 10.211853942871102 0.3475778961181675 11.52789306640625 0.3793792724609375 C14.268515976323172 0.4446373867493918 17.009232749708772 0.5036491694722685 19.75 0.5625 C21.6106866958759 0.6057078055139016 23.47136398355795 0.6493228190724096 25.33203125 0.693359375 C29.88792522654242 0.8002944162971204 34.443913398188386 0.9016285106107063 39 1 C39 5.6200000000000045 39 10.239999999999995 39 15 C36.89625000000001 14.649374999999992 34.79249999999999 14.298749999999998 32.625 13.9375 C20.369193447132957 12.235989633505383 12.08859352265344 13.788072128166988 2.01953125 21.19140625 C-0.02327468865334481 22.7629945957067 -2.061115372224805 24.341059665201044 -4.09375 25.92578125 C-7.342709062955862 28.244594774770917 -10.527383040183992 29.649302059202427 -14.21875 31.09375 C-16.860835264455545 32.437968818758094 -17.88523158993256 34.324555815838124 -19 37 C-24.782633329598283 30.020959774622753 -27.33261578890196 25.040775065948054 -26.875 15.875 C-26.462701464598773 12.546807003387656 -26.289258394904394 11.335912974727691 -24.0625 8.75 C-23.051874999999995 8.1725 -22.041250000000005 7.594999999999999 -21 7 C-20.238164062500005 6.507578124999995 -19.476328124999995 6.015156250000004 -18.69140625 5.5078125 C-7.072654751240904 -1.8843307670948235 -7.072654751240904 -1.8843307670948235 0 0 Z " fill="#556453" transform="translate(89,69)"/>
<path d="M0 0 C0 11.549999999999997 0 23.1 0 35 C-5.802457933010203 35.022924548462285 -11.604759466263772 35.042847195656165 -17.4072265625 35.054931640625 C-19.38216686715245 35.05996809582771 -21.357103431142093 35.066797513362815 -23.33203125 35.075439453125 C-26.16667604670272 35.087535076002496 -29.00127165505299 35.09323509893693 -31.8359375 35.09765625 C-32.7224398803711 35.10281753540039 -33.60894226074218 35.10797882080078 -34.522308349609375 35.11329650878906 C-40.77225658639337 35.11387170680331 -40.77225658639337 35.11387170680331 -43 34 C-44.31999999999999 34 -45.64 34 -47 34 C-47.863438239981164 31.878750344682956 -48.715506479800936 29.752869279628158 -49.5625 27.625 C-50.0381640625 26.441640625000005 -50.513828125 25.258281249999996 -51.00390625 24.0390625 C-52 21 -52 21 -51 19 C-50.54109375 19.4215234375 -50.0821875 19.843046875 -49.609375 20.27734375 C-48.688984375000004 21.09912109375 -48.688984375000004 21.09912109375 -47.75 21.9375 C-46.845078125 22.75541015625 -46.845078125 22.75541015625 -45.921875 23.58984375 C-43.799812400052744 25.14688561703447 -42.63227992053477 25.846615267788387 -40 26 C-35.4334255157992 23.992796509395404 -32.483319214146476 20.48632018983413 -29.25 16.8125 C-13.951632859333614 0 -13.951632859333614 0 0 0 Z " fill="#1E3A34" transform="translate(128,35)"/>
<path d="M0 0 C1.0802343750000034 0.09023437499999432 2.160468750000007 0.18046875000000284 3.2734375 0.2734375 C6.734257816636131 0.6364606101366519 10.180165928279848 1.1328808468971232 13.625 1.625 C13.625 11.194999999999993 13.625 20.765 13.625 30.625 C1.7450000000000045 30.625 -10.135000000000005 30.625 -22.375 30.625 C-25.29287439613526 16.035628019323667 -25.29287439613526 16.035628019323667 -24.375 10.625 C-20.926989790501665 5.776235642892971 -14.81454887777916 1.5963011781103944 -9.0234375 -0.0390625 C-5.921503330684118 -0.43252317634390636 -3.114183322076869 -0.2736930710613876 0 0 Z " fill="#E1D6D4" transform="translate(114.375,97.375)"/>
<path d="M0 0 C8.532569598592827 1.4220949330988049 12.380622360854318 5.720192051666032 17.37890625 12.517578125 C17.8313671875 13.151152343749999 18.283828125 13.784726562499998 18.75 14.4375 C19.2179296875 15.067207031250007 19.685859375 15.6969140625 20.16796875 16.345703125 C27.81557782723483 26.88553829801627 28.10542122767766 34.734945267868085 27 48 C18.09 48 9.18 48 0 48 C0 32.16 0 16.319999999999993 0 0 Z " fill="#84B5DD" transform="translate(0,80)"/>
<path d="M0 0 C9.141837828059515 0.5078798793366417 15.420942318445213 1.843655681719241 21.6875 8.8125 C22.80761082856642 10.195571384256965 23.912918320670766 11.590820045313961 25 13 C25.4292578125 13.522070312500006 25.858515625 14.044140624999997 26.30078125 14.58203125 C30.848855215286143 20.433787654846995 33.78561862747327 27.36557778324459 37 34 C37.82177734375 35.54107421875 37.82177734375 35.54107421875 38.66015625 37.11328125 C42.5313701037799 45.453884859164276 40.73725543444218 54.31372282778909 39 63 C35.04 63 31.08 63 27 63 C27.04125 61.040625000000006 27.0825 59.08125 27.125 57.0625 C27.064064624818656 45.78945559145133 24.61841052284217 39.190135754575124 18 30 C17.2923046875 29.0087109375 16.584609375 28.017421874999997 15.85546875 26.99609375 C11.136380616958899 20.789377133688504 7.424116660998169 17.474705553666055 0 15 C0 10.049999999999997 0 5.099999999999994 0 0 Z " fill="#5D8393" transform="translate(0,65)"/>
<path d="M0 0 C9.239999999999995 0 18.480000000000004 0 28 0 C28 11.22 28 22.44 28 34 C22.060000000000002 33.67 16.120000000000005 33.34 10 33 C8.700909094032923 30.00302749135037 7.410620498104635 27.002746838133657 6.125 24 C5.760195312500002 23.1608203125 5.3953906250000045 22.321640625 5.01953125 21.45703125 C1.9015136228275509 14.14386263354099 0 8.075861990783523 0 0 Z " fill="#9B8252" transform="translate(100,0)"/>
<path d="M0 0 C-3.222650782890639 2.1484338552604214 -4.176269852461431 2.1445153320524923 -7.875 2.375 C-19.28599878948387 4.289394777099673 -27.756162742685746 16.509516707426954 -34.78125 24.91796875 C-37.27430453349277 27.257401965407823 -38.61299062277122 27.839241780786196 -42 28 C-47.23849833195146 25.31983806272251 -51.29286287692375 21.073445661630515 -55.59375 17.109375 C-57.52231435541165 15.41875040272356 -59.31279983315926 14.058031472326327 -61.5 12.75 C-64.4350133231699 10.69549067378108 -65.15881372671979 9.448863720448863 -66 6 C-66.02447117482326 4.333512994535944 -66.02782027479438 2.6664344601838224 -66 1 C-59.124690461014936 2.175857768236881 -53.05473766898761 3.5924995090386034 -47 7.1875 C-41.49680077629506 9.423174684630133 -37.269401380669706 7.890694310897068 -32 5.75 C-28.616893277468023 4.280358342068411 -25.53980188885609 2.766188056350117 -22.5 0.6875 C-15.58800676546673 -2.6450681666499705 -7.3897308184693316 -1.3435874215398798 0 0 Z " fill="#3F6A5E" transform="translate(128,34)"/>
<path d="M0 0 C11.55 0 23.1 0 35 0 C36.45308420108915 5.812336804356577 33.98049817373818 9.029817910279856 31 14 C27.859183506633542 18.187755324488613 25.12630470507602 19.73059915036106 19.95703125 20.6640625 C13.32265042977633 21.417770228585518 6.668499827016063 21.68495276407798 0 22 C0 14.739999999999998 0 7.479999999999999 0 0 Z " fill="#4F6372" transform="translate(0,0)"/>
<path d="M0 0 C4.346875975156763 3.9846363105603615 8.652891123907168 8.181802362978829 9.2109375 14.3203125 C9.195148191754413 15.999242276779825 9.148938990386 17.678128181334984 9.07421875 19.35546875 C8.954565219340168 23.618912974036945 9.516232702790319 27.76703614941522 10 32 C3.4000000000000057 32 -3.200000000000003 32 -10 32 C-13.258154706430574 12.85834109972042 -13.258154706430574 12.85834109972042 -11.0625 6.125 C-7.943464172361615 2.911447935160453 -4.145633448209651 1.5556989250094944 0 0 Z " fill="#8B8993" transform="translate(82,96)"/>
<path d="M0 0 C6.110904833123527 -0.09945414737452296 11.974034268547683 -0.07128279670263282 18 1 C13.64155269946761 3.9056315336882577 9.190000956339105 4.225314412775198 4 4 C1.3125 2.0625 1.3125 2.0625 0 0 Z " fill="#556453" transform="translate(110,33)"/>
</svg>
