<?xml version="1.0" encoding="UTF-8"?>
<!-- Generator: visioncortex VTracer 0.6.0 -->
<svg version="1.1" xmlns="http://www.w3.org/2000/svg" width="128" height="128">
<path d="M0 0 C42.24 0 84.48 0 128 0 C128 42.24 128 84.48 128 128 C85.75999999999999 128 43.519999999999996 128 0 128 C0 85.75999999999999 0 43.519999999999996 0 0 Z " fill="#9BA6B1" transform="translate(0,0)"/>
<path d="M0 0 C4.746733402755623 4.7014545467674935 6.899076522695438 9.882283858701271 9.25 16.0625 C9.600625000000008 16.94744140625 9.951250000000002 17.8323828125 10.3125 18.744140625 C11.905109620309986 22.826734132448493 13.225631768048856 26.67453201794696 14 31 C14.600703124999995 31.086367187500002 15.201406249999991 31.172734375000005 15.8203125 31.26171875 C18.6147674056907 32.20822766966944 19.272048795334598 33.37184830702077 20.875 35.8125 C24.22431582363376 40.543938555918075 27.417129244301734 43.13904308143391 33 45 C39.17808416185781 45.57989237620326 44.320696186670006 44.91783960740341 50.08984375 42.65625 C51.999999999999986 42 51.999999999999986 42 55 42 C55 51.900000000000006 55 61.8 55 72 C48.80849873532719 71.31205541503635 45.41480352350057 70.88340992121759 40 69 C34.44494008307382 67.79179134249115 30.898636143471492 68.29403233618754 25.5625 70.1875 C24.90580322265626 70.41800048828125 24.249106445312492 70.6485009765625 23.572509765625 70.885986328125 C18.829656806841157 72.58913642443547 14.448952796451806 74.65418852550724 10 77 C3.067932818392208 79.73967774688015 -3.6675425071296957 79.32129985097278 -11 79 C-12.233632812500005 78.9548828125 -13.467265624999996 78.909765625 -14.73828125 78.86328125 C-22.614628710470598 78.20046293911886 -27.562606387665156 76.27113465962114 -33.12890625 70.55859375 C-37.50610933633296 64.57306552129836 -37.52564720685921 57.78446396150531 -36.515625 50.6484375 C-33.017686979473574 32.68175584911425 -24.338203620609747 10.46582192430369 -9.0625 -0.375 C-5.674212278100683 -1.401753855121008 -3.3853755359482136 -0.9502808521959878 0 0 Z " fill="#716F80" transform="translate(73,34)"/>
<path d="M0 0 C26.730000000000004 0 53.46000000000001 0 81 0 C81.99 3.465 81.99 3.465 83 7 C84.61208446092316 9.927180131598183 84.61208446092316 9.927180131598183 86.5 12.625 C90.57242054657037 18.647350723529915 92.95683910797278 23.570425749858376 92 31 C90.98603864968129 34.16553787416571 89.48464898924307 37.03070202151387 88 40 C87.34 40 86.68 40 86 40 C86 40.66 86 41.32 86 42 C80.864534785977 45.56629528751597 76.91920677233762 46.129556595351495 70.75 46.0625 C69.133515625 46.04896484375 69.133515625 46.04896484375 67.484375 46.03515625 C66.66453125 46.0235546875 65.8446875 46.011953125 65 46 C64.636484375 44.8772265625 64.27296875 43.754453125 63.8984375 42.59765625 C59.42751170398384 28.442995499366084 59.42751170398384 28.442995499366084 49.9375 17.375 C46.490368632456494 15.761449147107292 45.57537210279591 16.01038807869042 42 17 C31.939922523961457 21.14519832610146 25.475692769728134 26.083932385680413 21.04296875 36.1796875 C20.36229667983364 37.83391045936845 19.707790054663207 39.499046416936686 19.07421875 41.171875 C18.327954305965577 43.136585754476094 17.535219917379777 45.08401880296921 16.70703125 47.015625 C12.486198955829195 57.46249437325561 11.68239833392456 67.83551578267685 11 79 C9.000000000000021 78.00000000000001 6.999999999999979 76.99999999999999 5 76 C5 75.34 5 74.68 5 74 C4.009999999999998 73.67 3.0199999999999996 73.34 2 73 C-9.570485482851035 59.22816925127012 -11.044472983343908 45.73583977350661 -10.23974609375 28.26953125 C-9.737187307178703 23.512111209300635 -7.752293471925409 19.823545422076016 -5 16 C-1.065197213623275 10.316395975233618 -1.5069009010766123 8.287954955921357 0 0 Z " fill="#A8AAD4" transform="translate(22,0)"/>
<path d="M0 0 C8.25 0 16.5 0 25 0 C25 25.080000000000002 25 50.160000000000004 25 76 C7.857142857142861 81.71428571428572 7.857142857142861 81.71428571428572 -0.1875 78.875 C-5.71411049431245 75.19059300379169 -9.645108516237855 72.34009245628268 -12 66 C-12.616171874999992 65.930390625 -13.232343749999998 65.86078125 -13.8671875 65.7890625 C-16 65 -16 65 -17.52734375 62.04296875 C-18.01223377293411 60.76333707892467 -18.481394557033227 59.477671838499106 -18.9375 58.1875 C-19.455351288721076 56.820169325982114 -19.973585842904015 55.452983750350576 -20.4921875 54.0859375 C-20.995549345327447 52.7242381750926 -21.49818128824083 51.362268761776875 -22 50 C-22.837663144876743 47.76457941811 -23.69011927685446 45.534601841974464 -24.5625 43.3125 C-24.9144140625 42.3805078125 -25.266328125 41.448515625 -25.62890625 40.48828125 C-27.310487760840132 37.43652221180865 -29.09127883355285 35.89332917389167 -32 34 C-38.12398712318134 34 -41.998769932759174 36.36654401387865 -46.51416015625 40.32861328125 C-48.324659444750054 42.3652018663751 -49.34868797985011 44.40822836795916 -50.5234375 46.8671875 C-51.2156640625 48.3101318359375 -51.2156640625 48.3101318359375 -51.921875 49.7822265625 C-52.641171875 51.3131494140625 -52.641171875 51.3131494140625 -53.375 52.875 C-53.867421875000005 53.916240234375 -54.359843749999996 54.95748046875 -54.8671875 56.0302734375 C-59.909085766402306 66.78788749127992 -64.14986183196372 77.43724434268208 -67 89 C-72.07822191434042 81.38266712848937 -70.88576862489047 68.82044712309794 -69.375 60 C-66.26085589474461 47.05405807672402 -61.5082402027689 29.29899575371943 -49.82421875 21.55859375 C-47.58095562252693 20.29558005638071 -45.30878537014554 19.137782718381075 -43 18 C-41.927499999999995 17.38125 -40.855000000000004 16.7625 -39.75 16.125 C-36.465027668682126 14.781147682642688 -35.284194009679055 14.686322396128377 -32 16 C-22.326458878932897 22.380420739427237 -18.67604771934333 33.16987746524584 -16 44 C-16 44.66 -16 45.32 -16 46 C-13.43630529692507 45.71681868144648 -10.874384735782925 45.423775069273205 -8.3125 45.125 C-7.591269531249992 45.0463671875 -6.870039062499998 44.967734375 -6.126953125 44.88671875 C-2.1148406806721027 44.41039489816198 1.2997551181951081 43.73699858356916 5 42 C5 41.34 5 40.68 5 40 C5.659999999999997 40 6.319999999999993 40 7 40 C9.679661808784203 33.10944106312632 11.691861699838299 27.14478740057472 8.79296875 20.04296875 C6.672682053665369 15.689671254487626 4.452624521194068 11.498797444971599 1.625 7.5625 C0 4.999999999999995 0 4.999999999999995 0 0 Z " fill="#9098B8" transform="translate(103,0)"/>
<path d="M0 0 C4.532365566568615 2.9007139626039162 6.336025173631484 5.500596223402852 8.8125 10.25 C10.724620224361331 13.916034768985384 10.724620224361331 13.916034768985384 14.23828125 15.65625 C15.8064761599082 15.71784849073289 17.375928281541405 15.753792567078492 18.9453125 15.76171875 C21 16 21 16 23.5 18.5625 C25.472711858310873 23.08329800862907 26.978233513602362 27.111333977480058 25.3359375 31.9609375 C23.237588273283734 36.004098205136245 20.994610580964988 37.999853592461335 17 40 C4.046320461454599 43.166454998311096 -15.177270943208867 44.89363743407468 -27.0703125 37.7578125 C-28.75 36.4375 -28.75 36.4375 -31 34 C-31 33.34 -31 32.68000000000001 -31 32 C-28.689999999999998 30.680000000000007 -26.380000000000003 29.36 -24 28 C-24.33 27.010000000000005 -24.659999999999997 26.019999999999996 -25 25 C-25.83289243064216 18.200320812134507 -24.486889594990522 12.864833974525041 -21 7 C-15.427928801910966 0.0349110023887107 -8.496031975959568 -3.9825149887310474 0 0 Z " fill="#193F8D" transform="translate(70,61)"/>
<path d="M0 0 C0 7.260000000000005 0 14.52000000000001 0 22 C-28.379999999999995 22 -56.760000000000005 22 -86 22 C-84.77777777777777 9.777777777777771 -84.77777777777777 9.777777777777771 -80 5 C-77.95529322540676 5.094044376872986 -75.91351828553022 5.252802034532493 -73.875 5.4375 C-60.64597099098205 6.41792550016072 -50.30569378964597 6.609478597617837 -38 1 C-35.381654006395735 -0.06982280902113303 -32.75442542362485 -1.1122652339390555 -30.12109375 -2.14453125 C-28.429686024835092 -2.8267012165029684 -26.77030485400381 -3.588115069824269 -25.125 -4.375 C-16.929753329075467 -6.014049334184904 -7.768442031562614 -2.589480677187538 0 0 Z " fill="#8D8378" transform="translate(128,106)"/>
<path d="M0 0 C11.440814012133025 0 18.948951298397525 3.7518047793124794 28.75 9.25 C29.55413330078125 9.691262207031258 30.3582666015625 10.132524414062502 31.186767578125 10.587158203125 C36.247081353575396 13.515931925442672 39.855829051579825 16.678848978666963 43.5009765625 21.2568359375 C45.07298944232208 23.243076738403772 45.07298944232208 23.243076738403772 48 25 C47.731875 25.495000000000005 47.46375 25.989999999999995 47.1875 26.5 C44.57399310723131 32.00211977424988 43.009473302184425 36.943160186893465 42 43 C28.14 43 14.279999999999998 43 0 43 C0 28.810000000000002 0 14.620000000000005 0 0 Z " fill="#899B93" transform="translate(0,85)"/>
<path d="M0 0 C10.230000000000004 0 20.460000000000008 0 31 0 C31.659999999999997 2.31 32.31999999999999 4.62 33 7 C34.61208446092316 9.927180131598183 34.61208446092316 9.927180131598183 36.5 12.625 C40.572420546570356 18.647350723529897 42.95683910797278 23.570425749858394 42 31 C40.98603864968129 34.16553787416572 39.484648989243084 37.030702021513854 38 40 C37.34 40 36.68000000000001 40 36 40 C36 40.66 36 41.32 36 42 C30.864534785977 45.56629528751597 26.919206772337617 46.129556595351495 20.75 46.0625 C19.672343749999996 46.0534765625 18.594687499999992 46.044453125 17.484375 46.03515625 C16.664531249999996 46.0235546875 15.844687499999992 46.011953125 15 46 C14.636484374999995 44.8772265625 14.272968750000004 43.754453125 13.8984375 42.59765625 C10.077220575330358 31.09418775341468 6.709037308684543 21.63960313138442 -4 15 C-2.680000000000007 10.05 -1.3599999999999994 5.1 0 0 Z " fill="#92B1E9" transform="translate(72,0)"/>
<path d="M0 0 C8.476872227534045 5.59112849050118 12.624369425126474 14.879772464324539 15.38671875 24.39453125 C16.504520440645507 30.96606603003702 15.777320271406083 37.41812509320282 15 44 C11.426211511797021 39.91718525828442 10.051902006953469 34.97203528190357 8.337890625 29.931640625 C6.81581868983649 25.64654628510695 5.234546927970769 22.32247635902241 2 19 C-1.4888190477858387 17.79233186807413 -3.7001280458361236 17.41219025602149 -7.125 18.9609375 C-12.428378871512017 22.178060712498095 -15.827419608726423 25.223943812573943 -18.5234375 30.8671875 C-19.215664062499997 32.3101318359375 -19.215664062499997 32.3101318359375 -19.921875 33.7822265625 C-20.641171874999998 35.3131494140625 -20.641171874999998 35.3131494140625 -21.375 36.875 C-21.867421875000005 37.916240234375 -22.359843749999996 38.95748046875 -22.8671875 40.0302734375 C-27.909085766402306 50.78788749127992 -32.14986183196372 61.43724434268208 -35 73 C-40.07822191434042 65.38266712848937 -38.885768624890474 52.820447123097935 -37.375 44 C-34.26085589474461 31.054058076724033 -29.508240202768896 13.298995753719431 -17.82421875 5.55859375 C-15.580955622526929 4.295580056380707 -13.308785370145543 3.137782718381075 -11 2 C-9.927499999999995 1.3812500000000014 -8.855000000000004 0.7624999999999993 -7.75 0.125 C-4.465027668682126 -1.2188523173573138 -3.284194009679055 -1.313677603871625 0 0 Z " fill="#8187C0" transform="translate(71,16)"/>
<path d="M0 0 C4.554152726067187 4.561347280136808 6.728885238403535 9.405883102648794 9 15.375 C9.34031250000001 16.24680908203125 9.680624999999992 17.118618164062497 10.03125 18.016845703125 C18 38.744273792613654 18 38.744273792613654 18 43 C14.750790457287906 43.812302385678024 12.2216928397701 44.00208175420531 9 43 C6.577472451474307 40.17153540280242 4.823501735257736 37.26984626752376 3.01953125 34.015625 C0.21355342737894034 29.825654247459454 -3.089503479540525 27.7381463829048 -7.75 25.9375 C-12.87338877399791 26.036026707192264 -16.789049909485264 28.178229320789093 -21 31 C-26.892768430349165 37.924002905660274 -27.617588619424865 45.21013406772052 -27 54 C-26.67 54.66 -26.340000000000003 55.31999999999999 -26 56 C-28.97 57.31999999999999 -31.939999999999998 58.64 -35 60 C-37 58 -37 58 -37.1171875 56.07421875 C-35.40781093758153 39.228588433263155 -27.42165345847087 16.734303062224996 -15.4375 4.390625 C-9.904764241490547 0.0005194524870617556 -7.159966298280892 -2.009815101271826 0 0 Z " fill="#576AA7" transform="translate(73,34)"/>
<path d="M0 0 C3.085936207708791 1.0286454025695964 5.831782975677868 2.3771056977938088 8.5625 4.125 C9.120664062500001 4.478203125 9.678828124999999 4.831406250000001 10.25390625 5.1953125 C16.067986492757214 11.204496106608126 16.47001897754111 17.30141598786016 16.453125 25.30810546875 C16.42734375 26.588305664062503 16.401562499999997 27.868505859375 16.375 29.1875 C16.355664062499997 31.16580810546875 16.355664062499997 31.16580810546875 16.3359375 33.18408203125 C16.190726472817197 44.190076436346516 15.349820594999755 55.08091554401982 14 66 C12.000000000000018 65.00000000000001 9.99999999999999 64 8 63 C8 62.34 8 61.68000000000001 8 61 C7.009999999999998 60.67 6.02 60.34 5 60 C-6.566648196416816 46.23273660148068 -8.045562486352427 32.7398084950177 -7.244140625 15.2783203125 C-6.735127742970686 10.528212097402445 -4.762499854392063 6.8089013143890575 -2 3 C-1.3399999999999999 2.01 -0.6799999999999997 1.0199999999999996 0 0 Z " fill="#B0B4CD" transform="translate(19,13)"/>
<path d="M0 0 C0 9.899999999999999 0 19.799999999999997 0 30 C-17.14285714285714 35.71428571428572 -17.14285714285714 35.71428571428572 -25.1875 32.875 C-29.816677236850282 29.788881842099812 -33.89798391106194 26.653024133407087 -37 22 C-36.9223523997661 18.428210389240547 -36.37542105474586 16.501112685409673 -34.2265625 13.6328125 C-29.906600209592597 9.507415171891587 -23.91683292326678 7.833206825692784 -18.4375 5.75 C-17.30119140625 5.303984374999999 -16.164882812499997 4.857968749999998 -14.994140625 4.3984375 C-3.6981534090909065 0 -3.6981534090909065 0 0 0 Z " fill="#A18E9C" transform="translate(128,46)"/>
<path d="M0 0 C7.260000000000001 0 14.520000000000001 0 22 0 C21.88939543887633 8.405946645398851 20.132277785089364 13.400550990434596 15.59375 20.46875 C13.085049342881764 24.453156926011317 12.915292629669315 27.23487352036546 13.078125 31.83984375 C13.10390625 32.98517578125 13.1296875 34.1305078125 13.15625 35.310546875 C13.218660852604577 37.72506673513957 13.296744890489833 40.1392332263428 13.390625 42.552734375 C13.41125 43.69935546875 13.431875 44.8459765625 13.453125 46.02734375 C13.485673828125 47.07656005859375 13.51822265625 48.1257763671875 13.5517578125 49.206787109375 C12.999999999999998 52.00000000000001 12.999999999999998 52.00000000000001 10.6708984375 54.263916015625 C3.3846153846153966 59 3.3846153846153966 59 0 59 C0 39.53 0 20.059999999999995 0 0 Z " fill="#9397A7" transform="translate(0,0)"/>
<path d="M0 0 C2.154011683204139 0.029819225311968012 4.307033301417967 0.1347561088530398 6.45703125 0.26953125 C7.11523361206055 0.31059494018555256 7.773435974121092 0.3516586303710909 8.451583862304688 0.3939666748046875 C9.854855786091946 0.4830644542830669 11.257956552923908 0.5748921784402796 12.660888671875 0.669189453125 C14.765026531489191 0.8093379750350778 16.869635856190968 0.9375637221320687 18.974609375 1.064453125 C42.659197623237674 2.564931897372759 42.659197623237674 2.564931897372759 50 7 C52.484359027996675 10.122134778467455 54 12.92585905019834 54 17 C34.2 17 14.399999999999999 17 -6 17 C-4.777777777777779 4.7777777777777715 -4.777777777777779 4.7777777777777715 0 0 Z " fill="#988E74" transform="translate(48,111)"/>
<path d="M0 0 C2.9243473294903026 -0.2924347329490331 5.1522983357877905 -0.5118240084817387 8 0 C11.409533529827485 3.4969574664897323 12.778589537725495 7.185684254588253 13.1640625 11.9765625 C12.853972178419554 15.801009799492178 11.288795601523333 17.92819537690289 9 21 C-0.7535370823502205 28.032012870463944 -17.882557962492697 27.170081735136193 -29.46875 25.5 C-35.529329563964126 24.179873758344456 -39.759113148378376 22.59429408925675 -44 18 C-44 17.340000000000003 -44 16.680000000000007 -44 16 C-41.375 14.375 -41.375 14.375 -38 13 C-35.12500000000001 13.75 -35.12500000000001 13.75 -32 15 C-21.545538693100468 17.240241708621326 -10.844292147949446 14.734041849222208 -1 11 C-0.6700000000000017 7.3700000000000045 -0.3400000000000034 3.739999999999995 0 0 Z " fill="#344B73" transform="translate(83,77)"/>
<path d="M0 0 C0.43828125000000284 0.39832031250000455 0.8765624999999986 0.7966406249999949 1.328125 1.20703125 C14.608954489921771 12.301382714141965 33.43212194158559 9.536153310890967 49.5703125 8.21875 C50.37210937500001 8.146562500000002 51.17390625 8.074375000000003 52 8 C52 8.659999999999997 52 9.319999999999993 52 10 C52.66 10 53.31999999999999 10 54 10 C54.495000000000005 11.485 54.495000000000005 11.485 55 13 C45.525329078926944 20.045268120797914 36.642866755385 20.60422063001998 25 20 C23.1553515625 19.930390625 23.1553515625 19.930390625 21.2734375 19.859375 C12.091998542118233 19.099255870589303 6.978053623992729 15.980907935642918 1 9 C-0.47832259628563634 6.043354807428727 -0.06032782648813395 3.2577026303591623 0 0 Z " fill="#5E6367" transform="translate(37,93)"/>
</svg>
