<?xml version="1.0" encoding="UTF-8"?>
<!-- Generator: visioncortex VTracer 0.6.0 -->
<svg version="1.1" xmlns="http://www.w3.org/2000/svg" width="128" height="128">
<path d="M0 0 C42.24 0 84.48 0 128 0 C128 42.24 128 84.48 128 128 C85.75999999999999 128 43.519999999999996 128 0 128 C0 85.75999999999999 0 43.519999999999996 0 0 Z " fill="#828096" transform="translate(0,0)"/>
<path d="M0 0 C20.371428571428574 0 20.371428571428574 0 25.875 4.1875 C28.476225807852188 7.630298863333778 28.924661255496115 9.705691563278528 29 14 C27.97361749301465 19.131912534926755 25.143810656181653 23.19552042698536 22.33984375 27.53515625 C20.147689960691125 31.567952288058017 19.766487236190958 33.9248683166292 20.75 38.453125 C23.027419598128677 45.37078702931586 25.11539798860885 51.05535086281273 29.98046875 56.609375 C31.61055070930453 58.5389884605307 33.01597540266423 60.42988484229777 34.42578125 62.515625 C34.85157470703125 63.14138427734375 35.2773681640625 63.76714355468749 35.716064453125 64.411865234375 C36.54865825788706 65.64437003948484 37.37203637999237 66.88317052226824 38.184326171875 68.129150390625 C41.63500878910596 73.15482162913054 45.466108563369126 76.34096297730966 51.66015625 77.49609375 C57.85828535925776 77.3449198692864 62.43294203017117 76.56705796982884 67 72 C72.141360990486 71.47714972978109 75.72728979349291 71.65414320808749 80.21875 74.54296875 C83.94233875695491 77.58879902707056 86.93465793488495 81.31314172876911 90 85 C91.24400642405767 86.48421091650783 92.49365897148128 87.96371533192996 93.75 89.4375 C94.28109375 90.0755859375 94.8121875 90.713671875 95.359375 91.37109375 C97.19815733519258 93.19674192565549 98.54163327641429 94.16688683256262 101 95 C104.18812109311818 94.85665812139469 105.56149908259505 94.41671205194383 107.88671875 92.20703125 C108.4809765625 91.4168359375 109.075234375 90.626640625 109.6875 89.8125 C110.3668359375 88.9217578125 111.046171875 88.031015625 111.74609375 87.11328125 C113.38344692113321 84.85163397548844 114.99953697845274 82.58197543809221 116.59765625 80.29296875 C117.03827392578125 79.66479248046875 117.4788916015625 79.0366162109375 117.932861328125 78.389404296875 C118.79772412943426 77.14877904769385 119.65337928528874 75.90167377566263 120.498779296875 74.647705078125 C122.87097012207735 71.21757388895647 124.1485220027058 69.92573899864709 128 68 C128 82.19 128 96.38 128 111 C85.75999999999999 111 43.519999999999996 111 0 111 C0 74.37 0 37.739999999999995 0 0 Z " fill="#887EAA" transform="translate(0,17)"/>
<path d="M0 0 C1.84375 0.05078125 1.84375 0.05078125 4 1 C5.033527082579084 3.4366001859640534 5.803958577766309 5.655349308770532 6.5 8.1875 C8.965754776449927 16.985024335454753 8.965754776449927 16.985024335454753 15.1875 23.375 C19.210854923943316 24.269078871987404 22.910718051917286 24.696526046102 27 24 C30.733066907116836 21.33352363777368 32.87406609938404 17.74183161963549 35.4375 14 C38.278741446197984 9.867846679333802 40.76981933400674 6.726116429195656 45 4 C48.91359277963794 4.255061036554814 50.61581977225565 6.34962642138877 53.125 9.1875 C58.56903615931418 15.453952130836186 63.311659559387294 22.16244443574763 68 29 C68.4023486328125 29.582333984374998 68.804697265625 30.164667968749995 69.21923828125 30.7646484375 C76 40.60078413284134 76 40.60078413284134 76 43 C77.98 43.66 79.96 44.31999999999999 82 45 C82.13560863821715 46.74784467035414 82.23227208655908 48.498739260889636 82.3125 50.25 C82.3705078125 51.22453125 82.42851562499999 52.1990625 82.48828125 53.203125 C81.81627381231436 57.05238360306336 80.08220882756125 57.67444992760983 77 60 C75.04144181353371 62.47237857355282 73.34872394805781 65.1104333385633 71.625 67.75 C62.27917978152958 81.58250249682857 62.27917978152958 81.58250249682857 59 84 C55.562499999999986 84.5 55.562499999999986 84.5 52 83 C46.66397567757376 78.77344608124653 42.67874820044695 73.3762504698388 38.59765625 67.984375 C35.82114751784002 64.53580180699933 33.18518816661185 62.395062722203946 29 61 C23.20190123182077 60.429262580932885 23.20190123182077 60.429262580932885 18.1875 62.9375 C17.465625000000003 63.61812499999999 16.74375 64.29875 16 65 C10.89732880284403 66.70089039905199 5.810515352492487 67.03369801947605 0.6953125 65.15234375 C-6.347998758113583 61.05418933469193 -10.437600536809612 54.36286890280087 -14.83642578125 47.724609375 C-17.015370564524858 44.4950529442292 -19.388974178311663 41.400147451103464 -21.72265625 38.28125 C-23.2940966727334 35.47476312881864 -23.75036584728827 33.19870202457745 -24 30 C-21.30328869847089 22.645332814011518 -16.375067054426264 17.577401820795828 -11 12 C-10.243320312500003 11.203359374999998 -9.486640625 10.406718749999996 -8.70703125 9.5859375 C-4.7269376899695885 5.482598784194515 -4.7269376899695885 5.482598784194515 -3 4 C-2.3400000000000034 4 -1.6799999999999997 4 -1 4 C-0.6700000000000017 2.6799999999999997 -0.3400000000000034 1.3599999999999994 0 0 Z " fill="#575360" transform="translate(46,29)"/>
<path d="M0 0 C8.131900559742846 6.309449893339888 16.091913583446484 15.853382671309618 18.1875 26.1875 C17.890968729701285 32.21696916274061 15.750117011570552 36.8123537355368 12 41.5 C9.86177240850607 43.103670693620444 8.619474388991932 43.606349859910296 6 44 C-0.04281800788960766 41.64432518336507 -4.157806138003522 38.27219228527511 -8.8984375 33.90625 C-12.156239868337053 30.951217368497254 -15.091780861048449 28.48928695870552 -19.4375 27.375 C-23.501790191388125 28.36629029058247 -25.968676604726795 31.225797785575864 -29 34 C-32.37304565834544 36.72714329823674 -34.75131371711512 38.251812201298975 -39.0625 38.4375 C-45.353050249560425 37.73854997227107 -48.572363273218826 34.98052583174301 -52.44140625 30.20703125 C-57.4100693002857 23.17120512616185 -61.075944251693784 16.216512128834353 -60.515625 7.4296875 C-59.62783499454348 3.2463133833790963 -58.42096940461238 1.6203169907669306 -55 -1 C-49.3776921579937 -0.8406902146302855 -46.329741151605376 0.7723887558914271 -42 4.25 C-40.44732421875 5.464296875000002 -40.44732421875 5.464296875000002 -38.86328125 6.703125 C-37.21456626089642 8.025695823455536 -35.56602467154258 9.348483002963931 -33.91796875 10.671875 C-29.97003960928032 13.701888335992528 -27.042089456470578 15.619203968338496 -22 15 C-18.07282899723924 11.276083688694506 -15.112721372682628 6.9219732800881815 -12.41015625 2.25390625 C-11 0.000000000000007105427357601002 -11 0.000000000000007105427357601002 -8.6875 -1.4375 C-5.128038983978769 -2.1825034684695552 -3.343095908892579 -1.3929566287052424 0 0 Z " fill="#1D2D52" transform="translate(96,49)"/>
<path d="M0 0 C0 14.189999999999998 0 28.379999999999995 0 43 C-23.430000000000007 43 -46.86 43 -71 43 C-71 30.61066440964875 -71 30.61066440964875 -70.01171875 26.5078125 C-69.79966796875 25.618359374999997 -69.5876171875 24.728906249999994 -69.369140625 23.8125 C-69.14419921875 22.925624999999997 -68.9192578125 22.038749999999993 -68.6875 21.125 C-68.47416015625001 20.214921875 -68.2608203125 19.304843750000003 -68.041015625 18.3671875 C-66.65726075659464 12.716510903049112 -65.20445651459673 8.204456514596728 -61 4 C-55.85863900951399 3.4771497297810896 -52.2727102065071 3.6541432080874756 -47.78125 6.54296875 C-44.057661243045075 9.588799027070593 -41.06534206511503 13.313141728769125 -38 17 C-36.75599357594233 18.484210916507834 -35.50634102851872 19.96371533192996 -34.25 21.4375 C-33.71890625 22.075585937499994 -33.18781250000001 22.713671875000003 -32.640625 23.37109375 C-30.801842664807452 25.19674192565546 -29.45836672358574 26.16688683256261 -27 27 C-23.811878906881773 26.856658121394688 -22.43850091740498 26.41671205194386 -20.11328125 24.20703125 C-19.51902343750001 23.416835937499997 -18.924765624999992 22.626640624999993 -18.3125 21.8125 C-17.295429687500004 20.476386718750007 -17.295429687500004 20.476386718750007 -16.2578125 19.11328125 C-14.614903435796975 16.847885879464002 -12.984441945086672 14.576532026462374 -11.3671875 12.29296875 C-10.92205810546875 11.664792480468748 -10.4769287109375 11.036616210937495 -10.018310546875 10.389404296875 C-9.143174706933763 9.146939379372668 -8.274630557114136 7.899800639360961 -7.413330078125 6.647705078125 C-2.778669016367587 0 -2.778669016367587 0 0 0 Z " fill="#956957" transform="translate(128,85)"/>
<path d="M0 0 C11.549999999999997 0 23.099999999999994 0 35 0 C35 24.42 35 48.84 35 74 C29.243117679440147 72.56077941986004 27.803333462860763 69.86374003958754 24.6875 65 C20.904284682975415 59.258496977131514 16.93480152408131 53.67416138292224 12.875 48.125 C11.996544189453118 46.91263671875 11.996544189453118 46.91263671875 11.100341796875 45.67578125 C7.696723503809977 41.05004392199727 4.174693070558206 36.94629041016292 0 33 C0.2887499999999932 32.175 0.5775000000000006 31.35 0.875 30.5 C1.2462500000000034 29.345 1.6175000000000068 28.19 2 27 C2.2139843749999955 26.3851171875 2.427968750000005 25.770234375 2.6484375 25.13671875 C5.258090205543908 16.68076615216615 1.8472691116742652 9.029298894921416 -1 1 C-0.6700000000000017 0.6699999999999999 -0.3400000000000034 0.33999999999999997 0 0 Z " fill="#965E6B" transform="translate(93,0)"/>
<path d="M0 0 C20.371428571428574 0 20.371428571428574 0 25.875 4.1875 C28.476225807852188 7.630298863333778 28.924661255496115 9.705691563278528 29 14 C27.97361749301465 19.131912534926755 25.143810656181653 23.19552042698536 22.33984375 27.53515625 C20.287746840760203 31.31029662822249 19.694266671302497 33.72639265282918 20.70703125 37.9453125 C21.0718359375 38.994609375 21.436640625 40.04390625 21.8125 41.125 C27.083998589562768 57.23134344146686 27.083998589562768 57.23134344146686 26 65 C22.969680755818366 70.92613345663719 19.503297814829054 72.64276170920172 13.5625 74.875 C12.81162109375 75.181796875 12.0607421875 75.48859375 11.287109375 75.8046875 C7.072077148548931 77.4654917545735 4.729645781545265 78 0 78 C0 52.25999999999999 0 26.519999999999996 0 0 Z " fill="#DE8885" transform="translate(0,17)"/>
<path d="M0 0 C22.77 0 45.54 0 69 0 C69 0.66 69 1.32 69 2 C67.31504002831292 3.448888522063668 65.57537451407802 4.834487988534569 63.8125 6.1875 C54.923566640497576 13.376239430663063 52.2695285985406 18.763065719420915 50 30 C49.443125 30.061875 48.88625 30.12375 48.3125 30.1875 C45.00609294823146 31.349210585756513 43.38613105533707 33.45408338292161 41 36 C40.025956889818815 36.94929607994284 39.04662649092122 37.893192564307206 38.0625 38.83203125 C32.519505611139024 44.20275544287866 27.72926783929209 49.16300896129784 24 56 C23.34 56.99 22.68 57.98 22 59 C18.48938522777532 51.838345864661655 18.48938522777532 51.838345864661655 20 47 C21.10592914509214 45.21099697117448 22.27846492547018 43.46215162085738 23.5 41.75 C26.68126652275264 36.89300460929535 28.628770596529563 32.88434369582385 28 27 C26.45643432600059 23.262946262948795 24.47939693478567 21.046704079285686 21 19 C16.612773167108475 17.87278275458055 12.190064243561348 17.68322802920589 7.6875 17.4375 C5.150625 17.293125 2.6137499999999996 17.14875 0 17 C0 11.39 0 5.779999999999999 0 0 Z " fill="#825C86" transform="translate(0,0)"/>
<path d="M0 0 C1.84375 0.05078125 1.84375 0.05078125 4 1 C5.033527082579084 3.4366001859640534 5.803958577766309 5.655349308770532 6.5 8.1875 C8.004737292991223 13.505968018331032 9.843936994464528 17.378622027608778 13 22 C13.25 25.375 13.25 25.375 13 28 C11.989375000000003 27.4225 10.978749999999998 26.845 9.9375 26.25 C9.299414062499999 25.8903515625 8.661328124999997 25.530703125000002 8.00390625 25.16015625 C6.702105785826021 24.406482297057167 5.416539794114954 23.62377301734685 4.15234375 22.80859375 C1.4207539856850815 21.085590975585973 -0.4806599254339119 20 -3.75 20 C-6.539444732739881 21.239753214551058 -7.399512257620785 22.417700449270512 -9 25 C-10.84234071438329 33.683280266240615 -7.592549960258523 40.78027080483376 -3 48 C1.0908578790051564 53.680735226339166 1.0908578790051564 53.680735226339166 7 57 C9.80072667363443 57.227769940325686 12.600001406202793 57.380107598703916 15.40625 57.5234375 C18.291413700787132 58.05354287875909 19.209910865575807 58.73819818826132 21 61 C15.90450891860263 65.26919523035995 12.261228121999324 66.52198322004347 5.6796875 66.37890625 C-0.6548567290790075 65.48320538962003 -4.7289680389225595 61.76681789807368 -8.5390625 56.8359375 C-10.73043610612087 53.85930447347653 -12.794981548868122 50.80534931646753 -14.83642578125 47.724609375 C-17.015370564524858 44.4950529442292 -19.388974178311663 41.400147451103464 -21.72265625 38.28125 C-23.2940966727334 35.47476312881864 -23.75036584728827 33.19870202457745 -24 30 C-21.30328869847089 22.645332814011518 -16.375067054426264 17.577401820795828 -11 12 C-10.243320312500003 11.203359374999998 -9.486640625 10.406718749999996 -8.70703125 9.5859375 C-4.7269376899695885 5.482598784194515 -4.7269376899695885 5.482598784194515 -3 4 C-2.3400000000000034 4 -1.6799999999999997 4 -1 4 C-0.6700000000000017 2.6799999999999997 -0.3400000000000034 1.3599999999999994 0 0 Z " fill="#715272" transform="translate(46,29)"/>
<path d="M0 0 C4.164153516988108 1.022310704699727 6.364440999747529 2.4840598255950894 9.69140625 5.15625 C10.72265625 5.967070312499999 11.75390625 6.777890624999998 12.81640625 7.61328125 C13.765156250000004 8.369960937499997 14.71390625 9.126640625 15.69140625 9.90625 C19.996020288833023 13.227388814923067 19.996020288833023 13.227388814923067 24.76953125 15.7578125 C27.31015461914356 17.275989879122363 27.613687491170495 18.543301532626828 28.44140625 21.34375 C28.683750000000003 22.126210937500005 28.926093750000007 22.908671874999996 29.17578125 23.71484375 C29.69140625 25.90625 29.69140625 25.90625 29.69140625 28.90625 C27.620507955496663 31.203844261653103 25.130071229132554 33.01170905272258 22.69140625 34.90625 C21.72203125 35.69 20.75265625 36.473749999999995 19.75390625 37.28125 C15.589635352297705 39.49086312939306 13.380223639688076 39.42722970996533 8.69140625 38.90625 C0.8076890686176128 35.71522161705951 -3.6896592912894803 27.354560548947205 -7.1640625 20.0390625 C-9.153720356434889 14.592968299109955 -9.770128830422045 9.27803707149998 -7.41796875 3.8515625 C-5.218657118719413 0.6698916734140852 -3.8482588940852906 -0.10904157433063233 0 0 Z " fill="#3C2B4B" transform="translate(44.30859375,48.09375)"/>
<path d="M0 0 C0.6600000000000001 0 1.3200000000000003 0 2 0 C5.916900370296936 9.563599381283382 10.175272022560254 21.52049113217106 9 32 C6.192124465689698 37.97325246290944 2.425190046178347 39.672110486491476 -3.4375 41.875 C-4.18837890625 42.181796875 -4.939257812499999 42.48859375000001 -5.712890625 42.8046875 C-9.927922851451072 44.465491754573506 -12.270354218454733 45 -17 45 C-17 32.78999999999999 -17 20.58 -17 8 C-14.03 7.009999999999998 -11.059999999999999 6.019999999999996 -8 5 C-3.7373006824581 2.8859475179207834 -3.7373006824581 2.8859475179207834 0 0 Z " fill="#C48EA4" transform="translate(17,50)"/>
<path d="M0 0 C0 14.190000000000001 0 28.380000000000003 0 43 C-7.661297661018409 41.72311705649693 -10.849876409090186 38.58934817809443 -16 33 C-18.043456417051615 30.128507925801884 -19.58668794033504 27.223040916553003 -21 24 C-21.317109375 23.307773437500003 -21.634218750000002 22.615546875 -21.9609375 21.90234375 C-23.805200241370258 17.51164483820567 -24.54529959673158 13.816813104462287 -24 9 C-22.197768639143277 4.826411585384442 -20.10256322401891 2.9081689414041456 -16 1 C-10.539194477222239 -0.3969502500129156 -5.855329130620078 0 0 0 Z " fill="#D67F6D" transform="translate(128,15)"/>
<path d="M0 0 C2.979736148795965 -0.08184422789164891 5.957168318771178 -0.14089764310811237 8.9375 -0.1875 C9.76830078125 -0.2126367187499998 10.5991015625 -0.23777343749999957 11.455078125 -0.263671875 C22.578506545271793 -0.3935173429409158 32.10696737773708 3.8318292178556774 40.4453125 11.14453125 C43.81854205730074 14.5941579923964 45.830996350458 16.774723540820517 46.5 21.625 C44.365560411064514 26.427489075104845 41.03277640086465 28.762615484427002 37 32 C31.65218928357616 36.85808446034107 27.5820939755428 41.73827758538836 24 48 C23.34 48.99 22.68 49.98 22 51 C18.489385227775323 43.83834586466166 18.489385227775323 43.83834586466166 20 39 C21.10592914509214 37.21099697117448 22.27846492547018 35.46215162085738 23.5 33.75 C26.68126652275264 28.893004609295353 28.628770596529566 24.88434369582385 28 19 C26.45643432600059 15.262946262948802 24.479396934785665 13.046704079285686 21 11 C16.61262802556171 9.872745463129533 12.190643513070405 9.68297967318793 7.6875 9.4375 C6.94693359375 9.394316406249999 6.2063671875 9.351132812499998 5.443359375 9.306640625 C3.6290853620755996 9.201295682314068 1.8145645030457198 9.100216840943773 0 9 C0 6.029999999999999 0 3.0599999999999987 0 0 Z " fill="#A36375" transform="translate(0,8)"/>
<path d="M0 0 C8.445142102263858 3.5491779191502886 14.749908498219355 15.670535790138999 19.8623046875 23.10693359375 C21.0705951908611 24.858422750143333 22.297581174257502 26.595574731629142 23.52734375 28.33203125 C24.267265624999993 29.3980859375 25.0071875 30.464140625 25.76953125 31.5625 C26.433398437500003 32.51511718750001 27.097265625000006 33.46773437499999 27.78125 34.44921875 C28.210507812499998 35.2497265625 28.639765624999995 36.050234375 29.08203125 36.875 C28.75203125 37.86500000000001 28.422031250000003 38.85499999999999 28.08203125 39.875 C24.519531249999986 41.5625 24.519531249999986 41.5625 21.08203125 42.875 C20.68113281250001 41.980390625 20.280234374999992 41.08578125 19.8671875 40.1640625 C16.02963627028845 31.892390043730842 11.797097225481565 25.208108094307384 5.08203125 18.875 C4.5341796875 18.356796875 3.986328125 17.83859375 3.421875 17.3046875 C0.7542588463881259 15.156367290957903 -0.9358094328514426 14.875324376051843 -4.35546875 14.9375 C-9.014224611086718 16.617538064949414 -10.926675666315319 21.04793683032451 -13.2421875 25.1484375 C-14.90951829317521 27.861250771879483 -16.46993139934456 29.843751787323086 -18.91796875 31.875 C-24.54290913668602 32.09134386102639 -28.072142387473903 29.899946166188812 -32.31640625 26.5078125 C-34.360615490762996 24.42371624966114 -34.91796875 22.78596739535 -34.91796875 19.875 C-31.91796875 18.875 -31.91796875 18.875 -28.91796875 19.875 C-24.423792369253732 20.46412424466711 -21.06266573810676 20.692640705790538 -17.29296875 18 C-15.268204859146124 15.335836985718586 -13.370775022396515 12.63427059369426 -11.48046875 9.875 C-4.4893061883375225 -0.2925820733743407 -4.4893061883375225 -0.2925820733743407 0 0 Z " fill="#583A51" transform="translate(92.91796875,33.125)"/>
<path d="M0 0 C0 14.189999999999998 0 28.379999999999995 0 43 C-6.930000000000007 43 -13.86 43 -21 43 C-24.834019356991874 29.70074535543442 -24.834019356991874 29.70074535543442 -22.8046875 25.5625 C-20.875 23.5625 -20.875 23.5625 -18.6015625 21.52734375 C-14.640132261225574 17.678927286806214 -11.867068555622282 13.10168608018877 -8.85888671875 8.494384765625 C-3.2041855716878445 0 -3.2041855716878445 0 0 0 Z " fill="#9A8F86" transform="translate(128,85)"/>
<path d="M0 0 C4.75 1.875 4.75 1.875 7 3 C8.622689906711557 3.0961175206066116 10.24947305628428 3.1298235220881736 11.875 3.125 C12.738671875000001 3.1275781249999994 13.602343750000003 3.130156249999999 14.4921875 3.1328125 C16.806659705823208 3.0102392056106027 18.782891157196744 2.649664451612111 21 2 C20.123439787727925 6.47561331913036 19.23787879352446 10.945323104220634 18.234375 15.39453125 C16.608178202538426 22.624729756361035 15.499710548242206 29.604283886015395 15 37 C11.369999999999997 37 7.740000000000002 37 4 37 C3.9197122908051227 32.10244973911247 4.036109072395213 27.426046249159555 4.625 22.5625 C5.427192215107851 14.368679517112653 3.515727025761585 7.351065599319682 0 0 Z " fill="#9A7890" transform="translate(42,91)"/>
<path d="M0 0 C1.7549132614118719 3.509826522823751 0.10758771275604317 7.02549359769462 -0.84765625 10.68359375 C-3.2477310602704534 17.59092769549021 -7.413574211545495 24.217931376352553 -13 29 C-18.624940386686035 29.216343861026388 -22.154173637473903 27.024946166188812 -26.3984375 23.6328125 C-28.442646740762996 21.54871624966114 -29 19.91096739535 -29 17 C-26 16 -26 16 -23 17 C-18.505823619253732 17.58912424466711 -15.144696988106759 17.817640705790538 -11.375 15.125 C-8.661076875446469 11.5540485203243 -6.063089579359158 7.9225737237972425 -3.55078125 4.20703125 C-2 1.999999999999993 -2 1.999999999999993 0 0 Z " fill="#575461" transform="translate(87,36)"/>
<path d="M0 0 C3.2339333713436744 3.0718683732353327 5.898688266982639 6.363214544360801 8.5625 9.9375 C9.326914062500002 10.957148437499995 10.091328125000004 11.976796875000005 10.87890625 13.02734375 C12.731675107228483 15.623949827994252 14.408040716844951 18.238230380980212 16 21 C15.305195312500004 20.8362890625 14.610390625 20.672578125 13.89453125 20.50390625 C10.764718396181728 19.959040044679412 7.862019167864489 19.902615173979513 4.6875 19.9375 C3.0845507812500017 19.95103515625 3.0845507812500017 19.95103515625 1.44921875 19.96484375 C0.6409765625000006 19.976445312500005 -0.16726562499999886 19.988046874999995 -1 20 C-0.49339843750000156 19.004199218750003 -0.49339843750000156 19.004199218750003 0.0234375 17.98828125 C1.2401148517824545 14.265248553545689 0.9913998683620839 11.016378624383776 0.625 7.1875 C0.5682812499999983 6.49462890625 0.5115625000000001 5.8017578125 0.453125 5.087890625 C0.31269395876815054 3.391015543448461 0.15780593250977049 1.6953475181793038 0 0 Z " fill="#9A7890" transform="translate(24,67)"/>
<path d="M0 0 C-0.5060399203482717 2.1687425157783196 -0.9998381332236335 3.999676266447281 -2 6 C-4.969999999999999 5.5049999999999955 -4.969999999999999 5.5049999999999955 -8 5 C-3.1612903225806406 0 -3.1612903225806406 0 0 0 Z " fill="#593A51" transform="translate(69,82)"/>
</svg>
