<?xml version="1.0" encoding="UTF-8"?>
<!-- Generator: visioncortex VTracer 0.6.0 -->
<svg version="1.1" xmlns="http://www.w3.org/2000/svg" width="128" height="128">
<path d="M0 0 C42.24 0 84.48 0 128 0 C128 42.24 128 84.48 128 128 C85.75999999999999 128 43.519999999999996 128 0 128 C0 85.75999999999999 0 43.519999999999996 0 0 Z " fill="#94AEB0" transform="translate(0,0)"/>
<path d="M0 0 C3.2983049966517086 2.005562745216789 6.336081319638197 4.052490030015573 8.8828125 6.984375 C8.8828125 7.644375 8.8828125 8.304375 8.8828125 8.984375 C9.645937500000002 9.252499999999998 10.409062500000005 9.520625000000003 11.1953125 9.796875 C13.8828125 10.984375 13.8828125 10.984375 15.1640625 12.359375 C17.52970399992425 14.595981509019289 20.147095761739095 15.757415287938272 23.0703125 17.171875 C24.156992187499995 17.701679687500004 25.243671875000004 18.231484375 26.36328125 18.77734375 C27.194726562499994 19.175664062500005 28.026171875000003 19.573984374999995 28.8828125 19.984375 C28.8828125 20.644374999999997 28.8828125 21.304375 28.8828125 21.984375 C29.707812500000003 22.128749999999997 30.532812500000006 22.273125 31.3828125 22.421875 C37.045313063819705 24.94977703741951 41.34830445674021 29.81817340407396 44.0546875 35.40234375 C46.44530894073242 42.856120977943995 48.21813476891708 53.98011299517768 44.7890625 61.328125 C43.77280708027371 62.690339711548006 42.72471686003831 64.02916472126437 41.65234375 65.34765625 C39.210197166749026 68.98661639060576 37.9649494247587 72.87181689299639 36.5078125 76.984375 C32.42524042865713 88.10262859999605 25.895767775098832 95.52373373328686 15.8828125 101.984375 C15.222812500000003 101.984375 14.562812500000007 101.984375 13.8828125 101.984375 C13.552812500000002 104.294375 13.222812500000003 106.604375 12.8828125 108.984375 C1.9928124999999994 108.984375 -8.897187500000001 108.984375 -20.1171875 108.984375 C-20.777187499999997 106.344375 -21.4371875 103.704375 -22.1171875 100.984375 C-23.05222440254405 98.9269979701611 -23.05222440254405 98.9269979701611 -24.21875 97.3359375 C-24.824931640624996 96.43077392578124 -24.824931640624996 96.43077392578124 -25.443359375 95.50732421875 C-25.87197265625 94.8810009765625 -26.300585937500003 94.254677734375 -26.7421875 93.609375 C-34.92796765348518 81.01701611425547 -41.29422556524532 68.20917079296157 -42.1171875 52.984375 C-42.17390625 51.996953125000005 -42.230625 51.00953125000001 -42.2890625 49.9921875 C-42.584971763008326 39.309863105399295 -39.56196998077703 31.183390045230908 -34.88671875 21.71484375 C-33.75417033454454 19.403025600644696 -32.85533215019575 17.231885415825687 -32.00390625 14.78515625 C-30.403869586009485 10.256867158474716 -29.238898287403067 7.711654151048265 -25.12890625 5.046875 C-21.828390081255392 3.491931935223377 -18.565496256718802 2.172447764919923 -15.1171875 0.984375 C-13.533574218749997 0.42749999999999844 -13.533574218749997 0.42749999999999844 -11.91796875 -0.140625 C-7.673586115799004 -1.4666245956220685 -4.124653373420799 -1.978616009390052 0 0 Z " fill="#21638A" transform="translate(66.1171875,19.015625)"/>
<path d="M0 0 C10.23 0 20.46 0 31 0 C30.67 7.92 30.34 15.84 30 24 C32.64 24.66 35.28 25.32 38 26 C35.69847320259229 33.28816819179109 32.93970550308863 40.30112643514457 29.375 47.0625 C22.774553344689203 60.10092077756779 23.98220811169297 75.25886372823452 28 89 C31.972898173264205 99.81254095186215 37.68329475463053 109.66664101461824 44.34765625 119.01953125 C46 122 46 122 46 128 C30.82 128 15.639999999999997 128 0 128 C0 85.75999999999999 0 43.519999999999996 0 0 Z " fill="#7DB1B5" transform="translate(0,0)"/>
<path d="M0 0 C3.2983049966517086 2.005562745216789 6.336081319638197 4.052490030015573 8.8828125 6.984375 C8.8828125 7.644375 8.8828125 8.304375 8.8828125 8.984375 C9.645937500000002 9.252499999999998 10.409062500000005 9.520625000000003 11.1953125 9.796875 C13.8828125 10.984375 13.8828125 10.984375 15.1640625 12.359375 C17.52970399992425 14.595981509019289 20.147095761739095 15.757415287938272 23.0703125 17.171875 C24.156992187499995 17.701679687500004 25.243671875000004 18.231484375 26.36328125 18.77734375 C27.194726562499994 19.175664062500005 28.026171875000003 19.573984374999995 28.8828125 19.984375 C28.8828125 20.644374999999997 28.8828125 21.304375 28.8828125 21.984375 C29.707812500000003 22.128749999999997 30.532812500000006 22.273125 31.3828125 22.421875 C37.045313063819705 24.94977703741951 41.34830445674021 29.81817340407396 44.0546875 35.40234375 C46.61883070652553 43.39714874770458 48.00279970767633 54.147757478295304 44.578125 61.9609375 C43.13083131333529 64.14226530526021 41.712863214742995 66.11376914476409 39.8828125 67.984375 C39.5528125 67.984375 39.2228125 67.984375 38.8828125 67.984375 C38.711528320312496 67.31382080078124 38.540244140625006 66.6432666015625 38.36376953125 65.952392578125 C37.58190980507476 62.89965532855827 36.794913656629205 59.848264832792765 36.0078125 56.796875 C35.738398437499995 55.74177734375 35.468984375000005 54.6866796875 35.19140625 53.599609375 C34.927148437499994 52.578027343749994 34.662890625 51.5564453125 34.390625 50.50390625 C34.1497314453125 49.56651611328125 33.908837890624994 48.629125976562506 33.66064453125 47.663330078125 C32.88697554008556 44.99871305362801 32.06210143102274 42.497337525380765 30.8828125 39.984375 C28.635374936162407 38.8341697512207 28.635374936162407 38.8341697512207 25.8828125 37.984375 C24.146820042446578 36.987786737330445 22.41141737329791 35.98998946385606 20.6875 34.97265625 C18.693860856920054 33.828728776900576 18.693860856920054 33.828728776900576 15.6328125 32.734375 C11.005697820431266 30.858232829240926 7.199901630687265 27.71007246945552 3.23828125 24.7265625 C1.019927781210356 22.981131608888447 1.019927781210356 22.981131608888447 -1.1171875 21.984375 C-5.972288659536133 23.191001470850573 -5.972288659536133 23.191001470850573 -9.1171875 26.984375 C-10.107187500000002 26.984375 -11.097187500000004 26.984375 -12.1171875 26.984375 C-12.1171875 27.644374999999997 -12.1171875 28.304375 -12.1171875 28.984375 C-15.578725961538467 31.984375 -15.578725961538467 31.984375 -18.1171875 31.984375 C-18.1171875 32.644375 -18.1171875 33.304375 -18.1171875 33.984375 C-19.490123099494824 35.12262075342733 -20.917231311182 36.196019277685174 -22.3671875 37.234375 C-27.257396488592292 40.92509876497532 -30.15085128386469 44.085366351594075 -32.1171875 49.984375 C-33.048653823892394 57.73087341515577 -32.3137202547085 63.29891170061768 -27.8984375 69.796875 C-25.288933648484914 73.00152885273782 -22.426830603698207 75.52933457566049 -19.1171875 77.984375 C-15.927266144149598 80.50663839764916 -12.843819385273846 82.9547840163624 -10.1171875 85.984375 C-10.1171875 86.644375 -10.1171875 87.304375 -10.1171875 87.984375 C-9.127187499999998 88.314375 -8.137187500000003 88.644375 -7.1171875 88.984375 C-2.3444602272727266 93.30255681818183 -2.3444602272727266 93.30255681818183 -1.1171875 96.984375 C0.5328125000000057 97.314375 2.182812499999997 97.644375 3.8828125 97.984375 C3.8828125 98.644375 3.8828125 99.304375 3.8828125 99.984375 C4.975937500000001 100.12875 6.069062500000001 100.273125 7.1953125 100.421875 C10.882812499999972 100.984375 10.882812499999972 100.984375 13.8828125 101.984375 C13.552812500000002 104.294375 13.222812500000003 106.604375 12.8828125 108.984375 C1.9928124999999994 108.984375 -8.897187500000001 108.984375 -20.1171875 108.984375 C-20.777187499999997 106.344375 -21.4371875 103.704375 -22.1171875 100.984375 C-23.05222440254405 98.9269979701611 -23.05222440254405 98.9269979701611 -24.21875 97.3359375 C-24.824931640624996 96.43077392578124 -24.824931640624996 96.43077392578124 -25.443359375 95.50732421875 C-25.87197265625 94.8810009765625 -26.300585937500003 94.254677734375 -26.7421875 93.609375 C-34.92796765348518 81.01701611425547 -41.29422556524532 68.20917079296157 -42.1171875 52.984375 C-42.17390625 51.996953125000005 -42.230625 51.00953125000001 -42.2890625 49.9921875 C-42.584971763008326 39.309863105399295 -39.56196998077703 31.183390045230908 -34.88671875 21.71484375 C-33.75417033454454 19.403025600644696 -32.85533215019575 17.231885415825687 -32.00390625 14.78515625 C-30.403869586009485 10.256867158474716 -29.238898287403067 7.711654151048265 -25.12890625 5.046875 C-21.828390081255392 3.491931935223377 -18.565496256718802 2.172447764919923 -15.1171875 0.984375 C-13.533574218749997 0.42749999999999844 -13.533574218749997 0.42749999999999844 -11.91796875 -0.140625 C-7.673586115799004 -1.4666245956220685 -4.124653373420799 -1.978616009390052 0 0 Z " fill="#417F8F" transform="translate(66.1171875,19.015625)"/>
<path d="M0 0 C15.840000000000003 0 31.68 0 48 0 C48.66 3.96 49.31999999999999 7.92 50 12 C53.56830528012233 14.641472739830819 56.10828755487799 16.23210064337036 60 18 C63.01891669171465 19.74203349884441 65.9504769638539 21.573425166599993 68.8125 23.5625 C69.71935546875 24.18318359375 69.71935546875 24.18318359375 70.64453125 24.81640625 C71.0918359375 25.2069921875 71.539140625 25.597578125 72 26 C72 26.66 72 27.32 72 28 C73.485 28.494999999999997 73.485 28.494999999999997 75 29 C75 29.66 75 30.32 75 31 C75.66 31 76.32 31 77 31 C79.20312500000001 33.50781250000002 79.20312500000001 33.50781250000002 81 37 C80.79996442843024 39.91228258608915 80.48266773793914 42.115463118418994 79.75 44.875 C79.5888671875 45.563359375 79.427734375 46.25171875 79.26171875 46.9609375 C78.86382346636506 48.646141054218546 78.43499507347198 50.32398956985797 78 52 C77.2278515625 51.2201171875 76.455703125 50.440234375 75.66015625 49.63671875 C72.086906299723 46.09495117813954 68.62318167808552 43.05474741248245 64 41 C64 40.34 64 39.68 64 39 C63.428945312500005 38.88140625 62.857890624999996 38.7628125 62.26953125 38.640625 C54.70203577014655 36.50453333270918 46.27838449307697 31.098994348241817 41.4375 24.875 C38.04033668329329 20.868089421320295 35.09719783761901 19.342399646958206 29.9375 18.5 C23.28749577260006 19.344444981257134 16.729820916369903 21.93393832237645 10.86328125 25.18359375 C7.505491580549474 26.65482654017853 4.538590447141971 25.62781443417035 1 25 C0.33999999999999986 24.67 -0.3200000000000003 24.34 -1 24 C-2 16 -2 16 0 0 Z " fill="#85AA93" transform="translate(31,0)"/>
<path d="M0 0 C1.3200000000000003 0.6599999999999966 2.6400000000000006 1.3200000000000003 4 2 C4 2.6599999999999966 4 3.3200000000000003 4 4 C4.582656249999999 4.268124999999998 5.165312499999999 4.536250000000003 5.765625 4.8125 C15.97384915301555 10.237849899504766 24.454448242097612 21.55698669412942 29 32 C30.543018260738393 37.7606015067567 29.54155002429765 42.3816234651631 28 48 C27.340000000000003 48 26.680000000000007 48 26 48 C26 48.99000000000001 26 49.97999999999999 26 51 C21.464673291411557 53.047196083737845 17.674891051570214 54.70564220057099 12.8125 52.9375 C9.27916890448472 51.29474886941975 6.079371727215467 49.38651308859198 3 47 C3 46.34 3 45.68000000000001 3 45 C2.2600781249999997 44.75765625 1.5201562499999994 44.51531249999999 0.7578125 44.265625 C-4.875768492471401 41.68024222158536 -8.478034608641849 36.14026383159741 -12 31.1875 C-13.963787146597227 24.92792847022133 -14.194900943521414 17.860068245054293 -11.5625 11.75 C-8.759153153904094 6.897661459121267 -4.316034115350291 3.4675829644694645 0 0 Z " fill="#155576" transform="translate(46,53)"/>
<path d="M0 0 C16.17 0 32.34 0 49 0 C49 14.520000000000001 49 29.040000000000003 49 44 C41.06294034758102 42.86613433536872 41.06294034758102 42.86613433536872 36.75 40.1875 C35.91984375 39.6860546875 35.0896875 39.184609375 34.234375 38.66796875 C31.949933905475376 36.96262548538109 30.50625253026547 35.41098213448337 29 33 C29 32.34 29 31.68 29 31 C28.340000000000003 31 27.680000000000007 31 27 31 C26.463750000000005 30.29875 25.927499999999995 29.5975 25.375 28.875 C20.243558628069536 22.66325518134734 13.475994820385978 19.000098833827337 6.41796875 15.296875 C1.1573847950732699 12.475366319813126 1.1573847950732699 12.475366319813126 0.234375 9.6875 C0.07453125000000682 8.800625 -0.08531250000000057 7.91375 -0.25 7 C-0.4201562500000051 6.113125 -0.590312499999996 5.22625 -0.765625 4.3125 C-1 2 -1 2 0 0 Z " fill="#A2D1CE" transform="translate(79,0)"/>
<path d="M0 0 C10.23 0 20.46 0 31 0 C30.67 7.92 30.34 15.84 30 24 C29.01 24 28.02 24 27 24 C26.34 25.32 25.68 26.64 25 28 C24.34 28 23.68 28 23 28 C23 28.66 23 29.32 23 30 C22.34 30 21.68 30 21 30 C20.7525 30.53625 20.505 31.0725 20.25 31.625 C18.69347463412947 34.58239819515401 16.965643268010925 37.297240506484975 15 40 C14.34 40 13.68 40 13 40 C12.67 40.99 12.34 41.98 12 43 C10.039062499999993 44.82421875000001 10.039062499999993 44.82421875000001 7.625 46.6875 C6.833515625 47.3101171875 6.04203125 47.932734375 5.2265625 48.57421875 C2.9999999999999982 50 2.9999999999999982 50 0 50 C0 33.5 0 17 0 0 Z " fill="#A2CAC0" transform="translate(0,0)"/>
<path d="M0 0 C6.8176953264359605 1.1362825544059945 6.8176953264359605 1.1362825544059945 9.4375 4.625 C20.199746679689603 19.792148528677615 24 36.5656532532237 24 55 C16.08 55 8.16 55 0 55 C0 36.849999999999994 0 18.69999999999999 0 0 Z " fill="#B7EAE8" transform="translate(0,73)"/>
<path d="M0 0 C6.250075856271316 3.847449293341043 9.54847841908439 8.11882937326925 13.27734375 14.37890625 C15.66919298579144 18.018205200603305 18.523233710330715 20.44036630472789 22 23 C25.189921355850387 25.52226339764914 28.273368114726154 27.970409016362396 31 31 C31 31.659999999999997 31 32.31999999999999 31 33 C31.989999999999995 33.33 32.98 33.66 34 34 C38.77272727272727 38.31818181818181 38.77272727272727 38.31818181818181 40 42 C41.650000000000006 42.33 43.3 42.66 45 43 C45 43.66 45 44.31999999999999 45 45 C46.093125 45.144375 47.18625 45.28874999999999 48.3125 45.4375 C51.99999999999997 46 51.99999999999997 46 55 47 C54.67 49.31 54.34 51.620000000000005 54 54 C43.11 54 32.22 54 21 54 C20.340000000000003 51.36 19.68 48.72 19 46 C18.06496309745595 43.942622970161096 18.06496309745595 43.942622970161096 16.8984375 42.3515625 C16.494235839843753 41.747958984375 16.0900341796875 41.14435546875001 15.673583984375 40.5224609375 C15.245051269531253 39.896298828125 14.816518554687498 39.270136718749995 14.375 38.625 C6.752411920343079 26.90480059841454 -0.45101451543241566 14.376087679408258 0 0 Z " fill="#51828D" transform="translate(25,74)"/>
<path d="M0 0 C0.9900000000000091 0.3299999999999983 1.9799999999999898 0.6599999999999966 3 1 C5.728334057587546 6.887457703215233 5.654696345031226 12.621765928466075 3.96875 18.74609375 C0.7565770444597604 26.81924120474875 -2.466827902763768 33.0411727025208 -9 39 C-9.724453124999997 39.703828125 -10.448906249999993 40.40765625 -11.1953125 41.1328125 C-16.508324395049982 45.8534328248702 -16.508324395049982 45.8534328248702 -20.46484375 46.2421875 C-23.847756289212498 45.902251393952724 -26.777511936365926 45.07416268787803 -30 44 C-30 43.34 -30 42.68000000000001 -30 42 C-30.721874999999997 41.938125 -31.443749999999994 41.87625 -32.1875 41.8125 C-37.880407168156815 40.16788237364358 -41.36944333159988 34.46039819260585 -45 30 C-44.34 29.67 -43.68 29.340000000000003 -43 29 C-41.453125 29.525937499999998 -41.453125 29.525937499999998 -39.875 30.0625 C-35.035196004527435 31.233420321485298 -32.68117790083298 30.47826670552621 -28 29 C-28 28.010000000000005 -28 27.019999999999996 -28 26 C-27.340000000000003 26 -26.680000000000007 26 -26 26 C-25.340000000000003 21.710000000000008 -24.680000000000007 17.42 -24 13 C-20.700000000000003 13 -17.400000000000006 13 -14 13 C-14 13.659999999999997 -14 14.319999999999993 -14 15 C-12.607812499999994 14.2884375 -12.607812499999994 14.2884375 -11.1875 13.5625 C-8 12 -8 12 -5 11 C-3.898310162629258 9.30230765531698 -3.898310162629258 9.30230765531698 -3 7 C-2.7396093750000006 6.3992968750000045 -2.479218750000001 5.798593749999995 -2.2109375 5.1796875 C-1.464715255677362 3.457099702358022 -0.7314608879419922 1.728907553317427 0 0 Z " fill="#326F8D" transform="translate(100,75)"/>
<path d="M0 0 C2.4375 1.375 2.4375 1.375 3.703125 2.76171875 C6.0834985310490595 4.975895030007351 8.705338961167698 6.149760787661791 11.625 7.5625 C12.711679687499995 8.092304687500004 13.798359375000004 8.622109375 14.91796875 9.16796875 C15.749414062499994 9.566289062499997 16.580859375000003 9.964609375000002 17.4375 10.375 C17.4375 11.034999999999997 17.4375 11.695 17.4375 12.375 C18.674999999999997 12.591562500000002 18.674999999999997 12.591562500000002 19.9375 12.8125 C25.60000056381972 15.340402037419523 29.90299195674021 20.208798404073953 32.609375 25.79296875 C35.17351820652553 33.78777374770458 36.55748720767633 44.538382478295304 33.1328125 52.3515625 C31.685518813335307 54.532890305260196 30.267550714742995 56.50439414476409 28.4375 58.375 C28.1075 58.375 27.777500000000003 58.375 27.4375 58.375 C27.26621582031251 57.70444580078126 27.094931640624992 57.0338916015625 26.91845703125 56.343017578125 C26.13659730507476 53.29028032855828 25.349601156629205 50.23888983279275 24.5625 47.1875 C24.293085937499995 46.13240234375 24.02367187499999 45.0773046875 23.74609375 43.990234375 C23.349707031250006 42.457861328125006 23.349707031250006 42.457861328125006 22.9453125 40.89453125 C22.704418945312497 39.95714111328125 22.463525390624994 39.019750976562506 22.21533203125 38.053955078125 C21.441663040085558 35.38933805362802 20.616788931022725 32.88796252538074 19.4375 30.375 C17.190062436162407 29.224794751220706 17.190062436162407 29.224794751220706 14.4375 28.375 C12.701507542446578 27.378411737330445 10.966104873297922 26.380614463856062 9.2421875 25.36328125 C7.248548356920082 24.219353776900583 7.248548356920082 24.219353776900583 4.1875 23.125 C-2.0994827441337662 20.547193863453124 -8.795451021693424 16.025573467459864 -12.5625 10.375 C-11.902500000000003 9.055 -11.242500000000007 7.734999999999999 -10.5625 6.375 C-9.902500000000003 6.375 -9.242500000000007 6.375 -8.5625 6.375 C-8.314999999999998 5.776875000000004 -8.067499999999995 5.178750000000001 -7.8125 4.5625 C-5.806302765088688 1.0516548389052147 -4.178340286589574 -1.0191073869730651 0 0 Z " fill="#528198" transform="translate(77.5625,28.625)"/>
<path d="M0 0 C4.272757417814706 0.5671114390917751 7.050171563545275 2.0690530606959783 10.625 4.4375 C11.566015624999999 5.054960937499999 12.50703125 5.672421874999998 13.4765625 6.30859375 C14.309296875000001 6.866757812499998 15.142031250000002 7.4249218749999955 16 8 C16.99 8.659999999999997 17.98 9.319999999999993 19 10 C20.008056640624996 11.809082031249986 20.008056640624996 11.809082031249986 20.91015625 14.0078125 C21.25570556640625 14.822338867187497 21.6012548828125 15.636865234374994 21.957275390625 16.47607421875 C22.32199951171875 17.3502197265625 22.6867236328125 18.224365234375 23.0625 19.125 C26.374490632805994 26.843002966551467 30.09988693805414 33.900612981251285 34.900634765625 40.79736328125 C37.83871086500729 45.15045794330439 38 46.353750480363644 38 52 C30.739999999999995 52 23.479999999999997 52 16 52 C15.587499999999999 48.638125 15.175 45.276250000000005 14.75 41.8125 C12.868638638699341 27.679497967586116 9.056461767853133 16.357498317595017 2 4 C1.32198442215633 2.6724017556415873 0.6498844869036535 1.3415932229644767 0 0 Z " fill="#84B9B9" transform="translate(8,76)"/>
<path d="M0 0 C6.29940383913339 3.1548400956181943 12.817293745529781 7.193691406468961 18 12 C18 12.66 18 13.32 18 14 C18.99000000000001 14.329999999999998 19.97999999999999 14.66 21 15 C21 15.66 21 16.32 21 17 C21.659999999999997 17 22.319999999999993 17 23 17 C25.203125 19.507812500000014 25.203125 19.507812500000014 27 23 C26.799964428430243 25.912282586089148 26.482667737939153 28.115463118419 25.75 30.875 C25.5888671875 31.563359374999997 25.427734375 32.25171875 25.26171875 32.9609375 C24.863823466365062 34.646141054218546 24.43499507347198 36.32398956985797 24 38 C23.227851562500007 37.2201171875 22.455703125 36.440234375 21.66015625 35.63671875 C18.086906299723026 32.09495117813956 14.623181678085473 29.054747412482435 10 27 C10 26.340000000000003 10 25.68 10 25 C9.428945312500005 24.881406249999998 8.857890624999996 24.762812499999995 8.26953125 24.640625 C0.7020357701465514 22.504533332709187 -7.72161550692303 17.098994348241813 -12.5625 10.875 C-15.160534564769065 7.8106515389903315 -17.329254019790028 6.536591340553009 -21 5 C-21 4.34 -21 3.6799999999999997 -21 3 C-20.324531250000007 2.8788281249999983 -19.6490625 2.75765625 -18.953125 2.6328125 C-17.615078124999997 2.3814453124999986 -17.615078124999997 2.3814453124999986 -16.25 2.125 C-15.368281249999995 1.9625781250000003 -14.486562500000005 1.8001562500000006 -13.578125 1.6328125 C-11.009189677957181 1.10363789339997 -11.009189677957181 1.10363789339997 -8.8671875 -0.0703125 C-5.792993783514163 -1.600977990635208 -3.1332738304239456 -1.0205520476237968 0 0 Z " fill="#74A6AD" transform="translate(85,14)"/>
<path d="M0 0 C0 13.200000000000003 0 26.400000000000006 0 40 C-8.909999999999997 40 -17.819999999999993 40 -27 40 C-26.181638666435987 35.08983199861595 -25.6052846399388 32.74675620827904 -23.3828125 28.59375 C-22.858164062499995 27.6024609375 -22.333515625000004 26.611171874999997 -21.79296875 25.58984375 C-20.967324218749994 24.060371093750007 -20.967324218749994 24.060371093750007 -20.125 22.5 C-19.043975789508465 20.46890700594109 -17.96323811067171 18.43766147825562 -16.8828125 16.40625 C-16.373955078124993 15.461528320312496 -15.86509765625 14.516806640624992 -15.3408203125 13.54345703125 C-14.288383142083262 11.547045807396856 -13.312643699179091 9.510179883866641 -12.3671875 7.4609375 C-10.863033296670622 4.753459934007125 -9.65683707558965 3.6647578506258185 -7 2.125 C-6.319375000000008 1.7150781250000051 -5.638750000000002 1.305156249999996 -4.9375 0.8828125 C-3 0 -3 0 0 0 Z " fill="#B0D8DE" transform="translate(128,88)"/>
<path d="M0 0 C0.6599999999999966 0 1.3199999999999932 0 2 0 C2.5410531271603247 1.8065672211963602 3.0567115545623267 3.620744193741814 3.5625 5.4375 C3.8525390625 6.446835937499998 4.142578125 7.4561718749999955 4.44140625 8.49609375 C5.955162543227118 17.991474134788348 2.6380483120903193 24.487649772874136 -1.9375 32.6875 C-3.0339064094958417 34.68924316400353 -4.126482534557226 36.69308999686916 -5.21484375 38.69921875 C-5.7007397460937455 39.57408935546874 -6.186635742187505 40.4489599609375 -6.687255859375 41.350341796875 C-8.312106219367095 44.476979508472425 -8.312106219367095 44.476979508472425 -10 50 C-17.260000000000005 50 -24.519999999999996 50 -32 50 C-31 43 -31 43 -28.234375 40.33984375 C-27.08737529541267 39.51848649027826 -25.925203850069707 38.71796907767211 -24.75 37.9375 C-16.939483585122943 32.55789712098917 -12.681191201542376 27.158769616685404 -9.5625 18.1875 C-4.712682553851565 4.989899174666363 -4.712682553851565 4.989899174666363 0 0 Z " fill="#6CA2B7" transform="translate(111,78)"/>
</svg>
