<?xml version="1.0" encoding="UTF-8"?>
<!-- Generator: visioncortex VTracer 0.6.0 -->
<svg version="1.1" xmlns="http://www.w3.org/2000/svg" width="128" height="128">
<path d="M0 0 C42.24 0 84.48 0 128 0 C128 42.24 128 84.48 128 128 C85.75999999999999 128 43.519999999999996 128 0 128 C0 85.75999999999999 0 43.519999999999996 0 0 Z " fill="#A57B87" transform="translate(0,0)"/>
<path d="M0 0 C0.8565820312499994 -0.0012890624999997158 1.7131640624999989 -0.0025781249999994316 2.595703125 -0.00390625 C3.9347167968750014 0.001894531249998721 3.9347167968750014 0.001894531249998721 5.30078125 0.0078125 C6.610791015624997 0.002011718750001279 6.610791015624997 0.002011718750001279 7.947265625 -0.00390625 C23.19404689827354 0.018867135023558745 23.19404689827354 0.018867135023558745 29.11328125 5.0703125 C29.96921875000001 5.7805859375 30.825156249999992 6.490859374999999 31.70703125 7.22265625 C33.61328125 9.1328125 33.61328125 9.1328125 33.61328125 11.1328125 C36.51409705292721 12.331590180741852 39.42039329447029 13.409918186415858 42.390625 14.4296875 C43.069316406249996 14.666874999999997 43.748007812500006 14.904062500000002 44.447265625 15.1484375 C45.8413231348722 15.63512795841406 47.23982699039665 16.109277579943623 48.642578125 16.5703125 C53.92052994158911 18.451364521836496 56.883103217499794 20.95314509582137 60.61328125 25.1328125 C59.80078125 28.070312500000014 59.80078125 28.070312500000014 58.61328125 31.1328125 C57.12828125 31.627812499999997 57.12828125 31.627812499999997 55.61328125 32.1328125 C55.510156249999994 33.1846875 55.40703125 34.2365625 55.30078125 35.3203125 C54.42481415720816 40.177948196391085 53.44709687497901 42.719596789007 49.484375 45.7734375 C43.13883615654207 50.1328125 43.13883615654207 50.1328125 40.61328125 50.1328125 C40.61328125 50.7928125 40.61328125 51.45281249999999 40.61328125 52.1328125 C39.95328125 52.1328125 39.29328125000001 52.1328125 38.61328125 52.1328125 C38.09486216407966 59.71046993978405 38.09486216407966 59.71046993978405 40.11328125 66.8828125 C41.87916114596044 70.70888560791428 42.13483743141181 72.96036304870552 41.61328125 77.1328125 C38.55592282387025 84.70974425171286 32.90088346863412 88.12584975936275 25.67578125 91.5078125 C19.8263552842468 92.70157290117412 14.71715424816054 93.0508661719246 9.17578125 90.6328125 C4.239879991279992 85.81729907685852 3.6246673111013052 80.44190541362207 2.80078125 73.8828125 C2.1536346692858075 69.09032819604101 2.1536346692858075 69.09032819604101 -1.26171875 65.6953125 C-2.29296875 65.1796875 -3.32421875 64.6640625 -4.38671875 64.1328125 C-8.38671875 59.711759868421055 -8.38671875 59.711759868421055 -8.38671875 57.1328125 C-9.046718749999997 57.1328125 -9.70671875 57.1328125 -10.38671875 57.1328125 C-17.260697536433284 50.01072832212432 -21.666081788420804 43.354814934374104 -21.52490234375 33.34033203125 C-21.28602557417021 29.52421233064849 -20.540326449813715 25.856758567845972 -19.69921875 22.1328125 C-19.52060302734375 21.341166992187496 -19.3419873046875 20.549521484375 -19.157958984375 19.73388671875 C-17.230338166731013 11.730159885885278 -14.464566720673009 5.78929142807435 -7.38671875 1.1328125 C-4.593135054567966 0.20161793485598878 -2.887453925251073 0.004222746782986064 0 0 Z " fill="#5E3B42" transform="translate(44.38671875,18.8671875)"/>
<path d="M0 0 C18.48 0 36.96 0 56 0 C54.70220729114422 5.191170835423129 52.27402859800634 7.108939053120522 48 10 C45.502060939497696 11.484890011377566 42.95545821703504 12.851878215631238 40.375 14.1875 C39.74907958984375 14.520400390625 39.1231591796875 14.85330078125 38.478271484375 15.1962890625 C32.279525635717455 18.277469089683343 25.75068105778366 19.61715123706194 19 21 C18.91435791015625 21.79172607421875 18.8287158203125 22.5834521484375 18.740478515625 23.399169921875 C18.350136416277287 26.995535854082668 17.956354469331323 30.59151710094238 17.5625 34.1875 C17.42779296875 35.43337890625 17.2930859375 36.6792578125 17.154296875 37.962890625 C17.02216796875 39.16494140625 16.8900390625 40.3669921875 16.75390625 41.60546875 C16.63345947265625 42.71043701171875 16.5130126953125 43.8154052734375 16.388916015625 44.953857421875 C16.041531386813944 47.67470991005802 15.546184801907417 50.31411628206071 15 53 C14.36443326900211 61.53326479815201 14.2582136636952 69.59592580448496 19 77 C22.36980971491136 80.72113030221063 26.228382937063692 83.55210809941914 30.4375 86.25 C33.00000000000001 88 33.00000000000001 88 34 91 C34.54672048019275 98.18365282113727 33.674388001549836 105.08318524114223 32.4375 112.15234375 C31.84046262910656 117.40307419937531 32 122.71543531837858 32 128 C21.439999999999998 128 10.879999999999999 128 0 128 C0 85.75999999999999 0 43.519999999999996 0 0 Z " fill="#E0B49C" transform="translate(0,0)"/>
<path d="M0 0 C13.200000000000003 0 26.400000000000006 0 40 0 C40 42.24 40 84.48 40 128 C19.870000000000005 128 -0.2600000000000051 128 -21 128 C-18.07256242070804 120.6814060517701 -13.523028008421164 117.61536218726735 -6.421875 114.359375 C-2.6494099668799294 112.81057227173335 1.1709967960365475 111.40234193775731 5 110 C6.9406780311974074 109.25826215599598 8.87870604969713 108.50950458048128 10.8125 107.75 C11.582070312500008 107.45609375 12.351640625000002 107.1621875 13.14453125 106.859375 C15.186767835273798 106.04286756035509 15.186767835273798 106.04286756035509 17 104 C17.68767936794613 99.87392379232318 18.06741635406493 96.1053473051896 17.8125 91.92578125 C17.281907473970534 82.4082778143466 19.664072628404057 75.51239996371909 23.37109375 66.93359375 C28.996627046777448 53.73273337109113 24.99626651367919 38.8109397786646 20 26 C18.705713318303538 22.864022233595648 17.52687389203217 20.3022628794071 15 18 C12.61606712163423 16.981079534343017 12.61606712163423 16.981079534343017 10 16.1875 C6.583220541624883 15.065572416652945 5.296263073277345 14.4345191741401 3.2421875 11.421875 C1.4610166897176953 7.5338335741266445 0 4.309494716857484 0 0 Z " fill="#C4AE97" transform="translate(88,0)"/>
<path d="M0 0 C10.560000000000002 0 21.120000000000005 0 32 0 C37 11.999999999999998 37 11.999999999999998 37 14 C37.86625000000001 14.0825 38.7325 14.165 39.625 14.25 C43.54694222919768 15.121542717599485 46.25633503882631 16.079095700249198 49 19 C56.73554076529864 31.27146612889225 61.128399950009324 47.09493958197467 58.3046875 61.5625 C57.341678379623616 64.77758556724085 56.2027030721753 67.86804626597353 55 71 C54.756367187500004 71.9526171875 54.512734374999994 72.905234375 54.26171875 73.88671875 C53.46522506013734 76.68465812208164 52.750422435488204 78.67062647473792 51 81 C48.085062082150614 82.44654340450997 45.27943092427344 83.25843971503205 42.12890625 84.0625 C37.45680822926042 85.4623795567759 33.85430833991401 88.08006943945908 30 91 C26.799403142076898 84.95601575490413 25.112370958394877 79.88276289638075 26 73 C26.33 72.34 26.659999999999997 71.68 27 71 C27.659999999999997 71 28.319999999999993 71 29 71 C29 70.34 29 69.68 29 69 C30.898437500000057 67.49218749999997 30.898437500000057 67.49218749999997 33.375 65.875 C34.187109375000006 65.336171875 34.99921875 64.79734375 35.8359375 64.2421875 C38 63 38 63 40 63 C41.21628195070407 60.13304968762612 42.1553950920632 57.39913897735563 42.9375 54.375 C43.974825241446595 51.0799668801108 44.57872472434097 50.210729599514764 47 48 C47.37461812398364 46.67767244977961 47.71259063567469 45.343980932225975 48 44 C42.343633723781295 38.06081540997037 36.12531531343501 35.91255456584067 28.546875 33.296875 C25 32 25 32 22 30 C22 29.34 22 28.68 22 28 C21.463750000000005 27.773125 20.92750000000001 27.54625 20.375 27.3125 C17.83549554019355 25.909089640633276 15.9832728897143 24.181816156125663 13.953125 22.12109375 C7.290127698626236 18.296533299011458 -2.906761091383167 19.967660219188286 -10.306640625 20.126953125 C-11.726865234374998 20.143388671875 -11.726865234374998 20.143388671875 -13.17578125 20.16015625 C-14.458358154296874 20.185413818359375 -14.458358154296874 20.185413818359375 -15.766845703125 20.211181640625 C-18 20 -18 20 -21 18 C-21 17.34 -21 16.68 -21 16 C-19.337109374999997 15.095078125 -19.337109374999997 15.095078125 -17.640625 14.171875 C-16.176885670841003 13.364941780079013 -14.713354915871967 12.557630135230376 -13.25 11.75 C-12.520390624999997 11.3542578125 -11.790781250000002 10.958515625 -11.0390625 10.55078125 C-3.991603857482353 6.706552842384827 -3.991603857482353 6.706552842384827 0 0 Z " fill="#948875" transform="translate(56,0)"/>
<path d="M0 0 C9.749999999999998 0 9.749999999999998 0 14 1 C14.99 1 15.98 1 17 1 C20.526853700585136 2.4092658092296233 23.20857172455106 4.664064209294978 26.125 7.0625 C29.385510227115198 9.804487472506452 29.385510227115198 9.804487472506452 33 12 C35.57346110343096 19.720383310292874 33.80747346165906 28.322564868434682 32.4375 36.15234375 C31.84046262910656 41.40307419937531 32 46.71543531837858 32 52 C21.439999999999998 52 10.879999999999999 52 0 52 C0 34.84 0 17.680000000000007 0 0 Z " fill="#C5A5A4" transform="translate(0,76)"/>
<path d="M0 0 C0.7631250000000023 0.7837499999999977 1.5262500000000045 1.5674999999999955 2.3125 2.375 C4.908918049088243 5.072577174605144 4.908918049088243 5.072577174605144 8 7 C8 7.659999999999997 8 8.319999999999993 8 9 C9.416017136626962 9.481082745136078 10.832844367884945 9.959781407883796 12.25 10.4375 C13.038906249999997 10.704335937500005 13.827812499999993 10.971171874999996 14.640625 11.24609375 C16.73522549832964 11.91539490261195 18.866719669177684 12.466679917294414 21 13 C21 23.230000000000004 21 33.46000000000001 21 44 C0.8700000000000045 44 -19.260000000000005 44 -40 44 C-37.072562420708024 36.68140605177007 -32.523028008421164 33.61536218726735 -25.421875 30.359375 C-21.649409966879915 28.81057227173335 -17.829003203963453 27.402341937757313 -14 26 C-12.059321968802593 25.25826215599598 -10.12129395030287 24.509504580481263 -8.1875 23.75 C-7.033144531250002 23.309140624999998 -7.033144531250002 23.309140624999998 -5.85546875 22.859375 C-3.813232164726216 22.04286756035512 -3.813232164726216 22.04286756035512 -2 20 C-0.7330672478585427 14.454181160437358 -0.9229244326164405 8.621560479034216 -1.0625 2.96875 C-1 1 -1 1 0 0 Z " fill="#C79299" transform="translate(107,84)"/>
<path d="M0 0 C3 1.0625 3 1.0625 5 2 C5 2.6599999999999966 5 3.3200000000000003 5 4 C5.868304443359378 4.184658203124997 5.868304443359378 4.184658203124997 6.754150390625 4.373046875 C9.051514263817872 5.01438076198329 10.851090751422234 5.877159150696549 12.93359375 7.03125 C13.665136718749999 7.429570312499997 14.396679687499997 7.827890625000002 15.150390625 8.23828125 C16.672136283016386 9.077775438794696 18.1929750154504 9.9189157596403 19.712890625 10.76171875 C26.80394137216311 14.615957414684956 32.32969601810251 15.144407223176529 40.3125 15.0625 C41.14845703124999 15.057988281250005 41.98441406250001 15.053476562499995 42.845703125 15.048828125 C44.89716648961408 15.037105477202203 46.94859272935162 15.019172030566807 49 15 C49 15.989999999999995 49 16.980000000000004 49 18 C9.54244972647939 39.45854926012554 9.54244972647939 39.45854926012554 -3 36 C-8.83041934006937 32.26632452355179 -14.602529619723562 26.753238069756044 -16.59375 19.98046875 C-17.7507357737763 13.628171857439725 -16.12758037183565 8.557929450586926 -13 3 C-9.020889744951141 -1.7528261379750276 -5.597279653571306 -1.433174427426522 0 0 Z " fill="#4C2514" transform="translate(50,36)"/>
<path d="M0 0 C0.8585156249999955 0.7244531250000001 1.717031249999991 1.4489062500000003 2.6015625 2.1953125 C3.475546874999992 2.9146093750000013 4.349531249999998 3.633906249999999 5.25 4.375 C6.2283984375000045 5.337929687500001 6.2283984375000045 5.337929687500001 7.2265625 6.3203125 C7.2265625 6.9803125 7.2265625 7.6403125 7.2265625 8.3203125 C10.127378302927198 9.519090180741845 13.033674544470287 10.597418186415858 16.00390625 11.6171875 C16.68259765625001 11.854374999999997 17.361289062499992 12.091562500000002 18.060546875 12.3359375 C19.454604384872198 12.82262795841406 20.853108240396665 13.296777579943623 22.255859375 13.7578125 C27.53381119158911 15.638864521836496 30.496384467499794 18.14064509582137 34.2265625 22.3203125 C32.771054910527766 27.899758259643512 32.771054910527766 27.899758259643512 30.69921875 29.5 C26.952608207832327 30.742951364700176 23.334492927290626 30.608529530972774 19.4140625 30.5703125 C18.241337890625005 30.581914062499997 18.241337890625005 30.581914062499997 17.044921875 30.59375 C8.88905594684968 30.566495644350375 2.577411017273974 28.24076495361779 -4.4609375 24.3203125 C-5.756323545483255 23.61163747809043 -7.051891166240736 22.903294237915354 -8.34765625 22.1953125 C-9.4781640625 21.5765625 -10.608671874999999 20.957812500000003 -11.7734375 20.3203125 C-13.102091319477736 19.644367790567763 -14.432720525379438 18.97200277627126 -15.7734375 18.3203125 C-15.7734375 17.660312500000003 -15.7734375 17.0003125 -15.7734375 16.3203125 C-22.17744918823174 14.469808444281583 -22.17744918823174 14.469808444281583 -28.7734375 14.3203125 C-29.763437500000002 14.980312499999997 -30.753437499999997 15.6403125 -31.7734375 16.3203125 C-31.4434375 14.670312500000001 -31.113437500000003 13.020312500000003 -30.7734375 11.3203125 C-30.113437500000003 11.3203125 -29.4534375 11.3203125 -28.7734375 11.3203125 C-28.527226562499997 10.723476562499997 -28.281015625000002 10.126640625 -28.02734375 9.51171875 C-24.6733641228008 3.6500908033995287 -17.171925563350825 0.784223842792926 -11.01171875 -1.234375 C-6.67738743625128 -2.096702695929064 -3.8681793840180205 -2.3427001903207696 0 0 Z " fill="#6D421D" transform="translate(70.7734375,21.6796875)"/>
<path d="M0 0 C18.48 0 36.96 0 56 0 C54.70220729114422 5.191170835423129 52.27402859800634 7.108939053120522 48 10 C38.74371977995665 15.502359228287268 29.663493816348563 19.247096906901607 19 21 C19 21.66 19 22.32 19 23 C17.95392578125 22.53787109375 17.95392578125 22.53787109375 16.88671875 22.06640625 C13.841482287196325 20.941440682550198 11.02017727682717 20.411678380052713 7.8125 19.9375 C2.200351493848861 19.10017574692443 2.200351493848861 19.10017574692443 0 18 C0 12.059999999999999 0 6.119999999999999 0 0 Z " fill="#B7A398" transform="translate(0,0)"/>
<path d="M0 0 C0 19.14 0 38.28 0 58 C-0.9900000000000091 58.495000000000005 -0.9900000000000091 58.495000000000005 -2 59 C-4.09375 58.2578125 -4.09375 58.2578125 -6.5 57.125 C-7.2940624999999955 56.75632812500001 -8.088125000000005 56.38765624999999 -8.90625 56.0078125 C-10.275731243632293 55.34862190138594 -11.640585089985606 54.67970745500719 -13 54 C-13 53.34 -13 52.68000000000001 -13 52 C-13.5775 51.77312499999999 -14.155000000000001 51.54625 -14.75 51.3125 C-18.560837743734368 49.089511316154955 -20.619296640389706 46.14211007883087 -22 42 C-21.48681640625 40.08642578125 -21.48681640625 40.08642578125 -20.6015625 37.9453125 C-20.129765625000005 36.775488281250006 -20.129765625000005 36.775488281250006 -19.6484375 35.58203125 C-19.141835937500005 34.36580078125 -19.141835937500005 34.36580078125 -18.625 33.125 C-15.49717784878419 25.51315156168964 -13.834074203642786 19.50134286102203 -13.9375 11.1875 C-13.942011718749995 10.49462890625 -13.946523437500005 9.8017578125 -13.951171875 9.087890625 C-13.962868435740603 7.391889317612026 -13.980800758848204 5.695932968408265 -14 4 C-9.172404287669735 1.5162852404149163 -5.455340496307656 0 0 0 Z " fill="#CDAA9D" transform="translate(128,39)"/>
<path d="M0 0 C0.9236132812499989 -0.012246093750000853 1.8472265624999977 -0.024492187500001705 2.798828125 -0.037109375 C3.681191406250001 -0.039042968749999574 4.563554687500002 -0.04097656249999915 5.47265625 -0.04296875 C6.280979003906253 -0.047077636718750426 7.0893017578125 -0.05118652343750085 7.922119140625 -0.055419921875 C9.9375 0.1875 9.9375 0.1875 11.9375 2.1875 C11.11958984375 2.407929687500001 11.11958984375 2.407929687500001 10.28515625 2.6328125 C3.1512608570199774 4.754689078424828 -3.8331370301737167 7.843455545260575 -8.0625 14.1875 C-8.722499999999997 14.1875 -9.3825 14.1875 -10.0625 14.1875 C-10.186250000000001 15.208437500000002 -10.186250000000001 15.208437500000002 -10.3125 16.25 C-11.0625 19.1875 -11.0625 19.1875 -13.0625 22.4375 C-15.496365542156347 26.538518862241467 -16.273754235971857 30.43005460591381 -16.0625 35.1875 C-14.060754811901703 41.74877589432221 -10.536761912817468 46.60023764083408 -4.75 50.3125 C-1.0462725448016599 54.2746270450959 -1.4991893167674135 57.19686800197786 -1.65625 62.4453125 C-2.0625 65.1875 -2.0625 65.1875 -4.0625 68.1875 C-8.224546055296805 65.6335171933406 -11.291819258364079 63.236956468544804 -14.0625 59.1875 C-14.0625 58.5275 -14.0625 57.86750000000001 -14.0625 57.1875 C-14.722499999999997 57.1875 -15.3825 57.1875 -16.0625 57.1875 C-22.936478786433284 50.06541582212432 -27.341863038420804 43.409502434374104 -27.20068359375 33.39501953125 C-26.96180682417021 29.57889983064849 -26.216107699813715 25.911446067845972 -25.375 22.1875 C-25.19638427734375 21.395854492187496 -25.0177685546875 20.604208984375 -24.833740234375 19.78857421875 C-22.906119416731013 11.784847385885278 -20.14034797067301 5.84397892807435 -13.0625 1.1875 C-8.727496166799732 -0.2575012777334251 -4.540309133210869 0.0031817162811584865 0 0 Z " fill="#7E5342" transform="translate(50.0625,18.8125)"/>
<path d="M0 0 C0.6599999999999966 0.6600000000000001 1.3200000000000003 1.3200000000000003 2 2 C1.5410937500000017 2.317109375000001 1.0821875000000034 2.6342187499999987 0.609375 2.9609375 C-8.618131797657664 9.978495190655618 -10.19486403811845 21.064538665703076 -12 32 C-12.700150925568892 37.790437384434604 -11.849978779182067 42.90934824959893 -9 48 C-7.234044146847921 50.22118002863128 -5.392916076382416 52.29142055829405 -3.42578125 54.3359375 C-2 56 -2 56 -2 58 C-1.3400000000000034 58 -0.6799999999999997 58 0 58 C1.2890625000000142 59.531250000000014 1.2890625000000142 59.531250000000014 2.625 61.5 C3.071015625000001 62.1496875 3.5170312500000023 62.799375 3.9765625 63.46875 C4.483164062500002 64.22671875 4.483164062500002 64.22671875 5 65 C1.7255257292556792 67.90024863980211 -0.5688945300569515 69.75746907930785 -5 70 C-7.535156249999993 68.5234375 -7.535156249999993 68.5234375 -10.0625 66.375 C-11.31740234375 65.3347265625 -11.31740234375 65.3347265625 -12.59765625 64.2734375 C-18.246688036132618 58.927524492635484 -21.635170821852476 53.60807315783259 -22.25390625 45.79296875 C-22.363770550503958 39.14984071286084 -21.826865316573873 32.87712216047616 -20.56640625 26.36328125 C-20.114284554970887 23.67861380572368 -19.784573120028853 21.061565413467036 -19.52734375 18.35546875 C-19.4491943359375 17.543681640624996 -19.371044921875 16.73189453125 -19.29052734375 15.8955078125 C-19.140892452658456 14.282526995037841 -19.001544873589886 12.668551867870367 -18.87353515625 11.0537109375 C-18.337062535602392 5.409085972425174 -18.337062535602392 5.409085972425174 -16.61865234375 3.323486328125 C-14.411582951629018 1.5188825310378427 -12.30746073013519 0.9800031249748926 -9.5625 0.25 C-8.6150390625 -0.012968749999998863 -7.667578124999999 -0.2759375000000013 -6.69140625 -0.546875 C-3.9833753151814477 -1.0027989309709042 -2.5302985149430057 -1.0009972147027284 0 0 Z " fill="#B18270" transform="translate(36,18)"/>
<path d="M0 0 C4.054456418518811 -0.4313251509062539 5.54970958443306 -0.3001936103779599 9 2 C12.276112796441822 10.041367773084488 8.581285255018031 18.328856495650655 6 26 C5.757656249999997 26.96421875 5.515312499999993 27.9284375 5.265625 28.921875 C4.460905793311127 31.697335121028985 3.7393512870829113 33.68535939832637 2 36 C-0.9149379178493433 37.44654340450995 -3.720569075726587 38.25843971503207 -6.87109375 39.0625 C-11.543191770739611 40.462379556775915 -15.145691660085987 43.08006943945908 -19 46 C-22.200596857923117 39.956015754904115 -23.887629041605123 34.882762896380754 -23 28 C-22.67 27.340000000000003 -22.340000000000003 26.680000000000007 -22 26 C-21.340000000000003 26 -20.680000000000007 26 -20 26 C-20 25.340000000000003 -20 24.680000000000007 -20 24 C-18.1015625 22.4921875 -18.1015625 22.4921875 -15.625 20.875 C-14.812890624999994 20.336171875000005 -14.000781250000003 19.797343749999996 -13.1640625 19.2421875 C-11 18 -11 18 -9 18 C-7.783718049295928 15.133049687626126 -6.844604907936798 12.399138977355634 -6.0625 9.375 C-5.041437077923689 6.13162365928703 -4.506395927322657 5.088663272768876 -2 3 C-1.3400000000000034 2.009999999999998 -0.6800000000000068 1.0200000000000031 0 0 Z " fill="#7C625D" transform="translate(105,45)"/>
<path d="M0 0 C6.8890880533358825 6.439799702031372 10.229202877962393 16.548994927633338 11.875 25.6875 C11.91659591588828 27.353647519747035 11.928639461786489 29.021696714519678 11.875 30.6875 C6.6758839164102 30.097785444222453 3.047409381573516 29.22254239340672 -0.6875 25.4375 C-5.516599093849663 20.735999052939043 -11.364195160217335 19.07548247532977 -17.61328125 16.94921875 C-21.125 15.6875 -21.125 15.6875 -24.125 13.6875 C-24.125 13.0275 -24.125 12.3675 -24.125 11.6875 C-24.661249999999995 11.460625 -25.197500000000005 11.23375 -25.75 11 C-28.910008630858414 9.253679440841406 -31.392698303853976 7.047215101217024 -34.125 4.6875 C-30.846201193791316 2.501634129194212 -28.098537426554756 1.6854130385345059 -24.3125 0.625 C-23.109804687500002 0.2833984375000007 -21.907109375000005 -0.05820312499999858 -20.66796875 -0.41015625 C-13.15745626409877 -2.3229769603011956 -7.226357616188395 -3.0350701987991275 0 0 Z " fill="#9E764C" transform="translate(102.125,16.3125)"/>
<path d="M0 0 C0.05429278360170997 2.7086066485745306 0.09381211030880365 5.416109009679005 0.125 8.125 C0.1417578125000034 8.885546875000003 0.15851562500000682 9.646093750000006 0.17578125 10.4296875 C0.21497371273122212 14.976013176822818 0.09933033494171184 18.861320196829183 -2 23 C-10.132827889807118 29.674943186597247 -21.67676131079915 33.745591270655495 -32.164794921875 32.79541015625 C-41.40574453636252 31.594255463637495 -41.40574453636252 31.594255463637495 -44 29 C-43.2149609375 28.7692578125 -42.429921875000005 28.538515625000002 -41.62109375 28.30078125 C-30.81262987055385 25.014000369485757 -30.81262987055385 25.014000369485757 -23.1875 17.0625 C-21.936836376944058 14.055347159921126 -21.936836376944058 14.055347159921126 -21.3125 11 C-18.996988743225884 5.707402841659174 -14.578530591051816 3.0374263019392203 -9.3203125 0.921875 C-2.503318584070797 -1.2516592920353986 -2.503318584070797 -1.2516592920353986 0 0 Z " fill="#9B6D75" transform="translate(107,82)"/>
</svg>
