<?xml version="1.0" encoding="UTF-8"?>
<!-- Generator: visioncortex VTracer 0.6.0 -->
<svg version="1.1" xmlns="http://www.w3.org/2000/svg" width="128" height="128">
<path d="M0 0 C42.24 0 84.48 0 128 0 C128 42.24 128 84.48 128 128 C85.75999999999999 128 43.519999999999996 128 0 128 C0 85.75999999999999 0 43.519999999999996 0 0 Z " fill="#66797F" transform="translate(0,0)"/>
<path d="M0 0 C4.726426298425778 3.032963718666757 8.609982574723489 5.92509887715093 10.8046875 11.2109375 C11.937192284045224 16.505167181512256 11.261492129002434 22.04361671763442 9.2421875 27.03515625 C7.430984891950402 31.618607747921438 7.728254027116407 36.7863245813492 9.28515625 41.45703125 C9.945156249999997 41.45703125 10.605156249999993 41.45703125 11.28515625 41.45703125 C20.984976992258055 52.209191035050196 21.173405893678733 64.47836875588277 20.5068359375 78.27978515625 C20.053824099964487 82.7290798337188 18.501116594200383 86.60877868797343 16.28515625 90.45703125 C15.625156250000003 90.45703125 14.965156250000007 90.45703125 14.28515625 90.45703125 C14.28515625 91.11703125 14.28515625 91.77703125 14.28515625 92.45703125 C12.71322903412262 93.15016451054436 11.126495324441791 93.80970688073555 9.53515625 94.45703125 C8.212578124999993 95.01390625 8.212578124999993 95.01390625 6.86328125 95.58203125 C-3.9622028228190658 98.22931119793829 -15.431794456412618 95.7606706384298 -26.2705078125 94.11328125 C-28.97115787789989 93.70607921041814 -31.674551345151876 93.32312844069517 -34.37890625 92.94140625 C-36.12131132129693 92.68244931737841 -37.86350739706819 92.42208137351054 -39.60546875 92.16015625 C-40.799493103027345 91.99425994873047 -40.799493103027345 91.99425994873047 -42.01763916015625 91.82501220703125 C-48.57917393190151 90.79254281360906 -54.119150631769756 88.66337040049571 -59.21484375 84.33203125 C-61.47058242822103 80.00853211674303 -61.438093013661856 76.234648982074 -60.71484375 71.45703125 C-59.80070105438308 68.84463208106027 -58.72310650258387 66.35090079845394 -57.61328125 63.81640625 C-55.53827209709354 58.36725177888913 -56.72080032047497 53.253505458219365 -57.71484375 47.70703125 C-59.80674744757871 35.64068818280687 -59.38318698525367 24.813208469187607 -52.65234375 14.20703125 C-48.60332661042658 9.971136396292422 -43.515672315586194 6.765442682405343 -38.71484375 3.45703125 C-37.9117578125 2.8833984374999986 -37.108671875 2.3097656250000007 -36.28125 1.71875 C-23.676525283157602 -7.084896552664619 -13.47828064730048 -7.660317777962145 0 0 Z " fill="#163A59" transform="translate(86.71484375,21.54296875)"/>
<path d="M0 0 C4.726426298425778 3.032963718666757 8.609982574723489 5.92509887715093 10.8046875 11.2109375 C11.937192284045224 16.505167181512256 11.261492129002434 22.04361671763442 9.2421875 27.03515625 C7.430984891950402 31.618607747921438 7.728254027116407 36.7863245813492 9.28515625 41.45703125 C9.945156249999997 41.45703125 10.605156249999993 41.45703125 11.28515625 41.45703125 C20.984976992258055 52.209191035050196 21.173405893678733 64.47836875588277 20.5068359375 78.27978515625 C20.053824099964487 82.7290798337188 18.501116594200383 86.60877868797343 16.28515625 90.45703125 C15.625156250000003 90.45703125 14.965156250000007 90.45703125 14.28515625 90.45703125 C14.28515625 91.11703125 14.28515625 91.77703125 14.28515625 92.45703125 C12.71322903412262 93.15016451054436 11.126495324441791 93.80970688073555 9.53515625 94.45703125 C8.212578124999993 95.01390625 8.212578124999993 95.01390625 6.86328125 95.58203125 C-3.9622028228190658 98.22931119793829 -15.431794456412618 95.7606706384298 -26.2705078125 94.11328125 C-28.97115787789989 93.70607921041814 -31.674551345151876 93.32312844069517 -34.37890625 92.94140625 C-36.12131132129693 92.68244931737841 -37.86350739706819 92.42208137351054 -39.60546875 92.16015625 C-40.799493103027345 91.99425994873047 -40.799493103027345 91.99425994873047 -42.01763916015625 91.82501220703125 C-48.57917393190151 90.79254281360906 -54.119150631769756 88.66337040049571 -59.21484375 84.33203125 C-61.47058242822103 80.00853211674303 -61.438093013661856 76.234648982074 -60.71484375 71.45703125 C-59.80103742431156 68.84559334512312 -58.72499178811288 66.35505259441155 -57.609375 63.82421875 C-56.258716297717626 60.249986550947085 -56.34360630752692 57.21143255501076 -56.71484375 53.45703125 C-56.793476562500004 52.55984375 -56.872109375 51.66265625 -56.953125 50.73828125 C-57.181854843807365 48.30759992476352 -57.4365157953261 45.882460569301145 -57.71484375 43.45703125 C-57.170859375 44.154414062499995 -56.626875 44.85179687499999 -56.06640625 45.5703125 C-53.51327064291557 48.70447730670331 -50.833027257995084 51.67763892651334 -48.08984375 54.64453125 C-47.6 55.17755859375001 -47.11015625 55.7105859375 -46.60546875 56.259765625 C-44.672541870348844 58.35905096560474 -42.732869473450585 60.43900552654941 -40.71484375 62.45703125 C-40.48904299627178 65.79221943211684 -40.39699046468211 69.08645519474656 -40.412109375 72.427734375 C-40.30039183999038 76.32343293452877 -39.89385151308255 78.22931600198858 -37.4609375 81.32421875 C-31.10014902487292 86.26446129255957 -24.34600352104234 88.17912250793137 -16.31640625 87.83984375 C-9.625431553173541 86.85528591172825 -4.980033328008588 83.15734890003598 -0.16015625 78.62890625 C1.28515625 77.45703125 1.28515625 77.45703125 3.28515625 77.45703125 C6.802853424048678 70.92416506962388 8.828671492392559 63.87238070121457 7.28515625 56.45703125 C3.7541924217763523 51.9943790693961 -0.4640476458457954 49.76979890770909 -5.46484375 47.33203125 C-7.955415352474347 46.11723267176863 -10.314738769500636 44.856116836193536 -12.71484375 43.45703125 C-13.044843749999998 42.46703124999999 -13.374843749999997 41.47703125 -13.71484375 40.45703125 C-14.704843750000009 40.45703125 -15.69484374999999 40.45703125 -16.71484375 40.45703125 C-17.87098287861619 36.50688922722803 -17.881851631092474 34.82444858840345 -16.15234375 31.01953125 C-14.090639787917155 27.76117393929563 -11.62511472304223 24.934002231530883 -8.984375 22.1328125 C-7.5348850235755975 20.21948573111979 -7.06924743006158 18.819722450410488 -6.71484375 16.45703125 C-7.078141783421287 13.796938330743174 -7.078141783421287 13.796938330743174 -8.71484375 11.45703125 C-17.422565677358747 6.125772927127301 -28.242398476900817 9.96246863471606 -37.77734375 11.51953125 C-38.92912109375 11.705800781250005 -40.0808984375 11.892070312499996 -41.267578125 12.083984375 C-44.08365869914992 12.539698658783593 -46.89939622261375 12.997425011553169 -49.71484375 13.45703125 C-49.71484375 12.797031250000003 -49.71484375 12.13703125 -49.71484375 11.45703125 C-46.22362347467873 8.55964470375207 -42.43792082260151 6.0467882292577855 -38.71484375 3.45703125 C-37.9053125 2.8782421874999997 -37.09578125 2.2994531249999994 -36.26171875 1.703125 C-23.659965955062077 -7.087258505559843 -13.469121371137078 -7.655112146185825 0 0 Z " fill="#475C6E" transform="translate(86.71484375,21.54296875)"/>
<path d="M0 0 C13.860000000000001 0 27.720000000000002 0 42 0 C40.04517742982632 4.88705642543421 39.05332875407442 6.226832223766255 35.25 9.5 C34.3528125 10.28375 33.455625 11.0675 32.53125 11.875 C30.632628003994746 13.468904885535276 28.71632781460693 14.993876567535116 26.75 16.5 C20.453610135895367 22.223990785549667 16.360206097027508 29.182000662051376 15.82958984375 37.75244140625 C15.76576569993739 41.04587100607629 15.77549582408652 44.331165791501355 15.8125 47.625 C15.8189453125 48.8227001953125 15.825390625 50.020400390625 15.83203125 51.25439453125 C15.900714713885565 59.31504292569504 16.1751053263529 67.34911431510265 16.648193359375 75.3955078125 C16.897910011921276 79.84626354003188 17.019599003263 84.26047575201198 16.9609375 88.71875 C16.942568359375 90.13824951171875 16.942568359375 90.13824951171875 16.923828125 91.58642578125 C16.892296758026774 93.38718214909085 16.847659285591906 95.1877786822095 16.787109375 96.98779296875 C16.654402769534496 104.2938685848672 18.178240768292547 109.52345681951205 23.3125 115 C23.918359375 115.662578125 24.52421875 116.32515625 25.1484375 117.0078125 C25.759453125 117.665234375 26.37046875 118.32265625 27 119 C28.153678802464732 120.28466416868343 29.300108278613738 121.5758938158574 30.4375 122.875 C30.9312109375 123.429296875 31.424921875 123.98359375 31.93359375 124.5546875 C33 126 33 126 33 128 C22.11 128 11.219999999999999 128 0 128 C0 85.75999999999999 0 43.519999999999996 0 0 Z " fill="#B5C7D0" transform="translate(0,0)"/>
<path d="M0 0 C14.519999999999996 0 29.040000000000006 0 44 0 C44 35.97 44 71.94 44 109 C38.042062408675434 106.02103120433772 36.10868369664361 102.10981845406062 33.8984375 95.91015625 C30.896107580114958 85.5395128244429 29.588521621711905 74.96391786260929 28.2998046875 64.269775390625 C28.070225135506902 62.53166374984337 27.757974442372884 60.80429757622629 27.41015625 59.0859375 C26.617064595355174 53.118866955529356 27.043972852042174 47.03578039669129 27.21484375 41.029296875 C27.336468645526793 32.22254875799169 26.218384370358933 24.435842690163877 20.07421875 17.75 C16.390443646060703 14.64203155072542 12.15902794852029 12.361685951470262 8.015625 9.92578125 C4.402176503289084 7.6182292954941975 2.3021553200243403 5.581130497815648 0 2 C0 1.3399999999999999 0 0.6799999999999999 0 0 Z " fill="#99BDC7" transform="translate(84,0)"/>
<path d="M0 0 C0.3299999999999983 0 0.6599999999999966 0 1 0 C1.3461132812499983 1.6667578124999949 1.3461132812499983 1.6667578124999949 1.69921875 3.3671875 C4.248334420795857 15.802720024393551 4.248334420795857 15.802720024393551 10 27 C10.682558593750002 27.3340283203125 11.365117187500005 27.668056640624997 12.068359375 28.01220703125 C14.405369909569288 30.417153918568403 14.302132879773154 31.183999065210358 14.390625 34.44921875 C14.364061945360106 36.195739592573105 14.316396447024914 37.94203955609515 14.25 39.6875 C14.231953125000018 40.580175781250006 14.21390624999998 41.4728515625 14.1953125 42.392578125 C14.148177592754735 44.596135038715346 14.082406567363705 46.79752601303642 14 49 C1.6827668519052281 49.13892563773405 -10.634280407003516 49.24558359672196 -22.952136993408203 49.31087303161621 C-28.671660269281162 49.342206490322496 -34.390648169750904 49.384717151262635 -40.10986328125 49.45263671875 C-45.62769593456753 49.5177557969063 -51.145013175316194 49.55369085647982 -56.66320037841797 49.56926345825195 C-58.77003852674472 49.580363092980065 -60.87684796962761 49.60203816927236 -62.98346710205078 49.63438034057617 C-65.93133328482541 49.67784420729157 -68.87706107270961 49.68393826984459 -71.8251953125 49.68115234375 C-72.69913436889648 49.70272399902345 -73.57307342529296 49.72429565429687 -74.47349548339844 49.74652099609375 C-76.80126464073537 49.72266615722842 -78.76363913665557 49.64803375370931 -81 49 C-83.43255615234375 46.106109619140625 -83.43255615234375 46.106109619140625 -85 43 C-86.47926069246972 41.438700586284114 -87.99995264230182 39.91544242462484 -89.5625 38.4375 C-93.97296262472278 34.265038731080125 -97.19465954227022 30.590541276898733 -97.75 24.375 C-97.82734375 23.619609374999996 -97.9046875 22.864218749999992 -97.984375 22.0859375 C-98 20 -98 20 -97 17 C-94.03 16.67 -91.06 16.340000000000003 -88 16 C-87.9136328125 16.675468749999993 -87.827265625 17.3509375 -87.73828125 18.046875 C-86.88257798325606 23.66611456138719 -86.88257798325606 23.66611456138719 -84 28.4375 C-75.31124728443791 32.96289203935527 -65.53590620209822 34.0309987111642 -55.951171875 35.362548828125 C-53.6348284602971 35.68612702763902 -51.321449492852246 36.02680676786923 -49.0078125 36.369140625 C-33.296626894288565 38.7807773383165 -33.296626894288565 38.7807773383165 -17.75 36.5 C-16.837343750000002 36.221562500000005 -15.924687500000005 35.94312500000001 -14.984375 35.65625 C-14.329531250000002 35.43968749999999 -13.674687500000005 35.22312500000001 -13 35 C-13 34.34 -13 33.68000000000001 -13 33 C-12.257499999999993 32.62875 -11.515 32.25749999999999 -10.75 31.875 C-5.473635762889188 28.27747892924262 -3.9274126106884637 22.417324115391864 -2.734375 16.40625 C-2.3935006760229243 14.439667361670715 -2.0655360035787282 12.470806842024501 -1.75 10.5 C-1.5772656249999955 9.486796874999996 -1.4045312500000051 8.473593749999992 -1.2265625 7.4296875 C-0.8062985393190445 4.9547997315454495 -0.3977506589302209 2.478587707417219 0 0 Z " fill="#738EA4" transform="translate(114,79)"/>
<path d="M0 0 C2.9171140095891133 2.234385198834218 4.518346974413333 4.062044108068058 6.1875 7.3125 C5.811919114859421 12.695826020348164 1.1357412517600949 16.674968539613232 -2.25 20.625 C-4.210702098237803 22.949126305986034 -4.210702098237803 22.949126305986034 -4.6875 26.125 C-6 29 -6 29 -7.98046875 29.9765625 C-9.543755445380384 30.48150665283086 -11.121323461293834 30.944693076859267 -12.7109375 31.359375 C-17.140460687711304 32.57563574836904 -17.140460687711304 32.57563574836904 -20.12890625 35.85546875 C-20.56009765625 36.917011718750004 -20.56009765625 36.917011718750004 -21 38 C-21.3183984375 38.697382812499995 -21.636796875 39.39476562499999 -21.96484375 40.11328125 C-24.006602140905386 44.72978716999893 -26.02347531515531 49.355166990614975 -28 54 C-36.50208390300371 50.21082291684314 -43.30451068396418 41.3399713567334 -47 33 C-48.56082877103771 24.98349848888794 -46.88513637707434 16.15737690856743 -43 9 C-37.916016772181 3.252527933313921 -32.313592192444275 2.7435325623015743 -24.9375 1.75 C-22.80075084340733 1.432496230775925 -20.664031018050068 1.114794990286434 -18.52734375 0.796875 C-17.586247558593755 0.6663574218749986 -16.645151367187495 0.5358398437500007 -15.675537109375 0.4013671875 C-13.870814818871146 0.13063414200421164 -12.072534108165769 -0.18654342283858938 -10.283447265625 -0.54638671875 C-6.6957095381117995 -1.2591010026930682 -3.506443382167319 -1.034223704639249 0 0 Z " fill="#273D4F" transform="translate(75,30)"/>
<path d="M0 0 C3.582717755637688 -0.174395896742224 7.1643460184238705 -0.28087658298362667 10.75 -0.375 C11.765781250000003 -0.4252734375 12.781562500000007 -0.47554687500000004 13.828125 -0.52734375 C16.666766058301945 -0.5833695603612226 19.2159670921168 -0.5641375055060583 22 0 C24.3984375 2.796875000000005 24.3984375 2.796875000000005 26 6 C28.321622240728146 8.014822743203458 28.321622240728146 8.014822743203458 30.875 9.625 C32.191777343750005 10.50865234375 32.191777343750005 10.50865234375 33.53515625 11.41015625 C35.449767725814425 12.64509582314813 37.37842799884123 13.858266489844546 39.3125 15.0625 C45.57810435515802 19.579563604881365 48.3218488628529 24.59392725366423 50 32 C50.27082164244143 35.7842022823812 50.14104808280857 39.52391153993236 50 43.3125 C49.8264708480347 51.29607169360915 50.20064423427951 58.767380357809856 51.625 66.625 C53.07126231366364 74.85719634977858 52.8640700289547 81.7842839464589 51 90 C50.7666796875 91.1666015625 50.533359375 92.333203125 50.29296875 93.53515625 C47.351508745680945 107.48742910471128 47.351508745680945 107.48742910471128 41 112 C41.21656250000001 111.4985546875 41.43312499999999 110.997109375 41.65625 110.48046875 C45.53283755746011 99.94548311930977 46.284314553316875 83.57194285610136 42 73 C40.54195300635817 70.7159848955983 39.00439699132269 68.65106634393653 37.2421875 66.59375 C36 65 36 65 36 63 C35.34 63 34.68000000000001 63 34 63 C31.530645744109478 59.295968616164224 31.455402644188453 55.300717353982385 32 51 C32.666201610972536 49.33314738631161 33.332899328175884 47.66649299904741 34 46 C35.249974931254116 39.54336257314604 35.670534138916054 34.72603325670903 32 29 C32 28.34 32 27.68 32 27 C31.158886718749997 26.593945312499997 31.158886718749997 26.593945312499997 30.30078125 26.1796875 C27.85850435646607 24.927450451023354 25.532657472833478 23.550560290572786 23.1875 22.125 C19.15704934288314 19.68881649169825 15.099801575578823 17.31727915141412 11 15 C11 14.34 11 13.68 11 13 C10.405742187499996 12.739609375 9.811484374999992 12.47921875 9.19921875 12.2109375 C6.858894605901995 10.922304312308384 5.534033590798586 9.651895590194737 3.8125 7.625 C3.3033203125000057 7.039765625 2.794140624999997 6.4545312500000005 2.26953125 5.8515625 C0.9159342906206973 3.8773933961668057 0.5163277401359068 2.3128366212239766 0 0 Z " fill="#72878B" transform="translate(62,0)"/>
<path d="M0 0 C4.7264262984257925 3.0329637186667675 8.609982574723489 5.925098877150923 10.8046875 11.2109375 C11.934497241774153 16.492568406667786 11.26215342381846 22.021996309147127 9.26171875 27.0078125 C8.289591849913734 29.445906765416368 7.968409216769658 31.35483912187093 7.78515625 33.95703125 C7.453021434873875 37.49397568476407 6.7113608432810565 40.18515012423757 5.28515625 43.45703125 C4.909754975222896 44.835873189787975 4.555712332186118 46.220639028438 4.21875 47.609375 C3.9106640624999898 48.8791015625 3.602578125000008 50.148828124999994 3.28515625 51.45703125 C0.6329738308760398 50.19821637012268 -2.0110824412664954 48.92589081438983 -4.65234375 47.64453125 C-5.407089843750001 47.28810546874999 -6.161835937500001 46.93167968750001 -6.939453125 46.564453125 C-7.658105468749994 46.21318359375 -8.376757812500003 45.861914062500006 -9.1171875 45.5 C-9.782263183593756 45.18055419921875 -10.447338867187497 44.861108398437494 -11.132568359375 44.531982421875 C-12.71484375 43.45703125 -12.71484375 43.45703125 -13.71484375 40.45703125 C-14.704843750000009 40.45703125 -15.69484374999999 40.45703125 -16.71484375 40.45703125 C-17.87098287861619 36.50688922722804 -17.881851631092474 34.82444858840344 -16.15234375 31.01953125 C-14.090639787917155 27.761173939295645 -11.62511472304223 24.93400223153087 -8.984375 22.1328125 C-7.534885023575612 20.21948573111981 -7.06924743006158 18.819722450410474 -6.71484375 16.45703125 C-7.078141783421287 13.796938330743174 -7.078141783421287 13.796938330743174 -8.71484375 11.45703125 C-17.422565677358733 6.125772927127301 -28.242398476900817 9.96246863471606 -37.77734375 11.51953125 C-38.92912109375 11.705800781250005 -40.0808984375 11.892070312499996 -41.267578125 12.083984375 C-44.083658699149915 12.539698658783593 -46.89939622261376 12.997425011553169 -49.71484375 13.45703125 C-49.71484375 12.797031250000003 -49.71484375 12.13703125 -49.71484375 11.45703125 C-46.22362347467873 8.55964470375207 -42.43792082260152 6.046788229257793 -38.71484375 3.45703125 C-37.9053125 2.8782421874999997 -37.09578125 2.2994531249999994 -36.26171875 1.703125 C-23.659965955062084 -7.08725850555984 -13.469121371137092 -7.655112146185829 0 0 Z " fill="#405566" transform="translate(86.71484375,21.54296875)"/>
<path d="M0 0 C13.860000000000001 0 27.720000000000002 0 42 0 C40.04517742982632 4.88705642543421 39.05332875407442 6.226832223766255 35.25 9.5 C34.3528125 10.28375 33.455625 11.0675 32.53125 11.875 C30.632628003994746 13.468904885535276 28.71632781460693 14.993876567535116 26.75 16.5 C17.05360076238734 25.31490839782969 15.716281476859749 35.46507415495441 15 48 C12.317964559943341 44.526803663171464 10.05425725379287 40.8772396400537 7.79296875 37.12109375 C5.692263294286111 34.353163242876136 5.692263294286111 34.353163242876136 0 32 C0 21.439999999999998 0 10.879999999999999 0 0 Z " fill="#A9BBB0" transform="translate(0,0)"/>
<path d="M0 0 C0.3299999999999983 0 0.6599999999999966 0 1 0 C1.3461132812499983 1.6667578124999949 1.3461132812499983 1.6667578124999949 1.69921875 3.3671875 C4.639307745230624 18.46241862216644 4.639307745230624 18.46241862216644 14 30 C14 36.27000000000001 14 42.53999999999999 14 49 C-1.8400000000000034 49 -17.680000000000007 49 -34 49 C-33.67 47.349999999999994 -33.34 45.7 -33 44 C-32.34 44 -31.680000000000007 44 -31 44 C-30.67 43.00999999999999 -30.340000000000003 42.02000000000001 -30 41 C-24.813717282824115 37.72445302073102 -18.888199719204053 36.477288541650836 -13 35 C-13 34.34 -13 33.68000000000001 -13 33 C-12.257499999999993 32.62875 -11.515 32.25749999999999 -10.75 31.875 C-5.473635762889188 28.27747892924262 -3.9274126106884637 22.417324115391878 -2.734375 16.40625 C-2.3935006760229243 14.439667361670715 -2.0655360035787282 12.470806842024501 -1.75 10.5 C-1.5772656249999955 9.486796874999996 -1.404531249999991 8.473593749999992 -1.2265625 7.4296875 C-0.8062985393190445 4.9547997315454495 -0.3977506589302209 2.478587707417219 0 0 Z " fill="#87A3A0" transform="translate(114,79)"/>
<path d="M0 0 C0 22.769999999999996 0 45.53999999999999 0 69 C-5.95793759132458 66.02103120433772 -7.8913163033563904 62.109818454060616 -10.1015625 55.91015625 C-13.101979278981915 45.546121192829645 -14.394566593802793 34.98394041853186 -15.701171875 24.2998046875 C-15.94860741031826 22.39552140098197 -16.253932528062094 20.49886144975536 -16.57421875 18.60546875 C-17.38415591697138 13.649247737431992 -17.360945559936184 8.860519856914948 -16 4 C-13.709229587096218 3.3301141351299677 -11.417485414790434 2.663968378452026 -9.125 2 C-8.474023437499994 1.8092187499999994 -7.823046875000003 1.6184374999999989 -7.15234375 1.421875 C-2.2265625 0 -2.2265625 0 0 0 Z " fill="#ADC5C5" transform="translate(128,40)"/>
<path d="M0 0 C3.765535109982298 0.6533577475598449 5.606952523200757 1.0597553138861642 8.0625 4.0625 C8.5278515625 4.6103515625 8.993203125 5.158203125 9.47265625 5.72265625 C14.707646421193207 13.528280980960716 15.759727168948638 20.113318088829146 16.25 29.5 C16.32734375 30.6846484375 16.4046875 31.869296875000003 16.484375 33.08984375 C16.69055960824052 36.39247934985259 16.84939889963835 39.694451419302865 17 43 C17.06195556640625 43.82636962890625 17.1239111328125 44.6527392578125 17.187744140625 45.504150390625 C17.361155986762345 48.76376874253279 17.417576174229247 50.5009917373723 15.27734375 53.05859375 C10.449678965022233 55.90361156151445 6.663203636730082 57.88201659090146 1 58 C-0.0000000000000004440892098500626 57 -0.0000000000000004440892098500626 57 -0.1202545166015625 54.71580505371094 C-0.11803390502929688 53.70542678833007 -0.11581329345703124 52.69504852294922 -0.113525390625 51.654052734375 C-0.11344985961914063 50.51294540405274 -0.11337432861328126 49.37183807373046 -0.1132965087890625 48.19615173339844 C-0.10813522338867188 46.954507598876944 -0.10297393798828125 45.71286346435548 -0.09765625 44.43359375 C-0.09624130249023438 43.16983413696289 -0.09482635498046875 41.90607452392578 -0.0933685302734375 40.60401916503906 C-0.08870582121020142 37.23875110980288 -0.07971480148087073 33.87355010242098 -0.06866455078125 30.50830078125 C-0.0584484594954787 27.076503304580214 -0.05387048687821936 23.644698913815603 -0.048828125 20.212890625 C-0.03777380202520617 13.475241756605605 -0.02101710002246627 6.737624752100153 0 0 Z " fill="#AED0C7" transform="translate(0,32)"/>
<path d="M0 0 C0.3299999999999983 0 0.6600000000000001 0 1 0 C1.0863671874999987 0.6948046874999996 1.172734375000001 1.3896093749999991 1.26171875 2.10546875 C2.250581942457238 9.263386721089546 3.7077260975935182 16.176858251201566 5.4375 23.1875 C7.107900596062127 30.011067997821115 8.632733683607377 36.82336951140985 9.8125 43.75 C9.93616943359375 44.45149169921875 10.059838867187501 45.1529833984375 10.187255859375 45.875732421875 C11.596431543793393 54.55339694142722 11.59748300372911 61.746870480711635 7.7109375 69.80078125 C6 72 6 72 3.6640625 72.91796875 C1.3773011059471756 73.16684341275969 -0.7124849431472811 73.21429879617574 -3 73 C-4.480644326067978 56.58690013018263 -5.072416566159495 40.09984380705157 -5.25 23.625 C-5.271350097656249 22.597939453125 -5.2927001953125 21.57087890625 -5.314697265625 20.5126953125 C-5.349287204648695 12.852596088707173 -4.298632759000345 6.447949138500519 0 0 Z " fill="#6F8784" transform="translate(20,23)"/>
</svg>
