<?xml version="1.0" encoding="UTF-8"?>
<!-- Generator: visioncortex VTracer 0.6.0 -->
<svg version="1.1" xmlns="http://www.w3.org/2000/svg" width="128" height="128">
<path d="M0 0 C42.24 0 84.48 0 128 0 C128 42.24 128 84.48 128 128 C85.75999999999999 128 43.519999999999996 128 0 128 C0 85.75999999999999 0 43.519999999999996 0 0 Z " fill="#715550" transform="translate(0,0)"/>
<path d="M0 0 C42.24 0 84.48 0 128 0 C128 42.24 128 84.48 128 128 C85.75999999999999 128 43.519999999999996 128 0 128 C0 85.75999999999999 0 43.519999999999996 0 0 Z M55.09375 17.80859375 C48.89020902300509 20.197583646443746 42.805515704169 20.285059461251358 36.23828125 20.517578125 C32.14110274992018 20.70974667411879 28.650620243449808 20.941529826229946 25 23 C23.3924502000787 24.76518040686494 23.3924502000787 24.76518040686494 22.25 26.875 C21.84265625 27.553046875 21.435312500000002 28.23109375 21.015625 28.9296875 C19.161058622456014 32.710149731147354 18.899191327414076 35.93947270098526 19.04296875 40.12109375 C19.320629305898393 51.90143109787897 18.993473135718606 62.844113938229846 16.334716796875 74.361083984375 C14.93140059560282 80.186106959016 14.93140059560282 80.186106959016 16 86 C17.23447309935075 87.4293899045114 18.47162174421616 88.85686531022189 19.73828125 90.2578125 C21.22802618731989 92.3148596889928 21.841621416884824 94.19551969226377 22.5625 96.625 C23.67712528702974 100.36560689545573 24.787829680837397 102.59087226062805 28 105 C35.27643485298586 107.42547828432862 43.86006529622507 106.04390006207863 51.375 105.3125 C58.259532949209095 104.71285490299061 58.259532949209095 104.71285490299061 61.6875 106.75 C64.88820210863958 108.34871575144791 64.88820210863958 108.34871575144791 67.75390625 107.125 C70.55820940613931 105.83801862977701 73.27299984790152 104.44166250079091 76 103 C83.4027454484976 100.53241818383414 90.86921470640787 102.37185173374837 98.239013671875 104.1083984375 C103.67099031870407 105.28309585137845 107.22493953595693 104.70300491254153 111.94140625 101.80859375 C118.53084803888191 96.23535503217457 123.08841702478202 88.69259479940007 124 80 C124.0993780904902 72.57148773585723 122.0914774287043 65.7195886752214 119 59 C118.34 58.34 117.68 57.68 117 57 C116.34339986931141 50.21513198288459 117.6852253771845 45.22269667792772 120.125 38.89453125 C121.26550175091359 35.12171072577247 121.91881711853003 31.732315278809576 120.01171875 28.13671875 C117.70581994151617 25.613153977293504 116.29163500024492 24.097211666748308 113 23 C111.18527485350866 22.981312898949174 109.37048435867243 22.964610575604624 107.5556640625 22.962646484375 C99.80221698339795 22.873237052092477 94.11734947962493 21.562696006810103 87.25 17.9375 C75.69715960042248 11.939642693246297 67.13198808338726 12.96292681505857 55.09375 17.80859375 Z " fill="#979C99" transform="translate(0,0)"/>
<path d="M0 0 C26.400000000000002 0 52.800000000000004 0 80 0 C78.03803043082243 3.923939138355148 77.3163426745017 4.798711082917889 73.89453125 7.12890625 C72.66573242187499 7.9690527343749995 72.66573242187499 7.9690527343749995 71.412109375 8.826171875 C70.55423828125 9.39916015625 69.6963671875 9.9721484375 68.8125 10.5625 C67.554697265625 11.427783203125 67.554697265625 11.427783203125 66.271484375 12.310546875 C56.326859588997976 19.04121798309036 48.08576433516124 21.098107653072876 36.23828125 21.517578125 C32.13921862861741 21.70983504440998 28.662597874504485 21.958440814396575 25 24 C23.614432720531408 25.53663326556801 23.614432720531408 25.53663326556801 22.75 27.375 C22.43546875 27.960234375 22.1209375 28.54546875 21.796875 29.1484375 C20.19334776444159 32.87428019438572 19.904074727287224 36.08150145162662 20.04296875 40.12109375 C20.362370152585935 53.52737812431171 19.417748758511443 65.70390376325359 16.4873046875 78.77880859375 C13.591004977043351 91.98047931806593 11.27685165110995 106.53479311529722 18.625 118.6875 C20 121 20 121 21 128 C14.07 128 7.139999999999999 128 0 128 C0 85.75999999999999 0 43.519999999999996 0 0 Z " fill="#BA9E99" transform="translate(0,0)"/>
<path d="M0 0 C6.297343514116221 5.069180916716874 6.969969280848517 11.435113633914106 8.13671875 18.98828125 C9.283017492104833 23.613003761250525 10.90484648932727 27.331289170508107 15.078125 29.89453125 C15.747148437500002 30.142031250000002 16.416171875000003 30.389531249999997 17.10546875 30.64453125 C20.31546569657121 32.07650014809868 20.96731498547676 32.527389937189824 22.98046875 35.64453125 C23.506406249999998 37.12953125 23.506406249999998 37.12953125 24.04296875 38.64453125 C24.383281249999996 39.60359375 24.383281249999996 39.60359375 24.73046875 40.58203125 C25.75005795609667 47.311320010238006 24.845390617575134 52.0601162959705 21.04296875 57.64453125 C18.593477928121303 60.02197822417638 17.11404733981857 60.63735484403807 13.7109375 60.66015625 C9.906312903001464 60.36354383764029 6.537436084104755 59.81265014359562 2.91796875 58.58203125 C-2.0487232040410106 56.962457786725764 -5.817051909727439 56.6088465921887 -10.515625 58.8828125 C-13.050256366242763 60.400578384986375 -15.503543273178394 61.99953360159269 -17.95703125 63.64453125 C-22.627806226657327 66.68468064309057 -22.627806226657327 66.68468064309057 -25.51953125 66.33203125 C-28.60680052934432 64.1946909796847 -29.414064654049227 62.0509358531548 -30.9140625 58.68359375 C-32.403945153662974 55.770789460816204 -34.53583094311079 53.80398017236065 -36.95703125 51.64453125 C-37.95703125 50.64453125 -37.95703125 50.64453125 -38.26953125 47.89453125 C-37.88281642197955 43.87269703858733 -36.54619366931419 42.67755008405376 -33.95703125 39.64453125 C-30.590236462253536 33.723616278445874 -30.641290730051814 29.134031102625784 -31.95703125 22.64453125 C-32.30765625 21.819531249999997 -32.65828125 20.99453125 -33.01953125 20.14453125 C-34.99864974944228 14.866881918153922 -34.722981750385756 9.48977563729295 -32.58203125 4.33203125 C-23.147393300777637 -5.327240936108616 -11.43148283637099 -6.225889559335023 0 0 Z " fill="#2C1A20" transform="translate(86.95703125,31.35546875)"/>
<path d="M0 0 C0.75732421875 0.04833984375 1.5146484375 0.0966796875 2.294921875 0.146484375 C3.080605468750001 0.2025585937499983 3.8662890625000017 0.2586328124999966 4.67578125 0.31640625 C5.473066406249998 0.36861328124999915 6.270351562499997 0.4208203124999983 7.091796875 0.474609375 C9.057646472725601 0.604096474251385 11.023017895180978 0.7408066629046104 12.98828125 0.87890625 C12.501015625 1.7696484375000026 12.013750000000002 2.660390624999998 11.51171875 3.578125 C9.145313540459114 8.705336287338582 9.039713944292593 13.789583221575882 10.703125 19.20703125 C10.982851562500002 19.944375 11.262578124999997 20.68171875 11.55078125 21.44140625 C13.289180921683851 26.165860860126443 13.423439167202488 30.035248279441596 11.98828125 34.87890625 C10.37176836591378 38.10647082599647 8.558225640461892 41.3089618595381 5.98828125 43.87890625 C5.486587099923952 46.70964060935805 5.486587099923952 46.70964060935805 5.98828125 49.87890625 C7.609310930874898 51.58999313536795 9.283315881757318 53.25143930758654 10.98828125 54.87890625 C12.100477961351721 56.88246639066611 13.045080890586895 58.929098127022314 14.0078125 61.0078125 C15.274905478321429 63.42589033512337 16.926302734476465 65.11149609383698 18.98828125 66.87890625 C15.238281250000007 71.75390624999999 15.238281250000007 71.75390624999999 12.98828125 72.87890625 C6.36289167745128 73.69079211289932 -0.34189188318046604 73.9691954584342 -7.01171875 74.12890625 C-8.04296875 74.1546875 -9.07421875 74.18046875 -10.13671875 74.20703125 C-14.841251771814608 73.67010085077116 -17.31122623232391 71.7350637716041 -20.26171875 68.12890625 C-23.352124028391792 62.38958216155811 -23.314878827761085 57.64144366132648 -21.517578125 51.5625 C-21.28876953125 50.841914062499995 -21.0599609375 50.12132812499999 -20.82421875 49.37890625 C-20.61474609375 48.658320312499995 -20.4052734375 47.93773437499999 -20.189453125 47.1953125 C-19.09333297307616 43.597956749175765 -17.842447212093653 40.40676888093816 -15.9140625 37.171875 C-11.685175928180414 29.851646293544327 -11.909842362480134 21.802852568521068 -12.0703125 13.5546875 C-11.982334164350114 9.537010171988435 -10.78153992075395 6.4185485915079 -9.01171875 2.87890625 C-8.351718750000003 2.87890625 -7.69171875 2.87890625 -7.01171875 2.87890625 C-7.01171875 2.2189062500000034 -7.01171875 1.5589062499999997 -7.01171875 0.87890625 C-4.187262826767721 -0.06257905774409522 -2.8700025662279103 -0.19421069997030926 0 0 Z " fill="#5E3A3D" transform="translate(44.01171875,32.12109375)"/>
<path d="M0 0 C15.840000000000003 0 31.680000000000007 0 48 0 C48 17.82 48 35.64 48 54 C40 57 40 57 36 57 C35.5462487364134 50.19373104620109 36.67300040544389 45.25440519837992 39.125 38.89453125 C40.080075573804564 35.73510714201259 40.278118670386604 33.282712175055025 40 30 C37.84909548621812 26.662389547579835 36.79587200911209 25.265290669704026 33 24 C31.185274853508645 23.981312898949174 29.370484358672428 23.964610575604624 27.5556640625 23.962646484375 C19.80505667828544 23.873269798238177 14.113375619533016 22.567456139492684 7.25 18.9375 C-1.6935572526889757 14.214151737959902 -9.10382734471932 13.851013602229196 -19 16 C-14.626945703641084 11.189640274005196 -9.53722562052073 7.400738566939282 -4 4 C-3.3400000000000034 4 -2.680000000000007 4 -2 4 C-1.3400000000000034 2.6799999999999997 -0.6800000000000068 1.3599999999999999 0 0 Z " fill="#9A868C" transform="translate(80,0)"/>
<path d="M0 0 C3.7548614801471842 6.29847732153722 5.627011165670552 10.4758660119535 5 18 C3.645476399035118 22.004678472417908 1.9139457741428885 25.112934983920127 -1.125 28.0625 C-6.471715502324216 29.8059941855405 -11.885493576348608 28.718932184041478 -17.125 26.9375 C-22.091691954041025 25.31792653672575 -25.86002065972744 24.964315342188698 -30.55859375 27.23828125 C-33.09322511624276 28.756047134986375 -35.546512023178394 30.355002351592688 -38 32 C-42.66758310422394 35.06331750395735 -42.66758310422394 35.06331750395735 -45.625 34.5 C-48.55557881527247 32.64910811667002 -49.663309048508445 31.193206161896484 -51 28 C-50.614657819808016 23.78926090372036 -49.039912194824616 21.2434564977449 -46.5625 17.875 C-45.9450390625 17.026796875000002 -45.327578125 16.178593750000005 -44.69140625 15.3046875 C-44.1332421875 14.544140624999997 -43.575078125 13.783593749999994 -43 13 C-42.34 12.010000000000005 -41.68000000000001 11.019999999999996 -41 10 C-40.34 10 -39.68000000000001 10 -39 10 C-39 9.340000000000003 -39 8.680000000000007 -39 8 C-33.69895532843634 4.839761830413977 -29.833236614584138 2.953081607322815 -23.59375 2.75390625 C-22.354316406250007 2.704599609374995 -22.354316406250007 2.704599609374995 -21.08984375 2.654296875 C-19.363415124993864 2.593103703525429 -17.636843826206643 2.5358111590305157 -15.91015625 2.482421875 C-15.083867187500005 2.448261718750004 -14.257578125000009 2.4141015624999937 -13.40625 2.37890625 C-12.656660156249998 2.353850097656249 -11.907070312499997 2.3287939453124977 -11.134765625 2.302978515625 C-6.9585021185455105 1.7102585920762863 -4.46692248337601 -0.24816236018755689 0 0 Z " fill="#162D3C" transform="translate(107,63)"/>
<path d="M0 0 C5.387220843404876 4.111300117335304 7.269539719015803 7.495564750911328 9.12109375 13.84375 C10.088938320407003 16.218195346065187 11.0130250543832 17.398703237930448 13 19 C21.255949676861654 21.75198322562055 31.31891497854373 19.899684144987447 39.80859375 18.92578125 C43.57362534180772 19.01334012422808 45.78240083667448 20.112147700552597 49 22 C47.12856985343743 26.909113862722094 44.745519572686526 31.495850804057667 42.33984375 36.16015625 C40.83371045006718 39.11377079539106 40.83371045006718 39.11377079539106 40 43 C28.78 43 17.560000000000002 43 6 43 C5.009999999999998 40.36 4.02 37.72 3 35 C1.9906866477870508 32.70642241686781 0.9360595018313589 30.441955610471922 -0.1328125 28.17578125 C-3.7011357402989393 19.222826093033746 -2.418184288812581 9.068191083047182 0 0 Z " fill="#8D778B" transform="translate(15,85)"/>
<path d="M0 0 C5.546490118776404 4.7291126275883 6.6407872271363715 11.074123679846537 8 18 C8.161071036387526 21.197733810634617 7.82672621201371 23.914753629079286 7 27 C6.733164062499995 28.011269531250008 6.733164062499995 28.011269531250008 6.4609375 29.04296875 C4.160759301487076 36.20677675380229 -0.5820905725198458 42.9888066078249 -7 47 C-11.862089964352492 48.23839049743276 -15.463408309520233 47.695465348242934 -20.3125 46.5625 C-31.942463131241425 44.07510965962025 -38.11584381805521 45.015514060821076 -49 50 C-52 51 -52 51 -55.1875 49.5625 C-56.115625 49.046875 -57.04375 48.53125 -58 48 C-54.801470784003016 41.93962885390046 -50.01112280941652 38.89649060728651 -44.3125 35.3125 C-43.359882812500004 34.7105078125 -42.40726562500001 34.108515624999995 -41.42578125 33.48828125 C-36.2708303992751 30.32558193578714 -31.82939453552285 30.32968532600833 -26.015625 31.70703125 C-23.980362392469203 32.26141248264831 -21.95102406501438 32.83822226176626 -19.9296875 33.44140625 C-16.605912501849033 34.07513934964746 -14.268301951305588 33.8239803511038 -11 33 C-7.722813912801371 30.45107748773441 -6.112541243048852 27.986606120925046 -5 24 C-4.457116731307195 18.245437351856296 -5.824912467038189 14.18414645161883 -8 9 C-8.495000000000005 7.515000000000001 -8.495000000000005 7.515000000000001 -9 6 C-5.999999999999972 3.999999999999986 -3 2.000000000000007 0 0 Z " fill="#486570" transform="translate(116,57)"/>
<path d="M0 0 C0 24.42 0 48.84 0 74 C-5.609999999999999 74 -11.219999999999999 74 -17 74 C-20 69 -20 69 -20 66 C-20.659999999999997 66 -21.319999999999993 66 -22 66 C-23.007397457852022 64.33779419454417 -24.00522954816354 62.66979325843977 -25 61 C-28.746295195499428 55.985903686511435 -32.78548203171363 52.441581859069004 -38 49 C-34.54101821726218 47.847006072420726 -33.18137716769172 48.25547719639762 -29.6875 49.0625 C-23.39460202631831 50.27139882125991 -20.277565977823272 49.5338709646565 -14.9375 45.9375 C-9.371607501748883 40.97056181258431 -5.77644660667309 33.39010788137061 -5 26 C-4.894149827508201 18.20678105029117 -7.326348442969675 11.237512586937925 -10 4 C-4.5 0 -4.5 0 0 0 Z " fill="#8896A0" transform="translate(128,54)"/>
<path d="M0 0 C-0.6806249999999991 0.6600000000000001 -1.3612499999999983 1.3200000000000003 -2.0625 2 C-5.051484813169715 4.954922308176329 -7.694105424190653 8.173101887979968 -10.3515625 11.42578125 C-12 13 -12 13 -15 13 C-15 13.659999999999997 -15 14.32 -15 15 C-15.659999999999997 15 -16.32 15 -17 15 C-18.729994646660217 20.29810860539692 -19.067649324209718 24.789896391522035 -18.9375 30.375 C-18.821871487750307 39.331762448880106 -20.767568178794896 45.85951366557671 -24.95703125 53.64453125 C-26.864687087649326 57.952832636151854 -27.901775007625744 62.56766046359948 -29.0703125 67.12109375 C-29.530507812499998 68.54615234375 -29.530507812499998 68.54615234375 -30 70 C-30.990000000000002 70.495 -30.990000000000002 70.495 -32 71 C-36.852124471086036 66.62125352609308 -36.852124471086036 66.62125352609308 -37.21484375 62.64453125 C-36.892783665131276 58.68026438716133 -36.23238481616747 54.90786606937965 -35.24609375 51.0546875 C-32.92021986889357 41.90849745545587 -32.79644904636421 33.47245110524922 -33.198974609375 24.05810546875 C-33.41007437329231 16.45253380444298 -32.55595471291713 9.395633401070302 -27.613525390625 3.2861328125 C-23.699789898876524 0.16651432702095903 -18.35626178997388 0.6872177362838663 -13.5625 0.4375 C-12.811621093749999 0.39431640624999886 -12.060742187499997 0.3511328125000013 -11.287109375 0.306640625 C-7.5199096614167615 0.09790396540831736 -3.7746026807422197 -0.052529261958639495 0 0 Z " fill="#7A6665" transform="translate(52,20)"/>
<path d="M0 0 C9.57 0 19.14 0 29 0 C29.33 0.99 29.66 1.98 30 3 C26.66358362630556 9.17027630616294 21.002383976036107 15.132815590883789 16 20 C15.34 20 14.68 20 14 20 C13.7421875 20.5607421875 13.484375 21.121484375 13.21875 21.69921875 C11.391559362774995 25.14862671578695 8.995318707051297 28.152424858611724 6.65625 31.26953125 C4.391525642432271 35.00312164136756 2.4872430260360545 38.51812227150825 3.4111328125 42.989990234375 C4.1481428994690175 45.14113205460511 4.987481083827587 47.219138716388 5.875 49.3125 C10.510327434198395 61.31325118876266 10.510327434198395 61.31325118876266 9 68 C7.312500000000001 71.5625 7.312500000000001 71.5625 5 74 C2.5249999999999995 74.495 2.5249999999999995 74.495 0 75 C0 50.25 0 25.5 0 0 Z " fill="#D0CDD4" transform="translate(0,0)"/>
<path d="M0 0 C3.896042662973187 4.164735260419619 6.160261566017326 8.371258219739886 7 14 C6.718876645021627 17.276975227434477 6.165307894783867 20.431505164221505 5.5625 23.6640625 C3.9241344118470476 33.380480640851545 4.4345313375273765 43.103263365910664 9.625 51.6875 C11 54 11 54 12 61 C5.07 61 -1.8600000000000012 61 -9 61 C-9 43.50999999999999 -9 26.019999999999996 -9 8 C-7.35 7.340000000000003 -5.699999999999999 6.680000000000007 -4 6 C-1.6849819599404983 2.98716267217668 -1.6849819599404983 2.98716267217668 0 0 Z " fill="#C6ADB2" transform="translate(9,67)"/>
<path d="M0 0 C0.340312499999996 1.3303125000000051 0.340312499999996 1.3303125000000051 0.6875 2.6875 C1.7917250081689602 6.114215318100889 1.7917250081689602 6.114215318100889 4.4375 8.4375 C7.398861588820303 11.398861588820296 8.397118972793578 14.167023630593334 10 18 C12.040449636947997 20.37791978652787 12.040449636947997 20.37791978652787 14 22 C10.25 26.875 10.25 26.875 8 28 C1.3746104274512803 28.811885862899317 -5.330173133180466 29.0902892084342 -12 29.25 C-13.546875 29.288671875000006 -13.546875 29.288671875000006 -15.125 29.328125 C-19.82953302181461 28.791194600771163 -22.29950748232391 26.856157521604104 -25.25 23.25 C-27.203936698605588 19.621260416875344 -27.92513103821306 17.117792898281635 -28 13 C-25.442646316871603 7.358270422017426 -21.8844129558784 6.272617569528606 -16.359375 4.13671875 C-4.134020618556697 0 -4.134020618556697 0 0 0 Z " fill="#51394B" transform="translate(49,77)"/>
<path d="M0 0 C3.382974128275997 0.17805126990926468 4.762720609623287 0.7883724356099577 7.3125 3.0625 C7.869375000000002 3.701875000000001 8.42625 4.341250000000002 9 5 C8.401875 5.66 7.803750000000001 6.32 7.1875 7 C1.7571860617364266 14.447287686761474 1.7190317618330546 20.932074183425648 2.0625 29.8125 C2.309015416335651 41.071425383248936 0.8969957654551948 51.149198896353084 -2 62 C-2.66 61.00999999999999 -3.3200000000000003 60.02000000000001 -4 59 C-4.4021875 58.404453125 -4.804375 57.80890625000001 -5.21875 57.1953125 C-8.639197352177362 51.66837013215243 -9.64258771132631 46.89202204281471 -10.38671875 40.48046875 C-11.071347047940126 36.5950941419449 -12.340238904680026 33.280402877826106 -13.8125 29.625 C-16.10420012043356 23.48893902664979 -16.10420012043356 23.48893902664979 -15.1875 19.1875 C-14.465625 18.135625000000005 -13.74375 17.083749999999995 -13 16 C-12.5449609375 15.2613671875 -12.089921875 14.522734374999999 -11.62109375 13.76171875 C-8.823483543666189 9.298690457389142 -5.8770988235697 5.554007254938892 -2 2 C-1.3399999999999999 1.3399999999999999 -0.6799999999999997 0.6799999999999997 0 0 Z " fill="#969CA0" transform="translate(18,17)"/>
<path d="M0 0 C-0.2566224503353425 1.4401048095289184 -0.5309082143090791 2.8770687022097334 -0.8125 4.3125 C-0.9633203125000023 5.113007812500001 -1.1141406250000045 5.913515625000002 -1.26953125 6.73828125 C-2.0757223616140124 9.234455868312903 -3.020520019571535 10.324221057664662 -5 12 C-6.134375000000006 11.360624999999999 -7.268749999999997 10.721250000000001 -8.4375 10.0625 C-14.055219648568283 7.312774066753416 -18.839550879892755 6.146720158922548 -24.98046875 7.8046875 C-29.842352527652437 9.282052725732708 -29.842352527652437 9.282052725732708 -34 12 C-40.0286684689968 12.318778737085367 -46.08684507599017 12.314034427557743 -52 11 C-50.573908411620614 7.637970607706631 -48.85651485097082 5.763244205556717 -46.0625 3.4375 C-43.199802079078296 1.0571086855616407 -43.199802079078296 1.0571086855616407 -40.58203125 -1.578125 C-28.55077061910123 -12.391406159622605 -11.993332587618639 -7.048555283877819 0 0 Z " fill="#6B5562" transform="translate(93,21)"/>
</svg>
