<?xml version="1.0" encoding="UTF-8"?>
<!-- Generator: visioncortex VTracer 0.6.0 -->
<svg version="1.1" xmlns="http://www.w3.org/2000/svg" width="128" height="128">
<path d="M0 0 C42.24 0 84.48 0 128 0 C128 42.24 128 84.48 128 128 C85.75999999999999 128 43.519999999999996 128 0 128 C0 85.75999999999999 0 43.519999999999996 0 0 Z " fill="#7C939A" transform="translate(0,0)"/>
<path d="M0 0 C3.4198473792341844 1.936687763150541 5.276473986567012 3.088618243469739 6.6171875 6.859375 C6.6171875 7.581249999999997 6.6171875 8.303125000000001 6.6171875 9.046875 C7.277187499999997 9.046875 7.937187499999993 9.046875 8.6171875 9.046875 C13.09209366481899 29.263861780342964 13.09209366481899 29.263861780342964 9.6171875 38.921875 C7.564253745684354 44.726212880906814 6.388732321711927 49.923498418994825 7.6171875 56.046875 C10.36725061814866 61.74773577046875 15.1373660521634 65.40570643166237 19.9140625 69.37109375 C22.225370244134936 71.64529334227956 23.00322603706816 73.90032250247434 23.6171875 77.046875 C14.890890243976742 84.32295666619704 3.8991625203026956 89.86373571138533 -7.4453125 91.484375 C-11.553918630543166 90.87245493800421 -14.799137074961536 89.08429453098634 -18.3828125 87.046875 C-18.3828125 86.386875 -18.3828125 85.726875 -18.3828125 85.046875 C-19.37281250000001 84.9295703125 -20.36281249999999 84.812265625 -21.3828125 84.69140625 C-25.519222281081326 84.09736953345134 -29.4037004042724 82.98832890756167 -33.3828125 81.734375 C-34.055703125 81.53392578125 -34.72859375 81.3334765625 -35.421875 81.126953125 C-40.16347621458404 79.6486353718044 -44.22632610592216 77.7878232981355 -48.3828125 75.046875 C-48.7128125 74.056875 -49.0428125 73.066875 -49.3828125 72.046875 C-50.8678125 71.551875 -50.8678125 71.551875 -52.3828125 71.046875 C-53.0859375 68.37890624999999 -53.0859375 68.37890624999999 -53.6328125 64.859375 C-55.23455571522841 56.74276948449025 -57.75751691113872 46.58053614044121 -64.6171875 41.33984375 C-66.01304283320079 40.5998424297393 -67.4184839166554 39.87742627939831 -68.8359375 39.1796875 C-70.3828125 38.046875 -70.3828125 38.046875 -70.9921875 36.1640625 C-71.20849081163219 30.302242754767583 -68.98587687379921 26.878948570056252 -65.1953125 22.546875 C-59.22003150322642 17.23551411397905 -52.4777871741467 12.724420191916991 -44.2578125 12.859375 C-43.300039062500005 12.861953125 -42.342265624999996 12.864531249999999 -41.35546875 12.8671875 C-38.3828125 13.046875 -38.3828125 13.046875 -35.50390625 13.6640625 C-32.51926903271213 14.27012235218919 -30.383848502290526 14.622416151124213 -27.3828125 14.046875 C-24.861614994348713 11.503522858973916 -23.1100769627365 8.82329268984902 -21.203125 5.796875 C-16.409735678855043 -1.4446401976095515 -7.948721794106987 -3.179488717642794 0 0 Z " fill="#5F3850" transform="translate(89.3828125,26.953125)"/>
<path d="M0 0 C1.6927083333333286 1.0091145833333357 3.3854166666666714 2.0182291666666643 5.078125 3.02734375 C11.811607748161236 6.4351429457157465 19.665855704598613 5.5416159815374115 27 6 C27 27.450000000000003 27 48.900000000000006 27 71 C-8.310000000000002 71 -43.620000000000005 71 -80 71 C-80 43 -80 43 -79 37 C-78.47316213460354 29.674927371506982 -79.17235513856683 23.432054456574264 -81.33203125 16.42578125 C-82.12204936301602 13.556768102731283 -82.24009215973342 10.961136636712212 -82 8 C-75.14454958149825 10.83776814709222 -71.91298330018886 13.757970746155664 -68.97265625 20.59765625 C-68.6516796875 21.390429687500003 -68.330703125 22.183203125000006 -68 23 C-67.651953125 23.6200390625 -67.30390625 24.240078124999997 -66.9453125 24.87890625 C-65.64236851153483 27.802454124944575 -65.31802800241 30.719690991669083 -64.8125 33.875 C-63.321074070539936 40.909278404419354 -63.321074070539936 40.909278404419354 -58.4765625 45.8359375 C-53.17230971688744 48.32910363464913 -47.56561111937563 49.90925597421088 -41.93115234375 51.4638671875 C-39.27359372310921 52.20166727990545 -36.63778111381012 53.007242998066516 -34 53.8125 C-32.666966134974416 54.20934067363427 -31.333769888943493 54.60564015302873 -30 55 C-30 55.66 -30 56.31999999999999 -30 57 C-29.05125000000001 57.309375 -28.102499999999992 57.618750000000006 -27.125 57.9375 C-23.99999999999997 59 -23.99999999999997 59 -22 60 C-9.548426602198575 59.59175169187537 0.9493530646667949 53.989127227576404 11 47 C9.704197063446344 41.7324460508144 7.684864210599429 39.391964564260604 3.5625 35.9375 C-4.353388931968155 29.26538589356079 -4.353388931968155 29.26538589356079 -5.46875 23.6328125 C-5.575093756563803 15.09872603575485 -2.977496603533737 7.879732082923212 0 0 Z " fill="#8A7B8D" transform="translate(101,57)"/>
<path d="M0 0 C42.24 0 84.48 0 128 0 C128 8.58 128 17.16 128 26 C122.20593443227156 25.172276347467367 120.20619173063892 24.84970353207892 115.5625 22.1875 C110.68502044872767 19.638187640078065 105.99735897961152 17.94953708034651 100.6875 16.625 C100.03015869140626 16.45766357421875 99.3728173828125 16.2903271484375 98.695556640625 16.117919921875 C91.26868981637142 14.335246598493224 91.26868981637142 14.335246598493224 84.08251953125 16.00634765625 C81.65134459761676 17.16635726702225 80.08848020258984 17.20415416093852 77.41015625 17.125 C76.54326171875 17.10953125 75.6763671875 17.0940625 74.783203125 17.078125 C72.97330406994618 17.026153742137723 71.16340821570245 16.974070893026745 69.353515625 16.921875 C62.94042596634253 16.760879859081783 62.94042596634253 16.760879859081783 57 19 C55.915689061101304 20.748674831642305 55.915689061101304 20.748674831642305 55 23 C53.394309272147815 25.37785410334798 51.700573178705994 27.689297512903305 50 30 C45.765702443443715 28.68938408963734 41.92592595921902 27.056437407209966 38 25 C38 25.66 38 26.32 38 27 C26.41827315526651 37.51407266666186 15.718845234621522 40 0 40 C0 26.799999999999997 0 13.599999999999998 0 0 Z " fill="#A6ACCB" transform="translate(0,0)"/>
<path d="M0 0 C3 2 3 2 4 5 C4.019279888497088 6.625019173326059 3.9942709086572847 8.250858352326375 3.9375 9.875 C3.852990502401518 15.220884497990298 3.852990502401518 15.220884497990298 6 20 C14.04213745599074 25.629496219193513 21.415130713471953 26.613779012527687 31 25 C32.333626630445536 24.667842056462064 33.66698733232357 24.33461338392695 35 24 C39.398361424628945 23.51129317504123 41.39731712795745 23.621846041071336 45.1875 26 C49.71829078271077 30.324293615670342 52.183460823536905 35.3575243060306 52.5 41.625 C52.22185633722222 47.19746441634115 49.67466208121414 50.37185630993069 45.75 54.1875 C40.52381754702995 57.63202934400299 37.63375248767278 59.40844289915782 31.34765625 58.43359375 C27.17351848518416 57.48285725886191 23.089199555617057 56.2606105237778 19 55 C17.8359765625 54.6609765625 16.671953125 54.32195312499999 15.47265625 53.97265625 C5.700615678113081 50.96494536940688 5.700615678113081 50.96494536940688 2 47 C2 46.34 2 45.68000000000001 2 45 C1.009999999999998 44.67 0.01999999999999602 44.34 -1 44 C-1.73828125 41.296875 -1.73828125 41.296875 -2.3125 37.75 C-3.3285826801248035 32.316166536723884 -4.723261208476089 28.193092238363846 -7.3125 23.25 C-9.887584824781985 18.010373309376604 -10.585318850708465 14.714980500197896 -8.90625 9.09375 C-7.237316240525807 5.237937521214803 -5.378392798717854 2.804062465918747 -1.75 0.6875 C-0.8837499999999991 0.3471874999999969 -0.8837499999999991 0.3471874999999969 0 0 Z " fill="#2E2F6F" transform="translate(38,54)"/>
<path d="M0 0 C6.855450418501743 2.83776814709222 10.08701669981114 5.757970746155664 13.02734375 12.59765625 C13.3483203125 13.390429687500003 13.669296875 14.183203125000006 14 15 C14.522070312499999 15.930058593750005 14.522070312499999 15.930058593750005 15.0546875 16.87890625 C16.357631488465167 19.80245412494456 16.681971997589997 22.719690991669097 17.1875 25.875 C18.678925929460064 32.909278404419354 18.678925929460064 32.909278404419354 23.5234375 37.8359375 C28.82769028311256 40.32910363464913 34.43438888062437 41.90925597421088 40.06884765625 43.4638671875 C42.72640627689079 44.20166727990545 45.36221888618988 45.007242998066516 48 45.8125 C49.333033865025584 46.20934067363427 50.66623011105651 46.60564015302873 52 47 C52 47.66 52 48.31999999999999 52 49 C52.9075 49.268125 53.815 49.536249999999995 54.75 49.8125 C60.24098504837292 51.818821459982416 60.24098504837292 51.818821459982416 62 54 C61.67 56.97 61.34 59.94 61 63 C41.53 63 22.059999999999995 63 2 63 C2 35 2 35 3 29 C3.5268378653964554 21.674927371506968 2.8276448614331713 15.432054456574264 0.66796875 8.42578125 C-0.12204936301602132 5.556768102731283 -0.2400921597334218 2.9611366367122116 0 0 Z " fill="#687A89" transform="translate(19,65)"/>
<path d="M0 0 C12.21 0 24.42 0 37 0 C37.433125 4.0218750000000005 37.86625 8.043750000000001 38.3125 12.1875 C38.46243408203125 13.44715576171875 38.6123681640625 14.7068115234375 38.766845703125 16.004638671875 C39.53657692243204 24.241358383204435 39.53657692243204 24.241358383204435 36.80078125 28.109375 C35.41439453125 29.045234375 35.41439453125 29.045234375 34 30 C33.316796875 30.5478515625 32.63359375 31.095703125 31.9296875 31.66015625 C21.197222027441533 38.985165954654924 13.626558381806309 40 0 40 C0 26.799999999999997 0 13.599999999999998 0 0 Z " fill="#D7E3E4" transform="translate(0,0)"/>
<path d="M0 0 C6.2700000000000005 0 12.540000000000001 0 19 0 C22.308413988234445 9.511690216174031 24.319709553702864 17.76776465314292 22.489013671875 27.80029296875 C22.012275560053606 30.919678736863432 21.90082138096356 33.797659351820215 21.9375 36.94921875 C21.945234375 38.04427734375 21.95296875 39.13933593749999 21.9609375 40.267578125 C21.973828125 41.39615234375 21.98671875 42.52472656250001 22 43.6875 C22.02548172402578 45.941358490080404 22.04652401006642 48.19527283687066 22.0625 50.44921875 C22.0741015625 51.442683105468745 22.085703125 52.43614746093749 22.09765625 53.459716796875 C22 56 22 56 21 59 C14.07 59 7.139999999999999 59 0 59 C0 39.53 0 20.060000000000002 0 0 Z " fill="#959BC5" transform="translate(0,69)"/>
<path d="M0 0 C4.200546760602705 6.300820140904058 5.07862444963375 16.499797431616464 4 24 C3.375230176428815 25.972099530055146 2.7049558451221714 27.93012181735797 2 29.875 C-0.05293375431564584 35.679337880906814 -1.2284551782880726 40.876623418994825 0 47 C2.7500631181486597 52.70086077046878 7.520178552163401 56.35883143166237 12.296875 60.32421875 C14.608182744134922 62.59841834227956 15.386038537068174 64.85344750247434 16 68 C7.273702743976742 75.27608166619704 -3.7180249796973044 80.81686071138533 -15.0625 82.4375 C-19.17110613054315 81.82557993800421 -22.41632457496155 80.03741953098633 -26 78 C-23.738766368642317 75.73876636864232 -22.18448309064513 75.27445598900613 -19.1875 74.25 C-13.568406178654186 72.090059311448 -10.721092266998568 69.44218453399715 -8 64 C-7.067846937360642 57.70130859102261 -8.352558230979653 53.66543896130392 -11.62109375 48.3203125 C-15.4057330316935 41.95182600332595 -18.24001242833205 35.44007456999228 -17 28 C-15.611129090204557 26.18251610914008 -14.172929963957586 24.778611246858624 -12.41015625 23.32421875 C-10.717753423501321 21.945076247488586 -10.717753423501321 21.945076247488586 -10 19 C-9.340000000000003 19 -8.680000000000007 19 -8 19 C-7.731875000000002 18.2575 -7.4637500000000045 17.515 -7.1875 16.75 C-6 14 -6 14 -4.53125 12.15625 C-2.8051152513289708 9.725570455953033 -2.1040030056014842 7.614487067891069 -1.3125 4.75 C-1.0611328125000057 3.8579687499999977 -0.8097656249999972 2.9659375000000026 -0.55078125 2.046875 C-0.36902343750000455 1.3714062499999997 -0.18726562499999488 0.6959374999999994 0 0 Z " fill="#5A484B" transform="translate(97,36)"/>
<path d="M0 0 C4.052817121265292 1.2252702924755532 7.44360763729653 2.698804941780107 11 5 C7.709796187626473 13.636785007480505 0.11493026520036409 17.179727704949904 -7.80078125 21.01953125 C-10.000000000000025 22.000000000000014 -10.000000000000025 22.000000000000014 -13 23 C-14.067167035791211 24.799325791909197 -14.067167035791211 24.799325791909197 -15 27 C-15.5014453125 27.7412109375 -16.002890625 28.482421875 -16.51953125 29.24609375 C-18.228720138500673 32.42545566660416 -18.490491320265033 34.7269420288236 -18.6875 38.3125 C-18.7532421875 39.3811328125 -18.818984375 40.449765625 -18.88671875 41.55078125 C-18.9241015625 42.3590234375 -18.961484375 43.167265625 -19 44 C-20.47746193631662 44.20049065941666 -21.957160234334605 44.38449871919701 -23.4375 44.5625 C-24.67306640625 44.719121093750005 -24.67306640625 44.719121093750005 -25.93359375 44.87890625 C-29.963243956603655 45.038038933318106 -33.99187452749075 44.44534727472325 -38 44 C-38 34.43 -38 24.86 -38 15 C-33.38 14.670000000000002 -28.759999999999998 14.340000000000003 -24 14 C-16.69599262281846 12.177628378059076 -10.333960753232617 9.103879415402304 -4.5859375 4.234375 C-3 3 -3 3 0 2 C0 1.3399999999999999 0 0.6799999999999997 0 0 Z " fill="#A69299" transform="translate(38,25)"/>
<path d="M0 0 C16.5 0 33 0 50 0 C50 8.58 50 17.16 50 26 C42.35499515033948 24.9078564500485 42.35499515033948 24.9078564500485 37.875 22.25 C31.33386226499097 18.771907727196975 24.635733518758656 17.30120615067691 17.38623046875 15.9130859375 C10.704951430526307 14.535374673812782 6.734855162731606 12.648911032628526 2.5390625 7.05078125 C0 2.2222222222222223 0 2.2222222222222223 0 0 Z " fill="#AECACE" transform="translate(78,0)"/>
<path d="M0 0 C3.683626197386957 2.018974794212088 5.381435908831563 3.5954390651570804 7.33984375 7.3671875 C7.971805347739931 14.950726672879156 4.455210688171377 22.299853617792422 -0.34765625 28.1171875 C-1.0076562499999966 28.1171875 -1.6676562499999932 28.1171875 -2.34765625 28.1171875 C-2.430156249999996 28.6946875 -2.512656249999992 29.2721875 -2.59765625 29.8671875 C-3.5960648614704667 32.86241333441142 -4.828791557437668 34.228038980578255 -7.34765625 36.1171875 C-10.774920140527882 36.20506606129559 -12.10934406930113 35.31787144164115 -14.72265625 33.1171875 C-19.716914363645827 27.409463941547614 -24.181004088360652 21.453781049976698 -28.34765625 15.1171875 C-21.245735095106 4.874961072533814 -13.986144110843583 -5.259348700583445 0 0 Z " fill="#303759" transform="translate(89.34765625,26.8828125)"/>
<path d="M0 0 C6.855450418501743 2.83776814709222 10.08701669981114 5.757970746155664 13.02734375 12.59765625 C13.3483203125 13.390429687500003 13.669296875 14.183203125000006 14 15 C14.522070312499999 15.930058593750005 14.522070312499999 15.930058593750005 15.0546875 16.87890625 C16.357631488465167 19.80245412494456 16.681971997589997 22.719690991669097 17.1875 25.875 C18.678925929460064 32.909278404419354 18.678925929460064 32.909278404419354 23.5234375 37.8359375 C28.82769028311256 40.32910363464913 34.43438888062437 41.90925597421088 40.06884765625 43.4638671875 C42.72640627689079 44.20166727990545 45.36221888618988 45.007242998066516 48 45.8125 C49.333033865025584 46.20934067363427 50.66623011105651 46.60564015302873 52 47 C52 47.66 52 48.31999999999999 52 49 C41.71099607951367 49.09315999525592 31.525185612971008 49.11047243526049 21.265625 48.2109375 C16.715204900529585 47.91701084285717 12.197942824290035 48.06691731686084 7.64453125 48.2578125 C5 48 5 48 3.15234375 46.79296875 C1.6462492641206268 44.44958783807243 1.6648889371499607 42.957865095768824 1.75 40.1875 C1.7757812500000014 39.291601562500006 1.8015624999999993 38.395703125 1.828125 37.47265625 C2 35 2 35 2.5 32.125 C3.8295543360039908 23.815285399975053 3.134673587055257 16.42809600307598 0.66796875 8.42578125 C-0.12204936301602132 5.556768102731283 -0.2400921597334218 2.9611366367122116 0 0 Z " fill="#4E5D8E" transform="translate(19,65)"/>
<path d="M0 0 C1.356516403194874 1.309739975498502 2.685576376225981 2.648021415546708 4 4 C8.08797791285427 7.192430701488959 8.08797791285427 7.192430701488959 13 8 C13 13.280000000000001 13 18.560000000000002 13 24 C-2.8400000000000034 24 -18.680000000000007 24 -35 24 C-35 21.03 -35 18.060000000000002 -35 15 C-33.948125000000005 14.608125000000001 -32.896249999999995 14.216250000000002 -31.8125 13.8125 C-31.082890625000005 13.535351562499997 -30.353281249999995 13.258203124999994 -29.6015625 12.97265625 C-27.728876996458425 12.27250806624346 -25.84745373854973 11.59557181314149 -23.9609375 10.93359375 C-17.09568476584201 8.45128876378297 -11.240110803267584 5.529097873490343 -5.2421875 1.35546875 C-3 0 -3 0 0 0 Z " fill="#8F756A" transform="translate(115,104)"/>
<path d="M0 0 C1.309042968749992 -0.029970703125000497 1.309042968749992 -0.029970703125000497 2.64453125 -0.060546875 C8.654924926689162 -0.05602778201000902 12.167549427273698 1.0267199738054735 17.125 4.4375 C17.125 5.0975 17.125 5.7575 17.125 6.4375 C17.784999999999997 6.4375 18.444999999999993 6.4375 19.125 6.4375 C19.125 7.0975 19.125 7.7575 19.125 8.4375 C20.11500000000001 8.767499999999998 21.10499999999999 9.0975 22.125 9.4375 C24.76158349115363 12.986747007322204 25.617895808473463 16.076403952871754 26.125 20.4375 C25.465000000000003 20.4375 24.805000000000007 20.4375 24.125 20.4375 C23.939375 19.695 23.753749999999997 18.9525 23.5625 18.1875 C21.590738312926362 14.415434163859121 19.048568223049415 12.786226576673236 15.125 11.4375 C9.697536436452395 10.576412030783313 4.591969433969183 10.79414956734973 -0.1796875 13.8125 C-2.47609438949641 16.013664207443572 -3.9317079146991887 18.562670050858628 -5.625 21.25 C-9.083140432098766 26.276987925425423 -9.083140432098766 26.276987925425423 -12.4765625 26.96484375 C-15.362412461094735 26.676258753890522 -18.05525924084081 26.11034848459937 -20.875 25.4375 C-22.767932427532543 25.22268123319057 -24.664016400187933 25.033430738881066 -26.5625 24.875 C-28.000051966178617 24.729679816793762 -29.43757278170243 24.58404897887199 -30.875 24.4375 C-30.091250000000002 23.57125 -29.307499999999997 22.705 -28.5 21.8125 C-26.316512543005416 19.29189452707989 -24.326858237915033 16.696902296049217 -22.42578125 13.9609375 C-21.779719238281245 13.032087402343748 -21.779719238281245 13.032087402343748 -21.12060546875 12.08447265625 C-20.26070517212665 10.837472786006735 -19.409177233669183 9.58465025165841 -18.56689453125 8.32568359375 C-13.286829148833924 0.6713747246128072 -8.800286635017784 -0.07086614420585313 0 0 Z " fill="#6C6F92" transform="translate(71.875,15.5625)"/>
<path d="M0 0 C4.530790782710767 4.324293615670328 6.995960823536905 9.357524306030598 7.3125 15.625 C7.034356337222221 21.19746441634115 4.4871620812141515 24.371856309930678 0.5625 28.1875 C-3.660646735687635 30.97093762124868 -7.5094809689733495 33.27861378117824 -12.703125 32.73828125 C-14.905372368662071 32.25004716355133 -17.04088085745181 31.690694585218054 -19.1875 31 C-19.1875 30.00999999999999 -19.1875 29.019999999999996 -19.1875 28 C-18.197500000000005 27.67 -17.207499999999996 27.340000000000003 -16.1875 27 C-15.23157731576859 24.770179069099356 -15.23157731576859 24.770179069099356 -14.625 22.125 C-13.77217634381968 18.81970605570791 -13.11435015551399 16.890275233270984 -11.1875 14 C-10.79828097793667 11.062068555581433 -10.79828097793667 11.062068555581433 -12.1875 8 C-15.000966550745488 5.66778430661887 -18.016333311538304 3.806604052820603 -21.1875 2 C-15.035889112731184 -2.1010739248458776 -6.484762510898079 -4.068870595073307 0 0 Z " fill="#2C1B3B" transform="translate(83.1875,80)"/>
<path d="M0 0 C2.8485458345830637 2.113437232110016 3.7840024678875466 4.105173796119594 4.9375 7.4375 C4.143306874607518 11.849684029958247 2.615851239572251 14.810106257448396 -1.0625 17.4375 C-4.7053753197878905 17.53090705948174 -5.948314151493264 16.53809229511308 -8.6875 14.125 C-14.0625 8.04276315789474 -14.0625 8.04276315789474 -14.0625 4.4375 C-12.81514432836103 3.78657410339229 -11.564481680407184 3.141983306924125 -10.3125 2.5 C-9.616406249999997 2.140351562500001 -8.920312499999994 1.7807031250000023 -8.203125 1.41015625 C-5.30324775869957 0.09251129911713463 -3.1270924464130587 -0.8528433944762881 0 0 Z " fill="#2C1B3B" transform="translate(83.0625,45.5625)"/>
<path d="M0 0 C3 2 3 2 4 5 C4.069370623026984 7.228184411626742 4.084570839184785 9.458345242336634 4.0625 11.6875 C4.053476562500002 12.866992187500003 4.044453125000004 14.046484375000006 4.03515625 15.26171875 C4.023554687500003 16.165351562500007 4.011953124999998 17.068984375 4 18 C-0.3423901201546471 17.198903891626642 -4.055990625251027 16.047851021504272 -8 14 C-9.1875 12.25 -9.1875 12.25 -9 10 C-6.750084856726808 5.06749372436262 -5.033037691671865 2.3767122432894894 0 0 Z " fill="#2C1B3B" transform="translate(38,54)"/>
</svg>
