<?xml version="1.0" encoding="UTF-8"?>
<!-- Generator: visioncortex VTracer 0.6.0 -->
<svg version="1.1" xmlns="http://www.w3.org/2000/svg" width="128" height="128">
<path d="M0 0 C42.24 0 84.48 0 128 0 C128 42.24 128 84.48 128 128 C85.75999999999999 128 43.519999999999996 128 0 128 C0 85.75999999999999 0 43.519999999999996 0 0 Z " fill="#9899B2" transform="translate(0,0)"/>
<path d="M0 0 C4.8344081829057615 4.014437890398781 11.367911418429244 9.598561661825158 12.299560546875 16.0859375 C12.35735686723281 18.424038424867987 12.300561001984434 20.72654472171157 12.1875 23.0625 C11.89591204088974 30.084585131872018 11.89591204088974 30.084585131872018 13 37 C14.278750000000002 37.020625 15.557500000000005 37.04125 16.875 37.0625 C23.218087087895427 37.65318862566362 28.75375298495743 40.03864649098546 34.57763671875 42.472900390625 C35.3202978515625 42.78090576171875 36.062958984375 43.0889111328125 36.828125 43.40625 C37.487158203125006 43.68791015625 38.14619140625 43.9695703125 38.8251953125 44.259765625 C41.582045918747326 45.26371328620775 41.582045918747326 45.26371328620775 47 46 C47 66.13 47 86.26 47 107 C28.849999999999994 107 10.699999999999989 107 -8 107 C-8.990000000000009 104.03 -9.97999999999999 101.06 -11 98 C-15.302688086022442 88.4820410370005 -15.302688086022442 88.4820410370005 -23.701416015625 82.711669921875 C-29.770897616894487 80.83248363746708 -36.28739729220076 80.40687835494671 -42.572265625 79.626953125 C-53.47839121287858 78.12978826830674 -53.47839121287858 78.12978826830674 -58 74 C-58.33 73.01 -58.66 72.02 -59 71 C-57.8125 69.20312500000001 -57.8125 69.20312500000001 -56 67.25 C-55.3541796875 66.5423046875 -54.708359375 65.834609375 -54.04296875 65.10546875 C-52.1848951098456 63.19055155680073 -50.265115802795265 61.3795763110611 -48.3125 59.5625 C-42.302456146964886 53.579467580012235 -40.63199390988437 46.84328765098246 -39.8828125 38.578125 C-40.014637342348315 35.677978468337024 -40.784824387360615 33.61875054506782 -42 31 C-40.019999999999996 30.505000000000003 -40.019999999999996 30.505000000000003 -38 30 C-38.12375 28.081874999999997 -38.12375 28.081874999999997 -38.25 26.125 C-38.219455155526326 16.396467035135295 -33.14984565729603 8.243236640718493 -26.4921875 1.46484375 C-18.36842601088317 -5.829528477138933 -8.935524708183863 -5.496422414999694 0 0 Z " fill="#427188" transform="translate(81,21)"/>
<path d="M0 0 C4.827294327846047 4.008530625596542 11.36221604812367 9.593209173587987 12.299560546875 16.06982421875 C12.35746312119926 18.39250128312841 12.300463021825067 20.679471483864653 12.1875 23 C12.012923908051519 28.160639596135525 11.930552211935975 32.90583649044312 13 38 C12.010000000000005 38.495 12.010000000000005 38.495 11 39 C11.887519531250007 39.146953124999996 11.887519531250007 39.146953124999996 12.79296875 39.296875 C17.826262697568296 40.2493417176475 21.41551147648451 41.10826960304032 25 45 C28.475485977478186 50.144633848240744 29.952414515041625 54.827389472135266 29 61 C27.426094269354962 68.82368673874038 22.36104054828388 73.68970056462886 16.16796875 78.390625 C12.055902905783768 81.02680265182259 8.80083019817286 81.61101475249473 4 81 C-0.7768979111006615 79.03153334401624 -3.5422504666292696 76.66188305884172 -6.875 72.75 C-10.48462600013454 68.6223763110244 -14.129756472641873 64.96160905573161 -18.40625 61.53515625 C-21.23646711636735 58.8089912334991 -21.94425947631177 56.50166471319402 -22.375 52.625 C-21.937160931590476 48.392555672041254 -20.58860405593923 46.31664894667213 -18 43 C-20.556490883490703 42.468360847013685 -23.099668966832127 41.98534706601158 -25.68359375 41.60546875 C-31.306586225382738 40.75205003387808 -35.63452793184372 39.91773134321718 -40 36 C-41.375 33.25 -41.375 33.25 -42 31 C-40.02 30.505000000000003 -40.02 30.505000000000003 -38 30 C-38.0825 28.721249999999998 -38.165 27.442499999999995 -38.25 26.125 C-38.219455155526326 16.396467035135295 -33.14984565729603 8.243236640718493 -26.4921875 1.46484375 C-18.36842601088317 -5.829528477138933 -8.935524708183863 -5.496422414999696 0 0 Z " fill="#2879AC" transform="translate(81,21)"/>
<path d="M0 0 C19.47 0 38.94 0 59 0 C59 22.11 59 44.22 59 67 C52.05034259497933 66.22781584388659 48.56257724862587 65.70408406317328 42.5625 63.0625 C36.79099208635256 60.60117520107297 31.227523943251867 58.849873855784956 25 58 C23.460845388452725 53.45919903873029 22.861539496756848 50.00794048513428 23.18115234375 45.152099609375 C23.556912868867585 39.352955297012095 23.626867770848307 34.707380032522686 19.875 29.9375 C18.61299220002006 28.596457368102126 17.321920686563928 27.28202368395133 16 26 C14.925459741795535 24.781344930695177 13.862103931531166 23.552696972806643 12.8125 22.3125 C12.325234375000008 21.753046875 11.837968750000002 21.19359375 11.3359375 20.6171875 C9.352368857232378 18.216025458754977 7.713560001320687 15.597978066518468 6 13 C5.113124999999997 12.030625 4.226249999999993 11.06125 3.3125 10.0625 C1 7 1 7 0 0 Z " fill="#63A1AC" transform="translate(69,0)"/>
<path d="M0 0 C16.17 0 32.34 0 49 0 C49.99000000000001 2.97 50.97999999999999 5.94 52 9 C53.6774089876796 11.511867620565504 53.6774089876796 11.511867620565504 55.625 13.375 C57.93274631582737 15.741170273190091 58.93401459068541 16.8020437720562 60 20 C58.824375 19.67 57.64875000000001 19.34 56.4375 19 C49.514436906150934 17.30877720554478 43.24078668475088 17.33184530166516 37 21 C28.485756369067047 28.509457115481233 24.62311521733598 37.13703035582609 23.5546875 48.27734375 C23 51 23 51 20 53 C20.331289062500005 53.554296875 20.662578124999996 54.10859375 21.00390625 54.6796875 C23.168134971370648 59.721067345075156 21.80732957214856 65.56715034760612 20.12890625 70.625 C17.454823524321817 76.54684409838767 13.731502641119661 80.69738158780348 8.98828125 85.08984375 C6.821553319853884 87.03396930515157 6.821553319853884 87.03396930515157 5 90 C2.0000000000000036 89 2.0000000000000036 89 0.4375 86.55859375 C-1.355497497307013 82.11995048900357 -2.180012131390434 77.76353214503705 -3 73.0625 C-4.211571810886399 65.93769128777681 -4.211571810886399 65.93769128777681 -6.59765625 59.1484375 C-8.71275313868319 54.399779861340804 -8.982821286027942 50.05354537923147 -7.37890625 45.0703125 C-4.849768027079044 39.65233639578711 -1.2320012890741694 34.80552636219231 2.1953125 29.9296875 C4.920202740503896 25.506164382298866 6.653848174562349 21.23895849868081 6 16 C4.710091537377004 12.96588366404573 4.710091537377004 12.96588366404573 3 9.9375 C0 4.4305555555555545 0 4.4305555555555545 0 0 Z " fill="#638BB8" transform="translate(20,0)"/>
<path d="M0 0 C5.0216933049024135 4.3043085470592075 7.731531166618467 8.22582205505745 8.375 14.875 C7.980400822261288 22.858044903483034 4.919715765838674 27.841927588581257 -0.88671875 33.234375 C-4.920662325323406 36.60469384666577 -8.194791872265256 38.77830777378696 -13.5625 39.4375 C-20.07133109002514 38.60910331581499 -23.705166374014425 35.64442766591094 -27.875 30.75 C-31.48462600013457 26.622376311024368 -35.12975647264189 22.9616090557316 -39.40625 19.53515625 C-42.23646711636737 16.80899123349907 -42.94425947631177 14.501664713194032 -43.375 10.625 C-42.925732227393944 6.282078198141434 -41.83374280298134 4.2932686629242625 -39 1 C-35.405192758049694 -0.8126100813894936 -32.61976691870318 -1.2055790443661607 -28.625 -1.0625 C-25.452521446135975 -0.9990504289227218 -22.65314585048486 -1.049550592787881 -19.5 -1.5 C-12.796065314982954 -2.457704955002434 -6.215866557709916 -3.014069522111015 0 0 Z " fill="#20595D" transform="translate(102,63)"/>
<path d="M0 0 C11.219999999999999 0 22.439999999999998 0 34 0 C34 16.5 34 33 34 50 C26.11888111888112 48.87412587412588 26.11888111888112 48.87412587412588 23.125 46 C22.459843750000005 45.3709375 21.794687499999995 44.741875 21.109375 44.09375 C20.413281249999997 43.4028125 19.717187499999994 42.711875 19 42 C18.242031249999997 41.2678125 17.484062499999993 40.535625 16.703125 39.78125 C14.431164431018402 37.55503360354823 12.213915585396691 35.2837422365131 10 33 C9.418632812499993 32.44828125 8.837265625 31.8965625 8.23828125 31.328125 C-0.2915674218462385 22.64787597373834 0 11.54899411106533 0 0 Z " fill="#A7BEC5" transform="translate(94,0)"/>
<path d="M0 0 C3.112174408137342 4.668261612206013 4.13058551277949 9.303934559206748 4.98828125 14.811279296875 C6.296024666178411 23.13534186988411 8.588070646075067 28.791953796825915 13.875 35.3125 C16.103515073814854 40.63617489855771 14.910140673176429 46.27364110847596 13.125 51.62109375 C10.461713915965184 57.5487547912025 6.7311265161981595 61.69772989844506 1.98828125 66.08984375 C-0.17844668014612708 68.0339693051516 -0.17844668014612708 68.0339693051516 -2 71 C-4.9999999999999964 70 -4.9999999999999964 70 -6.5625 67.55859375 C-8.35549749730701 63.11995048900357 -9.180012131390434 58.76353214503703 -10 54.0625 C-11.2115718108864 46.9376912877768 -11.2115718108864 46.9376912877768 -13.59765625 40.1484375 C-15.71275313868319 35.399779861340804 -15.98282128602794 31.053545379231466 -14.37890625 26.0703125 C-11.848848934022135 20.650367494216304 -8.197130938562001 15.848396982470867 -4.83984375 10.921875 C-2.594648507493069 7.356257077717228 -1.234902178399551 4.0134320797985445 0 0 Z " fill="#768A94" transform="translate(27,19)"/>
<path d="M0 0 C6.6000000000000005 0 13.200000000000001 0 20 0 C20.944010416666668 2.7018229166666665 21.888020833333332 5.403645833333334 22.83203125 8.10546875 C23.91818591831982 11.037011867662372 23.91818591831982 11.037011867662372 25.63671875 13.62890625 C27.30496397747067 16.530410127004863 27.205692593385226 18.579302792967063 26.6328125 21.83984375 C24.521934072439095 29.04549665395791 19.522356659709835 35.40718614105151 15.453125 41.6171875 C12.9370190193032 45.74306021028239 12.890512340969 48.94174643786906 12.9375 53.6875 C12.9465234375 54.8669921875 12.955546875 56.046484375 12.96484375 57.26171875 C12.9764453125 58.1653515625 12.988046875 59.068984375 13 60 C11.208415105645498 60.02696365225617 9.416715265050815 60.04637916856638 7.625 60.0625 C6.627265625 60.0741015625 5.629531249999999 60.085703125 4.6015625 60.09765625 C2.0000000000000004 60 2.0000000000000004 60 0 59 C0 39.53 0 20.059999999999995 0 0 Z " fill="#A19CA2" transform="translate(0,0)"/>
<path d="M0 0 C0 10.560000000000002 0 21.120000000000005 0 32 C-14.849999999999994 32 -29.700000000000003 32 -45 32 C-44.67 29.36 -44.34 26.72 -44 24 C-43.34 24 -42.68000000000001 24 -42 24 C-41.99484375 23.408320312499995 -41.9896875 22.816640625000005 -41.984375 22.20703125 C-41.713178257193036 19.43630452765555 -41.27335366716794 17.48767769413604 -40 15 C-37.314640436937765 13.287732404040455 -34.65334540941241 12.360845570848795 -31.64453125 11.3203125 C-27.42715939472683 9.79247575071561 -23.54403667748153 7.863803105088095 -19.5625 5.8125 C-12.464942809876021 2.1720524051133907 -8.19183230466112 0 0 0 Z " fill="#678393" transform="translate(128,96)"/>
<path d="M0 0 C0.5756469726562514 0.2983374023437477 1.1512939453124993 0.5966748046874955 1.744384765625 0.904052734375 C9.612932124884303 4.727183927763349 17.6633926531617 5.803781907225016 26.271484375 6.728515625 C33.33902348451335 7.602264059168078 39.29363446328661 9.057888336395195 44.2421875 14.4375 C44.78101562500001 15.283124999999998 45.31984374999999 16.128749999999997 45.875 17 C46.706445312499994 18.268437500000005 46.706445312499994 18.268437500000005 47.5546875 19.5625 C48.031640624999994 20.366874999999993 48.50859375 21.17125 49 22 C49.373828125 22.598124999999996 49.747656250000006 23.196249999999992 50.1328125 23.8125 C51 26 51 26 52 34 C44.08 34 36.16 34 28 34 C26.68 31.36 25.36 28.72 24 26 C21.70566762323884 23.794248005572612 21.70566762323884 23.794248005572612 19 22.3125 C18.0396484375 21.744023437500005 17.079296874999997 21.175546874999995 16.08984375 20.58984375 C12.04828900042952 18.510307993899886 7.91109013406269 16.852663083436312 3.62890625 15.3359375 C0.44066728137230626 13.715762570920248 -1.042232051417244 11.96852256389758 -3 9 C-3.4375 5.875 -3.4375 5.875 -3 3 C-1.5 1.125 -1.5 1.125 0 0 Z " fill="#618EC0" transform="translate(21,94)"/>
<path d="M0 0 C0.5710546874999949 0.193359375 1.142109375000004 0.38671875 1.73046875 0.5859375 C8.735132900284498 2.835448085623952 15.716405999752354 4.029615219402743 23 5 C22.0409375 6.175624999999997 22.0409375 6.175624999999997 21.0625 7.375 C17.849904171756442 11.46375832685544 17.564469767638258 13.773637211659121 18 19 C20.555866923526885 24.222858495902756 24.673242167708707 27.516094564694455 29.07421875 31.16796875 C31 33 31 33 32 36 C31.340000000000003 36 30.680000000000007 36 30 36 C30 35.34 30 34.68000000000001 30 34 C22.750684661989368 32.458704126332876 15.65612414310975 31.569285445320716 8.29296875 32.73828125 C0.2552251236899892 33.655706842781555 -8.02555568672581 33.27591109012387 -16 32 C-15.471123520098757 28.011016380405877 -13.616282923668042 26.444090548434957 -10.6875 23.8125 C-3.5642368144291083 16.892758619731126 -1.527388909401445 9.62656957372755 0 0 Z " fill="#3E6F79" transform="translate(42,58)"/>
<path d="M0 0 C9.775077153286027 0.15214127865036176 20.727889080916647 6.5711224706576985 27.4375 13.4375 C29.07078080705925 16.114840057141436 29.4375 17.236804535415615 29.4375 20.4375 C13.267499999999998 20.4375 -2.9025000000000034 20.4375 -19.5625 20.4375 C-19.5625 15.157499999999999 -19.5625 9.877499999999998 -19.5625 4.4375 C-12.954064571865548 2.0991305408139596 -6.954773292787111 0.8540949657808738 0 0 Z " fill="#AFB7DB" transform="translate(19.5625,107.5625)"/>
<path d="M0 0 C4.022356000284617 2.9050348890944484 6.639171042756203 5.619183633479672 9 10 C9.44137345604733 13.022804039564036 9.33572749304679 15.955055566564113 9.1875 19 C9.012923908051519 24.160639596135525 8.930552211935975 28.90583649044312 10 34 C2.7646757675642135 37.32824914692046 -4.099243618682834 37.73470702602083 -12 38 C-13.197539062499999 38.04125 -14.395078124999998 38.0825 -15.62890625 38.125 C-35.780624211756745 38.47892698944908 -35.780624211756745 38.47892698944908 -43 32 C-44.375 29.25 -44.375 29.25 -45 27 C-41.979196664652726 26.101338075864433 -40.42360463057136 25.841631095561468 -37.4296875 26.9609375 C-36.586640625 27.427578124999997 -35.74359375 27.89421875 -34.875 28.375 C-27.658233292496874 32.301447539948505 -22.09333109626047 32.5791865553679 -14 31 C-14 30.340000000000003 -14 29.68 -14 29 C-13.340000000000003 29 -12.680000000000007 29 -12 29 C-12 28.340000000000003 -12 27.68 -12 27 C-11.340000000000003 27 -10.680000000000007 27 -10 27 C-10 26.340000000000003 -10 25.68 -10 25 C-9.340000000000003 25 -8.680000000000007 25 -8 25 C-7.712539062499999 24.4237890625 -7.425078124999999 23.847578125 -7.12890625 23.25390625 C-6.420080462545158 21.838707359475976 -5.700305889497642 20.42888480828796 -4.96484375 19.02734375 C-2.3530117593956135 13.714301487743931 -1.4628724365578023 9.093375837760334 -1.17578125 3.1875 C-1 0.9999999999999964 -1 0.9999999999999964 0 0 Z " fill="#257E9C" transform="translate(84,25)"/>
<path d="M0 0 C8.25 0 16.5 0 25 0 C26 6.000000000000001 26 6.000000000000001 25.9375 9.41015625 C26.007156081344334 13.411027422215009 26.835658356532832 16.617003982373355 28 20.4375 C28.371250000000003 21.6737109375 28.742500000000007 22.909921875000002 29.125 24.18359375 C29.558125000000004 25.57771484375 29.558125000000004 25.57771484375 30 27 C27.750000000000014 29.49999999999999 27.750000000000014 29.49999999999999 25 32 C21 32 21 32 18.8515625 30.12890625 C14.647296482146317 25.28293647152654 10.768671065394756 20.455132332242357 7.34765625 15.0234375 C6.084392742345514 13.12671142184051 4.734639169830061 11.541149875201599 3.1875 9.875 C1 7 1 7 0 0 Z " fill="#7BA0BD" transform="translate(69,0)"/>
</svg>
