<?xml version="1.0" encoding="UTF-8"?>
<!-- Generator: visioncortex VTracer 0.6.0 -->
<svg version="1.1" xmlns="http://www.w3.org/2000/svg" width="128" height="128">
<path d="M0 0 C42.24 0 84.48 0 128 0 C128 42.24 128 84.48 128 128 C85.75999999999999 128 43.519999999999996 128 0 128 C0 85.75999999999999 0 43.519999999999996 0 0 Z " fill="#AACEC3" transform="translate(0,0)"/>
<path d="M0 0 C42.24 0 84.48 0 128 0 C128 16.830000000000002 128 33.660000000000004 128 51 C122.02898550724639 49.80579710144928 122.02898550724639 49.80579710144928 120 47 C118.94328177526081 44.58629389103289 118.00513920911278 42.22619939706664 117.125 39.75 C116.868154296875 39.04705810546875 116.61130859375 38.3441162109375 116.3466796875 37.619873046875 C114.1377511870677 31.522168138930752 112.08272362459097 25.374513018324865 110.078125 19.20703125 C109.72234375 18.1487109375 109.3665625 17.090390625 109 16 C108.7176953125 15.074453125 108.435390625 14.14890625 108.14453125 13.1953125 C107.17101600251165 10.854866014661427 107.17101600251165 10.854866014661427 104.93359375 9.78515625 C98.86002980565898 8.02676919256168 93.91649922825721 7.382183873211591 88 10 C85.16588845450237 12.33349200356018 85.16588845450237 12.33349200356018 83 15 C81.25 17 81.25 17 79 18 C75.84733060142962 17.411766087059195 72.96444057917027 16.20021490724398 70 15 C68.12921633925914 14.260082759706984 66.25409310706499 13.531052797474644 64.375 12.8125 C63.516484375 12.4683203125 62.65796875 12.124140625 61.7734375 11.76953125 C51.761599617023045 8.991598766976818 39.97507277246487 13.188602010870998 31 17.8125 C24.103322015598607 21.8868767259038 19.082057765090745 26.51251503396034 16 34 C15.405412789410269 37.068469249853955 15.126986566262705 40.13673670389334 14.875 43.25 C14.721453541417532 44.94662357980102 14.567808683653343 46.64323825740838 14.4140625 48.33984375 C14.344775390625 49.1466357421875 14.27548828125 49.953427734375 14.2041015625 50.78466796875 C13.956642650271196 53.47060357827652 13.601102927785904 56.13840211977015 13.25 58.8125 C12.886558579315425 62.68920848730213 13.188459301389289 65.45926136180634 15 69 C15.863671875 69.6999609375 16.72734375 70.399921875 17.6171875 71.12109375 C20.128468523089317 74.15521524838825 20.344565563276934 74.46353635463632 20.15625 78.109375 C19.96802685209711 79.66026051309197 19.747872389740408 81.20752370957302 19.5 82.75 C19.39196044921875 83.55187744140625 19.2839208984375 84.3537548828125 19.172607421875 85.179931640625 C18.368730056592298 90.72257312416843 16.93636969980067 95.74413938625533 15 101 C16.556946786027805 105.67084035808341 19.71966484013142 107.73582424486614 24 110 C28.219498914587533 111.07593011245221 32.4161582342524 111.4669026065731 36.75 111.8125 C38.97411471082394 112.02571880408014 41.1980806332048 112.24049691201456 43.421875 112.45703125 C44.397373046875 112.53928955078125 45.37287109375 112.6215478515625 46.3779296875 112.706298828125 C48.68087837111064 112.9642548119596 50.7657747188742 113.41220301765253 53 114 C62.27241970599485 114.78123978185869 71.17253465589718 113.72711635796672 80.3125 112.25 C81.313779296875 112.09313720703125 82.31505859375 111.9362744140625 83.3466796875 111.774658203125 C92.31114553132365 110.2299547911934 100.37861598171612 107.69900343201435 107.6875 102.125 C108.6014453125 101.4340625 109.515390625 100.743125 110.45703125 100.03125 C112.65001449931265 98.2795583108409 114.77380560484292 96.4846254082952 116.875 94.625 C120.36571049499294 91.55183860727894 123.26677064520945 90 128 90 C128 102.54 128 115.08 128 128 C85.75999999999999 128 43.519999999999996 128 0 128 C0 85.75999999999999 0 43.519999999999996 0 0 Z " fill="#669A85" transform="translate(0,0)"/>
<path d="M0 0 C3.225172050328979 1.7423343260397957 6.169262943929255 3.692028655415413 8.8125 6.25 C8.8125 6.909999999999997 8.8125 7.57 8.8125 8.25 C12.230472312270848 6.961769995453707 15.646639675497028 5.66881865502144 19.0625 4.375 C20.030585937500007 4.010195312499999 20.998671875 3.645390625000001 21.99609375 3.26953125 C23.39794921875 2.73779296875 23.39794921875 2.73779296875 24.828125 2.1953125 C25.686962890624997 1.8706298828125014 26.545800781249994 1.5459472656249993 27.4306640625 1.21142578125 C29.802551885084 0.29643671827450646 29.802551885084 0.29643671827450646 31.9443359375 -0.84814453125 C34.7498538332531 -2.20250719550927 36.733041207726856 -2.1195350550727774 39.8125 -1.75 C46.830995350584914 1.4668103690180843 49.97568941100076 7.950798404009014 52.890625 14.7734375 C54.95576379415482 20.724792024973432 55.37619841688654 26.112217778615417 53.8125 32.25 C51.10894277503603 37.36744760439608 47.435771571693266 42.37557614276891 41.8125 44.25 C33.30058124839847 45.292275765502225 26.813366916848253 40.492949646574715 19.8125 36.25 C18.82249999999999 35.92 17.83250000000001 35.59 16.8125 35.25 C16.42578125 36.020859375 16.0390625 36.79171875 15.640625 37.5859375 C15.119843750000001 38.58882812499999 14.599062500000002 39.59171875 14.0625 40.625 C13.296796874999998 42.121601562500004 13.296796874999998 42.121601562500004 12.515625 43.6484375 C10.722111600670047 46.38807035310492 9.969517908269651 47.45502628759152 6.8125 48.25 C4.078125000000014 47.67578125 4.078125000000014 47.67578125 1.0625 46.5625 C-0.5211132812500026 45.99015625 -0.5211132812500026 45.99015625 -2.13671875 45.40625 C-3.1434765624999983 45.0246875 -4.150234374999997 44.643125 -5.1875 44.25 C-5.998320312499999 43.95093750000001 -6.809140624999998 43.65187499999999 -7.64453125 43.34375 C-9.496240644852435 42.65665931545364 -11.34234861236719 41.95451234800525 -13.1875 41.25 C-14.6725 40.754999999999995 -14.6725 40.754999999999995 -16.1875 40.25 C-17.07421875 38.640625 -17.07421875 38.640625 -17.875 36.5 C-20.1123173673206 31.05905309503744 -23.19956297612596 26.282302684061953 -26.3828125 21.36328125 C-29.627494595922172 15.765853478463264 -31.625903997776177 9.716670964361278 -30.1875 3.25 C-22.694997724782297 -3.410002022415732 -9.133752133388853 -3.94095904232514 0 0 Z " fill="#C5ECDE" transform="translate(57.1875,25.75)"/>
<path d="M0 0 C3.6627011370087814 4.915730473353893 5.417414841514528 10.426962782036398 7.375 16.1875 C7.634907226562504 16.945146484375 7.894814453124994 17.70279296875 8.16259765625 18.4833984375 C13.131034029568298 33.01556065064739 13.131034029568298 33.01556065064739 14.375 38.1875 C16.685000000000002 38.8475 18.995000000000005 39.5075 21.375 40.1875 C21.375 53.057500000000005 21.375 65.92750000000001 21.375 79.1875 C18.075000000000003 80.5075 14.775000000000006 81.8275 11.375 83.1875 C8.399091555552872 85.46177490579103 8.399091555552872 85.46177490579103 6 88.0625 C-3.2864085169438226 96.90607837728591 -13.169155246033085 100.0883565202578 -25.625 102.1875 C-26.697500000000005 102.3924609375 -27.769999999999996 102.597421875 -28.875 102.80859375 C-40.713389696770804 104.91222917405854 -52.21912339674698 104.68800708053232 -64.0625 102.75 C-66.59398086298026 102.35029249531891 -69.08040851478586 102.01475518343268 -71.625 101.75 C-72.6266015625 101.63954345703125 -72.6266015625 101.63954345703125 -73.6484375 101.52685546875 C-75.51471779222332 101.32445995286906 -77.38233397976394 101.1344941873946 -79.25 100.9453125 C-83.12880124852107 100.07437796040152 -85.53642177663092 98.66401241690875 -88.625 96.1875 C-88.625 95.5275 -88.625 94.8675 -88.625 94.1875 C-89.61500000000001 93.8575 -90.605 93.5275 -91.625 93.1875 C-92.94137113594951 90.01350868235527 -92.63590298635887 89.21501706081047 -91.3125 85.875 C-90.88904296875 84.85599609375001 -90.88904296875 84.85599609375001 -90.45703125 83.81640625 C-88.9750882185369 79.13402286889826 -88.605778389423 74.24594789262744 -88.0546875 69.3828125 C-87.625 66.1875 -87.625 66.1875 -86.625 64.1875 C-82.48969355860027 63.85435797494853 -80.55876536388723 64.50705946872907 -77.3125 67.0625 C-76.6151171875 67.596171875 -75.917734375 68.12984375 -75.19921875 68.6796875 C-74.67972656250001 69.177265625 -74.160234375 69.67484375 -73.625 70.1875 C-73.625 70.8475 -73.625 71.5075 -73.625 72.1875 C-72.14 72.6825 -72.14 72.6825 -70.625 73.1875 C-68.94140625 74.9296875 -68.94140625 74.9296875 -67.1875 77.0625 C-65.34721385309322 79.29389841526505 -63.738973700438564 81.10377239581139 -61.40234375 82.8203125 C-60.522558593750006 83.4970703125 -60.522558593750006 83.4970703125 -59.625 84.1875 C-59.625 84.8475 -59.625 85.5075 -59.625 86.1875 C-58.965 86.1875 -58.305 86.1875 -57.625 86.1875 C-57.625 86.8475 -57.625 87.5075 -57.625 88.1875 C-55.975 88.8475 -54.325 89.5075 -52.625 90.1875 C-52.625 90.8475 -52.625 91.5075 -52.625 92.1875 C-51.965 92.435 -51.305 92.6825 -50.625 92.9375 C-48.239898496789806 93.93129229300425 -46.12777511935663 95.01097368435386 -43.875 96.25 C-39.55633107083642 98.40526792133399 -35.482025836929324 99.5672311108872 -30.625 99.1875 C-27.411825590727403 97.71023361847529 -27.411825590727403 97.71023361847529 -25.51171875 96.359375 C-23.261802562503178 94.96191152950507 -20.98972877454483 94.14733208417864 -18.5 93.25 C-10.537009823332795 90.12254162245699 -7.0907855453929045 84.10894952278994 -2.625 77.1875 C-0.5397733356504801 74.08499453304258 1.5502798239856759 70.98577700513752 3.640625 67.88671875 C6.798481210625738 62.97212721499463 7.931158681115406 59.02084304819752 8.375 53.1875 C8.456210937500003 52.12015625 8.456210937500003 52.12015625 8.5390625 51.03125 C8.78569432349829 46.95800184052837 8.78569432349829 46.95800184052837 7.01171875 43.4453125 C4.37549467360337 39.80870744950537 3.5365474280448126 35.486820294384856 2.357421875 31.20703125 C0.9957165825526317 26.526995584695463 -0.8254778346996972 23.169835139599158 -3.625 19.1875 C-3.625 18.5275 -3.625 17.8675 -3.625 17.1875 C-6.32978102070571 15.764271800284813 -8.963509523807403 14.683930695700987 -11.8828125 13.78515625 C-12.673007812500003 13.534433593749998 -13.463203125000007 13.2837109375 -14.27734375 13.025390625 C-15.931789128668186 12.506579554438176 -17.588072254208427 11.993594482476137 -19.24609375 11.486328125 C-20.033710937500004 11.234316406250002 -20.821328124999994 10.982304687499997 -21.6328125 10.72265625 C-22.71006591796875 10.388265380859373 -22.71006591796875 10.388265380859373 -23.80908203125 10.047119140625 C-25.625000000000014 9.187499999999993 -25.625000000000014 9.187499999999993 -27.625 6.1875 C-26.696875000000006 5.609999999999999 -25.768749999999997 5.032500000000001 -24.8125 4.4375 C-21.626628454816483 2.5006894409342237 -21.626628454816483 2.5006894409342237 -20.3125 0.0625 C-14.970870710855792 -5.872643654604672 -5.875748560639536 -4.057064482346348 0 0 Z " fill="#80A5A7" transform="translate(106.625,10.8125)"/>
<path d="M0 0 C0 12.540000000000006 0 25.08 0 38 C-42.24000000000001 38 -84.48 38 -128 38 C-128 30.08 -128 22.159999999999997 -128 14 C-125.36 13.340000000000003 -122.72 12.680000000000007 -120 12 C-117.99294756587024 11.35487600331544 -115.98982812979966 10.696439845429879 -114 10 C-113.738642578125 10.595305175781249 -113.47728515625 11.190610351562498 -113.2080078125 11.803955078125 C-111.05124242169366 15.72475230736974 -107.9281113864892 17.94805854616274 -104 20 C-99.77956642618993 21.07197888075622 -95.58383997726989 21.466902749193267 -91.25 21.8125 C-89.02588528917606 22.025718804080128 -86.8019193667952 22.240496912014564 -84.578125 22.45703125 C-83.602626953125 22.53928955078125 -82.62712890625 22.621547851562497 -81.6220703125 22.706298828125 C-79.31912162888935 22.96425481195959 -77.2342252811258 23.41220301765253 -75 24 C-65.72758029400515 24.781239781858687 -56.82746534410282 23.72711635796672 -47.6875 22.25 C-46.686220703125 22.093137207031248 -45.684941406250005 21.936274414062495 -44.6533203125 21.774658203125 C-35.688854468676354 20.229954791193407 -27.621384018283862 17.699003432014337 -20.3125 12.125 C-19.398554687499995 11.434062499999996 -18.484609375000005 10.743124999999992 -17.54296875 10.03125 C-15.349985500687367 8.279558310840912 -13.226194395157066 6.484625408295187 -11.125 4.625 C-7.634289505007047 1.5518386072789383 -4.733229354790566 0 0 0 Z " fill="#4F778C" transform="translate(128,90)"/>
<path d="M0 0 C8.58 0 17.16 0 26 0 C26.33 0.66 26.66 1.32 27 2 C26.16140890863729 3.6983587254365964 25.31023388071198 5.391724350431203 24.39501953125 7.050048828125 C19.530828228577516 15.864710210089486 17.177492319752645 24.02052787782157 16 34 C15.90525390625 34.7890673828125 15.8105078125 35.578134765625 15.712890625 36.39111328125 C15.145988168796029 41.237368338899714 14.656558515401569 46.087675777653395 14.2041015625 50.94580078125 C13.942805706163034 53.57563730663186 13.58892975382624 56.191705973320346 13.25 58.8125 C12.886558579315425 62.68920848730213 13.188459301389289 65.45926136180634 15 69 C16.2955078125 70.0480078125 16.2955078125 70.0480078125 17.6171875 71.1171875 C20.134377495039026 74.16257473989967 20.343757155227888 74.48241006328936 20.15625 78.14453125 C19.96575222532382 79.70423178016124 19.746049633436215 81.26059319744137 19.5 82.8125 C19.36078125 83.965888671875 19.36078125 83.965888671875 19.21875 85.142578125 C17.483499294135694 97.99427866530755 17.483499294135694 97.99427866530755 12.94921875 101.65625 C12.2028515625 101.9346875 11.456484375 102.213125 10.6875 102.5 C9.9488671875 102.7990625 9.210234375 103.098125 8.44921875 103.40625 C6.00000000000001 104 6.00000000000001 104 0 104 C0 69.68 0 35.36 0 0 Z " fill="#737981" transform="translate(0,0)"/>
<path d="M0 0 C0.9229687499999955 0.35835937499999915 1.845937499999991 0.7167187500000001 2.796875 1.0859375 C3.9364062500000045 1.5525781250000001 5.075937500000009 2.0192187500000003 6.25 2.5 C7.391787109375002 2.9664794921874993 7.391787109375002 2.9664794921874993 8.556640625 3.4423828125 C11.124371164442465 4.495530233595881 13.688088394603952 5.557778065699424 16.25 6.625 C17.506352539062505 7.148037109375 17.506352539062505 7.148037109375 18.7880859375 7.681640625 C19.579892578124998 8.01615234375 20.371699218749995 8.350664062500002 21.1875 8.6953125 C21.897773437500007 8.994536132812499 22.608046875 9.293759765624998 23.33984375 9.60205078125 C25.249999999999986 10.499999999999996 25.249999999999986 10.499999999999996 28.25 12.5 C9.449999999999989 22.5 9.449999999999989 22.5 2.25 22.5 C1.569375000000008 21.7575 0.8887500000000017 21.015 0.1875 20.25 C-5.519423111501283 14.493879275468537 -11.850732424021736 13.099923162438877 -19.8125 13 C-26.055980012153782 13.042689224790482 -30.527822823392583 14.018548548928386 -35.75 17.5 C-36.37767688851988 27.38591099418808 -33.127858232965394 33.78301257434377 -27.703125 41.87109375 C-26.75 43.5 -26.75 43.5 -26.75 45.5 C-26.090000000000003 45.83 -25.43 46.16 -24.75 46.5 C-23.35476468402726 49.14360375657993 -22.728120453469977 50.96815871511639 -22.8515625 53.96875 C-23.75 56.5 -23.75 56.5 -26.19140625 58.265625 C-37.647583627139035 63.714119872731956 -37.647583627139035 63.714119872731956 -43.75 63.5 C-47.32360371366391 61.32476295690023 -50.12927136577384 58.8577676348429 -51.234375 54.66015625 C-51.943851421005235 49.05737921941453 -51.35432551639819 44.21915710091964 -50.28125 38.69140625 C-49.7233019140345 35.339615174751366 -49.53080344952454 32.080120113396816 -49.375 28.6875 C-48.794318551434884 20.56763774423115 -45.73952805833266 15.758228359442633 -39.83984375 10.1953125 C-29.846153625928636 2.0882816329963116 -12.6392858400133 -4.9199904612132315 0 0 Z " fill="#B6B9B1" transform="translate(63.75,11.5)"/>
<path d="M0 0 C7.018495350584914 3.216810369018088 10.163189411000758 9.700798404009007 13.078125 16.5234375 C15.14326379415482 22.474792024973418 15.563698416886538 27.86221777861543 14 34 C11.296442775036041 39.117447604396084 7.62327157169328 44.12557614276891 2 46 C-4.800169458253265 46.832673811214676 -9.260187310129083 44.24084662081147 -15 41 C-15.948750000000004 40.484375 -16.897500000000008 39.96875 -17.875 39.4375 C-25.15246876685906 34.514506422418876 -26.981593525262653 27.93516649079408 -28.66796875 19.72265625 C-29.106953177825176 16.122983941833546 -29.049987586334908 12.626022608755008 -29 9 C-28.445380859375007 8.7984228515625 -27.89076171875 8.596845703124998 -27.3193359375 8.38916015625 C-24.795320709250817 7.4702328220003515 -22.27265496524133 6.547654646213083 -19.75 5.625 C-18.8773046875 5.307890624999999 -18.004609375 4.990781249999998 -17.10546875 4.6640625 C-16.261132812499994 4.354687500000001 -15.416796875000003 4.045312500000001 -14.546875 3.7265625 C-13.771826171875006 3.4437744140624993 -12.996777343749997 3.1609863281249986 -12.1982421875 2.86962890625 C-9.983321406132234 2.0353288447036704 -9.983321406132234 2.0353288447036704 -7.8955078125 0.91552734375 C-5.075295626504328 -0.44663078317989857 -3.097238913125352 -0.37166866957504396 0 0 Z " fill="#CAE7C2" transform="translate(97,24)"/>
<path d="M0 0 C2.359818131976688 0.9357899488873045 4.696312644765072 1.9334780762801245 7 3 C7.658710937499997 3.1907812500000006 8.317421875 3.381562500000001 8.99609375 3.578125 C14.030828207580981 5.062848204882101 16.848998064005144 7.20019092852786 19.81640625 11.55078125 C22.033824169187383 16.13929951841746 22.44527822393073 20.98745383069931 23 26 C23.63055922930029 30.408525209979814 24.363880091209438 33.3499878185977 27 37 C27.99000000000001 37.66 28.97999999999999 38.31999999999999 30 39 C27.883144073923958 41.25342727614546 26.177967355779685 42.87014533085893 23.015625 43.21875 C13.971868685058311 42.57734884291193 6.585904727038681 37.92731425433482 0 32 C-0.6599999999999966 31.67 -1.3200000000000003 31.340000000000003 -2 31 C-2 30.340000000000003 -2 29.680000000000007 -2 29 C-2.6599999999999966 29 -3.3200000000000003 29 -4 29 C-4 28.340000000000003 -4 27.680000000000007 -4 27 C-4.586523437499999 26.740898437499993 -5.173046874999997 26.481796875 -5.77734375 26.21484375 C-8.15597157946143 24.914750156041293 -9.689183926473987 23.511251620110954 -11.5625 21.5625 C-12.1412890625 20.965664062499997 -12.720078125 20.368828124999993 -13.31640625 19.75390625 C-13.871992187499998 19.175117187500007 -14.427578124999997 18.596328125 -15 18 C-15.565898437499996 17.472773437499995 -16.131796875 16.945546875000005 -16.71484375 16.40234375 C-18 15 -18 15 -18 13 C-18.5775 12.731875000000002 -19.155 12.463750000000005 -19.75 12.1875 C-22.055500425460497 10.970708108784734 -24.02056192443554 9.696661207626676 -26 8 C-26 7.340000000000003 -26 6.680000000000007 -26 6 C-25.4315234375 5.757656249999997 -24.863046875 5.515312499999993 -24.27734375 5.265625 C-23.5051953125 4.930468750000003 -22.733046875 4.595312500000006 -21.9375 4.25 C-21.109921874999998 3.8916406249999937 -20.28234375 3.5332812500000017 -19.4296875 3.1640625 C-17.278962926383926 2.1336510483318563 -15.50401362837917 0.9905622170896606 -13.5625 -0.375 C-8.53724797630948 -2.6672202213325136 -5.1273203841749435 -1.6427337153181867 0 0 Z " fill="#A7C5D4" transform="translate(51,68)"/>
<path d="M0 0 C1.8443107125354299 1.8443107125354317 3.6784578546267355 3.6954193009923983 5.5 5.5625 C9.187821805052469 9.15812625992615 11.484538018622622 10.256207464594908 16.515625 10.74609375 C17.6023046875 10.86146484375 18.688984375 10.976835937499999 19.80859375 11.095703125 C22.087009224532785 11.321992970654506 24.365654265776087 11.545984218018503 26.64453125 11.767578125 C40.132934690408916 13.208782979022445 40.132934690408916 13.208782979022445 45.21484375 18.15625 C45.7833203125 18.9296875 46.351796875 19.703125 46.9375 20.5 C47.817285156249994 21.66015625 47.817285156249994 21.66015625 48.71484375 22.84375 C50 25 50 25 50 28 C29.209999999999994 28 8.419999999999995 28 -13 28 C-13 20.08 -13 12.159999999999997 -13 4 C-10.36 3.3400000000000034 -7.72 2.680000000000007 -5 2 C-3.3192376883539954 1.3697141331327458 -1.6445527459044698 0.7194918263332113 0 0 Z " fill="#436D93" transform="translate(13,100)"/>
<path d="M0 0 C4.135306441399717 -0.3331420250514725 6.066234636112782 0.31955946872908214 9.3125 2.875 C10.009882812499999 3.408671874999996 10.707265625000002 3.9423437500000063 11.42578125 4.4921875 C11.9452734375 4.989765625000004 12.464765624999998 5.487343749999994 13 6 C13 6.659999999999997 13 7.319999999999993 13 8 C13.989999999999995 8.329999999999998 14.980000000000004 8.659999999999997 16 9 C17.68359375 10.7421875 17.68359375 10.7421875 19.4375 12.875 C21.27778614690679 15.106398415265062 22.886026299561436 16.91627239581139 25.22265625 18.6328125 C26.102441406249994 19.3095703125 26.102441406249994 19.3095703125 27 20 C27 20.659999999999997 27 21.319999999999993 27 22 C27.659999999999997 22 28.32 22 29 22 C29 22.659999999999997 29 23.319999999999993 29 24 C31.474999999999994 24.99000000000001 31.474999999999994 24.99000000000001 34 26 C34 26.659999999999997 34 27.319999999999993 34 28 C34.66 28.247500000000002 35.32 28.495000000000005 36 28.75 C38.330997668738924 29.72124902864121 40.46415922880553 30.760437238779403 42.6875 31.9375 C47.27053518287829 34.27721394613481 52.04696973196363 35.66024591110491 57 37 C47.99286613323949 43.004755911173675 32.741092959352926 40.22808793880321 22.5625 38.5625 C20.03101913701974 38.16279249531891 17.544591485214134 37.82725518343268 15 37.5625 C13.9983984375 37.45204345703125 13.9983984375 37.45204345703125 12.9765625 37.33935546875 C11.110282207776681 37.13695995286906 9.242666020236058 36.94699418739461 7.375 36.7578125 C3.4961987514789286 35.88687796040152 1.0885782233690833 34.47651241690875 -2 32 C-2 31.340000000000003 -2 30.680000000000007 -2 30 C-2.990000000000002 29.67 -3.9800000000000004 29.340000000000003 -5 29 C-6.31637113594951 25.82600868235525 -6.010902986358868 25.02751706081048 -4.6875 21.6875 C-4.264042968750001 20.668496093750008 -4.264042968750001 20.668496093750008 -3.83203125 19.62890625 C-2.350088218536893 14.946522868898256 -1.9807783894229871 10.058447892627427 -1.4296875 5.1953125 C-1 2 -1 2 0 0 Z " fill="#7A9BB6" transform="translate(20,75)"/>
<path d="M0 0 C0.7616697692871099 0.002220611572265621 1.5233395385742199 0.004441223144531256 2.3080902099609375 0.0067291259765625 C3.1809869384765648 0.006849975585937501 4.053883666992192 0.006970825195312502 4.9532318115234375 0.0070953369140625 C6.338228759765627 0.014769287109375001 6.338228759765627 0.014769287109375001 7.7512054443359375 0.0225982666015625 C8.595501098632809 0.0236053466796875 9.43979675292968 0.0246124267578125 10.309677124023438 0.0256500244140625 C13.476398213052946 0.0308988117766075 16.643100008160033 0.04485995395380647 19.809799194335938 0.0577545166015625 C26.88417419433594 0.0783795166015625 33.958549194335944 0.09900451660156251 41.24729919433594 0.1202545166015625 C41.24729919433594 16.950254516601564 41.24729919433594 33.780254516601566 41.24729919433594 51.12025451660156 C35.27628470158231 49.926051618050835 35.27628470158231 49.926051618050835 33.24729919433594 47.12025451660156 C32.19058096959675 44.70654840763445 31.25243840344872 42.3464539136682 30.372299194335938 39.87025451660156 C30.11545349121093 39.16731262207031 29.858607788085948 38.46437072753906 29.593978881835938 37.74012756347656 C27.385050381403644 31.642422655532307 25.330022818926906 25.494767534926435 23.325424194335938 19.327285766601563 C22.96964294433593 18.26896545410156 22.613861694335938 17.210645141601564 22.247299194335938 16.120254516601563 C21.966283569335943 15.193418579101563 21.685267944335934 14.266582641601563 21.395736694335938 13.311660766601563 C20.42042241877749 10.96632066857576 20.42042241877749 10.96632066857576 18.145736694335938 9.940567016601563 C13.813611416548753 8.746885438511592 10.34497667372139 7.867247532578275 5.8722991943359375 8.682754516601563 C2.2472991943359375 9.120254516601563 2.2472991943359375 9.120254516601563 -0.1902008056640625 7.4327545166015625 C-1.681609379885785 5.2254698267534065 -2.4798235819758503 3.7580676789209773 -2.7527008056640625 1.1202545166015625 C-1.7527008056640625 0.12025451660156228 -1.7527008056640625 0.12025451660156228 0 0 Z " fill="#66715E" transform="translate(86.75270080566406,-0.1202545166015625)"/>
<path d="M0 0 C0.9229687499999955 0.35835937499999915 1.845937499999991 0.7167187500000001 2.796875 1.0859375 C3.9364062500000045 1.5525781250000001 5.075937500000009 2.0192187500000003 6.25 2.5 C7.391787109375002 2.9664794921874993 7.391787109375002 2.9664794921874993 8.556640625 3.4423828125 C11.124371164442493 4.4955302335958915 13.688088394603923 5.557778065699409 16.25 6.625 C17.506352539062505 7.148037109375 17.506352539062505 7.148037109375 18.7880859375 7.681640625 C19.579892578124998 8.01615234375 20.371699218749995 8.350664062500002 21.1875 8.6953125 C21.897773437500007 8.994536132812499 22.608046875 9.293759765624998 23.33984375 9.60205078125 C25.25 10.500000000000004 25.25 10.500000000000004 28.25 12.5 C9.449999999999989 22.5 9.449999999999989 22.5 2.25 22.5 C1.569375000000008 21.7575 0.8887500000000017 21.015 0.1875 20.25 C-5.5190257968491565 14.494280015246972 -11.851010339273465 13.098980186872161 -19.8125 13 C-26.085569418859293 13.049331412106213 -30.492821013029747 14.03026186859963 -35.75 17.5 C-36.41 17.83 -37.07 18.16 -37.75 18.5 C-38.875 14.75 -38.875 14.75 -37.75 12.5 C-38.41 12.5 -39.07 12.5 -39.75 12.5 C-37.86074638690396 7.656830516704083 -34.54782000243503 6.271035679788412 -30.09765625 3.9609375 C-20.870453463669804 -0.06586978364935092 -9.78998012591132 -3.8108647469990364 0 0 Z " fill="#9BCDB3" transform="translate(63.75,11.5)"/>
<path d="M0 0 C8.58 0 17.16 0 26 0 C26.33 0.66 26.66 1.32 27 2 C25.808918442508986 4.466381002885436 24.56263454954571 6.849562212760894 23.25 9.25 C20.384063432240094 14.665750162248308 18.434609903680133 19.4562990678985 17.375 25.5 C16.269538379249028 31.72885105538529 14.337436367977912 35.45392745229657 10 40 C8.731562499999999 41.4540625 8.731562499999999 41.4540625 7.4375 42.9375 C4.999999999999998 45 4.999999999999998 45 0 46 C0 30.82 0 15.639999999999997 0 0 Z " fill="#406667" transform="translate(0,0)"/>
<path d="M0 0 C3.663545582216841 4.916863807712065 5.41331655971733 10.427397668978912 7.375 16.1875 C7.63490722656249 16.9398291015625 7.894814453125008 17.692158203125 8.16259765625 18.46728515625 C13.505821721702603 33.972430330215666 13.505821721702603 33.972430330215666 14.375 39.1875 C13.715000000000003 39.1875 13.055000000000007 39.1875 12.375 39.1875 C12.045000000000002 40.5075 11.715000000000003 41.8275 11.375 43.1875 C10.715000000000003 43.1875 10.055000000000007 43.1875 9.375 43.1875 C8.879999999999995 44.177499999999995 8.879999999999995 44.177499999999995 8.375 45.1875 C4.766896289472811 41.15060715285943 3.758175427766318 36.291247848929615 2.357421875 31.20703125 C0.9957165825526317 26.526995584695463 -0.8254778346996972 23.169835139599158 -3.625 19.1875 C-3.625 18.5275 -3.625 17.8675 -3.625 17.1875 C-6.3297810207056955 15.764271800284824 -8.963509523807431 14.683930695700976 -11.8828125 13.78515625 C-12.673007812500003 13.534433593749998 -13.463203125000007 13.2837109375 -14.27734375 13.025390625 C-15.931789128668186 12.506579554438176 -17.588072254208427 11.993594482476137 -19.24609375 11.486328125 C-20.033710937500004 11.234316406250002 -20.821328124999994 10.982304687499997 -21.6328125 10.72265625 C-22.3509814453125 10.49972900390625 -23.069150390624998 10.2768017578125 -23.80908203125 10.047119140625 C-25.625 9.1875 -25.625 9.1875 -27.625 6.1875 C-26.696875000000006 5.609999999999999 -25.768749999999997 5.032500000000001 -24.8125 4.4375 C-21.62662845481647 2.5006894409342184 -21.62662845481647 2.5006894409342184 -20.3125 0.0625 C-14.970870710855792 -5.872643654604669 -5.875748560639536 -4.057064482346348 0 0 Z " fill="#94A88D" transform="translate(106.625,10.8125)"/>
<path d="M0 0 C0 8.25 0 16.5 0 25 C-12.870000000000005 25 -25.74000000000001 25 -39 25 C-36.73417919135743 20.468358382714854 -35.338231229806254 19.683794927270952 -31.0625 17.1875 C-29.885019373529033 16.48764716844849 -28.707942794678942 15.787114138583874 -27.53125 15.0859375 C-26.939570312499995 14.737568359375004 -26.347890625000005 14.389199218750008 -25.73828125 14.0302734375 C-17.294660796624456 9.042228073964253 -17.294660796624456 9.042228073964253 -9.5 3.125 C-6.1161459406400525 0.2487240495440517 -4.464505775284948 0 0 0 Z " fill="#18466B" transform="translate(128,103)"/>
</svg>
