<?xml version="1.0" encoding="UTF-8"?>
<!-- Generator: visioncortex VTracer 0.6.0 -->
<svg version="1.1" xmlns="http://www.w3.org/2000/svg" width="128" height="128">
<path d="M0 0 C42.24 0 84.48 0 128 0 C128 42.24 128 84.48 128 128 C85.75999999999999 128 43.519999999999996 128 0 128 C0 85.75999999999999 0 43.519999999999996 0 0 Z " fill="#535667" transform="translate(0,0)"/>
<path d="M0 0 C7.025402106709151 4.017043521972241 12.696050223088918 8.42179549310729 16 16 C16.92552223051817 19.683454246290452 16.969663265263634 23.21224197720153 17 27 C17.059810297420825 28.57557412062846 17.12113423600134 30.151091176750114 17.18359375 31.7265625 C17.597881161829477 45.37474342345749 16.21921779861532 57.21108324766362 7 68 C2.76398439226665 72.06657498342402 -2.0911888255411952 74.59363194525098 -8 75 C-11.098274679252967 74.63581683594745 -14.009386336334416 73.87270576662128 -17 73 C-22.18819653165272 71.56877337057855 -27.07432026717126 70.75964380001264 -32.4375 70.1875 C-39.44038988328753 69.2807513099329 -45.62008322332993 67.98208585757106 -50.359375 62.3984375 C-54.59815085594707 55.67168451121444 -55.30766151033762 47.74834812258982 -55.625 40 C-55.663671875 39.24460937500001 -55.70234375 38.48921874999999 -55.7421875 37.7109375 C-56.33985564480321 25.287978204447533 -56.59610832803805 15.372121072513117 -47.875 5.625 C-30.903219732385075 -9.870973287822324 -19.643935089557914 -10.915496425079283 0 0 Z " fill="#ABB0B9" transform="translate(85,32)"/>
<path d="M0 0 C4.180525463306367 2.4535349370940516 8.216572333296881 4.2915398206433295 12.831787109375 5.849853515625 C20.738420354939095 8.708027769611522 27.187087310942346 13.857020746779554 31.581787109375 21.099853515625 C35.567474974326316 30.76040172162604 33.086317886596504 43.63232354785244 29.848388671875 53.297119140625 C27.262172723850696 59.251364401027075 22.49922919288639 63.83962733341511 17.956787109375 68.349853515625 C17.007359517402577 69.30277048397954 16.058129489035153 70.25588434803403 15.109130859375 71.209228515625 C14.398857421874993 71.915634765625 13.688583984375 72.622041015625 12.956787109375 73.349853515625 C13.150146484375 72.781376953125 13.343505859375 72.212900390625 13.542724609375 71.627197265625 C13.803115234375 70.855048828125 14.063505859374999 70.082900390625 14.331787109375 69.287353515625 C14.714638671875008 68.15620117187501 14.714638671875008 68.15620117187501 15.105224609375 67.002197265625 C15.386240234374995 66.126923828125 15.667255859375004 65.251650390625 15.956787109375 64.349853515625 C16.316435546875 63.294111328125 16.676083984374998 62.238369140625 17.046630859375 61.150634765625 C18.15097327589544 56.53893875157186 18.218390873396388 52.31972759392738 18.144287109375 47.599853515625 C18.133491210937507 46.71386474609375 18.1226953125 45.827875976562495 18.111572265625 44.9150390625 C18.084379371875656 43.17037499118187 18.05076213069887 41.42579650156134 18.010009765625 39.681396484375 C17.966150340478364 37.76003175891475 17.94818779431833 35.83809392866184 17.937255859375 33.916259765625 C17.675789947041054 27.089094276905314 15.718901678890958 22.30999661179409 10.956787109375 17.349853515625 C7.5037053315859765 14.566425033697257 3.8626421927551178 12.43903181603762 -0.043212890625 10.349853515625 C-0.6337646484375057 10.0267822265625 -1.2243164062499972 9.703710937499999 -1.832763671875 9.370849609375 C-9.576506324716334 5.192745703495849 -17.037054417721592 1.408158798989863 -26.043212890625 3.349853515625 C-32.571433636228555 5.581140904793976 -37.5114752798647 9.248654869218065 -42.449462890625 13.994384765625 C-44.043212890625 15.349853515625 -44.043212890625 15.349853515625 -46.043212890625 15.349853515625 C-46.474404296875 16.219970703125 -46.474404296875 16.219970703125 -46.914306640625 17.107666015625 C-47.61880252604739 18.50690697836704 -48.33781861151044 19.89904304814352 -49.078369140625 21.279541015625 C-56.1987219084147 34.762186180489145 -53.99138112916755 53.81113780378732 -49.859619140625 68.045166015625 C-49.0667536875764 70.28339863427894 -48.25811342155157 72.30845931496029 -47.043212890625 74.349853515625 C-44.66695943888001 75.53376574763963 -44.66695943888001 75.53376574763963 -42.043212890625 76.349853515625 C-41.42824951171875 76.681787109375 -40.8132861328125 77.013720703125 -40.1796875 77.355712890625 C-37.8065016939814 78.45999955524707 -35.82796020807616 78.8097464929462 -33.234619140625 79.131103515625 C-32.322607421875 79.250986328125 -31.410595703124997 79.370869140625 -30.470947265625 79.494384765625 C-29.525419921875 79.611689453125 -28.579892578124998 79.728994140625 -27.605712890625 79.849853515625 C-16.672714350767336 81.2118013145669 -16.672714350767336 81.2118013145669 -12.043212890625 83.349853515625 C-10.05078039483098 83.72578417520877 -8.051345486409375 84.06964896737601 -6.043212890625 84.349853515625 C-6.043212890625 85.009853515625 -6.043212890625 85.669853515625 -6.043212890625 86.349853515625 C-8.019775390624957 87.75219726562497 -8.019775390624957 87.75219726562497 -10.668212890625 89.287353515625 C-11.526728515624995 89.791376953125 -12.385244140624991 90.295400390625 -13.269775390625 90.814697265625 C-14.185009765624997 91.321298828125 -15.100244140624994 91.827900390625 -16.043212890625 92.349853515625 C-17.410263671875 93.235439453125 -17.410263671875 93.235439453125 -18.804931640625 94.138916015625 C-23.3657742076676 95.84441806120185 -26.60100670666006 94.93123888251382 -31.230712890625 93.787353515625 C-32.0742431640625 93.59044921875 -32.9177734375 93.393544921875 -33.786865234375 93.190673828125 C-36.21469865291671 92.60762065364332 -38.62948123961967 91.9885205185717 -41.043212890625 91.349853515625 C-42.155673828125 91.057236328125 -43.268134765625 90.764619140625 -44.414306640625 90.463134765625 C-53.73583343581901 87.54106750074858 -60.3005740103757 81.55633401718104 -65.043212890625 73.092041015625 C-66.05683297637889 71.19125792863457 -66.05683297637889 71.19125792863457 -67.918212890625 69.224853515625 C-69.043212890625 67.349853515625 -69.043212890625 67.349853515625 -68.855712890625 64.474853515625 C-68.04321289062501 61.34985351562503 -68.04321289062501 61.34985351562503 -67.043212890625 58.474853515625 C-65.19573483793745 52.7014846009764 -65.01986502037792 47.35052486711899 -65.168212890625 41.349853515625 C-65.23897188054265 29.094396461887342 -62.7969438774558 8.68145916417813 -54.043212890625 -0.650146484375 C-52.133056640625 -1.775146484375 -52.133056640625 -1.775146484375 -49.980712890625 -2.650146484375 C-48.795419921875 -3.1393457031250023 -48.795419921875 -3.1393457031250023 -47.586181640625 -3.638427734375 C-46.747001953125 -3.972294921875001 -45.907822265625 -4.306162109375002 -45.043212890625 -4.650146484375 C-44.173095703125 -5.014951171875001 -43.302978515625 -5.379755859374999 -42.406494140625 -5.755615234375 C-26.44833925590619 -12.363102383952144 -14.466452138459516 -8.585836751311794 0 0 Z " fill="#7A677C" transform="translate(83.043212890625,21.650146484375)"/>
<path d="M0 0 C11.22 0 22.44 0 34 0 C31.000000000000004 8.99999999999999 31.000000000000004 8.99999999999999 29 13 C28.94304241023319 15.164388411138734 29.123712078115638 17.23588437614738 29.3203125 19.390625 C28.917772840028363 22.669850522695768 27.587584685751796 24.92600238808745 26.0556640625 27.8232421875 C24.3164436082075 31.409479368460204 23.33182578085014 35.15868226637826 22.3125 39 C21.994423828125 40.1330859375 21.994423828125 40.1330859375 21.669921875 41.2890625 C19.708228966917194 48.492250339143176 18.86182865858641 55.31786164024906 19.0625 62.8125 C19.120575860914315 71.85297568232812 17.984680834994208 79.84951647387548 14 88 C9.379999999999999 88.33 4.76 88.66 0 89 C0 59.629999999999995 0 30.259999999999998 0 0 Z " fill="#4C3852" transform="translate(0,0)"/>
<path d="M0 0 C8.372677648349779 5.55724977978381 11.735140607381197 15.454300740043038 14.3359375 24.83203125 C15.291167912153682 29.912504504020887 14.53423133984387 33.75001094140603 12.08984375 38.3671875 C9.542413602144137 41.465413355500374 6.994747176532542 43.78240651552477 3.77734375 46.1796875 C3.252695312499995 46.587031249999995 2.728046875000004 46.99437499999999 2.1875 47.4140625 C-2.1694698801859573 50.40755710003364 -5.683493681360105 50.57447696413351 -10.859375 49.7890625 C-16.55393208530397 48.32071389618608 -19.923563321418982 44.844147601003655 -23.22265625 40.1796875 C-24.453125 36.875 -24.453125 36.875 -25.41015625 33.3046875 C-25.7337109375 32.131640625 -26.057265625 30.958593750000006 -26.390625 29.75 C-28.489193827903897 20.74487366805559 -30.29597777354178 10.515777140912519 -25.22265625 2.1796875 C-17.75787119803975 -4.014495840988289 -8.425927039285689 -4.83865117107495 0 0 Z " fill="#E0D6D5" transform="translate(69.22265625,41.8203125)"/>
<path d="M0 0 C4.878595605585279 0.8711777867116552 6.175363252047269 3.3191252611907203 8.953125 7.24609375 C10.146425815489803 9.081245761700217 11.300496503167299 10.94194586004943 12.4375 12.8125 C18.99851631901639 21.759340435022352 28.105163065424776 23.583466299089807 38.45361328125 26.10009765625 C40.36884679034565 26.571855947609464 42.27828817879821 27.066934160163754 44.1875 27.5625 C45.89486328125 27.978222656249997 45.89486328125 27.978222656249997 47.63671875 28.40234375 C51.18832242359461 29.918922126309837 52.00240603220255 31.103901139258852 53.5 34.625 C53.995000000000005 37.595 53.995000000000005 37.595 54.5 40.625 C33.05 40.625 11.600000000000001 40.625 -10.5 40.625 C-10.5 27.754999999999995 -10.5 14.884999999999991 -10.5 1.625 C-6.993928876616701 1.1241326966595295 -3.486514329925873 0.6225918446296248 0 0 Z " fill="#5C454B" transform="translate(10.5,87.375)"/>
<path d="M0 0 C4.1805254633063385 2.453534937094041 8.216572333296881 4.2915398206433295 12.831787109375 5.849853515625 C20.73842035493908 8.708027769611519 27.18708731094236 13.857020746779561 31.581787109375 21.099853515625 C35.567474974326316 30.760401721626053 33.086317886596504 43.63232354785242 29.848388671875 53.297119140625 C27.262172723850696 59.251364401027075 22.49922919288639 63.83962733341511 17.956787109375 68.349853515625 C17.007359517402577 69.30277048397954 16.058129489035153 70.25588434803403 15.109130859375 71.209228515625 C14.398857421874993 71.915634765625 13.688583984375 72.622041015625 12.956787109375 73.349853515625 C13.150146484375 72.781376953125 13.343505859375 72.212900390625 13.542724609375 71.627197265625 C13.803115234375 70.855048828125 14.063505859374999 70.082900390625 14.331787109375 69.287353515625 C14.714638671875008 68.15620117187501 14.714638671875008 68.15620117187501 15.105224609375 67.002197265625 C15.386240234374995 66.126923828125 15.667255859375004 65.251650390625 15.956787109375 64.349853515625 C16.316435546875 63.294111328125 16.676083984374998 62.238369140625 17.046630859375 61.150634765625 C18.15097327589544 56.53893875157185 18.218390873396388 52.3197275939274 18.144287109375 47.599853515625 C18.133491210937507 46.71386474609375 18.1226953125 45.827875976562495 18.111572265625 44.9150390625 C18.084379371875656 43.17037499118187 18.05076213069887 41.42579650156134 18.010009765625 39.681396484375 C17.966150340478364 37.76003175891475 17.94818779431833 35.83809392866184 17.937255859375 33.916259765625 C17.675789947041054 27.089094276905314 15.718901678890944 22.30999661179409 10.956787109375 17.349853515625 C7.5037053315859765 14.566425033697257 3.8626421927551178 12.439031816037613 -0.043212890625 10.349853515625 C-0.9290405273437443 9.865246582031247 -0.9290405273437443 9.865246582031247 -1.832763671875 9.370849609375 C-9.57650632471632 5.192745703495849 -17.037054417721592 1.4081587989898594 -26.043212890625 3.349853515625 C-32.57143363622856 5.58114090479398 -37.51147527986469 9.248654869218061 -42.449462890625 13.994384765625 C-44.043212890625 15.349853515625 -44.043212890625 15.349853515625 -46.043212890625 15.349853515625 C-46.311337890625 15.947978515624996 -46.579462890625 16.546103515625 -46.855712890625 17.162353515625 C-48.034075968177014 19.3330223426945 -49.27382270460463 20.65802563912881 -51.043212890625 22.349853515625 C-51.47415286328399 16.31669389839908 -50.74582095149353 10.901177495894018 -49.418212890625 5.037353515625 C-49.27802734375 4.343837890625 -49.137841796875 3.6503222656250003 -48.993408203125 2.935791015625 C-48.084743045367325 -0.8004369783486815 -47.195345786441806 -2.521711619617278 -44.234619140625 -5.021240234375 C-28.298464469010568 -13.155115996998278 -14.542607434802747 -8.631034906041966 0 0 Z " fill="#807989" transform="translate(83.043212890625,21.650146484375)"/>
<path d="M0 0 C0 15.840000000000003 0 31.680000000000007 0 48 C-13.530000000000001 48 -27.060000000000002 48 -41 48 C-39.91258048499519 42.562902424975974 -38.9574248893756 41.4841199174742 -35.3125 37.5625 C-29.31221263734929 30.883029466556025 -24.69712545963742 23.486939223727262 -20.124267578125 15.779541015625 C-15.326670592706705 7.89360952326588 -9.979826800997955 0 0 0 Z " fill="#1E273B" transform="translate(128,80)"/>
<path d="M0 0 C17.49000000000001 0 34.980000000000004 0 53 0 C53 9.24 53 18.48 53 28 C33.893582448313566 28 18.757117041251178 20.399246147318784 4.29296875 8.4921875 C2 6 2 6 0 0 Z " fill="#181334" transform="translate(75,0)"/>
<path d="M0 0 C4.307569115555509 7.605383874846147 2.8737566250345594 19.338309824389512 1.3125 27.66796875 C-1.2995924377685526 36.08108314331288 -5.5313793493248085 44.24679222062619 -13.15625 49.0625 C-19.010183859659378 52.03907653880985 -23.579175583063687 52.300207586998354 -29.921875 50.703125 C-32.06718837255109 49.977267091993994 -34.002136776252925 49.0619272991088 -36 48 C-36.303184015659234 44.10091254280097 -36.20782649662279 40.73971383891575 -35 37 C-32.41070976617216 34.700329875798985 -29.762441371356672 33.194324245090854 -26.73046875 31.53125 C-20.477433185607808 28.024540498938848 -18.45521011480065 22.916053235764366 -16.0390625 16.4140625 C-14.541119448671125 12.933879019844952 -12.672695575546584 10.672695575546584 -10 8 C-9.340000000000003 8 -8.680000000000007 8 -8 8 C-8 7.340000000000003 -8 6.68 -8 6 C-6.25 4.4921875 -6.25 4.4921875 -4 2.875 C-3.257499999999993 2.336171874999998 -2.5150000000000006 1.7973437500000031 -1.75 1.2421875 C-0.883749999999992 0.6273046875000006 -0.883749999999992 0.6273046875000006 0 0 Z " fill="#9FA7B7" transform="translate(100,55)"/>
<path d="M0 0 C4.092261904761905 6.138392857142861 4.092261904761905 6.138392857142861 3.7578125 9.26171875 C3.444570312499998 10.462480468750002 3.444570312499998 10.462480468750002 3.125 11.6875 C0.35921841416598 24.1244786343386 2.192672970483798 39.049082604691336 9 50 C12.645741421024141 54.1818798652924 16.617975395247726 54.77089255516495 21.890625 55.60546875 C24 56 24 56 25 57 C24.910156988674004 58.857721621289045 24.753881394694716 60.71247985128443 24.5625 62.5625 C24.4606640625 63.5744140625 24.358828125000002 64.586328125 24.25390625 65.62890625 C24.170117187499997 66.4113671875 24.086328124999994 67.193828125 24 68 C1.9320586338521508 66.49587785195125 1.9320586338521508 66.49587785195125 -4 61 C-9.582046554562453 54.34697939717847 -10.283416978897353 45.3403187652563 -10.625 37 C-10.663671874999999 36.24460937500001 -10.70234375 35.48921874999999 -10.7421875 34.7109375 C-11.762571897278029 13.501518956578096 -11.762571897278029 13.501518956578096 -5 5 C-3.3707725990892285 3.29671680813874 -1.713586433932619 1.6183871876030267 0 0 Z " fill="#B8A5AD" transform="translate(40,35)"/>
<path d="M0 0 C11.22 0 22.44 0 34 0 C31.911676695943953 6.264969912168144 30.333761043739678 10.597007963594312 27 16 C26.34 16 25.68 16 25 16 C24.74734375 16.5323828125 24.4946875 17.064765625 24.234375 17.61328125 C21.48785092644251 22.923807227669705 18.172605362222967 27.935691627404832 15 33 C14.4444140625 33.894609375 13.888828125 34.78921875 13.31640625 35.7109375 C10.667507113781221 39.852852512996634 8.296268871247557 43.399626735823844 4 46 C2.6799999999999997 46 1.3599999999999999 46 0 46 C0 30.82 0 15.639999999999997 0 0 Z " fill="#2E1B33" transform="translate(0,0)"/>
<path d="M0 0 C5.74727273048471 -0.19803736133139271 11.492554225063124 -0.3430514582121406 17.242431640625 -0.439453125 C19.197210627894506 -0.47964090489246775 21.1517497736071 -0.5342041248230076 23.105712890625 -0.603515625 C25.918732487738396 -0.7007875968300082 28.728572263451625 -0.7459686177915785 31.54296875 -0.78125 C32.84949653625489 -0.8431854248046875 32.84949653625489 -0.8431854248046875 34.18241882324219 -0.9063720703125 C36.69545513826537 -0.9082228283034464 38.623822759571226 -0.827062871893287 41 0 C42.75007766725017 1.9064871371938645 43.85349278614699 3.7378435883202497 44.99725341796875 6.0543060302734375 C46.451430634931455 8.875940023008337 48.474482304274005 10.286409424501775 51.0625 12.0625 C52.008671875000005 12.7134765625 52.95484375000001 13.364453125 53.9296875 14.03515625 C58.85963079015394 17.190069067999282 63.89042606383532 20.14648575990803 69 23 C67.68 24.98 66.36 26.96 65 29 C58.178357382195216 27.100934655849215 52.11922518552001 24.67454322154957 46.0625 21 C38.04393935952763 16.18375412978415 28.54782093732338 11.636025580382375 19 13 C11.525309934918774 14.890373229362478 4.824080042045104 17.46158812634698 -2 21 C-2.990000000000002 21 -3.9800000000000004 21 -5 21 C-6.247107253414473 15.180166150732461 -6.112769199153082 12.11395440287983 -3.10546875 6.95703125 C-1.8367297644777452 4.710959759729157 -0.9395645842697391 2.3997953019152867 0 0 Z " fill="#444B66" transform="translate(34,0)"/>
<path d="M0 0 C8.25 1.6499999999999986 16.5 3.3000000000000007 25 5 C25 22.159999999999997 25 39.32 25 57 C22.36 57.99000000000001 19.72 58.97999999999999 17 60 C15.64136598622288 60.96534522031533 14.296568633672877 61.952771488187295 13 63 C12.340000000000003 63 11.680000000000007 63 11 63 C8.279542142638533 55.63876109184544 9.148891118709315 49.19049885110374 11.0625 41.6875 C12.865652527858998 33.92430896402689 13.653066018753435 24.93479194550943 9.4765625 17.84375 C6.44595712453615 14.059502017939309 2.7133620532445377 11.084210471479345 -1 8 C-2.0132725626759367 7.013451109306722 -3.0189822894558773 6.0186286131847915 -4 5 C-2.680000000000007 3.3500000000000014 -1.3599999999999994 1.6999999999999993 0 0 Z " fill="#594857" transform="translate(103,23)"/>
<path d="M0 0 C0.6600000000000001 0.3299999999999983 1.3200000000000003 0.6599999999999966 2 1 C2.78125 3.36328125 2.78125 3.36328125 3.5 6.3125 C4.736411393299726 11.35927154394713 4.736411393299726 11.35927154394713 7 16 C9.376253451744994 17.18391223201462 9.376253451744994 17.18391223201462 12 18 C12.614963378906253 18.331933593749994 13.2299267578125 18.663867187500003 13.863525390625 19.005859375 C16.23671119664357 20.11014603962205 18.215252682548858 20.459892977321203 20.80859375 20.78125 C21.72060546875 20.901132812499995 22.632617187500003 21.021015625000004 23.572265625 21.14453125 C24.51779296875 21.261835937499995 25.463320312500002 21.379140625000005 26.4375 21.5 C37.370498539857635 22.861947798941884 37.370498539857635 22.861947798941884 42 25 C43.99243249579402 25.375930659583787 45.991867404215625 25.719795451751025 48 26 C48 26.659999999999997 48 27.319999999999993 48 28 C46.0234375 29.40234375 46.0234375 29.40234375 43.375 30.9375 C42.516484375000005 31.441523437499995 41.65796875000001 31.945546875000005 40.7734375 32.46484375 C39.858203125 32.97144531250001 38.942968750000006 33.47804687499999 38 34 C37.08863281250001 34.590390625 36.17726562499999 35.180781249999995 35.23828125 35.7890625 C30.6774386829574 37.49456454557685 27.44220618396495 36.581385366888824 22.8125 35.4375 C21.9689697265625 35.240595703124995 21.125439453124997 35.04369140624999 20.25634765625 34.8408203125 C17.828514237708276 34.25776713801832 15.413731651005342 33.638667002946704 13 33 C11.887539062499997 32.7073828125 10.775078125 32.414765625 9.62890625 32.11328125 C1.6748548840238193 29.619883587757826 -4.557410228835227 25.07098295194129 -8.875 17.875 C-9 15 -9 15 -6.875 12.1875 C-6.169238281249999 11.46240234375 -6.169238281249999 11.46240234375 -5.44921875 10.72265625 C-2.8206095715119233 7.598083075570784 -1.4970513123096154 3.763536818655467 0 0 Z " fill="#8C767D" transform="translate(29,80)"/>
<path d="M0 0 C2.5083034988257253 1.7562291108887749 3.125949739591988 2.4228492492615246 4.40625 5.3359375 C4.651451498323354 7.878100092911289 4.632344221243017 10.020926057097626 4.171875 12.52734375 C1.1232567193698912 11.391583998392704 -1.7631041218023853 10.074933022436724 -4.6484375 8.58203125 C-16.13896078464228 2.48092495985653 -16.13896078464228 2.48092495985653 -28.828125 2.52734375 C-35.355825989726384 4.774905468019561 -40.29110961080043 8.421072812429102 -45.234375 13.171875 C-46.828125 14.52734375 -46.828125 14.52734375 -48.828125 14.52734375 C-49.09625 15.125468749999996 -49.364375 15.72359375 -49.640625 16.33984375 C-50.818988077552014 18.5105125770695 -52.05873481397963 19.83551587350381 -53.828125 21.52734375 C-54.25906497265899 15.49418413277408 -53.53073306086853 10.078667730269018 -52.203125 4.21484375 C-52.062939453125 3.521328125 -51.92275390625 2.8278125000000003 -51.7783203125 2.11328125 C-50.869655154742325 -1.6229467439736815 -49.980257895816806 -3.344221385242278 -47.01953125 -5.84375 C-30.64011994723461 -14.20386568329641 -14.933838578170565 -9.081764786376578 0 0 Z " fill="#7C8090" transform="translate(85.828125,22.47265625)"/>
</svg>
