<?xml version="1.0" encoding="UTF-8"?>
<!-- Generator: visioncortex VTracer 0.6.0 -->
<svg version="1.1" xmlns="http://www.w3.org/2000/svg" width="128" height="128">
<path d="M0 0 C42.24 0 84.48 0 128 0 C128 42.24 128 84.48 128 128 C85.75999999999999 128 43.519999999999996 128 0 128 C0 85.75999999999999 0 43.519999999999996 0 0 Z " fill="#A8C5E8" transform="translate(0,0)"/>
<path d="M0 0 C42.24 0 84.48 0 128 0 C128 42.24 128 84.48 128 128 C117.77 128 107.53999999999999 128 97 128 C97.66 124.37 98.32 120.74 99 117 C99.27123198131997 113.56468910675979 99.27123198131997 113.56468910675979 99.1875 110.5 C99.164296875 108.8719140625 99.164296875 108.8719140625 99.140625 107.2109375 C99.0071515736823 104.16329426574585 98.75332301724802 101.15856319198751 98.4375 98.125 C97.77132132683519 91.01226155113271 98.34902377976051 86.7634834682058 102.375 80.75 C107.8290823107434 72.56327686005457 110.14530148586252 63.82792491246888 109 54 C106.69865097564562 42.74340151131011 100.65591282442226 35.29229885524393 91.4765625 28.60546875 C76.54986543928524 18.929013715372612 56.99202483070201 11.250412679743055 39 13 C35.86947267151994 13.712528246570352 32.870475043633974 14.544735908111146 30 16 C29.67 16.66 29.34 17.32 29 18 C28.34 18 27.68 18 27 18 C22.286045833762124 27.321257785728292 19.08009276525476 36.70728863959686 16.25 46.75 C15.94425048828125 47.82725341796875 15.6385009765625 48.9045068359375 15.323486328125 50.014404296875 C12.184554025680905 61.40172869168832 11.257907963058187 68.34046458365331 17 79 C19.68535423919482 83.70907329945524 22.451283248530206 88.36900153595222 25.27783203125 92.99462890625 C28.24360227228958 97.87200215560273 30.903175069552958 102.69469960716235 33.130615234375 107.952392578125 C34.864471912061404 112.03603648594748 36.883005010993 115.99784195322329 38.828125 119.984375 C40 123 40 123 40 128 C26.799999999999997 128 13.599999999999998 128 0 128 C0 85.75999999999999 0 43.519999999999996 0 0 Z " fill="#64464F" transform="translate(0,0)"/>
<path d="M0 0 C9.713732353448748 6.453797791812647 16.225915058917167 13.549668834539546 19.5859375 24.8515625 C21.17020519560522 38.4762646822049 17.760167330554708 48.403406822200594 9.8984375 59.5390625 C9.238437500000003 59.2090625 8.578437500000007 58.8790625 7.8984375 58.5390625 C8.005429687499998 57.632851562499994 8.112421874999995 56.726640625 8.22265625 55.79296875 C9.28903404909994 44.95719433979093 8.434510532978422 37.708623305443936 1.4921875 29.1328125 C-2.470610633116223 25.170014366883784 -7.6515889239095 25.37110323284076 -12.91015625 24.890625 C-15.991100284448592 24.396355903564398 -18.43421292442082 23.11211481380311 -21.1015625 21.5390625 C-21.1015625 20.879062500000003 -21.1015625 20.2190625 -21.1015625 19.5390625 C-22.09156250000001 19.2090625 -23.08156249999999 18.879062500000003 -24.1015625 18.5390625 C-25.75 16.578125 -25.75 16.578125 -27.4765625 14.1640625 C-31.001378975448105 9.352333110204214 -31.001378975448105 9.352333110204214 -36.1015625 6.5390625 C-44.48415232322114 5.549812769309305 -50.813988062808015 10.586280401429775 -57.1015625 15.5390625 C-64.0106436770228 21.434149029459732 -65.26839622118061 29.62274033828254 -66.48828125 38.28515625 C-67.00534468706653 49.143488428397134 -62.186308715454246 61.698695584673374 -56.1015625 70.5390625 C-53.60142317439721 72.53510041371955 -51.13942219269448 73.58787355512501 -48.1015625 74.5390625 C-40.31319191239037 76.99095694424747 -36.240492011023825 82.36051402539735 -31.1015625 88.5390625 C-30.4621875 89.3060546875 -29.822812499999998 90.073046875 -29.1640625 90.86328125 C-26.092756050415716 94.73932905296094 -25.123007953176128 96.43183523411938 -24.1015625 101.5390625 C-32.6815625 101.5390625 -41.2615625 101.5390625 -50.1015625 101.5390625 C-51.5865625 96.58906250000001 -51.5865625 96.58906250000001 -53.1015625 91.5390625 C-53.86337059019584 89.64290067048434 -54.66661665402278 87.76193140656159 -55.5390625 85.9140625 C-56.12494140625 84.6572265625 -56.12494140625 84.6572265625 -56.72265625 83.375 C-57.1776953125 82.439140625 -57.632734375 81.50328125 -58.1015625 80.5390625 C-58.379597167968754 79.953828125 -58.6576318359375 79.36859375 -58.944091796875 78.765625 C-61.197082868813766 74.11668804474847 -63.75325970675736 69.72730390831715 -66.46826171875 65.333984375 C-80.2816938300773 42.954249166968324 -80.2816938300773 42.954249166968324 -77.1015625 28.5390625 C-75.97036459429451 23.959351855113013 -74.68915058805874 19.43735656877879 -73.3515625 14.9140625 C-73.029296875 13.764218749999998 -72.70703125 12.614374999999995 -72.375 11.4296875 C-70.26854135264254 4.261196444264165 -67.78888950254718 -2.5352261168373715 -63.1015625 -8.4609375 C-62.4415625 -8.4609375 -61.7815625 -8.4609375 -61.1015625 -8.4609375 C-60.7715625 -9.450937500000002 -60.4415625 -10.4409375 -60.1015625 -11.4609375 C-42.778315546367395 -21.250586359843545 -15.244909911049717 -9.510381024138002 0 0 Z " fill="#909AB4" transform="translate(90.1015625,26.4609375)"/>
<path d="M0 0 C11.879999999999995 0 23.760000000000005 0 36 0 C36 42.24 36 84.48 36 128 C25.769999999999996 128 15.539999999999992 128 5 128 C5.989999999999995 122.555 5.989999999999995 122.555 7 117 C7.271231981319971 113.56468910675979 7.271231981319971 113.56468910675979 7.1875 110.5 C7.172031250000003 109.414609375 7.156562500000007 108.32921875 7.140625 107.2109375 C7.007151573682293 104.16329426574585 6.753323017248022 101.15856319198751 6.4375 98.125 C5.771321326835192 91.0122615511327 6.349023779760515 86.76348346820582 10.375 80.75 C17.38169617501805 70.23276200423368 18.191688196664032 59.84447669320371 15.96923828125 47.69384765625 C14.049576430054202 38.20740215018459 10.567091953357775 30.222578953349345 5.95751953125 21.76171875 C4.577714654764293 19.22304664680752 3.266127547459405 16.65968471273723 2 14.0625 C1.6081250000000011 13.2903515625 1.2162500000000023 12.518203125 0.8125 11.72265625 C0 9 0 9 0 0 Z " fill="#524558" transform="translate(92,0)"/>
<path d="M0 0 C-0.14147460937500256 0.5978833007812483 -0.282949218749998 1.1957666015624966 -0.4287109375 1.811767578125 C-1.8322301478483354 8.177553522073097 -2.306789796562427 14.180335810555192 -2.25 20.6875 C-2.2577343749999983 21.585332031250005 -2.2654687499999966 22.483164062499995 -2.2734375 23.408203125 C-2.252635116178986 30.507016603921187 -1.5477797873455046 37.23947893602903 3 43 C6.608386165962628 45.760295404117755 9.919607050232528 47.75991267782945 14.375 48.75 C17 50 17 50 17.8125 52.1171875 C18.3269068579838 54.410584741844445 18.72157903053605 56.66702429035378 19 59 C31.66583679633932 63.45382634694023 31.66583679633932 63.45382634694023 44.625 62 C48.76206143080424 58.516158795112204 52.11235125626398 54.3533678563638 55.48828125 50.14453125 C56.623935395883734 48.73417610127714 57.80761343188044 47.362727506422345 59 46 C59.66 46 60.31999999999999 46 61 46 C60.979375000000005 47.27875 60.958749999999995 48.557500000000005 60.9375 49.875 C60.93230492884754 53.21023567987305 61.11451616224258 56.43809660518275 61.5 59.75 C62.515940296592646 69.23210943486473 62.701625142379314 78.77109075449988 60 88 C59 89 59 89 56.040771484375 89.113525390625 C54.747277832031244 89.10828857421876 53.4537841796875 89.1030517578125 52.12109375 89.09765625 C51.09110008239746 89.09553382873534 51.09110008239746 89.09553382873534 50.04029846191406 89.09336853027344 C47.839321989525445 89.08775479164203 45.638445911829564 89.07520006895231 43.4375 89.0625 C41.94856917368574 89.05748676489458 40.45963675869507 89.05292355253243 38.970703125 89.048828125 C35.313769252403404 89.0377809287711 31.65689441598751 89.02050712941411 28 89 C27.542060546875007 88.0614013671875 27.08412109375 87.122802734375 26.6123046875 86.15576171875 C24.56506163949898 82.14869575290184 21.956393606366944 78.9744606658843 19.08984375 75.52734375 C17.80552456713454 73.97415774754401 16.558388690009252 72.38812890784415 15.37890625 70.75390625 C11.882266223982839 66.1411317518377 8.86961522663971 64.34114622025312 3.375 62.4375 C-4.470729215125942 59.684769863950095 -4.470729215125942 59.684769863950095 -6.94921875 55.359375 C-13.75878245332612 40.06949962152797 -17.33120178757342 28.005735380162832 -12.34765625 11.44921875 C-10.365080749468781 6.3749747877708245 -6.115153111561828 0 0 0 Z " fill="#B6AE9E" transform="translate(38,39)"/>
<path d="M0 0 C1.125 1.94921875 1.125 1.94921875 2 4.6875 C4.856181541661563 12.328474413705521 9.030963369306676 19.050712823763234 13.279296875 25.992919921875 C16.241812687860346 30.872280939736783 18.90311390089025 35.694555223464405 21.130615234375 40.952392578125 C22.864471912061397 45.03603648594748 24.883005010993017 48.997841953223315 26.828125 52.984375 C28 56 28 56 28 61 C14.799999999999997 61 1.5999999999999979 61 -12 61 C-12 40.870000000000005 -12 20.739999999999995 -12 0 C-3.2107023411371234 -1.2556139512661275 -3.2107023411371234 -1.2556139512661275 0 0 Z " fill="#544851" transform="translate(12,67)"/>
<path d="M0 0 C0.6600000000000001 0.33000000000000007 1.3200000000000003 0.6600000000000001 2 1 C1.7228515625000007 1.527226562500001 1.4457031250000014 2.054453125000002 1.16015625 2.59765625 C-2.3612916072805703 10.505249125245694 -2.43423584276902 17.956170505271977 -2.63427734375 26.5048828125 C-2.8124481321996875 32.838699858543784 -3.575247598157773 38.42065263921532 -5.3515625 44.5234375 C-8.486689594485927 56.49735664400046 -3.197447253624823 69.0056740232875 2.30078125 79.53125 C4.889353865012886 83.29211871882332 7.72784191864644 84.66233797844116 12 86 C19.78837058760962 88.45189444424747 23.861070488976182 93.82145152539735 29 100 C29.639375 100.7669921875 30.278750000000002 101.533984375 30.9375 102.32421875 C34.0088064495843 106.20026655296095 34.97855454682387 107.89277273411936 36 113 C27.42 113 18.840000000000003 113 10 113 C8.515 108.05000000000001 8.515 108.05000000000001 7 103 C6.238191909804158 101.10383817048434 5.434945845977218 99.22286890656159 4.5625 97.375 C3.9766210937499977 96.1181640625 3.9766210937499977 96.1181640625 3.37890625 94.8359375 C2.923867187500001 93.900078125 2.4688281250000017 92.96421875 2 92 C1.7219653320312496 91.414765625 1.4439306640624991 90.82953125 1.157470703125 90.2265625 C-1.0955203688137587 85.5776255447485 -3.6516972067573903 81.18824140831711 -6.36669921875 76.794921875 C-20.180131330077295 54.415186666968324 -20.180131330077295 54.415186666968324 -17 40 C-15.868802094294518 35.42028935511303 -14.587588088058737 30.89829406877878 -13.25 26.375 C-12.927734375 25.225156249999998 -12.60546875 24.075312499999995 -12.2734375 22.890625 C-10.166978852642544 15.722133944264165 -7.687327002547178 8.925711383162628 -3 3 C-2.34 3 -1.6799999999999997 3 -1 3 C-0.6700000000000017 2.009999999999998 -0.33999999999999986 1.0199999999999996 0 0 Z " fill="#857481" transform="translate(30,15)"/>
<path d="M0 0 C17.82 0 35.64 0 54 0 C54.66 3.96 55.31999999999999 7.92 56 12 C57.548629596867215 15.408047637702627 59.06716255381474 18.483906134744718 60.9375 21.6875 C69.59483228275393 36.872486027246694 69.59483228275393 36.872486027246694 68.570068359375 42.260498046875 C68.38194580078125 42.83453369140625 68.1938232421875 43.4085693359375 68 44 C67.443125 43.113125 66.88625 42.22625 66.3125 41.3125 C55.6002863851854 25.374816329178284 34.738374982940925 17.786117084720715 16.75 13.6875 C8.551863780762588 12.25759251990045 0.9499343164288163 12.600019829002623 -7 15 C-6.662265625 14.3361328125 -6.32453125 13.672265625 -5.9765625 12.98828125 C-5.530546874999999 12.1052734375 -5.084531249999998 11.222265625 -4.625 10.3125 C-4.184140624999998 9.4423828125 -3.7432812500000026 8.572265625 -3.2890625 7.67578125 C-2.0809456958286816 5.1680236413413585 -1.0338007836039793 2.5845019590099416 0 0 Z " fill="#615A6F" transform="translate(38,0)"/>
<path d="M0 0 C4.648653377131382 6.898001785420746 5.7978072239769745 13.455537727067224 4.4375 21.6875 C3.152060957876131 26.57216836007069 0.45023745710290086 29.44735823480957 -3 33 C-4.190872332107077 34.4138330110258 -5.378330662082902 35.830548108042606 -6.5625 37.25 C-10.469030318034882 41.64165499805229 -12.916481412688071 43.768497934743124 -18.9375 44.4375 C-25.396130292912517 44.19748333370933 -32.14356226007989 42.71433834160972 -38 40 C-39.93390725801099 36.80182096112864 -40.80528312628297 33.676292533030946 -40 30 C-37.78919520334505 28.28586915766205 -35.790968518358504 26.976406886723495 -33.375 25.625 C-27.86221253132841 22.32062160318017 -23.810551193726155 19.23658568953779 -20 14 C-14.864280203946194 7.523427252267126 -8.80805405168519 0 0 0 Z " fill="#C1D0DC" transform="translate(95,59)"/>
<path d="M0 0 C2.8531463948362727 1.4470969278857453 5.401077987739782 3.1569155717821715 8.00244140625 5.015625 C4.748491322402813 6.100275027949063 1.98401934277814 6.298294279857462 -1.43505859375 6.515625 C-5.710555628206777 6.739034031306751 -5.710555628206777 6.739034031306751 -9.89990234375 7.51953125 C-13.259423044751998 8.314054767741627 -16.68581384046378 8.3034730130349 -20.12255859375 8.453125 C-35.8256428351433 9.339789914949385 -44.88625483398688 13.749682611916768 -56.99755859375 24.015625 C-57.84057680710646 0.10669178230701704 -57.84057680710646 0.10669178230701704 -52.99755859375 -6.984375 C-37.764162320146866 -17.616268424661012 -14.91310752131163 -6.853162699558755 0 0 Z " fill="#8889A0" transform="translate(83.99755859375,22.984375)"/>
<path d="M0 0 C-0.14147460937500256 0.5978833007812483 -0.282949218749998 1.1957666015624966 -0.4287109375 1.811767578125 C-1.8322301478483354 8.177553522073097 -2.306789796562427 14.180335810555192 -2.25 20.6875 C-2.2577343749999983 21.585332031250005 -2.2654687499999966 22.483164062499995 -2.2734375 23.408203125 C-2.252635116178986 30.507016603921187 -1.5477797873455046 37.23947893602903 3 43 C7.315370836462947 46.30111516314793 11.744383175120838 48.55470537315823 17 50 C17.659999999999997 53.3 18.32 56.599999999999994 19 60 C13.288788731340127 63.595947835822884 10.081976161735241 64.43794878359999 3.4921875 62.96875 C-4.38616055447423 59.9063200352514 -7.067936990118483 55.00333009767516 -10.453125 47.66796875 C-16.2036011297394 34.03237004842097 -16.39339964247455 21.803976476246454 -11 8 C-8.391455935907295 4.310856390425684 -4.85917920485258 0 0 0 Z " fill="#A5ABBA" transform="translate(38,39)"/>
<path d="M0 0 C0 17.819999999999993 0 35.64 0 54 C-6.269999999999996 54 -12.540000000000006 54 -19 54 C-18.781862623827763 49.321594861623524 -18.555848907340277 44.64488240472107 -18.310302734375 39.968017578125 C-18.22926832721089 38.380677590475045 -18.152675956184794 36.79310379168007 -18.080810546875 35.205322265625 C-17.061212406371183 12.85151199899299 -17.061212406371183 12.85151199899299 -8.5 4.9375 C-8.0140234375 4.453457031249997 -7.528046875000001 3.969414062499993 -7.02734375 3.470703125 C-3.424096092644973 0 -3.424096092644973 0 0 0 Z " fill="#513439" transform="translate(128,74)"/>
<path d="M0 0 C11.879999999999995 0 23.760000000000005 0 36 0 C36 12.21 36 24.42 36 37 C30.36337209302326 35.87267441860465 30.36337209302326 35.87267441860465 27.1875 32.9375 C26.5107421875 32.31359375 25.833984375 31.6896875 25.13671875 31.046875 C24.431601562499992 30.37140625 23.726484375 29.6959375 23 29 C22.243320312500003 28.28328125 21.486640625000007 27.5665625 20.70703125 26.828125 C16.565799078712203 22.81149627457395 16.565799078712203 22.81149627457395 15 21 C15 20.34 15 19.68 15 19 C14.340000000000003 19 13.680000000000007 19 13 19 C7.871850184423408 14.149404684751003 3.4728978892743356 8.131636566411094 0 2 C0 1.3399999999999999 0 0.6799999999999999 0 0 Z " fill="#391720" transform="translate(92,0)"/>
<path d="M0 0 C7.186595460949415 2.874638184379762 10.244244045209497 7.008583480830467 13.5 13.9375 C16.334708926878186 20.563973922316535 18.830017059243527 27.326357066285766 21.30224609375 34.0947265625 C21.950681059942244 35.86533064793187 22.609676620914158 37.6320574159856 23.26953125 39.3984375 C23.6343359375 40.380703125 23.999140625 41.36296874999999 24.375 42.375 C24.692109375 43.228359375 25.00921875 44.08171874999999 25.3359375 44.9609375 C26 47 26 47 26 49 C17.42 49 8.84 49 0 49 C0 32.83 0 16.659999999999997 0 0 Z " fill="#221D2E" transform="translate(0,79)"/>
<path d="M0 0 C2 1 2 1 2.81640625 2.890625 C3.5641124187512503 5.25509895772646 4.297588681461917 7.62165992144125 5 10 C5.247500000000002 10.804374999999993 5.4950000000000045 11.60875 5.75 12.4375 C6.319001529776358 18.269765680207655 5.515348752867453 23.68223800732052 3.48828125 29.15234375 C1.6881094490333624 34.377285503437776 1.5248916683634661 39.325449347015535 1.4375 44.8125 C1.2037540119781767 52.76252736468537 0.5826723413545523 60.19214978265089 -1 68 C-4.960000000000008 68 -8.920000000000002 68 -13 68 C-12.670000000000002 66.453125 -12.340000000000003 64.90625 -12 63.3125 C-10.475232523669774 54.888430042118785 -10.678723517062835 46.613905691370206 -11.5625 38.125 C-12.21971939493774 31.10791907558786 -11.73314462928704 26.890874406670633 -7.6875 21 C-3.2441466304436943 14.444682374543476 -1.65794157830112 7.630650369696454 0 0 Z " fill="#836E6F" transform="translate(110,60)"/>
<path d="M0 0 C1.4231249999999989 0.4021874999999966 1.4231249999999989 0.4021874999999966 2.875 0.8125 C3.8340625000000017 0.9710546875000006 3.8340625000000017 0.9710546875000006 4.8125 1.1328125 C13.112512152874565 3.00031523439678 17.728144450234574 9.543995868291873 22.875 15.8125 C23.533710937500004 16.601406249999997 24.192421875 17.390312499999993 24.87109375 18.203125 C27.936588769201776 22.055209868253556 28.857240738215438 23.723703691077233 29.875 28.8125 C21.295 28.8125 12.715000000000003 28.8125 3.875 28.8125 C2.884999999999998 25.512500000000003 1.894999999999996 22.212500000000006 0.875 18.8125 C0.04906709659035613 16.87418347523517 -0.8169138047140763 14.951570211315072 -1.75 13.0625 C-3.528828099070573 9.296512583048795 -4.784191981187561 6.015798898686768 -5.125 1.8125 C-2.125 -0.1875 -2.125 -0.1875 0 0 Z " fill="#897B6F" transform="translate(36.125,99.1875)"/>
</svg>
