<?xml version="1.0" encoding="UTF-8"?>
<!-- Generator: visioncortex VTracer 0.6.0 -->
<svg version="1.1" xmlns="http://www.w3.org/2000/svg" width="128" height="128">
<path d="M0 0 C42.24 0 84.48 0 128 0 C128 42.24 128 84.48 128 128 C85.75999999999999 128 43.519999999999996 128 0 128 C0 85.75999999999999 0 43.519999999999996 0 0 Z " fill="#C78A45" transform="translate(0,0)"/>
<path d="M0 0 C30.03 0 60.06 0 91 0 C91 17.490000000000002 91 34.980000000000004 91 53 C87.7 54.32 84.4 55.64 81 57 C78.99384865977142 58.32405988455086 76.99330841713385 59.6566834580185 75 61 C71.5890297179072 62.97485016476967 68.63404602381077 64.34628903270156 64.66943359375 63.506103515625 C62.133745671415525 62.52721363214 59.70082841716996 61.42504182275378 57.25 60.25 C49.65095929030291 56.88138202747081 43.41968821357685 54.726189001184494 35 55 C35 55.66 35 56.32 35 57 C33.10156250000003 58.72656249999997 33.10156250000003 58.72656249999997 30.625 60.625 C29.812890624999994 61.256640625 29.000781250000003 61.88828125 28.1640625 62.5390625 C26 64 26 64 24 64 C23.67 64.66 23.340000000000003 65.32 23 66 C19.130284389730043 68.28665013334134 16.474037839891608 69.3887602835841 12 69 C9.23828125000005 68.01171875000001 9.23828125000005 68.01171875000001 6.3125 66.6875 C2.3768799246474615 64.952911892715 -1.3954558525189071 63.557036125387434 -5.5625 62.5 C-8.729721020007958 61.587840346237705 -9.759916509357268 61.270093926973075 -12 58.75 C-16.16695456063619 47.290874958250484 -17.524062591884707 33.03756273890024 -13.0625 21.4375 C-10.361149835325932 16.011445058277157 -6.6963187788529055 11.281558230904903 -2.890625 6.59375 C-0.7249645168592522 3.9636569807970443 -0.7249645168592522 3.9636569807970443 0 0 Z " fill="#9D6D3B" transform="translate(37,0)"/>
<path d="M0 0 C7.295122180069882 -0.2284726578765671 14.589320747487989 -0.3859143987438762 21.88720703125 -0.494384765625 C24.368677489331816 -0.5396055532020625 26.849908665932645 -0.6009952848629512 29.33056640625 -0.678955078125 C32.900664991927584 -0.7883313463686261 36.467592581406265 -0.8392092982831998 40.0390625 -0.87890625 C41.14553131103516 -0.9253578186035156 42.252000122070314 -0.9718093872070313 43.391998291015625 -1.0196685791015625 C46.51086983491736 -1.0217059524862522 49.02083414057749 -0.9310206015540125 52 0 C54.130205715782765 2.1327552253570516 55.44601731722031 4.158812326678981 56.836395263671875 6.826019287109375 C58.46101598947084 9.861323298327614 60.64780028588973 11.33111139297133 63.5 13.1875 C64.44359375 13.84234375 65.3871875 14.4971875 66.359375 15.171875 C67.23078125 15.77515625 68.1021875 16.3784375 69 17 C71.6519885553396 18.93415706667625 73.00417567523621 20.283461335738185 75 23 C75.63311133162291 28.646107613161675 73.72106765451147 34.12084420570357 71 39 C69.10387403165257 40.91063713647254 67.18283893309021 42.39925144906717 65 44 C60.369412995368776 41.542953834277306 56.5918742654646 38.96210601577887 52.7734375 35.3671875 C47.120966299676866 31.00955551737203 40.788564069367055 31.591050357267044 34 32 C29.06815841031259 32.778711829950645 25.927331130950158 34.67375186176925 21.875 37.4375 C12.781130172140756 43.40069332974377 0.8025106020011776 45.864020171812705 -10 44 C-13.206704317915321 42.0962953704938 -14.727607863546407 41.063931638854044 -15.6640625 37.40625 C-15.495216705985108 24.844122925292147 -10.596456129784656 16.085700928079113 -2.890625 6.59375 C-1.1212464382347491 4.166338088817916 -0.5910987005301251 2.8451349217332385 0 0 Z " fill="#8D5519" transform="translate(37,0)"/>
<path d="M0 0 C12.21 0 24.42 0 37 0 C35.967555765249834 5.162221173750833 34.75729537830201 7.0626194671261056 31.6875 11.1875 C25.099398485071433 20.51467986549634 22.682844279498266 27.082212159999287 22.5625 38.5 C22.55210693359375 39.37849609375 22.5417138671875 40.2569921875 22.531005859375 41.162109375 C22.60569563207733 46.688122351211135 23.57646421541803 51.227333904826494 25.294189453125 56.458984375 C26.532742825681563 60.91794788297949 26.666773259443094 65.39424728629061 26.8125 70 C26.8474658203125 70.9924169921875 26.882431640625 71.984833984375 26.91845703125 73.00732421875 C27.081609428650996 79.41131234566589 26.96908427697983 85.74542832531647 26.375 92.125 C26.289559326171876 93.215546875 26.289559326171876 93.215546875 26.202392578125 94.328125 C25.604543303183952 99.41558657523142 23.973195243261344 101.83814792953677 20 105 C18.515 105.495 18.515 105.495 17 106 C17 106.66 17 107.32 17 108 C15.486121098408258 108.68231161761881 13.963419942655328 109.34505969674406 12.4375 110 C11.5905859375 110.37125 10.743671875 110.7425 9.87109375 111.125 C7.0000000000000036 112 7.0000000000000036 112 0 112 C0 75.03999999999999 0 38.08 0 0 Z " fill="#C38C3F" transform="translate(0,0)"/>
<path d="M0 0 C0.6135937500000068 0.5491406250000068 1.2271874999999994 1.0982812499999994 1.859375 1.6640625 C4.911305515345745 3.568734463956659 7.483562779455383 3.202871378108341 11 3 C11.53173828125 4.216230468749998 11.53173828125 4.216230468749998 12.07421875 5.45703125 C15.739512083614457 13.080486391827648 19.614952143985477 18.0930195660591 26.379638671875 23.219970703125 C32.46862575141455 27.864360399246493 34.732260247708496 31.393561486250974 36 39 C15.870000000000005 39 -4.260000000000005 39 -25 39 C-26.32 34.05 -27.64 29.099999999999994 -29 24 C-30.347474350574146 20.8747447087961 -31.636846749439115 18.01696030519392 -33.25 15.0625 C-33.7952734375 14.019326171875008 -33.7952734375 14.019326171875008 -34.3515625 12.955078125 C-35.220990522406986 11.296300976986672 -36.1083570290784 9.646942477843055 -37 8 C-32.8909664892637 1.2645739360095547 -29.92064043339378 -2.9134760873761536 -22.1875 -5.25 C-13.67099557961454 -7.112487882588965 -7.264551769560001 -4.274719238550617 0 0 Z " fill="#ECB071" transform="translate(75,89)"/>
<path d="M0 0 C0 24.75 0 49.5 0 75 C-5.609999999999999 75 -11.219999999999999 75 -17 75 C-17.91145833333333 72.81901041666667 -18.82291666666667 70.63802083333333 -19.734375 68.45703125 C-22.252266862498644 63.56890167743319 -25.542821928517753 60.40394388898932 -29.9375 57.1875 C-36.730880495159184 51.86485136461755 -40.086321502358345 46.35059708061816 -42 38 C-41.34 38 -40.68000000000001 38 -40 38 C-40 37.34 -40 36.68000000000001 -40 36 C-39.4031640625 35.42121093750001 -38.80632812499999 34.842421875 -38.19140625 34.24609375 C-35.700093931835596 31.69260964492952 -34.45901251731536 29.27999180328287 -32.9375 26.0625 C-31.513456374764445 23.074652499837356 -30.116719127870283 20.189281862787226 -28.37890625 17.37109375 C-26.88782826391987 15.136542175647932 -26.88782826391987 15.136542175647932 -26.66015625 12.83984375 C-26 11 -26 11 -23.55859375 9.69140625 C-22.528632812500007 9.318867187500004 -21.498671875 8.946328125 -20.4375 8.5625 C-15.768340427071038 6.764957041649517 -11.68045752194476 4.786971681296507 -7.5234375 2.015625 C-4.609253260225387 0.07283550681692219 -3.7849228864853046 0 0 0 Z " fill="#B88F35" transform="translate(128,53)"/>
<path d="M0 0 C1.4777195624317585 2.255309896695252 2.757944625837027 4.431893866187636 4 6.8125 C4.3544921875 7.483779296874999 4.708984375 8.155058593749999 5.07421875 8.8466796875 C8.452707243874322 15.48120216664168 11 22.47589122788247 11 30 C-5.5 30 -22 30 -39 30 C-39 24.72 -39 19.439999999999998 -39 14 C-36.233072916666664 13.544270833333329 -33.466145833333336 13.088541666666671 -30.69921875 12.6328125 C-27.79940173077479 12.119145459456362 -27.79940173077479 12.119145459456362 -25 10 C-24.009999999999998 10 -23.02 10 -22 10 C-22 9.340000000000003 -22 8.680000000000007 -22 8 C-16.03334386603276 3.251028791332203 -7.880202029137834 -2.6267340097126066 0 0 Z " fill="#C99964" transform="translate(39,98)"/>
<path d="M0 0 C12.21 0 24.42 0 37 0 C35.967555765249834 5.162221173750833 34.75729537830201 7.0626194671261056 31.6875 11.1875 C24.509631576645617 21.24245961118551 22.358923898829207 29.545340710626487 22 42 C17.52440484011042 40.67068143758504 13.850933767277153 38.87288654031427 9.875 36.4375 C6.408748354656597 34.316295112709696 3.9761348492338238 32.99403371230846 0 32 C0 21.439999999999998 0 10.879999999999999 0 0 Z " fill="#CC8628" transform="translate(0,0)"/>
<path d="M0 0 C0.6960937499999993 0.48855468749999886 1.3921874999999986 0.9771093749999977 2.109375 1.48046875 C8.844298827391441 5.020854383588201 17.88271085673174 3.439237571544197 25 1.4375 C32.821165171431964 -0.2733798812507402 38.514443345704734 4.013173148709292 45 8 C47.51653933799149 9.886381520022887 49.71967148443591 11.825733275857488 52 14 C51.34 14.329999999999998 50.68000000000001 14.659999999999997 50 15 C50 15.659999999999997 50 16.32 50 17 C48.101562499999986 18.726562500000014 48.101562499999986 18.726562500000014 45.625 20.625 C44.812890624999994 21.256640625000003 44.00078125 21.88828125 43.1640625 22.5390625 C41 24 41 24 39 24 C38.67 24.659999999999997 38.34 25.319999999999993 38 26 C34.13028438973004 28.28665013334134 31.474037839891608 29.388760283584105 27 29 C24.238281249999993 28.01171875 24.238281249999993 28.01171875 21.3125 26.6875 C17.376879924647454 24.952911892714994 13.604544147481093 23.557036125387434 9.4375 22.5 C6.2702789799920495 21.587840346237712 5.2400834906427285 21.270093926973075 3 18.75 C2.6700000000000017 17.8425 2.34 16.935000000000002 2 16 C1.4121875000000017 14.39125 1.4121875000000017 14.39125 0.8125 12.75 C-0.1285072889440464 8.406889435642853 -0.18039071188722033 4.419572441236902 0 0 Z " fill="#AE733B" transform="translate(22,40)"/>
<path d="M0 0 C8.052335988713937 1.1570763436713278 15.7937191113704 4.633140947277724 22 10 C23.9319605214429 13.725161447423048 23.958371146741346 16.86684956931944 24 21 C24.401730574948825 22.654927840197992 24.837209829646763 24.302179583360896 25.3125 25.9375 C26.17075506109794 29.64995212474922 26.17075506109794 29.64995212474922 24.75 32.5625 C23.000000000000004 34 23.000000000000004 34 21 34 C20.7421875 34.605859374999994 20.484375 35.21171875 20.21875 35.8359375 C17.72087414892265 40.27126833813094 13.040901231089158 42.400944099075986 8.28515625 43.796875 C5.8478819861235145 44.31440239032098 3.4836924025206346 44.79665676236672 1 45 C-0.0000000000000002220446049250313 44 -0.0000000000000002220446049250313 44 -0.1202545166015625 42.20933532714844 C-0.11803390502929688 41.42990066528321 -0.11581329345703124 40.65046600341796 -0.113525390625 39.847412109375 C-0.11341209411621095 38.52615577697753 -0.11341209411621095 38.52615577697753 -0.1132965087890625 37.17820739746094 C-0.10555458068847656 35.74227989196777 -0.10555458068847656 35.74227989196777 -0.09765625 34.27734375 C-0.09624130249023438 33.30213272094727 -0.09482635498046875 32.32692169189454 -0.0933685302734375 31.322158813476563 C-0.08775132698326495 28.193908572248404 -0.07519592807069445 25.065728767456577 -0.0625 21.9375 C-0.05748721552768114 19.822266655406352 -0.05292392571052471 17.707032193943384 -0.048828125 15.591796875 C-0.037776313606956186 10.394507038651966 -0.0210214619721169 5.197258549392011 0 0 Z " fill="#CB9137" transform="translate(0,32)"/>
<path d="M0 0 C7.196433133259532 1.9662931029849204 14.206263306605898 3.886204015527703 21 7 C22.5778125 7.340312499999996 22.5778125 7.340312499999996 24.1875 7.6875 C27.799452843061786 9.373077993428836 28.464116183683117 11.151290577671546 29.9453125 14.734375 C31.329054962023797 17.706858807310383 33.14355479085391 20.3039177460534 35 23 C34.0473828125 23.2307421875 33.094765625 23.461484374999998 32.11328125 23.69921875 C30.23189453125 24.188417968750002 30.23189453125 24.188417968750002 28.3125 24.6875 C27.071132812499997 25.000742187499995 25.829765625 25.313984375000004 24.55078125 25.63671875 C19.407781161274357 27.611313943581138 16.86977763309669 30.415762168288182 14.25 35.1875 C11.050175540107105 39.18728057486612 7.882516526000089 39.31661235808093 3 40 C1.3317331615524495 40.32523014101572 -0.33539679855237026 40.656510450494935 -2 41 C-1.8440234374999989 39.77667968750001 -1.6880468750000013 38.553359375 -1.52734375 37.29296875 C-0.3521707935627205 27.373913973387616 0.15325853157981584 17.889060159575877 -0.630615234375 7.918701171875 C-1.08179085421121 2.163581708422427 -1.08179085421121 2.163581708422427 0 0 Z " fill="#CB9351" transform="translate(26,60)"/>
<path d="M0 0 C2.583589796530262 1.1303205359819941 3.5525801451051393 2.4867572394234827 5 4.875 C5 5.534999999999997 5 6.194999999999993 5 6.875 C5.580078125 7.1534374999999955 6.16015625 7.431875000000005 6.7578125 7.71875 C8.900778904148723 8.823833720606316 10.862859290970988 10.049734633410608 12.875 11.375 C20.084315474987704 15.864317328746921 26.617251654641024 16.316150110309394 35 16.875 C35 24.795 35 32.715 35 40.875 C29.39 40.875 23.78 40.875 18 40.875 C16.6328125 37.603515625 16.6328125 37.603515625 15.265625 34.33203125 C12.74773313750137 29.443901677433203 9.457178071482232 26.278943888989303 5.0625 23.0625 C-1.7308804951591839 17.73985136461755 -5.086321502358345 12.225597080618158 -7 3.875 C-6.340000000000003 3.875 -5.680000000000007 3.875 -5 3.875 C-5 3.2150000000000034 -5 2.555000000000007 -5 1.875 C-2 -0.125 -2 -0.125 0 0 Z " fill="#B99650" transform="translate(93,87.125)"/>
<path d="M0 0 C2.3100000000000023 0 4.6200000000000045 0 7 0 C7.3544921875 0.8108203124999989 7.708984375 1.6216406249999977 8.07421875 2.45703125 C11.739512083614457 10.080486391827648 15.614952143985477 15.093019566059112 22.379638671875 20.219970703125 C28.468625751414564 24.864360399246493 30.732260247708496 28.393561486250945 32 36 C20.450000000000003 36 8.900000000000006 36 -3 36 C-4.511054894462816 32.97789021107437 -3.597691482456611 30.11097187586519 -3.125 26.875 C-2.1290228220492367 19.629868268484984 -1.5962328633722365 12.435714007478026 -1.24609375 5.1328125 C-1 2 -1 2 0 0 Z " fill="#D0A76B" transform="translate(79,92)"/>
<path d="M0 0 C12.870000000000005 0 25.74000000000001 0 39 0 C39 10.56 39 21.12 39 32 C29.570048291593935 30.428341381932324 23.23717918570246 24.549447470073464 16.81640625 17.7109375 C14.66426834582461 15.6837624418735 12.351481363174244 14.17458359723566 9.875 12.5625 C5.205575285963121 9.423450763886791 2.365009938644377 6.103442499179981 0 1 C0 0.6699999999999999 0 0.33999999999999997 0 0 Z " fill="#BE7A27" transform="translate(89,0)"/>
<path d="M0 0 C1.5778124999999932 0.8971875000000011 1.5778124999999932 0.8971875000000011 3.1875 1.8125 C3.826875000000001 2.176015624999998 4.466250000000002 2.5395312499999996 5.125 2.9140625 C6.665116796232724 3.8060468111514503 8.180227153620166 4.7410728639010316 9.6875 5.6875 C12.167698705887602 7.231714005089749 12.167698705887602 7.231714005089749 16 8 C16 14.93 16 21.86 16 29 C14.473749999999995 29.5775 12.947499999999991 30.155 11.375 30.75 C7.178355308114504 32.41804838174662 3.747385891933021 34.47458776847992 0 37 C-6.29378880737454 40.39994364439613 -6.29378880737454 40.39994364439613 -10.06640625 39.515625 C-11.999999999999986 38.68750000000001 -11.999999999999986 38.68750000000001 -15 37 C-14.855625000000003 36.4547265625 -14.711250000000007 35.909453125 -14.5625 35.34765625 C-13.184714033465468 29.75040076095346 -12.817125633211788 24.760542553828813 -13 19 C-11.638750000000002 18.659687500000004 -11.638750000000002 18.659687500000004 -10.25 18.3125 C-6.254040583582224 16.698747158754358 -5.166597042880781 15.735512142897896 -3 12 C-1.796985741786031 8.039862935407243 -0.8523959889963777 4.0488809477327905 0 0 Z " fill="#956B24" transform="translate(112,24)"/>
</svg>
