<?xml version="1.0" encoding="UTF-8"?>
<!-- Generator: visioncortex VTracer 0.6.0 -->
<svg version="1.1" xmlns="http://www.w3.org/2000/svg" width="128" height="128">
<path d="M0 0 C42.24 0 84.48 0 128 0 C128 42.24 128 84.48 128 128 C85.75999999999999 128 43.519999999999996 128 0 128 C0 85.75999999999999 0 43.519999999999996 0 0 Z " fill="#C2DDE9" transform="translate(0,0)"/>
<path d="M0 0 C42.24 0 84.48 0 128 0 C128 24.42 128 48.84 128 74 C121.10781318901181 70.5539065945059 118.48523661591611 64.53514680639246 115.0625 57.9375 C114.6179345703125 57.09131103515625 114.173369140625 56.2451220703125 113.71533203125 55.373291015625 C111.34440477820353 50.80352696615708 109.2122238464566 46.25315840982481 107.375 41.4375 C102.77012443937988 30.052342148397848 94.94347517104264 23.299979006603603 84 18 C69.05196161608572 12.266505825347945 45.678985773281624 7.800843972232296 30.0625 13.8125 C27.750604712216727 14.907608294213128 25.90235732706031 16.075068403599502 23.87109375 17.63671875 C22.000000000000004 19 22.000000000000004 19 20 19 C20 19.66 20 20.32 20 21 C19.2433203125 21.734765625 18.486640625 22.46953125 17.70703125 23.2265625 C14.85107902988479 26.152574154086288 13.387687123175695 28.67588486378828 11.6875 32.375 C11.1757421875 33.455234375 10.663984375 34.53546875 10.13671875 35.6484375 C8.116814403381294 41.604031759102575 8.718306213324041 46.201385943214134 11.0625 51.9375 C11.743125 53.631328124999996 11.743125 53.631328124999996 12.4375 55.359375 C13.507677332925864 57.85288818571726 14.599482067576654 60.31068213103527 15.75 62.765625 C16.356221825629895 64.0719649101984 16.960355336076887 65.37927575830588 17.5625 66.6875 C17.86760498046875 67.3495947265625 18.1727099609375 68.011689453125 18.487060546875 68.69384765625 C20.73871559329007 73.82041097766722 21.882143519770548 78.81961345428613 22.875 84.3125 C24.93516461783203 95.05999594877859 30.205345199208775 101.68238233347287 39.25 107.875 C56.937730134835334 118.25313220887377 76.20765347225668 119.31053385039792 96 115 C104.8795232069213 112.32857218987873 111.73410961043761 107.63165290712035 119 102 C124.45961002785516 98 124.45961002785516 98 128 98 C128 107.9 128 117.8 128 128 C85.75999999999999 128 43.519999999999996 128 0 128 C0 85.75999999999999 0 43.519999999999996 0 0 Z " fill="#3F5566" transform="translate(0,0)"/>
<path d="M0 0 C10.041000233645548 7.1814696079389435 14.591462141629123 15.671459032301357 19.386474609375 26.7509765625 C21.70196908605824 32.099893965501906 24.13520453992099 37.296998834197765 27 42.375 C27.603281249999995 43.44749999999999 28.206562500000004 44.52000000000001 28.828125 45.625 C30.57031117804894 48.52100743994281 30.57031117804894 48.52100743994281 33.46484375 49.984375 C36.81145094729706 53.485440991018464 36.26022322102125 56.558678124189115 36.189453125 61.2578125 C36.147558593750006 62.368984375 36.10566406250001 63.48015624999999 36.0625 64.625 C36.039941406249994 65.751640625 36.01738281249999 66.87828125 35.994140625 68.0390625 C35.935242535596956 70.81905231982323 35.853042009357466 73.59635332304921 35.75 76.375 C34.967498779296875 76.73960327148437 34.967498779296875 76.73960327148437 34.169189453125 77.111572265625 C29.961573677203972 79.13221706662338 26.457106873849213 81.1997128348619 22.9375 84.3125 C14.709354008079472 91.06863822272373 6.199795229858793 93.9857208653945 -4.25 95.375 C-5.327656250000004 95.547734375 -6.405312499999994 95.72046875 -7.515625 95.8984375 C-26.42971336890936 98.31216007427504 -42.36065994431274 95.22685216659507 -57.76953125 83.44921875 C-65.79799134816659 76.73565605373787 -68.89276271310624 70.45428058791789 -70.74462890625 60.405029296875 C-71.78879305573182 54.93250050693099 -73.35936194905905 50.1211779407555 -75.6875 45.0625 C-75.9880126953125 44.409509277343744 -76.288525390625 43.7565185546875 -76.59814453125 43.083740234375 C-77.19328064395111 41.80147485240746 -77.79072739380837 40.52027904786064 -78.390625 39.240234375 C-79.74578306068445 36.29892540237807 -80.98017321636432 33.31709733654788 -82.1875 30.3125 C-82.5883984375 29.331523437500003 -82.98929687500001 28.350546875 -83.40234375 27.33984375 C-85.28757930913143 20.74586315377531 -84.12946937213177 16.076908278158605 -80.9375 10.1875 C-80.62876953125 9.584863281250001 -80.3200390625 8.9822265625 -80.001953125 8.361328125 C-78.33474188252876 5.16379245786041 -76.64769678817157 2.0816437132581065 -74.25 -0.625 C-73.59 -0.625 -72.93 -0.625 -72.25 -0.625 C-72.25 -1.2850000000000001 -72.25 -1.9450000000000003 -72.25 -2.625 C-69.765625 -4.31640625 -69.765625 -4.31640625 -66.5 -6.1875 C-65.43265625000001 -6.8075390625 -64.3653125 -7.427578125 -63.265625 -8.06640625 C-46.375003493381236 -16.79614456754001 -15.227086691425527 -9.424485785353035 0 0 Z M-59.25 4.375 C-60.131718750000005 4.918339843750001 -60.131718750000005 4.918339843750001 -61.03125 5.47265625 C-66.31631353150696 9.293964440672926 -68.6039409191383 14.031757203932436 -69.80859375 20.265625 C-70.5961311965434 30.49149584434811 -66.70541117994284 38.28074420434041 -62.48828125 47.37109375 C-60.63539476699668 51.38505320301289 -59.30275636457685 55.2273968498631 -58.1875 59.5 C-55.269215927525984 69.55765760691938 -49.27398258477635 76.71865193982342 -40.25390625 81.9375 C-26.83061900291719 88.36112770731661 -15.071148871742821 88.24055146415549 -1.25 83.375 C6.989412081473034 79.3108821966947 12.09125746850087 71.26704288272245 15.145751953125 62.8017578125 C16.402269759810423 57.75537922726643 16.21987028231827 52.60791691210876 16.1875 47.4375 C16.207480468750006 46.30892578125 16.2274609375 45.18035156249999 16.248046875 44.017578125 C16.242202177554745 33.970543216604284 14.096192799549698 27.1395750832109 6.97900390625 19.960205078125 C6.387807617187505 19.39583740234375 5.796611328124996 18.831469726562503 5.1875 18.25 C4.262033691406245 17.348341064453123 4.262033691406245 17.348341064453123 3.31787109375 16.428466796875 C-10.979321678744839 2.8304528709318504 -25.292827252921242 -0.18065579580147784 -44.4375 0.09375 C-49.99151129711596 0.3080251272035497 -54.50806819637127 1.411292622732045 -59.25 4.375 Z " fill="#8098A3" transform="translate(92.25,21.625)"/>
<path d="M0 0 C28.379999999999995 0 56.760000000000005 0 86 0 C86 24.42 86 48.84 86 74 C79.10781318901182 70.5539065945059 76.48523661591612 64.53514680639246 73.0625 57.9375 C72.6179345703125 57.09131103515625 72.173369140625 56.2451220703125 71.71533203125 55.373291015625 C69.34440477820354 50.80352696615709 67.2122238464566 46.253158409824806 65.375 41.4375 C60.765063036471005 30.03982826603348 52.94134667062872 23.322483538420972 42 18 C35.658867856035044 15.477432833240217 29.356876838024363 14.1379356267022 22.62109375 13.2734375 C21.68265625 13.15266845703125 20.74421875 13.0318994140625 19.77734375 12.907470703125 C17.91939347917709 12.681775746739788 16.0585012135858 12.478841728750286 14.1953125 12.301513671875 C9.913539554673818 11.81243184837869 7.529397073271582 11.39273394353524 4.00390625 8.77734375 C2 6 2 6 0 0 Z " fill="#2A4D5E" transform="translate(42,0)"/>
<path d="M0 0 C13.835891938434514 0.26984895624606153 23.837752117418205 4.72005580954934 34 14 C34.96550781249999 14.8726953125 35.931015625 15.745390624999999 36.92578125 16.64453125 C44.428779860107966 23.703718210386675 48.984131878238856 29.61264355077016 49.56640625 40.14453125 C49.586121529636415 42.36710044101159 49.5844288007614 44.58995154635895 49.5625 46.8125 C49.598271484375005 48.460888671875 49.598271484375005 48.460888671875 49.634765625 50.142578125 C49.61574109737717 60.90411925031751 46.444351913950214 70.54591118964035 38.86328125 78.38671875 C31.591928694149075 84.68246006146002 21.552404247620785 86.544884897736 12.1875 87.3125 C8.289953497040543 86.93038759774907 4.770071996804141 86.05826582366431 1 85 C3.1085498546453536 82.89145014535465 4.108731760764407 82.53825796791585 6.875 81.6875 C10.854188356676872 80.23855641360136 12.794660160147927 78.73211357513428 15 75 C17.122421003631757 69.19673697608377 17.14718159912431 64.24898605161432 16.75 58.125 C16.7100390625 57.27808593750001 16.670078125000003 56.43117187499999 16.62890625 55.55859375 C16.163150052082898 47.33862625703051 14.83044646053385 40.327810620151716 11 33 C9.772114500374883 28.93596592787121 10.142366098447113 27.047808715239526 12.0625 23.3125 C14.972372881912634 16.65566751672042 13.202566312911173 11.607698938733535 11 5 C8.752562436162421 3.8497947512207062 8.752562436162421 3.8497947512207062 6 3 C4.906874999999999 2.62875 3.813749999999999 2.2575000000000003 2.6875 1.875 C1.8006249999999966 1.5862499999999997 0.9137500000000003 1.2974999999999994 0 1 C0 0.6700000000000017 0 0.33999999999999986 0 0 Z " fill="#B4D1D9" transform="translate(59,22)"/>
<path d="M0 0 C1.237620849609371 0.006284179687499503 1.237620849609371 0.006284179687499503 2.500244140625 0.0126953125 C21.77037063022965 0.3557944487861704 40.939647602567916 3.921620015062526 55.52734375 17.3515625 C60.87476626487393 23.3449112988488 63.79499208141394 30.400778158472242 66.948974609375 37.6884765625 C69.26446908605826 43.03739396550192 71.69770453992099 48.234498834197765 74.5625 53.3125 C75.16578125 54.38499999999999 75.7690625 55.45750000000001 76.390625 56.5625 C78.13281117804891 59.45850743994281 78.13281117804891 59.45850743994281 81.02734375 60.921875 C84.37395094729706 64.42294099101846 83.82272322102125 67.49617812418911 83.751953125 72.1953125 C83.71005859375 73.306484375 83.66816406250001 74.41765625 83.625 75.5625 C83.60244140625 76.689140625 83.57988281249999 77.81578125 83.556640625 78.9765625 C83.49774253559696 81.75655231982323 83.41554200935747 84.53385332304921 83.3125 87.3125 C82.52999877929688 87.67710327148437 82.52999877929688 87.67710327148437 81.731689453125 88.049072265625 C77.52407367720394 90.06971706662338 74.01960687384921 92.1372128348619 70.5 95.25 C63.6774091985842 100.87601333778287 56.21717106931328 104.71885526204578 47.3125 105.3125 C48.22 104.405 49.1275 103.4975 50.0625 102.5625 C54.19317880710935 97.76119333950113 55.57427549981537 92.29885164189147 57.3125 86.3125 C57.84597162103164 84.68479124001507 58.38680038054447 83.05946106824712 58.9375 81.4375 C59.156640624999994 80.780078125 59.37578125 80.12265625 59.6015625 79.4453125 C60.14885201926525 77.80344394220425 60.73440770746616 76.17429526151362 61.3359375 74.551513671875 C62.93412847970001 69.25071373995497 62.6813306741675 63.999953979676235 62.6875 58.5 C62.724238281249995 56.793603515624994 62.724238281249995 56.793603515624994 62.76171875 55.052734375 C62.795680021444056 45.243587139576036 60.87331879351498 38.29579347758358 53.897216796875 31.25341796875 C53.35363525390625 30.7366650390625 52.810053710937495 30.219912109375002 52.25 29.6875 C51.67999267578125 29.133364257812502 51.1099853515625 28.579228515625005 50.522705078125 28.00830078125 C39.93331616202008 17.976557884209097 28.68848077335602 12.412008489713564 14.0078125 12.20703125 C2.1563376668768797 12.030297598956366 -7.670559532015069 9.616609358460064 -18.6875 5.3125 C-12.994471141499112 0.49532173511463107 -7.15719674354979 -0.050148313092362784 0 0 Z " fill="#768881" transform="translate(44.6875,10.6875)"/>
<path d="M0 0 C2.6263016484302 2.551264458475046 4.94191902417753 4.921419856240192 7.125 7.875 C14.391891998621603 16.65394716603666 27.11896727915729 21.630825541587598 38 24 C59.54103266649484 25.596327616959073 77.69397527870572 22.413569322815462 95 9 C100.45961002785515 5 100.45961002785515 5 104 5 C104 14.900000000000006 104 24.799999999999997 104 35 C92.36913256408803 35.180808701544834 80.73919976710616 35.32754600307399 69.10724449157715 35.41449737548828 C63.70589321310895 35.45623204660262 58.30555394630258 35.51282878804426 52.90478515625 35.603515625 C47.6916371743676 35.69050323255425 42.47946183061302 35.73828708467383 37.26564407348633 35.75901794433594 C35.277611396187154 35.773789001098976 33.28963142280366 35.80263519412779 31.302013397216797 35.84584045410156 C28.514467344405517 35.904018592920636 25.73092752644635 35.91190979700974 22.94287109375 35.908203125 C21.71287887573242 35.95134643554687 21.71287887573242 35.95134643554687 20.458038330078125 35.995361328125 C16.877749780056604 35.943927709362356 14.831714502163209 35.81705545138709 12.21072769165039 33.24226379394531 C10.612213134765618 31.093139648437486 10.612213134765618 31.093139648437486 9.265512466430664 28.952293395996094 C7.515048566643202 26.25187028509356 5.2234712962002945 24.572194955807817 2.6875 22.625 C-0.809900551252273 19.564774517654257 -2.6835541465916855 17.60456411676853 -3.3125 12.9375 C-3.3427613484043057 8.103249592412283 -2.0160885163306617 4.354751195274233 0 0 Z " fill="#5F6869" transform="translate(24,93)"/>
<path d="M0 0 C3.0670220872716385 4.661873572652887 4.060530183271197 9.608165648493305 3.0703125 15.109375 C1.5860515936336697 19.54902266683027 0.10142232675846685 22.584946749624294 -4.125 24.8125 C-5.545670077856769 25.3776284287607 -6.984701327002547 25.898502752528465 -8.4375 26.375 C-9.129726562499997 26.612187499999997 -9.821953125 26.849375000000002 -10.53515625 27.09375 C-12.004898413357331 27.58455319066742 -13.48059489179363 28.057787079936176 -14.9609375 28.515625 C-17.841931987572103 29.515339175498205 -20.542461026622476 30.788425226715248 -23.3125 32.0625 C-29.54733127217942 34.7095127651708 -36.13044617992466 36.04741983439096 -42.640625 33.51953125 C-45.75247496094572 31.537418122701965 -46.65434865963987 28.817485388201717 -47.4375 25.375 C-48.216744176353274 17.460507943785437 -48.547364792086825 9.860597620725585 -43.4375 3.375 C-32.4238143742129 -9.09386170587814 -13.078650488590164 -8.719100325726778 0 0 Z " fill="#C1E1DB" transform="translate(70.4375,27.625)"/>
<path d="M0 0 C13.835891938434514 0.26984895624606153 23.837752117418205 4.72005580954934 34 14 C34.96550781249999 14.8726953125 35.931015625 15.745390624999999 36.92578125 16.64453125 C43.67896201292976 22.936914575143533 48.648971487801674 28.211108746203067 49.22265625 37.671875 C49.24693729857924 41.12672134070324 49.176663227767335 44.55015974665466 49 48 C48.47575439453125 47.647763671875 47.9515087890625 47.295527343749995 47.411376953125 46.9326171875 C41.24604925280303 43.111016223535 36.36341269093869 42.260185823549946 29.1875 42.25 C27.34759535615268 42.21675641366224 25.507743391539577 42.18041825107872 23.66796875 42.140625 C22.465635986328124 42.1333740234375 22.465635986328124 42.1333740234375 21.239013671875 42.1259765625 C19.009680276696386 42.00054465410264 17.117336032561624 41.70655086425744 15 41 C13.76953125 39.32812500000001 13.76953125 39.32812500000001 12.8125 37.25 C12.488945312499993 36.57453125 12.165390625 35.8990625 11.83203125 35.203125 C9.563601112703367 29.196577594200456 9.563601112703367 29.196577594200456 10.84765625 25.67578125 C11.248554687500004 24.8958984375 11.649453125000008 24.116015625000003 12.0625 23.3125 C14.972372881912634 16.65566751672042 13.202566312911173 11.607698938733535 11 5 C8.752562436162421 3.8497947512207062 8.752562436162421 3.8497947512207062 6 3 C4.906874999999999 2.62875 3.813749999999999 2.2575000000000003 2.6875 1.875 C1.8006249999999966 1.5862499999999997 0.9137500000000003 1.2974999999999994 0 1 C0 0.6700000000000017 0 0.33999999999999986 0 0 Z " fill="#97C3D0" transform="translate(59,22)"/>
<path d="M0 0 C13.860000000000001 0 27.720000000000002 0 42 0 C45 6.000000000000006 45 6.000000000000006 45 8 C46.32 8.66 47.64 9.32 49 10 C49 10.33 49 10.66 49 11 C48.177578125 11.02578125 47.35515625 11.0515625 46.5078125 11.078125 C38.23260156323525 11.498574516417609 30.610720382651678 12.502212123505624 23.84765625 17.6328125 C22 19 22 19 20 19 C20 19.66 20 20.32 20 21 C18.88044921875 22.07314453125 18.88044921875 22.07314453125 17.73828125 23.16796875 C14.664698539218547 26.346781111364557 13.034795358497625 29.352844827591184 11.1875 33.3125 C10.87619140625 33.95767578125 10.5648828125 34.6028515625 10.244140625 35.267578125 C9.486762882269746 36.84059343682437 8.742039421778966 38.41969126024595 8 40 C4.039999999999999 39.505 4.039999999999999 39.505 0 39 C0 26.13 0 13.259999999999998 0 0 Z " fill="#395B73" transform="translate(0,0)"/>
<path d="M0 0 C16.83 0 33.66 0 51 0 C51 11.88 51 23.76 51 36 C45.746784973743615 34.949356994748726 45.427321434889066 34.587235478535085 42.4296875 30.66796875 C40.32321517856849 28.2104177083299 37.823811306348546 26.489817309150713 35.19921875 24.6171875 C32.90482695130379 22.93001484518609 30.786933449201115 21.10308581360096 28.625 19.25 C23.285108610993206 14.909776265721472 17.4171712997792 11.750413389435348 11.33251953125 8.5888671875 C10.5872802734375 8.194736328125 9.842041015625 7.80060546875 9.07421875 7.39453125 C8.409948730468756 7.05268798828125 7.745678710937497 6.7108447265625 7.061279296875 6.358642578125 C5 5 5 5 0 0 Z " fill="#151F2F" transform="translate(77,0)"/>
<path d="M0 0 C1.237620849609371 0.006284179687499503 1.237620849609371 0.006284179687499503 2.500244140625 0.0126953125 C21.60094769214726 0.3527779214294622 41.56753559912849 3.742833575260896 55.66796875 17.6328125 C60.53038672139516 23.307153922528684 64.66762080158396 29.952186118480114 66.3125 37.3125 C65.4296875 40.167968750000014 65.4296875 40.167968750000014 64.3125 42.3125 C63.322500000000005 42.3125 62.332499999999996 42.3125 61.3125 42.3125 C60.7672265625 41.28125 60.221953125 40.25 59.66015625 39.1875 C57.47174305685691 35.36953999300706 54.88232914958412 32.38122597484435 51.75 29.3125 C50.965444335937505 28.538216552734376 50.965444335937505 28.538216552734376 50.1650390625 27.748291015625 C39.776035769378126 17.77678680126043 28.459274241458075 12.408808218352753 14.0078125 12.20703125 C2.1563376668768797 12.030297598956366 -7.670559532015069 9.616609358460064 -18.6875 5.3125 C-12.994471141499112 0.49532173511463107 -7.15719674354979 -0.050148313092362784 0 0 Z " fill="#6B8D97" transform="translate(44.6875,10.6875)"/>
<path d="M0 0 C0.6599999999999966 0 1.3200000000000003 0 2 0 C3.0532987040189994 1.65475620262076 4.041723113177753 3.35096219493046 5 5.0625 C11.029677772974395 14.774900222306584 20.441857194720136 19.81433832170299 31.35546875 22.6015625 C40.60992712415815 23.99588266863239 51.39992894099264 22.05755704535585 59.67578125 17.5390625 C61.587322541746886 16.120706061302684 63.30497503150866 14.668261416357254 65 13 C65.825 12.216250000000002 66.65 11.432500000000005 67.5 10.625 C67.995 10.088750000000005 68.49 9.552499999999995 69 9 C67.7955316228507 16.733954842748105 66.15419867101717 23.36789243943477 60.9375 29.375 C50.93055817723945 34.910755050888824 34.75797246300317 34.81079881515652 23.79296875 32.08984375 C14.329932279606126 29.304798962292722 5.325812232368918 24.659829302153554 -2 18 C-2.66 17.443124999999995 -3.3200000000000003 16.886250000000004 -4 16.3125 C-5.490657415772539 12.865354726025998 -4.2082909676732925 10.596333303491448 -2.90625 7.1953125 C-2.607187500000002 6.470859375000003 -2.3081250000000004 5.746406250000007 -2 5 C-1.6081250000000011 3.9893749999999955 -1.2162500000000023 2.978750000000005 -0.8125 1.9375 C-0.5443750000000023 1.2981249999999989 -0.27624999999999744 0.6587499999999977 0 0 Z " fill="#90A3A9" transform="translate(34,85)"/>
<path d="M0 0 C0 9.900000000000006 0 19.799999999999997 0 30 C-15.180000000000007 30 -30.36 30 -46 30 C-43.31052410832855 23.276310270821384 -40.10848033932268 20.338818565389843 -33.58984375 17.53125 C-31.65477717049839 16.779420014877743 -29.712708003390674 16.048536178204074 -27.7685546875 15.320556640625 C-19.126740718250574 12.021673379254324 -11.810481546816192 6.871640746675013 -4.65625 1.06640625 C-3 0 -3 0 0 0 Z " fill="#2E5057" transform="translate(128,98)"/>
<path d="M0 0 C6.424712832341399 0.9178161189059182 8.762945923219656 1.7566661288627898 13.375 5.625 C14.510393820586136 6.540392920848888 15.645810578557024 7.455757392370359 16.78125 8.37109375 C17.3291015625 8.8208154296875 17.876953125 9.270537109374999 18.44140625 9.73388671875 C20.543711957115356 11.441680797243151 22.71012843624037 13.060139355324523 24.875 14.6875 C30.715419853168292 19.25873100846505 35.20868084233653 23.021702105841314 38 30 C25.46 30 12.919999999999998 30 0 30 C0 20.099999999999994 0 10.200000000000003 0 0 Z " fill="#1D292C" transform="translate(0,98)"/>
<path d="M0 0 C2.5 2.3124999999999964 2.5 2.3124999999999964 5 5 C7.745871309841462 7.353603979864111 9.56270161480569 8.854233871601899 13 10 C13 22.54 13 35.08 13 48 C6.108363702993572 44.55418185149679 3.4843283277390213 38.53525340302835 0.0625 31.9375 C-0.380615234375 31.092036132812503 -0.82373046875 30.246572265625005 -1.2802734375 29.37548828125 C-4.120577031284682 23.890583662596512 -6.580345810421548 18.351539335486372 -8.83984375 12.6015625 C-10.715930422958394 8.394580263669063 -13.279713461161947 4.701833228109518 -16 1 C-15.060273437500001 0.9091210937499987 -15.060273437500001 0.9091210937499987 -14.1015625 0.81640625 C-12.875664062499993 0.6907226562499993 -12.875664062499993 0.6907226562499993 -11.625 0.5625 C-10.812890624999994 0.48128906250000014 -10.000781250000003 0.4000781250000003 -9.1640625 0.31640625 C-2.169321113978114 -0.7062905952486886 -2.169321113978114 -0.7062905952486886 0 0 Z " fill="#4A585C" transform="translate(115,26)"/>
</svg>
