<?xml version="1.0" encoding="UTF-8"?>
<!-- Generator: visioncortex VTracer 0.6.0 -->
<svg version="1.1" xmlns="http://www.w3.org/2000/svg" width="128" height="128">
<path d="M0 0 C42.24 0 84.48 0 128 0 C128 42.24 128 84.48 128 128 C85.75999999999999 128 43.519999999999996 128 0 128 C0 85.75999999999999 0 43.519999999999996 0 0 Z " fill="#A4A697" transform="translate(0,0)"/>
<path d="M0 0 C10.560000000000002 0 21.120000000000005 0 32 0 C33.84760613176671 12.933242922366949 32.550039029131455 24.325698873066838 30 37 C26.04 37 22.08 37 18 37 C20.720332371323018 44.12468002013172 24.673191992565485 47.563366758812286 30.734375 52.1171875 C31.482031250000006 52.738515625 32.2296875 53.35984375 33 54 C33 54.66 33 55.32 33 56 C34.825312499999995 56.5259375 34.825312499999995 56.5259375 36.6875 57.0625 C47.375410498442704 60.653233337804885 58.50300655576217 66.32704198596966 64.9375 75.875 C67.28105898310382 82.76782053854065 67.68633051170865 89.15277711961221 65 96 C63.31250000000003 98.99999999999997 63.31250000000003 98.99999999999997 61 102 C60.528203125000005 102.662578125 60.056406249999995 103.32515625 59.5703125 104.0078125 C54.95763667919121 109.98884191358461 50.191523251896086 112.0673417003391 43 114 C42.22269531250001 114.224296875 41.445390625 114.44859375 40.64453125 114.6796875 C27.785869798538087 118.0024566538291 17.95548367288825 114.95670944594735 6.625 108.5 C-1.35739427835032 103.7665047406009 -6.003940356375324 98.73086954333392 -11 91 C-11.6612890625 90.09314453125 -11.6612890625 90.09314453125 -12.3359375 89.16796875 C-16.847161021822615 82.08118853664035 -16.226914571904178 71.74447694435136 -14.52392578125 63.77099609375 C-13.563826031810901 60.15030139741596 -12.414099210123922 56.60343748465266 -11.2421875 53.046875 C-9.68174634255318 48.229560348502424 -8.980309395342132 43.36089991436441 -8.359375 38.34375 C-8 36 -8 36 -7 35 C-6.904688658469972 33.27804176302419 -6.815558457797064 31.555486260767452 -6.760009765625 29.831787109375 C-6.517524892856073 22.660929743955823 -5.617852692290498 16.512169220487273 -3.03515625 9.74609375 C-1.8349695644222948 6.5622022784485745 -0.9347631314475606 3.2716709600664693 0 0 Z " fill="#606758" transform="translate(36,0)"/>
<path d="M0 0 C19.799999999999997 0 39.599999999999994 0 60 0 C60 26.400000000000002 60 52.800000000000004 60 80 C57.69 81.32 55.379999999999995 82.64 53 84 C51.52754059700064 85.70252227822263 51.52754059700064 85.70252227822263 50.8125 87.609375 C50.510214843750006 88.278076171875 50.2079296875 88.94677734375 49.896484375 89.6357421875 C49.452724609375 90.68229980468749 49.452724609375 90.68229980468749 49 91.75 C45.10630145196478 100.1460237623167 41.00576634112478 107.44584533246277 32.19921875 111.390625 C28.165699189015882 112.50826097071673 24.14193205380306 112.30555236462482 20 112 C20 111.34 20 110.68 20 110 C20.70125 109.46375 21.402500000000003 108.9275 22.125 108.375 C27.816545597471418 103.67328841948013 32.83376334511834 97.241582060503 33.75 89.75 C34.28734499339315 83.80012543679226 33.10866192326536 79.26351809333345 30.5 73.9375 C22.862953072926572 64.96396986068872 11.521165062574767 60.699128247205664 1 56 C1 55.34 1 54.68 1 54 C0.42249999999999943 53.734453125 -0.15500000000000114 53.46890625 -0.75 53.1953125 C-7.816451586229455 49.441260094815604 -11.941921345290545 44.26293680493495 -15 37 C-14 36 -14 36 -11.78515625 35.8671875 C-10.8866796875 35.869765625 -9.988203124999998 35.87234375 -9.0625 35.875 C-8.166601562499999 35.872421875 -7.270703124999997 35.86984375 -6.34765625 35.8671875 C-4 36 -4 36 -2 37 C-2.041250000000005 36.05125 -2.082499999999996 35.1025 -2.125 34.125 C-2.1366288021523303 31.17709865438505 -1.7194146279352225 28.66482701075727 -1 25.8125 C0.4599483717712616 17.326550089079518 0 8.610621065805235 0 0 Z " fill="#A9A37A" transform="translate(68,0)"/>
<path d="M0 0 C11.88 0 23.76 0 36 0 C33.85563909774437 9.649624060150327 33.85563909774437 9.649624060150327 32.4375 13.5625 C30.75685182475619 18.90003591333713 30.506534767529327 24.176528201658137 30.290771484375 29.730712890625 C30.086252061086686 34.91374793891332 30.086252061086686 34.91374793891332 29 36 C28.530046499410762 38.76883431875825 28.099465979944284 41.5350069544447 27.6875 44.3125 C26.507835984293514 51.890993299624924 24.77057212982452 58.827452861875614 22 66 C18.521939210358717 66.8292885156796 15.671455849556736 67.04422960521917 12.125 66.625 C11.323203125 66.534765625 10.52140625 66.44453125 9.6953125 66.3515625 C6.459698669513593 65.92952591341482 3.2302268504924485 65.46146097864178 0 65 C0 43.55 0 22.1 0 0 Z " fill="#96A991" transform="translate(0,0)"/>
<path d="M0 0 C2.8097411134375534 2.0047675338715436 5.562781746734018 4.06652352767216 8.30078125 6.16796875 C9.366191406249996 6.962675781249999 9.366191406249996 6.962675781249999 10.453125 7.7734375 C14.577853354869575 11.026130261873902 17.028141292901182 13.895603213447714 18.30078125 19.16796875 C18.12113396670759 22.41445179806989 17.241523961292998 24.563287742738353 15.30078125 27.16796875 C6.918005552353122 33.89000586603758 -0.9558775029702247 37.32316673355159 -11.69921875 36.16796875 C-21.227879306375137 33.70172719423232 -28.96938948014703 28.088615093620277 -34.69921875 20.16796875 C-36.692723191664406 16.370817432543987 -37.26219141806575 13.430476093926345 -36.69921875 9.16796875 C-34.44496578740165 2.6463625047154835 -31.737844231287134 -1.6125188534818164 -25.6640625 -4.9921875 C-16.280298870476955 -9.003140144825956 -7.930718983032762 -5.382789005850022 0 0 Z " fill="#1B323B" transform="translate(70.69921875,68.83203125)"/>
<path d="M0 0 C1.3341796874999972 0.0038671874999991473 1.3341796874999972 0.0038671874999991473 2.6953125 0.0078125 C4.021757812499999 0.003945312500000853 4.021757812499999 0.003945312500000853 5.375 0 C9.70680436441367 0.23527371947294995 11.28444788439046 1.6232834019454359 14.1484375 4.6640625 C17.044646378530615 7.208395533475489 20.44734141895269 8.941051858077472 23.80859375 10.80078125 C24.472460937500003 11.240351562500003 25.136328125000006 11.679921874999998 25.8203125 12.1328125 C25.8203125 12.792812499999997 25.8203125 13.4528125 25.8203125 14.1328125 C26.40353271484375 14.421079101562498 26.986752929687498 14.709345703125003 27.587646484375 15.00634765625 C29.596185043511525 16.019731681603297 31.571193843222176 17.073576552289282 33.54296875 18.15625 C40.68366564356528 22.03611382061777 47.57878231080335 25.61502207184988 55.3203125 28.1640625 C59.04473169167055 29.607274936772342 62.290096658717104 31.690579786150337 65.62890625 33.86328125 C67.72791699061014 35.07928568974741 69.45103334524066 35.68486222700449 71.8203125 36.1328125 C71.8203125 38.7728125 71.8203125 41.4128125 71.8203125 44.1328125 C70.7478125 44.63296875 69.6753125 45.13312500000001 68.5703125 45.6484375 C64.1574318453012 48.17452310616058 62.75188445707941 51.327416762443434 60.8203125 55.8828125 C56.9266139519648 64.27883626231669 52.82607884112478 71.57865783246277 44.01953125 75.5234375 C39.98601168901588 76.64107347071673 35.962244553803075 76.43836486462482 31.8203125 76.1328125 C31.8203125 75.4728125 31.8203125 74.8128125 31.8203125 74.1328125 C32.5215625 73.5965625 33.2228125 73.0603125 33.9453125 72.5078125 C39.63685809747142 67.80610091948013 44.65407584511834 61.37439456050299 45.5703125 53.8828125 C46.10765749339315 47.93293793679223 44.92897442326537 43.39633059333346 42.3203125 38.0703125 C34.68326557292659 29.096782360688735 23.341477562574752 24.831940747205664 12.8203125 20.1328125 C12.8203125 19.472812500000003 12.8203125 18.8128125 12.8203125 18.1328125 C12.2428125 17.867265625 11.665312499999999 17.601718750000003 11.0703125 17.328125 C4.003860913770538 13.574072594815604 -0.12160884529054528 8.395749304934952 -3.1796875 1.1328125 C-2.1796875 0.1328125 -2.1796875 0.1328125 0 0 Z " fill="#808D77" transform="translate(56.1796875,35.8671875)"/>
<path d="M0 0 C10.560000000000002 0 21.120000000000005 0 32 0 C33.847606131766696 12.933242922366945 32.550039029131455 24.32569887306684 30 37 C21.66317924740185 37.22133152440526 13.539054434779445 36.9969759722329 5.25 36.0625 C4.476079101562497 35.9756494140625 3.702158203125002 35.888798828125 2.90478515625 35.79931640625 C-0.2009065818725162 35.42668849976868 -3.024459153395199 34.991846948868265 -6 34 C-6.432389246820186 25.20808531465618 -6.293099122553645 18.08887773813828 -3.0703125 9.78125 C-1.8429834017670714 6.5919860659056795 -0.9387965462342933 3.285787911820024 0 0 Z " fill="#796440" transform="translate(36,0)"/>
<path d="M0 0 C9.239999999999995 0 18.480000000000004 0 28 0 C28.33 4.29 28.659999999999997 8.58 29 13 C29.33 14.65 29.659999999999997 16.3 30 18 C28.810179843133014 28.030072724243233 27.22151180535826 36.86185428406683 19 43.375 C16.398599745533645 45.27524159212972 14.234521313072435 46.62060286785035 11 47 C0.3975903614457792 41.79518072289157 0.3975903614457792 41.79518072289157 -2 37 C-2.2503975133538745 32.993639786338115 -1.9696765030065535 29.698083150345386 -1 25.8125 C0.8600968498697057 17.41586562840507 0.11365522266062555 8.524141699546641 0 0 Z " fill="#A7885E" transform="translate(68,0)"/>
<path d="M0 0 C0 15.840000000000003 0 31.680000000000007 0 48 C-13.86 48 -27.72 48 -42 48 C-40.90853187482641 41.45119124895844 -40.3164011449102 40.42167922161532 -36 36 C-35.34 36 -34.68000000000001 36 -34 36 C-33.651953125000006 35.08154296875 -33.651953125000006 35.08154296875 -33.296875 34.14453125 C-31.637973934771424 31.40134846442625 -30.182459721204893 30.909358217168702 -27.25 29.6875 C-18.210907737273743 25.33630372453291 -14.972791373997936 18.579368812375336 -11.06591796875 9.686279296875 C-8.886088436840566 4.956151020964612 -5.870040734924942 0 0 0 Z " fill="#AABDB4" transform="translate(128,80)"/>
<path d="M0 0 C8.331917077327034 4.272036186638758 17.378163888879982 8.989774305529338 20.5625 18.35546875 C22.234399877960612 25.94986141599057 21.180800630180357 31.714292332094203 18.0625 38.73046875 C13.560488249833696 43.45758108767461 8.075275353349696 43.282483573761624 1.796875 43.46484375 C-1.6177652259654138 43.478668204356126 -5.024132334474274 43.44399989982631 -8.4375 43.35546875 C-3.0624999999997726 39.318299146475596 -3.0624999999997726 39.318299146475596 -0.8125 37.66796875 C-0.22210937500000227 37.23097656249999 0.36828124999999545 36.79398437500001 0.9765625 36.34375 C2.5625 35.35546875 2.5625 35.35546875 4.5625 35.35546875 C5.901885731840295 31.670025207611417 7.05442187729939 28.171795681566977 6.00390625 24.29296875 C2.3194681413581577 17.598898047119576 -4.278258104073558 13.574348166294712 -10.4375 9.35546875 C-11.165820312500003 8.824375000000003 -11.894140625000006 8.293281250000007 -12.64453125 7.74609375 C-18.038407394501945 4.011026766027172 -24.113392976734325 1.799407609952297 -30.74609375 2.65234375 C-32.67070414058591 3.118487917995118 -34.55886379604341 3.7292566820144657 -36.4375 4.35546875 C-37.4275 4.685468749999998 -38.4175 5.015468749999997 -39.4375 5.35546875 C-38.00625446907528 1.9961204313010512 -36.26021696334888 0.037540482036931166 -33.5 -2.33203125 C-32.8103515625 -2.9340234375000023 -32.120703125 -3.5360156249999974 -31.41015625 -4.15625 C-21.95292406458841 -11.291310322063005 -9.080471621659967 -4.344180173544139 0 0 Z " fill="#3C5654" transform="translate(81.4375,60.64453125)"/>
<path d="M0 0 C11.88 0 23.76 0 36 0 C33.85563909774437 9.649624060150327 33.85563909774437 9.649624060150327 32.4375 13.5625 C30.770406130804194 18.84718756535071 30.53155648052313 24.05263752872574 30.378662109375 29.554931640625 C30.250325635847467 33.2248181850169 30.091215681777538 34.863176477333695 28 38 C23.952644678302175 36.59983383465589 21.015195779453457 34.68187630225582 17.6875 32 C16.8044921875 31.29875 15.921484375 30.5975 15.01171875 29.875 C14.3478515625 29.25625 13.683984375 28.6375 13 28 C13 27.34 13 26.68 13 26 C12.484375 25.7525 11.96875 25.505 11.4375 25.25 C9.379731651917783 24.194734180470657 7.3797277706142586 23.088439743045765 5.375 21.9375 C3.6042660805138516 20.920967564739435 1.826217250067594 19.913108625033797 0 19 C0 12.73 0 6.459999999999999 0 0 Z " fill="#A19B71" transform="translate(0,0)"/>
<path d="M0 0 C14.062361541118305 0 24.76017544971932 4.919628435899554 34.9453125 14.75390625 C41.82641285591026 21.958477135461592 41.82641285591026 21.958477135461592 43 29 C28.81 29 14.619999999999997 29 0 29 C0 19.430000000000007 0 9.86 0 0 Z " fill="#E6DCD1" transform="translate(0,99)"/>
<path d="M0 0 C4.053233137944446 0.6605268817390879 7.2313546792287156 2.7927607534890626 10.6875 4.875 C23.092863680477933 12.10665386644915 32.1469572399445 13.302663552206695 46.125 9.9375 C46.87708740234375 9.738903808593747 47.629174804687494 9.540307617187494 48.404052734375 9.335693359375 C53.66088549337785 8.018749935140193 57.65753490005649 8.036902550010183 63 9 C61.87219868237099 11.768239597816645 60.766363283886704 13.22165534605621 58.5625 15.3125 C55.36788467691591 18.349783677578102 55.36788467691591 18.349783677578102 53 25 C38.81 25 24.619999999999997 25 10 25 C9.009999999999998 22.689999999999998 8.019999999999996 20.379999999999995 7 18 C4.70893515845998 15.386426522882488 4.70893515845998 15.386426522882488 2.1875 13.0625 C-1.9595992749922289 8.694668021661414 -1.9595992749922289 8.694668021661414 -2.140625 5.58203125 C-1.5625 3.375 -1.5625 3.375 0 0 Z " fill="#A7A0A4" transform="translate(33,103)"/>
<path d="M0 0 C10.560000000000002 0 21.120000000000005 0 32 0 C32 11.22 32 22.44 32 34 C27.338330057610904 33.06766601152218 26.132248730292062 32.638696829119674 22.625 29.9375 C17.689457083407575 26.306670090059647 12.52570035068564 23.543911935737658 7.00244140625 20.929443359375 C2.4573931112121414 18.660465413386657 2.0230500527161155 18.057625131790275 0 13 C0 8.71 0 4.42 0 0 Z " fill="#98967F" transform="translate(96,0)"/>
<path d="M0 0 C0.990000000000002 0 1.980000000000004 0 3 0 C3.3712500000000034 0.8456249999999983 3.7424999999999997 1.6912499999999966 4.125 2.5625 C8.850298843630199 11.225547879988696 15.529333376967301 16.600244755890074 25.04296875 19.65625 C37.24891211064775 21.80020811524352 51.77001442230389 19.556543618979504 64 18 C60.14607536825025 24.52202629988419 55.83673509450074 27.826852226058435 48.291748046875 29.775390625 C47.61797119140624 29.932011718750005 46.94419433593751 30.088632812499995 46.25 30.25 C45.54335205078125 30.416933593750002 44.8367041015625 30.583867187500005 44.108642578125 30.755859375 C29.866093796259058 33.94655495306118 20.108776549824398 30.12380280582579 7.7265625 22.78125 C2.435020350910712 19.32431128942018 -2.1005755837303717 15.70904365150436 -5 10 C-5 6.8539250159176675 -4.575670910814566 5.647629774666385 -2.5 3.3125 C-1.7575000000000003 2.662812500000001 -1.7575000000000003 2.662812500000001 -1 2 C-0.6700000000000017 1.3400000000000034 -0.33999999999999986 0.6800000000000068 0 0 Z " fill="#656566" transform="translate(32,84)"/>
<path d="M0 0 C1.3341796874999972 0.0038671874999991473 1.3341796874999972 0.0038671874999991473 2.6953125 0.0078125 C4.021757812499999 0.003945312500000853 4.021757812499999 0.003945312500000853 5.375 0 C9.70680436441367 0.23527371947294995 11.28444788439046 1.6232834019454359 14.1484375 4.6640625 C17.044646378530615 7.208395533475489 20.44734141895269 8.941051858077472 23.80859375 10.80078125 C24.472460937500003 11.240351562500003 25.136328125000006 11.679921874999998 25.8203125 12.1328125 C25.8203125 12.792812499999997 25.8203125 13.4528125 25.8203125 14.1328125 C26.748437499999994 14.596874999999997 26.748437499999994 14.596874999999997 27.6953125 15.0703125 C29.0703125 15.7578125 30.4453125 16.4453125 31.8203125 17.1328125 C32.41796875 19.312499999999986 32.41796875 19.312499999999986 32.8828125 22.0078125 C33.38301951562207 24.84369690261761 33.90720532858964 27.393490985768892 34.8203125 30.1328125 C30.099469042621507 28.335296955106386 25.568247388023963 26.171438775458142 21.0078125 24.0078125 C20.219550781250007 23.635273437500004 19.4312890625 23.262734375 18.619140625 22.87890625 C16.685575452387624 21.964857259310513 14.75285861914405 21.049014077984495 12.8203125 20.1328125 C12.8203125 19.472812500000003 12.8203125 18.8128125 12.8203125 18.1328125 C12.2428125 17.867265625 11.665312499999999 17.601718750000003 11.0703125 17.328125 C4.003860913770538 13.574072594815604 -0.12160884529054528 8.395749304934952 -3.1796875 1.1328125 C-2.1796875 0.1328125 -2.1796875 0.1328125 0 0 Z " fill="#787967" transform="translate(56.1796875,35.8671875)"/>
</svg>
