<?xml version="1.0" encoding="UTF-8"?>
<!-- Generator: visioncortex VTracer 0.6.0 -->
<svg version="1.1" xmlns="http://www.w3.org/2000/svg" width="128" height="128">
<path d="M0 0 C42.24 0 84.48 0 128 0 C128 42.24 128 84.48 128 128 C85.75999999999999 128 43.519999999999996 128 0 128 C0 85.75999999999999 0 43.519999999999996 0 0 Z " fill="#A75D28" transform="translate(0,0)"/>
<path d="M0 0 C17.159999999999997 0 34.31999999999999 0 52 0 C52 42.24 52 84.48 52 128 C45.06999999999999 128 38.14 128 31 128 C30.890429687500003 126.4325 30.780859375000006 124.865 30.66796875 123.25 C30.508430583976065 121.16661924368742 30.348239748557035 119.08328839468415 30.1875 117 C30.117246093749998 115.9700390625 30.046992187499995 114.940078125 29.974609375 113.87890625 C29.298604236758678 105.38828171368905 27.45225381000816 98.916404310415 22.875 91.625 C18.81169680520584 85.09541327403726 18.81169680520584 85.09541327403726 19.9375 80.1875 C20.733873589454475 76.7013877971562 21.109233455214422 73.579002032614 21 70 C19.545937500000008 69.90718749999999 19.545937500000008 69.90718749999999 18.0625 69.8125 C13.11774397299476 69.1437420127411 9.188837758201288 66.57409304415545 5 64 C5 63.34 5 62.68 5 62 C4.444414062500002 61.7795703125 3.8888281250000034 61.559140625 3.31640625 61.33203125 C-2.8039462012222884 57.81257056557032 -7.810754029792591 51.10544941775228 -10.31640625 44.5625 C-11.08170972338965 41.36818985019969 -11.627342651748478 38.261847848225116 -12 35 C-12.144374999999997 33.741875 -12.28875 32.48375 -12.4375 31.1875 C-11.850678344054671 26.912085078112586 -10.499270152403568 23.527933172447714 -8 20 C-6.453125 18.9790625 -6.453125 18.9790625 -4.875 17.9375 C-0.32640589633436434 13.876556494122738 -0.32640589633436434 13.876556494122738 0 0 Z " fill="#D97139" transform="translate(76,0)"/>
<path d="M0 0 C8.58 0 17.16 0 26 0 C26 11.727162082218381 23.557696579616117 19.617001103366555 18.875 30.1875 C14.475446018651787 40.26425621485563 11.088891411734235 52.92776263970927 14.98046875 63.71875 C16.711761677947464 66.91498309774917 18.675861008146118 69.61355079417808 21.01171875 72.3984375 C31.963797636044205 86.72866252574742 32 110.76440270504065 32 128 C21.439999999999998 128 10.879999999999999 128 0 128 C0 85.75999999999999 0 43.519999999999996 0 0 Z " fill="#E8AE5A" transform="translate(0,0)"/>
<path d="M0 0 C3.5399801534314435 1.7155288435860072 6.762165154811996 3.772630391733081 10 6 C10.603281249999995 6.404765624999996 11.206562500000004 6.809531249999999 11.828125 7.2265625 C18.357664450726176 12.074250880084584 20.591180331370943 20.172946670904167 22.9453125 27.62890625 C23.201261901855474 28.42223861694336 23.457211303710935 29.21557098388672 23.720916748046875 30.032943725585938 C24.528299714443335 32.54090926740715 25.326652303617507 35.051645721704375 26.125 37.5625 C26.66740452998434 39.249530467288395 27.210368763069965 40.936381089490425 27.75390625 42.623046875 C29.92835726246392 49.39185138954858 32.08031088951401 56.15385945084458 34 63 C27.079980708075084 70.07729245765049 19.390560986624507 71.98089005944892 9.625 72.4375 C4.9811946725673835 72.2375275217852 2.4766786257863203 71.2449000507339 -1 68 C-12.327778382087903 54.49479968634371 -18.971523197270066 35.72490099908275 -18 18 C-16.769969973054742 11.369838147441406 -14.196153161947318 5.30404838622384 -10 0 C-6.665493657524465 -1.667253171237764 -3.466615894699082 -0.9386352007241712 0 0 Z " fill="#89410C" transform="translate(43,31)"/>
<path d="M0 0 C3.3000000000000007 0 6.600000000000001 0 10 0 C10.15233521173893 10.358794398246916 9.567079824543413 20.66091962752106 9 31 C8.340000000000003 31 7.68 31 7 31 C6.568808593749999 31.86431640625 6.568808593749999 31.86431640625 6.12890625 32.74609375 C5.420080462545162 34.16129264052402 4.700305889497642 35.57111519171204 3.96484375 36.97265625 C-2.2256728156599515 49.5655321535288 -0.015454945284417931 63.41437497320172 4.0703125 76.40234375 C9.266747123194094 89.4966707309626 15.101658530174824 98.3157509573591 27.3125 105.25 C34.49518500638587 109.435461519462 40.3391088403942 114.0086632605913 45 121 C45.495000000000005 124.465 45.495000000000005 124.465 46 128 C32.8 128 19.599999999999994 128 6 128 C4.249999999999968 110.74999999999969 4.249999999999968 110.74999999999969 3.7275390625 105.3857421875 C2.2445603636944753 91.01786172155565 -1.3278587511299236 79.14280028462072 -9.59765625 67.1484375 C-14.852662105372918 59.097592874776865 -13.796530725253168 49.81687414152956 -11.9375 40.625 C-10.429934267794163 34.70345575378765 -8.116037422945979 29.241475933286413 -5.513427734375 23.73095703125 C-2.6060989309324434 17.518580025809133 -0.9478917351289873 11.374700821547856 -0.375 4.5 C-0.25124999999999886 3.0149999999999997 -0.12749999999999773 1.5299999999999998 0 0 Z " fill="#BC7C41" transform="translate(26,0)"/>
<path d="M0 0 C4.317566357079372 0.7885965949003406 8.428797541382835 2.563851114284354 12.5390625 4.0625 C17.022069947293403 5.3784718340882804 17.022069947293403 5.3784718340882804 26 6 C26 28.439999999999998 26 50.879999999999995 26 74 C19.069999999999993 74 12.14 74 5 74 C4.890429687500003 72.4325 4.780859375000006 70.865 4.66796875 69.25 C4.5084305839760646 67.16661924368742 4.3482397485570345 65.08328839468415 4.1875 63 C4.117246093749998 61.97003906250001 4.0469921874999955 60.940078125 3.974609375 59.87890625 C3.2986042367586776 51.38828171368907 1.452253810008159 44.916404310415004 -3.125 37.625 C-7.188303194794159 31.095413274037256 -7.188303194794159 31.095413274037256 -6.0625 26.1875 C-5.443112334072126 23.476140747163385 -4.9988107534432515 21.13458306867153 -5.0234375 18.34765625 C-5 16 -5 16 -3.5625 13.25 C-1.8284064573894767 9.643085431370125 -1.4882687402632087 6.797534236598466 -1.2109375 2.85546875 C-1 1 -1 1 0 0 Z " fill="#C27A35" transform="translate(102,54)"/>
<path d="M0 0 C8.909999999999997 0 17.819999999999993 0 27 0 C27 19.8 27 39.6 27 60 C15.715328467153284 60 15.715328467153284 60 10.5625 58.125 C9.079433593749997 57.602929687499994 9.079433593749997 57.602929687499994 7.56640625 57.0703125 C2.4220751627960624 54.92488370564097 2.4220751627960624 54.92488370564097 1.21630859375 52.28271484375 C1.028911132812496 51.5990283203125 0.8415136718750063 50.915341796875 0.6484375 50.2109375 C0.43695068359375 49.4421728515625 0.2254638671875 48.673408203125 0.007568359375 47.88134765625 C-0.20117919921875682 47.0542529296875 -0.40992675781249943 46.227158203125 -0.625 45.375 C-0.9487561035156205 44.097619628906244 -0.9487561035156205 44.097619628906244 -1.279052734375 42.79443359375 C-4.119332592572036 30.991614933497537 -5.370542526406211 20.509551679094194 -0.91015625 8.8671875 C0.3025604076765518 5.548233167656388 0.3025604076765518 5.548233167656388 0 0 Z " fill="#E3AA59" transform="translate(101,0)"/>
<path d="M0 0 C13.200000000000003 0 26.400000000000006 0 40 0 C40 13.997429305912597 40 13.997429305912597 37.48046875 16.5234375 C36.23452898306462 17.514943251371733 34.98177349538808 18.497939203775548 33.72265625 19.47265625 C30.11316446161203 22.672908606597943 29.134748528956578 26.598615298851527 28.6875 31.25 C29.10347155398702 36.24165864784431 30.00643590914467 41.094277301401846 31 46 C26.794967793234363 45.7526451643079 24.5867119825282 45.51686531794151 21.375 42.6875 C20.591250000000002 41.800625 19.807500000000005 40.91375 19 40 C13.89948063644706 35.570601605335604 8.66582997347571 32.447836978605245 2.265625 30.37890625 C1.4641503906250009 30.11795166015625 0.6626757812500017 29.8569970703125 -0.1630859375 29.588134765625 C-1.0723583984375011 29.297008056640625 -1.0723583984375011 29.297008056640625 -2 29 C-1.8613597998667757 24.72890110136193 -1.7128609943008328 20.458201076932696 -1.5625 16.1875 C-1.523183593749998 14.97255859375 -1.4838671875000031 13.7576171875 -1.443359375 12.505859375 C-1.3805175781250014 10.760791015625 -1.3805175781250014 10.760791015625 -1.31640625 8.98046875 C-1.2797485351562514 7.90692138671875 -1.2430908203125028 6.8333740234375 -1.205322265625 5.727294921875 C-1 2.9999999999999996 -1 2.9999999999999996 0 0 Z " fill="#C26027" transform="translate(36,0)"/>
<path d="M0 0 C4.536880399186764 1.4760398558998027 8.374551622315451 4.05469364957942 12.28125 6.7421875 C12.884531249999995 7.146953124999996 13.487812500000004 7.551718749999999 14.109375 7.96875 C19.192605948263044 11.742663885831654 21.337237879678682 16.91015113903604 23.28125 22.7421875 C24.317224140157265 29.846010175364157 21.238807327255543 34.960871035760334 17.28125 40.7421875 C14.53125 43.5546875 14.53125 43.5546875 11.28125 44.7421875 C2.2954269091833126 44.83880925366469 -6.4743600457026105 39.49656299437851 -13.01953125 33.70703125 C-16.4936376409614 29.689846158842336 -15.82863411274663 24.469019373473145 -15.59375 19.4296875 C-14.839981421894581 12.322726620720324 -11.847372486763476 6.898420842442391 -7.90625 1.0546875 C-5.158122364555354 -0.5941890812667872 -3.12212338638183 -0.5708359922862307 0 0 Z " fill="#83371D" transform="translate(40.71875,30.2578125)"/>
<path d="M0 0 C8.58 0 17.16 0 26 0 C26 11.727162082218381 23.557696579616117 19.617001103366555 18.875 30.1875 C14.76201426302407 39.58417018498027 13.783462818421194 47.979076042167776 13.34375 58.19140625 C13.2303125 59.1182421875 13.116875 60.045078125 13 61 C9.078549021372602 62.9607254893137 4.366310000867943 62.60306272719382 0 63 C0 42.209999999999994 0 21.419999999999995 0 0 Z " fill="#DAB05B" transform="translate(0,0)"/>
<path d="M0 0 C3.3000000000000007 0 6.600000000000001 0 10 0 C10.15233521173893 10.358794398246916 9.567079824543413 20.66091962752106 9 31 C8.340000000000003 31 7.68 31 7 31 C6.568808593749999 31.86431640625 6.568808593749999 31.86431640625 6.12890625 32.74609375 C5.420080462545162 34.16129264052402 4.700305889497642 35.57111519171204 3.96484375 36.97265625 C-2.1918950715080925 49.49682077283966 0.6880477200202115 61.81237613976324 3 75 C0.030000000000001137 75.495 0.030000000000001137 75.495 -3 76 C-4.11088188078611 74.63041959903083 -5.213371561542182 73.25403071160545 -6.3125 71.875 C-6.927382812499999 71.109296875 -7.542265624999999 70.34359375 -8.17578125 69.5546875 C-14.104817596493127 61.25149741304817 -13.888206106269077 53.63353929817176 -12.56640625 43.76171875 C-11.141536673884696 36.65507111260503 -8.594599469192453 30.254737819315274 -5.513427734375 23.73095703125 C-2.6060989309324434 17.518580025809133 -0.9478917351289873 11.374700821547856 -0.375 4.5 C-0.25124999999999886 3.0149999999999997 -0.12749999999999773 1.5299999999999998 0 0 Z " fill="#B3793C" transform="translate(26,0)"/>
<path d="M0 0 C8.25 0 16.5 0 25 0 C25.979007280981506 5.874043685889004 25.874343756537527 7.202901811511964 24 12.4375 C20.330352859950466 24.580464321066714 22.863942299547233 35.83842337112241 26.16015625 47.734375 C27 51.00000000000001 27 51.00000000000001 27 54 C23.500932316402526 52.57473320646569 22.008102906759802 50.98290160007458 20 47.8125 C19.486953125 47.0094140625 18.97390625 46.206328125 18.4453125 45.37890625 C17.21539888554699 43.35453492242735 16.02941059147159 41.31794023275422 14.875 39.25 C13.09067141307456 35.968349010618326 13.09067141307456 35.968349010618326 10.75 33.1875 C9 31 9 31 9 29 C8.340000000000003 29 7.680000000000007 29 7 29 C5.741634023609862 27.235962707462317 4.566173502892383 25.41220500995933 3.4375 23.5625 C1.46466077011857 20.09563563749736 1.46466077011857 20.09563563749736 -1 17 C-1.1328125 15.21484375 -1.1328125 15.21484375 -1.125 12.9375 C-1.1275781249999994 12.2040234375 -1.1301562499999989 11.470546875 -1.1328125 10.71484375 C-0.9573221136249259 7.127613793215337 -0.44547322527783706 3.563785802222678 0 0 Z " fill="#D68346" transform="translate(76,0)"/>
<path d="M0 0 C2.9991086801582085 0.07530996685773772 5.212197591622029 0.2736185920769998 7.47802734375 2.36279296875 C8.956717381936485 4.175661830124568 10.334905383467884 6.0287336110756655 11.6875 7.9375 C12.62499256426348 9.220317246870763 13.566264134871147 10.50038330908965 14.51171875 11.77734375 C14.918659667968754 12.347028808593748 15.325600585937508 12.916713867187497 15.744873046875 13.503662109375 C17.11534797922505 15.279844790460515 17.11534797922505 15.279844790460515 20 17 C20 17.659999999999997 20 18.32 20 19 C23.578470372669955 20.45232252784777 27.180601072131424 21.812265447758335 30.8125 23.125 C31.788320312500005 23.478203124999993 32.76414062500001 23.83140625 33.76953125 24.1953125 C34.5055859375 24.460859375 35.241640625 24.726406249999997 36 25 C37.3674374785939 30.333006166516242 37.015913919626485 34.91311440841915 35 40 C30.658938396703547 45.008917234572834 24.477234130676806 47.68828382596969 18 49 C14.124667130868403 46.41644475391227 13.544072406377325 43.55658629122021 12.1875 39.31640625 C11.932507324218747 38.546266937255865 11.677514648437494 37.776127624511716 11.414794921875 36.98265075683594 C10.87547827645382 35.3475428089919 10.341185505731119 33.71077059302955 9.8115234375 32.072509765625 C9.01218676976002 29.600193194916613 8.199053919328591 27.132796132564863 7.3828125 24.666015625 C4.696073016847038 16.501912396356424 2.116376530259508 8.334392882047176 0 0 Z " fill="#B0551A" transform="translate(61,45)"/>
<path d="M0 0 C3.3176163268716152 1.6588081634358112 4.245022559244205 5.2566794874814295 5.75 8.5 C6.104895019531256 9.253054199218752 6.459790039062497 10.006108398437501 6.825439453125 10.781982421875 C9.626547453994803 16.86271315975238 11.909909053494303 23.052574968080872 13.8330078125 29.46484375 C15.320480480090524 34.11347627978517 17.050882758148646 36.205750657446345 21 39 C21 39.66 21 40.32 21 41 C22.980000000000004 41 24.960000000000008 41 27 41 C27 44.96 27 48.92 27 53 C17.96401457712078 53.531528554287014 9.655643691330056 52.103762460886706 2 47 C1.21630859375 45.28271484375 1.21630859375 45.28271484375 0.6484375 43.2109375 C0.43695068359375 42.44209228515625 0.2254638671875 41.6732470703125 0.007568359375 40.881103515625 C-0.305552978515621 39.64058227539063 -0.305552978515621 39.64058227539063 -0.625 38.375 C-0.9487561035156205 37.09870727539062 -0.9487561035156205 37.09870727539062 -1.279052734375 35.796630859375 C-4.311048452891711 23.20534496449031 -5.3860083653031126 12.205203505922938 0 0 Z " fill="#D89958" transform="translate(101,7)"/>
</svg>
