<?xml version="1.0" encoding="UTF-8"?>
<!-- Generator: visioncortex VTracer 0.6.0 -->
<svg version="1.1" xmlns="http://www.w3.org/2000/svg" width="128" height="128">
<path d="M0 0 C42.24 0 84.48 0 128 0 C128 42.24 128 84.48 128 128 C85.75999999999999 128 43.519999999999996 128 0 128 C0 85.75999999999999 0 43.519999999999996 0 0 Z " fill="#DA7934" transform="translate(0,0)"/>
<path d="M0 0 C6.556895779508906 -0.47686514760064824 11.30584943720519 0.6419112065569053 17 4 C20.530458370445523 7.082761421957841 21.48255488695189 10.84151014766364 22.875 15.1875 C26.239535454492454 25.229312487016472 26.239535454492454 25.229312487016472 32.64453125 33.5703125 C34 35 34 35 34 37 C35.37488287014391 37.027497657402876 36.74993391468753 37.04661639835447 38.125 37.0625 C38.890703125 37.074101562500005 39.65640625 37.08570312500001 40.4453125 37.09765625 C43.06789806732408 37.05175800631554 43.06789806732408 37.05175800631554 45.890625 36.515625 C49.16794601892087 35.97214965515383 52.304452580880266 35.76137634773218 55.625 35.6875 C56.731015625 35.6501171875 57.837031249999995 35.612734375 58.9765625 35.57421875 C62.69670593033457 36.09811491783782 63.72554661076944 37.07202719802672 66 40 C68.95144168053424 44.8985733447756 70.65770124643979 50.5964142760762 72.4375 56 C72.8074609375 57.11375000000001 73.177421875 58.22749999999999 73.55859375 59.375 C74.15249289630837 64.25233104224935 72.83028746880248 67.5232475525463 71 72 C70.55756958007812 73.12559326171875 70.55756958007812 73.12559326171875 70.106201171875 74.27392578125 C68.90583606025432 77.30577243078116 67.68072989001078 80.32660057466414 66.4296875 83.337890625 C66.130625 84.08361328125 65.8315625 84.8293359375 65.5234375 85.59765625 C65.2545068359375 86.25258056640625 64.985576171875 86.9075048828125 64.70849609375 87.582275390625 C63.718905162829785 90.95922886715941 63.43647371924122 94.5082102460702 63 98 C29.340000000000003 98 -4.320000000000007 98 -39 98 C-39 86.78 -39 75.56 -39 64 C-35.37 63.00999999999999 -31.74 62.02000000000001 -28 61 C-25.311603134473177 59.71104259872001 -22.637275519307956 58.3905634556351 -20 57 C-19.34 57 -18.68 57 -18 57 C-17.002586081806243 46.211635227284646 -17.002586081806243 46.211635227284646 -17.625 35.4375 C-18.196289308193645 30.820864779732425 -17.454387610997173 28.06507948071407 -15 24 C-13.349340762962495 22.187185321540674 -11.619969815126705 20.49826048091502 -9.84375 18.80859375 C-4.081205109694963 13.155927893620273 -1.0792993699339917 8.038919445025606 0 0 Z " fill="#D79C62" transform="translate(39,30)"/>
<path d="M0 0 C8.775229636469675 -0.32500850505442713 8.775229636469675 -0.32500850505442713 11.6640625 1.9609375 C15.851813415064512 7.2679091496029145 17.76110119796253 13.824956526437077 19.85546875 20.18359375 C20.410410156249995 21.85421875 20.410410156249995 21.85421875 20.9765625 23.55859375 C21.570461646308374 28.435924792249352 20.24825621880248 31.70684130254631 18.41796875 36.18359375 C17.975538330078123 37.30918701171875 17.975538330078123 37.30918701171875 17.524169921875 38.45751953125 C16.323804810254316 41.489366180781175 15.098698640010781 44.51019432466414 13.84765625 47.521484375 C13.548593749999995 48.267207031249995 13.249531250000004 49.01292968749999 12.94140625 49.78125 C12.672475585937505 50.43617431640625 12.403544921874996 51.0910986328125 12.12646484375 51.765869140625 C11.136873912829785 55.14282261715941 10.85444246924122 58.691803996070206 10.41796875 62.18359375 C-12.352031249999996 62.18359375 -35.12203125 62.18359375 -58.58203125 62.18359375 C-60.10725203616688 59.13315217766625 -60.094684270871625 56.48166151760746 -59.58203125 53.18359375 C-55.433272388572334 40.78710227205414 -49.27195077506444 31.380659522323313 -37.58203125 25.18359375 C-34.288196621747716 23.736373970396997 -30.9593558477239 22.422407485640534 -27.58203125 21.18359375 C-27.5420703125 20.242578124999994 -27.502109375000003 19.301562500000003 -27.4609375 18.33203125 C-26.644424072021565 8.594352590405379 -26.644424072021565 8.594352590405379 -23.90234375 4.953125 C-16.692239763039225 -0.3950290562621035 -8.541834250800605 0.43780393651867655 0 0 Z " fill="#F0A565" transform="translate(91.58203125,65.81640625)"/>
<path d="M0 0 C18.810000000000002 0 37.620000000000005 0 57 0 C57 23.1 57 46.2 57 70 C49.116177818515084 68.8737396883593 49.116177818515084 68.8737396883593 46.10546875 67.66015625 C45.137705078124995 67.272470703125 45.137705078124995 67.272470703125 44.150390625 66.876953125 C43.50263671875 66.60818359375 42.854882812499994 66.3394140625 42.1875 66.0625 C41.520410156249994 65.79759765625 40.8533203125 65.5326953125 40.166015625 65.259765625 C37.31851747563181 64.10180219997943 35.19493035351233 63.19493035351233 33 61 C32.55324809342673 59.17840512932704 32.16616989401959 57.341931797041646 31.8125 55.5 C30.207959388309604 48.768952133958805 27.200963090855225 44.38928332771069 23 39 C21.64443476970422 37.063478242434584 20.290280974851854 35.125967757067414 18.9375 33.1875 C14.962475819348839 27.760063137957072 11.311273252088967 24.13689042011019 5.25 21.125 C2 19 2 19 0.5625 16 C-0.18065126218003513 10.71536880227535 0 5.336628213998465 0 0 Z " fill="#B95719" transform="translate(71,0)"/>
<path d="M0 0 C7.260000000000001 0 14.520000000000001 0 22 0 C22.66 2.97 23.32 5.94 24 9 C25.338016619113105 11.68275706916389 25.338016619113105 11.68275706916389 27 13.8125 C28.93883503052776 16.47355107939935 30.603804153439455 19.012946385964216 32 22 C32.66 22 33.32 22 34 22 C37.17405679713688 25.16443844320616 38.87682131461437 28.12235186662736 39.5 32.5625 C38.43116578709815 39.91073521370023 34.06952655904757 44.3632393208476 29.02734375 49.412109375 C25.105019124590978 53.48940322947831 22.005114075955632 57.645166173104734 21.99609375 63.5625 C22.1417578125 64.366875 22.287421875 65.17125 22.4375 66 C23.249577851292734 73.16014983517861 23.539445109008167 80.15627528798743 21 87 C14.78363218244655 92.62201290082812 8.184786707699294 93.09057925470007 0 94 C0 62.98 0 31.959999999999994 0 0 Z " fill="#9A5829" transform="translate(0,0)"/>
<path d="M0 0 C2.9737940319052996 2.7687047883256355 4.932351239505607 5.522590720986699 7 9 C7.659999999999997 9.329999999999998 8.319999999999993 9.659999999999997 9 10 C9 10.659999999999997 9 11.319999999999993 9 12 C10.319999999999993 12.659999999999997 11.64 13.319999999999993 13 14 C13 14.659999999999997 13 15.319999999999993 13 16 C13.783749999999998 16.268124999999998 14.567499999999995 16.536249999999995 15.375 16.8125 C18 18 18 18 20 21 C18.883685861240508 22.838635052074437 17.756703733459048 24.670797230817215 16.625 26.5 C15.99851562500001 27.520937500000002 15.372031249999992 28.541875000000005 14.7265625 29.59375 C14.156796874999998 30.387812499999995 13.587031249999995 31.181875000000005 13 32 C12.340000000000003 32 11.680000000000007 32 11 32 C10.340000000000003 34.97 9.680000000000007 37.94 9 41 C-4.200000000000003 41 -17.400000000000006 41 -31 41 C-32.52522078616688 37.94955842766625 -32.512653020871625 35.29806776760746 -32 32 C-27.851241138572334 19.603508522054142 -21.68991952506444 10.197065772323313 -10 4 C-6.706165371747716 2.552780220396997 -3.3773245977238986 1.2388137356405338 0 0 Z " fill="#ECAE6F" transform="translate(64,87)"/>
<path d="M0 0 C0.9062109375000063 0.32613281249999915 1.8124218749999983 0.6522656249999983 2.74609375 0.98828125 C4.573339843750006 1.6437695312500011 4.573339843750006 1.6437695312500011 6.4375 2.3125 C7.632460937499999 2.7417578124999977 8.827421874999999 3.1710156249999955 10.05859375 3.61328125 C14.355303661348373 5.125007730206818 18.678850880620516 6.559616960206839 23 8 C23 27.14 23 46.28 23 66 C14.420000000000002 66 5.840000000000003 66 -3 66 C-3 57.02762224710713 -3 57.02762224710713 -0.7421875 52.1015625 C-0.2819921874999949 51.044531250000006 0.17820312499999602 49.9875 0.65234375 48.8984375 C1.6325157017350023 46.71969984601077 2.6220870494333894 44.54516599183138 3.62109375 42.375 C6.747497981071291 35.13583301988564 7.611068762729886 30.49645472603325 5 23 C4.609414062499994 21.808906250000007 4.218828125000002 20.6178125 3.81640625 19.390625 C3.402617187499999 18.35421875 2.9888281249999977 17.317812500000002 2.5625 16.25 C2.1512890624999983 15.203281250000003 1.7400781249999966 14.156562500000007 1.31640625 13.078125 C-0.0066631659536540155 9.984419659431808 -1.4633665789208976 6.992627187407692 -3 4 C-2.010000000000005 2.680000000000007 -1.019999999999996 1.3599999999999994 0 0 Z " fill="#B28764" transform="translate(105,62)"/>
<path d="M0 0 C16.17 0 32.34 0 49 0 C50.12500000000003 10.12500000000035 50.12500000000003 10.12500000000035 50.5625 14.5625 C50.6462890625 15.4094140625 50.730078125000006 16.256328125 50.81640625 17.12890625 C50.87699218750001 17.7463671875 50.937578125 18.363828125 51 19 C49.14375 19.5878125 49.14375 19.5878125 47.25 20.1875 C43.22817662329619 21.719623191125258 41.26342373345874 23.2276271109021 39 27 C37.86595461907321 29.641196601465857 36.924496215042915 32.2727361656234 36 35 C29.413333333333327 33.22666666666666 29.413333333333327 33.22666666666666 27.0625 31.9375 C24.7782054131168 30.75182113001489 24.7782054131168 30.75182113001489 21.0625 30.75 C17.675765414416446 30.414491713951534 16.208912862984775 29.66159120345502 14 27.0625 C12 24 12 24 12 22 C11.340000000000003 22 10.68 22 10 22 C7.750541137837764 19.525595251621542 5.897517944171103 16.749464776247923 4 14 C3.577187500000001 13.3915625 3.1543750000000017 12.783125 2.71875 12.15625 C-0.2237351205088416 7.532344810628966 0 5.993678570219668 0 0 Z " fill="#C46830" transform="translate(22,0)"/>
<path d="M0 0 C6.55689577950892 -0.47686514760064824 11.305849437205183 0.6419112065569053 17 4 C20.530505245500194 7.082802352793166 21.482398311311286 10.841542228361718 22.875 15.1875 C25.717571630189752 23.63896374889856 29.226202770388312 30.156981061200952 35 37 C29.228699551569505 43.091928251121075 29.228699551569505 43.091928251121075 26 44 C23.25000000000003 43.125 23.25000000000003 43.125 21 42 C21 41.34 21 40.68000000000001 21 40 C20.45859375 39.89945312500001 19.917187499999997 39.79890625 19.359375 39.6953125 C16.38876488279709 38.819867796585896 13.954197801512564 37.38122416405493 11.25 35.875 C5.364707395279559 32.913137954577536 5.364707395279559 32.913137954577536 -0.9921875 33.2421875 C-5.175512600621367 34.82110786871701 -9.081301227699225 36.86071036410111 -13 39 C-14.330606748205827 39.67209218404274 -15.66300718142918 40.34070308258549 -17 41 C-18.085078766301578 34.502600640338756 -18.53907069640119 29.861585840914472 -15 24 C-13.349340762962498 22.18718532154068 -11.619969815126705 20.49826048091502 -9.84375 18.80859375 C-4.081205109694963 13.155927893620273 -1.0792993699339917 8.038919445025606 0 0 Z " fill="#CA8149" transform="translate(39,30)"/>
<path d="M0 0 C7.260000000000001 0 14.520000000000001 0 22 0 C22.350625 3.42375 22.70125 6.8475 23.0625 10.375 C23.17601806640625 11.4325146484375 23.2895361328125 12.490029296875 23.406494140625 13.57958984375 C24.965567826171394 29.752540934047428 20.492374912390332 38.9338528735711 10.5390625 51.58984375 C7.999999999999991 54.00000000000001 7.999999999999991 54.00000000000001 0 58 C0 38.86 0 19.72 0 0 Z " fill="#7A370F" transform="translate(0,0)"/>
<path d="M0 0 C6.362939150422189 4.563583407065096 6.925398768784369 15.740590805158334 8.1953125 22.94921875 C8.765080062677718 26.256170663292522 8.765080062677718 26.256170663292522 9.9296875 28.75390625 C10.90625 31.3671875 10.90625 31.3671875 11.90625 40.3671875 C1.0162499999999994 40.3671875 -9.873750000000001 40.3671875 -21.09375 40.3671875 C-21.09375 29.1471875 -21.09375 17.927187500000002 -21.09375 6.3671875 C-15.64875 4.882187500000001 -15.64875 4.882187500000001 -10.09375 3.3671875 C-7.897187499999999 2.2224999999999966 -7.897187499999999 2.2224999999999966 -5.65625 1.0546875 C-2.09375 -0.6328125 -2.09375 -0.6328125 0 0 Z " fill="#B08A5B" transform="translate(21.09375,87.6328125)"/>
<path d="M0 0 C6.930000000000007 0 13.86 0 21 0 C21 13.200000000000001 21 26.400000000000002 21 40 C3.999999999999986 43 3.999999999999986 43 1 43 C0.3224692475799742 39.6479346218368 -0.34003520424830924 36.2930642486699 -1 32.9375 C-1.2861718749999937 31.523076171874997 -1.2861718749999937 31.523076171874997 -1.578125 30.080078125 C-2.8855509455504347 23.37952015405405 -3.7593023943308594 17.162782482639813 -2.0625 10.4375 C-1.1963019483162896 6.940626383943563 -0.598546950084355 3.5912817005061637 0 0 Z " fill="#9A3F08" transform="translate(107,0)"/>
<path d="M0 0 C0.6599999999999966 0 1.3199999999999932 0 2 0 C2.5966875676719496 1.4657094611018664 3.150510115789615 2.9488824728851597 3.6875 4.4375 C4.000742187500009 5.261210937499996 4.31398437499999 6.084921875000006 4.63671875 6.93359375 C5.171250688758505 11.445503125542217 3.65037890142429 14.837040100607467 2 19 C1.7053686523437506 19.752248535156255 1.4107373046875011 20.504497070312496 1.107177734375 21.279541015625 C-0.09628876444890011 24.308368850720086 -1.3199056503788142 27.328130336139083 -2.5703125 30.337890625 C-2.869374999999991 31.083613281249995 -3.168437499999996 31.829335937500005 -3.4765625 32.59765625 C-3.745493164062495 33.25258056640625 -4.014423828125004 33.9075048828125 -4.29150390625 34.582275390625 C-5.281094837170215 37.95922886715941 -5.563526280758779 41.508210246070206 -6 45 C-15.569999999999993 45 -25.14 45 -35 45 C-34 39 -34 39 -33 36 C-32.34 36 -31.680000000000007 36 -31 36 C-30.738320312499994 35.270390625000005 -30.476640625 34.54078125000001 -30.20703125 33.7890625 C-28.97773698783459 30.948557311695453 -27.57920527667612 28.816180645289364 -25.6875 26.375 C-25.113867187500006 25.619609374999996 -24.540234374999997 24.864218749999992 -23.94921875 24.0859375 C-21.810095960355795 21.796776037735455 -19.701442696096123 20.56910144623548 -17 19 C-10.653213671524213 13.88192194181137 -5.2436220504853 8.687874021307124 -1.12109375 1.6171875 C-0.7511328125000034 1.083515625000004 -0.3811718750000068 0.5498437499999937 0 0 Z " fill="#D7A06A" transform="translate(108,83)"/>
<path d="M0 0 C1.1425644181164536 9.155955404635904 2.3286017828542285 19.21793428989089 -1 28 C-7.231848304926032 33.61647770428286 -13.80223518349592 34.08913724261066 -22 35 C-22 26.090000000000003 -22 17.180000000000007 -22 8 C-18.7 7.340000000000003 -15.399999999999999 6.680000000000007 -12 6 C-8.947967281510584 4.600452504588304 -8.947967281510584 4.600452504588304 -6.5 2.875 C-2.153110047846887 0 -2.153110047846887 0 0 0 Z " fill="#A3703B" transform="translate(22,59)"/>
<path d="M0 0 C0 9.899999999999999 0 19.799999999999997 0 30 C-7.8838221814848595 28.873739688359308 -7.8838221814848595 28.873739688359308 -10.89453125 27.66015625 C-11.539707031250003 27.401699218749997 -12.184882812500007 27.143242187499993 -12.849609375 26.876953125 C-13.497363281250003 26.60818359375 -14.145117187500006 26.339414062499998 -14.8125 26.0625 C-15.479589843750006 25.797597656250005 -16.146679687499997 25.532695312499996 -16.833984375 25.259765625 C-19.68148252436822 24.10180219997943 -21.805069646487652 23.194930353512348 -24 21 C-25.402728633154425 16.002198644787534 -25.671263521744805 11.271290882297968 -23.3125 6.5625 C-20.198861461555992 2.257329395168192 -16.2513904009449 1.4362251838192677 -11.23046875 0.375 C-7.509876552843096 -0.056894620226195514 -3.745575958450871 0 0 0 Z " fill="#9F5620" transform="translate(128,40)"/>
<path d="M0 0 C0.9062109375000063 0.32613281249999915 1.8124218749999983 0.6522656249999983 2.74609375 0.98828125 C4.573339843750006 1.6437695312500011 4.573339843750006 1.6437695312500011 6.4375 2.3125 C7.632460937499999 2.7417578124999977 8.827421874999999 3.1710156249999955 10.05859375 3.61328125 C14.355303661348373 5.125007730206818 18.678850880620516 6.559616960206839 23 8 C23 15.260000000000005 23 22.52000000000001 23 30 C20.689999999999998 30 18.379999999999995 30 16 30 C13.25564096672099 30.49336791609511 10.69138518695614 31.24452345629301 8 32 C7.608125000000001 30.783125 7.216250000000002 29.566249999999997 6.8125 28.3125 C4.036364208038279 19.997249665782917 1.0218826056836008 11.798243308113271 -3 4 C-2.010000000000005 2.680000000000007 -1.019999999999996 1.3599999999999994 0 0 Z " fill="#B67A47" transform="translate(105,62)"/>
</svg>
