<?xml version="1.0" encoding="UTF-8"?>
<!-- Generator: visioncortex VTracer 0.6.0 -->
<svg version="1.1" xmlns="http://www.w3.org/2000/svg" width="128" height="128">
<path d="M0 0 C42.24 0 84.48 0 128 0 C128 42.24 128 84.48 128 128 C85.75999999999999 128 43.519999999999996 128 0 128 C0 85.75999999999999 0 43.519999999999996 0 0 Z " fill="#81A484" transform="translate(0,0)"/>
<path d="M0 0 C6.903286238627359 3.7895662219038293 12.55480437598581 9.070581437030132 17.234375 15.3515625 C20.78594320443777 20.074782070850226 24.683779318717697 22.71979666845356 29.73828125 25.69921875 C33.82237141881018 28.198247319647535 36.68614616511752 30.581875995352547 38.234375 35.2265625 C38.894375 35.2265625 39.55437499999999 35.2265625 40.234375 35.2265625 C45.663494956928574 46.70584565616262 48.05212846042062 56.00623286653931 43.859375 68.3515625 C41.44917267800591 72.6157666081434 38.40745960826858 73.9130556643944 34.02734375 75.83984375 C31.075207173527446 77.30558988237449 29.47984071208461 78.78731569802706 27.296875 81.2265625 C16.886027395217994 92.31453840428001 0.5477294716839225 95.50533244313218 -14.0390625 96.1484375 C-15.268828124999999 96.17421875 -16.498593749999998 96.2 -17.765625 96.2265625 C-18.970898437499997 96.2768359375 -20.176171875 96.327109375 -21.41796875 96.37890625 C-24.888443933794917 96.22097330698016 -26.891667046437206 95.62089689572004 -29.953125 94.0390625 C-31.180957031250003 93.42998046874999 -31.180957031250003 93.42998046874999 -32.43359375 92.80859375 C-41.98193495057551 86.33107585011209 -44.08095454424398 72.21881034754942 -46.21484375 61.6328125 C-46.90817521774049 57.34497533780346 -47.260964539134456 53.08723330096504 -47.45703125 48.75 C-47.60763978688339 46.24209988342585 -47.60763978688339 46.24209988342585 -48.79296875 44.328125 C-50.487852918236726 40.66608611441222 -50.43244765988976 37.088500420044284 -49.072265625 33.29052734375 C-48.131399961361936 31.278900383807418 -47.10236411882501 29.350539121310533 -46.015625 27.4140625 C-45.667578125 26.74697265625 -45.31953125 26.079882812500003 -44.9609375 25.392578125 C-42.972540394448735 21.743501214627216 -41.5578862872364 19.859784272864417 -37.765625 18.2265625 C-36.67239301887306 16.311001187696775 -36.67239301887306 16.311001187696775 -35.765625 14.2265625 C-27.208176318489237 3.843840831020188 -13.648321451200019 -5.6603503692961326 0 0 Z " fill="#185D73" transform="translate(70.765625,18.7734375)"/>
<path d="M0 0 C12.540000000000001 0 25.080000000000002 0 38 0 C38 5.418449873944594 37.533767306293214 6.044465305309463 34.5625 10.1875 C30.364208038287572 16.98232594606469 30.196585030884407 22.95731880759194 30.16796875 30.80078125 C30.065442899612222 37.2525865494022 27.957528889063905 42.400817090396 24.875 48 C22.444905580457508 52.74164764788779 21.12106742932292 55.72640457593753 22 61 C22.3235546875 61.5530078125 22.647109375 62.106015625 22.98046875 62.67578125 C24.467148350592446 66.06495505211687 24.526683756470277 69.54160011302329 24.8125 73.1875 C25.917298551153788 84.82708731634925 28.38249743378537 98.16828190162397 35 108 C38.31096299566007 110.69626944372318 41.74635230314009 112.54412811023276 45.75 114 C48.95155751488349 115.42291445105933 50.18254765429862 117.014185432062 52 120 C52.495 123.96000000000001 52.495 123.96000000000001 53 128 C35.51 128 18.019999999999996 128 0 128 C0 85.75999999999999 0 43.519999999999996 0 0 Z " fill="#68A6AE" transform="translate(0,0)"/>
<path d="M0 0 C6.903286238627359 3.7895662219038293 12.55480437598581 9.070581437030132 17.234375 15.3515625 C20.78594320443777 20.074782070850226 24.683779318717697 22.71979666845356 29.73828125 25.69921875 C33.82237141881018 28.198247319647535 36.68614616511752 30.581875995352547 38.234375 35.2265625 C38.894375 35.2265625 39.55437499999999 35.2265625 40.234375 35.2265625 C45.70282010487557 46.78899440071477 47.976232541556115 55.96022907491569 43.82421875 68.38671875 C41.18554430553624 73.10002666431241 37.24100486069902 74.66915664638562 32.234375 76.2265625 C32.257578124999995 74.9851953125 32.280781250000004 73.743828125 32.3046875 72.46484375 C32.3234523119892 70.82292270094439 32.34165174887363 69.18099512220786 32.359375 67.5390625 C32.384511718750005 66.314130859375 32.384511718750005 66.314130859375 32.41015625 65.064453125 C32.47397932211766 57.182303718470095 30.487600203086586 53.005110223395235 25.234375 47.2265625 C24.574375000000003 46.8965625 23.914375000000007 46.5665625 23.234375 46.2265625 C23.234375 45.5665625 23.234375 44.9065625 23.234375 44.2265625 C21.749375 43.7315625 21.749375 43.7315625 20.234375 43.2265625 C20.234375 42.5665625 20.234375 41.9065625 20.234375 41.2265625 C19.574375000000003 41.2265625 18.914375000000007 41.2265625 18.234375 41.2265625 C18.234375 40.5665625 18.234375 39.9065625 18.234375 39.2265625 C17.574375000000003 39.2265625 16.914375000000007 39.2265625 16.234375 39.2265625 C15.418325014305253 37.31140459999313 14.606668678904867 35.39437415882285 13.796875 33.4765625 C13.344414062499993 32.40921875 12.891953125 31.341875 12.42578125 30.2421875 C11.234375 27.226562500000014 11.234375 27.226562500000014 10.6796875 24.89453125 C10.53273437499999 24.3441015625 10.385781250000008 23.793671875 10.234375 23.2265625 C8.468456132556042 22.217402166125353 8.468456132556042 22.217402166125353 6.234375 21.2265625 C5.347499999999997 20.401562499999997 4.460624999999993 19.5765625 3.546875 18.7265625 C-0.17952127871143375 15.588544581085117 -3.911037827586796 14.406362024904197 -8.765625 14.2265625 C-15.560838868191873 15.248478384053662 -21.3040145985212 18.159632337495317 -26.765625 22.2265625 C-27.519726562499997 22.780859375 -28.273828125 23.335156249999997 -29.05078125 23.90625 C-35.229757352720284 28.8783142429235 -39.5713155459686 34.516282491797924 -41.765625 42.2265625 C-41.7287839060285 46.04575590837908 -40.435026183196285 48.82713942025114 -38.765625 52.2265625 C-38.466884765625 52.85707519531249 -38.16814453125 53.48758789062501 -37.8603515625 54.13720703125 C-33.35411657819842 65.60947914395453 -33.35411657819842 65.60947914395453 -25.765625 74.2265625 C-25.765625 74.8865625 -25.765625 75.5465625 -25.765625 76.2265625 C-25.190703125 76.486953125 -24.615781249999998 76.74734375 -24.0234375 77.015625 C-21.60406846704481 78.31321046750192 -19.73555060572926 79.83131171139483 -17.640625 81.6015625 C-8.602655814817453 88.65558722989857 -0.07938712548380522 89.90051748197453 11.234375 90.2265625 C2.621607890822375 95.96840723945175 -7.740010279915424 95.93018856841748 -17.765625 96.2265625 C-18.974765625000003 96.278125 -20.18390625 96.3296875 -21.4296875 96.3828125 C-24.891263586554572 96.22067778868598 -26.898718415913493 95.61725350131655 -29.953125 94.0390625 C-31.180957031250003 93.42998046874999 -31.180957031250003 93.42998046874999 -32.43359375 92.80859375 C-41.98193495057551 86.33107585011209 -44.08095454424398 72.21881034754942 -46.21484375 61.6328125 C-46.90817521774049 57.34497533780346 -47.260964539134456 53.08723330096504 -47.45703125 48.75 C-47.60763978688339 46.24209988342585 -47.60763978688339 46.24209988342585 -48.79296875 44.328125 C-50.487852918236726 40.66608611441222 -50.43244765988976 37.088500420044284 -49.072265625 33.29052734375 C-48.131399961361936 31.278900383807418 -47.10236411882501 29.350539121310533 -46.015625 27.4140625 C-45.667578125 26.74697265625 -45.31953125 26.079882812500003 -44.9609375 25.392578125 C-42.972540394448735 21.743501214627216 -41.5578862872364 19.859784272864417 -37.765625 18.2265625 C-36.67239301887306 16.311001187696775 -36.67239301887306 16.311001187696775 -35.765625 14.2265625 C-27.208176318489237 3.843840831020188 -13.648321451200019 -5.6603503692961326 0 0 Z " fill="#527F7C" transform="translate(70.765625,18.7734375)"/>
<path d="M0 0 C0 13.200000000000003 0 26.400000000000006 0 40 C-24.75 40 -49.5 40 -75 40 C-75.99000000000001 37.03 -76.97999999999999 34.06 -78 31 C-78.66 29.680000000000007 -79.32 28.36 -80 27 C-79.0525390625 26.92652343750001 -79.0525390625 26.92652343750001 -78.0859375 26.8515625 C-75.05369194875213 26.598147165745857 -72.02740926701523 26.305942652130796 -69 26 C-67.8926953125 25.889140624999996 -66.78539062499999 25.778281249999992 -65.64453125 25.6640625 C-49.10634857157196 23.683218021001835 -37.203528367671325 17.85621999351767 -25.078125 6.76953125 C-22.10313533542515 4.23631636644285 -19.00628932438471 2 -15 2 C-14.504999999999995 3.980000000000004 -14.504999999999995 3.980000000000004 -14 6 C-13.408320312499995 5.566874999999996 -12.816640625000005 5.133750000000006 -12.20703125 4.6875 C-11.416835937499997 4.130624999999995 -10.626640624999993 3.573750000000004 -9.8125 3 C-9.035195312499994 2.443124999999995 -8.257890625000002 1.886250000000004 -7.45703125 1.3125 C-5 0 -5 0 0 0 Z " fill="#5697A1" transform="translate(128,88)"/>
<path d="M0 0 C4.721314640130231 3.1038272171226495 6.3820399584240874 7.519737996247805 8.5 12.5625 C9.515659312716053 18.2871252171268 8.80745422297798 23.687594898973487 8.1875 29.4375 C8.101132812499998 30.40171875 8.014765624999995 31.3659375 7.92578125 32.359375 C7.479149512457667 37.30893327178066 6.762481520827876 41.71255543751636 5.1875 46.4375 C0.9388042242454446 49.067645004038525 -2.8225754609214917 50.26835001562446 -7.8125 50.4375 C-11.648780225525506 49.50366862931287 -15.281473496493376 48.203013251753305 -18.8125 46.4375 C-18.8125 45.7775 -18.8125 45.11750000000001 -18.8125 44.4375 C-19.802500000000002 44.1075 -20.792500000000004 43.7775 -21.8125 43.4375 C-23.3828125 41.00390625 -23.3828125 41.00390625 -24.9375 38 C-25.7148046875 36.51693359375 -25.7148046875 36.51693359375 -26.5078125 35.00390625 C-30.189032875583123 27.762703295634395 -29.493264319126467 20.778457942960443 -27.125 13.0625 C-25.41475701758857 8.376069051755152 -23.83551121161517 5.401824050663805 -19.8125 2.4375 C-19.152500000000003 2.4375 -18.4925 2.4375 -17.8125 2.4375 C-17.8125 1.7775000000000034 -17.8125 1.1174999999999997 -17.8125 0.4375 C-12.171927421991356 -2.4737632660689783 -5.7274114817840385 -2.8698642478616776 0 0 Z " fill="#0A4360" transform="translate(63.8125,48.5625)"/>
<path d="M0 0 C12.540000000000001 0 25.080000000000002 0 38 0 C38 5.229942121431427 36.841856898081524 7.668288903691958 34.25 11.9375 C33.727929687499994 12.829853515625 33.727929687499994 12.829853515625 33.1953125 13.740234375 C32.15207502376456 15.507942320843387 31.08266440409973 17.256200365527892 30 19 C29.64099609375 19.5866845703125 29.2819921875 20.173369140625 28.912109375 20.77783203125 C27.997875714093492 22.22254171710736 27.005083734785643 23.616954104444126 26 25 C25.34 25 24.68 25 24 25 C23.7525 25.7231640625 23.505 26.446328125 23.25 27.19140625 C19.555000812100275 35.4936075503122 11.400031311776386 42.6490849821253 3 46 C2.01 45.67 1.02 45.34 0 45 C0 30.15 0 15.299999999999997 0 0 Z " fill="#C2E8BA" transform="translate(0,0)"/>
<path d="M0 0 C18.150000000000006 0 36.30000000000001 0 55 0 C55 10.89 55 21.78 55 33 C49.38266103914617 32.063776839857695 46.718305236838745 30.759828620997126 42.3125 27.625 C37.2139211579843 24.168564330261052 32.78911140966193 22.009250107303313 26.72265625 20.66015625 C18.52481377103473 18.672444085085893 10.034201409787357 15.05194906099261 4 9 C4 8.34 4 7.68 4 7 C3.3400000000000034 7 2.680000000000007 7 2 7 C1.3400000000000034 4.6899999999999995 0.6800000000000068 2.38 0 0 Z " fill="#9FD7B7" transform="translate(73,0)"/>
<path d="M0 0 C9.188829327338748 0 9.188829327338748 0 13 2 C14.2919921875 4.898193359375 14.2919921875 4.898193359375 15.046875 8.58984375 C15.189014282226562 9.249002838134771 15.331153564453125 9.908161926269528 15.47760009765625 10.587295532226563 C15.92679003447279 12.699686697673684 16.33858140151128 14.817464302863826 16.75 16.9375 C17.040568162020225 18.329279384749043 17.33351415853873 19.72056458474796 17.62890625 21.111328125 C18.46047310225023 25.066733414222213 19.234011554190943 29.031374090779565 20 33 C20.2118896484375 34.051794433593756 20.423779296875 35.1035888671875 20.64208984375 36.187255859375 C22.09782921839407 43.65032925533272 22.15098544395658 50.375235080192795 22 58 C14.739999999999998 58 7.479999999999999 58 0 58 C0 38.86 0 19.72 0 0 Z " fill="#A1D6D6" transform="translate(0,70)"/>
<path d="M0 0 C1.1371740718178387 0.7314096871010207 2.262668267847701 1.4813367983004113 3.375 2.25 C4.921875 3.2709375000000023 4.921875 3.2709375000000023 6.5 4.3125 C11.508684867754795 8.609495060808399 13.99519710634732 15.944449141909836 15.375 22.25 C14.878710937500003 22.552929687499997 14.382421875000006 22.855859375 13.87109375 23.16796875 C9.234207861120353 26.02752835889163 4.77677917329143 29.04036935280834 0.375 32.25 C0.25124999999999886 31.54875 0.12749999999999773 30.847499999999997 0 30.125 C-0.6656676303090023 27.06292890057862 -1.5791071504731633 24.203109222193426 -2.625 21.25 C-2.913749999999993 20.3425 -3.2025000000000006 19.435000000000002 -3.5 18.5 C-4.854236068471792 15.791527863056423 -5.824027572613815 15.268535428140432 -8.625 14.25 C-14.072885880535068 12.434038039821644 -20.0888629381541 12.821319467910733 -25.625 14.25 C-25.625 14.909999999999997 -25.625 15.57 -25.625 16.25 C-26.5325 16.86875 -27.439999999999998 17.487499999999997 -28.375 18.125 C-34.251453029433776 22.820605493968365 -35.55203947539998 31.37519107469575 -36.375 38.5 C-36.457499999999996 39.7375 -36.54 40.974999999999994 -36.625 42.25 C-40.27386098677942 37.7021442773474 -42.53806659771918 32.99849989516122 -43.625 27.25 C-42.50351701418819 18.182399761058214 -35.17112843743948 10.953664076655244 -28.390625 5.4296875 C-19.5221634056808 -0.8285531286153258 -10.349362815951018 -5.525699184008857 0 0 Z " fill="#2C5C6E" transform="translate(71.625,34.75)"/>
<path d="M0 0 C24.17552221861824 7.53365471942913 24.17552221861824 7.53365471942913 35.263671875 13.560546875 C38.90603690852653 15.546924559321972 38.90603690852653 15.546924559321972 43 16 C43 29.86 43 43.72 43 58 C41.02000000000001 58.66 39.03999999999999 59.31999999999999 37 60 C34.988175427208716 61.315423759132756 32.98600336645532 62.64590679559865 31 64 C30.340000000000003 64 29.680000000000007 64 29 64 C27.990562093792377 59.51065773291873 28.129461454989922 56.62154535908388 29.5 52.25 C31.926939624216786 43.19091661006638 30.60893890014465 36.508360800325335 26.83984375 28.03125 C26 26 26 26 26 24 C25.340000000000003 24 24.680000000000007 24 24 24 C23.752499999999998 23.216250000000002 23.504999999999995 22.432500000000005 23.25 21.625 C21.758192840301703 18.492204964633572 21.055846629536035 18.398168995143003 18 17 C10.93788761963097 12.998496813573446 4.602775528731684 8.83347220135932 0 2 C0 1.3399999999999999 0 0.6799999999999997 0 0 Z " fill="#6A9285" transform="translate(85,30)"/>
<path d="M0 0 C1.8725077409393407 1.5914153548860952 3.388150056094787 3.12817425869072 5 5 C5 5.659999999999997 5 6.32 5 7 C5.659999999999997 7 6.319999999999993 7 7 7 C12.46844510487557 18.562431900714756 14.7418575415561 27.733666574915702 10.58984375 40.16015625 C7.951169305536254 44.87346416431238 4.006629860699007 46.442594146385616 -1 48 C-0.9767968750000051 46.7586328125 -0.953593749999996 45.51726562499999 -0.9296875 44.23828125 C-0.9109226880107997 42.59636020094439 -0.8927232511263696 40.95443262220786 -0.875 39.3125 C-0.8582421874999966 38.49587890625 -0.8414843749999932 37.6792578125 -0.82421875 36.837890625 C-0.7603956778823431 28.95574121847008 -2.7467747969134138 24.77854772339525 -8 19 C-8.659999999999997 18.67 -9.319999999999993 18.340000000000003 -10 18 C-10 17.340000000000003 -10 16.68 -10 16 C-10.989999999999995 15.670000000000002 -11.980000000000004 15.340000000000003 -13 15 C-13 14.340000000000003 -13 13.68 -13 13 C-13.659999999999997 13 -14.319999999999993 13 -15 13 C-15 12.340000000000003 -15 11.68 -15 11 C-15.659999999999997 11 -16.319999999999993 11 -17 11 C-17.816049985694747 9.084842099993132 -18.627706321095133 7.167811658822849 -19.4375 5.25 C-19.889960937500007 4.182656250000001 -20.342421875 3.1153125000000017 -20.80859375 2.015625 C-21.739795529958712 -0.3413840955020362 -22.478407199617052 -2.5299283476117935 -23 -5 C-21.607507957196873 -5.367083958996034 -20.210766672830204 -5.718065631978206 -18.8125 -6.0625 C-17.646542968749998 -6.358339843750002 -17.646542968749998 -6.358339843750002 -16.45703125 -6.66015625 C-9.69943057529295 -7.594832336962661 -5.151027362805166 -3.87491389317713 0 0 Z " fill="#3F7073" transform="translate(104,47)"/>
<path d="M0 0 C0 13.200000000000003 0 26.400000000000006 0 40 C-11.549999999999997 40 -23.099999999999994 40 -35 40 C-34.0897062547602 36.35882501904078 -33.55117282732681 35.066223658893506 -31.375 32.25 C-30.836171875000005 31.551328124999998 -30.297343749999996 30.852656249999995 -29.7421875 30.1328125 C-28.054656718992774 28.066911588722093 -26.296052686136292 26.09666672655851 -24.5 24.125 C-19.986646120658804 19.062454830031 -16.822878153036086 13.275331868556819 -13.5390625 7.375 C-12.050733250993687 5.0782888746298624 -10.833638657488294 3.7615298124633796 -8.625 2.1875 C-8.060390624999997 1.7685546875 -7.495781249999993 1.349609375 -6.9140625 0.91796875 C-5 0 -5 0 0 0 Z " fill="#94C0B7" transform="translate(128,88)"/>
<path d="M0 0 C1.7009963184101338 2.5514944776151935 2.638614991309268 4.488578822755727 3.6875 7.3125 C5.436854098600946 11.761231958614403 7.396830554873475 16.083905682414652 9.5 20.375 C10.067187500000003 21.537734375 10.634374999999999 22.70046875 11.21875 23.8984375 C12.890797755716854 26.809853986928033 14.602416716096812 28.697058161514036 17 31 C17 31.659999999999997 17 32.31999999999999 17 33 C17.574921875 33.260390625 18.149843750000002 33.52078125 18.7421875 33.7890625 C21.161556532955203 35.08664796750193 23.030074394270734 36.60474921139482 25.125 38.375 C34.16296918518255 45.42902472989857 42.686237874516195 46.67395498197453 54 47 C45.38723289082239 52.74184473945175 35.025614720084576 52.70362606841748 25 53 C23.790859374999997 53.0515625 22.58171875 53.103125000000006 21.3359375 53.15625 C17.87436141344542 52.994115288685975 15.866906584086536 52.39069100131657 12.8125 50.8125 C11.993945312500003 50.4064453125 11.175390624999999 50.000390624999994 10.33203125 49.58203125 C0.8469036597430346 43.14739695510207 -1.4226177432861782 28.960204377615852 -3.4921875 18.41015625 C-4.246018264122117 13.3478927340107 -5.033941459300248 8.055729497838229 -4 3 C-1.97265625 1.16796875 -1.97265625 1.16796875 0 0 Z " fill="#327A91" transform="translate(28,62)"/>
<path d="M0 0 C0.3299999999999983 0.6600000000000001 0.6599999999999966 1.3200000000000003 1 2 C1.6599999999999966 2 2.319999999999993 2 3 2 C3.6187500000000057 2.70125 4.237499999999997 3.4025 4.875 4.125 C11.027815801936114 10.494974006710331 20.111665411574904 13.227533117768566 28.4765625 15.30078125 C34.9650345518739 17.098670564683324 40.30531448701157 20.743218200718342 45.7265625 24.6328125 C48.48387305114777 26.403420343920075 48.48387305114777 26.403420343920075 54 28 C54 32.29 54 36.58 54 41 C51 42 51 42 49.017333984375 41.290771484375 C48.26782470703125 40.90477783203125 47.518315429687505 40.5187841796875 46.74609375 40.12109375 C45.4771728515625 39.48554565429687 45.4771728515625 39.48554565429687 44.1826171875 38.837158203125 C43.276728515624995 38.37527099609375 42.37083984374999 37.9133837890625 41.4375 37.4375 C34.489121859571824 33.98311200738817 27.680824440019805 31.04893870735468 20.25 28.8125 C13.325680878175433 26.69892650951141 8.34421244854741 23.993574075226427 3 19 C2.271679687499997 18.5243359375 1.5433593749999943 18.048671875 0.79296875 17.55859375 C-1 16 -1 16 -1.42578125 13.984375 C-1.3883984375000011 13.24703125 -1.3510156250000023 12.509687499999998 -1.3125 11.75 C-1.2776953125000006 10.9623828125 -1.2428906250000011 10.174765625 -1.20703125 9.36328125 C-0.9307464970666786 6.209464730666733 -0.5313062917688001 3.1214244641417306 0 0 Z " fill="#7DB4A0" transform="translate(74,5)"/>
<path d="M0 0 C0.3299999999999983 0 0.6600000000000001 0 1 0 C1.0544782190666275 2.521130915694563 1.093898518916827 5.0410584978999395 1.125 7.5625 C1.1417578124999999 8.266972656249997 1.1585156249999997 8.971445312500002 1.17578125 9.697265625 C1.2413275287456216 16.80903686890008 -0.5514897483923846 22.518494834390765 -3.875 28.8125 C-5.814985348573639 32.57503816999391 -7.56757710404376 36.28997975724245 -9.0625 40.25 C-10.852312828063255 44.91710686811431 -13.229948638321655 48.84492295748248 -16 53 C-20.29 52.34 -24.58 51.68000000000001 -29 51 C-29 42.75 -29 34.5 -29 26 C-27.35 25.67 -25.7 25.340000000000003 -24 25 C-16.006765663610143 20.981857066087684 -8.700586086013143 14.219392211144765 -5 6 C-4.34 6 -3.6799999999999997 6 -3 6 C-2.6906250000000007 5.195625 -2.3812500000000014 4.391249999999999 -2.0625 3.5625 C-1 1.0000000000000036 -1 1.0000000000000036 0 0 Z " fill="#90BBA6" transform="translate(29,19)"/>
</svg>
