<?xml version="1.0" encoding="UTF-8"?>
<!-- Generator: visioncortex VTracer 0.6.0 -->
<svg version="1.1" xmlns="http://www.w3.org/2000/svg" width="128" height="128">
<path d="M0 0 C42.24 0 84.48 0 128 0 C128 42.24 128 84.48 128 128 C85.75999999999999 128 43.519999999999996 128 0 128 C0 85.75999999999999 0 43.519999999999996 0 0 Z " fill="#648F9A" transform="translate(0,0)"/>
<path d="M0 0 C1.03125 0.5568750000000016 2.0625 1.1137499999999996 3.125 1.6875 C3.8881250000000023 2.05875 4.6512500000000045 2.4299999999999997 5.4375 2.8125 C9.650961603992485 7.494124004436102 9.194713490789056 14.795341405668523 9.4375 20.75 C9.752858402420458 26.259846804553774 10.622416399426726 29.749519756225148 13.96875 34.13671875 C15.125 35.6875 15.125 35.6875 16.125 38.6875 C16.784999999999997 38.6875 17.444999999999993 38.6875 18.125 38.6875 C19.14259116279021 39.66959379664637 20.13904946590513 40.67364520550622 21.125 41.6875 C22.618122662296713 42.780292673130205 24.118670506557677 43.862984961344466 25.625 44.9375 C29.93720396109812 48.26425702671426 31.551684375586063 50.50481323722468 33.125 55.6875 C33.49625 56.780625 33.86750000000001 57.87375 34.25 59 C36.44615218377942 68.255212774499 38.53214916268317 80.9489258870509 34.125 89.6875 C29.403578090386446 93.16644245971526 25.465195111549704 93.73484277884444 19.6923828125 93.876220703125 C10.642275187496864 94.14447495606262 1.9270350258969273 95.48985903770733 -5.140625 101.66796875 C-7.078076275014865 103.66642700168302 -7.078076275014865 103.66642700168302 -7.875 106.6875 C-12.358910360894072 106.83604952775642 -16.841511179623126 106.94480303791829 -21.3271484375 107.01708984375 C-22.852141828967547 107.04722677222566 -24.376962368636633 107.0881460782096 -25.9013671875 107.14013671875 C-28.09613641113142 107.21310492631534 -30.288612505183124 107.24698139584754 -32.484375 107.2734375 C-33.503348693847656 107.31988906860352 -33.503348693847656 107.31988906860352 -34.54290771484375 107.36727905273438 C-36.4833984375 107.36865234375 -36.4833984375 107.36865234375 -39.875 106.6875 C-42.19824218750001 103.76782226562499 -42.19824218750001 103.76782226562499 -43.875 100.6875 C-46.0475514806115 98.79289159281947 -46.0475514806115 98.79289159281947 -48.375 97.25 C-52.580089002473386 94.10305430860652 -54.69689722470544 91.39257915528998 -56.875 86.6875 C-57.52275390625 85.49060546875 -57.52275390625 85.49060546875 -58.18359375 84.26953125 C-63.6913233082082 73.95619063250534 -63.6913233082082 73.95619063250534 -62.5 67.7265625 C-60.550259747436684 61.365534926012174 -56.47769378909422 56.6734372123629 -50.6640625 53.46875 C-47.77125767932633 52.16550687259752 -44.884090908477944 50.99918831149898 -41.8515625 50.0625 C-39.259472172391355 49.18753280080722 -37.3016520010724 48.36355519287575 -35.8125 46.00390625 C-34.39206513722792 42.50062218941307 -33.7485683890407 39.1245197566677 -33.375 35.375 C-32.875 31.6875 -32.875 31.6875 -31.34765625 30.44921875 C-28.972252254895906 27.607555084769373 -29.644536409001255 24.330228037898195 -29.8125 20.8125 C-30.257532528519725 10.415782631603065 -30.257532528519725 10.415782631603065 -26.39453125 5.9921875 C-18.641889019026806 -0.500872125940937 -9.878575183842116 -4.006546587438109 0 0 Z " fill="#47777E" transform="translate(76.875,21.3125)"/>
<path d="M0 0 C26.73 0 53.46 0 81 0 C81 6.103121931170472 79.8413360285364 10.322547245346101 78 16 C77.42854248046875 15.86070068359375 76.8570849609375 15.7214013671875 76.268310546875 15.577880859375 C67.65342960504805 13.731776466728435 59.14559413886557 13.593840521102095 50.374267578125 13.574462890625 C47.80650952664136 13.562472025808198 45.2410884264719 13.51306589068803 42.673828125 13.462890625 C30.907451785939596 13.20590845491698 30.907451785939596 13.20590845491698 21 19 C18.753338655137078 22.369992017294383 18.75426290425695 23.561054615197314 18.8125 27.5 C18.8189453125 28.4590625 18.825390625 29.418125 18.83203125 30.40625 C18.897070689776015 33.11497766920411 18.897070689776015 33.11497766920411 20 36 C20.66 36 21.32 36 22 36 C23.515624999999993 37.574218749999986 23.515624999999993 37.574218749999986 25.25 39.6875 C28.272895001248227 43.24050602443163 31.25684062304085 46.21439302179784 35 49 C35.66 49 36.32 49 37 49 C37 49.66 37 50.32 37 51 C39.31 51.33 41.62 51.66 44 52 C44.37776211835604 58.04419389369657 44.22050735091326 63.68856623468784 41 69 C38.23651144673701 71.51441876949251 35.99288657291729 72.38256725050883 32.375 73.125 C25.836030800572757 74.97803133099497 21.333855984871043 78.85144628153886 17 84 C14.349694089278003 88.76510480523646 14.733598446958034 93.47970524406368 16.09765625 98.6328125 C17.802060934345942 103.10410790568676 20.40108632347078 107.00574081266247 23 111 C23.4640625 111.85078125 23.928125 112.7015625 24.40625 113.578125 C26.661635659083533 117.00542673684262 29.612649797049023 118.838692141131 32.94140625 121.15625 C35 123 35 123 37 128 C24.79 128 12.579999999999998 128 0 128 C0 85.75999999999999 0 43.519999999999996 0 0 Z " fill="#6790A3" transform="translate(0,0)"/>
<path d="M0 0 C1.0673437499999991 0.23203125000000568 2.1346874999999983 0.46406249999999716 3.234375 0.703125 C4.31203125 0.9248437499999937 5.389687500000001 1.1465625000000017 6.5 1.375 C7.31984375 1.5657812500000006 8.1396875 1.7565625000000011 8.984375 1.953125 C9.314374999999998 2.943124999999995 9.644374999999997 3.933125000000004 9.984375 4.953125 C11.846733801938939 5.567589506470256 11.846733801938939 5.567589506470256 13.984375 5.953125 C15.958783715947277 6.876380897538098 17.865423360609853 7.893845078624281 19.7890625 8.91796875 C24.51462969493626 11.146216626615853 29.625309381657047 12.480719546107494 34.609375 14.015625 C35.715390625 14.357226562500003 36.82140625 14.698828125000006 37.9609375 15.05078125 C40.294676146157684 15.747284644395904 42.615390185553565 16.392657860972434 44.984375 16.953125 C45.644375 15.963125000000005 46.30437499999999 14.973124999999996 46.984375 13.953125 C54.333222776620616 12.45993282228028 61.96933936859672 14.928166261038228 68.984375 16.953125 C68.984375 17.613124999999997 68.984375 18.273124999999993 68.984375 18.953125 C71.04569641901695 19.061774445219044 73.10868820977667 19.139008207407045 75.171875 19.203125 C76.89470703125 19.272734375 76.89470703125 19.272734375 78.65234375 19.34375 C82.60936421488883 18.87985545546438 84.07759733260202 17.575936820671714 86.984375 14.953125 C87.644375 14.953125 88.304375 14.953125 88.984375 14.953125 C89.03879156120819 16.848635215418312 89.07735534834141 18.74460419821628 89.109375 20.640625 C89.132578125 21.6963671875 89.15578125 22.752109375000003 89.1796875 23.83984375 C88.98010158899928 27.0212431713516 88.43791558494048 29.13066776828336 86.984375 31.953125 C82.26295309038643 35.432067459715256 78.3245701115497 36.00046777884444 72.5517578125 36.141845703125 C63.501650187496864 36.41009995606262 54.78641002589693 37.75548403770733 47.71875 43.93359375 C45.781298724985135 45.93205200168302 45.781298724985135 45.93205200168302 44.984375 48.953125 C40.50046463910593 49.101674527756416 36.01786382037687 49.21042803791829 31.5322265625 49.28271484375 C30.007233171032453 49.312851772225656 28.482412631363367 49.353771078209604 26.9580078125 49.40576171875 C24.76323858886858 49.47872992631534 22.570762494816876 49.51260639584754 20.375 49.5390625 C19.356026306152344 49.585514068603516 19.356026306152344 49.585514068603516 18.31646728515625 49.632904052734375 C16.3759765625 49.63427734375 16.3759765625 49.63427734375 12.984375 48.953125 C10.661132812500007 46.033447265625 10.661132812500007 46.033447265625 8.984375 42.953125 C6.811823519388504 41.05851659281949 6.811823519388504 41.05851659281949 4.484375 39.515625 C0.27928599752661754 36.36867930860652 -1.8375222247054452 33.65820415528998 -4.015625 28.953125 C-4.447460937500001 28.1551953125 -4.879296875000001 27.357265624999997 -5.32421875 26.53515625 C-10.954708019325473 15.991945465229065 -10.954708019325473 15.991945465229065 -9.53515625 9.88671875 C-7.864164774271696 4.873744322815085 -5.96028441921224 -0.09264690807066245 0 0 Z " fill="#4F6E88" transform="translate(24.015625,79.046875)"/>
<path d="M0 0 C1.03125 0.5568750000000016 2.0625 1.1137499999999996 3.125 1.6875 C3.8881250000000023 2.05875 4.6512500000000045 2.4299999999999997 5.4375 2.8125 C10.42615991568698 8.355455461874413 9.546111284141887 18.178988476149954 9.44140625 25.15234375 C8.795089613781016 32.37353579664417 5.6554452930296435 37.05735975467286 0.125 41.6875 C-3.5689974388541543 44.201116648047886 -7.321384499353869 46.57074062818856 -11.875 46.6875 C-17.747226438414167 44.81338517922953 -20.797741627448914 40.80018632430117 -23.875 35.6875 C-24.56336513401053 33.69486408575899 -25.237813994185366 31.697086633723075 -25.875 29.6875 C-26.865000000000002 29.3575 -27.854999999999997 29.027500000000003 -28.875 28.6875 C-31.466140159767612 13.46455156136529 -31.466140159767612 13.46455156136529 -27.875 7.6875 C-20.451979892075386 -0.1568266545906063 -10.478317240329446 -4.249789610348209 0 0 Z " fill="#29668C" transform="translate(76.875,21.3125)"/>
<path d="M0 0 C26.73 0 53.46 0 81 0 C81 6.103121931170472 79.8413360285364 10.322547245346101 78 16 C77.42854248046875 15.86070068359375 76.8570849609375 15.7214013671875 76.268310546875 15.577880859375 C67.65342960504805 13.731776466728435 59.14559413886557 13.593840521102095 50.374267578125 13.574462890625 C47.80650952664136 13.562472025808198 45.2410884264719 13.51306589068803 42.673828125 13.462890625 C30.94955647187225 13.32160815660602 30.94955647187225 13.32160815660602 21 19 C18.32660388855261 20.54703645003436 15.569956631685907 21.921897468996676 12.8125 23.3125 C12.12736328125 23.67150390625 11.4422265625 24.0305078125 10.736328125 24.400390625 C10.06666015625 24.73876953125 9.3969921875 25.0771484375 8.70703125 25.42578125 C7.817215576171875 25.880780029296872 7.817215576171875 25.880780029296872 6.909423828125 26.344970703125 C5.000000000000002 27 5.000000000000002 27 0 27 C0 18.09 0 9.18 0 0 Z " fill="#90B1CC" transform="translate(0,0)"/>
<path d="M0 0 C1.2133074188232413 -0.00430526733398473 1.2133074188232413 -0.00430526733398473 2.4511260986328125 -0.008697509765625 C4.158098369605597 -0.010731735539502907 5.865094292060718 -0.005246862451068424 7.572021484375 0.00732421875 C10.150775477775795 0.02328275260508228 12.727937193307895 0.0075087490605092455 15.306640625 -0.01171875 C24.731802072658553 -0.022891270918202977 33.856726720136805 0.08266023506840625 42.48828125 4.3984375 C42.48828125 5.0584375 42.48828125 5.7184375 42.48828125 6.3984375 C43.14828125 6.3984375 43.80828124999999 6.3984375 44.48828125 6.3984375 C44.983281250000005 9.368437499999999 44.983281250000005 9.368437499999999 45.48828125 12.3984375 C44.882421875000006 12.1096875 44.2765625 11.8209375 43.65234375 11.5234375 C36.04909308851133 8.15461259152502 29.845130482646425 7.069229259531596 21.80078125 9.5234375 C15.193089186328876 13.19502219564815 15.193089186328876 13.19502219564815 10.7890625 19.0859375 C10.247313300975755 23.25107419899161 10.491461371765737 27.45304950037373 10.615234375 31.642578125 C10.67560742242734 35.46738824730846 10.666041445841273 37.13179720623808 8.48828125 40.3984375 C-1.7242922106468583 39.02730495204278 -9.02250388561767 33.26661052306358 -15.51171875 25.3984375 C-15.51171875 24.738437500000003 -15.51171875 24.0784375 -15.51171875 23.3984375 C-16.17171875 23.3984375 -16.83171875 23.3984375 -17.51171875 23.3984375 C-20.49240619325468 18.92740633511798 -20.238819554257944 14.638060821405183 -19.51171875 9.3984375 C-15.781473695849773 1.4096294226568062 -7.924326452288035 -0.06284474614457558 0 0 Z " fill="#5E87A9" transform="translate(37.51171875,12.6015625)"/>
<path d="M0 0 C7.005032065089225 0.06801002004941381 13.321786552941688 1.4594300101275053 20.0390625 3.3984375 C20.0390625 4.058437499999997 20.0390625 4.718437499999993 20.0390625 5.3984375 C22.10038391901695 5.507086945219044 24.163375709776673 5.584320707407045 26.2265625 5.6484375 C27.949394531249993 5.718046874999999 27.949394531249993 5.718046874999999 29.70703125 5.7890625 C33.66405171488884 5.32516795546438 35.13228483260201 4.021249320671714 38.0390625 1.3984375 C38.6990625 1.3984375 39.35906249999999 1.3984375 40.0390625 1.3984375 C40.09347906120817 3.2939477154183123 40.1320428483414 5.189916698216294 40.1640625 7.0859375 C40.18726562500001 8.141679687500002 40.21046874999999 9.197421875000003 40.234375 10.28515625 C40.034789088999275 13.466555671351614 39.492603084940484 15.575980268283374 38.0390625 18.3984375 C33.31764059038642 21.877379959715256 29.379257611549733 22.44578027884444 23.6064453125 22.587158203125 C14.556337687496878 22.855412456062624 5.841097525896927 24.200796537707348 -1.2265625 30.37890625 C-3.1640137750148796 32.37736450168302 -3.1640137750148796 32.37736450168302 -3.9609375 35.3984375 C-9.5709375 35.3984375 -15.180937499999999 35.3984375 -20.9609375 35.3984375 C-20.002808818738373 30.607794093691865 -19.82369904253195 29.93337385721621 -16.55859375 26.90625 C-11.119054350096263 21.77260156879501 -6.150663099540182 16.651903548476838 -3.9609375 9.3984375 C-3.9224830715373145 7.398807219940309 -3.9154946892934106 5.397921171089891 -3.9609375 3.3984375 C-1.9609375 0.3984375 -1.9609375 0.3984375 0 0 Z " fill="#6B818E" transform="translate(72.9609375,92.6015625)"/>
<path d="M0 0 C15.510000000000005 0 31.02000000000001 0 47 0 C47 6.6000000000000005 47 13.200000000000001 47 20 C37.99999999999994 20.3125 37.99999999999994 20.3125 35.21484375 20.387939453125 C29.535176023997508 20.638190679045564 25.247653479118156 21.83385051403682 20 24 C12.255601384579933 25.05008794785357 6.0549322207505725 22.01125155763744 -1 19 C-1 18.34 -1 17.68 -1 17 C-1.6599999999999966 17 -2.319999999999993 17 -3 17 C-2.882654872112113 15.665971177695642 -2.7555782409445158 14.332798597226759 -2.625 13 C-2.555390625000001 12.2575 -2.4857812500000023 11.515 -2.4140625 10.75 C-1.867253268736036 7.11836133198269 -0.8907300294251002 3.5629201177004206 0 0 Z " fill="#8FA1AB" transform="translate(81,0)"/>
<path d="M0 0 C0.6600000000000001 0.3299999999999983 1.3200000000000003 0.6600000000000001 2 1 C1.6700000000000017 1.3299999999999983 1.3399999999999999 1.6600000000000001 1 2 C0.23364315441464356 8.922338064221819 1.1541345445878903 14.272955973472541 3.97265625 20.58203125 C6.143692749985181 25.691809172018353 8.090238218111413 31.62510172485637 6 37 C3.387239869902224 40.73251447156825 0.2867421002308639 43.85615973021396 -3 47 C-3.781171875 47.752812500000005 -4.56234375 48.50562500000001 -5.3671875 49.28125 C-6.236015625 50.09593749999999 -7.104843750000001 50.91062500000001 -8 51.75 C-8.825 52.52859375 -9.65 53.3071875 -10.5 54.109375 C-12.999999999999993 56 -12.999999999999993 56 -18 57 C-18 40.5 -18 24 -18 7 C-13.05 5.515000000000001 -13.05 5.515000000000001 -8 4 C-6.515000000000001 3.2575000000000003 -5.029999999999999 2.5150000000000006 -3.5 1.75 C-2.3450000000000006 1.1724999999999994 -1.1900000000000013 0.5949999999999989 0 0 Z " fill="#81A5AF" transform="translate(18,20)"/>
<path d="M0 0 C0.6599999999999966 0.3299999999999983 1.3199999999999932 0.6599999999999966 2 1 C2 9.579999999999998 2 18.159999999999997 2 27 C-17.47 27 -36.94 27 -57 27 C-55.810518007288906 22.24207202915565 -53.95237594598572 20.564580695957886 -50 18 C-42.8780180132939 13.945740804531624 -35.85437804642443 13.504930742678326 -27.83203125 13.37109375 C-21.474280093892077 12.755409387278036 -16.682236602803712 9.981222548585862 -11.4375 6.5 C-3.845192307692315 1.5775147928994073 -3.845192307692315 1.5775147928994073 0 0 Z " fill="#98B0BB" transform="translate(126,101)"/>
<path d="M0 0 C0 16.17 0 32.34 0 49 C-2.3100000000000023 49.66 -4.6200000000000045 50.31999999999999 -7 51 C-9.124305516735632 52.21185747142667 -9.124305516735632 52.21185747142667 -10.8125 53.625 C-14 56 -14 56 -16 56 C-15.976796875000005 55.07960937499999 -15.953593749999996 54.15921875000001 -15.9296875 53.2109375 C-15.751592916493564 40.718874571191776 -16.890378512262828 28.890504837852887 -21 17 C-20.340000000000003 17 -19.680000000000007 17 -19 17 C-18.340000000000003 15.349999999999994 -17.680000000000007 13.700000000000003 -17 12 C-16.340000000000003 12 -15.680000000000007 12 -15 12 C-14.9033203125 11.124082031249998 -14.9033203125 11.124082031249998 -14.8046875 10.23046875 C-13.672450166485248 7.092082743024648 -11.870727160875902 6.1469640886431804 -9.125 4.3125 C-7.798554687500001 3.4095117187499966 -7.798554687500001 3.4095117187499966 -6.4453125 2.48828125 C-2.356955380577432 0 -2.356955380577432 0 0 0 Z " fill="#7196A8" transform="translate(128,53)"/>
<path d="M0 0 C4.779200535836604 1.9116802143346376 6.486027093901972 3.1269758172480095 9.9375 6.6875 C11.2562109375 8.039082031250004 11.2562109375 8.039082031250004 12.6015625 9.41796875 C14.441529874034856 11.398780532145011 16.143171182823885 13.380458259403667 17.8125 15.5 C21.09831202808848 19.498054519726153 25.260906012756685 22.419469868028557 29.419189453125 25.44921875 C32.46389149401084 27.691312360872118 35.026649522406785 29.743623063476917 37 33 C37 33.66 37 34.31999999999999 37 35 C24.79 35 12.579999999999998 35 0 35 C0 23.450000000000003 0 11.900000000000006 0 0 Z " fill="#98BAD1" transform="translate(0,93)"/>
<path d="M0 0 C10.89 0 21.78 0 33 0 C31.294250792213674 11.9402444545043 31.294250792213674 11.9402444545043 27.5859375 15.26953125 C25.454122965265718 16.67352364181839 23.27148148343098 17.831623030074297 21 19 C20.3876953125 19.327099609375 19.775390625 19.65419921875 19.14453125 19.9912109375 C17.04159311820779 21.11377934023289 14.9292935638849 22.21629904680096 12.8125 23.3125 C12.12325439453125 23.67464599609375 11.4340087890625 24.0367919921875 10.723876953125 24.409912109375 C10.05831787109375 24.74514892578125 9.3927587890625 25.0803857421875 8.70703125 25.42578125 C7.817215576171875 25.880780029296872 7.817215576171875 25.880780029296872 6.909423828125 26.344970703125 C5.000000000000002 27 5.000000000000002 27 0 27 C0 18.09 0 9.18 0 0 Z " fill="#98AEB8" transform="translate(0,0)"/>
<path d="M0 0 C2.0174007463894412 4.0348014927788824 1.662799292738228 8.975580421093014 0.28125 13.1953125 C-3.4610270879535676 21.132561484933788 -9.377172949928834 25.942868152412984 -17.5625 28.9375 C-21.221892080634063 29.031330566170112 -22.959087242880273 28.047961652754097 -26 26 C-29.894327391014407 21.800416542706557 -32.59705351474823 17.611785941007078 -34 12 C-30.127422110682858 9.418281407121903 -26.471582078985122 8.219522385177761 -22 7 C-21.3928515625 6.681601562499999 -20.785703124999998 6.363203124999998 -20.16015625 6.03515625 C-16.58039494676916 4.319719097457188 -12.728329398838866 3.667515761732936 -8.875 2.78125 C-5.81071523568616 1.948563922740803 -3.1420877691700753 0 0 0 Z " fill="#166071" transform="translate(85,39)"/>
</svg>
