<?xml version="1.0" encoding="UTF-8"?>
<!-- Generator: visioncortex VTracer 0.6.0 -->
<svg version="1.1" xmlns="http://www.w3.org/2000/svg" width="128" height="128">
<path d="M0 0 C42.24 0 84.48 0 128 0 C128 42.24 128 84.48 128 128 C85.75999999999999 128 43.519999999999996 128 0 128 C0 85.75999999999999 0 43.519999999999996 0 0 Z " fill="#9D8057" transform="translate(0,0)"/>
<path d="M0 0 C0.7798828125000057 0.5478515625 1.5597656249999972 1.095703125 2.36328125 1.66015625 C5.053637823027614 3.1387219632437464 6.669824260502594 3.039810001743458 9.6875 2.9375 C9.832729336467082 6.853776630146189 9.921547570747805 10.769361533346999 10 14.6875 C10.041894531249994 15.798671874999997 10.083789062499989 16.90984375 10.126953125 18.0546875 C10.251680201624197 26.336565387846548 10.251680201624197 26.336565387846548 7.2890625 29.4921875 C6.4305468750000045 29.969140625 5.572031249999995 30.446093750000003 4.6875 30.9375 C2.600561129016043 34.57281287203658 0.9874300537583451 38.193229125858934 -0.578125 42.078125 C-5.0153499530252645 52.95176417060037 -11.26436463534074 67.23874309022716 -21.3125 73.9375 C-27.71241506078003 74.63048443333287 -33.17839170774006 73.75501356807702 -39.3125 71.9375 C-46.301838613154615 71.03147462422069 -51.14364366836992 72.80213632318984 -57.3125 75.9375 C-63.20132096272029 78.59890988294721 -68.89354832640447 80.8530154449035 -75.3125 81.8125 C-76.116875 81.933671875 -76.92125 82.05484375 -77.75 82.1796875 C-82.6839383934191 81.71337015184149 -85.6420591749019 78.70386867900365 -88.796875 75.09765625 C-89.54453125 74.0754296875 -90.2921875 73.053203125 -91.0625 72 C-91.82046875 70.9803515625 -92.5784375 69.960703125 -93.359375 68.91015625 C-96.08941796513433 64.75503085706555 -98.1789011998619 61.01094548765285 -97.3125 55.9375 C-95.40625 54.27734375 -95.40625 54.27734375 -92.8125 52.875 C-91.90628906250001 52.37355468749999 -91.000078125 51.87210937500001 -90.06640625 51.35546875 C-87.63956453522323 50.10590344154048 -85.20284835606947 48.88498858036786 -82.75 47.6875 C-79.26789066395585 46.343437409890754 -79.26789066395585 46.343437409890754 -78.3125 43.9375 C-81.11802906669229 36.10348167715976 -86.31892630961289 29.481812395019055 -91.3125 22.9375 C-92.45934819064628 21.417431816277016 -93.60529710598266 19.896684375941312 -94.75 18.375 C-95.2230859375 17.7549609375 -95.696171875 17.134921875000003 -96.18359375 16.49609375 C-98.74255072534366 12.963139309992656 -98.74493086694758 10.261808669475894 -98.3125 5.9375 C-96.30957521034843 2.457514844234712 -94.191966506805 0.2306555022683341 -90.3125 -1.0625 C-77.88907947491973 -1.1945549343739188 -65.22204068428496 -0.072326085216325 -53.79248046875 4.992431640625 C-48.683354171926794 7.192697614788813 -45.62982065152377 7.1119436697387854 -40.3125 5.9375 C-37.60238884822863 4.729757076755835 -37.60238884822863 4.729757076755835 -35.1875 3.125 C-23.853190265095066 -3.3831889462560945 -11.654264181542018 -7.225987069851529 0 0 Z " fill="#4A4944" transform="translate(118.3125,20.0625)"/>
<path d="M0 0 C0 26.730000000000004 0 53.46000000000001 0 81 C-42.24000000000001 81 -84.48 81 -128 81 C-128 68.78999999999999 -128 56.58 -128 44 C-121.67460606442013 44 -120.61335181969676 44.155540150252705 -116 48 C-112.27495826357479 52.221713967948574 -109.41480045046191 56.95179002770118 -106.5 61.75 C-103.7791941060707 66.1190446537261 -101.56945333656417 68.6595482910281 -97 71 C-90.03670357694433 67.95856018303316 -84.32351545713922 61.858523093407456 -79.8125 55.875 C-74.56451104359388 49.56476749579119 -65.5991298126668 46.53304327088894 -58 44 C-53.661726001066555 43.638477166755536 -49.8113605878963 43.75959686284554 -45.625 45 C-40.686956706905576 46.36221883947432 -36.08340659025953 46.74314186545007 -31 46 C-28.00179994856481 44.16984260729737 -28.00179994856481 44.16984260729737 -26 41 C-25.544960937499994 40.368359375 -25.089921875 39.736718749999994 -24.62109375 39.0859375 C-23.005389277392922 36.765735254741784 -21.49619024248554 34.399000899751755 -20 32 C-19.418632812499993 31.078320312499997 -18.837265625 30.156640624999994 -18.23828125 29.20703125 C-14.42493552678404 22.945203240293978 -11.69122883980981 16.74788730165473 -9.19140625 9.8671875 C-7.679025509280422 6.227556471514198 -4.681166798373155 0 0 0 Z " fill="#AB877C" transform="translate(128,47)"/>
<path d="M0 0 C1.1698242187499943 0.82177734375 1.1698242187499943 0.82177734375 2.36328125 1.66015625 C5.0536378230276 3.1387219632437393 6.669824260502594 3.039810001743458 9.6875 2.9375 C9.832729336467082 6.853776630146189 9.921547570747805 10.769361533346999 10 14.6875 C10.041894531249994 15.798671874999997 10.083789062499989 16.90984375 10.126953125 18.0546875 C10.251680201624197 26.336565387846548 10.251680201624197 26.336565387846548 7.2890625 29.4921875 C6.001289062500007 30.207617187500006 6.001289062500007 30.207617187500006 4.6875 30.9375 C2.600561129016043 34.57281287203657 0.9874300537583451 38.193229125858934 -0.578125 42.078125 C-5.0153499530252645 52.95176417060037 -11.264364635340755 67.23874309022716 -21.3125 73.9375 C-27.21439681884908 74.56752980169817 -32.815553961643786 74.3145577463162 -38.3125 71.9375 C-35.882848065843106 63.433718230450864 -31.58042639737414 58.64274714743297 -24.3125 53.9375 C-22.320075114385418 52.92249109600766 -20.321758048118795 51.9187655583836 -18.3125 50.9375 C-16.381136471880367 49.40572892597409 -15.467085480389485 48.22734777573028 -14.3125 46.0625 C-14.089262472318069 43.67742168909032 -14.089262472318069 43.67742168909032 -16.3359375 41.4453125 C-19.721881262731955 38.59258822746206 -22.7465438412311 37.69436625127416 -26.9375 36.6875 C-34.5757733823024 34.49158423921849 -41.84595814287809 31.937856492425027 -46.3125 24.9375 C-47.536136784515946 19.309831364821 -46.95700374556989 13.607830933246206 -46.3125 7.9375 C-45.4771875 7.573984375000002 -45.4771875 7.573984375000002 -44.625 7.203125 C-40.88286352639798 5.559619116323439 -37.21189703564194 3.898233303648091 -33.625 1.9375 C-22.45975319600896 -3.656266362877748 -11.04490263134835 -6.84816495993763 0 0 Z " fill="#7C594E" transform="translate(118.3125,20.0625)"/>
<path d="M0 0 C0 15.840000000000003 0 31.680000000000007 0 48 C-27.72 48 -55.44 48 -84 48 C-80.7628788820774 38.28863664623219 -74.72658394954448 34.303096239242635 -65.90234375 29.44921875 C-57.366308706132145 25.186945531594915 -47.7853462448752 24.80084054929941 -38.6015625 27.77734375 C-37.949296875 28.057070312500002 -37.29703125 28.336796875000005 -36.625 28.625 C-31.949207539801336 30.39857645042018 -29.83369310326391 30.18861305817964 -25 29 C-20.037801781542896 25.91206860089821 -18.56384232763766 22.41512865418946 -16.5625 17.1875 C-11.395139272531765 4.573185664468497 -11.395139272531765 4.573185664468497 -5.01171875 0.8359375 C-3 0 -3 0 0 0 Z " fill="#DCCBB6" transform="translate(128,80)"/>
<path d="M0 0 C-0.990000000000002 0.7734375 -0.990000000000002 0.7734375 -2 1.5625 C-4.250644526045708 3.91037658628715 -4.250644526045708 3.91037658628715 -4.625 7.25 C-3.649911792062696 13.100529247623832 -0.14096508357903303 16.507304938404417 3.640625 20.91015625 C9.253185199072028 27.71604116429529 13.0357046580205 35.329731887803504 17.024169921875 43.1474609375 C18.257173195501935 45.488223719656915 19.637333095314986 47.733055669270186 21 50 C23.876518337860475 59.4140600148161 21.283504108518677 67.76696975131136 17.5 76.4375 C16 79 16 79 13 81 C10.73046875 81.5546875 10.73046875 81.5546875 8.1875 81.875 C6.940332031250001 82.0567578125 6.940332031250001 82.0567578125 5.66796875 82.2421875 C0.6618035379431078 81.78774790534769 -2.2795473323776747 78.8235363040274 -5.484375 75.16015625 C-6.232031249999999 74.1379296875 -6.979687500000001 73.115703125 -7.75 72.0625 C-8.50796875 71.0428515625 -9.2659375 70.023203125 -10.046875 68.97265625 C-12.776917965134334 64.81753085706555 -14.866401199861897 61.07344548765283 -14 56 C-12.09375 54.33984375 -12.09375 54.33984375 -9.5 52.9375 C-8.5937890625 52.43605468749999 -7.687578125000002 51.93460937500001 -6.75390625 51.41796875 C-4.327064535223229 50.16840344154048 -1.8903483560694738 48.94748858036786 0.5625 47.75 C4.044609336044154 46.405937409890754 4.044609336044154 46.405937409890754 5 44 C2.1944709333077057 36.16598167715977 -3.0064263096128876 29.54431239501905 -8 23 C-9.146848190646285 21.479931816277016 -10.292797105982665 19.959184375941312 -11.4375 18.4375 C-11.910585937499999 17.8174609375 -12.383671875000001 17.197421875000003 -12.87109375 16.55859375 C-15.430050725343666 13.025639309992656 -15.432430866947591 10.324308669475894 -15 6 C-10.800706769891558 -1.0510520654805937 -7.445933524047227 -1.080861318006857 0 0 Z " fill="#66532D" transform="translate(35,20)"/>
<path d="M0 0 C7.532941833813907 0 11.481103410164934 0.24194591607521687 17.3125 4.8125 C19.814612015562027 8.05597853869152 20.733160334000488 11.259612400647626 21.3515625 15.29296875 C22.428880463730163 22.10542057947015 24.795434546463223 26.570400661235226 29 32 C29.4498828125 32.6019921875 29.899765625 33.203984375000005 30.36328125 33.82421875 C32.64678128546198 36.74398814518821 34.53378332895668 38.68609115357563 38 40 C40.464941775920444 40.064782957842496 40.464941775920444 40.064782957842496 43 39.6875 C43.845625 39.5882421875 44.69125 39.488984375 45.5625 39.38671875 C47.75525738127766 39.03882935777807 49.85842370013385 38.58001024788041 52 38 C47.84270634280916 43.920993996605134 43.25791848620179 49.03722454732721 38 54 C37.13375 54.86625000000001 36.2675 55.7325 35.375 56.625 C33 58 33 58 30.0625 57.6875 C22.70404024339751 53.63283850146394 19.091992321182676 46.06193346692527 15.02734375 38.98828125 C10.689372806359764 32.594162229027404 7.821051017380338 31.955262754345085 0 30 C0 20.099999999999994 0 10.200000000000003 0 0 Z " fill="#8E736A" transform="translate(0,61)"/>
<path d="M0 0 C1.330312499999998 0.12375000000000114 1.330312499999998 0.12375000000000114 2.6875 0.25 C11.7017995562666 1.425778202991296 19.59059884253916 4.66523747204139 28 8 C28.33 13.939999999999998 28.659999999999997 19.880000000000003 29 26 C27.349999999999994 26 25.700000000000003 26 24 26 C24 26.659999999999997 24 27.32 24 28 C23.071875000000006 28.12375 23.071875000000006 28.12375 22.125 28.25 C19.84957521497364 28.79923543184229 19.84957521497364 28.79923543184229 18.875 30.875 C18.58625 31.57625 18.2975 32.2775 18 33 C17.340000000000003 33.99 16.68 34.98 16 36 C15.340000000000003 36 14.68 36 14 36 C13.340000000000003 40.62 12.68 45.24000000000001 12 50 C9.30216277877873 46.62770347347342 7.43564839494821 44.23472438986988 5.5546875 40.55859375 C5.122045898437499 39.7327880859375 4.689404296874997 38.906982421875 4.24365234375 38.05615234375 C3.7919970703125045 37.1919970703125 3.340341796874995 36.327841796875 2.875 35.4375 C-1.1326219683576966 27.928151861263757 -5.41999503087488 21.443980296849112 -11.1015625 15.1171875 C-13.577301141982105 12.356178561822432 -13.958302736680707 11.37527536987362 -14.375 7.625 C-14 4 -14 4 -12.0625 1.5625 C-7.825296189168029 -0.5993386789959025 -4.667030051179694 -0.4553200049931405 0 0 Z " fill="#3C401D" transform="translate(44,20)"/>
<path d="M0 0 C17.49000000000001 0 34.980000000000004 0 53 0 C53 7.590000000000001 53 15.180000000000001 53 23 C48 24 48 24 45.67578125 22.8203125 C44.895898437499994 22.260859375 44.116015625 21.70140625 43.3125 21.125 C37.44064466872172 17.44863309903837 32.9456809430106 16.022636322444967 26.03076171875 17.38916015625 C17.572585622139755 19.36840778455468 10.114741095506488 21.918042074638223 3 27 C2.3400000000000034 27 1.6800000000000068 27 1 27 C0.8287502265523443 24.562748760039582 0.6629610372971229 22.12530903091767 0.5 19.6875 C0.4284570312500051 18.681064453125 0.4284570312500051 18.681064453125 0.35546875 17.654296875 C-0.03395001686425303 11.72956849342241 0 5.97915008552329 0 0 Z " fill="#9B9778" transform="translate(75,0)"/>
<path d="M0 0 C0.4614843749999977 0.44601562500000114 0.9229687499999955 0.8920312500000023 1.3984375 1.3515625 C1.3984375 5.384915901583181 -0.21036167877885248 7.186737883677893 -2.6015625 10.3515625 C-3.2615624999999966 10.3515625 -3.921562499999993 10.3515625 -4.6015625 10.3515625 C-4.766562499999992 11.052812500000002 -4.931562499999998 11.754062500000003 -5.1015625 12.4765625 C-8.47048685186671 18.93366750774453 -16.049701306491485 22.642892612640424 -22.6015625 25.3515625 C-27.259746111960794 26.71493331325682 -32.099670039922444 26.907538602239455 -36.8515625 25.8515625 C-41.13016676903251 22.18418741225784 -41.745935995522515 16.162132766002074 -42.2890625 10.8515625 C-42.40421166001113 9.352365593188498 -42.512365834802 7.852527072986984 -42.6015625 6.3515625 C-30.85541384588811 -3.3866974952893436 -13.473992931050134 -8.680872916052062 0 0 Z " fill="#956540" transform="translate(119.6015625,20.6484375)"/>
<path d="M0 0 C6.325393935579868 0 7.386648180303242 0.15554015025270473 12 4 C14.95060628205399 7.344020452994528 17.38146043439748 10.955940307706385 19.65234375 14.7890625 C22.973529475489038 20.37708927621965 25.441133120635936 23.71611082658707 31.19921875 26.74609375 C34.40624996086742 28.979189235224396 35.72165573077348 32.40045166296741 37 36 C37 36.33 37 36.66 37 37 C24.79 37 12.579999999999998 37 0 37 C0 24.789999999999992 0 12.579999999999998 0 0 Z " fill="#C4B0A0" transform="translate(0,91)"/>
<path d="M0 0 C7.590000000000003 0 15.180000000000007 0 23 0 C23.729961157346423 9.033269322161905 24.13546771474597 17.938715080325366 24 27 C18.738328532795748 28.39826292446442 15.496826746763801 27.267351092794996 10.6875 25.1875 C2.0059374482085914 21.715072444597933 -6.511215648648076 21.062785033665442 -15.796142578125 20.670654296875 C-16.831501464843754 20.62078369140625 -17.8668603515625 20.5709130859375 -18.93359375 20.51953125 C-19.86228271484375 20.48964111328125 -20.7909716796875 20.4597509765625 -21.747802734375 20.428955078125 C-22.49102783203125 20.28739990234375 -23.2342529296875 20.1458447265625 -24 20 C-24.66 19.01 -25.32 18.02 -26 17 C-9.148936170212764 9.382978723404253 -9.148936170212764 9.382978723404253 -2 7 C-1.3400000000000034 4.6899999999999995 -0.6799999999999997 2.38 0 0 Z " fill="#6B856F" transform="translate(52,0)"/>
<path d="M0 0 C0.7850390625000045 -0.0025781249999994316 1.570078125000009 -0.005156249999998863 2.37890625 -0.0078125 C4.4375 0.125 4.4375 0.125 6.4375 1.125 C7.413192975408279 3.2145371685734716 8.296040782314549 5.348031371853807 9.125 7.5 C9.811425781249994 9.244101562499992 9.811425781249994 9.244101562499992 10.51171875 11.0234375 C11.4375 14.125 11.4375 14.125 10.4375 17.125 C9.626679687500001 17.006406249999998 8.815859375000002 16.887812499999995 7.98046875 16.765625 C-3.9146152921469195 15.380865507317012 -11.855550542940506 18.250364450084476 -21.3984375 25.32421875 C-25.395305654433855 28.650132503057776 -28.51337858937235 32.281622120334646 -30.5625 37.125 C-32.8725 37.125 -35.1825 37.125 -37.5625 37.125 C-41.57092336568394 30.808696514679852 -41.57092336568394 30.808696514679852 -41.5390625 28.22265625 C-40.05400948334857 25.03276237023273 -37.49769981490383 23.06064000515063 -34.875 20.8125 C-31.484785617472333 17.84341496471353 -28.355327841420845 15.081288961505138 -25.75 11.375 C-20.55521630857382 4.857907732574432 -8.040389505676501 -0.026492222423968315 0 0 Z " fill="#828C7E" transform="translate(74.5625,90.875)"/>
<path d="M0 0 C17.16 0 34.32 0 52 0 C52.495 0.99 52.495 0.99 53 2 C50.052274765491305 8.55868864678185 44.24846533854879 10.2554875468468 38 13 C37.0834765625 13.4189453125 36.166953125 13.837890625 35.22265625 14.26953125 C29.132346038045718 16.80045311487968 24.000738721890794 17.302985484296673 17.4375 17.07421875 C11.5959288287264 16.948093917892955 5.820169212056796 17.52968329599541 0 18 C0 12.059999999999999 0 6.119999999999999 0 0 Z " fill="#99A184" transform="translate(0,0)"/>
<path d="M0 0 C6.168290012349239 3.155869308643801 8.739411510295113 7.515176239278759 11 14 C12.338989069193168 20.360198078667565 10.511117299297538 25.240634348876 7.42578125 30.8203125 C5.592806363355514 33.62250424451403 3.980881430119865 35.435037249187076 1 37 C-2.9458307202750404 37.10117514667371 -5.478078953537363 35.30380548947328 -8.3828125 32.72265625 C-13.47466480559746 27.29872662012444 -18.24772106589625 20.85364581522707 -19.40625 13.37890625 C-19 11 -19 11 -17.09375 9.33984375 C-15.809843749999999 8.645683593749993 -15.809843749999999 8.645683593749993 -14.5 7.9375 C-13.5937890625 7.437343749999997 -12.687578125000002 6.937187499999993 -11.75390625 6.421875 C-8.185170156898508 4.5792935278171 -4.6054119237651605 2.7699294898483515 -1 1 C-0.6700000000000017 0.6700000000000017 -0.3400000000000034 0.3400000000000034 0 0 Z " fill="#8F5C32" transform="translate(40,65)"/>
<path d="M0 0 C3.53553237952859 4.898127668656173 6.547586197607728 11.125128111506797 8 17 C7.5049999999999955 18.485 7.5049999999999955 18.485 7 20 C-7.849999999999994 20 -22.700000000000003 20 -38 20 C-34.44093452152133 9.322803564563984 -26.784661605215852 4.986156324849716 -17 0 C-11.347281942101304 -2.4365164042666834 -5.363832426946701 -3.4814937181113663 0 0 Z " fill="#ADD0BE" transform="translate(82,108)"/>
<path d="M0 0 C1.3199999999999932 0 2.6400000000000006 0 4 0 C5.333333333333329 5.333333333333336 6.666666666666671 10.666666666666657 8 16 C8.339466552734379 17.0175537109375 8.339466552734379 17.0175537109375 8.685791015625 18.0556640625 C9 20 9 20 7 23 C3.621596738860333 21.812993448788767 1.2673353064976993 20.806748290967732 -1 18 C-1.243929536720941 15.043806328786744 -1.3277981519011917 12.321605003257616 -1.25 9.375 C-1.2448437500000011 8.586093750000003 -1.2396875000000023 7.7971875 -1.234375 6.984375 C-1.1542356271776981 1.1542356271776981 -1.1542356271776981 1.1542356271776981 0 0 Z " fill="#66532D" transform="translate(73,27)"/>
</svg>
