<?xml version="1.0" encoding="UTF-8"?>
<!-- Generator: visioncortex VTracer 0.6.0 -->
<svg version="1.1" xmlns="http://www.w3.org/2000/svg" width="128" height="128">
<path d="M0 0 C42.24 0 84.48 0 128 0 C128 42.24 128 84.48 128 128 C85.75999999999999 128 43.519999999999996 128 0 128 C0 85.75999999999999 0 43.519999999999996 0 0 Z " fill="#65A5E0" transform="translate(0,0)"/>
<path d="M0 0 C0.7953515625000023 0.02578125000000142 1.5907031250000045 0.05156249999999929 2.41015625 0.078125 C10.995318075674604 1.0129883566977789 17.560050393026103 8.777539333782038 22.734375 15.12890625 C29.30580283652874 25.493102621809214 31.599108618153778 41.93423108555413 31 54 C29.57530554014764 60.00122694261833 26.706925086522546 65.09377562077898 23 70 C22.604257812499995 70.55171875 22.208515625000004 71.1034375 21.80078125 71.671875 C10.851148346455403 85.85306145387437 -7.606422973282605 88.7099472384086 -24.125 92 C-25.299335937500004 92.2444384765625 -26.473671875 92.488876953125 -27.68359375 92.74072265625 C-36.04752296296628 94.30715057546038 -36.04752296296628 94.30715057546038 -40.59765625 92.83984375 C-42.7627009872612 91.18173631707313 -44.57852738207501 89.66102750794695 -46.3125 87.5625 C-46.8036328125 86.9862890625 -47.294765625 86.410078125 -47.80078125 85.81640625 C-51.198595219477085 80.66988020502657 -50.512301033045446 73.8932212912425 -49.48193359375 68.07421875 C-48.770476714236565 64.86736846388698 -47.99404377397113 61.68422719274655 -47.1875 58.5 C-46.92646484375 57.4236328125 -46.6654296875 56.347265625000006 -46.396484375 55.23828125 C-45.21178301430602 50.435121659235776 -43.95297141012503 45.72331095703136 -42.3125 41.0546875 C-41.18437641192766 37.80115106239706 -40.75229593072766 35.094943628969304 -40.8125 31.625 C-40.01947991526846 20.690473062451687 -29.841654371038203 11.833792837456485 -22 5 C-15.05733275513478 -0.5242728615056578 -8.650118911579582 -0.7343421797595653 0 0 Z " fill="#17172E" transform="translate(76,23)"/>
<path d="M0 0 C32.67 0 65.34 0 99 0 C97.87888631090486 8.968909512761035 97.87888631090486 8.968909512761035 95.5625 12.6875 C94.04555276304814 15.189814672920601 92.93185089505546 17.2044473148336 92 20 C91 22.000000000000004 91 22.000000000000004 88.6953125 22.7890625 C85.36185618674918 23.049941689732673 84.48403470893356 22.388817665070388 81.875 20.375 C71.60438908036217 12.994611248702464 61.60492980384059 9.792999104746494 49 11 C41.80007732473921 12.866348671129053 33.49629116022149 15.692345829517855 29 22 C25.765223115079664 28.679215234604026 25.805731519863166 34.122290079200546 26.125 41.4375 C26.329349665874958 50.66122806928749 25.351359115919028 58.09920696872224 22.375 66.7734375 C17.665084003192355 80.5545464571397 12.611800380998762 99.59750714429667 19.109375 113.34765625 C20.99756262739183 116.8384722648386 23.07725226039143 120.16019726434615 25.3125 123.4375 C27 126 27 126 27 128 C18.09 128 9.18 128 0 128 C0 85.75999999999999 0 43.519999999999996 0 0 Z " fill="#9BBDE7" transform="translate(0,0)"/>
<path d="M0 0 C9.15660375095932 5.414770001918654 9.15660375095932 5.414770001918654 10.4609375 8.0234375 C9.800937500000003 8.6834375 9.140937500000007 9.3434375 8.4609375 10.0234375 C6.37813204351059 9.545416575559805 4.296152307462023 9.063481263857405 2.21875 8.5625 C-5.1029071989360375 7.131354541851028 -12.137273483171327 6.7264183163683455 -18.7890625 10.4609375 C-26.791488473674036 15.9990831900467 -35.52783218005033 24.022045651065326 -39.5390625 33.0234375 C-39.862109332367524 35.679385409225254 -40.02792027352676 38.33064444880167 -40.20751953125 41 C-40.779361451073115 46.21479406118519 -42.40920185371097 51.0965593123223 -43.9765625 56.0859375 C-49.663841665079126 73.19684998238786 -49.663841665079126 73.19684998238786 -48.4140625 90.7734375 C-46.02061227949023 94.9220845488836 -43.354761797016415 97.9305318736785 -38.7470703125 99.718994140625 C-33.32059464239656 100.46720457412998 -27.609388635004372 98.54911905390735 -22.2890625 97.4609375 C-21.61221405029297 97.32438751220702 -20.93536560058594 97.18783752441406 -20.238006591796875 97.04714965820313 C-3.510668834797002 93.64414127735105 11.48291505713712 89.97718763799789 22.4609375 76.0234375 C25.08606993095212 79.96113614642819 26.4609375 82.53739089816139 26.4609375 87.3359375 C24.231278327033635 95.55780570031345 18.419120317138095 100.18605372405439 11.73046875 105.06640625 C9.322720790096696 106.89231902513502 9.322720790096696 106.89231902513502 8.153732299804688 109.59738159179688 C6.4609375 112.0234375 6.4609375 112.0234375 4.0280303955078125 112.71218872070313 C3.063987884521481 112.74029632568357 2.0999453735351494 112.76840393066408 1.106689453125 112.79736328125 C0.01157546997069403 112.83894561767579 -1.0835385131835835 112.88052795410158 -2.2118377685546875 112.92337036132813 C-3.3961891174316463 112.93834564208984 -4.580540466308591 112.95332092285156 -5.80078125 112.96875 C-7.020541534423828 112.99250701904299 -8.240301818847655 113.01626403808592 -9.497024536132813 113.04074096679688 C-12.081750384332452 113.07923809145512 -14.66672086167572 113.10351468858653 -17.251708984375 113.11474609375 C-21.197441963535226 113.14819067031925 -25.132699576144596 113.27739934512647 -29.076171875 113.41015625 C-46.829242911313955 113.71533084985828 -46.829242911313955 113.71533084985828 -51.49517822265625 110.8021240234375 C-54.841639177674345 107.42293651789568 -56.17998771546273 103.54819685024457 -57.5390625 99.0234375 C-58.05603169138149 97.78797323431833 -58.58823980181137 96.55877495796828 -59.135498046875 95.33642578125 C-63.28842069271971 85.5338235366661 -60.57897541632724 76.01225882147399 -58.5390625 66.0234375 C-58.20947783859625 64.35419777209444 -57.88005306487071 62.684926467735124 -57.55078125 61.015625 C-57.21510423520758 59.3512465928422 -56.877898968835275 57.68717557669967 -56.5390625 56.0234375 C-56.308602294921876 54.87705810546875 -56.308602294921876 54.87705810546875 -56.073486328125 53.70751953125 C-55.27269880582046 49.89538979496115 -54.3091313497707 46.35356646291425 -52.9140625 42.71484375 C-50.9943700032054 37.15955271185129 -51.32164158866251 31.769699514566582 -51.5390625 25.9609375 C-51.84704017070009 17.70200296405924 -52.096000095388376 10.81566623073262 -46.953125 3.88671875 C-32.84486320573688 -8.342495076031573 -15.843097060298554 -9.025196227464319 0 0 Z " fill="#8D7D8C" transform="translate(76.5390625,15.9765625)"/>
<path d="M0 0 C0.7953515625000023 0.02578125000000142 1.5907031250000045 0.05156249999999929 2.41015625 0.078125 C10.995318075674604 1.0129883566977789 17.560050393026103 8.777539333782038 22.734375 15.12890625 C29.30580283652874 25.493102621809214 31.599108618153778 41.93423108555413 31 54 C29.57530554014764 60.00122694261833 26.706925086522546 65.09377562077898 23 70 C22.604257812499995 70.55171875 22.208515625000004 71.1034375 21.80078125 71.671875 C10.851148346455403 85.85306145387437 -7.606422973282605 88.7099472384086 -24.125 92 C-25.299335937500004 92.2444384765625 -26.473671875 92.488876953125 -27.68359375 92.74072265625 C-36.04752296296628 94.30715057546038 -36.04752296296628 94.30715057546038 -40.59765625 92.83984375 C-42.7627009872612 91.18173631707313 -44.57852738207501 89.66102750794695 -46.3125 87.5625 C-46.8036328125 86.9862890625 -47.294765625 86.410078125 -47.80078125 85.81640625 C-51.198595219477085 80.66988020502657 -50.512301033045446 73.8932212912425 -49.48193359375 68.07421875 C-48.770476714236565 64.86736846388698 -47.99404377397113 61.68422719274655 -47.1875 58.5 C-46.92646484375 57.4236328125 -46.6654296875 56.347265625000006 -46.396484375 55.23828125 C-45.21178301430602 50.435121659235776 -43.95297141012503 45.72331095703136 -42.3125 41.0546875 C-41.18437641192766 37.80115106239706 -40.75229593072766 35.094943628969304 -40.8125 31.625 C-40.01947991526846 20.690473062451687 -29.841654371038203 11.833792837456485 -22 5 C-15.05733275513478 -0.5242728615056578 -8.650118911579582 -0.7343421797595653 0 0 Z M-19.3125 24 C-19.96968017578125 24.3196875 -20.6268603515625 24.639375 -21.303955078125 24.96875 C-23.231272424628294 25.93398983729964 -25.117897966567348 26.949524446456195 -27 28 C-27.6256787109375 28.333867187499997 -28.251357421875 28.667734375000002 -28.89599609375 29.01171875 C-34.50099559505879 32.41320899833219 -36.28972187241713 36.81774773608849 -38 43 C-38.93899009591253 47.20718977412105 -39.62731585544738 51.42313440349416 -40.25 55.6875 C-40.422734375000005 56.77611328124999 -40.59546875 57.86472656250001 -40.7734375 58.986328125 C-42.55794448686222 68.54509988138541 -42.55794448686222 68.54509988138541 -40.75 77.8125 C-38.818031521458614 80.22746059817673 -37.95224902003349 81.12230434539545 -35 82 C-23.274984895272567 83.30277945608083 -12.170123604105484 77.84990700942728 -1.8125 73 C-0.8912231445312528 72.57283691406249 0.030053710937494316 72.145673828125 0.979248046875 71.70556640625 C1.8459008789062494 71.2871044921875 2.712553710937499 70.86864257812499 3.60546875 70.4375 C4.3804370117187545 70.06496093749999 5.155405273437509 69.69242187500001 5.953857421875 69.30859375 C9.430458472137104 67.08516198417195 11.261437542522927 63.78989829378442 13.125 60.1875 C13.457578124999998 59.5623046875 13.790156249999995 58.937109375000006 14.1328125 58.29296875 C17.6937376540925 48.877369356070744 17.59651267433236 33.455999615660346 14 24 C11.888829023187128 20.19989224173682 9.865320008350267 17.108356368191053 6 15 C-2.815228844462027 14.250405710504928 -11.595061695775584 20.208158730133313 -19.3125 24 Z " fill="#544A58" transform="translate(76,23)"/>
<path d="M0 0 C0.3299999999999983 0 0.6600000000000001 0 1 0 C2.210867431027708 12.379867158595694 2.4895036182617787 22.897592013777356 -1.58984375 34.703125 C-6.338915555523336 48.48221301221864 -11.392507040609214 67.58839179082347 -4.890625 81.34765625 C-3.0024373726081635 84.83847226483861 -0.9227477396085746 88.16019726434614 1.3125 91.4375 C3 94 3 94 3 96 C-5.91 96 -14.82 96 -24 96 C-24 69.6 -24 43.19999999999999 -24 16 C-18.555 14.515 -18.555 14.515 -13 13 C-7.678929002706763 9.9469264769629 -4.637508160255685 6.598641483150601 -1.1640625 1.57421875 C-0.7799218749999994 1.0547265625000009 -0.39578124999999886 0.5352343750000017 0 0 Z " fill="#96A7CE" transform="translate(24,32)"/>
<path d="M0 0 C-2.310722100656463 7.527352297593005 -2.310722100656463 7.527352297593005 -5.1875 9.5 C-5.78562500000001 9.665 -6.383749999999992 9.829999999999998 -7 10 C-7 10.659999999999997 -7 11.32 -7 12 C-8.541074218749998 12.363515624999998 -8.541074218749998 12.363515624999998 -10.11328125 12.734375 C-24.754105647894832 15.449562647246935 -24.754105647894832 15.449562647246935 -37.1875 22.6875 C-39.544291352421055 26.994739368217793 -39.908674275543476 30.197007400698794 -39 35 C-36.107469497137636 41.14662731858252 -30.62504019710788 45.288981026965075 -24.55859375 48.15234375 C-16.71315715508416 50.751518927246934 -8.504120560356327 48.669338991630966 -0.75 46.65625 C2 46 2 46 5 46 C5 48.1875 5 48.1875 4 51 C-7.585111953376881 59.93019046406134 -26.168008962839167 68.79006788379527 -41 67 C-46.661764705882355 64.01470588235294 -46.661764705882355 64.01470588235294 -48 60 C-47.927450576308196 47.35826292170367 -47.42761948163127 25.835543663688817 -38.29296875 16.19921875 C-29.04072202457435 8.947457803044763 -11.95623772443929 -0.3231415601199785 0 0 Z " fill="#352732" transform="translate(82,38)"/>
<path d="M0 0 C9.15660375095932 5.41477000191864 9.15660375095932 5.41477000191864 10.4609375 8.0234375 C9.800937500000003 8.6834375 9.140937500000007 9.3434375 8.4609375 10.0234375 C6.37813204351059 9.545416575559805 4.296152307462023 9.063481263857405 2.21875 8.5625 C-5.1029071989360375 7.131354541851032 -12.137273483171327 6.726418316368349 -18.7890625 10.4609375 C-26.279120811262807 15.651947218144983 -31.854940469653386 21.959177463384762 -37.0390625 29.3984375 C-40.51394436760308 34.215469506941844 -43.08118164978377 36.47909515431019 -48.88671875 37.7890625 C-49.4319921875 37.86640625 -49.977265625 37.94375 -50.5390625 38.0234375 C-51.83709742453823 33.44259681440518 -51.76147146528595 29.005299953458774 -51.7890625 24.2734375 C-51.809687499999995 23.404609375 -51.830312500000005 22.53578125 -51.8515625 21.640625 C-51.8917589115035 14.94792248466662 -51.05833188205702 9.417625559076818 -46.953125 3.88671875 C-32.84486320573688 -8.342495076031573 -15.843097060298554 -9.025196227464319 0 0 Z " fill="#898A92" transform="translate(76.5390625,15.9765625)"/>
<path d="M0 0 C0 13.530000000000001 0 27.060000000000002 0 41 C-14.849999999999994 41 -29.700000000000003 41 -45 41 C-43.09171706747813 36.22929266869534 -42.19062574151357 34.868867319389125 -38.5 31.6875 C-37.705937500000005 30.990117187500005 -36.911874999999995 30.292734374999995 -36.09375 29.57421875 C-34 28 -34 28 -32 28 C-31.731875000000002 27.436679687500003 -31.463750000000005 26.873359375000007 -31.1875 26.29296875 C-25.470334399468783 15.253573330553209 -13.591951400389576 0 0 0 Z " fill="#B8B2D0" transform="translate(128,87)"/>
<path d="M0 0 C20.46 0 40.92 0 62 0 C60.878886310904875 8.968909512761005 60.878886310904875 8.968909512761005 58.5625 12.6875 C57.04555276304812 15.189814672920624 55.931850895055476 17.204447314833583 55 20 C54 22 54 22 51.6953125 22.7890625 C48.361856186749165 23.049941689732673 47.484034708933564 22.38881766507039 44.875 20.375 C34.61244346208464 13.00039907074424 24.5982935886599 9.779925865733698 12 11 C4.4874570175048305 13.022930568470766 -1.9743853583290019 16.095429942825934 -8 21 C-7.289797738710487 16.451513607471654 -5.620410507494025 13.361867997378248 -3.25390625 9.4765625 C-1.5790156659284875 6.3623406178107285 -1.5790156659284875 6.3623406178107285 0 0 Z " fill="#91ACC4" transform="translate(37,0)"/>
<path d="M0 0 C4.339829111950934 1.6081243796711355 7.15969518668112 3.524619883334296 9.40234375 7.76171875 C13.325519839281768 17.91363412795188 13.408055365560159 27.832207341063167 9.08203125 37.79296875 C6.484610923587979 42.622832307777855 3.4530254826237865 47.151308234723146 -0.5859375 50.89453125 C-1.5759374999999949 50.89453125 -2.565937500000004 50.89453125 -3.5859375 50.89453125 C-3.6117187499999943 50.0089453125 -3.637500000000003 49.12335937500001 -3.6640625 48.2109375 C-4.3411390077731085 33.42297104613716 -6.003123980785773 17.449250453275717 -16.97265625 6.515625 C-19.12858432990396 4.569536073870051 -21.313579561291974 2.702318232349942 -23.5859375 0.89453125 C-23.2109375 -1.04296875 -23.2109375 -1.04296875 -22.5859375 -3.10546875 C-16.875846289908324 -5.960514355045834 -5.936692581644792 -1.7365253516914905 0 0 Z " fill="#386CA7" transform="translate(109.5859375,26.10546875)"/>
<path d="M0 0 C10.112745079482153 5.919655656282238 14.673673370307029 13.988256270833162 17.87109375 25 C20.92677157799345 36.93030195044334 23.215885180647177 48.83635337121227 17 60 C16.686757812500005 60.64066406250001 16.373515624999996 61.281328125 16.05078125 61.94140625 C15.125 63.625 15.125 63.625 13 66 C7.898487078653233 67.04349127936638 3.6604177843669277 64.92844873835872 -1 63 C-0.7344531250000017 62.4547265625 -0.4689062500000034 61.909453125 -0.1953125 61.34765625 C5.511911926032099 49.16252380755918 7.258111871536073 34.99654037011577 3.6953125 21.82421875 C1.8618439053557552 17.013938785399645 -1.2777577175570372 13.456367833697037 -5 10 C-3.3499999999999943 6.700000000000003 -1.7000000000000028 3.3999999999999986 0 0 Z " fill="#303D62" transform="translate(86,27)"/>
<path d="M0 0 C0.5332592663254232 7.935249000134682 -0.9675601421133138 14.471973777719398 -3.375 22 C-9.1198190073012 39.13390615619454 -9.1198190073012 39.13390615619454 -7.875 56.75 C-5.101964020810797 61.55659569726129 -1.6088009116931872 63.927466058871204 3 67 C2.650664062499999 67.626484375 2.3013281249999977 68.25296875 1.94140625 68.8984375 C1.4863671875000009 69.715703125 1.0313281250000017 70.53296875 0.5625 71.375 C0.11003906250000028 72.187109375 -0.34242187499999943 72.99921875 -0.80859375 73.8359375 C-1.565053603808778 75.20996621806579 -2.2985463053780535 76.59709261075609 -3 78 C-5.738281249999989 78.37890625 -5.738281249999989 78.37890625 -9 78 C-11.230468749999993 75.40234375000001 -11.230468749999993 75.40234375000001 -13.1875 71.9375 C-13.841054687499998 70.8121484375 -14.494609375 69.686796875 -15.16796875 68.52734375 C-21.89303867092151 55.57907479777799 -20.82250949678595 45.82095422598698 -18 32 C-17.67041533859625 30.330760272094437 -17.340990564870708 28.661488967735124 -17.01171875 26.9921875 C-16.676041735207583 25.3278090928422 -16.338836468835275 23.663738076699673 -16 22 C-15.84635986328125 21.2357470703125 -15.692719726562501 20.471494140624998 -15.534423828125 19.68408203125 C-12.45970992031738 5.046980438055115 -12.45970992031738 5.046980438055115 -8.5546875 2.24609375 C-7.228242187500001 1.8458398437499994 -7.228242187500001 1.8458398437499994 -5.875 1.4375 C-4.540820312500003 1.00244140625 -4.540820312500003 1.00244140625 -3.1796875 0.55859375 C-1 0 -1 0 0 0 Z " fill="#6F738E" transform="translate(36,50)"/>
<path d="M0 0 C0.8435536418992484 2.3946038866817467 1.0689838253042012 3.733450253246332 0.42578125 6.21875 C-1.3090740035812019 9.773681466987448 -2.7108271783967552 12.362946318539962 -6.33984375 14.15625 C-8.308499164882846 14.752644908295508 -10.287775796740775 15.314497672071326 -12.2734375 15.8515625 C-16.97635148092519 17.300888192234808 -21.306875365576218 19.274770823922516 -25.75 21.375 C-26.541645507812504 21.738515625000005 -27.333291015625 22.102031249999996 -28.14892578125 22.4765625 C-32.97296434552356 24.768056461536595 -37.09413308883833 27.3846438510733 -41.2333984375 30.7646484375 C-43.7047960993114 32.49285078254778 -46.026786649380035 32.851339332469 -49 33 C-49.804276363265245 26.867392730102537 -49.23444846704517 23.65051771860584 -45.625 18.5625 C-32.36734956098606 1.8910630281888103 -21.504688852056134 -5.831780027676238 0 0 Z " fill="#5D5256" transform="translate(85,25)"/>
<path d="M0 0 C2.969999999999999 0.49499999999999744 2.969999999999999 0.49499999999999744 6 1 C6 11.89 6 22.78 6 34 C2.700000000000003 35.31999999999999 -0.5999999999999943 36.64 -4 38 C-6.95871484252396 39.89334520955845 -6.95871484252396 39.89334520955845 -9.3125 42 C-10.092382812500006 42.66 -10.872265624999997 43.31999999999999 -11.67578125 44 C-12.442773437499994 44.66 -13.209765625000003 45.31999999999999 -14 46 C-15.662121129865895 47.33899548364022 -17.327573268239604 48.67389880384309 -19 50 C-21.814424293061833 43.47053564009656 -22.56897178123974 40.13363719288162 -19.984375 33.32421875 C-17.684038976997755 27.82816274567503 -15.853945352303882 24.55166733095406 -11 21 C-5.865212283186295 14.707501524753496 -2.8786136987421145 7.527702194498197 0 0 Z " fill="#6A8AB6" transform="translate(122,53)"/>
</svg>
