<?xml version="1.0" encoding="UTF-8"?>
<!-- Generator: visioncortex VTracer 0.6.0 -->
<svg version="1.1" xmlns="http://www.w3.org/2000/svg" width="128" height="128">
<path d="M0 0 C42.24 0 84.48 0 128 0 C128 42.24 128 84.48 128 128 C85.75999999999999 128 43.519999999999996 128 0 128 C0 85.75999999999999 0 43.519999999999996 0 0 Z " fill="#627289" transform="translate(0,0)"/>
<path d="M0 0 C6.31444540168701 1.3707829653522197 12.08256046351022 4.658237131681169 17.7890625 7.60546875 C18.449062499999997 5.955468750000001 19.109062499999993 4.305468749999999 19.7890625 2.60546875 C26.7026319470707 1.8950836325028284 31.620764251386277 6.513020340893629 36.7890625 10.60546875 C39.8918701654877 13.80384544009205 42.06428868898155 17.336155885200498 44.265625 21.19140625 C48.229353362360655 28.153526793229403 48.229353362360655 28.153526793229403 54.7890625 32.60546875 C57.7590625 33.26546875 60.7290625 33.92546875 63.7890625 34.60546875 C63.7890625 52.42546874999999 63.7890625 70.24546875 63.7890625 88.60546875 C57.95794180172372 87.87657866271546 55.62234121090104 87.56606846028265 50.7890625 85.60546875 C47.79823255286814 85.21708653569951 47.79823255286814 85.21708653569951 44.59765625 85.11328125 C43.40462890625 85.0475390625 42.21160156249999 84.981796875 40.982421875 84.9140625 C38.50616674675463 84.79301830756367 36.029593754239585 84.67828829431029 33.552734375 84.5703125 C26.324489565375487 84.15948464486853 20.117899208760576 83.08013780515124 13.32763671875 80.532470703125 C8.408344959923923 78.73611074849309 4.495533277580847 78.10904088743102 -0.6484375 79.60546875 C-5.878484082502844 82.21453526837841 -10.951321044085802 86.08699408433907 -14.84765625 90.4296875 C-17.71451346164355 93.52762640124706 -19.29705100737594 94.54677879175809 -23.6171875 94.82421875 C-33.7947912892368 94.23543175392845 -33.7947912892368 94.23543175392845 -38.2109375 91.60546875 C-38.2109375 90.94546875 -38.2109375 90.28546875 -38.2109375 89.60546875 C-39.2009375 89.27546875 -40.190937500000004 88.94546875 -41.2109375 88.60546875 C-45.89465994003665 81.57988508994502 -44.19015762594104 72.5067139697399 -42.82421875 64.58984375 C-42.339089931141714 62.229089497721446 -41.77085561546748 59.974023987689066 -41.0859375 57.66796875 C-39.75995995577081 52.90052277036682 -40.20534242671588 48.06702154243965 -40.43359375 43.16796875 C-39.95292641495716 35.47729138931457 -36.49742444119853 30.150165443730437 -31.8359375 24.23046875 C-26.914203302115332 17.76614966239434 -22.79863595263187 11.368564107895615 -20.2109375 3.60546875 C-19.0146875 3.8529687499999987 -17.8184375 4.100468750000001 -16.5859375 4.35546875 C-10.122021126629868 5.204494543349842 -6.74863335697124 -0.24350738916906423 0 0 Z " fill="#336090" transform="translate(64.2109375,16.39453125)"/>
<path d="M0 0 C7.562059327369326 1.6874016680906756 15.72874004296122 5.1910810101778395 20.9765625 11.00390625 C24.22693297789489 16.84149690713882 24.97826509459236 23.08783718344217 23.8359375 29.6328125 C21.367849521261874 37.27482803049649 16.68475111637271 42.334619412365306 10.8359375 47.6328125 C10.362851562499998 48.1484375 9.889765624999995 48.6640625 9.40234375 49.1953125 C7.410063131277823 51.023639850847275 5.333235481030542 52.02734173917483 2.8984375 53.1953125 C2.0437890624999966 53.6091015625 1.1891406249999932 54.022890625 0.30859375 54.44921875 C-1.2255387105859157 55.18356651549374 -2.7638959958907137 55.909238500838526 -4.30859375 56.62109375 C-7.374067749986622 58.29258378367692 -9.51132950153211 60.60280200280886 -11.1640625 63.6328125 C-11.228107662119747 65.58618994465219 -11.28296880897151 67.54528711843612 -11.1640625 69.49609375 C-11.1640625 77.8788650989271 -16.28208180894282 84.29846007529659 -21.60546875 90.2421875 C-24.35181224101577 92.906215518533 -26.551100927230422 93.95263593196836 -30.2890625 94.0703125 C-33.556825092267296 93.70137156216337 -35.476867555565576 93.42427579628962 -38.1640625 91.6328125 C-38.1640625 90.9728125 -38.1640625 90.3128125 -38.1640625 89.6328125 C-39.1540625 89.3028125 -40.144062500000004 88.9728125 -41.1640625 88.6328125 C-45.84778494003665 81.60722883994502 -44.14328262594104 72.5340577197399 -42.77734375 64.6171875 C-42.292214931141714 62.256433247721446 -41.72398061546748 60.001367737689066 -41.0390625 57.6953125 C-39.71308495577081 52.92786652036682 -40.15846742671588 48.09436529243965 -40.38671875 43.1953125 C-39.90605141495716 35.50463513931457 -36.45054944119853 30.177509193730437 -31.7890625 24.2578125 C-26.867328302115332 17.79349341239434 -22.75176095263187 11.395907857895615 -20.1640625 3.6328125 C-18.9678125 3.8803124999999987 -17.7715625 4.127812500000001 -16.5390625 4.3828125 C-10.046852574094132 5.2355546093571625 -6.752704297063161 -0.34570158517388094 0 0 Z " fill="#4F4460" transform="translate(64.1640625,16.3671875)"/>
<path d="M0 0 C0.6600000000000001 0.6599999999999966 1.3200000000000003 1.3199999999999932 2 2 C1.90625 4.574218750000014 1.90625 4.574218750000014 1.5 7.6875 C0.984210458737298 12.808553302536836 0.9849947658355269 16.264737699713493 3 21 C4.520078417878892 22.772772589302093 4.520078417878892 22.772772589302093 6 24 C6 24.659999999999997 6 25.319999999999993 6 26 C8.581854314626248 26.390280303373743 11.164209828762523 26.762631481193367 13.75 27.125 C14.479609375000003 27.237148437499997 15.209218749999998 27.349296874999993 15.9609375 27.46484375 C21.32273854786844 28.227373286709195 21.32273854786844 28.227373286709195 26 26 C28.01600072107756 24.383317165903406 29.984924638030876 22.751806773838467 31.9375 21.0625 C41.6374584717608 12.680271735723693 41.6374584717608 12.680271735723693 48 12 C50.359374999999986 12.234375 50.359374999999986 12.234375 52.75 12.75 C53.917890625 12.989765625000004 53.917890625 12.989765625000004 55.109375 13.234375 C58.000000000000014 14 58.000000000000014 14 59.8505859375 14.715087890625 C67.82829503651678 17.74488866071033 75.89619707855323 17.739654772223645 84.34375 18.083984375 C92.81972839865448 18.542020325582314 99.96687768328925 20.23092232118954 108 23 C108 30.590000000000003 108 38.18000000000001 108 46 C65.75999999999999 46 23.519999999999996 46 -20 46 C-20 35.11 -20 24.22 -20 13 C-17.03 11.680000000000007 -14.059999999999999 10.36 -11 9 C-7.729673820134666 6.724113619046264 -7.729673820134666 6.724113619046264 -4.9375 4.25 C-3.997773437500001 3.4507812500000057 -3.0580468749999987 2.651562499999997 -2.08984375 1.828125 C-1.0553710937499972 0.9232031250000006 -1.0553710937499972 0.9232031250000006 0 0 Z " fill="#496379" transform="translate(20,82)"/>
<path d="M0 0 C15.510000000000002 0 31.020000000000003 0 47 0 C48.32435978128142 3.9730793438442715 47.18129186169523 6.809745683250519 46.0625 10.6875 C45.86720703125 11.38939453125 45.6719140625 12.0912890625 45.470703125 12.814453125 C44.98800864332146 14.545089437359666 44.4949915446114 16.272840661935327 44 18 C42.68 18 41.36 18 40 18 C39.997421875 18.6174609375 39.99484375 19.234921875 39.9921875 19.87109375 C39.66188706668351 27.10467323963109 37.44548137853618 31.388490718896957 33 37 C32.38125 37.843046875 31.7625 38.68609375 31.125 39.5546875 C27.03618784594909 44.25982795668359 22.86492892595006 45.6863124420564 17 48 C11.39 48 5.779999999999999 48 0 48 C0 32.16 0 16.32 0 0 Z " fill="#8C928C" transform="translate(0,0)"/>
<path d="M0 0 C18.150000000000006 0 36.30000000000001 0 55 0 C55 16.830000000000002 55 33.660000000000004 55 51 C44.28571428571428 49.80952380952381 44.28571428571428 49.80952380952381 40 46 C37.267454178319696 42.42115389758931 34.907814888054304 38.623062981672845 32.7109375 34.6953125 C28.61501585965169 27.77296540023005 23.04089523630421 23.786141778012645 16 20 C14.112812500000004 19.566875 14.112812500000004 19.566875 12.1875 19.125 C6.347186859109939 17.063713009097622 3.7895269215598972 11.089411297806993 0.80078125 5.9296875 C0 4 0 4 0 0 Z " fill="#75AFD5" transform="translate(73,0)"/>
<path d="M0 0 C6.804331565195085 2.6475560998128103 13.906458225222309 5.563544652877692 17.5927734375 12.18408203125 C20.266135911088583 19.51897991046573 20.307640222044213 26.41857859483038 17.0927734375 33.55908203125 C14.238909666891828 38.67972902536979 10.405031733712747 42.46528947422046 6.0927734375 46.37158203125 C5.624843749999997 46.88462890625 5.156914062499993 47.39767578125 4.6748046875 47.92626953125 C2.612006108873402 49.81080156604466 0.4189026629673691 50.85123422160984 -2.0947265625 52.05908203125 C-2.995781249999993 52.49607421875001 -3.8968359375000006 52.93306640624999 -4.8251953125 53.38330078125 C-5.512265624999998 53.70943359374999 -6.1993359374999955 54.03556640625 -6.9072265625 54.37158203125 C-9.9072265625 52.37158203125 -9.9072265625 52.37158203125 -11.5322265625 48.74658203125 C-13.69610358971778 44.097627480586794 -16.934773343354273 41.405913190828954 -20.8837890625 38.23095703125 C-23.51318783582333 35.81475275306099 -24.79184053936946 33.91893818759033 -25.0595703125 30.32861328125 C-24.512542352479322 24.868279643952697 -22.896774208417696 21.346133616969 -20.0322265625 16.70751953125 C-18.745828938614906 14.036457798321923 -18.54552685402207 12.006606994314161 -18.4072265625 9.05908203125 C-18.18182099502115 4.660258229541462 -18.18182099502115 4.660258229541462 -15.4697265625 1.80908203125 C-10.220650085134622 -1.135521846296431 -5.830472599293685 -1.9211004186612843 0 0 Z " fill="#353D72" transform="translate(68.9072265625,17.62841796875)"/>
<path d="M0 0 C6.436908278314704 0.5056181729189859 12.421962215151382 2.6808807540940904 18.5 4.75 C18.5 12.340000000000003 18.5 19.930000000000007 18.5 27.75 C-9.219999999999999 27.75 -36.94 27.75 -65.5 27.75 C-64.25474158540493 19.03319109783456 -61.12032347028739 15.573091185218189 -54.5078125 10.1015625 C-49.75344838284394 6.798329599325314 -45.30632224617692 5.176635772630647 -39.5 5.75 C-35.162702045283254 6.747972317985415 -30.936908414692738 8.118427355456944 -26.69921875 9.46875 C-21.711809656365403 11.04193682491261 -16.671805619125223 12.001596163107152 -11.5 12.75 C-10.475082092723682 10.718466290934458 -9.475548954287817 8.694170112290507 -8.5625 6.609375 C-6.430163217714039 2.376059329285212 -4.931679188943136 0.19214334502376573 0 0 Z " fill="#82B8D4" transform="translate(109.5,100.25)"/>
<path d="M0 0 C6.913569447070699 -0.7103851174971716 11.831701751386277 3.9075515908936183 17 8 C20.102807665487717 11.198376690092058 22.27522618898155 14.730687135200498 24.4765625 18.5859375 C27.866527376046946 24.514029924266723 30.439833954541925 28.712071330346816 37.37890625 30.671875 C39.5797944597863 31.181626885834703 41.77282779136763 31.623855360319865 44 32 C44 34.25000000000001 44 34.25000000000001 43 37 C41.06820798136661 38.238772460379266 39.1244852090489 39.12521465452943 37.0078125 40.0078125 C32.68946596805466 42.14178140878232 31.274715547864346 45.340596930434714 29.349365234375 49.650634765625 C26.380845909238516 56.23701377441567 23.808561055341684 61.75721437492254 17.15625 65.265625 C13.505758131582553 66.50890846243203 11.614205047619095 66.37996920000002 8 65 C3.7669821462280453 61.96856235332844 -0.2725273877539962 58.47437349984767 -3 54 C-4.320882861913233 45.884305298875475 -2.4494934839354414 39.264079343907845 1 32 C3.427440863418468 26.62373132714712 3.697315463514286 21.83500755676328 3 16 C2.0885560053081633 13.58982173788604 1.0002744149177403 11.37224491326085 -0.17578125 9.08203125 C-1.493476478252262 5.753445673419655 -0.8703816381191416 3.408994749299989 0 0 Z " fill="#436983" transform="translate(84,19)"/>
<path d="M0 0 C10.56 0 21.12 0 32 0 C33 13.999999999999995 33 13.999999999999995 30.1875 18.375 C27.465517241379306 21 27.465517241379306 21 25 21 C24.770546875 21.574921875 24.54109375 22.14984375 24.3046875 22.7421875 C22.648085187384826 25.609002280513685 20.756645370271123 27.118847152517958 18.125 29.125 C17.261328125 29.808203125 16.39765625 30.49140625 15.5078125 31.1953125 C11.999999999999993 33 11.999999999999993 33 0 35 C0 23.45 0 11.899999999999999 0 0 Z " fill="#C2D5D9" transform="translate(0,0)"/>
<path d="M0 0 C0 16.5 0 33 0 50 C-7.822862806112838 49.02214214923589 -13.671893137215775 48.07849884807541 -19.5 42.6875 C-22.174898137167077 37.894974170908995 -22.369178466070707 33.62007711668923 -20.92578125 28.40625 C-20.403145496746504 26.765937283239637 -19.865012645572747 25.130491863158724 -19.3125 23.5 C-19.055332031250003 22.684023437500002 -18.798164062500007 21.868046875000005 -18.533203125 21.02734375 C-16.872292748398706 15.94259109829187 -14.808257485188747 11.551946773377836 -12 7 C-11.340000000000003 7 -10.680000000000007 7 -10 7 C-9.721562500000005 6.102812499999999 -9.721562500000005 6.102812499999999 -9.4375 5.1875 C-7.485374016417069 2.216873503243356 -3.694316819745481 0 0 0 Z " fill="#1F538F" transform="translate(128,55)"/>
<path d="M0 0 C1.8424683220929978 -0.012998012854268381 3.6851574587772973 0.012116768090137953 5.52734375 0.046875 C7.038825972778433 6.269327362387131 6.183758149758411 11.755147020862267 3.30078125 17.484375 C0.22700816677927094 22.3498126076649 -3.3512908706618276 27.223145241580838 -8.47265625 30.046875 C-12.20967742090221 30.825128939906463 -15.402723400120529 30.47484813995179 -18.97265625 29.046875 C-19.46765625 28.716875 -19.962656250000002 28.386875000000003 -20.47265625 28.046875 C-20.47265625 27.386875000000003 -20.47265625 26.726875000000007 -20.47265625 26.046875 C-21.462656250000002 25.716875 -22.45265625 25.386875000000003 -23.47265625 25.046875 C-26.41319290677535 20.636070014836974 -26.48802842789292 16.27341548359334 -26.47265625 11.046875 C-25.262906186315313 6.766220928500331 -22.698299772868992 5.3936600669246815 -18.97265625 3.296875 C-12.70959957451609 0.38446234769770626 -6.801737428024985 0.1289428896308067 0 0 Z " fill="#19325F" transform="translate(46.47265625,79.953125)"/>
<path d="M0 0 C7.2539791010580785 2.6269005200522884 15.309158215305189 2.80052960981763 22.9375 3.5 C19.286483124188663 12.879056685417567 19.286483124188663 12.879056685417567 15.9375 15.5 C9.33274582686964 16.709488196874858 2.553970000249393 13.81996872020865 -3.6875 11.875 C-12.321493531186746 9.050153551363195 -12.321493531186746 9.050153551363195 -21.0625 10.5 C-27.806171318066227 14.10972590491582 -33.28646026838312 18.7901598821083 -37.0625 25.5 C-37.998526756621814 28.300805339544453 -37.998526756621814 28.300805339544453 -38.0625 30.5 C-40.042500000000004 30.5 -42.0225 30.5 -44.0625 30.5 C-43.593323452976676 20.647292512510205 -40.56502419654606 14.546181096948686 -33.3125 7.8125 C-21.861337214242823 -1.9466252995035092 -14.627352756576897 -5.66593110729066 0 0 Z " fill="#4C8BB3" transform="translate(82.0625,97.5)"/>
<path d="M0 0 C6.391912067466535 0.5757600182908789 12.395035587973425 2.755490838459039 18.4375 4.8125 C18.4375 12.402500000000003 18.4375 19.992500000000007 18.4375 27.8125 C10.1875 27.8125 1.9375 27.8125 -6.5625 27.8125 C-7.552499999999995 22.862499999999997 -7.552499999999995 22.862499999999997 -8.5625 17.8125 C-9.552499999999995 16.492500000000007 -10.542500000000004 15.1725 -11.5625 13.8125 C-11.045836003218255 7.511719551442226 -6.665869985485401 0.2496987128113375 0 0 Z " fill="#739CD4" transform="translate(109.5625,100.1875)"/>
<path d="M0 0 C8.579999999999998 0 17.159999999999997 0 26 0 C27.319999999999993 3.3000000000000003 28.64 6.6000000000000005 30 10 C31.60844685858143 12.047114183649095 33.25840614055093 14.064895711723253 35 16 C35 16.66 35 17.32 35 18 C35.66 18 36.31999999999999 18 37 18 C36.67 20.31 36.34 22.62 36 25 C34.9494140625 24.4946875 33.898828124999994 23.989375 32.81640625 23.46875 C22.36576820014011 18.30847591612431 22.36576820014011 18.30847591612431 11 18 C9.96875 18.70125 8.9375 19.4025 7.875 20.125 C5 22 5 22 1.1875 21.3125 C-2 20 -2 20 -3 19 C-2.4047132002913827 12.570902563146964 -1.1591735313193894 6.375454422256632 0 0 Z " fill="#6567A3" transform="translate(47,0)"/>
<path d="M0 0 C4.950000000000003 0 9.899999999999999 0 15 0 C16.324359781281423 3.9730793438442658 15.181291861695229 6.809745683250521 14.0625 10.6875 C13.867207031250004 11.38939453125 13.6719140625 12.0912890625 13.470703125 12.814453125 C12.98800864332145 14.545089437359666 12.494991544611402 16.272840661935327 12 18 C8.737668030458345 18.110775279101585 6.918127079762577 17.967892972455914 3.8125 16.75 C-0.4148733777600597 12.616568252856833 -0.7222836990550618 7.773132801461466 -1 2 C-0.6700000000000017 1.3399999999999999 -0.33999999999999986 0.6799999999999999 0 0 Z " fill="#8997C6" transform="translate(32,0)"/>
<path d="M0 0 C3.6299999999999955 0 7.260000000000005 0 11 0 C11.204960937500005 1.03640625 11.409921874999995 2.0728125 11.62109375 3.140625 C11.893177687642307 4.510426892957826 12.165315960027272 5.880217994183779 12.4375 7.25 C12.572207031250002 7.9319140625 12.706914062500005 8.613828125 12.845703125 9.31640625 C13.492207112164436 12.564694575753004 14.150026952079287 15.798159780648199 15 19 C11.341023953137693 18.73642969153958 9.534673278266979 18.56018249955834 6.953125 15.85546875 C6.391093749999996 14.9750390625 5.829062500000006 14.094609375 5.25 13.1875 C4.677656249999998 12.3148046875 4.105312499999997 11.442109375 3.515625 10.54296875 C0 4.644329896907216 0 4.644329896907216 0 0 Z " fill="#8997C6" transform="translate(73,0)"/>
</svg>
