<?xml version="1.0" encoding="UTF-8"?>
<!-- Generator: visioncortex VTracer 0.6.0 -->
<svg version="1.1" xmlns="http://www.w3.org/2000/svg" width="128" height="128">
<path d="M0 0 C42.24 0 84.48 0 128 0 C128 42.24 128 84.48 128 128 C85.75999999999999 128 43.519999999999996 128 0 128 C0 85.75999999999999 0 43.519999999999996 0 0 Z " fill="#173D60" transform="translate(0,0)"/>
<path d="M0 0 C42.24 0 84.48 0 128 0 C128 42.24 128 84.48 128 128 C117.77 128 107.53999999999999 128 97 128 C97.72851386324892 122.90040295725755 98.54291071515631 119.07536319667977 100.125 114.3125 C102.13676925365446 107.4826891642238 103.43818109762071 99.64547383372432 99.96875 93.03515625 C96.28539261434145 85.29713529061247 99.37527865405336 74.48833036403612 101.0625 66.5 C104.40737358034681 50.40844601887208 102.80708311423051 34.259086946849386 94 20 C89.85167930176026 14.869182294282425 85.30190452582083 12.44448714770665 78.75 11.5625 C72.89818040755226 12.245212285785568 67.26022381471145 14.228534575322861 62.07421875 17.04638671875 C55.48428287864384 20.456052905353584 50.02907199700125 20.25250620663804 42.75 19.625 C40.641387318878834 19.461224257776998 38.53198837840638 19.30721089501752 36.421875 19.1640625 C35.0388720703125 19.04732177734375 35.0388720703125 19.04732177734375 33.6279296875 18.92822265625 C30.602693126153163 19.010851748505292 28.668418139770967 19.581584984552446 26 21 C17.00406510119555 35.44801665565563 15.210639310515905 53.128407838876456 18.3671875 69.5625 C18.950209152055933 72.04956476437428 18.950209152055933 72.04956476437428 20.05078125 74.4921875 C22.8015727004154 81.75971059122092 20.804165813084374 89.2820403634566 18.68359375 96.4453125 C16.452376811731565 104.78368894358604 19.10214325535866 111.69904254029024 23.12109375 119.05078125 C23.64896484375 119.95376953125 23.64896484375 119.95376953125 24.1875 120.875 C26 124 26 124 27 128 C18.09 128 9.18 128 0 128 C0 85.75999999999999 0 43.519999999999996 0 0 Z " fill="#8ABCC9" transform="translate(0,0)"/>
<path d="M0 0 C9.792243221835832 7.927054036724243 13.06480311818136 20.734293625919435 14.573974609375 32.69775390625 C15.46198705915694 41.5080693328726 14.052875046182209 50.008816847603214 11.875 58.5625 C10.163497176369887 65.68017840938239 9.386555726305915 74.47422750571664 13 81 C16.22721079679411 92.75914934081857 11.391556166676324 102.12955341663289 8 114 C-15.099999999999994 114 -38.2 114 -62 114 C-63.65 110.7 -65.3 107.4 -67 104 C-68.11375 102.081875 -68.11375 102.081875 -69.25 100.125 C-72.43274007277213 94.44153558433548 -72.97897741561096 88.75654124594902 -71.328125 82.421875 C-70.91820312499999 81.068359375 -70.91820312499999 81.068359375 -70.5 79.6875 C-68.16795468800377 71.66970611780344 -67.96903814866289 64.5877692370906 -71.265625 56.875 C-72.52564734857567 53.657921663211056 -72.8030348732793 50.412131165837934 -73 47 C-73.064453125 46.0654296875 -73.12890625 45.130859375 -73.1953125 44.16796875 C-73.68112061281802 31.034956100152726 -70.27243729665312 17.787395494421858 -63.5 6.5 C-61.64470465948982 4.644704659489818 -60.57195593173269 4.4433433039987165 -58 4 C-56.30404415549989 4.063055652081172 -54.60992092568683 4.1918501265579025 -52.921875 4.3671875 C-39.11467453777436 5.548155281470912 -30.117719030321467 4.618138855021723 -18 -2 C-11.499738820092318 -4.08650358861234 -5.972258472959851 -3.2073239947376972 0 0 Z M-21.5322265625 11.41064453125 C-24.307919973531426 14.227034823532343 -26.92014367097044 17.165226929176562 -29.49609375 20.1640625 C-32 23 -32 23 -34 24 C-37.51430380111235 23.95922221327823 -41.01741418994456 23.874869264831275 -44.52734375 23.697265625 C-49.84884234327651 23.571890003692438 -52.815634670300625 24.400816588589407 -57 28 C-58.47160092784533 29.887551111558686 -58.47160092784533 29.887551111558686 -59.3125 31.9375 C-59.77076171875 32.91009765625 -59.77076171875 32.91009765625 -60.23828125 33.90234375 C-61.76752143518905 38.113635952289854 -62.12754060771155 42.13951819264401 -62.1328125 46.59765625 C-62.1341015625 47.64630859375 -62.135390625 48.6949609375 -62.13671875 49.775390625 C-62.1328515625 50.86013671875 -62.128984375 51.9448828125 -62.125 53.0625 C-62.1288671875 54.15111328124999 -62.132734375 55.23972656250001 -62.13671875 56.361328125 C-62.1354296875 57.40869140625 -62.134140625 58.4560546875 -62.1328125 59.53515625 C-62.1316845703125 60.48785400390625 -62.130556640625 61.4405517578125 -62.12939453125 62.422119140625 C-62.010898183046436 64.78287940606171 -61.607674812517 66.72974100507432 -61 69 C-60.80910880778371 72.29817559884816 -60.657134237396235 75.59025132760765 -60.5703125 78.892578125 C-60.34312167859188 83.89550933809134 -59.4272919117468 87.58321540259772 -57 92 C-53.76141442126892 94.6166055669218 -50.344900923129515 94.13371870469865 -46.3125 94.125 C-38.99861236835945 94.328314821232 -33.44991371934731 96.64151816472044 -27.075439453125 100.11767578125 C-20.857694721014468 103.43511854468703 -15.150924246045221 104.89276186971281 -8.25 102.9375 C-3.98194199289901 100.39308080345901 -1.2525923600898068 97.50518472017963 1 93 C1.2479279199137636 88.37201216160989 0.952605563675121 84.50508648555794 -0.125 80 C-2.434866196064064 68.88903778681595 4.58208925114576 59.25348104393717 10.4375 50.25 C14.551090907690792 41.69373091200316 11.050762810773989 32.03835716505676 8.15625 23.515625 C5.668621096802198 17.296552742005495 2.071201843029371 10.994665619619507 -4.13671875 7.953125 C-10.537319814370761 6.12119031490959 -16.524708162482625 6.800472237543762 -21.5322265625 11.41064453125 Z " fill="#557D8D" transform="translate(89,14)"/>
<path d="M0 0 C8.183805375566806 8.229868069988385 11.648083080240866 20.240808532996226 12.20703125 31.65625 C12.188631191158052 37.065867299532876 9.752602110354886 40.93160187882101 6.83203125 45.34375 C4.569103979639834 41.949359094459766 3.591461051137003 38.58308160473278 2.45703125 34.71875 C-1.0500928165095615 22.57411797929869 -1.0500928165095615 22.57411797929869 -8.16796875 12.34375 C-10.001302083333329 11.177083333333329 -10.001302083333329 11.177083333333329 -12.16796875 11.34375 C-15.217875020078623 12.618625351073533 -15.217875020078623 12.618625351073533 -18.16796875 14.34375 C-19.501302083333343 15.010416666666671 -20.834635416666657 15.677083333333329 -22.16796875 16.34375 C-22.16796875 17.003749999999997 -22.16796875 17.66375 -22.16796875 18.34375 C-23.628906250000014 19.632812500000014 -23.628906250000014 19.632812500000014 -25.54296875 20.96875 C-26.169453124999997 21.414765625 -26.7959375 21.860781250000002 -27.44140625 22.3203125 C-29.16796875 23.34375 -29.16796875 23.34375 -31.16796875 23.34375 C-31.49796875 24.333749999999995 -31.827968749999997 25.323750000000004 -32.16796875 26.34375 C-34.828808437436756 28.33771257279095 -37.78039199835274 30.34375 -41.16796875 30.34375 C-42.47853571881024 36.76552814717019 -41.50692777894096 40.87510810612932 -39.17578125 46.9140625 C-33.85361618873284 60.86046583572926 -33.85361618873284 60.86046583572926 -36.1953125 67.06640625 C-37.08908809815477 68.94981164089425 -38.00826857557719 70.82138262094129 -38.953125 72.6796875 C-40.6052285873637 76.30262848579433 -40.9443476558565 79.39311067013146 -41.16796875 83.34375 C-43.0843209193763 83.39798638215215 -45.00111800245075 83.43664962862955 -46.91796875 83.46875 C-47.9853125 83.491953125 -49.05265625 83.51515625 -50.15234375 83.5390625 C-54.786018312322774 83.23895404389101 -54.786018312322774 83.23895404389101 -57.16796875 81.34375 C-59.96512463447658 76.25394808235654 -60.64206066658089 71.89614674433398 -60.79296875 66.15625 C-60.872715218849656 61.255874093884984 -60.872715218849656 61.255874093884984 -61.66845703125 56.44873046875 C-62.732169144236124 51.96616652047709 -62.39588899261217 47.2405596276469 -62.41796875 42.65625 C-62.438593749999995 41.60501953125001 -62.459218750000005 40.5537890625 -62.48046875 39.470703125 C-62.52197361030246 31.133414311743543 -61.372002412679976 23.149024789658426 -56.16796875 16.34375 C-51.822571420483776 12.905005120815169 -48.06254769216821 13.192090320312722 -42.79296875 13.53125 C-35.940156409718504 13.899808209561144 -35.940156409718504 13.899808209561144 -30.04296875 10.84375 C-28.521090076884065 9.207796456096375 -28.521090076884065 9.207796456096375 -27.16796875 7.34375 C-20.146619543789527 -1.533241496423237 -10.619637494256537 -8.113020355972559 0 0 Z " fill="#37465E" transform="translate(89.16796875,24.65625)"/>
<path d="M0 0 C11.879999999999995 0 23.760000000000005 0 36 0 C36 31.35 36 62.7 36 95 C27.890620328032924 93.98632754100412 24.78983155564697 93.31763752563423 19.6875 87.25 C16.269578303218083 80.66733599138296 16.82197495320952 75.18945829611853 18.9375 68.3125 C22.622497047969347 54.91946329156076 22.0365218884275 41.256293324101165 15.5 28.75 C13.514432311951566 25.33683427801294 11.375883869778448 22.03899739274175 9.19921875 18.74609375 C8.456718749999993 17.6183251953125 8.456718749999993 17.6183251953125 7.69921875 16.4677734375 C6.709554712837516 14.974966249661234 5.708622020384311 13.489554148819286 4.6953125 12.0126953125 C4.001152343749993 10.975805664062499 4.001152343749993 10.975805664062499 3.29296875 9.91796875 C2.8755541992187545 9.30719482421875 2.458139648437495 8.6964208984375 2.028076171875 8.067138671875 C1 6 1 6 0 0 Z " fill="#9AC6E5" transform="translate(92,0)"/>
<path d="M0 0 C6.931088273936709 1.2259893444266314 11.908753881413233 3.227377329776644 16.25390625 8.98828125 C23.600597492598965 20.622620538460637 27.29724309205045 34.48049116160211 24.56201171875 48.1962890625 C23.846028371694146 51.33353846813836 23.113811913388247 54.4577411274407 22.247802734375 57.557373046875 C20.810426389204736 63.07524278963646 21.174921539688626 66.57724291345183 23 72 C25.81356966101562 76.68928276835936 28.899949576713226 78.21050862340815 34 80 C35.650000000000006 80.33 37.3 80.66 39 81 C39 91.89 39 102.78 39 114 C28.769999999999996 114 18.539999999999992 114 8 114 C8.72851386324892 108.90040295725755 9.54291071515631 105.07536319667977 11.125 100.3125 C13.136769253654464 93.4826891642238 14.438181097620713 85.64547383372431 10.96875 79.03515625 C7.285392614341447 71.29713529061247 10.37527865405336 60.4883303640361 12.0625 52.5 C15.422231055038111 36.33696951900583 13.729573746706066 20.354167910035628 5 6 C3.4292518235193086 3.860016108336943 1.8021206573048545 1.9565881422166918 0 0 Z " fill="#92A1B3" transform="translate(89,14)"/>
<path d="M0 0 C7.9675486636257915 4.780529198175479 10.796415256136683 14.016305891674513 13.11181640625 22.52392578125 C13.802465261468498 26.039719387626448 13.255066451653661 28.59009237062844 11.703125 31.76171875 C9.880808760985815 34.394610718705565 8.006308210516238 36.50780629420504 5.5 38.5 C4.840000000000003 38.5 4.180000000000007 38.5 3.5 38.5 C3.5 39.16 3.5 39.81999999999999 3.5 40.5 C-3.169583276118871 44.12111213223625 -9.841663192864246 46.37632709733394 -17.5 45.5 C-23.160272055941647 43.294354081487526 -28.086314991770486 40.83659290661515 -31.2890625 35.54296875 C-32.351092765604015 32.8741894696596 -33.01667452878272 30.712918927270806 -33.3125 27.875 C-33.4014453125 27.140234375 -33.490390625 26.405468749999997 -33.58203125 25.6484375 C-33.4816239165696 23.01872162444208 -32.98528067434071 21.673910805171403 -31.5 19.5 C-29.441406249999993 18.12109375 -29.441406249999993 18.12109375 -27.0625 16.9375 C-24.017709853481705 15.40758073362754 -21.81505754011264 13.999209844439783 -19.5 11.5 C-14.814285714285717 7.5 -14.814285714285717 7.5 -12.5 7.5 C-12.5 6.840000000000003 -12.5 6.18 -12.5 5.5 C-8.794193570357947 2.1118341214701175 -5.212680890078644 -1.0425361780157303 0 0 Z " fill="#132E5C" transform="translate(79.5,35.5)"/>
<path d="M0 0 C0.6599999999999966 0.3299999999999983 1.3199999999999932 0.6599999999999966 2 1 C1.8576919208078664 2.4170251289769737 1.7109925421306968 3.8336095981378833 1.5625 5.25 C1.4812890624999966 6.038906249999997 1.4000781249999932 6.827812499999993 1.31640625 7.640625 C1 10.000000000000014 1 10.000000000000014 0.4765625 11.859375 C-0.20448701775772804 14.91851545681341 -0.17092121004554883 17.86992445659901 -0.1875 21 C-0.20167968749998977 22.216875 -0.21585937500000796 23.433750000000003 -0.23046875 24.6875 C-0.0080803902340989 27.88386150985562 0.47633861714103887 29.286863188143315 2 32 C5.121675970997515 43.374606819322196 0.38564002343096604 54.22122768050548 -3 65 C-14.219999999999999 65 -25.439999999999998 65 -37 65 C-37.66 63.349999999999994 -38.32 61.7 -39 60 C-42.948000470201585 54.593635240014194 -47.837876788148755 50.21397813212346 -53 46 C-50.7348364509258 45.227692472258596 -49.438821490163235 44.85817142916076 -47.128173828125 45.60498046875 C-46.49419677734375 45.9390087890625 -45.8602197265625 46.273037109375 -45.20703125 46.6171875 C-44.49353515625 46.9768359375 -43.7800390625 47.336484375 -43.044921875 47.70703125 C-41.57518241140928 48.475976306191825 -40.10640460884807 49.24676271268197 -38.638671875 50.01953125 C-32.14656402314466 53.285927501336346 -26.30501339636035 54.975249854663716 -19.1875 52.875 C-15.249962218687074 50.55880130511005 -13.032175964594899 48.064351929189826 -11 44 C-10.752072080086236 39.372012161609845 -11.047394436324865 35.50508648555797 -12.125 31 C-14.183163763673718 21.099781603934446 -9.0203033935705 13.271850106283893 -4 5 C-2.698648749793236 3.308243374731205 -1.375013590077529 1.6324500551801435 0 0 Z " fill="#436889" transform="translate(100,63)"/>
<path d="M0 0 C1.8065084207450326 4.669241522974062 2.3405327236036264 8.979943789677435 2.5 13.9375 C2.6724478062612143 19.26816601119222 3.362139876525685 23.93452131167419 5 29 C5.931992187500001 29.00515625 6.863984375000001 29.010312499999998 7.82421875 29.015625 C19.62723372847031 29.73168253155532 25.28978149960136 34.29714857889135 33 43 C35.775852395051224 46.184065982558764 36 46.53584214478478 36 51 C24.119999999999997 51 12.239999999999995 51 0 51 C-1.6499999999999986 47.7 -3.3000000000000007 44.400000000000006 -5 41 C-5.7425 39.72125 -6.484999999999999 38.442499999999995 -7.25 37.125 C-10.46174307403156 31.38974451065792 -10.901627385159674 25.750327405756195 -9.36328125 19.3515625 C-8.826943995593663 17.483539087092083 -8.278635565339314 15.618913592192726 -7.71875 13.7578125 C-7.026055603123993 11.099974216334445 -6.738327473966198 8.671617220174355 -6.5625 5.9375 C-6.376874999999998 4.638125000000002 -6.19125 3.3387500000000045 -6 2 C-3.863769048963672 0.6064260258065701 -2.5579618776515503 0 0 0 Z " fill="#5A7894" transform="translate(27,77)"/>
<path d="M0 0 C18.810000000000002 0 37.620000000000005 0 57 0 C57.989999999999995 2.64 58.980000000000004 5.28 60 8 C61.75419998095728 10.947381851163653 61.75419998095728 10.947381851163653 63.6875 13.5 C64.62142578125 14.78390625 64.62142578125 14.78390625 65.57421875 16.09375 C66.0447265625 16.7228125 66.515234375 17.351875 67 18 C66.67 18.66 66.34 19.32 66 20 C65.466328125 19.6738671875 64.93265625 19.347734375 64.3828125 19.01171875 C56.89553979315215 14.620394446156713 48.85886401448715 10.912069331554209 40 12 C35.56503363224135 13.320333498798377 31.156440974212018 14.83300100264689 27.07861328125 17.039794921875 C20.48567553697439 20.440747751925255 14.91911560549697 20.342414381595933 7.625 19.8125 C6.546054687500003 19.75513671875 5.467109375 19.6977734375 4.35546875 19.638671875 C-3.4419642857142847 19.186011904761905 -3.4419642857142847 19.186011904761905 -7 18 C-6.639062500000001 17.3129296875 -6.278124999999999 16.625859375 -5.90625 15.91796875 C-5.442187499999999 15.0169140625 -4.978124999999999 14.115859375 -4.5 13.1875 C-4.035937499999999 12.2941796875 -3.5718749999999986 11.400859375 -3.09375 10.48046875 C-1.7982685897044846 7.994319737307759 -1.7982685897044846 7.994319737307759 -2 5 C-1.3400000000000034 5 -0.6799999999999997 5 0 5 C0 3.3499999999999996 0 1.6999999999999997 0 0 Z " fill="#84ABC3" transform="translate(35,0)"/>
<path d="M0 0 C0.6600000000000001 0 1.3200000000000003 0 2 0 C5.727571752593633 8.286792979869517 4.179931373612018 16.01270789583691 1.68359375 24.4453125 C-0.5476231882684353 32.78368894358604 2.102143255358655 39.69904254029022 6.12109375 47.05078125 C6.473007812500001 47.6527734375 6.824921875000001 48.254765625000005 7.1875 48.875 C8.999999999999996 52 8.999999999999996 52 10 56 C1.0899999999999999 56 -7.82 56 -17 56 C-17 44.45 -17 32.900000000000006 -17 21 C-14.69 20.010000000000005 -12.379999999999999 19.019999999999996 -10 18 C-5.174940275042516 13.316853796364796 -2.110394456561794 6.331183369685377 0 0 Z " fill="#8CA3B2" transform="translate(17,72)"/>
<path d="M0 0 C9.979813584913046 8.078896711596279 13.038516915357178 20.95017063855964 14.503662109375 33.104248046875 C15.047498860863087 38.31236458751624 15.059725884037775 42.87799156048411 14 48 C13.340000000000003 48.66 12.680000000000007 49.32 12 50 C11 47 11 47 11.125 43.0625 C11.231818352794747 32.11361883853844 7.305510586137302 19.522302867972115 -0.2421875 11.38671875 C-4.165975926243078 8.291285658186013 -8.28600933828102 7.867250456763745 -13.15625 8.10546875 C-20.50851231405872 9.663828697001577 -24.825246526644634 15.726417215912495 -29.49609375 21.1640625 C-32 24 -32 24 -34 25 C-39.404864575063506 25.33051330135281 -44.69264004842399 25.117338937173898 -50 24 C-48.63312778381533 20.01328936946139 -46.84804907312757 17.115053673733282 -44 14 C-43.34 14 -42.68 14 -42 14 C-42 13.34 -42 12.68 -42 12 C-41.34 12 -40.68 12 -40 12 C-40 11.34 -40 10.68 -40 10 C-39.34 10 -38.68 10 -38 10 C-37.62850830078125 9.075137939453125 -37.62850830078125 9.075137939453125 -37.24951171875 8.131591796875 C-35.751975811545854 5.576885660532795 -34.69888059100186 5.048061783511116 -32.0078125 3.89453125 C-31.220195312499996 3.550996093750001 -30.432578125 3.2074609374999987 -29.62109375 2.853515625 C-28.797382812500004 2.509980468750001 -27.973671875 2.1664453124999987 -27.125 1.8125 C-26.309023437500002 1.4573632812500001 -25.493046875000005 1.1022265625000003 -24.65234375 0.736328125 C-15.905114210059992 -3.0236963183510497 -8.934302721093445 -4.798051461327962 0 0 Z " fill="#596D84" transform="translate(89,14)"/>
<path d="M0 0 C0.5426953125000011 0.409921875000002 1.0853906250000023 0.8198437499999969 1.64453125 1.2421875 C2.3599609375000057 1.781015625000002 3.075390624999997 2.319843749999997 3.8125 2.875 C4.520195312499993 3.408671875000003 5.227890625000001 3.942343749999999 5.95703125 4.4921875 C9.59145159362312 7.174570392234273 11.375839411666448 8.07516788233329 16 9 C16 25.17 16 41.34 16 58 C7.890620328032924 56.986327541004115 4.7898315556469555 56.317637525634225 -0.3125 50.25 C-3.729602671634211 43.66891337314891 -3.180085166800538 38.18799946739858 -1.0625 31.3125 C1.8645729023689057 20.787833498586117 1.3619816821595094 10.77424794994041 0 0 Z " fill="#A2BECE" transform="translate(112,37)"/>
<path d="M0 0 C6.931088273936709 1.2259893444266314 11.908753881413233 3.227377329776644 16.25390625 8.98828125 C25.341294159074863 23.3792159835836 26.81125701164737 38.737917615781924 23.3125 55.1875 C21.751669631570024 62.028949899578066 19.478813701905807 67.8888839303188 16 74 C14.942024004549381 76.31327291068766 13.97125131117241 78.64854945716155 13 81 C12.340000000000003 80.67 11.680000000000007 80.34 11 80 C8.030413269231829 71.09123980769547 10.169035703329598 61.423471120645104 12.0625 52.5 C15.42379072848226 36.337841793108254 13.72896191761177 20.35316187035872 5 6 C3.4292518235193086 3.860016108336943 1.8021206573048545 1.9565881422166918 0 0 Z " fill="#718E9F" transform="translate(89,14)"/>
</svg>
