<?xml version="1.0" encoding="UTF-8"?>
<!-- Generator: visioncortex VTracer 0.6.0 -->
<svg version="1.1" xmlns="http://www.w3.org/2000/svg" width="128" height="128">
<path d="M0 0 C42.24 0 84.48 0 128 0 C128 42.24 128 84.48 128 128 C85.75999999999999 128 43.519999999999996 128 0 128 C0 85.75999999999999 0 43.519999999999996 0 0 Z " fill="#477DC5" transform="translate(0,0)"/>
<path d="M0 0 C10.89 0 21.78 0 33 0 C34.32 4.62 35.64 9.24 37 14 C38.48073738928143 17.465489534449112 38.48073738928143 17.465489534449112 40.05078125 20.890625 C41.66928248303549 24.487294406745534 42.82634401465153 28.238966046951504 44 32 C46.64752004360481 29.422151536490055 48.94432065120997 27.083519023185044 51 24 C56.29049698548008 20.29665211016394 59.56135679460623 19.28459519940069 66 20 C70.77081900944627 21.81291122358958 74.29665236957392 24.561177200318635 78 28 C78 28.66 78 29.32 78 30 C78.66 30 79.32 30 80 30 C81.9104692197435 33.82093843948701 81.48665107035279 38.256415797018235 80.36328125 42.28125 C79.8273704620066 43.80794219603972 79.28959511998333 45.33398110312403 78.75 46.859375 C75.26090538418049 56.817832549318204 79.57264512548811 64.89336637356409 83.75 74 C86.32244759422083 80.06874633683057 87.00035480547618 85.47341330796122 86 92 C83.48556045397054 98.17180615843597 77.85420105819937 101.24393205607309 72 104 C71.01 104 70.02 104 69 104 C70.485 105.97999999999999 70.485 105.97999999999999 72 108 C67.82989012472731 109.58024401326244 64.52691826467431 110.21547856937154 60.078125 110.0546875 C58.96953125 110.0301953125 57.8609375 110.005703125 56.71875 109.98046875 C54.42160832303871 109.91062322603834 52.1246992908164 109.83260853492801 49.828125 109.74609375 C43.068452154314365 109.61309092780479 38.163591007330055 110.20183390086835 32.1123046875 113.32470703125 C30.000000000000007 114 30.000000000000007 114 27.8916015625 113.25732421875 C24.254824322047305 110.84000326000822 21.447246417677405 108.58361741769448 20.234375 104.2890625 C19.950575990711574 100.30641640298575 20.77064993573691 97.43592445230706 21.9375 93.625 C24.252290006791714 85.53012423220159 25.522003785100104 79.49273023622679 21.2734375 71.82421875 C15.999541529441949 64.26928188420058 8.829687956049312 62.76593759120986 0 61 C0 40.87 0 20.739999999999995 0 0 Z " fill="#7B7A8C" transform="translate(0,0)"/>
<path d="M0 0 C8.99296930071291 0.8992969300712943 13.96368663698366 1.488826241334678 19.79296875 8.00390625 C24.051478891830246 13.496473962621906 25.811036600257367 17.95022032083982 25 25 C24.020387951581732 28.844359887490185 22.938858936671398 32.6205617219823 21.77734375 36.4140625 C20.74426955147081 41.17970126507434 21.48229168974582 44.446875069237464 23 49 C26.24408390415153 50.94645034249092 29.188814739267364 52 33 52 C33.495 51.010000000000005 33.495 51.010000000000005 34 50 C39.252906772705956 47.887260636873094 43.82974353738081 47.91804058217639 49.43994140625 48.1298828125 C65.49810136894526 48.73547952426193 80.10591615012557 46.329450771461254 94 38 C94.99 37.67 95.98 37.34 97 37 C97.89030821650532 34.74129383368785 97.89030821650532 34.74129383368785 98.4375 32 C102.01880755258935 17.98381663428232 102.01880755258935 17.98381663428232 108.0625 13.75 C121.1379189944134 6 121.1379189944134 6 128 6 C128 26.129999999999995 128 46.260000000000005 128 67 C85.75999999999999 67 43.519999999999996 67 0 67 C0 44.89 0 22.78 0 0 Z " fill="#3D3A83" transform="translate(0,61)"/>
<path d="M0 0 C3.2764910406594367 2.065613916937469 6.034789797191664 4.175161954535113 8.875 6.8125 C8.875 7.4725 8.875 8.1325 8.875 8.8125 C9.534999999999997 8.8125 10.194999999999993 8.8125 10.875 8.8125 C12.785469219743504 12.633438439487009 12.361651070352792 17.068915797018235 11.23828125 21.09375 C10.702370462006598 22.62044219603972 10.164595119983346 24.14648110312403 9.625 25.671875 C6.135905384180489 35.6303325493182 10.447645125488123 43.70586637356409 14.625 52.8125 C17.19744759422082 58.88124633683056 17.875354805476178 64.28591330796122 16.875 70.8125 C14.336714972565971 77.04283597642896 8.813394596291886 80.11879523467172 2.875 82.8125 C-3.3092405978975847 84.64637694830571 -8.443604733208005 83.86033183583112 -14.125 80.8125 C-24.808506439551316 74.7485199418363 -24.808506439551316 74.7485199418363 -28.25 69.6875 C-30.41984491132125 60.07818682129161 -31.48681156464923 50.66181481545135 -31.125 40.8125 C-31.784999999999997 40.8125 -32.445 40.8125 -33.125 40.8125 C-34.59765625 39.38671875 -34.59765625 39.38671875 -36.1875 37.5 C-36.7147265625 36.8851171875 -37.241953125 36.270234375 -37.78515625 35.63671875 C-40.54826068772805 31.874707751693876 -40.20988716715591 28.31151985926344 -40.125 23.8125 C-39.521718750000005 23.509570312500003 -38.918437499999996 23.206640625 -38.296875 22.89453125 C-33.50147121576569 20.38081152439331 -30.268857874789703 18.31869628719857 -27.125 13.8125 C-25.927917847231043 12.427693600546817 -24.71858939946769 11.053418855550873 -23.5 9.6875 C-21.496541378497383 7.439077005562563 -19.803279115984807 5.3299186739772075 -18.125 2.8125 C-12.004593083376683 -1.471784841636321 -7.285409181870264 -2.7684554891107 0 0 Z " fill="#6797C4" transform="translate(69.125,21.1875)"/>
<path d="M0 0 C16.83 0 33.66 0 51 0 C51 10.56 51 21.12 51 32 C48.36 31.67 45.72 31.34 43 31 C40.290579134650926 31.17039009679485 40.290579134650926 31.17039009679485 37.875 31.75 C37.088671875 31.90984375 36.302343750000006 32.0696875 35.4921875 32.234375 C32.86576869190924 32.94941066624744 32.86576869190924 32.94941066624744 30.1640625 34.5546875 C26.39013788511906 36.27857899074809 23.63447724467298 36.40021022710167 19.5 36.375 C18.231562499999995 36.382734375 16.96312499999999 36.39046875 15.65625 36.3984375 C11.738249745409547 35.97147593379463 9.325937636965762 35.08360210786385 6 33 C3.9881885598538247 29.98228283978073 3.536816519787891 28.412711189672727 2.9296875 24.921875 C2.668652343749997 23.42720703125 2.668652343749997 23.42720703125 2.40234375 21.90234375 C2.228320312500003 20.8620703125 2.0542968750000057 19.821796875 1.875 18.75 C1.6932421875000045 17.7251953125 1.5114843749999949 16.700390625 1.32421875 15.64453125 C0.39752653801558324 10.230697801038426 0 5.579596538942972 0 0 Z " fill="#455895" transform="translate(77,0)"/>
<path d="M0 0 C8.99296930071291 0.8992969300712943 13.96368663698366 1.488826241334678 19.79296875 8.00390625 C24.051478891830246 13.496473962621906 25.811036600257367 17.95022032083982 25 25 C24.020387951581732 28.844359887490185 22.938858936671398 32.6205617219823 21.77734375 36.4140625 C20.74426955147081 41.17970126507434 21.48229168974582 44.446875069237464 23 49 C23.639375 49.309375 24.27875 49.618750000000006 24.9375 49.9375 C27 51 27 51 29 55 C28.01 58.96000000000001 27.02 62.92 26 67 C17.42 67 8.84 67 0 67 C0 44.89 0 22.78 0 0 Z " fill="#433F59" transform="translate(0,61)"/>
<path d="M0 0 C10.89 0 21.78 0 33 0 C34.32 4.62 35.64 9.24 37 14 C38.524383869958854 17.504831759093143 38.524383869958854 17.504831759093143 40.11328125 20.98046875 C42.388013968707874 26.161247673224533 44.02376159269767 31.523939219759257 42 37 C38.34011537872926 41.20283453761311 34.45207171760625 43.670226410339936 29 45 C26.699489994320658 42.18252145371856 25.409408850280773 39.68447527347323 24.25 36.25 C21.88718839083386 30.213685058847254 18.721690597632566 24.867329080345257 12.7578125 21.875 C8.523951467373802 20.39243586736322 4.45767444666194 19.742945741110322 0 19 C0 12.73 0 6.459999999999999 0 0 Z " fill="#556796" transform="translate(0,0)"/>
<path d="M0 0 C5.501641053262659 3.766981840573493 10.062966326917177 9.051130777453949 12.09375 15.43359375 C12.84992450859282 21.080351444037305 12.311495292363716 25.60697581145442 9.09375 30.43359375 C5.194383015945576 34.33296073405441 0.5016732549572751 35.43040021783162 -4.8515625 35.4375 C-10.367484700326244 35.10546045722852 -14.331194413731708 34.75510007441119 -18.90625 31.43359375 C-24.242114086524147 22.540486939126424 -24.32587867684341 10.551307402779912 -23.90625 0.43359375 C-22.03758237535812 -0.2709362767662711 -20.160935842388227 -0.9543231313813507 -18.28125 -1.62890625 C-17.237109375000003 -2.011757812500001 -16.19296875 -2.3946093750000017 -15.1171875 -2.7890625 C-9.537760329186526 -4.13979973478331 -4.94391428087863 -2.595554997461285 0 0 Z " fill="#9EC3DA" transform="translate(61.90625,62.56640625)"/>
<path d="M0 0 C14.520000000000003 0 29.040000000000006 0 44 0 C44.845625 4.8881250000000005 45.69125 9.776250000000001 46.5625 14.8125 C46.83263916015625 16.35139892578125 47.102778320312495 17.8902978515625 47.381103515625 19.475830078125 C47.58662841796874 20.68650146484375 47.79215332031251 21.8971728515625 48.00390625 23.14453125 C48.21861572265625 24.38565673828125 48.433325195312506 25.6267822265625 48.654541015625 26.905517578125 C49 29.999999999999993 49 29.999999999999993 48 33 C47.67 32.01 47.34 31.02 47 30 C46.34 30 45.68000000000001 30 45 30 C43.33333333333334 28.333333333333332 41.66666666666666 26.666666666666668 40 25 C34.911522208513645 21.6865726008926 31.14936134942711 20.22018968394946 25 21 C19.79331820503701 22.77112536468003 16.94852869270418 25.894496832771647 14.140625 30.51171875 C13 32 13 32 10 33 C9.61328125 31.816640625 9.2265625 30.63328125 8.828125 29.4140625 C8.302847904700798 27.817456589432993 7.77675249931746 26.221119752702247 7.25 24.625 C6.842736816406251 23.390037841796875 6.842736816406251 23.390037841796875 6.42724609375 22.130126953125 C4.7175075267528825 16.999394630104963 2.8772639812810894 11.982186689932185 0.6640625 7.04296875 C0 5 0 5 0 0 Z " fill="#6D7AB5" transform="translate(33,0)"/>
<path d="M0 0 C0 11.549999999999997 0 23.1 0 35 C-3.6299999999999955 36.31999999999999 -7.260000000000005 37.64 -11 39 C-13.028755550133639 39.91810581030353 -15.0383112764695 40.88367614703198 -17 41.9375 C-17.886875000000003 42.400273437500005 -18.773750000000007 42.86304687500001 -19.6875 43.33984375 C-24.658994162586524 46.90890628226228 -26.180221108406684 52.766462766190315 -28.1875 58.3125 C-28.460136718749993 59.05306640625 -28.7327734375 59.79363281249999 -29.013671875 60.556640625 C-29.680312025142356 62.369434015737994 -30.340785412138118 64.18449315770079 -31 66 C-31.659999999999997 65.67 -32.31999999999999 65.34 -33 65 C-30.44071863202663 37.90172669204671 -30.44071863202663 37.90172669204671 -23.37109375 28.15234375 C-20.304687517839696 23.338697499514744 -19.643342395405256 18.783288022973707 -20.75 13.25 C-21.162499999999994 12.177500000000002 -21.575000000000003 11.105000000000004 -22 10 C-22.33 9.051249999999996 -22.659999999999997 8.1025 -23 7.125 C-23.80858599401526 4.837843575240903 -23.80858599401526 4.837843575240903 -26 4 C-16.221778719216942 -0.7918588916676477 -10.987540930190349 -2.746885232547587 0 0 Z " fill="#6266B0" transform="translate(128,32)"/>
<path d="M0 0 C0 7.590000000000003 0 15.180000000000007 0 23 C-20.129999999999995 23 -40.260000000000005 23 -61 23 C-59.91979984391702 17.598999219585096 -59.417606193823985 16.650063036775165 -55.37890625 13.484375 C-46.498711267325604 7.943366636426489 -37.31014233302355 6.629685304355704 -27.13134765625 5.884521484375 C-20.08877343041044 5.264792028858096 -14.459029794888835 3.154108339709026 -8.1015625 0.14453125 C-5 -1 -5 -1 0 0 Z " fill="#14216B" transform="translate(128,105)"/>
<path d="M0 0 C1.1316943788547036 3.395083136564125 0.9795955605189732 3.808418878601799 -0.5 6.875 C-3.8501868299395596 13.096775541316333 -8.617175926386281 15.557561403683223 -15.0625 18 C-19.617905358612916 19.726477829976588 -22.589338652412266 21.504072118722576 -26 25 C-26.659999999999997 26.650000000000006 -27.319999999999993 28.299999999999997 -28 30 C-41.53 30 -55.06 30 -69 30 C-67 18 -67 18 -65 15 C-64.00999999999999 15 -63.019999999999996 15 -62 15 C-61.67 14.340000000000003 -61.34 13.680000000000007 -61 13 C-55.747093227294044 10.88726063687308 -51.17025646261921 10.918040582176388 -45.56005859375 11.1298828125 C-29.70259571850268 11.727910693430687 -14.646146149772122 9.524364261537443 -1 1 C-0.6700000000000017 0.6700000000000017 -0.3400000000000034 0.3400000000000034 0 0 Z " fill="#2C4C8F" transform="translate(95,98)"/>
<path d="M0 0 C0.7644140624999949 0.17144531249999773 1.528828125000004 0.34289062500000256 2.31640625 0.51953125 C4.4375 1.1875 4.4375 1.1875 7.4375 3.1875 C8.6484375 6.2421875 8.6484375 6.2421875 9.8125 10.0625 C11.344960161894917 15.012932768827142 13.04980764710487 19.669206157405597 15.25 24.375 C17.803345082846278 30.362432615155342 18.424814352101322 35.74599277075643 17.4375 42.1875 C14.899214972565986 48.41783597642895 9.375894596291886 51.49379523467172 3.4375 54.1875 C-2.8221617277837083 56.043742357497635 -7.832913707145906 55.15439269252613 -13.5625 52.1875 C-15.694197817933834 50.95575136746254 -17.585318460573525 49.670386154569854 -19.5625 48.1875 C-19.5625 47.8575 -19.5625 47.5275 -19.5625 47.1875 C-18.86125 47.2223046875 -18.159999999999997 47.257109375 -17.4375 47.29296875 C-9.96889927514632 47.50606741198632 -4.120121748262392 47.10657425498454 1.875 42.1875 C5.146580743020024 37.999876648934375 5.00698022948535 33.263302045412956 4.4375 28.1875 C2.5100672388041545 21.521283507456403 -1.952150822718096 17.05501819376326 -7.5625 13.1875 C-10.494769049054582 11.646353941659683 -13.459576383399508 10.343913662668243 -16.5625 9.1875 C-14.23492921935133 4.777365889297251 -11.542818328477587 1.236820411484814 -6.6875 -0.47265625 C-4.201753229511311 -0.8701929577803611 -2.4447774215338995 -0.5749984121712544 0 0 Z " fill="#72ACE0" transform="translate(68.5625,49.8125)"/>
<path d="M0 0 C11.879999999999995 0 23.760000000000005 0 36 0 C36 10.56 36 21.12 36 32 C30.48567829445642 31.080946382409405 29.131129596976592 30.806520767922123 25.125 27.5625 C24.343828125 26.9450390625 23.562656250000003 26.327578125 22.7578125 25.69140625 C22.177734375 25.1332421875 21.59765625 24.575078125 21 24 C21 23.34 21 22.68 21 22 C20.340000000000003 22 19.680000000000007 22 19 22 C19 21.34 19 20.68 19 20 C18.216250000000002 19.690625 17.432500000000005 19.38125 16.625 19.0625 C14 18 14 18 12 17 C12 16.34 12 15.68 12 15 C11.463750000000005 14.773125 10.927499999999995 14.54625 10.375 14.3125 C5.992831038912485 11.89077504782006 1.5911820037941595 8.932664211761894 0 4 C0 2.6799999999999997 0 1.3599999999999999 0 0 Z " fill="#323E92" transform="translate(92,0)"/>
<path d="M0 0 C1.7088400528367202 1.6233980501948793 3.374467169686099 3.293190528170399 5 5 C5 5.659999999999997 5 6.319999999999993 5 7 C5.66 7 6.32 7 7 7 C7 7.659999999999997 7 8.319999999999993 7 9 C7.639375000000001 9.247500000000002 8.278750000000002 9.495000000000005 8.9375 9.75 C9.948125000000005 10.162499999999994 10.958750000000002 10.575000000000003 12 11 C12.654843749999998 11.256523437499993 13.309687499999995 11.513046875 13.984375 11.77734375 C18.38618126522902 13.595820451770152 21.972284348053556 15.650894765816886 25.75 18.5625 C30.65171331543469 22.171453759715646 35.26401485305419 23.303888056528706 41.21484375 24.296875 C44.11296480356978 25.028518463734315 45.179089051749315 25.6905519680723 47 28 C42.829890124727314 29.580244013262444 39.52691826467431 30.215478569371527 35.078125 30.0546875 C33.96953125 30.0301953125 32.8609375 30.005703124999997 31.71875 29.98046875 C29.42160832303871 29.91062322603834 27.1246992908164 29.832608534928013 24.828125 29.74609375 C18.06845215431437 29.61309092780479 13.16359100733004 30.201833900868365 7.1123046875 33.32470703125 C4.999999999999993 34 4.999999999999993 34 2.8916015625 33.25732421875 C-0.6397114090263933 30.910104058274925 -3.477783395189327 28.63320683269221 -4.796875 24.5078125 C-5.089826151278384 19.44877146446177 -3.8274746980753456 14.99994165629036 -2.5625 10.125 C-2.3195117187500003 9.150468750000002 -2.0765234375000006 8.175937500000003 -1.826171875 7.171875 C-1.227809974595182 4.778427398380728 -0.6188491658752895 2.3882168838354403 0 0 Z " fill="#536B95" transform="translate(25,80)"/>
<path d="M0 0 C1.5000000000000036 1.375 1.5000000000000036 1.375 3 3 C3 3.6599999999999966 3 4.319999999999993 3 5 C3.9281250000000014 5.371250000000003 3.9281250000000014 5.371250000000003 4.875 5.75 C7 7 7 7 9 11 C8.010000000000002 14.960000000000008 7.02 18.92 6 23 C-2.5799999999999983 23 -11.16 23 -20 23 C-20 16.730000000000004 -20 10.459999999999994 -20 4 C-17.834375 3.8453125000000057 -17.834375 3.8453125000000057 -15.625 3.6875 C-10.16247744127061 3.1568549514377224 -5.184050416596772 1.753753226040189 0 0 Z " fill="#1F3860" transform="translate(20,105)"/>
</svg>
