<?xml version="1.0" encoding="UTF-8"?>
<!-- Generator: visioncortex VTracer 0.6.0 -->
<svg version="1.1" xmlns="http://www.w3.org/2000/svg" width="128" height="128">
<path d="M0 0 C42.24 0 84.48 0 128 0 C128 42.24 128 84.48 128 128 C85.75999999999999 128 43.519999999999996 128 0 128 C0 85.75999999999999 0 43.519999999999996 0 0 Z " fill="#9C7969" transform="translate(0,0)"/>
<path d="M0 0 C9.746476988299548 -0.5683008777820735 16.071433573738062 1.4382344532352285 24.01953125 7.3046875 C24.919296875 7.953085937499999 25.8190625 8.601484374999998 26.74609375 9.26953125 C28.552639749292638 10.584092820090461 30.35217623418555 11.908341906835751 32.14453125 13.2421875 C35.34413679256639 15.537556693580235 38.61271136944846 17.66580270564829 41.95703125 19.7421875 C43.54837890625001 20.73025390625 43.54837890625001 20.73025390625 45.171875 21.73828125 C48.096134915003546 23.504511018280795 48.096134915003546 23.504511018280795 52.01953125 24.3046875 C52.01953125 47.7346875 52.01953125 71.1646875 52.01953125 95.3046875 C50.369531249999994 95.6346875 48.71953125 95.9646875 47.01953125 96.3046875 C45.44480103622733 96.96369224492335 43.8821996014353 97.65231647512323 42.33203125 98.3671875 C37.136338612766565 100.46708110672733 32.57814788553887 101.36000587925125 27.01953125 100.3046875 C15.965669532031797 95.58114589022024 9.202944567177497 85.01208469947824 4.15234375 74.625 C0.8042205216635665 67.76712000816607 -3.198944858518246 63.75856007417261 -9.98046875 60.3046875 C-12.305421524876387 59.91719537085393 -14.638981433180703 59.57485911347915 -16.98046875 59.3046875 C-21.08327633808316 56.74043275744802 -24.035934869240066 53.11439969677544 -27.13671875 49.44921875 C-28.36861186813543 48.01636001725349 -29.640600227851074 46.61705054390513 -30.94921875 45.25390625 C-33.93193369055632 42.106164048388315 -35.78315993054497 39.9294987616076 -37.10546875 35.7421875 C-36.98321364665902 32.380172158123024 -36.29417420759192 30.363956924574914 -34.80078125 27.390625 C-33.74351331379563 24.702143676508896 -33.43132587824705 22.10190817163739 -33.04296875 19.2421875 C-32.09164878239101 12.996226073321303 -30.217881918267103 9.424342080463568 -25.60546875 5.0546875 C-17.92652677321223 -0.06460715119184712 -8.85335048473054 0.6776853167899723 0 0 Z " fill="#7A456E" transform="translate(75.98046875,10.6953125)"/>
<path d="M0 0 C42.24 0 84.48 0 128 0 C128 11.55 128 23.1 128 35 C122.74829987435368 34.12471664572561 121.12513476341877 33.79005904445385 117.06640625 31.015625 C116.16986328125 30.409765625 115.2733203125 29.80390625 114.349609375 29.1796875 C113.42986328125 28.542890625 112.5101171875 27.90609375 111.5625 27.25 C110.64662109375 26.628671875 109.7307421875 26.00734375 108.787109375 25.3671875 C104.88639790487079 22.712575530378682 101.0199741457371 20.02417656521752 97.21484375 17.234375 C91.3945941999192 13.189195482811392 87.58941546821698 11.607955998645144 80.4375 11.75 C79.392392578125 11.769698486328124 79.392392578125 11.769698486328124 78.326171875 11.789794921875 C76.21618554965724 11.839082432893148 74.10883396422943 11.915285728558409 72 12 C70.19208984375001 12.06380859375 70.19208984375001 12.06380859375 68.34765625 12.12890625 C57.1597071716221 12.72690477483126 57.1597071716221 12.72690477483126 48.125 18.8125 C44.58183224739518 24.127251628907235 43.67029068972084 29.503575623625075 42.5078125 35.67578125 C42 38.00000000000001 42 38.00000000000001 40.875 40.75 C39.79081630185645 43.04742493938252 39.79081630185645 43.04742493938252 40.25 45.875 C39.887915952024045 50.40105059969946 37.36039327042142 53.05747946786933 34 56 C33.34 56 32.68 56 32 56 C31.7525 56.680625 31.505 57.36125 31.25 58.0625 C29.75802092289606 61.56865083119427 27.931644892467936 64.7162036828045 26 68 C23.540939429031507 65.08555784181512 21.53630483936387 62.193053718328535 19.6875 58.875 C17.10584776842356 54.72088686373609 14.79938023515014 53.33753219668119 10 52 C6.699999999999999 51.67 3.3999999999999995 51.34 0 51 C0 34.17 0 17.339999999999996 0 0 Z " fill="#BD879C" transform="translate(0,0)"/>
<path d="M0 0 C0.580078125 0.5272265625000045 1.16015625 1.0544531249999949 1.7578125 1.59765625 C2.3533593749999966 2.122304687500005 2.9489062500000003 2.646953124999996 3.5625 3.1875 C4.8828125 4.66015625 4.8828125 4.66015625 4.8828125 6.66015625 C5.419062500000003 6.928281249999998 5.955312499999998 7.1964062499999955 6.5078125 7.47265625 C9.29947916666665 8.868489583333329 12.091145833333343 10.264322916666671 14.8828125 11.66015625 C14.387812500000003 7.205156250000002 14.387812500000003 7.205156250000002 13.8828125 2.66015625 C25.57878260671788 2.079657733673926 31.573551390781276 4.11849249286351 40.48828125 11.72265625 C46.11538996662124 16.275749110430894 50.76872471859497 18.051605624896183 58.03515625 18.02734375 C63.11146845585826 17.372784974484674 67.83799839450663 15.494972550066677 72.625 13.75390625 C75.8828125 12.66015625 75.8828125 12.66015625 78.8828125 12.66015625 C78.8828125 18.27015625 78.8828125 23.88015625 78.8828125 29.66015625 C36.64281249999999 29.66015625 -5.597187500000004 29.66015625 -49.1171875 29.66015625 C-49.1171875 21.41015625 -49.1171875 13.16015625 -49.1171875 4.66015625 C-45.559375 4.536406249999999 -45.559375 4.536406249999999 -41.9296875 4.41015625 C-35.28930284791707 4.076070156166253 -29.54007723181784 2.8026212021963772 -23.22265625 0.65234375 C-16.019074626424505 -1.6491779259599753 -6.866881645933553 -4.345646502869386 0 0 Z " fill="#A39688" transform="translate(49.1171875,98.33984375)"/>
<path d="M0 0 C6.6219138552410755 2.328460274999003 10.92012083243847 6.801293494109512 15.671875 11.77734375 C19.987534846281534 15.897495515996965 25.07261248504929 19.58180178357847 31.0625 20.4375 C37.31708370786687 21.635186241931954 42.453561806095564 26.899884121146968 46 32 C41.25 36 41.25 36 39 36 C38.3122559461753 37.32258471889365 37.65288626834652 38.65986502813083 37 40 C36.471484375 41.03640625 35.942968750000006 42.0728125 35.3984375 43.140625 C33.62437635451387 47.299614052647456 33.91135107003325 50.77530621720791 34.4375 55.1875 C35.40359808081314 63.834477037360486 35.40359808081314 63.834477037360486 33 67 C29.284171398838865 68.45007945411166 26.570951892013852 68.11254445950519 22.9375 66.75 C17.922838222858516 64.33146160495369 13.965455090423205 60.7919695169125 9.816162109375 57.14501953125 C6.669574826314204 54.382094677613736 3.5374234539182794 51.8889510105077 0 49.625 C-10.738935442339567 42.70044053444771 -15.994658026885176 31.89721928984642 -19.2734375 19.85546875 C-20.282825815846017 14.499198493333246 -19.88235802082547 10.651906932344907 -17 6 C-12.075610177014894 0.42766414767474714 -7.185243219288168 -0.9557835268223691 0 0 Z " fill="#583D3E" transform="translate(70,24)"/>
<path d="M0 0 C8.91 0 17.82 0 27 0 C26.323217502560826 4.0606949846350355 25.873787246158745 6.600251177468253 24.4375 10.1875 C21.246695199766304 19.601953767026153 22.9179850780226 27.21301205550246 27 36 C27.33 36.99 27.66 37.98 28 39 C28.66 39 29.32 39 30 39 C30.8971875 39.9590625 30.8971875 39.9590625 31.8125 40.9375 C34.267001810497916 43.251744564183745 35.70523261369729 43.63391473485525 39 44 C39.875 46.06250000000001 39.875 46.06250000000001 40 49 C38.32045192433491 51.647886868475254 36.3560296344687 53.93027270085914 34 56 C33.34 56 32.68 56 32 56 C31.7525 56.680625 31.505 57.36125 31.25 58.0625 C29.75802092289606 61.56865083119427 27.931644892467936 64.7162036828045 26 68 C23.540939429031507 65.08555784181512 21.53630483936387 62.193053718328535 19.6875 58.875 C17.10584776842356 54.72088686373609 14.79938023515014 53.33753219668119 10 52 C6.699999999999999 51.67 3.3999999999999995 51.34 0 51 C0 34.17 0 17.339999999999996 0 0 Z " fill="#A08175" transform="translate(0,0)"/>
<path d="M0 0 C11.827586206896552 0 11.827586206896552 0 17 3 C25.50808376204371 12.569521112474114 30.671696642430256 25.42054732051045 30.28125 38.19140625 C29.878205297042722 42.21625543647616 29.189902371237796 44.56915295172746 27 48 C18.57554529585017 53.49420958966293 10.11015386474263 52 0 52 C0 34.84 0 17.680000000000007 0 0 Z " fill="#747C7A" transform="translate(0,51)"/>
<path d="M0 0 C0.6599999999999966 0.3299999999999983 1.3199999999999932 0.6599999999999966 2 1 C1.5668750000000102 1.5452734375000006 1.133749999999992 2.090546875000001 0.6875 2.65234375 C-3.5697539328452876 8.41737511739467 -4.6800947742284364 11.859004870601424 -4 19 C-3.421210937500007 19.277148437500003 -2.8424218749999994 19.554296875000006 -2.24609375 19.83984375 C0.6141831440613146 21.317238945715147 3.2302094943517403 23.088629422657135 5.90234375 24.87890625 C8.360797844369642 26.3228329417219 8.360797844369642 26.3228329417219 13 27 C13 34.59 13 42.18000000000001 13 50 C10.525000000000006 50.495000000000005 10.525000000000006 50.495000000000005 8 51 C6.425269786227332 51.65900474492335 4.862668351435303 52.34762897512323 3.3125 53.0625 C-1.8831926372334635 55.162393606727335 -6.441383364461117 56.05531837925125 -12 55 C-23.75086378019695 49.978615127201294 -31.00498595083188 38.20395581546474 -36 27 C-36.33 26.010000000000005 -36.66 25.019999999999996 -37 24 C-33.800243381110505 25.44785367370565 -31.324581542522253 27.2645570384728 -28.625 29.5 C-24.00781582121779 33.1272478000253 -20.658372572305012 35.295374730256114 -14.625 34.625 C-13.758749999999992 34.41875 -12.892499999999998 34.212500000000006 -12 34 C-11.190371198428508 29.23218594630123 -11.007626811615893 25.24371707946341 -11.625 20.4375 C-12.174551402813407 15.209530733761952 -11.708680236500129 12.514467060833567 -9 8 C-6.2641265368008305 4.913373528698372 -3.369397095309793 2.371057215218002 0 0 Z " fill="#62565F" transform="translate(115,56)"/>
<path d="M0 0 C6.611684231486635 2.324863237486724 10.924080872805618 6.781979438052581 15.6484375 11.7734375 C19.326950990929305 15.256415390082573 23.548921819246573 17.63042810836717 28 20 C26.702798527246358 25.07087848440063 25.14272009627865 27.768678324902652 21 31 C6.571742274177211 38.00688302690437 6.571742274177211 38.00688302690437 -1.4921875 36.05078125 C-9.523623783164744 32.68558442730325 -16.548394937742472 24.480058374458004 -20.0625 16.625 C-19.959001876753376 12.278078823641664 -18.211175896481535 8.696809701930071 -16 5 C-10.908557038875472 0.15100670369092484 -6.88291434211267 -0.9155676354922946 0 0 Z " fill="#2D132B" transform="translate(70,24)"/>
<path d="M0 0 C4.02716772006157 1.9051375677147178 7.522170984996848 3.989845897377819 11.0625 6.6875 C15.254820098996191 9.788668292408143 19.509512830012937 12.689851449996695 23.9375 15.4375 C25.528847656250008 16.42556640625 25.528847656250008 16.42556640625 27.15234375 17.43359375 C30.076603665003518 19.199823518280795 30.076603665003518 19.199823518280795 34 20 C34 35.84 34 51.68000000000001 34 68 C26.49512342570968 66.92787477510139 22.300141857502723 65.34014292812539 17 60 C15.420412876365845 56.829295919712465 15.228375044610544 54.446591467406265 16 51 C17.67232077822875 47.71027046909627 19.67074214194504 44.85587267813695 22 42 C18.614814847533026 37.66001903529875 16.000526520210826 34.892754951454386 11.125 32.3125 C8.7734375 30.8359375 8.7734375 30.8359375 7 29 C6.537444627402536 25.997924934710568 6.758648988958953 23.332532724907324 7.0078125 20.30859375 C6.990822743361363 13.113431813536916 3.2432074664797597 6.304552832035412 0 0 Z " fill="#8F5159" transform="translate(94,15)"/>
<path d="M0 0 C15.510000000000005 0 31.02000000000001 0 47 0 C47 11.55 47 23.1 47 35 C41.74829987435368 34.12471664572561 40.12513476341876 33.790059044453834 36.06640625 31.015625 C35.16986328125 30.409765625 34.273320312500005 29.80390625 33.349609375 29.1796875 C32.42986328124999 28.542890625 31.5101171875 27.90609375 30.5625 27.25 C29.64662109375 26.628671875 28.7307421875 26.00734375 27.787109375 25.3671875 C23.8631052697084 22.696723830354316 19.971689599866863 19.99061234760016 16.1328125 17.19921875 C13.560789579299552 15.393671487712782 11.121711577963211 13.939366715949657 8.3125 12.5625 C4.2692892158917175 10.368402680296185 2.064425517715165 8.218608666635335 0 4 C0 2.6799999999999997 0 1.3599999999999999 0 0 Z " fill="#D07071" transform="translate(81,0)"/>
<path d="M0 0 C1.9375 2.125 1.9375 2.125 3 5 C2.2412906622739968 9.00046741710075 1.259623522632154 11.610564716051769 -1 15 C-1.6599999999999966 15 -2.3200000000000003 15 -3 15 C-3.266835937499998 15.576210937500008 -3.533671875000003 16.152421875 -3.80859375 16.74609375 C-5.427249291412259 19.808271610311067 -7.526762939112107 22.380057435886073 -9.66015625 25.09765625 C-11.18085276766709 27.062995804303767 -11.18085276766709 27.062995804303767 -12 30 C-20.91 30 -29.82 30 -39 30 C-39 21.75 -39 13.5 -39 5 C-35.4421875 4.876249999999999 -35.4421875 4.876249999999999 -31.8125 4.75 C-25.08697048973984 4.415657735932015 -19.15796616224973 3.1681216895146633 -12.76953125 0.9375 C-8.319540844797384 -0.5688437196736658 -4.528077270391762 -1.6682389943548657 0 0 Z " fill="#C8B585" transform="translate(39,98)"/>
<path d="M0 0 C2.569275224592161 1.7644420217078647 4.916876904268193 3.676516547068374 7 6 C7 6.659999999999997 7 7.319999999999993 7 8 C7.571054687499995 8.283593749999994 8.142109375000004 8.567187500000003 8.73046875 8.859375 C26.618279569892465 17.849462365591393 26.618279569892465 17.849462365591393 30 27 C30 28.319999999999993 30 29.64 30 31 C13.5 31 -3 31 -20 31 C-19.001015227026382 26.005076135131915 -18.166528775018637 24.476323549977536 -15.0625 20.6875 C-14.3522265625 19.804492187500003 -13.641953125 18.921484375000006 -12.91015625 18.01171875 C-12.279804687500004 17.347851562499997 -11.649453125 16.683984374999994 -11 16 C-10.340000000000003 16 -9.68 16 -9 16 C-7.579558292742838 12.685636016399954 -6.264284432089731 9.611887238559646 -6 6 C-7.341268432032479 2.7324911941243357 -7.341268432032479 2.7324911941243357 -9 0 C-5.312229851209601 -1.229256716263464 -3.73801354689418 -1.078273138527166 0 0 Z " fill="#C39366" transform="translate(47,97)"/>
<path d="M0 0 C5.429104881595521 -0.2035914330598274 7.6546247871838915 0.6504399401209184 12 4 C12.968085937500007 4.708984375 13.936171875 5.41796875 14.93359375 6.1484375 C18.53634817964067 9.164451280787489 20.180100697715773 12.7050489591647 22.0625 16.9375 C23.95423212754679 21.114912595056907 25.73387372969016 24.885324776250997 28.74609375 28.37890625 C31 31 31 31 31 33 C31.585234375 33.27585937500001 32.17046875 33.55171874999999 32.7734375 33.8359375 C34.89926970284398 34.94733749376755 36.689452081672314 36.21658002538709 38.625 37.625 C43.44645599537152 40.60844238387631 47.453613540934015 41.013356521809825 53 40 C56.51778910437086 38.81150402010522 59.90803904622088 37.47751602823644 63.3125 35.99609375 C64.6428125 35.503027343750006 64.6428125 35.503027343750006 66 35 C66.66 35.33 67.32 35.66 68 36 C68 37.650000000000006 68 39.3 68 41 C65.19279533606498 42.01749813061723 62.380747545285146 43.013946485337584 59.5625 44 C58.779394531250006 44.28617187500001 57.9962890625 44.57234375 57.189453125 44.8671875 C50.14411903531902 47.30261162976626 42.935436919561326 48.58077308240364 35.953125 45.1875 C32.35502226034417 42.99985353428926 29.004390709135492 40.47610070834318 25.6484375 37.9375 C19.36530035306626 33.340986688968826 14.927698144535327 32.459154815299954 7.1796875 31.8203125 C4 31 4 31 2.11328125 28.69921875 C-1.4653672094296013 20.02256581854087 -0.10327336668267151 9.248703727359242 0 0 Z " fill="#7F7576" transform="translate(60,70)"/>
<path d="M0 0 C8.91 0 17.82 0 27 0 C25.972254590094003 6.16647245943598 24.409725245926825 9.88541213110976 21 15 C20.34 15 19.68 15 19 15 C19 15.66 19 16.32 19 17 C13.318062559647586 22.137263698793575 7.808443778095116 27 0 27 C0 18.09 0 9.18 0 0 Z " fill="#CE9370" transform="translate(0,0)"/>
<path d="M0 0 C0 9.57 0 19.14 0 29 C-7.528585266397215 27.92448781908611 -11.670856659457215 26.329143340542785 -17 21 C-18.759999210415728 17.793426096091906 -18.915361368478443 15.528302002135078 -18 12 C-12.673467165081021 2.146559114096604 -12.673467165081021 2.146559114096604 -8.10546875 0.1875 C-5.4135760938141 -0.052223279215070306 -2.7025457115514513 0 0 0 Z " fill="#7F7576" transform="translate(128,54)"/>
<path d="M0 0 C3.5165514071790938 1.4304615893609878 5.383432816672837 2.3246335541261587 8 5 C9.292387543132833 8.241798921042687 10.23788867001543 11.3963650785915 11.126708984375 14.760498046875 C12.68975506055645 20.508325456173317 15.10044800353181 24.970853361535376 18.546875 29.86328125 C20 32 20 32 21 35 C17.848085814109297 35.3602187641018 16.339317507081617 35.214305793946295 13.625 33.5 C10.840128057710572 30.8477410073434 8.326249468974822 28.078889174950504 5.84375 25.14453125 C4.611856881864568 23.71167251725349 3.339868522148926 22.312363043905137 2.03125 20.94921875 C-0.9125911420121611 17.842501151360118 -2.7973393753835296 15.597315525185394 -4.1875 11.5 C-3.943667708169329 6.948463885827422 -2.330806017126342 3.8513318308740025 0 0 Z " fill="#7E5355" transform="translate(43,35)"/>
</svg>
