<?xml version="1.0" encoding="UTF-8"?>
<!-- Generator: visioncortex VTracer 0.6.0 -->
<svg version="1.1" xmlns="http://www.w3.org/2000/svg" width="128" height="128">
<path d="M0 0 C42.24 0 84.48 0 128 0 C128 42.24 128 84.48 128 128 C85.75999999999999 128 43.519999999999996 128 0 128 C0 85.75999999999999 0 43.519999999999996 0 0 Z " fill="#42898A" transform="translate(0,0)"/>
<path d="M0 0 C4.941495233113983 2.743151125539093 9.315804592659532 5.340037762970262 11.4453125 10.8671875 C12.70771135199628 17.867762951979337 11.523556352214229 25.635752430004544 9.875 32.5 C9.875 38.57414027842631 12.93056236388722 42.78209493928159 16.875 47.25 C19.47965234497299 49.09167337523343 21.735168952195764 49.79978214025898 24.875 50.25 C25.598164062500004 50.3595703125 26.321328124999994 50.469140624999994 27.06640625 50.58203125 C34.334859851393546 51.125585171495516 39.6350276978106 48.022949267639575 45.04296875 43.39453125 C46.36870936097226 42.188181913561834 47.674794637882115 40.95960356105604 48.953125 39.703125 C50.875 38.25 50.875 38.25 55.875 37.25 C55.875 52.43000000000001 55.875 67.61 55.875 83.25 C13.634999999999991 83.25 -28.605000000000004 83.25 -72.125 83.25 C-72.125 78.3 -72.125 73.35 -72.125 68.25 C-70.495625 67.755 -68.86625 67.26 -67.1875 66.75 C-62.68102012690585 65.15539942952053 -59.83448939876341 63.34947905752196 -56.4375 60 C-53.454691890699806 57.09256971295649 -51.79305189144822 55.72031191655124 -47.5625 55.75 C-46.428125 55.91499999999999 -45.29375 56.08 -44.125 56.25 C-44.2577734375 55.713750000000005 -44.390546875 55.17750000000001 -44.52734375 54.625 C-45.764525700918995 49.134440684972645 -46.490781295894294 43.665015799963214 -46.9375 38.0625 C-47.0470703125 36.7489453125 -47.156640625 35.435390625 -47.26953125 34.08203125 C-47.032656537155106 27.80165034997718 -44.60129527377185 22.726295273771854 -40.125 18.25 C-36.274820777071156 15.781182788350968 -32.29520306441627 13.727633903843376 -28.0625 12 C-25.01411973992078 10.183943674846425 -23.412873588594053 8.431439744665994 -21.125 5.75 C-15.146870642618843 -1.226374866773078 -8.78424088738857 -4.17746794080697 0 0 Z " fill="#3AAE9A" transform="translate(72.125,44.75)"/>
<path d="M0 0 C9.117240864469409 7.50906087865328 9.117240864469409 7.50906087865328 11.34375 11.26953125 C11.890312499999993 11.840585937499995 12.436875 12.411640625000004 13 13 C15.310000000000002 13 17.620000000000005 13 20 13 C20 23.560000000000002 20 34.120000000000005 20 45 C16.039999999999992 46.980000000000004 16.039999999999992 46.980000000000004 12 49 C9.70309289182768 50.73289115770402 9.70309289182768 50.73289115770402 7.875 52.5625 C2.6514944235112523 57.28901184202671 -1.5784420986594654 59.6003416463717 -8.703125 59.265625 C-13.884911960008168 58.666370725713335 -17.38303751242057 57.7451935552598 -21.01953125 53.8203125 C-24.538181929559627 49.10489061171032 -27.11891934066118 45.06488637372004 -27 39 C-26.3125 36.125 -26.3125 36.125 -25 34 C-22.91796875 33.3671875 -22.91796875 33.3671875 -21 33 C-18.6661273990497 25.26904700935212 -17.128102696932473 17.070275566221127 -20.875 9.5625 C-21.571548083868137 8.368049026552058 -22.279729292672982 7.180297618940983 -23 6 C-23.328710937500006 5.287148437500001 -23.657421874999997 4.574296875000002 -23.99609375 3.83984375 C-25.446378089598554 1.1819296490236653 -27.177810994302774 1.0034449798034544 -30 0 C-31.177777849677796 -0.6468345169855212 -32.344017986193705 -1.314973621448118 -33.5 -2 C-36.25388658822985 -3.6149706906905905 -38.99167295862786 -4.906062894046492 -42 -6 C-41.3125 -7.9375 -41.3125 -7.9375 -40 -10 C-26.054640030048134 -14.153401435093965 -11.070468797236202 -8.19277591386372 0 0 Z " fill="#47716A" transform="translate(108,37)"/>
<path d="M0 0 C10.000000000000002 1 10.000000000000002 1 14 2 C15.375620754669665 1.9946473900596544 16.751471251545283 1.951025576482735 18.125 1.875 C26.609693950715748 1.8052245563263511 33.57160270322076 4.549837074469778 40 10 C40 10.659999999999997 40 11.32 40 12 C40.61875 12.247500000000002 41.2375 12.494999999999997 41.875 12.75 C44.374802028558044 14.220471781504727 44.833160222066105 15.414030762416772 46 18 C45.4315234375 18.2307421875 44.863046875 18.461484374999998 44.27734375 18.69921875 C36.54468021316516 21.96526862448951 30.599189818006515 24.905325036472817 26.62890625 32.546875 C24.889719051681176 39.33078531393926 26.164927719133466 46.70700796450785 27 53.5625 C27.095390625 54.38041015625001 27.19078125 55.1983203125 27.2890625 56.041015625 C27.521445088043517 58.027886752772076 27.760055155816783 60.014027941447836 28 62 C26.7741015625 62.085078124999995 25.548203125 62.17015624999999 24.28515625 62.2578125 C20.236854725450854 62.76574379407727 18.31486736003405 63.89389453780154 15.4375 66.875 C10.58791434707273 71.54063585229899 6.94483107988567 74 0 74 C0 49.58 0 25.159999999999997 0 0 Z " fill="#508071" transform="translate(0,39)"/>
<path d="M0 0 C6.029885448704945 4.7101774234545815 10.330430526247412 11.54185741659208 12 19 C12 21.64 12 24.28 12 27 C-11.760000000000005 27 -35.52 27 -60 27 C-58.522660511959714 10.749265631556867 -58.522660511959714 10.749265631556867 -54 6 C-49.752360110000645 4.366292350000251 -45.514465254561 4.252076740102396 -41 4 C-38.0794208653855 3.7218170587905206 -35.165371302476544 3.3902636375565294 -32.25 3.0625 C-31.495334472656253 2.9841088867187437 -30.7406689453125 2.9057177734375017 -29.963134765625 2.824951171875 C-23.795375637718266 2.1650290130948378 -17.72973646402255 1.140296327035955 -11.6572265625 -0.122802734375 C-7.473937190250666 -0.9422788743151358 -4.108610638047537 -1.2267964158677103 0 0 Z " fill="#9DE7E1" transform="translate(87,101)"/>
<path d="M0 0 C1.298556068343622 2.204525418350798 2.5888819452653635 4.413232964695112 3.875 6.625 C4.239804687499998 7.242460937499999 4.604609375000003 7.859921874999998 4.98046875 8.49609375 C8.808864182141257 15.108776769153081 11.09467602863463 21.281841165196326 10 29 C7.514393533699227 34.26948570855765 4.079235908955383 36.527466293376435 -1 39 C-1.8482031249999977 39.435703125 -2.6964062500000026 39.87140625000001 -3.5703125 40.3203125 C-10.372596153846118 43.79086538461537 -10.372596153846118 43.79086538461537 -14 45 C-13.752499999999998 45.80437499999999 -13.505000000000003 46.60875 -13.25 47.4375 C-12.993447479594572 51.093373415777336 -13.278424885052317 52.04009865715531 -14.8125 55.1875 C-17.61346827295126 60.82952384117772 -17.61346827295126 60.82952384117772 -19 71 C-27.91 71 -36.82 71 -46 71 C-46 66.05 -46 61.099999999999994 -46 56 C-44.370625 55.504999999999995 -42.74125 55.00999999999999 -41.0625 54.5 C-36.556020126905835 52.90539942952053 -33.709489398763424 51.099479057521975 -30.3125 47.75 C-27.32969189069981 44.84256971295649 -25.668051891448222 43.47031191655124 -21.4375 43.5 C-20.303125 43.66499999999999 -19.16875 43.83 -18 44 C-18.1327734375 43.463750000000005 -18.265546875 42.92750000000001 -18.40234375 42.375 C-19.639525700918995 36.884440684972645 -20.365781295894298 31.415015799963214 -20.8125 25.8125 C-20.9220703125 24.4989453125 -21.031640625 23.185390624999997 -21.14453125 21.83203125 C-20.907656537155102 15.551650349977194 -18.476295273771846 10.47629527377184 -14 6 C-4.66101694915254 0 -4.66101694915254 0 0 0 Z " fill="#509C73" transform="translate(46,57)"/>
<path d="M0 0 C24.090000000000003 0 48.18000000000001 0 73 0 C73 11.88 73 23.76 73 36 C62.88128904965471 32.6270963498849 62.88128904965471 32.6270963498849 59.39453125 30.1875 C58.63849609375001 29.669296875 57.8824609375 29.15109375 57.103515625 28.6171875 C56.34748046875001 28.083515625 55.5914453125 27.54984375 54.8125 27 C46.2062655997684 21.01682444719415 40.622180064550705 17.700323467635883 30 17.75 C20.28562134363702 17.550557341200378 12.94968979577287 15.810708512593699 5 10 C1.596323277517783 6.429306991643024 1.0076375684202787 5.038187842101377 0 0 Z " fill="#6FC7E2" transform="translate(55,0)"/>
<path d="M0 0 C12.21 0 24.42 0 37 0 C37.861426434444844 15.505675820007248 36.90445494174143 25.859079405195665 27.19140625 38.3203125 C24.32414771830398 41.16770549914386 22.466288597996737 41.92637548452683 18.4375 42.5625 C12.227684923479725 41.775340342412925 6.120560721873078 40.31154872611566 0 39 C0 26.13 0 13.259999999999998 0 0 Z " fill="#78B2A2" transform="translate(0,0)"/>
<path d="M0 0 C1.7014969877715487 1.1370321140505055 3.3670747628872277 2.329013397811732 5 3.5625 C6.639311317907129 4.711605633254514 8.278791759661488 5.860491365790239 9.923095703125 7.00244140625 C11.045531364714066 7.784008283506246 12.163979816345261 8.571337051309534 13.278076171875 9.36474609375 C17.667806595835884 12.458309325618515 22.0100057446419 14.617248002148543 27 16.5625 C27 21.182500000000005 27 25.802500000000002 27 30.5625 C22.91850582590817 32.1256254283756 22.91850582590817 32.1256254283756 20 31.5625 C17.600962029361995 29.36377005409487 15.65874637544421 26.924218618049366 13.59375 24.41015625 C5.419609722912867 15.435836578318487 -5.441851782962885 9.563613768494012 -17.5 8.3125 C-18.220585937500005 8.222265624999999 -18.941171874999995 8.13203125 -19.68359375 8.0390625 C-24.28471671394297 7.523204229178184 -28.445293296558944 7.481332247162982 -33 8.5625 C-33.989999999999995 10.0475 -33.989999999999995 10.0475 -35 11.5625 C-34.443124999999995 11.7210546875 -33.886250000000004 11.879609375000001 -33.3125 12.04296875 C-23.22679606726976 15.126604580784075 -17.10328629040515 19.132898342296343 -12 28.5625 C-10.014982782248296 34.5175516532551 -10.271060238085283 41.23992560685412 -12.25 47.1875 C-14 50.5625 -14 50.5625 -16.109375 51.2734375 C-16.733281250000005 51.36882812499999 -17.357187499999995 51.46421875 -18 51.5625 C-17.9651953125 50.7052734375 -17.930390625 49.848046874999994 -17.89453125 48.96484375 C-17.51176526716702 39.75729829783754 -17.51176526716702 39.75729829783754 -21 31.5625 C-26.657144109234693 26.430491630863045 -32.51484822680172 24.468844056044887 -40 23.5625 C-40.33 22.572500000000005 -40.66 21.582499999999996 -41 20.5625 C-43.000164662711164 19.353679036070922 -43.000164662711164 19.353679036070922 -45 18.5625 C-45.26602870813397 9.367882775119618 -45.26602870813397 9.367882775119618 -42.46875 5.37890625 C-32.234695983258746 -4.063226920207706 -12.3752426598912 -6.570925306136925 0 0 Z " fill="#2D809A" transform="translate(101,19.4375)"/>
<path d="M0 0 C0 15.180000000000007 0 30.36 0 46 C-9.569999999999993 46 -19.14 46 -29 46 C-29.659999999999997 42.03999999999999 -30.319999999999993 38.08 -31 34 C-34.116185300829414 28.044623647303794 -37.53388168945119 22.991543994142802 -42 18 C-41.010000000000005 15.689999999999998 -40.019999999999996 13.379999999999995 -39 11 C-37.865624999999994 11.329999999999998 -36.73125 11.659999999999997 -35.5625 12 C-29.01197653024009 13.579967808727304 -23.565352332804082 14.1383025930798 -17.4375 10.9375 C-13.468950402350103 8.507633667403837 -10.032176657942188 5.615760126572539 -6.62890625 2.453125 C-4.227573222200192 0.3109286298764289 -3.288022904236982 0 0 0 Z " fill="#7EA7AA" transform="translate(128,82)"/>
<path d="M0 0 C5.215808290983773 4.284151957713817 9.875372881305395 8.644561599872617 14 14 C13.670000000000002 14.659999999999997 13.340000000000003 15.32 13 16 C12.009999999999991 16.33 11.02000000000001 16.659999999999997 10 17 C9.300624681833511 18.31647118713694 8.640362775521254 19.653835917152392 8 21 C2.0486180221403174 28.70469368088058 -3.2486298140053123 33.537787240848814 -12.6875 35.9375 C-16.45565304225613 36.00859722721238 -18.034475880213066 35.246609181656765 -21 33 C-20.67 31.906875 -20.340000000000003 30.81375 -20 29.6875 C-18.105823842769965 21.932358486703095 -17.83366779276551 14.777821525739142 -21.9296875 7.75390625 C-22.282890624999993 7.1751171875 -22.63609375 6.596328124999999 -23 6 C-23.328710937500006 5.287148437500001 -23.657421874999997 4.574296875000002 -23.99609375 3.83984375 C-25.446378089598554 1.1819296490236653 -27.177810994302774 1.0034449798034544 -30 0 C-31.177777849677796 -0.6468345169855212 -32.344017986193705 -1.314973621448118 -33.5 -2 C-36.25388658822985 -3.6149706906905905 -38.99167295862786 -4.906062894046492 -42 -6 C-41.3125 -7.9375 -41.3125 -7.9375 -40 -10 C-26.052186982381116 -14.154132035933422 -11.073299458320065 -8.19077627073461 0 0 Z " fill="#115F79" transform="translate(108,37)"/>
<path d="M0 0 C6.324113762980192 1.0540189604966983 8.835415992677303 2.0836762265874 12.5859375 7.13671875 C14.362874910494703 10.734771572907782 14.639303353918438 14.127094778296197 14.9375 18.0625 C15.54785357346247 24.54585758295687 16.854071645691068 30.142609206228826 19.10546875 36.28125 C20.77720988170099 41.3621750116327 21.423752416030787 46.396949444382315 20.5625 51.6875 C16.504845931405946 57.692828021519205 10.832975926266327 61.7661424856437 4 64 C2.6799999999999997 64 1.3599999999999999 64 0 64 C0 42.879999999999995 0 21.75999999999999 0 0 Z " fill="#3C5953" transform="translate(0,49)"/>
<path d="M0 0 C-0.4937109374999977 0.4821093749999932 -0.9874218749999955 0.9642187500000006 -1.49609375 1.4609375 C-2.4570898437499977 2.408398437499997 -2.4570898437499977 2.408398437499997 -3.4375 3.375 C-4.394628906250006 4.314726562499999 -4.394628906250006 4.314726562499999 -5.37109375 5.2734375 C-7.078821763719361 6.917230607843663 -7.078821763719361 6.917230607843663 -8 9 C-8.659999999999997 9 -9.32 9 -10 9 C-10.43119140625 9.866250000000008 -10.43119140625 9.866250000000008 -10.87109375 10.75 C-11.5840231501084 12.170925032742005 -12.304414875706549 13.588152514572656 -13.03515625 15 C-13.374179687500003 15.659999999999997 -13.713203125 16.319999999999993 -14.0625 17 C-14.404101562500003 17.659999999999997 -14.745703124999999 18.319999999999993 -15.09765625 19 C-16.193913836024713 21.271612674302304 -16.193913836024713 21.271612674302304 -17 25 C-26.57 25 -36.14 25 -46 25 C-44.522660511959714 8.749265631556852 -44.522660511959714 8.749265631556852 -40 4 C-35.75074320423946 2.3656704631690246 -31.51556155118972 2.2584206911825504 -27 2 C-24.647763762985214 1.7600069585616893 -22.300363219130325 1.4891997664727796 -19.951904296875 1.21484375 C-17.658180726807565 0.9486058859357769 -15.362966194159767 0.7051666174522637 -13.06640625 0.46484375 C-10.55121223444516 0.1982133475159884 -8.14645534414069 -0.1583589268163763 -5.65234375 -0.62109375 C-3 -1 -3 -1 0 0 Z " fill="#71D5D8" transform="translate(73,103)"/>
<path d="M0 0 C5.655499717930084 2.7103715629325364 11.14843573629284 5.700251409214708 13.51171875 11.85546875 C14.983106215150784 19.95472767979394 13.373855297548161 28.486840953097243 10.9453125 36.2421875 C6.708644288117 33.64241382452634 3.9144907231632544 31.201091797551015 0.9453125 27.2421875 C-5.669783752284971 18.91514422765134 -11.875918042207502 15.288894004373262 -22.0546875 12.2421875 C-20.67081775459001 7.014235128451162 -17.295074613940024 4.292761352011702 -13.0546875 1.2421875 C-8.731397478482968 -1.2199178211342172 -4.801594785480077 -1.770930396165653 0 0 Z " fill="#3EADB3" transform="translate(70.0546875,43.7578125)"/>
<path d="M0 0 C1.84765625 0.37890625 1.84765625 0.37890625 3.84765625 1.37890625 C5.222656250000007 3.878906250000014 5.222656250000007 3.878906250000014 5.84765625 7.37890625 C5.15234375 9.390625 5.15234375 9.390625 4.09765625 11.56640625 C1.2168439357592504 17.195783534427335 1.2168439357592504 17.195783534427335 -0.15234375 27.37890625 C-9.06234375 27.37890625 -17.97234375 27.37890625 -27.15234375 27.37890625 C-27.15234375 22.428906249999997 -27.15234375 17.478906249999994 -27.15234375 12.37890625 C-25.52296875 11.883906249999995 -23.89359375 11.388906250000005 -22.21484375 10.87890625 C-17.70838722507301 9.286355672689055 -14.902118044329526 7.497707492481155 -11.52734375 4.12890625 C-7.694780922356873 0.40683172009073587 -5.292961644649893 -0.43874637971524066 0 0 Z " fill="#588E90" transform="translate(27.15234375,100.62109375)"/>
<path d="M0 0 C12.210000000000008 0 24.42 0 37 0 C37.495000000000005 8.415000000000001 37.495000000000005 8.415000000000001 38 17 C25.407995176341586 17.84573166726064 15.54165157698236 17.643806262692678 5 10 C1.590781648687802 6.429806751829888 1.008248981593809 5.04124490796904 0 0 Z " fill="#80B3BA" transform="translate(55,0)"/>
</svg>
