<?xml version="1.0" encoding="UTF-8"?>
<!-- Generator: visioncortex VTracer 0.6.0 -->
<svg version="1.1" xmlns="http://www.w3.org/2000/svg" width="128" height="128">
<path d="M0 0 C42.24 0 84.48 0 128 0 C128 42.24 128 84.48 128 128 C85.75999999999999 128 43.519999999999996 128 0 128 C0 85.75999999999999 0 43.519999999999996 0 0 Z " fill="#848691" transform="translate(0,0)"/>
<path d="M0 0 C11.22 0 22.44 0 34 0 C34.495 2.9493750000000003 34.99 5.898750000000001 35.5 8.9375 C35.65662109375 9.84749755859375 35.8132421875 10.7574951171875 35.974609375 11.695068359375 C37.17891609185947 19.100120969588307 37.55909805808499 26.16034771557671 36.125 33.5625 C35.36377456153297 37.74923991156867 34.740798831786904 41.91791025891093 34.24658203125 46.142333984375 C32.30926046177242 62.70163805298886 32.30926046177242 62.70163805298886 26.3984375 70.140625 C22.41419092835568 75.43811485503547 22.296212373804707 81.63737943345068 23 88 C24.69215727000435 96.0585522448568 29.93830681615929 102.23969415148603 34.697265625 108.729248046875 C39.06855112151402 114.80357008232592 42 120.37561602719745 42 128 C28.14 128 14.279999999999998 128 0 128 C0 85.75999999999999 0 43.519999999999996 0 0 Z " fill="#BA9FB6" transform="translate(0,0)"/>
<path d="M0 0 C2.480461992677995 1.2332240415574205 4.914917863406707 2.5154466836094116 7.328125 3.875 C6.953007812499997 4.348085937500002 6.577890625000002 4.821171874999997 6.19140625 5.30859375 C-2.204166515226106 16.15728097559444 -8.237567693986136 27.76260774474659 -6.671875 41.875 C-4.69509873457222 52.91916304815085 -1.082266799695148 62.18751399440862 7.328125 69.875 C10.402176127316665 71.89377984480497 13.149344116540298 72.90375075325511 16.890625 72.8125 C20.06132165519213 71.59300128646456 22.533250254848525 69.80991328510487 25.328125 67.875 C26.675920297787613 67.13412266592202 28.03075282551697 66.40596994227714 29.390625 65.6875 C34.105404032331975 63.121633859955395 38.44550985704461 60.10807978685975 42.810791015625 56.997314453125 C48.97562247260494 52.62612805140438 52.80170415669568 51.183326545594525 60.328125 51.875 C63.58142147261292 52.51710664454403 66.7200049845512 53.41014521930552 69.890625 54.375 C72.675 55.2 75.459375 56.025000000000006 78.328125 56.875 C78.328125 68.755 78.328125 80.635 78.328125 92.875 C49.948125000000005 92.875 21.568124999999995 92.875 -7.671875 92.875 C-9.651875000000004 86.44 -9.651875000000004 86.44 -11.671875 79.875 C-13.780737455170431 76.40761940891454 -15.815255649557614 73.27620073438972 -18.234375 70.0625 C-24.636327936789403 61.400192730221264 -28.990419429090835 54.00937517898927 -27.671875 42.875 C-26.603975510265194 39.49331828250645 -25.455480554570165 36.83622281360607 -23.20703125 34.078125 C-18.01842345626541 27.53210636536174 -17.665514194212683 21.241126177181883 -17.09375 13.1796875 C-16.30902235428792 3.325044799512149 -16.30902235428792 3.325044799512149 -12.484375 -0.0625 C-7.912316186503659 -1.7897222184319546 -4.563061780551308 -1.921289170758449 0 0 Z " fill="#80798C" transform="translate(49.671875,35.125)"/>
<path d="M0 0 C0 0.6599999999999966 0 1.3200000000000003 0 2 C0.7218749999999972 2.206249999999997 1.4437499999999943 2.4125000000000014 2.1875 2.625 C6.79131974673308 4.875756320625065 9.211258329087144 8.81688749363071 12 13 C12.74516071788645 19.174188805344833 11.57021349746394 22.415881967810023 8.3515625 27.6484375 C6.969775670173107 30.0525868397566 6.05382674397346 32.391208362578894 5.125 35 C2.9968098254492475 40.50277061069097 -0.22532990286910604 44.52220508085452 -4 49 C-4.739921874999993 49.9345703125 -5.479843750000001 50.869140625 -6.2421875 51.83203125 C-11.06119276696431 57.89229544936421 -15.550278401831974 62.70018560122132 -22 67 C-27.49955356690726 66.79246967672049 -30.795749037208743 65.51784264233554 -35 62 C-44.03265232350705 52.105453370814786 -47.70812140713582 42.2887725514541 -48.3125 28.9375 C-47.341110477992075 16.69799202270019 -42.250816776907534 5.244451771888301 -33 -3 C-22.23081279580802 -9.946358845993963 -10.227301226910896 -5.542537439100101 0 0 Z " fill="#6D4C18" transform="translate(90,42)"/>
<path d="M0 0 C0.6380859374999943 0.32484374999999943 1.2761718750000028 0.6496874999999989 1.93359375 0.984375 C14.012384177621172 6.987167818575372 22.602855583442718 7.866714833323385 36.43359375 6.609375 C36.43359375 24.759375000000006 36.43359375 42.90937500000001 36.43359375 61.609375 C27.626871060924373 60.50853466386555 27.626871060924373 60.50853466386555 23.49609375 59.046875 C17.280608461818815 57.16425464635 12.563849565884354 56.16655510075793 6.484375 58.96875 C1.0573473304763183 62.04656242989299 -4.023873775260597 65.48896459308655 -8.84765625 69.4453125 C-10.739924950630325 70.72689448360872 -12.334420108184517 71.18843024518392 -14.56640625 71.609375 C-13.75390625 70.52604166666667 -12.94140625 69.44270833333333 -12.12890625 68.359375 C-11.584921874999992 67.6271875 -11.040937499999998 66.895 -10.48046875 66.140625 C-9.126297347004254 64.34980240991584 -7.742995859391158 62.58083430155527 -6.33984375 60.828125 C-1.670677787896949 54.89406792441753 1.7214528852765625 49.36787786448723 4.37109375 42.29296875 C5.311783146686707 39.917036339986154 6.356022941398393 37.987920925671204 7.74609375 35.859375 C10.30584482853844 30.929484033925974 10.113035799127232 27.065819331460027 8.62109375 21.671875 C7.546916227717077 19.278058137666847 7.546916227717077 19.278058137666847 4.43359375 18.609375 C3.0799077861980493 17.296709822979928 1.745597791142501 15.963701752147102 0.43359375 14.609375 C-0.2264062499999966 14.279375000000002 -0.8864062499999932 13.949375000000003 -1.56640625 13.609375 C-1.56640625 12.949375000000003 -1.56640625 12.289375 -1.56640625 11.609375 C-2.4120312499999983 11.341250000000002 -3.2576562499999966 11.073124999999997 -4.12890625 10.796875 C-7.56640625 9.609375 -7.56640625 9.609375 -10.81640625 8.046875 C-15.219797146496617 6.087613432570045 -19.80516148194802 5.887194111214299 -24.56640625 5.609375 C-16.823968446098974 -1.1652580784133946 -9.86792367893797 -4.802793119810303 0 0 Z " fill="#868370" transform="translate(91.56640625,30.390625)"/>
<path d="M0 0 C0.6883593750000045 0.08765624999999488 1.376718750000009 0.17531250000000398 2.0859375 0.265625 C5.631309133328813 0.9419728192811903 9.12345662384223 1.8746141559605576 12.625 2.75 C12.625 14.629999999999995 12.625 26.510000000000005 12.625 38.75 C-2.885000000000005 38.75 -18.39500000000001 38.75 -34.375 38.75 C-33.35218366051036 25.453387586634676 -31.855481865259875 18.50381391480323 -22.375 9.75 C-8.045537870228827 -1.1365443831549982 -8.045537870228827 -1.1365443831549982 0 0 Z " fill="#CACEBA" transform="translate(115.375,89.25)"/>
<path d="M0 0 C11.22 0 22.44 0 34 0 C35.541761629539025 9.250569777234164 35.931062069385355 13.620166840336438 30.8515625 21.4921875 C28.99250280815132 24.010154424402646 27.005907873001817 26.271973559732128 24.875 28.5625 C16.273048176803407 38.0707877432652 16.493011792213387 46.73370197271833 17 59 C16.5269140625 58.61328125 16.053828125 58.2265625 15.56640625 57.828125 C14.9051171875 57.30734375 14.243828125 56.7865625 13.5625 56.25 C12.605371093750001 55.484296875 12.605371093750001 55.484296875 11.62890625 54.703125 C8.005472464955426 52.35569984356696 3.9452618822987997 50.75344972546613 0 49 C0 32.83 0 16.659999999999997 0 0 Z " fill="#E4D7E2" transform="translate(0,0)"/>
<path d="M0 0 C3.4572649279718632 1.4556904959881578 6.7333074514787725 3.1596098318190258 10 5 C9.624882812500005 5.473085937500002 9.249765624999995 5.946171874999997 8.86328125 6.43359375 C0.46770848477389393 17.28228097559444 -5.565692693986136 28.88760774474659 -4 43 C-2.08435047907804 53.7026505842814 1.2080233977278994 61.48802511814907 8.609375 69.43359375 C10 71 10 71 10 72 C-0.007764826438069861 71.62234849711554 -9.228339351203893 66.29932251753347 -16 59 C-19.92735075569244 54.29317504852128 -21.73059474133703 50.31808007564314 -21.36328125 44.13671875 C-20.92754386696009 41.57383328201257 -19.99079556218149 39.37518943713826 -18.859375 37.04296875 C-15.474121974106847 28.995299056626735 -14.59320610994557 19.910905549099127 -13.646240234375 11.293212890625 C-13.322746024285081 8.369364996272274 -12.93430994546317 5.802929836389509 -12 3 C-8.013393940439869 -0.16583422376833568 -5.00712540520329 -0.6566721842889578 0 0 Z " fill="#6D5E71" transform="translate(47,34)"/>
<path d="M0 0 C5.851818372992598 0.9753030621654304 7.705599327742186 1.7791994958066368 12.25 5.1875 C13.28640625 5.944179687499997 14.3228125 6.700859375 15.390625 7.48046875 C18.797953763176988 10.770479307259215 19.951265175133504 13.591687404514033 20.046875 18.31640625 C19.94890625 19.0576171875 19.8509375 19.798828125 19.75 20.5625 C19.585644531249997 21.856074218749995 19.585644531249997 21.856074218749995 19.41796875 23.17578125 C19.2800390625 24.1077734375 19.142109375 25.039765625 19 26 C18.777636718750003 27.50626953125 18.777636718750003 27.50626953125 18.55078125 29.04296875 C18.21980406773404 31.216826883122835 17.87562805099248 33.38870892668612 17.51953125 35.55859375 C17.16345327382108 37.9172756824333 16.87231988213192 40.286411510133235 16.63671875 42.66015625 C15.836745406996464 50.215460045033396 14.792771354200053 55.77205669167432 9 61 C3.502857142857141 65 3.502857142857141 65 0 65 C0 43.55 0 22.099999999999994 0 0 Z " fill="#E3ADAC" transform="translate(0,49)"/>
<path d="M0 0 C0 0.6599999999999966 0 1.3200000000000003 0 2 C0.7218749999999972 2.206249999999997 1.4437499999999943 2.4125000000000014 2.1875 2.625 C6.79131974673308 4.875756320625065 9.211258329087144 8.81688749363071 12 13 C12.728913415580564 19.143698788464718 11.666460675454502 22.396024703987308 8.2890625 27.53125 C7.863671874999994 28.015937500000007 7.438281250000003 28.500625 7 29 C6.340000000000003 29 5.680000000000007 29 5 29 C5 28.340000000000003 5 27.680000000000007 5 27 C3.6387500000000017 26.814375 3.6387500000000017 26.814375 2.25 26.625 C-2.1670968645057513 24.416451567747117 -2.440010177827702 21.97265676275856 -4.0078125 17.4765625 C-5.352006978338096 14.121368408400208 -7.204757930273104 12.249828982950909 -10 10 C-10.721874999999997 9.401875000000004 -11.443749999999994 8.80375 -12.1875 8.1875 C-17.113252716590807 6.107737741883881 -22.181386044761965 5.926242302766468 -27.21484375 7.84375 C-32.30792294140919 10.737322822758387 -36.577735845919406 14.618997080532374 -39 20 C-39.63433990933733 23.913135804353672 -39.995118675651334 27.649526073823324 -40.1875 31.609375 C-41 35 -41 35 -44.0625 37.453125 C-45.031875 37.96359375 -46.00125 38.4740625 -47 39 C-49.29421810616404 27.528909469179794 -47.48826097192296 17.190742869734592 -41.44140625 7.13671875 C-37.66956349241341 1.545396288211748 -34.00336674693133 -3.6378444638718648 -27.28125 -5.58984375 C-16.68954990745928 -7.49417338992599 -9.36561446912286 -5.075558809073037 0 0 Z " fill="#6D5245" transform="translate(90,42)"/>
<path d="M0 0 C2.3100000000000023 0.9899999999999949 4.6200000000000045 1.980000000000004 7 3 C7 3.6599999999999966 7 4.319999999999993 7 5 C7.659999999999997 5.329999999999998 8.319999999999993 5.659999999999997 9 6 C6.477792801499987 13.503958062618025 3.0758735256731597 18.97862062150537 -2 25 C-2.739921874999993 25.9345703125 -3.4798437500000006 26.869140625 -4.2421875 27.83203125 C-9.061192766964325 33.89229544936421 -13.550278401831989 38.70018560122132 -20 43 C-25.499553566907267 42.792469676720486 -28.795749037208743 41.51784264233555 -33 38 C-38.77039579886883 31.678993914979557 -43.425864715947434 25.921159577593443 -44.4375 17.25 C-44 14 -44 14 -42.125 12.0625 C-40 11 -40 11 -38 11 C-37.484375 12.072500000000005 -36.96875 13.144999999999996 -36.4375 14.25 C-34.13238077360032 18.20966473385033 -31.38949060030042 20.59236449440081 -27 22 C-22.191165516390868 22.73923446103025 -18.32556091388517 22.545819199835066 -13.8125 20.6875 C-9.626621053587456 16.687660117872454 -6.897291079206923 11.980815172486487 -4 7 C-3.5604296875000045 6.249765624999995 -3.120859375000009 5.499531250000004 -2.66796875 4.7265625 C-1.7631388876708627 3.15989595391774 -0.8786193535797366 1.5815148364435316 0 0 Z " fill="#514831" transform="translate(88,66)"/>
<path d="M0 0 C13.530000000000001 0 27.060000000000002 0 41 0 C41 7.590000000000001 41 15.180000000000001 41 23 C14.845689655172407 25.90603448275862 14.845689655172407 25.90603448275862 5 18.1875 C2.059112852943457 15.364248338825725 0.7217568644577881 13.089955565260802 0 9 C0 6.029999999999999 0 3.0599999999999996 0 0 Z " fill="#95BBDA" transform="translate(87,0)"/>
<path d="M0 0 C0.6380859374999943 0.32484374999999943 1.2761718750000028 0.6496874999999989 1.93359375 0.984375 C13.735817847008434 6.849722733058741 23.325127081544537 8.121890384821782 36.43359375 6.609375 C36.43359375 11.559375000000003 36.43359375 16.509375 36.43359375 21.609375 C32.999531250000004 21.949687499999996 32.999531250000004 21.949687499999996 29.49609375 22.296875 C23.59709621525306 22.98234439081476 19.10367678828517 24.26871075000635 14.0703125 27.5859375 C12.43359375 28.609375 12.43359375 28.609375 10.43359375 28.609375 C10.251835937500005 27.9712890625 10.070078125000009 27.333203124999997 9.8828125 26.67578125 C9.631445312500006 25.849492187500005 9.380078124999997 25.023203124999995 9.12109375 24.171875 C8.87746093749999 23.348164062500004 8.633828125000008 22.524453125 8.3828125 21.67578125 C8.069570312499991 20.9938671875 7.75632812500001 20.311953125000002 7.43359375 19.609375 C6.443593750000005 19.279375 5.453593749999996 18.949375000000003 4.43359375 18.609375 C3.0799077861980493 17.296709822979928 1.745597791142501 15.963701752147102 0.43359375 14.609375 C-0.2264062499999966 14.279375000000002 -0.8864062499999932 13.949375000000003 -1.56640625 13.609375 C-1.56640625 12.949375000000003 -1.56640625 12.289375 -1.56640625 11.609375 C-2.4120312499999983 11.341250000000002 -3.2576562499999966 11.073124999999997 -4.12890625 10.796875 C-7.56640625 9.609375 -7.56640625 9.609375 -10.81640625 8.046875 C-15.219797146496617 6.087613432570045 -19.80516148194802 5.887194111214299 -24.56640625 5.609375 C-16.823968446098974 -1.1652580784133946 -9.86792367893797 -4.802793119810303 0 0 Z " fill="#716974" transform="translate(91.56640625,30.390625)"/>
<path d="M0 0 C0.6599999999999966 0 1.3200000000000003 0 2 0 C3.9729306651560066 7.645106327479532 2.9614946145312686 14.961779620078023 1.5703125 22.61328125 C1.0359466727081994 25.786535854534193 0.6203413992342703 28.947545907539265 0.24658203125 32.142333984375 C-0.9622430206375725 42.47479603679624 -2.110489274902008 49.85391184705395 -9 58 C-13.339953312003153 55.30219118443047 -15.058502926214516 52.722747025969056 -16.42578125 47.95703125 C-18.064910687760616 39.51607217255247 -19.971107576083057 29.088968856998612 -15.64453125 21.24609375 C-12.95000801784279 17.565925440046563 -10.029293751789044 14.07632216258946 -6.9736328125 10.6904296875 C-3.9678843984329397 7.340337424754448 -1.8520217109429566 4.159254145451012 0 0 Z " fill="#A8A3C0" transform="translate(34,14)"/>
<path d="M0 0 C0.3299999999999983 0 0.6599999999999966 0 1 0 C1.0979687500000068 0.8082421874999999 1.1959374999999994 1.6164843749999998 1.296875 2.44921875 C2.225506427603861 10.637118653934115 2.225506427603861 10.637118653934115 7 17 C12.939963762455946 20.63620423194368 18.316412498885 22.13850051170243 25.30078125 22.09765625 C26.277246093749994 22.09443359375 27.253710937500003 22.0912109375 28.259765625 22.087890625 C29.770869140624995 22.075322265624997 29.770869140624995 22.075322265624997 31.3125 22.0625 C32.339238281250005 22.05798828125 33.36597656250001 22.0534765625 34.423828125 22.048828125 C36.94924388226451 22.03708200519877 39.47462951559807 22.01914771218165 42 22 C42 26.62 42 31.240000000000002 42 36 C27.30499173231135 38.59323675312152 18.865737881428146 36.71697152032063 5.63671875 30.65625 C2.158024308945187 29.01585938075592 2.158024308945187 29.01585938075592 -0.89453125 27.94140625 C-3 27 -3 27 -4.375 24.4375 C-5.951221507857497 15.768281706783789 -2.9460805166953463 8.098295745892802 0 0 Z " fill="#768BA8" transform="translate(86,1)"/>
<path d="M0 0 C0.7760156249999994 -0.005156249999998863 1.5520312499999989 -0.010312499999997726 2.3515625 -0.015625 C4.375 0.25 4.375 0.25 6.375 2.25 C5.624765625000009 2.590312499999996 4.87453124999999 2.9306250000000063 4.1015625 3.28125 C-6.225489112686574 8.171642199458631 -16.956532897062914 14.264465200019345 -21.625 25.25 C-23.06299264782288 30.52526617927353 -23.80634951593214 35.8378106886625 -24.625 41.25 C-29.905 41.25 -35.185 41.25 -40.625 41.25 C-39.94140625 31.679687499999986 -39.94140625 31.679687499999986 -39.625 28.25 C-39.48578125 26.664453124999994 -39.48578125 26.664453124999994 -39.34375 25.046875 C-38.05543826596454 20.03366194799247 -33.799783766125344 17.939972315015382 -29.625 15.25 C-27.7542532523629 14.259380540966092 -25.860562621331866 13.368363463031585 -23.9375 12.484375 C-20.142808811039217 10.458830378865528 -16.68670599290475 7.919901874789431 -13.1923828125 5.42236328125 C-5.521985613433046 -0.036936358618277154 -5.521985613433046 -0.036936358618277154 0 0 Z " fill="#909588" transform="translate(105.625,86.75)"/>
</svg>
