<?xml version="1.0" encoding="UTF-8"?>
<!-- Generator: visioncortex VTracer 0.6.0 -->
<svg version="1.1" xmlns="http://www.w3.org/2000/svg" width="128" height="128">
<path d="M0 0 C42.24 0 84.48 0 128 0 C128 42.24 128 84.48 128 128 C85.75999999999999 128 43.519999999999996 128 0 128 C0 85.75999999999999 0 43.519999999999996 0 0 Z " fill="#B97942" transform="translate(0,0)"/>
<path d="M0 0 C31.02000000000001 0 62.040000000000006 0 94 0 C94 32.67 94 65.34 94 99 C90.7 100.32 87.4 101.64 84 103 C81.47077547887817 104.37638037495012 79.01407056129054 105.75412643717866 76.5625 107.25 C70.39893617021278 111 70.39893617021278 111 67 111 C67 110.34 67 109.68 67 109 C66.34 109 65.68 109 65 109 C62 103.25 62 103.25 62 101 C61.1917578125 101.2771484375 60.383515625 101.554296875 59.55078125 101.83984375 C57.94783203125 102.38318359375 57.94783203125 102.38318359375 56.3125 102.9375 C54.728886718750005 103.47697265625 54.728886718750005 103.47697265625 53.11328125 104.02734375 C48.475118713948376 105.4764058221165 44.29734892649901 106.15370411038596 39.4375 106.1875 C38.04337890625 106.20876953125 38.04337890625 106.20876953125 36.62109375 106.23046875 C33.92511611327788 105.99341557478897 32.305921252529686 105.37270135738825 30 104 C30.193359375 103.4547265625 30.38671875 102.909453125 30.5859375 102.34765625 C31.42794479424103 99.90916977905445 32.22297454572801 97.45994887718302 33 95 C33.2126953125 94.3387109375 33.425390625000006 93.677421875 33.64453125 92.99609375 C38.33607401350389 75.74876747553606 34.73403355713485 53.811057411591946 31 36.6875 C30.834033203125003 35.92252197265625 30.668066406250006 35.1575439453125 30.4970703125 34.369384765625 C30.07056726343008 32.560936424455726 29.544635149817474 30.776446680068712 29 29 C21.99129677097865 25.495648385489325 11.29861283948918 28.390857011766165 4 30 C3.8788281249999983 29.01 3.7576562499999966 28.02 3.6328125 27 C2.6545636292276527 18.67651682434936 2.6545636292276527 18.67651682434936 0.875 10.5 C0 7 0 7 0 0 Z " fill="#BD732E" transform="translate(34,0)"/>
<path d="M0 0 C2.5466242490156716 2.298066745259007 4.636251197803752 4.777825944348493 6.8046875 7.43359375 C9.709108266522627 10.828975322251537 12.724674803361502 13.53262143674695 17 15 C20.213165226409302 14.512377385887774 20.213165226409302 14.512377385887774 23 13 C26.445935834944777 12.129986497117898 29.40389478907042 11.986046390131904 32.9375 12.1875 C39.02207362082203 12.278561646025906 44.26878527449273 10.710829470073108 50.03125 8.875 C53 8 53 8 56 8 C59 13.75 59 13.75 59 16 C59.66 16 60.31999999999999 16 61 16 C61 16.659999999999997 61 17.319999999999993 61 18 C67.99527085027955 14.557301256930486 74.88021318536956 11.015947704919455 81.625 7.1015625 C84 6 84 6 88 6 C88 15.569999999999993 88 25.14 88 35 C45.75999999999999 35 3.519999999999996 35 -40 35 C-40 23.78 -40 12.560000000000002 -40 1 C-34.695473556935895 1 -30.184175164492732 1.0072383392056423 -25.0625 1.625 C-21.06615536264329 1.9952197443236486 -17.73029298007547 1.9324447145198604 -13.8125 1.0625 C-3.683186915404889 -1.1866605730970008 -3.683186915404889 -1.1866605730970008 0 0 Z " fill="#D18443" transform="translate(40,93)"/>
<path d="M0 0 C31.02000000000001 0 62.040000000000006 0 94 0 C94 8.91 94 17.82 94 27 C93.01 27 92.02 27 91 27 C91 27.66 91 28.32 91 29 C90.275546875 29.4344140625 89.55109375 29.868828125 88.8046875 30.31640625 C85.69156492467661 32.1851469602568 83.60940526151464 34.29831549695329 81.125 36.9375 C77.27962853397298 40.85726109260195 74.02802926970101 43.78766712133156 69 46 C67.68 46 66.36 46 65 46 C64.0178037281186 44.230845247283945 63.03934641192248 42.459614314334644 62.0625 40.6875 C61.5172265625 39.7013671875 60.971953125 38.715234375 60.41015625 37.69921875 C59 35 59 35 58 32 C56.357672284516184 31.275443654933614 54.68375165479344 30.622256046336705 53 30 C51.88624999999999 29.34 50.77250000000001 28.68 49.625 28 C44.906626579690766 25.251034615993753 39.51277421992947 23.129561965274295 34 24 C33.26265624999999 24.66515625 32.5253125 25.3303125 31.765625 26.015625 C28.308415683664244 28.496221515110964 26.57240485292236 28.361873863031736 22.375 28.125 C15.972233897530003 27.922380819542088 10.23105008013426 28.575759981683596 4 30 C3.8788281249999983 29.01 3.7576562499999966 28.02 3.6328125 27 C2.6545636292276527 18.67651682434936 2.6545636292276527 18.67651682434936 0.875 10.5 C0 7 0 7 0 0 Z " fill="#A65916" transform="translate(34,0)"/>
<path d="M0 0 C11.22 0 22.44 0 34 0 C34.66 3.6300000000000003 35.32 7.260000000000001 36 11 C36.208828125 12.1279296875 36.41765625 13.255859375 36.6328125 14.41796875 C37.62699687029224 20.012228420930125 38.51631848568055 25.32049665751397 38 31 C36.57031250000001 32.73828124999999 36.57031250000001 32.73828124999999 35 34 C33.3678139841385 38.50226592015728 32.993452056494846 43.35221023282482 32.796875 48.109375 C32.7660986328125 48.82327392578125 32.735322265625 49.5371728515625 32.70361328125 50.272705078125 C32.65181587167457 51.69906417969439 32.61848379212663 53.126231385835055 32.60498046875 54.553466796875 C32.44121983977803 59.534822521862985 32.44121983977803 59.534822521862985 30.2734375 61.8203125 C29.523203125 62.209609375 28.77296875 62.59890625 28 63 C26.824375 63.61681640625 26.824375 63.61681640625 25.625 64.24609375 C8.540983606557369 72 8.540983606557369 72 0 72 C0 48.239999999999995 0 24.479999999999997 0 0 Z " fill="#AF6C34" transform="translate(0,0)"/>
<path d="M0 0 C7.604306626568373 1.782459732028677 15.774875109526974 4.764317563553348 20.234375 11.39453125 C25.31640625 19.895014658183626 25.31640625 19.895014658183626 25.31640625 22.54296875 C34.27813128513914 20.053600684683573 39.96700293185222 14.089291816366192 46.25390625 7.48046875 C48.31640625 5.54296875 48.31640625 5.54296875 51.31640625 5.54296875 C51.31640625 4.88296875 51.31640625 4.22296875 51.31640625 3.54296875 C52.30640625000001 3.54296875 53.29640624999999 3.54296875 54.31640625 3.54296875 C54.31640625 16.742968750000003 54.31640625 29.942968750000006 54.31640625 43.54296875 C50.35640624999999 44.53296875000001 46.39640625 45.52296874999999 42.31640625 46.54296875 C41.01703125 46.91421875 39.717656250000005 47.28546875000001 38.37890625 47.66796875 C37.368281249999995 47.95671874999999 36.35765624999999 48.24546875 35.31640625 48.54296875 C34.47078125 48.85234375 33.62515625 49.161718750000006 32.75390625 49.48046875 C29.502349014954305 49.56384201243708 28.002258812202513 48.16038618546929 25.6640625 46.01953125 C23.870966777624304 44.05492202374489 22.65252921789454 41.83346526639065 21.31640625 39.54296875 C18.332728987661895 38.548409662553965 16.115987046729984 38.3473724272216 12.9921875 38.2265625 C11.964160156250003 38.18466796875 10.936132812500006 38.1427734375 9.876953125 38.099609375 C8.805097656249998 38.06029296875 7.733242187499997 38.0209765625 6.62890625 37.98046875 C5.545449218750008 37.93728515625 4.461992187500002 37.8941015625 3.345703125 37.849609375 C0.6693983392856069 37.74350037468533 -2.006999014071752 37.641445144519544 -4.68359375 37.54296875 C-4.8653515624999955 36.2384375 -5.047109375000005 34.93390625 -5.234375 33.58984375 C-5.486711719220011 31.823993755083293 -5.740730139088441 30.05838355979295 -5.99609375 28.29296875 C-6.127819824218747 27.381601562499995 -6.259545898437494 26.470234375000004 -6.395263671875 25.53125 C-7.301018540114583 19.496450877883916 -8.520480078683747 13.694246711810244 -10.328125 7.85546875 C-10.767491082241378 4.997175116078083 -10.32105066207798 3.8952288342234773 -8.68359375 1.54296875 C-5.308316300221435 -0.707216216519047 -3.903738101245011 -0.6110823915392736 0 0 Z " fill="#BA6C27" transform="translate(73.68359375,23.45703125)"/>
<path d="M0 0 C1.2466093734688855 11.10817995287448 1.8826136599004428 21.580725120839517 -0.8125 32.5 C-1.0603625488281239 33.50583129882813 -1.0603625488281239 33.50583129882813 -1.313232421875 34.531982421875 C-2.682813715680254 39.64487108246658 -4.076092314913097 43.763202202444134 -8.625 46.6875 C-13.15666962584676 47.10709903943025 -15.038967375195973 45.697594614049095 -18.6171875 43.03515625 C-24.808549412138895 37.74712419061579 -30.74066830312524 32.549551301519585 -31.859375 24.14453125 C-31.905781249999997 23.436835937500007 -31.9521875 22.729140625 -32 22 C-32.103125 20.700625000000002 -32.20625 19.401250000000005 -32.3125 18.0625 C-32.203377946807116 13.152007606320353 -30.5860926302322 8.607221449722104 -29 4 C-27.9004296875 3.962617187500001 -26.800859375 3.9252343750000023 -25.66796875 3.88671875 C-17.132889221576733 3.5301240550285087 -8.109663739760045 0 0 0 Z " fill="#B6763A" transform="translate(69,62)"/>
<path d="M0 0 C23.208443271767813 0 23.208443271767813 0 30.71484375 6.48046875 C36.83138623787645 13.530834518468268 40 24.86744991880539 40 34 C26.799999999999997 34 13.599999999999998 34 0 34 C0 22.78 0 11.560000000000002 0 0 Z " fill="#F1B077" transform="translate(0,94)"/>
<path d="M0 0 C2.4375 1.375 2.4375 1.375 4 4 C3.769689134659181 6.808889377293866 3.206087231234605 9.445918506799458 2.58984375 12.1953125 C1.2030075592657 18.78967266521343 2.1419362300985654 25.380650917903196 3 32 C1.4453906250000017 32.19916015625 1.4453906250000017 32.19916015625 -0.140625 32.40234375 C-1.510432650125722 32.58060638939992 -2.880223440227006 32.75899861836599 -4.25 32.9375 C-5.272871093749998 33.068017578124994 -5.272871093749998 33.068017578124994 -6.31640625 33.201171875 C-10.161235903616603 33.68741464550429 -10.161235903616603 33.68741464550429 -13.931640625 34.5546875 C-16.358748227868745 35.0772375788046 -18.29990227799094 34.92885680303945 -20.765625 34.66015625 C-21.567744140625003 34.57644775390625 -22.369863281249998 34.4927392578125 -23.1962890625 34.406494140625 C-24.204013671875 34.29297607421876 -25.21173828125 34.1794580078125 -26.25 34.0625 C-29.4675 33.71187499999999 -32.685 33.36125 -36 33 C-36 25.739999999999995 -36 18.47999999999999 -36 11 C-33.48375 10.319375000000008 -30.9675 9.638750000000002 -28.375 8.9375 C-21.00796568199671 6.870823738349955 -14.599911971951364 4.022225026768666 -7.953125 0.2578125 C-4.652410216005084 -1.1480475005904296 -3.340603471051466 -1.1539217516585367 0 0 Z " fill="#C47F3F" transform="translate(36,61)"/>
<path d="M0 0 C0.9899999999999949 0 1.980000000000004 0 3 0 C3 13.200000000000003 3 26.400000000000006 3 40 C-0.960000000000008 40.99000000000001 -4.920000000000002 41.97999999999999 -9 43 C-10.299374999999998 43.37125 -11.598749999999995 43.74250000000001 -12.9375 44.125 C-14.453437500000007 44.558125000000004 -14.453437500000007 44.558125000000004 -16 45 C-16.845625 45.309375 -17.691249999999997 45.618750000000006 -18.5625 45.9375 C-21.81987475084 46.02102242950872 -23.3273881542801 44.62933058277386 -25.63671875 42.4453125 C-28.187527763173065 39.741016411535725 -29.94925916393585 37.79284287426688 -30.05859375 33.9296875 C-29.654305212394632 28.85457607048589 -28.771467006567505 24.320227980825813 -26 20 C-23.447355526943184 18.456749211368106 -20.811418247966273 17.190469587893062 -18.12890625 15.88671875 C-13.712357579975304 13.223556443355896 -10.44361561053364 9.741381442581073 -6.972900390625 5.962158203125 C-5.6982829837633915 4.593428486459558 -4.353470144597367 3.2908094897548885 -3 2 C-2.010000000000005 2 -1.019999999999996 2 0 2 C0 1.3399999999999999 0 0.6799999999999997 0 0 Z " fill="#A46625" transform="translate(125,27)"/>
<path d="M0 0 C0 10.560000000000002 0 21.120000000000005 0 32 C-3.299999999999997 33.31999999999999 -6.599999999999994 34.64 -10 36 C-12.529224521121847 37.37638037495012 -14.985929438709448 38.75412643717864 -17.4375 40.25 C-23.601063829787222 44 -23.601063829787222 44 -27 44 C-27 43.34 -27 42.68000000000001 -27 42 C-27.659999999999997 42 -28.319999999999993 42 -29 42 C-31.511463146119652 37.981658966208556 -32.406894302655076 35.182253158029 -31.58203125 30.46875 C-30.271988307973146 24.912057789523672 -28.669056400792755 19.457750968371727 -27 14 C-26.7744140625 13.138906250000005 -26.548828125 12.277812499999996 -26.31640625 11.390625 C-25.6875 9.25 -25.6875 9.25 -24 6 C-20.9375 4.6875 -20.9375 4.6875 -17 4 C-15.286224354680769 3.4973637732917098 -13.577988307406656 2.975552937660524 -11.875 2.4375 C-3.9689119170984384 0 -3.9689119170984384 0 0 0 Z " fill="#C28438" transform="translate(128,67)"/>
<path d="M0 0 C11.880000000000003 0 23.760000000000005 0 36 0 C35.95875000000001 3.691875 35.91749999999999 7.38375 35.875 11.1875 C35.878625488281244 12.920362548828125 35.878625488281244 12.920362548828125 35.88232421875 14.688232421875 C35.68143502966194 21.913294231938487 35.68143502966194 21.913294231938487 33.841552734375 24.847412109375 C31.304838056378074 27.214034936130517 29.138844227696012 27.982207985193444 25.73828125 28.41796875 C24.6077734375 28.3419140625 23.477265625 28.265859375 22.3125 28.1875 C15.914515186712407 27.935932053037575 10.227274702566227 28.57662292512772 4 30 C3.8788281249999983 29.01 3.7576562499999966 28.02 3.6328125 27 C2.6545636292276527 18.67651682434936 2.6545636292276527 18.67651682434936 0.875 10.5 C0 7 0 7 0 0 Z " fill="#996026" transform="translate(34,0)"/>
<path d="M0 0 C0 9.569999999999993 0 19.14 0 29 C-11.879999999999995 29 -23.760000000000005 29 -36 29 C-34.76379916561868 21.582794993712042 -32.161050626972695 17.394910733507402 -27 12 C-23.184277650223507 9.514480858270588 -19.16749087191816 7.808533774605991 -15 6 C-12.10134756835322 4.40518868754377 -9.23632021191166 2.762150122984451 -6.375 1.1015625 C-4 0 -4 0 0 0 Z " fill="#CE9D63" transform="translate(128,99)"/>
<path d="M0 0 C10.89 0 21.78 0 33 0 C31.51254480286738 13.387096774193548 31.51254480286738 13.387096774193548 25.8125 19.25 C18.62404071941029 23.72281910792249 12.507816854737655 26.45992849592974 3.9453125 24.5390625 C2.2815861114520715 24.078029886305995 0.637828718198648 23.54594290606622 -1 23 C-2.4791070661380132 14.421179016399547 -1.3415063098969995 9.390544169278995 0 0 Z " fill="#914708" transform="translate(70,0)"/>
<path d="M0 0 C2.5968319180240513 -0.32233403178270237 4.334924896395904 -0.3263190753347516 6.859375 0.41015625 C9.3838949399059 2.7039643500551023 11.407132075308894 5.174866884969617 13.51953125 7.8515625 C15.99862053973041 10.562419736683509 17.901804333087178 11.53611998284019 21.234375 12.97265625 C23.90632415040018 14.38966194251394 25.47115930760242 15.431852705158107 26.60400390625 18.28662109375 C30.023728192413486 31.081449865173028 30.023728192413486 31.081449865173028 27.859375 35.41015625 C20.929375 35.41015625 13.999375 35.41015625 6.859375 35.41015625 C6.281874999999999 33.12078124999999 5.704374999999999 30.83140625 5.109375 28.47265625 C1.8930682564448844 16.081196883417633 1.8930682564448844 16.081196883417633 -6.140625 6.41015625 C-9.307079744247002 4.61694801406982 -9.307079744247002 4.61694801406982 -12.140625 3.41015625 C-8.102245676162834 0.7179033674418918 -4.651748932409582 0.8913022589470927 0 0 Z " fill="#D58B4F" transform="translate(33.140625,92.58984375)"/>
</svg>
