<?xml version="1.0" encoding="UTF-8"?>
<!-- Generator: visioncortex VTracer 0.6.0 -->
<svg version="1.1" xmlns="http://www.w3.org/2000/svg" width="128" height="128">
<path d="M0 0 C42.24 0 84.48 0 128 0 C128 42.24 128 84.48 128 128 C85.75999999999999 128 43.519999999999996 128 0 128 C0 85.75999999999999 0 43.519999999999996 0 0 Z " fill="#245181" transform="translate(0,0)"/>
<path d="M0 0 C42.24 0 84.48 0 128 0 C128 28.380000000000003 128 56.760000000000005 128 86 C126.02 86.66 124.04 87.32 122 88 C118.48853792682043 86.24426896341022 118.144701494015 82.15690924184221 116.95315551757813 78.59075927734375 C116.49014460266642 77.19323148836827 116.03143799762867 75.79427157268474 115.57666015625 74.39404296875 C114.88923379627778 72.29349380616263 114.17407445153405 70.20387156699859 113.45703125 68.11328125 C110.58703993973066 59.48425359469381 109.5801305281207 52.164178087002625 110 43 C109.45724379062078 35.8656124582915 108.8794310331879 29.470877219028853 104 24 C100.34075355980035 21.56050237320023 98.42616896195179 21.670032703425715 94.0625 21.625 C92.22365234374999 21.5824609375 92.22365234374999 21.5824609375 90.34765625 21.5390625 C86.84244001518644 21.71167871649977 84.14900316645806 22.66482817945866 80.8984375 23.95703125 C71.49196306085881 27.286102030663418 61.42993701365999 26.829448772747742 51.5625 27.0625 C48.555628459189435 27.137942949280458 45.54941152249383 27.21889489528929 42.54319763183594 27.317245483398438 C40.6849202807205 27.377787770730585 38.826157639670356 27.42528180472506 36.96717834472656 27.457778930664063 C32.19478910883731 27.610305149506107 28.854574654110927 27.875746069603633 25 31 C21.620115225006007 35.8950055361982 21.43129051754961 40.26776950228576 22 46 C22.35898866729726 47.794943336486305 22.73466692183566 49.586611190894104 23.125 51.375 C24.624234956656057 58.99876924767655 22.794254121334404 65.59221384048207 20.5 72.875 C17.364126770058885 82.93526335696845 14.159336734924008 96.89782158375057 18.25 107.0625 C21.72001548890462 113.07803780010838 27.81729822621602 117.51235444077597 33 122 C35 124 35 124 35 128 C23.45 128 11.899999999999999 128 0 128 C0 85.75999999999999 0 43.519999999999996 0 0 Z " fill="#6BA8B3" transform="translate(0,0)"/>
<path d="M0 0 C-0.28617187500000796 1.6048828125000014 -0.28617187500000796 1.6048828125000014 -0.578125 3.2421875 C-0.9592021734869149 6.636597137911309 -1.0415178122594568 8.098796498725378 0.25 11.125 C0.5297265625000023 11.791445312500002 0.8094531250000045 12.457890625000005 1.09765625 13.14453125 C2.0621515608409453 15.196731469256562 2.0621515608409453 15.196731469256562 3.6875 17.8125 C5 20 5 20 5 23 C4.46632812499999 22.855625000000003 3.932656250000008 22.71125 3.3828125 22.5625 C-4.911643063841524 20.496061243610413 -12.627549120741627 19.396620867521413 -20.3125 23.796875 C-24.358105619056282 26.68124196914198 -26.559192839639252 30.319100182368658 -28 35 C-27.631313337619034 37.492961665748176 -27.631313337619034 37.492961665748176 -26.6875 40 C-24.718530630993904 46.4782608257031 -22.586760960498147 54.5816867391398 -24.7109375 61.22265625 C-26.34726555975493 63.47880554451059 -27.94065096154118 64.28642476948471 -30.4375 65.5 C-33.93158979438812 67.20387245327657 -35.91118278302647 68.68893369941037 -38 72 C-39.010989290462064 75.36996430154021 -39.11329522505272 77.66011432484186 -38 81 C-37.34 81 -36.68 81 -36 81 C-35.505 81.99 -35.505 81.99 -35 83 C-30.555243265670015 85.30081525071199 -25.76606109373911 85.79552223289511 -20.875 86.5 C-15.690836717548393 87.26880256842617 -10.558245015323365 88.06109587026428 -5.4375 89.1875 C7.099817871906438 91.50778122357211 24.954139758408132 92.11413807979794 36 85.3125 C44.657496146723574 78.66874379949235 46.190131289868646 71.60906780491632 48 61 C51.465 60.504999999999995 51.465 60.504999999999995 55 60 C55 73.86 55 87.72 55 102 C24.310000000000002 102 -6.3799999999999955 102 -38 102 C-38.66 100.35 -39.32 98.7 -40 97 C-41.74447559654146 94.85830874535279 -41.74447559654146 94.85830874535279 -43.8125 92.9375 C-44.88177734375 91.89916015625 -44.88177734375 91.89916015625 -45.97265625 90.83984375 C-48.05065745715941 88.88751547349533 -48.05065745715941 88.88751547349533 -50.75 87 C-54.72549271598184 83.46622869690503 -56.694062472438745 79.60613449404035 -57.31640625 74.3046875 C-57.54710813504647 62.76959324767637 -55.42926315220137 51.88676816691435 -51.89453125 40.96484375 C-49.859048609842276 34.218418754892085 -49.77875718392099 29.047668723378578 -51.5078125 22.26171875 C-52.63540971010609 17.08014109403632 -52.61205085537746 12.573845056684895 -50.6875 7.625 C-48.36217097825779 4.007821521734336 -47.11106522619491 2.3703550753983045 -43 1 C-41.29361590561118 0.8509019196487273 -39.58261255682756 0.7520063878904111 -37.87109375 0.68359375 C-36.84363037109375 0.6416186523437517 -35.816166992187505 0.5996435546874999 -34.757568359375 0.556396484375 C-33.661945800781254 0.5171606445312484 -32.5663232421875 0.4779248046875004 -31.4375 0.4375 C-29.766029052734375 0.3738122558593737 -29.766029052734375 0.3738122558593737 -28.060791015625 0.308837890625 C-18.703718219932426 -0.02464831801316336 -9.361540011321438 -0.10760390817610954 0 0 Z " fill="#466990" transform="translate(73,26)"/>
<path d="M0 0 C11.879999999999995 0 23.760000000000005 0 36 0 C36 28.380000000000003 36 56.760000000000005 36 86 C34.019999999999996 86.66 32.040000000000006 87.32 30 88 C26.488537926820413 86.2442689634102 26.144701494014996 82.15690924184221 24.953155517578125 78.59075927734375 C24.49014460266642 77.19323148836827 24.03143799762867 75.79427157268474 23.57666015625 74.39404296875 C22.889233796277765 72.29349380616262 22.174074451534068 70.20387156699861 21.45703125 68.11328125 C18.58703993973066 59.48425359469382 17.580130528120705 52.16417808700262 18 43 C17.45724379062078 35.865612458291494 16.8794310331879 29.470877219028857 12 24 C8.34075355980039 21.56050237320026 6.4261689619517455 21.670032703425715 2.0625 21.625 C0.22365234374998977 21.5824609375 0.22365234374998977 21.5824609375 -1.65234375 21.5390625 C-5.157559984813531 21.711678716499765 -7.850996833541956 22.664828179458667 -11.1015625 23.95703125 C-20.508036939141164 27.286102030663407 -30.57006298634002 26.829448772747742 -40.4375 27.0625 C-43.44437154081056 27.137942949280458 -46.450588477506194 27.21889489528929 -49.45680236816406 27.317245483398438 C-51.315079719279495 27.377787770730585 -53.173842360329644 27.42528180472506 -55.03282165527344 27.457778930664063 C-59.8052108911627 27.610305149506107 -63.145425345889066 27.87574606960363 -67 31 C-70.379884774994 35.89500553619819 -70.56870948245039 40.26776950228576 -70 46 C-69.64101133270273 47.794943336486305 -69.26533307816433 49.586611190894104 -68.875 51.375 C-67.20920370010008 59.81030892289748 -69.28378317320696 67.3986473997415 -73 75 C-73.33 75 -73.66 75 -74 75 C-74.146953125 73.8140625 -74.29390624999999 72.628125 -74.4453125 71.40625 C-75.57088613928453 63.06886004064994 -76.9254797534768 55.408994610101274 -80.1875 47.625 C-82.98577376683988 40.77029406339099 -84.69201738042516 34.380517530566145 -83 27 C-79.56280837724168 20.900348834533645 -72.46382251921023 17.167567551554704 -66 15 C-61.650920081135695 14.394608075294089 -57.49970979396933 14.816404165525075 -53.16015625 15.34765625 C-46.369937373736335 16.123936200374427 -41.227616307745805 15.519840826101236 -34.640625 13.76171875 C-29.56066954458769 12.6988525334706 -24.533379456638215 12.511945505558174 -19.35498046875 12.37939453125 C-13.689359373303446 12.196306708909962 -8.349753252457234 11.778191650508179 -3.6875 8.25 C-1.515776233286715 5.601421253249587 -1.515776233286715 5.601421253249587 0 0 Z " fill="#5189C6" transform="translate(92,0)"/>
<path d="M0 0 C1.8761345877966846 1.709453209128796 3.354972717015656 3.4251658949576154 4.84375 5.4765625 C5.940204846620134 7.15430708071068 5.940204846620134 7.15430708071068 8 8 C8 8.659999999999997 8 9.32 8 10 C8.990000000000009 10.329999999999998 9.97999999999999 10.659999999999997 11 11 C11 11.659999999999997 11 12.32 11 13 C11.990000000000009 13.329999999999998 12.97999999999999 13.659999999999997 14 14 C16.01589988083876 19.0397497020969 16.418555554399575 22.769076393151536 15 28 C12.756904949253823 32.930292812881675 10.560433511588599 36.95971099227427 6 40 C4.21875 40.54296875 4.21875 40.54296875 2 41 C0.9996874999999932 41.2230078125 -0.0006249999999994316 41.446015625 -1.03125 41.67578125 C-10.851443649172694 43.47836184100805 -19.750493235614073 42.868551498813986 -29.39453125 40.3828125 C-31 39 -31 39 -31.50390625 35.7265625 C-31.539929207272863 34.35971010254366 -31.558404338414512 32.99232086776988 -31.5625 31.625 C-31.694317097476294 26.241057633353478 -32.2135954810251 21.676168660710644 -33.875 16.5 C-35.21860665137615 11.699541284403672 -35.21860665137615 11.699541284403672 -34.2578125 8.625 C-26.829553651993145 -3.9246050102972987 -12.688301632519568 -6.322274434134748 0 0 Z " fill="#3A586B" transform="translate(79,49)"/>
<path d="M0 0 C0 13.86 0 27.72 0 42 C-30.689999999999998 42 -61.379999999999995 42 -93 42 C-93.66 40.349999999999994 -94.32 38.7 -95 37 C-96.46722953609721 34.96992481216515 -96.46722953609721 34.96992481216515 -98.125 33.1875 C-98.66382812500001 32.5829296875 -99.20265625 31.978359374999997 -99.7578125 31.35546875 C-100.3726953125 30.684511718750002 -100.3726953125 30.684511718750002 -101 30 C-98.66978473625112 29.320353881406575 -96.33681108908631 28.656258142665607 -94 28 C-93.35160156250001 27.80921875 -92.703203125 27.6184375 -92.03515625 27.421875 C-83.31387032569907 25.004092763560138 -75.83872344657694 26.27188792772337 -67.125 28 C-52.458339465339904 30.714657852919814 -32.35854308286197 33.53820386875738 -19 25.3125 C-10.342503853276426 18.668743799492347 -8.809868710131354 11.60906780491635 -7 1 C-4.509351118638818 0.3129244465210519 -2.621137084277777 0 0 0 Z " fill="#3B88B1" transform="translate(128,86)"/>
<path d="M0 0 C30.360000000000003 0 60.720000000000006 0 92 0 C90.8616187989556 6.830287206266323 90.8616187989556 6.830287206266323 88.3125 9.3125 C87.59513671875 10.049199218750001 87.59513671875 10.049199218750001 86.86328125 10.80078125 C82.2343206410914 13.780007469989396 75.91404792916049 13.178285748949603 70.5625 13.375 C64.52747664624314 13.635726848411691 58.89687357002458 14.305252100299688 53 15.625 C46.90779511568213 16.968010022421513 42.105293337533205 16.913228751328496 36 16 C28.196410397228423 15.201207363495822 22.481562392857867 16.43850764496091 16 21 C11.09191316658665 25.52128489382736 7.312059880614493 30.63437480205883 4.10546875 36.46875 C2.9999999999999987 38 2.9999999999999987 38 0 39 C0 26.13 0 13.259999999999998 0 0 Z " fill="#BBD9D8" transform="translate(0,0)"/>
<path d="M0 0 C0.8043750000000003 0.8043750000000003 1.6087500000000006 1.6087500000000006 2.4375 2.4375 C6.3102626288563854 5.669379924317504 10.065415933135256 6.043980250150312 15 6 C18.393427040972135 5.6461935618989685 18.393427040972135 5.6461935618989685 21 5 C26.82713788481375 23.28768430517019 26.82713788481375 23.28768430517019 24.2890625 31.22265625 C22.652734440245077 33.47880554451058 21.059349038458805 34.28642476948471 18.5625 35.5 C15.068410205611883 37.203872453276574 13.088817216973531 38.68893369941037 11 42 C9.98901070953795 45.36996430154018 9.886704774947283 47.66011432484186 11 51 C11.659999999999997 51 12.32 51 13 51 C13.329999999999998 51.66 13.659999999999997 52.31999999999999 14 53 C15.643631335749632 53.721594244963256 17.31050386078384 54.39351420643521 19 55 C18.67 55.66 18.340000000000003 56.31999999999999 18 57 C15.19921875 57.88671875 15.19921875 57.88671875 11.6875 58.6875 C10.536367187500005 58.95949218749999 9.385234374999996 59.23148437500001 8.19921875 59.51171875 C3.9544610372625044 60.15957554376335 2.090440529317604 59.681525330823504 -1.5 57.4375 C-6.355334164143176 52.7035491899604 -8.239036759563511 48.173162021824396 -8.375 41.375 C-7.975132952322177 30.778523236537666 -6.1997691527428245 20.92471642998656 -2.8828125 10.86328125 C-1.862623500250539 7.5544381667417895 -1.3896549556784557 4.428963609970403 -1 1 C-0.6700000000000017 0.6700000000000017 -0.33999999999999986 0.3400000000000034 0 0 Z " fill="#3F728D" transform="translate(24,56)"/>
<path d="M0 0 C-0.4702526023571636 4.326323941685828 -1.3246915603481284 7.964827589125477 -2.8125 12.0625 C-3.8981033943096293 15.66299366956963 -4.124596288357424 16.63313315094757 -2.875 20.3125 C1.209244557760286 24.13038078225418 5.832328278211293 25.98638998426854 11 28 C11 28.33 11 28.659999999999997 11 29 C-3.2900854449592316 30.932805348431287 -16.5980517811129 30.02634454200077 -30.75 27.6875 C-31.741117858886717 27.52746490478515 -31.741117858886717 27.52746490478515 -32.75225830078125 27.36419677734375 C-39.37913349104321 26.279237649284397 -45.055407396832855 25.24041869865674 -51 22 C-51 21.340000000000003 -51 20.680000000000007 -51 20 C-51.66 20 -52.32 20 -53 20 C-54.304015626937606 16.884851557871286 -55.15591772545323 14.799078342947809 -54.5 11.4375 C-52.52316049326334 8.225135801552938 -50.04048012405983 6.141492010455607 -47 4 C-46.0925 3.360624999999999 -45.185 2.7212499999999977 -44.25 2.0625 C-40.1784410691425 0.7314134264504304 -37.78554427377999 1.3982282331271705 -33.6953125 2.375 C-21.137361279087486 5.286988688907243 -11.601274701282236 0 0 0 Z " fill="#12537A" transform="translate(88,87)"/>
<path d="M0 0 C4.194043290015031 3.1507489392650285 6.36208728739544 8.239802709086089 7.1689453125 13.306396484375 C7.370933261857019 15.64094932269473 7.489228971792443 17.962917982957904 7.5703125 20.3046875 C7.612851562499998 21.09810546875 7.6553906249999955 21.8915234375 7.69921875 22.708984375 C7.867765029451107 26.426366205116224 7.854845200349331 29.513968587038654 6.8203125 33.1171875 C-18.40081084390745 30.676433628008958 -18.40081084390745 30.676433628008958 -27.046875 23.5859375 C-30.438085318434958 19.331874852022416 -32.249384876660116 13.536158535323693 -32.1796875 8.1171875 C-30.819211901978434 4.944297492285333 -29.801239917021874 3.4716348750663926 -26.7890625 1.75390625 C-18.536287632057537 -0.9857444233743422 -8.400700410509074 -3.402434216442746 0 0 Z " fill="#285A9D" transform="translate(103.1796875,21.8828125)"/>
<path d="M0 0 C11.879999999999995 0 23.760000000000005 0 36 0 C36 12.870000000000001 36 25.740000000000002 36 39 C35.010000000000005 39.495 35.010000000000005 39.495 34 40 C33.48050781250001 39.1427734375 32.961015625 38.285546875 32.42578125 37.40234375 C30.307598796357752 33.91989093448292 28.1573971468395 30.458299546244593 26 27 C25.538515625000002 26.2471875 25.077031250000005 25.494375 24.6015625 24.71875 C21.350015305104264 19.74322811787767 17.545372003241766 16.8352656075434 11.6953125 15.45703125 C7.464448955421489 14.7396239533106 3.2126636907423745 14.176552607778424 -1.0390625 13.59765625 C-4 13.000000000000002 -4 13.000000000000002 -7 11 C-6.216250000000002 10.29875 -5.4325000000000045 9.5975 -4.625 8.875 C-1.4944422219438849 5.83712155267648 -1.4944422219438849 5.83712155267648 0 0 Z " fill="#6EB6EC" transform="translate(92,0)"/>
<path d="M0 0 C0.33000000000000007 0 0.6600000000000001 0 1 0 C1.0025781249999994 0.6084375000000009 1.0051562500000006 1.2168750000000017 1.0078125 1.84375 C1.2742512307462484 7.883027896914939 2.582622931276042 12.875553336738179 4.875 18.4375 C12.536079541737141 38.0466389075104 12.536079541737141 38.0466389075104 11 47 C7.566542310830766 53.85183651277339 1.26581407810394 58.82279061459738 -5 63 C-5.99 63 -6.98 63 -8 63 C-8.10134735170868 55.52534554574869 -8.171443495694247 48.050867996616645 -8.2197265625 40.57568359375 C-8.239852717048215 38.032321966568205 -8.267156371899718 35.48900666537068 -8.3017578125 32.94580078125 C-8.350229698573044 29.291875957567278 -8.372959164793814 25.638562442560556 -8.390625 21.984375 C-8.411270141601563 20.845709838867187 -8.431915283203125 19.707044677734373 -8.45318603515625 18.53387451171875 C-8.453488159179688 17.473076782226563 -8.453790283203125 16.412279052734377 -8.4541015625 15.3193359375 C-8.467425231933595 13.920350646972658 -8.467425231933595 13.920350646972658 -8.48101806640625 12.49310302734375 C-7.853544653425938 9.240926082792697 -6.440936834014602 8.165772313513983 -4 6 C-2.6578302480276053 4.005919225641016 -1.3227886964976543 2.006989746410234 0 0 Z " fill="#91B7BE" transform="translate(8,29)"/>
<path d="M0 0 C16.5 0 33 0 50 0 C48.86161879895562 6.8302872062663145 48.86161879895562 6.8302872062663145 46.3125 9.3125 C45.59513671875 10.049199218750001 45.59513671875 10.049199218750001 44.86328125 10.80078125 C40.23477031770915 13.779718055478604 33.91374542513023 13.179019472670024 28.5625 13.375 C22.648484510011286 13.62344760424833 17.213624409182486 14.283666765648368 11.4375 15.6875 C3.0221706162027075 17.58596910176772 -4.612011487288186 16.427087396899562 -13 15 C-12.2098046875 14.37609375 -11.419609375 13.7521875 -10.60546875 13.109375 C-8.07291212223987 11.147237018301436 -8.07291212223987 11.147237018301436 -6.3125 9.25 C-5 8 -5 8 -3 8 C-1.5268006039176782 5.250027793979669 -0.7759512516117297 3.103805006446914 0 0 Z " fill="#A3BCDC" transform="translate(42,0)"/>
<path d="M0 0 C7.944807054400272 1.4528946668617806 15.679179391848777 2.6202632543478757 23.75 3.0625 C23.75 6.6924999999999955 23.75 10.322500000000005 23.75 14.0625 C7.25 14.0625 -9.25 14.0625 -26.25 14.0625 C-26.909999999999997 12.412499999999994 -27.57 10.762500000000003 -28.25 9.0625 C-29.717229536097207 7.032424812165132 -29.717229536097207 7.032424812165132 -31.375 5.25 C-31.913828125000002 4.645429687499998 -32.452656250000004 4.040859374999997 -33.0078125 3.41796875 C-33.417734374999995 2.9706640625000063 -33.827656250000004 2.5233593749999983 -34.25 2.0625 C-31.919784736251124 1.3828538814065752 -29.586811089086307 0.7187581426656067 -27.25 0.0625 C-26.6016015625 -0.12828125000000057 -25.953203125 -0.31906250000000114 -25.28515625 -0.515625 C-16.50308520098099 -2.9502585581438865 -8.800417037401388 -1.6726931357096078 0 0 Z " fill="#2D84AC" transform="translate(61.25,113.9375)"/>
<path d="M0 0 C0.9294140625000011 0.05671874999999993 1.8588281250000023 0.11343749999999986 2.81640625 0.171875 C7.8828698388617795 0.5466347533724214 7.8828698388617795 0.5466347533724214 10 1 C10.494999999999997 1.990000000000002 10.494999999999997 1.990000000000002 11 3 C-0.5216400911161543 9.51936218678815 -0.5216400911161543 9.51936218678815 -6 11 C-6 11.66 -6 12.32 -6 13 C-6.763124999999999 13.412500000000001 -7.526250000000001 13.825 -8.3125 14.25 C-11.763094095160817 16.496898480569836 -12.635664872858648 18.12241595444037 -14 22 C-14.62079203997121 26.976036195394222 -13.937247903248021 31.508099475968223 -12.875 36.375 C-11.209203700100076 44.810308922897484 -13.28378317320696 52.398647399741506 -17 60 C-17.33 60 -17.66 60 -18 60 C-18.2204296875 58.221093749999994 -18.2204296875 58.221093749999994 -18.4453125 56.40625 C-19.570886139284525 48.06886004064995 -20.92547975347679 40.408994610101274 -24.1875 32.625 C-26.98577376683989 25.770294063390992 -28.69201738042515 19.380517530566145 -27 12 C-21.650979774654324 2.507611727084978 -10.17079617673464 -0.9402893229646825 0 0 Z " fill="#749CB7" transform="translate(36,15)"/>
<path d="M0 0 C-4.824937166376358 7.23740574956453 -12.895889389747765 9.794709187550314 -21 12 C-23.83498252831272 12.449965900769442 -26.632940309411353 12.599530171156466 -29.5 12.6875 C-30.287375488281242 12.72093505859375 -31.0747509765625 12.754370117187499 -31.885986328125 12.788818359375 C-42.91624201429293 13.197032186076399 -53.96461156857001 13.087850612130183 -65 13 C-52.666460234558635 3.6759021220244747 -40.5600505373343 -0.775156941412769 -25.1875 -1.5625 C-24.431464843750007 -1.6056835937499994 -23.6754296875 -1.6488671875000005 -22.896484375 -1.693359375 C-7.416498041212208 -2.5247652906254316 -7.416498041212208 -2.5247652906254316 0 0 Z " fill="#6187B4" transform="translate(95,14)"/>
</svg>
