<?xml version="1.0" encoding="UTF-8"?>
<!-- Generator: visioncortex VTracer 0.6.0 -->
<svg version="1.1" xmlns="http://www.w3.org/2000/svg" width="128" height="128">
<path d="M0 0 C42.24 0 84.48 0 128 0 C128 42.24 128 84.48 128 128 C85.75999999999999 128 43.519999999999996 128 0 128 C0 85.75999999999999 0 43.519999999999996 0 0 Z " fill="#5C648F" transform="translate(0,0)"/>
<path d="M0 0 C4.273199743430155 3.3121963076805727 6.69494912367594 7.473156637954705 8.7890625 12.38671875 C9.813401522899511 24.41217823801204 6.023075357948443 35.93820234768697 2.4375 47.2587890625 C1.0638590867841344 51.76656549306833 0.7807622393377187 54.721331518749594 1.5390625 59.44921875 C1.7221093750000023 60.5990625 1.9051562500000045 61.748906250000005 2.09375 62.93359375 C2.7391889889284897 66.13903232422913 3.6342007940776284 69.1009793321831 4.6640625 72.19921875 C5.755102622022093 75.99030765884447 5.992209806939783 78.10217163774318 4.2890625 81.69921875 C3.493106527000066 82.95291298223313 2.66076688775955 84.18445979318179 1.7890625 85.38671875 C1.1496874999999989 86.37671875 0.5103124999999977 87.36671875 -0.1484375 88.38671875 C-4.437680190507621 93.25845118860124 -10.682603363114225 96.15171441729164 -16.2109375 99.38671875 C-17.189335937500005 100.0067578125 -18.167734374999995 100.626796875 -19.17578125 101.265625 C-20.492558593750005 102.09900390625 -20.492558593750005 102.09900390625 -21.8359375 102.94921875 C-22.999960937499992 103.69365234374999 -22.999960937499992 103.69365234374999 -24.1875 104.453125 C-26.2109375 105.38671875 -26.2109375 105.38671875 -29.2109375 104.38671875 C-29.2109375 103.72671875 -29.2109375 103.06671875 -29.2109375 102.38671875 C-30.182890625 102.433125 -31.154843749999998 102.47953125 -32.15625 102.52734375 C-43.674531042168866 102.89505418879227 -54.33950489038136 101.2021516960011 -65.5986328125 98.89501953125 C-68.03477693072195 98.4209959747885 -70.46666866127013 98.0243202434232 -72.921875 97.6640625 C-85.13483844087693 95.8292317332241 -85.13483844087693 95.8292317332241 -90.14453125 91.27734375 C-92.07813037638206 87.84927789956438 -92.70600430233891 84.32357202950428 -91.720947265625 80.4697265625 C-90.96043128656238 78.41538565576971 -90.12780468711117 76.4037468500897 -89.2734375 74.38671875 C-84.98535888242378 63.27686266624286 -84.96290828770915 53.58433885261796 -88.52734375 42.140625 C-90.40721916562525 34.56741261133828 -90.27106929744934 26.86902177869763 -86.4765625 19.97265625 C-84.94762212076189 18.056761824164596 -83.2181529695261 16.77827569315886 -81.2109375 15.38671875 C-80.0391796875 15.952617187499996 -78.86742187499999 16.518515625 -77.66015625 17.1015625 C-64.33225576292173 23.957144334002358 -64.33225576292173 23.957144334002358 -49.8984375 23.66015625 C-41.548989610147956 19.630387997606135 -35.356474792536545 11.959103004420825 -29.4609375 5.01171875 C-21.137695732801575 -4.63390722320192 -10.768858986351134 -7.255466768796419 0 0 Z " fill="#14183C" transform="translate(108.2109375,20.61328125)"/>
<path d="M0 0 C4.273199743430155 3.3121963076805727 6.69494912367594 7.473156637954705 8.7890625 12.38671875 C9.813401522899511 24.41217823801204 6.023075357948443 35.93820234768697 2.4375 47.2587890625 C1.0638590867841344 51.76656549306833 0.7807622393377187 54.721331518749594 1.5390625 59.44921875 C1.7221093750000023 60.5990625 1.9051562500000045 61.748906250000005 2.09375 62.93359375 C2.7391889889284897 66.13903232422913 3.6342007940776284 69.1009793321831 4.6640625 72.19921875 C5.755102622022093 75.99030765884447 5.992209806939783 78.10217163774318 4.2890625 81.69921875 C3.493106527000066 82.95291298223313 2.66076688775955 84.18445979318179 1.7890625 85.38671875 C1.1496874999999989 86.37671875 0.5103124999999977 87.36671875 -0.1484375 88.38671875 C-4.437680190507621 93.25845118860124 -10.682603363114225 96.15171441729164 -16.2109375 99.38671875 C-17.189335937500005 100.0067578125 -18.167734374999995 100.626796875 -19.17578125 101.265625 C-20.492558593750005 102.09900390625 -20.492558593750005 102.09900390625 -21.8359375 102.94921875 C-22.999960937499992 103.69365234374999 -22.999960937499992 103.69365234374999 -24.1875 104.453125 C-26.2109375 105.38671875 -26.2109375 105.38671875 -29.2109375 104.38671875 C-29.2109375 103.72671875 -29.2109375 103.06671875 -29.2109375 102.38671875 C-30.182890625 102.433125 -31.154843749999998 102.47953125 -32.15625 102.52734375 C-43.674531042168866 102.89505418879227 -54.33950489038136 101.2021516960011 -65.5986328125 98.89501953125 C-68.03477693072195 98.4209959747885 -70.46666866127013 98.0243202434232 -72.921875 97.6640625 C-85.13483844087693 95.8292317332241 -85.13483844087693 95.8292317332241 -90.14453125 91.27734375 C-92.07813037638206 87.84927789956438 -92.70600430233891 84.32357202950428 -91.720947265625 80.4697265625 C-90.96043128656238 78.41538565576971 -90.12780468711117 76.4037468500897 -89.2734375 74.38671875 C-84.98535888242378 63.27686266624286 -84.96290828770915 53.58433885261796 -88.52734375 42.140625 C-90.40721916562525 34.56741261133828 -90.27106929744934 26.86902177869763 -86.4765625 19.97265625 C-84.94762212076189 18.056761824164596 -83.2181529695261 16.77827569315886 -81.2109375 15.38671875 C-80.0391796875 15.952617187499996 -78.86742187499999 16.518515625 -77.66015625 17.1015625 C-64.33225576292173 23.957144334002358 -64.33225576292173 23.957144334002358 -49.8984375 23.66015625 C-41.548989610147956 19.630387997606135 -35.356474792536545 11.959103004420825 -29.4609375 5.01171875 C-21.137695732801575 -4.63390722320192 -10.768858986351134 -7.255466768796419 0 0 Z M-31.751953125 16.720703125 C-32.46029296875 17.24986328125 -33.16863281249999 17.7790234375 -33.8984375 18.32421875 C-35.33940760884313 19.37559801473335 -36.78080589127755 20.42639072550662 -38.22265625 21.4765625 C-38.901669921875 21.976718750000003 -39.580683593749995 22.476875 -40.2802734375 22.9921875 C-41.99465886071903 24.23049927762102 -43.75444964963765 25.405400322192975 -45.51953125 26.5703125 C-48.938128788221476 28.877493712297507 -51.43302055692515 31.34423828853707 -54.2109375 34.38671875 C-54.2109375 35.04671875 -54.2109375 35.70671875 -54.2109375 36.38671875 C-55.1803125 36.304218750000004 -56.1496875 36.22171875 -57.1484375 36.13671875 C-61.908833568824534 36.13671875 -66.25463653984875 37.77604357466598 -70.2109375 40.38671875 C-72.41650307693659 43.54941655843737 -72.43218002867164 46.351935202276465 -72.5234375 50.13671875 C-73.01762380135528 58.36072474613894 -75.53381532326979 65.66285949686622 -78.2109375 73.38671875 C-79.40848567400383 76.9793632720115 -79.54188708451952 79.61389348647745 -79.2109375 83.38671875 C-76.99230720645967 86.29388947946664 -75.69148821422954 87.22653517859015 -72.2109375 88.38671875 C-69.48399908014507 88.6898134674445 -66.76867019216883 88.9514738005013 -64.03515625 89.17578125 C-62.83098808288574 89.27709854125976 -62.83098808288574 89.27709854125976 -61.60249328613281 89.38046264648438 C-59.90386067327216 89.52190112360273 -58.20505761950117 89.66130522070516 -56.506103515625 89.798828125 C-53.91803172632052 90.0101190715662 -51.331158586573686 90.23325185501963 -48.744140625 90.45703125 C-47.09120573175815 90.59317710411167 -45.43821247879177 90.72861663200047 -43.78515625 90.86328125 C-43.01620529174804 90.93092681884765 -42.2472543334961 90.99857238769532 -41.45500183105469 91.06826782226563 C-37.182472463203084 91.40106216899068 -33.44117783127487 91.30125203077299 -29.2109375 90.38671875 C-29.2109375 89.72671875 -29.2109375 89.06671875 -29.2109375 88.38671875 C-28.550937500000003 88.38671875 -27.890937500000007 88.38671875 -27.2109375 88.38671875 C-26.8809375 86.73671875 -26.550937500000003 85.08671875 -26.2109375 83.38671875 C-25.344687499999992 83.48984375 -24.4784375 83.59296875 -23.5859375 83.69921875 C-19.99721558796911 83.36692968407121 -18.303617671548167 82.39619727405862 -15.5078125 80.1640625 C-11.218235670487275 74.28527497762562 -11.58949580929891 65.90410195630061 -11.0859375 58.94921875 C-10.956386718749997 57.279560546875004 -10.956386718749997 57.279560546875004 -10.82421875 55.576171875 C-10.613364220395852 52.8467771306797 -10.409125238346093 50.117057544031525 -10.2109375 47.38671875 C-9.220937500000005 47.38671875 -8.230937499999996 47.38671875 -7.2109375 47.38671875 C-2.829727887285472 37.45076123545098 -1.1782821874394358 27.695039021188947 -5.16015625 17.296875 C-7.202680971280998 13.583883963916712 -10.105034335716297 11.142007225049468 -14.139404296875 9.695068359375 C-20.56469128502114 8.738658522483007 -26.79033930962855 13.135566034473214 -31.751953125 16.720703125 Z " fill="#2D3B57" transform="translate(108.2109375,20.61328125)"/>
<path d="M0 0 C13.530000000000001 0 27.060000000000002 0 41 0 C41 30.360000000000003 41 60.720000000000006 41 92 C31.000000000000085 94.99999999999999 31.000000000000085 94.99999999999999 26 96 C25.341484854927444 94.04589459276144 24.69893801609345 92.0864068396332 24.0625 90.125 C23.52302734375 88.4891796875 23.52302734375 88.4891796875 22.97265625 86.8203125 C20.751012659144024 78.09433887808379 20.818571225042433 71.79543863706664 23.8125 63.3125 C29.44562014459916 46.17512458194932 29.44562014459916 46.17512458194932 27.08984375 28.7421875 C23.206844224852105 22.450411998234944 18.71231392688341 19.1907422029626 11.6875 16.9375 C4.699907975424921 17.05593376312839 -1.7164747678323664 19.307168916159707 -6.75 24.25 C-7.856257181831467 25.479758577427862 -8.939536558936965 26.730540114347896 -10 28 C-24.703072016538727 45.170484102072805 -24.703072016538727 45.170484102072805 -34.02734375 46.23046875 C-41.82863144852759 46.083777870198624 -55.344645056129956 41.655354943870044 -61 36 C-60.962074165211334 34.3721064759942 -60.84487354026592 32.74571257885802 -60.6875 31.125 C-60.608867187499996 30.240703125 -60.530234375 29.35640625 -60.44921875 28.4453125 C-60 26 -60 26 -58 23 C-53.703683667815135 21.96984236644638 -49.54075659445704 22.132840509652326 -45.66796875 24.3125 C-44.308178877959506 25.361985318680603 -42.97892207483156 26.452851695921193 -41.69140625 27.58984375 C-38.88044627479212 29.933392366743746 -36.153375143354324 30.177746584095132 -32.625 30.25 C-31.874765624999995 30.27578125 -31.124531250000004 30.3015625 -30.3515625 30.328125 C-25.811012832794724 29.694559930157403 -23.469032394539646 27.57343240379888 -20.61328125 24.08203125 C-19.45024741654217 22.429298960349414 -18.287349759237927 20.776458250015338 -17.130859375 19.119140625 C-16.128429895357016 17.715739353499817 -15.06839410716205 16.353858937366457 -14 15 C-13.340000000000003 15 -12.680000000000007 15 -12 15 C-12 14.34 -12 13.68 -12 13 C-10.390625 11.921874999999998 -10.390625 11.921874999999998 -8.25 10.75 C-4.1875778541574675 8.322630739097633 -2.2193136779168583 6.1612131460940915 0 2 C0 1.3399999999999999 0 0.6799999999999999 0 0 Z " fill="#4F738D" transform="translate(87,0)"/>
<path d="M0 0 C28.71 0 57.42 0 87 0 C87.495 1.4849999999999999 87.495 1.4849999999999999 88 3 C85.33660264562248 7.29717464524168 82.18920274845571 10.481075164310234 77.5625 12.5 C76.716875 12.665 75.87125 12.83 75 13 C75 13.66 75 14.32 75 15 C73.84238859942946 16.15761140057055 72.67959349527615 17.310470580754846 71.4921875 18.4375 C69.79205484168413 20.217743621273158 68.42399492602543 22.118126321870896 67 24.125 C64.12578203100936 27.98154562927858 61.907087258552565 30.565860314885345 56.93359375 31.30859375 C50.30403105142357 31.678772377839294 46.188283682915326 29.751071785469133 41.1484375 25.40234375 C38.4774293649822 23.658903894597472 36.60332870470673 23.538675497658307 33.4375 23.375 C30.316361718441335 23.19713323225853 27.98268823576088 22.994229411920294 25 22 C19.954598327877065 22.2912111032232 17.88852181866982 23.5836938876931 14.5625 27.3125 C10.913612848327878 31.176751486087845 7.825786545739133 33.780138188959995 3 36 C2.01 36 1.02 36 0 36 C0 24.119999999999997 0 12.239999999999998 0 0 Z " fill="#608093" transform="translate(0,0)"/>
<path d="M0 0 C1.7890625000000142 0.92578125 1.7890625000000142 0.92578125 3.625 2.3125 C4.236015624999993 2.762382812499993 4.847031250000001 3.2122656250000006 5.4765625 3.67578125 C8.434584972922082 6.246985399539966 8.368744133331674 9.202752773087127 8.875 12.9375 C9.510379199987113 17.434793399908813 10.429490582979142 21.512109484362924 11.875 25.8125 C12.966040122022108 29.603588908844486 13.20314730693977 31.715452887743197 11.5 35.3125 C10.704044027000066 36.56619423223313 9.87170438775955 37.79774104318179 9 39 C8.360624999999999 39.99000000000001 7.721249999999998 40.97999999999999 7.0625 42 C2.7732573094923936 46.87173243860124 -3.471665863114225 49.76499566729163 -9 53 C-9.978398437500005 53.6200390625 -10.956796874999995 54.240078125 -11.96484375 54.87890625 C-13.281621093750005 55.712285156250005 -13.281621093750005 55.712285156250005 -14.625 56.5625 C-15.401015625 57.0587890625 -16.17703125 57.555078124999994 -16.9765625 58.06640625 C-19 59 -19 59 -22 58 C-22 57.34 -22 56.68000000000001 -22 56 C-22.971953125 56.04640624999999 -23.943906249999998 56.09281250000001 -24.9453125 56.140625 C-36.463593542168866 56.50833543879227 -47.128567390381356 54.815432946001096 -58.3876953125 52.50830078125 C-60.82383943072194 52.0342772247885 -63.255731161270134 51.637601493423205 -65.7109375 51.27734375 C-77.92390094087693 49.44251298322409 -77.92390094087693 49.44251298322409 -82.93359375 44.890625 C-84.88038817878169 41.43916528010868 -85.46244848368268 37.9179342058967 -84.526123046875 34.03466796875 C-83.78898642220356 31.930093184925028 -82.97440780866427 29.874235833190383 -82.125 27.8125 C-79.44010917944986 20.8487073691864 -78.02900860045293 14.52773181753605 -78 7 C-76.25057272478591 8.430009373840733 -74.53170354046019 9.880797273989245 -72.83984375 11.37890625 C-71.3701940343813 12.6738205429549 -69.84896838341997 13.91011802241212 -68.3125 15.125 C-66.60475837303541 18.865767373351005 -67.41598130990498 20.058092431187205 -68.75 23.875 C-69.1483203125 24.923007812500003 -69.54664062500001 25.971015625000007 -69.95703125 27.05078125 C-71.26545227642316 30.75062347827523 -71.57522322409517 33.137786923932396 -71 37 C-69.16884793144234 39.61593152651095 -68.09031633639273 39.969894554535756 -65 41 C-62.27293523902151 41.29122572663664 -59.557461652366634 41.54068435786007 -56.82421875 41.75390625 C-56.021439971923826 41.81907943725585 -55.21866119384765 41.88425262451172 -54.39155578613281 41.95140075683594 C-52.692903506139274 42.088460165484605 -50.99410134919411 42.22367274504205 -49.295166015625 42.357177734375 C-46.70744764947956 42.56092936305474 -44.12032154755529 42.77120338513339 -41.533203125 42.982421875 C-39.88023957716099 43.11497353233179 -38.22724566624986 43.24714720287453 -36.57421875 43.37890625 C-35.80526779174804 43.441390533447276 -35.0363168334961 43.50387481689452 -34.24406433105469 43.56825256347656 C-30.150414609518805 43.88669048797621 -26.11017232985448 44.064749569052495 -22 44 C-22 43.34 -22 42.68000000000001 -22 42 C-21.340000000000003 42 -20.680000000000007 42 -20 42 C-19.67 40.349999999999994 -19.340000000000003 38.7 -19 37 C-17.741874999999993 36.731875 -16.48375 36.463750000000005 -15.1875 36.1875 C-10.899738805580057 35.14478148605038 -10.899738805580057 35.14478148605038 -8 32 C-6.079872210847753 26.306858461735374 -5.441892428689698 20.781874743014626 -4.9375 14.8125 C-4.782668805856346 13.0479362254206 -4.6252136608474785 11.283600269322264 -4.46484375 9.51953125 C-4.399020996093753 8.747141113281245 -4.333198242187507 7.974750976562504 -4.265380859375 7.178955078125 C-4.000266842988864 5.002190960143167 -3.762169021632687 3.0604280076840524 -3 1 C-2.010000000000005 0.6700000000000017 -1.019999999999996 0.3400000000000034 0 0 Z " fill="#404053" transform="translate(101,67)"/>
<path d="M0 0 C6.300104259085359 -0.2855816491068879 11.316696822254983 0.322781970186071 16.46875 4.18359375 C19.650743542605653 8.95658406390848 18.26541642681596 13.817420030640463 17.78125 19.37109375 C17.701972656250007 20.48291015625 17.6226953125 21.5947265625 17.541015625 22.740234375 C16.936864384498975 30.081323908857797 16.331490410828252 37.002771071301936 11.21875 42.68359375 C7.603310334257742 44.655651749495775 5.5758939406619845 44.56150082644109 1.46875 44.18359375 C-1.5452060247811517 43.060579617274584 -4.292209676352996 41.56744658930779 -7.09375 39.99609375 C-7.822714843749992 39.60873046875 -8.551679687499998 39.22136718749999 -9.302734375 38.822265625 C-15.294140434192272 35.559618761083414 -21.9211777970513 31.78554108687024 -24.53125 25.18359375 C-24.65175882109329 18.07357330549617 -21.946900661032494 12.693957804080128 -17.53125 7.18359375 C-11.983714877094002 2.2799689538598784 -7.292777579981916 0.5289514602764669 0 0 Z " fill="#3A2026" transform="translate(79.53125,59.81640625)"/>
<path d="M0 0 C5.2383387059852 5.0967619842018195 6.103314210977047 10.749562836175222 6.375 17.75 C6.2952769862314 24.06406269047298 4.528204835390852 29.2663926054529 2 35 C0.0625 34.6875 0.0625 34.6875 -2 34 C-2.3299999999999983 33.00999999999999 -2.6599999999999966 32.02000000000001 -3 31 C-5.376253451745001 29.81608776798538 -5.376253451745001 29.81608776798538 -8 29 C-8.990000000000009 28.67 -9.97999999999999 28.340000000000003 -11 28 C-18.7034454585972 27.464865662811505 -26.456582444596705 27.380952241658434 -32.875 32.125 C-33.926874999999995 33.053124999999994 -33.926874999999995 33.053124999999994 -35 34 C-35.66 34 -36.32 34 -37 34 C-38.46652016856196 36.88019276348206 -39.8204787448166 39.79308515491762 -41.125 42.75 C-41.478203125 43.549218749999994 -41.83140625 44.3484375 -42.1953125 45.171875 C-42.460859375 45.77515625000001 -42.72640625 46.37843749999999 -43 47 C-43.33 47 -43.66 47 -44 47 C-43.98259765625 45.0470703125 -43.98259765625 45.0470703125 -43.96484375 43.0546875 C-43.95546026598085 41.32812644047641 -43.946360664774495 39.601563821772984 -43.9375 37.875 C-43.92912109375 37.01906249999999 -43.9207421875 36.16312500000001 -43.912109375 35.28125 C-43.89784916901484 31.57359644385818 -43.94484822111009 28.26801285808861 -44.6953125 24.62109375 C-45 22 -45 22 -43.83984375 19.98046875 C-38.44312734930047 14.894035838457725 -32.62301646861408 10.987591051900026 -26.3359375 7.11328125 C-23.60382338053701 5.382515748091947 -21.12904377322235 3.596416977854524 -18.625 1.5625 C-12.456343379020723 -3.1461973780609362 -6.9572859137740295 -4.1476127562883605 0 0 Z " fill="#1F1731" transform="translate(99,33)"/>
<path d="M0 0 C1.4801153120120176 0.5809220848815428 2.9590266684286988 1.164911619165089 4.4375 1.75 C5.814218750000002 2.2933398437499974 5.814218750000002 2.2933398437499974 7.21875 2.84765625 C9.685914759370895 3.8698663679977727 12.045387050857258 5.004444139282661 14.4375 6.1875 C19.515877166378516 8.492578997505142 24.499618908192986 8.677446787826128 30 9 C32.00440123377169 9.305756120405853 34.00775284202932 9.62308837551906 36 10 C33.74355492506466 14.764772390793695 31.03735138265732 19.884463674005858 25.8515625 21.7890625 C24.325216569283114 22.09641543485425 22.79196332042619 22.371251964806035 21.25390625 22.61328125 C17.8063549245161 23.204802187994638 15.101319431568541 24.38472946272472 12 26 C10.607665329365616 30.177004011903165 10.617951545788827 34.29667487395358 10.37890625 38.67578125 C9.996976744870182 42.0265236094379 9.17734332682884 44.84929579338517 8 48 C6.9148188934449735 47.085521539419915 5.831952624866016 46.16829592530645 4.75 45.25 C3.8450781250000006 44.484296875 3.8450781250000006 44.484296875 2.921875 43.703125 C2.2876562499999977 43.14109375000001 1.653437499999999 42.57906249999999 1 42 C0.3090624999999996 41.40574218750001 -0.38187500000000085 40.81148437499999 -1.09375 40.19921875 C-6.889740469811493 33.51245105634453 -7.6748923605239945 22.43654576406201 -7.39453125 13.921875 C-6.607036187984868 8.08973335260081 -4.229115459865206 3.9988770823940314 0 0 Z " fill="#1A3258" transform="translate(26,36)"/>
<path d="M0 0 C1.7494272752140816 1.4300093738407327 3.4682964595398147 2.880797273989245 5.16015625 4.37890625 C6.629805965618697 5.6738205429549 8.151031616580031 6.910118022412121 9.6875 8.125 C11.39524162696459 11.865767373351005 10.584018690095021 13.058092431187205 9.25 16.875 C8.851679687500003 17.923007812500003 8.453359374999998 18.971015625000007 8.04296875 20.05078125 C6.734547723576842 23.75062347827523 6.424776775904824 26.137786923932396 7 30 C8.831152068557667 32.61593152651096 9.909683663607268 32.969894554535756 13 34 C15.73877091686613 34.29120691967479 18.466019948091272 34.5406368596509 21.2109375 34.75390625 C22.016087951660154 34.81907943725585 22.821238403320308 34.88425262451172 23.650787353515625 34.95140075683594 C25.353637341447843 35.08844543786833 27.05663556224893 35.223658764361204 28.759765625 35.357177734375 C31.358444488564025 35.56120022543712 33.956574235197905 35.771331330068705 36.5546875 35.982421875 C38.21090848902447 36.1149463975745 39.86715765259742 36.24711937410983 41.5234375 36.37890625 C42.297549743652354 36.441390533447276 43.07166198730468 36.50387481689452 43.869232177734375 36.56825256347656 C47.5883490650084 36.85752632277382 51.26912691269577 37.07350790841157 55 37 C55.0268727918517 38.81242051710851 55.04633715457393 40.62495233436317 55.0625 42.4375 C55.074101562500005 43.4468359375 55.08570312500001 44.456171874999995 55.09765625 45.49609375 C55 48 55 48 54 49 C42.25531951155705 50.07410121408549 31.10462393439493 47.82422828094296 19.64453125 45.50830078125 C17.194919746092452 45.037465187533655 14.748931631248261 44.639586758689646 12.28125 44.27734375 C0.0738306391977801 42.44045186015882 0.0738306391977801 42.44045186015882 -4.93359375 37.890625 C-6.880388178781672 34.43916528010868 -7.462448483682673 30.917934205896714 -6.526123046875 27.03466796875 C-5.788986422203571 24.930093184925028 -4.974407808664271 22.87423583319037 -4.125 20.8125 C-1.4401091794498626 13.8487073691864 -0.029008600452932853 7.527731817536036 0 0 Z " fill="#303D68" transform="translate(23,74)"/>
<path d="M0 0 C1.6237651393291657 0.6944820351509655 3.2133691741965436 1.46801271209827 4.79296875 2.2578125 C3.79296875 4.2578125 3.79296875 4.2578125 1.53515625 5.08203125 C0.5889843749999955 5.366914062500001 -0.3571874999999949 5.651796875000002 -1.33203125 5.9453125 C-7.132320532554218 7.976163140274153 -10.316748955695743 10.600832235285413 -14.20703125 15.2578125 C-28.91010326653872 32.428296602072805 -28.91010326653872 32.428296602072805 -38.234375 33.48828125 C-46.035662698527595 33.341590370198624 -59.55167630612995 28.91316744387005 -65.20703125 23.2578125 C-65.16910541521133 21.6299189759942 -65.05190479026592 20.00352507885802 -64.89453125 18.3828125 C-64.8158984375 17.498515625 -64.73726562499999 16.61421875 -64.65625 15.703125 C-64.20703125 13.2578125 -64.20703125 13.2578125 -62.20703125 10.2578125 C-57.910714917815135 9.227654866446379 -53.74778784445704 9.390653009652318 -49.875 11.5703125 C-48.515210127959506 12.619797818680603 -47.18595332483156 13.71066419592119 -45.8984375 14.84765625 C-43.08747752479212 17.19120486674375 -40.360406393354324 17.435559084095132 -36.83203125 17.5078125 C-36.081796874999995 17.53359375 -35.331562500000004 17.559375 -34.55859375 17.5859375 C-30.018044082794724 16.952372430157403 -27.67606364453964 14.831244903798876 -24.8203125 11.33984375 C-23.65727866654217 9.687111460349414 -22.494381009237927 8.034270750015338 -21.337890625 6.376953125 C-20.335461145357016 4.973551853499817 -19.27542535716205 3.611671437366457 -18.20703125 2.2578125 C-17.547031250000003 2.2578125 -16.887031250000007 2.2578125 -16.20703125 2.2578125 C-16.20703125 1.5978124999999999 -16.20703125 0.9378124999999997 -16.20703125 0.2578125 C-11.071994841550918 -2.7995999822719817 -5.511983502265764 -1.8535873724433571 0 0 Z " fill="#3F586B" transform="translate(91.20703125,12.7421875)"/>
<path d="M0 0 C1.0518749999999955 0.46406249999999716 1.0518749999999955 0.46406249999999716 2.125 0.9375 C5.447041855915288 2.2674498964579826 5.447041855915288 2.2674498964579826 11 3 C11 21.150000000000006 11 39.30000000000001 11 58 C0.9999999999999716 61 0.9999999999999716 61 -4 62 C-4.658515145072556 60.04589459276144 -5.30106198390655 58.08640683963321 -5.9375 56.125 C-6.297148437499999 55.034453125 -6.656796874999998 53.94390625 -7.02734375 52.8203125 C-9.248640312550066 44.095701904923814 -9.183513635486065 37.7940418361552 -6.1875 29.3125 C-3.734132944792975 21.840914021067157 -2.128225162921254 14.784038142804391 -1.32421875 6.96875 C-1.058991748521379 4.540165408147544 -0.6713993733113313 2.341290122316437 0 0 Z " fill="#4A638D" transform="translate(117,34)"/>
<path d="M0 0 C0 11.879999999999995 0 23.760000000000005 0 36 C-15.510000000000005 36 -31.02000000000001 36 -47 36 C-45.84857303977515 32.545719119325426 -45.357359555334455 32.334660167848995 -42.32421875 30.625 C-41.578496093750005 30.197031249999995 -40.832773437499995 29.769062500000004 -40.064453125 29.328125 C-38.887861328125 28.670703125000003 -38.887861328125 28.670703125000003 -37.6875 28 C-36.14850405468164 27.12717494343913 -34.61070426077603 26.25223678345253 -33.07421875 25.375 C-32.389323730468746 24.990859375 -31.704428710937492 24.60671875 -30.998779296875 24.2109375 C-28.924115462224137 23.0058351315824 -28.924115462224137 23.0058351315824 -26.870361328125 21.3515625 C-25 20 -25 20 -23 20 C-22.67 19.010000000000005 -22.340000000000003 18.019999999999996 -22 17 C-21.340000000000003 17 -20.680000000000007 17 -20 17 C-18.931061412859478 14.941824387040839 -17.967485869133213 12.914724302226631 -17.140625 10.74609375 C-15.590187477836906 6.727196488603553 -14.700153471714998 4.476700236061276 -11.0625 2 C-7.244053667445613 0.753160381206726 -4.019018024142937 0 0 0 Z " fill="#777A87" transform="translate(128,92)"/>
<path d="M0 0 C13.530000000000001 0 27.060000000000002 0 41 0 C39.81088821800235 4.756447127990604 38.392150116283894 5.777399163812504 34.75 8.9375 C31.034290145581323 12.186235507849844 27.478936660001057 15.499720170305684 24 19 C21.852724698900477 21.041969627387456 19.67819691379244 23.053606094588176 17.5 25.0625 C16.9444140625 25.57876953125 16.388828125 26.0950390625 15.81640625 26.626953125 C14.22295927643339 28.098548271176224 12.61430400240364 29.55135826894277 11 31 C10.1646875 31.7618359375 9.329375 32.523671875 8.46875 33.30859375 C5.999999999999999 35 5.999999999999999 35 0 36 C0 24.119999999999997 0 12.239999999999998 0 0 Z " fill="#80A7D5" transform="translate(0,0)"/>
<path d="M0 0 C0.6600000000000001 0.9899999999999984 1.3200000000000003 1.9800000000000004 2 3 C1.4026538854438328 5.021786849267027 0.7235142721048824 7.019855676344527 0 9 C-0.10312499999999858 10.134374999999999 -0.2062500000000007 11.268749999999997 -0.3125 12.4375 C-1.0765263100619293 16.39654542486636 -2.3688429216394553 18.34263014669095 -4.84375 21.421875 C-8.413724855571765 26.29440824882093 -7.383506290015472 33.29214805026974 -7 39 C-6.357933060985317 41.88556827824622 -5.548811975746528 44.65621001192895 -4.66796875 47.4765625 C-3.7109085178997177 51.09212337682328 -3.789512376812862 54.28138532369388 -4 58 C-5.649999999999999 58 -7.300000000000001 58 -9 58 C-9.510468750000001 56.89205078124999 -9.510468750000001 56.89205078124999 -10.03125 55.76171875 C-15.696457638589845 43.166445053363745 -15.696457638589845 43.166445053363745 -25.2265625 33.734375 C-27.38859010063513 31.619969152682827 -27.28886034385481 30.932562543439325 -27.390625 27.98828125 C-27.36408759329394 26.429208606019174 -27.31645598657035 24.87038168517799 -27.25 23.3125 C-27.231953125 22.51521484375 -27.21390625 21.717929687500003 -27.1953125 20.896484375 C-27.148222467304485 18.930475509962285 -27.076478986121224 16.965085060059238 -27 15 C-25.9519921875 14.597812500000003 -24.903984375 14.195625 -23.82421875 13.78125 C-20.21291519776309 12.232379812984725 -17.669592746692878 10.225366690009103 -14.8125 7.5 C-6.041069723018147 -0.7879656160458453 -6.041069723018147 -0.7879656160458453 0 0 Z " fill="#4F6790" transform="translate(27,21)"/>
<path d="M0 0 C8.607726845030884 4.303863422515441 13.84338899647128 14.592843280998409 18 23 C19.562649228510228 28.348448905828818 18.342368977064243 32.07378070802983 16 37 C13.899738647028585 40.2141202763151 11.512488769037702 43.10097449726419 9 46 C8.2742578125 46.84691406249999 7.548515625 47.69382812500001 6.80078125 48.56640625 C2.914662231320308 53.02462896622319 2.914662231320308 53.02462896622319 1 55 C0.6699999999999999 55 0.33999999999999997 55 0 55 C0 36.849999999999994 0 18.69999999999999 0 0 Z " fill="#777DAB" transform="translate(0,53)"/>
</svg>
