<?xml version="1.0" encoding="UTF-8"?>
<!-- Generator: visioncortex VTracer 0.6.0 -->
<svg version="1.1" xmlns="http://www.w3.org/2000/svg" width="128" height="128">
<path d="M0 0 C42.24 0 84.48 0 128 0 C128 42.24 128 84.48 128 128 C85.75999999999999 128 43.519999999999996 128 0 128 C0 85.75999999999999 0 43.519999999999996 0 0 Z " fill="#64516D" transform="translate(0,0)"/>
<path d="M0 0 C6.672324077919228 1.6177981053932555 12.7244315453338 4.805479234007883 18.90625 7.71875 C21.93249753649998 8.972044434308074 24.925752220729933 9.918116232751984 28.067626953125 10.82373046875 C36.930020291508754 13.38967044948209 43.42573466609147 15.45250103843162 48.25 23.6953125 C55.41137333277241 36.88028522909879 55.41137333277241 36.88028522909879 53.51171875 45.1171875 C50.827601998493265 50.841607112218156 46.625106330798886 54.126979230873374 41.65625 57.921875 C38.98055926621386 59.91426663033123 38.98055926621386 59.91426663033123 36.84375 62.24609375 C35 64 35 64 32 64.3125 C28.99999999999997 64 28.99999999999997 64 27.0546875 63.3359375 C24.27751856723357 62.88187565928153 23.38253570282501 63.703212500998234 21.125 65.3125 C13.969772498723486 70.03023241842408 7.4963544494917755 70.86608000194819 -1 70 C-9.209497839549172 67.85448178528215 -15.873747112288584 62.22683136943641 -20.875 55.5 C-24.274013843471707 49.56883490400911 -24.458415709718395 42.68059222210337 -25 36 C-25.0617138671875 35.301489257812506 -25.123427734375 34.602978515625 -25.18701171875 33.88330078125 C-26.971719273804506 13.23844760461153 -26.971719273804506 13.23844760461153 -21 6 C-20.340000000000003 6 -19.68 6 -19 6 C-18.731875000000002 5.381250000000001 -18.463749999999997 4.762500000000003 -18.1875 4.125 C-14.604333451873188 -2.2869822440164036 -6.290020157423584 -0.5380059479950496 0 0 Z " fill="#6C1818" transform="translate(58,32)"/>
<path d="M0 0 C42.24 0 84.48 0 128 0 C128 6.6000000000000005 128 13.200000000000001 128 20 C118.53740316931535 19.116824295802765 118.53740316931535 19.116824295802765 115.699951171875 18.5 C112.81124422049955 17.965044593867717 110.06051041033837 17.789800591340963 107.125 17.68359375 C105.98482421875 17.64129638671875 104.8446484375 17.5989990234375 103.669921875 17.555419921875 C98.64995832953521 17.394121199651778 93.63007171969248 17.236490509847584 88.609375 17.099609375 C86.34876583119122 17.037222433653003 84.08829905547654 16.969123428602963 81.828125 16.892578125 C70.27526555350224 16.51417564312942 60.582542755625056 16.708728622187472 50 22 C49.34444880823453 24.527332350510758 49.34444880823453 24.527332350510758 49 27 C48.34 27 47.68 27 47 27 C46.773125 27.7425 46.54625 28.485 46.3125 29.25 C44.64490380781858 32.74401106933251 43.32787226710116 33.98941050529305 40 36 C38.38659757425922 36.385575833948224 36.75906698502645 36.71441078529173 35.125 37 C30.130264528654727 37.89324628399618 26.9799782771207 38.75103814112596 23 42 C19.617467949891182 48.365650721607 19.701088523250487 55.566599658575015 19.2890625 62.6015625 C18.53191536557222 71.5031571885428 15.88181081049802 78.10906135748296 9 84 C2.6384180790960325 88 2.6384180790960325 88 0 88 C0 58.959999999999994 0 29.919999999999995 0 0 Z " fill="#8377A4" transform="translate(0,0)"/>
<path d="M0 0 C0 0.6599999999999966 0 1.3200000000000003 0 2 C-0.6187499999999986 2.515625 -1.2374999999999972 3.03125 -1.875 3.5625 C-6.736713811370848 9.139171724807738 -6.234709764211175 16.960853809313022 -6 24 C-5.789855605572285 27.03185176466772 -5.474013954888328 30.043789748391276 -5.125 33.0625 C-5.046367187500003 33.813378906249994 -4.967734374999999 34.5642578125 -4.88671875 35.337890625 C-4.464829188159719 39.09270772537852 -3.872193483005532 42.592842576169915 -2.8125 46.22265625 C-1.934900844378305 50.30264847829895 -2.138623030452301 51.68661754834639 -3.875 55.375 C-5.8372870698057255 60.09367693374688 -6.352523646573431 63.73022017648455 -6.04296875 68.80859375 C-6 71 -6 71 -6.4775390625 72.880126953125 C-7.000011369746424 75.00004613248046 -7.200945358700789 76.93211247835774 -7.31640625 79.109375 C-7.354514160156249 79.789677734375 -7.392622070312498 80.46998046875 -7.431884765625 81.1708984375 C-7.496539306640628 82.4475537109375 -7.496539306640628 82.4475537109375 -7.5625 83.75 C-7.706875 86.4725 -7.85125 89.195 -8 92 C-18.23 92 -28.46 92 -39 92 C-39.230225639193584 86.40807503025357 -39.42888361510934 80.83264491432209 -39.54931640625 75.23974609375 C-39.59950332032286 73.34009044945658 -39.66767503983849 71.44081922225249 -39.75439453125 69.54248046875 C-40.460030191280644 53.69473370406172 -40.460030191280644 53.69473370406172 -36.832763671875 49.484375 C-34.25713644170614 47.96486955206821 -31.810721091451498 46.99109747196826 -29 46 C-23.902735686217575 42.04053796287232 -22.148580924706135 36.103887199866875 -21 30 C-20.79688793677615 27.66955632722111 -20.63200937136836 25.335550416517094 -20.5 23 C-19.62423368496378 8.366741026940197 -19.62423368496378 8.366741026940197 -15.12890625 4.3125 C-10.109089146922987 1.070342898563105 -6.005178556779072 -0.13344841237287142 0 0 Z " fill="#8C5761" transform="translate(39,36)"/>
<path d="M0 0 C33.99 0 67.98 0 103 0 C103 6.6000000000000005 103 13.200000000000001 103 20 C93.53740316931535 19.116824295802765 93.53740316931535 19.116824295802765 90.699951171875 18.5 C87.81124422049957 17.96504459386772 85.06051041033838 17.789800591340963 82.125 17.68359375 C80.98482421875 17.64129638671875 79.8446484375 17.5989990234375 78.669921875 17.555419921875 C73.64995832953522 17.394121199651778 68.63007171969245 17.23649050984758 63.609375 17.099609375 C61.34876583119123 17.037222433653003 59.08829905547654 16.969123428602963 56.828125 16.892578125 C46.11439495387249 16.541660496483793 36.99292534348369 16.540791378983084 27 21 C22.800874508255106 22.399708497248298 20.66899402336219 21.045933244892954 16.69921875 19.37109375 C12.32010855109808 17.146683214812484 8.682107364220613 14.224567395885503 5 11 C4.459882812499998 10.53078125 3.919765625 10.0615625 3.36328125 9.578125 C0.8835429610959338 7.276018393682186 -0.7619033468189649 5.452401471124992 -1 2 C-0.6700000000000017 1.3399999999999999 -0.33999999999999986 0.6799999999999999 0 0 Z " fill="#878EDB" transform="translate(25,0)"/>
<path d="M0 0 C6.675307209371482 4.156323356778472 11.927994524901692 10.035650376931358 13.96875 17.7421875 C14.893365474249421 23.983341951183576 14.340461326091372 29.149908047094954 10.75 34.4375 C7.543089824523491 38.21981271892324 4.117264486672212 40.72316019182432 -0.6875 42.0625 C-8.061584529670213 42.0625 -14.185510567608183 38.74387884062898 -19.4375 33.75 C-25.646688390185687 27.01748593683739 -27.302781536734237 21.3148768659932 -28.87890625 12.3671875 C-28.6875 9.0625 -28.6875 9.0625 -26.47265625 6.30859375 C-17.93070645568175 -0.5800754389663325 -10.848241256643426 -2.7580274381296874 0 0 Z " fill="#90361C" transform="translate(61.6875,59.9375)"/>
<path d="M0 0 C0.9417407226562489 -0.0021752929687508527 1.8834814453124977 -0.004350585937499929 2.853759765625 -0.006591796875 C3.8675268554687534 -0.0018383789062497158 4.881293945312507 0.0029150390625005684 5.92578125 0.0078125 C7.509273681640622 0.01397583007812564 7.509273681640622 0.01397583007812564 9.124755859375 0.020263671875 C16.85233233310494 0.07328991049795341 24.57677815984883 0.2041415967775606 32.30078125 0.4453125 C33.27297607421875 0.4677099609375013 34.24517089843749 0.490107421874999 35.246826171875 0.51318359375 C43.69478849725003 0.8273610735830488 50.64834933790253 2.414826117580507 59.23828125 4.1328125 C59.23828125 17.6628125 59.23828125 31.192812500000002 59.23828125 45.1328125 C51.51261753318586 42.55759126106196 51.51261753318586 42.55759126106196 48.23828125 38.1328125 C46.92212091453932 34.189792739823176 46.040303825449115 30.207954234714435 45.23828125 26.1328125 C45.0475 25.184062499999996 44.85671875 24.2353125 44.66015625 23.2578125 C44.5209375 22.5565625 44.381718750000005 21.855312499999997 44.23828125 21.1328125 C43.57828125 21.1328125 42.91828125000001 21.1328125 42.23828125 21.1328125 C41.72652343749999 20.511484374999995 41.214765625 19.890156250000004 40.6875 19.25 C37.14142398926887 16.18465199710323 33.59246179440379 15.968989719480263 29.05078125 15.2578125 C22.149702508041997 14.056752742565944 15.821248637155605 12.437175905759137 9.30078125 9.8828125 C-0.5709137248448712 6.108273322976466 -9.641482745801227 5.957836498682738 -19.76171875 9.1328125 C-19.5625 7.26953125 -19.5625 7.26953125 -18.76171875 5.1328125 C-16.6171875 3.90234375 -16.6171875 3.90234375 -13.94921875 2.9453125 C-13.0765234375 2.6217578125000003 -12.203828125000001 2.2982031250000006 -11.3046875 1.96484375 C-7.420659829725253 0.6940328532741589 -4.1015206862370235 0.005604811089050088 0 0 Z " fill="#5F64AC" transform="translate(68.76171875,15.8671875)"/>
<path d="M0 0 C6.380201465517075 2.3902301097929026 12.550851807193624 3.860134752117652 19.302978515625 4.73486328125 C23.192772622217575 5.27137001416078 25.870970700055977 5.869621688545067 28.682861328125 8.710205078125 C28.682861328125 9.370205078124997 28.682861328125 10.030205078125 28.682861328125 10.710205078125 C29.342861328124997 10.710205078125 30.002861328124993 10.710205078125 30.682861328125 10.710205078125 C35.51363863212292 23.135413678640596 36.08682358228343 29.27548224416183 30.682861328125 41.710205078125 C30.022861328125003 41.710205078125 29.362861328125007 41.710205078125 28.682861328125 41.710205078125 C27.93842773437501 40.064716796875004 27.93842773437501 40.064716796875004 27.178955078125 38.385986328125 C26.49374707229707 36.931092617120484 25.807493142408134 35.47669118238156 25.120361328125 34.022705078125 C24.797451171874997 33.301474609375 24.474541015624993 32.580244140625 24.141845703125 31.837158203125 C21.181661718027527 25.66306017706456 17.72648940352144 22.34834048094585 11.36328125 19.7705078125 C8.777915583222892 18.872204931697524 6.178609001048358 18.061558892717315 3.557861328125 17.272705078125 C-3.8712770072242364 14.929524666888533 -10.836276613170298 12.343461930655621 -17.821044921875 8.874267578125 C-22.221407843590086 6.822142146714839 -26.231981497528466 6.486166080329255 -31.067138671875 6.147705078125 C-32.237607421875 6.063916015624997 -33.408076171875 5.980126953125001 -34.614013671875 5.893798828125 C-35.952060546875 5.802919921875002 -35.952060546875 5.802919921875002 -37.317138671875 5.710205078125 C-36.657138671875 4.060205078125001 -35.997138671875 2.4102050781249993 -35.317138671875 0.710205078125 C-34.657138671875 0.710205078125 -33.997138671875 0.710205078125 -33.317138671875 0.710205078125 C-32.987138671875 -0.279794921875002 -32.657138671875 -1.2697949218750004 -32.317138671875 -2.289794921875 C-21.274928633606123 -7.0580219838547436 -10.668555575851983 -4.061457724216403 0 0 Z " fill="#4A3A81" transform="translate(82.317138671875,26.289794921875)"/>
<path d="M0 0 C5.488436680423462 1.9268756115443537 10.677732640442997 4.50747493687544 15.93359375 6.984375 C18.95984128649998 8.237669434308074 21.953095970729933 9.183741232751984 25.094970703125 10.08935546875 C33.95736404150874 12.65529544948209 40.45307841609147 14.71812603843162 45.27734375 22.9609375 C52.54165906837362 36.33543913783754 52.54165906837362 36.33543913783754 50.46875 44.453125 C47.63809687825545 50.29056077106431 43.42786017976097 53.76021879812674 38.02734375 57.265625 C37.69734375 57.265625 37.36734375 57.265625 37.02734375 57.265625 C37.07374999999999 56.3826171875 37.12015625000001 55.499609375000006 37.16796875 54.58984375 C37.41853054254081 46.25866414801824 36.54091870677672 39.831352096709 33.02734375 32.265625 C32.74463623046876 31.626733398437494 32.4619287109375 30.987841796875003 32.170654296875 30.32958984375 C27.84716308894251 22.524594184586803 18.428896676748636 18.413325898934346 10.83984375 14.515625 C9.79248046875 13.952304687500003 8.7451171875 13.388984375 7.666015625 12.80859375 C-1.7953362338303052 7.894963502872656 -11.42401275981554 5.4922114523470285 -21.97265625 4.265625 C-17.062822060586534 -3.2879660606361014 -7.944999352269242 -1.962759366920654 0 0 Z " fill="#4A1C4F" transform="translate(60.97265625,32.734375)"/>
<path d="M0 0 C0 12.210000000000008 0 24.42 0 37 C-11.219999999999999 37 -22.439999999999998 37 -34 37 C-34 28.228745491304664 -32.69666411907616 20.89096527387437 -27.05859375 13.9453125 C-20.648844167073833 7.888281584824995 -9.197385522912242 0 0 0 Z " fill="#A681B4" transform="translate(128,91)"/>
<path d="M0 0 C10.318839287539056 0.7643584657436406 23.401474385412836 3.4014743854128398 31 11 C31.016676742691388 12.637131470726302 30.962994821563328 14.275100691824164 30.87890625 15.91015625 C30.814251708984372 17.246390380859367 30.814251708984372 17.246390380859367 30.748291015625 18.609619140625 C30.68697998046875 19.74906982421875 30.6256689453125 20.8885205078125 30.5625 22.0625 C30.376875 25.671875 30.19125 29.28125 30 33 C19.77 33 9.54 33 -1 33 C-1.0229116056707888 28.46095634322043 -1.0428378131251816 23.922111977856815 -1.054931640625 19.383056640625 C-1.059971396883327 17.83780234270894 -1.0668031951598032 16.292552835841263 -1.075439453125 14.747314453125 C-1.087520761422208 12.530749713184335 -1.0932317269662504 10.314247816107141 -1.09765625 8.09765625 C-1.1028175354003906 7.402856597900396 -1.1079788208007813 6.708056945800777 -1.1132965087890625 5.9922027587890625 C-1.113492767471995 4.327706701015032 -1.0618912884041165 2.663345013303754 -1 1 C-0.6699999999999999 0.6700000000000017 -0.33999999999999997 0.3400000000000034 0 0 Z " fill="#927A95" transform="translate(1,95)"/>
<path d="M0 0 C1.0428515625000045 0.08250000000000313 2.085703125000002 0.16499999999999915 3.16015625 0.25 C12.634460448437828 2.1311441634954136 20.93308455671665 6.330642980570381 29.3125 11 C30.27027343750001 11.520781249999999 31.22804687499999 12.041562499999998 32.21484375 12.578125 C41.42212087843403 17.649170539443496 41.42212087843403 17.649170539443496 44.9375 21 C44.9375 21.659999999999997 44.9375 22.32 44.9375 23 C45.92750000000001 23.33 46.91749999999999 23.659999999999997 47.9375 24 C49.2890625 26.363281250000014 49.2890625 26.363281250000014 50.5625 29.3125 C50.987890625000006 30.278007812499993 51.41328125 31.243515625 51.8515625 32.23828125 C54.59541696345778 39.216357169657 54.72192095163753 46.72505304332394 52.9375 54 C50.388581852165274 57.42283294137806 49.060624858694865 58.82030002260882 44.8125 59.5 C41.63545779790209 58.947470921374276 41.011580183510176 58.307260795857474 38.9375 56 C39.432500000000005 54.865624999999994 39.92750000000001 53.73125 40.4375 52.5625 C42.63523849028988 46.60021423926142 43.09484967063189 40.97828112983508 40.5 35.0625 C34.50827684932524 24.576984486319176 24.095666057548314 15.170376413453184 12.78125 10.7734375 C3.7711086462135768 8.322877076854795 -2.384011341767561 11.32657790958146 -10.125 15.75 C-10.764375000000001 16.1625 -11.403750000000002 16.575000000000003 -12.0625 17 C-13.482478798819606 11.70735174985419 -12.634981110909237 8.790137241003407 -10.0625 4 C-6.909152820348183 -0.01980744072731966 -5.031249281088044 -0.4890643286598362 0 0 Z " fill="#581731" transform="translate(45.0625,37)"/>
<path d="M0 0 C3.1009991656528086 1.5241081005655275 6.0435994830911 3.210599687134085 9 5 C9.659999999999997 5.329999999999998 10.319999999999993 5.659999999999997 11 6 C11 15.900000000000006 11 25.799999999999997 11 36 C7.875312500000007 37.268437500000005 7.875312500000007 37.268437500000005 4.6875 38.5625 C-5.0473213088617825 42.69373543204475 -13.52085312130123 46.753682550918214 -18.87890625 56.27734375 C-19.248867187499997 56.845820312499995 -19.618828124999993 57.41429687499999 -20 58 C-20.659999999999997 58 -21.319999999999993 58 -22 58 C-22.0541674052932 55.27056463328125 -22.09375224774277 52.542214357899184 -22.125 49.8125 C-22.141757812500003 49.043574218749995 -22.158515625000007 48.27464843749999 -22.17578125 47.482421875 C-22.212111084544972 43.249996150510555 -22.217033338996842 39.739574306741645 -20 36 C-17.7578125 34.04296875 -17.7578125 34.04296875 -15.125 32.1875 C-7.909684692267135 26.625261254125235 -6.066657246370312 21.36979333329532 -4.5703125 12.609375 C-3.605906097636108 8.196885433020022 -1.8080336542864757 4.125125327741003 0 0 Z " fill="#704E86" transform="translate(117,55)"/>
<path d="M0 0 C4.62 1.3200000000000003 9.24 2.6400000000000006 14 4 C19.038072269627005 4.216219932310054 19.038072269627005 4.216219932310054 24 4 C23.251302083333332 5.66015625 22.502604166666668 7.3203125 21.75390625 8.98046875 C20.074216621339417 13.479948221593375 19.84911695258482 17.922346698613275 19.625 22.6875 C18.956160719218353 32.100429289824035 17.62676058512281 39.30411571630988 10.98046875 46.3046875 C8.17488544239842 48.706311080866044 3.831433505961932 52 0 52 C0 34.84 0 17.68 0 0 Z " fill="#A97F94" transform="translate(0,36)"/>
<path d="M0 0 C16.83 0 33.66 0 51 0 C51 6.6000000000000005 51 13.200000000000001 51 20 C41.53530751708428 19.116628701594532 41.53530751708428 19.116628701594532 38.705078125 18.5 C35.789046370927224 17.961007849066693 33.00595471259591 17.78995734865729 30.04296875 17.68359375 C28.93115234375 17.64169921875 27.8193359375 17.5998046875 26.673828125 17.556640625 C25.523339843749994 17.51732421875 24.372851562500003 17.4780078125 23.1875 17.4375 C22.017675781250006 17.39431640625 20.847851562499997 17.3511328125 19.642578125 17.306640625 C16.761829690759086 17.200817213129927 13.88099877007511 17.098731748484116 11 17 C11 16.01 11 15.02 11 14 C10.340000000000003 14 9.680000000000007 14 9 14 C9 13.34 9 12.68 9 12 C8.010000000000005 11.67 7.019999999999996 11.34 6 11 C6 10.34 6 9.68 6 9 C5.340000000000003 9 4.680000000000007 9 4 9 C4 8.34 4 7.68 4 7 C3.3400000000000034 7 2.680000000000007 7 2 7 C1.3400000000000034 4.6899999999999995 0.6800000000000068 2.38 0 0 Z " fill="#879DE7" transform="translate(77,0)"/>
<path d="M0 0 C0.6599999999999966 0.6806250000000063 1.3200000000000003 1.3612499999999983 2 2.0625 C2.9966120892787487 3.0451147284742746 3.997063702314378 4.023841127738024 5 5 C5.592968749999997 5.589101562500005 6.185937500000001 6.178203124999996 6.796875 6.78515625 C13.72636835371108 13.312738989195836 20.551519067779864 15.671889345734414 30.078125 15.4296875 C36.02347444889105 14.555371404574842 42.69456384828749 12.305436151712513 47 8 C49.1640625 8.2421875 49.1640625 8.2421875 51.625 8.875 C52.442265625000005 9.078671874999998 53.25953125000001 9.282343749999995 54.1015625 9.4921875 C54.72804687499999 9.659765625000006 55.35453125000001 9.827343749999997 56 10 C50.14345978045776 20.004922875051307 42.06167284117848 24.852581871636346 31 28 C19.253326826694924 30.367906449954774 9.592125253129382 27.155605427420227 -1 22 C-3.8338343701255724 19.166165629874428 -3.766614923932572 16.71888790462711 -4.11328125 12.8203125 C-3.9240067464345714 8.10803003192271 -2.0710717926265616 4.177698465813236 0 0 Z " fill="#6F4240" transform="translate(36,86)"/>
</svg>
