<?xml version="1.0" encoding="UTF-8"?>
<!-- Generator: visioncortex VTracer 0.6.0 -->
<svg version="1.1" xmlns="http://www.w3.org/2000/svg" width="128" height="128">
<path d="M0 0 C42.24 0 84.48 0 128 0 C128 42.24 128 84.48 128 128 C85.75999999999999 128 43.519999999999996 128 0 128 C0 85.75999999999999 0 43.519999999999996 0 0 Z " fill="#9F77A1" transform="translate(0,0)"/>
<path d="M0 0 C3.394701241416456 2.862073258358677 6.11843341146276 5.789628581712421 8.56640625 9.4921875 C10.475613126091218 12.699498559069198 10.475613126091218 12.699498559069198 12.90625 13.2890625 C18.051877871618558 13.857042449035426 23.224971150053207 13.939890466913951 28.3984375 14.046875 C33.940385056090804 14.246885137362675 37.926604108112556 15.093807389555991 42.87890625 17.6171875 C42.87890625 16.957187500000003 42.87890625 16.2971875 42.87890625 15.6171875 C43.53890625 15.6171875 44.19890624999999 15.6171875 44.87890625 15.6171875 C45.08515625 14.9365625 45.291406249999994 14.255937500000002 45.50390625 13.5546875 C47.961181707130976 8.305053568856554 51.19066485041334 4.6561052843610256 56.12890625 1.6171875 C62.3466252655309 -0.040870904141574016 67.50535259798743 0.4951439554122352 73.31640625 3.2421875 C76.52193576614835 6.213166075942368 77.68697392907178 8.410367543782776 78.87890625 12.6171875 C78.87890625 21.349157084884865 74.87435491266625 27.786459588475537 68.94140625 33.9921875 C65.51781050792977 37.24104395088707 61.84374860943481 40.6171875 56.87890625 40.6171875 C56.54890625 44.2471875 56.21890625 47.87718749999999 55.87890625 51.6171875 C46.99908308020197 54.57712855659935 37.96297958049679 52.72646069215895 29.4345703125 49.538818359375 C24.209817090848063 47.60985691304002 19.192015878514155 46.84099151039207 13.69140625 46.16015625 C10.917066603571726 45.624554568258986 9.226644861250094 44.890181728418696 6.87890625 43.3671875 C5.888906249999998 42.7896875 4.898906250000003 42.2121875 3.87890625 41.6171875 C1.4638913703123535 42.348710652675 1.4638913703123535 42.348710652675 -1.12109375 43.6171875 C-6.806700637612458 44.33639247381765 -11.618264940110492 44.146706391730824 -16.4765625 40.9609375 C-18.93408527343996 38.952890388210584 -21.06707416737025 36.68926605255295 -23.15234375 34.30078125 C-25.688925680532286 31.96231664060214 -25.688925680532286 31.96231664060214 -32.12109375 29.6171875 C-32.12109375 22.027187499999997 -32.12109375 14.4371875 -32.12109375 6.6171875 C-29.15109375 5.2971875 -26.18109375 3.9771874999999994 -23.12109375 2.6171875 C-22.227773437499998 2.2111328125000007 -21.334453125 1.8050781250000014 -20.4140625 1.38671875 C-19.7192578125 1.0708984374999986 -19.024453125 0.7550781250000007 -18.30859375 0.4296875 C-17.6008984375 0.10613281250000028 -16.893203125 -0.21742187499999943 -16.1640625 -0.55078125 C-10.649887960846048 -2.796515813747213 -5.157534462734443 -3.3623705337163763 0 0 Z " fill="#6E3942" transform="translate(32.12109375,19.3828125)"/>
<path d="M0 0 C42.24 0 84.48 0 128 0 C128 30.69 128 61.38 128 93 C121.07 93 114.14 93 107 93 C105.35 93.66 103.7 94.32 102 95 C98.52282775951656 94.91307069398792 97.08273055166528 94.06016767393838 94.25 92 C90.76899660245 87.3586621366 90.5777545536066 83.28593571744607 91.3046875 77.62890625 C92.47193411999764 72.88796621124246 94.021819540649 70.62378194046451 98.1875 68.0625 C98.984140625 67.590703125 99.78078125 67.11890625 100.6015625 66.6328125 C109.90926263726763 60.29630002870054 118.68357488078763 45.88971591368855 121 35 C120.42547835207776 27.531218577010907 115.34611601324283 21.814404655687042 110 17 C103.83294335049155 12.461251447139308 95.37495928526155 10.514826683985241 87.79296875 11.19921875 C80.0929425873831 13.275134025198819 73.15587406195887 18.691874427667532 66.552978515625 23.01611328125 C62.81065496768857 25.387055569912757 59.329727757976165 25.775359048857435 55 25 C49.84749874085478 22.39283436287252 45.98857914414503 18.017560317175878 42 13.9375 C36.2370918209983 7.901232753440259 36.2370918209983 7.901232753440259 29 4 C24.364499280513314 4.331107194249049 20.86832516936606 5.86312192823803 16.75 7.9375 C11.13098276333696 10.62766095027381 6.146091840163668 12.082672859677064 0 13 C0 8.71 0 4.42 0 0 Z " fill="#CE7686" transform="translate(0,0)"/>
<path d="M0 0 C2.4316655047981044 0.8329884165361676 4.853094304346527 1.6922033092362767 7.275390625 2.552001953125 C13.80501370465349 4.748149472729111 18.699487422948053 4.937904690310916 25.5546875 3.859375 C28.33984375 3.625 28.33984375 3.625 30.25634765625 4.633544921875 C32.70430316163811 5.798432115146753 33.81946158303097 5.690748141404114 36.4609375 5.25390625 C41.468141840640584 4.557064325979724 46.354666040353706 4.5120008781593555 51.40234375 4.5625 C55.826406250000005 4.593437499999993 55.826406250000005 4.593437499999993 60.33984375 4.625 C60.33984375 12.545000000000002 60.33984375 20.465000000000003 60.33984375 28.625 C18.09984374999999 28.625 -24.140156250000004 28.625 -67.66015625 28.625 C-67.66015625 24.335000000000008 -67.66015625 20.045 -67.66015625 15.625 C-66.34015625 15.295000000000002 -65.02015625 14.965000000000003 -63.66015625 14.625 C-61.16619062635649 12.73331859159012 -58.844498905186704 10.692602772759997 -56.48828125 8.6328125 C-49.34452022873265 3.5611368578295384 -41.25998778803461 2.7232724506400956 -32.78515625 1.5 C-30.537338721807814 1.1668958187860028 -28.289918184053946 0.8310979253264321 -26.04296875 0.4921875 C-25.056997070312498 0.3489404296875023 -24.071025390625003 0.20569335937500455 -23.05517578125 0.05810546875 C-8.151522208348595 -2.6370098664515353 -8.151522208348595 -2.6370098664515353 0 0 Z " fill="#4B1F41" transform="translate(67.66015625,99.375)"/>
<path d="M0 0 C6.333123007978351 4.042418941262774 11.490006042187723 9.345692632628914 16.640625 14.765625 C20.110814165684708 18.051963084059025 22.83898271356926 19.796312756766536 27.5625 20.625 C35.0407115666613 20.355897689836052 41.931321992978255 14.708686188329953 47.5625 10.1875 C52.75827060344403 6.409898667544319 58.81748381742479 5.646387090824977 65.09375 6.34375 C71.9258648475106 7.7929864828052775 76.94039822853836 10.200735679866362 82 15 C82.5658984375 15.525937500000001 83.131796875 16.051875 83.71484375 16.59375 C87.94882142507974 20.983008029911524 90.45034311659609 25.877959540018516 91 32 C90.36246951579682 35.437664375605365 88.81848823219708 38.038721158043145 87 41 C85.99259765625 42.68029296875 85.99259765625 42.68029296875 84.96484375 44.39453125 C72.37259808028574 64.92339030287914 72.37259808028574 64.92339030287914 61 69 C58.699218749999986 68.14843749999999 58.699218749999986 68.14843749999999 57 67 C56.89518331141923 63.20039503894688 57.00814285841288 59.683274898758626 58 56 C59.82298665760666 54.44068722304467 61.49641471416038 53.83705952274471 63.73828125 53.00390625 C69.94245493073001 50.250067500522256 74.63451850781327 44.11305152905098 77.3125 38.00390625 C79.00111216535596 33.08198556347948 79.385321560772 29.305811955949565 77.875 24.1875 C75.76708131654969 20.60403823813448 74.85731660058157 19.47727018745677 71 18 C64.86607025977808 16.55112349239586 60.1928699839259 16.53596546212789 54.68359375 19.76171875 C51.323334880895615 22.233185250014124 49.43361054115307 25.249520217235062 47.375 28.8125 C46.92125 29.534374999999997 46.4675 30.25625 46 31 C45.34 31 44.68000000000001 31 44 31 C44 31.659999999999997 44 32.32 44 33 C39.249999999999986 32.12499999999999 39.249999999999986 32.12499999999999 37 31 C35.550191430168994 30.872107457425578 34.09539508949142 30.79801269309708 32.640625 30.75390625 C31.337382812499996 30.704599609375002 31.337382812499996 30.704599609375002 30.0078125 30.654296875 C28.18500528232348 30.593622697074508 26.362084079577023 30.536271936068196 24.5390625 30.482421875 C12.93481006878919 30.028863336022 12.93481006878919 30.028863336022 9.3125 26.23046875 C8.879375000000003 25.5562890625 8.44625 24.882109375 8 24.1875 C4.416983410840906 19.082165481768133 1.5427659969248495 15.732661388944447 -4.6875 13.9375 C-10.93454764922777 13.4929985326511 -17.284988531103163 16.256177053363558 -22.45703125 19.578125 C-25 21 -25 21 -31 22 C-31 17.71 -31 13.420000000000002 -31 9 C-30.05125 8.7525 -29.1025 8.505 -28.125 8.25 C-21.712071615433285 6.410331655336417 -15.586492491377104 3.9126363862485336 -9.75 0.6875 C-6.035280956374734 -1.1661522173778778 -4.0181989677828405 -1.558077150772938 0 0 Z " fill="#8F5883" transform="translate(31,4)"/>
<path d="M0 0 C2.100253643248088 1.7707242436458337 3.99779511577529 3.6160054423141332 5.87890625 5.6171875 C6.422890625000001 6.17921875 6.966875000000002 6.741250000000001 7.52734375 7.3203125 C10.13257686434416 10.400532867235633 11.238317474290362 12.674503727222003 10.94140625 16.7421875 C9.434623401869743 25.10841988533275 7.235222901790372 36.351063739551044 0.9921875 42.46484375 C-2.8936036266494654 44.583713218320874 -6.830325694282855 44.20168841161472 -11.12109375 43.6171875 C-16.251157776813717 41.90035332369581 -19.66134643901407 38.299398067940515 -23.15234375 34.30078125 C-25.688925680532286 31.96231664060214 -25.688925680532286 31.96231664060214 -32.12109375 29.6171875 C-32.12109375 22.027187499999997 -32.12109375 14.4371875 -32.12109375 6.6171875 C-29.15109375 5.2971875 -26.18109375 3.9771874999999994 -23.12109375 2.6171875 C-22.227773437499998 2.2111328125000007 -21.334453125 1.8050781250000014 -20.4140625 1.38671875 C-19.7192578125 1.0708984374999986 -19.024453125 0.7550781250000007 -18.30859375 0.4296875 C-17.6008984375 0.10613281250000028 -16.893203125 -0.21742187499999943 -16.1640625 -0.55078125 C-10.649887960846048 -2.796515813747213 -5.157534462734443 -3.3623705337163763 0 0 Z " fill="#613763" transform="translate(32.12109375,19.3828125)"/>
<path d="M0 0 C2.3100000000000023 0 4.6200000000000045 0 7 0 C7 18.810000000000002 7 37.620000000000005 7 57 C0.06999999999999318 57 -6.859999999999999 57 -14 57 C-15.650000000000006 57.66 -17.299999999999997 58.31999999999999 -19 59 C-22.477172240483455 58.91307069398792 -23.917269448334665 58.06016767393842 -26.75 56 C-30.231003397549998 51.3586621366 -30.422245446393404 47.28593571744605 -29.6953125 41.62890625 C-28.52806588000236 36.88796621124246 -26.97818045935101 34.623781940464525 -22.8125 32.0625 C-22.015859375000005 31.590703125000005 -21.219218749999996 31.118906249999995 -20.3984375 30.6328125 C-11.145763413138042 24.333760760084203 -3.1347912737677888 10.575962479176177 0 0 Z " fill="#CF9BD3" transform="translate(121,36)"/>
<path d="M0 0 C2.432628793705277 0.8331562470988985 4.85482606368538 1.6928267114254396 7.277587890625 2.55419921875 C13.795452697505212 4.749454585080642 18.623636689892862 4.922572524668809 25.45703125 3.76171875 C28.99051711255801 3.594141507195758 30.52593849894336 4.57427569341813 33.33984375 6.625 C32.67984375 6.954999999999998 32.01984375000001 7.284999999999997 31.33984375 7.625 C31.33984375 8.284999999999997 31.33984375 8.944999999999993 31.33984375 9.625 C29.914062500000014 10.878906249999986 29.914062500000014 10.878906249999986 28.02734375 12.1875 C27.4124609375 12.621914062499997 26.797578125 13.056328124999993 26.1640625 13.50390625 C20.769631471067257 16.81911332773811 14.398820500632624 16.49836601810921 8.33984375 15.625 C3.043530089999919 13.768535995255561 -1.9265514901719172 11.143219448099558 -6.851806640625 8.472900390625 C-11.525185894010711 6.2816426416026445 -16.596184254448495 5.790457415133119 -21.66015625 6.625 C-28.186318040197 9.491434108822347 -32.901812155008585 14.044853845683122 -35.66015625 20.625 C-36.32015625 23.265 -36.98015625 25.905 -37.66015625 28.625 C-47.56015625 28.625 -57.46015625 28.625 -67.66015625 28.625 C-67.66015625 24.335000000000008 -67.66015625 20.045 -67.66015625 15.625 C-66.34015625 15.295000000000002 -65.02015625 14.965000000000003 -63.66015625 14.625 C-61.16619062635649 12.73331859159012 -58.844498905186704 10.692602772759997 -56.48828125 8.6328125 C-49.34452022873265 3.5611368578295384 -41.25998778803461 2.7232724506400956 -32.78515625 1.5 C-30.537338721807814 1.1668958187860028 -28.289918184053946 0.8310979253264321 -26.04296875 0.4921875 C-25.056997070312498 0.3489404296875023 -24.071025390625003 0.20569335937500455 -23.05517578125 0.05810546875 C-8.151522208348595 -2.6370098664515353 -8.151522208348595 -2.6370098664515353 0 0 Z " fill="#7A4A7D" transform="translate(67.66015625,99.375)"/>
<path d="M0 0 C1 3 1 3 0.5 5.6875 C-0.35186514475734043 11.331106584017448 -0.1837828708198117 15.34270398085225 3.1875 20.0625 C5.860496519526194 22.318458027135136 5.860496519526194 22.318458027135136 9.125 21.875 C11.091586085675416 21.27647380001183 13.049839750174357 20.650053416608543 15 20 C17.82292436589111 19.903148911765584 20.61533361767826 19.860782537116762 23.4375 19.875 C24.201269531250006 19.871132812500008 24.965039062499997 19.867265625 25.751953125 19.86328125 C26.492519531249997 19.864570312500007 27.233085937499993 19.865859375 27.99609375 19.8671875 C28.66825927734375 19.8683154296875 29.3404248046875 19.869443359374998 30.032958984375 19.87060546875 C32 20 32 20 36 21 C36 24.629999999999995 36 28.260000000000005 36 32 C34.7328515625 32.06058593750001 33.465703125000005 32.121171875 32.16015625 32.18359375 C30.460930357497716 32.26808564520729 28.761712000632528 32.352729185374244 27.0625 32.4375 C26.231699218749995 32.47681640625001 25.400898437500004 32.51613281249999 24.544921875 32.556640625 C19.644427573325487 32.804525550765646 14.853909797478508 33.225870306851945 10.005615234375 33.996337890625 C7.534365739955433 34.00085021471706 6.163471828984086 33.13630501285368 4 32 C1.9709331816148676 32.17074896087392 -0.051004342148644355 32.4335310764763 -2.0625 32.75 C-9.49146354384942 33.44719157345824 -15.10542012638868 31.718317453699115 -22.074462890625 29.261474609375 C-27.697053443484222 27.305368555666576 -32.75191056643417 26.32634129019985 -38.75 26.30078125 C-41.471941161790724 25.936910643302284 -42.3116262536133 25.104913321975516 -44 23 C-43.2871484375 22.87625 -42.574296875 22.752499999999998 -41.83984375 22.625 C-33.13114060359354 20.749639968472366 -29.56926095428158 17.315688332523337 -24.72265625 10.09765625 C-22.677486552758552 6.771526172991656 -21.662104684918972 3.810347549484689 -21 0 C-6.218678815489753 -1.3325740318906583 -6.218678815489753 -1.3325740318906583 0 0 Z " fill="#9A88A7" transform="translate(92,72)"/>
<path d="M0 0 C3.205529516148374 2.9709785759423895 4.370567679071783 5.168180043782762 5.5625 9.375 C5.5625 18.10696958488488 1.5579486626662487 24.54427208847553 -4.375 30.75 C-8.660648956202564 34.77080548138106 -11.924529006385427 37.375 -18 37.375 C-22.264786374947448 36.134334872742556 -23.819689022438226 34.96514076922757 -26.4375 31.375 C-29.307390730271678 23.52764253441336 -29.40486834135153 15.32011265233431 -26.55078125 7.48828125 C-24.1901468594003 3.0072173717037316 -20.32625344171602 0.5490899772829287 -16.125 -2.0625 C-10.445993479087662 -3.2511292718188614 -5.212016585058265 -2.4638623856639086 0 0 Z " fill="#472367" transform="translate(105.4375,22.625)"/>
<path d="M0 0 C1.023360550172896 6.481283484428303 -2.401005573108648 10.938400532043218 -6 16 C-9.363565530545031 20.208769176681983 -12.569504828216907 23.077840442527403 -18 24 C-25.73947621966947 24.19562657111328 -32.719802720840306 22.689833088318892 -39 18 C-41.661580231733694 14.924396176663294 -43.076241201360546 12.031828016258586 -42.921875 7.91796875 C-41.97516582428613 3.3334419083485756 -40.00405635451583 -0.3951323745809958 -37 -4 C-25.64315253195585 -9.630219797400493 -10.93103070032653 -4.604722610004728 0 0 Z " fill="#C19499" transform="translate(71,71)"/>
<path d="M0 0 C6.333123007978351 4.042418941262774 11.490006042187723 9.345692632628914 16.640625 14.765625 C20.339011039455414 18.268070057232613 22.814684620194257 19.90592735080907 27.9375 20.3125 C31.55349965720442 20.18213189091673 34.628845586931305 19.348461765227476 38 18 C37.34 21.96 36.68000000000001 25.92 36 30 C32.95809136661448 30.05421223307024 29.917160008579863 30.093775483782906 26.875 30.125 C26.019062499999997 30.141757812500003 25.163125 30.158515625 24.28125 30.17578125 C19.49054350667759 30.212632838410173 15.410105005957725 30.111220481575508 11 28 C9.312500000000014 26.230468750000014 9.312500000000014 26.230468750000014 8 24.1875 C4.416983410840906 19.082165481768133 1.5427659969248495 15.732661388944447 -4.6875 13.9375 C-10.93454764922777 13.4929985326511 -17.284988531103163 16.256177053363558 -22.45703125 19.578125 C-25 21 -25 21 -31 22 C-31 17.71 -31 13.420000000000002 -31 9 C-30.05125 8.7525 -29.1025 8.505 -28.125 8.25 C-21.712071615433285 6.410331655336417 -15.586492491377104 3.9126363862485336 -9.75 0.6875 C-6.035280956374734 -1.1661522173778778 -4.0181989677828405 -1.558077150772938 0 0 Z " fill="#9A5872" transform="translate(31,4)"/>
<path d="M0 0 C13.530000000000001 0 27.060000000000002 0 41 0 C41 11.88 41 23.76 41 36 C39.02000000000001 36 37.03999999999999 36 35 36 C34.8040625 35.3825390625 34.608125 34.765078125 34.40625 34.12890625 C31.515096436439237 25.941458442847328 26.98097170576395 18.927277775545893 19.25 14.5625 C11.975224361091719 11.428308123948607 4.7381791648305125 10.710303472528249 -3 12 C-2.010000000000005 8.04 -1.019999999999996 4.08 0 0 Z " fill="#D089A9" transform="translate(87,0)"/>
<path d="M0 0 C0 7.920000000000002 0 15.840000000000003 0 24 C-11.219999999999999 24 -22.439999999999998 24 -34 24 C-35 10 -35 10 -31 5 C-30.340000000000003 5 -29.680000000000007 5 -29 5 C-29 4.340000000000003 -29 3.680000000000007 -29 3 C-19.55987991908806 -1.0769670272318876 -10.084468759427239 -0.21305215688930446 0 0 Z " fill="#4C1451" transform="translate(128,104)"/>
<path d="M0 0 C4.054162032539253 1.0870481388442528 7.985197860940644 2.524143021077336 11.93798828125 3.928955078125 C18.455491023815995 6.124969809612693 23.28404099229286 6.297530385646638 30.1171875 5.13671875 C33.650673362557995 4.969141507195758 35.18609474894336 5.94927569341813 38 8 C37.34 8.329999999999998 36.68000000000001 8.659999999999997 36 9 C36 9.659999999999997 36 10.319999999999993 36 11 C34.57421875 12.25390625 34.57421875 12.25390625 32.6875 13.5625 C32.0726171875 13.996914062499997 31.457734375 14.431328124999993 30.82421875 14.87890625 C25.430917166496698 18.1934192145941 19.058310324581 17.874206232507646 13 17 C9.27204700077921 15.641115134714113 5.787961630386491 13.822487832726338 2.267333984375 12.004150390625 C-3.692774918893278 8.971456800528955 -9.300807794544319 7.516315391557271 -16 7 C-16.494999999999997 4.525000000000006 -16.494999999999997 4.525000000000006 -17 2 C-11.933572633837109 -1.3776182441085894 -5.903545960560265 -0.8751420794422557 0 0 Z " fill="#6C4D6C" transform="translate(63,98)"/>
<path d="M0 0 C1.980000000000004 0.9899999999999984 3.960000000000008 1.9800000000000004 6 3 C6 3.66 6 4.32 6 5 C7.206562500000004 5.185625000000002 7.206562500000004 5.185625000000002 8.4375 5.375 C9.705937500000005 5.684375000000003 9.705937500000005 5.684375000000003 11 6 C11.495000000000005 6.990000000000002 11.495000000000005 6.990000000000002 12 8 C6.7556694872344565 22.30271958026966 -2.6762646585682432 36.10306815035574 -15.66796875 44.1640625 C-18 45 -18 45 -20.30078125 44.1484375 C-21.141894531250003 43.579960937500005 -21.141894531250003 43.579960937500005 -22 43 C-22.104816688580783 39.20039503894685 -21.99185714158712 35.68327489875867 -21 32 C-19.177013342393337 30.440687223044677 -17.503585285839605 29.837059522744703 -15.26171875 29.00390625 C-9.043440334927368 26.24380684987277 -4.400121722404464 20.112386938244356 -1.67578125 14.015625 C-0.13044100113268087 9.406402061181865 0 4.843767349330868 0 0 Z " fill="#905E9E" transform="translate(110,28)"/>
<path d="M0 0 C1.1185839843749932 0.007734374999998295 1.1185839843749932 0.007734374999998295 2.259765625 0.015625 C5.824710583679106 0.0665073544503656 8.83438237930558 0.38047059482639156 12.3125 1.25 C12.3125 4.8799999999999955 12.3125 8.510000000000005 12.3125 12.25 C11.045351562500002 12.310585937500008 9.778203125000005 12.371171875000002 8.47265625 12.43359375 C6.773430357497716 12.518085645207293 5.074212000632528 12.602729185374258 3.375 12.6875 C2.1287988281249994 12.746474609375 2.1287988281249994 12.746474609375 0.857421875 12.806640625 C-4.064406173157124 13.055604689692771 -8.896280341808307 13.473134013975397 -13.7734375 14.19140625 C-16.70285152872863 14.281082189654953 -18.46617086274081 13.041394465531596 -20.6875 11.25 C-20.027500000000003 9.599999999999994 -19.367500000000007 7.950000000000003 -18.6875 6.25 C-18.027500000000003 6.25 -17.367500000000007 6.25 -16.6875 6.25 C-16.3575 5.260000000000005 -16.027500000000003 4.269999999999996 -15.6875 3.25 C-10.364096606308337 0.3025010963777106 -6.004955824216566 -0.16870815309475518 0 0 Z " fill="#915F9F" transform="translate(115.6875,91.75)"/>
<path d="M0 0 C0.9083764314517566 2.725129294355277 0.9870189846583344 4.765879905158428 0.9375 7.6875 C0.908723498289504 12.828901638943144 0.9486402767074367 18.525437124624155 4.36328125 22.64453125 C6.783748835419786 24.728655945138122 8.970300543356217 25.990100181118734 12 27 C11.670000000000002 30.629999999999995 11.340000000000003 34.25999999999999 11 38 C7.439548230403872 39.18681725653204 4.561916627317885 39.09689831768182 0.8125 39.0625 C-0.4598046874999966 39.05347656250001 -1.7321093749999932 39.04445312499999 -3.04296875 39.03515625 C-4.506699218750001 39.01775390624999 -4.506699218750001 39.01775390624999 -6 39 C-4.8118377060750674 36.613343566116 -3.605119009336107 34.24061347949251 -2.375 31.875 C1.4758221475400717 22.534287816479726 -2.061157443216473 13.105163992891839 -5 4 C-4.010000000000005 4 -3.019999999999996 4 -2 4 C-2 3.3400000000000034 -2 2.6799999999999997 -2 2 C-1.3400000000000034 2 -0.6800000000000068 2 0 2 C0 1.3400000000000034 0 0.6799999999999997 0 0 Z " fill="#6B4C6B" transform="translate(77,33)"/>
<path d="M0 0 C1.2039336963646576 3.753997982365412 1.0987761655468518 7.332174120939349 1.0625 11.25 C1.0534765624999949 12.513281249999999 1.044453125000004 13.776562499999997 1.03515625 15.078125 C1.0235546874999955 16.04234375 1.0119531250000051 17.0065625 1 18 C0.3400000000000034 18 -0.3199999999999932 18 -1 18 C-2.319999999999993 13.379999999999995 -3.6400000000000006 8.759999999999998 -5 4 C-4.010000000000005 4 -3.019999999999996 4 -2 4 C-2 3.3400000000000034 -2 2.6799999999999997 -2 2 C-1.3400000000000034 2 -0.6800000000000068 2 0 2 C0 1.3400000000000034 0 0.6799999999999997 0 0 Z " fill="#623963" transform="translate(77,33)"/>
<path d="M0 0 C3.855522504985238 0.8835572407257857 6.472283793474816 1.9105690809136604 9 5 C3.7150259067357467 6.0569948186528535 3.7150259067357467 6.0569948186528535 1 6 C-1.5 4.0625 -1.5 4.0625 -3 2 C-2.0100000000000016 1.3400000000000034 -1.0200000000000031 0.6799999999999997 0 0 Z " fill="#9A5872" transform="translate(34,60)"/>
</svg>
