<?xml version="1.0" encoding="UTF-8"?>
<!-- Generator: visioncortex VTracer 0.6.0 -->
<svg version="1.1" xmlns="http://www.w3.org/2000/svg" width="128" height="128">
<path d="M0 0 C42.24 0 84.48 0 128 0 C128 42.24 128 84.48 128 128 C85.75999999999999 128 43.519999999999996 128 0 128 C0 85.75999999999999 0 43.519999999999996 0 0 Z " fill="#314781" transform="translate(0,0)"/>
<path d="M0 0 C42.24 0 84.48 0 128 0 C128 14.190000000000001 128 28.380000000000003 128 43 C119.15277777777779 43 119.15277777777779 43 114.6875 42 C108.23091072932108 40.73558460115871 101.41693699663165 39.97221420154088 95.0390625 41.890625 C92 42 92 42 89.10546875 39.46484375 C88.11649105700425 38.302757328397696 87.14451685661754 37.12604552486033 86.1875 35.9375 C80.96042938144922 29.850278520168708 75.79068184068858 24.596893946896195 68 22 C57.11041820889577 21.174550651403177 45.51829272921262 21.466383904713446 36.875 28.8125 C28.78240231795248 36.93158736349449 20.682351416726625 45.62866407951789 18 57 C15.712504227861327 62.991060355601284 12.76298833245827 68.79051475980012 9 74 C8.34 74 7.68 74 7 74 C7 74.66 7 75.32 7 76 C5.02 76.99 3.04 77.98 1 79 C-0.6960285441461023 77.3039714558539 -0.11968080212641197 75.19190949496101 -0.12442874908447266 72.92975521087646 C-0.12083064079284668 72.20262104988097 -0.1172325325012207 71.4754868888855 -0.113525390625 70.726318359375 C-0.11364592552185059 69.95304734230041 -0.11376646041870117 69.17977632522583 -0.1138906478881836 68.38307285308838 C-0.11314153599657453 65.86863435006153 -0.10551340334347399 63.35426907112573 -0.09765625 60.83984375 C-0.09618682567793978 59.29203324082849 -0.09516611836273103 57.744222237594236 -0.0946044921875 56.1964111328125 C-0.08935166827233512 50.44343319999558 -0.0753905860574098 44.69046588903747 -0.0625 38.9375 C-0.041874999999999996 26.088124999999998 -0.021249999999999998 13.23875 0 0 Z " fill="#9B85A8" transform="translate(0,0)"/>
<path d="M0 0 C6.305420211122652 4.632553624498275 11.949197727620444 10.461423689731646 16.48828125 16.828125 C17.251406250000002 16.663125 18.014531250000005 16.498125 18.80078125 16.328125 C30.33596306084614 14.764032551071708 41.10858660524315 16.89115569876479 52.48828125 18.828125 C52.48828125 30.708125000000003 52.48828125 42.588125000000005 52.48828125 54.828125 C45.230495810689035 54.828125 40.544618292824424 54.29670069827634 34.55078125 50.328125 C28.543957344203932 46.39701823539602 22.584548824126102 45.53244718441141 15.48828125 45.828125 C15.386445312500001 46.5693359375 15.284609375000002 47.310546875 15.1796875 48.07421875 C13.865893813932757 53.307125804674655 9.857425548287267 57.260638224195574 5.421875 60.1953125 C-2.101516912945627 64.10690525929242 -10.41950849496277 64.98299616138966 -18.7578125 63.40234375 C-26.00187244825551 61.10062489704552 -30.631772005016792 55.864818578460074 -34.19921875 49.328125 C-38.22710503708509 40.60548383525283 -42.86809012675894 28.287643855420328 -39.8515625 18.73828125 C-36.65858545389675 10.873329132109298 -32.35872883680609 1.6849243935152032 -24.51171875 -2.171875 C-16.563858671792673 -4.906968549180657 -7.239144163875309 -4.123113206266133 0 0 Z " fill="#203B58" transform="translate(75.51171875,24.171875)"/>
<path d="M0 0 C8.858054776014896 -0.6247844277753458 15.694306124666795 -0.3674485614692955 23 5 C28.13129448381116 9.582239195583018 32.99371471730083 14.38062295330974 37 20 C37.763125 19.835 38.526250000000005 19.67 39.3125 19.5 C50.847681810846126 17.935907551071708 61.62030535524315 20.06303069876479 73 22 C73 33.88 73 45.760000000000005 73 58 C65.74221456068906 58 61.056337042824424 57.468575698276325 55.0625 53.5 C49.380118654705655 49.76303741315266 43.697247476662795 49.11620791277713 37 48 C36.34 44.03999999999999 35.68000000000001 40.08 35 36 C32.08314253514564 39.77895727043393 32.08314253514564 39.77895727043393 30.0625 43.0625 C28.163440492920515 45.7672211161435 26.64931178468268 47.136079182801524 24 49 C20.56145872645456 41.240459957928415 17.71569869404719 33.43214161744545 15.23193359375 25.32080078125 C13.75759743251038 20.67710164553685 12.0558545528217 16.8822432353941 9 13 C7.9893749999999955 12.525624999999998 6.978749999999998 12.051249999999996 5.9375 11.5625 C1.960196631349369 9.446913101781576 1.349659534807877 7.1989407749578405 0 3 C0 2.009999999999998 0 1.0199999999999996 0 0 Z " fill="#393465" transform="translate(55,21)"/>
<path d="M0 0 C1.1820703125000023 -0.0025781249999994316 2.3641406250000045 -0.005156249999998863 3.58203125 -0.0078125 C7.1875 0.125 7.1875 0.125 14.1875 1.125 C14.1875 17.295 14.1875 33.465 14.1875 50.125 C3.2974999999999994 50.125 -7.592500000000001 50.125 -18.8125 50.125 C-19.1425 47.155 -19.472499999999997 44.185 -19.8125 41.125 C-20.780116083095606 39.10913316021748 -21.77817096494931 37.107463983847154 -22.8125 35.125 C-23.91172857882715 29.885986597987554 -23.67787960720834 25.38465321192666 -22.625 20.1875 C-22.485539550781255 19.48600830078125 -22.346079101562495 18.7845166015625 -22.202392578125 18.061767578125 C-21.08427601914103 12.778190977324883 -19.86901193482325 8.5787745335996 -16.8125 4.125 C-11.297277875379706 0.5630857111827225 -6.4631981697033325 -0.014004763097943851 0 0 Z " fill="#977F8F" transform="translate(113.8125,77.875)"/>
<path d="M0 0 C3.9065069634906813 3.4204031558165013 5.979682642743885 7.30049895861292 8.375 11.8125 C13.427220444815823 21.003208681567003 18.463708162716046 26.87870565225414 26.92578125 33.203125 C29 35 29 35 30 38 C30.659999999999997 38 31.32 38 32 38 C33.30299415100655 40.14610801342255 34.048703803167896 41.452920778465256 33.82275390625 43.990966796875 C32.15954738899049 48.0522506041535 27.178230704110838 49.146910248763874 23.375 50.8125 C22.484257812499997 51.23208984375 21.593515625000002 51.65167968750001 20.67578125 52.083984375 C15.317964977500054 54.478825669114485 11.85585574386014 55.549276519645986 6 54 C5.364975585937501 53.84893798828125 4.729951171875001 53.6978759765625 4.07568359375 53.542236328125 C1.358298192475214 52.894690570969416 -1.3385035042269333 52.17487838394001 -4.0390625 51.4609375 C-4.706796875 51.288203124999995 -5.37453125 51.11546874999999 -6.0625 50.9375 C-6.946152343750001 50.70353515625 -6.946152343750001 50.70353515625 -7.84765625 50.46484375 C-10.867636925295967 49.81261561867473 -13.941442967972632 49.43693671886106 -17 49 C-17 38.769999999999996 -17 28.539999999999992 -17 18 C-14.69 17.340000000000003 -12.379999999999999 16.680000000000007 -10 16 C-10 15.340000000000003 -10 14.680000000000007 -10 14 C-9.34 14 -8.68 14 -8 14 C-7.734453125 13.274257812499997 -7.46890625 12.548515624999993 -7.1953125 11.80078125 C-5.999270518571636 8.998290724888449 -4.596708926832049 6.6952064803858065 -2.875 4.1875 C-2.336171875 3.3973046874999966 -1.7973437499999996 2.6071093750000003 -1.2421875 1.79296875 C-0.8322656250000016 1.2012890625000026 -0.4223437499999996 0.609609374999998 0 0 Z " fill="#4F69C8" transform="translate(17,60)"/>
<path d="M0 0 C16.83 0 33.66 0 51 0 C51 10.23 51 20.46 51 31 C44.28331606440956 30.328331606440955 38.91463329655116 29.645071952169268 32.6875 27.625 C27.44032559363518 25.936541288542998 22.622366514829324 24.823071575611973 17.125 24.1875 C9.964585758522986 22.670539605840936 7.134199311695625 17.796111658732627 3.24853515625 12.065185546875 C0.33309011960378143 7.387435609272206 0 6.013323344910369 0 0 Z " fill="#CE93A9" transform="translate(77,0)"/>
<path d="M0 0 C6.688047585022588 3.445357846829822 12.383171915851896 8.876412437596827 15 16 C15.495000000000005 19.960000000000008 15.495000000000005 19.960000000000008 16 24 C-6.109999999999999 24 -28.22 24 -51 24 C-51 17.730000000000004 -51 11.459999999999994 -51 5 C-43.142963792459874 5 -43.142963792459874 5 -39.37109375 6.12890625 C-38.563496093750004 6.3590039062499955 -37.7558984375 6.589101562500005 -36.923828125 6.826171875 C-35.261619284344434 7.318436394188652 -33.60016133613463 7.813243321548427 -31.939453125 8.310546875 C-23.1955669854696 10.791825515714066 -17.73620317557392 8.691947246534312 -9.6875 5 C-8.86443359375 4.631328124999996 -8.0413671875 4.262656250000006 -7.193359375 3.8828125 C-3.33146418208095 2.350382500166745 -3.33146418208095 2.350382500166745 0 0 Z " fill="#636AA7" transform="translate(51,104)"/>
<path d="M0 0 C14.850000000000001 0 29.700000000000003 0 45 0 C41.685885232526516 14.913516453630676 41.685885232526516 14.913516453630676 36.5888671875 18.873046875 C33.574554287536515 20.789851209757913 30.509364592169693 22.536901093517894 27.375 24.25 C25.81072265625 25.1471875 25.81072265625 25.1471875 24.21484375 26.0625 C8.376486449115044 35 8.376486449115044 35 0 35 C0 23.45 0 11.899999999999999 0 0 Z " fill="#CCA3EE" transform="translate(0,0)"/>
<path d="M0 0 C4.704773063037862 1.898417200874924 6.428983598483654 3.8243936053539045 8.4453125 8.47265625 C9.108932814470961 10.232086579542738 9.733727763723707 12.006362316401244 10.33203125 13.7890625 C11.33731877990678 16.769819810898227 12.406031339688496 19.704498721664642 13.51171875 22.6484375 C14.196364231218013 24.536077202694216 14.87994850297521 26.42410212453811 15.5625 28.3125 C16.090008544921872 29.686318359375 16.090008544921872 29.686318359375 16.628173828125 31.087890625 C17.501635140603128 33.56927849781479 18.23380450420474 35.82708334407263 18.5625 38.4375 C16.219086972957683 42.926618751555 13.283924525175081 44.489797232086005 8.64453125 45.99609375 C3.9290722089294263 46.995806454767305 0.5464175619223113 45.9583975327824 -3.625 43.75 C-10.320600890317188 38.244728156850314 -13.290127422877276 30.108945492571095 -15.3125 21.875 C-15.56047440065484 15.055703981991982 -14.505952174667058 10.258531924770011 -10 5 C-4.616622069317025 -0.7554472477064209 -4.616622069317025 -0.7554472477064209 0 0 Z " fill="#272A24" transform="translate(60.4375,31.5625)"/>
<path d="M0 0 C2 3 2 3 1.83984375 5.49609375 C0.864166731809 8.404972674002003 -0.01652191017718252 9.235806270254415 -2.4375 11.0625 C-10.50250199438748 17.70341155213528 -19.985168075215423 27.516825495588364 -21.75 38.125 C-22.590729133434934 42.61667324066626 -24.6313816175879 46.212186210376075 -27 50.0625 C-27.356748046874998 50.6472509765625 -27.713496093750003 51.23200195312501 -28.0810546875 51.83447265625 C-28.99222596829204 53.26430410950411 -29.98979748020926 54.6383311868654 -31 56 C-31.66 56 -32.32 56 -33 56 C-33 56.66 -33 57.31999999999999 -33 58 C-34.980000000000004 58.99000000000001 -36.96 59.97999999999999 -39 61 C-40 60 -40 60 -40.12025451660156 58.24729919433594 C-40.1180339050293 57.48562942504883 -40.11581329345703 56.72395965576172 -40.113525390625 55.939208984375 C-40.11344985961914 55.07839218139648 -40.11337432861328 54.21757537841796 -40.11329650878906 53.33067321777344 C-40.10813522338867 52.39526199340821 -40.10297393798828 51.45985076904296 -40.09765625 50.49609375 C-40.09553382873535 49.0665712738037 -40.09553382873535 49.0665712738037 -40.09336853027344 47.60816955566406 C-40.08775151950147 44.55124834787934 -40.075196156983175 41.49439923136483 -40.0625 38.4375 C-40.057487190538005 36.37044376281607 -40.05292390501437 34.30338638265162 -40.048828125 32.236328125 C-40.037776562613075 27.157524121815662 -40.02050054831615 22.078774300537113 -40 17 C-39.31252685546875 16.8399951171875 -38.6250537109375 16.679990234374998 -37.916748046875 16.51513671875 C-31.269341921211435 14.85371338922316 -25.705187730833398 12.588839389880885 -19.8125 9.125 C-18.699716796875002 8.49271484375 -18.699716796875002 8.49271484375 -17.564453125 7.84765625 C-13.168681030751344 5.332490064839352 -8.914562019024626 2.6743126281135403 -4.733154296875 -0.18408203125 C-3 -1 -3 -1 0 0 Z " fill="#8170BB" transform="translate(40,18)"/>
<path d="M0 0 C-0.5426953125000011 0.9294140625000011 -1.0853906250000023 1.8588281249999987 -1.64453125 2.81640625 C-2.3673928175179597 4.064985321167384 -3.090037472030872 5.313689991058613 -3.8125 6.5625 C-4.168925781249996 7.171582031250001 -4.525351562499999 7.780664062500001 -4.892578125 8.408203125 C-9.712288769868763 16.765316078029315 -12.480621875248971 23.607662339925866 -10.046875 33.21875 C-9.628590196873205 34.65000146246926 -9.195955764749527 36.07712741918544 -8.75 37.5 C-8.40557861328125 38.620275878906256 -8.40557861328125 38.620275878906256 -8.05419921875 39.76318359375 C-5.508558135628931 47.838827474533645 -2.6968296141175188 53.518639576319885 3.515625 59.42578125 C5.576093808409162 61.610962644181285 5.9286968906511035 63.00526940734642 6 66 C6.024492187500002 66.72703125 6.048984375000003 67.4540625 6.07421875 68.203125 C6.149662171276795 71.8011958608933 6.148372819676503 74.55488154097048 5 78 C4.340000000000003 78 3.6799999999999997 78 3 78 C2.6700000000000017 76.68 2.3400000000000034 75.36 2 74 C1.3400000000000034 74 0.6799999999999997 74 0 74 C-1.337170832619357 72.3364105915378 -2.6698725717166525 70.66922634177749 -4 69 C-5.571133460998553 67.72888197376498 -7.177090561066407 66.49978149818644 -8.8125 65.3125 C-16.66471243380723 59.155258532080666 -21.099852061050274 51.195228893594134 -25.640625 42.4453125 C-26.916255110408144 39.97312711754515 -26.916255110408144 39.97312711754515 -28.69140625 37.96484375 C-30.364733136464405 35.45235591748778 -30.243610017124965 34.37279374256395 -29.6875 31.4375 C-27.103692335092006 20.708396220717418 -12.125498206489922 -0.6103438694541907 0 0 Z " fill="#234C8E" transform="translate(47,24)"/>
<path d="M0 0 C0 1.3199999999999932 0 2.6400000000000006 0 4 C-0.6019921875000023 4.086367187500002 -1.2039843750000045 4.1727343750000045 -1.82421875 4.26171875 C-4.638311763742564 5.216590526655921 -5.249604885543164 6.312768620969621 -6.8125 8.8125 C-7.325546875000001 9.622031249999992 -7.838593750000001 10.431562499999998 -8.3671875 11.265625 C-10.103392538380291 14.173145399201445 -11.769473685419513 17.11540417962013 -13.4375 20.0625 C-17.796432395720316 27.60902172474927 -23.00005965925118 33.79074207200088 -30 39 C-30.659999999999997 39 -31.319999999999993 39 -32 39 C-32.33 39.66 -32.66 40.31999999999999 -33 41 C-37.66546700164348 33.62555215869256 -38.56836034118379 27.72965923587293 -36.8125 19.0625 C-36.673039550781255 18.36100830078125 -36.533579101562495 17.6595166015625 -36.389892578125 16.936767578125 C-35.27177601914103 11.653190977324883 -34.05651193482325 7.453774533599599 -31 3 C-22.01178697736458 -2.8048875771187056 -10.168582165825939 -1.9368727934906502 0 0 Z " fill="#7B89B8" transform="translate(128,79)"/>
<path d="M0 0 C8.865491952598404 -0.6253089935218306 15.684340961735188 -0.36021558464056724 23 5 C28.739050241559795 10.048522806077997 34.15934878226875 15.32219313211575 38 22 C37.4375 25.312500000000007 37.4375 25.312500000000007 36 29 C35.56215423453875 30.47906435405814 35.12467080266333 31.95823600494149 34.6875 33.4375 C32.518603429690884 39.84560350318603 29.62212151645332 45.10868022428073 24 49 C20.56145872645456 41.240459957928415 17.71569869404719 33.43214161744545 15.23193359375 25.32080078125 C13.75759743251038 20.67710164553685 12.0558545528217 16.8822432353941 9 13 C7.9893749999999955 12.525624999999998 6.978749999999998 12.051249999999996 5.9375 11.5625 C1.960196631349369 9.446913101781576 1.349659534807877 7.1989407749578405 0 3 C0 2.009999999999998 0 1.0199999999999996 0 0 Z " fill="#58444D" transform="translate(55,21)"/>
<path d="M0 0 C13.672418065498775 -0.6177297318749453 25.482437749889442 0.4877089031787527 38.61767578125 4.31982421875 C42.46969509427902 5.419611655325003 46.35934516238744 6.360545250952519 50.25 7.3125 C51.567899257831584 7.6411624426011855 52.885628991135704 7.970506029015645 54.203125 8.30078125 C55.126093749999995 8.531523437499999 56.04906249999999 8.762265624999998 57 9 C57 12.96 57 16.92 57 21 C52.35684798621604 21.175213283539016 48.2452040112513 20.929876393100123 43.6875 20 C37.23091072932114 18.73558460115872 30.41693699663162 17.97221420154088 24.0390625 19.890625 C21 20 21 20 18.10546875 17.46484375 C17.1162001477049 16.30300496556012 16.144228350882543 15.12627777197136 15.1875 13.9375 C11.02902087929779 9.074193909687242 7.116881783748312 5.23192331951142 1.546875 1.953125 C1.0364062499999989 1.6385937499999983 0.5259374999999977 1.3240625000000001 0 1 C0 0.6700000000000017 0 0.33999999999999986 0 0 Z " fill="#8D6689" transform="translate(71,22)"/>
<path d="M0 0 C7.878222927409758 0 7.878222927409758 0 11.76953125 1.05859375 C12.59517578125 1.2796679687500045 13.4208203125 1.5007421874999949 14.271484375 1.728515625 C15.529287109375 2.0794628906249955 15.529287109375 2.0794628906249955 16.8125 2.4375 C18.099306640625 2.782646484374993 18.099306640625 2.782646484374993 19.412109375 3.134765625 C25.663027108433734 4.831513554216869 25.663027108433734 4.831513554216869 28 6 C28.8515625 8.43359375 28.8515625 8.43359375 29.625 11.4375 C30.0155859375 12.920566406250003 30.0155859375 12.920566406250003 30.4140625 14.43359375 C31 17 31 17 31 19 C20.77 19 10.54 19 0 19 C0 12.730000000000004 0 6.459999999999994 0 0 Z " fill="#503982" transform="translate(0,109)"/>
</svg>
