<?xml version="1.0" encoding="UTF-8"?>
<!-- Generator: visioncortex VTracer 0.6.0 -->
<svg version="1.1" xmlns="http://www.w3.org/2000/svg" width="128" height="128">
<path d="M0 0 C42.24 0 84.48 0 128 0 C128 42.24 128 84.48 128 128 C85.75999999999999 128 43.519999999999996 128 0 128 C0 85.75999999999999 0 43.519999999999996 0 0 Z " fill="#9A6D7F" transform="translate(0,0)"/>
<path d="M0 0 C1.88671875 1.3984375 1.88671875 1.3984375 3 3 C3 3.6599999999999966 3 4.319999999999993 3 5 C3.6599999999999966 5 4.319999999999993 5 5 5 C5 5.659999999999997 5 6.319999999999993 5 7 C5.948750000000004 7.309375000000003 6.897499999999994 7.618750000000006 7.875 7.9375 C11 9 11 9 13 10 C20.149652139210275 11.039949402066952 23.717148583874703 8.683653019610205 29.484375 4.53125 C32 3 32 3 36 3 C36 15.540000000000006 36 28.08 36 41 C-6.240000000000009 41 -48.480000000000004 41 -92 41 C-92 29.78 -92 18.560000000000002 -92 7 C-87.05182533969386 7.989634932061222 -85.01089795261372 9.119020716075482 -80.9375 11.875 C-67.93016845856157 20.1155335460503 -51.89690259074008 20.97992672175161 -36.81494140625 18.66455078125 C-34.13005808161526 18.025425027311357 -32.382784273094295 17.505822075160324 -30.6875 15.265625 C-30.460625 14.600468750000005 -30.23375 13.935312499999995 -30 13.25 C-27.468856677188867 7.340423852250268 -23.195677288361168 3.765180626577319 -17.375 1.125 C-11.866102115594003 -0.6932609913167056 -5.708194526949413 -0.796492259574336 0 0 Z " fill="#757196" transform="translate(92,87)"/>
<path d="M0 0 C0.4666406249999966 0.3609374999999986 0.9332812500000003 0.7218750000000007 1.4140625 1.09375 C10.639740954773927 6.961672692082356 21.50384633139568 5.447553128089268 32 5 C32.12705322265626 5.802119140624999 32.2541064453125 6.604238281249998 32.385009765625 7.4306640625 C32.587956542968755 8.278544921875 32.79090332031251 9.12642578125 33 10 C34.84229696503283 11.173975267167563 34.84229696503283 11.173975267167563 37 12 C42.68473030147848 16.743387864459464 46.529346354915916 21.35243425059833 47.5 28.875 C47.24859789332572 34.60259582162265 44.212393284026376 38.72072040738678 40.3203125 42.73046875 C35.885020280902296 46.72223174718792 31.63828742680849 49.60914260343577 25.625 50.5 C19.052990271225667 49.5935158994794 13.90515155573911 45.31058773080102 9 41 C8.670000000000002 40.34 8.340000000000003 39.68 8 39 C2.76311503899246 38.79943844830184 -1.9654149714823177 38.88322235534006 -7.0625 40.1875 C-12.366375150638127 41.32641989911822 -16.30506121430409 40.777043274348785 -21 38 C-25.39667690226716 34.172498906844346 -28.18241183013473 30.866195118783324 -29 25 C-28.3593359375 24.624882812500005 -27.718671875 24.249765624999995 -27.05859375 23.86328125 C-17.853004306475093 19.145312146540434 -17.853004306475093 19.145312146540434 -11 12 C-10.340000000000003 12 -9.68 12 -9 12 C-9 11.340000000000003 -9 10.68 -9 10 C-8.340000000000003 10 -7.68 10 -7 10 C-6.731875000000002 9.4225 -6.4637500000000045 8.844999999999999 -6.1875 8.25 C-4.970708108784741 5.944499574539506 -3.6966612076266756 3.979438075564456 -2 2 C-1.3400000000000034 2 -0.6799999999999997 2 0 2 C0 1.3399999999999999 0 0.6799999999999997 0 0 Z " fill="#673E20" transform="translate(55,23)"/>
<path d="M0 0 C0.8759179687500023 0.5278710937500009 0.8759179687500023 0.5278710937500009 1.76953125 1.06640625 C5.247897557709294 3.2046695028833554 5.247897557709294 3.2046695028833554 10.95703125 3.81640625 C10.95703125 21.966406250000006 10.95703125 40.11640625000001 10.95703125 58.81640625 C8.31703125 59.806406249999995 5.677031249999999 60.796406250000004 2.95703125 61.81640625 C0.9625872566390683 63.1157206161447 0.9625872566390683 63.1157206161447 -0.54296875 64.50390625 C-3.5952914861141494 66.78795727702419 -6.0619944732303 67.4952911865555 -9.9765625 67.2578125 C-13.664801323815297 66.46996564349503 -16.824054191910335 64.73405747609597 -20.04296875 62.81640625 C-20.04296875 62.15640625 -20.04296875 61.49640625000001 -20.04296875 60.81640625 C-20.702968749999997 60.81640625 -21.362968749999993 60.81640625 -22.04296875 60.81640625 C-23.73046875 59.19140625 -23.73046875 59.19140625 -25.04296875 56.81640625 C-24.889589186354385 53.28867628615079 -24.24824967270554 51.15590931447454 -22.41796875 48.12890625 C-20.90740101013496 44.48981124032514 -21.08934438031902 43.06607238645557 -21.60546875 39.25390625 C-22.25440368415957 34.15907666053447 -22.25440368415957 34.15907666053447 -20.23046875 30.87890625 C-19.508593750000003 30.19828125 -18.786718750000006 29.51765625 -18.04296875 28.81640625 C-15.504398632286836 25.13547957931592 -15.295384956602973 21.136653645525968 -16.04296875 16.81640625 C-18.45235272974145 10.933026764584845 -22.552522923189613 7.432184322673905 -27.37109375 3.4921875 C-29.7100479910728 1.1477684125695546 -30.04296875 -0.9327668704800658 -30.04296875 -4.18359375 C-18.779139699160908 -9.303516045835948 -10.380116718122451 -6.013719628281269 0 0 Z " fill="#AE7C7A" transform="translate(117.04296875,31.18359375)"/>
<path d="M0 0 C23.760000000000005 0 47.52000000000001 0 72 0 C72 11.55 72 23.1 72 35 C66.277034256682 35 65.09692252749903 34.89235872104804 60.5625 32.1875 C59.607304687500005 31.6409375 58.65210937500001 31.094375 57.66796875 30.53125 C56.7875390625 30.0259375 55.907109375000005 29.520625 55 29 C50.00794337959316 26.35891192828175 44.69015612554611 24.59165806275332 39 25 C37.8127734375 25.4730859375 36.625546875 25.946171875 35.40234375 26.43359375 C30.338796336674534 28.445552428397246 25.401645464267446 28.70568551481686 20 28.9375 C18.580742187499993 29.039013671874997 18.580742187499993 29.039013671874997 17.1328125 29.142578125 C10.553401160569535 29.456968279030956 6.628031980279999 28.445866802740877 1 25 C-0.7930252506657993 23.206974749334204 -0.42465036773680254 20.55781696319596 -0.625 18.125 C-0.7203906250000003 17.055078125 -0.8157812500000006 15.98515625 -0.9140625 14.8828125 C-1.0240418791352823 9.913744188160495 -0.4499884821072655 4.9498733031799205 0 0 Z " fill="#707775" transform="translate(56,0)"/>
<path d="M0 0 C2.1234224076886044 0.8674193070368972 4.2345242228241275 1.7660152084051077 6.328125 2.703125 C12.897427307090005 5.598739510171612 19.32276274953574 4.776339205563417 26.296875 3.91015625 C28.93359375 3.8515625 28.93359375 3.8515625 31.93359375 5.8515625 C33.584900831397746 10.80548374419324 34.09295008545944 15.447259764047203 31.76953125 20.265625 C28.952759556359005 24.58467493024952 25.843454646644894 28.484737839000232 21.93359375 31.8515625 C21.273593750000003 31.8515625 20.61359375 31.8515625 19.93359375 31.8515625 C19.93359375 32.5115625 19.93359375 33.17156249999999 19.93359375 33.8515625 C18.943593749999998 34.1815625 17.953593750000003 34.5115625 16.93359375 34.8515625 C15.903460975507485 36.49977493918803 14.902447465506114 38.16659951651111 13.93359375 39.8515625 C7.882321701979826 42.87719852401008 -0.6912779434981289 40.70406774476213 -6.90234375 39.04296875 C-11.742881397984892 37.220297166499506 -15.874421806301834 34.54065252015603 -20.15625 31.69140625 C-23.29225185902448 29.58505878334546 -23.29225185902448 29.58505878334546 -28.06640625 27.8515625 C-28.06640625 18.281562500000007 -28.06640625 8.7115625 -28.06640625 -1.1484375 C-21.229179717892407 -4.5670507660537965 -7.08889679612636 -2.3378862330481454 0 0 Z " fill="#C29199" transform="translate(28.06640625,66.1484375)"/>
<path d="M0 0 C4.948174660306142 0.9896349320612217 6.989102047386287 2.1190207160754824 11.0625 4.875 C23.928112575297348 13.025750342564109 40.55473809267943 14.342666334639219 55.482421875 11.53271484375 C57.33483809011053 11.07205461083663 59.1703596140421 10.544122910989842 61 10 C65 14.75 65 14.75 65 17 C65.66 17 66.32 17 67 17 C68.3813733468766 18.674658558527682 69.68146715644164 20.416891317367444 70.9375 22.1875 C71.97197265624999 23.631894531249998 71.97197265624999 23.631894531249998 73.02734375 25.10546875 C78 32.4019801980198 78 32.4019801980198 78 34 C52.26 34 26.519999999999996 34 0 34 C0 22.78 0 11.560000000000002 0 0 Z " fill="#6A5071" transform="translate(0,94)"/>
<path d="M0 0 C18.48 0 36.96 0 56 0 C56 3.6300000000000003 56 7.260000000000001 56 11 C53.69051441264141 13.309485587358587 52.369050417217636 13.571608225868186 49.25 14.375 C40.54227271810973 16.916310966388576 35.03101231433804 22.423022360363984 29 29 C28.67 29.66 28.34 30.32 28 31 C27.34 31 26.68 31 26 31 C25.690624999999997 31.86625 25.690624999999997 31.86625 25.375 32.75 C23.40289105012046 35.97708737253016 21.357343442993685 37.289655227154164 18 39 C12.253761535482424 39 8.762982901185943 36.8757632610934 4 34 C2.6799999999999997 33.67 1.3599999999999999 33.34 0 33 C0 22.11 0 11.219999999999999 0 0 Z " fill="#CBB382" transform="translate(0,0)"/>
<path d="M0 0 C6.0826309169162585 4.891789547385628 10.48160655549654 9.98245080509821 11.5 17.875 C11.248597893325723 23.602595821622643 8.212393284026362 27.720720407386793 4.3203125 31.73046875 C-0.11497971909768978 35.72223174718792 -4.361712573191511 38.60914260343577 -10.375 39.5 C-15.19565196798294 38.83508248717476 -18.122613905037227 36.814755177724024 -22 34 C-23.485 33.0409375 -23.485 33.0409375 -25 32.0625 C-27 30 -27 30 -27.5 27.25 C-26.07774540652386 18.00534514240509 -21.679409094124708 10.798913300996531 -14.42578125 4.91015625 C-4.908800686887787 -1.8837174658567477 -4.908800686887787 -1.8837174658567477 0 0 Z " fill="#78282A" transform="translate(91,34)"/>
<path d="M0 0 C0 9.239999999999995 0 18.480000000000004 0 28 C-2.6400000000000006 28.989999999999995 -5.280000000000001 29.980000000000004 -8 31 C-9.994443993360917 32.2993143661447 -9.994443993360917 32.2993143661447 -11.5 33.6875 C-14.55232273611415 35.97155102702419 -17.0190257232303 36.678884936555505 -20.93359375 36.44140625 C-24.62183257381531 35.65355939349503 -27.781085441910335 33.91765122609597 -31 32 C-31 31.340000000000003 -31 30.680000000000007 -31 30 C-31.659999999999997 30 -32.31999999999999 30 -33 30 C-34.6875 28.375 -34.6875 28.375 -36 26 C-36 19.487869618501577 -32.293566833419135 14.402784301677201 -27.94921875 9.8515625 C-18.466098511609957 1.0399585479208184 -13.958517567989944 0 0 0 Z " fill="#B9A4AF" transform="translate(128,62)"/>
<path d="M0 0 C11.219999999999999 0 22.439999999999998 0 34 0 C33.34 4.29 32.68000000000001 8.58 32 13 C31.903775806983475 15.581624690687477 31.864468753900013 18.167615137904118 31.9375 20.75 C31.990257375225028 22.83276942192719 32.02107415661598 24.916669088819905 32 27 C29.569109981460983 29.430890018539014 23.709334178231103 28.625717933378724 20.4375 28.8125 C19.45974609375 28.88919921875 18.481992187499998 28.9658984375 17.474609375 29.044921875 C10.734592585964677 29.41961805282313 6.756449844944925 28.56671513146529 1 25 C-0.7930252506657993 23.206974749334204 -0.42465036773680254 20.55781696319596 -0.625 18.125 C-0.7203906250000003 17.055078125 -0.8157812500000006 15.98515625 -0.9140625 14.8828125 C-1.0240418791352823 9.913744188160495 -0.4499884821072655 4.9498733031799205 0 0 Z " fill="#5E6449" transform="translate(56,0)"/>
<path d="M0 0 C1.7653710937499998 0.13535156250000568 1.7653710937499998 0.13535156250000568 3.56640625 0.2734375 C6.4375 0.625 6.4375 0.625 7.4375 1.625 C7.683720510842253 3.9774441578061186 7.909182463329316 6.332072046013522 8.125 8.6875 C9.237207306551092 18.146272048506574 12.714159018447244 22.554070499005093 19.9375 28.4375 C24.825182599212326 32.03765547156746 29.355140833454364 34.73053541668446 35.4375 35.625 C35.12499999999999 38.00000000000003 35.12499999999999 38.00000000000003 34.4375 40.625 C29.471583507521167 43.93561099498589 24.326403388470197 43.02251940359059 18.5703125 42.23046875 C11.215116507847533 40.71845896381481 5.523944791211301 37.574716050657344 -0.65234375 33.46484375 C-3.7883456090244794 31.35849628334546 -3.7883456090244794 31.35849628334546 -8.5625 29.625 C-8.5625 20.055000000000007 -8.5625 10.485 -8.5625 0.625 C-5.636046431000354 -0.8382267844998239 -3.2364448056690724 -0.2628945286712536 0 0 Z " fill="#99809E" transform="translate(8.5625,64.375)"/>
<path d="M0 0 C0.026963652256171144 1.7915848943545019 0.046379168566382134 3.583284734949185 0.0625 5.375 C0.07410156249999744 6.372734375 0.08570312500000199 7.370468750000001 0.09765625 8.3984375 C0 11 0 11 -1 13 C-1.6599999999999966 13 -2.3200000000000003 13 -3 13 C-3.2681249999999977 13.5775 -3.5362500000000026 14.155000000000001 -3.8125 14.75 C-5.029291891215259 17.055500425460494 -6.303338792373317 19.02056192443554 -8 21 C-8.659999999999997 21 -9.32 21 -10 21 C-10 21.659999999999997 -10 22.32 -10 23 C-10.659999999999997 23 -11.32 23 -12 23 C-12.494999999999997 24.485 -12.494999999999997 24.485 -13 26 C-16.13007457573464 28.629750764408627 -19.576626789952314 30.773047970556348 -23 33 C-23.6200390625 33.4782421875 -24.240078125 33.956484375 -24.87890625 34.44921875 C-28.9338672167899 37.17974056432608 -32.00835117681785 37.09775799952767 -36.81005859375 36.293701171875 C-40.23184154989342 35.6202609871394 -43.610574780833716 34.822609746041365 -47 34 C-48.8327285039865 33.60137565357308 -50.66592719230555 33.204892756004355 -52.5 32.8125 C-53.655 32.544375 -54.81 32.27625 -56 32 C-56 28.370000000000005 -56 24.739999999999995 -56 21 C-51.80289860115677 21.34262052235455 -48.99175479073779 21.824254711352772 -45.4375 24.125 C-42.195365018593634 26.249402151396133 -42.195365018593634 26.249402151396133 -38.875 26 C-34.968766238681 24.641309996062958 -31.887192086897773 22.774384173795546 -30 19 C-29.34 19 -28.68 19 -28 19 C-27.7641015625 18.443125 -27.528203125 17.88625 -27.28515625 17.3125 C-22.94776798655083 9.507837835982041 -15.4705320537553 3.5947281982847272 -7 1 C-4.519287613908794 0.3666266248277772 -2.53711791593706 0 0 0 Z " fill="#B28445" transform="translate(56,12)"/>
<path d="M0 0 C5.826097570442416 0.6473441744936039 11.599110839963485 1.2891924341813095 17.375 2.25 C18.0723828125 2.3466796875 18.769765625 2.443359375 19.48828125 2.54296875 C22.956567492991752 3.1354399124304564 24.6451240508638 3.5344638086600355 26.81640625 6.3828125 C27.40228515625 7.678320312499999 27.40228515625 7.678320312499999 28 9 C31.56303750938269 14.43890460933806 35.06413263632005 17.132411835021117 41.42578125 18.7109375 C44.81465582680502 19.091478803009977 47.43825267087521 18.49709716394873 50.68359375 17.55078125 C54.74462734587716 16.58517292450476 58.851905657492296 16.844121715730395 63 17 C63.495 18.980000000000004 63.495 18.980000000000004 64 21 C58.03372219898071 26.671191418279534 52.17958394264666 27.77269368311255 44.0673828125 28.06494140625 C37.92563394326776 27.8720144814489 32.213865010746694 25.451663499579894 26.685546875 22.95458984375 C23.748349425236583 21.910549659334094 21.371424852348373 21.68571416638551 18.26171875 21.5859375 C17.19501953125 21.547265624999994 16.1283203125 21.508593750000003 15.029296875 21.46875 C13.92650390625 21.437812500000007 12.8237109375 21.406875 11.6875 21.375 C10.56537109375 21.336328124999994 9.443242187500001 21.297656250000003 8.287109375 21.2578125 C5.525003178758933 21.163783352893915 2.762524461148448 21.080812878771084 0 21 C0 14.07 0 7.140000000000001 0 0 Z " fill="#8C675E" transform="translate(0,44)"/>
<path d="M0 0 C5.699496810459195 0.9499161350765348 7.439696937920146 1.7173984637169042 12 4.75 C18.97696680023967 9.107452298231422 26.142023050070254 10.754079563520875 34.18359375 12.1884765625 C40.00201168061632 13.28309259764832 45.719947365366714 14.647482976243538 50 19 C50.66 20.980000000000004 51.32 22.960000000000008 52 25 C34.84 25 17.68 25 0 25 C0 16.75 0 8.5 0 0 Z " fill="#361F45" transform="translate(0,103)"/>
<path d="M0 0 C0 12.540000000000006 0 25.08 0 38 C-7.260000000000005 38 -14.519999999999996 38 -22 38 C-22 31.32684475292784 -21.896428130663296 27.455455895618485 -20.1875 21.375 C-19.851054687499996 20.145234375 -19.514609375000006 18.915468750000002 -19.16796875 17.6484375 C-15.668171910461652 6.715961753749781 -15.668171910461652 6.715961753749781 -9.5625 3.0625 C-8.615039062500003 2.4759765624999943 -7.667578125000006 1.8894531250000028 -6.69140625 1.28515625 C-4 0 -4 0 0 0 Z " fill="#785D6B" transform="translate(128,90)"/>
<path d="M0 0 C5.61 0 11.22 0 17 0 C17 5.000000000000002 17 5.000000000000002 15.71484375 6.6953125 C10.957198540947466 10.522341393435665 6.3462501114069125 14 0 14 C0 9.379999999999999 0 4.76 0 0 Z " fill="#8B665D" transform="translate(0,0)"/>
</svg>
