<?xml version="1.0" encoding="UTF-8"?>
<!-- Generator: visioncortex VTracer 0.6.0 -->
<svg version="1.1" xmlns="http://www.w3.org/2000/svg" width="128" height="128">
<path d="M0 0 C42.24 0 84.48 0 128 0 C128 42.24 128 84.48 128 128 C85.75999999999999 128 43.519999999999996 128 0 128 C0 85.75999999999999 0 43.519999999999996 0 0 Z " fill="#7A888E" transform="translate(0,0)"/>
<path d="M0 0 C14.189999999999998 0 28.380000000000003 0 43 0 C44.155991925123885 16.18388695173426 44.155991925123885 16.18388695173426 40 25 C39.481796875 26.1201953125 38.96359375 27.240390625 38.4296875 28.39453125 C37.394235474138185 30.623004088267802 36.342312748839845 32.843942841631325 35.26953125 35.0546875 C30.958791810328222 45.055603000038516 32.97025494976725 55.56742951740429 35.31640625 65.81640625 C37.26200901797725 74.87735628372258 35.275338706585174 82.58635726735403 30.4921875 90.4921875 C26.09651578494468 96.5643479621927 20.797275993570103 101.81479063688268 13.34375 103.65625 C8.93569384522037 104.22670432591266 5.839479953138266 104.4887034237826 2 102 C0.0406821446993888 99.06102321704908 -0.3055716009635461 98.05814834145347 -0.67578125 94.71875 C-0.7785839843750004 93.88190673828124 -0.8813867187500009 93.0450634765625 -0.9873046875 92.182861328125 C-1.0946191406249994 91.29751708984375 -1.2019335937499989 90.4121728515625 -1.3125 89.5 C-2.891965757841657 77.991438137181 -6.062629271810277 69.71719832129833 -13.64453125 60.77734375 C-15 59 -15 59 -15 57 C-15.5775 56.7525 -16.155 56.505 -16.75 56.25 C-19.51401611673935 54.71443549070036 -21.15239663656893 53.60033065964373 -23 51 C-23.1261172808636 43.55908042904759 -19.968287908369998 37.398474561756956 -15.11328125 31.83984375 C-12.203408779007034 27.929534532972486 -10.431780438119333 23.70694053299887 -8.5 19.25 C-8.122304687499998 18.3940625 -7.744609375 17.538125 -7.35546875 16.65625 C-6.639213210548366 15.03175290021279 -5.9259044482988585 13.405950268756154 -5.216796875 11.7783203125 C-3.4941689048692304 7.845032531583433 -1.743947407273982 3.923881666366456 0 0 Z " fill="#105295" transform="translate(32,0)"/>
<path d="M0 0 C11.549999999999997 0 23.099999999999994 0 35 0 C35 31.020000000000003 35 62.040000000000006 35 94 C28.27039413382218 94 28.27039413382218 94 24.890625 92.171875 C24.14449951171875 91.786123046875 23.398374023437498 91.40037109375 22.629638671875 91.0029296875 C21.844357910156248 90.589462890625 21.059077148437495 90.17599609375 20.25 89.75 C12.939198219163785 86.05560912063429 6.064694031491257 83.66113284721845 -2.0361328125 82.4052734375 C-7.344248129030888 81.5029675916608 -10.56294844298472 80.20733359065858 -14 76 C-14.823911981349482 72.22548421316063 -14.747219189951053 68.59746009965896 -14.625 64.75 C-14.634667968749994 63.25146484375 -14.634667968749994 63.25146484375 -14.64453125 61.72265625 C-14.51283313678374 52.56365110359639 -12.13632636852401 45.63395372814658 -5.75 38.9375 C-4.972695312500008 38.1060546875 -4.195390625000002 37.274609375 -3.39453125 36.41796875 C-1.8394843539080767 34.8477011665075 -0.2545410107778565 33.306291882756916 1.36328125 31.80078125 C2.0890234375000034 31.1240234375 2.814765625000007 30.447265625 3.5625 29.75 C4.554433593749991 28.876015625 4.554433593749991 28.876015625 5.56640625 27.984375 C7.625933774662258 25.13358485687077 7.426596778948962 23.467144409300857 7 20 C6.099241800130443 17.396891440743957 5.163453782322463 14.949287004520587 4.0625 12.4375 C2.273705062318598 8.27471270882958 0.8982064275290327 4.4910321376451305 0 0 Z " fill="#BCD8E2" transform="translate(93,0)"/>
<path d="M0 0 C1.9325381869680598 3.6962138139097824 3.5393869974318477 7.520974137298447 5.125 11.375 C5.402148437500003 12.022109375 5.679296875000006 12.66921875 5.96484375 13.3359375 C7.62784513044042 17.399231513292825 8.919085092319818 20.659875952934218 8 25 C5.860400973768691 27.781247092199617 3.3421396564172454 30.082533935066404 0.75 32.4375 C-5.930636671379901 38.60667015873173 -12.193813897149923 45.11818986467502 -13.306396484375 54.615478515625 C-13.376229781253443 57.59828261889671 -13.420811102317586 60.578895958777885 -13.4375 63.5625 C-13.486806640625005 65.123876953125 -13.486806640625005 65.123876953125 -13.537109375 66.716796875 C-13.659363865551683 72.54703669722988 -13.659363865551683 72.54703669722988 -11.0859375 77.57421875 C-6.8820533372697525 79.51651966062853 -2.7173821373364717 80.37243455044502 1.8125 81.25 C9.82033356478344 82.95109910754722 16.70596875441285 85.31782997756592 23.848876953125 89.3212890625 C27.871991391482055 91.56730557039015 30.214515960409855 92.20241932673498 35 93 C35 104.22 35 115.44 35 127 C15.200000000000003 127 -4.599999999999994 127 -25 127 C-31.716857610474634 101.81178396072013 -31.716857610474634 101.81178396072013 -25 89 C-24.289726562499993 87.9184765625 -23.579453125 86.836953125 -22.84765625 85.72265625 C-20.58067206304588 81.78164030238523 -20.70405022443137 78.23427208521653 -21.1875 73.8125 C-21.24848876953125 73.06927490234375 -21.3094775390625 72.3260498046875 -21.372314453125 71.560302734375 C-21.652445296447482 68.22642205601468 -22.01054231086215 64.90380141338294 -22.375 61.578125 C-23.91757936997186 46.692234079771495 -18.762465064826316 36.15656591756455 -9.8125 24.3125 C-4.183487948874998 16.810779877707684 -1.7651797924039698 9.120095594087175 0 0 Z " fill="#9C9690" transform="translate(93,1)"/>
<path d="M0 0 C3.960000000000001 0 7.920000000000002 0 12 0 C11.295454545454547 10.568181818181813 11.295454545454547 10.568181818181813 8 15 C0.5213911348794369 25.62050963094044 -8.873143425770138 39.23064540087888 -6.55859375 52.85546875 C-3.8293449343508428 63.33349392336635 4.444098218410268 70.68022014908495 12 78 C12.329999999999998 78.33 12.659999999999997 78.66 13 79 C15.332974331356695 79.04092937423432 17.66705224600225 79.04241723189087 20 79 C23.735854751326343 72.50149635693653 24.179834961233198 64.11236691746576 23.9375 56.75 C23.850567075374258 51.89756220725417 24.408377416279812 47.18897486802571 27 43 C30.117187499999986 40.742187500000014 30.117187499999986 40.742187500000014 33 39 C32.9651953125 39.992578125 32.930390625 40.98515625 32.89453125 42.0078125 C32.695477235030324 50.37637504601635 33.38060759282418 57.75998908923155 35.31640625 65.95703125 C37.331243852391594 74.92593692007458 35.22029969944566 82.67732847604576 30.4921875 90.4921875 C26.09651578494468 96.5643479621927 20.797275993570103 101.81479063688268 13.34375 103.65625 C8.93569384522037 104.22670432591266 5.839479953138266 104.4887034237826 2 102 C0.0406821446993888 99.06102321704908 -0.3055716009635461 98.05814834145347 -0.67578125 94.71875 C-0.7785839843750004 93.88190673828124 -0.8813867187500009 93.0450634765625 -0.9873046875 92.182861328125 C-1.0946191406249994 91.29751708984375 -1.2019335937499989 90.4121728515625 -1.3125 89.5 C-2.891965757841657 77.991438137181 -6.062629271810277 69.71719832129833 -13.64453125 60.77734375 C-15 59 -15 59 -15 57 C-15.5775 56.7525 -16.155 56.505 -16.75 56.25 C-19.51401611673935 54.71443549070036 -21.15239663656893 53.60033065964373 -23 51 C-23.1261172808636 43.55908042904759 -19.968287908369998 37.398474561756956 -15.11328125 31.83984375 C-12.203408779007034 27.929534532972486 -10.431780438119333 23.70694053299887 -8.5 19.25 C-8.122304687499998 18.3940625 -7.744609375 17.538125 -7.35546875 16.65625 C-6.603704793645118 14.951218346411608 -5.854954671349905 13.24485436166589 -5.109375 11.537109375 C-3.4242837201483525 7.683353085339279 -1.7111264145037097 3.8422565852946926 0 0 Z " fill="#43658B" transform="translate(32,0)"/>
<path d="M0 0 C4.202466581672184 3.0818088265596018 4.718611350570612 6.2212297174107185 5.611328125 11.06640625 C6.304758722462196 16.30023920169959 6.255965462260818 21.54055820864823 6.3125 26.8125 C6.61772384551071 39.33459413455444 8.50331971955309 48.72677146753571 16 59 C16 59.66 16 60.31999999999999 16 61 C16.659999999999997 61 17.319999999999993 61 18 61 C20.5 63.5 20.5 63.5 23 66 C25.166205443279594 67.29519995483105 25.166205443279594 67.29519995483105 27 68 C27 68.66 27 69.32 27 70 C21.06329518263206 70.64282791016086 17.330931008570303 68.4252167780838 12.25 65.75 C4.939198219163785 62.05560912063429 -1.935305968508743 59.661132847218454 -10.0361328125 58.4052734375 C-15.344248129030888 57.50296759166079 -18.56294844298472 56.20733359065858 -22 52 C-22.823911981349482 48.225484213160655 -22.747219189951053 44.597460099658946 -22.625 40.75 C-22.634667968749994 39.25146484375 -22.634667968749994 39.25146484375 -22.64453125 37.72265625 C-22.51283313678374 28.563651103596385 -20.13632636852401 21.63395372814658 -13.75 14.9375 C-12.971406250000001 14.111210937499997 -12.192812500000002 13.284921875000002 -11.390625 12.43359375 C-8.466431608212389 9.456841326660658 -5.529106362466223 6.4964363192133305 -2.53125 3.59375 C-0.9065338580307127 2.060729938615701 -0.9065338580307127 2.060729938615701 0 0 Z " fill="#C8CBC5" transform="translate(101,24)"/>
<path d="M0 0 C2.6410657811955502 2.6410657811955502 3.537385071259024 5.587231832937732 5 9 C7.644616932423759 11.644616932423759 9.304753880771344 11.62133520332992 13 12 C16.572066470169986 11.803114446526067 20.10278666052065 11.433256996666117 23.66015625 11.05859375 C28.11867840599217 10.980374063052764 30.73665827743406 11.989326621947242 34.1875 14.75 C38.204323506924084 19.736401594802317 38.36055554680726 24.78041681757489 38 31 C37.34 34.629999999999995 36.68000000000001 38.25999999999999 36 42 C23.129999999999995 42 10.259999999999991 42 -3 42 C-9.827099293976268 16.398377647589 -9.827099293976268 16.398377647589 -3 4 C-2.0273210873893532 2.6466066681336287 -1.0342771698677211 1.306923300606499 0 0 Z " fill="#897B70" transform="translate(71,86)"/>
<path d="M0 0 C7.969230769230769 1.1384615384615415 7.969230769230769 1.1384615384615415 12.25 5.0625 C13.08015625 5.795976562500002 13.9103125 6.529453125000003 14.765625 7.28515625 C20.32877933560166 14.04458328364187 20.796461739537847 22.33414430481838 21.728515625 30.75390625 C22.438687809141022 36.275600036753275 23.530260292861698 39.62393452140647 27 44 C30.43005662814993 48.88123443236721 30.527372300002945 51.373175350013256 32 58 C21.439999999999998 58 10.879999999999999 58 0 58 C0 38.86 0 19.72 0 0 Z " fill="#A0C5DF" transform="translate(0,70)"/>
<path d="M0 0 C10.56 0 21.12 0 32 0 C27.062832220253533 13.5772113943028 27.062832220253533 13.5772113943028 24.25 20 C23.91073486328125 20.7747265625 23.5714697265625 21.549453125 23.221923828125 22.34765625 C20.669084323496527 27.97341247266252 17.53105091514644 32.66386966548241 13.69921875 37.51953125 C11.062254412146485 41.36889298456777 9.94331085828353 45.4701426492843 9 50 C2.249999999999994 51.125 2.249999999999994 51.125 0 50 C0 33.5 0 17 0 0 Z " fill="#65A9E0" transform="translate(0,0)"/>
<path d="M0 0 C11.549999999999997 0 23.099999999999994 0 35 0 C35 12.870000000000001 35 25.740000000000002 35 39 C27.118241235888306 37.87403446226976 27.118241235888306 37.87403446226976 23.5625 35.75 C22.808398437500003 35.3026953125 22.054296875000006 34.855390625 21.27734375 34.39453125 C20.525820312500002 33.9343359375 19.774296875000005 33.474140625 19 33 C18.2587890625 32.5707421875 17.517578125 32.141484375 16.75390625 31.69921875 C10.00832916223493 27.701381320003453 7.622344749340115 23.63847301864441 4.9375 16.25 C4.681621093749996 15.571953125 4.425742187500006 14.89390625 4.162109375 14.1953125 C2.4124511087701563 9.463588859707475 1.2444321860290302 4.977728744116136 0 0 Z " fill="#ACD3E6" transform="translate(93,0)"/>
<path d="M0 0 C10.238977955911823 0 10.238977955911823 0 14.95703125 4.69921875 C26.027571863697304 17.166806553953563 31.057954704350646 29.03820106252529 32.54296875 45.50390625 C32.807823714633784 48.94090158828976 32.807823714633784 48.94090158828976 34.23046875 51.5703125 C35 54 35 54 33.8828125 57.11328125 C33.302734375 58.1690234375 32.72265625 59.224765625 32.125 60.3125 C31.550078125 61.3811328125 30.97515625 62.449765625 30.3828125 63.55078125 C29.926484375 64.3590234375 29.47015625 65.167265625 29 66 C23.73003857879584 62.12275269010917 22.35213934946687 59.266645831183 21 53 C20.664538673378605 50.50297738329397 20.353672064350363 48.00257369101131 20.0625 45.5 C18.852220242538618 35.81776194030894 16.706527355467657 29.8760022089955 9.29296875 23.41015625 C6.397843017565144 21.48763322316732 6.397843017565144 21.48763322316732 0 20 C0 13.399999999999999 0 6.799999999999997 0 0 Z " fill="#6A96B2" transform="translate(0,50)"/>
<path d="M0 0 C10.230000000000004 0 20.460000000000008 0 31 0 C32.161490683229815 16.260869565217376 32.161490683229815 16.260869565217376 28 25 C27.466328125000004 26.2052734375 26.932656250000008 27.410546875 26.3828125 28.65234375 C23.401995208219162 35.11852647203682 21.252566249985563 39.415782445430814 15 43 C14.90203125 42.2381640625 14.8040625 41.476328125 14.703125 40.69140625 C13.825540292827071 34.63153253926282 12.64822794489357 29.40743318228401 9.9375 23.90625 C9 22 9 22 8 19.0625 C6.7240201397234145 16.430791538179548 5.678844292685596 16.07153771707424 3 15 C1.3500000000000014 14.01 -0.29999999999999716 13.02 -2 12 C-1.3400000000000034 8.04 -0.6799999999999997 4.08 0 0 Z " fill="#235076" transform="translate(44,0)"/>
<path d="M0 0 C3.960000000000001 0 7.920000000000002 0 12 0 C11.295454545454547 10.568181818181813 11.295454545454547 10.568181818181813 8 15 C0.3732558611705912 25.83087925040863 -8.671050302619726 39.1237353291677 -6.4609375 52.94921875 C-5.83948547835146 55.71415359208037 -5.016881888766974 58.356107089205864 -4 61 C-6.969999999999999 61 -9.940000000000001 61 -13 61 C-13.66 59.68 -14.32 58.36 -15 57 C-16.31533410441164 56.298488477647126 -17.651175916376957 55.634740745234375 -19 55 C-21.312500000000004 53.375 -21.312500000000004 53.375 -23 51 C-23.1261172808636 43.55908042904759 -19.968287908369998 37.398474561756956 -15.11328125 31.83984375 C-12.203408779007034 27.929534532972486 -10.431780438119333 23.70694053299887 -8.5 19.25 C-8.122304687499998 18.3940625 -7.744609375 17.538125 -7.35546875 16.65625 C-6.603704793645118 14.951218346411608 -5.854954671349905 13.24485436166589 -5.109375 11.537109375 C-3.4242837201483525 7.683353085339279 -1.7111264145037097 3.8422565852946926 0 0 Z " fill="#347CB9" transform="translate(32,0)"/>
<path d="M0 0 C5.939999999999998 0 11.879999999999995 0 18 0 C17.29562180983183 12.32661832794296 13.08544618834037 20.13428791013692 6.0830078125 30.02783203125 C-1.0233972556896163 40.159617515032835 -4.679837132477019 48.700478657080524 -3.4375 61.0625 C-2.9493062978936564 66.01328485084771 -3.1015669259752343 69.40379361025583 -5 74 C-5.989999999999995 74.99 -5.989999999999995 74.99 -7 76 C-11.219134575802947 56.03765848310255 -12.853700469666421 42.310966924483395 -3.36328125 23.73046875 C0.5818196005118068 15.828963035078079 0.16567037810732188 8.697694850634623 0 0 Z " fill="#6A7D8F" transform="translate(75,0)"/>
<path d="M0 0 C1.9325381869680598 3.696213813909786 3.5393869974318477 7.520974137298445 5.125 11.375 C5.540722656249997 12.3456640625 5.540722656249997 12.3456640625 5.96484375 13.3359375 C7.627845130440406 17.399231513292822 8.919085092319818 20.65987595293422 8 25 C5.860400973768691 27.78124709219962 3.3421396564172454 30.0825339350664 0.75 32.4375 C-5.835518774239262 38.51883444464249 -12.41514134973842 45.159835458239826 -13.2236328125 54.615478515625 C-13.216865234375007 55.52740966796875 -13.21009765625 56.4393408203125 -13.203125 57.37890625 C-13.214726562500005 58.38244140625 -13.226328124999995 59.3859765625 -13.23828125 60.419921875 C-13.246108316298574 62.5188801540658 -13.238236421994742 64.61795435991635 -13.21484375 66.716796875 C-13.340561631666233 74.235693259269 -13.340561631666233 74.235693259269 -15.384765625 76.60498046875 C-17.046874999999986 77.71484374999999 -17.046874999999986 77.71484374999999 -20 79 C-24.473487588355923 62.829442406024896 -24.308678023529083 48.006119365442125 -16.00390625 33.234375 C-14.078247893931476 30.126294846345544 -12.015833139635106 27.22831282777879 -9.8125 24.3125 C-4.183487948874998 16.81077987770768 -1.7651797924039698 9.120095594087179 0 0 Z " fill="#A3A6AA" transform="translate(93,1)"/>
<path d="M0 0 C2.2251924872668667 1.1125962436334333 4.419095863990066 2.235148810564553 6.58984375 3.453125 C11.344997728631341 5.610102062471952 16.168975460791444 6.422586762098831 21.279296875 7.373046875 C26.56173702793643 8.440251605813017 30.44906861831049 10.097342034847827 35 13 C29.467080929262806 18.858384898427616 25.146278218730302 22.390846636725968 17.01171875 22.8046875 C15.76841796875 22.8394921875 15.76841796875 22.8394921875 14.5 22.875 C13.25669921875 22.944609375 13.25669921875 22.944609375 11.98828125 23.015625 C6.121363604146637 23.25813669919266 1.2621763955692273 23.017616785237422 -3.3125 18.9375 C-5.569409190837192 15.008806223357482 -6.221397561840561 11.518150243487014 -6 7 C-4.438186809428899 3.3297390021578934 -3.340894043923356 2.227262695948909 0 0 Z " fill="#B2A295" transform="translate(78,76)"/>
</svg>
