<?xml version="1.0" encoding="UTF-8"?>
<!-- Generator: visioncortex VTracer 0.6.0 -->
<svg version="1.1" xmlns="http://www.w3.org/2000/svg" width="128" height="128">
<path d="M0 0 C42.24 0 84.48 0 128 0 C128 42.24 128 84.48 128 128 C85.75999999999999 128 43.519999999999996 128 0 128 C0 85.75999999999999 0 43.519999999999996 0 0 Z " fill="#594E6E" transform="translate(0,0)"/>
<path d="M0 0 C2.0058951413672332 0.6464435522593845 4.012385962865054 1.2910422884419503 6.01953125 1.93359375 C6.893273925781244 2.22161865234375 7.767016601562503 2.5096435546875 8.667236328125 2.806396484375 C11.132860275773396 3.5461075534311917 13.663295266726138 4.057659053345226 16.1875 4.5625 C16.1875 16.442500000000003 16.1875 28.322500000000005 16.1875 40.5625 C12.227500000000006 42.212500000000006 8.267499999999998 43.8625 4.1875 45.5625 C1.2849650721621657 47.829603134027735 1.2849650721621657 47.829603134027735 -0.625 50.4375 C-3.663606536619028 54.1599308751685 -6.727402457774929 57.49348746819928 -10.3046875 60.69921875 C-14.939334042675924 66.42648921853993 -15.40838091598063 72.8170204267603 -15.896484375 79.865234375 C-16.215760561680497 83.25472197299187 -16.602429709912954 85.28836262974117 -18.6953125 88.01953125 C-21.065169199188333 89.74664083704685 -22.653520000592778 90.11885014986247 -25.57421875 89.96875 C-28.507309039528252 89.43639155303501 -31.234071372529684 88.50195434838872 -34.0625 87.5625 C-46.56178717005365 83.57701300520576 -54.48732461917458 86.06408793248914 -66.03125 91.6328125 C-71.48021823575387 94.03295327051063 -75.36706736840483 93.41530280411122 -80.8125 91.5625 C-82.8125 90.5625 -82.8125 90.5625 -83.408447265625 88.91748046875 C-83.92542636910011 85.9043200868038 -84.10828178752857 82.93586047344355 -84.27734375 79.8828125 C-84.3560206892782 78.54686915993175 -84.43480028642188 77.21093186246982 -84.513671875 75.875 C-84.63184006813694 73.7979574265869 -84.7481723130316 71.72083637320144 -84.862060546875 69.6435546875 C-85.33339968305474 61.15740538101011 -86.08819788198042 52.852881263629314 -87.5283203125 44.467041015625 C-88.01915721915543 39.45029988291055 -86.4109686067808 36.769909028411575 -83.5 32.75 C-79.1206003599114 29.66820025327098 -74.28268103165465 28.863938148738292 -69.05078125 29.55859375 C-65.023845131311 31.364741363443407 -63.46322853248002 35.09230956050795 -61.38671875 38.82421875 C-60.02990719222911 41.18433016934837 -58.847978503109516 42.79571180804132 -56.875 44.625 C-55.8540625 45.5840625 -55.8540625 45.5840625 -54.8125 46.5625 C-54.8125 47.2225 -54.8125 47.88249999999999 -54.8125 48.5625 C-54.235 48.78937500000001 -53.6575 49.01625 -53.0625 49.25 C-50.24613389572899 50.89288022749142 -48.73172885726194 52.9578322651445 -46.8125 55.5625 C-45.41281260699944 55.358188332612116 -44.017675083598775 55.12263716820925 -42.625 54.875 C-41.84769531250001 54.74738281250001 -41.070390625 54.619765625 -40.26953125 54.48828125 C-35.68000500272241 52.75900029514342 -33.34350840163468 49.49797863096492 -30.9765625 45.328125 C-26.589937788623672 35.71856876336501 -26.589937788623672 35.71856876336501 -27.8125 25.5625 C-29.296862273799306 22.70357759320298 -30.88422063910339 19.921547183430768 -32.49609375 17.1328125 C-34.27511186401358 13.659240039997215 -34.548901450256366 11.391787541333102 -33.8125 7.5625 C-31.989068053310064 3.0798964643872644 -30.397928474020745 0.5455702158337843 -26.1875 -1.875 C-17.271094074261597 -5.5348873473065865 -8.75781379970799 -2.911673943819636 0 0 Z " fill="#474C54" transform="translate(111.8125,24.4375)"/>
<path d="M0 0 C42.24 0 84.48 0 128 0 C128 9.57 128 19.14 128 29 C118.99527346387575 27.87440918298447 118.99527346387575 27.87440918298447 114.36328125 26.44140625 C113.37392578125 26.13783203125 112.3845703125 25.8342578125 111.365234375 25.521484375 C109.854130859375 25.046787109375 109.854130859375 25.046787109375 108.3125 24.5625 C107.29349609375 24.24990234375 106.2744921875 23.9373046875 105.224609375 23.615234375 C97.7403358435076 21.299955512739764 97.7403358435076 21.299955512739764 94.32275390625 19.915283203125 C85.53274025930219 16.451570657149876 75.43455222165238 20.040861153740092 67 23 C65.48884172328285 23.684205213236755 63.987009739330986 24.389787006204383 62.5 25.125 C54.86746346661071 28.721779739296622 46.13211020503108 29.155921903027025 37.8125 28.875 C30.08577949206094 28.73095993726878 23.70826609762117 31.393693499301406 17.125 35.25 C12.999999999999998 37 12.999999999999998 37 0 37 C0 24.79 0 12.579999999999998 0 0 Z " fill="#698796" transform="translate(0,0)"/>
<path d="M0 0 C0 20.790000000000006 0 41.58000000000001 0 63 C-42.24000000000001 63 -84.48 63 -128 63 C-128 54.09 -128 45.18000000000001 -128 36 C-120.21177318445453 34.44235463689091 -114.7318864811657 37.398003597090565 -108 41 C-108 41.66 -108 42.31999999999999 -108 43 C-107.34 43 -106.68 43 -106 43 C-106 43.66 -106 44.31999999999999 -106 45 C-105.484375 45.2475 -104.96875 45.495000000000005 -104.4375 45.75 C-102.00000000000001 47 -102.00000000000001 47 -98.6875 49.0625 C-95.00629746837167 51.11279001761578 -92.3135391317013 52.07071375625739 -88 52 C-83.12384103656353 50.34991858281501 -78.50069183455697 48.160068233720466 -73.8359375 45.99609375 C-64.52056541628374 42.02843526989864 -56.254030211585246 43.996279703734615 -46.9609375 47.09765625 C-43.30291103224228 48.21243740310294 -40.77017826932544 48.573722780114736 -37 48 C-34.96463669585613 46.43939321529547 -34.116803161220076 45.498131128732695 -33.52685546875 42.982177734375 C-33.447819824218755 41.84437866210938 -33.447819824218755 41.84437866210938 -33.3671875 40.68359375 C-32.31044671792813 29.412051510206894 -31.039359691944384 22.59306214123329 -22 15 C-20.73954028999117 13.739540289991169 -19.48854357179502 12.469501240980804 -18.25 11.1875 C-17.686679687500003 10.6396484375 -17.123359375000007 10.091796875 -16.54296875 9.52734375 C-15.158786863323101 8.157178895086915 -13.854385891357666 6.707512287685574 -12.5625 5.25 C-9.060030105875413 2.174660580768659 -4.790738257394366 0 0 0 Z " fill="#4F8793" transform="translate(128,65)"/>
<path d="M0 0 C2.0058951413672332 0.6464435522593845 4.012385962865054 1.2910422884419503 6.01953125 1.93359375 C6.893273925781244 2.22161865234375 7.767016601562503 2.5096435546875 8.667236328125 2.806396484375 C11.132860275773396 3.5461075534311917 13.663295266726124 4.057659053345226 16.1875 4.5625 C16.1875 16.442500000000003 16.1875 28.322500000000005 16.1875 40.5625 C6.1875 44.5625 6.1875 44.5625 1.1875 42.5625 C0.19750000000000512 42.067499999999995 0.19750000000000512 42.067499999999995 -0.8125 41.5625 C-0.8125 40.9025 -0.8125 40.24250000000001 -0.8125 39.5625 C-1.3667968750000057 39.43875 -1.9210937499999972 39.315 -2.4921875 39.1875 C-5.066863004422842 38.493984712613376 -7.459087425964668 37.54519419845133 -9.9375 36.5625 C-15.235684116407782 34.594399305345156 -20.18563031069344 33.80661582166189 -25.8125 33.5625 C-26.050332031249994 32.63630859375 -26.050332031249994 32.63630859375 -26.29296875 31.69140625 C-27.574940511599664 27.03806123690066 -28.988515235513773 23.013241941482995 -31.5 18.875 C-33.80711212250024 14.896979400901088 -34.590621406063306 12.23122843637983 -33.8125 7.5625 C-31.989068053310064 3.0798964643872573 -30.397928474020745 0.5455702158337843 -26.1875 -1.875 C-17.27109407426161 -5.534887347306583 -8.757813799707975 -2.9116739438196326 0 0 Z " fill="#33456A" transform="translate(111.8125,24.4375)"/>
<path d="M0 0 C0 0.3299999999999983 0 0.6600000000000001 0 1 C-1.013203125000004 1.181757812499999 -1.013203125000004 1.181757812499999 -2.046875 1.3671875 C-2.9389062500000023 1.5347656249999986 -3.8309375000000045 1.7023437500000007 -4.75 1.875 C-6.072578125000007 2.1186328124999996 -6.072578125000007 2.1186328124999996 -7.421875 2.3671875 C-11.861888979930157 3.457009113255584 -13.563757070507876 4.381989183219488 -16.25 8.1875 C-18.221815933486724 12.028597438432143 -18.725973693473023 14.644157839161863 -18 19 C-17.069258340640914 20.817293803733747 -16.084240386478527 22.60726603014077 -15.0625 24.375 C-10.047292385386484 33.24159910813249 -10.047292385386484 33.24159910813249 -11 39 C-13.117402180048884 45.51289476883022 -15.73364178465576 53.447527738677906 -21 58 C-23.69921875 58.94921875 -23.69921875 58.94921875 -26.6875 59.6875 C-28.17830078125 60.064550781250006 -28.17830078125 60.064550781250006 -29.69921875 60.44921875 C-30.458476562499996 60.630976562499995 -31.217734374999992 60.81273437499999 -32 61 C-32.375117187499995 60.55269531249999 -32.750234375000005 60.105390625 -33.13671875 59.64453125 C-35.51597180321287 56.83377638360999 -37.89425206608789 54.10574793391211 -40.5 51.5 C-45.934194522115035 46.065805477884965 -49.79717802451557 41.02157125394663 -53 34 C-52.1685546875 33.8904296875 -51.337109375 33.780859375 -50.48046875 33.66796875 C-49.3937890625 33.5094140625 -48.307109374999996 33.350859375 -47.1875 33.1875 C-46.1085546875 33.0366796875 -45.029609375 32.885859375 -43.91796875 32.73046875 C-40.82896598983832 31.95718425716167 -39.71379222786362 31.647552777264394 -38 29 C-37.31062287099817 26.048586744575182 -37.31062287099817 26.048586744575182 -37 22.75 C-36.32294031005974 17.614674385622635 -35.351533252584986 13.596178630052464 -33 9 C-32.34 9 -31.680000000000007 9 -31 9 C-31 8.34 -31 7.68 -31 7 C-28.397047241328536 5.685044578760905 -25.79271967310126 4.372950136512667 -23.1875 3.0625 C-22.449511718750003 2.6893164062500006 -21.711523437500006 2.316132812500001 -20.951171875 1.931640625 C-20.238964843749997 1.5739257812500007 -19.526757812499994 1.2162109375000014 -18.79296875 0.84765625 C-18.13836669921875 0.5177368164062486 -17.4837646484375 0.1878173828125007 -16.809326171875 -0.152099609375 C-11.061394625074115 -2.845739639335793 -5.698382512385706 -2.7628521272173145 0 0 Z " fill="#3D5F7C" transform="translate(97,20)"/>
<path d="M0 0 C2.176766063820139 2.611250308095613 3.7739403810516734 5.293025719792176 5.42578125 8.26171875 C6.782592807770897 10.621830169348385 7.964521496890484 12.233211808041318 9.9375 14.0625 C10.958437500000002 15.021562500000002 10.958437500000002 15.021562500000002 12 16 C12 16.659999999999997 12 17.319999999999993 12 18 C12.5775 18.226875000000007 13.155000000000001 18.45375 13.75 18.6875 C16.678242654092337 20.39564154822054 18.19951842053159 22.132566373439204 20 25 C19.900769933615067 28.96920265539734 18.28808773690313 31.813020652170636 16 35 C8.87609372888791 41.51328573358819 0.41086817681957655 46.26028444113621 -9.25 47.375 C-12.546577583785613 46.92546669312014 -14.404338916938862 46.07652886644891 -17 44 C-18.272563496871353 40.4922929252905 -18.246026611196157 36.82160868996809 -18.4375 33.125 C-18.72127810846161 27.829544287973206 -19.336612465830566 22.7337666068359 -20.25 17.5 C-21.268943127472813 10.820261719900458 -20.650495693697202 7.660208338915183 -16.6875 2.1875 C-11.808621913293194 -1.2457845795344156 -5.522972527175746 -2.477144746045667 0 0 Z " fill="#1D304F" transform="translate(45,55)"/>
<path d="M0 0 C-0.04640624999998977 1.2297656249999989 -0.09281250000000796 2.4595312499999977 -0.140625 3.7265625 C-0.17816035853329026 5.359350596197871 -0.21455862253606028 6.99216510969751 -0.25 8.625 C-0.2835156250000068 9.4332421875 -0.31703124999999943 10.241484374999999 -0.3515625 11.07421875 C-0.4410203519479694 16.575876644800474 0.3220598543217079 19.642440479576806 4 24 C8.464799296604497 27.653017606312773 12.468052995462742 28.855459240440567 18 30 C16.249999999999986 34.875 16.249999999999986 34.875 14 36 C9.057514379124555 36.549165068986156 5.4613757804196865 35.58539755750151 0.75 34 C-11.749287170053634 30.014513005205757 -19.67482461917458 32.501587932489144 -31.21875 38.0703125 C-36.66771823575388 40.47045327051063 -40.554567368404825 39.85280280411122 -46 38 C-48 37 -48 37 -48.62109375 35.328125 C-49.09148053150707 32.43791343527617 -49.094318202758565 29.67727465378796 -49.0625 26.75 C-49.04896484375 25.133515625 -49.04896484375 25.133515625 -49.03515625 23.484375 C-49.023554687499995 22.664531249999996 -49.011953125000005 21.844687499999992 -49 21 C-48.2716796875 21.331289062500005 -47.543359375 21.662578124999996 -46.79296875 22.00390625 C-41.546371380964715 23.875070346648954 -36.390793496677915 22.990966579782437 -31.3046875 20.8828125 C-29.62864700324257 20.037287592680585 -27.966499193076487 19.163268148232433 -26.32421875 18.25390625 C-24.000000000000014 17 -24.000000000000014 17 -21.26953125 16.02734375 C-20.5205859375 15.688320312499997 -19.771640625000003 15.349296874999993 -19 15 C-18.67 14.010000000000005 -18.340000000000003 13.019999999999996 -18 12 C-17.340000000000003 11.670000000000002 -16.68 11.340000000000003 -16 11 C-15.470047480237511 9.741362765564077 -14.97508564276329 8.467855807247076 -14.5 7.1875 C-12.672698781976564 3.309715735797596 -10.821303534062949 2.0524138381467907 -6.875 0.4375 C-2.3564013840830427 -1.1782006920415284 -2.3564013840830427 -1.1782006920415284 0 0 Z " fill="#2A535C" transform="translate(77,78)"/>
<path d="M0 0 C16.5 0 33 0 50 0 C49.67 1.6500000000000001 49.34 3.3000000000000003 49 5 C48.34 5 47.68000000000001 5 47 5 C46.762812499999995 5.5710546875 46.52562499999999 6.142109375 46.28125 6.73046875 C42.03988264613284 14.243378605478108 30.755836154510668 23.375229433861854 22.3984375 25.734375 C18.238873062266826 26.19504337421149 15.092615051400067 24.690072664042148 11.625 22.5 C10.820625 21.7575 10.820625 21.7575 10 21 C10 20.34 10 19.68 10 19 C9.340000000000003 19 8.68 19 8 19 C4 12.25 4 12.25 4 10 C3.34 9.67 2.6799999999999997 9.34 2 9 C1.3399999999999999 6.029999999999999 0.6799999999999997 3.0599999999999996 0 0 Z " fill="#7BA1A6" transform="translate(28,0)"/>
<path d="M0 0 C0 14.519999999999996 0 29.040000000000006 0 44 C-8.579999999999998 44 -17.159999999999997 44 -26 44 C-25.284851590392634 37.56366431353368 -24.48685433640864 32.53192718208419 -22.3125 26.625 C-22.044858398437498 25.8903955078125 -21.777216796874995 25.155791015625 -21.50146484375 24.39892578125 C-12.369922131933777 0 -12.369922131933777 0 0 0 Z " fill="#8ABDDE" transform="translate(128,84)"/>
<path d="M0 0 C-2.603467969531806 1.1474433053287498 -5.207732050911318 2.293014684450288 -7.8125 3.4375 C-8.550488281249997 3.7629882812499993 -9.288476562499994 4.088476562499999 -10.048828125 4.423828125 C-10.761035156250003 4.736425781249999 -11.473242187500006 5.049023437500001 -12.20703125 5.37109375 C-13.188934326171875 5.803131103515625 -13.188934326171875 5.803131103515625 -14.190673828125 6.243896484375 C-15.765345867018567 6.901939839448993 -17.380941082447208 7.460313694149068 -19 8 C-19 8.66 -19 9.32 -19 10 C-19.659999999999997 10 -20.319999999999993 10 -21 10 C-22.82983412598046 15.620204815511414 -23.593422886998212 21.138328476973157 -24.2421875 27.01171875 C-25.120799586474945 30.476348884810996 -26.252189996420526 31.77758387855809 -29 34 C-32.52699223522448 35.459445062851515 -36.244955301973455 35.40964123978471 -40 35 C-42.38164191673379 32.157395131640314 -43 30.715947333834762 -43 27 C-51.703205897230966 22.559588827943386 -60.44042869761782 19.977842338423898 -70 18 C-67.6432000765907 15.357293200636136 -65.23085997273503 13.92821105430319 -62.0625 12.375 C-61.2078515625 11.949609375000001 -60.353203125 11.52421875 -59.47265625 11.0859375 C-55.13633485764448 9.181518310308316 -51.797895074986755 8.927871957077016 -47.0625 9.0625 C-35.45990996845715 9.101304648934928 -25.969530665230963 6.870194568161519 -15.3984375 2.40234375 C-5.557053361082637 -1.6586411992773904 -5.557053361082637 -1.6586411992773904 0 0 Z " fill="#596B7C" transform="translate(85,19)"/>
<path d="M0 0 C0 6.269999999999996 0 12.540000000000006 0 19 C-1.9799999999999898 19.659999999999997 -3.960000000000008 20.319999999999993 -6 21 C-10.747730064879619 24.328123432576916 -13.160795846892043 27.472963723399516 -15.625 32.6875 C-16.064288330078128 33.60245239257813 -16.064288330078128 33.60245239257813 -16.512451171875 34.535888671875 C-18.62963480169597 39.00641009781029 -20.49861857671469 43.55499179876067 -22.17578125 48.20703125 C-23 50 -23 50 -25 51 C-27.16406250000003 50.222656249999986 -27.16406250000003 50.222656249999986 -29.625 49.0625 C-30.850898437500007 48.492089843749994 -30.850898437500007 48.492089843749994 -32.1015625 47.91015625 C-32.728046875000004 47.6098046875 -33.354531249999994 47.309453125000005 -34 47 C-33.743107960554894 44.14396497322787 -33.469961344901805 41.29102681503164 -33.1875 38.4375 C-33.082119140625 37.237705078125 -33.082119140625 37.237705078125 -32.974609375 36.013671875 C-32.02629485418498 26.720189571012796 -28.81715999437688 21.205421616302445 -22.125 14.875 C-21.5126953125 14.280742187499996 -20.900390625 13.686484374999992 -20.26953125 13.07421875 C-19.07179595062297 11.912389862167473 -17.868891521802084 10.755861562476312 -16.660400390625 9.605224609375 C-15.174932734392712 8.169119648379947 -13.741705852321644 6.679432197269151 -12.31640625 5.18359375 C-8.941848441410954 2.0025181766420275 -4.7521184738291 0 0 0 Z " fill="#718293" transform="translate(128,65)"/>
<path d="M0 0 C6.269999999999996 0 12.539999999999992 0 19 0 C19 9.57 19 19.14 19 29 C9.997934272300483 27.874741784037564 9.997934272300483 27.874741784037564 5.50390625 26.4765625 C4.5325976562500045 26.1775 3.561289062499995 25.8784375 2.560546875 25.5703125 C1.5711914062499943 25.258359375 0.5818359375000028 24.94640625 -0.4375 24.625 C-1.4229882812499994 24.32078125 -2.408476562499999 24.0165625 -3.423828125 23.703125 C-9.308832037659002 21.877954800447704 -15.16142647785459 19.968329853380975 -21 18 C-18.003773813347166 15.583232651331915 -15.009339019655727 13.946489725834843 -11.5 12.375 C-10.561562500000008 11.949609375 -9.623125000000002 11.52421875 -8.65625 11.0859375 C-6 9.999999999999998 -6 9.999999999999998 -2 9 C-1.3400000000000034 6.029999999999999 -0.6800000000000068 3.0599999999999996 0 0 Z " fill="#4E7D99" transform="translate(109,0)"/>
<path d="M0 0 C0.568476562499999 0.34933593750000114 1.1369531250000016 0.6986718750000023 1.72265625 1.05859375 C1.72265625 1.7185937499999966 1.72265625 2.378593749999993 1.72265625 3.05859375 C2.38265625 3.05859375 3.0426562500000003 3.05859375 3.72265625 3.05859375 C3.72265625 3.7185937499999966 3.72265625 4.378593749999993 3.72265625 5.05859375 C4.619843750000001 5.491718750000004 4.619843750000001 5.491718750000004 5.53515625 5.93359375 C10.511984039327789 8.493105184511435 10.511984039327789 8.493105184511435 11.91015625 12.24609375 C12.72265625 16.05859375 12.72265625 16.05859375 12.72265625 23.05859375 C2.4926562499999996 23.05859375 -7.737343750000001 23.05859375 -18.27734375 23.05859375 C-18.27734375 14.148593750000003 -18.27734375 5.238593750000007 -18.27734375 -3.94140625 C-10.973678524000515 -5.767322556499877 -6.23419661617606 -3.673908857279045 0 0 Z " fill="#8699A9" transform="translate(18.27734375,104.94140625)"/>
<path d="M0 0 C13.531398104265403 0 13.531398104265403 0 18.25 4.1484375 C23.246833128057904 9.435265407811272 28.109331499362284 15.030176984269644 28.4140625 22.546875 C28.452734375 23.391210937500006 28.49140625 24.235546874999997 28.53125 25.10546875 C28.5621875 25.9781640625 28.593125 26.850859375 28.625 27.75 C28.663671875 28.638164062499996 28.70234375 29.526328124999992 28.7421875 30.44140625 C28.836208728044536 32.62739980203543 28.921861431093674 34.813390616458804 29 37 C26.506384291223057 35.79618551990079 24.318569172207894 34.545712781471934 22 33 C22 32.34 22 31.680000000000007 22 31 C21.34 31 20.68 31 20 31 C20 30.340000000000003 20 29.680000000000007 20 29 C13.038693681243718 26.133579751100356 7.709660947654555 24.856628994183836 0 24 C0 16.08 0 8.159999999999997 0 0 Z " fill="#716A83" transform="translate(0,77)"/>
</svg>
