<?xml version="1.0" encoding="UTF-8"?>
<!-- Generator: visioncortex VTracer 0.6.0 -->
<svg version="1.1" xmlns="http://www.w3.org/2000/svg" width="128" height="128">
<path d="M0 0 C42.24 0 84.48 0 128 0 C128 42.24 128 84.48 128 128 C85.75999999999999 128 43.519999999999996 128 0 128 C0 85.75999999999999 0 43.519999999999996 0 0 Z " fill="#753B0E" transform="translate(0,0)"/>
<path d="M0 0 C17.16 0 34.32 0 52 0 C50.86806125550522 7.923571211463474 48.819873849448854 13.601787178724582 44 20 C41.31771289072031 21.688548210359805 38.76077933359193 22.701067145252978 35.78515625 23.7734375 C28.66322387874841 26.909884575137447 23.022551819996625 33.947379086674545 20 41 C18.495122913378662 47.18796473677878 19.190864423100205 51.96954807700068 21 58 C21.749855133412577 61.07440604699156 21.986462133668347 63.182761195477326 21.75 66.375 C22.038169117682166 70.55345220639141 23.074007382800133 72.03706713597326 25.7109375 75.12890625 C29.588275262196337 80.75692075936983 29.13483321878121 86.66815978952705 28.658203125 93.166015625 C28.512801283450663 97.0918653468321 28.826741900414063 98.77331562231875 31.2421875 101.93359375 C33.899679249463524 103.92483048578782 35.1014780650959 104.63498152072138 38.3125 105 C43.06517937873809 105.75529837203334 47.53925932878407 106.94665454503111 52.125 108.375 C52.8228662109375 108.5910791015625 53.520732421875 108.807158203125 54.23974609375 109.02978515625 C57.85344059538907 110.18737052930774 61.15275945112279 111.47919783952578 64.4375 113.375 C70.7169840475662 116.23932605678459 75.97209927119941 114.2924438931601 82.3828125 112.48828125 C89.45800144953144 110.70813864243235 96.35582015696629 110.40901330906637 103.625 110.25 C104.870234375 110.2074609375 106.11546875 110.164921875 107.3984375 110.12109375 C114.37548741433434 109.92238030307276 121.07430527009035 110.12934123395422 128 111 C128 116.61 128 122.22 128 128 C85.75999999999999 128 43.519999999999996 128 0 128 C0 85.75999999999999 0 43.519999999999996 0 0 Z " fill="#BB7649" transform="translate(0,0)"/>
<path d="M0 0 C14.189999999999998 0 28.379999999999995 0 43 0 C43 36.63 43 73.26 43 111 C36.400000000000006 111 29.799999999999997 111 23 111 C19.653150473746948 111.0666611512784 16.33806401520968 111.13824543476882 13 111.3125 C11.833317871093755 111.37244140625 11.833317871093755 111.37244140625 10.64306640625 111.43359375 C4.182961744145871 111.84095152168216 -1.776794606517342 113.25180184366289 -8 115 C-14.864468389503841 116.7419018283883 -18.764013564752688 115.56768198138326 -25.04296875 112.40625 C-31.82070506102243 109.18302005024033 -39.10851691598826 107.24865181734512 -46.5 106.0625 C-50.98265780464433 105.23156830938301 -53.26676048628657 103.79126771257023 -56 100 C-57.009922594114066 96.3156527585098 -56.99827280234347 93.04579023166666 -56.8125 89.25 C-56.74552114717446 82.45164643820723 -58.40826157154253 77.14711094884122 -62.75 71.875 C-64.68360278211121 68.9745958268332 -64.2507863643597 66.38561591885599 -64 63 C-63.67 62.34 -63.34 61.68 -63 61 C-61.865625 61.45375 -60.73125 61.9075 -59.5625 62.375 C-54.15060477679602 64.22212213359752 -48.69898677954848 64.72468780627244 -43.029541015625 65.17724609375 C-38.62204341431552 65.5847421623564 -35.512380134006634 66.25089952679039 -32 69 C-26.065029497837074 76.76387379890195 -25.809161342684007 87.5910406069508 -25.24609375 96.921875 C-25.00056552309531 99.9929264730301 -24.548876927632932 102.96983646562978 -24 106 C-18.087319505195183 104.62647908859623 -13.137974589985248 102.65766942370092 -7.9375 99.5 C0.3596974937058377 94.47717546358038 7.362356114973352 92.67870731584695 17 92 C17.33 88.37 17.659999999999997 84.74 18 81 C16.515 80.505 16.515 80.505 15 80 C7.86830591721484 68.11384319535807 3.8869127604962017 54.51482332950695 6.65234375 40.75390625 C8 37.99999999999999 8 37.99999999999999 11.125 36.625 C12.073750000000004 36.41875 13.022499999999994 36.2125 14 36 C13.195662851854749 25.47427766478881 11.62647626064836 18.374677891053725 4.53125 10.3359375 C1.1461266072470124 6.498152258216088 0.9264052437063981 5.5584314622383495 0 0 Z " fill="#9A5021" transform="translate(85,0)"/>
<path d="M0 0 C1.1343749999999986 0.45374999999999943 2.2687500000000007 0.9074999999999989 3.4375 1.375 C8.849395223203981 3.222122133597537 14.301013220451523 3.724687806272442 19.970458984375 4.17724609375 C24.377956585684487 4.584742162356406 27.48761986599336 5.250899526790377 31 8 C36.93497050216293 15.763873798901955 37.19083865731599 26.5910406069508 37.75390625 35.921875 C37.99943447690468 38.992926473030025 38.451123072367075 41.96983646562981 39 45 C44.91268049480482 43.62647908859623 49.86202541001475 41.65766942370092 55.0625 38.5 C63.35969749370584 33.47717546358038 70.36235611497335 31.67870731584695 80 31 C80.33 27.370000000000005 80.66 23.739999999999995 81 20 C81.79921875 19.890429687500003 82.5984375 19.780859375000006 83.421875 19.66796875 C84.52015625 19.5094140625 85.6184375 19.350859375 86.75 19.1875 C87.81734375 19.036679687499998 88.8846875 18.885859374999995 89.984375 18.73046875 C95.37732470528697 17.749455525400137 100.68221244849772 16.329446887875577 106 15 C106 26.549999999999997 106 38.099999999999994 106 50 C103.091875 49.979375000000005 100.18375 49.95875000000001 97.1875 49.9375 C82.72552626119125 49.92077957450299 68.99673782170447 50.06809197069677 55 54 C48.13553161049617 55.74190182838828 44.2359864352473 54.56768198138326 37.95703125 51.40625 C31.17929493897757 48.183020050240316 23.89148308401174 46.24865181734512 16.5 45.0625 C12.017342195355681 44.23156830938299 9.73323951371341 42.79126771257022 7 39 C5.990077405885941 35.31565275850981 6.001727197656528 32.04579023166664 6.1875 28.25 C6.254478852825542 21.45164643820725 4.591738428457468 16.147110948841217 0.25 10.875 C-1.6836027821112118 7.9745958268331805 -1.2507863643597048 5.385615918856004 -1 2 C-0.6700000000000017 1.3400000000000034 -0.33999999999999986 0.6799999999999997 0 0 Z " fill="#8E6649" transform="translate(22,61)"/>
<path d="M0 0 C4.189062879578078 1.0472657198945257 5.453449531032753 1.9394993137064631 7.84375 5.4375 C9.665682865502909 9.47529716138483 10.26035692274438 13.772303989793926 10.836181640625 18.136962890625 C11.705658106242977 24.146430338978774 13.67009288899677 28.04147070031439 18.328125 31.95703125 C21.960386252471807 33.37488761609646 24.015580764954514 32.69579319346228 27.75 31.6875 C40.84813201243909 28.582456282765477 52.61820744030253 30.58721350989262 64.4375 37.375 C70.7169840475662 40.23932605678459 75.97209927119943 38.29244389316011 82.3828125 36.48828125 C89.45800144953144 34.708138642432345 96.35582015696629 34.40901330906635 103.625 34.25 C104.870234375 34.2074609375 106.11546875 34.164921875000005 107.3984375 34.12109375 C114.37548741433434 33.92238030307276 121.07430527009035 34.12934123395422 128 35 C128 40.61 128 46.22 128 52 C85.75999999999999 52 43.519999999999996 52 0 52 C0 34.84 0 17.680000000000007 0 0 Z " fill="#C4916F" transform="translate(0,76)"/>
<path d="M0 0 C10.89 0 21.78 0 33 0 C34.31999999999999 2.97 35.64 5.94 37 9 C38.744367105170085 11.457816414482178 38.744367105170085 11.457816414482178 40.625 13.3125 C47.09050323531412 20.046222801844618 47.17922808164239 27.03859591788045 47 36 C42.38111205780467 37.90511995241884 39.87980610382988 38.06996704973531 35.125 36.625 C30.57794419027249 35.40039519669839 26.834978583021154 34.942462697329304 22.13427734375 35.29296875 C12.710311462942556 35.9708530515113 7.189822341637395 32.97953475972213 -0.28125 27.3828125 C-1.1784375000000011 26.596484375 -2.0756250000000023 25.81015625 -3 25 C-3 24.34 -3 23.68 -3 23 C-5.475000000000001 22.009999999999998 -5.475000000000001 22.009999999999998 -8 21 C-6.725009955775988 15.668223451426865 -4.690055852251028 11.172657169671815 -2.12109375 6.33203125 C-0.8068570781064466 3.799041693843897 -0.8068570781064466 3.799041693843897 0 0 Z " fill="#7C513D" transform="translate(52,0)"/>
<path d="M0 0 C0.6599999999999966 0.3299999999999983 1.3200000000000003 0.6600000000000001 2 1 C2 1.6600000000000001 2 2.3200000000000003 2 3 C2.6599999999999966 3.2062500000000007 3.3200000000000003 3.4125000000000014 4 3.625 C8.11606263279716 5.511528706698698 11.458770296057558 8.205679786963529 15 11 C14.67294619648927 15.142681511135862 13.496714925018985 18.14325805158225 11.5625 21.75 C7.415031979042631 29.73417474927816 6.71647459637321 38.13834051854191 6 47 C5.347734375000002 46.689335937500005 4.695468750000003 46.37867187500001 4.0234375 46.05859375 C-0.40940575715675465 44.506525891228065 -4.937242562914257 44.26708211706992 -9.5859375 43.876953125 C-15.551248259941286 43.285748219327246 -20.384421725839285 41.90866522709025 -25.3125 38.3125 C-29.001414880587344 33.25732034882475 -29.5691538232678 27.333144079149186 -28.65625 21.28515625 C-26.215165661141565 12.78495185576081 -18.295274402486978 4.160083111161583 -10.8203125 -0.30078125 C-6.604209975929393 -2.106545915969864 -3.9619072851526838 -2.3305336971486383 0 0 Z " fill="#894623" transform="translate(47,22)"/>
<path d="M0 0 C14.189999999999998 0 28.379999999999995 0 43 0 C43 13.530000000000001 43 27.060000000000002 43 41 C36.817395011568706 41 31.617935699467324 40.81222870595688 25.6875 39.625 C24.653994140625002 39.4355078125 24.653994140625002 39.4355078125 23.599609375 39.2421875 C16.112818320801125 37.79825479909376 16.112818320801125 37.79825479909376 14 36 C13.3828125 32.83984375000001 13.3828125 32.83984375000001 13.125 28.9375 C12.370211972822418 20.963330641176697 9.752225331905322 16.251191466467198 4.53125 10.3359375 C1.1461266072470266 6.498152258216104 0.9264052437063839 5.558431462238335 0 0 Z " fill="#B5805F" transform="translate(85,0)"/>
<path d="M0 0 C1.1343749999999986 0.45374999999999943 2.2687500000000007 0.9074999999999989 3.4375 1.375 C8.849395223203981 3.222122133597537 14.301013220451523 3.724687806272442 19.970458984375 4.17724609375 C24.377956585684487 4.584742162356406 27.48761986599336 5.250899526790377 31 8 C36.92777791237996 15.754464761512153 37.171553057860564 26.549025217273368 37.77734375 35.8671875 C37.975779077951316 38.659207377490475 38.27243627771963 41.41161854103302 38.625 44.1875 C39 48 39 48 38 50 C33.816255170919646 49.10822672577426 29.671708069481795 48.19540598384924 25.5625 47 C22.623574774679135 46.17503853324327 19.876914315828955 45.661953222738106 16.875 45.1875 C12.24231117566194 44.284936576080256 9.835598828119771 42.933249987391946 7 39 C5.990077405885941 35.31565275850981 6.001727197656528 32.04579023166664 6.1875 28.25 C6.254478852825542 21.45164643820725 4.591738428457468 16.147110948841217 0.25 10.875 C-1.6836027821112118 7.9745958268331805 -1.2507863643597048 5.385615918856004 -1 2 C-0.6700000000000017 1.3400000000000034 -0.33999999999999986 0.6799999999999997 0 0 Z " fill="#AD6434" transform="translate(22,61)"/>
<path d="M0 0 C7.973453643463854 0.2657817881154614 14.378729688648185 2.4790757475834013 21 7 C25.963752692969038 12.35587959164289 28.982766972994543 18.54994799350783 29.01953125 25.91015625 C28.930430620711462 27.99907100332021 28.81115856004586 30.080787732032988 28.658203125 32.166015625 C28.50957942111408 36.17885562991988 28.77991437479982 37.73524887966917 31.38671875 40.87109375 C32.2491015625 41.573632812499994 33.111484375 42.276171875 34 43 C34.66 43.66 35.32 44.31999999999999 36 45 C24.92617449664429 48.912751677852356 24.92617449664429 48.912751677852356 21 49 C16.128477309464905 46.56423865473245 13.673190507801536 43.6794500504665 11 39 C10.38907235831184 36.30698712206518 9.9209329536946 33.78179000673482 9.5625 31.0625 C8.578981345772407 24.86110400276179 7.452131689880107 20.563434982127106 3 16 C2.01 15.670000000000002 1.02 15.340000000000003 0 15 C0 10.049999999999997 0 5.099999999999994 0 0 Z " fill="#CF824E" transform="translate(0,61)"/>
<path d="M0 0 C6.761178681762971 1.4322166671134795 13.568371983277672 2.33777610323024 20.4140625 3.258544921875 C21.299648437499997 3.3807641601562466 22.185234374999993 3.502983398437493 23.09765625 3.62890625 C23.89695556640625 3.736623535156255 24.696254882812497 3.844340820312496 25.519775390625 3.955322265625 C27.5 4.3125 27.5 4.3125 29.5 5.3125 C29.52700429846108 6.770732116898245 29.546397866368324 8.22910675393041 29.5625 9.6875 C29.574101562500005 10.499609375000006 29.58570312500001 11.311718749999997 29.59765625 12.1484375 C29.5 14.312500000000014 29.5 14.312500000000014 28.5 16.3125 C26.061932520172974 16.97224765751777 23.654547565243803 17.536735764784112 21.1875 18.0625 C13.658601760461835 19.796835487322184 7.263218771395884 22.542837078238364 0.5 26.3125 C-7.90505144995322 30.886868568755844 -7.90505144995322 30.886868568755844 -12.5 30.3125 C-14.437321298640725 25.28353679561178 -15.106835836470047 20.575190170477953 -15.5 15.25 C-15.588945312500002 14.46044921875 -15.677890625000003 13.6708984375 -15.76953125 12.857421875 C-15.937087071506483 10.533071932474073 -15.973752990807156 8.595788294137776 -15.5 6.3125 C-11.128707900523388 1.540929699553871 -6.493846357132426 -1.5260538939261181 0 0 Z " fill="#72431E" transform="translate(73.5,75.6875)"/>
<path d="M0 0 C4.189062879578078 1.0472657198945257 5.453449531032753 1.9394993137064631 7.84375 5.4375 C9.665682865502909 9.47529716138483 10.26035692274438 13.772303989793926 10.836181640625 18.136962890625 C11.54459863146163 23.033252801436646 12.840323152631283 26.1921843121454 16 30 C17.98 31.319999999999993 19.96 32.64 22 34 C21.34 39.94 20.68 45.879999999999995 20 52 C13.399999999999999 52 6.799999999999999 52 0 52 C0 34.84 0 17.680000000000007 0 0 Z " fill="#E59F6B" transform="translate(0,76)"/>
<path d="M0 0 C10.23 0 20.46 0 31 0 C32.27980352449777 2.559607048995539 31.830423754128383 3.560416304270597 31.1875 6.3125 C31.0160546875 7.0717578125 30.844609375 7.831015625 30.66796875 8.61328125 C30.4475390625 9.4008984375 30.227109375 10.188515625 30 11 C29.7795703125 11.832734375 29.559140625 12.66546875 29.33203125 13.5234375 C27.48896624565927 16.950133138568983 24.76388052675221 18.413944990038075 21.5 20.3125 C15.960583418270991 23.672813097672595 10.975025726823393 27.28636826303686 6.0859375 31.56640625 C3.9999999999999987 33 3.9999999999999987 33 0 33 C0 22.11 0 11.219999999999999 0 0 Z " fill="#E6A574" transform="translate(0,0)"/>
<path d="M0 0 C0 11.549999999999997 0 23.099999999999994 0 35 C-10 35 -10 35 -14 34 C-15.30859375 31.671875 -15.30859375 31.671875 -16.4375 28.75 C-18.354352649592784 24.176768215632038 -20.26125709504217 21.33455448280023 -24 18 C-25.992889887640146 14.874028905340367 -26.159503203681 12.884621785030816 -25.625 9.25 C-25.514140624999996 8.450781250000006 -25.403281250000006 7.651562499999997 -25.2890625 6.828125 C-25.193671875000007 6.224843750000005 -25.09828125 5.621562499999996 -25 5 C-24.1891796875 4.890429687500003 -23.378359375000002 4.780859375000006 -22.54296875 4.66796875 C-15.888118978258362 3.715062438097533 -9.501732596823487 2.4701589372230472 -3.046875 0.5859375 C-1 0 -1 0 0 0 Z " fill="#935F35" transform="translate(128,76)"/>
<path d="M0 0 C6.93 0 13.86 0 21 0 C19.889056537639362 7.776604236524499 17.485079605997903 16.25609880346785 11.15625 21.5390625 C8.589615089084198 22.74357976082452 6.186260942793226 22.99556521564778 3.375 23.0625 C-0.15416131321608617 21.483664675666486 -1.7021336456668692 19.085706247247348 -4 16 C-3.2884375000000006 14.5459375 -3.2884375000000006 14.5459375 -2.5625 13.0625 C-0.5383287994921844 8.312365936417162 -0.5383287994921844 8.312365936417162 0 0 Z " fill="#A97459" transform="translate(31,0)"/>
</svg>
