<?xml version="1.0" encoding="UTF-8"?>
<!-- Generator: visioncortex VTracer 0.6.0 -->
<svg version="1.1" xmlns="http://www.w3.org/2000/svg" width="128" height="128">
<path d="M0 0 C42.24 0 84.48 0 128 0 C128 42.24 128 84.48 128 128 C85.75999999999999 128 43.519999999999996 128 0 128 C0 85.75999999999999 0 43.519999999999996 0 0 Z " fill="#78ABA4" transform="translate(0,0)"/>
<path d="M0 0 C42.24 0 84.48 0 128 0 C128 25.080000000000002 128 50.160000000000004 128 76 C111.13532110091742 78.81077981651376 111.13532110091742 78.81077981651376 104.5 74.875 C98.22989150571138 70.14931822956773 94.49552128433442 64.70665022197556 93 57 C93.18672897633506 53.3276634654106 93.81622151350153 50.50809346267224 95.0625 47.0625 C96.77914907500039 41.45477968833208 96.70958251949214 36.976609202928024 94.3125 31.6875 C92.39959043620787 28.283056056048277 90.75799025681505 26.398321956024205 87 25 C77.26244333355541 23.47254013075379 68.57482099388842 30.675669301397267 61 36 C55.125 32.375 55.125 32.375 54 29 C53.0925 28.87625 52.185 28.7525 51.25 28.625 C48 28 48 28 46.07421875 26.98828125 C43.762761149903795 25.88696529364531 42.11243053117929 25.63762793592729 39.5625 25.5625 C38.8212890625 25.5225390625 38.080078125 25.482578125 37.31640625 25.44140625 C33.81290211215146 26.286264752044417 31.947321075512644 28.088306400791225 30 31 C27.98481356738718 35.622585258016876 26.548097798741196 40.44183079140762 25.0390625 45.248046875 C24.716796875 46.21162109375 24.39453125 47.1751953125 24.0625 48.16796875 C23.7853515625 49.04735107421875 23.508203125 49.9267333984375 23.22265625 50.832763671875 C22 53 22 53 17 55 C11.39 55 5.779999999999999 55 0 55 C0 36.849999999999994 0 18.699999999999996 0 0 Z " fill="#A0ADAD" transform="translate(0,0)"/>
<path d="M0 0 C0.6599999999999966 0 1.3200000000000003 0 2 0 C3.703123667508386 2.2194015736868806 5.303165118977461 4.440365072783209 6.875 6.75 C12.595897389582952 15.272850949382303 12.595897389582952 15.272850949382303 21.4375 20.125 C26.967288207324074 21.98620827005901 26.967288207324074 21.98620827005901 29.56640625 23.08203125 C31.968749684497737 23.988212160284064 33.95221122101164 24.351679449625962 36.5 24.5625 C42.997661677301764 25.123037715119338 47.215902066926475 26.531965753921455 52.71875 30.0390625 C55.59978946555164 31.25265104199606 57.05243480282954 30.91960162144892 60 30 C61.67739861843914 29.018108125791727 63.344673774816954 28.01866229242033 65 27 C72.73161496371542 24.067318462038983 82.21618461232688 26.70269743538782 90 28 C90 34.93000000000001 90 41.86 90 49 C47.75999999999999 49 5.519999999999996 49 -38 49 C-38 39.75999999999999 -38 30.519999999999996 -38 21 C-35.89625 20.608125 -33.7925 20.216250000000002 -31.625 19.8125 C-21.610378269482133 17.87029084987364 -11.678067194290335 15.226022398096774 -2 12 C-1.9091210937500023 10.82630859375 -1.9091210937500023 10.82630859375 -1.81640625 9.62890625 C-1.7326171874999972 8.616992187500003 -1.6488281250000014 7.605078125000006 -1.5625 6.5625 C-1.4812890624999966 5.553164062500002 -1.4000781250000003 4.5438281250000045 -1.31640625 3.50390625 C-1 1 -1 1 0 0 Z " fill="#64A9C4" transform="translate(38,79)"/>
<path d="M0 0 C25.409999999999997 0 50.81999999999999 0 77 0 C77 25.080000000000002 77 50.160000000000004 77 76 C60.13532110091742 78.81077981651376 60.13532110091742 78.81077981651376 53.5 74.875 C47.288265150831165 70.19654147436019 44.451290913057235 65.65226117793817 43 58 C48.75 53 48.75 53 51 53 C51.27585937500001 52.29359375 51.55171874999999 51.5871875 51.8359375 50.859375 C52.61082535602563 48.95595919258134 53.42884727852763 47.0695313593158 54.2890625 45.203125 C57.34411906272659 38.44984207186753 59.980840166954366 32.310337468856396 57.265625 25.03125 C53.30091833384441 17.36181743268263 45.60596094432057 13.429277188768815 38 10 C33.180138563470294 9.002787288993854 30.748215029215146 9.928709769197322 26.75 12.5 C24.205365758176384 14.323799285948672 21.71845066351861 16.21413611507035 19.2265625 18.109375 C10.178533475026562 24.901594048884167 10.178533475026562 24.901594048884167 4 26 C-0.9583614793587856 21.041638520641214 -1.9085060315595683 18.04503556991336 -2 11 C-1.3400000000000034 7.369999999999999 -0.6799999999999997 3.7399999999999993 0 0 Z " fill="#9EC6D5" transform="translate(51,0)"/>
<path d="M0 0 C3.971377451799782 3.5301132904886927 6.249147395979179 7.23382085758719 7.16015625 12.515625 C7.364474219507727 17.0283871091273 6.219239344360076 20.503729056772286 4.4609375 24.6171875 C3.6232321889756207 26.68087781880812 3.6232321889756207 26.68087781880812 3.9375 29.75 C3.8125 32.5 3.8125 32.5 1.75 34.8125 C-4.218769090532263 38.241367349880235 -9.67142537892326 37.44677683386054 -16.125 36 C-26.262810072737487 34.0110348415833 -37.51789036974366 32.56751464590113 -46.625 38.4375 C-49.47216859927552 40.63635696376687 -50.97019327989095 42.01372934641465 -51.50390625 45.6640625 C-51.5851171875 46.476171875000006 -51.666328125 47.28828125 -51.75 48.125 C-51.87568359375 49.35089843750001 -51.87568359375 49.35089843750001 -52.00390625 50.6015625 C-52.0644921875 51.22804687499999 -52.125078125 51.85453125000001 -52.1875 52.5 C-55.902292339102964 50.02347177393136 -56.22016483604527 48.3402466338847 -57.6875 44.1875 C-60.3359101833817 36.360795786417256 -60.3359101833817 36.360795786417256 -65.9375 30.625 C-66.68 29.92375 -67.4225 29.222499999999997 -68.1875 28.5 C-67.8927744117936 22.730746610859498 -66.01064980063887 17.662990868457356 -63.9375 12.3125 C-63.50630859375 11.122373046874998 -63.50630859375 11.122373046874998 -63.06640625 9.908203125 C-61.25875727334476 5.207526419331028 -59.70069748191352 2.1437431926510406 -55.1875 -0.5 C-48.63527231457308 -2.1532522545789625 -41.91420457854662 0.37087245445438555 -36.1875 3.5 C-33.24999999999999 6.187500000000014 -33.24999999999999 6.187500000000014 -31.1875 8.5 C-30.197499999999998 8.829999999999998 -29.207500000000003 9.159999999999997 -28.1875 9.5 C-25.94455728522759 8.135888401701742 -23.904938597660617 6.754472598473328 -21.8125 5.1875 C-14.864330889203671 0.05569016588444242 -8.611857169834252 -4.052638668157297 0 0 Z " fill="#548992" transform="translate(90.1875,25.5)"/>
<path d="M0 0 C3.947986112859475 0.41557748556415675 7.197771690026862 1.4435803220708436 10.8125 3 C14.892778574194878 4.702164405198772 18.493904361690795 5.5352470031129 22.89453125 5.82421875 C28.482579195781284 6.290753365139437 32.04376676734955 8.059583749613623 36.71875 11.0390625 C39.59978946555158 12.252651041996046 41.052434802829566 11.919601621448905 44 11 C45.67739861843914 10.018108125791727 47.344673774816954 9.01866229242033 49 8 C56.7316149637154 5.067318462038983 66.2161846123269 7.702697435387819 74 9 C74 15.930000000000007 74 22.86 74 30 C49.25 30 24.5 30 -1 30 C0.08225616921269108 19.177438307873103 0.08225616921269108 19.177438307873103 1.1875 14.4375 C2.236896440536526 9.06030072075444 1.5418858589866034 5.225279855454602 0 0 Z " fill="#7DBBC4" transform="translate(54,98)"/>
<path d="M0 0 C5.066863515989727 3.810043854796959 7.692502306055474 7.19936054387199 10 13.06640625 C10.539472656249998 14.332910156249994 10.539472656249998 14.332910156249994 11.08984375 15.625 C15.622155764024427 26.479967919709765 15.622155764024427 26.479967919709765 14.4375 32.69140625 C14.3124609375 33.44679687499999 14.187421874999998 34.20218750000001 14.05859375 34.98046875 C12.43821842504532 38.17338544197712 10.268898563575995 38.75202872791324 7 40.06640625 C4.559134065262423 40.813555844402245 2.098717493385518 41.49900086766368 -0.375 42.12890625 C-1.0369335937499997 42.298095703125 -1.6988671874999994 42.46728515625 -2.380859375 42.6416015625 C-4.253190640379383 43.11934980573102 -6.126563406158539 43.593010981663724 -8 44.06640625 C-9.2413671875 44.41251953125 -9.2413671875 44.41251953125 -10.5078125 44.765625 C-15.016239473936658 46.012072457500125 -18.079610860712954 46.06640625 -23 46.06640625 C-23 31.216406250000006 -23 16.366406249999997 -23 1.06640625 C-14.584999999999999 0.5714062500000026 -14.584999999999999 0.5714062500000026 -6 0.06640625 C-2 -0.93359375 -2 -0.93359375 0 0 Z " fill="#5499BD" transform="translate(23,53.93359375)"/>
<path d="M0 0 C4.69220560260716 0.9854963517301698 9.119582881312695 1.6803900325249543 13.9375 1.5 C17.978916776363263 9.131782573221685 19.103451371749514 14.83619451300197 17 23.25 C14.151311603022933 27.738842322509328 10.856211103230976 29.63485115884194 5.9375 31.5 C-0.12636511414689267 32.474549750487895 -4.8924876650943645 30.543778593075842 -10.0625 27.5 C-12.928268862368455 25.362574386705262 -15.66147629778262 23.156173359946195 -18.0625 20.5 C-18.0625 19.840000000000003 -18.0625 19.180000000000007 -18.0625 18.5 C-18.722499999999997 18.5 -19.3825 18.5 -20.0625 18.5 C-23.077468108067087 13.475053153221523 -23.69783324989364 10.217999249042762 -23.0625 4.5 C-21.394512477569812 1.7001638016350427 -20.243276764010403 0.029313721797763037 -17.25 -1.3125 C-11.246113230120258 -1.8271188659896893 -5.841728176908774 -1.233933068766646 0 0 Z " fill="#7FA089" transform="translate(74.0625,60.5)"/>
<path d="M0 0 C7.771277632760473 3.335459868928167 15.08940983669882 7.774949762949909 19.9375 14.8125 C22.929543849461226 23.78863154838369 20.076281005077846 30.77854309961762 16 39 C13.357717253675446 43.93273980088308 10.608362192245664 45.95674194851701 6 49 C5.010000000000005 48.505 5.010000000000005 48.505 4 48 C4.417406561492129 44.52161198756559 4.867845668314047 41.365367858190574 6.0625 38.0625 C7.77914907500039 32.45477968833208 7.709582519492159 27.976609202928017 5.3125 22.6875 C3.399590436207859 19.283056056048263 1.7579902568150345 17.398321956024198 -2 16 C-11.73755666644459 14.472540130753789 -20.425179006111577 21.675669301397267 -28 27 C-33.87499999999999 23.125000000000014 -33.87499999999999 23.125000000000014 -35 22 C-35.04063832075785 20.33382884892825 -35.04272100132092 18.666119051515803 -35 17 C-34.4289453125 16.827265625 -33.857890625 16.65453125 -33.26953125 16.4765625 C-26.074581955781376 13.98292347593059 -20.81502852431393 10.07222959515095 -14.98046875 5.33984375 C-9.861554138641395 1.3211938781732577 -6.652963820099188 -0.9657528125950439 0 0 Z " fill="#70B3D7" transform="translate(89,9)"/>
<path d="M0 0 C3.9713774517997678 3.5301132904886856 6.249147395979179 7.23382085758719 7.16015625 12.515625 C7.422313310133575 18.30587658903729 5.9423844726501045 23.960522359532554 2.1875 28.4375 C-3.315460826821422 30.899350896209583 -9.294035818602964 31.066060590511754 -15.07421875 29.36328125 C-21.1041795448385 26.90002554637836 -26.91949777689379 23.471197097393727 -31.1875 18.5 C-31.267578464889972 14.736312150171216 -30.590175804031816 13.006592140556158 -28.25 10.0625 C-10.384010560146919 -4.886593204775025 -10.384010560146919 -4.886593204775025 0 0 Z " fill="#256A96" transform="translate(90.1875,25.5)"/>
<path d="M0 0 C16.83 0 33.66 0 51 0 C51.99000000000001 3.3000000000000003 52.97999999999999 6.6000000000000005 54 10 C54.66 11.32 55.31999999999999 12.64 56 14 C56 14.99 56 15.98 56 17 C54.34765625 17.7109375 54.34765625 17.7109375 52 18 C49.30859375 16.601562500000004 49.30859375 16.601562500000004 46.4375 14.625 C41.10580165661759 10.9933682925672 37.58117612037961 9.256963986408755 31 10 C26.731914261448935 12.182360821032718 23.030142967411535 15.216510982532068 19.2265625 18.109375 C10.178533475026562 24.901594048884167 10.178533475026562 24.901594048884167 4 26 C-0.9583614793587856 21.041638520641214 -1.9085060315595683 18.04503556991336 -2 11 C-1.3400000000000034 7.369999999999999 -0.6799999999999997 3.7399999999999993 0 0 Z " fill="#B6DAE9" transform="translate(51,0)"/>
<path d="M0 0 C0.6600000000000001 0.6600000000000001 1.3200000000000003 1.3200000000000003 2 2 C0.7117699954537109 5.417972312270834 -0.5811813449785603 8.834139675497028 -1.875 12.25 C-2.2398046875000013 13.2180859375 -2.604609374999999 14.186171875 -2.98046875 15.18359375 C-3.3349609375 16.1181640625 -3.689453125 17.052734375 -4.0546875 18.015625 C-4.379370117187499 18.874462890624997 -4.704052734375001 19.73330078125 -5.03857421875 20.6181640625 C-5.355844726562498 21.404169921874995 -5.673115234375 22.190175781250005 -6 23 C-6.287622070312501 23.742177734375005 -6.575244140624999 24.484355468749996 -6.87158203125 25.2490234375 C-8.000000000000004 27 -8.000000000000004 27 -9.8681640625 27.743896484375 C-11.974990404042 27.99699552609254 -13.987640410762241 28.113729996888168 -16.109375 28.09765625 C-17.1298291015625 28.093909912109375 -17.1298291015625 28.093909912109375 -18.1708984375 28.090087890625 C-19.022001953125 28.080983886718748 -19.873105468749998 28.071879882812503 -20.75 28.0625 C-23.4725 28.041874999999997 -26.195 28.021250000000002 -29 28 C-29 17.439999999999998 -29 6.8799999999999955 -29 -4 C-17.521318302596754 -4.956556808116936 -9.923657545735985 -5.455952800041569 0 0 Z " fill="#8EBCC1" transform="translate(29,27)"/>
<path d="M0 0 C0 6.930000000000007 0 13.86 0 21 C-13.200000000000003 21 -26.400000000000006 21 -40 21 C-38.938542452572264 13.569797168005834 -37.64030200297317 8.10820794906266 -31.80859375 3.12890625 C-21.36922389835304 -4.042786053355485 -12.013433432627181 -2.0022389054378635 0 0 Z " fill="#B0C5C5" transform="translate(128,107)"/>
<path d="M0 0 C-0.49500000000000455 0.6599999999999966 -0.9899999999999949 1.3200000000000003 -1.5 2 C-3.9941248959756095 6.988249791951219 -3.4805356750557763 11.318125137304776 -2 16.5 C-1.6700000000000017 17.325000000000003 -1.3400000000000034 18.150000000000006 -1 19 C-0.3400000000000034 19 0.3200000000000003 19 1 19 C1.5568750000000051 19.721874999999997 2.113749999999996 20.443749999999994 2.6875 21.1875 C7.039871378613817 26.480924649665454 11.03587517117596 28.920420776846584 17.75 30.375 C22.60195899906016 31.546392021720976 22.60195899906016 31.546392021720976 24.37109375 33.5625 C25.901223965155026 36.95953550158819 26.334903497322642 40.31606152945099 26 44 C18.313753823652775 45.970832352909554 11.685041306177723 43.69950977431944 4.921875 40 C2.952215657601812 38.916185074092084 2.952215657601812 38.916185074092084 0.515625 38.13671875 C-6.156671717639469 35.12175237603557 -11.075117214299226 27.009976765604307 -15 21 C-15 20.340000000000003 -15 19.680000000000007 -15 19 C-15.659999999999997 19 -16.32 19 -17 19 C-17.61936549446012 10.139632509806617 -17.61936549446012 10.139632509806617 -15.4375 6.125 C-10.68250619365103 1.979620784208592 -6.573496783662179 -0.6413167593816738 0 0 Z " fill="#6DACA9" transform="translate(55,60)"/>
<path d="M0 0 C6.383792076673352 5.148667087925688 10.772828384120018 12.541608058145897 12.796875 20.44921875 C12.796875 22.429218750000004 12.796875 24.409218750000008 12.796875 26.44921875 C2.5668749999999996 26.44921875 -7.663125000000001 26.44921875 -18.203125 26.44921875 C-18.203125 17.20921874999999 -18.203125 7.969218749999996 -18.203125 -1.55078125 C-5.367586585615038 -3.3844295949121346 -5.367586585615038 -3.3844295949121346 0 0 Z " fill="#9CC2E8" transform="translate(18.203125,101.55078125)"/>
<path d="M0 0 C8.579999999999998 0 17.159999999999997 0 26 0 C26 11.55 26 23.1 26 35 C20.37578419071518 33.875156838143035 20.37578419071518 33.875156838143035 17.7734375 30.9453125 C17.216562499999995 30.3304296875 16.659687500000004 29.715546875 16.0859375 29.08203125 C15.521328124999997 28.4362109375 14.956718749999993 27.790390625 14.375 27.125 C13.237232781029476 25.856543303174757 12.09922027578962 24.58830656884472 10.9609375 23.3203125 C10.463842773437506 22.7558642578125 9.966748046874997 22.191416015625 9.45458984375 21.60986328125 C8.474923302862635 20.525620050197418 7.455204603756599 19.476423914286926 6.401611328125 18.4638671875 C4.331638723933324 16.301951887947084 3.45460739809576 13.87566106087928 2.3125 11.125 C1.875507812500004 10.096328125 1.4385156249999937 9.067656249999999 0.98828125 8.0078125 C0 5 0 5 0 0 Z " fill="#B7BCC2" transform="translate(102,0)"/>
<path d="M0 0 C2.5625 2.25 2.5625 2.25 5 5 C4.8125 7.3125 4.8125 7.3125 4 9 C1.125 8.75 1.125 8.75 -2 8 C-3.375 5.9375 -3.375 5.9375 -4 4 C-2.6799999999999997 2.6799999999999997 -1.3599999999999994 1.3599999999999994 0 0 Z " fill="#8EBCC1" transform="translate(50,20)"/>
</svg>
