<?xml version="1.0" encoding="UTF-8"?>
<!-- Generator: visioncortex VTracer 0.6.0 -->
<svg version="1.1" xmlns="http://www.w3.org/2000/svg" width="128" height="128">
<path d="M0 0 C42.24 0 84.48 0 128 0 C128 42.24 128 84.48 128 128 C85.75999999999999 128 43.519999999999996 128 0 128 C0 85.75999999999999 0 43.519999999999996 0 0 Z " fill="#594355" transform="translate(0,0)"/>
<path d="M0 0 C42.24 0 84.48 0 128 0 C128 32.01 128 64.02 128 97 C120.29220801489265 95.89888685927038 116.80552302151855 94.37255261687375 112.0625 88.4375 C111.6409765625 87.8587109375 111.219453125 87.279921875 110.78515625 86.68359375 C108.22613672378966 84.27016395613423 105.22666582042402 83.3281894828217 102 82 C101.94971062155203 77.16603020703195 101.91387087647738 72.3322201209114 101.89013671875 67.498046875 C101.88021898616415 65.86130107147768 101.86668063380444 64.22457228290439 101.84912109375 62.587890625 C101.745280155909 52.64359375410947 102.13713744861585 43.143851823417606 103.76220703125 33.3203125 C104.00993793499401 29.86123622595635 103.56523362093496 28.050719350113162 102 25 C95.95321652689715 24.012644760303225 95.95321652689715 24.012644760303225 90 24.9375 C86.19202142717147 25.016832886933926 85.66801532544767 24.10965948689674 82.9375 21.5625 C81.79667968749999 20.4603515625 81.79667968749999 20.4603515625 80.6328125 19.3359375 C74.02398758461136 13.47232132877981 62.98835364691832 5.428016840329444 54 5 C45.4657530913081 7.059990633132527 37.52725375412439 13.079646280806502 32.375 20.1875 C29.69467132519083 25.669990471200578 29.932916765281114 29.807278159086966 31.4375 35.625 C33.47371742243388 44.608866683238354 34.18118456432188 52.09943139017455 31.0625 60.875 C28.105258920384063 69.54818055152377 28.2018184921953 78.41620696235236 28.046875 87.49169921875 C28.007268432387434 89.61106315443497 27.92975967781372 91.7296679338371 27.84375 93.84765625 C27.522289517686442 104.87107195600242 29.885170187873523 114.29946070113944 35 124 C35 125.32 35 126.64 35 128 C23.45 128 11.899999999999999 128 0 128 C0 85.75999999999999 0 43.519999999999996 0 0 Z " fill="#899097" transform="translate(0,0)"/>
<path d="M0 0 C5.443130144242517 2.9231624848709856 9.601664615346692 6.111755042657087 12.375 11.8125 C12.375 12.472499999999997 12.375 13.1325 12.375 13.8125 C13.694999999999993 13.482500000000002 15.015 13.152500000000003 16.375 12.8125 C16.551520996093757 13.609462890624997 16.7280419921875 14.40642578125 16.909912109375 15.2275390625 C17.710219155517336 18.839316077053567 18.511350298130637 22.450909810794855 19.3125 26.0625 C19.729189453125002 27.94388671875 19.729189453125002 27.94388671875 20.154296875 29.86328125 C20.421777343749994 31.068554687499997 20.689257812500003 32.273828125 20.96484375 33.515625 C21.33403930664062 35.180932617187494 21.33403930664062 35.180932617187494 21.710693359375 36.8798828125 C22.10245542045081 38.609337379807094 22.5093588009762 40.33568416434429 22.950439453125 42.05322265625 C24.655580156520017 49.1189178308702 24.141922489152336 58.519121944105024 20.375 64.8125 C17.290340222712672 67.23491643527083 14.059506867307135 68.52866332952188 10.375 69.8125 C9.506171875000007 70.129609375 8.63734375 70.44671875 7.7421875 70.7734375 C2.9552004195107315 72.36909986016309 -1.5608196205159857 73.63930495991576 -6.625 72.8125 C-10.334391794817058 68.97946181202236 -10.30366556632385 63.898448450253554 -10.625 58.8125 C-11.615000000000002 59.307500000000005 -11.615000000000002 59.307500000000005 -12.625 59.8125 C-20.091666666666654 60.168055555555554 -20.091666666666654 60.168055555555554 -23.625 57.8125 C-27.64556960416693 47.68711902361974 -29.336365932200223 38.73863185809175 -25.47265625 28.53125 C-24.581765907024405 25.673832125755688 -24.07321750049877 22.83129210055413 -23.595458984375 19.8798828125 C-22.274660071762042 11.736667467174605 -20.730314802653645 5.363042532024778 -14.3125 -0.1875 C-9.16283863295547 -2.1036530668072686 -5.079906429068863 -1.6641072784880748 0 0 Z " fill="#3B1E18" transform="translate(67.625,20.1875)"/>
<path d="M0 0 C11.879999999999995 0 23.760000000000005 0 36 0 C36 32.01 36 64.02 36 97 C28.292208014892623 95.89888685927038 24.805523021518553 94.37255261687375 20.0625 88.4375 C19.6409765625 87.8587109375 19.219453125 87.279921875 18.78515625 86.68359375 C16.22613672378968 84.27016395613425 13.22666582042396 83.32818948282168 10 82 C9.949710621552029 77.16603020703195 9.913870876477375 72.3322201209114 9.89013671875 67.498046875 C9.880218986164152 65.86130107147768 9.866680633804435 64.22457228290439 9.84912109375 62.587890625 C9.746148118614741 52.72671394734165 10.113133983734187 43.2652023766647 11.66455078125 33.515625 C12.019121435277356 29.799600678315844 11.601618503709233 26.670147584271888 11 23 C11.123750000000001 21.865625 11.247500000000002 20.73125 11.375 19.5625 C10.877797619003715 14.839077380535265 8.79428639217349 12.994626534952987 5.53125 9.69921875 C4 8 4 8 4 6 C3.010000000000005 5.67 2.019999999999996 5.34 1 5 C0.5049999999999955 2.5249999999999995 0.5049999999999955 2.5249999999999995 0 0 Z " fill="#8EB0C6" transform="translate(92,0)"/>
<path d="M0 0 C30.360000000000003 0 60.720000000000006 0 92 0 C92.99 2.475 92.99 2.475 94 5 C95.62224539544103 6.7099343357351335 97.29413424718263 8.373476840336922 99 10 C102.15105032367534 13.07398659293327 103.90810389609253 15.212319109364486 104.4375 19.75 C104 23.000000000000004 104 23.000000000000004 102 25 C100.046875 24.94140625 100.046875 24.94140625 97.75 24.5625 C94.57979715335365 24.08797919174402 93.12800389958207 23.959998781380605 90 24.9375 C86.19202142717147 25.016832886933926 85.66801532544767 24.10965948689674 82.9375 21.5625 C81.79667968749999 20.4603515625 81.79667968749999 20.4603515625 80.6328125 19.3359375 C74.02398758461136 13.47232132877981 62.98835364691832 5.428016840329444 54 5 C45.4657530913081 7.059990633132527 37.52725375412439 13.079646280806502 32.375 20.1875 C29.69467132519083 25.669990471200578 29.932916765281114 29.807278159086966 31.4375 35.625 C32.97764166125037 42.20560527988793 33.3328845330273 48.268334998781356 33 55 C26.598963902761323 52.04459821330993 21.929507428042125 46.92950742804212 17 42 C16.34 41.67 15.68 41.34 15 41 C15 40.34 15 39.68 15 39 C14.4237890625 38.7125390625 13.847578125 38.425078125 13.25390625 38.12890625 C11.822101750319685 37.411763268357696 10.39217963504201 36.690839929531926 8.96484375 35.96484375 C8.2958203125 35.6258203125 7.626796875 35.286796875 6.9375 34.9375 C6.2658984375 34.5958984375 5.5942968749999995 34.254296875 4.90234375 33.90234375 C2.856716860344524 32.88509618824795 2.856716860344524 32.88509618824795 0 32 C0 21.439999999999998 0 10.879999999999999 0 0 Z " fill="#7C7A91" transform="translate(0,0)"/>
<path d="M0 0 C6.394101703906898 1.794835566008956 9.204220152962819 4.001534053101679 13.34375 9.12890625 C16.913776725137012 13.162026064482603 20.861074210470278 13.972214842094061 26 15 C26 25.230000000000004 26 35.46000000000001 26 46 C2.569999999999993 46 -20.86 46 -45 46 C-43.95317299502577 41.81269198010307 -43.18230780378616 40.700139954727646 -40 38 C-39.34 38 -38.68 38 -38 38 C-37.67 37.00999999999999 -37.34 36.02000000000001 -37 35 C-36.34 35 -35.68000000000001 35 -35 35 C-35 34.34 -35 33.68000000000001 -35 33 C-34.34 33 -33.68000000000001 33 -33 33 C-33 32.34 -33 31.680000000000007 -33 31 C-30.820343689229475 29.42646729345745 -28.65258833149123 27.98083720039544 -26.375 26.5625 C-25.7575390625 26.16740234375 -25.140078125000002 25.772304687499997 -24.50390625 25.365234375 C-14.442387687188017 19 -14.442387687188017 19 -11 19 C-10.979375000000005 18.030625 -10.958750000000009 17.06125 -10.9375 16.0625 C-10.045224229464083 9.523583532341192 -4.565536842746468 4.425489700330928 0 0 Z " fill="#846D4D" transform="translate(102,82)"/>
<path d="M0 0 C3.31640625 0.48828125 3.31640625 0.48828125 7 2 C8.625385080578027 4.556776997960114 9.246683774372727 7.258340161587583 9.9375 10.1875 C10.14439453125 10.930644531249996 10.351289062500001 11.673789062499992 10.564453125 12.439453125 C12.502634585855148 19.78651308126487 12.866206143246778 25.269790595545587 9 32.0625 C6.039835882620679 37.27704836417979 5.2206031580225485 40.882412632090194 6.6875 46.75 C8.44634813227502 49.76516822675717 9.664173832259337 50.006349652162356 13 51 C13.652265624999998 51.269414062500005 14.304531249999997 51.53882812500001 14.9765625 51.81640625 C21.62842922570276 54.43719473026805 27.664017394618668 54.56754113779752 34.442626953125 52.116943359375 C36.85693230199017 51.02066051300662 39.2110797335052 49.850142298783766 41.5625 48.625 C47.60125578731041 45.55360657249183 53.50428888174169 42.958885590025105 60 41 C59.953125 43.24609375 59.953125 43.24609375 59 46 C56.56608659348923 47.59391646255645 54.35770834343006 48.83722084428287 51.75 50.0625 C47.03664262839453 52.355607391773376 43.08174259869344 54.65565250581504 39 58 C38.34 58 37.68000000000001 58 37 58 C37 58.66 37 59.31999999999999 37 60 C36.34 60 35.68000000000001 60 35 60 C35 60.66 35 61.31999999999999 35 62 C33.360327901632786 63.36639341530601 31.688898723710423 64.69494189531467 30 66 C27.35435404556538 68.42517545823173 26.145869222429823 69.56239233271053 25 73 C17.739999999999995 73 10.479999999999997 73 3 73 C2.009999999999998 70.36 1.019999999999996 67.72 0 65 C-0.515625 63.88624999999999 -1.03125 62.77250000000001 -1.5625 61.625 C-4.67849569189249 53.7672717334885 -5.3368640664763305 45.88880280248823 -5.25 37.5 C-5.24395751953125 36.55237792968751 -5.2379150390625 35.60475585937499 -5.231689453125 34.62841796875 C-5.146135033970825 28.432203975462897 -4.827920483480607 22.2887204083562 -4.1875 16.125 C-4.117568359374999 15.419238281250003 -4.047636718749999 14.713476562500006 -3.9755859375 13.986328125 C-3.372414761319977 8.963906777524898 -1.9115945191860888 4.682097260691407 0 0 Z " fill="#6C5E52" transform="translate(32,55)"/>
<path d="M0 0 C0.17652099609375682 0.7969628906249966 0.35304199218749943 1.5939257812500003 0.534912109375 2.4150390625 C1.3352191555173363 6.026816077053567 2.136350298130637 9.638409810794862 2.9375 13.25 C3.3541894531250023 15.13138671875 3.3541894531250023 15.13138671875 3.779296875 17.05078125 C4.046777343749994 18.256054687499997 4.314257812500003 19.461328125 4.58984375 20.703125 C4.959039306640619 22.3684326171875 4.959039306640619 22.3684326171875 5.335693359375 24.0673828125 C5.727455420450809 25.796837379807094 6.134358800976202 27.523184164344293 6.575439453125 29.24072265625 C8.280580156520031 36.30641783087023 7.766922489152336 45.706621944105024 4 52 C0.9153402227126719 54.42241643527083 -2.3154931326928647 55.716163329521876 -6 57 C-6.868828124999993 57.317109375 -7.737656250000001 57.63421875 -8.6328125 57.9609375 C-13.41979958048924 59.556599860163075 -17.935819620516014 60.82680495991576 -23 60 C-26.218414238051665 56.781585761948335 -26.920421021920134 52.44470383463826 -27.265625 48.0234375 C-26.397817200994197 38.1457428466104 -20.723834715719818 27.758489225498828 -14 20.6875 C-10.636635224865472 16.84970593668529 -8.850499088130789 12.713378843310693 -7 8 C-3.7910447761194064 0 -3.7910447761194064 0 0 0 Z " fill="#182334" transform="translate(84,33)"/>
<path d="M0 0 C2.64 0.6599999999999966 5.28 1.3200000000000003 8 2 C8 2.6599999999999966 8 3.3200000000000003 8 4 C8.99 4.329999999999998 9.98 4.659999999999997 11 5 C19.474071776117576 16.841102961828284 24.264656660469686 34.4564484045986 23 49 C22.34 49.99000000000001 21.68 50.97999999999999 21 52 C20.34 52 19.68 52 19 52 C18.67 52.99000000000001 18.34 53.97999999999999 18 55 C17.34 55 16.68 55 16 55 C16 55.66 16 56.31999999999999 16 57 C14.274773002164283 57.67679658058705 12.544610611866593 58.341020004996594 10.8125 59 C9.8495703125 59.37125 8.886640625 59.74250000000001 7.89453125 60.125 C5.000000000000002 61 5.000000000000002 61 0 61 C0 40.870000000000005 0 20.739999999999995 0 0 Z " fill="#97AEAF" transform="translate(0,51)"/>
<path d="M0 0 C0.990000000000002 0.3299999999999983 1.980000000000004 0.6599999999999966 3 1 C4.727953515993704 1.0680296659839996 6.458353650809812 1.084956446093372 8.1875 1.0625 C9.0885546875 1.0534765624999949 9.989609375 1.044453125000004 10.91796875 1.03515625 C11.948574218749997 1.0177539062499932 11.948574218749997 1.0177539062499932 13 1 C13.193359375 1.7708593750000006 13.38671875 2.541718750000001 13.5859375 3.3359375 C13.9765234375 4.840273437500002 13.9765234375 4.840273437500002 14.375 6.375 C14.630234375 7.372734374999993 14.885468750000001 8.37046875 15.1484375 9.3984375 C15.824043193683359 12.125410151104631 15.824043193683359 12.125410151104631 18 14 C23.92761539037025 13.901206410160498 28.53743277501505 12.505503903082271 34.0625 10.375 C41.08221555205698 7.736921153222653 44.91344127438235 7.63781375812745 52 10 C50.19255029002596 15.42234912992214 47.77491215002456 18.056616253197404 42.71484375 20.74609375 C41.46006783076757 21.319486909750026 40.2006989184751 21.882909326171955 38.9375 22.4375 C37.58848165424568 23.042835027166177 36.23952373158778 23.648304727365783 34.890625 24.25390625 C34.22869140624999 24.5479736328125 33.5667578125 24.842041015625 32.884765625 25.14501953125 C31.213645352774137 25.90308471173381 29.565664179612213 26.71170724082694 27.921875 27.52734375 C20.318707691516607 31.274619066323964 13.507780465296896 33.33547558260466 5.1875 30.75 C0.5577578515940829 28.929131394895023 -2.9533655016626454 27.500176114283548 -5.875 23.3125 C-7.764558690494155 17.748799411322764 -6.901675389082207 14.027524217439009 -4.5859375 8.8203125 C-3.110323408421955 5.848104021702994 -1.5878825193260298 2.913545907020236 0 0 Z " fill="#4A3F45" transform="translate(44,78)"/>
<path d="M0 0 C2.450348583614641 2.450348583614634 2.613938522577172 3.58800296111027 3 7 C2.7579428336668173 9.256070169544998 2.4366644114733162 11.504231898369156 2.0625 13.7421875 C0.7756000831619048 22.230119142573997 0.8380598445615561 30.56145035169559 1 39.125 C1.0534858090564114 42.02342146219965 1.093176045288459 44.92158188048296 1.125 47.8203125 C1.1482031249999949 49.0811767578125 1.171406250000004 50.342041015625 1.1953125 51.64111328125 C0.9398811322232206 56.03389422859108 -0.15990640010613788 58.8176460445938 -2.6875 62.375 C-5 64 -5 64 -8.5625 63.875 C-12.000000000000014 63 -12.000000000000014 63 -15 61 C-14.783437500000005 60.40574218750001 -14.566874999999996 59.81148437499999 -14.34375 59.19921875 C-14.065312500000005 58.37035156249999 -13.786874999999995 57.54148437500001 -13.5 56.6875 C-13.221562500000005 55.8869921875 -12.943124999999995 55.086484375 -12.65625 54.26171875 C-10.898743168652686 45.52649134419639 -12.252766341506955 37.45374828310651 -14.4375 28.9375 C-19.13437355537455 10.242101338411075 -19.13437355537455 10.242101338411075 -16.9375 4 C-15 1 -15 1 -12.375 -0.5 C-8.139547847314446 -1.1274743929904503 -4.169913850713613 -1.0341386349769763 0 0 Z " fill="#2D546F" transform="translate(102,24)"/>
<path d="M0 0 C6.394101703906884 1.794835566008956 9.204220152962833 4.001534053101693 13.34375 9.12890625 C16.913776725137012 13.162026064482617 20.861074210470278 13.972214842094061 26 15 C26 25.230000000000004 26 35.46000000000001 26 46 C22.700000000000003 46 19.400000000000006 46 16 46 C15.6480859375 45.2265625 15.296171874999999 44.453125 14.93359375 43.65625 C9.704600844094998 32.6248498225294 4.15025922364012 25.397696676100495 -7 20 C-9.187202428718379 19.338427692399762 -9.187202428718379 19.338427692399762 -11 19 C-10.825009855058553 10.775463187751981 -5.696336989822029 5.521602726330556 0 0 Z " fill="#8C8A85" transform="translate(102,82)"/>
<path d="M0 0 C0 21.450000000000003 0 42.900000000000006 0 65 C-8.27853881278537 63.81735159817353 -8.27853881278537 63.81735159817353 -13 60 C-13.586523437500006 59.538515625 -14.173046874999997 59.077031250000005 -14.77734375 58.6015625 C-16.700891596263247 56.8132300352201 -17.887301593284363 55.386216505026894 -19 53 C-19 50.02207813901144 -18.44375970922907 47.44698301180944 -17.765625 44.546875 C-17.047668939709382 41.22083365947002 -16.702484226099926 38.07496908814234 -16.436767578125 34.695068359375 C-15.809532168999482 27.113309106847396 -14.463538061517951 19.92517329047839 -12.3125 12.625 C-12.093037109375004 11.822478027343749 -11.873574218749994 11.019956054687498 -11.6474609375 10.193115234375 C-10.34099579125457 6.067319517121604 -9.21363966024387 3.7094225222382775 -5.41796875 1.4609375 C-2 0 -2 0 0 0 Z " fill="#8EC6DE" transform="translate(128,32)"/>
<path d="M0 0 C14.189999999999998 0 28.379999999999995 0 43 0 C43.66 1.6500000000000001 44.31999999999999 3.3000000000000003 45 5 C46.62224539544103 6.7099343357351335 48.294134247182626 8.373476840336922 50 10 C53.15105032367532 13.073986592933263 54.90810389609253 15.212319109364497 55.4375 19.75 C55 23 55 23 53 25 C51.046875 24.94140625 51.046875 24.94140625 48.75 24.5625 C45.57979715335365 24.08797919174402 44.12800389958207 23.959998781380605 41 24.9375 C37.192021427171454 25.016832886933926 36.66801532544767 24.10965948689674 33.9375 21.5625 C33.176953125 20.827734375 32.416406249999994 20.09296875 31.6328125 19.3359375 C24.761197115523174 13.239163019410762 14.268309617894737 5.950595858245614 5 5 C2.2749703462149213 5.377220146356657 2.2749703462149213 5.377220146356657 0 6 C0 4.02 0 2.04 0 0 Z " fill="#747280" transform="translate(49,0)"/>
<path d="M0 0 C7.15154451392408 3.4327413666835582 11.943592388908542 8.597989150389864 15 16 C14.829643550388539 21.36622816276114 13.80031792079977 25.74874590868083 12.0625 30.8125 C9.89871775941333 37.420597562079415 9.227942792969586 43.85742703828471 8.771728515625 50.757080078125 C8.340790309987597 56.5524758932674 7.079837649490685 61.57433656654605 5 67 C3.019999999999996 66.67 1.0400000000000063 66.34 -1 66 C-2.763696332181084 60.380801910238034 -2.185943676082161 54.30931499543897 -2.185302734375 48.47802734375 C-2.1874517324233977 46.29894332267333 -2.2055128146472924 44.12039818842793 -2.224609375 41.94140625 C-2.25699361051403 33.33282101773533 -1.6662314202437472 25.085808472359346 -0.333251953125 16.5771484375 C0.015110380817546343 12.837804176015627 -0.3981707345906358 9.692401181057363 -1 6 C-0.5625 2.5625 -0.5625 2.5625 0 0 Z " fill="#5793B6" transform="translate(104,17)"/>
<path d="M0 0 C1.3200000000000003 0 2.6400000000000006 0 4 0 C4.24234375 1.2787500000000023 4.4846875 2.5575000000000045 4.734375 3.875 C5.072310814393671 5.583453283879109 5.410886705425462 7.291780045986457 5.75 9 C5.907265625000001 9.839179687500007 6.064531250000002 10.678359375 6.2265625 11.54296875 C7.242048249626546 16.581340353916318 8.622145066624217 20.753565404273218 11.2041015625 25.2109375 C12 27 12 27 12 31 C0.4499999999999993 31 -11.100000000000001 31 -23 31 C-23 25.72 -23 20.439999999999998 -23 15 C-11.883928571428582 11.919642857142861 -11.883928571428582 11.919642857142861 -7 11 C-7 10.340000000000003 -7 9.680000000000007 -7 9 C-5.624999999999993 7.375 -5.624999999999993 7.375 -4 6 C-3.34 6 -2.6799999999999997 6 -2 6 C-1.3399999999999999 4.019999999999996 -0.6799999999999997 2.0400000000000063 0 0 Z " fill="#898D78" transform="translate(23,97)"/>
<path d="M0 0 C1.98 0 3.96 0 6 0 C7.050492094283892 4.377050392849549 7.328336964507036 6.355052391146894 5.25 10.4375 C4.5075 11.283125 3.7649999999999997 12.12875 3 13 C2.01 13 1.02 13 0 13 C0 8.71 0 4.42 0 0 Z " fill="#888F96" transform="translate(0,0)"/>
</svg>
