<?xml version="1.0" encoding="UTF-8"?>
<!-- Generator: visioncortex VTracer 0.6.0 -->
<svg version="1.1" xmlns="http://www.w3.org/2000/svg" width="128" height="128">
<path d="M0 0 C42.24 0 84.48 0 128 0 C128 42.24 128 84.48 128 128 C85.75999999999999 128 43.519999999999996 128 0 128 C0 85.75999999999999 0 43.519999999999996 0 0 Z " fill="#557A9A" transform="translate(0,0)"/>
<path d="M0 0 C14.520000000000003 0 29.040000000000006 0 44 0 C44.989999999999995 3.6300000000000003 45.980000000000004 7.260000000000001 47 11 C47.412499999999994 12.32 47.825 13.64 48.25 15 C49.7062479720948 21.27208556402237 49.643986412523034 27.25128467701161 46.28515625 32.8671875 C44.89111838746875 34.741480492081116 43.465110786809944 36.592428422974635 42.0078125 38.41796875 C37.63070175745487 44.04689910179441 34.8442137569873 50.00445928802189 34.9375 57.1875 C34.94652343749999 58.0885546875 34.95554687500001 58.989609375 34.96484375 59.91796875 C34.976445312500005 60.6050390625 34.98804687500001 61.292109375 35 62 C36.485 61.505 36.485 61.505 38 61 C38.24234375 61.6870703125 38.48468750000001 62.374140625 38.734375 63.08203125 C39.23710937499999 64.43361328125 39.23710937499999 64.43361328125 39.75 65.8125 C40.07484375 66.7058203125 40.3996875 67.599140625 40.734375 68.51953125 C42.162027450239506 71.3175537990805 43.280347335049726 72.46019665293257 46 74 C51.33672219314485 75.11348902902083 56.43824306380834 74.11547347892663 61.14453125 71.45703125 C67.10504301414412 66.77646095941947 69.68316877085647 60.242571760289394 71 53 C74.875 54.75 74.875 54.75 76 57 C76.45650224630853 62.56932740496405 75.934044123374 66.55047739225283 74.0625 71.8125 C71.80194937526966 78.5151116425571 71.47506460308 84.83367669254125 71.416259765625 91.844970703125 C71.29640063753563 98.36206783529228 70.35041511020405 103.93306111486075 66.30859375 109.20703125 C60.31025691370269 114.35382966277285 54.676212229506916 117.11990287767966 46.6484375 116.9140625 C44.42175137961736 116.72808645834276 42.19786038663446 116.50204842805934 39.98046875 116.2265625 C37.04130189713079 116.00313959375306 34.85873464549124 116.39517680227624 32 117 C26.112363796729596 116.53166530201258 22.907163119488338 114.4351581356354 19 110 C16.084032213477343 106.8667690735731 16.084032213477343 106.8667690735731 12.0703125 105.94140625 C9.692619919375794 106.20794474213403 7.356529556745272 106.58606414565645 5 107 C3.10841790458214 107.29908510246551 1.212108734518651 107.56955684211599 -0.6875 107.8125 C-1.5576171875 107.9426953125 -2.427734375 108.072890625 -3.32421875 108.20703125 C-7.1170570006202425 107.91357077221478 -9.505017307838703 106.80414081377063 -12 104 C-13.895410644104974 100.32018317285797 -15.186575244671758 96.48161883095108 -16.5 92.5625 C-17.266770699748882 90.38398248525237 -18.037577400585924 88.20688113440052 -18.8125 86.03125 C-19.1824609375 84.987109375 -19.552421875 83.94296875 -19.93359375 82.8671875 C-21.258048787814857 79.30619849723038 -22.81427908564957 75.96635953859222 -24.5 72.5625 C-26.916201878391853 67.58325524508199 -27.812754366206057 63.52374619692124 -28 58 C-27.38125 57.773125 -26.7625 57.54625 -26.125 57.3125 C-23.337314445795414 55.590694216520696 -23.19326965967922 54.01979072720265 -22 51 C-20.270328408303083 48.98065715945207 -18.5400368863302 47.08378796390992 -16.6875 45.1875 C-10.402015502510913 38.50298571869565 -5.96400612004841 33.043594970584905 -4.46484375 23.77734375 C-3.758654201763548 19.558009558436016 -2.693643720145424 15.428772610339209 -1.68359375 11.2734375 C-0.9069000508894476 7.554184243687757 -0.4712683032450826 3.7701464259606365 0 0 Z " fill="#7693A7" transform="translate(40,0)"/>
<path d="M0 0 C14.52000000000001 0 29.040000000000006 0 44 0 C44 14.190000000000001 44 28.380000000000003 44 43 C43.00999999999999 43.33 42.02000000000001 43.66 41 44 C41 44.66 41 45.32 41 46 C40.00999999999999 46 39.02000000000001 46 38 46 C38 46.66 38 47.32 38 48 C37.34 48 36.68000000000001 48 36 48 C35.87625 48.556875 35.7525 49.11375 35.625 49.6875 C34.94023144797234 52.22114364250237 34.008662367616495 54.57921031772043 33 57 C31 57 31 57 28.875 55 C28.256249999999994 54.34 27.637500000000003 53.68 27 53 C26.95875000000001 54.134375 26.91749999999999 55.26875 26.875 56.4375 C26.120780849168597 62.41813918194472 22.889037205829922 67.47209244489882 18.375 71.421875 C13.15601427552025 75.02297514989104 8.173915336957023 75.740434290852 2 75 C-3.3570901488599247 72.26193170169381 -4.949619424822387 67.36077155968226 -7 62 C-8.485 62.495 -8.485 62.495 -10 63 C-10.741530613307745 51.98003116334333 -7.9770583076931985 43.90877622036302 -0.671875 35.46484375 C3.534920859582215 30.351410851714718 4.441437538206628 25.56638338082348 4 19 C3.2218018706955434 14.735432857894041 2.0935444738291977 10.573434212316824 0.91015625 6.40625 C0 2.999999999999999 0 2.999999999999999 0 0 Z " fill="#50627F" transform="translate(84,0)"/>
<path d="M0 0 C10.89 0 21.78 0 33 0 C33 15.000000000000004 33 15.000000000000004 30 20 C28.125 21.1171875 28.125 21.1171875 26 21.875 C18.55881108586651 24.883140199330562 10.254185541646812 28.949356829578353 6 36 C5.392993642405507 41.503913415496214 6.36414961712412 46.04753145985697 7.779541015625 51.3583984375 C10.172431821662414 60.33964498703251 11.513764207785393 68.94679416428326 11.5625 78.25 C11.576679687499997 79.17691650390626 11.590859375 80.1038330078125 11.60546875 81.058837890625 C11.49210271659549 88.91439546784875 9.085604949591598 95.14965240075396 5.375 102 C1.6962763553682976 105.09787254284775 -2.2114058586362404 106.06229065549742 -7 106 C-14.168803112128852 101.32469362252466 -16.70974746765085 91.39461492117347 -19.70751953125 83.71484375 C-21.25683267431823 79.76434115789714 -22.954323006434848 75.94339260816423 -24.8125 72.125 C-27.050711510879104 67.34010552001166 -27.741226973902762 63.261718197310465 -28 58 C-27.38125 57.773125 -26.7625 57.54625 -26.125 57.3125 C-23.337314445795414 55.590694216520696 -23.19326965967922 54.01979072720265 -22 51 C-20.270328408303083 48.98065715945207 -18.5400368863302 47.08378796390992 -16.6875 45.1875 C-10.402015502510913 38.50298571869565 -5.96400612004841 33.043594970584905 -4.46484375 23.77734375 C-3.758654201763548 19.558009558436016 -2.693643720145424 15.428772610339209 -1.68359375 11.2734375 C-0.9069000508894476 7.554184243687757 -0.4712683032450826 3.7701464259606365 0 0 Z " fill="#7CB9C4" transform="translate(40,0)"/>
<path d="M0 0 C13.200000000000001 0 26.400000000000002 0 40 0 C40 5.807473688974116 39.83933106317402 9.643604530931317 38.5625 15.0625 C37.737107519559714 18.607301522277357 36.99373343283284 22.048527053186987 36.52734375 25.66015625 C35.22239939879581 33.92480380762657 30.104017564559392 39.15816999297795 24.20703125 44.72265625 C21.426440310083684 47.591832388002146 19.46001456279796 50.69497451510357 17.484375 54.15234375 C15.562835127012615 56.54415522348167 13.944053403195696 57.22284304574027 11 58 C7.9999999999999964 56.6875 7.9999999999999964 56.6875 5 55 C3.3499999999999996 54.67 1.6999999999999997 54.34 0 54 C0 36.18 0 18.36 0 0 Z " fill="#4E9AD7" transform="translate(0,0)"/>
<path d="M0 0 C3.6299999999999955 0 7.260000000000005 0 11 0 C11.738552190597431 2.6856443294451893 12.474643330037878 5.372001765474753 13.1953125 8.0625 C13.659924007869876 9.758557543291989 14.143949584466029 11.450049275571939 14.6796875 13.125 C16.403483852736443 18.792275680229405 16.615721501586194 24.27082327456879 15 30 C13.199762030476947 33.00996507888365 11.19490340792781 35.678225838456015 9.0078125 38.41796875 C4.6307017574548865 44.0468991017944 1.8442137569873012 50.0044592880219 1.9375 57.1875 C1.9465234375000051 58.0885546875 1.955546874999996 58.989609375 1.96484375 59.91796875 C1.9764453125000045 60.6050390625 1.9880468749999949 61.292109375 2 62 C3.4849999999999994 61.505 3.4849999999999994 61.505 5 61 C5.242343750000003 61.6870703125 5.484687500000007 62.374140625 5.734375 63.08203125 C6.069531249999997 63.9830859375 6.404687499999994 64.884140625 6.75 65.8125 C7.074843749999999 66.7058203125 7.399687499999999 67.599140625 7.734375 68.51953125 C9.162027450239506 71.31755379908051 10.28034733504974 72.46019665293258 13 74 C18.33672219314485 75.11348902902083 23.43824306380833 74.11547347892663 28.14453125 71.45703125 C34.105043014144115 66.77646095941945 36.68316877085647 60.242571760289394 38 53 C41.875 54.74999999999999 41.875 54.74999999999999 43 57 C43.713928083204365 65.70992261509319 42.06759052442709 75.48123741624086 36.6875 82.625 C32.15562614300748 86.62991178059804 27.02032279440057 88.65267368493843 21 89 C14.39875308754273 88.36754520599212 9.185866706231408 87.38859356995484 4 83 C2.8670046035414174 80.40043695837929 2.0677635061543356 78.20282731567787 1.375 75.5 C0.07406361890419078 70.64505625895403 -1.1693198736358 67.42165473299471 -5 64 C-7.01547690112632 57.33342255781293 -5.570862181265269 50.638140149986924 -3.4375 44.1875 C-1.5435601614534278 37.773723058835046 -1.78643980613748 31.440032268644643 -1.935302734375 24.817138671875 C-1.9540747070312534 23.98029541015625 -1.9728466796875068 23.1434521484375 -1.9921875 22.28125 C-2.0286840820312477 21.152998046875 -2.0286840820312477 21.152998046875 -2.06591796875 20.001953125 C-2 18 -2 18 -1 15 C-0.7728150412773829 12.433651392207477 -0.5839181647352945 9.883218925106569 -0.4375 7.3125 C-0.39431640624999886 6.61060546875 -0.3511328124999977 5.9087109375 -0.306640625 5.185546875 C-0.20082640420771725 3.457247935392818 -0.09993419244619872 1.7286489033778116 0 0 Z " fill="#6B8499" transform="translate(73,0)"/>
<path d="M0 0 C10.89 0 21.78 0 33 0 C33 15.000000000000004 33 15.000000000000004 30 20 C28.125 21.117187499999996 28.125 21.117187499999996 26 21.875 C17.490775200052475 25.33966807815453 10.471767243552804 29.884692655440983 4.6640625 37.02734375 C-1.438481296348364 44.26157994050686 -10.29436991852262 51.24569702736288 -19 55 C-21.749999999999954 55.125 -21.749999999999954 55.125 -24 55 C-21.92576608277796 51.28613355773578 -19.606858603707096 48.33574691790802 -16.6875 45.25 C-10.591333075285203 38.53825921643778 -5.823067837264915 32.870250525755836 -4.4296875 23.7421875 C-3.7692490239049476 19.527389225284303 -2.690720925675066 15.416748264176192 -1.68359375 11.2734375 C-0.9069000508894476 7.554184243687757 -0.4712683032450826 3.7701464259606365 0 0 Z " fill="#7BBDE2" transform="translate(40,0)"/>
<path d="M0 0 C1.568008725268868 10.388057804906289 1.1977855336139243 19.123498118628596 -1.576904296875 29.225341796875 C-2.5501452388592583 32.855162022814504 -3.2158337260455028 36.05564420602036 -3 39.8125 C-2.5940518763836877 47.38053287598986 -6.302710810030433 55.20667666570421 -11 61 C-11.659999999999997 61 -12.32 61 -13 61 C-13.329999999999998 61.99000000000001 -13.659999999999997 62.97999999999999 -14 64 C-15.955971836664787 65.39712274047484 -17.95436401238956 66.73779907147441 -20 68 C-20.014179687500004 66.739296875 -20.028359375 65.47859375 -20.04296875 64.1796875 C-20.29766165698961 53.22577886536389 -21.507030300537764 43.07988141912537 -24.272216796875 32.46240234375 C-27.435484276079094 20.13939244118111 -27.435484276079094 20.13939244118111 -25.0390625 14.8984375 C-19.676945361521064 9.121570969594512 -8.350344943808892 0 0 0 Z " fill="#85A1A5" transform="translate(71,19)"/>
<path d="M0 0 C0 13.86 0 27.72 0 42 C-14.189999999999998 42 -28.379999999999995 42 -43 42 C-42.504999999999995 39.03 -42.504999999999995 39.03 -42 36 C-41.34 36 -40.68000000000001 36 -40 36 C-40 35.34 -40 34.68000000000001 -40 34 C-39.182089843750006 33.65388671875 -39.182089843750006 33.65388671875 -38.34765625 33.30078125 C-35.881844837245495 32.234370502261726 -33.439472656847386 31.12534095247588 -31 30 C-30.222695312500008 29.649374999999992 -29.445390625 29.29875 -28.64453125 28.9375 C-19.278167297485837 24.29462079462293 -15.134653846304175 16.43120529897574 -10.40625 7.46484375 C-7.692796435605118 2.708762641296744 -5.784585938889634 0 0 0 Z " fill="#524846" transform="translate(128,86)"/>
<path d="M0 0 C9.239999999999995 0 18.480000000000004 0 28 0 C28 12.540000000000001 28 25.080000000000002 28 38 C21.316256328633315 36.88604272143888 18.26202324447128 34.944291535195894 13 31 C12.269101562499998 30.4598828125 11.538203124999995 29.919765625 10.78515625 29.36328125 C4.359100198581459 24.22961635976061 1.5013487576589597 19.289317148859972 0.54296875 11.08984375 C0.23031976656804432 7.389286333544259 0.1341472941425792 3.7225874124567024 0 0 Z " fill="#4F3F4F" transform="translate(100,0)"/>
<path d="M0 0 C8.58 0 17.16 0 26 0 C20.931297709923662 27.87786259541985 20.931297709923662 27.87786259541985 12 37 C11.095078125 38.017070312499996 11.095078125 38.017070312499996 10.171875 39.0546875 C6.573469661815295 42.950352409599965 5.537137975030037 43.89257240499399 0 45 C0 30.15 0 15.299999999999997 0 0 Z " fill="#265BA6" transform="translate(0,0)"/>
<path d="M0 0 C6.25681110993667 1.2513622219873355 8.056882975500166 3.577003872283612 11.9296875 8.40625 C15.066085184923207 13.186887089668616 16.13847052392849 18.84358679863773 17.5625 24.3125 C18.145027952513605 26.496656912861425 18.729629559678077 28.680261930077492 19.31640625 30.86328125 C19.5950048828125 31.905649414062495 19.873603515625 32.94801757812499 20.16064453125 34.02197265625 C21.129931056810662 37.46099448254114 22.25267573298911 40.82400972530195 23.464599609375 44.184326171875 C24 46 24 46 24 49 C16.08 49 8.16 49 0 49 C0 32.83 0 16.659999999999997 0 0 Z " fill="#18344C" transform="translate(0,79)"/>
<path d="M0 0 C3.1280633528052846 1.6913745477590112 4.827560717814933 3.2276692017223994 6.80859375 6.19921875 C7.664610065574436 13.475357432382765 4.818991488973268 18.040022303042008 1.05859375 23.94921875 C-3.2041685576139685 28.21198105761397 -7.827749760219689 30.406746186327283 -13.87890625 30.69921875 C-16.921298885125722 30.53165151364196 -18.29099114272364 30.14726141466592 -21.06640625 28.69921875 C-24.736667187108992 24.381264706342364 -26.569099238028926 19.85765665690873 -26.19140625 14.13671875 C-25.081657057662156 8.127544931915288 -21.778737929325388 4.4373374598738025 -17.06640625 0.76171875 C-11.835968012963065 -1.8763407101649179 -5.471323125330997 -1.9993248497198834 0 0 Z " fill="#345CA4" transform="translate(104.19140625,44.80078125)"/>
<path d="M0 0 C0 14.189999999999998 0 28.379999999999995 0 43 C-1.6500000000000057 43.66 -3.299999999999997 44.31999999999999 -5 45 C-6.614773818670187 46.493333748221104 -6.614773818670187 46.493333748221104 -7.875 48.375 C-8.379023437499995 49.08140625 -8.883046875000005 49.7878125 -9.40234375 50.515625 C-11.20735435119721 53.32243855100593 -12.81605263905935 56.208571189717475 -14.4375 59.125 C-19.2047254800178 67.40766308782086 -24.879653971874205 71.99523483569499 -34 75 C-34.989999999999995 75 -35.980000000000004 75 -37 75 C-37 74.34 -37 73.68 -37 73 C-36.275546875 72.7924609375 -35.55109375000001 72.584921875 -34.8046875 72.37109375 C-28.22900775342704 70.27564380409208 -23.492747758550877 68.15794552552872 -20 62 C-17.767137814714374 56.80028978997498 -17.72631860967259 51.99374955841816 -17.625 46.4375 C-17.385531609593514 39.130065682222025 -16.456481458959615 32.89612803457416 -13.9765625 25.96484375 C-12.943121961900914 22.82731827633117 -12.409259288566545 19.828833379312478 -11.9375 16.5625 C-11.2829950837329 12.110687281246264 -10.342156550245676 8.832619809492925 -8 5 C-7.340000000000003 5 -6.680000000000007 5 -6 5 C-6 4.340000000000003 -6 3.6799999999999997 -6 3 C-5.010000000000005 3 -4.02000000000001 3 -3 3 C-3 2.3400000000000034 -3 1.6799999999999997 -3 1 C-1 0 -1 0 0 0 Z " fill="#5E7687" transform="translate(128,43)"/>
<path d="M0 0 C3.875 1.75 3.875 1.75 5 4 C5.713928083204365 12.709922615093191 4.067590524427075 22.481237416240873 -1.3125 29.625 C-5.844373856992519 33.62991178059805 -10.97967720559943 35.652673684938435 -17 36 C-23.26961748462503 35.399318085305396 -29.521790582560413 34.696658657314686 -34 30 C-36.80258039218549 23.642927403091434 -39.41277605141521 16.785932644605253 -37 10 C-34.9375 8.82421875 -34.9375 8.82421875 -33 8 C-32.75765625 8.687070312499998 -32.51531249999999 9.374140625000003 -32.265625 10.08203125 C-31.930468750000003 10.9830859375 -31.595312500000006 11.884140625 -31.25 12.8125 C-30.92515625 13.705820312499995 -30.6003125 14.599140625000004 -30.265625 15.51953125 C-28.837972549760465 18.31755379908057 -27.719652664950274 19.460196652932567 -25 21 C-19.66327780685515 22.113489029020826 -14.561756936191657 21.115473478926617 -9.85546875 18.45703125 C-3.8949569858558846 13.776460959419467 -1.3168312291435313 7.242571760289401 0 0 Z " fill="#5C89BC" transform="translate(111,53)"/>
<path d="M0 0 C8.622837370242216 1.2318339100346023 8.622837370242216 1.2318339100346023 12 4 C12.86328125 6.3203125 12.86328125 6.3203125 13.3125 9.125 C14.481114992917137 14.660896166447472 16.385615602457367 19.280680620824114 18.875 24.3125 C28.435692015379885 43.83187971953248 28.435692015379885 43.83187971953248 27.765625 50.2421875 C26.463412058363236 53.231962110900724 24.49593765782214 54.9684228366564 22 57 C19.832031250000007 56.63671875 19.832031250000007 56.63671875 18 56 C17.708671875 54.7328515625 17.41734375 53.465703125000005 17.1171875 52.16015625 C14.427154979585838 38.88079782861317 14.427154979585838 38.88079782861317 7 28 C4.6899999999999995 27.010000000000005 2.38 26.019999999999996 0 25 C0 16.75 0 8.5 0 0 Z " fill="#48798A" transform="translate(0,54)"/>
</svg>
