<?xml version="1.0" encoding="UTF-8"?>
<!-- Generator: visioncortex VTracer 0.6.0 -->
<svg version="1.1" xmlns="http://www.w3.org/2000/svg" width="128" height="128">
<path d="M0 0 C42.24 0 84.48 0 128 0 C128 42.24 128 84.48 128 128 C85.75999999999999 128 43.519999999999996 128 0 128 C0 85.75999999999999 0 43.519999999999996 0 0 Z " fill="#A69EBC" transform="translate(0,0)"/>
<path d="M0 0 C2.8321021629034533 0.9727120881887892 5.42009168330344 2.28709901769745 8.0625 3.6875 C8.743769531249995 4.02716796875 9.425039062499991 4.366835937499999 10.126953125 4.716796875 C13.464518694412163 6.4320683251782 16.388106620363686 8.211998829066623 19.22265625 10.6796875 C21.814184617916666 12.844761832689876 23.217589266767135 13.586524988255086 26.375 14.4375 C32.290987344755465 16.83182877359412 34.44817712276088 22.206721135830534 37.17578125 27.58984375 C38.86405493703779 30.745867152107053 40.76072804463115 33.230751099970284 43 36 C44.24734817390198 40.13184082605031 44.32423580871186 42.9288512839063 42.5625 46.8125 C40.18387656890758 51.09071853231205 37.06312106798319 54.72748970853144 33.953125 58.48828125 C31.64880752108752 61.451633527881455 29.895741856009423 64.50992065495149 28.16015625 67.828125 C26.601138714911542 70.74668981316223 24.818393459784062 73.50082524855995 23.015625 76.2734375 C20.66095774628093 80.27637183132242 20.372574863250122 84.47910106944603 21 89 C22.790770687302754 92.26176089473002 24.86655047162519 94.84060195221898 27.25 97.6875 C29 100 29 100 29 103 C13.489999999999995 103 -2.0200000000000102 103 -18 103 C-18 98.38 -18 93.76 -18 89 C-19.74744448060831 84.66633768809139 -22.18072148062609 81.76334763542897 -25.2421875 78.33203125 C-28.865193187817653 74.20736409987283 -32.24517224409361 69.93502454209077 -35.5625 65.5625 C-36.408930664062495 64.44717895507813 -36.408930664062495 64.44717895507813 -37.2724609375 63.309326171875 C-49.12469182763602 47.61113224362093 -49.12469182763602 47.61113224362093 -49 42 C-46.283071591824665 33.849214775474 -39.06053394600516 27.719808629776274 -32.5 22.5625 C-27.81097232474935 18.865756189636414 -24.36512860695666 14.898142991244313 -20.76953125 10.16015625 C-18.51458170269123 7.407425345669424 -16.08581903673946 5.744158585983172 -13 4 C-12.030625 3.2575000000000003 -11.061250000000001 2.5150000000000006 -10.0625 1.75 C-6.254663800174022 -0.42590639990055834 -4.355740515248726 -0.3882678533059831 0 0 Z " fill="#8592B3" transform="translate(69,25)"/>
<path d="M0 0 C1.5027104544846708 1.6821385684529915 2.772823049928448 3.372828602522361 4.0078125 5.2578125 C4.935937499999994 6.588125000000005 4.935937499999994 6.588125000000005 5.8828125 7.9453125 C7.734359622944623 13.397090139781369 8.154836839281558 19.929658976696004 6.25390625 25.4453125 C1.0473257551125528 33.01852049256357 -13.310328137108712 38.116876884961584 -21.91015625 39.84375 C-31.543836027163195 40.427609380434134 -39.64591630983642 35.46899609993369 -46.8671875 29.5078125 C-52.18719366393903 24.439755626156455 -56.39310878851234 18.852284768925927 -57.6171875 11.5078125 C-56.391021443303785 5.131749005179685 -52.59445038125506 1.2935394734294334 -47.4609375 -2.35546875 C-32.57174236726405 -10.718861585634912 -13.346432329323989 -11.671585919369598 0 0 Z " fill="#464668" transform="translate(86.9921875,57.7421875)"/>
<path d="M0 0 C6.386163667655634 0.08366153276405441 10.294766551017268 0.9388288442982855 14.9375 5.375 C18.401013126857386 9.258903307110003 21.587856971002267 13.311873807235244 24.4375 17.66796875 C25.966237073819464 19.812110678034216 25.966237073819464 19.812110678034216 29.625 19.625 C34.56424842894512 19.998633183739386 36.86366057165563 22.614295526171702 40.17578125 26.07421875 C46.493831169623306 34.325507891148845 44.7621578469218 36.829790143094755 43.9375 48.375 C27.1075 48.375 10.277499999999996 48.375 -7.0625 48.375 C-7.083125 40.640625 -7.10375 32.90625 -7.125 24.9375 C-7.13410400390625 22.49287353515625 -7.1432080078125 20.0482470703125 -7.152587890625 17.529541015625 C-7.155506909108638 15.60432998707833 -7.158055499164903 13.679118345316397 -7.16015625 11.75390625 C-7.165272216796875 10.74420776367188 -7.17038818359375 9.734509277343747 -7.1756591796875 8.6942138671875 C-7.175780029296875 7.740106201171869 -7.17590087890625 6.785998535156253 -7.176025390625 5.802978515625 C-7.178246002197266 4.970249176025391 -7.180466613769531 4.137519836425781 -7.1827545166015625 3.2795562744140625 C-6.919405006621782 -0.8912971435717623 -3.4713431860013357 0.1036221846567571 0 0 Z " fill="#AEB3D9" transform="translate(7.0625,79.625)"/>
<path d="M0 0 C14.190000000000001 0 28.380000000000003 0 43 0 C43 17.36871508379888 43 17.36871508379888 39 25 C38.38750829079413 26.23281840690547 37.77557262672049 27.465913158036205 37.1640625 28.69921875 C28.37152738284804 46.089517636772065 28.37152738284804 46.089517636772065 21 49 C14.000000000000005 50 14.000000000000005 50 0 47 C0 31.49 0 15.979999999999997 0 0 Z " fill="#E4D8C4" transform="translate(0,0)"/>
<path d="M0 0 C1.5820605692049057 0.006675361051497505 3.1641053379603363 0.01863749549677457 4.74609375 0.03515625 C5.552402343750003 0.03966796875 6.3587109375 0.0441796875 7.189453125 0.048828125 C9.187531312192299 0.060651072853208865 11.18557157992565 0.07858710945846327 13.18359375 0.09765625 C12.86079260375363 6.661279557009454 11.389033308980522 11.206153849113374 8.49609375 17.07421875 C7.054395899960205 20.395272725984533 6.225225070182162 23.6444907267502 5.37109375 27.16015625 C2.2557489026213347 38.38761473918038 -5.151324851301808 44.56858187766279 -13.793212890625 51.7646484375 C-19.107570932942515 56.22572742059208 -23.36888279071564 60.516940324401844 -26.00390625 67.03515625 C-25.480217675291303 75.58873630357536 -18.120133174936612 82.8854347893469 -13.094970703125 89.42529296875 C-10.441353761837547 92.8805189685767 -7.956745164249348 96.2893290784391 -5.81640625 100.09765625 C-9.09825679128705 101.00540214439854 -11.55821175399825 101.16729044914128 -14.81640625 100.09765625 C-17.527656413029234 97.01966693448372 -19.576212891948778 93.83688055914565 -21.67578125 90.33203125 C-24.754148708766724 85.68077530865173 -27.86474876826736 83.57348499086632 -32.81640625 81.09765625 C-37.436406250000005 81.09765625 -42.05640625 81.09765625 -46.81640625 81.09765625 C-46.81640625 69.87765625 -46.81640625 58.65765625 -46.81640625 47.09765625 C-38.81640625000001 48.09765625 -38.81640625000001 48.09765625 -35.31640625 48.78515625 C-29.762616268598222 49.2810303554823 -25.615858494939545 48.51151158530964 -21.19140625 45.03515625 C-12.584650443018319 34.389958278206876 -4.584811160460838 21.878235087830696 -4.81640625 7.91015625 C-4.853819640039006 5.639631142007673 -4.863399202999453 3.3680032917859406 -4.81640625 1.09765625 C-3.81640625 0.09765625000000011 -3.81640625 0.09765625000000011 0 0 Z " fill="#A8A2B3" transform="translate(46.81640625,-0.09765625)"/>
<path d="M0 0 C2.8321021629034533 0.9727120881887892 5.42009168330344 2.28709901769745 8.0625 3.6875 C8.743769531249995 4.02716796875 9.425039062499991 4.366835937499999 10.126953125 4.716796875 C21.122591045208665 10.367773135625974 21.122591045208665 10.367773135625974 23 16 C23.18671808332958 17.32403218611259 23.338560103457183 18.653218618082313 23.46484375 19.984375 C23.54283203125 20.755234375 23.6208203125 21.52609375 23.701171875 22.3203125 C23.857181966500818 23.92425096138031 24.010875341132646 25.528416662450752 24.162109375 27.1328125 C24.537279057412235 30.805205163612413 25.027333944158443 34.09521154526567 26.05078125 37.66015625 C27.043169000321313 41.151890927056485 27.26713859862366 44.06697104075211 27.25 47.6875 C27.257734375 49.332988281249996 27.257734375 49.332988281249996 27.265625 51.01171875 C27.009265165082923 53.89576689281708 26.4967211699187 55.55891904429926 25 58 C23.664122221343803 55.328244442687605 24.116982044384898 53.47493987367295 24.3125 50.5 C24.34549289509431 43.62098137283748 22.483935605037374 39.18657293696076 18 34 C10.774817077929072 27.490454243543724 2.341889605082912 24.597788105651844 -7.3125 25.0625 C-18.811985036508112 26.337207067726133 -29.45465188177897 29.241606980918128 -37 38.4375 C-38.407336028146744 42.04379857212602 -38.57136418962213 44.12742049256113 -38 48 C-32.678802651189486 60.10426210114041 -23.65709388591263 65.69602228190975 -12 71 C-14.758740348948159 73.75874034894815 -16.466764711647194 73.29943408169302 -20.3125 73.3125 C-21.4430078125 73.3292578125 -22.573515625 73.346015625 -23.73828125 73.36328125 C-28.842803178793005 72.79475365793084 -31.116039995571192 71.01144076576482 -34.46484375 67.1796875 C-35.298972228614595 66.0856097283485 -36.12287469216219 64.98367583047884 -36.9375 63.875 C-37.58609985351563 63.00766235351563 -37.58609985351563 63.00766235351563 -38.247802734375 62.122802734375 C-39.510085478104486 60.423331085942635 -40.756886337303754 58.713522678977085 -42 57 C-42.9629296875 55.69095703125001 -42.9629296875 55.69095703125001 -43.9453125 54.35546875 C-49.11177928396732 47.03006777852943 -49.11177928396732 47.03006777852943 -49 42 C-46.283071591824665 33.849214775474 -39.06053394600516 27.719808629776274 -32.5 22.5625 C-27.81097232474935 18.865756189636414 -24.36512860695666 14.898142991244313 -20.76953125 10.16015625 C-18.51458170269123 7.407425345669424 -16.08581903673946 5.744158585983172 -13 4 C-12.030625 3.2575000000000003 -11.061250000000001 2.5150000000000006 -10.0625 1.75 C-6.254663800174022 -0.42590639990055834 -4.355740515248726 -0.3882678533059831 0 0 Z " fill="#736086" transform="translate(69,25)"/>
<path d="M0 0 C0 15.510000000000005 0 31.02000000000001 0 47 C-9.900000000000006 47 -19.799999999999997 47 -30 47 C-30.989999999999995 45.02000000000001 -31.980000000000004 43.03999999999999 -33 41 C-34.28789038251168 39.198329148219585 -34.28789038251168 39.198329148219585 -35.625 37.75 C-38.72282711944774 34.163042282744726 -39.41291099406526 32.12059746476075 -39.34375 27.33984375 C-38.666237817530615 22.728141507964068 -36.28903823301056 18.990350433221096 -34 15 C-33.64679687500001 14.199492187499999 -33.29359375 13.398984374999998 -32.9296875 12.57421875 C-29.90075582006307 6.6066215660182905 -25.86997928682551 4.622642287551841 -19.8125 2.4375 C-19.118017578125006 2.185810546875004 -18.423535156249997 1.9341210937499937 -17.7080078125 1.6748046875 C-11.351217150109122 -0.3545795616325904 -7.184726157795723 0 0 0 Z " fill="#BEC0DC" transform="translate(128,81)"/>
<path d="M0 0 C11.879999999999995 0 23.760000000000005 0 36 0 C36 13.200000000000001 36 26.400000000000002 36 40 C26.301057512405606 41.939788497518876 18.489857864621342 40.956077311719184 9.75 36.25 C6.410199883974286 33.517436268706234 3.4681368056040185 30.553416819415713 1 27 C1 26.34 1 25.68 1 25 C0.3400000000000034 25 -0.3199999999999932 25 -1 25 C-5.948242059861457 17.449222323879226 -5.948242059861457 17.449222323879226 -6.125 12.5 C-5 9.000000000000002 -5 9.000000000000002 0 0 Z " fill="#B3C9DD" transform="translate(92,0)"/>
<path d="M0 0 C2.4100226150201394 2.6139073915619804 2.964295334196109 3.807194804658991 3.625 7.375 C2.86961346609111 11.756241896671554 1.7793878711719628 12.97795909662102 -1.6875 15.578125 C-9.576001047790612 20.428487130736116 -17.666057463935374 23.68092962216099 -27 22 C-33.77955642581588 19.772851941157455 -39.27341935424043 16.178999526608692 -43 10 C-44.19243736699399 6.492831273547068 -44.32964457663 4.901028509455344 -43.0625 1.4375 C-39.23757986959597 -3.0828601541138596 -34.658015402763496 -6.024443074118366 -28.75 -6.9375 C-18.80950568167519 -7.500169489716498 -8.641621788461947 -4.895566646984705 0 0 Z " fill="#171C46" transform="translate(80,65)"/>
<path d="M0 0 C0.7837499999999977 0.2681249999999977 1.5674999999999955 0.5362500000000026 2.375 0.8125 C4.169375000000002 1.4003124999999983 4.169375000000002 1.4003124999999983 6 2 C6.715429687500006 2.2642578124999986 7.430859374999997 2.528515624999997 8.16796875 2.80078125 C15.817058992144268 5.433665493217681 20.12204731042165 5 29 5 C29 18.53 29 32.06 29 46 C23.555000000000007 46.495000000000005 23.555000000000007 46.495000000000005 18 47 C15.213711444943016 47.79753382523964 12.623511362731662 48.599073309512775 9.9375 49.625 C7.633362868635373 50.48533322879156 5.351534087645959 51.268675871604415 3 52 C2.3400000000000034 51.67 1.6800000000000068 51.34 1 51 C1.5310937499999966 50.3709375 2.062187499999993 49.74187499999999 2.609375 49.09375 C10.132355608244268 40.37145214250779 10.132355608244268 40.37145214250779 13.1875 29.625 C11.773700784801946 25.3091918693954 9.604611347418668 22.32418826616818 6.92578125 18.69140625 C4.949950040680193 15.930051882411064 3.191671107441607 13.131086962129068 1.5 10.1875 C0.9946874999999977 9.3148046875 0.48937499999999545 8.442109375000001 -0.03125 7.54296875 C-1.166311640398078 4.5634319439550595 -0.9080901280085811 3.0107511982189337 0 0 Z " fill="#BEA9B8" transform="translate(99,35)"/>
<path d="M0 0 C6.395677335397863 0.08378616596590405 10.282157833486579 0.9460275371436779 14.9375 5.375 C19.126413765063635 9.929790368429266 23.055200599641847 14.3894870919828 24.9375 20.375 C23.950863313111228 24.86967824027107 21.71108868430952 26.887862003523267 17.9375 29.375 C10.09578867684792 33.022307592163756 1.241618311705384 31.36123463343884 -7.0625 30.375 C-7.0871574558371755 26.263274402782343 -7.105339585862497 22.151577223316522 -7.117431640625 18.039794921875 C-7.122470795584616 16.640047716802258 -7.1293021647065515 15.240305798781733 -7.137939453125 13.840576171875 C-7.150023197179414 11.832542233420838 -7.155198066851633 9.82447042508852 -7.16015625 7.81640625 C-7.16539306640625 6.606701660156247 -7.1706298828125 5.396997070312494 -7.176025390625 4.150634765625 C-6.972167284067145 -0.833586338582009 -4.457350645466848 0.133055243148263 0 0 Z " fill="#E0D2E7" transform="translate(7.0625,79.625)"/>
<path d="M0 0 C1.5820605692049128 0.006675361051497505 3.1641053379603363 0.01863749549677457 4.74609375 0.03515625 C5.552402343750003 0.03966796875 6.3587109375 0.0441796875 7.189453125 0.048828125 C9.187531312192299 0.060651072853208865 11.18557157992565 0.07858710945846327 13.18359375 0.09765625 C12.86079260375363 6.661279557009454 11.389033308980522 11.206153849113374 8.49609375 17.07421875 C7.054395899960198 20.39527272598454 6.225225070182162 23.644490726750195 5.37109375 27.16015625 C2.9223812133028844 36.22835592858159 -2.2484104129606592 42.62595972932367 -9.81640625 48.09765625 C-13.981220283095908 49.769892187530935 -18.339059748889294 50.37749040631942 -22.81640625 50.09765625 C-22.22317780504228 46.967864799016155 -21.29629120499242 45.205966755236254 -19.25390625 42.78515625 C-14.55490683051913 36.735478253421974 -11.232768171666557 29.92283845553694 -7.81640625 23.09765625 C-7.4283984375 22.3538671875 -7.040390625000001 21.610078125 -6.640625 20.84375 C-4.168605443770076 15.419365855286951 -4.621989270469342 9.842163306580403 -4.80859375 3.9765625 C-4.811171874999999 3.0265234375 -4.813749999999999 2.0764843749999997 -4.81640625 1.09765625 C-3.81640625 0.09765625000000011 -3.81640625 0.09765625000000011 0 0 Z " fill="#C9AAA6" transform="translate(46.81640625,-0.09765625)"/>
<path d="M0 0 C1.576955027315357 4.730865081946078 -0.21020052140404744 8.47633098816408 -2 13 C-5.193280506278569 19.386561012557145 -8.912545615669316 22.90869157521692 -14.94140625 26.609375 C-17.9537556942623 28.644282783979847 -19.46374409336626 30.727106981519427 -21 34 C-22.14012885899795 39.92867006678935 -19.979345380856607 43.729376857289864 -16.8203125 48.578125 C-11.051782413065212 56.252993356007664 -3.618836082690663 60.07842958237575 5 64 C2.2412596510518554 66.75874034894815 0.5332352883527989 66.29943408169302 -3.3125 66.3125 C-4.443007812499999 66.3292578125 -5.573515624999999 66.346015625 -6.73828125 66.36328125 C-11.842803178792991 65.79475365793084 -14.116039995571207 64.0114407657648 -17.46484375 60.1796875 C-18.298972228614595 59.0856097283485 -19.122874692162192 57.98367583047886 -19.9375 56.875 C-20.586099853515627 56.00766235351563 -20.586099853515627 56.00766235351563 -21.247802734375 55.122802734375 C-22.510085478104493 53.423331085942635 -23.756886337303754 51.713522678977085 -25 50 C-25.9629296875 48.69095703125001 -25.9629296875 48.69095703125001 -26.9453125 47.35546875 C-32.11177928396732 40.03006777852943 -32.11177928396732 40.03006777852943 -32 35 C-29.283071591824665 26.849214775473996 -22.06053394600516 20.71980862977628 -15.5 15.5625 C-10.757733674617967 11.822771200985244 -7.151144252414028 7.808610136308289 -3.55859375 2.96875 C-2 1 -2 1 0 0 Z " fill="#7D7088" transform="translate(52,32)"/>
<path d="M0 0 C4.2028089858925455 0.5657627481009158 6.768969420114544 0.9714229635986271 9.71484375 4.2109375 C12.016927578954721 7.415662100794101 13.764219503966217 10.924964404553421 15.578125 14.421875 C16.97338737977033 17.148815468342924 16.97338737977033 17.148815468342924 19.3125 19.75 C21.690286325819002 22.92038176775867 22 25.046925199923493 22 29 C19.91845579054734 35.98700154221868 14.608365714551852 41.541547406064794 10 47 C7.979545575313296 46.39816251179545 5.978889607196919 45.726939039378465 4 45 C3.6700000000000017 44.34 3.3400000000000034 43.68000000000001 3 43 C3.3299999999999983 42.00999999999999 3.6599999999999966 41.02000000000001 4 40 C4.6283466833599505 31.819409526256067 3.6264054525384353 24.46639553188303 1.734375 16.5234375 C0.5948726811410268 11.056250842495807 0.268272537420728 5.568967845768107 0 0 Z " fill="#9D818E" transform="translate(91,39)"/>
<path d="M0 0 C8.58 0 17.16 0 26 0 C22.002459159913023 9.327595293536282 14.765343738639713 18.4559624709184 6 24 C4.02 24.33 2.04 24.66 0 25 C0 16.75 0 8.5 0 0 Z " fill="#B5BAB4" transform="translate(0,0)"/>
<path d="M0 0 C1.1756250000000001 0.1443749999999966 2.3512500000000003 0.2887500000000003 3.5625 0.4375 C4.297265625 0.525156250000002 5.03203125 0.6128124999999969 5.7890625 0.703125 C7.683253157718474 0.957468621884459 9.56342357983037 1.3126847159660713 11.4375 1.6875 C15.938501599379052 2.0823247016999176 19.67782659019688 1.1859024548439407 24 0 C24 1.3200000000000003 24 2.6400000000000006 24 4 C16.323616486888252 8.094071206992936 8.413305165158175 7.819093008682849 0 6 C0 4.019999999999996 0 2.039999999999999 0 0 Z " fill="#B5BAB4" transform="translate(0,47)"/>
</svg>
