<?xml version="1.0" encoding="UTF-8"?>
<!-- Generator: visioncortex VTracer 0.6.0 -->
<svg version="1.1" xmlns="http://www.w3.org/2000/svg" width="128" height="128">
<path d="M0 0 C42.24 0 84.48 0 128 0 C128 42.24 128 84.48 128 128 C85.75999999999999 128 43.519999999999996 128 0 128 C0 85.75999999999999 0 43.519999999999996 0 0 Z " fill="#656B9B" transform="translate(0,0)"/>
<path d="M0 0 C12.540000000000001 0 25.080000000000002 0 38 0 C38 13.291390728476818 38 13.291390728476818 35.875 18.625 C33.762121894841066 24.852038640908553 34.09930775834923 28.827549942517955 36 35 C38.54492426647622 43.31341927048899 38.407717163015846 51.538513786539134 38.56640625 60.177734375 C38.72040646617894 66.20048195991137 39.13686693664067 71.28541005072397 41 77 C41.15551420381388 78.97579521238944 41.26197117617088 80.95623822354256 41.3125 82.9375 C41.65645033924225 88.0266911306399 42.73888300549007 91.18785268807005 45.74609375 95.28125 C48.29583888620525 98.77622775679225 49.34269416335269 102.03345146441387 50.0703125 106.28125 C50.2443359375 107.2880078125 50.418359375 108.294765625 50.59765625 109.33203125 C50.7716796875 110.3774609375 50.945703125 111.422890625 51.125 112.5 C51.3067578125 113.5454296875 51.488515625 114.590859375 51.67578125 115.66796875 C52.390307360657154 119.86379500882131 53 123.73154016012053 53 128 C35.51 128 18.019999999999996 128 0 128 C0 85.75999999999999 0 43.519999999999996 0 0 Z " fill="#6F3C4C" transform="translate(0,0)"/>
<path d="M0 0 C5.6937799780222775 5.637848936980802 10.567098067086533 11.974594596111785 11.98828125 19.96875 C12.58640625000001 19.63875 13.184531249999992 19.308750000000003 13.80078125 18.96875 C15.98828125 17.96875 15.98828125 17.96875 18.98828125 17.96875 C20.308281249999993 20.278750000000002 21.62828125 22.588750000000005 22.98828125 24.96875 C28.37592986011653 24.692460327686334 31.47568502000837 22.48548918781978 35.64453125 19.34375 C37.98828125 17.96875 37.98828125 17.96875 43.98828125 16.96875 C43.98828125 29.508749999999992 43.98828125 42.04875 43.98828125 54.96875 C19.23828125 54.96875 -5.51171875 54.96875 -31.01171875 54.96875 C-36.01171875 27.96875 -36.01171875 27.96875 -35.01171875 24.96875 C-34.35171875 24.96875 -33.69171875 24.96875 -33.01171875 24.96875 C-30.239146866494025 19.62164708180991 -28.77802178806474 15.058189776098232 -28.13671875 9.03125 C-26.83138867199886 -0.41261533705370823 -26.83138867199886 -0.41261533705370823 -23.01171875 -4.03125 C-14.553119472065049 -7.472036146956597 -7.006132859299953 -5.728461335860487 0 0 Z " fill="#896C9B" transform="translate(84.01171875,73.03125)"/>
<path d="M0 0 C9.900000000000006 0 19.799999999999997 0 30 0 C30 29.700000000000003 30 59.400000000000006 30 90 C27.03 91.32 24.060000000000002 92.64 21 94 C18.8934993232357 95.3048228714352 16.92239380150123 96.68688827711128 14.921875 98.14453125 C12.1978073015987 99.35707357916644 10.763207796572686 99.04120873494044 8 98 C6.55859375 96.06640625 6.55859375 96.06640625 5.4375 93.5625 C5.023710937499999 92.6537109375 4.609921874999998 91.744921875 4.18359375 90.80859375 C2.7597583689871072 87.42992167426313 1.357117344622253 84.04887847454908 0.03515625 80.62890625 C-1.1007811934114926 77.74405379937384 -2.3323544886140155 74.90835901887803 -3.5625 72.0625 C-8.28487548009511 60.71119993293909 -8.28487548009511 60.71119993293909 -9 55 C-6.831361311806475 51.74704196770972 -6.044075652185896 51.37204951810281 -2.5625 50 C0.5748133986941326 48.75954659689194 2.9974140152696833 47.785931921974985 5 45 C6.291138361472832 36.683549965807345 4.525401622188539 28.653714442467138 1.1328125 21.05859375 C-1.5854217063486828 14.858430965042754 -1.4931201916305383 8.695054909445288 -1 2 C-0.6700000000000017 1.3399999999999999 -0.3400000000000034 0.6799999999999999 0 0 Z " fill="#454172" transform="translate(98,0)"/>
<path d="M0 0 C13.86 0 27.72 0 42 0 C42.99000000000001 4.62 43.97999999999999 9.24 45 14 C46.13910638370493 16.825381772682977 47.21232835759312 19.348247722092182 48.625 22 C51.230271624439965 27.02752830005563 53.65683370397937 31.715831480103137 52.5 37.5 C49.60667782091727 42.322203631804555 46.491282908698395 45.3234740106366 40.96484375 46.82421875 C37.639426599459 47.37262087658045 34.36003644691698 47.74341539859907 31 48 C29.698691406249992 48.106347656249994 29.698691406249992 48.106347656249994 28.37109375 48.21484375 C23.48808503570862 48.421400802211984 20.03998055989409 47.986072587747806 16 45 C11.652308618970622 39.9510680736433 8.575269105643358 34.833443551662015 6.75 28.43359375 C5.50632158548958 24.39811639458338 3.7569793947479084 20.57299768782469 2.0859375 16.69921875 C-0.35964442802909957 10.620452159107527 0 7.124483501355185 0 0 Z " fill="#658BCF" transform="translate(38,0)"/>
<path d="M0 0 C6.329795727878917 4.315769814462897 7.375779203887092 12.742625671269934 8.75 19.875 C9.162262800406431 24.479429108153766 9.258376731253932 29.066403768490808 9.3125 33.6875 C9.451799174108338 43.95500377648261 9.451799174108338 43.95500377648261 11.75 53.875 C12.059422864434488 55.80390221135369 12.31504123562734 57.74271299225808 12.5 59.6875 C12.59796875 60.6220703125 12.6959375 61.556640625 12.796875 62.51953125 C12.75 64.87499999999999 12.75 64.87499999999999 10.75 66.875 C4.689245752354225 67.60229050971749 0.8384146346852752 65.83553215108961 -4.25 62.875 C-4.25 62.215 -4.25 61.55500000000001 -4.25 60.875 C-4.91 60.875 -5.57 60.875 -6.25 60.875 C-11.203600871112165 55.39773275108455 -13.357137969152117 49.076356760281186 -15.3125 42.0859375 C-16.172005175001523 39.14213227561979 -17.192330131228992 36.38873314228366 -18.375 33.5625 C-21.70076149674282 25.457593045339344 -23.833366161596018 17.79176860706132 -21.0625 9.1875 C-16.269802127620746 0.4284314746172271 -9.768162253820883 -3.38128693401492 0 0 Z " fill="#4C315D" transform="translate(29.25,23.125)"/>
<path d="M0 0 C7.340045281339215 6.2914673840050455 8.827479599752763 14.59689742463867 10.25 23.75 C10.422734374999997 24.777382812500008 10.595468750000002 25.804765625 10.7734375 26.86328125 C11.451230965624042 30.989214489155884 12 34.80731796794812 12 39 C-5.490000000000002 39 -22.980000000000004 39 -41 39 C-41 28.769999999999996 -41 18.539999999999992 -41 8 C-34.415844222630426 9.31683115547392 -29.437498142320234 12.03773703376558 -23.8125 15.625 C-19.498683402268444 18.34421513164402 -16.62039488112422 20.055875685556003 -11.375 19.875 C-7.429223145619588 18.852020815531006 -7.034409547930373 18.3925006402485 -5 15 C-4.0245323485433175 12.417071570790753 -3.1350016358331985 9.879023355623943 -2.3125 7.25 C-2.0875585937500034 6.5526171875000045 -1.8626171874999997 5.855234374999995 -1.630859375 5.13671875 C-1.0803663415041669 3.4266765608427363 -0.5392376267539518 1.713624711107414 0 0 Z " fill="#7F505B" transform="translate(41,89)"/>
<path d="M0 0 C5.371381885021066 5.350317642334716 10.75545237583637 11.644231057000155 11.1796875 19.421875 C10.937040118472098 24.032175249030118 10.169738754589645 25.73085269672714 7.0546875 29.046875 C0.4719306527116487 33.21147627073344 -7.306960912062152 34.7296187020585 -15.0078125 33.984375 C-18.096181269165896 33.184066813970304 -21.056280861374674 32.19383721282014 -24.0078125 30.984375 C-24.71421875 30.723984375 -25.420625 30.46359375 -26.1484375 30.1953125 C-28.73425901270643 28.511269077859254 -29.089999253915806 26.89839314394115 -30.0078125 23.984375 C-30.030206824134964 20.2976190895874 -29.410095530636852 16.692318134539306 -28.8828125 13.046875 C-28.764218749999998 12.070410156250006 -28.645625000000003 11.093945312499997 -28.5234375 10.087890625 C-27.73507843548738 4.387745428156322 -26.84958222532903 0.35163633286016704 -23.0078125 -4.015625 C-14.542005731479847 -7.459343007533619 -7.0270095947951745 -5.7006262576249895 0 0 Z " fill="#A38B9A" transform="translate(84.0078125,73.015625)"/>
<path d="M0 0 C0.90380859375 1.698974609374993 0.90380859375 1.698974609374993 1.6484375 3.90234375 C1.9292919921875011 4.705832519531249 2.2101464843750023 5.509321289062498 2.49951171875 6.337158203125 C2.788422851562501 7.195270996093754 3.0773339843750023 8.0533837890625 3.375 8.9375 C5.282823916701034 14.391685599181159 7.165277537184323 19.692384881307603 9.875 24.8125 C11.65785499751631 28.21828612482352 13.093866852023723 31.057592215003524 13 35 C11.0625 37.375 11.0625 37.375 9 39 C8.009999999999991 38.67 7.02000000000001 38.34 6 38 C5.3671875 36.320312500000014 5.3671875 36.320312500000014 4.875 34.125 C2.7259421427771002 26.99195689943039 -2.397255018811535 20.476190048990205 -8.5234375 16.265625 C-14.022533794844875 13.455361278344256 -18.921710252919652 12.342543778642863 -24.9375 14.125 C-27.375076535314804 14.959020895680908 -28.6391021438753 15.507537373582352 -30.16796875 17.59375 C-31.621890706433106 21.798519601703248 -32.08453462008697 26.230024886796087 -32.6796875 30.625 C-33.46895327262084 35.7014139466295 -34.714173557595096 39.00372459707512 -38 43 C-38.66 43 -39.32 43 -40 43 C-40.33 43.66 -40.66 44.31999999999999 -41 45 C-41.98280415307444 43.398059285661546 -42.96111717188355 41.79336258083153 -43.9375 40.1875 C-44.4827734375 39.29417968749999 -45.028046875 38.40085937500001 -45.58984375 37.48046875 C-48.49222558402892 32.37517106410425 -49.14200452662349 26.81383238411445 -49 21 C-47.25 17.6875 -47.25 17.6875 -45 15 C-44.525625 13.989374999999995 -44.051249999999996 12.978750000000005 -43.5625 11.9375 C-40.80340823490863 6.75040748162823 -37.539534489417186 3.8073282286427386 -32 2 C-28.766548789330074 1.3365760740187227 -25.516015798205515 0.8484756630534633 -22.25 0.375 C-21.394062500000004 0.24093750000000114 -20.538125000000008 0.10687500000000227 -19.65625 -0.03125 C-6.122444968553452 -2.04081498951782 -6.122444968553452 -2.04081498951782 0 0 Z " fill="#726B85" transform="translate(89,55)"/>
<path d="M0 0 C0 20.46 0 40.92 0 62 C-5.497841266639568 63.37446031665989 -9.921825050314737 63.71936825181413 -15.25 61.875 C-19.361187039800868 59.07191792740849 -21.413257839287454 56.40753557556887 -22.60546875 51.515625 C-23.492335223299236 45.29877883073403 -22.708591100445332 40.93614502820388 -20.0078125 35.2890625 C-17.45864234264836 29.499086871286593 -17.96344104073691 23.600755258387437 -18.21484375 17.4140625 C-18.31802673680606 12.16111044441838 -17.452968695216015 8.66893558413096 -15 4 C-10.219590335068318 -0.4816340608734535 -6.797669450351478 0 0 0 Z " fill="#1E1760" transform="translate(128,12)"/>
<path d="M0 0 C12.540000000000001 0 25.080000000000002 0 38 0 C38 13.499999999999995 38 13.499999999999995 36 19.25 C35.62875 20.34828125 35.2575 21.4465625 34.875 22.578125 C34.58625 23.37734375 34.2975 24.1765625 34 25 C31 25 31 25 28.75 24 C25.2369896578177 22.72254169375189 22.719952414079835 22.608426061675807 19 23 C15.726894470739477 24.903569869233728 15.726894470739477 24.903569869233728 13 27 C12.34 27 11.68 27 11 27 C7.215791739225469 36.730821241991656 7.769430836936847 43.96243876621581 10 54 C6.699999999999999 54 3.3999999999999995 54 0 54 C0 36.18 0 18.36 0 0 Z " fill="#7E4D71" transform="translate(0,0)"/>
<path d="M0 0 C0.3299999999999983 0 0.6599999999999966 0 1 0 C0.958750000000002 0.9074999999999989 0.917500000000004 1.8149999999999977 0.875 2.75 C0.956818804929398 6.765368376898692 0.956818804929398 6.765368376898692 3 10 C11.533373440519398 13.972432463690069 20.88417324069684 15.395288141418973 29.984375 12.33203125 C31.68371237827553 11.616711883503683 33.34445495190127 10.811541690244468 35 10 C35.763125 9.752499999999998 36.526250000000005 9.504999999999995 37.3125 9.25 C40.10233400176256 7.183456294990691 40.275848036858974 4.258683834134644 41 1 C41.76353274831453 3.2504450755458976 42.140319385965824 4.557932875212515 41.410888671875 6.85595703125 C41.08322509765625 7.483569335937503 40.75556152343751 8.111181640625006 40.41796875 8.7578125 C40.06355712890624 9.461398925781253 39.70914550781251 10.164985351562507 39.343994140625 10.889892578125 C38.96235107421876 11.627478027343756 38.58070800781249 12.365063476562497 38.1875 13.125 C35.07901876469984 19.390605370959776 32.89492476950889 25.0195867978306 32 32 C31.67 33.31999999999999 31.340000000000003 34.64 31 36 C20.439999999999998 36 9.879999999999995 36 -1 36 C-1.8456249999999983 31.606875000000002 -2.6912499999999966 27.213750000000005 -3.5625 22.6875 C-3.8326391601562477 21.30522216796875 -4.102778320312503 19.9229443359375 -4.381103515625 18.498779296875 C-4.586628417968747 17.409924316406247 -4.792153320312501 16.321069335937494 -5.00390625 15.19921875 C-5.218615722656253 14.083776855468756 -5.433325195312499 12.968334960937497 -5.654541015625 11.819091796875 C-6 9 -6 9 -5 6 C-4.340000000000003 6 -3.6799999999999997 6 -3 6 C-2.690624999999997 5.381249999999994 -2.3812500000000014 4.762500000000003 -2.0625 4.125 C-1.375 2.75 -0.6875 1.375 0 0 Z " fill="#8B7C9D" transform="translate(54,92)"/>
<path d="M0 0 C12.870000000000005 0 25.740000000000002 0 39 0 C34.97450496948278 13.082858849180992 32.28412396972524 20.883885784857956 21 28 C17.32534505260722 29.83732747369639 13.313122175852598 29.36831475664158 9.4375 28.28125 C4.237037807940439 25.547673719558436 2.6542268921869123 18.74460504583176 0.6875 13.5 C0 10 0 10 0 0 Z " fill="#A4AEE5" transform="translate(38,0)"/>
<path d="M0 0 C5.939999999999998 0 11.879999999999995 0 18 0 C17.896874999999994 2.206875 17.793750000000003 4.41375 17.6875 6.6875 C17.53967143173952 13.548706558497617 18.98934066694079 18.88211328836313 21.80859375 25.1953125 C23.76216815759443 29.794218810337053 24.19309354828279 34.09142087850964 24.3125 39.0625 C24.3498828125 40.0847265625 24.387265624999998 41.106953125 24.42578125 42.16015625 C23.89130039069255 45.72499647675701 22.76748762212678 46.772022600237285 20 49 C16.87761526947031 50.92657781245449 15.005651339081155 52.070161721331246 11.3125 51.8125 C9 51 9 51 6 49 C6 48.34 6 47.68 6 47 C5.010000000000005 47 4.019999999999996 47 3 47 C4.0821033888588545 44.47509209266267 5.037748138626654 42.964539627350725 7.0625 41.0625 C9.375051961796288 38.60075113744267 9.615882113678168 37.31605567685432 10 34 C9.114591074264226 28.624302950889973 6.954901930562656 23.733262728252882 4.4375 18.9375 C1.15156946064063 12.642765593275413 0 7.080125461584871 0 0 Z " fill="#6564A7" transform="translate(80,0)"/>
<path d="M0 0 C9.900000000000006 0 19.799999999999997 0 30 0 C30 3.96 30 7.92 30 12 C28.288125000000008 12.226875 26.57625 12.45375 24.8125 12.6875 C19.776266159752026 13.60141116019944 17.0741190100928 14.696233385870087 14 19 C12.513822059017542 22.929082931472383 13.014716298251713 27.062620569975824 13.125 31.1875 C13.218443443795152 37.754342613573876 12.768470169166804 42.93066155221125 10 49 C9.340000000000003 49.66 8.680000000000007 50.32 8 51 C5.291282952023835 46.936924428035745 4.848708088384299 44.141771808907635 5 39.25 C5.172397505637335 32.6168007354778 3.8328621549316324 27.103299509013617 1.1328125 21.05859375 C-1.5854217063486828 14.858430965042754 -1.4931201916305241 8.695054909445288 -1 2 C-0.6700000000000017 1.3399999999999999 -0.3400000000000034 0.6799999999999999 0 0 Z " fill="#483078" transform="translate(98,0)"/>
<path d="M0 0 C8.957046808263362 1.7914093616526685 15.685523074455286 10.910495105442465 20.8515625 18.2265625 C23.862787146489875 22.87654885886532 25 25.35645012898766 25 31 C16.75 31 8.5 31 0 31 C0 20.769999999999996 0 10.539999999999992 0 0 Z " fill="#AE8081" transform="translate(0,97)"/>
</svg>
