<?xml version="1.0" encoding="UTF-8"?>
<!-- Generator: visioncortex VTracer 0.6.0 -->
<svg version="1.1" xmlns="http://www.w3.org/2000/svg" width="128" height="128">
<path d="M0 0 C42.24 0 84.48 0 128 0 C128 42.24 128 84.48 128 128 C85.75999999999999 128 43.519999999999996 128 0 128 C0 85.75999999999999 0 43.519999999999996 0 0 Z " fill="#6BA4B9" transform="translate(0,0)"/>
<path d="M0 0 C14.850000000000001 0 29.700000000000003 0 45 0 C43.93333333333334 9.599999999999989 43.93333333333334 9.599999999999989 41 14 C40.566875 15.2375 40.13375 16.475 39.6875 17.75 C38.52521311369175 21.027772012710575 37.006016511446624 23.599358120842183 35 26.4375 C32.842132768381795 29.497556220876675 31.537950365515883 32.0765160382145 30.5625 35.6875 C29.309038163488687 40.02931057827714 27.283783625469674 41.96355721580177 23.62109375 44.515625 C21.37249826600012 46.57457990101194 20.71757035797259 48.02249541117121 20 51 C20.42356022380119 53.76034485987442 20.937687677756212 56.20955420331943 21.6875 58.875 C21.86216796875 59.5569140625 22.0368359375 60.238828125 22.216796875 60.94140625 C23.1207711384394 64.34345992961066 24.1824454824096 67.54565176700474 25.6171875 70.76171875 C27.568649333132903 75.33166750612197 28.00134198267052 79.36570032251294 26.23828125 84.00390625 C25.226143358086876 86.04818475896286 24.138303196019233 88.02335188258823 23 90 C19.160658905909173 96.5840631362249 19.160658905909173 96.5840631362249 19 104 C22.053230267014445 108.19819161714486 25.0653581620402 109.80057163240804 30.0078125 110.7890625 C34.468407102595634 111.26136075203954 37.30851264999004 110.4609915666733 41 108 C46.410585059023276 108.20417302109522 49.79058079301224 109.61193088218059 54 113 C54 113.66 54 114.32 54 115 C54.57234375 115.265546875 55.1446875 115.53109375 55.734375 115.8046875 C58.107601196335075 117.05676890703195 60.12213286313021 118.49363519506649 62.25 120.125 C62.95640625 120.663828125 63.6628125 121.20265625 64.390625 121.7578125 C64.92171875 122.167734375 65.4528125 122.57765625 66 123 C71.78659993224086 120.92555851485704 75.174837745643 118.2989307202415 79.3125 113.8125 C81.17358028714541 111.8278055240405 83.05408570073266 109.90457469351661 85 108 C85.66 108 86.32 108 87 108 C89.13680896102831 104.01128993941383 90.25513892283577 101.4174384601987 89.4375 96.875 C89.293125 95.92625 89.14875 94.9775 89 94 C89.66 93.34 90.32 92.68 91 92 C91.533671875 92.580078125 92.06734375 93.16015625 92.6171875 93.7578125 C102.9471770423034 104.58821676061568 113.61193855584564 109.03103494009513 128 112 C128 117.28 128 122.56 128 128 C85.75999999999999 128 43.519999999999996 128 0 128 C0 85.75999999999999 0 43.519999999999996 0 0 Z " fill="#91AE9F" transform="translate(0,0)"/>
<path d="M0 0 C2.6875 1.6875 2.6875 1.6875 3.6875 4.6875 C5.687664662711171 5.896320963929078 5.687664662711171 5.896320963929078 7.6875 6.6875 C7.6875 7.347499999999997 7.6875 8.0075 7.6875 8.6875 C11.520359250504882 9.026435813308993 15.353850905827507 9.357627868640975 19.1875 9.6875 C20.26515624999999 9.782890625 21.342812500000008 9.87828125 22.453125 9.9765625 C27.061964658320875 10.370000031807876 31.622103032263524 10.747388874609712 36.25 10.69140625 C41.668788855588176 10.68524853539138 44.88178208820348 12.042290347029834 48.796875 15.609375 C53.226196142115626 20.29734263216617 56.093488098100195 24.417719852527455 57.6875 30.6875 C57.28791884128691 34.57942048586543 55.15979688453254 36.9568470722961 52.75 39.9375 C52.03972656249999 40.82953125 51.329453125 41.721562500000005 50.59765625 42.640625 C49.967304687500004 43.31609374999999 49.336953124999994 43.9915625 48.6875 44.6875 C48.0275 44.6875 47.36750000000001 44.6875 46.6875 44.6875 C43.706618832504276 50.25181151265869 41.78086929010543 57.14339813404847 43.375 63.375 C43.6875 65.6875 43.6875 65.6875 42.25 68.0625 C39.53012388408308 70.84871455776855 36.68279698606945 73.38459808647823 33.71875 75.90625 C31.819202481023382 77.57200705510257 30.063390967153282 79.30544664197795 28.3125 81.125 C25.6875 83.6875 25.6875 83.6875 23.6875 83.6875 C23.3575 84.3475 23.027500000000003 85.0075 22.6875 85.6875 C20.875 86.484375 20.875 86.484375 18.6875 86.6875 C16.687500000000014 85.578125 16.687500000000014 85.578125 14.6875 83.9375 C13.697500000000005 83.140859375 13.697500000000005 83.140859375 12.6875 82.328125 C12.027500000000003 81.78671875 11.3675 81.2453125 10.6875 80.6875 C9.945 80.16671875 9.2025 79.6459375 8.4375 79.109375 C7.859999999999999 78.64015625 7.282499999999999 78.1709375 6.6875 77.6875 C6.6875 77.0275 6.6875 76.3675 6.6875 75.6875 C6.109999999999999 75.39875 5.532499999999999 75.11 4.9375 74.8125 C2.6875000000000213 73.68750000000001 2.6875000000000213 73.68750000000001 0.875 72.5 C-2.4097795348809044 71.27993902990139 -4.942996033716888 71.9523354982655 -8.3125 72.6875 C-9.7975 73.6775 -9.7975 73.6775 -11.3125 74.6875 C-17.572091474363393 75.01071470607728 -22.475773501287033 73.79871752390602 -27.3125 69.6875 C-29.623451932292188 66.22107210156172 -29.53241838560623 64.36162871042744 -29 60.30859375 C-27.694056343611663 55.329683560019475 -24.947585329285033 51.066832152362906 -22.3125 46.6875 C-20.10652874361965 42.2755574872393 -20.906758600093518 37.9486290526944 -22.359375 33.43359375 C-22.79765625 32.25925781250001 -23.2359375 31.084921874999992 -23.6875 29.875 C-28.706326852594827 16.258704539047088 -28.706326852594827 16.258704539047088 -28.3125 11.6875 C-25.326833793252547 5.770783431750473 -20.758161365116603 2.506631207713781 -14.6875 0.125 C-9.199374930237951 -1.5252224347698302 -5.429733944182246 -2.1514040156193843 0 0 Z " fill="#4A8A8C" transform="translate(47.3125,37.3125)"/>
<path d="M0 0 C21.120000000000005 0 42.24000000000001 0 64 0 C64 17.82 64 35.64 64 54 C56 54 56 54 53.3125 52 C47.75871076123886 44.79508423079635 44.754772407431616 37.997539151142185 42.328125 29.271484375 C40.89624549693404 24.511920419497848 40.89624549693404 24.511920419497848 37.5234375 20.94921875 C33.95336676155888 19.6062974041158 31.68595047589713 20.11028781616276 28 21 C26.845 21.53625 25.689999999999998 22.0725 24.5 22.625 C20.22415265354762 24.304797171820578 18.358478279296634 24.478769416189927 14 23 C7.779757229443277 17.89051486704269 3.480624914406789 10.141099748402997 0 3 C0 2.01 0 1.02 0 0 Z " fill="#8CB8CA" transform="translate(64,0)"/>
<path d="M0 0 C1.454062499999992 1.2684375000000045 1.454062499999992 1.2684375000000045 2.9375 2.5625 C4.288361925072735 3.7122275539351364 5.642804277252139 4.857756086011477 7 6 C8.065410156249996 6.899121093749997 8.065410156249996 6.899121093749997 9.15234375 7.81640625 C18.142037397951228 15.131394227155397 26.7137564156874 17.623948719092084 38 20 C38 25.28 38 30.560000000000002 38 36 C9.289999999999992 36 -19.42 36 -49 36 C-53 23 -53 23 -54 19 C-50.97449221595679 16.707948648452117 -49.410758897072405 15.992531656416872 -45.5625 16.0625 C-41.66205271886684 17.088933495035036 -39.132844206736834 18.478442467748394 -36 21 C-36 21.659999999999997 -36 22.319999999999993 -36 23 C-35.42765625 23.265546875 -34.8553125 23.531093749999997 -34.265625 23.8046875 C-31.892398803664904 25.056768907031966 -29.877867136869803 26.49363519506649 -27.75 28.125 C-27.04359375 28.663828124999995 -26.3371875 29.202656250000004 -25.609375 29.7578125 C-25.078281250000003 30.167734374999995 -24.547187500000007 30.577656250000004 -24 31 C-18.213400067759125 28.925558514857045 -14.825162254356997 26.2989307202415 -10.6875 21.8125 C-8.826419712854602 19.827805524040514 -6.9459142992673435 17.904574693516594 -5 16 C-4.340000000000003 16 -3.680000000000007 16 -3 16 C-0.20734812398482916 10.787049831438352 0.01607384740884754 7.842424622600902 -1 2 C-0.6700000000000017 1.3400000000000034 -0.3400000000000034 0.6800000000000068 0 0 Z " fill="#76B8B3" transform="translate(90,92)"/>
<path d="M0 0 C0 19.14 0 38.28 0 58 C-15.669586642004333 55.589294362768555 -23.954406304385998 52.00367493396082 -35 41 C-35.5775 40.4650390625 -36.155 39.930078124999994 -36.75 39.37890625 C-38 38 -38 38 -38.4375 35.625 C-37.86002410728241 32.16014464369451 -36.420518933640125 30.491710666982485 -34 28 C-33.34 28 -32.68000000000001 28 -32 28 C-31.615214843749996 27.131816406249996 -31.615214843749996 27.131816406249996 -31.22265625 26.24609375 C-29.885220396930407 23.789142901709226 -28.36261555168346 22.08873273217594 -26.4375 20.0625 C-22.090722974561857 15.304006389274463 -18.608418513456414 10.191946155367134 -15.078125 4.8203125 C-10.075168989440797 -1.9694135143303413 -9.57646373529542 -1.0640515261439347 0 0 Z " fill="#6F998E" transform="translate(128,54)"/>
<path d="M0 0 C0.7003637695312506 0.09289306640624773 1.4007275390625011 0.18578613281249545 2.122314453125 0.281494140625 C9.224422934817142 1.2939661198911239 16.304057595265874 2.840195147928682 22.125 7.25 C23.375 9.125000000000014 23.375 9.125000000000014 24.125 11.25 C24.413749999999993 12.054374999999993 24.7025 12.85875 25 13.6875 C25.125 16.25 25.125 16.25 23.6875 18.625 C20.967623884083068 21.41121455776856 18.120296986069476 23.947098086478206 15.15625 26.46875 C13.256702481023382 28.134507055102574 11.500890967153296 29.86794664197795 9.75 31.6875 C7.125 34.25 7.125 34.25 5.125 34.25 C4.795000000000002 34.91 4.465000000000003 35.56999999999999 4.125 36.25 C2.3125 37.046875 2.3125 37.046875 0.125 37.25 C-1.8749999999999858 36.140625 -1.8749999999999858 36.140625 -3.875 34.5 C-4.534999999999997 33.96890625 -5.195 33.43781250000001 -5.875 32.890625 C-6.865000000000002 32.078515624999994 -6.865000000000002 32.078515624999994 -7.875 31.25 C-8.6175 30.72921875 -9.36 30.208437500000002 -10.125 29.671875 C-10.7025 29.202656250000004 -11.280000000000001 28.733437500000008 -11.875 28.25 C-11.875 27.590000000000003 -11.875 26.930000000000007 -11.875 26.25 C-12.733515624999995 25.820742187500002 -12.733515624999995 25.820742187500002 -13.609375 25.3828125 C-17.031250000000014 23.671875 -20.453124999999993 21.9609375 -23.875 20.25 C-24.735364364505543 9.67707792063186 -24.735364364505543 9.67707792063186 -21.625 5.1875 C-15.961102740510377 -1.4414747254920428 -8.176061464522604 -1.127766579554077 0 0 Z " fill="#2C9ABA" transform="translate(65.875,86.75)"/>
<path d="M0 0 C3.7035277762535657 3.7742057872507786 5.0452122603484355 7.694746120855498 6.375 12.6875 C8.329850420443208 19.48714856216936 10.941642261504427 25.156440910260045 15 31 C15.659999999999997 31.990000000000002 16.319999999999993 32.98 17 34 C16.340000000000003 34.598125 15.680000000000007 35.19625 15 35.8125 C10.738329377607073 40.03732620779011 7.44874924793028 45.113558757895305 4 50 C2 48 2 48 0.8125 44.375 C-1.4987125681605278 37.99884070391897 -5.573247671296272 33.438075454046654 -11.375 30 C-15.007177496588398 28.998020000941132 -17.802524992773485 28.825258590816958 -21.5234375 28.953125 C-24.332350616278006 29.00629054794217 -27.074546422923632 28.846671787103674 -29.875 28.625 C-30.779921875 28.555390625 -31.68484375 28.485781250000002 -32.6171875 28.4140625 C-35 28 -35 28 -38 26 C-37.14728515625001 25.342578125000003 -37.14728515625001 25.342578125000003 -36.27734375 24.671875 C-30.525593925323847 19.947566295925434 -27.06664634531137 15.270330292141878 -23.703125 8.63671875 C-21.75417697494447 5.619425362586057 -20.193243080234836 4.577442902998893 -17 3 C-16.198203124999992 2.6029687499999987 -15.396406249999998 2.205937500000001 -14.5703125 1.796875 C-9.393003210014157 -0.41960884938691123 -5.583037474522399 -1.8982327413376154 0 0 Z " fill="#6096A9" transform="translate(102,20)"/>
<path d="M0 0 C3.2264134992411186 1.853471584670423 5.294606060720426 3.2258532411894905 6.80859375 6.66796875 C7.8732343789698405 10.816396028399751 8.30479353459478 13.913630942129771 6.625 17.9375 C2.9756543219242957 23.955929101875682 -2.3197986871135754 25.974785907571473 -8.92578125 27.69140625 C-10.323114115125549 27.993140166629416 -11.722953322390694 28.28348816116653 -13.125 28.5625 C-13.785322265624998 28.695031738281244 -14.445644531249997 28.827563476562503 -15.1259765625 28.964111328125 C-20.766285405276548 29.938384586628374 -26.257106479752608 30.13603652352643 -31.453125 27.453125 C-40.040277777777774 20.45351307189543 -40.040277777777774 20.45351307189543 -42.125 14.8125 C-42.048749585104375 10.99997925521869 -41.19055617162671 9.24342052659798 -38.84375 6.296875 C-33.40965340504265 1.3871210589420429 -26.102657019935293 0.3050576333276567 -19.0625 -0.3125 C-13.177762727227915 -2.274079090924026 -5.799007476139536 -2.371756805016382 0 0 Z " fill="#176F89" transform="translate(91.0625,49.3125)"/>
<path d="M0 0 C0.6883593749999992 0.05220703125000625 1.3767187500000002 0.1044140624999983 2.0859375 0.158203125 C3.766127578506566 0.28655097821925324 5.445647493410604 0.42362224818280936 7.125 0.5625 C6.64353515625 1.9527539062499955 6.64353515625 1.9527539062499955 6.15234375 3.37109375 C5.051571435868571 6.7906031821116954 4.59533955808935 9.006208461457078 5.125 12.5625 C7.298056589467226 15.899694048110376 9.103853883638394 17.314527273243698 12.98828125 18.2578125 C14.044023437500002 18.461484374999998 15.099765625 18.665156249999995 16.1875 18.875 C21.64461606002554 20.068325133519096 21.64461606002554 20.068325133519096 23.7578125 22.2421875 C26.276873904193053 27.03773402501936 26.421478081010996 30.934324648087994 27.125 36.5625 C13.594999999999999 36.5625 0.06499999999999773 36.5625 -13.875 36.5625 C-13.875 24.682500000000005 -13.875 12.802499999999995 -13.875 0.5625 C-8.935362725334631 -0.2607728791108883 -4.893676598605399 -0.4125483179056886 0 0 Z " fill="#8BBFB9" transform="translate(13.875,91.4375)"/>
<path d="M0 0 C1.17828369140625 0.14139404296874858 1.17828369140625 0.14139404296874858 2.38037109375 0.28564453125 C3.656542968750003 0.4306640625 3.656542968750003 0.4306640625 4.95849609375 0.57861328125 C5.847949218750003 0.6907617187499966 6.737402343750006 0.8029101562500003 7.65380859375 0.91845703125 C8.550996093750001 1.0228710937499983 9.448183593750002 1.1272851562499966 10.37255859375 1.23486328125 C12.592652888825143 1.4946615498226237 14.811043934264859 1.7645764453267176 17.02880859375 2.04345703125 C13.874607738228377 4.146257601597753 12.029858266872239 4.25570836638969 8.36474609375 4.63720703125 C4.060173684829486 5.385828319757913 -0.16709657183847781 6.89299406442867 -3.97119140625 9.04345703125 C-4.301191406249998 10.033457031250002 -4.631191406249997 11.023457031250004 -4.97119140625 12.04345703125 C-6.53369140625 13.73095703125 -6.53369140625 13.73095703125 -7.97119140625 15.04345703125 C-6.609543789740378 21.232764379021006 -4.351466573797502 25.384093629293204 0.67724609375 29.34033203125 C7.7035121666372675 33.668749105686885 15.389654051952178 31.964205260919798 23.09912109375 30.43408203125 C28.347392691054637 29.147039950167112 32.98985557105618 27.77948857724178 37.02880859375 24.04345703125 C40.065859875292475 18.910728297130248 40.33947277304124 14.762718904520838 39.02880859375 9.04345703125 C43.29247716623867 12.730954175023982 45.931421132999645 16.41094792148033 47.02880859375 22.04345703125 C46.65652717413266 25.932609734060918 44.49504126892376 28.320304861595673 42.09130859375 31.29345703125 C41.38103515624999 32.18548828125 40.67076171875 33.077519531250005 39.93896484375 33.99658203125 C39.30861328124999 34.67205078124999 38.67826171875001 35.34751953125 38.02880859375 36.04345703125 C37.36880859375 36.04345703125 36.70880859375001 36.04345703125 36.02880859375 36.04345703125 C34.60437633603732 38.70239724564702 33.73667626611774 41.123502882733106 33.02880859375 44.04345703125 C32.373287636476675 45.71453886551117 31.70772911074357 47.38174431425364 31.02880859375 49.04345703125 C30.51576171875 48.71732421875001 30.00271484375 48.39119140625 29.47412109375 48.05517578125 C17.32797074330665 41.12328189438081 2.4682682336406003 39.547992192175315 -10.97119140625 43.04345703125 C-11.503484669095144 41.7773809653867 -12.021636846810097 40.50535290788294 -12.53369140625 39.23095703125 C-12.82373046875 38.52326171875001 -13.11376953125 37.81556640625 -13.41259765625 37.08642578125 C-13.97119140625 35.04345703125 -13.97119140625 35.04345703125 -12.97119140625 32.04345703125 C-12.878399440289058 30.09276370238217 -12.78922278011072 28.141719654090025 -12.730712890625 26.189697265625 C-12.489296768992496 18.576496656990372 -11.784490432310214 12.80898756135683 -7.97119140625 6.04345703125 C-7.311191406250003 6.04345703125 -6.65119140625 6.04345703125 -5.97119140625 6.04345703125 C-5.538066406249996 5.115332031249999 -5.538066406249996 5.115332031249999 -5.09619140625 4.16845703125 C-2.923482495475689 0.06445131089852651 -2.923482495475689 0.06445131089852651 0 0 Z " fill="#2D8395" transform="translate(57.97119140625,45.95654296875)"/>
<path d="M0 0 C14.850000000000001 0 29.700000000000003 0 45 0 C43.92002249294682 9.719797563478599 42.83235781596383 12.853070877847772 35.625 18.75 C28.31607174769929 24.116198538561136 21.920728231471223 24.72330228903821 13 24 C8.59258836176199 23.187984863242626 4.342145674551572 22.132733654230844 0 21 C0 14.07 0 7.139999999999999 0 0 Z " fill="#B2DCE6" transform="translate(0,0)"/>
<path d="M0 0 C0.9900000000000091 0.3299999999999983 1.9799999999999898 0.6599999999999966 3 1 C5.426703296426837 8.28010988928051 4 16.326090377852438 4 24 C-13.159999999999997 24 -30.32 24 -48 24 C-52 11 -52 11 -53 7 C-49.9744922159568 4.707948648452117 -48.410758897072405 3.9925316564168725 -44.5625 4.0625 C-40.66205271886683 5.088933495035036 -38.13284420673684 6.478442467748394 -35 9 C-35 9.659999999999997 -35 10.319999999999993 -35 11 C-34.42765625 11.265546874999998 -33.8553125 11.531093749999997 -33.265625 11.8046875 C-30.89239880366489 13.056768907031966 -28.87786713686981 14.493635195066489 -26.75 16.125 C-26.04359375 16.663828124999995 -25.3371875 17.202656250000004 -24.609375 17.7578125 C-24.078281250000003 18.167734374999995 -23.547187500000007 18.577656250000004 -23 19 C-17.213400067759125 16.925558514857045 -13.825162254356997 14.2989307202415 -9.6875 9.8125 C-7.826419712854602 7.827805524040514 -5.9459142992673435 5.904574693516594 -4 4 C-3.3400000000000034 4 -2.680000000000007 4 -2 4 C-1.3400000000000034 2.680000000000007 -0.6800000000000068 1.3599999999999994 0 0 Z " fill="#5BBFD3" transform="translate(89,104)"/>
<path d="M0 0 C0.49499999999999744 1.4849999999999994 0.49499999999999744 1.4849999999999994 1 3 C-0.5468749999999858 5.820312499999975 -0.5468749999999858 5.820312499999975 -2.75 9.125 C-5.243245984751695 12.942799537564103 -7.388418652941475 16.49114031791384 -8.5625 20.9375 C-9.746285575652273 25.18199433375321 -11.876768717164367 27.135171830688634 -15.37890625 29.7109375 C-17.278870345402524 31.086795572656236 -17.278870345402524 31.086795572656236 -19 34 C-19.5916796875 33.8672265625 -20.183359375 33.734453125 -20.79296875 33.59765625 C-26.849128843396414 32.24415880661451 -32.875718246917735 31.020713625513707 -39 30 C-39 22.08 -39 14.16 -39 6 C-30.999999999999993 7 -30.999999999999993 7 -28.359375 7.54296875 C-19.93865652110942 9.174134415612912 -12.364909240490576 8.449006398337165 -5 4 C-2.056851851999724 1.9169006586825859 -2.056851851999724 1.9169006586825859 0 0 Z " fill="#8DB1BB" transform="translate(39,15)"/>
<path d="M0 0 C0.7837499999999977 0.4743749999999949 1.5675000000000026 0.948750000000004 2.375 1.4375 C6.345300238182553 3.148836309561446 9.46040396198692 3.436328256663117 13.73046875 3.59375 C16.468437447883602 4.0838511094318335 17.328431005687996 4.814501408057907 19 7 C19.9375 9.8125 19.9375 9.8125 20 13 C19.360625 13.866250000000008 18.721249999999998 14.732500000000002 18.0625 15.625 C15.020234852121206 20.60325206016529 15.6683405699019 25.306513116649256 16 31 C10.893457619896097 34.66338909877018 7.613702106922105 35.548352825690046 1.37109375 34.6171875 C-3.4533872400847585 33.36139178923659 -6.279992091397791 31.08001186290332 -9 27 C-9 19.971328962034676 -6.955606854609467 15.602815284478012 -3.43359375 9.59765625 C-1.6806489969071912 6.421339463060718 -0.7833317889798899 3.524993050409506 0 0 Z " fill="#599AA1" transform="translate(27,77)"/>
</svg>
