<?xml version="1.0" encoding="UTF-8"?>
<!-- Generator: visioncortex VTracer 0.6.0 -->
<svg version="1.1" xmlns="http://www.w3.org/2000/svg" width="128" height="128">
<path d="M0 0 C42.24 0 84.48 0 128 0 C128 42.24 128 84.48 128 128 C85.75999999999999 128 43.519999999999996 128 0 128 C0 85.75999999999999 0 43.519999999999996 0 0 Z " fill="#75504E" transform="translate(0,0)"/>
<path d="M0 0 C42.24 0 84.48 0 128 0 C128 42.24 128 84.48 128 128 C85.75999999999999 128 43.519999999999996 128 0 128 C0 104.57 0 81.14 0 57 C5 58 5 58 6.625 59.57421875 C11.011360100185652 66.31575515397851 13.504651819533224 73.38557741716087 16 81 C19.43059461094137 93.18344995666688 19.43059461094137 93.18344995666688 27.79296875 102.1015625 C30.485390854305216 103.1975927371508 32.85497535794081 103.4182125255672 35.75 103.625 C36.73484375 103.699765625 37.7196875 103.77453125 38.734375 103.8515625 C39.855859374999994 103.9250390625 39.855859374999994 103.9250390625 41 104 C41 104.66 41 105.32 41 106 C41.79921875 106.2307421875 42.5984375 106.461484375 43.421875 106.69921875 C50.14744654427239 108.69636616866305 56.50983868985982 110.9482838899337 62.85546875 113.94921875 C70.77002931852209 116.59396010768005 79.37081319303773 116.13413179471996 87.625 116.0625 C88.6291796875 116.05798828125 89.633359375 116.0534765625 90.66796875 116.048828125 C93.112044707034 116.03718966806174 95.55598820025493 116.02084239923687 98 116 C98.2951953125 115.2330078125 98.590390625 114.466015625 98.89453125 113.67578125 C99.99999999999999 111.00000000000003 99.99999999999999 111.00000000000003 101.6875 108.1875 C103.73163356883013 103.2231756185554 102.43031018254696 98.85486336582082 101.2578125 93.80078125 C100.9242341443006 88.88302761218914 102.27061363096365 85.61403114041741 104.125 81.125 C106.57017230333935 74.89166073204785 108.7772573976882 68.70422367357347 110.5625 62.25 C112.46762542281773 55.38402719311259 114.95867069760101 48.96912279554836 117.86328125 42.46484375 C119.41402848871684 37.73799563748509 120.03433216100512 33.40938550445899 118.00390625 28.6796875 C112.27731470111532 21.509808650176893 105.32396143637251 16.056165543235117 96 15 C87.88414812760418 14.241730627980536 81.14525810944734 15.498207731765483 73.421875 18.02734375 C66.13799256021615 20.097762388705682 58.95313527886465 20.162410812234327 51.4375 20.125 C50.47819580078125 20.12234130859375 49.5188916015625 20.1196826171875 48.530517578125 20.116943359375 C25.967972102158004 19.967972102158008 25.967972102158004 19.967972102158008 24 18 C18.541015133564322 17.47603493469479 13.504489852216789 18.134375633297143 8.23828125 19.5625 C5.999999999999996 20 5.999999999999996 20 0 20 C0 13.399999999999999 0 6.799999999999999 0 0 Z " fill="#B6A48E" transform="translate(0,0)"/>
<path d="M0 0 C1 1 1 1 1.24609375 3.3046875 C0.9533632733636992 6.5107831964928025 0.10122090632962255 7.6785349124044515 -1.9375 10.125 C-6.396587562477109 15.543371175208591 -6.416715992480544 20.187178076422754 -6 27 C-5.702556253227446 28.67344438401603 -5.369543345926605 30.34098625552099 -5 32 C-3.2195394862943765 40.06889551955953 -3.951047740655035 47.870619990076534 -5 56 C0.8964208419728337 59.64605810042204 6.7063128083719725 61.673167613874625 13.328125 63.623046875 C18.696675588483686 65.29843638688224 22.65086317458659 67.39692520979713 27 71 C27 71.66 27 72.32 27 73 C27.659999999999997 73 28.32 73 29 73 C31.290136533369683 76.43520480005452 31.178429733363103 77.9853309993301 31 82 C38.05759981757341 82.56210971998372 43.36317662452085 81.36100258698409 49.98046875 78.95703125 C55.97841410478463 77.05600070417563 62.12671301291947 76.9531963521567 68.375 77 C71.45673247945467 77 74.02642613646246 76.74339346588438 77 76 C79.64282062218726 81.17992841948704 80.60529479506667 84.18080636788332 79 90 C77.79075975687306 93.43715594509737 76.45582684102877 96.28005465160044 74 99 C70.31861467699837 100.32642048903703 66.82001730389094 100.26663371532989 62.9375 100.1875 C61.38204467773437 100.19825561523437 61.38204467773437 100.19825561523437 59.795166015625 100.209228515625 C48.045046255250014 100.18615105517961 38.95293402337202 98.24925410608493 28.29296875 93.3984375 C24.20709681005075 91.66327480189581 20.362374228662446 90.75213348770042 16 90 C16.494999999999997 88.515 16.494999999999997 88.515 17 87 C16.275546875000003 87.04640625 15.55109375 87.0928125 14.8046875 87.140625 C10.197348764991517 87.31263231277364 6.85985316781246 87.39808017028355 2.625 85.4375 C-3.5462675750022328 79.70703725178365 -5.721448339724681 74.25741897595154 -8.054931640625 66.343505859375 C-9.475796810145313 61.55891483610873 -11.076866693377022 56.91921926140142 -13 52.3125 C-13.45375 51.21550781249999 -13.9075 50.118515625 -14.375 48.98828125 C-16.740337651291423 44.63856177106265 -19.244587835384856 41.58513738820505 -24 40 C-24 27.79 -24 15.579999999999998 -24 3 C-6.69230769230769 -0.46153846153846345 -6.69230769230769 -0.46153846153846345 0 0 Z " fill="#77835F" transform="translate(24,17)"/>
<path d="M0 0 C3.194534940757279 1.692381960401189 4.948929278670207 3.171440793005303 6.96484375 6.1953125 C7.3359375 8.632812499999993 7.3359375 8.632812499999993 6.96484375 11.1953125 C3.305745582619096 15.762697446518011 -1.5070566056194252 19.06936301492179 -6.72265625 21.6328125 C-13.477741471937662 25.157717354030304 -16.525343943732068 31.246905951480848 -18.91015625 38.2578125 C-19.299313148645666 39.56618483165353 -19.679951893582057 40.87731738802813 -20.03515625 42.1953125 C-20.695156249999997 42.1953125 -21.355156249999993 42.1953125 -22.03515625 42.1953125 C-22.22078125 42.9171875 -22.406406250000003 43.639062499999994 -22.59765625 44.3828125 C-25.057391691816832 49.195338364424245 -29.228490664780352 51.367257440107664 -34.03515625 53.5703125 C-39.71782425830037 54.75420166839591 -44.6276416132209 53.495763336839076 -49.70703125 50.74609375 C-55.48932523969302 46.89446503538905 -62.10489508300378 42.11870979057211 -65.234375 35.7578125 C-65.89254266938993 32.27978885258169 -65.5256899422183 30.139421866529744 -63.89453125 27 C-61.663374022123314 23.81766521708115 -59.328739334784764 21.428844499260606 -56.28515625 19.0078125 C-53.83891902473992 17.39080260558336 -53.83891902473992 17.39080260558336 -53.3203125 14.74609375 C-52.03515625 12.1953125 -52.03515625 12.1953125 -49.015625 10.71875 C-47.13810546875 10.150273437500005 -47.13810546875 10.150273437500005 -45.22265625 9.5703125 C-44.5512158203125 9.36212890625 -43.879775390625 9.1539453125 -43.18798828125 8.939453125 C-37.929769559107584 7.3474812223282555 -32.602775354072804 6.161311400497048 -27.23046875 5.01953125 C-23.76173448813249 4.124784392721217 -20.59320001467313 2.8778491867613774 -17.28515625 1.5078125 C-11.333087391692857 -0.85867270872453 -6.158796888870384 -2.435148098094622 0 0 Z " fill="#3E2816" transform="translate(99.03515625,24.8046875)"/>
<path d="M0 0 C5 1 5 1 6.625 2.57421875 C11.011360100185648 9.315755153978515 13.504651819533226 16.385577417160874 16 24 C19.43059461094137 36.18344995666688 19.43059461094137 36.18344995666688 27.79296875 45.1015625 C30.485390854305237 46.19759273715081 32.85497535794079 46.4182125255672 35.75 46.625 C36.73484375 46.699765625 37.7196875 46.774531249999995 38.734375 46.8515625 C39.48203125 46.900546875 40.2296875 46.94953125000001 41 47 C39.54598997621788 50.57248699391627 37.730909096759206 52.20351555000542 34.625 54.4375 C27.925594030357097 59.50499938729399 26.08351875234421 62.7772833270821 23 71 C15.41 71 7.8199999999999985 71 0 71 C0 47.56999999999999 0 24.14 0 0 Z " fill="#D7BB91" transform="translate(0,57)"/>
<path d="M0 0 C5.164965585713446 3.590042367342484 10.942483059004232 8.473689129038618 12.25 14.89453125 C12.359997220153474 18.593187777660724 11.875303017682597 21.651889223476104 9.8125 24.74609375 C9.131874999999994 24.00359375 8.451250000000002 23.26109375 7.75 22.49609375 C5.711058231420168 20.422298275974356 3.7800419981101925 19.11312125223379 1.1875 17.80859375 C-2.6922760648852915 15.437619488125662 -3.242945983539684 13.71974760972325 -5.1875 9.74609375 C-9.988934930016086 6.316497371417086 -14.503234429044 6.194234174087967 -20.1875 6.74609375 C-23.477238084818026 7.581876147328927 -26.59035331987029 8.764012595438452 -29.75 9.99609375 C-37.36508697096194 12.822744559655064 -44.89310742394602 15.096761015858107 -52.8046875 16.921875 C-56.006673839170816 17.702035643839537 -59.078540622388196 18.657482591784245 -62.1875 19.74609375 C-62.1875 19.086093750000003 -62.1875 18.42609375 -62.1875 17.74609375 C-63.05375 17.498593749999998 -63.92 17.251093749999995 -64.8125 16.99609375 C-68.39810063765272 15.668093513832332 -71.15077987397729 14.059785274588727 -74.1875 11.74609375 C-74.1875 11.08609375 -74.1875 10.42609375 -74.1875 9.74609375 C-74.991875 9.591406249999999 -74.991875 9.591406249999999 -75.8125 9.43359375 C-78.81252043735232 8.565166781292753 -81.42545349741454 7.189890785442401 -84.1875 5.74609375 C-83.8575 4.096093750000001 -83.5275 2.4460937499999993 -83.1875 0.74609375 C-82.129501953125 0.7565673828124986 -81.07150390625 0.7670410156250007 -79.9814453125 0.77783203125 C-76.00052364260787 0.814437551123774 -72.0196163743671 0.8371394752109715 -68.03857421875 0.85595703125 C-66.3259835409544 0.8659232995082426 -64.61340946219228 0.8795012184319191 -62.90087890625 0.89697265625 C-51.31701602203315 1.0120665598336842 -40.28509740406679 0.8884238021968045 -29.1875 -2.87890625 C-19.48563420405219 -5.926287173086173 -8.862571732259397 -5.080152725098692 0 0 Z " fill="#766A4B" transform="translate(108.1875,18.25390625)"/>
<path d="M0 0 C18.150000000000006 0 36.30000000000001 0 55 0 C55 15.84 55 31.68 55 48 C47 47 47 47 45 45 C45.28674417556809 42.99279077102339 45.63079809033111 40.993690312211996 46 39 C46.57408595452475 33.91523868849504 46.498578396180136 31.125014032039758 43.5625 26.875 C38.23082540894514 20.50208072410383 31.3675574874961 15.954316473780546 23 15 C21.350644531249998 14.97486328125 21.350644531249998 14.97486328125 19.66796875 14.94921875 C8.839831264401994 14.7301190564682 8.839831264401994 14.7301190564682 4.1875 10.3125 C0.8638969835964474 6.662914598192266 0.8922326589044189 5.353395953426536 0 0 Z " fill="#BDBE9A" transform="translate(73,0)"/>
<path d="M0 0 C4.9805265289393645 1.067255684772718 7.7944425644580235 3.0476437391657853 10.95751953125 6.893310546875 C12.295369610298138 9.596895636361268 12.038048223550561 10.734306698475038 11.1953125 13.6015625 C10.542417357699179 15.290897331704883 9.850062786660516 16.965359015976205 9.125 18.625 C8.418017814257183 20.397420455530252 7.71359009553683 22.170861966326527 7.01171875 23.9453125 C6.660288085937509 24.805439453125004 6.30885742187499 25.66556640625 5.94677734375 26.5517578125 C4.681973666534205 29.82237443836899 3.818518196171908 33.10673341037716 2.9375 36.5 C1.7843303822507437 40.2429963842778 1.1225444914094282 41.86549994845308 -1.5625 44.8125 C-7.6921253712636 46.93000694643652 -13.4366341993437 47.18674342622978 -19.375 44.4375 C-22.49881658788148 41.53681316839577 -25.239395502500514 38.9312127820879 -27 35 C-27.221621826101895 28.240534303892147 -24.604175619140364 22.651112315880418 -21 17 C-17.62086162676823 13.542277013437257 -14.110424677009064 11.470909049490395 -9.9375 9.0625 C-5.591895437088056 6.539034303588089 -2.909639796931515 4.0734957157041265 0 0 Z " fill="#864E3D" transform="translate(106,34)"/>
<path d="M0 0 C3.6002057917590946 1.3192138083197449 7.109029644886483 2.8502607697535183 10.582275390625 4.47265625 C19.437144433891604 8.458650272536971 28.56820549726048 8.149746017230072 38.125 8.0625 C39.081484375 8.057988281250005 40.037968750000005 8.053476562499995 41.0234375 8.048828125 C43.34898622049123 8.03720038139754 45.674502065655105 8.019272082328825 48 8 C47.67 11.960000000000008 47.34 15.920000000000002 47 20 C22.909999999999997 20 -1.1799999999999997 20 -26 20 C-24.380693036674533 10.284158220047203 -19.455147974537525 6.030322396392322 -12 0 C-8.150039011143349 -1.9249804944283255 -4.0782353012534855 -0.9030027622510772 0 0 Z " fill="#89AD90" transform="translate(49,108)"/>
<path d="M0 0 C0.6599999999999966 0 1.3199999999999932 0 2 0 C3.3440093034826788 1.9928413810260395 4.675412920368586 3.994196707986717 6 6 C9.955523085606657 10.529381351127753 9.955523085606657 10.529381351127753 15.42578125 12.16796875 C16.85470703125 12.177636718749994 16.85470703125 12.177636718749994 18.3125 12.1875 C19.729824218749997 12.208769531249999 19.729824218749997 12.208769531249999 21.17578125 12.23046875 C24.144068822831812 11.988243346407913 26.308671652887682 11.24026606888782 29 10 C28.33232730953975 13.665523070626733 27.42692160449866 17.151911737305284 26.25 20.6875 C25.94578125000001 21.640117187499996 25.641562499999992 22.592734374999992 25.328125 23.57421875 C24 26 24 26 21.65234375 27.328125 C19.04106421257427 27.989597872514324 16.993489947350554 28.173284708568204 14.3125 28.0625 C5.588954210065168 27.920548811110535 -1.2966560375130882 28.95801211648319 -9.44921875 32.140625 C-13.936385271970643 33.65238094920909 -17.48372902281367 33.5054236590621 -22 32 C-22.73046875 29.93359375 -22.73046875 29.93359375 -23.1875 27.4375 C-23.3460546875 26.611210937500005 -23.504609375 25.784921874999995 -23.66796875 24.93359375 C-23.777539062499997 24.295507812500006 -23.887109375 23.657421874999997 -24 23 C-24.659999999999997 23 -25.32 23 -26 23 C-26 22.340000000000003 -26 21.680000000000007 -26 21 C-26.556874999999998 20.752499999999998 -27.113749999999996 20.504999999999995 -27.6875 20.25 C-30.39861227051273 18.784533907830962 -32.61623337931722 16.94496380991032 -35 15 C-34.151796875 14.913632812499998 -33.30359375 14.827265624999995 -32.4296875 14.73828125 C-21.37247984568034 13.413846487010062 -9.698636817210371 11.726925741828992 -2 3 C-1.3400000000000034 2.010000000000005 -0.6800000000000068 1.019999999999996 0 0 Z " fill="#725B41" transform="translate(77,67)"/>
<path d="M0 0 C10.007252880588524 3.1730314011622127 20.858250975879272 10.702682684112204 26.08984375 19.94921875 C27.184211405735454 22.543275415447 27.421924819668476 23.5933215508511 27.08984375 26.44921875 C23.51165903055633 31.352657069237637 18.33817136278563 34.52508799733633 12.40234375 35.76171875 C2.2453909410130706 35.38553531263011 -5.1644572127018975 29.51425975350952 -12.1171875 22.63671875 C-14.95336440912736 19.349433387609864 -16.26547976482007 17.242645818616182 -16.1796875 12.8984375 C-14.191749723351364 5.600437742773117 -7.891276795549487 -1.366645702022538 0 0 Z " fill="#3C313A" transform="translate(49.59765625,43.23828125)"/>
<path d="M0 0 C1 1 1 1 1.24609375 3.3046875 C0.9533632733636992 6.5107831964928025 0.10122090632962255 7.6785349124044515 -1.9375 10.125 C-6.396587562477109 15.543371175208591 -6.416715992480544 20.187178076422754 -6 27 C-5.702556253227446 28.67344438401603 -5.369543345926605 30.34098625552099 -5 32 C-3.1765603905019546 40.322699360494646 -3.7865979356593336 47.81831736931218 -6 56 C-8.475 56.495000000000005 -8.475 56.495000000000005 -11 57 C-11.435703125 56.02417968750001 -11.87140625 55.04835937499999 -12.3203125 54.04296875 C-12.920892163864963 52.75735290703906 -13.522509858004524 51.47222162631388 -14.125 50.1875 C-14.40859375 49.54490234375001 -14.6921875 48.90230468749999 -14.984375 48.240234375 C-17.437971526619492 43.093015574591725 -18.42598955859754 42.78700522070123 -24 40 C-24 27.79 -24 15.579999999999998 -24 3 C-6.69230769230769 -0.46153846153846345 -6.69230769230769 -0.46153846153846345 0 0 Z " fill="#8A808B" transform="translate(24,17)"/>
<path d="M0 0 C0 10.89 0 21.78 0 33 C-10.560000000000002 33 -21.120000000000005 33 -32 33 C-32 25.81148004015597 -31.885087739510112 21.94486157868694 -28.875 15.875 C-28.53315673828125 15.181403808593757 -28.1913134765625 14.4878076171875 -27.839111328125 13.773193359375 C-22.26503377980832 3.669655494435176 -11.04992361149813 0 0 0 Z " fill="#CEC89F" transform="translate(128,95)"/>
<path d="M0 0 C1.4672517500093747 0.5605231404530144 2.9250015649188867 1.1462463853928426 4.375 1.75 C8.597545222316803 3.4828074467877883 12.86337561929166 4.977705081273115 17.1875 6.4375 C22.55257548689662 8.3331210008228 26.726880574393384 10.235585267917983 31 14 C31 14.659999999999997 31 15.319999999999993 31 16 C31.659999999999997 16 32.32 16 33 16 C35.29013653336968 19.43520480005452 35.17842973336311 20.98533099933009 35 25 C26.747998020369863 29.715429702645793 19.479574097188348 31.26235534460045 10 30 C4.847952014232867 27.740329830803887 1.5017455148937948 24.003491029787597 -1 19 C-6 5.9080779944289645 -6 5.9080779944289645 -6 0 C-3.4455228194533802 -1.2772385902733134 -2.679224845991115 -0.8378666791099505 0 0 Z " fill="#A67B53" transform="translate(20,74)"/>
<path d="M0 0 C7.92 0 15.84 0 24 0 C24 12 24 12 23 17 C20.292736337225914 17.506481397935463 17.584428758628277 18.005350999658326 14.875 18.5 C14.114453125 18.6430859375 13.35390625 18.786171875 12.5703125 18.93359375 C11.82265625 19.0689453125 11.075 19.204296875 10.3046875 19.34375 C9.6239013671875 19.46943359375 8.943115234375 19.5951171875 8.24169921875 19.724609375 C5.513443085219142 20.059773055965238 2.748766309308035 20 0 20 C0 13.399999999999999 0 6.799999999999999 0 0 Z " fill="#B9BABC" transform="translate(0,0)"/>
<path d="M0 0 C5.000000000000001 1 5.000000000000001 1 6.765625 2.8203125 C9.87142905129364 7.6424819480611745 11.754510913106145 11.231006457994397 12 17 C7.898647743870045 17.643349373510574 4.172631024883304 18 0 18 C0 12.060000000000002 0 6.119999999999997 0 0 Z " fill="#B9BABC" transform="translate(0,57)"/>
</svg>
