<?xml version="1.0" encoding="UTF-8"?>
<!-- Generator: visioncortex VTracer 0.6.0 -->
<svg version="1.1" xmlns="http://www.w3.org/2000/svg" width="128" height="128">
<path d="M0 0 C42.24 0 84.48 0 128 0 C128 42.24 128 84.48 128 128 C85.75999999999999 128 43.519999999999996 128 0 128 C0 85.75999999999999 0 43.519999999999996 0 0 Z " fill="#507B6D" transform="translate(0,0)"/>
<path d="M0 0 C17.819999999999993 0 35.64 0 54 0 C54.103125000000006 8.353125 54.20625000000001 16.70625 54.3125 25.3125 C54.35802001953124 27.94774658203125 54.403540039062506 30.5829931640625 54.450439453125 33.298095703125 C54.465039774085085 35.38231125034177 54.47778151075758 37.4665410114219 54.48828125 39.55078125 C54.51386108398438 40.63661499023438 54.53944091796876 41.72244873046875 54.5657958984375 42.8411865234375 C54.56743685924164 45.65215238090593 54.54236767954325 48.24214093265441 54 51 C51.571044921875014 53.093994140625 51.571044921875014 53.093994140625 49 54 C47.325030568271075 55.91765303669992 47.325030568271075 55.91765303669992 46 58.125 C45.24203125 59.310292968750005 45.24203125 59.310292968750005 44.46875 60.51953125 C43.052471552991705 62.91138447832519 41.77373595821305 65.34259533743943 40.5 67.8125 C38.29981791687439 71.81346805562012 36.2920924476949 74.11147932301424 32 76 C25.605826661467646 75.8611639082104 22.34216071531972 73.46971064228127 17.6875 69.5 C13.573563489858614 65.90831579166866 13.573563489858614 65.90831579166866 9 63 C8.917500000000004 63.680625 8.835000000000008 64.36125 8.75 65.0625 C6.774647595313567 72.79929691835518 1.6852078944877036 78.73727023835154 -5 83 C-8.792968749999929 83.72656249999999 -8.792968749999929 83.72656249999999 -12 84 C-13.15607269687061 81.79651940283146 -14.299847212135532 79.58796843666788 -15.4375 77.375 C-15.762988281250003 76.7575390625 -16.0884765625 76.140078125 -16.423828125 75.50390625 C-18.382596279490635 71.6671438855338 -19.53221257656115 68.2825609188064 -20 64 C-19.340000000000003 64 -18.68 64 -18 64 C-18 63.34 -18 62.68 -18 62 C-17.25234375 61.29875 -16.504687500000003 60.5975 -15.734375 59.875 C-12.506521020459623 56.481142101511836 -11.010499276419822 53.278881649414984 -9.25 49 C-8.947070312500003 48.301328125 -8.644140625000006 47.60265625 -8.33203125 46.8828125 C-5.805725970660774 40.93196006422315 -4.9109976816044565 36.252680834678245 -5.25 29.75 C-5.336427960765263 22.9293934296076 -3.9291216845738006 17.220997336036476 -1.7783203125 10.7744140625 C-0.47511931752538317 6.853656718132697 0 4.232374083675179 0 0 Z " fill="#3B818F" transform="translate(74,0)"/>
<path d="M0 0 C3.794893286324534 2.8874188048121425 5.5409572894277765 5.530136102780858 7 10 C7.435532808049867 13.373650957592616 7.778674052693834 16.726617964879466 8.03515625 20.1171875 C8.515434963984326 24.919974639843247 9.589007248989127 27.582678876538267 13 31 C20.046737391197553 35.384636598967376 26.89158145873367 35.055479640595735 34.8125 34.3125 C42.19644186827087 33.74970642522287 47.397895417522705 34.42754187984498 54 38 C56.45509081532603 39.399407458562465 56.45509081532603 39.399407458562465 59 40 C60.915897421088445 38.80597866717035 60.915897421088445 38.80597866717035 62.5625 36.9375 C65.25080519877349 34.71252012904543 66.40161829920814 33.98965563549163 69.9375 34.05078125 C77.7558888752608 35.8001457608396 83.19914757377175 38.60580550476945 87.53125 45.40234375 C90.3017861004317 50.52013960218633 91 52.90564631789577 91 59 C53.05 59 15.099999999999994 59 -24 59 C-24 40.849999999999994 -24 22.69999999999999 -24 4 C-8 0 -8 0 0 0 Z " fill="#7B9A7D" transform="translate(24,69)"/>
<path d="M0 0 C13.860000000000001 0 27.720000000000002 0 42 0 C43.32 2.64 44.64 5.28 46 8 C48.131060083673034 10.406706425780255 48.131060083673034 10.406706425780255 50.5 12.25 C58.8635761589404 19.18145695364239 58.8635761589404 19.18145695364239 59.5 23 C58.87434267476349 26.753943951419078 57.8954660863457 27.58552416812949 55 30 C52.867949705092265 30.975358060170418 50.69527997888482 31.864270007918194 48.5 32.6875 C43.15328424605093 34.781034387790704 39.0919583792803 37.25483144071049 34.625 40.875 C28.634711705316306 45.612991008045434 28.634711705316306 45.612991008045434 24.5625 45.75 C19.234914527586827 44.62840305843933 16.949904388332065 43.16363287570678 13.5 38.9375 C9.403122316975747 34.1236687224465 6.2485522337001616 34.04142537228336 0 33 C0 22.11 0 11.219999999999999 0 0 Z " fill="#52A1D6" transform="translate(0,0)"/>
<path d="M0 0 C11.549999999999997 0 23.099999999999994 0 35 0 C35 15.510000000000002 35 31.020000000000003 35 47 C31.700000000000003 47.99 28.400000000000006 48.98 25 50 C24.113124999999997 50.4125 23.226249999999993 50.825 22.3125 51.25 C18.456088356546545 52.5007281005795 14.594291386800904 51.79714569340045 11 50 C11 49.34 11 48.68 11 48 C10.340000000000003 48 9.680000000000007 48 9 48 C8.718017578125 47.45061767578125 8.43603515625 46.9012353515625 8.1455078125 46.335205078125 C6.85276344669029 43.82462352413133 5.5514731330197264 41.31856694574446 4.25 38.8125 C3.8065624999999983 37.94818359375 3.3631249999999966 37.0838671875 2.90625 36.193359375 C1.0277474519947987 32.588291985078264 -0.7291790445009667 29.334950619578017 -3.29296875 26.1640625 C-6.480735245640787 22.122820764107555 -5.515766954481819 19.100362105431252 -5 14 C-3.3499999999999943 9.379999999999999 -1.7000000000000028 4.76 0 0 Z " fill="#A7C1D8" transform="translate(93,0)"/>
<path d="M0 0 C10.560000000000002 0 21.120000000000005 0 32 0 C33.06176833223162 5.308841661158092 32.25620137634746 7.998975247793434 30.5625 12.875 C28.67776077570298 18.672322872613886 27.7352163189517 23.51997767314327 28 29.6875 C28.40226210876081 40.83252666037305 23.974813073176023 52.252898359049745 17 61 C15.515 61.495 15.515 61.495 14 62 C14 62.66 14 63.32 14 64 C7.102555576994526 65.47802380492975 -0.13996527823332627 65.72115566495938 -7 64 C-10.88431831117125 60.949488237300066 -12.48363946513556 57.37215253234716 -13.51953125 52.61328125 C-13.813779435533533 48.582765406296495 -13.232303783947906 46.40052376542742 -11.1875 42.875 C-4.889279693418885 36.470330899504845 3.61654234668233 32.476833705053195 11.78515625 29.04296875 C14.137970159949873 28.08768300054951 14.137970159949873 28.08768300054951 16 26 C16.216764082999134 22.60402936634682 16.08073851566165 20.24221554698496 15 17 C13.68450551115859 16.29878928127837 12.34721282773647 15.638153444717275 11 15 C9.420574583812183 13.75478747051404 7.880171864442062 12.459015197582431 6.375 11.125 C5.598984375000001 10.446953125 4.822968750000001 9.76890625 4.0234375 9.0703125 C1.1096162176959652 6.0889895663684594 0 4.184310523391742 0 0 Z " fill="#1870A0" transform="translate(42,0)"/>
<path d="M0 0 C3.917059246798562 3.5474029933755133 6.896203955888858 7.431717658813767 9.875 11.75 C12.768220741701779 15.89822887961165 15.703133827922088 19.918899958453977 18.9375 23.8125 C23.090919985269473 29.063049792699147 25 34.3171615033915 25 41 C11.14 41 -2.7200000000000024 41 -17 41 C-17 27.799999999999997 -17 14.599999999999994 -17 1 C-3.8795180722891587 -1.3855421686747036 -3.8795180722891587 -1.3855421686747036 0 0 Z " fill="#B9E0CE" transform="translate(17,87)"/>
<path d="M0 0 C4.5205305942458835 4.022710173565166 7.078889115235285 8.324892290952427 9.8125 13.6875 C10.422548828125002 14.844755859374999 10.422548828125002 14.844755859374999 11.044921875 16.025390625 C14 21.71205357142857 14 21.71205357142857 14 24 C14.659999999999997 24 15.319999999999993 24 16 24 C16 24.659999999999997 16 25.32 16 26 C22.67851802617936 27.29261639216375 26.508075893766744 26.866205247285635 32.640625 23.91015625 C35.252605004440994 22.902554691995448 37.22477578077181 22.83761985951324 40 23 C40 24.32 40 25.64 40 27 C39.29875 27.391875 38.5975 27.783749999999998 37.875 28.1875 C32.27371309603312 31.718746091631296 29.47139704282148 38.05065637529809 26.5 43.8125 C24.29981791687439 47.81346805562012 22.2920924476949 50.11147932301424 18 52 C11.663713013340868 51.847318385863645 8.388565637103795 49.54067229106164 3.75 45.625 C3.138984375000007 45.129999999999995 2.5279687499999994 44.63499999999999 1.8984375 44.125 C-6.4339554398148096 37.32081886574075 -6.4339554398148096 37.32081886574075 -7 32 C-7.531940697297458 24.70852019802024 -6.397125060465299 18.86039138643625 -4 12 C-3.2700767089433214 9.791916639240746 -2.5409168934592543 7.583580758815955 -1.8125 5.375 C-1.209841782975559 3.582825377088362 -0.6062225153678611 1.7909721012390527 0 0 Z " fill="#7D9D9D" transform="translate(88,24)"/>
<path d="M0 0 C10.15745856353591 1.1286065070595441 10.15745856353591 1.1286065070595441 13.0625 3.9375 C13.6309765625 4.462148437499998 14.199453125 4.986796874999996 14.78515625 5.52734375 C16 7 16 7 16 9 C20.648495146413545 11.399223301374732 24.91086073611282 11.19957408877989 30 11 C29.9419921875 11.701250000000002 29.883984375 12.402500000000003 29.82421875 13.125 C29.521679852216085 19.486960821970307 30.05862558206187 23.300552513810445 33.90625 28.44140625 C35 30 35 30 35 32 C24.388459755909167 37.461822184458526 24.388459755909167 37.461822184458526 18.24609375 36.9765625 C14.007353367888264 37.020792834422025 9.944668195250788 38.30826690483684 5.85546875 39.34375 C3.000000000000007 40 3.000000000000007 40 0 40 C0 26.799999999999997 0 13.599999999999994 0 0 Z " fill="#547BA4" transform="translate(0,33)"/>
<path d="M0 0 C10.23 0 20.46 0 31 0 C31 18.77777777777778 31 18.77777777777778 26.3125 26.9375 C21.102260408569954 31.58447044641058 16.17960775558167 34.87404196920032 9 35 C6.029999999999999 34.34 3.0599999999999996 33.68 0 33 C0 22.11 0 11.219999999999999 0 0 Z " fill="#A0B2C6" transform="translate(0,0)"/>
<path d="M0 0 C0 12.54 0 25.08 0 38 C-7.83160605885341 40.40972494118566 -15.04166007682278 42.607290513443985 -23 44 C-24.515937500000007 44.278437499999995 -24.515937500000007 44.278437499999995 -26.0625 44.5625 C-28.70720216036625 45.04826162129177 -31.35299803840323 45.5269616266348 -34 46 C-34.23576736323649 38.37685525535366 -33.83717314613277 31.4143059111787 -32 24 C-29 23 -29 23 -25.5625 23.625 C-22.055729728310126 24.362700035067604 -22.055729728310126 24.362700035067604 -19.6875 22.5625 C-19.130624999999995 22.046875 -18.573750000000004 21.53125 -18 21 C-17.340000000000003 21 -16.680000000000007 21 -16 21 C-15.592011718750001 19.932656250000008 -15.592011718750001 19.932656250000008 -15.17578125 18.84375 C-7.384615384615387 0 -7.384615384615387 0 0 0 Z " fill="#677471" transform="translate(128,51)"/>
<path d="M0 0 C0 12.870000000000005 0 25.74000000000001 0 39 C-4.289999999999992 39 -8.579999999999998 39 -13 39 C-13.247500000000002 37.845 -13.495000000000005 36.69 -13.75 35.5 C-15.394594098977436 29.04725231998438 -17.711676229914787 23.205487483356208 -23.14453125 19.015625 C-26.216001030362918 17.33439943601188 -29.520666289046773 16.60912315110346 -32.92578125 15.87109375 C-35 15 -35 15 -35.85546875 13.09765625 C-36 11 -36 11 -35 8 C-32.62890625 7.12109375 -32.62890625 7.12109375 -29.5625 6.4375 C-28.473242187500006 6.188710937500005 -27.383984374999997 5.939921874999996 -26.26171875 5.68359375 C-22.666942252312907 4.930197478029655 -19.064831607222217 4.226817656950274 -15.45703125 3.5390625 C-11.94509732188942 2.7685587129105613 -8.547190655401934 1.6942736956519866 -5.12890625 0.5859375 C-3 0 -3 0 0 0 Z " fill="#536E7A" transform="translate(128,89)"/>
<path d="M0 0 C1.37890625 2.292968750000014 1.37890625 2.292968750000014 2.5625 5.1875 C3.905323278438793 8.392815008285794 5.231202622125956 11.431578227968444 6.875 14.5 C8 17 8 17 7 20 C4.671875000000007 21.3515625 4.671875000000007 21.3515625 1.75 22.625 C0.7960937499999972 23.050390625000006 -0.15781249999999858 23.475781249999997 -1.140625 23.9140625 C-6.593084480865414 25.984805308306818 -9.51323355430511 26.169186734344493 -15 24 C-15 23.340000000000003 -15 22.680000000000007 -15 22 C-16.32 21.340000000000003 -17.64 20.680000000000007 -19 20 C-19 19.340000000000003 -19 18.680000000000007 -19 18 C-19.603281250000002 17.7718359375 -20.206562500000004 17.543671875 -20.828125 17.30859375 C-23.62169086269801 15.62542007373412 -24.358749529750444 13.986702377283791 -25.75 11.0625 C-26.177968749999998 10.187226562500001 -26.6059375 9.311953125000002 -27.046875 8.41015625 C-28 6 -28 6 -28 3 C-20.67279274955761 -1.4479523688322402 -8.128687711505208 -3.8230814350914955 0 0 Z " fill="#326972" transform="translate(54,65)"/>
<path d="M0 0 C4.364664759086459 3.3209405775657785 6.477323456121699 6.739017335817451 7.34423828125 12.147705078125 C7.646813319278557 14.700137991985201 7.895185112653721 17.252512853249243 8.125 19.8125 C8.211367187500002 20.676816406249998 8.297734374999997 21.541132812499995 8.38671875 22.431640625 C8.882563025293017 27.645876059628975 9.085153315376957 32.763071104317106 9 38 C4.698265082827575 33.97043108813199 1.5582458450968204 29.56415823947964 -1.517578125 24.552734375 C-3.37595717139558 21.70760539246517 -4.791343722354739 20.10361454006187 -7.85546875 18.58203125 C-11.375082604241205 17.930574772631132 -14.317742086964206 18.012014498669814 -17.875 18.375 C-19.896250000000002 18.581249999999997 -21.9175 18.787499999999994 -24 19 C-24 14.049999999999997 -24 9.099999999999994 -24 4 C-21.502765483080065 3.3211401313227356 -19.003038589521168 2.656825729165135 -16.5 2 C-15.80390625 1.8092187499999994 -15.1078125 1.6184374999999989 -14.390625 1.421875 C-9.456232183806481 0.1425879735794524 -5.101808335504533 -0.36597554440984936 0 0 Z " fill="#86A29F" transform="translate(24,69)"/>
<path d="M0 0 C6.269999999999996 0 12.539999999999992 0 19 0 C18 7.0000000000000036 18 7.0000000000000036 16.5 10.125 C14.42963829501143 14.52576884152159 14.496422136931272 19.121592748602062 14.30859375 23.9140625 C14.002562101450309 26.97437898549691 13.284985926474235 29.223604705047627 12 32 C11.419921875 32.0141796875 10.83984375 32.028359375 10.2421875 32.04296875 C4.108782379341903 32.417450580799255 1.3409045601375595 33.65909543986244 -3 38 C-3.6599999999999966 38.66 -4.319999999999993 39.32 -5 40 C-5.595040686985186 28.69422694728152 -4.7725032901615805 19.30883396567649 -1.09375 8.57421875 C0.24384730732748494 4.826112512359879 0.24384730732748494 4.826112512359879 0 0 Z " fill="#5389A6" transform="translate(74,0)"/>
<path d="M0 0 C6.204935596587234 3.4684576474571145 9.798143147807991 9.343695414571613 12 16 C12 17.980000000000004 12 19.960000000000008 12 22 C3.0900000000000034 22 -5.819999999999993 22 -15 22 C-15.329999999999998 20.019999999999996 -15.659999999999997 18.039999999999992 -16 16 C-16.97115197841029 13.628018113037257 -16.97115197841029 13.628018113037257 -18.125 11.4375 C-19.314065840934447 8.818044992480196 -19.99035599625111 7.141445388317052 -20.1875 4.25 C-15.497703300687434 -4.635930588171163 -8.333482589018828 -3.492126037303123 0 0 Z " fill="#719997" transform="translate(103,106)"/>
<path d="M0 0 C2.969999999999999 0 5.939999999999998 0 9 0 C9 2.64 9 5.28 9 8 C5.813900751196186 7.6459889723551315 4.2093332230391525 7.169729640302013 1.6875 5.125 C0 2.999999999999999 0 2.999999999999999 0 0 Z " fill="#5389A6" transform="translate(119,0)"/>
</svg>
