<?xml version="1.0" encoding="UTF-8"?>
<!-- Generator: visioncortex VTracer 0.6.0 -->
<svg version="1.1" xmlns="http://www.w3.org/2000/svg" width="128" height="128">
<path d="M0 0 C42.24 0 84.48 0 128 0 C128 42.24 128 84.48 128 128 C85.75999999999999 128 43.519999999999996 128 0 128 C0 85.75999999999999 0 43.519999999999996 0 0 Z " fill="#64B4AD" transform="translate(0,0)"/>
<path d="M0 0 C21.78 0 43.56 0 66 0 C64.91643123863918 4.3342750454432775 64.77375059700033 4.561492953177917 61.28125 6.76953125 C60.5179638671875 7.26203369140625 59.754677734375 7.7545361328125 58.96826171875 8.261962890625 C58.1537353515625 8.77364013671875 57.339208984375 9.2853173828125 56.5 9.8125 C54.84506491408376 10.888644934072124 53.191402888146484 11.966750331535462 51.5390625 13.046875 C50.352319335937494 13.817412109375 50.352319335937494 13.817412109375 49.1416015625 14.603515625 C40.83735337068967 20.018506465988953 35.5033304616788 25.707515680358647 30 34 C30.698671875 33.9883984375 31.39734375 33.976796875 32.1171875 33.96484375 C33.027265625 33.9558203125 33.93734375 33.946796875 34.875 33.9375 C35.779921875 33.9258984375 36.68484375 33.914296875 37.6171875 33.90234375 C40.00000000000001 34 40.00000000000001 34 42 35 C42.76196289062501 37.281494140625014 42.76196289062501 37.281494140625014 43.47265625 40.28515625 C43.73240234375 41.37376953125 43.9921484375 42.4623828125 44.259765625 43.583984375 C44.52466796875 44.73189453125 44.7895703125 45.8798046875 45.0625 47.0625 C45.33126953125 48.18333984375 45.6000390625 49.3041796875 45.876953125 50.458984375 C49.789276589329276 67.07416357637844 49.789276589329276 67.07416357637844 47.6875 73.25 C47.4232421875 74.05953125 47.158984375 74.8690625 46.88671875 75.703125 C46.045033428148535 77.88334953413508 45.08608467516064 79.93217066213957 44 82 C43.34 82 42.68 82 42 82 C41.505 83.485 41.505 83.485 41 85 C39.51171875000005 86.21093749999996 39.51171875000005 86.21093749999996 37.6875 87.375 C35.1506213058431 89.0800304869079 33.791885748821 90.26932432505517 31.875 92.75 C29.612167278997976 95.46539926520242 28.39129549415878 95.48852592547114 25 96 C29.202019515598508 109.03539346649659 29.202019515598508 109.03539346649659 35.8984375 120.921875 C37 123 37 123 37 128 C24.79 128 12.579999999999998 128 0 128 C0 85.75999999999999 0 43.519999999999996 0 0 Z " fill="#4CA1AA" transform="translate(0,0)"/>
<path d="M0 0 C3.646357168260323 7.292714336520646 3.8563097560208064 14.14251810720549 3.875 22.1875 C3.8808007812500023 23.902355957031247 3.8808007812500023 23.902355957031247 3.88671875 25.65185546875 C3.751810124877295 35.68146856771592 1.83472086023599 44.4841109077762 -1.5625 53.875 C-3.2125000000000057 53.545 -4.862499999999997 53.215 -6.5625 52.875 C-10.060939731675859 63.84468390440733 -9.9737319859654 73.04837590305219 -6.9375 84.125 C-4.6633929936971725 92.55583573068364 -6.448941613290657 98.42076645316263 -8.5625 106.875 C-20.7725 106.875 -32.9825 106.875 -45.5625 106.875 C-46.2225 104.565 -46.8825 102.255 -47.5625 99.875 C-48.888965674872914 97.45484209474164 -48.888965674872914 97.45484209474164 -50.4375 95.25 C-54.0864015182235 89.43679905184982 -57.5625 81.86991507240654 -57.5625 74.875 C-56.675625 74.50375 -55.78875 74.1325 -54.875 73.75 C-51.11711389600318 71.622894658115 -49.266411935496436 69.20289161291869 -46.5625 65.875 C-44.922716816500156 64.8315016105001 -43.26155634186456 63.818920189924754 -41.5625 62.875 C-41.2325 62.215 -40.9025 61.55500000000001 -40.5625 60.875 C-39.9025 60.875 -39.2425 60.875 -38.5625 60.875 C-38.08037785554353 59.31340940632023 -37.60194127124669 57.75068072155014 -37.125 56.1875 C-36.858164062499995 55.3173828125 -36.591328125000004 54.447265625 -36.31640625 53.55078125 C-36.067617187500005 52.6677734375 -35.818828124999996 51.784765625000006 -35.5625 50.875 C-35.3291796875 50.1363671875 -35.095859375 49.397734375 -34.85546875 48.63671875 C-34.40467641565273 44.38724967821972 -35.40946185918194 40.52338003071154 -36.3125 36.375 C-36.497158203125 35.491669921875 -36.68181640625 34.60833984375 -36.8720703125 33.6982421875 C-38.339609672216795 26.735667712297847 -39.8961790794333 19.792756549019323 -41.5625 12.875 C-12.902234895191128 -10.69941430332922 -12.902234895191128 -10.69941430332922 0 0 Z " fill="#B4E0B3" transform="translate(82.5625,21.125)"/>
<path d="M0 0 C11.88 0 23.76 0 36 0 C34.88491683547971 3.345249493560882 34.187080578101714 3.84221693017069 31.5 5.9375 C25.168878616716743 11.274383909735164 20.567106399228567 18.14934040115715 16 25 C16 26.98 16 28.96 16 31 C19.96 31.99 23.92 32.98 28 34 C28.164355468750003 35.28970703125 28.164355468750003 35.28970703125 28.33203125 36.60546875 C29.153482976212498 42.72962511534033 30.105274106802757 48.69502633582888 31.625 54.6875 C34.263852039478955 65.87893916230306 32.81169558036683 74.22315787719579 29 85 C28.67 85.99 28.34 86.98 28 88 C26.353600354690663 89.3582797073802 24.687041926071686 90.69254250729445 23 92 C22.67 92.66 22.34 93.32 22 94 C16.00000000000001 96 16.00000000000001 96 0 97 C0 64.99000000000001 0 32.980000000000004 0 0 Z " fill="#3E4921" transform="translate(0,0)"/>
<path d="M0 0 C2.8482470361776677 1.7876235769017228 5.565673930317217 3.673163652874642 8 6 C8 6.66 8 7.32 8 8 C8.556875000000005 8.268124999999998 9.113749999999996 8.536250000000003 9.6875 8.8125 C11.999999999999986 9.999999999999993 11.999999999999986 9.999999999999993 14.5625 11.5625 C17.006547784022843 13.118587643969207 17.006547784022843 13.118587643969207 20 14 C20.123615258897388 18.502257906363873 20.214340625825827 23.003528486658745 20.274658203125 27.507080078125 C20.2998007777027 29.038830605461975 20.333920466082873 30.57046117154401 20.377197265625 32.101806640625 C20.43786941700938 34.30384884086976 20.466208907644784 36.504305742061895 20.48828125 38.70703125 C20.514087677001953 39.39150833129883 20.539894104003906 40.075985412597646 20.566482543945313 40.78120422363281 C20.567626953125 42.721923828125 20.567626953125 42.721923828125 20 46 C17.625732421874986 47.743408203125 17.625732421874986 47.743408203125 15 49 C13.558683748591122 50.59462957249461 13.558683748591122 50.59462957249461 12.5 52.3984375 C11.881249999999994 53.365234375 11.881249999999994 53.365234375 11.25 54.3515625 C10.837500000000006 55.01929687500001 10.424999999999997 55.68703124999999 10 56.375 C7.026782650498035 61.132147759203136 4.130439176457756 65.17934376177658 0 69 C-8.74347367098116 66.18430508900606 -12.811670079818398 62.087809501040326 -17 54 C-21.163166649219818 44.51928981334578 -21.32285375332299 34.43867288809804 -20.875 24.25 C-20.851796875000005 23.1787890625 -20.828593749999996 22.107578125000003 -20.8046875 21.00390625 C-20.52455237402937 13.886723205808572 -19.588132257688414 7.763191949179401 -14.518798828125 2.446533203125 C-9.531488222715865 -1.918614831777635 -6.003422189108861 -2.6353605278962142 0 0 Z " fill="#478B8D" transform="translate(108,24)"/>
<path d="M0 0 C0 19.14 0 38.28 0 58 C-17.819999999999993 58 -35.64 58 -54 58 C-53.34 52.39 -52.68000000000001 46.78 -52 41 C-52.45161254645819 37.444200065242924 -52.86783124232295 34.696780188363434 -53.875 31.375 C-55.99338974928517 23.70779581065173 -56.62813579272111 17.49871197732952 -54.625 9.625 C-54.369765625 8.586015625000002 -54.11453125 7.547031250000003 -53.8515625 6.4765625 C-53 4 -53 4 -51 3 C-48.90234375 3.63671875 -48.90234375 3.63671875 -47 5 C-46.56640625 7.14453125 -46.56640625 7.14453125 -46.5625 9.8125 C-45.948309026616855 20.240097859216036 -41.642441917829814 28.88372705374411 -35.35546875 37.07421875 C-34 39 -34 39 -34 41 C-31.997594505654774 40.681435489535986 -29.99788437874264 40.345787680936226 -28 40 C-27.303906249999997 39.9033203125 -26.607812499999994 39.806640625 -25.890625 39.70703125 C-23.861798968815947 39.184652182085145 -23.861798968815947 39.184652182085145 -23.09375 37.3203125 C-22.8978125 36.595859375 -22.701875 35.87140625000001 -22.5 35.125 C-22.257656249999997 34.3116015625 -22.015312499999993 33.498203125 -21.765625 32.66015625 C-21.51296875 31.7823046875 -21.260312499999998 30.904453125000003 -21 30 C-18.51115424702735 21.91125130283889 -15.097882994606465 15.736079102985613 -10 9 C-9.080405840213672 7.668684058218176 -8.163384735855828 6.335583722520283 -7.25 5 C-3.5 0 -3.5 0 0 0 Z " fill="#8BB39F" transform="translate(128,70)"/>
<path d="M0 0 C3.8272878128429113 7.6545756256858155 3.713442968606614 14.69033373077987 3.625 23.125 C3.6243554687499966 24.308359374999995 3.623710937499993 25.491718750000004 3.623046875 26.7109375 C3.578242481203006 35.452772556391 3.578242481203006 35.452772556391 2.4375 38.875 C-0.055156355139871494 37.99050903527295 -2.3214211510109237 37.030657209583495 -4.546875 35.59375 C-9.736717673740472 32.28108446356991 -13.182307645808763 31.399290840039775 -19.30078125 32.1875 C-21.878922662311638 32.971183745365884 -23.458288075686 34.22393392719072 -25.5625 35.875 C-26.222499999999997 35.875 -26.8825 35.875 -27.5625 35.875 C-27.810000000000002 36.41125 -28.057499999999997 36.9475 -28.3125 37.5 C-29.863349572144678 40.446614187074886 -31.645555576295877 43.15417565667802 -33.5625 45.875 C-33.8925 45.875 -34.2225 45.875 -34.5625 45.875 C-34.8164453125 44.58207031250001 -35.070390625 43.289140625 -35.33203125 41.95703125 C-37.25488259135869 32.22283059988595 -39.23858975706616 22.522748584301105 -41.5625 12.875 C-12.902234895191128 -10.699414303329224 -12.902234895191128 -10.699414303329224 0 0 Z " fill="#7DDDE3" transform="translate(82.5625,21.125)"/>
<path d="M0 0 C1.2985544111644778 2.389340116542641 2.152284957703415 4.443327505414018 3 7 C5.290736768789351 13.820148107077387 7.784311109755784 19.725292187212773 11.828125 25.7109375 C13 28 13 28 13 33 C0.7899999999999991 33 -11.420000000000002 33 -24 33 C-24 22.769999999999996 -24 12.539999999999992 -24 2 C-16.187499999999957 1.0625 -16.187499999999957 1.0625 -13.739013671875 0.773681640625 C-1.7419695587458577 -0.6967878234983402 -1.7419695587458577 -0.6967878234983402 0 0 Z " fill="#B5A064" transform="translate(24,95)"/>
<path d="M0 0 C5.055023885810684 3.336315764635046 8.189108340338151 7.168000193499253 10 13 C11.229841983905416 19.317238362485305 10.908767882023199 24.76593942676554 9.4375 31 C9.163413085937492 32.17357055664063 9.163413085937492 32.17357055664063 8.8837890625 33.370849609375 C7.402801728201453 39.24645266582144 5.75678332451713 44.92897720052767 1 49 C-2.1646187176108924 50.52946209141902 -3.3135101076135385 50.409609988042945 -7 50 C-9.76970765038827 47.84426695191455 -11.433606308248613 45.13278738350277 -13 42 C-13.123009015048595 39.51670891438275 -13.18834887747093 37.06254442636924 -13.203125 34.578125 C-13.211675109863279 33.47171661376953 -13.211675109863279 33.47171661376953 -13.22039794921875 32.34295654296875 C-13.229851329208998 30.779433542398465 -13.23638327441843 29.21589058611648 -13.240234375 27.65234375 C-13.249906189740571 25.273077323820175 -13.280910790201432 22.89468736295518 -13.3125 20.515625 C-13.319033697038947 18.994796783100767 -13.324282727906791 17.47396239809983 -13.328125 15.953125 C-13.346645202636722 14.893424987792969 -13.346645202636722 14.893424987792969 -13.36553955078125 13.81231689453125 C-13.34065691500848 8.22574766965434 -12.024332737296348 4.163941891592643 -8.1875 0.0625 C-4.992131334718792 -1.4895362088508755 -3.361912247227238 -1.0758119191127165 0 0 Z " fill="#1B5D64" transform="translate(107,32)"/>
<path d="M0 0 C9.240000000000009 0 18.480000000000004 0 28 0 C26.804672170384208 7.1719669776948045 24.49844387197369 12.200456755973804 18.9375 17 C14.808642906255415 19.707594739035116 10.768454512727885 19.248822929579397 5.984375 19.0703125 C-4.08649154104517 18.83304077521098 -10.954630637252649 23.393358407926332 -18.24609375 30.05078125 C-23.70636186770428 34.90759727626459 -23.70636186770428 34.90759727626459 -28.0078125 35.21484375 C-30.732023663813713 34.967504884743256 -33.331435045633654 34.593568653401114 -36 34 C-31.186095398643566 20.50683882673984 -17.568542823056177 13.621123662336455 -6.12548828125 6.353515625 C-2.0867933632642632 4.017902328894014 -2.0867933632642632 4.017902328894014 0 0 Z " fill="#7BB89F" transform="translate(66,0)"/>
<path d="M0 0 C-1 5 -2 10 -3 15 C-8.675675675675677 13.486486486486484 -8.675675675675677 13.486486486486484 -10.375 10.9375 C-12.626315218651357 8.253239546992617 -14.607840931859982 8.20495708179422 -17.96484375 7.6875 C-21.128434117054226 8.173272033328857 -22.063380831555385 9.476526538087313 -24 12 C-25.213414140333676 14.7054722251263 -26.11083522263671 17.486226243380955 -27 20.3125 C-28.80776531812512 25.969216201495925 -30.717850403368125 31.016231097929847 -34 36 C-38.97697770887303 38.43969495532991 -42.779277739678086 37.992857720458346 -47.984375 36.80078125 C-50.243899209786164 35.90310205812759 -51.41634899285353 34.81919403669042 -53 33 C-49.89813059666128 29.011882195707358 -47.46231279437467 26.479062663541484 -43 24 C-42.67 23.340000000000003 -42.34 22.680000000000007 -42 22 C-41.34 22 -40.68 22 -40 22 C-39.8182421875 21.370937499999997 -39.636484375 20.741874999999993 -39.44921875 20.09375 C-33.77802305616875 0.7826015861335947 -33.77802305616875 0.7826015861335947 -26 -5.375 C-15.746279848353794 -10.929098415475025 -8.363941607517816 -6.564323023933042 0 0 Z " fill="#9BDFC5" transform="translate(84,60)"/>
<path d="M0 0 C4.289999999999999 0.9899999999999984 8.579999999999998 1.9799999999999969 13 3 C13.268125000000001 5.041874999999997 13.536249999999999 7.083750000000002 13.8125 9.1875 C14.50263963026249 14.112813044750993 15.402760908456258 18.868054861780138 16.625 23.6875 C19.263852039478955 34.87893916230307 17.81169558036683 43.223157877195774 14 54 C13.670000000000002 54.99000000000001 13.34 55.97999999999999 13 57 C11.044028163335213 58.397122740474856 9.045635987610435 59.73779907147441 7 61 C3.62230985838557 53.71870964113424 2.193329097401673 47.02153257599481 1.4375 39.0625 C0.733776877680226 31.966246837510923 -0.2602162580860998 25.33241119396579 -2.357666015625 18.5009765625 C-3.816220687145977 12.821982242826536 -3.7364776221198532 7.7798209201229795 -1.5 2.375 C-1.004999999999999 1.5912500000000023 -0.5099999999999998 0.807500000000001 0 0 Z " fill="#296059" transform="translate(15,31)"/>
<path d="M0 0 C9.899999999999999 0 19.799999999999997 0 30 0 C28.916431238639177 4.3342750454432775 28.773750597000316 4.561492953177917 25.28125 6.76953125 C24.517963867187497 7.26203369140625 23.754677734375 7.7545361328125 22.96826171875 8.261962890625 C22.153735351562503 8.77364013671875 21.339208984375 9.2853173828125 20.5 9.8125 C18.845064914083757 10.888644934072124 17.191402888146484 11.966750331535462 15.5390625 13.046875 C14.352319335937494 13.817412109375 14.352319335937494 13.817412109375 13.1416015625 14.603515625 C4.8373533706896765 20.01850646598895 -0.49666953832119987 25.707515680358654 -6 34 C-11.27315332920498 33.55471149664491 -16.017702242492838 32.916268368271986 -21 31 C-21.687710758535673 22.447378930210924 -15.784373570370175 17.321551751148984 -10.5703125 11.1015625 C-4.513729784366575 4.171243261455524 -4.513729784366575 4.171243261455524 -1 3 C-0.6700000000000017 2.01 -0.3400000000000034 1.02 0 0 Z " fill="#6A9361" transform="translate(36,0)"/>
<path d="M0 0 C2.4749999999999943 0.9899999999999949 2.4749999999999943 0.9899999999999949 5 2 C5.014179687500004 2.643242187499993 5.028359375000008 3.2864843750000006 5.04296875 3.94921875 C5.6514277795394605 15.477050633977314 9.647267719635721 24.958380760548877 16.64453125 34.07421875 C18 36 18 36 18 38 C18.659999999999997 38.33 19.319999999999993 38.66 20 39 C20.88671875 41.8359375 20.88671875 41.8359375 21.6875 45.375 C21.959492187500004 46.537734375 22.231484375000008 47.70046875 22.51171875 48.8984375 C23 52 23 52 22 55 C14.079999999999998 55 6.159999999999997 55 -2 55 C-1.5875000000000057 52.56625 -1.1749999999999972 50.13249999999999 -0.75 47.625 C0.44341599935404474 39.19329250941814 -0.842772130949129 32.16425586923023 -3.0546875 24.0234375 C-4.623323775473082 17.963222343128763 -4.14706387264313 12.644826386979162 -2.5625 6.625 C-2.295664062499995 5.586015625000002 -2.028828125000004 4.547031250000003 -1.75390625 3.4765625 C-1 1 -1 1 0 0 Z " fill="#9FCCA0" transform="translate(76,73)"/>
<path d="M0 0 C0.3299999999999983 0 0.6599999999999966 0 1 0 C1.1211718750000017 0.9783984374999974 1.2423437500000034 1.956796875000002 1.3671875 2.96484375 C2.6876960418048554 13.410199700377547 3.892025570812976 22.681937271756482 9 32 C9.288749999999993 32.69480468750001 9.5775 33.38960937499999 9.875 34.10546875 C11.684843385397045 37.153295284435984 14.042464598751977 37.743177591055996 17.359375 38.6328125 C18.148281249999997 38.79523437500001 18.937187499999993 38.95765625 19.75 39.125 C20.549218749999994 39.292578125000006 21.348437500000003 39.46015625 22.171875 39.6328125 C22.775156249999995 39.753984375 23.378437500000004 39.87515625 24 40 C23.433417183661604 42.254276311814465 22.846053638083475 44.50333628722382 22.25 46.75 C21.92515625 48.00296875000001 21.6003125 49.2559375 21.265625 50.546875 C19.96744958586507 54.08881038918298 18.930348532936648 55.69124054980749 16 58 C12.750000000000014 59.25 12.750000000000014 59.25 10 60 C1.5229832236770733 52.24958466164762 -4.00504148093998 41.6651604308384 -5.48828125 30.23828125 C-5.860164748514322 19.559912221231656 -3.272733758561671 10.09872131213315 0 0 Z " fill="#69A991" transform="translate(86,52)"/>
<path d="M0 0 C11.88 0 23.76 0 36 0 C34.88491683547971 3.345249493560882 34.187080578101714 3.84221693017069 31.5 5.9375 C25.40487623133167 11.088154139649454 20.15406789747696 17.73831310849572 16.55078125 24.8671875 C16.0390234375 25.571015625 15.527265625 26.27484375 15 27 C10.000000000000002 27 10.000000000000002 27 0 23 C0 15.41 0 7.8199999999999985 0 0 Z " fill="#606722" transform="translate(0,0)"/>
<path d="M0 0 C1.2123632812499991 0.040605468750001705 1.2123632812499991 0.040605468750001705 2.44921875 0.08203125 C3.0641015624999994 0.11683593749999943 3.678984374999999 0.15164062499999886 4.3125 0.1875 C0.6875 5.9375 0.6875 5.9375 -2.6875 8.1875 C-5.3750000000000036 7.8125 -5.3750000000000036 7.8125 -7.6875 7.1875 C-7.6875 3.1875 -7.6875 3.1875 -6.48046875 1.44921875 C-4.169962191872031 -0.1766932723863448 -2.7964128948344396 -0.12158316934062441 0 0 Z " fill="#6AA991" transform="translate(30.6875,87.8125)"/>
</svg>
