<?xml version="1.0" encoding="UTF-8"?>
<!-- Generator: visioncortex VTracer 0.6.0 -->
<svg version="1.1" xmlns="http://www.w3.org/2000/svg" width="128" height="128">
<path d="M0 0 C42.24 0 84.48 0 128 0 C128 42.24 128 84.48 128 128 C85.75999999999999 128 43.519999999999996 128 0 128 C0 85.75999999999999 0 43.519999999999996 0 0 Z " fill="#7F9797" transform="translate(0,0)"/>
<path d="M0 0 C42.24 0 84.48 0 128 0 C128 20.790000000000003 128 41.580000000000005 128 63 C125.19081139026306 63.93639620324564 122.53260605857643 64.52479203026326 119.625 65.0625 C118.689140625 65.2391015625 117.75328125 65.415703125 116.7890625 65.59765625 C115.868671875 65.7304296875 114.94828125 65.863203125 114 66 C113.182734375 66.1224609375 112.36546875 66.244921875 111.5234375 66.37109375 C107.1416260712036 65.72670971635347 104.36028374198776 62.72886672238154 101.71875 59.37158203125 C100.89567565167374 58.21578251567166 100.08065421258448 57.05421201867182 99.273193359375 55.887451171875 C94.21673038412457 48.63969264071548 89.87551930200345 45.42585662996821 81.38671875 42.4375 C76.6698312639655 40.43540704168317 73.50121814160707 37.42421726910501 69.890625 33.85546875 C68.12890581024223 31.93640663295852 68.12890581024223 31.93640663295852 66 31 C66 30.34 66 29.68 66 29 C64.33694159796485 28.324382524173224 62.66905395005078 27.660667188561767 61 27 C59.1746875 26.2575 59.1746875 26.2575 57.3125 25.5 C54.1556987564921 24.29228437274887 51.14797064801739 23.65113078674084 47.8125 23.125 C43.10387343812564 22.29703049752974 41.287517033072085 20.475375149247633 38 17 C31.479259409574325 17.5579828357579 25.270164775645956 21.365150119832606 21.0546875 26.2578125 C15.774208570032776 33.98720919458971 15.043822733771455 41.00501747413529 16.5 50.1875 C17.536081631614504 54.50091269623427 19.63262539979072 57.54115131263547 22.07421875 61.21484375 C27.115741109993166 69.47845600091017 26.844588050172284 76.96620124821081 26.3125 86.375 C25.316832230590638 99.10553891619497 25.316832230590638 99.10553891619497 29 111 C31.30115533046411 113.62096098376583 31.30115533046411 113.62096098376583 34 115.6875 C37.493184528349545 118.53091062054642 39.99863666370704 120.924855575114 42 125 C42 125.99 42 126.98 42 128 C28.14 128 14.279999999999998 128 0 128 C0 85.75999999999999 0 43.519999999999996 0 0 Z " fill="#93B1AD" transform="translate(0,0)"/>
<path d="M0 0 C8.46873175458991 0.5032647968916137 15.979486749312315 1.9540061010682237 23 7 C23 7.66 23 8.32 23 9 C23.590390624999998 9.262968749999999 24.180781249999995 9.525937499999998 24.7890625 9.796875 C27.09405196874681 11.05118022327565 28.53078554637449 12.397440684593377 30.375 14.25 C33.968488006494255 17.51865293246088 37.711467701506166 19.3106293982612 42.1875 21.0625 C51.48249803881875 24.868169079130503 51.48249803881875 24.868169079130503 54 30 C54.961838949340205 35.47253195314253 54.93523048476224 40.323880407249675 51.8125 45.0625 C49.64042781733508 47.882746103841114 47.327058608311035 48.83133571573612 44 50 C44.108281250000005 51.43279296874999 44.108281250000005 51.43279296874999 44.21875 52.89453125 C44.65753104332231 59.00699495072615 45.08552107996002 65.12316022851093 45.25 71.25 C45.275781249999994 72.10078125 45.3015625 72.9515625 45.328125 73.828125 C45 76 45 76 43.91796875 77.6015625 C41.17764977630071 79.59959547878685 38.179960016597846 80.84455718616518 35.0625 82.125 C34.44181640625 82.3892578125 33.8211328125 82.653515625 33.181640625 82.92578125 C30.143396139926836 84.20061439922132 27.18940001251869 85.2109210652228 24 86 C22.624642355512123 86.45350801631744 21.254921032731602 86.9243841777395 19.890625 87.41015625 C19.136523437500003 87.67763671875 18.382421875 87.9451171875 17.60546875 88.220703125 C16.8281640625 88.49849609375 16.050859375 88.7762890625 15.25 89.0625 C14.060839843750003 89.484990234375 14.060839843750003 89.484990234375 12.84765625 89.916015625 C10.897847696894267 90.60901986977855 8.94884410550813 91.30428818504241 7 92 C1.8097013543118905 84.7436601458341 -1.5547420318664251 78.63387709839593 -2.6875 69.75 C-3.4412346014004527 64.92345386822517 -5.096519971787089 62.22760750995627 -8.0625 58.375 C-13.05234919737384 51.42163613651155 -13.009384310585098 45.34913271889155 -12.97021484375 37.10302734375 C-13.016133918819904 33.86083953512579 -13.408069414901309 30.659936726233113 -13.75 27.4375 C-14.309763375139443 19.274284112549786 -12.706560100272135 14.834934573880219 -7.5625 8.5625 C-5.172448330440957 5.83024853882624 -3.6196726554530017 4.56482804074102 0 4 C0 2.6799999999999997 0 1.3599999999999994 0 0 Z " fill="#597F8A" transform="translate(43,22)"/>
<path d="M0 0 C10.89 0 21.78 0 33 0 C33.99 3.3000000000000003 34.98 6.6000000000000005 36 10 C36.65629516285773 12.003427339249914 37.317606455751566 14.005311178350741 38 16 C37.058984375 16.4125 36.11796875 16.825 35.1484375 17.25 C26.26880231349368 21.303384621156944 20.87498650421766 24.857983377353186 16.625 33.9375 C14.973389043707513 42.03039368583319 15.329798878467617 50.86245023677612 19.885498046875 57.921630859375 C20.60777587890625 59.00839111328125 21.3300537109375 60.0951513671875 22.07421875 61.21484375 C27.115741109993166 69.47845600091017 26.844588050172284 76.96620124821081 26.3125 86.375 C25.316832230590638 99.10553891619497 25.316832230590638 99.10553891619497 29 111 C31.30115533046411 113.62096098376583 31.30115533046411 113.62096098376583 34 115.6875 C37.493184528349545 118.53091062054642 39.99863666370704 120.924855575114 42 125 C42 125.99 42 126.98 42 128 C28.14 128 14.279999999999998 128 0 128 C0 85.75999999999999 0 43.519999999999996 0 0 Z " fill="#99E2E0" transform="translate(0,0)"/>
<path d="M0 0 C2.620773185822017 2.0383791445282355 3.8145823823439997 3.258329529376013 4.625 6.5 C3.6851365626405794 10.259453749437675 1.2216653431664994 10.994057427839728 -2 13 C-5.825335866397722 16.91227531790676 -8.484051540231775 20.49005984473932 -9 26 C-8.91547719077877 29.37201523103647 -8.656708832574985 32.68960540629908 -8.328125 36.046875 C-8.096209399848881 38.84090580182061 -7.971756612936577 41.476961458983894 -7.984375 44.265625 C-7.941974715793798 53.47889651202544 -6.72369086897038 58.52773864390869 -0.92578125 66.03515625 C1.8759326440676318 70.34854538914266 2.4345372695257055 74.64965607516928 3.29296875 79.65625 C4.476673070698482 85.25432126252981 6.897316960058532 90.48716397202057 10.58203125 94.890625 C12.407310393280191 97.60591628752425 12.723977584354266 99.90015174072113 13.1875 103.125 C13.3460546875 104.179453125 13.504609375000001 105.23390625 13.66796875 106.3203125 C14 109.00000000000003 14 109.00000000000003 14 111 C10.369999999999997 111 6.739999999999995 111 3 111 C2.5462500000000006 109.865625 2.092500000000001 108.73125 1.625 107.5625 C-0.772701685875063 102.65456911230629 -4.411301896712146 99.7911624266311 -8.66015625 96.46875 C-13.356995766687874 91.51315304750128 -14.166103716924702 87.0358904420759 -14.070419311523438 80.38287353515625 C-13.947543220748742 75.96725557491267 -13.81070548960966 71.55361622052513 -13.561279296875 67.14306640625 C-12.99772224018065 56.54632688472182 -14.184162875374483 49.844591687013235 -20.114501953125 40.921630859375 C-22.622738030823232 37.035050367103246 -23.61405498943035 33.562727680512296 -24 29 C-24.0683203125 28.25234375 -24.136640625 27.504687500000003 -24.20703125 26.734375 C-24.530549483518307 19.688866803379057 -22.76830329853926 14.000278335647117 -18.5 8.375 C-14.284899803561938 3.778634459160507 -6.434431069570323 -2.7297586355752887 0 0 Z " fill="#86B0A7" transform="translate(39,17)"/>
<path d="M0 0 C7.197308843189667 3.5135249621592557 12.366886499973603 8.873383812443912 15.75 16.0625 C15.75 16.722499999999997 15.75 17.3825 15.75 18.0625 C16.409999999999997 18.0625 17.07 18.0625 17.75 18.0625 C21.28906728384264 22.938726189728897 24.245604007363823 28.011289629946255 25.6875 33.875 C23.969971258318992 39.71459772171542 19.456450270918822 42.55121816871893 14.30859375 45.42578125 C8.667527060921962 47.9947177234299 3.73141675969854 49.06351645668035 -2.25 47.0625 C-9.002889882661847 43.67985974685013 -13.536203237750819 38.04350822288928 -16.25 31.0625 C-17.751488464262096 23.555057678689522 -18.503594046937067 15.752898772131516 -14.25 9.0625 C-6.207136794454662 -1.7905202291696156 -6.207136794454662 -1.7905202291696156 0 0 Z " fill="#1F6D8B" transform="translate(46.25,25.9375)"/>
<path d="M0 0 C0.9938671875000011 0.009023437500005116 1.9877343750000023 0.01804687499999602 3.01171875 0.02734375 C4.150605468750001 0.04474609375000682 4.150605468750001 0.04474609375000682 5.3125 0.0625 C5.861897722762478 6.782811430219525 6.381758604014479 13.50834592974006 6.5625 20.25 C6.588281249999994 21.109804687500002 6.614062500000003 21.969609375000005 6.640625 22.85546875 C6.3125 25.0625 6.3125 25.0625 5.23046875 26.66796875 C2.4886548533388435 28.66150757099396 -0.5086508979793507 29.907513475124645 -3.625 31.1875 C-4.245683593750002 31.451757812500006 -4.866367187500003 31.716015624999997 -5.505859375 31.98828125 C-8.544103860073164 33.26311439922132 -11.49809998748131 34.273421065222806 -14.6875 35.0625 C-16.06285764448789 35.51600801631744 -17.432578967268398 35.98688417773951 -18.796875 36.47265625 C-19.550976562499997 36.740136718749994 -20.305078125 37.0076171875 -21.08203125 37.283203125 C-22.247988281250002 37.699892578125 -22.247988281250002 37.699892578125 -23.4375 38.125 C-24.626660156249997 38.547490234375005 -24.626660156249997 38.547490234375005 -25.83984375 38.978515625 C-27.789652303105733 39.671519869778535 -29.73865589449187 40.366788185042395 -31.6875 41.0625 C-38.36867471619397 31.72182855211716 -41.0746136718565 24.559402155519564 -41.6875 13.0625 C-40.68783203125 13.023828124999994 -40.68783203125 13.023828124999994 -39.66796875 12.984375 C-28.526968892971873 12.298775008798273 -20.193626602754286 8.791222563206759 -11 2.55078125 C-7.244668990888613 0.1339212593387913 -4.365593801781785 -0.05135992707978687 0 0 Z " fill="#6C837B" transform="translate(81.6875,72.9375)"/>
<path d="M0 0 C10.89 0 21.78 0 33 0 C33.99 3.3000000000000003 34.98 6.6000000000000005 36 10 C36.65629516285773 12.003427339249914 37.317606455751566 14.005311178350741 38 16 C37.058984375 16.4125 36.11796875 16.825 35.1484375 17.25 C26.26880231349368 21.303384621156944 20.87498650421766 24.857983377353186 16.625 33.9375 C15.25182767626864 40.666044386283666 16.01988531594635 47.26171154713116 17 54 C16.443125 53.806640625 15.88625 53.61328125 15.3125 53.4140625 C14.549375 53.153671875 13.786249999999999 52.89328125 13 52.625 C11.88625 52.2421484375 11.88625 52.2421484375 10.75 51.8515625 C7.208643347139867 50.75494921829047 3.5965692976539176 49.89914232441348 0 49 C0 32.83 0 16.659999999999997 0 0 Z " fill="#97DCEF" transform="translate(0,0)"/>
<path d="M0 0 C15.180000000000007 0 30.36 0 46 0 C46 11.22 46 22.44 46 34 C16.474086348154287 29.78201233545061 16.474086348154287 29.78201233545061 7.7001953125 18.298828125 C0 7.14524647887324 0 7.14524647887324 0 0 Z " fill="#C6D5C5" transform="translate(82,0)"/>
<path d="M0 0 C0.8752734374999989 0.14824218750000284 1.7505468749999977 0.2964843750000057 2.65234375 0.44921875 C5.640425932727226 1.5195042643966303 6.529587556817177 2.5611186917231237 8.0625 5.3125 C8.801623080556269 8.412233229309635 8.728394622368938 11.199706884322993 8.0625 14.3125 C6.7671047334847145 16.288181459936837 5.392614867298121 17.804392790521746 3.66796875 19.4140625 C1.4061089937393945 21.900814160146552 1.4061089937393945 21.900814160146552 -0.9375 28.3125 C-13.477499999999992 28.3125 -26.0175 28.3125 -38.9375 28.3125 C-39.77694178293467 24.954732868261317 -40.214381688684284 21.989919735788618 -40.5 18.5625 C-40.5837890625 17.577656250000004 -40.667578125 16.592812500000008 -40.75390625 15.578125 C-40.8144921875 14.830468749999994 -40.875078125 14.082812500000003 -40.9375 13.3125 C-37.03125 11.84765625 -33.125 10.3828125 -29.21875 8.91796875 C-28.511860351562504 8.652744140625003 -27.804970703125008 8.387519531250007 -27.07666015625 8.1142578125 C-25.654833961958445 7.58135696542702 -24.232634992224064 7.0494496206923 -22.81005859375 6.5185546875 C-19.04523896815722 5.112192314964517 -15.293409590123204 3.6822177222260137 -11.5625 2.1875 C-10.313398437499998 1.6886328125000034 -10.313398437499998 1.6886328125000034 -9.0390625 1.1796875 C-5.376938909470169 -0.3314490001814505 -3.9980121233031696 -0.7338495086826669 0 0 Z " fill="#778D99" transform="translate(91.9375,99.6875)"/>
<path d="M0 0 C1.449526015366839 2.899052030733671 0.978622405880202 5.398889096929722 0.875 8.625 C0.7568476215747815 16.771072169807184 0.7568476215747815 16.771072169807184 4 24 C6.44148253475829 26.425041574928272 8.956333198524767 28.651955743442045 11.625 30.82421875 C14.075193336767825 33.06888600095343 15.539431623683683 35.02601373375066 17 38 C17 38.99000000000001 17 39.97999999999999 17 41 C3.1400000000000006 41 -10.720000000000002 41 -25 41 C-25 32.75 -25 24.5 -25 16 C-17.999999999999996 14 -17.999999999999996 14 -14 14 C-14 13.340000000000003 -14 12.680000000000007 -14 12 C-12.460937499999998 10.95703125 -12.460937499999998 10.95703125 -10.375 9.8125 C-5.98803789659237 7.205301881604726 -3.068630117718584 4.033388828971013 0 0 Z " fill="#9CD6D4" transform="translate(25,87)"/>
<path d="M0 0 C16.17 0 32.34 0 49 0 C49.99000000000001 2.97 50.97999999999999 5.94 52 9 C53.78292267416458 12.184656093797033 53.78292267416458 12.184656093797033 55.75 14.9375 C57.67187499999997 17.714843749999964 57.67187499999997 17.714843749999964 59 20 C58 22 58 22 55.625 22.9375 C49.366074489300786 23.04541250880516 44.03599162151494 19.489533389305763 38.5 16.7734375 C27.631857853010217 12.277390599906013 15.53239952372364 13.652155002764717 4 14 C3.3215786144405968 12.609841892983193 2.6577710003267256 11.212547302778756 2 9.8125 C1.6287499999999966 9.0351953125 1.2575000000000003 8.257890625 0.875 7.45703125 C0 5 0 5 0 0 Z " fill="#ADBAA6" transform="translate(33,0)"/>
<path d="M0 0 C1.9621353844505194 0.8904451287259363 1.9621353844505194 0.8904451287259363 4.115234375 1.548828125 C7.577020965086803 2.841670449341578 9.464287953006618 3.7913486855899237 11.05029296875 7.228515625 C11.8611208173227 10.17521997474693 12.443559654266323 13.085339871235817 12.9521484375 16.0986328125 C13.154531249999991 17.1298828125 13.35691406250001 18.1611328125 13.5654296875 19.2236328125 C14.058827412119626 21.76110682482951 14.519565488074974 24.300210319269638 14.9521484375 26.8486328125 C12.9521484375 27.8486328125 12.9521484375 27.8486328125 10.4833984375 27.1689453125 C3.4077782854687655 24.3788167473949 -1.6455044767276945 21.057399219953837 -7.0869140625 15.7392578125 C-8.910082785155424 13.792992531044863 -8.910082785155424 13.792992531044863 -11.0478515625 12.8486328125 C-11.0478515625 12.1886328125 -11.0478515625 11.5286328125 -11.0478515625 10.8486328125 C-12.710909964535148 10.173015336673224 -14.378797612449219 9.509300001061767 -16.0478515625 8.8486328125 C-17.2647265625 8.353632812500003 -18.481601562500003 7.858632812499998 -19.7353515625 7.3486328125 C-22.892152806007886 6.1409171852488775 -25.899880914482623 5.499763599240836 -29.2353515625 4.9736328125 C-33.83458869495302 4.130321227350677 -36.21371729520533 2.7219496444693903 -39.0478515625 -1.1513671875 C-39.0478515625 -2.141367187500002 -39.0478515625 -3.1313671875000004 -39.0478515625 -4.1513671875 C-25.2294764504787 -6.784474886011145 -12.828508007248828 -5.7240920481094975 0 0 Z " fill="#819592" transform="translate(77.0478515625,18.1513671875)"/>
<path d="M0 0 C2.620773185822017 2.0383791445282355 3.8145823823439997 3.258329529376013 4.625 6.5 C3.6851365626405794 10.259453749437675 1.2216653431664994 10.994057427839728 -2 13 C-5.820930159182069 16.907769480981656 -8.494855365365275 20.491980618502126 -9 26 C-8.876945012908152 29.370827682123192 -8.600303625766344 32.70741684309492 -8.29296875 36.06640625 C-7.7984128915472475 42.7066429094923 -7.922222086066757 49.34566736348921 -8 56 C-12.87084812227991 53.181866443538055 -15.560159469805804 50.302261562373715 -18.25 45.3125 C-18.59353515625 44.68964111328125 -18.9370703125 44.0667822265625 -19.291015625 43.425048828125 C-21.823167620575706 38.67726383642055 -23.546757006617113 34.358339388437656 -24 29 C-24.0683203125 28.25234375 -24.136640625 27.504687500000003 -24.20703125 26.734375 C-24.530549483518307 19.688866803379057 -22.76830329853926 14.000278335647117 -18.5 8.375 C-14.284899803561938 3.778634459160507 -6.434431069570323 -2.7297586355752887 0 0 Z " fill="#59AAC5" transform="translate(39,17)"/>
<path d="M0 0 C0 8.25 0 16.5 0 25 C-12.210000000000008 25 -24.42 25 -37 25 C-35.022994243456566 17.091976973826235 -31.551304881294058 12.664529075481369 -25 8 C-16.886950202229755 3.2410701186233553 -9.493117331972499 0 0 0 Z " fill="#ACB8B2" transform="translate(128,103)"/>
<path d="M0 0 C0.6084375000000009 0.7708593750000006 1.2168750000000017 1.5417187500000011 1.84375 2.3359375 C4.078307394718053 5.096749353619046 6.425602763081741 7.554322624927664 9 10 C9.5775 10.5775 10.155000000000001 11.155000000000001 10.75 11.75 C15.150379128629844 14.194655071461028 19.653947668769646 14.580167500767942 24.52734375 13.375 C30.41977728772477 11.195979893599471 35.20357460959494 8.019350885814305 40 4 C40 4.659999999999997 40 5.319999999999993 40 6 C40.66 6.329999999999998 41.31999999999999 6.659999999999997 42 7 C42.59355613614741 9.64860426790311 42.742092687737596 12.291973221244717 43 15 C33.0215692914995 21.929465769792017 22.80949955789488 28.28883605107852 10.1875 27.875 C4.934343505008492 24.784907944122637 2.1944223694626857 20.642800378618333 0 15 C-0.7570646221680661 10.005339895306776 -0.42659417794408583 5.0175600929614035 0 0 Z " fill="#427C86" transform="translate(31,59)"/>
</svg>
