<?xml version="1.0" encoding="UTF-8"?>
<!-- Generator: visioncortex VTracer 0.6.0 -->
<svg version="1.1" xmlns="http://www.w3.org/2000/svg" width="128" height="128">
<path d="M0 0 C42.24 0 84.48 0 128 0 C128 42.24 128 84.48 128 128 C85.75999999999999 128 43.519999999999996 128 0 128 C0 85.75999999999999 0 43.519999999999996 0 0 Z " fill="#89A395" transform="translate(0,0)"/>
<path d="M0 0 C1.210429687499996 0.9609960937500013 1.210429687499996 0.9609960937500013 2.4453125 1.94140625 C6.425764045500216 4.993631783517998 10.437221923130522 7.677683910424562 14.751708984375 10.234619140625 C23.310898500335796 15.33247986848388 29.046510773773093 19.638204025093806 32.4453125 29.31640625 C35.66312797531319 42.18766815125275 32.09791394790719 53.5030889571635 26.26953125 65.08984375 C23.82623184422316 69.11691052303935 20.845917414994318 72.75750778402023 17.984375 76.4921875 C16.150187594962745 79.10159775854747 14.791041318763519 81.83162637048174 13.42578125 84.70703125 C10.758564737697455 90.30940383291858 7.026875074974072 95.36940067746569 3.5703125 100.50390625 C-0.7170400873223173 99.81423261655014 -2.6329667610540923 98.92212048648945 -5.4296875 95.50390625 C-5.4296875 94.84390625 -5.4296875 94.18390625 -5.4296875 93.50390625 C-6.454492187499994 93.18486328124999 -6.454492187499994 93.18486328124999 -7.5 92.859375 C-11.341100089053498 91.08222602546458 -14.149986183153189 88.60321484662201 -17.3046875 85.81640625 C-18.238854980468744 84.99849609374999 -18.238854980468744 84.99849609374999 -19.19189453125 84.1640625 C-20.945780956491006 82.619355189696 -22.68895523424147 81.0634013418973 -24.4296875 79.50390625 C-25.151562499999997 78.8683984375 -25.8734375 78.232890625 -26.6171875 77.578125 C-31.073590130917893 73.42087902717613 -34.164972004862335 68.53700946335402 -37.4453125 63.42578125 C-39.21122494372898 60.825579462777014 -41.03732783816048 58.60525204256359 -43.1796875 56.31640625 C-48.61487822476772 50.322805519263 -51.161441618395685 43.55128269812951 -51.4296875 35.50390625 C-50.36881916984542 30.94217243033531 -47.950410431534735 28.51119042068592 -44.4296875 25.50390625 C-42.880202091609455 24.565407983106255 -41.31610958163868 23.650819461357678 -39.7421875 22.75390625 C-30.550579310001282 17.40234770382297 -23.63466274526506 9.880982423462186 -16.8515625 1.7890625 C-11.74276421929045 -3.03133587776626 -6.0112408534590145 -3.7014553808276602 0 0 Z " fill="#366C8C" transform="translate(77.4296875,27.49609375)"/>
<path d="M0 0 C4.39058731731059 1.8924945333235321 6.952280785595846 3.867901064469919 10.125 7.375 C14.013330163014956 11.463849431511235 18.504321915073845 13.312624425412778 23.6328125 15.515625 C27.8254284461741 17.36387796931109 31.772192416872812 19.54778236027974 35.7578125 21.80078125 C38.65977978464805 23.35287873499469 40.69127408690234 24 44 24 C44 23.340000000000003 44 22.68 44 22 C44.66 22 45.31999999999999 22 46 22 C47.5331781229136 23.68155019932459 48.88441432775643 25.468700705870305 50.26953125 27.2734375 C52.257088859738474 29.482619994183203 52.257088859738474 29.482619994183203 57 31 C57 56.74000000000001 57 82.48 57 109 C41.489999999999995 109 25.97999999999999 109 10 109 C11.722089079342467 104.69477730164385 13.449007126983318 101.79004655419621 16 98 C16.803401602806844 96.56902542799723 17.59427115910077 95.13096972191981 18.375 93.6875 C21.438287173246593 88.09817909619929 24.74457351414604 82.57569704684524 28.953125 77.76953125 C31.579853689612023 74.21542697340662 33.075161398948254 70.52981910724463 34.6875 66.4375 C34.99494140625001 65.68275390625 35.3023828125 64.9280078125 35.619140625 64.150390625 C39.49905916333407 54.514269091063085 40.5203536545649 45.367248725198834 37.0078125 35.3359375 C33.17995641050105 26.463619897207863 26.94649177256892 22.83180065096972 18.8359375 18.25 C14.413041900394063 15.72765318015518 10.444708099557118 12.70005194656681 6.46484375 9.53125 C3.463827753281379 7.666910426761174 1.5383867186185682 7.106019077711416 -2 7 C-8.59047305826622 8.834461572919462 -12.026980337093192 12.76078329367995 -16.4375 17.8125 C-22.73973544441469 24.95766766686514 -29.111322594436025 31.190566826186867 -38 35 C-38.66 35 -39.32 35 -40 35 C-40.68620031395422 36.32338631976885 -41.34786460988476 37.65949947587423 -42 39 C-42.391875 39.7425 -42.78375 40.485 -43.1875 41.25 C-44.978744037009236 47.312672125262026 -43.183096579635034 51.969606733843534 -40.4375 57.375 C-39.75494140625 58.6241015625 -39.75494140625 58.6241015625 -39.05859375 59.8984375 C-38 62 -38 62 -38 64 C-36.515 64.495 -36.515 64.495 -35 65 C-33.42187499999999 66.96875 -33.42187499999999 66.96875 -31.75 69.5 C-23.266096075611728 81.99415262814323 -12.851249539417665 95.07437523029117 1 102 C1 102.66 1 103.32 1 104 C1.990000000000009 104.33 2.980000000000004 104.66 4 105 C4.659999999999997 106.32 5.319999999999993 107.64 6 109 C-3.569999999999993 109 -13.14 109 -23 109 C-23.659999999999997 105.7 -24.32 102.4 -25 99 C-26.131918127808362 96.31368726006043 -27.2537572283615 93.85885787500027 -28.625 91.3125 C-28.983439941406253 90.6331640625 -29.3418798828125 89.953828125 -29.711181640625 89.25390625 C-30.451668045421606 87.85057162893338 -31.195554777717454 86.44902583972693 -31.94287109375 85.04931640625 C-32.93627315689288 83.1235388270303 -33.832997094455486 81.18143104243833 -34.70703125 79.19921875 C-38.84430212198593 70.16661301512433 -44.37039282662799 64.1702153453317 -52.009521484375 57.8046875 C-57.94007420434231 52.71580857127114 -61.03369772278546 47.63439489581715 -62.365234375 39.870361328125 C-62.68983293381183 34.455285780405575 -60.753144438922774 30.48185093546425 -58.25 25.875 C-57.901953125 25.1982421875 -57.55390625 24.521484375 -57.1953125 23.82421875 C-52.135374493927124 14.135374493927124 -52.135374493927124 14.135374493927124 -49 11 C-47.24999999999999 11.05078125 -47.24999999999999 11.05078125 -45 11.3125 C-43.77796875 11.45365234375 -43.77796875 11.45365234375 -42.53125 11.59765625 C-40.10855786299729 11.982744660665553 -37.85727362049606 12.581829132218544 -35.5 13.25 C-30.525242015134978 14.428232154310138 -26.48489864452209 13.350519169117 -22 11 C-20.994001362470748 10.006034838996214 -19.992882831086312 9.007066871530402 -19 8 C-18.340000000000003 8 -17.68 8 -17 8 C-16.67 7.009999999999998 -16.340000000000003 6.02 -16 5 C-11.411565565581633 0.15210052315916656 -6.494145061189002 -1.2248743353844027 0 0 Z " fill="#62808C" transform="translate(71,19)"/>
<path d="M0 0 C2.97 0 5.94 0 9 0 C9.17015625 0.796640625000002 9.3403125 1.5932812499999969 9.515625 2.4140625 C9.75796875 3.473671875000001 10.0003125 4.533281250000002 10.25 5.625 C10.48203125 6.669140624999997 10.7140625 7.713281250000001 10.953125 8.7890625 C13.008960297655456 15.094646883107401 16.74007645031426 18.836544345955502 21.635009765625 23.047119140625 C29.927035453919963 30.213504495382523 34.94351155174359 36.96653000902431 39.1455078125 47.021484375 C40.58825854743012 50.362070648106766 42.2754014842645 53.57707848342517 43.9375 56.8125 C47.03831775846084 62.950565221190146 48 65.80649633923633 48 73 C32.16 73 16.32 73 0 73 C0 48.91 0 24.819999999999993 0 0 Z " fill="#6EAC9F" transform="translate(0,55)"/>
<path d="M0 0 C18.150000000000006 0 36.30000000000001 0 55 0 C55 16.5 55 33 55 50 C49.3425814234017 48.86851628468034 49.3425814234017 48.86851628468034 46.6875 46.0625 C46.17574218749999 45.5378515625 45.663984375 45.013203125 45.13671875 44.47265625 C44 42.99999999999999 44 42.99999999999999 44 41 C43.34 41 42.68000000000001 41 42 41 C42 41.66 42 42.32 42 43 C37.593222093408414 44.30287346803578 37.593222093408414 44.30287346803578 34.96484375 42.9609375 C34.2958203125 42.437578125 33.626796875 41.91421875 32.9375 41.375 C29.356772711192562 38.78825386494179 25.919703629392515 37.00565156501936 21.8125 35.375 C14.26965583260828 32.35595757441518 8.960121455418658 28.208126881641892 3.05078125 22.70703125 C-0.4060989119395657 19.82959004853792 -3.357498052304365 19.886558800615344 -7.6875 19.9375 C-8.681367187500001 19.9465234375 -9.675234375000002 19.955546875 -10.69921875 19.96484375 C-11.458476562500003 19.9764453125 -12.217734375 19.988046875 -13 20 C-12.13375 19.01 -11.267499999999998 18.02 -10.375 17 C-8.098073013565369 14.328261445846305 -5.855452982002333 11.636121715576827 -3.6875 8.875 C-3.1963671875000017 8.253671875 -2.7052343750000034 7.63234375 -2.19921875 6.9921875 C-0.6377176212648408 4.6519228471702 -0.6377176212648408 4.6519228471702 0 0 Z " fill="#7AAE9B" transform="translate(73,0)"/>
<path d="M0 0 C5.433836541546569 1.9453134818736721 8.60219978798483 5.469599717313109 12 10 C8.515234938468964 10.316796823775547 6.897310229724042 9.94962388627972 3.6875 8.375 C-0.09581545726777563 6.96427220237473 -2.001893790845486 6.913440214630306 -5.848388671875 7.99267578125 C-10.14598291817385 10.004689154701612 -12.95376278364784 13.709939172403253 -16 17.25 C-22.467417331842 24.61426621965603 -28.84649516922618 31.077069358239797 -38 35 C-38.66 35 -39.32 35 -40 35 C-40.68620031395422 36.32338631976885 -41.34786460988476 37.65949947587423 -42 39 C-42.391875 39.7425 -42.78375 40.485 -43.1875 41.25 C-44.978744037009236 47.312672125262026 -43.183096579635034 51.969606733843534 -40.4375 57.375 C-39.75494140625 58.6241015625 -39.75494140625 58.6241015625 -39.05859375 59.8984375 C-38 62 -38 62 -38 64 C-36.515 64.495 -36.515 64.495 -35 65 C-33.42187499999999 66.96875 -33.42187499999999 66.96875 -31.75 69.5 C-23.266096075611728 81.99415262814323 -12.851249539417665 95.07437523029117 1 102 C1 102.66 1 103.32 1 104 C1.990000000000009 104.33 2.980000000000004 104.66 4 105 C4.659999999999997 106.32 5.319999999999993 107.64 6 109 C-3.569999999999993 109 -13.14 109 -23 109 C-23.659999999999997 105.7 -24.32 102.4 -25 99 C-26.131918127808362 96.31368726006043 -27.2537572283615 93.85885787500027 -28.625 91.3125 C-28.983439941406253 90.6331640625 -29.3418798828125 89.953828125 -29.711181640625 89.25390625 C-30.451668045421606 87.85057162893338 -31.195554777717454 86.44902583972693 -31.94287109375 85.04931640625 C-32.93627315689288 83.1235388270303 -33.832997094455486 81.18143104243833 -34.70703125 79.19921875 C-38.84430212198593 70.16661301512433 -44.37039282662799 64.1702153453317 -52.009521484375 57.8046875 C-57.94007420434231 52.71580857127114 -61.03369772278546 47.63439489581715 -62.365234375 39.870361328125 C-62.68983293381183 34.455285780405575 -60.753144438922774 30.48185093546425 -58.25 25.875 C-57.901953125 25.1982421875 -57.55390625 24.521484375 -57.1953125 23.82421875 C-52.135374493927124 14.135374493927124 -52.135374493927124 14.135374493927124 -49 11 C-47.24999999999999 11.05078125 -47.24999999999999 11.05078125 -45 11.3125 C-43.77796875 11.45365234375 -43.77796875 11.45365234375 -42.53125 11.59765625 C-40.10855786299729 11.982744660665553 -37.85727362049606 12.581829132218544 -35.5 13.25 C-30.525242015134978 14.428232154310138 -26.48489864452209 13.350519169117 -22 11 C-20.994001362470748 10.006034838996214 -19.992882831086312 9.007066871530402 -19 8 C-18.340000000000003 8 -17.68 8 -17 8 C-16.67 7.009999999999998 -16.340000000000003 6.02 -16 5 C-11.414765766083839 0.15548168738024515 -6.490765930935808 -1.2314041748406588 0 0 Z " fill="#5A8989" transform="translate(71,19)"/>
<path d="M0 0 C5.267004796066075 4.162797728173473 4.947925801497632 12.180143256849718 5.6953125 18.40625 C6.344353091033582 26.18414051132477 4.383208136394586 32.68487502578881 2 40 C0.5037030785881029 46.291248419572725 -0.3775146046377813 52.567650914590416 -1 59 C-5.007584299540099 59.96182023188962 -7.224889257005813 60.371407231018054 -11 58.5625 C-17.588321599695163 52.934975300260376 -22.15899028868278 46.742035199373774 -26 39 C-26.6496875 37.793437499999996 -26.6496875 37.793437499999996 -27.3125 36.5625 C-28.899372553700772 30.647793208933493 -28.78806466427706 23.885178230430796 -26.37109375 18.20703125 C-21.00748192667465 9.5732971184364 -11.007049166733687 -3.38678435899498 0 0 Z " fill="#0E3553" transform="translate(72,44)"/>
<path d="M0 0 C21.045103528707997 2.121777229636116 21.045103528707997 2.121777229636116 29 10 C32.210506760870516 13.951392936456031 33.57802310256835 16.936277230820323 34 22 C34.154687499999994 23.485 34.154687499999994 23.485 34.3125 25 C33.82144138844734 29.714162670905623 31.281087361285927 32.71891263871407 28 36 C26.082988170119137 36.591810151322164 24.140356053734934 37.10257952371964 22.1875 37.5625 C21.149804687499994 37.81128906250001 20.112109375000003 38.06007812499999 19.04296875 38.31640625 C17.110557494017797 38.75051660917444 15.169018971078245 39.147055631522676 13.21875 39.4921875 C10.609231440185255 40.08943646615478 9.769107118743193 41.06240648899555 8 43 C7.340000000000003 43 6.680000000000007 43 6 43 C5.913632812499998 43.591679687500005 5.8272656249999955 44.18335937500001 5.73828125 44.79296875 C4.723910074551 50.497643342204015 3.505627643855391 53.32435639580217 -1 57 C-1.6599999999999966 56.67 -2.319999999999993 56.34 -3 56 C-3.625850962565991 48.23944806418177 -2.09157753165168 41.87009422079106 0.133544921875 34.51025390625 C2.7398650716639708 25.85896770922895 2.992177568622992 18.96300333146999 1.5625 10.0625 C1.4149023437500006 9.092480468749997 1.2673046875000011 8.122460937500001 1.115234375 7.123046875 C0.7524153365946944 4.747167365442678 0.38047493437544233 2.3731047667121956 0 0 Z " fill="#1C4B7C" transform="translate(74,46)"/>
<path d="M0 0 C1.875 1.562499999999993 1.875 1.562499999999993 3 3 C2.2162500000000023 3.2268749999999997 1.4325000000000045 3.4537499999999994 0.625 3.6875 C-2.142983192671082 4.748359049984515 -2.142983192671082 4.748359049984515 -3.125 7.1875 C-3.413749999999993 8.115625000000001 -3.7025000000000006 9.043750000000003 -4 10 C-6.020030816640997 16.396764252696457 -6.020030816640997 16.396764252696457 -8.65625 18.01953125 C-10.018606561797625 18.61150761316206 -11.381956096893774 19.2012020749045 -12.74609375 19.7890625 C-20.02863967393818 23.70169549206384 -27.081183667857232 31.974672281870156 -29.61328125 39.92578125 C-30.765141112379027 46.10393869366935 -30.446373585581064 52.18986273424497 -28 58 C-28.763125000000002 58.268125 -29.526250000000005 58.536249999999995 -30.3125 58.8125 C-32.87380884007686 59.944241115382795 -34.19692937638231 60.91223401475847 -36 63 C-36.5775 62.25749999999999 -37.155 61.515 -37.75 60.75 C-39.83480356372105 58.047159583645566 -39.83480356372105 58.047159583645566 -42 56.25 C-46.790231457829485 50.86098960994184 -48.763425792450995 44.097226226470156 -49 37 C-47.93913166984542 32.43826618033531 -45.520722931534735 30.00728417068592 -42 27 C-40.450514591609455 26.061501733106255 -38.88642208163868 25.146913211357678 -37.3125 24.25 C-28.120891810001282 18.89844145382297 -21.20497524526506 11.377076173462186 -14.421875 3.28515625 C-10.038219767684595 -0.851034574039538 -5.731853882288107 -1.6558688993276753 0 0 Z " fill="#3A6775" transform="translate(75,26)"/>
<path d="M0 0 C9.900000000000006 0 19.799999999999997 0 30 0 C30 16.5 30 33 30 50 C23.174526940745082 48.634905388149015 20.934816740712463 45.564019975314295 17 40 C14.372813304331402 35.43892902951882 12.170650296387592 30.664125208675358 9.92724609375 25.90673828125 C8.624628393683679 23.22810630717996 7.161384082610084 20.64998538947103 5.6875 18.0625 C2.4564966834122686 12.216761029388959 0 6.737942633571881 0 0 Z " fill="#C2CA9A" transform="translate(98,0)"/>
<path d="M0 0 C10.39744676099945 1.1552718623332794 17.139692742359152 4.187241989446292 24.2734375 11.828125 C30.636127382135413 19.831870643591145 34.037301799198566 27.124339330661883 37 37 C24.79 37 12.579999999999998 37 0 37 C0 24.789999999999992 0 12.579999999999998 0 0 Z " fill="#ACDFC4" transform="translate(0,91)"/>
<path d="M0 0 C0 11.879999999999995 0 23.760000000000005 0 36 C-9.569999999999993 36 -19.14 36 -29 36 C-28.27330190208805 28.733019020880462 -27.589199196306296 23.731026686984166 -24.8125 17.3125 C-24.49861328125 16.575720214843756 -24.184726562500003 15.838940429687497 -23.861328125 15.079833984375 C-21.007222759142223 8.617015091534938 -18.457705611830164 3.4727264642980344 -11.625 0.5625 C-8 0 -8 0 0 0 Z " fill="#B0BAA8" transform="translate(128,92)"/>
<path d="M0 0 C15.18 0 30.36 0 46 0 C46.495000000000005 0.99 46.495000000000005 0.99 47 2 C43.78441365982977 9.920496879998275 36.4085279168006 18.536074927825823 28.875 22.75 C24.615010283668667 24.43660817340465 20.493364473392603 25.015138383656122 16 24 C9.656130795375148 20.926644718051943 4.944298544198762 15.329304195331733 2 9 C1.3399999999999999 6.029999999999999 0.6799999999999997 3.0599999999999996 0 0 Z " fill="#99AE88" transform="translate(27,0)"/>
<path d="M0 0 C2.811447264877998 0.3430088166299896 3.8093039848785537 0.7759655206964879 5.67578125 2.96875 C6.215898437500002 3.8040625000000006 6.756015625000003 4.639375000000001 7.3125 5.5 C15.696008239696425 18.030574149311718 26.178123377755853 31.089061688877933 40 38 C40 38.66 40 39.31999999999999 40 40 C40.99000000000001 40.33 41.97999999999999 40.66 43 41 C43.66 42.31999999999999 44.31999999999999 43.64 45 45 C35.43000000000001 45 25.86 45 16 45 C15.009999999999998 40.05 15.009999999999998 40.05 14 35 C12.846632059236171 32.29555103545033 11.698462965432952 29.817493908472386 10.3125 27.25 C9.790550537109375 26.239093017578128 9.790550537109375 26.239093017578128 9.258056640625 25.207763671875 C7.836666872256274 22.457340681101286 6.386510163636046 19.72290413226014 4.9267578125 16.99267578125 C4.242290192663539 15.709218958086112 3.5629772985653076 14.422996862245427 2.889404296875 13.1337890625 C1.989525951660326 11.41204183108131 1.0714715117230114 9.699829882880266 0.15234375 7.98828125 C-1.1016248058139269 4.736464486618118 -1.0605928577184436 3.2666260017728064 0 0 Z " fill="#578B96" transform="translate(32,83)"/>
<path d="M0 0 C0.6599999999999966 0 1.3199999999999932 0 2 0 C3.533178122913597 1.6815501993245832 4.884414327756431 3.4687007058703045 6.26953125 5.2734375 C8.257088859738488 7.482619994183203 8.257088859738488 7.482619994183203 13 9 C13 22.86 13 36.72 13 51 C8.379999999999995 51.66 3.760000000000005 52.31999999999999 -1 53 C-0.6700000000000017 50.81375 -0.3400000000000034 48.6275 0 46.375 C2.0780768050034055 31.19723200054662 0.5256389909680763 17.62129520158917 -4 3 C-2.680000000000007 2.6700000000000017 -1.3599999999999994 2.3400000000000034 0 2 C0 1.3400000000000034 0 0.6799999999999997 0 0 Z " fill="#918D80" transform="translate(115,41)"/>
<path d="M0 0 C2.4375 0.75 2.4375 0.75 5 2 C5.796875 3.78125 5.796875 3.78125 6 6 C5.14453125 8.234375000000014 5.14453125 8.234375000000014 3.8125 10.75 C0.31828086666077127 17.94340642813131 -1.206165067736677 25.226715293525615 -3 33 C-8.939999999999998 33 -14.879999999999995 33 -21 33 C-19.277910920657575 28.69477730164394 -17.55099287301664 25.790046554196152 -15 22 C-14.196598397193156 20.569025427997232 -13.40572884089923 19.13096972191981 -12.625 17.6875 C-9.133334258159863 11.327296556401947 -5.486561528878227 4.853496737084583 0 0 Z " fill="#578B96" transform="translate(102,95)"/>
</svg>
