<?xml version="1.0" encoding="UTF-8"?>
<!-- Generator: visioncortex VTracer 0.6.0 -->
<svg version="1.1" xmlns="http://www.w3.org/2000/svg" width="128" height="128">
<path d="M0 0 C42.24 0 84.48 0 128 0 C128 42.24 128 84.48 128 128 C85.75999999999999 128 43.519999999999996 128 0 128 C0 85.75999999999999 0 43.519999999999996 0 0 Z " fill="#83B6AE" transform="translate(0,0)"/>
<path d="M0 0 C4.29 0 8.58 0 13 0 C12.855625 1.485 12.71125 2.97 12.5625 4.5 C12.4761328125 5.4165234375 12.389765625 6.333046875 12.30078125 7.27734375 C12.121390851345797 8.901176319636095 11.903161148792101 10.522546276319853 11.60546875 12.12890625 C10.409724994148098 18.633226680183423 11.949675547183382 23.68070683140003 15.36328125 29.20703125 C18.8860814139439 34.11346351967897 22.181126944539656 38.24807162101606 28.20703125 39.85546875 C32.93078348033556 40.03546754765439 35.48818400583561 38.434891587522735 39.25 35.875 C40.567727503083724 35.034993554084714 41.88806152560479 34.19906234511219 43.2109375 33.3671875 C43.853857421875 32.959521484375 44.49677734375 32.55185546875 45.1591796875 32.1318359375 C51.49484303753318 28.236327278248833 57.65827017992087 25.524941976033485 65.125 25.140625 C67.22827401832876 25.05968095793522 67.22827401832876 25.05968095793522 70 24 C71.41808058569842 25.248395729290063 72.83439994626919 26.498792210573413 74.25 27.75 C75.433359375 28.794140624999997 75.433359375 28.794140624999997 76.640625 29.859375 C78.14434834577506 31.223680287226383 79.60770523202739 32.63484546569074 81.01171875 34.1015625 C83.08605267704763 36.08216424566827 85.0426159109724 37.271652037853386 87.5625 38.625 C94.6237746542265 42.73185410156793 102.89924540590692 48.775473097553885 107 56 C107.46537562855026 58.7127993956954 107.78472459133569 61.2707037269341 108 64 C108.08185546875 64.67482421875 108.1637109375 65.3496484375 108.248046875 66.044921875 C109.0045229469433 72.55311684105757 109.72074705295586 79.09128215977336 105.7578125 84.6640625 C101.1829241853791 90.08060274149194 95.8575614560551 95.10135113062981 88.65625 96.43359375 C83.29954919280402 96.44329791812898 80.16908154521506 95.67276231364184 76 92 C72.56092561389137 87.66931373601135 71.43847440917783 82.2540022746566 70 77 C62.86024375717547 80.6718746391669 60.08789516520076 85.76415415040387 56.6875 92.75 C53.62805214588483 98.55103099611446 53.62805214588483 98.55103099611446 51.0546875 100.390625 C45.940459213234995 101.954977181834 41.578863435911316 100.42699413877702 37 98 C33.22924444281077 95.90513580156154 31.724851159923958 93.92475265700615 30.375 89.9375 C28.789881201269065 83.95524374264258 27.942610858091914 77.81218401883208 27.08935546875 71.689208984375 C26.48728471484334 67.48627552093697 25.690165996216155 63.92437684099974 24 60 C24 59.01 24 58.02 24 57 C17.451220996882302 58.112056811850174 13.05143076643377 60.65595050845927 7.61328125 64.44140625 C4.9999999999999964 66 4.9999999999999964 66 0 67 C0 44.89 0 22.78 0 0 Z " fill="#658C94" transform="translate(0,0)"/>
<path d="M0 0 C37.95 0 75.9 0 115 0 C115 13.530000000000001 115 27.060000000000002 115 41 C98.67079493087557 39.91138632872504 98.67079493087557 39.91138632872504 93.25 34.203125 C86.62002925305103 27.711278643612474 76.99790297679567 22.728729778490305 67.625 22.6875 C63.263244338514994 22.76381604791293 60.078482419186884 23.480814249554204 56.125 25.234375 C53.59039269047133 26.147579104168415 51.241171423248204 26.348398059555894 48.5625 26.625 C38.86609028862392 28.0578452567129 29.66462368089674 33.66651439490934 21.76953125 39.30859375 C18.809391958670357 41.11640801395731 17.863744778917553 41.48101021291413 14.5625 40.6875 C8.34320583105005 38.87920102314565 4.828351138446234 34.95567645178873 1.4921875 29.5625 C-4.1772753703570125 18.936306734416572 -2.512196735776092 12.560983678880456 0 0 Z " fill="#88C9E6" transform="translate(13,0)"/>
<path d="M0 0 C3.1469093207128367 8.0030536531834 4.785298514147673 15.733914698909118 5.872314453125 24.235595703125 C7.004627363415871 32.65183659740997 7.004627363415871 32.65183659740997 11.6484375 39.5234375 C18.08735168548985 42.699191555286845 21.92205903866131 43.24904840494213 29 42 C29.4125 42.9075 29.825000000000003 43.815 30.25 44.75 C31.897435966124412 47.80952393708819 33.533818431860404 49.618859175589364 36 52 C36 52.66 36 53.31999999999999 36 54 C36.99 54 37.98 54 39 54 C39 54.66 39 55.31999999999999 39 56 C39.639375 56.22687500000001 40.27875 56.45375 40.9375 56.6875 C43.58501041547052 57.82214732091593 45.85066689405426 59.08880751789407 48.3125 60.5625 C52.63708831413078 63.0295470248397 56.05486833307819 63.73026554544063 61 64 C61 66.31 61 68.62 61 71 C32.95 71 4.899999999999999 71 -24 71 C-24 50.870000000000005 -24 30.739999999999995 -24 10 C-20.04 8.019999999999996 -16.08 6.039999999999999 -12 4 C-10.88625 3.2162500000000023 -9.7725 2.4324999999999974 -8.625 1.625 C-5.478199437223569 -0.3230193960044545 -3.6305424426888564 -0.13001942632219254 0 0 Z " fill="#79A0AB" transform="translate(24,57)"/>
<path d="M0 0 C3.6227891953753897 2.1564221401043966 6.215177846895699 4.105361215345184 8.8125 7.4375 C11.652652795916424 10.919453557591055 14.61599723816964 12.59574100148133 18.5703125 14.6328125 C25.634077517116708 18.607599889052814 33.939308375201335 24.847222092097766 38 32 C38.46214256798021 34.71048033735626 38.782132401027894 37.27310114421283 39 40 C39.08193603515625 40.67482421874999 39.16387207031249 41.34964843750001 39.248291015625 42.044921875 C40.00401347276592 48.55335685232117 40.720916196911304 55.09104430519943 36.7578125 60.6640625 C32.18292418537908 66.08060274149196 26.857561456055095 71.10135113062981 19.65625 72.43359375 C14.299549192803994 72.44329791812898 11.169081545215064 71.67276231364184 7 68 C2.8610689160084632 61.93719391465561 0.44809096313657903 54.42183602855317 1.625 47.125 C1.8106250000000017 45.578125 1.8106250000000017 45.578125 2 44 C0.7193734938292948 42.6208637625854 -0.562849957403742 41.243107050314194 -1.859375 39.87890625 C-3.9204086766285684 36.483847351170056 -3.208260167996471 32.785613302235355 -3.0390625 28.9296875 C-2.983824795788564 23.372774456329722 -3.6804234035389953 17.954750891494953 -4.377685546875 12.448486328125 C-4.470900878906249 11.670134277343749 -4.564116210937499 10.891782226562498 -4.66015625 10.08984375 C-4.749182128906256 9.39753662109375 -4.838208007812497 8.705229492187499 -4.929931640625 7.991943359375 C-5.008160844078809 5.767998861188168 -4.747423494615489 4.095199544613081 -4 2 C-1.9375 0.75 -1.9375 0.75 0 0 Z " fill="#558F75" transform="translate(69,24)"/>
<path d="M0 0 C16.17 0 32.34 0 49 0 C49 13.530000000000001 49 27.060000000000002 49 41 C32.67079493087557 39.91138632872504 32.67079493087557 39.91138632872504 27.25 34.203125 C21.34846115545136 28.424534881379454 12.510498704071296 23.4509284653817 4.18359375 22.76953125 C2.8242773437499977 22.79080078125 2.8242773437499977 22.79080078125 1.4375 22.8125 C0.5287109374999943 22.8189453125 -0.38007812499999716 22.825390625 -1.31640625 22.83203125 C-3.9601758630741415 22.997507368431133 -6.419094028996156 23.41661257436622 -9 24 C-8.725196511157534 16.7177075456745 -6.209369955512187 10.958038568871725 -2 5 C-1.0100000000000051 4.67 -0.01999999999999602 4.34 1 4 C0.6700000000000017 2.6799999999999997 0.3400000000000034 1.3599999999999999 0 0 Z " fill="#9CCAD5" transform="translate(79,0)"/>
<path d="M0 0 C6.56661008201948 3.699843740242322 12.808703395418746 8.437609645418753 18.140625 13.76953125 C20.486090395783123 14.045301120776926 22.844198114688567 14.21924430838287 25.203125 14.33203125 C32.04340277777777 14.672309027777779 32.04340277777777 14.672309027777779 33.140625 15.76953125 C33.23389215745695 17.33500173034055 33.258080820239314 18.9046589745156 33.254150390625 20.472900390625 C33.25407485961915 21.473862457275388 33.253999328613276 22.474824523925783 33.25392150878906 23.506118774414063 C33.24876022338867 24.594646453857422 33.24359893798828 25.68317413330078 33.23828125 26.8046875 C33.23686630249023 27.913074798583985 33.235451354980455 29.02146209716797 33.23399353027344 30.163436889648438 C33.22837533288279 33.71966194047628 33.21581974822678 37.27582508164239 33.203125 40.83203125 C33.198112344472975 43.23632721874566 33.193549032504734 45.64062416972641 33.189453125 48.044921875 C33.1783999873858 53.95314902207254 33.16112316416741 59.86132962421027 33.140625 65.76953125 C25.220625 66.26453125 25.220625 66.26453125 17.140625 66.76953125 C13.423346987660693 59.63117267650381 12.556860203217568 54.00885187340384 12.515625 46.01953125 C12.490011955962927 44.00378468428275 12.456437561593674 41.988120117049135 12.4140625 39.97265625 C12.40810058593749 39.09254882812499 12.402138671875008 38.21244140625 12.39599609375 37.3056640625 C11.675487912583321 30.150177460244265 7.09798146181258 25.578167017958208 2.140625 20.76953125 C-2.3638733269773127 17.19159112319207 -7.157354161004733 14.180261056126987 -12.109375 11.26953125 C-15.605099794122538 9.136786022070694 -18.007117840259582 6.619667824800178 -20.53515625 3.41796875 C-21.878337881809912 1.7459255387204031 -23.319291276283963 0.25993485359616386 -24.859375 -1.23046875 C-16.29337775825566 -5.046091850526551 -8.373349239752358 -3.803078777740925 0 0 Z " fill="#5A98A5" transform="translate(94.859375,25.23046875)"/>
<path d="M0 0 C0.06058593750000796 0.9899999999999984 0.1211718750000017 1.9800000000000004 0.18359375 3 C0.6527829275700014 11.1770903325652 0.6527829275700014 11.1770903325652 1.5625 19.3125 C3.155660377358487 32.74056603773586 3.155660377358487 32.74056603773586 0 38 C-2.5 40.8125 -2.5 40.8125 -5 43 C-5.659999999999997 43 -6.32 43 -7 43 C-7 43.66 -7 44.31999999999999 -7 45 C-15.559588943336983 49.32285075407964 -15.559588943336983 49.32285075407964 -20.625 48.1875 C-28.434338005735732 43.722396152014625 -35.603592192624696 36.61991107009753 -38.70703125 28.046875 C-39.43380824254096 22.96912641211381 -37.932995973464 19.12003427125434 -35 15 C-29.26447383611948 10.448459716849086 -22.557463236167834 7.192501174002608 -16 4 C-15.216733398437498 3.6028076171875014 -14.433466796874995 3.2056152343749993 -13.62646484375 2.79638671875 C-8.808730736929022 0.46773008472136723 -5.350243996356333 -0.45533991458351863 0 0 Z " fill="#2689B3" transform="translate(65,26)"/>
<path d="M0 0 C1.314453125 1.584716796875 1.314453125 1.584716796875 2.28125 3.44921875 C2.6486328125000007 4.133066406249995 3.0160156250000014 4.816914062500004 3.39453125 5.521484375 C3.7593359375000013 6.236269531250002 4.124140624999999 6.9510546875000045 4.5 7.6875 C6.707789566669327 11.896342654480918 8.87899735490214 15.947493476587042 11.71875 19.76953125 C13.708515256231763 22.58722965223231 14.51019824637067 23.759743016794516 15 27 C13.425094791343362 34.147646716210886 9.832768245487095 37.41040520014653 4.27734375 42.01953125 C1.8255729369105893 43.97580707563105 1.8255729369105893 43.97580707563105 0 47 C-5.940000000000001 47 -11.88 47 -18 47 C-18 32.150000000000006 -18 17.299999999999997 -18 2 C-5.000000000000002 -2 -5.000000000000002 -2 0 0 Z " fill="#A2CACA" transform="translate(18,81)"/>
<path d="M0 0 C0 12.210000000000008 0 24.42 0 37 C-14.189999999999998 37 -28.379999999999995 37 -43 37 C-43 30 -43 30 -42 28 C-41.34 28 -40.68000000000001 28 -40 28 C-40 27.340000000000003 -40 26.680000000000007 -40 26 C-38.356485426673245 24.638230782100692 -36.684773438317904 23.310379340913926 -35 22 C-33.312371486480515 20.354562199318508 -31.645965104222583 18.687114231828147 -30 17 C-29.195625000000007 16.216250000000002 -28.39125 15.432500000000005 -27.5625 14.625 C-24.983254027529796 11.982845589176875 -22.651002290167554 9.225118928993624 -20.33203125 6.35546875 C-19.892460937500005 5.908164062500006 -19.452890624999995 5.460859374999998 -19 5 C-18.340000000000003 5 -17.680000000000007 5 -17 5 C-16.67 3.680000000000007 -16.340000000000003 2.3599999999999994 -16 1 C-12 0 -12 0 0 0 Z " fill="#7BB3D5" transform="translate(128,91)"/>
<path d="M0 0 C0.6600000000000001 0 1.3200000000000003 0 2 0 C2.914858725270463 1.4637739604327393 3.755805204856582 2.9739448889594584 4.5625 4.5 C8.431781767438466 11.160084020236383 13.336114591134255 16.021501879212494 20.125 19.6875 C24.07340118936427 20.116674042322202 26.485286025835947 18.724199308080472 30 17 C30.990000000000002 17 31.979999999999997 17 33 17 C33 16.340000000000003 33 15.680000000000007 33 15 C34.75000000000001 13.2734375 34.75000000000001 13.2734375 37 11.375 C37.7425 10.743359374999997 38.485 10.111718749999994 39.25 9.4609375 C39.8275 8.978828125 40.405 8.49671875 41 8 C47 14 47 14 47.1875 17 C46.57104841749714 21.023157696334437 44.524052777187705 22.50046032767621 41.4375 25 C36.186279879920846 29.310034152611195 33.60244009558973 33.77587083204722 31.040771484375 39.947265625 C29.838498290867882 42.58974416088523 28.78756653381683 44.61242006277469 26.124755859375 45.9228515625 C19.285221481549357 47.835985845152834 15.16029049719576 45.75571694288654 9.1875 42.4375 C3.494316492186286 36.09366694843615 3.27469937738843 26.190316783526654 2.17724609375 18.040771484375 C1.3842511852542856 12.435818452511086 -0.042413200409406215 7.309716622675943 -2 2 C-1.3399999999999999 1.3400000000000034 -0.6799999999999997 0.6799999999999997 0 0 Z " fill="#4895A1" transform="translate(25,54)"/>
<path d="M0 0 C3.1352530132766248 7.973409947469989 4.778098296776907 15.679386030453912 5.872314453125 24.147705078125 C6.411183920426115 28.093779807688094 7.123280649001039 31.59048235448968 8.609375 35.296875 C10.376337881141332 40.00215817787074 9.942773232307772 42.20042718097861 9 47 C4.8845043133976915 45.6281681044659 4.253864996510476 43.56793371772784 2.0625 39.875 C1.7105859374999994 39.28549560546875 1.3586718749999989 38.69599121093751 0.99609375 38.088623046875 C-0.01055723059343805 36.39712316999358 -1.0055792468868496 34.698718751293896 -2 33 C-2.4653515625000004 32.22527343749999 -2.930703125000001 31.450546875 -3.41015625 30.65234375 C-6 26.280241935483872 -6 26.280241935483872 -6 24 C-9.925586628383249 22.937699675831766 -12.297000762973013 23.120527785426503 -16.125 24.4375 C-19.012218083551513 25.415994882419426 -20.92617045570223 26 -24 26 C-24 20.72 -24 15.439999999999998 -24 10 C-22.14375 9.092500000000001 -20.2875 8.185000000000002 -18.375 7.25 C-14.950619361292208 5.553886585053185 -11.687891000556286 3.91393467245873 -8.625 1.625 C-5.478199437223569 -0.3230193960044545 -3.6305424426888564 -0.13001942632219254 0 0 Z " fill="#81AFB2" transform="translate(24,57)"/>
<path d="M0 0 C5.940000000000001 0 11.880000000000003 0 18 0 C19.820186947279552 14.0261464760954 21.254133200146427 26.52200613875482 16 40 C11.79388475130714 39.89741182320261 9.442697866157523 38.86998748022611 6.4375 36.0625 C0.8551111227148844 30.034510236723168 -2.3823065628022047 23.204012834894666 -3 15 C-2.7155864705237054 12.30142540310582 -2.171156133142368 9.704546967830922 -1.5625 7.0625 C-1.046875 4.7318750000000005 -0.53125 2.40125 0 0 Z " fill="#9AC5CB" transform="translate(13,0)"/>
<path d="M0 0 C5.85360126977379 3.299037124610667 10.949185562319968 7.517930703845529 16.1328125 11.765625 C17.459833602038458 12.773986429509485 18.79024204389691 13.778061154885705 20.1328125 14.765625 C16.026016383495147 27.87242111650486 16.026016383495147 27.87242111650486 12.1328125 31.765625 C11.526953125000006 31.0527734375 10.921093749999997 30.339921875 10.296875 29.60546875 C4.173462260231005 22.605936956694833 -1.9866935917092405 17.218584056469666 -10.0625 12.4765625 C-14.373161128458321 9.936058793113922 -17.431189620130795 7.355054979662427 -20.54296875 3.4140625 C-21.886150381809912 1.7420192887204031 -23.327103776283963 0.25602860359616386 -24.8671875 -1.234375 C-16.297579596683676 -5.051606427416399 -8.376000141494771 -3.8052846595824796 0 0 Z " fill="#81AE9F" transform="translate(94.8671875,25.234375)"/>
<path d="M0 0 C8.579999999999998 0 17.159999999999997 0 26 0 C26 13.530000000000001 26 27.060000000000002 26 41 C22.039999999999992 40.67 18.08 40.34 14 40 C14.226875000000007 38.06125 14.45375 36.1225 14.6875 34.125 C15.392066932444735 24.582262576741208 13.454342983026407 18.018980818083698 7.3046875 10.69140625 C6 9 6 9 5 6 C4.010000000000005 5.67 3.019999999999996 5.34 2 5 C2 4.34 2 3.6799999999999997 2 3 C1.3400000000000034 2.67 0.6800000000000068 2.34 0 2 C0 1.3399999999999999 0 0.6799999999999999 0 0 Z " fill="#77ABC7" transform="translate(102,0)"/>
<path d="M0 0 C2.109857840367951 1.2558677621237813 4.036308665205638 2.537205100491782 6 4 C6.560742187499997 4.404765625 7.121484374999994 4.809531249999999 7.69921875 5.2265625 C12.114045183506917 9.22449249063338 12.670194722432242 13.6309429799972 13 19.375 C13.367440279711118 30.79494623487551 11.723454120646196 37.26464948386807 4 46 C3.401875000000004 45.236875 2.8037499999999937 44.473749999999995 2.1875 43.6875 C0.2273773888835109 41.0920441950219 0.2273773888835109 41.0920441950219 -1.6328125 39.67578125 C-3.6108228579690547 37.251305696946496 -3.2258364545628524 35.59144118879944 -3.0625 32.5 C-2.8788787635264583 25.713665135332256 -3.52601185658348 19.17946055678916 -4.377197265625 12.44921875 C-4.470573730468743 11.670625000000001 -4.563950195312501 10.892031250000002 -4.66015625 10.08984375 C-4.749182128906256 9.39753662109375 -4.838208007812497 8.705229492187499 -4.929931640625 7.991943359375 C-5.008160844078809 5.767998861188168 -4.747423494615489 4.095199544613081 -4 2 C-1.9375 0.75 -1.9375 0.75 0 0 Z " fill="#337A7E" transform="translate(69,24)"/>
</svg>
