<?xml version="1.0" encoding="UTF-8"?>
<!-- Generator: visioncortex VTracer 0.6.0 -->
<svg version="1.1" xmlns="http://www.w3.org/2000/svg" width="128" height="128">
<path d="M0 0 C42.24 0 84.48 0 128 0 C128 42.24 128 84.48 128 128 C85.75999999999999 128 43.519999999999996 128 0 128 C0 85.75999999999999 0 43.519999999999996 0 0 Z " fill="#68BBCF" transform="translate(0,0)"/>
<path d="M0 0 C0 29.040000000000006 0 58.08000000000001 0 88 C-23.430000000000007 88 -46.86 88 -71 88 C-71 75.57303370786518 -71 75.57303370786518 -69.1875 71.5 C-68.8510546875 70.7059375 -68.51460937499999 69.911875 -68.16796875 69.09375 C-66.99800262108974 66.99641941439499 -65.69077153125754 65.67627920384676 -64 64 C-63.850419083993586 58.76466793977558 -67.70731869423645 54.72122984881304 -71 51 C-72.92592915094068 49.21702641490235 -74.91360119837877 47.52987718989786 -76.91796875 45.8359375 C-83.18240381955323 40.311951603771064 -90.09059590574947 33.36837596862891 -92 25 C-91.52827586400943 20.473455631239396 -90.43887952223167 16.309883263773735 -89 12 C-88.368359375 12.204960937499997 -87.73671875 12.409921875000002 -87.0859375 12.62109375 C-81.48961263918858 14.306442303183843 -76.48011104676078 15.151916785637361 -70.625 15.3125 C-63.29134515794925 15.745779388917661 -63.29134515794925 15.745779388917661 -60.75 18.4375 C-57.74929853824955 24.546070832849125 -56.872992651798185 30.29287639479064 -57.0625 37.0625 C-57.18317938842429 42.94794094315412 -56.104738262140856 48.42754212405006 -52.3125 53.0625 C-47.4494333999281 55.03401348651565 -43.207681650104874 54.32750688816404 -38.3125 53 C-31.961878994985312 49.165662789425085 -30.048552344323454 43.825805988013144 -28.3125 36.8125 C-27.997324218749995 35.337167968749995 -27.997324218749995 35.337167968749995 -27.67578125 33.83203125 C-27.015549988327933 31.065166136056348 -26.095234458994142 28.620137821132133 -25 26 C-24.46694013073227 24.44162880324123 -23.94554824038312 22.879203736050542 -23.4375 21.3125 C-22.7217921350167 19.10604311054371 -22.037647628251932 17.075295256503864 -21 15 C-21.088114453757456 12.788611450861417 -21.24297839854279 10.579578149848345 -21.4375 8.375 C-21.59025390625 6.592226562500002 -21.59025390625 6.592226562500002 -21.74609375 4.7734375 C-21.829882812500003 3.858203125000003 -21.913671875000006 2.9429687499999986 -22 2 C-20.02237144846339 1.6576593542935072 -18.04278160842793 1.3266443890190374 -16.0625 1 C-14.960351562499994 0.8143749999999983 -13.858203125000003 0.6287499999999966 -12.72265625 0.4375 C-8.508268485176472 -0.0577900626025567 -4.243392095765728 0 0 0 Z " fill="#A1B5B7" transform="translate(128,40)"/>
<path d="M0 0 C7.260000000000001 0 14.520000000000001 0 22 0 C20.87954604075316 8.963631673974728 20.87954604075316 8.963631673974728 19.58984375 12.734375 C13.9965257512984 27.24905277207363 13.9965257512984 27.24905277207363 15.95947265625 41.904296875 C18.956978579695267 47.08663509287241 22.292881529752222 52.42865675912001 26.655029296875 56.572021484375 C28 58 28 58 28 60 C28.66 60 29.32 60 30 60 C30 60.66 30 61.32 30 62 C30.66 62 31.32 62 32 62 C32.83848804344288 63.455375675404426 33.67063934335131 64.91440373245759 34.5 66.375 C34.9640625 67.187109375 35.428125 67.99921875 35.90625 68.8359375 C37 71 37 71 37 73 C37.66 73 38.32 73 39 73 C39.556875 74.051875 40.11375 75.10375 40.6875 76.1875 C42.15992588760686 78.78774146109296 43.401779385006314 80.40177938500631 45.5625 82.5625 C48.2837761354086 85.2837761354086 49.69623927737284 87.37844243714677 51 91 C50.784246512464314 95.17123409235664 50.13485030103057 98.42035202049419 48 102 C43.87112068064359 105.64188329707335 39.01012319136336 107.41059118192588 33.8125 109 C29.017730321847207 110.51572693855964 26.02812682017323 111.79969505588875 23 116 C20.94524195531347 120.10951608937306 19.907379881606012 123.46310059196995 19 128 C12.73 128 6.459999999999999 128 0 128 C0 85.75999999999999 0 43.519999999999996 0 0 Z " fill="#3288AA" transform="translate(0,0)"/>
<path d="M0 0 C12.21 0 24.42 0 37 0 C37 2.31 37 4.62 37 7 C37.66 7 38.32 7 39 7 C40.32 11.29 41.64 15.58 43 20 C42.504999999999995 20.494999999999997 42.504999999999995 20.494999999999997 42 21 C40.948125 20.95875 39.89625 20.9175 38.8125 20.875 C34.68490315921619 21.010331043960125 32.55607942553654 22.015211483421467 29 24 C28.340000000000003 24 27.68 24 27 24 C26.33204290736618 25.33268733940951 25.665793352101964 26.666230366772787 25 28 C24.5140234375 28.9629296875 24.028046875 29.925859375 23.52734375 30.91796875 C19.649857559490293 38.84815104401141 19.649857559490293 38.84815104401141 18.23828125 47.4375 C17.972139639643146 50.29961305564095 17.237544911806523 52.944556601087534 16.510986328125 55.71875 C14.96813295722476 62.04054192968965 14.359464680674144 66.36953524824109 17.625 72.3125 C22.583397462177018 79.41114324174951 28.824465066836417 85.75781993424945 35.65625 91.0625 C37.90739936424047 92.92345014110545 39.32944200369366 94.54246678848183 40.875 97 C41.305546875 97.66 41.73609375 98.32 42.1796875 99 C43.20762402795401 101.50620715386881 42.999043030076905 102.50984796980832 42 105 C41.217692367494664 106.12575976384915 40.40207399659155 107.22877688867263 39.5625 108.3125 C35.907882634375426 114.33047746493554 35.907882634375426 114.33047746493554 35 128 C22.46 128 9.919999999999998 128 -3 128 C-1.6492753623188392 117.19420289855071 -1.6492753623188392 117.19420289855071 3 112 C5.508909082578889 110.17947640266385 8.10503339648988 109.08195721545327 11 108 C11.930703125 107.651953125 12.861406250000002 107.30390625 13.8203125 106.9453125 C15.702635837149671 106.25763704082799 17.590360358087906 105.58447541906104 19.484375 104.9296875 C24.35636849482458 103.29555952885326 24.35636849482458 103.29555952885326 27.3125 99.375 C28.139983509695448 95.31280822513142 28.175855385872964 91.98804099404468 27 88 C25.055447298177043 85.17134072324119 25.055447298177043 85.17134072324119 23 83 C23 82.34 23 81.68 23 81 C21.515 80.505 21.515 80.505 20 80 C17 75.66666666666666 17 75.66666666666666 17 73 C16.340000000000003 73 15.68 73 15 73 C14.16151195655712 71.54462432459557 13.329360656648689 70.08559626754241 12.5 68.625 C12.035937500000003 67.812890625 11.571874999999999 67.00078125 11.09375 66.1640625 C10 64 10 64 10 62 C9.34 62 8.68 62 8 62 C8 61.34 8 60.68 8 60 C7.34 60 6.68 60 6 60 C3.7372470834833322 57.54988537702017 1.9281938973016324 54.716238359677085 0 52 C-0.7167187499999983 51.0821875 -1.4334375000000001 50.164375 -2.171875 49.21875 C-2.8989062499999996 48.2390625 -3.625937499999999 47.259375 -4.375 46.25 C-5.063359375000001 45.34765625 -5.751718750000002 44.4453125 -6.4609375 43.515625 C-10.441278012358435 34.423476621516265 -7.598538123821445 25.039904315252844 -4.5625 16.0625 C-3.9161486714283633 14.074809676689599 -3.2715526604703875 12.086547512094953 -2.62890625 10.09765625 C-2.34088134765625 9.23664306640625 -2.0528564453125 8.3756298828125 -1.756103515625 7.488525390625 C-1.0107456802287267 5.035366715715667 -0.5028207276137877 2.514103638068939 0 0 Z " fill="#68BBC0" transform="translate(22,0)"/>
<path d="M0 0 C3.7249287881932958 1.706463102967188 7.658604946221132 2.4674720273464708 11.6484375 3.3359375 C14.28515625 4.046875 14.28515625 4.046875 17.28515625 6.046875 C18.36367414956746 9.033539952648368 18.288821358325322 11.02069565481915 17.84765625 14.171875 C16.09741988720569 17.39230990754153 15.630014365346653 17.581929411707335 12.34765625 18.734375 C11.658007812500003 18.9238671875 10.968359375000006 19.113359375 10.2578125 19.30859375 C7.868797698055317 20.20270027983672 6.858766441292829 21.037632608857734 5.28515625 23.046875 C2.0987109781232505 30.04852899205025 0.09886810547405389 37.35012453849234 1.28515625 45.046875 C2.8978819230346318 48.73310510979344 3.915481254658289 49.80042500310552 7.28515625 52.046875 C14.692948112721979 54.22563731256528 22.024102447819132 53.15918156063444 29.28515625 51.046875 C29.030508026571056 58.04970114429585 27.012630686311624 62.808322246249276 22.28515625 68.046875 C17.216628078878728 71.1443088823519 13.063864613239389 71.78067923660183 7.28515625 71.046875 C3.597372619914495 68.99810631661916 1.9236707607584833 67.78130143547378 0.47265625 63.83984375 C-0.5038646190365199 59.533657973345925 -0.7702402912868251 55.45065757159642 -0.65234375 51.046875 C-0.5231047096181669 45.20342410273608 -1.5709214554105841 39.20300978777262 -4.90625 34.29296875 C-7.636792005608896 32.411666590627995 -10.060103297790391 32.63261984842378 -13.33984375 32.546875 C-19.067409170353166 32.2504171625076 -24.596236039548366 31.845366131415147 -29.71484375 29.046875 C-31.99269660117045 25.630095723244324 -31.998045480467532 23.853740709093074 -31.453125 19.85546875 C-29.131194581562603 11.022304883034458 -24.441627499028776 1.4519896615846761 -16.40234375 -3.328125 C-10.063793783132695 -4.802206387643558 -5.4402079577063915 -2.9850842869323344 0 0 Z " fill="#5887A6" transform="translate(70.71484375,23.953125)"/>
<path d="M0 0 C0.6316406250000028 0.20496093749999744 1.2632812499999986 0.409921875000002 1.9140625 0.62109375 C7.510387360811421 2.306442303183843 12.519888953239217 3.1519167856373613 18.375 3.3125 C25.70865484205075 3.7457793889176614 25.70865484205075 3.7457793889176614 28.25 6.4375 C31.250701461750452 12.546070832849125 32.127007348201815 18.29287639479064 31.9375 25.0625 C31.835751895728237 30.024676777561638 32.592231408805716 34.60672074218655 35 39 C37.3736801459645 41.406048511591294 38.62079228010862 41.963159871772206 42.015625 42.29296875 C43.616640625 42.24076171875001 43.616640625 42.24076171875001 45.25 42.1875 C46.32765624999999 42.1604296875 47.40531250000001 42.133359375 48.515625 42.10546875 C49.33546874999999 42.0706640625 50.15531250000001 42.035859375 51 42 C50.08877272653136 43.10865984938684 49.17073340922265 44.21172218649866 48.25 45.3125 C47.484296875 46.23482421874999 47.484296875 46.23482421874999 46.703125 47.17578125 C43.55738135281389 50.54519015650439 42.099400498002524 51.91228187515938 37.328125 52.29296875 C35.96843964547358 52.273167506972925 34.60890659798828 52.23759202015269 33.25 52.1875 C32.552617187500005 52.17396484375 31.85523437500001 52.1604296875 31.13671875 52.146484375 C29.42414459135108 52.111294495027764 27.71197058918804 52.05749154963692 26 52 C25.757656249999997 51.48050781250001 25.515312499999993 50.961015625 25.265625 50.42578125 C22.403347004388472 44.4700412668237 19.302666831157033 40.06253008831176 14.25 35.75 C7.260452346612894 29.723630235534017 -0.8733546235122063 22.32048282287859 -3 13 C-2.52827586400943 8.473455631239403 -1.438879522231666 4.309883263773727 0 0 Z " fill="#87B0B3" transform="translate(39,52)"/>
<path d="M0 0 C4.6200000000000045 0 9.240000000000009 0 14 0 C14 13.200000000000001 14 26.400000000000002 14 40 C-6.875783790677417 43.839224605182046 -6.875783790677417 43.839224605182046 -12.6484375 41.55859375 C-15.152084263793185 39.51733219933979 -17.074706232472735 37.58655120637425 -19 35 C-19.5530078125 34.2974609375 -20.106015624999998 33.594921875 -20.67578125 32.87109375 C-22.38926084871325 30.44998245860282 -22.929021381925722 28.98110195911966 -23 26 C-19.939958724284267 20.00741916839003 -15.019754924992071 16.17060586954505 -9.65234375 12.3125 C-4.576730354830119 8.61514259994129 -1.8553166025600518 6.0607009016961735 0 0 Z " fill="#52978B" transform="translate(114,0)"/>
<path d="M0 0 C4.695953787710769 0.9391907575421499 6.086950710755229 1.545204891675354 9.75 4.1875 C15.29564522915988 7.8845968194399205 20.919692643377044 9.94949966763339 27.2490234375 11.869873046875 C30.36697320800237 12.85703284444908 32.65335779293295 13.652676766985863 34.98828125 15.9921875 C36 18 36 18 36.1875 20.9375 C34.656746793404224 24.88523195385227 32.8409133578557 25.71057998620617 29.25 27.73046875 C17.58861034913764 34.31024589675394 9.46878852404387 44.406141432240005 5 57 C3.3499999999999996 57 1.6999999999999997 57 0 57 C0 38.19 0 19.379999999999995 0 0 Z " fill="#1C4E63" transform="translate(0,71)"/>
<path d="M0 0 C3.946704919966038 1.3155683066553507 4.127063018706259 2.7321375713836744 6 6.375 C10.474651089389518 14.353207687039188 16.432821338315534 20.453720097986178 23.65625 26.0625 C25.90739936424046 27.923450141105448 27.329442003693664 29.542466788481846 28.875 32 C29.305546874999997 32.66 29.736093750000002 33.31999999999999 30.1796875 34 C31.20762402795401 36.50620715386884 30.999043030076905 37.509847969808305 30 40 C29.217692367494664 41.125759763849146 28.402073996591547 42.22877688867263 27.5625 43.3125 C23.907882634375426 49.3304774649355 23.907882634375426 49.3304774649355 23 63 C10.46 63 -2.080000000000002 63 -15 63 C-13.649275362318843 52.19420289855073 -13.649275362318843 52.19420289855073 -9 47 C-6.491090917421076 45.17947640266382 -3.8949666035101487 44.081957215453286 -1 43 C0.3960546874999977 42.477929687499994 0.3960546874999977 42.477929687499994 1.8203125 41.9453125 C3.7026358371496713 41.25763704082799 5.590360358087906 40.584475419061036 7.484375 39.9296875 C12.35636849482458 38.29555952885329 12.35636849482458 38.29555952885329 15.3125 34.375 C16.139983509695455 30.312808225131405 16.175855385872964 26.988040994044667 15 23 C13.055447298177029 20.171340723241173 13.055447298177029 20.171340723241173 11 18 C11 17.340000000000003 11 16.680000000000007 11 16 C10.010000000000005 15.670000000000002 9.019999999999996 15.340000000000003 8 15 C5 10.666666666666657 5 10.666666666666657 5 8 C4.340000000000003 8 3.6799999999999997 8 3 8 C0 2.25 0 2.25 0 0 Z " fill="#63B0BB" transform="translate(34,65)"/>
<path d="M0 0 C5.421421201061264 2.962138830145065 8.09522986211033 6.335287675895543 10 12.1875 C10.79344263679235 15.336475464769649 11 17.694531884585885 11 21 C-4.510000000000005 21 -20.02000000000001 21 -36 21 C-36 5.0909090909090935 -36 5.0909090909090935 -29.9375 -2.625 C-20.869760357809966 -6.869473875067669 -8.996357814451926 -3.2048335977487312 0 0 Z " fill="#A9E1E6" transform="translate(93,107)"/>
<path d="M0 0 C2.0788178778379347 2.676812422560417 3.5767896206782126 5.618536419359835 5.125 8.625 C5.554257812499998 9.420351562500002 5.9835156249999955 10.215703125000005 6.42578125 11.03515625 C13.830413835357021 24.91029854071516 13.830413835357021 24.91029854071516 13 31 C10.861053135044628 34.32725067881947 7.726927137722399 35.102776800177935 4 36 C-2.535992311257914 36.58335814799935 -9.098108486576123 36.36733255042475 -14.375 32.0625 C-17.89692707565696 27.592361788589244 -17.526028769067736 22.421018703448098 -17 17 C-15.444550607163137 10.18645537702983 -13.741370469721332 4.269224195433807 -8 0 C-4.49681199777055 -1.1677293340764834 -3.40140276483703 -1.4231388422611886 0 0 Z " fill="#5FA0D5" transform="translate(88,42)"/>
<path d="M0 0 C1.4280671211008809 0.9486687021970397 2.797214541581255 1.9849311134754757 4.15234375 3.03515625 C3.727324156573829 6.3290580990528085 2.7635627201871813 8.863771633029007 1.27734375 11.78515625 C-1.9701903067080337 18.742464612363563 -2.707040608425416 26.508821221125288 -3.84765625 34.03515625 C-19.293431897852315 34.67972494009585 -19.293431897852315 34.67972494009585 -25.84765625 31.03515625 C-28.12550910117045 27.618376973244324 -28.130857980467532 25.842021959093074 -27.5859375 21.84375 C-25.264007081562603 13.010586133034458 -20.574439999028776 3.440270911584676 -12.53515625 -1.33984375 C-8.142374790760833 -2.361420833543992 -3.996574666537981 -2.0870062212153933 0 0 Z " fill="#597E80" transform="translate(66.84765625,21.96484375)"/>
<path d="M0 0 C7.260000000000001 0 14.520000000000001 0 22 0 C20.87808339528282 8.975332837737401 20.87808339528282 8.975332837737401 19.625 12.76953125 C19.36259521484375 13.59042236328125 19.1001904296875 14.4113134765625 18.829833984375 15.257080078125 C18.55598876953125 16.10036865234375 18.2821435546875 16.9436572265625 18 17.8125 C15.966739887023836 24.240662145886727 14.613316639206028 30.025278874745318 14.3359375 36.7890625 C13.729427071413882 40.78074741371794 11.678118251392863 43.06060191920295 9 46 C8.34 46 7.68 46 7 46 C6.7525 46.61875 6.505 47.2375 6.25 47.875 C4.793713607108903 50.35068686791487 3.6218749382644715 50.95125002469421 1 52 C0.00000000000000011102230246251565 51 0.00000000000000011102230246251565 51 -0.1202545166015625 48.94358825683594 C-0.11692359924316406 47.587904891967774 -0.11692359924316406 47.587904891967774 -0.113525390625 46.204833984375 C-0.11344985961914063 45.183851165771486 -0.11337432861328126 44.16286834716797 -0.1132965087890625 43.11094665527344 C-0.10813522338867188 42.0005451965332 -0.10297393798828125 40.89014373779297 -0.09765625 39.74609375 C-0.09624130249023438 38.61551040649414 -0.09482635498046875 37.484927062988284 -0.0933685302734375 36.32008361816406 C-0.0877501898431265 32.69252934695772 -0.07519457876090158 29.06503576101612 -0.0625 25.4375 C-0.057487363013944213 22.985026930080384 -0.05292404786103138 20.53255289727115 -0.048828125 18.080078125 C-0.0377747975543723 12.053361868545949 -0.020497877164441465 6.026691238302166 0 0 Z " fill="#33707B" transform="translate(0,0)"/>
<path d="M0 0 C3.518293545323509 1.5604751658929672 5.177303446369834 4.509099598930533 6.90234375 7.84375 C8.153299744458458 11.786156770414536 8.143182808969428 15.02489719950394 6.96484375 19.03125 C2.7875226734502405 24.727596922567855 -2.672647669182659 26.80787913152176 -9.28515625 28.84375 C-14.0799259281528 30.359476938559638 -17.06952942982677 31.643445055888748 -20.09765625 35.84375 C-22.152414294686544 39.95326608937309 -23.19027636839398 43.30685059196992 -24.09765625 47.84375 C-28.71765625 47.84375 -33.33765625 47.84375 -38.09765625 47.84375 C-35.8025246287583 36.3680918937915 -27.971642468573833 26.886400720506373 -18.34765625 20.40625 C-15.964760861497698 18.910691530642794 -13.61768045650517 17.603762103252592 -11.09765625 16.34375 C-8.813209776295707 14.932343928419172 -8.813209776295707 14.932343928419172 -8.16015625 11.90625 C-8.095216933525677 8.724223492758313 -8.598370774404778 7.544797374321348 -10.09765625 4.84375 C-8.858213492359667 3.9743350559270425 -7.605585659463685 3.123695425680964 -6.34765625 2.28125 C-5.651562499999997 1.8055859374999983 -4.955468750000001 1.3299218749999966 -4.23828125 0.83984375 C-2.09765625 -0.15625 -2.09765625 -0.15625 0 0 Z " fill="#377D8F" transform="translate(43.09765625,80.15625)"/>
<path d="M0 0 C0 13.530000000000001 0 27.060000000000002 0 41 C-9.002653590488435 39.99970515661239 -14.93691191058214 38.67612731899712 -21.625 32.625 C-23.545312890270992 28.958948118573574 -23.675033844397035 27.117706450821885 -23 23 C-19.394147927321384 14.459824038392753 -11.793967026957773 5.439528129077402 -3.7890625 0.6875 C-2 0 -2 0 0 0 Z " fill="#958F7B" transform="translate(128,66)"/>
<path d="M0 0 C0.23264031228717386 4.228237675819287 0.37452126453791834 8.4548333698595 0.5 12.6875 C0.600546874999992 14.484775390625003 0.600546874999992 14.484775390625003 0.703125 16.318359375 C0.8973306214534773 25.033336637724744 0.8973306214534773 25.033336637724744 -1.699951171875 27.831298828125 C-3.82421875 29.125 -3.82421875 29.125 -5.944091796875 30.05078125 C-8.292730593815875 31.13515455988079 -9.574333202070406 32.414442487720805 -11.3125 34.3125 C-12.199375000000003 35.199375 -13.086250000000007 36.08625000000001 -14 37 C-14.989999999999995 37 -15.980000000000004 37 -17 37 C-18.880593865151255 30.809711860543786 -20.11825264017571 25.50389520966391 -20 19 C-20.30189248411631 17.327352452869114 -20.63790234897131 15.660654744372948 -21 14 C-21.89602627897723 9.873231081330204 -22.183122304044176 6.211812993016089 -22 2 C-20.02237144846339 1.6576593542935072 -18.04278160842793 1.3266443890190374 -16.0625 1 C-14.409277343750006 0.7215624999999974 -14.409277343750006 0.7215624999999974 -12.72265625 0.4375 C-8.452498035623677 -0.06434440714600953 -4.292299485331526 -0.08770982345505018 0 0 Z " fill="#9EC0AA" transform="translate(128,40)"/>
<path d="M0 0 C2.4457682708941917 3.6686524063412875 2.2360725399844057 5.672003433619182 2 10 C1.6700000000000017 10.659999999999997 1.3400000000000034 11.319999999999993 1 12 C-1.5625 12.625 -1.5625 12.625 -4 13 C-3.7181206387490136 11.206767467786278 -3.424171897050684 9.41542873773406 -3.125 7.625 C-2.962578124999993 6.627265625 -2.8001562500000006 5.629531249999999 -2.6328125 4.6015625 C-2 2 -2 2 0 0 Z " fill="#A9E1E6" transform="translate(107,56)"/>
</svg>
