<?xml version="1.0" encoding="UTF-8"?>
<!-- Generator: visioncortex VTracer 0.6.0 -->
<svg version="1.1" xmlns="http://www.w3.org/2000/svg" width="128" height="128">
<path d="M0 0 C42.24 0 84.48 0 128 0 C128 42.24 128 84.48 128 128 C85.75999999999999 128 43.519999999999996 128 0 128 C0 85.75999999999999 0 43.519999999999996 0 0 Z " fill="#6E7781" transform="translate(0,0)"/>
<path d="M0 0 C7.468124834875297 11.300452052771831 11.454612206117972 24.58180609427128 10.75 38.0625 C10.50292988819453 43.135490970509494 10.50292988819453 43.135490970509494 12.765625 47.4921875 C14.765929637424605 49.23371146754799 16.7025354693979 50.6820348563287 19 52 C14.935429065001799 55.507780395957354 10.66694926075698 57.97136211765978 5.9375 60.4375 C4.816740722656249 61.03171752929687 4.816740722656249 61.03171752929687 3.67333984375 61.637939453125 C-0.7575851988015074 63.952141251114995 -5.189735553428875 65.9255202081271 -9.875 67.6875 C-13.475295655448605 69.13549852626798 -14.758197794999376 69.68911145071348 -17.1875 72.8125 C-18.145879663138857 76.57229714000628 -18.66665115377441 80.13315338378312 -19 84 C-31.36139662324282 84.77258728895268 -40.50911026398638 78.75086533705955 -51 73 C-51 72.34 -51 71.68 -51 71 C-51.66 71 -52.32 71 -53 71 C-60.30830942699501 62.51293098800579 -60.47018234607056 50.603133888212255 -60.3125 39.9375 C-60.31572265625 38.84373046875001 -60.3189453125 37.74996093749999 -60.322265625 36.623046875 C-60.24775282686787 25.236136542262848 -59.48732137719381 15.249449346248511 -51.75 6.4375 C-39.55653414495048 -4.370344735157527 -14.886486610262665 -10.156767850179214 0 0 Z " fill="#324D51" transform="translate(88,29)"/>
<path d="M0 0 C42.24 0 84.48 0 128 0 C128 20.130000000000003 128 40.260000000000005 128 61 C122.24764875450758 62.15047024909848 116.83426137473319 63.09505553114691 111.25 60.9375 C105.31287164606114 55.82497280633043 102.41998895814821 49.66794037400034 101 42 C101.02055672177698 40.540472753834 101.08200328517802 39.08085466454344 101.1875 37.625 C101.39672028920589 31.425472483004377 98.56807298101552 25.932727759202415 95 21 C89.56532820516205 15.794515799919687 83.53063742667695 13.37974018968674 76.4375 11.1875 C75.53064453125 10.88908203125 74.6237890625 10.5906640625 73.689453125 10.283203125 C68.79146598264525 8.709738074917944 64.11703095768014 7.540482007875681 59 7 C58.7718359375 7.5452734375 58.543671875 8.090546875 58.30859375 8.65234375 C56.60779179617733 11.70363322536544 54.435098437757546 14.001766003301329 52.0625 16.5625 C51.1872265625 17.5125390625 50.311953125 18.462578125 49.41015625 19.44140625 C48.6148046875 20.2857421875 47.819453125 21.130078125 47 22 C46.5398046875 22.5259375 46.079609375 23.051875 45.60546875 23.59375 C43.085173476631866 25.801307903680115 40.16708762240305 27.322024259745145 37.25 28.9375 C36.654453125 29.27201171875 36.05890625 29.6065234375 35.4453125 29.951171875 C34.2427331333182 30.626646649142703 33.03895437900955 31.299990547259814 31.833984375 31.97119140625 C29.937766425049496 33.03491111353054 28.054683029992336 34.11978277879458 26.171875 35.20703125 C17.195556399666756 40.281083266690835 9.994024145696324 37.49850603642408 0 35 C0 23.45 0 11.899999999999999 0 0 Z " fill="#8BADBE" transform="translate(0,0)"/>
<path d="M0 0 C1.442783074263275 0.33198987694984794 2.8811476969139846 0.6842529085000848 4.3125 1.0625 C8.173505806943652 2.205332315909658 8.173505806943652 2.205332315909658 13 2 C13 16.189999999999998 13 30.379999999999995 13 45 C-6.140000000000001 45 -25.28 45 -45 45 C-46 22 -46 22 -42 15 C-39.328125 13.28515625 -39.328125 13.28515625 -36.25 12.0625 C-34.5445703125 11.345136718749998 -34.5445703125 11.345136718749998 -32.8046875 10.61328125 C-31.889614257812497 10.233571777343755 -31.889614257812497 10.233571777343755 -30.9560546875 9.84619140625 C-27.359716591490866 8.290411595869614 -23.873456448122894 6.512377320050973 -20.375 4.75 C-19.3448779296875 4.237718505859377 -19.3448779296875 4.237718505859377 -18.2939453125 3.715087890625 C-8.222007722967817 -1.3296718721120016 -8.222007722967817 -1.3296718721120016 0 0 Z " fill="#257CAD" transform="translate(115,83)"/>
<path d="M0 0 C12.999999999999998 0 12.999999999999998 0 18 3 C19.328125 4.9375 19.328125 4.9375 20.25 7 C20.56453125 7.680625000000006 20.8790625 8.361249999999998 21.203125 9.0625 C22.56495114592519 12.373606707739668 23.093938490492846 14.855798786666583 23 18.40234375 C22.931268321522143 32.06995043204188 25.58810626022383 41.98349095663684 32.189697265625 53.945556640625 C33 56 33 56 33 61 C22.11 61 11.219999999999999 61 0 61 C0 40.870000000000005 0 20.739999999999995 0 0 Z " fill="#9BAA9C" transform="translate(0,67)"/>
<path d="M0 0 C11.155383262728805 -0.3898968907361535 11.155383262728805 -0.3898968907361535 15 2 C16.821299793422014 3.7256607631738206 18.557755812686707 5.494828507131928 20.25390625 7.34375 C23.97047790828485 10.869088664681826 27.171188462043304 11.307623938736157 32.109375 11.20703125 C34.39264986310391 10.957003217470032 35.99154975704326 10.075955487298259 38 9 C41.39964974811521 9.45328663308203 43.23895984363983 10.792906012520632 45.75 13.0625 C46.670390624999996 13.88427734375 46.670390624999996 13.88427734375 47.609375 14.72265625 C48.297734375000005 15.354941406249992 48.297734375000005 15.354941406249992 49 16 C44.93542906500181 19.507780395957354 40.66694926075698 21.97136211765978 35.9375 24.4375 C35.19032714843749 24.833645019531247 34.44315429687501 25.229790039062493 33.67333984375 25.637939453125 C29.242414801198507 27.95214125111498 24.81026444657111 29.925520208127097 20.125 31.6875 C16.524704344551395 33.13549852626798 15.241802205000624 33.68911145071348 12.8125 36.8125 C11.854120336861143 40.5722971400063 11.33334884622559 44.133153383783124 11 48 C0.6587421070683206 48.64632861830823 -6.216042701026112 45.144308325556466 -15 40 C-14.236874999999998 39.25749999999999 -13.473750000000003 38.515 -12.6875 37.75 C-5.391383762143917 30.28420664033331 -4.723780105730917 22.198987777279513 -3.876953125 12.1796875 C-3.4092788194416173 7.5282241366085145 -2.38519032485447 4.120465029857584 0 0 Z " fill="#115C79" transform="translate(58,65)"/>
<path d="M0 0 C5.900898423894752 3.224822195988338 11.030917856463361 6.843665588567404 14 13 C14.02099609375 15.950927734375 14.02099609375 15.950927734375 13.5234375 19.18359375 C13.346835937500003 20.358574218749993 13.170234375 21.5335546875 12.98828125 22.744140625 C12.785898437499995 23.962949218749998 12.583515625000004 25.181757812499995 12.375 26.4375 C12.195820312500004 27.652441406250006 12.016640625 28.867382812499997 11.83203125 30.119140625 C9.610126410201254 44.29737955028921 9.610126410201254 44.29737955028921 4.125 48.9375 C1 51 1 51 -1.75 50.875 C-4.000000000000014 50 -4.000000000000014 50 -6 49 C-6 48.34 -6 47.68000000000001 -6 47 C-6.659999999999997 47 -7.32 47 -8 47 C-15.427751320523914 38.37422427293997 -15.467349464876325 26.258380605557647 -15.3125 15.4375 C-15.31572265625 14.276699218749997 -15.318945312499999 13.115898437499993 -15.322265625 11.919921875 C-15.267820475212673 3.4017307128190097 -15.267820475212673 3.4017307128190097 -13 0 C-8.921174974977532 -2.039412512511234 -4.285872652816529 -1.0647123740288222 0 0 Z " fill="#1E4157" transform="translate(43,53)"/>
<path d="M0 0 C6.946116877050258 10.822006545122193 10.284633735255255 26.30107963346029 9 39 C8 42 8 42 5.4375 43.6875 C1.3944816378669316 45.23119792008717 -1.7322302705127868 45.75566144103597 -6 45 C-9.0625 43.4375 -9.0625 43.4375 -12 41 C-12.600703124999995 40.560429687500005 -13.201406250000005 40.12085937500001 -13.8203125 39.66796875 C-20.10295013614487 34.47624936448278 -21.164635830531793 27.83820422841447 -22 20 C-22.144900415921896 12.858479500992168 -20.300955562543294 7.588575007861209 -15.5 2.1875 C-10.922651146833601 -1.817680246520606 -5.655903634196193 -1.8853012113987333 0 0 Z " fill="#203640" transform="translate(90,32)"/>
<path d="M0 0 C0 6.269999999999996 0 12.540000000000006 0 19 C-19.14 19 -38.28 19 -58 19 C-58 14.379999999999995 -58 9.760000000000005 -58 5 C-52.87046984581801 2.488807039401763 -48.60694949655581 1.5579716616365857 -42.875 1.4375 C-37.56045064069443 1.234980531417193 -32.43967743950893 0.8498203272488354 -27.1875 -0.0625 C-17.87488420402653 -1.6204157511366333 -9.383639664622393 -1.0426266294024913 0 0 Z " fill="#55A7CA" transform="translate(128,109)"/>
<path d="M0 0 C2.5743339353318433 3.8615009029977614 3.146119891922453 7.593821444465263 4.12109375 12.08984375 C5.004321880770988 15.014310227441726 6.111803532918614 16.648958716475263 8 19 C8 19.659999999999997 8 20.319999999999993 8 21 C8.659999999999997 21 9.32 21 10 21 C10 21.659999999999997 10 22.319999999999993 10 23 C11.175624999999997 23.309375000000003 11.175624999999997 23.309375000000003 12.375 23.625 C15.587462879214335 24.843520402460612 18.045973564080903 26.19003688743996 20.9375 28 C27.188006650204912 31.83426601975256 32.94925445576182 33.15341265819039 40.1796875 33.75390625 C42 34 42 34 43 35 C43 39.620000000000005 43 44.24000000000001 43 49 C30.79 49 18.58 49 6 49 C5.009999999999998 46.03 4.02 43.06 3 40 C1.6392407276251717 37.2838693386456 1.6392407276251717 37.2838693386456 0.245361328125 34.584716796875 C-3.4534190312309043 27.31009381845061 -4.668583781797416 20.845294250032083 -4.6875 12.6875 C-4.69418701171875 11.773876953124997 -4.7008740234375 10.860253906249994 -4.707763671875 9.9189453125 C-4.533370178883505 3.549687431009957 -4.533370178883505 3.549687431009957 -1.95703125 0.89453125 C-1.3112109375000003 0.5993359375000011 -0.6653906250000006 0.3041406250000023 0 0 Z " fill="#547882" transform="translate(27,79)"/>
<path d="M0 0 C14.520000000000001 0 29.040000000000003 0 44 0 C42.696038277872624 9.127732054891643 38.69543627814113 13.257483686653472 31.61328125 18.90234375 C24.101499614564787 24.118504512127338 18.995897005020602 25.42040479026641 10 24 C6.699999999999999 23.34 3.3999999999999995 22.68 0 22 C0 14.739999999999998 0 7.479999999999999 0 0 Z " fill="#D3DEDD" transform="translate(0,0)"/>
<path d="M0 0 C5.609999999999999 0 11.219999999999999 0 17 0 C17 2.31 17 4.62 17 7 C16.340000000000003 7 15.68 7 15 7 C14.7718359375 7.5452734375 14.543671875000001 8.090546875 14.30859375 8.65234375 C12.607791796177331 11.70363322536544 10.435098437757546 14.001766003301329 8.0625 16.5625 C7.187226562500001 17.5125390625 6.311953125000002 18.462578125 5.41015625 19.44140625 C4.614804687499998 20.2857421875 3.8194531250000026 21.130078125 3 22 C2.539804687500002 22.5259375 2.079609374999997 23.051875 1.60546875 23.59375 C-0.9148265233681343 25.801307903680115 -3.832912377596948 27.322024259745145 -6.75 28.9375 C-7.345546874999997 29.27201171875 -7.94109375 29.6065234375 -8.5546875 29.951171875 C-9.757266866681803 30.626646649142703 -10.961045620990447 31.299990547259814 -12.166015625 31.97119140625 C-14.062233574950504 33.03491111353054 -15.945316970007664 34.11978277879458 -17.828125 35.20703125 C-26.660526214952938 40.19973095155591 -34.67797953991815 37.51380327013443 -44 35 C-44 30.71 -44 26.42 -44 22 C-42.535625 22.144375 -41.07125 22.28875 -39.5625 22.4375 C-38.18771484375 22.5651171875 -38.18771484375 22.5651171875 -36.78515625 22.6953125 C-34 23 -34 23 -31.68359375 23.4296875 C-25.28682070796156 24.551125349945917 -20.589258300279553 23.27675601115626 -15 20 C-7.670365072476848 14.431586702543562 -1.8408919600142184 9.204459800071097 0 0 Z " fill="#9AA3A1" transform="translate(44,0)"/>
<path d="M0 0 C1.4196514193882592 0.42771549173876977 2.8356223969075245 0.867655431285435 4.25 1.3125 C5.433359374999995 1.6779492187500011 5.433359374999995 1.6779492187500011 6.640625 2.05078125 C9.267085830093805 3.1074534051536347 10.982359308869889 3.9999040105318855 13 6 C13.90625 8.855468750000007 13.90625 8.855468750000007 14.5 12.1875 C15.888580851552192 18.95683165131696 17.574174866441084 25.306661259471532 23 30 C28.426351650443635 31.80878388348121 34.331145620989574 31.05200783833955 40 31 C40 38.92 40 46.84 40 55 C31.338583915300475 56.732283216939905 22.10716539496508 53.55358269748254 14.265625 49.6328125 C12.031789889297102 47.851282845596444 11.04833527543056 46.6680807653662 10 44 C9.710701388450659 40.3281330072583 9.82540503360076 36.78435533962602 9.99609375 33.10546875 C10.304762348593073 21.456705150843597 5.208310128644541 10.138843717094716 0 0 Z " fill="#5E6C77" transform="translate(88,30)"/>
<path d="M0 0 C4.797738283749965 1.1720580329417718 9.437476563165262 2.775269546234096 14.11328125 4.3564453125 C15.129062500000003 4.683222656249999 16.144843750000007 5.01 17.19140625 5.3466796875 C24.909797727480523 7.967925624332672 30.25557575492016 10.873270565214487 34.76953125 17.7744140625 C35.25421875000001 18.791484375 35.73890625 19.8085546875 36.23828125 20.8564453125 C36.74359375 21.88125 37.248906250000005 22.9060546875 37.76953125 23.9619140625 C38.73828125 26.6689453125 38.73828125 26.6689453125 37.73828125 29.6689453125 C37.17955322265625 29.401545410156245 36.620825195312506 29.134145507812505 36.045166015625 28.858642578125 C33.47000357068487 27.635779288913568 30.885674712648353 26.433594071769775 28.30078125 25.2314453125 C27.42228515625 24.81056640625 26.543789062499997 24.3896875 25.638671875 23.9560546875 C14.645235617312906 18.885281505910015 4.889314260809982 19.68670729699516 -6.994140625 20.4404296875 C-8.029902343750003 20.49650390625 -9.065664062499998 20.552578125 -10.1328125 20.6103515625 C-11.070524902343749 20.66908447265625 -12.008237304687498 20.7278173828125 -12.974365234375 20.788330078125 C-15.26171875 20.6689453125 -15.26171875 20.6689453125 -17.26171875 18.6689453125 C-17.164261485207554 14.312605576277747 -13.718327218225994 11.565113135069467 -10.88671875 8.6064453125 C-10.391718750000003 8.07728515625 -9.896718749999998 7.548124999999999 -9.38671875 7.0029296875 C-8.021870797758545 5.548673246408505 -6.64232117890279 4.1082537097872205 -5.26171875 2.6689453125 C-4.753828124999998 2.0308593750000004 -4.245937499999997 1.3927734374999998 -3.72265625 0.7353515625 C-2.26171875 -0.3310546875 -2.26171875 -0.3310546875 0 0 Z " fill="#5D808F" transform="translate(63.26171875,6.3310546875)"/>
<path d="M0 0 C0 10.89 0 21.78 0 33 C-5.752351245492449 34.15047024909849 -11.165738625266826 35.09505553114691 -16.75 32.9375 C-23.125246035320288 27.447704802918643 -26.49197031282472 20.206797482445808 -27.1796875 11.8046875 C-27.18617603837005 10.202018522598003 -27.104301169290864 8.599284595793222 -27 7 C-21.59865861359755 5.137468487447428 -16.169897843557834 3.4222740794563755 -10.6875 1.8125 C-9.515742187499995 1.4683203125000013 -8.343984374999991 1.124140624999999 -7.13671875 0.76953125 C-4 0 -4 0 0 0 Z " fill="#A39893" transform="translate(128,28)"/>
<path d="M0 0 C2.061836326528517 -0.08150743896965196 4.1246134892299375 -0.13941940429947408 6.1875 -0.1875 C7.3360546875 -0.22230468749999943 8.484609375 -0.25710937499999886 9.66796875 -0.29296875 C13.307634551098161 0.027048758889051783 15.097681225094512 0.8347572018812883 18 3 C19.328125 4.9375 19.328125 4.9375 20.25 7 C20.56453125 7.680625000000006 20.8790625 8.361249999999998 21.203125 9.0625 C22.62499460452584 12.519594724729487 23.120141851285116 15.176594537955722 23.09765625 18.88671875 C23.09443359375 19.824511718750003 23.0912109375 20.762304687500006 23.087890625 21.728515625 C23.07951171875 22.704980468749994 23.0711328125 23.681445312500003 23.0625 24.6875 C23.05798828125 25.67556640625 23.0534765625 26.663632812499998 23.048828125 27.681640625 C23.037043032659554 30.121154739472004 23.02059011194624 32.56054689080007 23 35 C21.8308203125 34.78343749999999 20.661640625 34.56687500000001 19.45703125 34.34375 C17.908895816371846 34.06227083024942 16.36071638818143 33.78103355533628 14.8125 33.5 C14.04357421875 33.35691406250001 13.2746484375 33.21382812499999 12.482421875 33.06640625 C8.5828849069494 32.3634854231411 4.974899444110984 31.938253989217685 1 32 C0.00000000000000011102230246251565 31 0.00000000000000011102230246251565 31 -0.113525390625 28.040771484375 C-0.10828857421875 26.747277832031244 -0.1030517578125 25.453784179687503 -0.09765625 24.12109375 C-0.09624130249023438 23.434431304931636 -0.09482635498046875 22.747768859863285 -0.0933685302734375 22.040298461914063 C-0.08775479164202268 19.839321989525402 -0.0752000689523101 17.638445911829592 -0.0625 15.4375 C-0.05748676489456478 13.94856917368574 -0.05292355253244326 12.45963675869507 -0.048828125 10.970703125 C-0.03778092877111205 7.3137692524033895 -0.0205071294141307 3.656894415987523 0 0 Z " fill="#8FAAB8" transform="translate(0,67)"/>
</svg>
