<?xml version="1.0" encoding="UTF-8"?>
<!-- Generator: visioncortex VTracer 0.6.0 -->
<svg version="1.1" xmlns="http://www.w3.org/2000/svg" width="128" height="128">
<path d="M0 0 C42.24 0 84.48 0 128 0 C128 42.24 128 84.48 128 128 C85.75999999999999 128 43.519999999999996 128 0 128 C0 85.75999999999999 0 43.519999999999996 0 0 Z " fill="#51698A" transform="translate(0,0)"/>
<path d="M0 0 C15.180000000000001 0 30.360000000000003 0 46 0 C48.67170471275457 10.686818851018263 42.58671642772239 23.24345667239959 38.10498046875 32.935546875 C36.18863118667928 36.83040601114982 36.18863118667928 36.83040601114982 37 41 C35.80573739530722 43.23518778853612 34.58552135392869 45.274419691558926 33.1875 47.375 C28.596702738064383 54.39339162557697 26.675735640202873 59.164572176575035 26.8125 67.5 C26.81314453125 68.2463671875 26.8137890625 68.992734375 26.814453125 69.76171875 C26.845514834201325 73.6616889052774 27.196338963333535 77.17652173464742 28 81 C28.17326626746648 83.58524272092845 28.316740159137673 86.1626367597608 28.4375 88.75 C28.87523662740417 97.53187098452803 28.87523662740417 97.53187098452803 31 106 C33.63315381257692 107.6294006942446 33.63315381257692 107.6294006942446 37 108 C38.19625 108.33 39.3925 108.66 40.625 109 C42.080818164861725 109.34415213653392 43.53944542512834 109.6765381691085 45 110 C45.8288671875 110.188203125 46.657734375 110.37640625 47.51171875 110.5703125 C71.62850036736353 115.34657887331328 91.73198085001636 109.84178797816564 111.875 96.5 C112.821171875 95.8296875 113.76734375 95.159375 114.7421875 94.46875 C117.99999999999999 93 117.99999999999999 93 128 93 C128 104.55 128 116.1 128 128 C85.75999999999999 128 43.519999999999996 128 0 128 C0 85.75999999999999 0 43.519999999999996 0 0 Z " fill="#1C3A49" transform="translate(0,0)"/>
<path d="M0 0 C8.295737628480822 3.6199582378825426 16.463421514319563 11.474607887567807 20.250244140625 19.723388671875 C23.02337789574139 28.29900716591684 23.592546513231028 36.14746274931054 23.466552734375 45.067626953125 C23.437303021317874 47.32772032758069 23.446052177381915 49.58549658657867 23.458984375 51.845703125 C23.43792342060503 67.3289083959171 23.43792342060503 67.3289083959171 18.5625 73.953125 C8.151012627006168 82.59465951958488 -4.766693934449748 83.61936521595538 -17.78515625 82.74609375 C-26.047180935657494 81.74817781952342 -35.36208267520564 80.51469063399344 -41.0625 73.875 C-43.974302588074835 69.55426067575992 -44.92846263642172 66.19546373166257 -44 61 C-40.540640203496096 54.23934617628004 -35.252593682201756 48.76581983173338 -30 43.375 C-17.3165139010204 31.204675227267394 -17.3165139010204 31.204675227267394 -13.01171875 14.79296875 C-13.028476562500003 14.0156640625 -13.045234375 13.238359375000002 -13.0625 12.4375 C-13.101469126485469 7.800173948229645 -12.558983468585467 4.674463725517722 -9.3125 1.1875 C-5.963694714553895 -0.5321567682020536 -3.7277634439868166 -0.4422770187780962 0 0 Z " fill="#7F9FCD" transform="translate(75,21)"/>
<path d="M0 0 C15.180000000000001 0 30.360000000000003 0 46 0 C48.67170471275457 10.686818851018263 42.58671642772239 23.24345667239959 38.10498046875 32.935546875 C36.18863118667928 36.83040601114982 36.18863118667928 36.83040601114982 37 41 C35.80573739530722 43.23518778853612 34.58552135392869 45.274419691558926 33.1875 47.375 C28.596702738064383 54.39339162557697 26.675735640202873 59.164572176575035 26.8125 67.5 C26.81314453125 68.2463671875 26.8137890625 68.992734375 26.814453125 69.76171875 C26.84551664143037 73.66191581292402 27.197545553531924 77.17618297857258 28 81 C28.173004873056453 83.6060575322313 28.318250993226265 86.20427108458058 28.4375 88.8125 C28.733430956400007 94.4319923729349 29.31789693928417 99.61727020570935 31 105 C27.24473608051862 103.47229036002916 25.149693751657875 101.21377693896541 22.5 98.1875 C21.7471875 97.3354296875 20.994375 96.483359375 20.21875 95.60546875 C18.727157257459027 93.85389769493868 17.2727329989297 92.0700520314183 15.85546875 90.2578125 C13.621935933480131 87.53995572537161 12.411529451424398 86.8339294214593 9 86 C6.029999999999999 86 3.0599999999999996 86 0 86 C0 57.62 0 29.239999999999995 0 0 Z " fill="#3C5C73" transform="translate(0,0)"/>
<path d="M0 0 C16.17 0 32.34 0 49 0 C49 10.89 49 21.78 49 33 C29.83957498693607 36.59257968994948 29.83957498693607 36.59257968994948 24 33 C21.375 30.812500000000004 21.375 30.812500000000004 19 28 C18.480507812500008 27.4341015625 17.961015625 26.868203125 17.42578125 26.28515625 C12.486790016117851 20.857815321082313 8.223707467417213 14.991984129481253 4 9 C3.539804687499995 8.363203125 3.079609375000004 7.72640625 2.60546875 7.0703125 C0.757893335717867 4.445841416814787 0 3.297151239226505 0 0 Z " fill="#1B395A" transform="translate(79,0)"/>
<path d="M0 0 C15.180000000000001 0 30.360000000000003 0 46 0 C44.46540723053153 9.207556616810823 38.77031460982666 16.596119943797977 32 23 C31.34 23 30.68 23 30 23 C29.67 23.99 29.34 24.98 29 26 C25.19191151537059 29.81642128218877 21.344647520429056 32.58117536248931 16.1875 34.1875 C11.999999999999998 34 11.999999999999998 34 0 30 C0 20.1 0 10.2 0 0 Z " fill="#33301C" transform="translate(0,0)"/>
<path d="M0 0 C3.823846157514936 3.4681395382112186 7.334809785113507 7.1903176767346935 7.9140625 12.5234375 C7.526858512130175 17.335829920667834 5.81223604545292 20.7215976756776 2.6875 24.4375 C-3.8996164132405227 29.826958883560422 -11.153210839848683 30.926813144014304 -19.4296875 30.75390625 C-25.611861975941878 30.075374905079542 -31.243434035732015 28.260248587569407 -35.9375 24.125 C-37.98652505737466 20.120087387858632 -38.75349882335245 16.949706780221277 -37.96484375 12.45703125 C-36.07735996799866 7.1246317128705385 -32.39052542492476 4.981814031772032 -27.5 2.5625 C-18.146889367330225 -1.8233643097579062 -9.734862773361058 -4.591916402528803 0 0 Z " fill="#A6CBE8" transform="translate(81.3125,64.5625)"/>
<path d="M0 0 C0.37987694284480966 11.290786912331924 -0.2137761516068224 19.414369185652696 -8 28 C-10.477622443684481 30.551093949428008 -12.993936421492776 33.05524828630345 -15.53515625 35.54296875 C-18.87983197248112 38.87704328160163 -21.95542022489785 42.39371967815441 -25 46 C-25.7425 46.825 -26.485 47.650000000000006 -27.25 48.5 C-29.58379324593413 51.83399035133448 -30.694485940295507 55.14873352387174 -32 59 C-32.99 58.67 -33.980000000000004 58.34 -35 58 C-37.83556133197055 49.64255607419204 -39.44065702277612 35.927735149035406 -35.5 27.75 C-34.67451166673672 26.494805411065414 -33.84000581467667 25.245525863141275 -33 24 C-32.265234375 22.476328125000002 -32.265234375 22.476328125000002 -31.515625 20.921875 C-26.522184897447566 11.24432294284086 -20.677334655346414 7.806745074320489 -10.8544921875 3.7880859375 C-9.095849540484593 3.0407322691790775 -7.3922275590876865 2.1676071759815656 -5.6953125 1.2890625 C-3 0 -3 0 0 0 Z " fill="#52799E" transform="translate(63,27)"/>
<path d="M0 0 C0 11.549999999999997 0 23.099999999999994 0 35 C-10.230000000000004 35 -20.460000000000008 35 -31 35 C-32 33 -32 33 -32.375 29.75 C-33.00787074852937 25.95277550882379 -34.19904608357801 23.367000800267192 -36 20 C-36 19.340000000000003 -36 18.680000000000007 -36 18 C-36.989999999999995 17.67 -37.980000000000004 17.340000000000003 -39 17 C-35.41977209240979 14.027214359507354 -31.47788269318403 12.182707676660897 -27.3125 10.1875 C-22.6213627565739 7.920415484425561 -18.298021973103886 5.654115351304739 -14.125 2.5 C-10 0 -10 0 0 0 Z " fill="#113D6D" transform="translate(128,93)"/>
<path d="M0 0 C1.072499999999998 0.24750000000000227 2.144999999999996 0.49500000000000455 3.25 0.75 C2.9496484375000023 1.3184765624999955 2.6492968750000045 1.8869531250000051 2.33984375 2.47265625 C-0.1787113390158268 7.586603701933825 -1.6059267458270412 11.073047600999644 0.25 16.75 C3.8938144441965292 21.76024486077023 8.348840201707041 23.569768040341415 14.25 24.75 C22.83681966272539 25.665091730480228 30.476591630833553 24.240473931739018 38.125 20.25 C41.46943643008015 16.315368905788063 42.742535296327844 11.634522503518738 44.25 6.75 C47.625 7.375 47.625 7.375 51.25 8.75 C53.09290516436975 11.656119682275389 53.42656439101822 13.531487721244616 52.93359375 16.93359375 C51.32039046599827 22.950131784044174 48.559839952696876 26.542582864669285 43.25 29.75 C30.008881938379275 36.646876185685585 13.355313259724625 35.857109064635125 -0.66796875 31.93359375 C-7.008011795063403 29.69538062183139 -10.691377137108574 26.86724572578285 -13.75 20.75 C-14.548707111856768 14.24624208916633 -13.20982587364389 10.977341153767298 -9.32421875 5.7421875 C-8.544980468749998 4.756054687499997 -8.544980468749998 4.756054687499997 -7.75 3.75 C-6.790937499999998 2.4506250000000023 -6.790937499999998 2.4506250000000023 -5.8125 1.125 C-3.75 -0.25 -3.75 -0.25 0 0 Z " fill="#77A0B5" transform="translate(44.75,69.25)"/>
<path d="M0 0 C0.6599999999999966 0.33000000000000007 1.3200000000000003 0.6600000000000001 2 1 C0.8979614187024509 9.968313971938668 -1.9569860624467594 17.914112026246976 -5.31982421875 26.22900390625 C-6.07694866788141 28.12267305123482 -6.07694866788141 28.12267305123482 -6.75390625 30.63671875 C-9.991221764286891 40.94063155833028 -23.35328235001765 47.49295116934255 -32.36328125 52.1953125 C-36.4329573648339 53.43731735874931 -40.76613841632614 53.576613841632614 -45 54 C-45 45.09 -45 36.18 -45 27 C-41.04 27.99 -37.08 28.98 -33 30 C-25.47762717006662 30.22454844268458 -21.27683448555605 26.95458505132362 -16 22 C-14.25570727175468 20.052488701473674 -12.640030716179481 18.037613920101784 -11 16 C-10.340000000000003 16 -9.68 16 -9 16 C-8.733164062500002 15.4341015625 -8.466328124999997 14.868203125 -8.19140625 14.28515625 C-6.502844201802546 11.046438878867184 -4.41120441095002 8.124313485802846 -2.33984375 5.12109375 C-0.8507569752994968 2.9510883235027148 -0.8507569752994968 2.9510883235027148 0 0 Z " fill="#555B56" transform="translate(45,3)"/>
<path d="M0 0 C7.260000000000005 0 14.520000000000003 0 22 0 C24.19587628865979 17.567010309278363 24.19587628865979 17.567010309278363 21 23 C17.747201779725174 26.904948474706455 13.920778121614632 28.57513699184544 9.3125 30.4375 C3.8625065049853475 32.710436334910554 -1.2869566928175544 35.097890258745814 -6.30078125 38.25 C-8 39 -8 39 -11 38 C-10.294238281250003 36.20755859375 -10.294238281250003 36.20755859375 -9.57421875 34.37890625 C-8.945193677865078 32.77348405096908 -8.316294160073866 31.16801265419262 -7.6875 29.5625 C-7.378769531250001 28.77939453125 -7.070039062500001 27.9962890625 -6.751953125 27.189453125 C-2.360745495856527 16.36054043548996 -2.360745495856527 16.36054043548996 -0.3125 4.9375 C-0.20937500000000142 3.308125 -0.10625000000000284 1.67875 0 0 Z " fill="#686E73" transform="translate(46,0)"/>
<path d="M0 0 C1.75 2.75 1.75 2.75 3 6 C3.5878124999999983 7.237499999999997 3.5878124999999983 7.237499999999997 4.1875 8.5 C5 11 5 11 5 17 C-13.480000000000004 17 -31.96 17 -51 17 C-49.975759409481405 11.878797047407005 -49.174994646832516 9.812262506390312 -45 7 C-36.65856053445955 2.639423715517765 -28.952752160382964 1.467770592415519 -19.74609375 1.18359375 C-16.467830782700076 1.0229280988393157 -13.562500641990823 0.608364809360296 -10.375 -0.125 C-6.605460072354191 -0.9485969589814403 -3.707667503558497 -1.446894635535017 0 0 Z " fill="#0E2D47" transform="translate(92,111)"/>
<path d="M0 0 C0 9.569999999999993 0 19.14 0 29 C-4.950000000000003 29.495000000000005 -4.950000000000003 29.495000000000005 -10 30 C-12.68030074988441 30.990004215460033 -12.68030074988441 30.990004215460033 -14.73828125 32.46875 C-15.874267578125 33.20158203125 -15.874267578125 33.20158203125 -17.033203125 33.94921875 C-17.78537109375 34.46097656250001 -18.537539062500002 34.972734375 -19.3125 35.5 C-20.845844400708984 36.51710564257556 -22.383487698150915 37.52776629845356 -23.92578125 38.53125 C-24.590051269531244 38.98048828124999 -25.254321289062503 39.42972656250001 -25.938720703125 39.892578125 C-28.27802222637544 41.14936738349391 -30.387272779808313 41.597736028727695 -33 42 C-32.29875 40.989374999999995 -31.597499999999997 39.97874999999999 -30.875 38.9375 C-28.440751944856416 35.05233008147988 -26.668883302347353 31.006487131898496 -25 26.75 C-24.61871948242188 25.781269531250004 -24.61871948242188 25.781269531250004 -24.229736328125 24.79296875 C-23.03559416507973 21.731573967497738 -21.87726025564116 18.662561894035406 -20.75390625 15.57421875 C-18.332995139922275 9.200475729041273 -15.981842361021705 4.58627042023339 -10 1 C-7 0 -7 0 0 0 Z " fill="#394A78" transform="translate(128,64)"/>
<path d="M0 0 C3.6299999999999955 0 7.260000000000005 0 11 0 C11.495000000000005 1.11375 11.989999999999995 2.2275 12.5 3.375 C14.766690461697507 7.924456742272304 17.752383855681018 11.639506085323463 20.9765625 15.546875 C25.313720776129855 20.805051442875584 29.28667879061652 26.287198139410016 33 32 C31.019999999999996 33.98 29.039999999999992 35.96 27 38 C23.218653962587425 36.48063296916605 21.275027283798124 34.222679199431504 18.6875 31.125 C12.74068663777804 24.38008729947657 9.195974469156553 22.313710638450935 0 21 C0 14.07 0 7.139999999999999 0 0 Z " fill="#496C8E" transform="translate(68,0)"/>
</svg>
