<?xml version="1.0" encoding="UTF-8"?>
<!-- Generator: visioncortex VTracer 0.6.0 -->
<svg version="1.1" xmlns="http://www.w3.org/2000/svg" width="128" height="128">
<path d="M0 0 C42.24 0 84.48 0 128 0 C128 42.24 128 84.48 128 128 C85.75999999999999 128 43.519999999999996 128 0 128 C0 85.75999999999999 0 43.519999999999996 0 0 Z " fill="#507E94" transform="translate(0,0)"/>
<path d="M0 0 C0.8043750000000003 0.6806249999999991 1.6087500000000006 1.3612499999999983 2.4375 2.0625 C8.136858065482365 6.371770732437888 12.938638127087962 7.4904842697693965 19.875 8 C27.016211673616468 8.529870680673056 35.94076144755927 9.333652821266377 41 15 C41.75 18.687499999999986 41.75 18.687499999999986 42 22 C40.515 22.494999999999997 40.515 22.494999999999997 39 23 C39 23.659999999999997 39 24.32 39 25 C36.01887373514617 25.993708754951285 33.89188626981773 26.166071347664086 30.7734375 26.24609375 C29.740898437499993 26.278964843750003 28.708359375 26.311835937500007 27.64453125 26.345703125 C25.488369933532383 26.406240509632 23.33211684123097 26.46360391300948 21.17578125 26.517578125 C10.792475559119303 26.81656530552459 10.792475559119303 26.81656530552459 1 30 C0.7589453125000034 31.04929687500001 0.5178906249999997 32.09859374999999 0.26953125 33.1796875 C-0.9439014029418828 37.80892716331675 -3.7505769922827312 40.112585647191395 -7.3125 43.125 C-8.455240279367004 44.12667720977356 -9.597178151096898 45.129270624271214 -10.73828125 46.1328125 C-11.292578124999999 46.61484130859375 -11.846874999999997 47.09687011718751 -12.41796875 47.593505859375 C-15.525399556536271 50.35614611808725 -18.38717295148921 53.338449952932706 -21.2109375 56.38671875 C-26.56351738711536 62.077458016265254 -30.044687714510403 64.7853750092909 -38.06640625 65.1328125 C-41.06095212860616 65.18230912609266 -44.01172941183775 65.20267450361352 -47 65 C-48 64 -48 64 -48.12025451660156 61.63987731933594 C-48.1180339050293 60.59396926879883 -48.11581329345703 59.54806121826172 -48.113525390625 58.470458984375 C-48.11344985961914 57.28931015014649 -48.11337432861328 56.10816131591797 -48.11329650878906 54.89122009277344 C-48.10555458068848 52.96313255310059 -48.10555458068848 52.96313255310059 -48.09765625 50.99609375 C-48.096241302490235 49.68794204711915 -48.09482635498047 48.37979034423827 -48.09336853027344 47.03199768066406 C-48.08954409745364 43.54837141017978 -48.07971446485585 40.064786605798176 -48.06866455078125 36.5811767578125 C-48.05844882196322 33.02873292071351 -48.05387056457934 29.476282406013325 -48.048828125 25.923828125 C-48.038092120517234 18.949201678986057 -48.021016596040816 11.974602828047963 -48 5 C-47.31320159912109 4.800431976318357 -46.62640319824219 4.600863952636715 -45.918792724609375 4.3952484130859375 C-45.01794952392578 4.130028839111326 -44.11710632324219 3.8648092651367207 -43.18896484375 3.591552734375 C-42.295916442871096 3.330109710693357 -41.402868041992186 3.0686666870117207 -40.482757568359375 2.7993011474609375 C-37.611608773392845 1.874960988117742 -35.17956269603328 0.662284279741769 -32.625 -0.9375 C-31.833515625 -1.4208984375 -31.04203125 -1.904296875 -30.2265625 -2.40234375 C-27.91674787900039 -3.956580262723307 -27.91674787900039 -3.956580262723307 -25.9609375 -6.12890625 C-18.429069952090583 -13.31568823296536 -6.351273319690975 -5.168100197542884 0 0 Z " fill="#356E6D" transform="translate(48,39)"/>
<path d="M0 0 C0.8372460937499966 -0.012246093749993747 1.6744921874999932 -0.024492187500001705 2.537109375 -0.037109375 C6.956300718872285 -0.047606266553145815 10.41881882987434 0.10830503876934472 14.4375 2.1875 C14.4375 2.8474999999999966 14.4375 3.507499999999993 14.4375 4.1875 C15.427499999999995 4.1875 16.417500000000004 4.1875 17.4375 4.1875 C18.427499999999995 7.157499999999999 18.427499999999995 7.157499999999999 19.4375 10.1875 C18.530402832031257 10.337836914062507 18.530402832031257 10.337836914062507 17.60498046875 10.4912109375 C14.838076390889512 10.958453785800387 12.075507159396409 11.447760635768361 9.3125 11.9375 C8.361171874999997 12.094765625000008 7.409843749999993 12.252031250000002 6.4296875 12.4140625 C-0.26233481245520807 13.622344306415528 -4.62863773168273 15.15584232273882 -9.4375 20.125 C-10.909908663623249 22.824415883309285 -11.242440273533369 24.165543228740603 -10.5625 27.1875 C-9.202119933737436 28.105756544727228 -7.830554195774532 29.010759747970837 -6.4140625 29.83984375 C2.3239906215789006 36.1998191233011 7.435944096433943 46.84612783157536 9.4375 57.1875 C9.4375 59.16749999999999 9.4375 61.14750000000001 9.4375 63.1875 C-16.6325 63.1875 -42.7025 63.1875 -69.5625 63.1875 C-69.5625 54.9375 -69.5625 46.6875 -69.5625 38.1875 C-62.4375000000004 38.374999999999986 -62.4375000000004 38.374999999999986 -60.22998046875 38.457763671875 C-54.01869410459108 38.53609966751736 -50.38383716396115 36.85881372704526 -45.859375 32.70703125 C-44.598671875 31.36705078125 -44.598671875 31.36705078125 -43.3125 30 C-41.765090744625425 28.361152924989653 -40.1895823750425 26.747275010607282 -38.5625 25.1875 C-37.9025 25.1875 -37.2425 25.1875 -36.5625 25.1875 C-36.23572265625 24.344453125 -36.23572265625 24.344453125 -35.90234375 23.484375 C-34.12903659415505 20.44441987569438 -31.823023041550222 18.68764405058903 -29.125 16.4375 C-24.357656218363843 12.269619588452485 -24.357656218363843 12.269619588452485 -21.6875 6.6875 C-20.5625 3.1875 -20.5625 3.1875 -18.25 1.75 C-12.087232204496566 0.46011836838300724 -6.280553954258352 0.004857350312647668 0 0 Z " fill="#308294" transform="translate(69.5625,64.8125)"/>
<path d="M0 0 C1.22265625 2.242187500000014 1.22265625 2.242187500000014 2.0625 4.875 C2.384765625 5.843085937500007 2.70703125 6.811171874999999 3.0390625 7.80859375 C3.705614834244983 10.022306177146973 4.344373375948521 12.24450378543996 4.9609375 14.47265625 C5.283203125 15.616054687499997 5.60546875 16.759453124999993 5.9375 17.9375 C6.214648437500003 18.9983984375 6.491796875000006 20.059296875 6.77734375 21.15234375 C8.291831217654988 24.679696350384944 9.74096893426983 25.997629218089514 13 28 C16.10071258852153 28.896180808666543 16.10071258852153 28.896180808666543 19.3125 29.25 C21.189375 29.497500000000002 23.066249999999997 29.745000000000005 25 30 C25 36.599999999999994 25 43.2 25 50 C8.829999999999998 50 -7.340000000000003 50 -24 50 C-25.319999999999993 44.72 -26.64 39.44 -28 34 C-32.07292880111427 26.119768189148488 -36.814978143643344 18.092510928178328 -45 14 C-44.91198577020452 9.599288510225847 -44.346753843712705 6.8019005577613 -41.1875 3.75 C-36.390778377018776 0.04119462140627661 -30.852686332599973 -0.9212380074712598 -25 -2 C-23.298437500000006 -2.340312499999996 -23.298437500000006 -2.340312499999996 -21.5625 -2.6875 C-5.145920375677633 -4.127550844238797 -5.145920375677633 -4.127550844238797 0 0 Z " fill="#6EB9CE" transform="translate(103,78)"/>
<path d="M0 0 C19.14 0 38.28 0 58 0 C57.67 3.6300000000000003 57.34 7.260000000000001 57 11 C58.31587029412874 14.076218389152915 58.31587029412874 14.076218389152915 60.625 16.25 C61.359765624999994 17.05953125 62.09453125 17.8690625 62.8515625 18.703125 C63.560546875 19.46109375 64.26953125 20.2190625 65 21 C70 27.398104265402832 70 27.398104265402832 70 30 C63.17549436658173 33.001603934827784 56.59173131712038 34.98620077778572 49.25 36.25 C48.29134033203124 36.41765869140625 47.33268066406251 36.5853173828125 46.344970703125 36.758056640625 C23.630473551651512 40.51483927721361 23.630473551651512 40.51483927721361 15 35 C5.399253719759926 25.730915863986404 1.2716509023675826 15.058146579535798 0 2 C0 1.3399999999999999 0 0.6799999999999999 0 0 Z " fill="#C2997E" transform="translate(33,0)"/>
<path d="M0 0 C0.8043750000000003 0.6806249999999991 1.6087500000000006 1.3612499999999983 2.4375 2.0625 C8.136858065482365 6.371770732437888 12.93863812708797 7.4904842697693965 19.875 8 C27.016211673616482 8.529870680673056 35.940761447559254 9.33365282126637 41 15 C41.75 18.687499999999986 41.75 18.687499999999986 42 22 C40.515 22.494999999999997 40.515 22.494999999999997 39 23 C39 23.659999999999997 39 24.32 39 25 C36.01887373514617 25.993708754951285 33.89188626981772 26.166071347664086 30.7734375 26.24609375 C29.740898437499993 26.278964843750003 28.708359375 26.311835937500007 27.64453125 26.345703125 C25.488369933532383 26.406240509632 23.33211684123097 26.46360391300948 21.17578125 26.517578125 C13.763719713030419 26.76097295861797 7.040094938362628 27.653301687212462 0 30 C-2.6604034276897295 29.527103861817423 -5.201208527511355 28.9777519526467 -7.8125 28.3125 C-8.511816406249999 28.150722656249997 -9.211132812499997 27.988945312499993 -9.931640625 27.822265625 C-15.871130919386559 26.338782080938998 -20.344428563431364 24.069464295710794 -24.25 19.1875 C-28.21926726208176 11.957763201208223 -29.26371097922667 4.1927025348169735 -28 -4 C-26.175125718145978 -6.399669485169277 -24.817070219134646 -7.670588291099868 -22.0234375 -8.796875 C-13.612375248889286 -9.64122873949374 -6.231793863268848 -5.070878464001183 0 0 Z " fill="#215572" transform="translate(48,39)"/>
<path d="M0 0 C10.89 0 21.78 0 33 0 C33.52867148952521 2.643357447626056 34.04979336471854 5.288801515367531 34.5078125 7.9453125 C36.126196050297324 16.283060664189996 39.142433347412464 22.111087292694037 44 29 C45.01351664023092 30.65848177492332 46.01767292309948 32.322856210169846 47 34 C41.43790575535028 35.66759250165476 37.50983346316998 33.657116734323736 32.25390625 31.71484375 C28.393461765066437 30.86675090397018 26.557235398613642 31.370231157798287 23 33 C21.626457071574375 34.17732251007911 20.254652083886082 35.3569404559633 18.90234375 36.55859375 C13.216202356209315 40.8669842516607 7.132232226946928 44 0 44 C0 29.479999999999997 0 14.959999999999997 0 0 Z " fill="#5D6D6E" transform="translate(0,0)"/>
<path d="M0 0 C8.807309674981454 7.870361837217473 14.695868214438292 17.043235774597804 16.9375 28.625 C16.9375 30.605000000000004 16.9375 32.58500000000001 16.9375 34.625 C4.397500000000008 34.625 -8.142499999999998 34.625 -21.0625 34.625 C-25.797439759036145 10.950301204819269 -25.797439759036145 10.950301204819269 -22.5625 4.75 C-15.853290160070046 -0.9528283639404549 -8.418052919714995 -3.779533963953668 0 0 Z " fill="#358BC4" transform="translate(62.0625,93.375)"/>
<path d="M0 0 C0.39187499999999886 0.5362499999999999 0.7837499999999977 1.0724999999999998 1.1875 1.625 C1.7856250000000031 2.4087499999999995 2.383749999999999 3.192499999999999 3 4 C3.639375000000001 4.94875 4.278750000000002 5.897500000000001 4.9375 6.875 C9.556211962084063 12.279582355632698 16.335560532635967 15.37898321526643 23.25 16.55078125 C33.58009063078151 16.98534035105451 42.86898763212014 13.254624898369123 51 7 C51.5775 6.422499999999999 52.155 5.844999999999999 52.75 5.25 C53.162499999999994 4.8375 53.575 4.425000000000001 54 4 C54.66 4 55.31999999999999 4 56 4 C69 18.262693156732887 69 18.262693156732887 69 23 C62.17549436658173 26.001603934827784 55.59173131712038 27.98620077778572 48.25 29.25 C47.29134033203124 29.417658691406245 46.33268066406251 29.585317382812505 45.344970703125 29.758056640625 C22.630473551651505 33.51483927721361 22.630473551651505 33.51483927721361 14 28 C6.186685340456172 20.456599846876777 0.606160832937455 10.910894992874248 0 0 Z " fill="#989896" transform="translate(34,7)"/>
<path d="M0 0 C0 22.11 0 44.22 0 67 C-6.8242876526458645 65.86261872455901 -6.8242876526458645 65.86261872455901 -9.76953125 61.859375 C-10.175585937500003 61.24578124999999 -10.581640625000006 60.6321875 -11 60 C-11.457617187500006 59.32453125000001 -11.915234374999997 58.6490625 -12.38671875 57.953125 C-17.150781415348817 50.25418132304662 -17.43905984252227 43.12516513677858 -16.265625 34.33984375 C-15.515874313217239 27.73542225907532 -15.749373519588445 21.7362655017766 -17.4375 15.3125 C-18.12559284820881 12.000163392760378 -18.328340830559114 10.61276981751761 -16.71484375 7.6015625 C-11.37498115617774 1.3207050117249892 -8.459785101331676 0 0 0 Z " fill="#4F5864" transform="translate(128,21)"/>
<path d="M0 0 C0.10957031250000071 1.0853906250000023 0.21914062500000142 2.1707812499999974 0.33203125 3.2890625 C0.49158607661270537 4.73444151755038 0.651776107918387 6.179750513722823 0.8125 7.625 C0.8827539062499987 8.3378515625 0.953007812500001 9.050703124999998 1.025390625 9.78515625 C1.7771613164598676 16.34059667953006 3.7098252672823477 21.73847035419967 9 26 C14.996789394015437 29.123327809383042 21.44208095520999 30.48166406352152 28 32 C25.109277824379483 34.89072217562051 22.070923076155168 35.938624650706686 17.95703125 36.060546875 C15.63648966156876 35.980457386549716 13.319032444567078 35.865485016102696 11 35.75 C2.837251769055257 35.51747675471913 -2.620500226886758 36.78629506893239 -9.921875 40.58984375 C-12.999999999999998 42 -12.999999999999998 42 -20 43 C-20 31.450000000000003 -20 19.9 -20 8 C-15.05 6.515000000000001 -15.05 6.515000000000001 -10 5 C-7.171285193894125 3.7108755808426253 -7.171285193894125 3.7108755808426253 -4.9375 2.3125 C-1.0560471976401153 0 -1.0560471976401153 0 0 0 Z " fill="#355653" transform="translate(20,36)"/>
<path d="M0 0 C12.210000000000008 0 24.42 0 37 0 C37 6.930000000000001 37 13.860000000000001 37 21 C34.69 21.33 32.379999999999995 21.66 30 22 C25.669856307239655 24.37733379210372 22.883718112905854 27.0071595359765 20 31 C15.616681243351977 30.530358704644854 13.081594784931596 30.06953238956061 9.8984375 26.921875 C7.844901692913908 24.33711564436268 5.923772693437172 21.682221065387758 4 19 C3.382539062500001 18.3000390625 2.7650781250000023 17.600078125 2.12890625 16.87890625 C-1.9077311395718368 12.245629615780127 -1.9077311395718368 12.245629615780127 -2.1796875 8.57421875 C-1.8699791253316533 5.442167928757186 -1.411274527541508 2.8225490550830044 0 0 Z " fill="#817B70" transform="translate(91,0)"/>
<path d="M0 0 C6.7782661077269495 6.7782661077269495 4.6690343713547975 25.339732717117144 5 34 C-2.5900000000000034 34 -10.180000000000007 34 -18 34 C-18.536249999999995 31.566249999999997 -19.072500000000005 29.132499999999993 -19.625 26.625 C-21.969437976190363 16.80125734647703 -26.395705878535992 9.575513845208718 -33 2 C-33 1.6700000000000017 -33 1.3400000000000034 -33 1 C-32.03344482421875 1.0078552246093722 -32.03344482421875 1.0078552246093722 -31.04736328125 1.015869140625 C-28.073252467723194 1.0369035859489628 -25.09915739563796 1.0497431974451814 -22.125 1.0625 C-20.6051953125 1.0750683593749955 -20.6051953125 1.0750683593749955 -19.0546875 1.087890625 C-13.266927324235269 1.1064411383838575 -7.688471458556478 0.8531071095920026 -1.95654296875 0.021240234375 C-0.9880541992187517 0.010726318359374432 -0.9880541992187517 0.010726318359374432 0 0 Z " fill="#73BCF0" transform="translate(97,94)"/>
<path d="M0 0 C0.8372460937499966 -0.012246093749993747 1.6744921874999932 -0.024492187500001705 2.537109375 -0.037109375 C6.956300718872285 -0.047606266553145815 10.41881882987434 0.10830503876934472 14.4375 2.1875 C14.4375 2.8474999999999966 14.4375 3.507499999999993 14.4375 4.1875 C15.427500000000009 4.1875 16.41749999999999 4.1875 17.4375 4.1875 C18.097499999999997 6.167500000000004 18.757499999999993 8.147499999999994 19.4375 10.1875 C18.832768554687505 10.287724609375005 18.22803710937501 10.387949218749995 17.60498046875 10.4912109375 C14.83807639088954 10.958453785800387 12.075507159396409 11.447760635768361 9.3125 11.9375 C8.361171874999997 12.094765625000008 7.409843749999993 12.252031250000002 6.4296875 12.4140625 C-0.21223725537333848 13.61329891416463 -4.670176725204186 15.095706154528614 -9.375 20.125 C-10.727251369923586 22.473647116183074 -11.191444870941709 24.515903070780297 -11.5625 27.1875 C-20.065129685878176 27.547611374931307 -28.173403816138133 26.440271696790035 -36.5625 25.1875 C-35.006809508003215 21.174002636031958 -32.38558551195214 19.156819656714404 -29.125 16.4375 C-24.35765621836385 12.269619588452485 -24.35765621836385 12.269619588452485 -21.6875 6.6875 C-20.5625 3.1875 -20.5625 3.1875 -18.25 1.75 C-12.087232204496587 0.46011836838300724 -6.2805539542583375 0.004857350312647668 0 0 Z " fill="#397F8A" transform="translate(69.5625,64.8125)"/>
<path d="M0 0 C3.0552344753889713 3.0552344753889713 3.3673437541878997 7.197494979574756 4.236328125 11.326171875 C5.4060802096124405 16.23330613866466 7.118513660485249 18.814744394030498 11 22 C15.609099917933918 24.59263775798975 15.609099917933918 24.59263775798975 24 25 C24 31.599999999999994 24 38.2 24 45 C15.420000000000002 45 6.840000000000003 45 -2 45 C-2.307441406250007 42.215625 -2.307441406250007 42.215625 -2.62109375 39.375 C-2.8931997088895542 36.916663405894354 -3.165336763892441 34.45833025358547 -3.4375 32 C-3.5722070312500023 30.779257812499992 -3.7069140625000045 29.558515625 -3.845703125 28.30078125 C-4.5223277795265915 22.194656318906397 -5.215494329701528 16.093247924648296 -6 10 C-5.340000000000003 10 -4.680000000000007 10 -4 10 C-3.7950390624999955 9.361914062500006 -3.590078125000005 8.723828124999997 -3.37890625 8.06640625 C-3.1094921874999955 7.2401171875000045 -2.840078125000005 6.413828124999995 -2.5625 5.5625 C-2.295664062499995 4.738789062500004 -2.028828125000004 3.9150781249999937 -1.75390625 3.06640625 C-1 1 -1 1 0 0 Z " fill="#95AED0" transform="translate(104,83)"/>
<path d="M0 0 C3.664010693149038 3.1211942941639848 5.541755162202506 6.642773010763804 7.65625 10.87890625 C10.146379632241334 14.809546919497222 12.514291742642456 15.878572935660614 17 17 C17 23.599999999999994 17 30.200000000000003 17 37 C12.626010516696141 38.45799649443461 9.301962982968163 37.436443119313 5 36 C-0.3279209566767065 33.08472249540331 -1.4570939176842757 30.328696118216882 -3.25 24.5625 C-3.8384723414434916 22.376376871918282 -4.421901966089266 20.18888937385293 -5 18 C-5.3660937500000045 16.924921874999995 -5.732187499999995 15.849843750000005 -6.109375 14.7421875 C-7.173043693206537 11.467207576179888 -7.2518259802564415 10.20780407440715 -6 7 C-4.136850991122898 4.533004913453581 -2.119295749279189 2.2489162844033075 0 0 Z " fill="#757E92" transform="translate(111,71)"/>
</svg>
