<?xml version="1.0" encoding="UTF-8"?>
<!-- Generator: visioncortex VTracer 0.6.0 -->
<svg version="1.1" xmlns="http://www.w3.org/2000/svg" width="128" height="128">
<path d="M0 0 C42.24 0 84.48 0 128 0 C128 42.24 128 84.48 128 128 C85.75999999999999 128 43.519999999999996 128 0 128 C0 85.75999999999999 0 43.519999999999996 0 0 Z " fill="#848BAF" transform="translate(0,0)"/>
<path d="M0 0 C13.200000000000001 0 26.400000000000002 0 40 0 C40 7.000000000000007 40 7.000000000000007 38.9375 10.125 C37.871705885151854 13.393435285534311 38.12303678076522 14.731318910124916 39 18 C40.33093964790065 23.35011383215509 39.927022608296575 26.161842274647398 37.293701171875 30.79736328125 C36.88740478515625 31.4623583984375 36.4811083984375 32.127353515625 36.0625 32.8125 C35.65298095703125 33.5110107421875 35.2434619140625 34.209521484375 34.821533203125 34.92919921875 C31.829139377368588 39.9220968374432 28.482391151101275 44.4975891734955 24.7265625 48.94921875 C20.69771439912456 53.734615249908614 17.98787000363628 57.979604758922804 17.68359375 64.359375 C17.641376953125 65.220791015625 17.59916015625 66.08220703125 17.5556640625 66.9697265625 C17.516669921875 67.887216796875 17.47767578125 68.80470703125 17.4375 69.75 C17.397216796875 70.690693359375 17.35693359375 71.63138671875 17.3154296875 72.6005859375 C17.20199834367519 75.40014775946192 17.09934828546851 78.19990678494915 17 81 C16.95480224609375 82.14275390625 16.95480224609375 82.14275390625 16.90869140625 83.30859375 C16.572071831800173 92.51953446233408 16.387998749507396 100.53252476912756 22.375 107.9375 C26.385429074910277 111.08855141600093 29.0464265754263 112.23722055330065 34.125 111.8125 C37.69711481943045 111.32593286512741 41.04416341748475 110.45392252426919 44.5 109.4375 C54.0734893465379 106.73078922375042 61.91867206920334 107.63643366659477 70.6484375 112.46484375 C72.35698642634073 113.48947206506357 74.05483511553733 114.5322869571758 75.73828125 115.59765625 C81.8496680375496 119.3869271597242 87.01851973762555 119.78922399485421 94 118.25 C102.30964233516902 115.85515143531879 107.9800118440914 111.59842845841987 114.344482421875 105.972900390625 C122.25625080916625 99 122.25625080916625 99 128 99 C128 108.57 128 118.14 128 128 C85.75999999999999 128 43.519999999999996 128 0 128 C0 85.75999999999999 0 43.519999999999996 0 0 Z " fill="#94A8C8" transform="translate(0,0)"/>
<path d="M0 0 C7.638088934449399 5.971240258125391 12.346831717963227 14.631023996601492 16.0625 23.5 C16.0625 24.159999999999997 16.0625 24.819999999999993 16.0625 25.5 C16.893945312499994 25.750078125 17.725390625000003 26.000156250000003 18.58203125 26.2578125 C22.511847053721283 27.660373022540256 26.07365346319358 29.418645463104 29.75 31.375 C30.41322265625 31.714023437500003 31.0764453125 32.05304687500001 31.759765625 32.40234375 C35.33715882606995 34.29731738923746 38.13478885955705 35.86971186690306 40.0625 39.5 C40.96477564294398 43.97073516774043 40.49852213792424 47.61051483863456 38.5 51.6875 C33.888885603714414 57.00801661109875 29.175575993939873 61.903940139139976 21.91796875 62.75 C13.420731841843065 63.17820721426932 5.909279881595708 60.689841219614834 -0.9375 55.6875 C-5.107840394254353 52.86993531214634 -8.575349259678418 53.32929889635497 -13.421875 54.0078125 C-14.97450408114888 54.311587755007395 -16.52153528809015 54.64870271172775 -18.0546875 55.0390625 C-22.380088819450584 56.09797817571612 -26.031059509383738 55.831199410032866 -30.1875 54.3125 C-33.34255001996337 52.23303521411505 -34.328808956315086 50.89764387068533 -35.9375 47.5 C-36.309814453125 44.01416015625 -36.309814453125 44.01416015625 -36.30078125 40.0390625 C-36.30127975463867 39.330269470214844 -36.30177825927734 38.62147644042969 -36.30229187011719 37.891204833984375 C-36.29995959359735 36.39684231986806 -36.29028108305242 34.90247526273828 -36.273681640625 33.408203125 C-36.25014478655572 31.138959215145235 -36.25312006802188 28.870897142157887 -36.259765625 26.6015625 C-36.22147661516654 16.594313894010554 -35.980265735035175 8.879445969265447 -28.94140625 1.296875 C-19.65015659292429 -7.034459975155606 -10.115053195011185 -6.639224104833595 0 0 Z " fill="#4C595E" transform="translate(60.9375,48.5)"/>
<path d="M0 0 C0.7399218749999932 0.36996093750000014 1.4798437500000006 0.7399218750000003 2.2421875 1.12109375 C2.822265625 1.4111328125 3.40234375 1.701171875 4 2 C3.560968141711129 9.244025661766422 -3.1202296684140265 14.248644677139964 -8 19 C-8.721874999999997 19.763125000000002 -9.443749999999994 20.526250000000005 -10.1875 21.3125 C-12 23 -12 23 -14 23 C-15.075251941122502 25.652288121435518 -16.09456151361033 28.28368454083099 -17 31 C-17.659999999999997 31 -18.319999999999993 31 -19 31 C-19.33 32.65 -19.659999999999997 34.3 -20 36 C-22.27913337184144 34.687771695000386 -24.506782001813214 33.389189388147386 -26.57421875 31.7578125 C-31.051452882187476 28.230294698882595 -35.232885956259864 26.242315716123535 -41 26 C-48.13250049906645 26.959910629346254 -53.15172165230127 30.884310616337075 -58 36 C-62.46205755041806 42.69308632562709 -61.22008809262678 51.49475861428729 -61.240234375 59.277099609375 C-61.249986951684484 61.559446367961925 -61.281079795531646 63.84090905513857 -61.3125 66.123046875 C-61.31902702261631 67.58332803460715 -61.324278674188626 69.04361556903761 -61.328125 70.50390625 C-61.337470703125 71.82205322265625 -61.34681640625 73.1402001953125 -61.3564453125 74.498291015625 C-60.979116392094085 78.20515999191403 -60.24814642986906 80.06717847447612 -58 83 C-52.710682922740716 86.08543496173458 -47.17873853298792 85.35087965482069 -41.4375 84 C-40.38369140625 83.7215625 -40.38369140625 83.7215625 -39.30859375 83.4375 C-33.38281752867787 82.31451025924183 -30.12789009641522 83.11344790112555 -25.0625 86.375 C-17.51338822892565 90.97132266504526 -10.858285356026983 93.0985942592247 -2 92 C4.288102671033954 90.14139266183598 8.259296845259826 86.25510546998102 12 81 C13.136241187788613 78.72751762442276 13.26446843454984 77.21697236318643 13.375 74.6875 C13.423984375000003 73.9282421875 13.472968750000007 73.168984375 13.5234375 72.38671875 C12.712614579816332 68.68960827065506 10.915801358427075 67.37445539559491 8 65 C4.225567679490894 62.91523262070179 0.2814615088781096 61.20163116790684 -3.669921875 59.482421875 C-9.674116400186193 56.690347877691195 -9.674116400186193 56.690347877691195 -11.55078125 52.71484375 C-11.699023437500003 51.818945312500006 -11.847265625000006 50.923046875 -12 50 C-9.447560000888288 50.997981044697724 -6.935750450198398 52.02981257823873 -4.44921875 53.18359375 C2.1876403372937574 56.196934297413435 8.341986444183846 57.88349959386662 15.567626953125 58.572021484375 C18.354374452184956 58.946567555055566 20.451674221647934 59.35758281589521 22.3203125 61.546875 C25.231947837029423 66.51131798471924 26.72387350467467 70.86638969686886 25.40625 76.5703125 C21.980238572883835 87.17322717529917 15.479371298132975 94.91517896422052 6.125 100.8125 C2.1576725067294262 102.32008444744282 -0.880417815009892 102.95478160851472 -5 102 C-9.497306340398126 99.93575290373404 -13.721889071643943 97.47875658007727 -18 95 C-27.2709556326355 90.08846395144496 -34.575040163177995 90.14887437106044 -44.5625 93.0625 C-51.754832043985765 95.1251897948369 -56.31268687414996 95.7727466951202 -63.25 92.4375 C-67.57820320388078 88.60113806928749 -69.93846896593625 83.67867572591383 -71 78 C-71.22628381674993 73.0017898123765 -71.10585425284974 68.00084266375576 -71 63 C-70.9821142578125 62.12311523437501 -70.964228515625 61.24623046875 -70.94580078125 60.3427734375 C-70.87855613248287 57.540095010782196 -70.78673201970102 54.73921586658324 -70.6875 51.9375 C-70.6651025390625 51.04554931640625 -70.642705078125 50.1535986328125 -70.61962890625 49.234619140625 C-70.25185824504456 40.43391714159816 -66.62634094887332 35.28811491703732 -61.3125 28.5625 C-57.530927023784336 23.75169329197766 -54.46845457032224 19.18059220438421 -52.012939453125 13.57080078125 C-50.58166532938198 10.333610530518602 -49.21998135228088 7.798101496104032 -47 5 C-42.25914285305853 3.415915520613307 -37.94065325434529 3.7255192636474845 -33 4 C-26.900484179940186 3.357469401744442 -21.611184343662785 1.4630418490626127 -15.9375 -0.8125 C-9.567635245379222 -3.1830046203267717 -5.922289416263936 -3.2584981516263873 0 0 Z " fill="#5D7691" transform="translate(87,18)"/>
<path d="M0 0 C13.200000000000001 0 26.400000000000002 0 40 0 C40 10.28571428571428 40 10.28571428571428 37 15 C35.15952046589776 16.499198560891234 33.33694493082623 17.610242041748517 31.23046875 18.69921875 C25.629586571212215 21.96558261258552 21.781309728871722 26.14696452327884 18.125 31.4375 C17.7029931640625 32.04440673828125 17.280986328125 32.6513134765625 16.84619140625 33.276611328125 C15.546121088805343 35.172974701729444 14.269470843338222 37.083040163923584 13 39 C12.59330078125 39.60650390625 12.1866015625 40.2130078125 11.767578125 40.837890625 C7.610931165962336 47.1377020259717 3.675591351191442 53.22970958703681 4.2578125 61.06640625 C5.567207593093118 66.24196264427859 7.918589233948202 70.89666725434138 10.37109375 75.6171875 C13.520205992976969 82.1570704794198 13.506869195916588 89.18957631659806 13.986328125 96.34375 C14.777810543781472 105.58938533443845 18.244282626308433 112.38661791030324 23.73046875 119.76171875 C24.999999999999996 121.99999999999999 24.999999999999996 121.99999999999999 26 128 C17.42 128 8.84 128 0 128 C0 85.75999999999999 0 43.519999999999996 0 0 Z " fill="#C3BEE6" transform="translate(0,0)"/>
<path d="M0 0 C0.7425000000000068 0.08249999999999957 1.4849999999999994 0.16499999999999915 2.25 0.25 C2.5799999999999983 1.2399999999999984 2.9099999999999966 2.2300000000000004 3.25 3.25 C4.239999999999995 3.5799999999999983 5.230000000000004 3.91 6.25 4.25 C7.672632461968135 6.336329196317294 8.913556401276878 8.358293308523876 10.125 10.5625 C10.475061035156244 11.188984375000004 10.825122070312503 11.81546875 11.185791015625 12.4609375 C15.250618484871012 19.873655334775123 19.4979276800411 27.7151186719817 20.25 36.25 C19.54296875 38.488281249999986 19.54296875 38.488281249999986 18.4375 40.5625 C16.241721905598183 45.0300346695788 15.127261017924383 49.36734986076303 14.25 54.25 C4.367077878076742 53.345415598129975 -3.758330032247329 51.660760959436175 -12.75 47.25 C-13.770937500000002 46.8207421875 -14.791875000000005 46.391484375000005 -15.84375 45.94921875 C-21.07362627568449 42.8914281855877 -23.395393896721842 37.68044290485773 -25.75 32.25 C-26.133960689578245 26.49058965632627 -23.40656159399954 21.635595681276712 -19.75 17.25 C-19.090000000000003 17.25 -18.430000000000007 17.25 -17.75 17.25 C-17.42 16.260000000000005 -17.090000000000003 15.269999999999996 -16.75 14.25 C-15.128970319125102 12.538913114632052 -13.454965368242682 10.87746694241347 -11.75 9.25 C-10.904375000000002 8.404375000000002 -10.058750000000003 7.55875 -9.1875 6.6875 C-8.383125000000007 5.883125 -7.578749999999999 5.078749999999999 -6.75 4.25 C-6.090000000000003 3.4868750000000013 -5.430000000000007 2.723749999999999 -4.75 1.9375 C-2.75 0.25 -2.75 0.25 0 0 Z " fill="#6E9294" transform="translate(92.75,23.75)"/>
<path d="M0 0 C4.385869854763449 1.4710370941442648 8.131141874251256 1.6131148928754726 12.75 1.5 C23.887933316633536 1.2754448928098014 34.746311814201405 3.9230486336152524 44 10.3125 C45.375 12.5 45.375 12.5 45.5 15.9375 C44.39503746088445 19.436548040532557 43.36833870942259 21.424530809772108 40.390625 23.62890625 C35.89715846632549 25.57085012017329 30.193465474353047 25.27730310976895 25.51953125 23.98828125 C22.265035254509343 23.247275786545842 19.008159531310582 23.30941639277418 15.6875 23.3125 C14.614476318359372 23.31153320312501 14.614476318359372 23.31153320312501 13.519775390625 23.310546875 C8.88165694435967 23.356838632204415 4.723277147332951 23.86293151429794 0.2578125 25.04296875 C-4.154496956603005 26.1140065226609 -7.6483482970625545 25.856853506842526 -11.875 24.3125 C-15.020162279240573 22.2395521341369 -16.017621349119167 20.88297134662129 -17.625 17.5 C-17.953125 14.08984375 -17.953125 14.08984375 -17.875 10.4375 C-17.85953125 9.229648437500003 -17.8440625 8.021796875000007 -17.828125 6.77734375 C-17.510079592901878 1.6458034316283943 -17.510079592901878 1.6458034316283943 -16.625 -0.5 C-10.931333655483858 -2.3978887815053866 -5.620274038057566 -1.9891454024510864 0 0 Z " fill="#1D3C5E" transform="translate(42.625,78.5)"/>
<path d="M0 0 C3.0610391183238477 5.264987283517009 3.0610391183238477 5.264987283517009 2.8125 8.2578125 C1.7636916581418376 11.797540653771307 0.18191107239961468 14.9522833292042 -1.5625 18.1875 C-1.9160253906249949 18.848063964843746 -2.269550781250004 19.5086279296875 -2.6337890625 20.189208984375 C-5.380059132371311 25.177295006508636 -8.5577387054004 29.5610436162103 -12.23828125 33.9140625 C-16.385107268348186 38.82405162150317 -19.039030024507746 43.08780162045947 -19.28125 49.640625 C-19.3186328125 50.54683593749999 -19.356015624999998 51.453046875 -19.39453125 52.38671875 C-19.4293359375 53.3316015625 -19.464140625 54.276484374999995 -19.5 55.25 C-19.995412844036696 68.47935779816514 -19.995412844036696 68.47935779816514 -21 73 C-22.485 73.99 -22.485 73.99 -24 75 C-24.146953125 74.12859375 -24.29390625 73.2571875 -24.4453125 72.359375 C-25.67409858312659 65.8340971792588 -26.951977290149767 60.63338128178731 -30.1875 54.8125 C-33.24417260894733 48.95387749951762 -34.64710502047939 44.529594902614704 -33 38 C-28.57964925137285 27.05815844689827 -13.775478940976779 0 0 0 Z " fill="#98A3BF" transform="translate(37,15)"/>
<path d="M0 0 C1.98 0 3.96 0 6 0 C6.9866975948872705 1.8919247461600008 7.964060198444917 3.7887197753196205 8.9375 5.6875 C9.4827734375 6.743242187500002 10.028046875 7.798984375000003 10.58984375 8.88671875 C13.515010481726527 15.34477383361785 13.517572501894753 22.349284073216083 13.986328125 29.34375 C14.777810543781474 38.58938533443845 18.244282626308433 45.386617910303244 23.73046875 52.76171875 C25 55 25 55 26 61 C17.42 61 8.84 61 0 61 C0 40.870000000000005 0 20.739999999999995 0 0 Z " fill="#CDCAE1" transform="translate(0,67)"/>
<path d="M0 0 C13.200000000000003 0 26.400000000000006 0 40 0 C41.35040495633143 5.4016198253257475 41.43154536663329 9.894512220838505 39 15 C35.24983341953666 17.537706708584214 31.32640155084306 18.75696671860106 27 20 C25.942968750000006 20.3570703125 24.885937499999997 20.714140625 23.796875 21.08203125 C16.034808677526826 23.629636816733516 8.082730683725543 23.100894002986866 0 23 C-2.736100398267098 17.93786076186242 -3.2300350046752087 15.677084636962508 -2 10 C-1.3400000000000034 6.699999999999999 -0.6799999999999997 3.3999999999999995 0 0 Z " fill="#7288BB" transform="translate(40,0)"/>
<path d="M0 0 C5.280000000000001 1.3200000000000003 10.560000000000002 2.6400000000000006 16 4 C16 15.549999999999997 16 27.099999999999994 16 39 C13.689999999999998 39.99000000000001 11.379999999999995 40.97999999999999 9 42 C6.464395954474682 43.75391359041396 6.464395954474682 43.75391359041396 4.1875 45.75 C-9.45742921147783 57.02370675704418 -9.45742921147783 57.02370675704418 -16 59 C-18.31250000000003 58.625 -18.31250000000003 58.625 -20 58 C-19.492109375 57.7202734375 -18.984218749999997 57.440546874999995 -18.4609375 57.15234375 C-8.769336243500305 51.50798421672022 -3.468013782551992 43.5582922090655 0 32.9375 C0 27.422747767170875 -1.9695349123562664 22.545697631465615 -5 18 C-5.399100297765287 11.374935057096138 -2.8626598815137356 5.817663630173072 0 0 Z " fill="#8D9BA2" transform="translate(112,60)"/>
<path d="M0 0 C0 9.569999999999993 0 19.14 0 29 C-16.83 29 -33.66 29 -51 29 C-51 28.010000000000005 -51 27.019999999999996 -51 26 C-50.34 26 -49.68000000000001 26 -49 26 C-49 25.340000000000003 -49 24.680000000000007 -49 24 C-45.477721495504525 21.420845248074357 -42.60689122799808 20.59514697022142 -38.3125 20.125 C-27.215091973451564 18.40625509832725 -20.14149162441585 12.782325878749944 -11.98046875 5.5234375 C-5.456656346749227 0 -5.456656346749227 0 0 0 Z " fill="#BAB4BE" transform="translate(128,99)"/>
<path d="M0 0 C5.421671771831285 -0.478382803396876 8.942979131461982 1.6466967970144601 13.375 4.5625 C13.911249999999995 5.036875000000002 14.447500000000005 5.51125 15 6 C15 6.66 15 7.32 15 8 C16.65984798461136 8.683466817192915 18.328368051943485 9.345883150760496 20 10 C20.866250000000008 10.37125 21.7325 10.7425 22.625 11.125 C27.193564076596417 12.460097291103494 27.193564076596417 12.460097291103494 37 12 C37 22.89 37 33.78 37 45 C25.09660449545673 43.809660449545675 25.09660449545673 43.809660449545675 22 41 C20.6640625 38.101562500000014 20.6640625 38.101562500000014 19.625 34.625 C17.195016046239346 27.204321153863837 13.929343952224556 20.769272638074057 10 14 C9.476640625000002 13.088632812500002 8.953281250000003 12.177265625 8.4140625 11.23828125 C6.196914922972169 7.728818372549878 3.8983273115012764 6.299442437167091 0 5 C0 3.3500000000000014 0 1.6999999999999993 0 0 Z " fill="#8299B0" transform="translate(91,19)"/>
<path d="M0 0 C2.552439999111769 0.9979810446977524 5.064249549801559 2.0298125782387046 7.55078125 3.18359375 C14.187640337293757 6.196934297413435 20.341986444183846 7.883499593866617 27.567626953125 8.572021484375 C30.354374452184942 8.946567555055566 32.45167422164795 9.357582815895242 34.3203125 11.546875 C37.23194783702942 16.511317984719227 38.72387350467466 20.866389696868893 37.40625 26.5703125 C33.98023857288382 37.17322717529919 27.47937129813299 44.9151789642205 18.125 50.8125 C14.156684083744025 52.32046004817727 11.119794578735394 52.956855515061136 7 52 C1.3947613626208692 49.449749245552624 -3.8789951380300494 46.414003241313296 -9 43 C-9 42.34 -9 41.68000000000001 -9 41 C-7.721249999999998 41.16499999999999 -6.4424999999999955 41.33 -5.125 41.5 C7.074617156711099 42.85702733187597 7.074617156711099 42.85702733187597 18 38 C22.115417257443312 33.97424324925481 25.117825603975945 30.572837139781072 25.375 24.6875 C25.423984375000003 23.928242187500004 25.472968750000007 23.168984375000008 25.5234375 22.38671875 C24.712614579816346 18.689608270655086 22.91580135842706 17.374455395594893 20 15 C16.225567679490894 12.915232620701786 12.281461508878095 11.20163116790684 8.330078125 9.482421875 C2.3258835998137926 6.690347877691195 2.3258835998137926 6.690347877691195 0.44921875 2.71484375 C0.30097656249999716 1.8189453125000057 0.15273437499999432 0.9230468749999972 0 0 Z " fill="#607A86" transform="translate(75,68)"/>
<path d="M0 0 C0.8494921875000045 0.4434375000000017 1.698984375000009 0.8868750000000034 2.57421875 1.34375 C6.70734437507096 3.563754285188196 9.668296921217475 5.221167352245544 12.25 9.25 C13.152275642943977 13.720735167740429 12.686022137924226 17.360514838634572 10.6875 21.4375 C6.0763856037143995 26.758016611098768 1.363075993939887 31.653940139139976 -5.89453125 32.5 C-15.756176072068016 32.996964778434915 -24.21321592907094 29.446911347208328 -31.75 23.25 C-31.75 22.92 -31.75 22.590000000000003 -31.75 22.25 C-30.333442068614254 22.222758501319504 -28.916729551298992 22.2034953336437 -27.5 22.1875 C-26.316640624999998 22.170097656249993 -26.316640624999998 22.170097656249993 -25.109375 22.15234375 C-22.823008875349103 22.246978109464024 -20.959083498479174 22.69244928910277 -18.75 23.25 C-13.660818952343448 23.71265282251423 -9.258002113753804 24.004001056876902 -4.625 21.6875 C-2.134918616940965 18.450394202023247 -1.6773213872282469 16.320002315218304 -1.75 12.25 C-4.72678059021446 8.31586283805828 -8.36925638279638 7.017069247452724 -12.9375 5.625 C-13.600803222656253 5.413352050781242 -14.264106445312507 5.201704101562498 -14.947509765625 4.983642578125 C-19.838220000736086 3.4518352214675616 -24.721049152645193 2.2204992863316306 -29.75 1.25 C-27.436974195814635 -1.0630258041853722 -25.616829190355226 -1.7375256808332296 -22.5625 -2.875 C-21.640820312499997 -3.228203124999993 -20.719140624999994 -3.5814062500000006 -19.76953125 -3.9453125 C-11.793077628566948 -6.070990955388368 -6.906595170017567 -3.8002285634099735 0 0 Z " fill="#2E5469" transform="translate(88.75,78.75)"/>
<path d="M0 0 C3.125 1.8125 3.125 1.8125 5 4 C5 4.989999999999995 5 5.980000000000004 5 7 C-1.9299999999999997 7 -8.86 7 -16 7 C-15 3 -15 3 -13.0625 1.25 C-8.674016642626327 -0.541217696887216 -4.675902102267557 -0.705218021981338 0 0 Z " fill="#CDCAE1" transform="translate(60,121)"/>
</svg>
