<?xml version="1.0" encoding="UTF-8"?>
<!-- Generator: visioncortex VTracer 0.6.0 -->
<svg version="1.1" xmlns="http://www.w3.org/2000/svg" width="128" height="128">
<path d="M0 0 C42.24 0 84.48 0 128 0 C128 42.24 128 84.48 128 128 C85.75999999999999 128 43.519999999999996 128 0 128 C0 85.75999999999999 0 43.519999999999996 0 0 Z " fill="#8B8E85" transform="translate(0,0)"/>
<path d="M0 0 C42.24 0 84.48 0 128 0 C128 14.190000000000001 128 28.380000000000003 128 43 C116.73649135446685 41.87364913544668 116.73649135446685 41.87364913544668 113.0703125 40.58203125 C112.2620703125 40.30029052734375 111.453828125 40.0185498046875 110.62109375 39.728271484375 C109.7973828125 39.42606689453125 108.973671875 39.1238623046875 108.125 38.8125 C107.2471484375 38.49933837890625 106.369296875 38.1861767578125 105.46484375 37.863525390625 C100.79885714589547 36.16073319656802 96.38054379160639 34.29625434932651 92 31.9375 C86.74543213277936 29.14859488020192 81.35933324567748 27.352079374971748 75.6875 25.625 C74.83865234375 25.36195068359375 73.9898046875 25.0989013671875 73.115234375 24.827880859375 C64.01258897699638 22.16038971880558 57.4301297224698 23.125005865035092 48.5625 26.125 C47.65951171875 26.40859375 46.7565234375 26.6921875 45.826171875 26.984375 C37.967708988826494 29.601965823779736 30.404340219762673 33.71589886731557 26 41 C22.43399613236111 50.431398207307225 24.551459881274575 60.1910300850194 26.5625 69.75 C28.010619093438944 76.72084779292668 28.830518423303296 82.21328690018622 26.8125 89.125 C25.460651880995364 94.5605559784978 26.900015171669086 99.23072944366186 28.19140625 104.57421875 C30.122815109191567 112.75704758821742 29.853487625902808 119.4651237409719 29 128 C19.43 128 9.86 128 0 128 C0 85.75999999999999 0 43.519999999999996 0 0 Z " fill="#85666B" transform="translate(0,0)"/>
<path d="M0 0 C3.805891714520527 0.8481624112815425 7.448073209245479 2.160044775021966 11.119873046875 3.45849609375 C12.671724568493403 4.0045417743858565 14.225088472172416 4.546310779204148 15.780029296875 5.08349609375 C16.458156738281247 5.323261718750004 17.136284179687493 5.563027343750001 17.8349609375 5.81005859375 C20.518412830878432 6.593014567474391 23.300065172843716 6.998944781411453 26.057373046875 7.45849609375 C26.057373046875 22.63849609375 26.057373046875 37.81849609375 26.057373046875 53.45849609375 C23.417373046875 54.44849609375001 20.777373046875 55.43849609374999 18.057373046875 56.45849609375 C15.2417447697797 58.43763728662452 15.2417447697797 58.43763728662452 12.869873046875 60.77099609375 C12.033271484375007 61.55990234375 11.196669921875 62.34880859374999 10.334716796875 63.16162109375 C7.707799736263652 65.81106746019849 5.331082745975934 68.50267348491879 3.057373046875 71.45849609375 C2.7273730468750017 70.79849609375 2.3973730468750034 70.13849609375 2.057373046875 69.45849609375 C0.40298691780709817 68.76191246045825 -1.2651701321788948 68.09752726363423 -2.942626953125 67.45849609375 C-3.932626953125009 66.79849609375 -4.92262695312499 66.13849609375 -5.942626953125 65.45849609375 C-8.193453902910221 65.44270716144473 -8.193453902910221 65.44270716144473 -10.630126953125 65.70849609375 C-15.74672112390013 65.80531665302232 -18.292194014038316 64.50756322609551 -22.145751953125 61.23974609375 C-24.40075599115849 59.00435078648201 -26.37365515678013 56.606424966534206 -28.356689453125 54.13037109375 C-30.698640113335614 51.66151670318314 -33.43788360289574 50.12870171475595 -36.403564453125 48.50146484375 C-36.911455078125 48.15728515625 -37.419345703125 47.813105468749995 -37.942626953125 47.45849609375 C-37.942626953125 46.79849609375 -37.942626953125 46.13849609375001 -37.942626953125 45.45849609375 C-38.602626953125 45.45849609375 -39.262626953125 45.45849609375 -39.942626953125 45.45849609375 C-39.942626953125 44.79849609375 -39.942626953125 44.13849609375001 -39.942626953125 43.45849609375 C-40.932626953125 43.12849609375 -41.922626953125004 42.79849609375 -42.942626953125 42.45849609375 C-45.40401027317726 39.01255944567683 -46.722506027032665 35.494280695440025 -47.942626953125 31.45849609375 C-47.313564453125 31.201972656250007 -46.684501953125 30.94544921875 -46.036376953125 30.68115234375 C-38.94989416216198 27.511445432731904 -34.69342009246736 23.528953994020796 -29.942626953125 17.45849609375 C-26.011592470366367 12.492978852370683 -26.011592470366367 12.492978852370683 -23.942626953125 11.45849609375 C-23.488876953125 10.48912109375 -23.035126953125 9.519746093750001 -22.567626953125 8.52099609375 C-20.942626953125 5.45849609375 -20.942626953125 5.45849609375 -19.255126953125 4.14599609375 C-16.45400520132344 3.313230167538727 -13.723263801728208 3.097190850611824 -10.821533203125 2.81396484375 C-8.762971557424521 2.574383737661769 -8.762971557424521 2.574383737661769 -6.880126953125 0.83349609375 C-4.3859171434005475 -0.9365882873447688 -2.9190567790393516 -0.48694985710083927 0 0 Z " fill="#AAB6B3" transform="translate(101.942626953125,35.54150390625)"/>
<path d="M0 0 C0.9900000000000091 0.2919726562499996 1.9799999999999898 0.5839453124999991 3 0.884765625 C9.360712961974158 2.835775867294185 14.957756516145011 5.326125330980602 20.625 8.8125 C16.865154044596764 13.57497154351077 13.907308069249197 14.512881061278975 7.9296875 15.2578125 C5.265234553031604 15.899087616050018 4.317009104040125 16.69748861994985 2.625 18.8125 C2.336250000000007 19.43125 2.0474999999999994 20.049999999999997 1.75 20.6875 C0.5491551316920322 22.955762529026146 -0.9149917195203159 24.444105084121816 -2.76953125 26.1953125 C-4.493828820624003 27.89053287635258 -4.493828820624003 27.89053287635258 -6.38671875 30.1796875 C-11.19219892799535 35.832206941481445 -15.582408468742102 39.76145415853665 -22.375 42.8125 C-20.573568690209314 47.49622140545577 -19.09311449370407 50.35080719551689 -15.375 53.8125 C-15.375 54.4725 -15.375 55.13249999999999 -15.375 55.8125 C-14.715000000000003 55.8125 -14.055 55.8125 -13.375 55.8125 C-13.045000000000002 56.80250000000001 -12.715000000000003 57.79249999999999 -12.375 58.8125 C-13.179374999999993 58.93625 -13.98375 59.06 -14.8125 59.1875 C-15.658124999999998 59.39375 -16.503749999999997 59.599999999999994 -17.375 59.8125 C-17.705 60.4725 -18.034999999999997 61.13249999999999 -18.375 61.8125 C-20.01863133574964 62.534094244963256 -21.685503860783832 63.20601420643523 -23.375 63.8125 C-23.375 64.4725 -23.375 65.1325 -23.375 65.8125 C-27.120827137310172 69.55832713731017 -30.090262673464267 70.72138383919766 -35.375 70.8125 C-41.4255429530199 69.11410197809968 -45.16470022793218 66.10266164829548 -48.375 60.8125 C-48.998046875 58.587646484375 -48.998046875 58.587646484375 -49.40625 56.18359375 C-50.02784055417894 52.72830946333514 -50.69479523815842 49.304758144466575 -51.48046875 45.8828125 C-53.80804845553655 35.40192244091429 -55.611587888834414 26.081410638711844 -52.375 15.5625 C-45.31136587981795 5.85000308474968 -36.43748016983284 2.288307454693765 -25.375 -1.1875 C-24.201953125000003 -1.5716406250000006 -23.02890625 -1.9557812500000011 -21.8203125 -2.3515625 C-13.885788022639574 -4.27671923260219 -7.58609394683711 -2.366978925272818 0 0 Z " fill="#9CABA2" transform="translate(77.375,25.1875)"/>
<path d="M0 0 C42.24 0 84.48 0 128 0 C128 8.25 128 16.5 128 25 C117.81052669027244 25.391902819604905 109.24407403145435 24.570906533857055 99.42138671875 21.69775390625 C96.6246261371284 20.891831165548798 93.81523637602983 20.14020289588364 91.00390625 19.38671875 C88.8771253973804 18.80121547695036 86.75082145070118 18.213977111236012 84.625 17.625 C83.62670166015624 17.35743896484375 82.6284033203125 17.0898779296875 81.599853515625 16.814208984375 C75.43997758681289 15.056659353459878 70.50668533910316 12.765176594726583 65.23046875 9.11181640625 C62.50887999645824 7.755192590178505 61.262868980791495 7.946486465644235 58.375 8.75 C56.57044210201111 9.468429006409371 54.78023606148895 10.223257436586122 53 11 C51.10339824059679 11.709722011446868 49.20656562725459 12.418887599177193 47.305908203125 13.11767578125 C42.595991646061606 14.852643262548023 37.90554735491769 16.63374997334158 33.24609375 18.5 C21.318982023932776 23.108499810730695 12.404882769160146 22.335036756547794 0 20 C0 13.399999999999999 0 6.799999999999999 0 0 Z " fill="#463316" transform="translate(0,0)"/>
<path d="M0 0 C-0.9899999999999949 0.3299999999999983 -1.980000000000004 0.6600000000000001 -3 1 C-4.1178511301977565 3.1178511301977707 -4.1178511301977565 3.1178511301977707 -5 6 C-5.271992187500004 6.723164062500004 -5.543984375000001 7.446328125000001 -5.82421875 8.19140625 C-6.109101562500001 8.973867187499998 -6.393984375000002 9.756328124999996 -6.6875 10.5625 C-6.959492187500004 11.3062890625 -7.231484375000001 12.050078124999999 -7.51171875 12.81640625 C-8.546406859818461 17.443531477108166 -6.067471871903301 20.951200917522698 -4 25 C-3.6700000000000017 25.989999999999995 -3.3400000000000034 26.980000000000004 -3 28 C-2.010000000000005 28.33 -1.019999999999996 28.659999999999997 0 29 C0 29.659999999999997 0 30.32 0 31 C0.6599999999999966 31.33 1.3200000000000003 31.659999999999997 2 32 C4.124999999999986 33.93749999999998 4.124999999999986 33.93749999999998 6 36 C6 36.66 6 37.31999999999999 6 38 C6.659999999999997 38 7.32 38 8 38 C8.433125000000004 39.051874999999995 8.86625 40.10374999999999 9.3125 41.1875 C11.574871718285166 47.013425053044614 11.574871718285166 47.013425053044614 16 51 C16 51.66 16 52.31999999999999 16 53 C16.659999999999997 53 17.32 53 18 53 C18.33 53.99000000000001 18.659999999999997 54.97999999999999 19 56 C18.195625000000007 56.12375 17.39125 56.2475 16.5625 56.375 C15.716875000000002 56.58125 14.871250000000003 56.787499999999994 14 57 C13.505000000000003 57.989999999999995 13.505000000000003 57.989999999999995 13 59 C11.356368664250361 59.721594244963256 9.689496139216168 60.39351420643521 8 61 C8 61.66 8 62.31999999999999 8 63 C4.254172862689813 66.74582713731019 1.2847373265357405 67.90888383919766 -4 68 C-10.0505429530199 66.30160197809968 -13.78970022793218 63.29016164829548 -17 58 C-17.623046875 55.775146484375 -17.623046875 55.775146484375 -18.03125 53.37109375 C-18.65284055417893 49.91580946333514 -19.319795238158424 46.49225814446656 -20.10546875 43.0703125 C-22.433048455536554 32.5894224409143 -24.23658788883441 23.268910638711837 -21 12.75 C-16.6026468211001 6.7036393790126425 -8.184704548486046 -2.7282348494953474 0 0 Z " fill="#90979D" transform="translate(46,28)"/>
<path d="M0 0 C6.113631660043069 3.085119680299508 12.463239568642749 4.950253593556024 19.03125 6.82421875 C20.190117187499993 7.166464843749999 21.348984375 7.508710937499998 22.54296875 7.861328125 C34.38414272110229 11.306641455574962 45.233853416510854 12.965951663627866 57.53125 13.63671875 C57.53125 19.57671875 57.53125 25.516718750000003 57.53125 31.63671875 C50.40269829596576 31.1475044173702 44.350194952066474 29.90510563528965 37.65625 27.44921875 C36.7783984375 27.136057128906245 35.900546875 26.822895507812504 34.99609375 26.500244140625 C30.330107145895468 24.797451946568017 25.911793791606385 22.93297309932651 21.53125 20.57421875 C16.276682132779342 17.785313630201912 10.89058324567749 15.988798124971751 5.21875 14.26171875 C4.369902343749999 13.99866943359375 3.5210546874999977 13.735620117187501 2.646484375 13.464599609375 C-6.464622910534743 10.794628749006023 -12.873999371126466 11.78698886271659 -21.595703125 14.947265625 C-28.84823587226196 17.420511662731023 -33.4231313320272 15.828342505621833 -40.34375 13.07421875 C-41.496171875 12.6191796875 -42.64859375 12.164140625000002 -43.8359375 11.6953125 C-44.704765625 11.345976562499999 -45.57359375 10.996640624999998 -46.46875 10.63671875 C-43.86087253265224 8.028841282652238 -40.931868908570365 7.172316307332586 -37.53125 5.94921875 C-36.0883673738678 5.424958611717365 -34.64566703629888 4.900196571672893 -33.203125 4.375 C-32.055537109374995 3.958552246093749 -32.055537109374995 3.958552246093749 -30.884765625 3.53369140625 C-28.361279595831085 2.5968191678540222 -25.86046022395547 1.6122174251483212 -23.359375 0.6171875 C-22.513669433593748 0.28742919921874943 -21.667963867187495 -0.04232910156250114 -20.796630859375 -0.382080078125 C-19.143986773440055 -1.0267444070944798 -17.49611131003894 -1.6837959782059695 -15.853759765625 -2.354248046875 C-15.093776855468747 -2.64597900390625 -14.3337939453125 -2.9377099609375 -13.55078125 -3.23828125 C-12.88280517578125 -3.503828125 -12.2148291015625 -3.769375 -11.526611328125 -4.04296875 C-7.314510483586041 -4.698595314009386 -3.6058305971638447 -1.9422879497858183 0 0 Z " fill="#807355" transform="translate(70.46875,11.36328125)"/>
<path d="M0 0 C3.2793750000000004 0.12375000000000114 6.558750000000001 0.24749999999999872 9.9375 0.375 C11.459117431640625 0.42599853515624986 11.459117431640625 0.42599853515624986 13.011474609375 0.47802734375 C20.95336151217866 0.8186691691783565 28.20732805545977 2.017180868504127 35.5625 5.125 C36.4094140625 5.478203125 37.256328125 5.831406250000001 38.12890625 6.1953125 C39.05509765625 6.593632812500001 39.05509765625 6.593632812500001 40 7 C40 7.66 40 8.32 40 9 C38.20703125 10.296874999999996 38.20703125 10.296874999999996 35.8125 11.75 C30.31069077679806 15.34001702457359 26.436618445038388 18.55344289544898 24.625 25.125 C22.81002544435411 35.47899770316084 25.636938942201166 45.95327499954709 28 56 C27.009999999999998 56.495000000000005 27.009999999999998 56.495000000000005 26 57 C25.6248828125 56.3361328125 25.249765625 55.672265624999994 24.86328125 54.98828125 C20.35408502582069 47.20793008233545 16.746927782521297 42.11331327852453 8 39 C5.359999999999999 38.34 2.7199999999999998 37.68 0 37 C0 24.79 0 12.579999999999998 0 0 Z " fill="#6F697A" transform="translate(0,20)"/>
<path d="M0 0 C7.921131958467356 5.132000987176035 13.585031812671517 15.04587137848982 16 24 C16.30078125 27.726562500000014 16.30078125 27.726562500000014 16.3125 31.625 C16.329257812500003 32.916640625 16.346015625000007 34.20828125 16.36328125 35.5390625 C15.985896575753259 39.13436165465184 15.575311766364067 40.52721821028274 13 43 C8.643943836513373 44.452018721162204 4.320488555852833 44.96955066393059 0.02734375 43.17578125 C-2.741936653209379 41.594175244770014 -5.347297229324099 39.768468513783944 -8 38 C-8 37.34 -8 36.68000000000001 -8 36 C-8.659999999999997 36 -9.319999999999993 36 -10 36 C-13.628280458039484 30.436636631006124 -15.067278475845725 25.5480858022259 -16 19 C-16.146953124999996 18.051249999999996 -16.293906250000006 17.1025 -16.4453125 16.125 C-17.151679980889796 10.59429291558628 -17.493038405132324 6.6975344069020935 -14 2 C-9.547527103768857 -0.728935000915861 -5.061214141707396 -1.097612705430521 0 0 Z " fill="#DDDECE" transform="translate(95,39)"/>
<path d="M0 0 C20.790000000000003 0 41.580000000000005 0 63 0 C63 2.31 63 4.62 63 7 C62.0886328125 7.3403125 61.177265625 7.680625 60.23828125 8.03125 C58.92968128004916 8.520816707876968 57.621088139111876 9.010401669740848 56.3125 9.5 C55.6107666015625 9.76192138671875 54.909033203125 10.0238427734375 54.18603515625 10.293701171875 C49.93749977723188 11.883793591531358 45.70036518484216 13.499808975087515 41.47265625 15.14453125 C40.54348388671875 15.5041796875 39.6143115234375 15.863828125 38.656982421875 16.234375 C36.83111863069081 16.94196732135756 35.0069923248656 17.65406287134792 33.184814453125 18.37109375 C25.612012392286925 21.29739094266387 19.375132724155335 22.181523397698385 11.3125 21.625 C10.55388671875 21.581171875 9.7952734375 21.53734375 9.013671875 21.4921875 C5.818515338403641 21.28914136528249 3.050416083137307 21.01680536104577 0 20 C0 13.399999999999999 0 6.799999999999999 0 0 Z " fill="#312E34" transform="translate(0,0)"/>
<path d="M0 0 C0.536249999999999 0.7218749999999972 1.072499999999998 1.4437499999999943 1.625 2.1875 C6.062016972602528 7.694538181972121 6.062016972602528 7.694538181972121 12.28125 10.4296875 C13.83409268551975 10.55572992577271 15.391501414794227 10.637158919081074 16.94921875 10.6640625 C19.541824829804654 11.088756067358474 20.418823795964457 11.941961131255326 22 14 C22 14.659999999999997 22 15.319999999999993 22 16 C22.659999999999997 16 23.32 16 24 16 C24.435703125000003 16.906210937499992 24.87140625 17.812421875 25.3203125 18.74609375 C28.445983278082295 25.16422011052866 31.569981361140243 31.27497483255567 35.8359375 37.03515625 C37 39 37 39 38 44 C25.79 44 13.579999999999998 44 1 44 C0 42 0 42 0.5 38.0625 C1.4362162812812471 30.35103431470972 0.4385252222915099 23.31136377752631 -1.6875 15.875 C-3.1546996743421474 10.438564491688751 -3.0494575651483906 6.261107530045564 -1 1 C-0.6700000000000017 0.6700000000000017 -0.33999999999999986 0.3400000000000034 0 0 Z " fill="#7D7775" transform="translate(28,84)"/>
<path d="M0 0 C0 12.870000000000005 0 25.74000000000001 0 39 C-10.89 39 -21.78 39 -33 39 C-31.874095513748188 31.11866859623734 -31.874095513748188 31.11866859623734 -29.3125 27.125 C-28.768515625000006 26.272929687499996 -28.22453125 25.420859374999992 -27.6640625 24.54296875 C-27.114921874999993 23.703789062499993 -26.56578125 22.864609375 -26 22 C-25.533359375000003 21.233007812500006 -25.066718750000007 20.466015624999997 -24.5859375 19.67578125 C-19.239039422838644 11.117757232643967 -10.942999459726778 0 0 0 Z " fill="#8C7365" transform="translate(128,89)"/>
<path d="M0 0 C3.0577211455379256 0.8986788711130913 6.058251403290711 1.9376135070852882 9.0625 3 C10.614351521618403 3.5460456806358565 12.167715425297416 4.087814685454148 13.72265625 4.625 C14.400783691406247 4.864765625000004 15.078911132812493 5.104531250000001 15.777587890625 5.3515625 C18.461039784003432 6.134518473724391 21.242692125968716 6.540448687661453 24 7 C24 17.89 24 28.78 24 40 C18.060000000000002 41.31999999999999 12.120000000000005 42.64 6 44 C6.103125000000006 41.442499999999995 6.206249999999997 38.88499999999999 6.3125 36.25 C6.453143313693545 23.44534352720561 2.0046499884199136 15.280672401813703 -6.79296875 6.1796875 C-7.521289062500003 5.460390625000002 -8.249609375000006 4.741093749999997 -9 4 C-9.659999999999997 3.3400000000000034 -10.319999999999993 2.6799999999999997 -11 2 C-7.307158525392893 -1.6928414746070999 -4.926545353128191 -0.9784256739246615 0 0 Z " fill="#D1BD9E" transform="translate(104,36)"/>
<path d="M0 0 C15.886654478976233 2.888482632541134 15.886654478976233 2.888482632541134 21.046875 9.703125 C26 17.271500000000003 26 17.271500000000003 26 20 C26.66 20 27.32 20 28 20 C28.330690100862963 26.172881882775272 27.66161816280237 30.38102832297278 25 36 C21.19565449873039 37.26811516708986 19.197193396285464 36.5405277409624 15.3125 35.625 C10.141413375979456 34.41558739066623 5.327762204263459 33.66597027553294 0 33 C0 22.11 0 11.219999999999999 0 0 Z " fill="#725E68" transform="translate(0,57)"/>
<path d="M0 0 C0.6664453125000023 0.3532031250000003 1.3328906250000045 0.7064062500000006 2.01953125 1.0703125 C3.6796875 2.046875 5.33984375 3.0234375 7 4 C4.919375541913951 8.9007088266349 1.6290254811458027 10.657531878553876 -3 13 C-6.322401755949052 14.33349913788393 -9.687754060139234 15.380414593113752 -13.125 16.375 C-13.9925390625 16.6469921875 -14.860078125000001 16.918984375 -15.75390625 17.19921875 C-23.539890887275916 19.510127432296503 -28.336770671151967 18.437407590051766 -35.875 15.4375 C-37.027421875 14.9824609375 -38.17984375 14.527421875000002 -39.3671875 14.05859375 C-40.236015625 13.709257812499999 -41.10484375 13.359921874999998 -42 13 C-39.39212253265224 10.392122532652238 -36.463118908570365 9.535597557332586 -33.0625 8.3125 C-31.619617373867797 7.788239861717365 -30.17691703629888 7.263477821672893 -28.734375 6.73828125 C-27.586787109374995 6.321833496093749 -27.586787109374995 6.321833496093749 -26.416015625 5.89697265625 C-23.892529595831085 4.960100417854022 -21.39171022395547 3.9754986751483212 -18.890625 2.98046875 C-18.044919433593748 2.6507104492187494 -17.199213867187495 2.320952148437499 -16.327880859375 1.981201171875 C-14.675236773440055 1.3365368429055202 -13.027361310038941 0.6794852717940305 -11.385009765625 0.009033203125 C-6.9026394149169334 -1.7115925829360519 -4.365207219078599 -2.6347143572295835 0 0 Z " fill="#575E59" transform="translate(66,9)"/>
<path d="M0 0 C0 4.290000000000006 0 8.579999999999998 0 13 C-1.6706250000000011 13.464062499999997 -1.6706250000000011 13.464062499999997 -3.375 13.9375 C-11.524449438018877 16.977259115424445 -17.798386152774526 24.237901998606887 -23 31 C-23.33 30.340000000000003 -23.659999999999997 29.680000000000007 -24 29 C-24.804374999999993 28.711250000000007 -25.60875 28.4225 -26.4375 28.125 C-29.455562675691013 26.799996874086872 -29.731228984243856 25.915222705969924 -31 23 C-30.54109375 22.370937499999997 -30.082187500000003 21.741874999999993 -29.609375 21.09375 C-25.354658042170442 15.163402776691953 -25.354658042170442 15.163402776691953 -22.1875 8.625 C-20.529363955862763 5.040819467912954 -18.623387188995096 4.038302957269536 -15 2.5625 C-13.346760609907506 2.0004994146484307 -11.679877757427377 1.4765037869625672 -10 1 C-9.360624999999999 0.8027734374999937 -8.721249999999998 0.6055468750000017 -8.0625 0.40234375 C-6 0 -6 0 0 0 Z " fill="#AA9D92" transform="translate(128,76)"/>
</svg>
