<?xml version="1.0" encoding="UTF-8"?>
<!-- Generator: visioncortex VTracer 0.6.0 -->
<svg version="1.1" xmlns="http://www.w3.org/2000/svg" width="128" height="128">
<path d="M0 0 C42.24 0 84.48 0 128 0 C128 42.24 128 84.48 128 128 C85.75999999999999 128 43.519999999999996 128 0 128 C0 85.75999999999999 0 43.519999999999996 0 0 Z " fill="#78938B" transform="translate(0,0)"/>
<path d="M0 0 C30.03 0 60.06 0 91 0 C94.45337895637297 27.627031650983753 94.45337895637297 27.627031650983753 89 35 C81.00336569757094 41.357855356200716 72.43376967162311 41.157801004916315 62.720703125 40.78515625 C56.279644495570736 40.66537324928365 51.51483793238707 41.8264895248948 46.49609375 46.1640625 C42.48827161318722 50.727659099359464 42.48827161318722 50.727659099359464 40.80078125 56.375 C41.278610785265094 58.768302715762545 42.00346452194862 60.77386832725619 43 63 C43.2784375 63.714140625 43.556875 64.42828125 43.84375 65.1640625 C46.55118752753499 71.3958368090676 50.71136107655413 75.29469872727235 57 78 C63.169297548457635 79.03221709954738 68.13359471818355 77.49070382226536 73.73828125 74.97265625 C75.82222779845529 74.07645125765913 77.78833560198568 73.48079660826399 80 73 C84.18000777424591 76.94498725681842 84.55902941924815 80.2919202032714 84.8046875 85.7578125 C84.827890625 86.703984375 84.85109375 87.65015625 84.875 88.625 C84.92140625 89.57890625 84.9678125 90.5328125 85.015625 91.515625 C85.27461615487317 98.58807576769024 85.27461615487317 98.58807576769024 83 102 C82.34 102 81.68 102 81 102 C80.505 103.485 80.505 103.485 80 105 C74.76189393081908 109.7320749345603 68.9430575546984 111.33205927435515 62 111 C52.079340668376815 109.5885240788341 40.68312906605881 105.80223794268659 34 98 C34 97.34 34 96.68 34 96 C32.35 95.67 30.7 95.34 29 95 C29.04640625 94.1659765625 29.0928125 93.331953125 29.140625 92.47265625 C29.385267753052183 84.84504469948016 28.602463633671334 79.68408915163114 25 73 C24.67 72.01 24.34 71.02 24 70 C22.190237931420604 68.90172441585987 22.190237931420604 68.90172441585987 20 68 C19.265234375 67.5978125 18.53046875 67.195625 17.7734375 66.78125 C16.981953125 66.3584375 16.19046875 65.935625 15.375 65.5 C14.598984375 65.0771875 13.82296875 64.654375 13.0234375 64.21875 C8.956339502445509 62.471096641644095 8.956339502445509 62.471096641644095 0 61 C0 40.87 0 20.739999999999995 0 0 Z " fill="#22677F" transform="translate(0,0)"/>
<path d="M0 0 C11.219999999999999 0 22.439999999999998 0 34 0 C34 42.24 34 84.48 34 128 C23.439999999999998 128 12.879999999999995 128 2 128 C1.4484461749224806 118.83041765808633 1.4484461749224806 118.83041765808633 1.24609375 114.6953125 C1.1144269963335915 112.03553831950997 0.9486181960865991 109.39644472586227 0.72265625 106.7421875 C0.3405376198637242 100.3486904201588 1.8425405336035396 96.51500715087074 5.39453125 91.19140625 C10.121556452725429 81.79486223387671 10.35872292962253 72.19250052987142 10.0625 61.875 C9.872730624690703 54.37305320585799 9.832672610359438 47.42593899218018 11.530517578125 40.09130859375 C13.781929493943082 30.062398312471977 11.239795823360012 22.517095685297768 5.9765625 14.10498046875 C4.916942950773802 12.44087051178705 3.8300707192334045 10.79420954960952 2.7421875 9.1484375 C1 5.999999999999998 1 5.999999999999998 0 0 Z " fill="#95DBE6" transform="translate(94,0)"/>
<path d="M0 0 C7.876506024096385 0 7.876506024096385 0 12.4375 2.25 C13.850957031250001 2.9325585937500023 13.850957031250001 2.9325585937500023 15.29296875 3.62890625 C16.943922067371126 4.465103384772391 18.592895893762616 5.305243086666621 20.23828125 6.15234375 C25.19625901479232 8.7035361920776 30.032036536014758 11.134907430181144 35.75 10.875 C38 11 38 11 39.4921875 12.640625 C41.192082228379164 15.300563901401596 42.25636230530288 17.92449923479215 43.375 20.875 C45.89876314767291 27.060103117132712 48.130328443668986 31.043405757047026 53.75 34.875 C61.10448511827205 37.42078331017109 66.76815187278767 36.10416365135626 73.73828125 32.97265625 C75.82222779845529 32.07645125765913 77.78833560198568 31.480796608263987 80 31 C84.18000777424591 34.94498725681842 84.55902941924815 38.2919202032714 84.8046875 43.7578125 C84.827890625 44.703984375000005 84.85109375 45.65015625000001 84.875 46.625 C84.92140625 47.57890625 84.9678125 48.532812500000006 85.015625 49.515625 C85.27461615487317 56.58807576769024 85.27461615487317 56.58807576769024 83 60 C82.34 60 81.68 60 81 60 C80.67 60.99000000000001 80.34 61.97999999999999 80 63 C74.76189393081908 67.7320749345603 68.94305755469841 69.33205927435515 62 69 C52.07934066837682 67.5885240788341 40.68312906605881 63.80223794268659 34 56 C34 55.34 34 54.68000000000001 34 54 C32.35 53.67 30.7 53.34 29 53 C29.04640625 52.16597656249999 29.0928125 51.331953125 29.140625 50.47265625 C29.385267753052183 42.845044699480155 28.602463633671327 37.68408915163113 25 31 C24.67 30.010000000000005 24.34 29.019999999999996 24 28 C22.190237931420597 26.901724415859874 22.190237931420597 26.901724415859874 20 26 C19.265234375 25.597812500000003 18.53046875 25.195625000000007 17.7734375 24.78125 C11.863730202687034 21.624272811858873 6.618698403960524 20.040081177765224 0 19 C0 12.730000000000004 0 6.460000000000001 0 0 Z " fill="#4A7C6E" transform="translate(0,42)"/>
<path d="M0 0 C1.921875 0.26562500000000017 1.921875 0.26562500000000017 4 1 C4.683301400779868 3.049904202339595 5.351698176120209 5.105943616420722 5.9453125 7.18359375 C7.701925570902262 11.874401246742735 10.534057527092187 15.906604670652317 13.2578125 20.08203125 C17.221487044981814 26.720741754711693 16.685934770049556 34.45600368807726 15.25 41.875 C13.925040938017531 45.187397654956186 12.479932785051687 47.44256931541544 10 50 C9.340000000000003 50 8.680000000000007 50 8 50 C7.731875000000002 50.639375 7.4637500000000045 51.27875 7.1875 51.9375 C6 54 6 54 3 55 C3 55.66 3 56.32 3 57 C2.0409374999999983 57.154687499999994 2.0409374999999983 57.154687499999994 1.0625 57.3125 C0.38187500000000796 57.539375 -0.2987499999999983 57.76625 -1 58 C-1.3299999999999983 58.99 -1.6599999999999966 59.98 -2 61 C-2.6599999999999966 61 -3.319999999999993 61 -4 61 C-4.4950000000000045 61.989999999999995 -4.4950000000000045 61.989999999999995 -5 63 C-5.659999999999997 63 -6.319999999999993 63 -7 63 C-8.766776447791415 65.61175648803946 -10.046273153916957 68.11933602852265 -11.1875 71.0625 C-13.950861140917823 75.54105081459096 -18.039621403758133 77.1334058726129 -22.98828125 78.58203125 C-28.521838328497267 79.7317217498043 -33.28765144290298 79.80729687464824 -38.25 76.875 C-45.42951808611604 71.7467727956314 -49.003026386410795 65.58439306620815 -51 57 C-50.680423259597944 53.24497330027583 -48.652318438112744 50.85229174607867 -46.375 47.9375 C-45.722734375 47.0802734375 -45.07046875 46.223046875 -44.3984375 45.33984375 C-40.095932386402424 41.14244869618087 -36.15941284642044 39.81998434388481 -30.29296875 39.84765625 C-28.59078018477895 39.90997780861788 -26.888919937478477 39.9818768979226 -25.1875 40.0625 C-17.571711670249613 40.261655467028554 -11.797709925098019 39.72006543153716 -5 36 C-4.009999999999991 35.67 -3.0200000000000102 35.34 -2 35 C1.570599779251566 28.549410275343874 1.982573563289037 20.672849846786796 0.48828125 13.56640625 C-0.05398072282406474 10.71627732083673 -0.0974224886827102 8.086066560664902 -0.0625 5.1875 C-0.053476562500009095 4.2116796875 -0.04445312499998977 3.235859375 -0.03515625 2.23046875 C-0.023554687499995453 1.4944140625 -0.011953124999990905 0.758359375 0 0 Z " fill="#559FA5" transform="translate(91,0)"/>
<path d="M0 0 C8.25 0 16.5 0 25 0 C25.12375 2.083125 25.2475 4.16625 25.375 6.3125 C25.571987604780414 8.875897142726942 25.779911056105995 11.438482893956513 26 14 C26.0760546875 14.894609375 26.152109375 15.78921875 26.23046875 16.7109375 C27.204534954095305 23.97632542231086 30.08089415521178 30.383884507077063 33.080322265625 37.012451171875 C35.442858893458414 42.30234680900328 36.908707046000295 47.30481489631403 38 53 C32.585397704737204 54.154933990206615 29.721711068245384 53.90115930761423 24.8125 51.375 C23.134140625 50.54548828125 23.134140625 50.54548828125 21.421875 49.69921875 C20.29265625 49.1384765625 19.1634375 48.577734375 18 48 C15.863806457846906 47.04073773403315 13.718303777525353 46.10183966186088 11.5625 45.1875 C10.6356640625 44.7891796875 9.708828125 44.390859375 8.75390625 43.98046875 C5.525508569675303 42.74006465145388 5.525508569675303 42.74006465145388 0 42 C0 28.14 0 14.279999999999998 0 0 Z " fill="#136159" transform="translate(0,0)"/>
<path d="M0 0 C12.21 0 24.42 0 37 0 C36.67 1.98 36.34 3.96 36 6 C35.34 6 34.68 6 34 6 C33.7525 6.5775 33.505 7.155 33.25 7.75 C31.834003440012744 10.29879380797706 30.052767848873316 11.947232151126684 28 14 C27.67 14.99 27.340000000000003 15.98 27 17 C26.340000000000003 17 25.68 17 25 17 C23.48646712048324 22.516264461709838 22.23745843336313 27.381898756344974 24 33 C28.232267624420075 36.819363465940064 32.56191761303641 37.87487950614546 38 39 C38 39.33 38 39.66 38 40 C36.89591796875 40.146953124999996 36.89591796875 40.146953124999996 35.76953125 40.296875 C25.069373468789294 41.936529296724494 21.273502382037023 46.53890745016333 15 55 C11.903680690449846 52.46189036879128 11.216134608552693 49.99673592482297 10.1875 46.1875 C8.763811842610075 41.234824209234276 7.029017009019512 36.680139146117824 4.875 32 C0.11314349125651901 21.15354906341763 0 11.882288469245458 0 0 Z " fill="#287B86" transform="translate(25,0)"/>
<path d="M0 0 C7.876506024096385 0 7.876506024096385 0 12.4375 2.25 C13.850957031250001 2.9325585937500023 13.850957031250001 2.9325585937500023 15.29296875 3.62890625 C16.943922067371126 4.465103384772391 18.592895893762616 5.305243086666621 20.23828125 6.15234375 C25.19625901479232 8.7035361920776 30.032036536014758 11.134907430181144 35.75 10.875 C38 11 38 11 39.4765625 12.62890625 C41.22312602641588 15.347275635985753 42.415023283898755 18.067250889896606 43.625 21.0625 C44.263085937499994 22.626777343750007 44.263085937499994 22.626777343750007 44.9140625 24.22265625 C46.56051026308074 28.43353524118851 47.08185552430224 30.595843066225314 46.125 35 C45.941953125 35.86625000000001 45.75890625 36.7325 45.5703125 37.625 C44.99999999999999 40 44.99999999999999 40 44 43 C43.34 43 42.68 43 42 43 C41.938125 43.721875 41.87625 44.443749999999994 41.8125 45.1875 C40.725223050035574 48.95115098064608 39.00824387425998 50.53870955742366 36 53 C31.760563380281685 54.38028169014085 31.760563380281685 54.38028169014085 29 53 C29.04640625 52.16597656249999 29.0928125 51.331953125 29.140625 50.47265625 C29.385267753052183 42.845044699480155 28.602463633671327 37.68408915163113 25 31 C24.67 30.010000000000005 24.34 29.019999999999996 24 28 C22.190237931420597 26.901724415859874 22.190237931420597 26.901724415859874 20 26 C19.265234375 25.597812500000003 18.53046875 25.195625000000007 17.7734375 24.78125 C11.863730202687034 21.624272811858873 6.618698403960524 20.040081177765224 0 19 C0 12.730000000000004 0 6.460000000000001 0 0 Z " fill="#4C8668" transform="translate(0,42)"/>
<path d="M0 0 C0.6599999999999966 0.3299999999999983 1.3199999999999932 0.6599999999999966 2 1 C2 1.9899999999999949 2 2.980000000000004 2 4 C5.7685554831390675 5.94925283610641 8.98110125587948 7.105444743199683 13.23046875 7.31640625 C13.953874511718752 7.354514160156256 14.677280273437503 7.392622070312498 15.422607421875 7.431884765625 C16.33502197265625 7.474987792968747 17.2474365234375 7.518090820312494 18.1875 7.5625 C22.549687500000005 7.779062499999995 22.549687500000005 7.779062499999995 27 8 C27 17.900000000000006 27 27.799999999999997 27 38 C16.439999999999998 38 5.8799999999999955 38 -5 38 C-5.5519735407428925 28.823439885149412 -5.5519735407428925 28.823439885149412 -5.75390625 24.703125 C-5.886886987536542 22.017875408298323 -6.054004326457587 19.351948082508898 -6.27734375 16.671875 C-6.696080620136456 9.522708924499497 -4.537305389205812 5.4690734602034325 0 0 Z " fill="#BBBBAC" transform="translate(101,90)"/>
<path d="M0 0 C11.669847036077272 1.795361082473427 18.695443238004742 3.072208402005799 26 12 C29.773712870112163 18.112177566673466 31.529506853224166 24.85855256031364 30 32 C25.943064518496687 37.12840602627958 21.15961331554513 38.195668826759515 15 40 C10.05 40.33 5.1 40.66 0 41 C0 27.47 0 13.939999999999998 0 0 Z " fill="#91B081" transform="translate(0,61)"/>
<path d="M0 0 C1.921875 0.26562499999999983 1.921875 0.26562499999999983 4 1 C4.683301400779868 3.049904202339595 5.351698176120209 5.105943616420722 5.9453125 7.18359375 C7.701925570902276 11.874401246742735 10.534057527092187 15.906604670652317 13.2578125 20.08203125 C17.221487044981814 26.720741754711693 16.685934770049556 34.45600368807725 15.25 41.875 C13.925040938017531 45.187397654956186 12.479932785051702 47.44256931541543 10 50 C9.340000000000003 50 8.680000000000007 50 8 50 C7.731875000000002 50.639375 7.4637500000000045 51.27875 7.1875 51.9375 C6 54 6 54 3 55 C3 55.66 3 56.32 3 57 C2.360624999999999 57.103125 1.7212499999999977 57.20625 1.0625 57.3125 C0.38187500000000796 57.539375 -0.2987499999999983 57.76625 -1 58 C-1.3299999999999983 58.99 -1.6599999999999966 59.98 -2 61 C-2.6599999999999966 61 -3.319999999999993 61 -4 61 C-4.329999999999998 61.66 -4.659999999999997 62.32 -5 63 C-5.659999999999997 63 -6.319999999999993 63 -7 63 C-7.989999999999995 63.989999999999995 -7.989999999999995 63.989999999999995 -9 65 C-9.507890625000002 64.01 -10.015781250000003 63.02 -10.5390625 62 C-13.952212095419867 55.42819003338017 -17.272397247690208 49.09083104140192 -21.96875 43.3203125 C-23 42 -23 42 -23 41 C-22.214960937499995 40.90203125 -21.429921875000005 40.8040625 -20.62109375 40.703125 C-14.119216920749182 39.777704494241604 -9.491787001235295 38.58160021819693 -4 35 C-3.3400000000000034 35 -2.680000000000007 35 -2 35 C0.8912622324945403 27.87510378420989 2.0902329720862127 21.184848409234434 0.48828125 13.56640625 C-0.05398072282406474 10.716277320836735 -0.0974224886827102 8.086066560664896 -0.0625 5.1875 C-0.053476562499994884 4.2116796875 -0.04445312500000398 3.235859375 -0.03515625 2.23046875 C-0.023554687499995453 1.4944140625 -0.011953125000005116 0.758359375 0 0 Z " fill="#588889" transform="translate(91,0)"/>
<path d="M0 0 C0 16.5 0 33 0 50 C-18 50 -18 50 -25 46 C-27.098892219212104 42.368916460763046 -27.145780340518044 39.81134869670049 -26.3125 35.828125 C-25.89740167890146 34.295838211495976 -25.458857465128006 32.76975631109039 -25 31.25 C-24.650865478515627 30.052380371093747 -24.650865478515627 30.052380371093747 -24.294677734375 28.83056640625 C-22.38094505905596 22.588560724960615 -19.845664447762985 17.2975989841633 -16 12 C-15.515312499999993 11.26265625 -15.030625 10.525312499999998 -14.53125 9.765625 C-10.926494666136037 4.511885843198272 -6.813046956793102 0 0 0 Z " fill="#C7E7CD" transform="translate(128,48)"/>
<path d="M0 0 C4.35328430673151 13.05985292019453 2.3726599888762223 33.41495099575357 -3 46 C-4.79812542577595 49.49538040083765 -6.733502750432521 52.78912889644607 -9 56 C-10.45945288145387 55.91291330542765 -11.917658682564095 55.80473092616597 -13.375 55.6875 C-14.593164062499994 55.600488281249994 -14.593164062499994 55.600488281249994 -15.8359375 55.51171875 C-18 55 -18 55 -20 52 C-20.25537109375 49.99462890625 -20.25537109375 49.99462890625 -20.2734375 47.7265625 C-20.304374999999993 46.4890625 -20.304374999999993 46.4890625 -20.3359375 45.2265625 C-20.36186038475131 43.50009837556249 -20.38016059382005 41.773502019690966 -20.390625 40.046875 C-20.54403736676194 34.5751672521572 -21.261551424165006 32.19637099175054 -25 28 C-25.337991742728704 24.659514942698024 -24.569254745329843 21.955522188200717 -23 19 C-21.04847973530613 17.541583356791946 -19.25269948293949 16.69539158434023 -16.97265625 15.8515625 C-14.778227258408066 14.904264440263283 -13.655353756218943 13.688366509191965 -12 12 C-11.340000000000003 12 -10.680000000000007 12 -10 12 C-10 11.340000000000003 -10 10.68 -10 10 C-8.320312499999986 8.378906249999993 -8.320312499999986 8.378906249999993 -6.125 6.5625 C-3.538062784102536 4.41599116315318 -1.888156255365331 2.8322343830479966 0 0 Z " fill="#769E89" transform="translate(104,45)"/>
<path d="M0 0 C1.3767187499999949 0.5066015624999984 1.3767187499999949 0.5066015624999984 2.78125 1.0234375 C4.008437499999999 1.4694531250000011 5.235624999999999 1.9154687499999987 6.5 2.375 C7.706562500000004 2.8158593749999987 8.913125000000008 3.256718750000001 10.15625 3.7109375 C14.040934688228958 5.013728096662149 18.025014869051944 6.006253717262986 22 7 C22 12.939999999999998 22 18.880000000000003 22 25 C14 29 14 29 12 29 C11.740898437499993 29.559453125000005 11.481796875 30.118906249999995 11.21484375 30.6953125 C9.85911531595508 33.2672731948119 8.2676601658886 35.520778867740894 6.5625 37.875 C3.9982887582238504 41.48626416550141 1.80650445175948 44.96193122547882 0 49 C-0.3299999999999983 49 -0.6599999999999966 49 -1 49 C-2.198136624179071 44.27454915423775 -2.191281409567992 39.654594951808356 -2.1875 34.8125 C-2.1881445312500034 33.957529296875 -2.188789062500007 33.10255859375 -2.189453125 32.2216796875 C-2.1466786920470753 27.121800704067994 -1.697222529507954 22.50943001115119 -0.4453125 17.5546875 C0.5555178477887068 11.813081820580543 0.13936856975480794 5.807023739783595 0 0 Z " fill="#A1D3CD" transform="translate(106,23)"/>
<path d="M0 0 C3.4162384059410087 2.6141027634559038 5.638366390179506 5.784361109650703 7.86328125 9.42578125 C8.461406250000003 10.312656250000003 9.059531249999992 11.199531250000007 9.67578125 12.11328125 C10.86328125 14.42578125 10.86328125 14.42578125 11.86328125 19.42578125 C-3.646718750000005 19.42578125 -19.156718750000003 19.42578125 -35.13671875 19.42578125 C-35.13671875 18.435781250000005 -35.13671875 17.445781249999996 -35.13671875 16.42578125 C-34.47671875 16.42578125 -33.81671875 16.42578125 -33.13671875 16.42578125 C-33.056796875 15.834101562499995 -32.976875 15.242421875000005 -32.89453125 14.6328125 C-30.664984411326422 8.139544645100145 -20.474858516202374 4.2699258940217675 -14.57421875 1.30078125 C-9.409626595194453 -1.1252950946423397 -5.368399142605142 -2.618484704208541 0 0 Z " fill="#7DA3A1" transform="translate(55.13671875,108.57421875)"/>
</svg>
