<?xml version="1.0" encoding="UTF-8"?>
<!-- Generator: visioncortex VTracer 0.6.0 -->
<svg version="1.1" xmlns="http://www.w3.org/2000/svg" width="128" height="128">
<path d="M0 0 C42.24 0 84.48 0 128 0 C128 42.24 128 84.48 128 128 C85.75999999999999 128 43.519999999999996 128 0 128 C0 85.75999999999999 0 43.519999999999996 0 0 Z " fill="#A67E2E" transform="translate(0,0)"/>
<path d="M0 0 C7.000000000000001 2 7.000000000000001 2 8.875 4.125 C9.57625 4.743750000000006 10.2775 5.362499999999997 11 6 C12.44187487988452 5.906884792492775 13.880275124976418 5.753302302068903 15.3125 5.5625 C17.69921875 5.43359375 17.69921875 5.43359375 20 6 C22.179025430330817 8.55642364919224 23.692116319182126 11.24409706752364 25.33984375 14.16796875 C28.947248363325787 20.321776619791052 32.9856891961865 22.839939688178248 39.75 24.8125 C46.889708861966945 26.922979978065698 51.522196234938505 31.13292907323867 57 36 C61.56830505396965 39.045536702646444 66.08720548196635 39.464953115554664 71.49609375 38.6015625 C80.06423258458096 36.32920118661659 86.52891915475685 32.79741909538485 91.17919921875 25.08154296875 C92.14771506442908 23.382301850640886 93.06533929676617 21.654359106108345 93.98046875 19.92578125 C98.6228038406589 13.200231960051212 107.29252454158161 12.505371041851774 114.8125 10.75 C115.96943359375 10.468984375000005 117.1263671875 10.187968749999996 118.318359375 9.8984375 C124.6580061921576 8.39449309945293 124.6580061921576 8.39449309945293 127 8 C140.6727628679958 21.672762867995786 128 46.663793316969105 128 66 C85.75999999999999 66 43.519999999999996 66 0 66 C0 44.22 0 22.439999999999998 0 0 Z " fill="#ECAC68" transform="translate(0,62)"/>
<path d="M0 0 C42.24 0 84.48 0 128 0 C128 13.200000000000001 128 26.400000000000002 128 40 C114.49230769230769 40 114.49230769230769 40 109.4375 38.25 C108.3611328125 37.8890625 107.284765625 37.528125 106.17578125 37.15625 C103.14563151885523 36.053022053605346 100.13629982757013 34.90343905843999 97.125 33.75 C93.68738236446362 32.4428072271255 91.95033000139634 32.00162852454438 88.1875 32.125 C84.02164198825392 31.96163301914721 82.8047428017165 30.46778986921836 80.06640625 27.5078125 C79 26.000000000000004 79 26.000000000000004 79 24 C78.401875 23.731875 77.80375 23.46375 77.1875 23.1875 C75 21.999999999999996 75 21.999999999999996 73.6484375 20.55859375 C68.69697946948675 15.87700191546259 61.06228357643183 14.576528337183408 54.51953125 13.78515625 C48.33180087766027 14.312792173222768 42.964151895869854 18.064255030379172 37.875 21.375 C37.2807421875 21.748828125 36.686484375 22.12265625 36.07421875 22.5078125 C30.421572531384115 26.15146083517845 26.50162706169558 29.662544777037866 24 36 C23.0061328125 36.5878125 23.0061328125 36.5878125 21.9921875 37.1875 C19.536037563774514 39.42211484393848 19.429680373628614 41.05274815436987 19.2421875 44.294677734375 C19.224140625 44.98118408203125 19.20609375 45.6676904296875 19.1875 46.375 C19.1552734375 47.08019775390625 19.123046875 47.7853955078125 19.08984375 48.511962890625 C18.88317990218853 54.25657203525943 19.22660083979144 59.905450959432116 19.84375 65.62109375 C19.8953125 66.4061328125 19.946875 67.191171875 20 68 C19 69 19 69 15.3125 69.375 C10.536161214071786 69.34088329438623 8.457225300316214 67.22674361362847 5 64 C3.3499999999999996 63.34 1.6999999999999997 62.68 0 62 C0 41.54 0 21.08 0 0 Z " fill="#CD8C32" transform="translate(0,0)"/>
<path d="M0 0 C1.072499999999991 0.556874999999998 2.1450000000000102 1.1137499999999996 3.25 1.6875 C7.886025489253825 5.585975979599809 10.847848400685706 11.037318527260084 12 17 C12.200567619840996 20.108798107535563 12.207029630525994 22.90777019937775 12 26 C11.929101562499994 27.069921875 11.858203125000003 28.139843749999997 11.78515625 29.2421875 C10.306173539578822 40.21843935089436 4.411259774376575 46.371440750032576 -4 53 C-8.079952429864079 55.725855663819715 -11.029636673382186 56.83151310757228 -16 57 C-28.08722050644161 54.21418346422965 -37.620949327761224 42.489401331613436 -44.4375 32.6875 C-45.85141833883361 30.255560457206187 -46.66637794905206 28.752381920320474 -47 26 C-47.185625 24.886250000000004 -47.37125 23.7725 -47.5625 22.625 C-46.92534109546212 18.51886483742257 -46.53045560734152 18.18660469504743 -43.375 15.8125 C-41.9340468423724 14.848499813986443 -40.47631732271629 13.908916675916402 -39 13 C-34.97291294079213 10.515201601765355 -31.877483149484718 7.908157556639544 -28.625 4.5 C-19.497394518450477 -4.796067998826437 -11.568685946203288 -6.069858988227317 0 0 Z " fill="#7F5216" transform="translate(80,30)"/>
<path d="M0 0 C8.908952629291612 2.5454150369404545 8.908952629291612 2.5454150369404545 12 7 C13.233342016413319 11.359791568224196 13.89926569002032 15.772569820714793 14.5625 20.25 C15.70715321093373 27.716536492521797 16.76692626856554 34.535075048108354 20.210693359375 41.3193359375 C21 43 21 43 21 45 C26.37110571581561 47.011300846578195 26.37110571581561 47.011300846578195 32 47 C33.69672386370956 45.70513178822165 35.360327901632786 44.36639341530601 37 43 C43.6969064458475 38.92362216339717 51.37015967326429 38.72971708541007 59 40 C62.68485700076931 42.1178568538529 65.18356416745748 44.855813252033386 68 48 C69.36040028763134 49.16312943612925 70.73514471451958 50.309731711210176 72.125 51.4375 C76.3451277387963 55.115282005296365 79.94147736262254 59.30707932827396 83 64 C83 64.66 83 65.32 83 66 C55.61 66 28.22 66 0 66 C0 44.22 0 22.439999999999998 0 0 Z " fill="#E2B67A" transform="translate(0,62)"/>
<path d="M0 0 C17.82 0 35.64 0 54 0 C51.23159636062863 13.842018196856896 51.23159636062863 13.842018196856896 48.8125 15.4921875 C47.884375 15.948515625 46.95625 16.40484375 46 16.875 C32.412469129229486 23.840031327545017 32.412469129229486 23.840031327545017 24 36 C23.0061328125 36.5878125 23.0061328125 36.5878125 21.9921875 37.1875 C19.536037563774514 39.42211484393848 19.429680373628614 41.05274815436987 19.2421875 44.294677734375 C19.224140625 44.98118408203125 19.20609375 45.6676904296875 19.1875 46.375 C19.1552734375 47.08019775390625 19.123046875 47.7853955078125 19.08984375 48.511962890625 C18.88317990218853 54.25657203525943 19.22660083979144 59.905450959432116 19.84375 65.62109375 C19.8953125 66.4061328125 19.946875 67.191171875 20 68 C19 69 19 69 15.3125 69.375 C10.536161214071786 69.34088329438623 8.457225300316214 67.22674361362847 5 64 C3.3499999999999996 63.34 1.6999999999999997 62.68 0 62 C0 41.54 0 21.08 0 0 Z " fill="#AD7936" transform="translate(0,0)"/>
<path d="M0 0 C3.2400423868606083 3.0287352746740446 6.0812347541447025 6.2497817719440185 8.875 9.6875 C8.545000000000002 10.3475 8.215000000000003 11.0075 7.875 11.6875 C7.187929687500002 11.338164062499999 6.5008593750000045 10.988828124999998 5.79296875 10.62890625 C4.891914062500007 10.1738671875 3.9908593749999994 9.718828125000002 3.0625 9.25 C2.169179687499991 8.7975390625 1.2758593750000102 8.345078125 0.35546875 7.87890625 C-5.3741836157759195 5.126868499509204 -9.837731420290964 4.886955997101836 -15.875 7 C-20.299209355513575 9.382923571792062 -23.465355386385838 12.91640215501355 -26.89501953125 16.533935546875 C-31.158003766252726 20.94466165975399 -35.77104183174923 23.801209794070573 -41.125 26.6875 C-42.47566528441401 27.822009799214086 -42.47566528441401 27.822009799214086 -42.375 30.8125 C-41.760240698556736 40.3412691723706 -35.541153886417874 47.42441903858794 -28.87109375 53.86328125 C-27.125 55.6875 -27.125 55.6875 -27.125 57.6875 C-26.465000000000003 57.6875 -25.805 57.6875 -25.125 57.6875 C-26.29230488936313 61.63837808707521 -27.57337453781053 64.47175284217218 -30.125 67.6875 C-40.18728463527188 66.17616871090777 -45.98899072338101 62.79951226400476 -52.125 54.6875 C-58.43908347239628 46.0933308292384 -58.45816739582156 35.31344559443384 -57.9375 25 C-57.90760986328125 24.31687744140625 -57.8777197265625 23.633754882812497 -57.846923828125 22.929931640625 C-57.640252224994626 20.0614163531976 -57.414097284911925 18.084315725317467 -55.69921875 15.73046875 C-54.125 14.6875 -54.125 14.6875 -52.125 14.6875 C-52.042500000000004 13.965625000000003 -51.96 13.243749999999999 -51.875 12.5 C-50.41079100582974 7.009216271861533 -47.15109628395134 4.560591573039307 -42.4375 1.75 C-41.5648046875 1.2524218749999996 -40.692109375 0.7548437499999991 -39.79296875 0.2421875 C-36.44855112310175 -1.7066825080607693 -33.29798240237393 -3.8883186433496917 -30.1328125 -6.11328125 C-20.69035379481138 -11.753037713993981 -7.97202627688651 -5.899299444896016 0 0 Z " fill="#AE661E" transform="translate(76.125,21.3125)"/>
<path d="M0 0 C2.032873954626382 1.1779637837854366 3.4449517277346047 2.433269471453727 5.015625 4.16796875 C3.5810517233607158 5.151418354740137 2.1428509393763306 6.129577961746506 0.703125 7.10546875 C-0.4976367187500017 7.923378906250001 -0.4976367187500017 7.923378906250001 -1.72265625 8.7578125 C-3.984375 10.16796875 -3.984375 10.16796875 -6.984375 11.16796875 C-6.984375 11.827968749999997 -6.984375 12.48796875 -6.984375 13.16796875 C-7.644374999999997 13.16796875 -8.304374999999993 13.16796875 -8.984375 13.16796875 C-9.222851562499997 13.723554687499998 -9.461328124999994 14.279140624999997 -9.70703125 14.8515625 C-11.271817338867919 17.689232685622862 -13.258881568188869 19.818855383497933 -15.421875 22.23046875 C-19.976571923287892 27.725255118254516 -21.65419592161509 32.26235821540601 -22.984375 39.16796875 C-23.537088532615755 41.399582074176294 -24.09952951683487 43.62880961001511 -24.671875 45.85546875 C-25.110572251457683 47.62600586229331 -25.548520370616572 49.396729724207745 -25.984375 51.16796875 C-33.705888172654184 48.594131025781934 -39.78043726927127 37.771227039242206 -43.984375 31.16796875 C-44.67578125 29.05078125 -44.67578125 29.05078125 -44.984375 27.16796875 C-45.17 26.054218750000004 -45.355625 24.94046875 -45.546875 23.79296875 C-44.90971609546212 19.68683358742257 -44.51483060734152 19.35457344504743 -41.359375 16.98046875 C-39.9184218423724 16.016468563986443 -38.46069232271629 15.076885425916402 -36.984375 14.16796875 C-32.95728794079213 11.683170351765355 -29.861858149484718 9.076126306639544 -26.609375 5.66796875 C-18.31383811355228 -2.780673683009674 -11.047626737681796 -5.040962549886274 0 0 Z " fill="#914E0C" transform="translate(77.984375,28.83203125)"/>
<path d="M0 0 C2.2680676956486465 2.035344227747302 4.276340084001731 4.18437633144967 6.30859375 6.453125 C7.668994037631336 7.616254436129253 9.043738464519578 8.762856711210176 10.43359375 9.890625 C14.653721488796307 13.568407005296379 18.250071112622535 17.760204328273957 21.30859375 22.453125 C21.30859375 23.113124999999997 21.30859375 23.773124999999993 21.30859375 24.453125 C3.818593749999991 24.453125 -13.671406250000004 24.453125 -31.69140625 24.453125 C-31.19640625 15.543125000000003 -31.19640625 15.543125000000003 -30.69140625 6.453125 C-22.22115847530641 -0.6054148122446605 -10.909436898279672 -6.270155314541 0 0 Z " fill="#F5BE83" transform="translate(61.69140625,103.546875)"/>
<path d="M0 0 C1.98 0 3.96 0 6 0 C6.391875 1.1756250000000001 6.78375 2.3512500000000003 7.1875 3.5625 C7.4620703125 4.3836328125 7.736640625 5.204765625 8.01953125 6.05078125 C8.731375822847053 8.191987036850698 9.436185082414022 10.335535767803758 10.13671875 12.48046875 C10.5453515625 13.7244140625 10.953984375 14.968359375 11.375 16.25 C11.5849560546875 16.898076171875 11.794912109375 17.54615234375 12.01123046875 18.2138671875 C13.382029312804455 22.374741933109988 15.02553863253301 26.30828911709238 16.8125 30.3125 C19.77509880658758 37.815904454067606 19.299364689331494 44.91993128203253 19.02880859375 52.83154296875 C18.97152170309939 57.14359519551865 19.445370363140704 61.40421803550253 19.87890625 65.69140625 C19.9188671875 66.4532421875 19.958828125 67.215078125 20 68 C19 69 19 69 15.3125 69.375 C10.536161214071786 69.34088329438623 8.457225300316214 67.22674361362847 5 64 C3.3499999999999996 63.34 1.6999999999999997 62.68 0 62 C0 41.54 0 21.08 0 0 Z " fill="#C09649" transform="translate(0,0)"/>
<path d="M0 0 C1.5571870313022025 2.1281556094463383 2.8987925298383033 4.242286252388055 4.25 6.5 C8.100320193910601 12.73219995350695 11.618090202193244 15.30274832724973 18.5625 17.3125 C25.712476252032822 19.469974130912647 30.378096512345238 23.6784588222896 35.875 28.5625 C36.865 29.222499999999997 37.855 29.882499999999993 38.875 30.5625 C38.875 31.222499999999997 38.875 31.882499999999993 38.875 32.5625 C37.836015625 32.57667968749999 36.79703125 32.59085937500001 35.7265625 32.60546875 C26.370478226924646 32.873779782069235 17.870837556093093 33.56666244390691 10.875 40.5625 C6.37014655259193 40.488649943485115 3.8908147822705175 40.23201428831466 0.125 37.75 C-6.8580755145290695 27.857309687750487 -9.605721849005775 11.652654502495238 -9.125 -0.4375 C-2.803304239401495 -1.89635286783043 -2.803304239401495 -1.89635286783043 0 0 Z " fill="#DFA05A" transform="translate(21.125,69.4375)"/>
<path d="M0 0 C3.1187186810435215 1.6191049091241254 4.036835548001211 3.924434063077179 5.6640625 6.99609375 C6.132233886718751 7.879625244140627 6.132233886718751 7.879625244140627 6.60986328125 8.781005859375 C8.360477761198958 12.2321771631119 9.4402175548149 15.292925377057216 9.9140625 19.12109375 C11.064107213336257 27.02926638552573 17.29922524785779 33.38006754126238 22.83203125 38.7890625 C25.0390625 41.05859375 25.0390625 41.05859375 25.0390625 43.05859375 C25.699062499999997 43.05859375 26.3590625 43.05859375 27.0390625 43.05859375 C25.871757610636877 47.00947183707518 24.590687962189456 49.842846592172194 22.0390625 53.05859375 C11.976777864728113 51.547262460907774 6.175071776618992 48.17060601400476 0.0390625 40.05859375 C-6.275020972396277 31.464424579238397 -6.294104895821562 20.684539344433837 -5.7734375 10.37109375 C-5.743547363281252 9.687971191406248 -5.7136572265625 9.004848632812497 -5.682861328125 8.301025390625 C-5.480486484441677 5.492147324632917 -5.199082167433506 3.4283258613006637 -3.66015625 1.0390625 C-1.9609375 0.05859375 -1.9609375 0.05859375 0 0 Z " fill="#B07125" transform="translate(23.9609375,35.94140625)"/>
<path d="M0 0 C0 12.210000000000008 0 24.42 0 37 C-10.89 37 -21.78 37 -33 37 C-32.67 35.349999999999994 -32.34 33.7 -32 32 C-31.010000000000005 31.67 -30.019999999999996 31.340000000000003 -29 31 C-28.269126813859472 29.360473663522598 -27.61092640402849 27.687895479904796 -27 26 C-26.093947006607976 24.41905709364147 -25.154854951242342 22.856694579159935 -24.1875 21.3125 C-22.041552138844935 17.847957669942417 -20.266005141575107 14.414528626628226 -18.625 10.6875 C-16.185413840390822 5.64991299509272 -13.04662240458552 3.269924303317765 -8 1 C-5 0 -5 0 0 0 Z " fill="#F3C481" transform="translate(128,91)"/>
<path d="M0 0 C12.210000000000008 0 24.42 0 37 0 C36.433222127601 3.9674451067929684 35.940472152458085 7.25418783721819 35 11 C34.24016209082299 17.40256861175388 35.52196956724069 22.123025432548125 38.22265625 27.93359375 C38.47917968749999 28.6155078125 38.735703125 29.297421875 39 30 C38.67 30.66 38.34 31.32 38 32 C32.02087946852262 32.71749446377728 32.02087946852262 32.71749446377728 29.19921875 30.734375 C27.65553517128359 29.216480884412505 26.250501086790592 27.768107763740545 25 26 C25 25.34 25 24.68 25 24 C24.401875000000004 23.731875 23.803750000000008 23.46375 23.1875 23.1875 C21 22 21 22 19.64453125 20.55859375 C13.72736301757351 14.950636209054231 4.740857122672189 14.29432916816244 -3 14 C-2.461875598088625 8.798130781523355 -1.698804374579403 5.0964131237382055 0 0 Z " fill="#C68438" transform="translate(54,0)"/>
<path d="M0 0 C1.60546875 1.75 1.60546875 1.75 3.1875 4 C3.7173046874999898 4.742500000000007 4.247109375000008 5.484999999999999 4.79296875 6.25 C5.1912890625000045 6.827500000000001 5.589609375000009 7.405000000000001 6 8 C0.29513208117191425 20.04101220572322 -5.071282472408626 25.459301670093083 -17.625 30.4375 C-23.847539014947188 31.47458983582453 -28.0746522014893 31.44446107933996 -33.4296875 27.8046875 C-42.648369786023835 21.054890641928495 -42.648369786023835 21.054890641928495 -44 17 C-43.00390625 14.95703125 -43.00390625 14.95703125 -41.5625 12.8125 C-41.0894140625 12.097070312499994 -40.616328125 11.381640625000003 -40.12890625 10.64453125 C-39.756367187500004 10.101835937499999 -39.383828125 9.559140624999998 -39 9 C-36.77202568238649 10.083499089197304 -34.74586476311843 11.171712997892953 -32.6875 12.5625 C-28.10498698467765 15.01361161284683 -24.560614270046045 15.453996878558854 -19.5625 14 C-13.921520191685843 11.236553711882053 -9.464945871191432 6.571159161526111 -5.1875 2.0625 C-3 0 -3 0 0 0 Z " fill="#B2783C" transform="translate(90,71)"/>
<path d="M0 0 C0 6.599999999999994 0 13.200000000000003 0 20 C-1.505625000000009 20.412499999999994 -3.0112499999999898 20.825000000000003 -4.5625 21.25 C-7.969733574397864 22.240586165590386 -10.655574610908602 23.289992948627443 -13.5625 25.3125 C-18.301133821930136 27.6387384216748 -21.157466867344112 26.62901390308093 -26 25 C-27.515937500000007 24.474062500000002 -27.515937500000007 24.474062500000002 -29.0625 23.9375 C-32.72225330598769 22.76949362574861 -36.18093781103474 22.39507539885848 -40 22 C-39.1157322448594 20.26489041860728 -38.21697843714247 18.537160395256564 -37.3125 16.8125 C-36.8136328125 15.849570312499992 -36.31476562500001 14.886640624999998 -35.80078125 13.89453125 C-32.34410777295713 8.338359782562321 -29.03733732951055 5.5379304341933135 -22.67578125 3.9453125 C-21.482753906249997 3.641093749999996 -20.289726562499993 3.3368750000000063 -19.060546875 3.0234375 C-17.205263671875002 2.5787109375000057 -17.205263671875002 2.5787109375000057 -15.3125 2.125 C-14.064042968750002 1.8053124999999994 -12.815585937500003 1.4856249999999989 -11.529296875 1.15625 C-2.2930888336347266 -1.1465444168173633 -2.2930888336347266 -1.1465444168173633 0 0 Z " fill="#CE9B4E" transform="translate(128,71)"/>
</svg>
