<?xml version="1.0" encoding="UTF-8"?>
<!-- Generator: visioncortex VTracer 0.6.0 -->
<svg version="1.1" xmlns="http://www.w3.org/2000/svg" width="128" height="128">
<path d="M0 0 C42.24 0 84.48 0 128 0 C128 42.24 128 84.48 128 128 C85.75999999999999 128 43.519999999999996 128 0 128 C0 85.75999999999999 0 43.519999999999996 0 0 Z " fill="#9A5794" transform="translate(0,0)"/>
<path d="M0 0 C24.09 0 48.18 0 73 0 C73.99 3.96 73.99 3.96 75 8 C77.57808688094431 9.41918824204599 77.57808688094431 9.41918824204599 81 10 C82.4870731569493 10.60594756675691 83.96550250429182 11.233297264766149 85.4375 11.875 C91.0273677949104 14.180714113273547 96.79367840957808 15.478070696159433 102.6796875 16.77734375 C106.54895217325563 18.20214356497531 107.85547649481457 19.524214318890287 110 23 C112.74139859032361 30.31039624086295 109.92462204576017 38.166684968554044 107 45 C104.72765950302633 48.42280219512699 101.77623144748685 50.442722252629316 98 52 C92.40061366513046 52.679192136528606 86.92044486174363 53.042294447304215 82.0625 49.875 C79.2036048455517 47.640972188200344 79.2036048455517 47.640972188200344 76.375 48.5625 C74.71813948766496 49.565336625887 73.07307309961587 50.58780730268262 71.4375 51.625 C69 53 69 53 65 53 C65 53.66 65 54.32 65 55 C59.69569548503611 56.49381368201847 54.42933361928056 57.12872988400833 49 56 C46.702442756975316 53.951059025810075 45.24391765241414 51.836253910902386 43.5625 49.265625 C41.10021078508609 45.69530563837483 39.03257083663951 44.64036779795505 35 43 C30.863581017428828 42.25237021767717 26.71744453872396 42.067722576448105 22.5234375 41.90234375 C16.454077070490662 41.52662143769704 11.879520349334438 39.88127551045342 6.4453125 37.15625 C3.816119556374131 35.81559143688337 3.816119556374131 35.81559143688337 0 35 C0 23.45 0 11.899999999999999 0 0 Z " fill="#7C3F5E" transform="translate(0,0)"/>
<path d="M0 0 C18.150000000000006 0 36.30000000000001 0 55 0 C55 42.24 55 84.48 55 128 C36.849999999999994 128 18.69999999999999 128 0 128 C4.1100818691642615 119.77983626167148 10.37424668921392 112.01639406938418 19.23046875 108.6015625 C24.520747008820237 107.45247526183594 29.906999908007066 107.33164245891838 35.3046875 107.17578125 C38.9415101070838 107.1699377000115 38.9415101070838 107.1699377000115 42 106 C41.07732138991878 99.50482820534933 39.78384434925789 93.79023141885392 36.90234375 87.875 C36 86.00000000000003 36 86.00000000000003 35 83 C30.085023402354523 80.9855164127932 30.085023402354523 80.9855164127932 25.01953125 81.6640625 C21.983225136412713 83.36025056345387 19.256611129177685 85.34516337743803 17 88 C5.744192889059775 84.70561743094434 5.744192889059775 84.70561743094434 2.7939453125 80.129150390625 C1.11539268016908 75.62771819303643 2.110873077158516 71.02297955696991 4.005859375 66.71142578125 C5.309353623334317 64.39494472364812 6.71692677829472 62.23369178203511 8.25 60.0625 C8.779240722656255 59.306142578125 9.308481445312495 58.54978515625 9.853759765625 57.7705078125 C12.562046037145265 54.212384093035304 14.276649057911058 52.28081143358069 18.51171875 50.63671875 C21.93750000000003 50.25 21.93750000000003 50.25 25.2109375 50.12890625 C28.192016832585395 50.209623954153955 28.192016832585395 50.209623954153955 31.0625 48.1875 C35.338631670675056 41.15257370308298 37.73318403992968 33.24345869898175 36.84765625 25 C35.480892471506024 21.77519329682527 33.73612254224298 20.188898033794377 31 18 C28.004030928453062 16.84040961197557 24.948272925690702 16.175213347209134 21.8125 15.5 C5.597646269050287 11.564865893022496 5.597646269050287 11.564865893022496 2 8 C1.3400000000000034 5.359999999999999 0.6800000000000068 2.7199999999999998 0 0 Z " fill="#BF7BA7" transform="translate(73,0)"/>
<path d="M0 0 C0.33000000000000007 0.6599999999999966 0.6600000000000001 1.3199999999999932 1 2 C1.6045703125000017 2.3016406250000045 2.209140625 2.603281249999995 2.83203125 2.9140625 C5.911359615792094 4.4565008525949565 8.057882109200296 6.762908945560895 10.51171875 9.1484375 C17.157006084917953 14.093282392858882 23.475034519845664 15.53446020920029 31.625 15.5625 C43.78427053455453 15.900477306854313 55.01665915576076 17.411984482755486 66 23 C64.94525741625156 25.191554475166058 63.88277134170531 27.37853079579085 62.8125 29.5625 C62.498774414062495 30.207836914062497 62.185048828125005 30.853173828124994 61.86181640625 31.51806640625 C60.144717655415334 34.97410994800629 58.41294997626983 37.938131057270425 55.875 40.875 C55.256249999999994 41.90625 54.6375 42.9375 54 44 C54.989999999999995 46.64 55.980000000000004 49.28 57 52 C33.239999999999995 52 9.479999999999997 52 -15 52 C-15.103125 45.791875000000005 -15.20625 39.58375000000001 -15.3125 33.1875 C-15.35802001953125 31.230944824218753 -15.4035400390625 29.274389648437506 -15.450439453125 27.258544921875 C-15.465042561093817 25.707536984149044 -15.477783651604806 24.156509908086804 -15.48828125 22.60546875 C-15.526651000976562 21.397758178710944 -15.526651000976562 21.397758178710944 -15.5657958984375 20.1656494140625 C-15.567626953125 17.828857421875 -15.567626953125 17.828857421875 -15 14 C-12.589111328125002 12.09912109375 -12.589111328125002 12.09912109375 -10 11 C-8.049118170726594 8.834810525263663 -8.049118170726594 8.834810525263663 -6.375 6.4375 C-4.296585140485584 3.5738016980898664 -2.9889674948828038 1.9926449965885382 0 0 Z " fill="#5F507D" transform="translate(15,76)"/>
<path d="M0 0 C0.7347656250000014 -0.0051562500000006395 1.4695312500000028 -0.010312499999999503 2.2265625 -0.015625 C4.866031026248244 0.3107092905179645 6.196129904928746 0.6825914731107954 8.375 2.25 C9.860608561118298 4.574540454455693 11.137570333536388 6.800296546061858 12.375 9.25 C12.885952148437497 10.234682617187499 12.885952148437497 10.234682617187499 13.4072265625 11.2392578125 C14.454922502069195 13.276499117381952 15.480160344427219 15.323687536889725 16.5 17.375 C16.8467578125 18.0646484375 17.193515625000003 18.754296875 17.55078125 19.46484375 C24.171453147459246 32.731554103912586 24.171453147459246 32.731554103912586 22.375 38.25 C18.45324044663053 42.12263521658405 14.911789259966824 44.25 9.375 44.25 C9.375 44.91 9.375 45.57 9.375 46.25 C4.070695485036104 47.74381368201847 -1.1956663807194303 48.37872988400833 -6.625 47.25 C-8.922557243024684 45.201059025810075 -10.38108234758586 43.086253910902386 -12.0625 40.515625 C-14.524789214913916 36.945305638374826 -16.592429163360492 35.89036779795506 -20.625 34.25 C-24.761418982571172 33.50237021767717 -28.90755546127604 33.317722576448105 -33.1015625 33.15234375 C-39.170922929509345 32.77662143769704 -43.74547965066556 31.13127551045342 -49.1796875 28.40625 C-51.80888044362587 27.065591436883373 -51.80888044362587 27.065591436883373 -55.625 26.25 C-55.625 20.97 -55.625 15.689999999999998 -55.625 10.25 C-52.32529111057165 9.42507277764291 -49.682191223558874 9.060140372051599 -46.328125 8.890625 C-33.64510148106277 8.139623996930869 -22.527674014842084 6.773306081158015 -10.625 2.25 C-6.967356825619213 0.9199479365888035 -3.8999205821440057 -0.027561276198897033 0 0 Z " fill="#61428A" transform="translate(55.625,8.75)"/>
<path d="M0 0 C7.7234770704996585 1.1033538672142384 7.7234770704996585 1.1033538672142384 10.8125 3 C16.164406329940867 5.8564124342844295 21.617535886154826 5.871876359324048 27.578125 6.09765625 C34.9308773084896 6.537468121213337 39.72222309930672 8.598533404940937 44.86328125 13.93359375 C47.957041351490076 17.69589051709943 47.957041351490076 17.69589051709943 49 20 C48.65234375 22.75 48.65234375 22.75 48 25 C46.9494140625 25.086367187500002 45.898828125 25.172734375000005 44.81640625 25.26171875 C34.88257516332659 26.20255693369137 26.77357155963748 27.443816814788498 19.875 35.3125 C18.912765928873604 36.53861543689236 17.954598986491572 37.76793090810155 17 39 C15.820712792464015 40.36132483017576 14.632961358636553 41.71535644747192 13.4375 43.0625 C11.331742929111208 45.44593932199501 9.324454751805463 47.86332005331647 7.375 50.375 C5.000000000000001 53 5.000000000000001 53 0 55 C0 36.849999999999994 0 18.699999999999996 0 0 Z " fill="#8577B4" transform="translate(0,35)"/>
<path d="M0 0 C6.499242653741291 0.7646167827930981 6.499242653741291 0.7646167827930981 9.15234375 2.01171875 C13.209859593733945 3.419882684793805 17.108642096656624 3.339594157095817 21.375 3.4375 C33.59375998612312 3.8948272337944303 44.96098668400566 5.383659891862521 56 11 C48.191886730939416 27.655768245540486 48.191886730939416 27.655768245540486 43 32 C36.84828070001364 31.84540181863909 32.8267316112796 30.177762321403577 27.625 27.0625 C21.780180304066512 23.760857175229248 16.723578759174323 21.772449986895424 10 21 C-0.12730987514188286 19.71032917139614 -0.12730987514188286 19.71032917139614 -3.6875 16.8125 C-5.4047737715068145 13.132627632485395 -5.625028616251225 11.027962193619004 -5 7 C-3.538590840986302 4.4058723232732575 -1.896403624361902 2.323094439843331 0 0 Z " fill="#603D6B" transform="translate(25,88)"/>
<path d="M0 0 C24.09 0 48.18 0 73 0 C73.99 3.465 73.99 3.465 75 7 C65.92307692307692 10.53846153846154 65.92307692307692 10.53846153846154 62 11 C61.34 10.67 60.68 10.34 60 10 C53.5475363651323 9.311714664030625 48.40639752293061 10.573730270178356 42.4375 12.875 C33.96781809649049 15.902838728458441 25.99774960944392 17.36588091022182 17 18 C15.838151855468752 18.08241943359375 15.838151855468752 18.08241943359375 14.65283203125 18.16650390625 C9.769317284418474 18.499136315166194 4.8901104421006 18.75549447789497 0 19 C0 12.73 0 6.459999999999999 0 0 Z " fill="#A16394" transform="translate(0,0)"/>
<path d="M0 0 C2.6400000000000006 0 5.280000000000001 0 8 0 C8 28.05 8 56.1 8 85 C-0.4401048421921132 79.37326343853859 -4.716739947648165 72.34845598456128 -7.58984375 62.6796875 C-8.815618168686228 54.67129463124999 -7.5571941040604145 46.976841568552715 -6.1875 39.0625 C-6.0218554687500045 38.04220703125 -5.856210937499995 37.0219140625 -5.685546875 35.970703125 C-4.863953926281141 31.112453499934144 -3.8983543500548876 26.468966345918172 -2.37109375 21.78125 C-0.927242553247396 17.214767788301593 -0.6659650012593801 13.195318340900734 -0.875 8.4375 C-0.9516548591390261 5.9552352967037665 -0.9940212101629982 3.484187177273309 -1 1 C-0.6700000000000017 0.6699999999999999 -0.3400000000000034 0.33999999999999997 0 0 Z " fill="#D8A8D5" transform="translate(120,0)"/>
<path d="M0 0 C4.398454868332536 1.0996137170831304 8.698837366478685 2.566279122159557 13 4 C13 10.269999999999996 13 16.539999999999992 13 23 C-5.150000000000006 23 -23.30000000000001 23 -42 23 C-37.886110179967005 14.772220359933996 -31.624615986120844 7.028004391019792 -22.76953125 3.59765625 C-18.18156986524491 2.6075884194393097 -13.536471698201638 2.427046151759754 -8.851318359375 2.325927734375 C-5.050922509070773 2.2334030930189357 -3.2404145923389933 2.160276394892662 0 0 Z " fill="#C58991" transform="translate(115,105)"/>
<path d="M0 0 C4.643775606060544 4.594241999595901 7.182665697576212 11.195764943843486 9.875 17.0625 C10.185583496093756 17.7225 10.496166992187497 18.3825 10.816162109375 19.0625 C12.937336544139953 23.90815717639265 13.644681642560357 27.70916445071161 13 33 C9.87135409579352 36.66399198114847 5.349390744134155 38.51421933211171 0.875 40.125 C-3.3514524976399613 39.941241195754785 -5.932566836205062 38.80096927279861 -9 36 C-20.44170864396534 21.559379407616362 -20.44170864396534 21.559379407616362 -21.375 13.9375 C-20.753878453349053 9.072047884567588 -19.032237698028105 6.802851542910748 -15.1875 3.8125 C-10.426883940366473 1.1054830249142693 -5.49544590518758 -1.2593730199388204 0 0 Z " fill="#3F1862" transform="translate(65,14)"/>
<path d="M0 0 C5.47644791080242 4.042140124639886 7.34072187532378 9.612671305009826 9 16 C9.426727197217588 18.939676247498937 9.380799487729973 21.008004024978803 9 24 C5.257028439745767 26.495314373502822 2.266414868023702 26.241472899402027 -2.0625 26.3125 C-13.520455418270771 26.785092437285584 -20.0891428482158 30.471203516854047 -28.08984375 38.71875 C-30.023392991070324 41.02793764168726 -31.527188888730265 43.37756516864823 -33 46 C-36.14508133077918 43.426751638453396 -37.46697535512173 41.035758025506894 -38 37 C-36.82447624088883 34.92387336092462 -35.393657099741574 33.238203699923275 -33.8515625 31.41796875 C-30.91582677560241 27.584170409489218 -28.941731789153494 23.27055546773512 -26.80859375 18.953125 C-24.885217390013054 15.812579582829088 -22.91330440606373 14.19699688708107 -20 12 C-19.3503125 10.607812499999994 -19.3503125 10.607812499999994 -18.6875 9.1875 C-14.700977256839721 1.6574014851416905 -8.331913096885273 -3.6660417626295185 0 0 Z " fill="#9F5772" transform="translate(106,82)"/>
<path d="M0 0 C2.0384468056129705 1.0687508827382572 4.067239907454784 2.1561176200622185 6.0859375 3.26171875 C8.871899256575482 4.606020188992744 11.016060401347922 5.139502767872045 14.0546875 5.5390625 C15.354062499999998 5.910312500000003 16.653437499999995 6.281562500000007 17.9921875 6.6640625 C18.982187499999995 9.3040625 19.972187500000004 11.944062500000001 20.9921875 14.6640625 C-2.767812500000005 14.6640625 -26.527812500000003 14.6640625 -51.0078125 14.6640625 C-51.0078125 10.044062499999995 -51.0078125 5.424062500000005 -51.0078125 0.6640625 C-47.06545420738073 1.4525341585238465 -44.73922964217241 2.184805600234455 -41.2578125 3.8515625 C-34.644148297387424 6.528289223066238 -30.47482331075568 5.129259531732544 -24.10546875 2.4375 C-22.189904594518165 1.5766288552236745 -20.28388546986045 0.6940291536224663 -18.390625 -0.21484375 C-12.09329379697067 -3.1776864635564266 -6.3503201287347935 -2.8205317974380506 0 0 Z " fill="#7A708C" transform="translate(51.0078125,113.3359375)"/>
<path d="M0 0 C1.4637304687500006 0.013535156250000568 1.4637304687500006 0.013535156250000568 2.95703125 0.02734375 C4.061113281250002 0.044746093749999716 4.061113281250002 0.044746093749999716 5.1875 0.0625 C8.340585085889195 8.013758042677097 10.026587102358974 15.44407993170276 9.1875 24.0625 C8.17578125 26.3671875 8.17578125 26.3671875 7.1875 28.0625 C6.527500000000003 28.0625 5.8675 28.0625 5.1875 28.0625 C5.1875 28.722499999999997 5.1875 29.382499999999993 5.1875 30.0625 C1.374558282220086 32.604461145186605 -1.4129412089444742 32.85666955812982 -5.8125 32.0625 C-12.808362925451227 29.45528848534245 -18.541335058648823 26.077021687642002 -23.5078125 20.48046875 C-24.7775989658971 18.931870499535208 -24.7775989658971 18.931870499535208 -26.8125 18.0625 C-26.48997482658193 12.740834638601825 -23.606665654035403 9.51747828787424 -19.8125 6.0625 C-13.340524066422866 1.6265235253162018 -7.850027534927349 -0.0945786449991246 0 0 Z " fill="#9F7298" transform="translate(42.8125,59.9375)"/>
<path d="M0 0 C15.510000000000005 0 31.02000000000001 0 47 0 C47 22.19197707736389 47 22.19197707736389 43 29 C40.35546875 30.820312500000004 40.35546875 30.820312500000004 38 32 C37.82984375000001 31.2407421875 37.65968749999999 30.481484375 37.484375 29.69921875 C37.24203125 28.7053515625 36.99968749999999 27.711484375 36.75 26.6875 C36.401953125000006 25.208300781250003 36.401953125000006 25.208300781250003 36.046875 23.69921875 C34.781256455548856 20.436000786508437 34.090497096657714 19.62373736348207 31 18 C27.993634533155927 17.05087984696242 24.94392531240001 16.34093410045442 21.875 15.625 C5.5408201563588335 11.508557558123222 5.5408201563588335 11.508557558123222 2 8 C1.3400000000000034 5.359999999999999 0.6800000000000068 2.7199999999999998 0 0 Z " fill="#DC9091" transform="translate(73,0)"/>
<path d="M0 0 C3.565481797267381 1.1259416201896997 6.999018655022255 2.416946140860855 10.4375 3.875 C16.02736779491042 6.180714113273549 21.793678409578078 7.478070696159433 27.6796875 8.77734375 C31.56141099577431 10.206731343149837 32.873051894890295 11.49285312450435 35 15 C35.71484375 17.35156250000001 35.71484375 17.35156250000001 35.9375 19.625 C36.0290234375 20.380390625 36.120546875 21.13578125 36.21484375 21.9140625 C36 24 36 24 34.734375 25.63671875 C30.616174061036872 28.873773091662457 26.167469354987333 31.217118122707163 20.875 31.5625 C16.3538560391258 30.90620490890536 14.054019434080075 29.229027390018643 11 26 C9.0234375 22.800781249999996 9.0234375 22.800781249999996 7.375 19.3125 C7.083591308593753 18.701806640625 6.792182617187507 18.09111328125 6.491943359375 17.4619140625 C0 3.687954770422337 0 3.687954770422337 0 0 Z " fill="#A95753" transform="translate(75,8)"/>
</svg>
