<?xml version="1.0" encoding="UTF-8"?>
<!-- Generator: visioncortex VTracer 0.6.0 -->
<svg version="1.1" xmlns="http://www.w3.org/2000/svg" width="128" height="128">
<path d="M0 0 C42.24 0 84.48 0 128 0 C128 42.24 128 84.48 128 128 C85.75999999999999 128 43.519999999999996 128 0 128 C0 85.75999999999999 0 43.519999999999996 0 0 Z " fill="#D2A1A3" transform="translate(0,0)"/>
<path d="M0 0 C21.120000000000005 0 42.24000000000001 0 64 0 C64 42.24 64 84.48 64 128 C58.06 128 52.120000000000005 128 46 128 C45.79375 126.700625 45.587500000000006 125.40125 45.375 124.0625 C42.920297011939766 113.35865907927473 34.6608471036884 106.29279928909838 27 99 C28 97 28 97 31.0625 95.875 C32.031875 95.58625 33.00125 95.2975 34 95 C34.08250000000001 93.865625 34.16499999999999 92.73125 34.25 91.5625 C34.84563714296385 86.59293040422693 36.78762272744356 82.44533479881107 39 78 C38.177578125 77.82984375 37.35515624999999 77.6596875 36.5078125 77.484375 C34.83332031250001 77.120859375 34.83332031250001 77.120859375 33.125 76.75 C32.034453125 76.51796875 30.943906249999998 76.2859375 29.8203125 76.046875 C25.04425692091175 74.73809903354228 20.56055919865682 72.91527391604797 16 71 C16.031420898437503 69.80511962890625 16.062841796875006 68.6102392578125 16.09521484375 67.379150390625 C16.204470399369853 62.91214353816662 16.272933010686614 58.44525277725333 16.32958984375 53.977294921875 C16.35961540505798 52.050009026950896 16.400449802206893 50.122858088958665 16.45263671875 48.196044921875 C17.30373156363629 34.518729178054635 17.30373156363629 34.518729178054635 11.59033203125 22.629150390625 C11.065522460937501 22.09153076171875 10.540712890625002 21.5539111328125 10 21 C9.252343749999994 19.9623046875 8.504687500000003 18.924609375 7.734375 17.85546875 C6.401512945644555 16.063451460384304 5.068172541109817 14.27178986625795 3.734375 12.48046875 C0.3599830471803074 7.65448025891778 0 6.324289268187756 0 0 Z " fill="#AF6176" transform="translate(64,0)"/>
<path d="M0 0 C9.032007759456837 1.129000969932104 9.032007759456837 1.129000969932104 13.375 3.4375 C14.6241015625 4.085253906249999 14.6241015625 4.085253906249999 15.8984375 4.74609375 C18 6 18 6 20 8 C20.484745517481183 10.104091896839723 20.961896022297886 12.21027468759381 21.39697265625 14.3251953125 C24.371479916440205 27.519001605068368 28.7288611125006 41.203451902997706 37 52 C37.785908463205445 53.107385675094235 38.566820397142834 54.218327726549504 39.34375 55.33203125 C45.98364972941819 64.82019397810305 52.83903208365747 74.17297646623928 60.1875 83.125 C63.37956543980579 87.0755760393636 66.02497860164291 91.14575038532847 68.55078125 95.546875 C70.46390422397172 98.78526105836723 72.61437176078722 101.8358534081354 74.80078125 104.89453125 C76 107.00000000000001 76 107.00000000000001 77 112 C51.59 112 26.18 112 0 112 C0 75.03999999999999 0 38.08 0 0 Z " fill="#785D6D" transform="translate(0,16)"/>
<path d="M0 0 C15.180000000000007 0 30.36 0 46 0 C46 23.76 46 47.52 46 72 C41.34869463785469 73.16282634053633 37.59841953136035 73.51817850012874 33 72 C30.80692762438045 69.88119353618605 29.692941291275304 67.43988588483934 28.4375 64.6875 C27.689971412010493 63.216825871221154 26.93862387309619 61.74808703803059 26.18359375 60.28125 C25.818627929687494 59.5529296875 25.453662109375003 58.824609375 25.07763671875 58.07421875 C20.71567281263097 49.6783770312897 14.823035717135468 42.34024513039809 8.58984375 35.27734375 C8.065195312499995 34.5258203125 7.540546875000004 33.774296875 7 33 C7.329999999999998 32.01 7.659999999999997 31.02 8 30 C6.855773337340409 26.992267494895813 6.855773337340409 26.992267494895813 5.1875 23.75 C1.0101461475522342 14.97852613349136 0 10.11025590108926 0 0 Z " fill="#2F285B" transform="translate(82,0)"/>
<path d="M0 0 C21.12 0 42.24 0 64 0 C64.99 3.96 64.99 3.96 66 8 C67.15206013510081 10.357587481450622 67.15206013510081 10.357587481450622 68.625 12.3125 C69.1470703125 13.055 69.669140625 13.7975 70.20703125 14.5625 C71.51218720017029 16.336829657747842 72.8228262479945 18.1071300155831 74.13671875 19.875 C74.8547265625 20.844375 75.572734375 21.81375 76.3125 22.8125 C76.9892578125 23.7058203125 77.666015625 24.599140625 78.36328125 25.51953125 C79.85949039593604 27.787055850642922 80.57366780810493 29.349325937348063 81 32 C73.60273972602738 34.53424657534246 73.60273972602738 34.53424657534246 70.04296875 33.34765625 C68.76092041502201 32.63240823153859 67.48790612016553 31.900810559779323 66.22265625 31.15625 C58.64794655040208 27.21580347788931 46.40223710516323 24.311018367908954 38 26.875 C34.721745310688505 28.819745006731072 34.721745310688505 28.819745006731072 33.375 32.5625 C32.143719188378796 40.25800507263253 34.48807037823307 48.46473785280673 36 56 C35.34 56 34.68 56 34 56 C34 56.66 34 57.32 34 58 C33.34 58 32.68 58 32 58 C31.67 58.66 31.34 59.32 31 60 C27.802089014370015 53.964207742354006 25.437251607363145 47.92285294535025 23.3125 41.4375 C23.00505859375 40.53064453125 22.6976171875 39.6237890625 22.380859375 38.689453125 C21.08930323107904 34.7921753953129 19.90550301863366 31.071957642580763 19.43359375 26.984375 C19.285176167951384 23.83278213254724 19.285176167951384 23.83278213254724 16.75 21.8125 C11.634703324144581 18.902072580978814 5.604918815274078 17.601405375792595 0 16 C0 10.719999999999999 0 5.4399999999999995 0 0 Z " fill="#ABA2A0" transform="translate(0,0)"/>
<path d="M0 0 C1.5820819158268193 0.48138787547790685 3.1563963782212596 0.988920762825984 4.72265625 1.51953125 C6.293446602596717 2.0156381292040493 7.865048243477887 2.509184514491423 9.4375 3 C10.178549804687492 3.236381835937493 10.919599609374998 3.4727636718750006 11.68310546875 3.71630859375 C14.354123002825816 4.498690268655835 17.02869315434927 4.9647978038699705 19.78515625 5.33203125 C19.4358203125 6.284648437499996 19.086484374999998 7.237265625000006 18.7265625 8.21875 C18.266739587388045 9.485609044951303 17.807114632286954 10.752539953390539 17.34765625 12.01953125 C17.117558593750005 12.64537109375 16.88746093750001 13.271210937500001 16.650390625 13.916015625 C15.404619575727793 17.36445432660858 14.38711176128598 20.713379153418828 13.78515625 24.33203125 C11.80515625000001 24.992031249999997 9.825156249999992 25.652031249999993 7.78515625 26.33203125 C10.500804940413104 29.53510406433341 13.206469668129472 32.715946555695666 16.08203125 35.77734375 C22.530875047939674 42.668755259562985 25.78515625 46.58527907421535 25.78515625 56.33203125 C14.89515625 56.33203125 4.005156249999999 56.33203125 -7.21484375 56.33203125 C-8.864843750000006 53.03203125 -10.514843749999997 49.732031250000006 -12.21484375 46.33203125 C-13.37150996692209 44.54746051532021 -14.56943946575322 42.787505494605256 -15.83984375 41.08203125 C-22.80503016622378 31.370224482280577 -22.80503016622378 31.370224482280577 -22.21484375 24.33203125 C-20.89453125 21.9453125 -20.89453125 21.9453125 -19.08984375 19.64453125 C-15.773414773140104 15.2248547304347 -13.209211486461228 10.728884111575155 -10.76953125 5.77734375 C-7.831343280693787 1.1559727229002732 -5.564383885240346 -1.3153069113617306 0 0 Z " fill="#95A8B1" transform="translate(84.21484375,71.66796875)"/>
<path d="M0 0 C4.391359522748118 3.9796695674904896 7.655189408293886 8.54872107906445 11.0859375 13.3671875 C12.53635059383788 15.362245510707623 13.993773311808823 17.22079244881641 15.625 19.0625 C18.276821428754687 22.342384398722913 20.329103375444532 25.765931713199933 22.4453125 29.40625 C24.40889614703599 32.68217849656256 26.58046291718732 35.78841662693134 28.80078125 38.89453125 C30 41 30 41 31 46 C5.590000000000003 46 -19.82 46 -46 46 C-46 41.71000000000001 -46 37.42 -46 33 C-44.62328125 32.818242187500005 -43.2465625 32.63648437500001 -41.828125 32.44921875 C-21.73908387650417 30.794961480917976 -21.73908387650417 30.794961480917976 -5 21 C-1.6764390993447122 15.883847943014601 0.14199876085211827 10.93390458561295 0.0625 4.8125 C0.05347656250000199 3.911445312500007 0.044453124999996874 3.0103906249999994 0.03515625 2.08203125 C0.023554687500002558 1.3949609375000023 0.01195312499999801 0.7078906250000045 0 0 Z " fill="#9A796E" transform="translate(46,82)"/>
<path d="M0 0 C6.2920301793329605 0 7.367468671171357 0.2545491383938625 12 4 C15.701596505996877 7.701596505996875 17.85272561743949 11.536236600273398 20.25 16.1875 C22.691453124579034 20.883014013718892 25.32352982120518 24.842222598009343 28.75 28.875 C36.05529403148055 37.516476016725704 36.05529403148055 37.516476016725704 35.96484375 43.21484375 C35.174614435666726 48.67378418579655 33.12359570338884 51.51873468453749 28.8515625 54.90625 C24.436201272627088 57.5144802608954 19.609677124092848 57.15069421197987 14.625 57.125 C13.51125 57.13080078125 13.51125 57.13080078125 12.375 57.13671875 C11.2805859375 57.134785156250004 11.2805859375 57.134785156250004 10.1640625 57.1328125 C9.5087353515625 57.1316845703125 8.853408203125 57.130556640625 8.17822265625 57.12939453125 C5.431119445337215 56.966206378169545 2.7145027482010695 56.452417124700176 0 56 C0 37.519999999999996 0 19.04 0 0 Z " fill="#534376" transform="translate(0,41)"/>
<path d="M0 0 C0.7047143554687523 0.08701171874999858 1.4094287109375045 0.1740234375000007 2.135498046875 0.263671875 C9.909258228096604 1.3685539376473166 16.954783914280682 4.011522609520462 23.5 8.375 C25.300435717826232 15.381346746889676 22.609627282955586 21.46510856138039 19.26953125 27.52734375 C13.303453861123089 37.12838219700059 13.303453861123089 37.12838219700059 8.59375 39.22265625 C2.9156263125266264 40.38306644803524 -1.675765572072649 38.22415587293967 -6.5 35.375 C-7.239921875 34.9689453125 -7.979843750000001 34.562890625 -8.7421875 34.14453125 C-13.437314071877204 30.937054672508793 -15.046442849973964 27.610135469004447 -16.21337890625 22.201904296875 C-17.471659711443422 15.279867245766482 -17.714903769025906 10.152605533219273 -15.5 3.375 C-11.034683513785808 -1.2391603690879975 -5.996112854304286 -0.7421667971313219 0 0 Z " fill="#E1C3A7" transform="translate(49.5,25.625)"/>
<path d="M0 0 C0 13.86 0 27.72 0 42 C-4.651305362145294 43.16282634053633 -8.401580468639665 43.51817850012873 -13 42 C-15.193072375619565 39.881193536186046 -16.307058708724696 37.43988588483933 -17.5625 34.6875 C-18.310028587989507 33.216825871221154 -19.06137612690381 31.74808703803059 -19.81640625 30.28125 C-20.181372070312506 29.552929687499997 -20.546337890624997 28.824609375 -20.92236328125 28.07421875 C-25.69443816024183 18.889001674351015 -32.326717174275984 10.847286285805083 -39 3 C-38.67 2.3400000000000034 -38.34 1.6799999999999997 -38 1 C-37.233007812500006 1.023203125000002 -36.466015625 1.0464062500000004 -35.67578125 1.0703125 C-27.022484876791154 1.211016506068436 -18.61770517188677 0.5908205435412945 -10.022705078125 -0.37646484375 C-8.721759033203128 -0.5168920898437506 -8.721759033203128 -0.5168920898437506 -7.39453125 -0.66015625 C-6.232078857421868 -0.7936950683593764 -6.232078857421868 -0.7936950683593764 -5.046142578125 -0.929931640625 C-3 -1 -3 -1 0 0 Z " fill="#5A1934" transform="translate(128,30)"/>
<path d="M0 0 C21.12 0 42.24 0 64 0 C64.99 3.96 64.99 3.96 66 8 C66.99898842685346 10.470350732567493 66.99898842685346 10.470350732567493 68.125 12.5 C68.74375 13.655 69.3625 14.81 70 16 C64.00000000000003 14.000000000000009 64.00000000000003 14.000000000000009 62.01953125 13.19921875 C53.5352060845768 9.938394323944816 44.68834844511158 9.729900235702447 36.1640625 13.015625 C31.23625938364103 15.25715277134018 26.504774155820847 17.411627279966886 22.75 21.375 C20.999999999999996 23 20.999999999999996 23 18.75 23 C15.722576096833263 21.89911858066664 12.986250171863853 20.48089294716678 10.13671875 18.98828125 C6.846952949340645 17.466689389731595 3.537484631627844 16.75803242106311 0 16 C0 10.719999999999999 0 5.4399999999999995 0 0 Z " fill="#A59EBF" transform="translate(0,0)"/>
<path d="M0 0 C0 11.879999999999995 0 23.760000000000005 0 36 C-5.939999999999998 36 -11.879999999999995 36 -18 36 C-18.206249999999997 34.700625 -18.412499999999994 33.401250000000005 -18.625 32.0625 C-21.079702988060234 21.358659079274744 -29.339152896311603 14.292799289098383 -37 7 C-36 5 -36 5 -32.5625 3.5625 C-27.780702110794692 2.065789585240708 -22.92578209750573 1.1259989375339785 -18 0.25 C-17.25306884765625 0.11021728515625284 -16.506137695312503 -0.029565429687494316 -15.736572265625 -0.173583984375 C-9.939808664570123 -1.141082242863476 -6.175784492939698 -0.686198276993295 0 0 Z " fill="#4C808E" transform="translate(128,92)"/>
<path d="M0 0 C9.032007759456837 1.129000969932104 9.032007759456837 1.129000969932104 13.375 3.4375 C14.6241015625 4.085253906249999 14.6241015625 4.085253906249999 15.8984375 4.74609375 C18 6 18 6 20 8 C20.484745517481183 10.104091896839723 20.961896022297886 12.21027468759381 21.39697265625 14.3251953125 C24.366259602435537 27.495846236552126 28.63476882825529 41.25920560715303 37 52 C37.982781029397074 53.372418962769146 38.96233053574452 54.747162245728916 39.9375 56.125 C40.618125 57.07374999999999 41.29875 58.02250000000001 42 59 C42 59.33 42 59.66 42 60 C38.91936219624737 60.87627030862296 36.19800974959824 61.382712642165046 33 61 C31.021859323671038 59.307590754696335 29.840216530551956 57.5847979773518 28.484375 55.37109375 C26.9734013298837 52.82290251732263 26.9734013298837 52.82290251732263 24.546875 50.1640625 C21.041318396268863 46.041835942708566 19.092495009404537 41.22449977278674 16.84375 36.33984375 C14.288823865242955 31.711746620302392 11.067452369333875 27.842709952485045 6 26 C4.02 25.67 2.04 25.340000000000003 0 25 C0 16.75 0 8.5 0 0 Z " fill="#816981" transform="translate(0,16)"/>
<path d="M0 0 C1.5820819158268193 0.48138787547790685 3.1563963782212596 0.988920762825984 4.72265625 1.51953125 C6.293446602596717 2.0156381292040493 7.865048243477887 2.509184514491423 9.4375 3 C10.178549804687492 3.236381835937493 10.919599609374998 3.4727636718750006 11.68310546875 3.71630859375 C14.35412300282583 4.498690268655835 17.02869315434927 4.9647978038699705 19.78515625 5.33203125 C19.4358203125 6.284648437499996 19.086484374999998 7.237265625000006 18.7265625 8.21875 C18.266739587388045 9.485609044951303 17.807114632286954 10.752539953390539 17.34765625 12.01953125 C17.117558593750005 12.64537109375 16.887460937499995 13.271210937500001 16.650390625 13.916015625 C15.404619575727793 17.36445432660858 14.38711176128598 20.713379153418828 13.78515625 24.33203125 C9.067927241168078 26.061681886571705 6.384055554757637 26.8746528739576 1.55078125 25.234375 C-1.519491580569806 23.739636911433124 -4.411648923310594 22.28425621858726 -7.21484375 20.33203125 C-7.544843749999998 19.342031250000005 -7.874843749999997 18.352031249999996 -8.21484375 17.33203125 C-8.874843749999997 17.022656249999997 -9.534843749999993 16.713281249999994 -10.21484375 16.39453125 C-12.21484375 15.33203125 -12.21484375 15.33203125 -12.94140625 13.515625 C-13.273422218041475 10.864240340925903 -12.798765353147829 9.694504001189642 -11.58984375 7.33203125 C-11.267578125 6.672031250000003 -10.9453125 6.012031250000007 -10.61328125 5.33203125 C-7.583369122384042 0.9987491010073484 -5.350729317491584 -1.2765042457076419 0 0 Z " fill="#9182A6" transform="translate(84.21484375,71.66796875)"/>
<path d="M0 0 C0 6.599999999999994 0 13.200000000000003 0 20 C-2.969999999999999 20 -5.939999999999998 20 -9 20 C-10.756772200543082 20.169298508518807 -12.51087429671395 20.379211808749233 -14.25390625 20.65625 C-15.127246093750003 20.791601562500006 -16.000585937500006 20.926953124999997 -16.900390625 21.06640625 C-17.77888671875 21.209492187500004 -18.657382812500003 21.352578125000008 -19.5625 21.5 C-20.47580078125 21.643085937500004 -21.389101562500002 21.786171875000008 -22.330078125 21.93359375 C-24.55442736013252 22.282967975413484 -26.777592101045954 22.638518224943013 -29 23 C-30.65032262969777 17.178875862993024 -28.09031053071699 12.665203519530436 -25.875 7.25 C-18.861555879902 -1.1661329441176065 -10.114437393309586 -0.4556052879869128 0 0 Z " fill="#605D74" transform="translate(128,72)"/>
<path d="M0 0 C5.939999999999998 0 11.879999999999995 0 18 0 C18.226875000000007 1.876875 18.45375 3.75375 18.6875 5.6875 C19.787750301759445 12.930154864099975 22.153077837610354 19.284183616927 25 26 C25.66978659087306 27.665415307035715 26.33756558540979 29.33164665955058 27 31 C24.30955264935413 32.07617894025835 22.541426924946904 31.94904743610521 19.625 31.625 C15.211714105080262 29.64663046089805 14.041695982867935 27.69361352402261 11.61328125 23.6484375 C9.234387931409572 19.743135635582792 6.463431083555449 16.145654536635508 3.734375 12.48046875 C0.3599830471803074 7.65448025891778 0 6.324289268187756 0 0 Z " fill="#565A7E" transform="translate(64,0)"/>
<path d="M0 0 C5.280000000000001 0 10.560000000000002 0 16 0 C16 5.94 16 11.88 16 18 C13.689999999999998 17.34 11.379999999999995 16.68 9 16 C9 15.34 9 14.68 9 14 C8.340000000000003 14 7.680000000000007 14 7 14 C7 13.34 7 12.68 7 12 C6.340000000000003 12 5.680000000000007 12 5 12 C1.6429759663577812 7.727423957182633 0.9297681224594072 5.578608734756416 0 0 Z " fill="#565A7E" transform="translate(112,0)"/>
</svg>
