<?xml version="1.0" encoding="UTF-8"?>
<!-- Generator: visioncortex VTracer 0.6.0 -->
<svg version="1.1" xmlns="http://www.w3.org/2000/svg" width="128" height="128">
<path d="M0 0 C42.24 0 84.48 0 128 0 C128 42.24 128 84.48 128 128 C85.75999999999999 128 43.519999999999996 128 0 128 C0 85.75999999999999 0 43.519999999999996 0 0 Z " fill="#7A6F63" transform="translate(0,0)"/>
<path d="M0 0 C13.86 0 27.72 0 42 0 C42 35.97 42 71.94 42 109 C37.709999999999994 110.65 33.42 112.3 29 114 C26.615484157219427 115.19108559305067 24.25175493585293 116.42756860808404 21.9375 117.75 C14.080691726442652 122.21740643490281 7.60960880937067 123.13304882154785 -1.1875 120.8125 C-8.706623318693758 118.34834626309271 -12.559449979116522 112.71724686015287 -16.10546875 105.86328125 C-17.3352036692184 101.92705550420483 -17.214243035526493 98.28238236088839 -17.125 94.1875 C-17.11597656250001 93.39923828125 -17.10695312499999 92.6109765625 -17.09765625 91.798828125 C-17.07422504046653 89.86575333848808 -17.038358381089765 87.93283620268984 -17 86 C-18.650000000000006 85.34 -20.299999999999997 84.68 -22 84 C-22.170156249999998 84.796640625 -22.340312500000003 85.59328125 -22.515625 86.4140625 C-25.66245660241829 100.17308152759487 -25.66245660241829 100.17308152759487 -32.4375 104.5 C-38.89349703119157 107.46001373316896 -46.54880587827683 105.15039804057439 -53 103 C-53.462291592548695 95.68894407339651 -52.69114269939401 88.60363973308006 -51.6875 81.375 C-51.51093872070312 80.05205932617187 -51.51093872070312 80.05205932617187 -51.330810546875 78.702392578125 C-50.68885032586807 74.30067300772748 -49.839561037034095 70.41749070478258 -48.1953125 66.27734375 C-46.960027696322086 62.78667294920494 -46.92772377621987 62.21779557734414 -48.16796875 58.48046875 C-49.16763671875 56.85044921875 -49.16763671875 56.85044921875 -50.1875 55.1875 C-55.717384382351206 45.36989381661458 -56.99755898144588 37.50829498618588 -54.01953125 26.59375 C-52.976742823181326 23.940832316445977 -51.940334742403394 22.08477653464186 -50 20 C-47 19.4375 -47 19.4375 -44 20 C-42.11400657358648 22.38892500679046 -41 23.91851558341641 -41 27 C-40.236875 27.103125 -39.473749999999995 27.20625 -38.6875 27.3125 C-35.684521513759535 28.0807037988057 -34.93529575810455 28.657822653938155 -33 31 C-32.0078125 33.17187500000001 -32.0078125 33.17187500000001 -31.125 35.75 C-30.779531250000005 36.7206640625 -30.434062499999996 37.691328125 -30.078125 38.69140625 C-29.315054348611795 41.033148430165966 -28.623878044259058 43.39888435077497 -27.984375 45.77734375 C-25.744027667461665 53.86181157346676 -23.276949112734172 58.777433652454626 -16.01171875 63.58203125 C-15.015917968750003 64.28392578125 -15.015917968750003 64.28392578125 -14 65 C-14 65.66 -14 66.32 -14 67 C-8.56061365693617 69.25535531297768 -4.45532873035512 69.29039993205139 1.109619140625 67.212158203125 C3.351053463142051 66.23417329780976 5.551348895922388 65.19554739622627 7.75 64.125 C8.504101562499997 63.7730859375 9.258203124999994 63.421171875 10.03515625 63.05859375 C13.540287556388307 61.38385072794235 16.436709035737437 59.99979341107539 19 57 C19.752125868293604 51.041752887111635 17.430624596390857 46.35739143119964 14.05859375 41.62890625 C13 40 13 40 13 38 C11.515 37.505 11.515 37.505 10 37 C10 36.34 10 35.68 10 35 C9.10982177734374 34.59116577148437 9.10982177734374 34.59116577148437 8.20166015625 34.174072265625 C4.431502403197527 32.16357230616289 1.9930330755036039 29.80365025400869 0 26 C-0.719424409150605 21.487846297394544 -0.5672916524887341 17.116522218306237 -0.375 12.5625 C-0.25124999999999886 8.416875000000001 -0.12749999999999773 4.27125 0 0 Z " fill="#8A6A82" transform="translate(86,0)"/>
<path d="M0 0 C16.5 0 33 0 50 0 C50.76182903796723 3.8091451898361455 51.080970164857774 6.102417876249098 50.8515625 9.80078125 C49.780750449274706 21.15364730772098 49.780750449274706 21.15364730772098 54.1875 31.0625 C56.06531349596469 32.73528711009435 56.06531349596469 32.73528711009435 58 34 C65.14082201480247 39.224991718148146 69.20333898958079 46.171186683887626 70.578125 54.89453125 C69.47223535433307 58.92206178388161 65.66286851265433 61.03593596883125 62.21240234375 63.036376953125 C60.35126628045475 63.998666078794166 58.47037273638696 64.88437310231069 56.5625 65.75 C55.617939453125004 66.20439453124999 55.617939453125004 66.20439453124999 54.654296875 66.66796875 C49.45696631403065 69.07166736504234 44.48618606306417 70.8950269827031 38.875 68.875 C35.79259215239608 66.86473401243222 33.53469813541345 64.66143304218413 31 62 C30.024179687499995 61.3000390625 29.048359375000004 60.600078125 28.04296875 59.87890625 C24.20205359620629 56.705004539453164 23.161523701135707 52.98201112350024 21.8125 48.3125 C21.56040771484375 47.51392578125 21.308315429687497 46.7153515625 21.048583984375 45.892578125 C19.988585885866165 42.50223669138031 19.029540507886736 39.123519868761676 18.203125 35.66796875 C17.991718750000004 34.7875390625 17.7803125 33.907109375 17.5625 33 C17.419414062499996 32.2575 17.276328125 31.515 17.12890625 30.75 C16.0213442013158 28.59313793734075 16.0213442013158 28.59313793734075 12.60546875 28.16796875 C9 27 9 27 7.109375 23.98828125 C6.436484374999999 22.16876953125 6.436484374999999 22.16876953125 5.75 20.3125 C5.291093750000002 19.1123828125 4.832187500000003 17.912265625 4.359375 16.67578125 C3.9107812499999994 15.4627734375 3.462187499999999 14.249765625 3 13 C2.448281250000001 11.8179296875 1.8965625000000017 10.635859374999999 1.328125 9.41796875 C0 6 0 6 0 0 Z " fill="#2F348E" transform="translate(36,0)"/>
<path d="M0 0 C2.3100000000000023 0.9899999999999949 4.6200000000000045 1.980000000000004 7 3 C6.912988281249994 4.666757812499995 6.912988281249994 4.666757812499995 6.82421875 6.3671875 C6.4273948810863715 17.224288553476782 7.569213599260138 24.050086833292198 14.1875 32.9375 C19.526961873989023 36.85310537425862 26.330732780945098 38.660731898918954 32.9609375 38.34375 C41.07298456544227 36.97620183571088 48.5144993941026 32.2858922884096 55.703125 28.48828125 C59 27 59 27 65 26 C65 32.27000000000001 65 38.53999999999999 65 45 C31.340000000000003 45 -2.3200000000000074 45 -37 45 C-41 29 -41 29 -40 24 C-37.15138296341493 21.398456890057517 -33.63297993440635 20.043200527365244 -29.78515625 19.94140625 C-26.72308821304776 20.28044014512828 -23.73324413723016 20.85735523610198 -20.7109375 21.4453125 C-15.631309388126411 22.26573353525106 -12.22090943518171 21.985796786040964 -7.72265625 19.34765625 C-1.6109583212824816 14.566395965629155 -0.9908950471874007 7.210065277560943 0 0 Z " fill="#897E78" transform="translate(63,83)"/>
<path d="M0 0 C0 14.519999999999996 0 29.040000000000006 0 44 C-4.289999999999992 44.66 -8.579999999999998 45.31999999999999 -13 46 C-15.083124999999995 46.412499999999994 -17.16624999999999 46.825 -19.3125 47.25 C-25.96009607802371 48.346239458777006 -30.25677332240049 47.828817785066335 -36 44 C-38.4277138272346 40.35842925914811 -38.84644195692309 38.140461923562924 -38.6015625 33.81640625 C-36.419505744300565 23.60041325740721 -29.46734845288603 16.5231760797801 -21 11 C-8.2688927943761 3 -8.2688927943761 3 -4 3 C-4 2.3400000000000034 -4 1.6799999999999997 -4 1 C-1 0 -1 0 0 0 Z " fill="#ABB69E" transform="translate(128,62)"/>
<path d="M0 0 C0.7218749999999972 0.7424999999999997 1.4437499999999943 1.4849999999999994 2.1875 2.25 C4.823772388722716 4.954850835234055 4.823772388722716 4.954850835234055 7.375 6.75 C14.002669835052387 12.430859858616337 19.003920722487464 19.466226236041514 20.5625 28.125 C19.77102193006307 32.17033235745543 17.225681156576144 33.73808673594811 14 36 C11.585499990497425 37.407715872698915 9.10640291448361 38.59579786382534 6.5625 39.75 C5.932792968749993 40.0529296875 5.303085937500001 40.355859374999994 4.654296875 40.66796875 C-0.5430336859693625 43.071667365042344 -5.513813936935833 44.8950269827031 -11.125 42.875 C-14.207407847603918 40.86473401243222 -16.46530186458655 38.661433042184115 -19 36 C-19.970664062499992 35.3090625 -20.941328125 34.618125 -21.94140625 33.90625 C-25.8883293579428 30.649221455543056 -27.006770120276713 26.6543282309255 -28.4375 21.875 C-28.70498046875 21.0641796875 -28.972460937500003 20.253359375000002 -29.248046875 19.41796875 C-31.14337378126325 13.430121343789736 -31.14337378126325 13.430121343789736 -30 10 C-29.2575 10.783749999999998 -28.515 11.567500000000003 -27.75 12.375 C-24.15439774830864 15.807165785705394 -22.5150855187715 16.862264952838956 -17.5625 17.3125 C-13.790573440611709 16.981629249176464 -12.070707893401206 16.105628269760828 -9 14 C-8.340000000000003 14 -7.680000000000007 14 -7 14 C-7 13.340000000000003 -7 12.68 -7 12 C-6.340000000000003 12 -5.680000000000007 12 -5 12 C-4.877539062500006 11.427656249999998 -4.755078124999997 10.855312499999997 -4.62890625 10.265625 C-3.972371315039183 7.900468091445511 -3.0627648807661245 5.927932027289266 -1.9375 3.75 C-1.5752734375000017 3.0435937499999994 -1.2130468750000034 2.337187499999999 -0.83984375 1.609375 C-0.5626953124999972 1.0782812499999999 -0.2855468749999943 0.5471874999999997 0 0 Z " fill="#6C4589" transform="translate(86,26)"/>
<path d="M0 0 C7.260000000000005 0 14.519999999999996 0 22 0 C22 18.48 22 36.96 22 56 C11.10526315789474 54.78947368421053 11.10526315789474 54.78947368421053 8 52 C6.70703125 48.855468750000014 6.70703125 48.855468750000014 5.8125 45.1875 C4.5251226217426535 40.01734499713321 4.5251226217426535 40.01734499713321 2.921875 34.94140625 C1.9345721883736928 31.79124092307368 1.6243961484605904 29.042553423943897 1.4375 25.75 C1.3653125000000017 24.546015625 1.2931250000000034 23.342031249999998 1.21875 22.1015625 C1.1456172592550757 20.734386541074024 1.0727166372366668 19.36719815356188 1 18 C0.9068153462316815 16.361946907687024 0.8130411265659063 14.723927272979356 0.71875 13.0859375 C0.46840097524730595 8.724446468021146 0.23490156686196428 4.362457670293741 0 0 Z " fill="#AEAFD6" transform="translate(106,0)"/>
<path d="M0 0 C7.047702650444826 0.2562800963798111 11.711666619092625 2.287333905944166 17 7 C21.94561720623352 13.073383472926935 24.514169333255047 18.030375334546747 24 26 C22.391579032885446 32.906748858786045 20.13571825953685 37.93176029690122 14.0625 41.9375 C7.877889230431492 44.349363459156336 0.06320443038205781 42.021068143460695 -6 40 C-6.463513209182622 32.669624432556276 -5.688991840695252 25.56112184255268 -4.6875 18.3125 C-4.569792480468749 17.422160644531246 -4.452084960937498 16.531821289062492 -4.330810546875 15.614501953125 C-3.5210401258370965 10.041437065661967 -2.162044964760071 5.202231441817645 0 0 Z " fill="#CDA582" transform="translate(39,63)"/>
<path d="M0 0 C-1.1109897640111512 3.0552218510306517 -2.307754564093969 5.461631846140946 -4.125 8.1875 C-6.703968220883155 12.608588378656847 -6.826330548034008 17.015922062910676 -6 22 C-4.086242822408778 25.328273352332573 -1.7303138088165042 26.307810313792473 1.8125 27.4375 C7.545918777853544 28.546276854560105 12.775691226341905 27.019177332951045 18.37890625 25.73828125 C22.738187942907246 24.849495662125705 26.574407907860063 24.76707410041368 31 25 C31 25.989999999999995 31 26.980000000000004 31 28 C30.21238281250001 28.279726562500002 29.424765624999992 28.559453125000005 28.61328125 28.84765625 C21.23930842817407 31.56162731223415 14.609238698581066 34.662237575590495 7.77734375 38.546875 C1.279369255437416 41.94665912373739 -5.230194023085204 41.64773570478974 -12.1875 39.8125 C-19.043094010700145 37.565796909203925 -22.346947199061105 33.046432222243695 -26 27 C-27.93655119032931 23.003287968894824 -28.243443192162232 19.79959792555836 -28.1875 15.375 C-28.181054687499994 14.248359375000007 -28.174609375000003 13.12171875 -28.16796875 11.9609375 C-28 9 -28 9 -27 6 C-26.41734375 6.130195312500007 -25.8346875 6.260390624999999 -25.234375 6.39453125 C-14.792644600122173 8.151237465073791 -8.878355105695277 0 0 0 Z " fill="#7D888B" transform="translate(97,81)"/>
<path d="M0 0 C6.599999999999994 0 13.200000000000003 0 20 0 C20.309375000000003 2.68125 20.618750000000006 5.3625 20.9375 8.125 C21.092429199218742 9.461959228515624 21.092429199218742 9.461959228515624 21.25048828125 10.825927734375 C21.787775990192955 15.618187460914559 22.124311497778493 20.366553369560734 22.3125 25.1875 C22.71798851267731 31.878060459175597 24.597732113842525 37.501628868754814 26.94140625 43.72265625 C27.934820779850227 46.798208982635956 28.5698067697938 48.824571981925814 28 52 C26.25 53.58203125 26.25 53.58203125 24 54.8125 C23.257499999999993 55.2314453125 22.515 55.650390625 21.75 56.08203125 C21.1725 56.3849609375 20.595 56.687890625 20 57 C19.913632812499998 56.443125 19.827265624999995 55.88625 19.73828125 55.3125 C18.751879635103194 49.95516278881735 17.14516244004517 46.094957826076175 14.0234375 41.62890625 C13 40 13 40 13 38 C12.010000000000005 37.67 11.019999999999996 37.34 10 37 C10 36.34 10 35.68 10 35 C9.406547851562493 34.72744384765625 8.813095703125 34.4548876953125 8.20166015625 34.174072265625 C4.431502403197541 32.16357230616289 1.9930330755036039 29.803650254008687 0 26 C-0.7185148241271833 21.493551118330664 -0.5685522038938018 17.11097679150449 -0.375 12.5625 C-0.3343945312499983 10.749755859375 -0.3343945312499983 10.749755859375 -0.29296875 8.900390625 C-0.22259161265473892 5.932821333607984 -0.11498456155401016 2.9661758193468675 0 0 Z " fill="#7170B1" transform="translate(86,0)"/>
<path d="M0 0 C3 0.5625 3 0.5625 4.6015625 2.578125 C6.357556384032193 6.3255532888284804 6.830986234042626 9.803355234495776 7.375 13.875 C8.393222677115546 20.569636091077186 9.836572034487212 25.084305308535804 14 30.5625 C14.329999999999998 31.552499999999995 14.659999999999997 32.542500000000004 15 33.5625 C15.659999999999997 33.5625 16.32 33.5625 17 33.5625 C22.858516767199845 43.789738892568806 27.862589971645946 53.90389984534151 30 65.5625 C27.375 65.25 27.375 65.25 24 63.5625 C22.546874999999993 61.191406249999986 22.546874999999993 61.191406249999986 21.125 58.3125 C18.33177628840138 52.77670689281621 15.510270909061553 49.45904948671023 10 46.5625 C8.315599517055205 46.05215574064624 6.627946092840418 45.55244719838015 4.9375 45.0625 C0.17683818671665108 43.30200872852387 -1.8082962868325865 40.47883884783668 -4 36.0625 C-8.56101094621122 26.077900133130328 -9.922089534295349 17.794197603525816 -7.01953125 7.15625 C-5.427946387157647 3.1071605405083496 -4.410263638070781 0.82692443213827 0 0 Z " fill="#9E8A98" transform="translate(39,19.4375)"/>
<path d="M0 0 C11.88 0 23.76 0 36 0 C36.66 2.97 37.32 5.94 38 9 C38.98287412490043 11.453432885785405 38.98287412490043 11.453432885785405 40.125 13.375 C41.611690622467385 16.011976797515146 42 16.856008617621622 42 20 C40.60386934532098 19.857041087647247 39.20810691705122 19.710484420241972 37.8125 19.5625 C36.984921875 19.477421875 36.15734375 19.39234375 35.3046875 19.3046875 C32.99999999999999 19 32.99999999999999 19 30.4375 18.1875 C26.3897663619805 17.8761358739985 23.44090045663631 20.034645824590292 20 22 C19.193046875 22.4447265625 18.38609375 22.889453125 17.5546875 23.34765625 C15.993820406819678 24.208391640612298 14.436218379122526 25.075089657741156 12.8828125 25.94921875 C7.729470633775936 28.825253940900982 7.971145780551196 28 0 28 C0 18.759999999999998 0 9.52 0 0 Z " fill="#694C4B" transform="translate(0,0)"/>
<path d="M0 0 C2.64 0 5.28 0 8 0 C9.961754110351013 2.942631165526521 10.56468627790762 4.808015123744127 11.375 8.1875 C13.007419356092917 14.366207262811699 14.667087518095538 19.8831657542531 19.48828125 24.2578125 C22.419104258964094 27.45756017075084 23.370256202343832 30.38023274617865 24.3125 34.5 C24.48072265625 35.150976562500006 24.6489453125 35.801953125 24.822265625 36.47265625 C25.735961643416932 40.16473403870515 26 43.14074540515338 26 47 C17.42 47 8.84 47 0 47 C0 31.489999999999995 0 15.97999999999999 0 0 Z " fill="#4F3E39" transform="translate(0,81)"/>
<path d="M0 0 C1.2168750000000017 0.04124999999999801 2.4337500000000034 0.08250000000000313 3.6875 0.125 C3.554726562500001 0.8295532226562443 3.4219531250000017 1.5341064453125028 3.28515625 2.260009765625 C2.2854990411862133 7.852526349422206 1.5395780766177438 13.354885829220038 1.1875 19.02734375 C1.1037109374999972 20.184277343749997 1.0199218750000014 21.341210937499994 0.93359375 22.533203125 C0.7677690712014069 24.911339589992508 0.6356320825659552 27.292035632507037 0.53515625 29.673828125 C-0.15400655265663232 38.080670258777104 -0.15400655265663232 38.080670258777104 -3.52734375 41.12158203125 C-6.181955927986838 42.56339506991796 -8.334165993048373 43.603385623198406 -11.3125 44.125 C-15.459851423052992 42.68718288323083 -18.02512189685619 39.77754344724234 -20.3125 36.125 C-23.030930149878852 30.00619674168162 -24.836944126589167 23.64203844089785 -26.3125 17.125 C-25.6525 17.125 -24.9925 17.125 -24.3125 17.125 C-24.3125 16.465000000000003 -24.3125 15.805000000000007 -24.3125 15.125 C-23.6525 15.125 -22.9925 15.125 -22.3125 15.125 C-22.3125 14.465000000000003 -22.3125 13.805000000000007 -22.3125 13.125 C-21.6525 13.125 -20.9925 13.125 -20.3125 13.125 C-20.0714453125 12.539765625000001 -19.830390625 11.954531250000002 -19.58203125 11.3515625 C-18.06891435648386 8.697788255987078 -16.422812709688714 7.348667176804497 -14 5.5 C-13.2407421875 4.909609375000002 -12.481484375 4.3192187500000045 -11.69921875 3.7109375 C-7.87218622264184 1.1679338893495697 -4.612933910715931 -0.1563706410412209 0 0 Z " fill="#896142" transform="translate(34.3125,63.875)"/>
<path d="M0 0 C0 6.269999999999996 0 12.540000000000006 0 19 C-17.49000000000001 19 -34.980000000000004 19 -53 19 C-52 12 -52 12 -50 9 C-48.83984375 9.32484375 -48.83984375 9.32484375 -47.65625 9.65625 C-31.986186790147585 13.84527679867341 -22.911350195095793 9.617563711426712 -9.00390625 2.48828125 C-5.764774987295027 0.8834580886338159 -3.625376008935575 0 0 0 Z " fill="#485257" transform="translate(128,109)"/>
<path d="M0 0 C4.950000000000003 0 9.899999999999999 0 15 0 C15.169076714039207 3.333226648201511 15.33533049116157 6.666555077838273 15.5 10 C15.547695312499997 10.9345703125 15.595390625 11.869140625 15.64453125 12.83203125 C15.908746104211296 18.229563271745064 16.050980367508934 23.59608104405282 16 29 C12.703125 28.41796875 12.703125 28.41796875 9 27 C7.109375 23.988281250000004 7.109375 23.988281250000004 5.75 20.3125 C5.291093750000002 19.1123828125 4.832187500000003 17.912265625 4.359375 16.67578125 C3.9107812499999994 15.4627734375 3.462187499999999 14.249765625 3 13 C2.448281250000001 11.8179296875 1.8965625000000017 10.635859374999999 1.328125 9.41796875 C0 6 0 6 0 0 Z " fill="#3F3968" transform="translate(36,0)"/>
<path d="M0 0 C3.7539384792027235 0.5072889836760446 5.58650326383497 1.067471707670446 8 4 C9.02734375 6.277343749999993 9.02734375 6.277343749999993 9.9375 8.9375 C10.270078124999998 9.9055859375 10.602656250000003 10.873671875 10.9453125 11.87109375 C11.293359375000001 12.9036328125 11.641406250000003 13.936171875 12 15 C12.5839453125 16.62615234375 12.5839453125 16.62615234375 13.1796875 18.28515625 C13.553515625000003 19.3460546875 13.927343749999999 20.406953125 14.3125 21.5 C14.832636718749995 22.969531250000003 14.832636718749995 22.969531250000003 15.36328125 24.46875 C16 27 16 27 15 30 C8.317010734998277 26.340267783451438 4.405935894979834 21.149353877318752 1.95703125 13.921875 C0.7176364910759858 9.197046153773258 -0.1609517638265885 4.900087032053875 0 0 Z " fill="#7170B1" transform="translate(45,27)"/>
<path d="M0 0 C0 1.9799999999999969 0 3.960000000000001 0 6 C-1.3199999999999932 6.329999999999998 -2.6400000000000006 6.659999999999997 -4 7 C-4 7.659999999999997 -4 8.319999999999993 -4 9 C-15.521640091116168 15.519362186788157 -15.521640091116168 15.519362186788157 -21 17 C-19.33333333333333 15.333333333333329 -17.66666666666667 13.666666666666671 -16 12 C-15.113124999999997 11.071875000000006 -14.226249999999993 10.143749999999997 -13.3125 9.1875 C-11 7 -11 7 -9 7 C-9 6.340000000000003 -9 5.68 -9 5 C-8.340000000000003 5 -7.680000000000007 5 -7 5 C-7 4.340000000000003 -7 3.6799999999999997 -7 3 C-4.6252923316265395 -0.08711996888550289 -4.190874185787237 0 0 0 Z " fill="#7D888B" transform="translate(128,56)"/>
</svg>
