<?xml version="1.0" encoding="UTF-8"?>
<!-- Generator: visioncortex VTracer 0.6.0 -->
<svg version="1.1" xmlns="http://www.w3.org/2000/svg" width="128" height="128">
<path d="M0 0 C42.24 0 84.48 0 128 0 C128 42.24 128 84.48 128 128 C85.75999999999999 128 43.519999999999996 128 0 128 C0 85.75999999999999 0 43.519999999999996 0 0 Z " fill="#447962" transform="translate(0,0)"/>
<path d="M0 0 C16.5 0 33 0 50 0 C50 15.84 50 31.68 50 48 C34.01915337606201 53.70744522283499 34.01915337606201 53.70744522283499 26.5625 53.125 C20.398681132747782 52.725942610519105 16.567051815120806 53.20615199389488 11 56 C9.96875 56.4125 8.9375 56.825 7.875 57.25 C4.816397350683033 59.11175813436685 3.5473389544476817 60.9974438338311 1.62109375 63.953125 C-3.048118512914499 69.84870867654747 -9.534311719470722 75.46411740633648 -17.125 76.375 C-27.282812909535238 75.39198584746433 -35.29420816321867 67.25764375793905 -41.83203125 59.953125 C-43 58 -43 58 -42.3125 54.3125 C-42.103671875 53.541640625 -41.89484375 52.77078125 -41.6796875 51.9765625 C-40.62263787557007 47.347414144737904 -40.200240190221834 42.657365138520476 -39.698486328125 37.940673828125 C-39.33058659757771 34.5588410907953 -38.96947583284319 31.26876364878987 -38 28 C-37.4175048828125 27.8620703125 -36.835009765625 27.724140625 -36.23486328125 27.58203125 C-21.40252874752874 23.719207836367545 -9.145856902968717 16.28586255022942 -1 3 C-0.6700000000000017 2.01 -0.3400000000000034 1.02 0 0 Z " fill="#3686C6" transform="translate(78,0)"/>
<path d="M0 0 C0.6342187500000023 0.26039062499999943 1.2684375000000045 0.5207812499999989 1.921875 0.7890625 C2.535468750000007 1.028828125000004 3.1490624999999994 1.2685937499999937 3.78125 1.515625 C8.605250006348527 3.8080216972317373 12.284944301195381 6.629941533789534 16.16015625 10.30078125 C17.95984083395004 12.007635426394273 17.95984083395004 12.007635426394273 20.921875 12.7890625 C20.921875 23.349062500000002 20.921875 33.909062500000005 20.921875 44.7890625 C-21.31812500000001 44.7890625 -63.558125000000004 44.7890625 -107.078125 44.7890625 C-107.078125 36.5390625 -107.078125 28.2890625 -107.078125 19.7890625 C-103.94129341785954 18.74345197261985 -102.5994570391293 18.828529735575074 -99.390625 19.2265625 C-88.60468095479553 20.31086375322161 -78.05344847335323 20.40423822783893 -67.43359375 18.03125 C-65.078125 17.7890625 -65.078125 17.7890625 -62.078125 19.7890625 C-58.686285450084135 20.314797630236967 -57.32551846516196 19.938707110392514 -54.359375 18.14453125 C-53.4415625 17.429101562499994 -52.52375 16.713671875000003 -51.578125 15.9765625 C-49.75336032093599 14.569545914598109 -47.920235355323065 13.17329197677293 -46.078125 11.7890625 C-45.322734375 11.203828125000001 -44.56734375 10.618593750000002 -43.7890625 10.015625 C-39.86464759405156 8.240025172236585 -36.43573391714962 8.723724044572919 -32.203125 8.9765625 C-21.71986876947649 9.313459269423305 -13.257162450641559 6.87520016897264 -4.4140625 1.02734375 C-2.078125 -0.2109375 -2.078125 -0.2109375 0 0 Z " fill="#43788B" transform="translate(107.078125,83.2109375)"/>
<path d="M0 0 C25.740000000000002 0 51.480000000000004 0 78 0 C76.6196341619193 6.901829190403524 72.81214556275428 10.076682757578132 68 15 C67.23042968749999 15.858515624999999 67.23042968749999 15.858515624999999 66.4453125 16.734375 C60.52195120830561 22.689754460838685 51.670224240802646 25.034833440456485 44 28 C43.010000000000005 28.494999999999997 43.010000000000005 28.494999999999997 42 29 C41.34 28.67 40.68 28.34 40 28 C39.95512451171875 28.6653173828125 39.9102490234375 29.330634765625 39.864013671875 30.01611328125 C39.651666789897064 33.05349346356458 39.419766113404926 36.0890807224238 39.1875 39.125 C39.11724609375 40.17171875 39.0469921875 41.2184375 38.974609375 42.296875 C38.13464622832292 52.91400917399829 38.13464622832292 52.91400917399829 35 57 C32.29296875 57.91796875 32.29296875 57.91796875 29.1875 58.1875 C23.30085845503185 58.92068649182837 19.49635426830338 60.16432240571996 14.66796875 63.71484375 C13.8081640625 64.3451953125 12.948359374999999 64.975546875 12.0625 65.625 C11.2697265625 66.236015625 10.476953125 66.84703125 9.66015625 67.4765625 C6.999999999999989 69 6.999999999999989 69 0 70 C0 46.9 0 23.799999999999997 0 0 Z " fill="#436376" transform="translate(0,0)"/>
<path d="M0 0 C0 15.840000000000003 0 31.680000000000007 0 48 C-4.194910718467696 46.95127232038308 -5.654293463401046 45.86410555916359 -8.875 43.125 C-14.02108813660054 38.87539293627093 -14.02108813660054 38.87539293627093 -20 36 C-24.79569695248435 36.56466746870048 -28.357552306480017 38.69599052335276 -32.5 41.0390625 C-36.20234270049835 42.462150475504046 -38.55699538243573 41.62610814877556 -42.09765625 40.08984375 C-47.372667001879705 36.99614957146221 -50.20846476268801 33.90217437077631 -52 28 C-53.00088992163731 22.3586204416806 -52.134453376500886 19.6347523933444 -49.0625 14.8125 C-44.50062527067951 8.83423674585017 -39.62523713600973 5.798781063866549 -32.3125 4.1875 C-29.764927829532155 3.9841010243139436 -27.2961987158169 4.02022901894658 -24.73828125 4.09375 C-17.709869697278776 4.2761087862327685 -12.449857123180166 4.002660156102195 -6.0859375 0.875 C-4 0 -4 0 0 0 Z " fill="#336576" transform="translate(128,48)"/>
<path d="M0 0 C3.918666902104377 1.8223757633181492 7.037237977456243 3.6696643700687304 10.1875 6.625 C12.597390253037418 8.878033491005397 13.820511733812054 9.940170577937351 17 11 C17 21.560000000000002 17 32.120000000000005 17 43 C2.8100000000000023 43 -11.379999999999995 43 -26 43 C-27.485 39.535 -27.485 39.535 -29 36 C-30.505410688037244 33.66031904865251 -30.505410688037244 33.66031904865251 -32.125 31.6875 C-34.93559322033899 28.128813559322026 -34.93559322033899 28.128813559322026 -36 26 C-35.165976562500006 25.708671874999993 -34.331953125 25.41734375 -33.47265625 25.1171875 C-26.964715646037433 22.746597451821202 -21.29489964757545 20.25245855303794 -15.70703125 16.13671875 C-14 15 -14 15 -12 15 C-11.663554687499996 14.187890624999994 -11.663554687499996 14.187890624999994 -11.3203125 13.359375 C-9.58851133514105 10.264677060429563 -7.283807321342934 7.820743947987836 -4.875 5.25 C-4.407070312499997 4.743398437500005 -3.939140624999993 4.236796874999996 -3.45703125 3.71484375 C-2.308734588570289 2.4728085855964252 -1.15491328140493 1.2358850612820333 0 0 Z " fill="#6E99A3" transform="translate(111,85)"/>
<path d="M0 0 C8.472696744415344 3.2569140688838942 16.72191567223838 1.9908462177758537 25.5625 0.9375 C25.5625 3.5775000000000006 25.5625 6.217500000000001 25.5625 8.9375 C16.74593445386887 12.906371950026873 9.531860491780563 14.505083566947704 -0.13037109375 13.927734375 C-5.44282185937189 13.665743976336742 -8.670954594550807 14.545389450417339 -13.4375 16.9375 C-14.46875 17.35 -15.5 17.762500000000003 -16.5625 18.1875 C-19.621102649316953 20.049258134366852 -20.89016104555232 21.9349438338311 -22.81640625 24.890625 C-27.4856185129145 30.78620867654746 -33.971811719470736 36.401617406336484 -41.5625 37.3125 C-51.0103032616046 36.398196458554395 -57.99912526822763 29.43398280696887 -64.4375 22.9375 C-65.069140625 22.309726562500003 -65.70078125 21.681953125 -66.3515625 21.03515625 C-67.4375 18.9375 -67.4375 18.9375 -66.625 15.6875 C-66.233125 14.780000000000001 -65.84125 13.872500000000002 -65.4375 12.9375 C-64.707890625 13.105078124999999 -63.97828125 13.272656249999997 -63.2265625 13.4453125 C-53.28609246316711 15.384317766443942 -44.35861212639801 14.574892849067936 -34.4375 12.9375 C-33.47972656249999 12.798281250000002 -32.52195312500001 12.659062499999997 -31.53515625 12.515625 C-27.61600398466433 11.631303463206308 -25.951834693215403 10.617082787421161 -23.4921875 7.3671875 C-22.28104353838816 5.4263166326471435 -21.126638241594463 3.4484162862237824 -20.04296875 1.43359375 C-15.29021384628571 -5.955725917818569 -6.839124137310677 -2.722087652385696 0 0 Z " fill="#40A9AD" transform="translate(102.4375,39.0625)"/>
<path d="M0 0 C3.8266968898785727 1.275565629959523 4.54152092618699 2.837231478937383 6.8125 6.125 C9.24628168844984 9.584478961955512 11.687508695386068 12.902622596003823 14.5 16.0625 C17 19 17 19 17 21 C17.659999999999997 21 18.32 21 19 21 C22.35139629448374 25.315139788493312 24.78727220609334 29.51090544265341 25.5625 34.9375 C24.9495181239502 38.27484576960448 24.531551013304686 38.92553458631977 22 41 C9.813912370991332 45.06202920966956 -4.553361041501134 43.03721991320825 -17 42 C-17 31.11 -17 20.22 -17 9 C-14.69 8.340000000000003 -12.379999999999999 7.680000000000007 -10 7 C-7.224452858122687 5.291633826222977 -7.224452858122687 5.291633826222977 -4.75 3.3125 C-2.2343750000000018 1.36328125 -2.2343750000000018 1.36328125 0 0 Z " fill="#817051" transform="translate(17,61)"/>
<path d="M0 0 C3.737287668741459 1.879231051562634 7.789318375312931 3.0638873751043114 11.7578125 4.38671875 C11.7578125 11.31671875 11.7578125 18.24671875 11.7578125 25.38671875 C-2.921181573947919 28.322517564789585 -15.208756288794731 27.97647229973228 -28.0078125 19.5703125 C-31.894189271262917 16.238104268343093 -35.68943949194599 12.647960601130048 -36.9296875 7.57421875 C-35.993417057888664 3.233328518392888 -33.78251077259878 1.6216838017650623 -30.48046875 -1.1953125 C-21.95771192972134 -6.594545878291719 -8.343066682289304 -4.58455644422828 0 0 Z " fill="#6CB4E3" transform="translate(116.2421875,14.61328125)"/>
<path d="M0 0 C5.61 0 11.22 0 17 0 C16.479166666666668 3.125 15.958333333333334 6.25 15.4375 9.375 C14.459168336392505 17.481176641319248 15.508845837845675 23.686113066145968 17.5625 31.5 C19.785791968269578 40.62530345763574 21.54119946971304 49.7459860018857 19 59 C16.208666114249006 62.32483114719145 13.07872524421676 64.87417839874668 9.5 67.3125 C8.7678125 67.8242578125 8.035625 68.336015625 7.28125 68.86328125 C5.0000000000000036 70 5.0000000000000036 70 0 70 C0 46.9 0 23.799999999999997 0 0 Z " fill="#21282A" transform="translate(0,0)"/>
<path d="M0 0 C2.312500000000007 2.0625 2.312500000000007 2.0625 4 4 C2.284659773254951 9.49688572661482 0.317214220710369 14.743602297790716 -2.1328125 19.95703125 C-3.1787900289917417 22.273700921162515 -3.1787900289917417 22.273700921162515 -4 26 C-17.200000000000003 26 -30.400000000000002 26 -44 26 C-44 17.75 -44 9.5 -44 1 C-40.863168417859534 -0.04561052738016258 -39.521332039129305 0.039467235575074255 -36.3125 0.4375 C-27.36266498915878 1.340803400828591 -17.621756832032577 2.1140776479813326 -8.8125 -0.0625 C-5.19900461003995 -0.9510644401541128 -3.4142585187130265 -1.3657034074852135 0 0 Z " fill="#81888D" transform="translate(44,102)"/>
<path d="M0 0 C0.6599999999999966 0 1.3199999999999932 0 2 0 C3.33203125 1.57421875 3.33203125 1.57421875 4.8125 3.6875 C7.3104174970751785 7.142850247796876 9.89934090252116 10.081732614137564 13 13 C11.88624999999999 13.247500000000002 10.772500000000008 13.494999999999997 9.625 13.75 C5.994042992141942 14.568081922969014 5.994042992141942 14.568081922969014 4.90234375 16.82421875 C4.604570312500002 17.542226562500005 4.306796875000003 18.260234374999996 4 19 C3.34512451415749 20.370241478409426 2.6565889776383074 21.724839858801865 1.9375 23.0625 C1.5958984374999972 23.7341015625 1.2542968749999943 24.405703125000002 0.90234375 25.09765625 C-4.261110019908813 30.26111001990882 -13.002162651092434 30.668561526427844 -19.9375 31.3125 C-20.810517578125 31.398061523437505 -21.683535156250002 31.483623046874996 -22.5830078125 31.57177734375 C-28.77339256772632 32.09515253862076 -34.00421292089009 31.798736123732972 -40 30 C-41.382138744268595 24.41652560262355 -40.54538853117834 19.679365827254614 -39.5625 14.125 C-39.41490234375 13.245859375000002 -39.2673046875 12.366718750000004 -39.115234375 11.4609375 C-38.75211778980622 9.305664865301438 -38.38017684001791 7.152317164694843 -38 5 C-35.279971817457444 6.040010775678034 -32.76060363225919 7.133109745088376 -30.2109375 8.55078125 C-26.319989326864167 10.306914792863012 -22.8372715151837 10.772366550492748 -18.625 11.1875 C-17.8889453125 11.26935546875 -17.152890624999998 11.3512109375 -16.39453125 11.435546875 C-14.59745375170121 11.633925559877142 -12.798851070385822 11.818405770804283 -11 12 C-10.670000000000002 11.340000000000003 -10.340000000000003 10.68 -10 10 C-9.195625000000007 9.876249999999999 -8.39125 9.752499999999998 -7.5625 9.625 C-4.900857849657896 9.287623465031373 -4.900857849657896 9.287623465031373 -3.875 7.25 C-3.441874999999996 6.13625 -3.441874999999996 6.13625 -3 5 C-1.5 2.2499999999999964 -1.5 2.2499999999999964 0 0 Z " fill="#3BA0CA" transform="translate(78,23)"/>
<path d="M0 0 C5.1944915813045895 3.578427533787604 7.498642240405431 9.01918138391018 9 15 C9.29889758094022 19.02800073362303 9.249227153526903 22.97082768464844 9 27 C6.778904723776961 28.205222199953226 4.550213497200758 29.388874039929675 2.3125 30.5625 C1.373740234374992 31.075869140625002 1.373740234374992 31.075869140625002 0.416015625 31.599609375 C-2.420119687705437 33.069648097292344 -4.477785918164088 34.03018578507722 -7.703125 33.84375 C-13.133305555588322 31.848989795906334 -17.630233785943773 29.375547105838308 -20.5 24.1875 C-22.17957912227915 20.121550541088936 -23.16882713168164 16.32230704400392 -22 12 C-19.458945141745843 7.114476189431123 -16.515877750700213 3.1533852450979865 -12.125 -0.1875 C-7.820532195918517 -1.3066616290611819 -4.273370537068004 -1.2582702136922421 0 0 Z " fill="#196055" transform="translate(98,56)"/>
<path d="M0 0 C13.86 0 27.72 0 42 0 C40.61963416191929 6.901829190403524 36.81214556275428 10.076682757578133 32 15 C31.230429687499992 15.858515624999999 31.230429687499992 15.858515624999999 30.4453125 16.734375 C24.578784045858157 22.632614418758827 15.698401850776278 25.30076781580666 8 28 C7.009999999999998 28 6.019999999999996 28 5 28 C3.3507839472743584 23.52158486100861 2.5139528345309685 19.29522621291393 1.9375 14.5625 C1.7815234374999989 13.3056640625 1.6255468749999977 12.048828125 1.46484375 10.75390625 C1.3114453124999983 9.5151171875 1.1580468749999966 8.276328125 1 7 C0.6700000000000017 4.6899999999999995 0.3400000000000034 2.38 0 0 Z " fill="#1D5792" transform="translate(36,0)"/>
<path d="M0 0 C1.8125 0.8125 1.8125 0.8125 3.8125 2.8125 C2.0847774395357703 4.709666454310096 0.35537265827097997 6.605253045564638 -1.375 8.5 C-1.8577539062499966 9.030449218749993 -2.340507812499993 9.5608984375 -2.837890625 10.107421875 C-4.279082933058163 11.684028225426047 -5.73247062771182 13.248669327302949 -7.1875 14.8125 C-8.392128906250008 16.129277343750005 -8.392128906250008 16.129277343750005 -9.62109375 17.47265625 C-12.57514054762116 20.165919616476515 -15.482599260321422 21.792133332237725 -19.0625 23.5625 C-20.235546874999997 24.155468749999997 -21.408593749999994 24.748437499999994 -22.6171875 25.359375 C-27.09083283872397 27.18015844201895 -31.001600685076795 28.660656516515942 -35.6640625 26.8515625 C-36.373046875 26.384921875000003 -37.08203125 25.918281250000007 -37.8125 25.4375 C-44.16540108826682 21.332195686643473 -50.86164498168636 21.091524163614395 -58.1875 22.3125 C-59.1775 22.560000000000002 -59.1775 22.560000000000002 -60.1875 22.8125 C-60.1875 22.152500000000003 -60.1875 21.492500000000007 -60.1875 20.8125 C-59.630625 20.521171874999993 -59.07375 20.22984375 -58.5 19.9296875 C-53.6193332240086 17.307977981815426 -49.17736583346037 14.465162511884088 -44.81640625 11.046875 C-41.494576608504616 8.529613209322434 -39.10839349293664 8.848273144348454 -35.01611328125 9.030029296875 C-23.304475112540644 9.472085113644638 -14.495313118493101 7.314359558227821 -4.41015625 1.1015625 C-2.1875 -0.1875 -2.1875 -0.1875 0 0 Z " fill="#548E87" transform="translate(107.1875,83.1875)"/>
<path d="M0 0 C8.472696744415344 3.2569140688838942 16.721915672238396 1.9908462177758537 25.5625 0.9375 C25.5625 3.5775000000000006 25.5625 6.217500000000001 25.5625 8.9375 C16.74593445386887 12.906371950026873 9.531860491780577 14.505083566947704 -0.13037109375 13.927734375 C-6.384303289531715 13.619313598700522 -10.152047752833724 15.203511313995577 -15.6875 18.125 C-17.4375 18.9375 -17.4375 18.9375 -20.4375 18.9375 C-20.932500000000005 16.4625 -20.932500000000005 16.4625 -21.4375 13.9375 C-22.097499999999997 13.9375 -22.757499999999993 13.9375 -23.4375 13.9375 C-24.6328125 12.2890625 -24.6328125 12.2890625 -25.4375 9.9375 C-24.2421875 7.2109375 -24.2421875 7.2109375 -22.3125 4.3125 C-21.691171874999995 3.350859374999999 -21.069843750000004 2.3892187499999977 -20.4296875 1.3984375 C-14.801629922164352 -5.553868919679317 -7.3616190617822355 -2.930049513258936 0 0 Z " fill="#468DA5" transform="translate(102.4375,39.0625)"/>
</svg>
