<?xml version="1.0" encoding="UTF-8"?>
<!-- Generator: visioncortex VTracer 0.6.0 -->
<svg version="1.1" xmlns="http://www.w3.org/2000/svg" width="128" height="128">
<path d="M0 0 C42.24 0 84.48 0 128 0 C128 42.24 128 84.48 128 128 C85.75999999999999 128 43.519999999999996 128 0 128 C0 85.75999999999999 0 43.519999999999996 0 0 Z " fill="#998B5C" transform="translate(0,0)"/>
<path d="M0 0 C5.165170961105929 5.4931183237158265 6.18753831865186 13.356578650296576 7.3935546875 20.527587890625 C8.413986936209113 26.045414717997872 9.862605073723302 29.12706923804496 14 33 C19.60813860419225 35.6624496403741 26.163845521462946 35.988067843869615 32.275390625 36.767578125 C33.09587890624999 36.88423828125 33.9163671875 37.0008984375 34.76171875 37.12109375 C35.50381591796875 37.21833740234375 36.2459130859375 37.3155810546875 37.010498046875 37.415771484375 C39.46965407081922 38.13791657767461 40.421351953498814 38.99495542339487 42 41 C42.88793945312497 42.89428710937494 42.88793945312497 42.89428710937494 43.61328125 45.02734375 C43.88922119140625 45.81415527343751 44.1651611328125 46.600966796875 44.449462890625 47.41162109375 C44.876666259765614 48.661931152343755 44.876666259765614 48.661931152343755 45.3125 49.9375 C47.74190527121786 56.87209727701129 50.413950147557486 63.19942593821554 54.12890625 69.5546875 C55 72 55 72 54.29296875 74.66015625 C50.29282389816437 81.89908907854847 43.490298036253094 85.47469737376741 36 88.1875 C29.7842935092022 90.67378259631913 26.74340582197766 93.93848278859484 24 100 C23.504999999999995 101.97999999999999 23.504999999999995 101.97999999999999 23 104 C11.780000000000001 104 0.5600000000000023 104 -11 104 C-11.989999999999995 101.69 -12.980000000000004 99.38 -14 97 C-15.042342282076397 95.47123131962128 -16.122381158068436 93.96699927008572 -17.25 92.5 C-19.3575530331904 89.39385575407599 -19.984684576838838 88.29099304006203 -20.1875 84.4375 C-18.493956017104296 79.53513583898612 -15.765320508161068 75.49521264134304 -12.78125 71.27734375 C-9.94167467853164 66.6630338526139 -9.613966649857574 62.208155905241455 -9.5625 56.875 C-9.547393798828125 55.85309570312501 -9.547393798828125 55.85309570312501 -9.531982421875 54.810546875 C-9.653599011352561 47.72400858317272 -12.64907709827655 43.23553549970663 -16.8125 37.75 C-29.330992482168462 20.78202492288031 -29.330992482168462 20.78202492288031 -28.875 12.81640625 C-27.926577940059005 6.957924150572801 -25.54995426093734 2.822395942362636 -21 -1 C-14.312691499104105 -4.272512670651182 -6.3089996074290084 -4.072898480745309 0 0 Z " fill="#C1C1B0" transform="translate(56,24)"/>
<path d="M0 0 C42.24 0 84.48 0 128 0 C128 11.55 128 23.1 128 35 C124.30756248223797 34.076890620559496 122.74454256950246 33.45048443705577 120 31 C120 30.34 120 29.68 120 29 C118.515 28.505000000000003 118.515 28.505000000000003 117 28 C115.42187499999999 26.29296874999999 115.42187499999999 26.29296874999999 113.75 24.1875 C110.05750794790725 19.884742525071836 106.84565456904517 16.739845367992658 101.05078125 15.625 C96.03382717243805 15.328248557334598 91.88044785068503 16.59702003486186 87.125 18.125 C74.62904362855015 21.841814315175384 64.44567354564848 16.504175252761613 52.931884765625 11.724365234375 C46.61622200959593 9.356291002460651 39.59069847555656 8.657870025872862 33.19921875 11.046875 C30.741714305140054 12.28472909074427 28.371127218382853 13.605219283304205 26 15 C25.2871484375 15.301640625 24.574296875 15.60328125 23.83984375 15.9140625 C21.503751271799455 17.292902646368898 21.054724176122306 18.532941304778298 20 21 C18.73563764593206 23.052127060652325 17.43016821960304 25.07383488898165 16.12109375 27.09765625 C14.288187475446149 30.2078491270304 13.84270167961768 32.835363148808035 13.8125 36.375 C13.7983203125 37.125234375 13.784140625 37.87546875 13.76953125 38.6484375 C14.046856717073883 41.47809735048267 14.68075617092038 43.47730803843709 16 46 C17.891084647431665 47.48322011433329 17.891084647431665 47.48322011433329 20.125 48.75 C28.281023269507624 54.69243375532785 32.30705051843242 66.54183596717728 35 76 C35.872540546894534 83.13251167984717 35.37504747427159 88.24335858648475 31 94 C21.732751399526947 103.06130974268476 12.498543936587692 103 0 103 C0 69.00999999999999 0 35.019999999999996 0 0 Z " fill="#69522A" transform="translate(0,0)"/>
<path d="M0 0 C4.894106749201342 4.480228800008838 8.180286716452216 9.785582827170543 11.47265625 15.48828125 C13.974512803106535 19.602587550888742 16.943609712120463 23.288191225879345 20 27 C20.578789062499993 27.725742187500003 21.157578125 28.451484375 21.75390625 29.19921875 C22.330117187500008 29.896601562500003 22.906328125 30.593984374999998 23.5 31.3125 C24.005312500000002 31.9273828125 24.510625000000005 32.542265625 25.03125 33.17578125 C27.597244984555104 35.6913401645759 27.597244984555104 35.6913401645759 34 39 C34 59.46000000000001 34 79.92 34 101 C17.83 101 1.6599999999999966 101 -15 101 C-13.915403268052785 94.49241960831665 -12.957137832039848 91.2807895754221 -8 87 C-2.9171396575766835 84.1326385325624 2.5806851421350956 82.12860562357751 8 80 C11.5016886848085 78.43553586178717 12.560486287239513 77.59878428190123 14 74 C14.43312499999999 73.316796875 14.866250000000008 72.63359375 15.3125 71.9296875 C16.41230645286265 67.243012274733 14.044649634802312 64.05922428279688 11.875 59.9375 C11.024806706748421 58.24215183676023 10.179732266630992 56.54422678905706 9.33984375 54.84375 C8.932338867187497 54.01875 8.524833984374993 53.193749999999994 8.10498046875 52.34375 C3 41.51568714096331 3 41.51568714096331 3 36 C2.274096679687503 35.90501220703125 1.5481933593750057 35.8100244140625 0.80029296875 35.712158203125 C-2.5113660667587965 35.266673173998996 -5.817800515017325 34.789922049546725 -9.125 34.3125 C-10.267109375000004 34.16361328125 -11.409218750000008 34.0147265625 -12.5859375 33.861328125 C-19.206076301168693 32.879854058547664 -23.5247075456097 32.128244960030855 -28 27 C-31.395183780748134 21.669032148268514 -32.2358460571929 15.835069853926939 -33.373046875 9.720703125 C-34.440251605813025 4.438262972063551 -36.097342034847834 0.5509313816895123 -39 -4 C-37.842421875 -3.988398437499999 -36.68484375 -3.9767968750000016 -35.4921875 -3.96484375 C-33.95312662226774 -3.955459232452853 -32.41406398810554 -3.9463597433525806 -30.875 -3.9375 C-30.114453124999997 -3.9291210937499983 -29.353906249999994 -3.9207421875 -28.5703125 -3.912109375 C-5.492405542442455 -3.812635638113978 -5.492405542442455 -3.812635638113978 0 0 Z " fill="#A0A787" transform="translate(94,27)"/>
<path d="M0 0 C2.7628221451156065 1.3814110725578033 3.22173745026657 3.072610273006518 4.625 5.8125 C8.409956385763316 12.936029708832187 12.727192997942367 19.78120682485344 17.67578125 26.16015625 C21.691017542623513 31.738847382229125 20.4665761815373 40.43553233475991 20 47 C19.130599888905365 50.0854253942652 17.842234858970343 52.3960718820323 16 55 C11.288578620505206 61.87251886932546 11.288578620505206 61.87251886932546 10 70 C11.627723824213021 73.1503153234379 11.627723824213021 73.1503153234379 14 76 C18 81.55555555555554 18 81.55555555555554 18 86 C3.1499999999999986 86 -11.700000000000003 86 -27 86 C-27 77.75 -27 69.5 -27 61 C-24.23625 60.77312499999999 -21.4725 60.54625 -18.625 60.3125 C-9.795266258124233 59.4189820034934 -2.0651114902476095 57.794381514268366 4.0625 50.875 C7.688332039129122 45.49473310322776 7.6977888344677865 40.303359138025655 7 34 C5.213997510226029 27.906159504891207 2.6990543985124162 22.205550623766726 -0.3125 16.625 C-2.712349269063047 11.469768236827534 -2.569372372036664 7.957217528876029 -1 2.5625 C-0.6700000000000017 1.7168750000000017 -0.33999999999999986 0.8712500000000034 0 0 Z " fill="#ABAA89" transform="translate(27,42)"/>
<path d="M0 0 C30.03 0 60.06 0 91 0 C91 11.55 91 23.1 91 35 C87.30756248223797 34.076890620559496 85.74454256950246 33.45048443705577 83 31 C83 30.34 83 29.68 83 29 C81.515 28.505000000000003 81.515 28.505000000000003 80 28 C78.42187499999999 26.29296874999999 78.42187499999999 26.29296874999999 76.75 24.1875 C73.05750794790725 19.884742525071836 69.84565456904517 16.739845367992658 64.05078125 15.625 C59.03382717243808 15.3282485573346 54.88044785068503 16.59702003486186 50.125 18.125 C37.629043628550136 21.841814315175387 27.445673545648475 16.504175252761613 15.931884765625 11.724365234375 C11.446190541326374 10.042442478973253 7.549650706813026 9.89305878975173 2.75 9.9375 C0.8550781249999986 9.95103515625 0.8550781249999986 9.95103515625 -1.078125 9.96484375 C-2.0423437500000006 9.9764453125 -3.006562500000001 9.988046875 -4 10 C-3.2513020833333357 8.274739583333334 -2.5026041666666643 6.549479166666667 -1.75390625 4.82421875 C-1.1003805780544127 3.2428897924943483 -0.5410819786074796 1.6232459358224378 0 0 Z " fill="#675D2F" transform="translate(37,0)"/>
<path d="M0 0 C6.06518754713845 4.213965645200609 11.611774995103218 11.326892897630302 13.9453125 18.3515625 C14.17404903960798 25.569471083185263 9.73524755115642 31.545734038016377 5.9453125 37.3515625 C2.4222338949628295 36.93106456748117 -1.0975140322448311 36.48710199779531 -4.6171875 36.0390625 C-5.607832031249998 35.92111328125 -6.598476562499997 35.8031640625 -7.619140625 35.681640625 C-14.8223630345135 34.748332738053065 -20.312572120166365 33.85456233335025 -25.83203125 28.81640625 C-28.94058993916589 24.699185689482363 -29.652820151776083 19.882121005110207 -30.6171875 14.9140625 C-31.934207481485444 8.301039907452953 -33.354957353357065 3.0380399135505556 -37.0546875 -2.6484375 C-35.897109375 -2.636835937499999 -34.73953125 -2.6252343750000016 -33.546875 -2.61328125 C-32.00781412226774 -2.603896732452853 -30.46875148810554 -2.5947972433525806 -28.9296875 -2.5859375 C-28.169140624999997 -2.5775585937499983 -27.408593749999994 -2.5691796875 -26.625 -2.560546875 C-4.522632392242059 -2.4652780491044908 -4.522632392242059 -2.4652780491044908 0 0 Z " fill="#9BAF9A" transform="translate(92.0546875,25.6484375)"/>
<path d="M0 0 C7.088236053719015 4.813190857438016 7.088236053719015 4.813190857438016 8.7890625 8.21484375 C10.354974808860916 18.1797402609331 7.729808098874514 29.95375821360325 1.7890625 38.21484375 C-2.255983792881594 40.64187152572896 -5.5872903201963595 40.56006098129501 -10.2109375 40.21484375 C-11.77521484375 40.205175781250006 -11.77521484375 40.205175781250006 -13.37109375 40.1953125 C-19.940152193650867 39.971084209255906 -24.58327364342204 38.56979720295993 -30.2109375 35.21484375 C-30.2109375 34.55484375 -30.2109375 33.89484375000001 -30.2109375 33.21484375 C-30.870937499999997 33.21484375 -31.5309375 33.21484375 -32.2109375 33.21484375 C-31.992199707031247 32.68407226562499 -31.7734619140625 32.15330078125001 -31.548095703125 31.6064453125 C-28.917888537583494 24.631895394095437 -29.05399735372248 18.66871322239608 -29.591796875 11.32421875 C-29.83573621087185 5.048759756590783 -29.83573621087185 5.048759756590783 -27.956298828125 2.540283203125 C-20.121251436011008 -4.129558185675684 -8.884374273236958 -5.1368501456370055 0 0 Z " fill="#ECCBB5" transform="translate(75.2109375,64.78515625)"/>
<path d="M0 0 C5.165170961105929 5.4931183237158265 6.18753831865186 13.356578650296576 7.3935546875 20.527587890625 C8.41600303307763 26.056316444596312 10.015553514726918 28.997331960678416 14 33 C14.990000000000009 33.66 15.97999999999999 34.32 17 35 C16.67 36.32 16.340000000000003 37.64 16 39 C14.623281250000005 38.94779296875 14.623281250000005 38.94779296875 13.21875 38.89453125 C3.044677603801105 38.67010318243679 -3.0167932633152788 39.39509049477709 -11 46 C-29.33504009021117 20.852731575876383 -29.33504009021117 20.852731575876383 -28.875 12.81640625 C-27.926577940059005 6.957924150572801 -25.54995426093734 2.822395942362636 -21 -1 C-14.312691499104105 -4.272512670651182 -6.3089996074290084 -4.072898480745309 0 0 Z " fill="#CACDB7" transform="translate(56,24)"/>
<path d="M0 0 C3.1621923240677035 2.9705443044272357 5.829158492930304 6.028007638367235 8.4375 9.5 C12.391247084201012 14.665656516532195 16.113677542835717 18.05683877141786 22 21 C22 32.22 22 43.44 22 55 C8.241507103150113 53.74922791846819 8.241507103150113 53.74922791846819 5 52 C3.355051630756691 49.57491067622587 2.1840814376857907 47.509224173771344 1 44.875 C0.6682275390624994 44.17012451171874 0.33645507812499886 43.46524902343751 -0.00537109375 42.739013671875 C-1.0369413067113271 40.505923908709065 -2.025244533455492 38.25842597397897 -3 36 C-3.4819482421874994 34.891809082031244 -3.4819482421874994 34.891809082031244 -3.9736328125 33.76123046875 C-4.886858818167241 31.622309123181523 -5.764230690115383 29.47301076195805 -6.625 27.3125 C-6.896992187500004 26.654272460937506 -7.168984374999994 25.996044921874997 -7.44921875 25.31787109375 C-8.572862720632457 22.34374514689155 -9.123295603175904 20.468938895225193 -8.3046875 17.35546875 C-7.8741406249999955 16.5781640625 -7.443593750000005 15.800859375000002 -7 15 C-6.396718750000005 13.762500000000003 -6.396718750000005 13.762500000000003 -5.78125 12.5 C-4.5 10 -4.5 10 -3.21875 7.5 C-2.018826189341823 5.03861782429091 -0.985101396571082 2.5539665837028167 0 0 Z " fill="#A89E89" transform="translate(106,45)"/>
<path d="M0 0 C0.990000000000002 0.3299999999999983 1.980000000000004 0.6599999999999966 3 1 C3 1.6599999999999966 3 2.319999999999993 3 3 C4.134374999999999 3.309375000000003 5.268749999999997 3.6187500000000057 6.4375 3.9375 C10 5 10 5 11 6 C19.42383463110665 7.0678100236614085 27.591223388042593 7.1154499587290445 36 6 C36.412499999999994 6.886875000000003 36.825 7.773750000000007 37.25 8.6875 C38.90127287558407 11.813123657355561 40.713312585760704 14.319056135029797 43 17 C41.99714387570148 19.69999725772678 40.94037507004937 22.09778488511904 39.4375 24.5625 C37.76530888725756 27.134364288988053 37.76530888725756 27.134364288988053 37 31 C25.78 31 14.560000000000002 31 3 31 C2.009999999999998 28.689999999999998 1.019999999999996 26.379999999999995 0 24 C-1.0423422820763975 22.471231319621282 -2.1223811580684355 20.966999270085722 -3.25 19.5 C-5.357553033190385 16.393855754076014 -5.984684576838845 15.290993040061991 -6.1875 11.4375 C-4.711474324815718 7.1647940981507645 -2.59196092143884 3.6823061061031552 0 0 Z " fill="#D4CDA8" transform="translate(42,97)"/>
<path d="M0 0 C3.7281476210933704 1.3687142047913312 7.515310377095247 2.5369902285037824 11.3115234375 3.70068359375 C12.00850341796874 3.91555419921875 12.705483398437508 4.1304248046875 13.423583984375 4.351806640625 C15.031202788249232 4.8459091065612085 16.63997531307828 5.336255765863989 18.2490234375 5.82568359375 C18.2490234375 6.48568359375 18.2490234375 7.14568359375 18.2490234375 7.82568359375 C8.43388213286967 10.966528811231704 -1.6087051684398403 10.547232979002228 -11.5791015625 8.28271484375 C-17.741282576621543 6.985996896533777 -22.252895291389066 7.817299502010055 -27.7509765625 10.82568359375 C-32.26066969888237 14.604075140448735 -32.48476909219502 19.063852773337302 -33.2470703125 24.59912109375 C-34.005588996122086 29.455992664849575 -35.360672030396174 34.11718557835836 -36.7509765625 38.82568359375 C-47.00444722976377 32.76388332505317 -47.00444722976377 32.76388332505317 -48.7509765625 26.82568359375 C-50.186638780712656 18.261215878205547 -46.477950381228126 12.110928166037048 -42.0009765625 5.07568359375 C-28.66465292213634 -8.260640046613661 -16.111740947468334 -6.135265592579 0 0 Z " fill="#988F6B" transform="translate(61.7509765625,14.17431640625)"/>
<path d="M0 0 C5.723212903023688 0.04912629101308141 11.05873611213529 1.0542465283883473 16 4 C18.041019260138356 6.4957821722116265 19.54972815872484 9.12789302021978 21 12 C21.4125 12.804374999999993 21.825 13.60875 22.25 14.4375 C23.839762321181063 19.869187930701955 24.495556108420413 24.320615410353042 22.875 29.8125 C19.549849167777605 35.46525641477808 15.55938699827583 37.40450137583021 9.57421875 39.484375 C6.015112256848488 40.19727645234599 2.6303078721881246 40.03047380852965 -1 40 C-1.024647753039375 34.4641146673564 -1.0428349554235856 28.928260999950226 -1.054931640625 23.392333984375 C-1.059972440358414 21.507562703407146 -1.066804982823729 19.622795353061917 -1.075439453125 17.738037109375 C-1.0875161703252172 15.034983641914636 -1.0932306846935405 12.331981691683183 -1.09765625 9.62890625 C-1.1028175354003906 8.780990142822262 -1.1079788208007813 7.93307403564453 -1.1132965087890625 7.0594635009765625 C-1.1134919477328125 5.039289315010208 -1.0620621063532332 3.0192206602539073 -1 1 C-0.6699999999999999 0.6700000000000017 -0.33999999999999997 0.3400000000000034 0 0 Z " fill="#47381F" transform="translate(1,54)"/>
<path d="M0 0 C12.210000000000008 0 24.42 0 37 0 C37 11.55 37 23.1 37 35 C33.307562482237984 34.076890620559496 31.744542569502457 33.45048443705577 29 31 C29 30.34 29 29.68 29 29 C28.010000000000005 28.67 27.019999999999996 28.34 26 28 C24.954344702500876 26.809430517249638 23.96031571937897 25.572914381684893 23 24.3125 C20.11704584297975 20.866421039485353 17.459204618201824 18.986229627764978 13.4375 17 C8.145396692520052 14.346658947764874 4.800134023216032 11.245820701721174 2 6 C2 5.34 2 4.68 2 4 C1.3400000000000034 4 0.6800000000000068 4 0 4 C0 2.6799999999999997 0 1.3599999999999999 0 0 Z " fill="#75551B" transform="translate(91,0)"/>
<path d="M0 0 C7.663785682090801 3.9792733349317615 11.120263246564292 8.66039609801767 14.625 16.4375 C14.924062500000002 17.080097656250004 15.223125 17.7226953125 15.53125 18.384765625 C19.1484597215874 26.267401854565463 22.16411245143489 34.42158999137692 19.3125 43.08984375 C15.768195659098797 49.83878993246604 10.011672569298831 53.53976401077233 3 56 C-2.966156963847048 57.262071665429175 -8.931314713724232 57.09876702997556 -15 57 C-15 54.03 -15 51.06 -15 48 C-14.154375 47.9136328125 -13.30875 47.827265624999995 -12.4375 47.73828125 C-5.4331935241038 46.87070237969013 0.7610356485055867 46.05137995016213 6 41 C8.922180668880774 36.39535167327878 9.459624529006085 32.66995249932836 8.6484375 27.40625 C7.255297614872898 22.236526088925928 4.834588864275357 17.146859309258396 1.34765625 13.06640625 C-0.43514094952995386 10.332783877387406 -0.30286812059261337 8.480307376593174 -0.1875 5.25 C-0.16042968750000064 4.265156250000004 -0.1333593749999995 3.280312500000001 -0.10546875 2.265625 C-0.07066406250000057 1.5179687500000014 -0.03585937499999936 0.7703125000000028 0 0 Z " fill="#736D59" transform="translate(15,46)"/>
<path d="M0 0 C2.76282214511561 1.3814110725578033 3.22173745026657 3.072610273006518 4.625 5.8125 C8.409956385763323 12.936029708832194 12.72719299794236 19.78120682485344 17.67578125 26.16015625 C21.6892143800998 31.736342103324503 20.47009909034115 40.43793187592277 20 47 C18.953911824640002 50.832043212329125 17.604178209144578 53.9213284455752 14.1875 56.21875 C11.470078741991294 57.189257592145964 9.598599979100214 56.999815786723715 6.75 56.625 C5.857968749999998 56.51414062500001 4.965937499999999 56.40328124999999 4.046875 56.2890625 C3.3714062499999997 56.19367187500001 2.6959374999999994 56.09828125 2 56 C2 52.067645307057674 3.5494534083194047 50.97035950506739 6 48 C9.200683041154996 38.39795087653502 6.043277150508914 29.831067090771597 2 21 C1.2400593349824511 19.535960955253728 0.47087687122795785 18.07663384381668 -0.3125 16.625 C-2.712349269063047 11.469768236827527 -2.569372372036664 7.957217528876036 -1 2.5625 C-0.6700000000000017 1.7168750000000017 -0.33999999999999986 0.8712500000000034 0 0 Z " fill="#ACA295" transform="translate(27,42)"/>
</svg>
