<?xml version="1.0" encoding="UTF-8"?>
<!-- Generator: visioncortex VTracer 0.6.0 -->
<svg version="1.1" xmlns="http://www.w3.org/2000/svg" width="128" height="128">
<path d="M0 0 C42.24 0 84.48 0 128 0 C128 42.24 128 84.48 128 128 C85.75999999999999 128 43.519999999999996 128 0 128 C0 85.75999999999999 0 43.519999999999996 0 0 Z " fill="#225A79" transform="translate(0,0)"/>
<path d="M0 0 C20.460000000000008 0 40.92 0 62 0 C62 42.24 62 84.48 62 128 C43.519999999999996 128 25.039999999999992 128 6 128 C-0.29870129870130313 112.8831168831169 -0.29870129870130313 112.8831168831169 0 109 C5.03585189283271 100.77148383524067 13.989617385601278 94.17031980876992 23 91 C24.701562499999994 90.5978125 24.701562499999994 90.5978125 26.4375 90.1875 C30.42583925947308 88.85805358017564 32.89845462359369 86.98408873223296 36.140625 84.3828125 C38.00000000000003 82.99999999999999 38.00000000000003 82.99999999999999 40.875 81.875 C43.67956391754663 80.72017956336316 43.70626053922601 79.72673559961741 45 77 C45.641953125 75.9416796875 46.28390625 74.883359375 46.9453125 73.79296875 C47.2998046875 73.20580078125 47.654296875 72.6186328125 48.01953125 72.013671875 C48.753443728708916 70.80128995345788 49.49820604976284 69.59540666499562 50.25390625 68.396484375 C52.81611584884644 64.09328620257844 53.64512634119299 60.973337612105894 53 56 C49.77844302358653 50.090456421391536 44.27467265896101 46.17768051105117 38 44 C34.59623308979977 43.20329727661206 31.51445665851412 42.897497216176035 28.0234375 42.97265625 C27.105625000000003 42.98490234375 26.187812500000007 42.9971484375 25.2421875 43.009765625 C23.322843802226686 43.04506690554488 21.40356628506916 43.08416034634643 19.484375 43.126953125 C18.569140625000003 43.13791015625 17.653906250000006 43.1488671875 16.7109375 43.16015625 C15.878686523437494 43.17699462890625 15.046435546875003 43.1938330078125 14.18896484375 43.211181640625 C12 43 12 43 9 41 C8.855625000000003 39.88625 8.711250000000007 38.7725 8.5625 37.625 C8.389464487456578 33.98122244992223 8.389464487456578 33.98122244992223 6.0703125 32.2734375 C3.2538372947132785 29.180628878345527 2.903100294514104 26.000139418058758 2.3125 22 C2.0802172502846616 20.583203559747332 1.847167693381806 19.16653258364577 1.61328125 17.75 C1.4108984374999949 16.5125 1.208515625000004 15.275 1 14 C0.6700000000000017 12.68 0.3400000000000034 11.36 0 10 C0 6.699999999999999 0 3.3999999999999995 0 0 Z " fill="#608BAE" transform="translate(66,0)"/>
<path d="M0 0 C8.964430273822096 5.171786696435824 14.64833314211792 14.047293863171554 17.9375 23.625 C18.178554687499997 24.3017578125 18.419609375 24.978515625 18.66796875 25.67578125 C20.2867294543859 32.3583574911828 16.189376040050988 38.02371810532502 12.9375 43.625 C12.437343749999997 44.3765234375 11.9371875 45.128046874999995 11.421875 45.90234375 C7.129926604927384 52.525264118258605 6.939404583885391 58.88084895889649 7.9375 66.625 C9.019834671147592 70.16674693728208 10.262500376219606 73.9500003762196 12.9375 76.625 C16.67906335943612 76.68559211918115 20.407471613562393 76.64531791089584 24.1484375 76.5859375 C33.07636231829481 76.49869393500039 33.07636231829481 76.49869393500039 35.9375 77.625 C37.484374999999986 79.91796874999996 37.484374999999986 79.91796874999996 38.6875 82.8125 C39.094843749999995 83.7548046875 39.502187500000005 84.697109375 39.921875 85.66796875 C40.9375 88.62499999999999 40.9375 88.62499999999999 41.9375 94.625 C18.177499999999995 94.625 -5.582500000000003 94.625 -30.0625 94.625 C-30.0625 66.245 -30.0625 37.864999999999995 -30.0625 8.625 C-28.0825 7.965000000000003 -26.1025 7.305 -24.0625 6.625 C-24.0625 5.965000000000003 -24.0625 5.305 -24.0625 4.625 C-23.072499999999998 4.625 -22.0825 4.625 -21.0625 4.625 C-21.0625 3.9650000000000034 -21.0625 3.3049999999999997 -21.0625 2.625 C-19.7425 2.2950000000000017 -18.4225 1.9650000000000034 -17.0625 1.625 C-17.0625 0.9650000000000034 -17.0625 0.3049999999999997 -17.0625 -0.375 C-11.523843052090506 -2.2212189826365005 -5.427331967603401 -2.321328733131576 0 0 Z " fill="#51646B" transform="translate(30.0625,33.375)"/>
<path d="M0 0 C0.6599999999999966 0.3299999999999983 1.3199999999999932 0.6599999999999966 2 1 C1.6700000000000017 5.6200000000000045 1.3400000000000034 10.239999999999995 1 15 C2.4025000000000034 14.195625000000007 3.805000000000007 13.39125 5.25 12.5625 C11.084735519297936 9.216107569814412 13.968982743745414 9 21 9 C21 21.539999999999992 21 34.08 21 47 C2.519999999999996 47 -15.960000000000008 47 -35 47 C-41.2987012987013 31.883116883116884 -41.2987012987013 31.883116883116884 -41 28 C-35.964148107167304 19.771483835240687 -27.010382614398722 13.170319808769918 -18 10 C-16.298437500000006 9.597812500000003 -16.298437500000006 9.597812500000003 -14.5625 9.1875 C-10.59275352982246 7.864251176607482 -8.03198045409107 6.025584363272856 -4.796875 3.4375 C-3 1.9999999999999858 -3 1.9999999999999858 0 0 Z " fill="#868EA1" transform="translate(107,81)"/>
<path d="M0 0 C4.124754812876191 -0.11751438213322274 8.249071176275578 -0.18768823782940558 12.375 -0.25 C13.531289062500008 -0.2835156249999997 14.687578125000002 -0.31703124999999943 15.87890625 -0.3515625 C24.621875399810165 -0.45035311186226323 31.642142433712266 0.6478018720863545 38.69140625 6.0703125 C39.61759765625 7.087382812499996 39.61759765625 7.087382812499996 40.5625 8.125 C41.20316406250001 8.808203124999999 41.843828125 9.491406249999997 42.50390625 10.1953125 C45.455382594425316 13.755579004241511 45.35074927536105 16.42622944929183 45 21 C43.86544883087275 23.573150790526824 42.762737041623254 25.755671978676546 41.3125 28.125 C40.97283203124999 28.719257812500004 40.6331640625 29.313515625000008 40.283203125 29.92578125 C35.364997185599975 38.25455616793724 26.614087291705374 46.25678018885006 17.6171875 49.98828125 C15.5625 50.5 15.5625 50.5 12 51 C10.331786772951077 51.325505019911986 8.664773444949759 51.65733651218872 7 52 C0.27525531327621877 37.66269321004677 0.27525531327621877 37.66269321004677 -2.375 31.8125 C-2.6714843750000057 31.158945312499995 -2.967968749999997 30.505390625000004 -3.2734375 29.83203125 C-7.4653119990802566 19.26219716360947 -3.695625230397667 10.017784106685127 0 0 Z " fill="#47717E" transform="translate(75,42)"/>
<path d="M0 0 C3.3749999999999964 1.875 3.3749999999999964 1.875 6 4 C6.990000000000002 4.659999999999997 7.979999999999997 5.32 9 6 C13.39228078576803 15.246906917406378 10.555418488935857 26.361960434629594 9 36 C8.009999999999998 36 7.020000000000003 36 6 36 C5.731875000000002 36.639375 5.463749999999997 37.27875 5.1875 37.9375 C4 40 4 40 1 41 C0.3117164665740191 42.322304049693884 -0.3515798153247012 43.65769843688989 -1 45 C-6.648836843225382 51.46822856114379 -12.496195462510078 54.80822593343207 -21 56 C-22.99994524247704 56.0147995639619 -25.000068450966605 56.0165468782821 -27 56 C-27.123872199554718 50.96469037440802 -27.214465137375054 45.930273025554385 -27.274658203125 40.893798828125 C-27.299757138874345 39.181727552784196 -27.33384429086054 37.46976296123083 -27.377197265625 35.758056640625 C-27.438057391341935 33.29286354834957 -27.46625432084239 30.829090145869657 -27.48828125 28.36328125 C-27.514087677001953 27.601631622314457 -27.539894104003906 26.839981994628914 -27.566482543945313 26.055252075195313 C-27.56861049867573 21.99622098601806 -27.239874732669183 20.281005054544536 -24.566650390625 17.1494140625 C-23.719655761718748 16.440107421875 -22.8726611328125 15.730800781249997 -22 15 C-20.415266146801702 12.272667631821705 -20.415266146801702 12.272667631821705 -19.125 9.4375 C-14.909505583358087 1.478474918197712 -9.100122343084657 -1.6907331129228353 0 0 Z " fill="#3D574E" transform="translate(27,50)"/>
<path d="M0 0 C1.8367138941005976 2.7550708411508964 2.7123665489092446 4.838252718452637 3.75 7.9375 C5.6301824382952645 13.287151164055203 8.043095832679953 18.188833532542787 10.73046875 23.17578125 C12.161440065587101 26.359142053598404 13.077990061494546 28.485859582068798 13 32 C10.93476386610331 34.20271487062058 9.145705334473774 35.80213371125146 6.75 37.5625 C5.551848515490647 38.47335279521303 4.358979322975472 39.39120188298031 3.171875 40.31640625 C2.5996118164062523 40.75823242187499 2.0273486328125045 41.20005859375 1.437744140625 41.6552734375 C-0.24137735967455853 43.04590286223424 -0.24137735967455853 43.04590286223424 -1.20703125 45.80078125 C-3 48 -3 48 -5.31298828125 48.471923828125 C-8.370612614533997 48.676580262067375 -11.373751722767722 48.68121556471985 -14.4375 48.625 C-16.012412109375 48.65400390625 -16.012412109375 48.65400390625 -17.619140625 48.68359375 C-25.237726588729572 48.63503679675762 -25.237726588729572 48.63503679675762 -28.59765625 45.8359375 C-32.32053612897477 38.30721663054128 -33.03956409738249 31.32555246686323 -32 23 C-30.44904550123725 19.01109026906839 -28.290915120451494 15.600009474995204 -26 12 C-25.018678083584597 10.115963349104277 -24.058919297871455 8.220478393645706 -23.125 6.3125 C-22.5101171875 5.069199218750001 -22.5101171875 5.069199218750001 -21.8828125 3.80078125 C-21.591484375 3.206523437499996 -21.30015625 2.6122656250000063 -21 2 C-20.340000000000003 2 -19.68 2 -19 2 C-19 2.6599999999999966 -19 3.319999999999993 -19 4 C-17.676613680231142 4.686200313954217 -16.340500524125773 5.347864609884766 -15 6 C-14.195625 6.412499999999994 -13.39125 6.825000000000003 -12.5625 7.25 C-10.028548611441309 8.206630737081866 -10.028548611441309 8.206630737081866 -7.5 7.5 C-4.1465076735131134 5.487904604107868 -2.3646387115876166 3.107810878086582 0 0 Z " fill="#28708A" transform="translate(69,63)"/>
<path d="M0 0 C14.189999999999998 0 28.380000000000003 0 43 0 C43.66 4.62 44.31999999999999 9.24 45 14 C45.37125 15.44375 45.74250000000001 16.8875 46.125 18.375 C47.14982677637113 22.62071093068039 47.42829535077007 25.645663933837504 47 30 C45.125 33 45.125 33 43 35 C42.34 35 41.68000000000001 35 41 35 C40.67 35.99 40.34 36.98 40 38 C36.40758483442407 39.450783047636435 34.00957410104057 40.22434980023124 30.1875 39.375 C27.687237879784988 37.80340666729342 27.18885243867905 36.63245897136074 26 34 C24.515 33.505 24.515 33.505 23 33 C22.443124999999995 32.0925 21.886250000000004 31.185 21.3125 30.25 C18.761631021997502 26.664994949834327 16.47997250527814 25.178092303494328 12.70703125 23.078125 C11 22 11 22 10 20 C7.975367449103516 19.347867082956647 7.975367449103516 19.347867082956647 6 19 C6 18.34 6 17.68 6 17 C5.381250000000001 16.814375 4.762499999999999 16.62875 4.125 16.4375 C0.8418708487022073 14.216559691769142 0.7376392154794615 11.81113594664389 0 8 C0 5.359999999999999 0 2.7199999999999998 0 0 Z " fill="#27457F" transform="translate(23,0)"/>
<path d="M0 0 C8.964430273822096 5.171786696435824 14.64833314211792 14.047293863171554 17.9375 23.625 C18.178554687499997 24.3017578125 18.419609375 24.978515625 18.66796875 25.67578125 C20.293388007518907 32.38584536437291 16.153020030163155 37.98308985533299 12.9375 43.625 C12.437343749999997 44.538945312500005 11.9371875 45.45289062500001 11.421875 46.39453125 C10.277901354940077 48.48195442417543 9.117322461239034 50.55770046614754 7.9375 52.625 C7.277500000000003 52.625 6.6175 52.625 5.9375 52.625 C5.864869538529398 48.557694157646225 5.869735443030891 44.655328686090556 6.4375 40.625 C7.252757902812029 34.68526385094094 7.5965870553201285 28.43180469362045 5.9375 22.625 C4.189108559785268 21.333345753903828 4.189108559785268 21.333345753903828 1.9375 20.625 C1.2156249999999993 20.088750000000005 0.4937499999999986 19.552499999999995 -0.25 19 C-5.542668226898506 16.412473311294065 -10.277991079936047 17.020081722012222 -15.75 18.875 C-20.068606048290974 21.62411264648152 -21.654211619252123 26.298471757852937 -23.60546875 30.84765625 C-25.113772813988717 33.722734506021396 -26.305555794924146 34.97539984416787 -29.0625 36.625 C-29.3925 36.625 -29.7225 36.625 -30.0625 36.625 C-30.0625 27.384999999999998 -30.0625 18.144999999999996 -30.0625 8.625 C-28.0825 7.965000000000003 -26.1025 7.305 -24.0625 6.625 C-24.0625 5.965000000000003 -24.0625 5.305 -24.0625 4.625 C-23.072499999999998 4.625 -22.0825 4.625 -21.0625 4.625 C-21.0625 3.9650000000000034 -21.0625 3.3049999999999997 -21.0625 2.625 C-19.7425 2.2950000000000017 -18.4225 1.9650000000000034 -17.0625 1.625 C-17.0625 0.9650000000000034 -17.0625 0.3049999999999997 -17.0625 -0.375 C-11.523843052090506 -2.2212189826365005 -5.427331967603401 -2.321328733131576 0 0 Z " fill="#345F64" transform="translate(30.0625,33.375)"/>
<path d="M0 0 C7.590000000000001 0 15.180000000000001 0 23 0 C23.390625 3.2552083333333335 23.78125 6.510416666666667 24.171875 9.765625 C25.09716377256507 13.379488696622069 26.264037650152503 14.575447998915632 29 17 C29 17.66 29 18.32 29 19 C30.237499999999997 19.309375000000003 30.237499999999997 19.309375000000003 31.5 19.625 C37.4220214117617 21.951508411763523 42.489942827871914 25.631677266157045 46 31 C46 31.66 46 32.32 46 33 C45.4547265625 32.7950390625 44.909453125 32.590078125 44.34765625 32.37890625 C35.70843623341097 29.292415679970755 28.83097290494809 28.156127369592987 20 31 C18.659499475874227 31.65213539011524 17.323386319768854 32.313799686045776 16 33 C15.01 33 14.02 33 13 33 C13 33.66 13 34.32 13 35 C11.02 35.495 11.02 35.495 9 36 C9 36.66 9 37.32 9 38 C8.01 38 7.02 38 6 38 C6 38.66 6 39.32 6 40 C4.02 40.66 2.04 41.32 0 42 C0 28.14 0 14.279999999999998 0 0 Z " fill="#1B4F79" transform="translate(0,0)"/>
<path d="M0 0 C3.9100442390658117 4.620961373441411 5.384881955604385 8.27024864097578 5 14.25 C3.8078453205089176 22.494690783427785 1.4849616485404908 29.118286621162753 -5.25390625 34.28125 C-9.19178909197285 36.985689260380425 -11.098364873343584 38.21176162026504 -15.9375 37.4375 C-21.702313538264534 32.23510729473688 -25.400676806398877 24.39657105280824 -26.4375 16.75 C-25.397764814190865 9.861754394014483 -23.498523749243958 4.939281130340348 -17.9375 0.4375 C-12.63297886764822 -2.7452126794110683 -5.399997791462937 -2.872339250778154 0 0 Z " fill="#54655D" transform="translate(104.9375,53.5625)"/>
<path d="M0 0 C8.909999999999997 0 17.819999999999993 0 27 0 C27 16.830000000000002 27 33.660000000000004 27 51 C22.01686837908798 50.0033736758176 19.18636144548384 48.864508342044545 16 45 C15.030735466512425 42.913690690250974 14.39660730630024 40.856637823831626 13.765625 38.64453125 C11.240925760043524 29.92401397729321 7.515047053166498 21.69117217600319 3.33203125 13.65625 C0.7428889920193456 8.493151069129478 0 6.048091862582011 0 0 Z " fill="#3B6BA7" transform="translate(101,0)"/>
<path d="M0 0 C0 12.540000000000006 0 25.08 0 38 C-8.909999999999997 38 -17.819999999999993 38 -27 38 C-28.2741974901749 25.258025098250954 -27.00052820098037 17.5095211396264 -20 7 C-14.323068925081245 1.0242830790328838 -7.973822799397624 0 0 0 Z " fill="#9EB8E7" transform="translate(128,90)"/>
<path d="M0 0 C11.549999999999997 0 23.099999999999994 0 35 0 C35.66 2.64 36.31999999999999 5.28 37 8 C37.821256206683074 10.129752840890493 37.821256206683074 10.129752840890493 38.6875 11.8125 C40 14.999999999999996 40 14.999999999999996 39 18 C37.793437499999996 17.4740625 37.793437499999996 17.4740625 36.5625 16.9375 C30.874917027598315 15.44076763884166 25.615832663855244 16.51345605956773 20 18 C20 18.66 20 19.32 20 20 C19.340000000000003 20 18.680000000000007 20 18 20 C17.617148437499992 20.827578125 17.617148437499992 20.827578125 17.2265625 21.671875 C15.806979256077483 24.366370584005807 14.138677461749609 26.767787276056094 12.375 29.25 C11.743359374999997 30.14203125 11.111718749999994 31.0340625 10.4609375 31.953125 C9.978828125000007 32.62859375 9.49671875 33.3040625 9 34 C5.340923418862076 31.704108811835024 4.136774434032745 30.462336115040255 2.890625 26.25 C2.655950654751507 24.836680347716975 2.442884074666125 23.419626789542736 2.25 22 C2.026704523742609 20.583228702366934 1.8027658234725976 19.166558604486042 1.578125 17.75 C1.3873437499999994 16.5125 1.1965624999999989 15.275 1 14 C0.6700000000000017 12.68 0.3400000000000034 11.36 0 10 C0 6.699999999999999 0 3.3999999999999995 0 0 Z " fill="#6873A0" transform="translate(66,0)"/>
<path d="M0 0 C1.3631835937500014 -0.0038671875000062528 1.3631835937500014 -0.0038671875000062528 2.75390625 -0.0078125 C7.933959423287504 0.24855112138540392 7.933959423287504 0.24855112138540392 10.4375 1.125 C11.984375 3.41796875 11.984375 3.41796875 13.1875 6.3125 C13.594843749999995 7.254804687499998 14.002187499999991 8.197109374999997 14.421875 9.16796875 C15.4375 12.125 15.4375 12.125 16.4375 18.125 C1.5874999999999986 18.125 -13.262500000000003 18.125 -28.5625 18.125 C-25.675976391662303 12.351952783324606 -21.504357318072643 8.983932478376957 -16.625 4.875 C-15.811601562500002 4.189218749999995 -14.998203125000003 3.503437500000004 -14.16015625 2.796875 C-9.733883158030423 -0.05191429829019967 -5.144590987522406 -0.014636105227666008 0 0 Z " fill="#444F62" transform="translate(55.5625,109.875)"/>
<path d="M0 0 C0 9.900000000000006 0 19.799999999999997 0 30 C-3.6299999999999955 30.659999999999997 -7.260000000000005 31.319999999999993 -11 32 C-14.933068894149145 33.98308470854292 -14.933068894149145 33.98308470854292 -18 36 C-18.659999999999997 36 -19.319999999999993 36 -20 36 C-20.591866135218254 26.753735709812503 -20.310974427993997 20.636245615379963 -15 13 C-13.907071813537314 11.193269433383463 -12.823785365691009 9.380672805191779 -11.75 7.5625 C-10.999765624999995 6.326933593749999 -10.999765624999995 6.326933593749999 -10.234375 5.06640625 C-8.988289941191397 3.0388747681240815 -8.988289941191397 3.0388747681240815 -8 1 C-5.148292112954579 0.016652452742960122 -3.1035939134503963 0 0 0 Z " fill="#6796B5" transform="translate(128,60)"/>
</svg>
