<?xml version="1.0" encoding="UTF-8"?>
<!-- Generator: visioncortex VTracer 0.6.0 -->
<svg version="1.1" xmlns="http://www.w3.org/2000/svg" width="128" height="128">
<path d="M0 0 C42.24 0 84.48 0 128 0 C128 42.24 128 84.48 128 128 C85.75999999999999 128 43.519999999999996 128 0 128 C0 85.75999999999999 0 43.519999999999996 0 0 Z " fill="#B8C5BB" transform="translate(0,0)"/>
<path d="M0 0 C5.433176328353625 4.255599484654667 8.444991685541254 9.636305458264204 9.6328125 16.42578125 C10.306194059113764 25.283338681419536 6.90982286539132 32.45048718627167 1.7578125 39.48828125 C-2.8165184344993293 44.668401956905996 -8.558135844299414 47.05902555132042 -15.29296875 47.84375 C-23.07894395227649 48.18227066096854 -28.78514112935494 46.91255376321976 -35.2421875 42.48828125 C-36.5725 41.096093749999994 -36.5725 41.096093749999994 -37.9296875 39.67578125 C-41.82971809878378 37.100289345142784 -44.30124253527321 37.376941855976426 -48.7421875 37.61328125 C-55.62667373237072 37.8495136207186 -55.62667373237072 37.8495136207186 -58.4453125 36.1953125 C-60.037584538129636 34.37384978971534 -61.144775639545955 32.640569627479636 -62.2421875 30.48828125 C-62.8609375 29.436406250000005 -63.4796875 28.38453125000001 -64.1171875 27.30078125 C-66.00608881114297 20.89950458445994 -66.19219182034391 14.505942032268862 -64.1796875 8.11328125 C-58.23783252065001 0.06302611668711222 -50.56081428998408 -2.749812642854245 -41.31884765625 -5.8212890625 C-39.97617646957352 -6.267688558846238 -38.636961195989926 -6.724682850932815 -37.30224609375 -7.1943359375 C-22.227817319788016 -12.486801353286179 -13.020760753516015 -8.77880559514059 0 0 Z " fill="#527E63" transform="translate(92.2421875,40.51171875)"/>
<path d="M0 0 C6.695541734010362 5.496677842447696 12.252081067618803 13.443474572974537 13.5625 22.125 C13.04921305498705 37.52360835038837 3.6790472141614714 51.92859850117827 -6.8310546875 62.6875 C-14.890325526721028 69.89920010658562 -26.201496948702697 73.5246209421651 -36.875 73.0625 C-48.051025316221626 71.66743442654654 -58.572780434448234 63.989719565551766 -66.4375 56.125 C-68.01877512928104 55.993227072559904 -69.60286634655279 55.89454464182049 -71.1875 55.8125 C-75.78328879491336 55.36668881875306 -78.3444724908129 54.78039614722111 -81.4375 51.125 C-82.74770251020742 48.53332749077393 -83.61386847137031 45.90475640912521 -84.4375 43.125 C-84.829375 41.97 -85.22125 40.815 -85.625 39.625 C-88.0767544926634 29.132321874618526 -87.51742052049377 17.318878550154132 -82.18359375 7.9140625 C-79.47222886333982 3.821157466730959 -76.8813465773008 1.097814008881656 -72.0234375 -0.36328125 C-67.2029752811919 -1.3171793627852892 -62.33834641747351 -1.8714590736810024 -57.45703125 -2.40234375 C-54.05903718296793 -2.7788328597558483 -50.73267101194477 -3.3502747568225963 -47.375 -4 C-35.14908853200424 -6.095399131491849 -10.378204739363085 -7.959797396428932 0 0 Z M-70.8203125 11.1796875 C-75.94380113299584 16.84249072594278 -76.84403985575013 21.350769834357237 -76.7890625 28.91015625 C-76.12515335234215 34.9812365669157 -73.32354641742795 39.62162461975704 -69.70703125 44.421875 C-66.47385561234545 46.84814793978896 -64.34130105111561 46.25235232337397 -60.375 45.875 C-53.16120781993204 45.469257123546214 -49.21484102056623 47.47740453352654 -43.8046875 52.1796875 C-37.72730597823249 57.17397132481884 -30.963892792270713 56.80842099859967 -23.4375 56.125 C-15.696504085387346 54.433330076751304 -10.804274802657673 50.66354844121348 -6.4375 44.125 C-2.538750247033704 37.52803014360886 -0.5405611998060351 30.39451545113956 -1.84375 22.73828125 C-4.570552945961467 13.178239969218438 -10.61985135276052 8.551875641286173 -19.033447265625 3.841552734375 C-34.74106136323155 -4.53598027830844 -57.09854537223762 -0.6525248101688668 -70.8203125 11.1796875 Z " fill="#959C81" transform="translate(103.4375,31.875)"/>
<path d="M0 0 C0.5658984374999996 0.3287109375000057 1.1317968749999991 0.6574218749999972 1.71484375 0.99609375 C4.246122916538507 2.1081257941032447 5.8229514886474725 2.103119335423685 8.5625 2.0625 C15.715016775013268 2.6207965965768807 19.84601038918735 7.44458836812035 25 12 C31.821036324918282 17.150322086954873 40.085656332097884 20.714051676900283 48.79296875 20.359375 C54.67307585736732 19.401906232074708 60.592149950353345 17.472830906280223 65.67578125 14.36328125 C68 13 68 13 71 13 C70.67 16.299999999999997 70.34 19.599999999999994 70 23 C72.64 23.33 75.28 23.659999999999997 78 24 C78.495 25.485 78.495 25.485 79 27 C77.63671875000003 29.69921874999997 77.63671875000003 29.69921874999997 75.6875 32.6875 C75.0519921875 33.6813671875 74.416484375 34.675234375 73.76171875 35.69921875 C73.1803515625 36.45847656250001 72.598984375 37.21773437499999 72 38 C71.34 38 70.68 38 70 38 C70 39.97999999999999 70 41.96000000000001 70 44 C39.31 44 8.619999999999997 44 -23 44 C-23 34.75999999999999 -23 25.519999999999996 -23 16 C-12.842105263157896 18.257309941520475 -12.842105263157896 18.257309941520475 -8.5 20.75 C-7.5808984375 21.273359375 -6.661796875 21.796718749999997 -5.71484375 22.3359375 C-2.3670207736334667 24.387984389110997 0.8546232101572535 26.585613181236127 4.02734375 28.8984375 C6.205499472117133 30.32503339284068 6.205499472117133 30.32503339284068 10 30 C10.335211408035597 26.396477363617294 10.437314855268482 24.593498732150096 8.25 21.625 C7.13625 20.325625000000002 7.13625 20.325625000000002 6 19 C2.5902033902871757 13.359258396571718 0.7122180717458377 7.330018325848243 -1 1 C-0.6700000000000017 0.6700000000000017 -0.33999999999999986 0.3400000000000034 0 0 Z " fill="#B7BCCE" transform="translate(23,84)"/>
<path d="M0 0 C8.25 0 16.5 0 25 0 C25.33 1.32 25.66 2.64 26 4 C25.34 4 24.68 4 24 4 C23.71125 5.134375 23.4225 6.268750000000001 23.125 7.4375 C22.75375 8.613125 22.3825 9.78875 22 11 C21.009999999999998 11.495000000000001 21.009999999999998 11.495000000000001 20 12 C16.37353041915688 19.003411438233734 15.788718183545024 27.644768738524732 17.515380859375 35.278564453125 C18.066676251253313 38.37442829859984 18.04476757072166 41.196764900840044 17.95703125 44.33984375 C17.53891495206893 63.04291978657241 17.53891495206893 63.04291978657241 22 81 C22.403643312965958 82.42440489604807 22.791997410385385 83.85319857472595 23.16796875 85.28515625 C25.397032168678585 93.7208278564978 27.6301285532069 101.6301285532069 34 108 C34.1875 110.9375 34.1875 110.9375 34 114 C33.34 114.66 32.68 115.32 32 116 C26.57476799907214 113.09141554322879 21.20913816128696 110.15792951643809 16 106.875 C10.212251375259083 103.35609911149419 10.212251375259083 103.35609911149419 0 100 C0 67 0 34 0 0 Z " fill="#C0BACE" transform="translate(0,0)"/>
<path d="M0 0 C0 24.42 0 48.84 0 74 C-11.549999999999997 74 -23.099999999999994 74 -35 74 C-36 71 -36 71 -35 68 C-34.34 68 -33.68000000000001 68 -33 68 C-32.7525 67.29875 -32.504999999999995 66.5975 -32.25 65.875 C-30.83911974134911 62.62997540510294 -29.02104601984172 59.89683262843981 -27 57 C-27.33 56.34 -27.659999999999997 55.68000000000001 -28 55 C-29.895333415315065 54.534769370147956 -29.895333415315065 54.534769370147956 -32.0625 54.375 C-34.0115625 54.189375 -34.0115625 54.189375 -36 54 C-35.53520417733546 45.2738332648141 -33.525882013071765 40.662822148162036 -27.3828125 34.5 C-21.00121355062035 27.804551921962343 -15.589147094100696 18.6091680469883 -13.41015625 9.546875 C-12.810287266063114 7.116033365745977 -12.277545034653699 5.157532348733348 -11 3 C-7.5731800066408965 1.0083979743392675 -3.9671391995952376 0 0 0 Z " fill="#D4C0B1" transform="translate(128,54)"/>
<path d="M0 0 C12.210000000000008 0 24.42 0 37 0 C37 17.82 37 35.64 37 54 C33.370000000000005 54.99 29.739999999999995 55.98 26 57 C25.484375 55.22625 24.96875 53.4525 24.4375 51.625 C21.29185455881995 42.24344475817078 16.553894075459866 35.099436852678 8 30 C7.010000000000005 29.67 6.019999999999996 29.34 5 29 C3.769415941659844 26.679555607752746 2.762011280945643 24.495751148355907 1.8125 22.0625 C1.5449389648437517 21.38533935546875 1.2773779296875034 20.7081787109375 1.001708984375 20.010498046875 C-1.6102655111547932 13.007281669582753 -1.8110799806024573 7.244319922409843 0 0 Z " fill="#C6BDB0" transform="translate(91,0)"/>
<path d="M0 0 C7.4244912548736295 4.777498720527383 11.157154112317698 12.694660134390062 13.109375 21.09375 C13.616120817127637 26.161208171276414 13.28514627236828 29.071106388333504 10.109375 33.09375 C7.174948759810206 36.00351719615459 4.363186894658327 38.718413656353675 0.109375 39.09375 C-1.1281249999999972 39.2175 -2.3656249999999943 39.34125 -3.640625 39.46875 C-9.988168981223929 39.38600734102687 -14.237117719505697 35.53617124468653 -18.828125 31.53125 C-22.713938728487562 26.938924684514703 -22.346860138690374 21.462406820140345 -22.30078125 15.63671875 C-21.63189383830855 9.858805584246255 -19.542939344604846 4.640355305526612 -15.890625 0.09375 C-10.47868922580058 -2.3448297559633744 -5.3776923499740406 -2.5777368289131743 0 0 Z " fill="#1F563C" transform="translate(72.890625,41.90625)"/>
<path d="M0 0 C7.590000000000003 0 15.18 0 23 0 C24.87499999999779 8.937499999989459 24.87499999999779 8.937499999989459 25.45263671875 11.695068359375 C26.596810334398356 17.138969129427586 27.78397119611146 22.571691240299355 29 28 C26.10538531017204 29.610869369214505 23.690872425579755 30.34446271896186 20.41015625 30.74609375 C19.543261718750003 30.86146484375 18.6763671875 30.9768359375 17.783203125 31.095703125 C15.973726585567029 31.3230242982956 14.163826465547238 31.54699951501263 12.353515625 31.767578125 C5.703276804328318 32.633992500715124 5.703276804328318 32.633992500715124 0 36 C-1.8200312206239957 38.45471845195796 -1.8200312206239957 38.45471845195796 -3.25 41.1875 C-4.146685514061051 42.80292055239349 -5.057761814621873 44.41071850377677 -6 46 C-6.329999999999998 46 -6.66 46 -7 46 C-9.498745087238682 32.16766112421445 -10.374090334688923 21.748180669377845 -4 9 C-3.34 9 -2.6799999999999997 9 -2 9 C-1.8556249999999999 8.2575 -1.7112499999999997 7.515 -1.5625 6.75 C-1.0996858856546368 4.487353218756001 -0.5601348241645319 2.2405392966581243 0 0 Z " fill="#BEC0B2" transform="translate(25,0)"/>
<path d="M0 0 C0.2655468749999983 1.1575781250000006 0.5310937500000001 2.315156250000001 0.8046875 3.5078125 C1.1613076352074998 5.046909925632377 1.5180869051548171 6.585970484639219 1.875 8.125 C2.0490234375000007 8.885546875000003 2.2230468750000014 9.646093750000006 2.40234375 10.4296875 C3.39893755886445 14.711349789936165 4.568972457717749 18.838571907043217 6 23 C6.283593750000001 24.027382812500008 6.567187499999999 25.054765625 6.859375 26.11328125 C8.922594555189264 33.52458307324565 11.442932064125237 40.442932064125245 17 46 C17.1875 48.9375 17.1875 48.9375 17 52 C16.340000000000003 52.66 15.68 53.31999999999999 15 54 C9.57476799907214 51.09141554322879 4.209138161286951 48.15792951643809 -1 44.875 C-6.787748624740999 41.356099111494174 -6.787748624740999 41.356099111494174 -17 38 C-17 26.120000000000005 -17 14.239999999999995 -17 2 C-1.9999999999999982 0 -1.9999999999999982 0 0 0 Z " fill="#CEB8CA" transform="translate(17,62)"/>
<path d="M0 0 C0.5658984374999996 0.3287109375000057 1.1317968749999991 0.6574218749999972 1.71484375 0.99609375 C4.246122916538496 2.1081257941032447 5.822951488647483 2.103119335423685 8.5625 2.0625 C15.715016775013268 2.6207965965768807 19.846010389187356 7.44458836812035 25 12 C31.821036324918282 17.150322086954873 40.085656332097884 20.714051676900283 48.79296875 20.359375 C54.67307585736734 19.401906232074708 60.59214995035333 17.472830906280223 65.67578125 14.36328125 C68 13 68 13 71 13 C70.67 16.299999999999997 70.34 19.599999999999994 70 23 C53.620026155637575 31.338895775311784 35.394951634843366 33.64915708935901 17.731689453125 28.26513671875 C12.1103569141235 26.334259855966295 8.773457640987306 24.241179793991762 6 19 C5.631328125 18.381249999999994 5.262656249999999 17.762500000000003 4.8828125 17.125 C2.0742185328225986 12.040829898832143 0.5103706272087187 6.583794439983748 -1 1 C-0.6700000000000017 0.6700000000000017 -0.33999999999999986 0.3400000000000034 0 0 Z " fill="#B4BAA7" transform="translate(23,84)"/>
<path d="M0 0 C3.1917187810038996 1.7492690947075147 5.794167786667828 3.6999171112205005 8.5625 6.0546875 C14.720810819206093 10.969493249943326 21.42705795691296 10.737568534207796 29 10 C32.813742732381314 8.95947707182954 36.39580592678382 7.6179147743495434 40 6 C41.720952231147805 7.720952231147805 41.17199761018475 9.971639137897583 41.1875 12.3125 C41.20167968749999 13.278007812499993 41.21585937500001 14.243515625 41.23046875 15.23828125 C40.98664117801012 18.16007944316692 40.745579082670446 19.65232262504614 39 22 C36.390625 23.44921875 36.390625 23.44921875 33.25 24.6875 C32.22390625 25.1038671875 31.197812499999998 25.520234375 30.140625 25.94921875 C21.776518039619106 28.747657521570233 13.21437736958778 28.79099152376766 5.125 25.0625 C-2.066291041432173 21.131569205648006 -9.204962128216877 15.795037871783123 -15 10 C-15.1953125 7.8359375 -15.1953125 7.8359375 -15.125 5.375 C-15.097929687499999 4.149101562499993 -15.097929687499999 4.149101562499993 -15.0703125 2.8984375 C-15.047109374999998 2.271953124999996 -15.023906250000003 1.6454687500000063 -15 1 C-10.439158036853684 -1.2804209815731582 -4.907479028758289 -0.7754359128314263 0 0 Z " fill="#88A57A" transform="translate(51,77)"/>
<path d="M0 0 C1.0842638388091999 4.027265687005595 1.758770636132006 6.589853956234677 -0.26953125 10.359375 C-0.8199609374999994 11.23078125 -1.3703906249999989 12.1021875 -1.9375 13 C-7.185063724327655 22.355933476168474 -5.4913564360834926 33.61348087417363 -5 44 C-19.150331517101037 45.058754020875725 -19.150331517101037 45.058754020875725 -23.29296875 42.6875 C-24.87010358432159 40.87115962525431 -25.93942908602857 39.15521639546 -27 37 C-27.61875 35.948125000000005 -28.2375 34.89625000000001 -28.875 33.8125 C-30.76390131114297 27.411223334459933 -30.9500043203439 21.017660782268862 -28.9375 14.625 C-22.510201759266693 5.917047544812931 -10.932200445639879 0 0 0 Z " fill="#6E784A" transform="translate(57,34)"/>
<path d="M0 0 C0 10.89 0 21.78 0 33 C-11.549999999999997 33 -23.099999999999994 33 -35 33 C-36 30 -36 30 -35 27 C-34.34 27 -33.68000000000001 27 -33 27 C-32.724140625000004 26.269101562499998 -32.448281249999994 25.538203124999995 -32.1640625 24.78515625 C-29.27471738706268 17.87205871468352 -26.02974916177422 12.875091080508156 -19.01171875 9.9609375 C-16.76905550786327 8.889684766862842 -15.213979456145623 7.601918492317225 -13.375 5.9375 C-9.188609495813836 2.1707021659372856 -5.760670475865027 0 0 0 Z " fill="#DFC3E4" transform="translate(128,95)"/>
<path d="M0 0 C10.157894736842103 2.257309941520461 10.157894736842103 2.257309941520461 14.5 4.75 C15.420390625 5.2772265625000045 16.34078125 5.804453124999995 17.2890625 6.34765625 C20.613137297650532 8.373713367299956 23.85955816755858 10.488818097464545 27.06640625 12.6953125 C29.10466385978445 14.111128133479923 29.10466385978445 14.111128133479923 31.8125 15.5625 C36.14927073387391 18.412377910831424 38.34347751719502 22.168476091818818 40 27 C39 28 39 28 35.306396484375 28.113525390625 C33.6612870762746 28.11336623680188 32.01617268946649 28.107669884416055 30.37109375 28.09765625 C29.07474754333496 28.09553382873534 29.07474754333496 28.09553382873534 27.752212524414063 28.093368530273438 C24.980607077806848 28.087752387746633 22.20908119997312 28.075197191079496 19.4375 28.0625 C17.56315220486612 28.057487077763 15.688803148838588 28.052923811617944 13.814453125 28.048828125 C9.209579789891183 28.038626810566882 4.604879395674301 28.01905467336141 0 28 C0 18.75999999999999 0 9.519999999999996 0 0 Z " fill="#BBA2CC" transform="translate(0,100)"/>
</svg>
